<svg id="Layer_1" data-name="Layer 1" xmlns="http://www.w3.org/2000/svg" viewBox="0 0 256 256"><defs><style>.cls-1{fill:#0e4e91;}.cls-2{fill:#abe7ff;}.cls-3{fill:#2db5ff;}.cls-4{fill:#caf5fe;}.cls-5{fill:#fff;}.cls-6{fill:none;stroke:#0e4e91;stroke-linecap:round;stroke-linejoin:round;}</style></defs><path class="cls-1" d="M135.21,229.49l0-1.29c2.26-.06,4.54-.21,6.78-.43l.13,1.28C139.82,229.27,137.5,229.42,135.21,229.49Zm-5.17,0c-2.29-.05-4.6-.19-6.87-.4l.12-1.28c2.24.21,4.52.34,6.78.4Zm17.18-1.09-.2-1.27c2.24-.34,4.49-.76,6.69-1.26l.28,1.25C151.76,227.64,149.48,228.07,147.22,228.41ZM159,225.87l-.35-1.24c2.17-.61,4.35-1.31,6.48-2.08l.43,1.21C163.41,224.54,161.2,225.25,159,225.87Zm11.38-4-.5-1.18c2.07-.87,4.14-1.83,6.16-2.86l.58,1.15C174.58,220,172.47,221,170.38,221.88Zm10.78-5.35-.64-1.11c2-1.13,3.9-2.34,5.77-3.6l.72,1.07C185.11,214.16,183.14,215.39,181.16,216.53ZM84,216.76c-2-1.13-4-2.35-5.87-3.62l.71-1.07c1.88,1.25,3.83,2.46,5.79,3.57Zm107.21-6.87-.77-1c1.81-1.36,3.59-2.8,5.29-4.28l.84,1C194.85,207.06,193,208.51,191.21,209.89Zm-117.31.27c-1.83-1.37-3.64-2.82-5.38-4.31l.84-1c1.72,1.48,3.5,2.91,5.31,4.26Zm126.48-8.09-.89-.93c1.62-1.56,3.21-3.21,4.72-4.89l1,.86C203.64,198.81,202,200.48,200.38,202.07Zm-135.68.3c-1.65-1.57-3.27-3.23-4.81-4.93l1-.87c1.52,1.68,3.12,3.32,4.74,4.87Zm143.83-9.19-1-.81c1.42-1.76,2.8-3.58,4.09-5.43l1,.73C211.36,189.55,210,191.4,208.53,193.18Zm-152,.34c-1.44-1.77-2.85-3.61-4.17-5.48l1-.74c1.3,1.84,2.69,3.66,4.12,5.41Zm159-10.16-1.09-.68c1.19-1.92,2.34-3.9,3.39-5.9l1.14.6C217.9,179.41,216.74,181.42,215.53,183.36Zm-166.06.38c-1.22-1.93-2.38-3.93-3.46-6l1.13-.6c1.07,2,2.22,4,3.42,5.87Zm171.8-11-1.17-.54c1-2.05,1.85-4.16,2.65-6.28l1.2.46C223.14,168.53,222.23,170.67,221.27,172.75ZM34.68,138.36c-.14-2-.21-4.09-.23-6.13v-.76h1.29v.75c0,2,.09,4.05.23,6.05Zm1.2-12-1.29-.07c.12-2.29.33-4.6.61-6.87l1.27.16C36.2,121.84,36,124.12,35.88,126.38ZM227.4,113.85c-.42-2.22-.91-4.46-1.48-6.64l1.24-.32c.58,2.21,1.08,4.47,1.5,6.73Zm-190.17.71L36,114.33c.4-2.25.89-4.52,1.45-6.73l1.24.31C38.11,110.1,37.63,112.33,37.23,114.56Zm187.28-12.25c-.69-2.15-1.46-4.3-2.29-6.4l1.19-.48c.85,2.13,1.63,4.32,2.32,6.49ZM40,103l-1.23-.38c.68-2.18,1.44-4.37,2.27-6.52l1.2.47C41.46,98.68,40.7,100.85,40,103ZM220.21,91.23c-.94-2-2-4.09-3.05-6.07l1.12-.62c1.1,2,2.15,4.08,3.1,6.15Zm-176,.63-1.17-.53c.94-2.08,2-4.16,3.06-6.18l1.13.61C46.2,87.75,45.19,89.81,44.26,91.86Zm170.33-11.1c-1.19-1.92-2.46-3.82-3.78-5.65l1-.75c1.34,1.86,2.63,3.78,3.83,5.73Zm-164.77.57-1.09-.67c1.19-2,2.46-3.89,3.79-5.75l1,.74C52.26,77.49,51,79.41,49.82,81.33Zm157.9-10.27c-1.42-1.76-2.91-3.49-4.45-5.15l.94-.87c1.56,1.68,3.08,3.43,4.51,5.21Zm-151.08.51-1-.8c1.42-1.79,2.93-3.55,4.47-5.24l.95.86C59.52,68.06,58,69.8,56.64,71.57Zm143.07-9.3c-1.62-1.57-3.32-3.11-5.05-4.57l.83-1c1.76,1.48,3.47,3,5.11,4.62ZM94,42.87l-.51-1.17c2.1-.91,4.26-1.76,6.41-2.51l.43,1.21C98.2,41.15,96.07,42,94,42.87Zm64.89-4.23c-2.17-.62-4.39-1.17-6.61-1.63l.27-1.26c2.24.47,4.49,1,6.69,1.65Zm-53.71.2-.36-1.24c2.19-.64,4.44-1.21,6.68-1.7l.27,1.26C109.56,37.64,107.35,38.2,105.18,38.84Zm42.09-2.75c-2.23-.34-4.5-.61-6.76-.8l.11-1.28c2.28.19,4.59.47,6.84.81Zm-30.49.12-.2-1.27c2.25-.37,4.55-.66,6.83-.86l.12,1.28C121.28,35.56,119,35.85,116.78,36.21ZM135.42,35c-2.26-.07-4.55-.06-6.8,0l-.05-1.29c2.28-.08,4.6-.09,6.89,0Z"/><circle class="cls-2" cx="135.63" cy="132.12" r="80.34"/><polygon class="cls-3" points="136.63 82.16 143.3 93.72 129.96 93.72 136.63 82.16"/><polygon class="cls-4" points="141.84 66.96 139.19 69.46 139.75 73.05 136.55 71.31 133.3 72.94 133.98 69.37 131.42 66.78 135.03 66.32 136.69 63.09 138.25 66.37 141.84 66.96"/><path class="cls-4" d="M121.33,84.87c3.92,0,7.1,1.7,7.1,3.82s-3.18,3.83-7.1,3.83-7.1-1.72-7.1-3.83S117.41,84.87,121.33,84.87Z"/><circle class="cls-5" cx="120.74" cy="68.69" r="5.5"/><path class="cls-5" d="M111.86,87.47l-3.19-5.54h-6.4l-3.18,5.54L102.27,93h6.4Zm9.47-2.6c-3.92,0-7.1,1.7-7.1,3.82s3.18,3.83,7.1,3.83,7.1-1.72,7.1-3.83S125.25,84.87,121.33,84.87Zm25.34-25.15V96.9a1.92,1.92,0,0,1-1.92,1.93h-48a1.92,1.92,0,0,1-1.93-1.93V59.72a1.93,1.93,0,0,1,1.93-1.93h48A1.93,1.93,0,0,1,146.67,59.72Zm-3.37,34-6.67-11.56L130,93.72Zm-4.11-24.26,2.65-2.5-3.59-.59-1.56-3.28L135,66.32l-3.61.46L134,69.37l-.68,3.57,3.25-1.63,3.19,1.74Zm-13-.77a5.5,5.5,0,1,0-5.5,5.49A5.5,5.5,0,0,0,126.24,68.69Zm-15.31,5.9V62.78H99.12V74.59Z"/><polygon class="cls-5" points="108.67 81.93 111.86 87.47 108.67 93 102.27 93 99.09 87.47 102.27 81.93 108.67 81.93"/><rect class="cls-4" x="99.12" y="62.78" width="11.81" height="11.81"/><path class="cls-6" d="M144.75,98.83h-48a1.92,1.92,0,0,1-1.93-1.93V59.72a1.93,1.93,0,0,1,1.93-1.93h48a1.93,1.93,0,0,1,1.92,1.93V96.9A1.92,1.92,0,0,1,144.75,98.83Z"/><rect class="cls-6" x="99.12" y="62.78" width="11.81" height="11.81"/><circle class="cls-6" cx="120.74" cy="68.69" r="5.5"/><polygon class="cls-6" points="138.25 66.37 141.84 66.96 139.19 69.46 139.75 73.05 136.55 71.31 133.3 72.94 133.98 69.37 131.42 66.78 135.03 66.32 136.69 63.09 138.25 66.37"/><polygon class="cls-6" points="108.67 81.93 102.27 81.93 99.09 87.47 102.27 93 108.67 93 111.86 87.47 108.67 81.93"/><path class="cls-6" d="M128.43,88.69c0,2.11-3.18,3.83-7.1,3.83s-7.1-1.72-7.1-3.83,3.18-3.82,7.1-3.82S128.43,86.57,128.43,88.69Z"/><polygon class="cls-6" points="136.63 82.16 129.96 93.72 143.3 93.72 136.63 82.16"/><path class="cls-5" d="M75.44,157.6v8.33H55.57V142.68h6.66S60,137,65.57,137,69,142.68,69,142.68h6.44v8.39a4,4,0,0,0-1.14-.21h-.2c-1.13,0-2.58.53-2.58,3.55s1.36,3.49,2.48,3.47h.21A4,4,0,0,0,75.44,157.6Z"/><path class="cls-4" d="M84.54,148.29a7.16,7.16,0,0,0,1,.07c5.61,0,3.42-5.68,3.42-5.68h6.47v0h.19v8.43a4.85,4.85,0,0,1,.87-.24,1.15,1.15,0,0,1,.26,0h.44c1.09,0,2.35.72,2.35,3.54s-1.22,3.44-2.29,3.47h-.41a4,4,0,0,1-1.22-.33v0h0l0,0v8.4h-20v-8.4l-.15.07v-.07a4.22,4.22,0,0,1-1.23.33H74c-1.12,0-2.48-.53-2.48-3.47s1.45-3.58,2.58-3.55h.2a4.3,4.3,0,0,1,1.14.27v-.06l.15.06V142.7h6.56c-.13.36-1.7,4.74,2.07,5.51Z"/><path class="cls-5" d="M75.61,119.42h6.71s-2.27-5.68,3.34-5.68,3.43,5.68,3.43,5.68h6.65v7.76s-4.89-2.62-4.89,3.88,4.89,4,4.89,4v7.64h-6.8s2.19,5.68-3.42,5.68a7.16,7.16,0,0,1-1-.07l-.32-.08c-3.73-.9-1.9-5.51-1.9-5.51h-.17l0,0H75.65v-7.62c.57.28,4.83,2.07,4.83-4s-4.26-4.19-4.83-3.91v-7.72Z"/><path class="cls-4" d="M115.56,134.47v8.23h0v0h-6.62c.11-.32,2-5.67-3.45-5.67s-3.47,5.34-3.35,5.67H95.74V135s-4.89,2.52-4.89-4,4.89-3.88,4.89-3.88v-7.72h19.82v8s3.93-1.28,3.93,3.57S115.56,134.47,115.56,134.47Z"/><path class="cls-4" d="M75.65,127.14c.57-.28,4.83-2.16,4.83,3.91s-4.26,4.29-4.83,4l-.06,0v7.64H69S71.18,137,65.57,137s-3.34,5.68-3.34,5.68H55.49v-8.22s-3.92,1.38-3.92-3.48,3.92-3.59,3.92-3.59v-8h20.1v7.75Z"/><path class="cls-3" d="M95.74,142.7h6.4v0c-.12-.33-2.08-5.67,3.35-5.67s3.56,5.35,3.45,5.67l0,0h6.64v8.43s-3.92-1.7-3.92,3.27,3.92,3.13,3.92,3.13v8.4h-20v-8.37a4.47,4.47,0,0,0,1.22.3h.41c1.07,0,2.29-.7,2.29-3.47s-1.26-3.49-2.35-3.54h-.44a1.15,1.15,0,0,0-.26,0,3.27,3.27,0,0,0-.87.22V142.7h.14Z"/><path class="cls-6" d="M75.59,165.93v-8.4l-.15.07a4,4,0,0,1-1.23.26H74"/><polyline class="cls-6" points="55.57 142.68 55.57 165.93 62.44 165.93 68.53 165.93 75.44 165.93"/><path class="cls-6" d="M74.3,150.86a4,4,0,0,1,1.14.21l.15.06V142.7"/><path class="cls-6" d="M95.54,142.68h-6.6s2.19,5.68-3.42,5.68a7.16,7.16,0,0,1-1-.07"/><path class="cls-6" d="M96.47,150.89a4.85,4.85,0,0,0-.87.24v-8.45"/><path class="cls-6" d="M96.94,150.85h-.21"/><path class="cls-6" d="M97.23,157.87c1.07,0,2.29-.7,2.29-3.47s-1.26-3.49-2.35-3.54"/><path class="cls-6" d="M96.83,157.86h.29"/><path class="cls-6" d="M95.6,165.93v-8.4a4,4,0,0,0,1.22.33"/><path class="cls-6" d="M75.44,142.68v8.45a4.3,4.3,0,0,0-1.14-.27h-.2c-1.13,0-2.58.53-2.58,3.55s1.36,3.49,2.48,3.47h.21a4.22,4.22,0,0,0,1.23-.33v8.4h20.1"/><path class="cls-6" d="M84.22,148.21c-3.77-.77-2.2-5.15-2.07-5.51l0,0H75.65"/><path class="cls-6" d="M75.65,135.06v7.62H69S71.18,137,65.57,137s-3.34,5.68-3.34,5.68H55.49v-8.22s-3.92,1.38-3.92-3.48,3.92-3.59,3.92-3.59v-8H75.65v7.72"/><polyline class="cls-6" points="95.54 142.7 95.45 142.7 95.41 142.7 95.41 142.68"/><path class="cls-6" d="M95.74,119.45h19.82v8s3.93-1.28,3.93,3.57-3.93,3.48-3.93,3.48v8.23h-6.65l0,0c.11-.32,2-5.67-3.45-5.67s-3.47,5.34-3.35,5.67v0h-6.4"/><path class="cls-6" d="M84.73,148.32l-.12,0h-.07l-.32-.08c-3.73-.9-1.9-5.51-1.9-5.51H75.59V135l.06,0c.57.28,4.83,2.07,4.83-4s-4.26-4.19-4.83-3.91l-.06,0v-7.75h6.73s-2.27-5.68,3.34-5.68,3.43,5.68,3.43,5.68h6.65v7.76s-4.89-2.62-4.89,3.88,4.89,4,4.89,4v7.66h-.2"/><polyline class="cls-6" points="102.13 142.68 95.74 142.68 95.6 142.68 95.59 142.68 95.54 142.68 95.54 142.7"/><path class="cls-6" d="M108.93,142.68h6.62v8.45s-3.92-1.7-3.92,3.27,3.92,3.13,3.92,3.13v8.4h-20v-8.4l0,0h0a4.47,4.47,0,0,0,1.22.3h.41"/><path class="cls-6" d="M97.17,150.86h-.44a1.15,1.15,0,0,0-.26,0,3.27,3.27,0,0,0-.87.22h0"/><path class="cls-3" d="M207.36,118.15A4.7,4.7,0,0,1,211,119.4a6.9,6.9,0,0,1,1.6,4.92c0,4.23-1.74,6.32-4.75,6.32-1.63,0-2-.53-2-2.12v-8.83c0-.65.05-1,.25-1.23A2,2,0,0,1,207.36,118.15Z"/><path class="cls-5" d="M205.76,128.52c0,1.59.41,2.12,2,2.12,3,0,4.75-2.09,4.75-6.32a6.9,6.9,0,0,0-1.6-4.92,4.7,4.7,0,0,0-3.59-1.25,2,2,0,0,0-1.35.31c-.2.2-.25.58-.25,1.23Zm-3.09-8.32c0-1.87-.25-2-1.9-2.19v-.82h6.85c2.86,0,4.95.6,6.38,1.94a6.33,6.33,0,0,1,2,4.86,7,7,0,0,1-2.8,5.83,10.19,10.19,0,0,1-6.31,1.87h-6.14v-.82c1.69-.14,1.9-.34,1.9-2.19Z"/><path class="cls-3" d="M200.77,118c1.65.14,1.9.32,1.9,2.19v8.48c0,1.85-.21,2-1.9,2.19v.82h6.14a10.19,10.19,0,0,0,6.31-1.87A7,7,0,0,0,216,124a6.33,6.33,0,0,0-2-4.86c-1.43-1.34-3.52-1.94-6.38-1.94h-6.85Zm-2.8,16.8V114.56h20.25v20.25Z"/><path class="cls-5" d="M184.34,118.7a2.41,2.41,0,0,1,2.49,2.68c0,1.65-.78,2.56-2.89,2.56h-.87v-4.23c0-.47,0-.67.22-.83A2.15,2.15,0,0,1,184.34,118.7Z"/><path class="cls-3" d="M183.29,118.88c-.25.16-.22.36-.22.83v4.23h.87c2.11,0,2.89-.91,2.89-2.56a2.41,2.41,0,0,0-2.49-2.68A2.15,2.15,0,0,0,183.29,118.88Zm7.48,9a4,4,0,0,1-2.15,3.39,8.89,8.89,0,0,1-4.24.93h-6.25v-.82c1.73-.18,1.91-.29,1.91-2.16v-8.51c0-1.87-.3-2.07-1.89-2.18v-.83h6.79a6.66,6.66,0,0,1,3.66.78A2.87,2.87,0,0,1,190,121c0,1.85-1.75,3-3.2,3.25C189.12,124.67,190.77,125.78,190.77,127.9ZM185,131.26c1.22,0,2.43-1.09,2.43-3.16s-1.1-3.19-3.59-3.19h-.78v4.28C183.07,130.8,183.8,131.29,185,131.26Z"/><path class="cls-5" d="M187.44,128.1c0,2.07-1.21,3.14-2.43,3.16s-1.94-.46-1.94-2.07v-4.28h.78C186.34,124.91,187.44,125.94,187.44,128.1Z"/><path class="cls-5" d="M195.25,134.81H175V114.56h20.24ZM180,120.73v8.51c0,1.87-.18,2-1.91,2.16v.82h6.25a8.89,8.89,0,0,0,4.24-.93,4,4,0,0,0,2.15-3.39c0-2.12-1.65-3.23-4-3.67,1.45-.29,3.2-1.4,3.2-3.25a2.87,2.87,0,0,0-1.37-2.48,6.66,6.66,0,0,0-3.66-.78h-6.79v.83C179.74,118.66,180,118.86,180,120.73Z"/><path class="cls-5" d="M160.23,94.31h20.25v20.25H160.23Zm2.81,9.14c0,3.55,2.47,7.41,8.48,7.41a19.4,19.4,0,0,0,4.1-.58,30.21,30.21,0,0,0,1.25-3.59l-.85-.34c-1.2,2.46-2.45,3.44-4.32,3.44-3.07,0-5.16-2.76-5.16-6.86,0-3.5,1.63-6.2,4.87-6.2a5.72,5.72,0,0,1,1.94.31c1.18.48,1.85,1.3,2.32,3l.89-.15c-.16-1-.31-2.65-.43-3.69a23,23,0,0,0-4.21-.54C166.56,95.7,163,98.83,163,103.45Z"/><path class="cls-3" d="M171.7,109.79c1.87,0,3.12-1,4.32-3.44l.85.34a30.21,30.21,0,0,1-1.25,3.59,19.4,19.4,0,0,1-4.1.58c-6,0-8.48-3.86-8.48-7.41,0-4.62,3.52-7.75,8.88-7.75a23,23,0,0,1,4.21.54c.12,1,.27,2.7.43,3.69l-.89.15c-.47-1.74-1.14-2.56-2.32-3a5.72,5.72,0,0,0-1.94-.31c-3.24,0-4.87,2.7-4.87,6.2C166.54,107,168.63,109.79,171.7,109.79Z"/><path class="cls-4" d="M154.08,121.56l1.72,4.73h-3.56C152.8,124.67,153.44,123.16,154.08,121.56Z"/><path class="cls-3" d="M154.08,121.56c-.64,1.6-1.28,3.11-1.84,4.73h3.56ZM160,129c.83,2.07,1,2.23,2.49,2.41v.82H156v-.82c1.41-.2,1.41-.45,1.1-1.41-.23-.67-.58-1.67-.92-2.56h-4.36c-.24.69-.55,1.54-.78,2.23-.46,1.4.07,1.58,1.84,1.74v.82h-5.51v-.82c1.4-.18,1.76-.38,2.52-2.25l4.64-11.54,1.07-.2C157.07,121.29,158.58,125.27,160,129Z"/><path class="cls-4" d="M156.22,127.43c.34.89.69,1.89.92,2.56.31,1,.31,1.21-1.1,1.41v.82h6.48v-.82c-1.46-.18-1.66-.34-2.49-2.41-1.45-3.72-3-7.7-4.39-11.58l-1.07.2-4.64,11.54c-.76,1.87-1.12,2.07-2.52,2.25v.82h5.51v-.82c-1.77-.16-2.3-.34-1.84-1.74.23-.69.54-1.54.78-2.23Zm-11.31,7.38V114.56h20.24v20.25Z"/><polyline class="cls-6" points="160.23 114.56 144.91 114.56 144.91 134.81 165.15 134.81 165.15 114.56"/><polyline class="cls-6" points="175.01 114.56 175.01 134.81 195.25 134.81 195.25 114.56 180.48 114.56"/><polygon class="cls-6" points="180.48 114.56 180.48 94.31 160.23 94.31 160.23 114.56 165.15 114.56 175.01 114.56 180.48 114.56"/><rect class="cls-6" x="197.97" y="114.56" width="20.25" height="20.24"/><path class="cls-5" d="M167.53,181.91v1.9H162.9v-1.9a.26.26,0,0,1,.26-.26h4.11A.26.26,0,0,1,167.53,181.91Z"/><path class="cls-5" d="M155.21,183.81h14.56a.4.4,0,0,1,.4.4v10.24a.39.39,0,0,1-.4.4H144.7a.39.39,0,0,1-.39-.4V184.21a.4.4,0,0,1,.39-.4h10.51Z"/><path class="cls-5" d="M159.84,181.93v1.88h-4.63v-1.88a.28.28,0,0,1,.28-.28h4.07A.28.28,0,0,1,159.84,181.93Z"/><path class="cls-5" d="M152.14,181.79v2h-4.62v-2a.14.14,0,0,1,.14-.14H152A.14.14,0,0,1,152.14,181.79Z"/><line class="cls-6" x1="159.84" y1="183.81" x2="162.9" y2="183.81"/><line class="cls-6" x1="152.14" y1="183.81" x2="155.21" y2="183.81"/><path class="cls-6" d="M167.53,183.81h2.24a.4.4,0,0,1,.4.4v10.24a.39.39,0,0,1-.4.4H144.7a.39.39,0,0,1-.39-.4V184.21a.4.4,0,0,1,.39-.4h2.82"/><path class="cls-6" d="M152.14,183.81h-4.62v-2a.14.14,0,0,1,.14-.14H152a.14.14,0,0,1,.14.14Z"/><path class="cls-6" d="M159.84,183.81h-4.63v-1.88a.28.28,0,0,1,.28-.28h4.07a.28.28,0,0,1,.28.28Z"/><path class="cls-6" d="M167.53,183.81H162.9v-1.9a.26.26,0,0,1,.26-.26h4.11a.26.26,0,0,1,.26.26Z"/><path class="cls-5" d="M141.67,181.91v1.9H137v-1.9a.26.26,0,0,1,.26-.26h4.11A.26.26,0,0,1,141.67,181.91Z"/><path class="cls-5" d="M129.35,183.81h14.56a.41.41,0,0,1,.4.4v10.24a.4.4,0,0,1-.4.4H118.83a.39.39,0,0,1-.38-.4V184.21a.4.4,0,0,1,.38-.4h10.52Z"/><path class="cls-5" d="M134,181.93v1.88h-4.63v-1.88a.28.28,0,0,1,.28-.28h4.07A.28.28,0,0,1,134,181.93Z"/><path class="cls-5" d="M126.28,181.79v2h-4.63v-2a.15.15,0,0,1,.14-.14h4.35A.14.14,0,0,1,126.28,181.79Z"/><line class="cls-6" x1="133.98" y1="183.81" x2="137.04" y2="183.81"/><line class="cls-6" x1="126.28" y1="183.81" x2="129.35" y2="183.81"/><path class="cls-6" d="M141.67,183.81h2.24a.41.41,0,0,1,.4.4v10.24a.4.4,0,0,1-.4.4H118.83a.39.39,0,0,1-.38-.4V184.21a.4.4,0,0,1,.38-.4h2.82"/><path class="cls-6" d="M126.28,183.81h-4.63v-2a.15.15,0,0,1,.14-.14h4.35a.14.14,0,0,1,.14.14Z"/><path class="cls-6" d="M134,183.81h-4.63v-1.88a.28.28,0,0,1,.28-.28h4.07a.28.28,0,0,1,.28.28Z"/><path class="cls-6" d="M141.67,183.81H137v-1.9a.26.26,0,0,1,.26-.26h4.11a.26.26,0,0,1,.26.26Z"/><path class="cls-4" d="M193.4,181.91v1.9h-4.63v-1.9a.26.26,0,0,1,.26-.26h4.11A.26.26,0,0,1,193.4,181.91Z"/><path class="cls-4" d="M181.07,183.81h14.56a.4.4,0,0,1,.4.4v10.24a.39.39,0,0,1-.4.4H170.56a.39.39,0,0,1-.39-.4V184.21a.4.4,0,0,1,.39-.4h10.51Z"/><path class="cls-5" d="M185.7,181.93v1.88h-4.63v-1.88a.28.28,0,0,1,.28-.28h4.07A.28.28,0,0,1,185.7,181.93Z"/><path class="cls-5" d="M178,181.79v2h-4.63v-2a.14.14,0,0,1,.14-.14h4.35A.15.15,0,0,1,178,181.79Z"/><line class="cls-6" x1="185.7" y1="183.81" x2="188.77" y2="183.81"/><line class="cls-6" x1="178.01" y1="183.81" x2="181.07" y2="183.81"/><path class="cls-6" d="M193.4,183.81h2.23a.4.4,0,0,1,.4.4v10.24a.39.39,0,0,1-.4.4H170.56a.39.39,0,0,1-.39-.4V184.21a.4.4,0,0,1,.39-.4h2.82"/><path class="cls-6" d="M178,183.81h-4.63v-2a.14.14,0,0,1,.14-.14h4.35a.15.15,0,0,1,.14.14Z"/><path class="cls-6" d="M185.7,183.81h-4.63v-1.88a.28.28,0,0,1,.28-.28h4.07a.28.28,0,0,1,.28.28Z"/><path class="cls-6" d="M193.4,183.81h-4.63v-1.9a.26.26,0,0,1,.26-.26h4.11a.26.26,0,0,1,.26.26Z"/><path class="cls-5" d="M158.59,170.82v1.9H154v-1.9a.26.26,0,0,1,.26-.26h4.11A.26.26,0,0,1,158.59,170.82Z"/><path class="cls-4" d="M146.27,172.72h14.56a.4.4,0,0,1,.4.4v10.24a.39.39,0,0,1-.4.4H135.75a.39.39,0,0,1-.38-.4V173.12a.4.4,0,0,1,.38-.4h10.52Z"/><path class="cls-4" d="M150.9,170.84v1.88h-4.63v-1.88a.28.28,0,0,1,.28-.28h4.07A.28.28,0,0,1,150.9,170.84Z"/><path class="cls-4" d="M143.2,170.7v2h-4.63v-2a.15.15,0,0,1,.14-.14h4.35A.14.14,0,0,1,143.2,170.7Z"/><line class="cls-6" x1="150.9" y1="172.72" x2="153.96" y2="172.72"/><line class="cls-6" x1="143.2" y1="172.72" x2="146.27" y2="172.72"/><path class="cls-6" d="M158.59,172.72h2.24a.4.4,0,0,1,.4.4v10.24a.39.39,0,0,1-.4.4H135.75a.39.39,0,0,1-.38-.4V173.12a.4.4,0,0,1,.38-.4h2.82"/><path class="cls-6" d="M143.2,172.72h-4.63v-2a.15.15,0,0,1,.14-.14h4.35a.14.14,0,0,1,.14.14Z"/><path class="cls-6" d="M150.9,172.72h-4.63v-1.88a.28.28,0,0,1,.28-.28h4.07a.28.28,0,0,1,.28.28Z"/><path class="cls-6" d="M158.59,172.72H154v-1.9a.26.26,0,0,1,.26-.26h4.11a.26.26,0,0,1,.26.26Z"/><path class="cls-5" d="M184.45,170.82v1.9h-4.62v-1.9a.26.26,0,0,1,.26-.26h4.11A.26.26,0,0,1,184.45,170.82Z"/><path class="cls-5" d="M172.13,172.72h14.56a.4.4,0,0,1,.4.4v10.24a.39.39,0,0,1-.4.4H161.62a.39.39,0,0,1-.39-.4V173.12a.4.4,0,0,1,.39-.4h10.51Z"/><path class="cls-5" d="M176.76,170.84v1.88h-4.63v-1.88a.28.28,0,0,1,.28-.28h4.07A.28.28,0,0,1,176.76,170.84Z"/><path class="cls-5" d="M169.07,170.7v2h-4.63v-2a.14.14,0,0,1,.14-.14h4.35A.15.15,0,0,1,169.07,170.7Z"/><line class="cls-6" x1="176.76" y1="172.72" x2="179.83" y2="172.72"/><line class="cls-6" x1="169.07" y1="172.72" x2="172.13" y2="172.72"/><path class="cls-6" d="M184.45,172.72h2.24a.4.4,0,0,1,.4.4v10.24a.39.39,0,0,1-.4.4H161.62a.39.39,0,0,1-.39-.4V173.12a.4.4,0,0,1,.39-.4h2.82"/><path class="cls-6" d="M169.07,172.72h-4.63v-2a.14.14,0,0,1,.14-.14h4.35a.15.15,0,0,1,.14.14Z"/><path class="cls-6" d="M176.76,172.72h-4.63v-1.88a.28.28,0,0,1,.28-.28h4.07a.28.28,0,0,1,.28.28Z"/><path class="cls-6" d="M184.45,172.72h-4.62v-1.9a.26.26,0,0,1,.26-.26h4.11a.26.26,0,0,1,.25.26Z"/><path class="cls-5" d="M175.51,159.53v1.9h-4.63v-1.9a.26.26,0,0,1,.26-.26h4.11A.26.26,0,0,1,175.51,159.53Z"/><path class="cls-5" d="M163.19,161.43h14.56a.4.4,0,0,1,.4.4v10.24a.39.39,0,0,1-.4.4H152.68a.39.39,0,0,1-.39-.4V161.83a.4.4,0,0,1,.39-.4h10.51Z"/><path class="cls-5" d="M167.82,159.55v1.88h-4.63v-1.88a.28.28,0,0,1,.28-.28h4.07A.28.28,0,0,1,167.82,159.55Z"/><path class="cls-5" d="M160.12,159.41v2H155.5v-2a.14.14,0,0,1,.14-.14H160A.14.14,0,0,1,160.12,159.41Z"/><line class="cls-6" x1="167.82" y1="161.43" x2="170.88" y2="161.43"/><line class="cls-6" x1="160.12" y1="161.43" x2="163.19" y2="161.43"/><path class="cls-6" d="M175.51,161.43h2.24a.4.4,0,0,1,.4.4v10.24a.39.39,0,0,1-.4.4H152.68a.39.39,0,0,1-.39-.4V161.83a.4.4,0,0,1,.39-.4h2.82"/><path class="cls-6" d="M160.12,161.43H155.5v-2a.14.14,0,0,1,.14-.14H160a.14.14,0,0,1,.14.14Z"/><path class="cls-6" d="M167.82,161.43h-4.63v-1.88a.28.28,0,0,1,.28-.28h4.07a.28.28,0,0,1,.28.28Z"/><path class="cls-6" d="M175.51,161.43h-4.63v-1.9a.26.26,0,0,1,.26-.26h4.11a.26.26,0,0,1,.26.26Z"/></svg>