<svg id="Layer_1" data-name="Layer 1" xmlns="http://www.w3.org/2000/svg" viewBox="0 0 256 256"><defs><style>.cls-1{fill:#0e4e91;}.cls-2{fill:#abe7ff;}.cls-3{fill:#fff;}.cls-4,.cls-6{fill:none;}.cls-4{stroke:#0e4e91;stroke-linecap:round;stroke-linejoin:round;}.cls-5{fill:#2db5ff;}.cls-6{stroke:#2db5ff;stroke-miterlimit:10;}.cls-7{fill:#caf5fe;}</style></defs><path class="cls-1" d="M164.63,219.2l-.48-1.19c2.1-.85,4.19-1.77,6.21-2.76l.56,1.16C168.87,217.4,166.76,218.34,164.63,219.2ZM159.8,221c-2.17.74-4.38,1.42-6.59,2l-.33-1.24c2.18-.58,4.36-1.25,6.5-2Zm15.7-7-.62-1.13c2-1.09,3.93-2.27,5.82-3.5l.7,1.08C179.49,211.72,177.5,212.92,175.5,214Zm10.15-6.48-.75-1c1.82-1.32,3.62-2.73,5.34-4.19l.83,1C189.32,204.78,187.5,206.21,185.65,207.55Zm9.28-7.68-.88-.93c1.64-1.54,3.25-3.16,4.78-4.82l.94.87C198.22,196.67,196.59,198.32,194.93,199.87Zm8.24-8.75-1-.82c1.44-1.74,2.84-3.54,4.15-5.37l1,.75C206.05,187.53,204.63,189.36,203.17,191.12Zm-90.93,33.94c-2.25-.37-4.52-.83-6.75-1.36l.3-1.25c2.2.52,4.44,1,6.66,1.34Zm98-43.65-1.08-.69c1.22-1.91,2.39-3.87,3.47-5.84l1.13.61C212.7,177.49,211.52,179.48,210.28,181.41Zm-109.78,41c-2.19-.65-4.39-1.38-6.54-2.17l.45-1.21c2.12.79,4.29,1.51,6.45,2.15ZM216.15,170.9l-1.15-.56c1-2,1.89-4.12,2.73-6.22l1.19.48C218.07,166.72,217.14,168.84,216.15,170.9Zm-127,47.38c-2.09-.9-4.18-1.9-6.22-2.95l.59-1.14c2,1,4.08,2,6.14,2.91ZM220.7,159.75l-1.22-.41c.73-2.15,1.38-4.34,2-6.51l1.24.32C222.09,155.36,221.43,157.58,220.7,159.75ZM78.43,212.83c-2-1.15-3.92-2.39-5.8-3.69l.72-1c1.86,1.27,3.79,2.5,5.73,3.64Zm145.42-64.71-1.26-.26c.45-2.21.84-4.46,1.13-6.7l1.28.17C224.69,143.59,224.31,145.88,223.85,148.12Zm-155.4,58c-1.82-1.39-3.6-2.86-5.31-4.37l.85-1c1.69,1.5,3.45,2.95,5.24,4.32Zm157.09-69.94-1.28-.1c.18-2.25.28-4.53.3-6.79h1.28C225.83,131.59,225.72,133.9,225.54,136.18ZM38.84,168.74c-.83-1.85-1.62-3.76-2.34-5.66l-.27-.71,1.21-.44.26.7c.71,1.87,1.49,3.76,2.31,5.59Zm-3-11.64-1.23.39c-.68-2.19-1.29-4.42-1.81-6.64l1.25-.3C34.53,152.75,35.13,155,35.8,157.1Zm175-78.21c-1.16-1.94-2.4-3.86-3.69-5.7l1-.74c1.31,1.87,2.56,3.82,3.74,5.78ZM33,145.56l-1.26.23c-.41-2.25-.74-4.54-1-6.81l1.28-.14C32.24,141.08,32.57,143.34,33,145.56ZM204.12,69.09c-1.38-1.78-2.85-3.53-4.36-5.21l1-.85c1.53,1.7,3,3.47,4.43,5.27ZM31.58,133.76l-1.28.07c-.12-2.27-.17-4.59-.13-6.89l1.28,0C31.42,129.23,31.46,131.52,31.58,133.76ZM196.26,60.2c-1.6-1.59-3.27-3.15-5-4.62l.84-1c1.72,1.49,3.42,3.07,5,4.68ZM31.67,121.86l-1.28-.08c.16-2.28.4-4.59.72-6.86l1.27.18C32.06,117.34,31.83,119.62,31.67,121.86ZM187.36,52.35c-1.78-1.39-3.64-2.73-5.51-4l.72-1.07c1.9,1.28,3.77,2.63,5.57,4ZM33.23,110.07,32,109.83c.44-2.25,1-4.5,1.55-6.71l1.24.33C34.18,105.63,33.66,107.86,33.23,110.07ZM177.55,45.64c-1.93-1.15-3.93-2.25-6-3.27l.58-1.15c2,1,4.07,2.15,6,3.32ZM36.22,98.57,35,98.17c.71-2.17,1.51-4.35,2.37-6.47l1.19.48C37.71,94.28,36.92,96.42,36.22,98.57ZM167,40.19c-2.05-.91-4.17-1.76-6.3-2.53l.43-1.21c2.16.78,4.31,1.64,6.39,2.56ZM61.26,58.72l-.89-.93c1.65-1.58,3.38-3.12,5.13-4.58l.82,1C64.59,55.64,62.89,57.16,61.26,58.72Zm59.3-26.5c-2.25.18-4.52.44-6.75.77l-.19-1.27c2.26-.34,4.56-.6,6.84-.78ZM70.33,51.05l-.77-1c1.83-1.36,3.74-2.67,5.67-3.91l.69,1.08C74,48.41,72.13,49.71,70.33,51.05Zm38.46-17.17c-2.2.45-4.42,1-6.6,1.59l-.34-1.24c2.2-.61,4.45-1.15,6.69-1.61ZM80.28,44.57l-.63-1.12c2-1.13,4-2.2,6.1-3.18l.55,1.16C84.27,42.4,82.24,43.45,80.28,44.57Zm17-7.6c-2.14.72-4.28,1.52-6.36,2.38l-.49-1.18c2.1-.88,4.27-1.69,6.44-2.42Z"/><circle class="cls-2" cx="127.59" cy="125.58" r="76.55"/><polygon class="cls-3" points="179.92 57.67 182.33 67.28 178.48 67.28 128.03 67.28 124.14 67.28 126.55 57.67 179.92 57.67"/><polygon class="cls-3" points="178.48 67.28 174.44 102.77 132.07 102.77 128.03 67.28 178.48 67.28"/><polyline class="cls-4" points="128.03 67.28 124.14 67.28 126.55 57.67 179.92 57.67 182.33 67.28 178.48 67.28"/><polygon class="cls-4" points="178.48 67.28 174.44 102.77 132.07 102.77 128.03 67.28 178.48 67.28"/><path class="cls-5" d="M157,92.59v2.19h-7.35V92.64a13.13,13.13,0,0,0,7.35,0Z"/><path class="cls-3" d="M162.12,81.61h4.21a13.39,13.39,0,0,1-9.32,11,13.13,13.13,0,0,1-7.35,0h0a13.38,13.38,0,0,1-9.48-11h21.94Z"/><path class="cls-3" d="M154.71,80.89a2.84,2.84,0,0,1-.1.72H143.26a2.46,2.46,0,0,1-.1-.72c0-2.18,2.59-4,5.78-4a8.35,8.35,0,0,1,1.13.08C152.71,77.38,154.71,79,154.71,80.89Z"/><path class="cls-3" d="M162.14,81.2a2.75,2.75,0,0,1,0,.41h-7.51a2.84,2.84,0,0,0,.1-.72c0-1.91-2-3.51-4.64-3.87a7.72,7.72,0,0,1,5-1.76C159,75.26,162.14,77.91,162.14,81.2Z"/><path class="cls-4" d="M149.66,92.64a13.13,13.13,0,0,0,7.35,0,13.39,13.39,0,0,0,9.32-11"/><path class="cls-4" d="M140.18,81.61a13.38,13.38,0,0,0,9.48,11"/><polyline class="cls-4" points="166.33 81.61 162.12 81.61 154.61 81.61 143.26 81.61 140.18 81.61"/><polyline class="cls-4" points="149.66 92.64 149.66 92.64 149.66 94.78 157.01 94.78 157.01 92.59"/><path class="cls-4" d="M143.26,81.61a2.46,2.46,0,0,1-.1-.72c0-2.18,2.59-4,5.78-4a8.35,8.35,0,0,1,1.13.08c2.64.36,4.64,2,4.64,3.87a2.84,2.84,0,0,1-.1.72"/><path class="cls-4" d="M150.07,77a7.72,7.72,0,0,1,5-1.76c3.9,0,7.06,2.65,7.06,5.94a2.75,2.75,0,0,1,0,.41"/><path class="cls-6" d="M144.73,81.8c0-1.86,1.88-3.36,4.2-3.36s4.21,1.5,4.21,3.36"/><path class="cls-6" d="M152.94,78.05a4.91,4.91,0,0,1,2.36-.58c2.31,0,4.74,1.36,4.34,4.15a.13.13,0,0,1,0,.06"/><polygon class="cls-7" points="107.87 69.95 105.93 78.11 61.88 78.11 59.94 69.95 107.87 69.95"/><polygon class="cls-7" points="105.93 123.39 107.4 132.13 60.41 132.13 61.88 123.39 105.93 123.39"/><path class="cls-3" d="M105.93,78.11c2.81,13.87,2.36,29.16,0,45.28H61.88c-2.59-16-2.59-31.26,0-45.28Z"/><path class="cls-4" d="M61.88,123.39l-1.47,8.74h47l-1.47-8.74c2.36-16.12,2.81-31.41,0-45.28L107.87,70H59.94l1.94,8.16C59.29,92.13,59.29,107.36,61.88,123.39Z"/><line class="cls-4" x1="61.88" y1="78.11" x2="105.93" y2="78.11"/><line class="cls-4" x1="61.88" y1="123.39" x2="105.93" y2="123.39"/><path class="cls-3" d="M85.62,108.94a4.76,4.76,0,0,0,.76-3.12h0l.85,0a11.69,11.69,0,0,0,2.06-.19A4.26,4.26,0,0,1,85.62,108.94Z"/><path class="cls-3" d="M89,96.73a10.54,10.54,0,0,0-1.79-.16,13.69,13.69,0,0,0-5.17,1.13h0L84.8,95s1.18.33,1.61-.23.39-1.46,1-1.64S89.47,94.8,89,96.72Z"/><path class="cls-3" d="M91.54,97.4a18.92,18.92,0,0,1,6,3.81,17.79,17.79,0,0,1-8.27,4.45,11.49,11.49,0,0,1-2,.19c-.28,0-.57,0-.85,0A19.18,19.18,0,0,1,77,102H75.58a9.7,9.7,0,0,1-1.94,1.58,5.79,5.79,0,0,1-3.39.51,8.24,8.24,0,0,1,2-2.45,19.76,19.76,0,0,1-1.92-3,3.75,3.75,0,0,1,2-.19c1.18.21,3.18,2.22,3.18,2.22h1.55a23.23,23.23,0,0,1,5-2.89,13.68,13.68,0,0,1,5.17-1.12,10.55,10.55,0,0,1,1.79.15A13.62,13.62,0,0,1,91.54,97.4ZM94,100.21a.74.74,0,0,0-.74-.73.73.73,0,0,0,0,1.46A.74.74,0,0,0,94,100.21Z"/><path class="cls-4" d="M82.06,97.7a22.41,22.41,0,0,0-5,2.89H75.53s-2-2-3.18-2.22a3.66,3.66,0,0,0-2,.19,20,20,0,0,0,1.93,3,8.29,8.29,0,0,0-2,2.44,5.72,5.72,0,0,0,3.38-.5,9.61,9.61,0,0,0,2-1.58H77a19.26,19.26,0,0,0,9.36,3.86q.42,0,.84,0a11.6,11.6,0,0,0,2.06-.19,17.89,17.89,0,0,0,8.26-4.45,18.78,18.78,0,0,0-6-3.81A12.61,12.61,0,0,0,89,96.72a10.34,10.34,0,0,0-1.78-.15A13.7,13.7,0,0,0,82.06,97.7Z"/><path class="cls-4" d="M86.38,105.82a4.76,4.76,0,0,1-.76,3.12,4.24,4.24,0,0,0,3.66-3.28"/><path class="cls-4" d="M82.06,97.7,84.8,95s1.18.33,1.61-.23.38-1.46.94-1.64S89.47,94.8,89,96.72"/><path class="cls-4" d="M91.54,97.4h0a8.15,8.15,0,0,0-.41,5.07"/><path class="cls-4" d="M94,100.21a.74.74,0,0,1-.74.73.73.73,0,0,1,0-1.46A.74.74,0,0,1,94,100.21Z"/><path class="cls-3" d="M105,157.75c4,1.71,6.22,4.05,6.22,6.45,0,5-9.34,9.06-20.8,9.06a37.87,37.87,0,0,1-14.58-2.62c-4-1.71-6.21-4.06-6.21-6.45,0-5,9.33-9.06,20.79-9.06A37.68,37.68,0,0,1,105,157.75Z"/><polygon class="cls-3" points="103.54 178.09 102.04 184.26 79.8 184.26 79.79 184.26 79.77 184.26 78.26 178.09 103.54 178.09"/><polygon class="cls-3" points="122.88 178.09 122.85 190.35 58.87 190.35 58.87 178.09 58.88 178.09 78.26 178.09 79.77 184.26 79.79 184.26 79.8 184.26 102.04 184.26 103.54 178.09 122.88 178.09"/><path class="cls-3" d="M114.56,150.29l8.32,27.8h-64l8.31-27.8Zm-2.89,13.91c0-2.4-2.27-4.74-6.22-6.45a37.64,37.64,0,0,0-14.58-2.62c-11.46,0-20.79,4.06-20.79,9.06,0,2.39,2.26,4.74,6.22,6.45a37.78,37.78,0,0,0,14.57,2.62C102.34,173.26,111.67,169.19,111.67,164.2Z"/><line class="cls-4" x1="103.54" y1="178.09" x2="78.26" y2="178.09"/><polyline class="cls-4" points="58.88 178.09 67.19 150.29 114.56 150.29 122.88 178.09"/><polygon class="cls-4" points="122.88 178.09 122.85 190.35 58.87 190.35 58.87 178.09 58.88 178.09 78.26 178.09 79.77 184.26 79.79 184.26 79.8 184.26 102.04 184.26 103.54 178.09 122.88 178.09"/><path class="cls-7" d="M109.55,160.78c4.45,4.57-.4,9.84-10.83,11.77s-22.52-.2-27-4.77.39-9.84,10.83-11.77S105.09,156.21,109.55,160.78Zm-1.85,3.81c0-.53.38-1.11.17-1.66s-1-1-1.53-1.55a10.51,10.51,0,0,0-2.37-1.92,21.23,21.23,0,0,0-5.43-1.79l-.18,0a37,37,0,0,0-4.77-.7,41.41,41.41,0,0,0-4.72,0,36.42,36.42,0,0,0-4.91.45,25.27,25.27,0,0,0-3.32.91,18.42,18.42,0,0,0-3.78,1.54c-.65.39-.84.93-1.31,1.37-.63.6-1.46,1.11-1.72,1.76-.17.42.14.94.15,1.38a3.15,3.15,0,0,0,.43,2.16,6.68,6.68,0,0,0,.74.61c.23.24.3.51.58.72a14.74,14.74,0,0,0,3.46,1.78A22.52,22.52,0,0,0,84,171.34c1.12.21,2.37.18,3.58.28a43.44,43.44,0,0,0,5.27.36,17.88,17.88,0,0,0,3.23-.57l1.24-.27a30,30,0,0,0,4.43-.92,14.09,14.09,0,0,0,3.17-1.85,10.05,10.05,0,0,0,2.65-2C107.94,165.8,107.65,165.17,107.7,164.59Z"/><path class="cls-7" d="M101.72,160.91c2.36.5,3.36,1.74,2.24,2.77s-4,1.47-6.34,1a5.15,5.15,0,0,1-2.15-.91,1.12,1.12,0,0,1-.08-1.87,5,5,0,0,1,2.35-1A10.46,10.46,0,0,1,101.72,160.91Z"/><path class="cls-7" d="M98,167.5c1,1,0,2.16-2.17,2.65a1.77,1.77,0,0,1-.33.08c-2.42.44-5.2,0-6.23-1.11s.09-2.28,2.5-2.72a9.63,9.63,0,0,1,2.2-.15A6.29,6.29,0,0,1,98,167.5Z"/><path class="cls-7" d="M92.33,159.62c1,1.07-.09,2.28-2.5,2.73s-5.2,0-6.23-1.11.09-2.27,2.5-2.72S91.3,158.57,92.33,159.62Z"/><path class="cls-7" d="M84,163.8c2,.44,3.11,1.49,2.43,2.47-.52.76-2,1.29-3.66,1.42l-.09-1.07L83.85,165Z"/><path class="cls-7" d="M84,163.8,83.85,165l-1.13,1.63.09,1.07a10.83,10.83,0,0,1-2.27-.05c-2.5-.33-3.92-1.5-3.15-2.59s3.41-1.71,5.92-1.38A7.34,7.34,0,0,1,84,163.8Z"/><path class="cls-4" d="M109.55,160.78c4.45,4.57-.4,9.84-10.83,11.77s-22.52-.2-27-4.77.39-9.84,10.83-11.77S105.09,156.21,109.55,160.78Z"/><path class="cls-1" d="M88,162.65c-1.88,0-3.69-.49-4.48-1.31a1.18,1.18,0,0,1-.38-1.23c.25-.78,1.35-1.43,3-1.73,2.45-.44,5.29.07,6.35,1.14h0a1.17,1.17,0,0,1,.37,1.24c-.25.78-1.35,1.42-3,1.71A9.71,9.71,0,0,1,88,162.65Zm0-4.15a10,10,0,0,0-1.82.16c-1.48.28-2.53.86-2.74,1.53a.91.91,0,0,0,.31.95c1,1,3.74,1.51,6.1,1.07,1.48-.27,2.52-.86,2.74-1.52a.94.94,0,0,0-.31-1A6.54,6.54,0,0,0,88,158.5Z"/><path class="cls-1" d="M86.78,161.45a.13.13,0,0,1-.13-.11.13.13,0,0,1,.11-.16l3.59-.66a.13.13,0,0,1,.16.11.14.14,0,0,1-.11.16l-3.59.66Z"/><path class="cls-1" d="M93.65,170.53c-1.9,0-3.71-.5-4.51-1.31a1.17,1.17,0,0,1-.37-1.24c.25-.78,1.35-1.42,3-1.72a10.42,10.42,0,0,1,2.23-.15,6.35,6.35,0,0,1,4.13,1.3,1.18,1.18,0,0,1,.37,1.21c-.21.72-1.19,1.35-2.62,1.67l-.34.07A10.33,10.33,0,0,1,93.65,170.53Zm-.11-4.15a9.48,9.48,0,0,0-1.77.16c-1.47.27-2.52.85-2.74,1.52a1,1,0,0,0,.31,1c1,1,3.74,1.49,6.1,1.06l.32-.07c1.34-.3,2.24-.86,2.42-1.48a.93.93,0,0,0-.3-.94,6.15,6.15,0,0,0-3.94-1.22h-.4Z"/><path class="cls-1" d="M92.43,169.32a.13.13,0,0,1-.14-.11.13.13,0,0,1,.11-.16l3.58-.66a.14.14,0,0,1,0,.27l-3.58.66Z"/><path class="cls-1" d="M99.66,165a10,10,0,0,1-2.06-.21,5.34,5.34,0,0,1-2.22-.93,1.52,1.52,0,0,1-.6-1.07,1.38,1.38,0,0,1,.51-1,5,5,0,0,1,2.42-1h0a10.77,10.77,0,0,1,4,0c1.52.32,2.56,1,2.77,1.72a1.25,1.25,0,0,1-.47,1.28A7,7,0,0,1,99.66,165Zm-1.9-4a5,5,0,0,0-2.28,1,1.12,1.12,0,0,0-.42.81,1.21,1.21,0,0,0,.5.85,4.91,4.91,0,0,0,2.09.88c2.33.49,5.11.06,6.21-1a1,1,0,0,0,.39-1c-.18-.65-1.16-1.24-2.56-1.53a10.39,10.39,0,0,0-3.93,0Z"/><path class="cls-1" d="M102.1,162.75h0L98.56,162a.14.14,0,0,1-.11-.17.13.13,0,0,1,.16-.1l3.52.74a.14.14,0,0,1,.11.16A.14.14,0,0,1,102.1,162.75Z"/><path class="cls-1" d="M81.91,167.87a10.7,10.7,0,0,1-1.39-.09c-1.73-.23-3-.87-3.38-1.68a1.11,1.11,0,0,1,.13-1.13c.79-1.13,3.51-1.78,6.06-1.44a6.63,6.63,0,0,1,.74.13c1.4.31,2.4.91,2.67,1.6a1.14,1.14,0,0,1-.15,1.09c-.53.77-2,1.34-3.77,1.48C82.52,167.85,82.21,167.87,81.91,167.87Zm0-4.15c-2,0-3.83.55-4.43,1.41a.85.85,0,0,0-.11.86c.32.7,1.56,1.3,3.17,1.51a9.84,9.84,0,0,0,2.24.05c1.68-.13,3.08-.67,3.56-1.36a.83.83,0,0,0,.12-.82c-.24-.62-1.16-1.15-2.47-1.43h0c-.21-.05-.46-.1-.72-.14A10.34,10.34,0,0,0,81.93,163.72Z"/><path class="cls-1" d="M82.72,166.76a.11.11,0,0,1-.08,0,.13.13,0,0,1,0-.19l1.13-1.63a.13.13,0,0,1,.19,0,.15.15,0,0,1,0,.2l-1.14,1.63A.13.13,0,0,1,82.72,166.76Z"/><path class="cls-1" d="M95.87,160a.14.14,0,0,1-.14-.12.15.15,0,0,1,.12-.16l2.1-.39a.14.14,0,0,1,.16.11.13.13,0,0,1-.11.16l-2.1.4Z"/><path class="cls-1" d="M79,162.12s-.09,0-.11-.05a.13.13,0,0,1,0-.19L80,161a.14.14,0,1,1,.18.22l-1.09.88A.11.11,0,0,1,79,162.12Z"/><path class="cls-1" d="M87.91,164.38a.13.13,0,0,1-.14-.11.14.14,0,0,1,.11-.16l2.29-.44a.14.14,0,0,1,.16.11.14.14,0,0,1-.11.17l-2.29.43Z"/><path class="cls-1" d="M94.37,165.18s0,0,0,0l-.2,0-2-.37a.14.14,0,0,1-.11-.16.14.14,0,0,1,.16-.11l2.17.41a.14.14,0,0,1,.11.17A.14.14,0,0,1,94.37,165.18Z"/><path class="cls-1" d="M87.22,171h-.07a.14.14,0,0,1-.05-.19l.48-.88a.13.13,0,0,1,.19-.05.13.13,0,0,1,0,.19l-.48.87A.13.13,0,0,1,87.22,171Z"/><path class="cls-1" d="M100.88,169.08h0a.14.14,0,0,1-.09-.17l.29-1a.15.15,0,0,1,.17-.1.15.15,0,0,1,.1.18l-.29,1A.15.15,0,0,1,100.88,169.08Z"/><polygon class="cls-7" points="195.89 118.16 193.87 126.66 147.97 126.66 145.95 118.16 195.89 118.16"/><polygon class="cls-7" points="193.87 173.84 195.4 182.95 146.44 182.95 147.97 173.84 193.87 173.84"/><path class="cls-3" d="M193.87,126.66c2.93,14.45,2.46,30.39,0,47.18H148c-2.7-16.7-2.7-32.57,0-47.18Z"/><path class="cls-4" d="M148,173.84,146.44,183h49l-1.53-9.11c2.46-16.79,2.93-32.73,0-47.18l2-8.51H146l2,8.51C145.27,141.27,145.27,157.14,148,173.84Z"/><line class="cls-4" x1="147.97" y1="126.66" x2="193.87" y2="126.66"/><line class="cls-4" x1="147.97" y1="173.84" x2="193.87" y2="173.84"/><path class="cls-3" d="M173.54,145.07c1.75-.35,3-1.47,3-2.79a2.63,2.63,0,0,0-1.34-2.13,2.13,2.13,0,0,0,.37-3.77,2.17,2.17,0,0,1,4,1.38,2.17,2.17,0,0,1-.48,4.22,2.66,2.66,0,0,1,.67,2.46c-.42,1.39-2.22,2.11-4.22,1.77l-1.29,3.44h0a3.65,3.65,0,0,0-.49-.06Z"/><path class="cls-5" d="M172.47,149.53c.45,0,.9,0,1.35.07a3.65,3.65,0,0,1,.49.06c3.93.49,7.64,2.47,7.58,6.62-.08,4.79-5.43,6.58-7.42,8a5.55,5.55,0,0,0-2,3.08,6.21,6.21,0,0,0-2.94-4.31c-1.6-1.07-5.6-3.61-5.48-7.11.11-3.16,3.52-5.88,7.25-6.33l.28,0A8.82,8.82,0,0,1,172.47,149.53Z"/><path class="cls-3" d="M173.82,149.6c-.45,0-.9-.07-1.35-.07a8.82,8.82,0,0,0-.89,0v-4.41c-2-.24-3.48-1.44-3.48-2.87a2.61,2.61,0,0,1,1.33-2.13,2.13,2.13,0,0,1-1.33-2,2.16,2.16,0,0,1,.62-1.51,2.09,2.09,0,0,1,1.46-.63,2.14,2.14,0,0,1,4.22,0h0a2.14,2.14,0,0,1,.81,4.13,2.63,2.63,0,0,1,1.34,2.13c0,1.32-1.29,2.44-3,2.79Z"/><path class="cls-3" d="M168.1,142.28c0,1.43,1.5,2.63,3.48,2.87v4.41l-.28,0h0l-1.61-3.17c-1.95.53-3.82,0-4.38-1.34a2.63,2.63,0,0,1,.42-2.51,2.19,2.19,0,0,1-2-1.34,2.17,2.17,0,0,1,1.12-2.81,2.18,2.18,0,0,1,3.89-1.75,2.16,2.16,0,0,0-.62,1.51,2.13,2.13,0,0,0,1.33,2A2.61,2.61,0,0,0,168.1,142.28Z"/><path class="cls-4" d="M171.58,149.56a8.82,8.82,0,0,1,.89,0c.45,0,.9,0,1.35.07a3.65,3.65,0,0,1,.49.06c3.93.49,7.64,2.47,7.58,6.62-.08,4.79-5.43,6.58-7.42,8a5.55,5.55,0,0,0-2,3.08,6.21,6.21,0,0,0-2.94-4.31c-1.6-1.07-5.6-3.61-5.48-7.11.11-3.16,3.52-5.88,7.25-6.33Z"/><path class="cls-4" d="M168.72,136.66a2.18,2.18,0,0,0-3.89,1.75,2.17,2.17,0,0,0-1.12,2.81,2.19,2.19,0,0,0,2,1.34,2.63,2.63,0,0,0-.42,2.51c.56,1.35,2.43,1.87,4.38,1.34l1.61,3.17"/><path class="cls-4" d="M174.31,149.65l1.29-3.44c2,.34,3.8-.38,4.22-1.77a2.66,2.66,0,0,0-.67-2.46,2.17,2.17,0,0,0,.48-4.22,2.17,2.17,0,0,0-4-1.38.08.08,0,0,0,0,0"/><path class="cls-4" d="M173.54,145.07c1.75-.35,3-1.47,3-2.79a2.63,2.63,0,0,0-1.34-2.13,2.15,2.15,0,0,0-.81-4.13h0a2.14,2.14,0,0,0-4.22,0,2.09,2.09,0,0,0-1.46.63,2.16,2.16,0,0,0-.62,1.51,2.13,2.13,0,0,0,1.33,2,2.61,2.61,0,0,0-1.33,2.13c0,1.43,1.5,2.63,3.48,2.87"/><line class="cls-4" x1="171.58" y1="149.56" x2="171.58" y2="145.15"/><line class="cls-4" x1="173.82" y1="149.6" x2="173.54" y2="145.07"/></svg>