<?xml version="1.0" encoding="UTF-8"?>
<svg version="1.1" viewBox="0 0 746.67 245.33" xml:space="preserve" xmlns="http://www.w3.org/2000/svg" xmlns:cc="http://creativecommons.org/ns#" xmlns:dc="http://purl.org/dc/elements/1.1/" xmlns:rdf="http://www.w3.org/1999/02/22-rdf-syntax-ns#"><metadata><rdf:RDF><cc:Work rdf:about=""><dc:format>image/svg+xml</dc:format><dc:type rdf:resource="http://purl.org/dc/dcmitype/StillImage"/></cc:Work></rdf:RDF></metadata><g transform="matrix(1.3333 0 0 -1.3333 0 245.33)"><g transform="scale(.1)"><path d="m2297 1252.7c0 16.31 13.29 29.61 29.61 29.61h122.72c16.31 0 29.6-13.3 29.6-29.61v-906.39c0-16.316-13.29-29.605-29.6-29.605h-122.72c-16.32 0-29.61 13.289-29.61 29.605zm835.42-323.97 2.73 46.407c0.93 15.656 13.87 27.865 29.56 27.865h118.47c16.31 0 29.6-13.287 29.6-29.604v-627.09c0-16.316-13.29-29.605-29.6-29.605h-116.24c-15.43 0-28.22 11.785-29.49 27.152l-4.27 51.067c-45.67-63.121-136.1-97.825-210.24-98.563-222.31-2.211-353.41 144.6-353.41 364.17 0 218.44 139.88 359.78 357.42 358.75 74.86-0.35 157.97-30.2 205.47-90.552zm298.08-517.67c0 140.57 213.11 140.57 213.11 0 0-140.56-213.11-140.56-213.11 0zm511.77 528.26c38.86 52.535 106.46 75.886 171.01 75.886 87.25 0 160.69-36.937 199.42-115.23 54.34 78.438 125.59 112.53 222.25 112.53 204.88 0 292.3-132.45 292.3-326.21v-339.98c0-16.316-13.29-29.605-29.6-29.605h-124.07c-16.31 0-29.6 13.289-29.6 29.605v339.98c0 76.629-28.82 153.77-117.16 153.77-86.52 0-136.15-75.949-136.15-156.48v-337.27c0-16.316-13.29-29.605-29.6-29.605h-124.06c-16.32 0-29.61 13.289-29.61 29.605v337.27c0 78.984-39.48 159.2-128.01 159.2-87.1 0-133.44-79.691-133.44-159.2v-337.27c0-16.316-13.29-29.605-29.6-29.605h-124.07c-16.31 0-29.6 13.289-29.6 29.605v628.45c0 16.312 13.29 29.61 29.6 29.61h114.73c14.73 0 27.11-10.653 29.29-25.216zm1031.2 313.39c0 16.31 13.29 29.61 29.6 29.61h124.07c16.31 0 29.6-13.3 29.6-29.61v-470.25c0-5.113 2.93-9.297 7.73-11.035 4.79-1.746 9.73-0.422 13 3.484l182.38 217.52c5.77 6.871 13.72 10.58 22.69 10.58h143.04c11.77 0 22.03-6.588 26.92-17.295s3.16-22.797-4.55-31.695l-231.09-266.72c-3.89-4.481-3.86-10.961 0.05-15.426l268.5-306.03c7.78-8.863 9.59-21 4.71-31.742-4.87-10.758-15.15-17.383-26.96-17.383h-144.23c-8.81 0-16.62 3.578-22.38 10.23l-219.2 253.27c-3.31 3.836-8.22 5.086-12.96 3.312-4.76-1.769-7.65-5.921-7.65-10.996v-226.21c0-16.316-13.29-29.605-29.6-29.605h-124.07c-16.31 0-29.6 13.289-29.6 29.605zm-2031.6-399.08c-113.89 0-189.02-79.625-189.02-193.08 0-113.2 74.98-194.44 189.02-194.44 248.55 0 248.55 387.52 0 387.52" fill="#F8F8F8" fill-rule="evenodd"/><path d="m537.16 5.1641c-53.992 0-97.769 43.773-97.769 97.766 0 53.992 43.777 97.765 97.769 97.765h804.2l-1190 174.76c-15.762 2.379-30.508 7.735-44.015 15.949-13.395 8.137-24.747 18.602-33.961 31.301-9.2618 12.77-15.715 27.02-19.328 42.594-3.5117 15.129-3.9492 30.543-1.3164 45.98l20.391 118.65c4.4453 25.957 17.473 48.855 36.164 66.152v0.379c18.312 16.871 42.172 27.828 68.886 30.289l382.6 34.707c53.563 4.852 100.93-34.637 105.78-88.203 4.848-53.566-34.64-100.93-88.203-105.78l-200.44-18.188c-2.485-0.23-4.375-2.25-4.445-4.746-0.055-2.484 1.722-4.594 4.183-4.953l1312.9-192.79c25.01-3.707 47.36-15.094 64.76-32.067 17.48-17.054 29.6-39.234 33.86-64.246l18.58-108.15c2.84-16.52 2-33.367-2.51-50.051l0.26-0.0704c-4.48-16.582-12.47-31.808-23.87-45.308-11.2-13.27-24.75-23.613-40.32-30.797l-0.08 0.1758c-15.89-7.3477-32.4-11.121-49.1-11.121zm242.87 1493.8 0.012-0.17h-195.11c-2.117 55.28 9.8 109.01 33.508 156.54 26.242 52.6 67.175 98.25 119.7 130.75 52.527 32.48 111.55 48.74 170.21 48.74 58.668 0 117.69-16.26 170.22-48.74 52.53-32.5 93.46-78.15 119.7-130.75 23.71-47.53 35.62-101.26 33.52-156.54h-195.12l0.01 0.17c2.18 23.99-2.66 47.94-13.31 69.3-10.6 21.25-26.745 39.45-47.151 52.08-20.414 12.62-43.965 18.95-67.867 18.95-23.891 0-47.45-6.33-67.864-18.95-20.39-12.62-36.543-30.83-47.14-52.08-10.649-21.35-15.5-45.31-13.317-69.3zm-675.11-1493.8c-53.992 0-97.77 43.773-97.77 97.766 0 53.992 43.777 97.765 97.77 97.765h177c53.992 0 97.77-43.773 97.77-97.765 0-53.992-43.778-97.766-97.77-97.766zm734.9 586.07c-53.566-4.851-100.93 34.641-105.78 88.207-4.852 53.563 34.641 100.93 88.203 105.78l614.57 55.781c2.45 0.219 4.32 2.184 4.43 4.641 0.12 2.46-1.59 4.593-4.02 5.035l-1171.8 210.24-0.067-0.37c-31.582 5.64-58.043 23.73-75.25 48.16v0.38c-17.16 24.54-25.089 55.43-19.711 86.8l26.477 154c4.852 28.17 19.41 52.47 39.906 69.79h0.379c20.809 17.51 47.168 27.89 75.321 27.89h1172.2c28.45 0 54.93-10.36 75.7-27.91l-0.16-0.18c20.7-17.53 35.26-41.81 40.06-69.59l23.56-137.03c9.06-53.13-26.68-103.58-79.82-112.65-53.13-9.06-103.58 26.68-112.64 79.81l-12.38 72.02h-1036.7c-2.403 0-4.411-1.68-4.817-4.05l-0.726-4.25c-0.45-2.65 1.316-5.16 3.949-5.63l1196.7-214.7 0.06 0.3c24.35-4.34 46.03-15.98 62.84-32.944 16.76-16.895 28.31-38.555 32.5-62.899l22.7-132.17c2.76-15.992 2.16-31.961-1.76-47.769-3.9-15.774-10.85-30.238-20.73-43.149-9.98-13.047-22.21-23.488-36.26-31.281l-0.38-0.383c-13.73-7.55-29.18-12.168-45.92-13.715l-750.56-68.16" fill="#f6376d"/></g></g></svg>
