<svg xmlns="http://www.w3.org/2000/svg" viewBox="0 0 214.75 227.06"><defs><style>.cls-1{fill:#ef4351;}.cls-2{fill:none;stroke:#ef4351;stroke-linecap:round;stroke-miterlimit:10;stroke-width:16px;}</style></defs><g id="Layer_2" data-name="Layer 2"><g id="Layer_1-2" data-name="Layer 1"><path class="cls-1" d="M188.9,83.89h-163l.31-2.82A22.71,22.71,0,0,1,41.79,61.62H173a22.69,22.69,0,0,1,15.62,19.45Z"/><polygon class="cls-1" points="198.84 131.61 15.91 131.61 21.73 101.39 192.94 101.39 198.84 131.61"/><path class="cls-1" d="M214.68,209.72c.47,5.25-1.58,9.3-4.58,12.88a11.7,11.7,0,0,1-9.24,4.46h-187a11.59,11.59,0,0,1-9.24-4.46C1.67,219-.47,215,.09,209.72l2.45-12.89H212.23Z"/><polygon class="cls-1" points="208.78 179.33 5.96 179.33 12.4 149.11 202.34 149.11 208.78 179.33"/><path class="cls-2" d="M68.62,48c0-22.09,17-40,38-40s38,17.91,38,40"/></g></g></svg>