<svg id="Layer_1" data-name="Layer 1" xmlns="http://www.w3.org/2000/svg" viewBox="0 0 367.32 367.32"><defs><style>.cls-1{fill:#0e4e91;}.cls-2{fill:#abe7ff;}.cls-3{fill:#fff;}.cls-4{fill:none;}.cls-4,.cls-8{stroke:#0e4e91;stroke-linecap:round;stroke-linejoin:round;}.cls-5{fill:#2db5ff;}.cls-6{fill:#fafafa;}.cls-7,.cls-8{fill:#caf5fe;}</style></defs><title>-</title><path class="cls-1" d="M121.51,278.74l.81-1.26c2.22,1.44,4.52,2.81,6.82,4.08l-.72,1.32C126.08,281.59,123.76,280.2,121.51,278.74Zm-5-3.41c-2.17-1.57-4.31-3.24-6.36-4.95l1-1.15c2,1.69,4.14,3.33,6.28,4.88Zm17.26,10.33.66-1.35c2.37,1.15,4.82,2.23,7.27,3.21l-.56,1.4C138.67,287.92,136.19,286.83,133.78,285.66Zm13,5.36.49-1.43c2.5.86,5.06,1.63,7.61,2.3l-.38,1.45C151.94,292.66,149.35,291.88,146.81,291Zm13.6,3.7.31-1.47c2.57.53,5.2,1,7.82,1.33l-.2,1.49C165.69,295.72,163,295.26,160.41,294.72Zm13.93,2,.13-1.5c2.63.21,5.3.33,7.93.36v1.5C179.72,297.05,177,296.93,174.34,296.72ZM80.62,232.54c-1.16-2.41-2.26-4.89-3.25-7.38l1.39-.55c1,2.45,2.06,4.9,3.21,7.27ZM188.43,297l-.07-1.5c2.64-.11,5.31-.32,7.93-.61l.16,1.49C193.8,296.66,191.1,296.87,188.43,297ZM75.27,219.49c-.86-2.53-1.64-5.12-2.32-7.72l1.45-.38c.67,2.56,1.44,5.12,2.29,7.62Zm127.17,76-.25-1.48c2.6-.43,5.22-1,7.8-1.58l.34,1.46C207.73,294.55,205.07,295.09,202.44,295.52ZM71.56,205.89c-.54-2.61-1-5.28-1.36-7.94l1.49-.2c.36,2.62.81,5.26,1.34,7.84Zm144.61,86.47-.42-1.44c2.54-.75,5.07-1.59,7.54-2.52l.53,1.41C221.32,290.74,218.74,291.6,216.17,292.36ZM69.55,192c-.22-2.67-.35-5.37-.38-8l1.5,0c0,2.64.16,5.31.37,7.94Zm159.88,95.59-.6-1.37c2.42-1.06,4.83-2.21,7.18-3.43l.69,1.33C234.33,285.31,231.88,286.48,229.43,287.54ZM69.25,177.86c.11-2.67.31-5.37.61-8l1.49.16c-.29,2.62-.49,5.29-.6,7.93ZM242,281.13l-.76-1.29c2.27-1.35,4.53-2.79,6.7-4.29l.85,1.23C246.58,278.3,244.3,279.77,242,281.13ZM85.08,124.35c1.22-2,2.51-4.08,3.85-6l.49-.73,1.24.85-.49.72c-1.32,2-2.6,4-3.79,6Zm9.09-10.75L93,112.69c1.64-2.12,3.36-4.21,5.14-6.21l1.12,1C97.49,109.45,95.78,111.51,94.17,113.6ZM286.92,228.47c1.08-2.42,2.08-4.9,3-7.37l1.41.51c-.91,2.51-1.92,5-3,7.47ZM103.31,103.12l-1.07-1.05c1.89-1.91,3.86-3.77,5.86-5.53l1,1.12C107.11,99.4,105.17,101.24,103.31,103.12ZM291.79,215.44c.76-2.52,1.45-5.11,2-7.68l1.46.33c-.59,2.61-1.29,5.23-2.07,7.79ZM113.67,93.85l-.92-1.18c2.09-1.66,4.28-3.26,6.5-4.77l.85,1.24C117.91,90.63,115.74,92.22,113.67,93.85ZM295,201.92c.45-2.6.81-5.24,1.08-7.87l1.49.15c-.27,2.66-.64,5.35-1.09,8Zm-169.88-116-.77-1.29c2.28-1.38,4.65-2.7,7-3.92l.68,1.33C129.72,83.25,127.38,84.55,125.12,85.92Zm171.4,102.19c.12-2.63.16-5.3.1-7.94l1.5,0c.06,2.68,0,5.39-.1,8.06ZM137.46,79.46l-.61-1.37c2.44-1.09,5-2.11,7.47-3l.51,1.41C142.35,77.38,139.87,78.39,137.46,79.46Zm158.87,94.76c-.2-2.63-.49-5.29-.87-7.91l1.49-.21c.38,2.64.68,5.34.88,8ZM150.49,74.58l-.44-1.44c2.56-.78,5.17-1.48,7.78-2.09l.34,1.47C155.6,73.11,153,73.81,150.49,74.58Zm144,85.86c-.51-2.59-1.13-5.19-1.83-7.74l1.45-.4c.71,2.59,1.33,5.23,1.86,7.84ZM205.5,71.71l.29-1.47c2.62.51,5.25,1.13,7.83,1.83l-.39,1.44C210.68,72.82,208.08,72.22,205.5,71.71Zm65.29,38.92c-1.68-2-3.45-4-5.28-5.95l1.09-1c1.85,1.93,3.65,4,5.35,6Zm-51.85-35.4.47-1.43c2.53.84,5.08,1.78,7.56,2.79L226.4,78C224,77,221.44,76.05,218.94,75.23Zm42.35,25.25c-1.92-1.81-3.93-3.58-6-5.25l1-1.16c2.07,1.7,4.1,3.48,6.05,5.32ZM231.85,80.39l.64-1.36c2.42,1.14,4.83,2.39,7.16,3.7L238.91,84C236.61,82.74,234.24,81.51,231.85,80.39ZM250.6,91.58c-2.13-1.57-4.34-3.08-6.57-4.49l.81-1.26c2.25,1.42,4.49,3,6.65,4.54Z"/><circle class="cls-2" cx="183.3" cy="184.33" r="88.87"/><rect class="cls-3" x="201.39" y="237.81" width="29.77" height="19.5"/><rect class="cls-3" x="152.62" y="237.81" width="29.77" height="19.5"/><rect class="cls-4" x="152.62" y="237.81" width="29.77" height="19.5"/><rect class="cls-4" x="201.39" y="237.81" width="29.77" height="19.5"/><path class="cls-5" d="M172.23,247.18a19.75,19.75,0,0,1,39.5,0,.43.43,0,0,1,0,0,19.76,19.76,0,0,1-39.51,0ZM192,231.43a15.8,15.8,0,1,0,15.8,15.8A15.8,15.8,0,0,0,192,231.43Z"/><circle class="cls-3" cx="191.82" cy="247.56" r="15.8"/><path class="cls-4" d="M191.82,227.81a19.73,19.73,0,0,1,19.74,19.69s0,0,0,.06a19.76,19.76,0,0,1-39.51,0v-.06A19.75,19.75,0,0,1,191.82,227.81Z"/><circle class="cls-4" cx="191.82" cy="247.56" r="15.8"/><path class="cls-1" d="M189.18,246.82c.23,0,.42.3.42.68h0c0,.38-.19.68-.42.68h-7.76c-.24,0-.43-.3-.43-.68h0c0-.38.19-.68.43-.68Z"/><path class="cls-1" d="M192.57,245.25c0,.23-.31.42-.68.42h0c-.38,0-.69-.19-.69-.42v-7.76c0-.24.31-.43.69-.43h0c.37,0,.68.19.68.43Z"/><path class="cls-5" d="M193.64,249.24a.57.57,0,0,1-.25-.74h0a.56.56,0,0,1,.77-.1l9.29,5.81a.55.55,0,0,1,.25.74h0a.55.55,0,0,1-.77.1Z"/><path class="cls-1" d="M191.87,244.87a2.64,2.64,0,1,1-2.65,2.63A2.63,2.63,0,0,1,191.87,244.87Z"/><path class="cls-6" d="M191.87,245.85a1.65,1.65,0,1,1-1.65,1.65A1.65,1.65,0,0,1,191.87,245.85Z"/><path class="cls-1" d="M178.8,247a.53.53,0,0,1,.53.54h0a.53.53,0,0,1-.53.53h-1.45a.54.54,0,0,1-.54-.53h0a.54.54,0,0,1,.54-.54Z"/><path class="cls-1" d="M204.84,247a.53.53,0,0,0-.53.54h0a.53.53,0,0,0,.53.53h1.45a.54.54,0,0,0,.54-.53h0a.54.54,0,0,0-.54-.54Z"/><path class="cls-1" d="M192.42,260.3a.53.53,0,0,0-.53-.53h0a.54.54,0,0,0-.54.53v1.45a.54.54,0,0,0,.54.54h0a.54.54,0,0,0,.53-.54Z"/><path class="cls-1" d="M192.42,233.52a.54.54,0,0,0-.53-.54h0a.54.54,0,0,0-.54.54V235a.54.54,0,0,0,.54.54h0a.54.54,0,0,0,.53-.54Z"/><rect class="cls-3" x="175.59" y="171.59" width="24.15" height="25.91"/><rect class="cls-4" x="175.59" y="171.59" width="24.15" height="25.91"/><rect class="cls-3" x="175.59" y="100.55" width="24.15" height="24.33"/><rect class="cls-4" x="175.59" y="100.55" width="24.15" height="24.33"/><rect class="cls-3" x="171.59" y="129.73" width="31.9" height="38.03"/><path class="cls-5" d="M171.72,171.52H207.5v-45.8H167.84v45.8Zm0-41.91h31.9v38h-31.9Z"/><rect class="cls-4" x="171.72" y="129.5" width="31.9" height="38.03"/><path class="cls-4" d="M171.72,171.41H207.5v-45.8H167.84v45.8Z"/><rect class="cls-1" x="192.96" y="142.11" width="1.25" height="23.01" transform="translate(-53.52 156.72) rotate(-39.15)"/><rect class="cls-5" x="174.52" y="150.48" width="16.37" height="0.89" transform="translate(-49.67 197.41) rotate(-50.87)"/><path class="cls-1" d="M185.49,145.74a1.6,1.6,0,1,1,1.59,1.6A1.6,1.6,0,0,1,185.49,145.74Z"/><rect class="cls-1" x="186.17" y="162.81" width="1.83" height="2.91"/><rect class="cls-1" x="173.11" y="147.03" width="2.91" height="1.83"/><rect class="cls-1" x="186.17" y="130.18" width="1.83" height="2.91"/><rect class="cls-1" x="199.31" y="147.03" width="2.91" height="1.83"/><rect class="cls-3" x="101.08" y="166.06" width="29.76" height="16.39"/><path class="cls-7" d="M131.38,162.49H100.53a1.79,1.79,0,0,0-1.78,1.79h0a1.78,1.78,0,0,0,1.78,1.78h30.85a1.79,1.79,0,0,0,1.79-1.78h0A1.79,1.79,0,0,0,131.38,162.49Z"/><rect class="cls-4" x="101.08" y="166.06" width="29.76" height="16.39"/><path class="cls-4" d="M131.38,162.49H100.53a1.79,1.79,0,0,0-1.78,1.79h0a1.78,1.78,0,0,0,1.78,1.78h30.85a1.79,1.79,0,0,0,1.79-1.78h0A1.79,1.79,0,0,0,131.38,162.49Z"/><path class="cls-3" d="M127.18,138.38H104.73a1,1,0,0,0-.94.87L102.3,162.2h27.32l-1.5-22.95A.93.93,0,0,0,127.18,138.38Z"/><path class="cls-4" d="M127.18,138.38H104.73a1,1,0,0,0-.94.87L102.3,162.2h27.32l-1.5-22.95A.93.93,0,0,0,127.18,138.38Z"/><rect class="cls-3" x="101.08" y="197.46" width="29.76" height="16.39"/><path class="cls-7" d="M100.53,217.42h30.85a1.79,1.79,0,0,0,1.79-1.79h0a1.79,1.79,0,0,0-1.79-1.78H100.53a1.78,1.78,0,0,0-1.78,1.78h0A1.79,1.79,0,0,0,100.53,217.42Z"/><path class="cls-3" d="M104.73,241.53h22.45a.93.93,0,0,0,.94-.87l1.5-22.95H102.3l1.49,22.95A1,1,0,0,0,104.73,241.53Z"/><rect class="cls-4" x="101.08" y="197.46" width="29.76" height="16.39"/><path class="cls-4" d="M100.53,217.42h30.85a1.79,1.79,0,0,0,1.79-1.79h0a1.79,1.79,0,0,0-1.79-1.78H100.53a1.78,1.78,0,0,0-1.78,1.78h0A1.79,1.79,0,0,0,100.53,217.42Z"/><path class="cls-4" d="M104.73,241.53h22.45a.93.93,0,0,0,.94-.87l1.5-22.95H102.3l1.49,22.95A1,1,0,0,0,104.73,241.53Z"/><path class="cls-1" d="M136.76,191.69h2.92a1.88,1.88,0,1,0,0-3.75h-2.92Z"/><circle class="cls-7" cx="115.96" cy="189.82" r="21" transform="translate(-95.75 258.05) rotate(-76.44)"/><circle class="cls-4" cx="115.96" cy="189.82" r="21" transform="translate(-95.75 258.05) rotate(-76.44)"/><circle class="cls-3" cx="115.96" cy="189.82" r="16.53" transform="matrix(0.95, -0.31, 0.31, 0.95, -52.6, 44.68)"/><circle class="cls-4" cx="115.96" cy="189.82" r="16.53" transform="matrix(0.95, -0.31, 0.31, 0.95, -52.6, 44.68)"/><path class="cls-1" d="M117.77,189.82A1.82,1.82,0,1,1,116,188,1.81,1.81,0,0,1,117.77,189.82Z"/><path class="cls-1" d="M116,192.41a2.6,2.6,0,1,1,2.59-2.59A2.6,2.6,0,0,1,116,192.41Zm0-3.63a1,1,0,1,0,1,1A1,1,0,0,0,116,188.78Z"/><path class="cls-1" d="M116,179.8a.78.78,0,0,1-.78-.78v-2.93a.78.78,0,0,1,.78-.78.77.77,0,0,1,.77.78V179A.77.77,0,0,1,116,179.8Z"/><path class="cls-1" d="M110.45,181.28a.79.79,0,0,1-.68-.39l-1.46-2.54a.77.77,0,0,1,.28-1.06.78.78,0,0,1,1.07.28l1.46,2.54a.77.77,0,0,1-.28,1.06A.82.82,0,0,1,110.45,181.28Z"/><path class="cls-1" d="M106.41,185.31a.67.67,0,0,1-.38-.11l-2.54-1.46a.78.78,0,0,1,.77-1.35l2.54,1.47a.77.77,0,0,1,.29,1.06A.79.79,0,0,1,106.41,185.31Z"/><path class="cls-1" d="M104.94,190.82H102a.78.78,0,0,1,0-1.56h2.93a.78.78,0,0,1,0,1.56Z"/><path class="cls-1" d="M103.88,197.79a.8.8,0,0,1-.68-.38.78.78,0,0,1,.29-1.07l2.54-1.46a.77.77,0,1,1,.77,1.34l-2.54,1.47A.75.75,0,0,1,103.88,197.79Z"/><path class="cls-1" d="M109,202.9a.81.81,0,0,1-.39-.1.78.78,0,0,1-.28-1.07l1.46-2.54a.79.79,0,0,1,1.07-.28.77.77,0,0,1,.28,1.06l-1.46,2.54A.79.79,0,0,1,109,202.9Z"/><path class="cls-1" d="M116,204.77a.78.78,0,0,1-.78-.78v-2.93a.78.78,0,0,1,.78-.78.77.77,0,0,1,.77.78V204A.77.77,0,0,1,116,204.77Z"/><path class="cls-1" d="M122.93,202.9a.76.76,0,0,1-.67-.39L120.79,200a.78.78,0,0,1,.29-1.06.77.77,0,0,1,1.06.28l1.47,2.54a.79.79,0,0,1-.29,1.07A.76.76,0,0,1,122.93,202.9Z"/><path class="cls-1" d="M128,197.79a.78.78,0,0,1-.39-.1l-2.54-1.47a.78.78,0,1,1,.78-1.34l2.54,1.46a.78.78,0,0,1-.39,1.45Z"/><path class="cls-1" d="M129.91,190.82H127a.78.78,0,0,1,0-1.56h2.93a.78.78,0,0,1,0,1.56Z"/><path class="cls-1" d="M125.5,185.31a.78.78,0,0,1-.39-1.45l2.54-1.47a.78.78,0,0,1,.78,1.35l-2.54,1.46A.7.7,0,0,1,125.5,185.31Z"/><path class="cls-1" d="M121.47,181.28a.77.77,0,0,1-.39-.11.78.78,0,0,1-.29-1.06l1.47-2.54a.77.77,0,0,1,1.06-.28.78.78,0,0,1,.29,1.06l-1.47,2.54A.78.78,0,0,1,121.47,181.28Z"/><path class="cls-1" d="M114.45,189.58a.81.81,0,0,1-.42-.12L108.57,186a.77.77,0,0,1-.25-1.07.79.79,0,0,1,1.08-.24l5.46,3.43a.78.78,0,0,1,.25,1.07A.79.79,0,0,1,114.45,189.58Z"/><path class="cls-1" d="M116,196.33a.78.78,0,0,1-.78-.78v-3.92a.78.78,0,0,1,.78-.78.77.77,0,0,1,.77.78v3.92A.77.77,0,0,1,116,196.33Z"/><rect class="cls-7" x="249.26" y="130.16" width="12.33" height="28.82"/><rect class="cls-3" x="242.82" y="140.39" width="25.38" height="8.75" transform="translate(400.26 -110.75) rotate(90)"/><rect class="cls-4" x="249.26" y="130.16" width="12.33" height="28.82"/><line class="cls-4" x1="251.3" y1="137.5" x2="259.77" y2="137.5"/><line class="cls-4" x1="251.3" y1="143.09" x2="259.77" y2="143.09"/><line class="cls-4" x1="251.3" y1="148.68" x2="259.77" y2="148.68"/><line class="cls-4" x1="251.3" y1="154.28" x2="259.77" y2="154.28"/><rect class="cls-7" x="249.26" y="206.59" width="12.33" height="28.82"/><rect class="cls-3" x="242.82" y="216.82" width="25.38" height="8.75" transform="translate(476.7 -34.32) rotate(90)"/><rect class="cls-4" x="249.26" y="206.59" width="12.33" height="28.82"/><line class="cls-4" x1="251.3" y1="211.13" x2="259.77" y2="211.13"/><line class="cls-4" x1="251.3" y1="216.72" x2="259.77" y2="216.72"/><line class="cls-4" x1="251.3" y1="222.32" x2="259.77" y2="222.32"/><line class="cls-4" x1="251.3" y1="227.91" x2="259.77" y2="227.91"/><rect class="cls-8" x="253.34" y="156.56" width="4.22" height="52.66"/><path class="cls-7" d="M280.19,185v1H277v-1Z"/><path class="cls-7" d="M280.19,183.89V185H277c0-.37.06-.74.08-1.11Z"/><path class="cls-7" d="M280.19,181.67v1.11h-3.06q0-.56,0-1.11Z"/><path class="cls-7" d="M280.19,180.77v.9H277.1c0-.3,0-.6-.07-.9Z"/><path class="cls-7" d="M280.19,183.89h-3.08c0-.33,0-.67,0-1v-.11h3.06Z"/><path class="cls-7" d="M277,185v.13a21.92,21.92,0,1,1,0-4.36h0V185Zm-4.78-2.11a16.83,16.83,0,1,0-16.83,16.83A16.85,16.85,0,0,0,272.24,182.89Z"/><polygon class="cls-3" points="269.79 181.95 268.98 183.18 268.53 182.76 268.98 181.95 269.79 181.95"/><path class="cls-1" d="M269.79,182H269l-.45.81.45.42Zm-.39-.42a1.24,1.24,0,1,1-1.23,1.23A1.23,1.23,0,0,1,269.4,181.53Z"/><polygon class="cls-3" points="267.9 176.03 267.1 177.27 266.64 176.85 267.1 176.03 267.9 176.03"/><polygon class="cls-3" points="267.81 187.28 267 188.51 266.54 188.1 267 187.28 267.81 187.28"/><path class="cls-1" d="M267.1,177.27l.8-1.23h-.8l-.46.81Zm.41-1.66a1.24,1.24,0,1,1-1.23,1.24A1.24,1.24,0,0,1,267.51,175.61Z"/><path class="cls-1" d="M267.81,187.28H267l-.46.82.46.41Zm-.39,2.06a1.24,1.24,0,1,1,1.24-1.24A1.24,1.24,0,0,1,267.42,189.34Z"/><path class="cls-1" d="M264.62,176.55l-6.16,7L257,184l-.7-.47a.6.6,0,0,0-.4-.44l-.2-.31.59-1.55Z"/><polygon class="cls-3" points="263.29 170.28 262.48 171.51 262.03 171.1 262.48 170.28 263.29 170.28"/><polygon class="cls-3" points="263.19 192.99 262.38 194.22 261.93 193.81 262.38 192.99 263.19 192.99"/><path class="cls-1" d="M262.48,171.51l.81-1.23h-.81l-.45.82Zm.42-1.65a1.24,1.24,0,1,1-1.23,1.24A1.24,1.24,0,0,1,262.9,169.86Z"/><path class="cls-1" d="M263.19,193h-.81l-.45.82.45.41Zm-.39-.42a1.24,1.24,0,1,1-1.23,1.24A1.23,1.23,0,0,1,262.8,192.57Z"/><polygon class="cls-1" points="258.6 185.13 258.16 185.78 256 184.39 256.15 184.26 256.96 184.02 258.6 185.13"/><path class="cls-3" d="M256.26,183.55a.49.49,0,0,1,0,.12.59.59,0,0,1-.48.58l-.2-.12v-1h.09a.38.38,0,0,1,.18,0l.19.3Z"/><path class="cls-3" d="M256.26,183.55l-.21-.14-.19-.3A.6.6,0,0,1,256.26,183.55Z"/><path class="cls-1" d="M257,184l-.81.24-.15.13-.21-.14a.59.59,0,0,0,.48-.58.49.49,0,0,0,0-.12Z"/><polygon class="cls-3" points="255.95 195.85 255.14 197.09 254.69 196.67 255.14 195.85 255.95 195.85"/><path class="cls-1" d="M255.66,182.8l.2.31a.38.38,0,0,0-.18,0h-.09V183Z"/><polygon class="cls-3" points="255.85 168.14 255.04 169.37 254.59 168.95 255.04 168.14 255.85 168.14"/><path class="cls-1" d="M255.79,184.25l.21.14-.41.36v-.5h.2Z"/><path class="cls-3" d="M255.79,184.25h-.2v-.12Z"/><polygon class="cls-1" points="255.66 182.8 255.59 182.98 255.59 182.7 255.66 182.8"/><polygon class="cls-1" points="255.59 184.75 255.59 186.86 255.35 186.86 255.35 184.96 255.59 184.75"/><path class="cls-1" d="M255.59,184.25v.5l-.24.21v-.79A.68.68,0,0,0,255.59,184.25Z"/><path class="cls-3" d="M255.59,184.13v.12a.68.68,0,0,1-.24-.08V184h.05Z"/><path class="cls-3" d="M255.59,183.08v1l-.19-.13h-.05v-.57l.12-.11.08-.22Z"/><path class="cls-1" d="M255.59,183v.1h0Z"/><path class="cls-1" d="M255.59,182.7V183l0,.11a.5.5,0,0,0-.2.08v-.85Z"/><polygon class="cls-1" points="255.59 170.73 255.59 182.7 255.35 182.32 255.35 170.73 255.59 170.73"/><path class="cls-3" d="M255.55,183.09l-.08.22-.12.11v-.25A.5.5,0,0,1,255.55,183.09Z"/><path class="cls-3" d="M255.35,170.73v11.59l-.59-.92-6.69-2.93,5.59,5.18,1.18.24-2,1.8.71.82,1.78-1.55v1.9h.24v-2.11l.41-.36,2.16,1.39.44-.65L257,184l1.5-.46,6.16-7-8.37,4.7-.59,1.55-.07-.1v-12ZM254.23,169a1.24,1.24,0,1,0,1.23-1.23A1.23,1.23,0,0,0,254.23,169Zm1.18-2.88a16.83,16.83,0,1,1-16.83,16.82A16.85,16.85,0,0,1,255.41,166.07Zm15.23,16.69A1.24,1.24,0,1,0,269.4,184,1.23,1.23,0,0,0,270.64,182.76Zm-1.89-5.91a1.24,1.24,0,1,0-1.24,1.24A1.24,1.24,0,0,0,268.75,176.85Zm-.09,11.25a1.24,1.24,0,1,0-1.24,1.24A1.25,1.25,0,0,0,268.66,188.1Zm-4.52-17a1.24,1.24,0,1,0-1.24,1.24A1.24,1.24,0,0,0,264.14,171.1Zm-.1,22.71a1.24,1.24,0,1,0-1.24,1.24A1.23,1.23,0,0,0,264,193.81Zm-7.24,2.86a1.24,1.24,0,1,0-1.24,1.24A1.25,1.25,0,0,0,256.8,196.67Zm-7.88-25.37a1.24,1.24,0,1,0-1.24,1.24A1.24,1.24,0,0,0,248.92,171.3Zm-.53,22.64a1.24,1.24,0,1,0-1.24,1.23A1.24,1.24,0,0,0,248.39,193.94Zm-4-5.8a1.24,1.24,0,1,0-1.24,1.24A1.23,1.23,0,0,0,244.42,188.14Zm-.1-11.42a1.24,1.24,0,1,0-1.23,1.24A1.24,1.24,0,0,0,244.32,176.72Zm-1.82,6.17a1.24,1.24,0,1,0-1.23,1.24A1.24,1.24,0,0,0,242.5,182.89Z"/><path class="cls-1" d="M255.35,184.17V185l-1.78,1.55-.71-.82,2-1.8.32.06A.57.57,0,0,0,255.35,184.17Z"/><path class="cls-3" d="M255.35,184v.18a.57.57,0,0,1-.19-.22Z"/><path class="cls-3" d="M255.35,183.42V184l-.19,0a.54.54,0,0,1-.08-.28h0Z"/><path class="cls-3" d="M255.35,183.17v.25l-.27.24A.63.63,0,0,1,255.35,183.17Z"/><path class="cls-1" d="M255.35,182.32v.85a.63.63,0,0,0-.27.49l-.24.23-1.18-.24-5.59-5.18,6.69,2.93Z"/><path class="cls-1" d="M255.16,184l-.32-.06.24-.23h0A.54.54,0,0,0,255.16,184Z"/><path class="cls-1" d="M255.14,197.09l.81-1.24h-.81l-.45.82Zm-.82-.42a1.24,1.24,0,1,1,1.24,1.24A1.25,1.25,0,0,1,254.32,196.67Z"/><path class="cls-1" d="M255,168.14l-.45.81.45.42.81-1.23Zm-.81.81a1.24,1.24,0,1,1,1.23,1.24A1.23,1.23,0,0,1,254.23,169Z"/><polygon class="cls-3" points="248.07 170.49 247.26 171.72 246.81 171.3 247.26 170.49 248.07 170.49"/><polygon class="cls-3" points="247.53 193.12 246.73 194.35 246.27 193.94 246.73 193.12 247.53 193.12"/><path class="cls-1" d="M247.26,171.71l.81-1.23h-.81l-.45.82Zm.42-1.65a1.24,1.24,0,1,1-1.23,1.24A1.24,1.24,0,0,1,247.68,170.06Z"/><path class="cls-1" d="M247.54,193.12h-.81l-.46.82.46.41Zm-.39,2a1.24,1.24,0,1,1,1.24-1.23A1.24,1.24,0,0,1,247.15,195.17Z"/><polygon class="cls-3" points="243.57 187.33 242.76 188.56 242.31 188.15 242.76 187.33 243.57 187.33"/><polygon class="cls-3" points="243.48 175.91 242.66 177.14 242.21 176.72 242.66 175.91 243.48 175.91"/><path class="cls-1" d="M243.18,186.91a1.24,1.24,0,1,1-1.24,1.23A1.23,1.23,0,0,1,243.18,186.91Zm-.42,1.65.81-1.23h-.81l-.45.81Z"/><path class="cls-1" d="M243.48,175.91h-.82l-.45.81.45.42Zm-.39-.43a1.24,1.24,0,1,1-1.24,1.24A1.24,1.24,0,0,1,243.09,175.48Z"/><polygon class="cls-3" points="241.65 182.08 240.84 183.31 240.39 182.89 240.84 182.08 241.65 182.08"/><path class="cls-1" d="M241.65,182.08h-.81l-.45.81.45.42Zm-.38,2a1.24,1.24,0,1,1,1.23-1.24A1.23,1.23,0,0,1,241.27,184.13Z"/><path class="cls-4" d="M277.13,182.78v.11c0,.33,0,.67,0,1s0,.74-.08,1.11v.13a21.92,21.92,0,1,1,0-4.36c0,.3.05.6.07.9S277.13,182.41,277.13,182.78Z"/><path class="cls-4" d="M255.41,199.72a16.83,16.83,0,1,1,16.83-16.83A16.85,16.85,0,0,1,255.41,199.72Z"/><polygon class="cls-4" points="280.19 185 280.19 185.99 277.02 185.99 277.02 185.13 277.02 185 277.02 183.89 277.02 182.78 277.02 181.67 277.02 180.77 277.03 180.77 280.19 180.77 280.19 181.67 280.19 182.78 280.19 183.89 280.19 185"/><polyline class="cls-4" points="277.02 181.67 277.1 181.67 280.19 181.67"/><polyline class="cls-4" points="277.02 182.78 277.13 182.78 280.19 182.78"/><polyline class="cls-4" points="277.02 183.89 277.11 183.89 280.19 183.89"/><polyline class="cls-4" points="277.02 185 277.03 185 280.19 185"/></svg>