<svg id="Layer_1" data-name="Layer 1" xmlns="http://www.w3.org/2000/svg" viewBox="0 0 256 256"><defs><style>.cls-1{fill:#0e4e91;}.cls-2{fill:#abe7ff;}.cls-3{fill:#fff;}.cls-4{fill:#2db5ff;}.cls-5,.cls-6,.cls-8{fill:none;stroke:#0e4e91;}.cls-5,.cls-8{stroke-miterlimit:10;}.cls-6{stroke-linecap:round;stroke-linejoin:round;}.cls-7{fill:#caf5fe;}.cls-8{stroke-width:0.5px;opacity:0.19;}</style></defs><path class="cls-1" d="M96.13,209.3l.42-1.06c1.87.74,3.79,1.43,5.7,2l-.35,1.09C100,210.74,98,210.05,96.13,209.3Zm-4.24-1.81c-1.86-.85-3.7-1.77-5.48-2.75l.55-1c1.76,1,3.58,1.87,5.41,2.7Zm14.44,5.14.29-1.11c1.95.5,3.93.95,5.9,1.32l-.21,1.12C110.31,213.6,108.3,213.14,106.33,212.63Zm10.53,2.06.15-1.14c2,.26,4,.46,6,.58l-.07,1.14C120.94,215.15,118.88,215,116.86,214.69Zm10.7.74v-1.14c2,0,4,0,6-.17l.08,1.14C131.66,215.39,129.59,215.44,127.56,215.43Zm10.71-.59-.14-1.14c2-.23,4-.54,6-.91l.21,1.12C142.33,214.29,140.29,214.6,138.27,214.84Zm-79.56-34c-1.23-1.62-2.41-3.31-3.53-5l1-.63c1.1,1.69,2.27,3.36,3.48,5Zm90.12,32.05-.27-1.11c2-.47,3.91-1,5.83-1.64l.35,1.09C152.79,211.9,150.81,212.45,148.83,212.94ZM52.77,172c-1-1.77-2-3.59-2.88-5.42l1-.5c.88,1.81,1.84,3.6,2.84,5.34Zm106.3,37.81-.41-1.07c1.88-.71,3.75-1.5,5.58-2.35l.49,1C162.87,208.25,161,209,159.07,209.76ZM48,162.35c-.79-1.87-1.53-3.8-2.2-5.73l1.09-.37c.66,1.9,1.39,3.81,2.18,5.65Zm120.89,43-.53-1c1.79-.94,3.55-1.95,5.26-3l.6,1C172.45,203.38,170.66,204.4,168.86,205.36ZM44.39,152.23c-.56-2-1.06-4-1.48-5.95L44,146c.42,2,.91,4,1.47,5.87ZM178,199.77l-.65-.94c1.64-1.14,3.28-2.37,4.85-3.63l.71.89C181.36,197.38,179.7,198.61,178,199.77Zm-136-58c-.32-2-.56-4.06-.74-6.09l1.14-.1c.17,2,.42,4,.73,6Zm144.38,51.35-.76-.85c1.51-1.34,3-2.75,4.37-4.2l.82.79C189.47,190.32,188,191.75,186.45,193.11ZM45.91,99.44c.6-1.71,1.26-3.43,2-5.09l.26-.62,1,.45-.26.61c-.7,1.65-1.35,3.35-1.94,5Zm5.19-9.38-1-.51C51,87.72,52,85.91,53,84.15l1,.58C53,86.46,52,88.25,51.1,90.06Zm161.06,57c.44-2,.82-4,1.12-6l1.13.17c-.31,2-.69,4-1.14,6ZM56.36,80.86l-1-.62c1.12-1.71,2.31-3.39,3.55-5l.9.7C58.64,77.52,57.46,79.18,56.36,80.86Zm157.49,55.78c.2-2,.33-4,.38-6l1.14,0c-.06,2-.19,4.1-.39,6.12ZM62.71,72.4l-.88-.75c1.33-1.55,2.72-3.07,4.15-4.53l.82.8C65.39,69.36,64,70.87,62.71,72.4Zm151.52,53.66c-.06-2-.18-4-.37-6l1.14-.12c.2,2,.32,4.08.38,6.12ZM70.08,64.77l-.78-.85c1.5-1.37,3.08-2.71,4.68-4l.72.9C73.11,62.09,71.56,63.41,70.08,64.77Zm143.23,50.75c-.3-2-.68-4-1.12-5.94l1.12-.25c.45,2,.82,4,1.13,6Zm-135-57.41-.66-.93c1.66-1.18,3.39-2.32,5.12-3.37l.59,1C81.67,55.82,80,56.94,78.33,58.11ZM211.1,105.17c-.55-1.93-1.15-3.87-1.83-5.76l1.08-.39c.69,1.92,1.31,3.89,1.85,5.85ZM87.33,52.52l-.54-1c1.79-1,3.64-1.88,5.5-2.72l.47,1C90.92,50.67,89.1,51.56,87.33,52.52Zm120.3,42.64c-.77-1.85-1.62-3.7-2.52-5.5l1-.51c.91,1.82,1.77,3.7,2.55,5.58ZM128,42.17V41c2,0,4.1.06,6.13.2L134,42.36C132,42.23,130,42.16,128,42.17ZM182.54,61.5c-1.55-1.27-3.18-2.5-4.83-3.65l.66-.94c1.68,1.18,3.32,2.42,4.89,3.7Zm-44-18.71.13-1.14c2,.25,4.06.57,6.06,1l-.21,1.12C142.54,43.35,140.53,43,138.54,42.79Zm35.39,12.54c-1.7-1.06-3.47-2.08-5.25-3l.54-1c1.8,1,3.58,2,5.31,3.06ZM149,44.72l.28-1.11c2,.49,4,1.06,5.89,1.69l-.35,1.09C152.86,45.77,150.9,45.21,149,44.72Zm15.68,5.56c-1.83-.85-3.7-1.65-5.58-2.37l.41-1.06c1.89.73,3.8,1.54,5.65,2.4Z"/><circle class="cls-2" cx="128.94" cy="128.05" r="67.05"/><path class="cls-3" d="M191,97.67v17.12c0,4.06,3.75,4.92,5.88,7.27,1.47,1.63,1.69,3.6,1.69,6.23v5.4H186.87a.57.57,0,0,0-.57.57v26.15a.57.57,0,0,0,.57.57h11.69v6.4c-3.2,5.49-21.42,4.85-24.52,0V128.29c0-2.63.21-4.6,1.69-6.23,2.12-2.35,5.88-3.21,5.88-7.27V97.67H191Z"/><path class="cls-4" d="M192,94.43v2a1.22,1.22,0,0,1-1,1.2h-9.38a1.21,1.21,0,0,1-1.22-1.21v-2a1.21,1.21,0,0,1,1.22-1.22h9.22A1.21,1.21,0,0,1,192,94.43Z"/><path class="cls-4" d="M198.56,133.69V161H186.87a.57.57,0,0,1-.57-.57V134.26a.57.57,0,0,1,.57-.57Z"/><path class="cls-5" d="M191,97.66h-9.38a1.21,1.21,0,0,1-1.22-1.21v-2a1.21,1.21,0,0,1,1.22-1.22h9.22A1.21,1.21,0,0,1,192,94.43v2A1.22,1.22,0,0,1,191,97.66Z"/><path class="cls-5" d="M181.61,97.67v17.12c0,4.06-3.76,4.92-5.88,7.27-1.48,1.63-1.69,3.6-1.69,6.23v39.09c3.1,4.85,21.32,5.49,24.52,0V128.29c0-2.63-.22-4.6-1.69-6.23-2.13-2.35-5.88-3.21-5.88-7.27V97.67"/><path class="cls-5" d="M198.56,161H186.87a.57.57,0,0,1-.57-.57V134.26a.57.57,0,0,1,.57-.57h11.69"/><path class="cls-4" d="M179,136.61c.65,3.87,1,8.06.28,10.73-.93,2.32-2.72,3.28-5.46,3.61s-5.06,1.21-5,4,0,10.08,0,10.08,6.81,2.52,6.81,4.29-4.43,2.27-8.29,2.37-8.79-.65-8.79-2.73,6.69-3.93,6.69-3.93-.06-7.33,0-10.08-2.26-3.61-5-4-4.53-1.29-5.46-3.61c-.75-2.75-.34-7.11.34-11.08C158,138.38,176.48,138.38,179,136.61Z"/><path class="cls-3" d="M176.9,127.11a95.22,95.22,0,0,1,2.14,9.5c-2.56,1.77-21,1.77-23.89-.35.84-4.86,2.08-9.15,2.08-9.15Z"/><path class="cls-5" d="M155.15,136.26c.84-4.86,2.08-9.15,2.08-9.15H176.9a95.22,95.22,0,0,1,2.14,9.5c.65,3.87,1,8.06.28,10.73-.93,2.32-2.72,3.28-5.46,3.61s-5.06,1.21-5,4,0,10.08,0,10.08,6.81,2.52,6.81,4.29-4.43,2.27-8.29,2.37-8.79-.65-8.79-2.73,6.69-3.93,6.69-3.93-.06-7.33,0-10.08-2.26-3.61-5-4-4.53-1.29-5.46-3.61C154.06,144.59,154.47,140.23,155.15,136.26Z"/><path class="cls-5" d="M155.15,136.26c2.84,2.12,21.33,2.12,23.89.35"/><path class="cls-4" d="M78.3,186.56v-8.45C74.19,181.2,67.54,176.54,66,167c-.48-2.94-.37-6.68,2.72-7.73,2.7-.91,8.15.29,9.6,8.46l0-10.61c-6.23-5.29-19.14-3.66-16.88,10.61,2,12.61,12.33,17.35,16.9,18.84Z"/><path class="cls-3" d="M78.52,153.33l-.12-.09.2.14Z"/><path class="cls-3" d="M78.84,153.52l-.16-.09.17.1Z"/><path class="cls-3" d="M79.11,153.67l-.26-.14Z"/><path class="cls-3" d="M80,154l-.22-.07Z"/><path class="cls-3" d="M114.83,188.58a8.19,8.19,0,0,1-6.24,2.87H86.24A8.15,8.15,0,0,1,80,188.58l-1.71-2v8.74a2.19,2.19,0,0,0,2.18,2.18h33.87a2.12,2.12,0,0,0,.44,0,1.29,1.29,0,0,0,.21-.06l.2-.07a2.28,2.28,0,0,0,1.07-1l.09-.19a.42.42,0,0,0,0-.1.42.42,0,0,1,0-.1,2.37,2.37,0,0,0,.09-.65v-8.74Z"/><path class="cls-4" d="M91.45,153.36a1.54,1.54,0,0,1-.19.17l-.06.05-.13.11a3.75,3.75,0,0,1-.36.24l-.17.11-.05,0-.15.08-.23.11-.27.11a2.17,2.17,0,0,1-.36.12l-.19.05h0a1.4,1.4,0,0,1-.28.06,3.33,3.33,0,0,1-.54.07h-.78l-.6-.09-.23-.06-.19-.06-.44-.16-.16-.08a2.59,2.59,0,0,1-.33-.17l-.16-.09-.15-.1-.14-.1-.14-.1-.21-.18-.09-.09-.08-.06-.06-.08a2.87,2.87,0,0,1-.29-.31l-.18.15-.17.14-.19.13-.38.23-.2.1-.25.11a4.82,4.82,0,0,1-2.5.32c-.2,0-.39-.07-.59-.12l-.22-.07-.16,0-.21-.08-.25-.11-.26-.14-.17-.1-.08-.05-.2-.14-.05,0,0,0h0v24.94h0v8.45h0v8.74a2.18,2.18,0,0,0,2.18,2.18h34a1.75,1.75,0,0,0,.33,0,2.12,2.12,0,0,1-.44,0H80.48a2.19,2.19,0,0,1-2.18-2.18v-8.74l1.71,2a8.15,8.15,0,0,0,6.23,2.87h22.35a8.19,8.19,0,0,0,6.24-2.87l1.7-2V153.17a4.82,4.82,0,0,1-5.87,0l-.22-.19h0a4.74,4.74,0,0,1-1.25,1.07,5.2,5.2,0,0,1-.9.41l-.26.08-.25.07a5.37,5.37,0,0,1-1.06.11v4.15a3.26,3.26,0,0,1-6.52,0v-4a6.35,6.35,0,0,1-1,.4l-.22.06a6,6,0,0,1-3.8-.24l-.36-.15a2.79,2.79,0,0,1-.34-.18l-.34-.19-.16-.11-.32-.23-.15-.13-.3-.26a1.85,1.85,0,0,0-.14-.14,6.09,6.09,0,0,1-.87-1.12,4.88,4.88,0,0,1-.38.49.86.86,0,0,1-.13.14l-.13.13Z"/><path class="cls-3" d="M115,197.38a.68.68,0,0,0,.2-.07Z"/><path class="cls-3" d="M78,145.66a4.84,4.84,0,0,0-.43,6.84,6.51,6.51,0,0,0,.73.67l0,0,.05,0,.12.09.16.1.16.1.28.14a4.53,4.53,0,0,0,.57.23l.3.08a5.4,5.4,0,0,0,.88.15h0a5.06,5.06,0,0,0,1.23-.08,5.61,5.61,0,0,0,.91-.27l.25-.12.2-.09.38-.23a1.24,1.24,0,0,0,.18-.14l.19-.13.17-.15c.09.11.19.22.29.32l.07.07.06.06a.48.48,0,0,0,.11.09l.2.18.14.1.14.1.15.1.16.09a2.59,2.59,0,0,0,.33.17l.16.08.43.16.21.06.22.05a4.17,4.17,0,0,0,.6.1l.2,0h.57a3.31,3.31,0,0,0,.55-.07l.28-.05h0a1.39,1.39,0,0,0,.19-.06l.36-.12.27-.1.23-.12.15-.08s0,0,0,0l.18-.1c.12-.08.24-.16.35-.25l.14-.11.06-.05a1.54,1.54,0,0,0,.19-.17l.06-.06.13-.13.13-.14a4.21,4.21,0,0,0,.38-.48,5.92,5.92,0,0,0,.87,1.11l.14.14a3.48,3.48,0,0,0,.3.26l.15.12a3.81,3.81,0,0,0,.32.24.91.91,0,0,1,.16.11l.34.19c.11.07.23.12.34.18l.36.15a6.09,6.09,0,0,0,3.8.24l.22,0a6.39,6.39,0,0,0,1-.41v4a3.26,3.26,0,0,0,6.52,0v-4.15a4.72,4.72,0,0,0,1.06-.12l.26-.06.25-.08a4.54,4.54,0,0,0,.9-.41,5.41,5.41,0,0,0,1-.76c.09-.11.19-.2.28-.32h0l.23.19.23.17h0a2.9,2.9,0,0,0,.29.19l.33.17a3.8,3.8,0,0,0,.68.27,5.47,5.47,0,0,0,.7.16h0a5.48,5.48,0,0,0,1.28,0,5.21,5.21,0,0,0,1.66-.5,6.9,6.9,0,0,0,.67-.43,4.85,4.85,0,0,0-.17-7.88c0-.11,0-.2,0-.32a5.76,5.76,0,0,0-.15-1.3,5.63,5.63,0,0,0-6.77-4.19,4.39,4.39,0,0,0-.7-1.36,4.44,4.44,0,0,0-6.22-.84,6.09,6.09,0,0,0-1.64-1.64,6.19,6.19,0,0,0-8.61,1.64,4.34,4.34,0,0,0-1.35-.7,4.43,4.43,0,0,0-5.56,2.9,5.84,5.84,0,0,0-1.31-.14A5.61,5.61,0,0,0,78.46,145c0,.12,0,.21,0,.32A5.9,5.9,0,0,0,78,145.66Z"/><path class="cls-6" d="M78.3,186.57c-4.58-1.51-14.89-6.24-16.89-18.85-2.27-14.27,10.64-15.9,16.88-10.61v10.61c-1.45-8.17-6.9-9.38-9.6-8.45-3.09,1-3.2,4.78-2.72,7.72,1.56,9.54,8.21,14.2,12.32,11.13"/><path class="cls-6" d="M80.9,154.13a4.25,4.25,0,0,0,1.23-.08"/><path class="cls-6" d="M80,154a3.37,3.37,0,0,0,.55.12l.33,0"/><path class="cls-6" d="M79.12,153.67l.24.11.21.08.12,0"/><path class="cls-6" d="M116.53,153.17v42.17a2.13,2.13,0,0,1-2.06,2.14h-34a2.18,2.18,0,0,1-2.18-2.19v-8.73h0V153.17"/><path class="cls-6" d="M112.92,154.09a4.57,4.57,0,0,0,1.28,0,4.75,4.75,0,0,0,1.66-.5"/><path class="cls-6" d="M110.92,153.3a2.9,2.9,0,0,0,.29.19,2.59,2.59,0,0,0,.33.17,2.41,2.41,0,0,0,.33.15,2.06,2.06,0,0,0,.35.12,4,4,0,0,0,.7.16"/><path class="cls-6" d="M110.14,153.24c.09-.11.19-.2.28-.32h0"/><path class="cls-6" d="M78.47,145.29c0-.11,0-.2,0-.32a5.61,5.61,0,0,1,5.61-5.63,5.84,5.84,0,0,1,1.31.14,4.43,4.43,0,0,1,5.56-2.9,4.34,4.34,0,0,1,1.35.7,6.19,6.19,0,0,1,8.61-1.64,6.09,6.09,0,0,1,1.64,1.64,4.44,4.44,0,0,1,6.22.84,4.39,4.39,0,0,1,.7,1.36,5.63,5.63,0,0,1,6.77,4.19,5.76,5.76,0,0,1,.15,1.3c0,.12,0,.21,0,.32a4.85,4.85,0,0,1,.17,7.88,6.9,6.9,0,0,1-.67.43,5.21,5.21,0,0,1-1.66.5,5.48,5.48,0,0,1-1.28,0h0a5.47,5.47,0,0,1-.7-.16,3.8,3.8,0,0,1-.68-.27l-.33-.17a2.9,2.9,0,0,1-.29-.19h0l-.23-.17-.23-.19h0l-.29.32a5.41,5.41,0,0,1-1,.76,4.54,4.54,0,0,1-.9.41l-.25.08-.26.06a4.72,4.72,0,0,1-1.06.12v4.15a3.26,3.26,0,0,1-6.52,0v-4a6.39,6.39,0,0,1-1,.41l-.22,0a6.09,6.09,0,0,1-3.8-.24l-.36-.15c-.11-.06-.23-.11-.34-.18l-.34-.19a.91.91,0,0,0-.16-.11,3.81,3.81,0,0,1-.32-.24l-.15-.12a3.48,3.48,0,0,1-.3-.26l-.14-.14a5.92,5.92,0,0,1-.87-1.11,4.21,4.21,0,0,1-.38.48l-.13.14-.13.13-.06.06a1.54,1.54,0,0,1-.19.17l-.06.05-.14.11c-.11.09-.23.17-.35.25l-.18.1s0,0,0,0l-.15.08-.23.12-.27.1-.36.12a1.39,1.39,0,0,1-.19.06h0l-.28.05a3.31,3.31,0,0,1-.55.07h-.57l-.2,0a4.17,4.17,0,0,1-.6-.1l-.22-.05-.21-.06-.43-.16-.16-.08a2.59,2.59,0,0,1-.33-.17l-.16-.09-.15-.1-.14-.1-.14-.1-.2-.18a.48.48,0,0,1-.11-.09l-.06-.06-.07-.07c-.1-.1-.2-.21-.29-.32l-.17.15-.19.13a1.24,1.24,0,0,1-.18.14l-.38.23-.2.09-.25.12a5.61,5.61,0,0,1-.91.27,5.06,5.06,0,0,1-1.23.08h0A5.4,5.4,0,0,1,80,154l-.3-.08a4.53,4.53,0,0,1-.57-.23l-.28-.14-.16-.1-.16-.1-.12-.09-.05,0,0,0a6.51,6.51,0,0,1-.73-.67,4.84,4.84,0,0,1,.43-6.84,5.9,5.9,0,0,1,.47-.37"/><line class="cls-6" x1="106.98" y1="167.97" x2="106.98" y2="182.04"/><line class="cls-6" x1="97.42" y1="167.97" x2="97.42" y2="182.04"/><line class="cls-6" x1="87.86" y1="167.97" x2="87.86" y2="182.04"/><rect class="cls-7" x="97.75" y="115.82" width="35.91" height="3.06"/><rect class="cls-3" x="97.75" y="80.32" width="35.91" height="35.5"/><path class="cls-4" d="M133.65,67V80.32H97.75V67h2.52a4.52,4.52,0,0,1,4.53,4.53v1.77a4.06,4.06,0,0,0,4.06,4.06h13.73a4.06,4.06,0,0,0,4.07-4.06V71.5a4.4,4.4,0,0,1,.29-1.59A4.52,4.52,0,0,1,131.19,67h2.46Z"/><polygon class="cls-7" points="133.65 56.04 133.65 66.97 132.54 66.97 132.54 59.22 126.95 59.22 121.6 59.22 121.6 56.04 133.65 56.04"/><path class="cls-3" d="M132.54,59.22V67h-1.35A4.52,4.52,0,0,0,127,69.91V59.22Z"/><path class="cls-3" d="M127,59.22V69.91a4.4,4.4,0,0,0-.29,1.59v1.57H121.6V59.22Z"/><path class="cls-7" d="M126.66,73.07v.2a4.06,4.06,0,0,1-4.07,4.06h-1V73.07h5.06Z"/><polygon class="cls-7" points="121.6 73.07 121.6 77.33 115.68 77.33 115.68 70.7 115.7 70.7 121.6 70.7 121.6 73.07"/><polygon class="cls-3" points="121.6 59.22 121.6 70.7 115.7 70.7 115.68 70.7 115.68 66.97 115.68 56.04 121.6 56.04 121.6 59.22"/><polygon class="cls-7" points="115.68 70.7 115.68 77.33 110.38 77.33 110.38 73.27 110.38 66.97 115.68 66.97 115.68 70.7"/><polygon class="cls-3" points="115.68 56.04 115.68 66.97 110.38 66.97 110.38 59.22 110.38 56.04 110.38 51.49 115.68 51.49 115.68 56.04"/><path class="cls-7" d="M110.38,73.27v4.06h-1.52a4.06,4.06,0,0,1-4.06-4.06Z"/><path class="cls-3" d="M110.38,67v6.3H104.8V71.5a4.56,4.56,0,0,0-.34-1.73V59.22h5.92Z"/><polygon class="cls-7" points="110.38 56.04 110.38 59.22 104.46 59.22 98.81 59.22 98.81 66.97 97.75 66.97 97.75 56.04 110.38 56.04"/><path class="cls-3" d="M104.46,59.22V69.77a4.52,4.52,0,0,0-4.19-2.8H98.81V59.22Z"/><polyline class="cls-5" points="110.38 56.04 97.75 56.04 97.75 66.97 97.75 80.32 97.75 115.83 97.75 118.89 133.65 118.89 133.65 115.83 133.65 80.32 133.65 66.97 133.65 56.04 121.6 56.04"/><path class="cls-5" d="M121.6,77.33h1a4.06,4.06,0,0,0,4.07-4.06V71.5a4.4,4.4,0,0,1,.29-1.59A4.52,4.52,0,0,1,131.19,67h2.46"/><path class="cls-5" d="M97.75,67h2.52a4.52,4.52,0,0,1,4.53,4.53v1.77a4.06,4.06,0,0,0,4.06,4.06h1.52"/><polyline class="cls-5" points="110.38 59.22 110.38 56.04 110.38 51.49 115.68 51.49 115.68 56.04"/><line class="cls-5" x1="115.68" y1="77.33" x2="110.38" y2="77.33"/><line class="cls-5" x1="110.38" y1="66.97" x2="115.68" y2="66.97"/><path class="cls-5" d="M104.46,59.22h-5.2a.45.45,0,0,0-.45.45V67"/><polyline class="cls-5" points="110.38 77.33 110.38 73.27 110.38 66.97 110.38 59.22 104.46 59.22 104.46 69.77"/><line class="cls-5" x1="121.6" y1="59.22" x2="126.95" y2="59.22"/><path class="cls-5" d="M132.54,67V60.23a1,1,0,0,0-1-1H127V69.91"/><polygon class="cls-5" points="121.6 56.04 121.6 59.22 121.6 70.7 121.6 73.07 121.6 77.33 115.68 77.33 115.68 70.7 115.68 66.97 115.68 56.04 121.6 56.04"/><line class="cls-5" x1="115.7" y1="70.71" x2="121.6" y2="70.71"/><line class="cls-5" x1="121.66" y1="73.07" x2="126.66" y2="73.07"/><line class="cls-5" x1="104.8" y1="73.27" x2="110.38" y2="73.27"/><polygon class="cls-4" points="105.5 80.32 124.75 80.32 115.13 96.3 105.5 80.32"/><line class="cls-5" x1="97.75" y1="80.32" x2="133.65" y2="80.32"/><path class="cls-1" d="M106,105.22a8.57,8.57,0,0,1-.38,1.12,6.3,6.3,0,0,1-1.28.18,2.34,2.34,0,0,1-2.64-2.31,2.46,2.46,0,0,1,2.76-2.41,7.16,7.16,0,0,1,1.31.17c0,.33.09.84.14,1.15l-.28,0a1.22,1.22,0,0,0-.72-1,1.77,1.77,0,0,0-.61-.1c-1,0-1.51.84-1.51,1.93,0,1.28.65,2.14,1.6,2.14.59,0,1-.31,1.35-1.07Z"/><path class="cls-1" d="M106.52,106.42v-.24c.38-.05.42-.08.42-.57v-1.35c0-.47,0-.5-.36-.54v-.23a8,8,0,0,0,1.26-.25v2.37c0,.47,0,.52.43.57v.24Zm.82-3.6a.5.5,0,0,1-.5-.5.49.49,0,0,1,.5-.49.49.49,0,0,1,.5.49A.5.5,0,0,1,107.34,102.82Z"/><path class="cls-1" d="M109.63,105.33a.42.42,0,0,0-.12.24c0,.11.13.26.39.26h.79c.42,0,1,.17,1,.85s-1,1.41-1.88,1.41-1.32-.44-1.32-.82a.45.45,0,0,1,.2-.39c.19-.13.37-.25.53-.34a1.11,1.11,0,0,1-.53-.39.67.67,0,0,1-.11-.39,2,2,0,0,0,.75-.5Zm.34.07c-.8,0-1.31-.42-1.31-1.05a1.22,1.22,0,0,1,1.35-1.1,1.63,1.63,0,0,1,.78.18,5,5,0,0,0,1-.1l0,.06a.94.94,0,0,1-.25.43c-.12,0-.32,0-.41,0a.9.9,0,0,1,.17.57C111.29,105.05,110.65,105.4,110,105.4Zm.08,1.16c-.36,0-.53,0-.63.13a.5.5,0,0,0-.2.38c0,.37.35.65,1,.65s.87-.25.87-.62a.48.48,0,0,0-.39-.48A2.13,2.13,0,0,0,110.05,106.56Zm-.08-3c-.21,0-.43.26-.43.77s.16.86.49.86.42-.29.42-.79S110.31,103.51,110,103.51Z"/><path class="cls-1" d="M114.26,106.5a.6.6,0,0,1-.43-.15.62.62,0,0,1-.18-.25,2.77,2.77,0,0,1-.74.4.9.9,0,0,1-.94-.9c0-.36.16-.53.53-.68a5.6,5.6,0,0,0,1.12-.46v-.3c0-.36-.13-.56-.43-.56a.36.36,0,0,0-.28.13,1.44,1.44,0,0,0-.16.46.28.28,0,0,1-.3.24.43.43,0,0,1-.41-.36c0-.13.08-.22.24-.33a3.27,3.27,0,0,1,1.11-.49,1.22,1.22,0,0,1,.72.2.94.94,0,0,1,.38.85v1.21c0,.33.11.41.22.41a.63.63,0,0,0,.22,0l.07.23Zm-.64-1.75-.39.22a.5.5,0,0,0-.34.47.47.47,0,0,0,.43.53.38.38,0,0,0,.3-.12Z"/><path class="cls-1" d="M117.08,106.42h-1.84v-.24c.37,0,.41-.08.41-.49v-1.52c0-.35,0-.39-.36-.46v-.21a7,7,0,0,0,1.25-.26V104c.32-.48.57-.74.85-.74a.42.42,0,0,1,.45.42.68.68,0,0,1-.35.59.2.2,0,0,1-.22,0c-.12-.1-.21-.21-.32-.21s-.28.09-.41.36v1.32c0,.41,0,.44.54.49Z"/><path class="cls-1" d="M120.81,105.74a1.59,1.59,0,0,1-1.27.76,1.42,1.42,0,0,1-1.46-1.51,1.86,1.86,0,0,1,.52-1.26,1.55,1.55,0,0,1,1.09-.48,1.13,1.13,0,0,1,1.14,1.13c0,.12,0,.24-.09.26s-1.11.08-1.78.11c0,.74.43,1.11.93,1.11a1.22,1.22,0,0,0,.79-.31Zm-1.26-2.21c-.28,0-.52.33-.56.88l.84,0c.1,0,.14,0,.14-.14C120,103.9,119.82,103.53,119.55,103.53Z"/><path class="cls-1" d="M122.74,106.42a.67.67,0,0,1-.27.08.76.76,0,0,1-.86-.88v-1.94h-.44l0-.08.2-.27h.28v-.57l.82-.56.09.06c0,.18,0,.55,0,1.07h.69a.29.29,0,0,1,0,.35h-.64v1.7c0,.54.22.61.35.61a.86.86,0,0,0,.34-.07l.07.25Z"/><path class="cls-1" d="M125,106.42a.71.71,0,0,1-.28.08c-.53,0-.85-.25-.85-.88v-1.94h-.45l0-.08.2-.27h.29v-.57c.23-.17.57-.39.82-.56l.09.06c0,.18,0,.55,0,1.07h.7a.31.31,0,0,1-.06.35h-.64v1.7c0,.54.23.61.36.61a.78.78,0,0,0,.33-.07l.07.25Z"/><path class="cls-1" d="M128.45,105.74a1.6,1.6,0,0,1-1.28.76,1.41,1.41,0,0,1-1.45-1.51,1.82,1.82,0,0,1,.52-1.26,1.55,1.55,0,0,1,1.08-.48,1.15,1.15,0,0,1,1.15,1.13c0,.12,0,.24-.09.26s-1.12.08-1.79.11c0,.74.44,1.11.94,1.11a1.22,1.22,0,0,0,.79-.31Zm-1.27-2.21c-.28,0-.51.33-.56.88l.85,0c.09,0,.13,0,.13-.14C127.61,103.9,127.45,103.53,127.18,103.53Z"/><path class="cls-1" d="M130.84,104.24c-.18-.49-.42-.71-.75-.71a.35.35,0,0,0-.36.37c0,.24.17.37.53.53.56.25,1,.49,1,1a1.14,1.14,0,0,1-1.27,1,2.25,2.25,0,0,1-.88-.21c0-.16-.09-.64-.11-.88l.23,0c.14.44.43.85.88.85a.36.36,0,0,0,.4-.37c0-.21-.11-.37-.54-.58s-.9-.46-.9-1,.45-1,1.19-1a3.57,3.57,0,0,1,.75.1c0,.19.08.64.11.82Z"/><polyline class="cls-5" points="105.5 80.32 115.13 96.3 124.75 80.32"/><rect class="cls-4" x="139.93" y="104.22" width="6.63" height="13.87"/><polygon class="cls-3" points="146.56 104.22 139.93 104.22 139.93 78.06 146.56 78.06 146.56 103.58 146.56 104.22"/><polygon class="cls-5" points="146.56 104.22 146.56 118.09 139.93 118.09 139.93 104.22 139.93 78.06 146.56 78.06 146.56 103.58 146.56 104.22"/><line class="cls-5" x1="146.56" y1="104.22" x2="139.93" y2="104.22"/><path class="cls-3" d="M156.2,57.58s4.17,1,3.92,4.16c0,1.89-1.14,3.26-2.64,3.29a2.65,2.65,0,0,1-.69-.07c-.76-.18-2.83-.53-3.7.6-1.09,1.4-.42,3.33-1.75,4.45-2,1.57-4-.07-5.75,1.4a3.69,3.69,0,0,0-1.15,3.19h-2.87c-1-3.47,3.18-7.88,7.14-6.73-1.16-7.57,6.58-7.06,6.58-7.06Z"/><path class="cls-5" d="M141.57,74.6c-1-3.47,3.18-7.88,7.14-6.73-1.16-7.57,6.58-7.06,6.58-7.06"/><path class="cls-5" d="M156.2,57.58s4.17,1,3.92,4.16c0,1.89-1.14,3.26-2.64,3.29a2.65,2.65,0,0,1-.69-.07c-.76-.18-2.83-.53-3.7.6-1.09,1.4-.42,3.33-1.75,4.45-2,1.57-4-.07-5.75,1.4a3.69,3.69,0,0,0-1.15,3.19"/><line class="cls-8" x1="104.06" y1="80.32" x2="104.06" y2="115.82"/><line class="cls-8" x1="127.11" y1="80.32" x2="127.11" y2="115.82"/><polyline class="cls-8" points="121.13 115.82 121.13 103.59 121.13 86.34"/><polyline class="cls-8" points="115.7 115.82 115.7 106.42 115.7 103.44 115.7 95.35"/><polyline class="cls-8" points="110.45 115.82 110.45 108 110.45 107.69 110.45 106.58 110.45 105.82 110.45 105.33 110.45 104.35 110.45 103.3 110.45 88.53"/></svg>