<svg xmlns="http://www.w3.org/2000/svg" viewBox="30.007 69.387 83.774 36.122" width="400" height="160" fill-rule="evenodd"><path d="M63.887 88.666L59.7 99.988l-.448-2.3c-1.046-2.82-3.3-5.78-5.946-6.98l3.84 14.54 4.54-.002 6.752-16.58h-4.542zm3.6 16.598L70.17 88.65h4.3l-2.686 16.614h-4.288m19.84-16.204c-.848-.335-2.185-.7-3.844-.7-4.244 0-7.225 2.256-7.25 5.482-.027 2.4 2.132 3.722 3.755 4.516 1.675.813 2.234 1.334 2.23 2.06-.016 1.113-1.34 1.62-2.57 1.62-1.715 0-2.63-.25-4.035-.868l-.557-.265-.6 3.718c1.004.463 2.856.864 4.782.885 4.503 0 7.433-2.23 7.468-5.674.018-1.895-1.128-3.33-3.605-4.514-1.495-.77-2.42-1.28-2.406-2.06.001-.7.775-1.43 2.457-1.43a7.5 7.5 0 0 1 3.211.639l.382.2.584-3.602zm11.002-.392h-3.314c-1.028 0-1.798.293-2.25 1.38l-6.368 15.223H90.9l.904-2.498 5.492.01.522 2.488h3.983L98.328 88.67zm-5.3 10.706l1.7-4.644c-.027.045.352-.96.57-1.583l.286 1.432.996 4.795h-3.56z" fill="#1b548e"/><path d="M55.794 88.657h-6.92l-.04.286c5.38 1.376 8.928 4.754 10.406 8.75l-1.504-7.635c-.258-1.05-1.01-1.363-1.943-1.4z" fill="#e89f3e"/><path d="M35.9 84.643h-2.736l-3.156-14.225 3.024-.505 2.16 11.132 5.5-10.985h2.904L35.9 84.643m14.224-4.65H43.6c-.178 1.978.74 2.84 2.298 2.84 1.305 0 2.453-.484 3.688-1.263l-.01 1.978c-1.2.758-2.6 1.242-4.253 1.242-2.84 0-4.716-1.62-4.153-5.282.5-3.303 2.794-5.302 5.446-5.302 3.05 0 4.066 2.293 3.622 5.176l-.115.6zm-3.84-4.04c-1 0-1.954.8-2.4 2.462h4.04c.074-1.578-.42-2.462-1.64-2.462h0zm8.1 2.8l-.897 5.83h-2.525l1.564-10.164h2.147l.001 2.04c.855-1.178 2.017-2.167 3.608-2.25l.015 2.504a5.61 5.61 0 0 0-3.913 2.04zm3.88 5.83l1.564-10.164h2.525L60.78 84.58h-2.525zm3.1-11.868c-.842 0-1.424-.6-1.295-1.43.133-.863.9-1.473 1.742-1.473.82 0 1.4.6 1.267 1.473-.13.84-.893 1.43-1.714 1.43h0zm7.972-1.074c-.863 0-1.384.38-1.523 1.284l-.23 1.494h1.936v2.062h-2.252l-1.237 8.1h-2.504l1.248-8.102H63.3l.318-2.062H65.1l.27-1.747c.347-2.25 1.907-3.093 4-3.093a6.02 6.02 0 0 1 1.02.084l.02 2.063a6.37 6.37 0 0 0-1.04-.085zm.027 12.942l1.565-10.164h2.525L71.9 84.58h-2.526zm3.1-11.868c-.842 0-1.424-.6-1.295-1.43.133-.863.9-1.473 1.742-1.473.82 0 1.4.6 1.267 1.473-.13.84-.893 1.43-1.714 1.43h0zm10.77 7.28H76.7c-.18 1.978.74 2.84 2.298 2.84 1.305 0 2.452-.484 3.688-1.263l-.01 1.978a7.83 7.83 0 0 1-4.252 1.242c-2.84 0-4.716-1.62-4.153-5.282.5-3.303 2.794-5.302 5.445-5.302 3.052 0 4.066 2.293 3.623 5.176l-.115.6zm-3.84-4.04c-1 0-1.954.8-2.4 2.462h4.04c.074-1.578-.42-2.462-1.64-2.462h0zm11.318 8.628l.007-1.4c-.85.863-1.954 1.62-3.364 1.62-2.126 0-3.586-1.578-3.06-5.008.583-3.788 2.925-5.47 5.282-5.47.968 0 1.72.168 2.3.38l.754-4.903 2.587-.4-2.338 15.193H90.71zm.844-7.807a3.69 3.69 0 0 0-1.9-.442c-1.326 0-2.46 1.073-2.802 3.304-.304 1.977.395 2.903 1.5 2.903.926 0 1.725-.546 2.528-1.388l.674-4.377zm9.06 7.902c-1.195 0-2.17-.2-3.077-.5l1.66-10.8 1.96-.304-.718 4.67c.572-.5 1.368-1.02 2.34-1.02 1.626 0 2.715 1.2 2.317 3.793-.436 2.837-2.186 4.16-4.482 4.16zm1.4-6.264c-.638 0-1.278.43-1.844 1.005l-.538 3.5c.377.143.638.207 1.18.207 1.2 0 2.058-.733 2.327-2.486.23-1.483-.264-2.216-1.125-2.216h0zm7.577 6.583c-.977 1.897-1.944 2.487-3.426 2.487a2.39 2.39 0 0 1-.69-.08l-.013-1.578c.246.064.5.1.876.1.558 0 1.043-.254 1.368-.812l.254-.5-1.622-7.588 2.032-.254.94 5.482 2.55-5.37h1.896l-4.166 8.113z" fill="#1b548e"/></svg>