<svg id="Layer_1" data-name="Layer 1" xmlns="http://www.w3.org/2000/svg" viewBox="0 0 256 256"><defs><style>.cls-1{fill:#0e4e91;}.cls-2{fill:#abe7ff;}.cls-3{fill:#fff;}.cls-4{fill:#2db5ff;}.cls-5{fill:none;stroke:#0e4e91;stroke-miterlimit:10;}</style></defs><path class="cls-1" d="M136.52,226.68l0-1.28c2.27-.07,4.55-.21,6.79-.43l.13,1.28C141.13,226.47,138.81,226.62,136.52,226.68Zm-5.17,0c-2.29-.05-4.6-.18-6.87-.4l.12-1.27c2.24.2,4.52.34,6.78.39Zm17.18-1.08-.2-1.27c2.24-.35,4.49-.77,6.68-1.26l.29,1.25C153.07,224.83,150.79,225.26,148.53,225.61Zm11.78-2.55-.35-1.24c2.17-.61,4.35-1.31,6.47-2.07l.44,1.21C164.71,221.73,162.51,222.44,160.31,223.06Zm11.37-4-.5-1.19c2.08-.87,4.15-1.83,6.17-2.85l.58,1.14C175.88,217.22,173.78,218.19,171.68,219.08Zm10.79-5.35-.64-1.12c1.95-1.12,3.89-2.33,5.76-3.59l.72,1.06C186.41,211.36,184.45,212.59,182.47,213.73ZM85.31,214c-2-1.13-4-2.35-5.87-3.62l.72-1.06C82,210.52,84,211.72,86,212.84Zm107.21-6.86-.77-1c1.8-1.36,3.58-2.8,5.28-4.27l.84,1C196.15,204.25,194.35,205.71,192.52,207.09Zm-117.3.26c-1.84-1.36-3.65-2.81-5.38-4.31l.84-1c1.71,1.47,3.5,2.91,5.3,4.25Zm126.46-8.08-.89-.93c1.63-1.56,3.22-3.21,4.73-4.89l.95.86C204.94,196,203.33,197.68,201.68,199.27ZM66,199.57c-1.65-1.58-3.26-3.24-4.81-4.94l.95-.86c1.53,1.68,3.12,3.32,4.75,4.87Zm143.82-9.19-1-.81c1.43-1.76,2.8-3.59,4.1-5.43l1,.73C212.67,186.74,211.27,188.6,209.83,190.38Zm-152,.34c-1.45-1.77-2.85-3.62-4.17-5.48l1.05-.74c1.3,1.84,2.68,3.66,4.11,5.41Zm159-10.16-1.09-.68c1.2-1.92,2.34-3.9,3.4-5.9l1.13.6C219.2,176.61,218,178.62,216.83,180.56Zm-166,.38C49.57,179,48.41,177,47.33,175l1.13-.6c1.06,2,2.21,4,3.42,5.87Zm171.78-11-1.16-.55c1-2.05,1.84-4.16,2.64-6.27l1.2.46C224.44,165.73,223.54,167.87,222.57,170ZM36,135.56c-.14-2-.22-4.09-.23-6.13v-.75h1.28v.74c0,2,.08,4.05.22,6.05Zm1.19-12-1.28-.07c.12-2.29.32-4.59.61-6.86l1.27.15C37.51,119,37.31,121.32,37.19,123.58ZM228.7,111.05c-.41-2.22-.91-4.46-1.48-6.63l1.25-.33c.57,2.21,1.07,4.47,1.49,6.73Zm-190.15.71-1.26-.22c.4-2.26.88-4.52,1.44-6.74l1.25.31C39.43,107.3,39,109.54,38.55,111.76ZM225.81,99.52c-.68-2.15-1.45-4.31-2.29-6.41l1.2-.47c.84,2.13,1.62,4.31,2.31,6.49Zm-184.46.68-1.22-.38c.67-2.18,1.44-4.37,2.27-6.51l1.2.46C42.78,95.89,42,98.05,41.35,100.2ZM221.52,88.43c-1-2-2-4.09-3.06-6.06l1.13-.62c1.1,2,2.14,4.07,3.09,6.15Zm-175.94.63-1.17-.52c.94-2.09,2-4.17,3.06-6.19l1.12.61C47.52,85,46.5,87,45.58,89.06ZM215.89,78c-1.19-1.92-2.46-3.82-3.78-5.65l1-.75c1.34,1.85,2.63,3.78,3.83,5.72Zm-164.75.57L50,77.87c1.19-2,2.47-3.89,3.8-5.76l1,.75C53.57,74.7,52.31,76.61,51.14,78.54ZM209,68.27c-1.41-1.76-2.91-3.49-4.44-5.15l.94-.87c1.55,1.68,3.07,3.43,4.5,5.21ZM58,68.78,57,68c1.42-1.79,2.92-3.56,4.47-5.25l.94.87C60.84,65.27,59.35,67,58,68.78ZM201,59.47c-1.61-1.57-3.31-3.1-5-4.56l.83-1c1.75,1.47,3.47,3,5.11,4.62ZM95.32,40.08l-.51-1.18c2.09-.9,4.25-1.75,6.4-2.5l.43,1.21C99.51,38.35,97.39,39.19,95.32,40.08Zm64.87-4.24c-2.17-.61-4.39-1.16-6.6-1.62l.27-1.26c2.24.47,4.49,1,6.69,1.65Zm-53.7.2-.36-1.23c2.2-.64,4.44-1.21,6.68-1.7l.27,1.26C110.88,34.85,108.66,35.41,106.49,36Zm42.09-2.74c-2.23-.34-4.5-.61-6.76-.8l.11-1.28c2.28.19,4.58.46,6.84.81Zm-30.49.12-.2-1.27c2.25-.37,4.55-.66,6.83-.86l.12,1.28C122.59,32.77,120.32,33.06,118.09,33.42Zm18.64-1.21c-2.26-.07-4.55-.06-6.8,0L129.88,31c2.28-.08,4.6-.09,6.89,0Z"/><circle class="cls-2" cx="134.37" cy="128.3" r="75.32"/><path class="cls-3" d="M160,115.16c7.73,2.36,12.71,6.08,12.71,10.26,0,7.17-14.68,13-32.79,13s-32.79-5.8-32.79-13c0-4.1,4.8-7.75,12.28-10.14-.41,1.39-.83,2.78-1.22,4.07-.63,2.09-1.18,3.93-1.53,5.08a1.4,1.4,0,0,0,.89,1.73c13.63,4.69,28.54,4.57,44.41.9a1.39,1.39,0,0,0,1-1.77c-.34-1.11-.86-2.79-1.46-4.86C161.08,118.86,160.57,117.08,160,115.16Z"/><path class="cls-4" d="M163,125.29a1.39,1.39,0,0,1-1,1.77c-15.87,3.67-30.78,3.79-44.41-.9a1.4,1.4,0,0,1-.89-1.73c.35-1.15.9-3,1.53-5.08,2.11,1.74,7.64,4.41,21.67,4.52,14.59.11,19.83-2.09,21.67-3.44C162.15,122.5,162.67,124.18,163,125.29Z"/><path class="cls-3" d="M139.34,107.33c4.58-6.75,17-5.6,19.37,3.11.44,1.63.89,3.21,1.31,4.72.55,1.92,1.06,3.7,1.53,5.27-1.84,1.35-7.08,3.55-21.67,3.44-14-.11-19.56-2.78-21.67-4.52.39-1.29.81-2.68,1.22-4.07.73-2.46,1.47-4.91,2-6.83C123.28,102.45,135.51,100.13,139.34,107.33Z"/><path class="cls-5" d="M160,115.16c7.73,2.36,12.71,6.08,12.71,10.26,0,7.17-14.68,13-32.79,13s-32.79-5.8-32.79-13c0-4.1,4.8-7.75,12.28-10.14"/><path class="cls-5" d="M161.55,120.43c.6,2.07,1.12,3.75,1.46,4.86a1.39,1.39,0,0,1-1,1.77c-15.87,3.67-30.78,3.79-44.41-.9a1.4,1.4,0,0,1-.89-1.73c.35-1.15.9-3,1.53-5.08.39-1.29.81-2.68,1.22-4.07.73-2.46,1.47-4.91,2-6.83,1.8-6,14-8.32,17.86-1.12,4.58-6.75,17-5.6,19.37,3.11.44,1.63.89,3.21,1.31,4.72C160.57,117.08,161.08,118.86,161.55,120.43Z"/><path class="cls-5" d="M118.21,119.35c2.11,1.74,7.64,4.41,21.67,4.52,14.59.11,19.83-2.09,21.67-3.44"/><path class="cls-5" d="M132.26,107.38s4.09,1.94,7.08,0"/><path class="cls-3" d="M203.56,97.11c.19,0,.38.12.57.19-.33,3.19-1.08,5.93-3,7.26H189.53l-.07-.47.31-2a5.45,5.45,0,0,1,5.08-4.56Z"/><path class="cls-3" d="M203.56,97.11l-8.71.46a5.45,5.45,0,0,0-5.08,4.56l-.31,2-.32-2a5.45,5.45,0,0,0-5.08-4.56L173.69,97A50.28,50.28,0,0,1,203.56,97.11Z"/><polygon class="cls-3" points="192.27 113.29 195.32 145.9 189.53 151.24 183.22 145.56 185.85 113.29 192.27 113.29"/><path class="cls-3" d="M189.53,104.56h5.32a18,18,0,0,1-2.58,8.73h-6.41a18.43,18.43,0,0,1-3-8.73h6.69Z"/><path class="cls-3" d="M189.46,104.09l-.08.47H177.46c-2.55-1.5-3.77-7.54-3.77-7.54l10.37.55a5.45,5.45,0,0,1,5.08,4.56Z"/><path class="cls-5" d="M194.85,104.56h6.24c2-1.33,2.71-4.07,3-7.26-.19-.07-.38-.14-.57-.19A50.28,50.28,0,0,0,173.69,97s1.22,6,3.77,7.54h17.39Z"/><path class="cls-5" d="M173.69,97l10.37.55a5.45,5.45,0,0,1,5.08,4.56l.32,2,.07.47"/><path class="cls-5" d="M189.38,104.56l.08-.47.31-2a5.45,5.45,0,0,1,5.08-4.56l8.71-.46"/><path class="cls-5" d="M182.84,104.56a18.43,18.43,0,0,0,3,8.73h6.41a18,18,0,0,0,2.58-8.73"/><polyline class="cls-5" points="185.85 113.29 183.22 145.56 189.53 151.24 195.32 145.9 192.27 113.29"/><path class="cls-3" d="M147.38,53.77s3.82.87,1.7,7.51c0,0-1.72,3.52-7.72,5.09a6.18,6.18,0,0,0-1.66-.23H119s-5.09-1.12-7.58-4.21c3-3.76,7.92-4,7.92-4l21.17-.47S146.74,56.28,147.38,53.77Zm-9.16,8.43a1.31,1.31,0,1,0-1.31,1.31A1.31,1.31,0,0,0,138.22,62.2Zm-4.86,0a1.31,1.31,0,1,0-1.31,1.31A1.3,1.3,0,0,0,133.36,62.2Zm-4.86,0a1.31,1.31,0,1,0-1.31,1.31A1.31,1.31,0,0,0,128.5,62.2Zm-4.85,0a1.31,1.31,0,1,0-1.31,1.31A1.31,1.31,0,0,0,123.65,62.2Z"/><path class="cls-3" d="M147.38,70.58v9.25c-2.4,2.67-6,3.5-10.19,3.57l-.08-.05a1.77,1.77,0,0,0,.08-.56V75.13a1.58,1.58,0,0,0,0-.37S145.14,74.7,147.38,70.58Z"/><path class="cls-3" d="M141.36,66.37a11,11,0,0,1,6,4.21c-2.24,4.12-10.22,4.18-10.22,4.18a1.9,1.9,0,0,0-1.86-1.52H122.19a1.89,1.89,0,0,0-1.89,1.89A16.39,16.39,0,0,1,111.43,71v-9C113.92,65,119,66.14,119,66.14H139.7A6.18,6.18,0,0,1,141.36,66.37Z"/><path class="cls-4" d="M137.19,75.13v7.66a1.77,1.77,0,0,1-.08.56,1.9,1.9,0,0,1-1.81,1.33h-6.55a5.72,5.72,0,0,0,5.69-5.2,1.06,1.06,0,0,0,.3-.75,1.09,1.09,0,0,0-.37-.82,5.71,5.71,0,0,0-5.62-4.67h6.55a1.9,1.9,0,0,1,1.86,1.52A1.58,1.58,0,0,1,137.19,75.13Z"/><path class="cls-4" d="M136.91,60.9a1.31,1.31,0,1,1-1.31,1.3A1.31,1.31,0,0,1,136.91,60.9Z"/><path class="cls-4" d="M134.47,79a4.41,4.41,0,0,1,0,.52,1.08,1.08,0,0,1-.8.35H124a1.1,1.1,0,0,1-.92-.49,2.36,2.36,0,0,1,0-.38,4.53,4.53,0,0,1,.09-.91,1.06,1.06,0,0,1,.85-.42h9.67a1.07,1.07,0,0,1,.73.28A6,6,0,0,1,134.47,79Z"/><path class="cls-3" d="M134.37,77.91a1.07,1.07,0,0,0-.73-.28H124a1.06,1.06,0,0,0-.85.42,5.71,5.71,0,0,1,11.25-.14Z"/><path class="cls-3" d="M133.64,79.83a1.08,1.08,0,0,0,.8-.35,5.71,5.71,0,0,1-11.39-.14,1.1,1.1,0,0,0,.92.49Z"/><path class="cls-4" d="M132.05,60.9a1.31,1.31,0,1,1-1.31,1.3A1.3,1.3,0,0,1,132.05,60.9Z"/><path class="cls-4" d="M122.19,73.24h6.56a5.69,5.69,0,0,0-5.63,4.81,1,1,0,0,0-.25.68,1.07,1.07,0,0,0,.18.61,5.71,5.71,0,0,0,5.7,5.34h-6.56a1.89,1.89,0,0,1-1.89-1.89V75.13A1.89,1.89,0,0,1,122.19,73.24Z"/><path class="cls-4" d="M127.19,60.9a1.31,1.31,0,1,1-1.31,1.3A1.31,1.31,0,0,1,127.19,60.9Z"/><path class="cls-4" d="M122.34,60.9A1.31,1.31,0,1,1,121,62.2,1.31,1.31,0,0,1,122.34,60.9Z"/><path class="cls-5" d="M137.11,83.35a1.9,1.9,0,0,1-1.81,1.33H122.19a1.89,1.89,0,0,1-1.89-1.89V75.13a1.89,1.89,0,0,1,1.89-1.89H135.3a1.9,1.9,0,0,1,1.86,1.52,1.58,1.58,0,0,1,0,.37v7.66A1.77,1.77,0,0,1,137.11,83.35Z"/><path class="cls-5" d="M134.37,77.91a6,6,0,0,1,.1,1,4.41,4.41,0,0,1,0,.52,5.71,5.71,0,0,1-11.39-.14,2.36,2.36,0,0,1,0-.38,4.53,4.53,0,0,1,.09-.91,5.71,5.71,0,0,1,11.25-.14Z"/><path class="cls-5" d="M134.44,79.48a1.08,1.08,0,0,1-.8.35H124a1.1,1.1,0,0,1-.92-.49,1.07,1.07,0,0,1-.18-.61,1,1,0,0,1,.25-.68,1.06,1.06,0,0,1,.85-.42h9.67a1.07,1.07,0,0,1,.73.28,1.09,1.09,0,0,1,.37.82A1.06,1.06,0,0,1,134.44,79.48Z"/><path class="cls-5" d="M141.36,66.37c6-1.57,7.72-5.09,7.72-5.09,2.12-6.64-1.7-7.51-1.7-7.51-.64,2.51-6.86,3.66-6.86,3.66l-21.17.47s-5,.27-7.92,4C113.92,65,119,66.14,119,66.14H139.7a6.18,6.18,0,0,1,1.66.23,11,11,0,0,1,6,4.21c-2.24,4.12-10.22,4.18-10.22,4.18"/><path class="cls-5" d="M111.43,61.93v9a16.39,16.39,0,0,0,8.87,4.18"/><path class="cls-5" d="M137.19,83.4c4.16-.07,7.79-.9,10.19-3.57V70.58"/><path class="cls-5" d="M123.65,62.2a1.31,1.31,0,1,1-1.31-1.3A1.31,1.31,0,0,1,123.65,62.2Z"/><path class="cls-5" d="M128.5,62.2a1.31,1.31,0,1,1-1.31-1.3A1.31,1.31,0,0,1,128.5,62.2Z"/><path class="cls-5" d="M133.36,62.2a1.31,1.31,0,1,1-1.31-1.3A1.3,1.3,0,0,1,133.36,62.2Z"/><path class="cls-5" d="M138.22,62.2a1.31,1.31,0,1,1-1.31-1.3A1.31,1.31,0,0,1,138.22,62.2Z"/><path class="cls-3" d="M91.35,97a10.51,10.51,0,1,1-10.51,10.51v-6A4.5,4.5,0,0,1,85.33,97h6Z"/><path class="cls-3" d="M72.15,97H85.33a4.5,4.5,0,0,0-4.49,4.49v1a3.7,3.7,0,0,0-4.2,0v-1A4.5,4.5,0,0,0,72.15,97Z"/><path class="cls-3" d="M76.64,102.45v5A10.51,10.51,0,1,1,66.13,97h6a4.5,4.5,0,0,1,4.49,4.49Z"/><path class="cls-5" d="M72.15,97a4.5,4.5,0,0,1,4.49,4.49v6A10.51,10.51,0,1,1,66.13,97H70.2"/><path class="cls-5" d="M87.81,97h3.54a10.51,10.51,0,1,1-10.51,10.51v-6A4.5,4.5,0,0,1,85.33,97"/><polyline class="cls-5" points="87.81 96.97 85.33 96.97 72.15 96.97 70.2 96.97"/><path class="cls-5" d="M76.64,102.45a3.7,3.7,0,0,1,4.2,0"/><line class="cls-5" x1="66.57" y1="104" x2="62.93" y2="107.48"/><line class="cls-5" x1="69.29" y1="106.71" x2="65.64" y2="110.19"/><line class="cls-5" x1="92.5" y1="104.39" x2="88.86" y2="107.86"/><line class="cls-5" x1="95.21" y1="107.1" x2="91.57" y2="110.57"/><line class="cls-5" x1="99.91" y1="101.8" x2="102.51" y2="101.8"/><line class="cls-5" x1="55.91" y1="100.36" x2="58.06" y2="100.36"/><path class="cls-4" d="M184.1,171.37v4.09a1.71,1.71,0,0,1-1.71,1.7h-8.85a3.75,3.75,0,0,1-3.69-3.09,3.68,3.68,0,0,1-.06-.66,3.74,3.74,0,0,1,3.75-3.74h8.85A1.69,1.69,0,0,1,184.1,171.37Zm-9.85,2a.85.85,0,0,0-.85-.85.82.82,0,0,0-.6.25.84.84,0,0,0-.25.6.86.86,0,0,0,.25.6.82.82,0,0,0,.6.25.85.85,0,0,0,.85-.85Z"/><path class="cls-3" d="M180.69,177.16V184a4.09,4.09,0,0,1-4.09,4.09H146.29A4.09,4.09,0,0,1,142.2,184V162.85a4.09,4.09,0,0,1,4.09-4.09H176.6a3.31,3.31,0,0,1,.55,0,4.09,4.09,0,0,1,3.54,4v6.82h-7.15a3.74,3.74,0,0,0-3.75,3.74,3.68,3.68,0,0,0,.06.66,3.75,3.75,0,0,0,3.69,3.09Z"/><path class="cls-3" d="M174,172.81a.85.85,0,0,1-.6,1.45.82.82,0,0,1-.6-.25.86.86,0,0,1-.25-.6.84.84,0,0,1,.25-.6.82.82,0,0,1,.6-.25A.86.86,0,0,1,174,172.81Z"/><path class="cls-5" d="M180.69,177.16V184a4.09,4.09,0,0,1-4.09,4.09H146.29A4.09,4.09,0,0,1,142.2,184V162.85a4.09,4.09,0,0,1,4.09-4.09H176.6a3.31,3.31,0,0,1,.55,0"/><path class="cls-5" d="M180.69,165.84v-3a4.09,4.09,0,0,0-3.54-4"/><line class="cls-5" x1="180.69" y1="169.67" x2="180.69" y2="165.84"/><path class="cls-5" d="M180.69,169.67h1.7a1.69,1.69,0,0,1,1.71,1.7v4.09a1.71,1.71,0,0,1-1.71,1.7h-8.85a3.75,3.75,0,0,1-3.69-3.09,3.68,3.68,0,0,1-.06-.66,3.74,3.74,0,0,1,3.75-3.74h7.15Z"/><path class="cls-5" d="M173.4,172.56a.82.82,0,0,0-.6.25.84.84,0,0,0-.25.6.86.86,0,0,0,.25.6.82.82,0,0,0,.6.25.85.85,0,0,0,0-1.7Z"/><path class="cls-3" d="M94.78,183.34,96,186.25a1,1,0,0,1-.76,1.33l-17.41,2.68h-.15a1,1,0,0,1-.7-.3,1,1,0,0,1-.27-.72l.13-3.14.29-7v0a19.44,19.44,0,0,1-2.26-6.53L72.4,156.82a1.94,1.94,0,0,1,.43-1.59,2.15,2.15,0,0,1,1.63-.73,2,2,0,0,1,2.09,1.68l-.8-5.19a2,2,0,0,1,.44-1.59,2.15,2.15,0,0,1,1.63-.73,2,2,0,0,1,2.07,1.7l0,.11-.34-2.21a1.94,1.94,0,0,1,.43-1.59,2.16,2.16,0,0,1,1.64-.73,1.94,1.94,0,0,1,2,1.7l.59,3.1a1.93,1.93,0,0,1,.43-1.6,2.16,2.16,0,0,1,1.63-.72,2,2,0,0,1,2,1.7l2.48,16.16a.9.9,0,0,0,.94.76.89.89,0,0,0,.83-.52l2.13-4.7a1.94,1.94,0,0,1,1.79-1.18,2.24,2.24,0,0,1,1.84,1,2,2,0,0,1,.11,1.89l-.27.52c-.18.32-1.62,3.57-1.62,3.57L92.22,177s0,0,0,0Z"/><path class="cls-5" d="M86.67,184.59h0l-9.86,1.52.29-7v0a19.44,19.44,0,0,1-2.26-6.53L72.4,156.82a1.94,1.94,0,0,1,.43-1.59,2.15,2.15,0,0,1,1.63-.73,2,2,0,0,1,2.09,1.68"/><path class="cls-5" d="M94.78,183.34,96,186.25a1,1,0,0,1-.76,1.33l-17.41,2.68h-.15a1,1,0,0,1-.7-.3,1,1,0,0,1-.27-.72l.13-3.14"/><path class="cls-5" d="M86.36,164.65v0l-2.13-13.88a1.93,1.93,0,0,1,.43-1.6,2.16,2.16,0,0,1,1.63-.72,2,2,0,0,1,2,1.7l2.48,16.16a.9.9,0,0,0,.94.76.89.89,0,0,0,.83-.52l2.13-4.7a1.94,1.94,0,0,1,1.79-1.18,2.24,2.24,0,0,1,1.84,1,2,2,0,0,1,.11,1.89l-.27.52c-.18.32-1.62,3.57-1.62,3.57L92.22,177s0,0,0,0l2.56,6.35-3.39.52h0"/><path class="cls-5" d="M82.21,165.29v0l-2.28-14.79-.34-2.21a1.94,1.94,0,0,1,.43-1.59,2.16,2.16,0,0,1,1.64-.73,1.94,1.94,0,0,1,2,1.7l.59,3.1"/><path class="cls-5" d="M82.21,165.31v0"/><path class="cls-5" d="M78.05,166v0l-1.49-9.69h0v0l-.8-5.19a2,2,0,0,1,.44-1.59,2.15,2.15,0,0,1,1.63-.73,2,2,0,0,1,2.07,1.7l0,.11"/><path class="cls-3" d="M98.29,188.78l-1.43,2.75a1,1,0,0,0,0,.84,1,1,0,0,0,.65.54l16.89,4.29a.8.8,0,0,0,.15,0,1,1,0,0,0,1.06-.91l.17-3.11.37-6.91s0,0,0,0a19.1,19.1,0,0,0,2.85-6.22l3.88-15.27a2,2,0,0,0-.27-1.62,2.17,2.17,0,0,0-1.55-.87,2,2,0,0,0-2.21,1.46l1.28-5a1.93,1.93,0,0,0-.28-1.61,2.11,2.11,0,0,0-1.54-.87,2,2,0,0,0-2.2,1.48l0,.1.55-2.14a1.93,1.93,0,0,0-.28-1.61,2.11,2.11,0,0,0-1.54-.87,1.93,1.93,0,0,0-2.12,1.48l-.87,3a1.89,1.89,0,0,0-.27-1.61,2.11,2.11,0,0,0-1.54-.87,1.93,1.93,0,0,0-2.12,1.48l-4,15.69a.9.9,0,0,1-1,.66.87.87,0,0,1-.76-.59l-1.66-4.84a1.92,1.92,0,0,0-1.65-1.33,2.2,2.2,0,0,0-1.9.8,1.94,1.94,0,0,0-.29,1.85c.06.18.14.36.22.54.14.33,1.25,3.67,1.25,3.67l3.34,9.6s0,0,0,0Z"/><path class="cls-5" d="M106.16,190.78h0l9.58,2.43.37-6.91s0,0,0,0a19.1,19.1,0,0,0,2.85-6.22l3.88-15.27a2,2,0,0,0-.27-1.62,2.17,2.17,0,0,0-1.55-.87,2,2,0,0,0-2.21,1.46"/><path class="cls-5" d="M98.29,188.78l-1.43,2.75a1,1,0,0,0,0,.84,1,1,0,0,0,.65.54l16.89,4.29a.8.8,0,0,0,.15,0,1,1,0,0,0,1.06-.91l.17-3.11"/><path class="cls-5" d="M108.36,171.16v0l3.42-13.47a1.89,1.89,0,0,0-.27-1.61,2.11,2.11,0,0,0-1.54-.87,1.93,1.93,0,0,0-2.12,1.48l-4,15.69a.9.9,0,0,1-1,.66.87.87,0,0,1-.76-.59l-1.66-4.84a1.92,1.92,0,0,0-1.65-1.33,2.2,2.2,0,0,0-1.9.8,1.94,1.94,0,0,0-.29,1.85c.06.18.14.36.22.54.14.33,1.25,3.67,1.25,3.67l3.34,9.6s0,0,0,0l-3.13,6,3.29.83h0"/><path class="cls-5" d="M112.39,172.18h0L116,157.81l.55-2.14a1.93,1.93,0,0,0-.28-1.61,2.11,2.11,0,0,0-1.54-.87,1.93,1.93,0,0,0-2.12,1.48l-.87,3"/><path class="cls-5" d="M112.39,172.2v0"/><path class="cls-5" d="M116.42,173.23a.08.08,0,0,1,0,0l2.39-9.4h0v0l1.28-5a1.93,1.93,0,0,0-.28-1.61,2.11,2.11,0,0,0-1.54-.87,2,2,0,0,0-2.2,1.48l0,.1"/></svg>