<svg id="Layer_1" data-name="Layer 1" xmlns="http://www.w3.org/2000/svg" viewBox="0 0 367.32 367.32"><defs><style>.cls-1{fill:#abe7ff;}.cls-2{fill:#0e4e91;}.cls-3{fill:#fff;}.cls-4{fill:none;stroke:#0e4e91;stroke-linecap:round;stroke-linejoin:round;}.cls-5{fill:#2db5ff;}.cls-6{fill:#caf5fe;}</style></defs><title>-</title><circle class="cls-1" cx="173.24" cy="188.1" r="91.48"/><path class="cls-2" d="M183.63,192.08a.53.53,0,0,1,.54.51v3.34a.54.54,0,0,1-1.08,0v-3.34A.53.53,0,0,1,183.63,192.08Z"/><path class="cls-2" d="M188.81,193.15a.78.78,0,0,1,.21,0,.51.51,0,0,1,.29.68l-1.35,3a.55.55,0,0,1-.71.27.51.51,0,0,1-.29-.67l1.35-3A.55.55,0,0,1,188.81,193.15Z"/><path class="cls-2" d="M193.13,196.06a.54.54,0,0,1,.39.16.48.48,0,0,1,0,.72l-2.44,2.24a.57.57,0,0,1-.77,0,.49.49,0,0,1,0-.72l2.44-2.24A.59.59,0,0,1,193.13,196.06Z"/><path class="cls-2" d="M178.17,193.08a.53.53,0,0,1,.49.31l1.45,3.1a.51.51,0,0,1-.28.68.55.55,0,0,1-.71-.26l-1.45-3.11a.5.5,0,0,1,.28-.67A.59.59,0,0,1,178.17,193.08Z"/><path class="cls-2" d="M173.6,196.14a.53.53,0,0,1,.36.13l2.68,2.3a.49.49,0,0,1,0,.72.56.56,0,0,1-.76,0l-2.68-2.3a.49.49,0,0,1,0-.72A.52.52,0,0,1,173.6,196.14Z"/><path class="cls-3" d="M183.1,216a32.63,32.63,0,1,1-32.62,32.63A32.63,32.63,0,0,1,183.1,216Zm23.64,32.63a23.64,23.64,0,1,0-23.64,23.64A23.63,23.63,0,0,0,206.74,248.61Z"/><circle class="cls-4" cx="183.1" cy="248.61" r="32.62"/><circle class="cls-4" cx="183.1" cy="248.61" r="23.64"/><circle class="cls-5" cx="183.1" cy="211.63" r="8.52"/><circle class="cls-4" cx="183.1" cy="211.63" r="8.52"/><path class="cls-4" d="M268.71,126.09c1,8.95-5,22.2-24.35,24.6-19.3-2.4-25.31-15.65-24.35-24.6"/><circle class="cls-5" cx="244.38" cy="150.82" r="3.74"/><circle class="cls-4" cx="244.38" cy="150.82" r="3.74"/><path class="cls-6" d="M244.43,164.52c4.72,3.59,12.13,10.7,12.31,20.09,0,9.56-7.89,11-12.57,11-8.2,0-12.37-3.52-12.37-10.48C231.8,175.49,239.55,168.17,244.43,164.52Z"/><path class="cls-3" d="M264.88,184.55c0,13.11-9.82,19.19-20.71,19.19s-20.51-5.52-20.51-18.63c0-19.25,20.79-30.34,20.79-30.34S264.6,165.65,264.88,184.55Zm-8.14.06c-.18-9.39-7.59-16.5-12.31-20.09-4.88,3.65-12.63,11-12.63,20.59,0,7,4.17,10.48,12.37,10.48C248.85,195.59,256.7,194.17,256.74,184.61Z"/><path class="cls-4" d="M264.88,184.55c0,13.11-9.82,19.19-20.71,19.19s-20.51-5.52-20.51-18.63c0-19.25,20.79-30.34,20.79-30.34S264.6,165.65,264.88,184.55Z"/><path class="cls-4" d="M244.17,195.59c-8.2,0-12.37-3.52-12.37-10.48,0-9.62,7.75-16.94,12.63-20.59,4.72,3.59,12.13,10.7,12.31,20.09C256.7,194.17,248.85,195.59,244.17,195.59Z"/><path class="cls-2" d="M82.4,232.05a.32.32,0,0,1-.33-.31v-2.05a.33.33,0,0,1,.66,0v2.05A.32.32,0,0,1,82.4,232.05Z"/><path class="cls-2" d="M79.22,231.39l-.13,0a.32.32,0,0,1-.18-.42l.83-1.85a.33.33,0,0,1,.43-.17.31.31,0,0,1,.18.41l-.83,1.86A.32.32,0,0,1,79.22,231.39Z"/><path class="cls-2" d="M76.56,229.61a.37.37,0,0,1-.24-.1.31.31,0,0,1,0-.45l1.5-1.37a.34.34,0,0,1,.47,0,.3.3,0,0,1,0,.45l-1.5,1.37A.33.33,0,0,1,76.56,229.61Z"/><path class="cls-2" d="M85.75,231.44a.34.34,0,0,1-.3-.19l-.89-1.91a.3.3,0,0,1,.17-.41.33.33,0,0,1,.44.16l.89,1.9a.32.32,0,0,1-.17.42A.32.32,0,0,1,85.75,231.44Z"/><path class="cls-2" d="M88.56,229.56a.35.35,0,0,1-.22-.08l-1.65-1.41a.32.32,0,0,1,0-.45.34.34,0,0,1,.47,0L88.78,229a.31.31,0,0,1,0,.45A.39.39,0,0,1,88.56,229.56Z"/><path class="cls-2" d="M117.51,231.64a.32.32,0,0,1-.33-.32v-2a.34.34,0,0,1,.67,0v2A.33.33,0,0,1,117.51,231.64Z"/><path class="cls-2" d="M114.33,231a.34.34,0,0,1-.31-.44l.83-1.86a.35.35,0,0,1,.44-.17.31.31,0,0,1,.17.42l-.82,1.86A.34.34,0,0,1,114.33,231Z"/><path class="cls-2" d="M111.68,229.19a.34.34,0,0,1-.24-.09.31.31,0,0,1,0-.45l1.51-1.37a.34.34,0,0,1,.47,0,.31.31,0,0,1,0,.44l-1.5,1.37A.35.35,0,0,1,111.68,229.19Z"/><path class="cls-2" d="M120.87,231a.34.34,0,0,1-.31-.19l-.88-1.9a.31.31,0,0,1,.17-.42.33.33,0,0,1,.43.16l.89,1.91a.31.31,0,0,1-.17.42Z"/><path class="cls-2" d="M123.68,229.15a.35.35,0,0,1-.23-.09l-1.64-1.41a.3.3,0,0,1,0-.44.35.35,0,0,1,.47,0l1.65,1.42a.29.29,0,0,1,0,.44A.32.32,0,0,1,123.68,229.15Z"/><path class="cls-3" d="M117.12,173.3s12.81,10.32,12.7,21.53c0,9.84-5.69,14.12-12.7,14.12h-.07a.92.92,0,0,0-.15-.14l-.18.13c-6.83-.16-12.3-4.46-12.3-14.11C104.8,182.22,117.12,173.3,117.12,173.3Z"/><path class="cls-3" d="M83.19,173.3S96,183.62,95.88,194.83c0,9.84-5.68,14.12-12.69,14.12h-.08a1.21,1.21,0,0,0-.16-.14l-.18.13c-6.83-.17-12.28-4.47-12.28-14.11C70.86,182.22,83.19,173.3,83.19,173.3Z"/><circle class="cls-5" cx="82.87" cy="167.6" r="5.7"/><circle class="cls-5" cx="82.87" cy="157.56" r="4.22"/><circle class="cls-5" cx="116.8" cy="157.56" r="4.22"/><circle class="cls-5" cx="116.8" cy="167.6" r="5.7"/><path class="cls-5" d="M117.05,209c.9.77,5.42,4.86,5.39,9.26s-2.49,6.16-5.54,6.16-5.56-1.87-5.56-6.16c.15-4.91,4.44-8.54,5.38-9.27Z"/><path class="cls-5" d="M83.11,209c.91.77,5.43,4.86,5.39,9.26S86,224.37,83,224.37s-5.54-1.87-5.54-6.16c.14-4.91,4.42-8.54,5.36-9.27Z"/><circle class="cls-4" cx="82.87" cy="157.56" r="4.22"/><circle class="cls-4" cx="82.87" cy="167.6" r="5.7"/><path class="cls-4" d="M82.77,208.94c-6.83-.17-12.28-4.47-12.28-14.11.37-12.61,12.7-21.53,12.7-21.53S96,183.62,95.88,194.83c0,9.84-5.68,14.12-12.69,14.12h-.42Z"/><path class="cls-4" d="M83.11,209c.91.77,5.43,4.86,5.39,9.26S86,224.37,83,224.37s-5.54-1.87-5.54-6.16c.14-4.91,4.42-8.54,5.36-9.27l.18-.13A1.21,1.21,0,0,1,83.11,209Z"/><path class="cls-4" d="M82.72,202.78c4.33-.13,6.63-2.45,6.77-7.12"/><path class="cls-4" d="M82.87,153.34v-6.46a5.48,5.48,0,0,0-1-3.09l-3.11-4.5a5.14,5.14,0,0,1-.91-2.95c0-2.56.71-7.07,5.17-7.07,7-.16,6.61,9.07,6.61,9.07v3c0,2.17,1.3,3.9,3.46,3.9"/><circle class="cls-4" cx="116.8" cy="157.56" r="4.22"/><circle class="cls-4" cx="116.8" cy="167.6" r="5.7"/><path class="cls-4" d="M116.72,208.94c-6.83-.16-12.3-4.46-12.3-14.11.38-12.61,12.7-21.53,12.7-21.53s12.81,10.32,12.7,21.53c0,9.84-5.69,14.12-12.7,14.12h-.4Z"/><path class="cls-4" d="M117.05,209c.9.77,5.42,4.86,5.39,9.26s-2.49,6.16-5.54,6.16-5.56-1.87-5.56-6.16c.15-4.91,4.44-8.54,5.38-9.27l.18-.13A.92.92,0,0,1,117.05,209Z"/><path class="cls-4" d="M116.66,202.78c4.32-.13,6.62-2.45,6.78-7.12"/><path class="cls-4" d="M116.8,153.34v-6.46a5.48,5.48,0,0,0-1-3.09l-3.1-4.5a5.15,5.15,0,0,1-.92-2.95c0-2.56.71-7.07,5.17-7.07,7-.16,6.61,9.07,6.61,9.07v3c0,2.17,1.3,3.9,3.47,3.9"/><path class="cls-2" d="M216,299.06l-.52-1.58c2.75-.9,5.49-1.92,8.17-3l.64,1.53C221.6,297.11,218.82,298.14,216,299.06Zm-82.29-3c-2.71-1.12-5.42-2.36-8.05-3.69l.75-1.48c2.59,1.31,5.26,2.53,7.94,3.64Zm96.62-2.76-.72-1.5c2.61-1.25,5.2-2.63,7.7-4.08l.84,1.44C235.64,290.6,233,292,230.36,293.27Zm-110.52-4.09c-2.54-1.47-5.06-3.05-7.49-4.71l.94-1.38c2.39,1.64,4.88,3.2,7.39,4.65Zm124-3.53-.91-1.39c2.42-1.59,4.81-3.29,7.11-5.06l1,1.32C248.7,282.31,246.28,284,243.82,285.65ZM107,280.57c-2.32-1.78-4.62-3.68-6.82-5.64l1.11-1.25c2.17,1.94,4.43,3.82,6.72,5.57Zm149.21-4.24-1.09-1.26c2.2-1.89,4.35-3.88,6.4-5.93l1.17,1.17C260.59,272.39,258.4,274.42,256.18,276.33Zm-160.85-6c-2.08-2.08-4.11-4.26-6-6.48l1.26-1.09c1.9,2.2,3.89,4.35,5.94,6.39Zm171.89-4.88L266,264.38c1.93-2.16,3.8-4.42,5.57-6.72l1.32,1C271.09,261,269.19,263.3,267.22,265.49ZM85.11,258.74c-1.79-2.33-3.52-4.75-5.13-7.21l1.39-.91c1.59,2.42,3.29,4.81,5.06,7.11Zm191.66-5.44-1.37-.94c1.63-2.39,3.2-4.87,4.65-7.38l1.44.83C280,248.35,278.43,250.88,276.77,253.3ZM76.5,245.89c-1.47-2.53-2.87-5.16-4.15-7.81l1.5-.72c1.26,2.61,2.63,5.2,4.08,7.7ZM284.66,240l-1.49-.74c1.31-2.6,2.54-5.27,3.65-7.94l1.53.64C287.23,234.63,286,237.34,284.66,240Zm6.06-14.26-1.56-.55c.95-2.73,1.82-5.54,2.56-8.33l1.61.42C292.57,220.08,291.69,222.93,290.72,225.7Zm4.14-14.91-1.63-.34c.59-2.83,1.08-5.72,1.45-8.6l1.65.21C296,205,295.46,207.92,294.86,210.79ZM297,195.46l-1.66-.12c.21-2.89.32-5.83.32-8.72v-.3h1.66v.29C297.33,189.56,297.22,192.53,297,195.46Zm-1.54-15.68c-.17-2.89-.44-5.81-.83-8.69l1.65-.22c.39,2.92.67,5.88.84,8.81Zm-1.87-15.15c-.54-2.84-1.2-5.7-2-8.5l1.6-.43c.77,2.83,1.43,5.73,2,8.62Zm-37-65.18c-2.16-1.92-4.42-3.79-6.72-5.56l1-1.32c2.33,1.79,4.63,3.69,6.82,5.64ZM107.8,94.12l-1-1.31c2.33-1.8,4.76-3.52,7.21-5.14l.91,1.39C112.48,90.65,110.09,92.36,107.8,94.12Zm136.73-4.06c-2.4-1.63-4.89-3.19-7.4-4.64L238,84c2.55,1.47,5.07,3,7.5,4.71ZM120.46,85.62l-.83-1.44c2.54-1.47,5.16-2.87,7.81-4.15l.72,1.5C125.56,82.79,123,84.17,120.46,85.62Zm110.9-3.31c-2.59-1.3-5.26-2.52-7.94-3.63l.64-1.53c2.71,1.12,5.42,2.36,8.05,3.68Zm-97.24-3.46-.64-1.54c2.71-1.13,5.5-2.17,8.28-3.09l.52,1.58C139.54,76.71,136.79,77.73,134.12,78.85Zm83.17-2.49c-2.73-1-5.54-1.81-8.34-2.55l.43-1.61c2.84.75,5.68,1.62,8.46,2.59Zm-68.74-2.44-.43-1.6c2.84-.77,5.74-1.43,8.63-2l.3,1.63C154.21,72.51,151.35,73.17,148.55,73.92Zm54-1.61c-2.83-.58-5.73-1.07-8.61-1.44l.22-1.64c2.91.37,5.85.86,8.72,1.45Zm-39.06-1.38-.22-1.65c2.91-.38,5.87-.66,8.8-.83l.1,1.66C169.31,70.28,166.38,70.55,163.52,70.93Zm23.94-.71c-2.8-.2-5.66-.3-8.49-.3h-.23V68.26H179c2.88,0,5.78.1,8.62.31Z"/><path class="cls-3" d="M197.92,111.73a5.34,5.34,0,1,1,0,10.68,4.28,4.28,0,0,1-.81-.07h0a3.23,3.23,0,0,0-.33-.06,5.34,5.34,0,0,1,.07-10.44A5.49,5.49,0,0,1,197.92,111.73Z"/><path class="cls-3" d="M193.75,129.66a5.34,5.34,0,1,1-6.88,8.09,3.92,3.92,0,0,0-.93-1.37,5.34,5.34,0,0,1,7.81-6.72Z"/><path class="cls-3" d="M179,140.16a5.89,5.89,0,0,1,.09,1,5.34,5.34,0,1,1-10.67,0q0-.31,0-.63a4,4,0,0,0,.18-.85,5.34,5.34,0,0,1,10.37.45Z"/><path class="cls-3" d="M162.13,134.09a5.34,5.34,0,1,1-8.44-4.35,5.34,5.34,0,0,1,8.44,4.35Z"/><path class="cls-3" d="M150.71,111.84a5.34,5.34,0,0,1-.1,10.48,5.15,5.15,0,0,1-1,.09,5.34,5.34,0,1,1,0-10.68A5.39,5.39,0,0,1,150.71,111.84Z"/><path class="cls-3" d="M161.49,97.47a5.44,5.44,0,0,1,.64,2.54,5.35,5.35,0,0,1-8.2,4.52l-.12-.09a5.34,5.34,0,1,1,7.1-7.83h0a3.49,3.49,0,0,0,.58.84S161.48,97.47,161.49,97.47Z"/><path class="cls-3" d="M179.2,93a1.09,1.09,0,0,1,0,.18,4.13,4.13,0,0,0-.36,1.75,5.33,5.33,0,0,1-10.2-.85,4.83,4.83,0,0,1-.11-1.08,5.34,5.34,0,1,1,10.68,0Z"/><path class="cls-3" d="M196.1,100a5.35,5.35,0,0,1-2.35,4.43,5.28,5.28,0,0,1-3,.91,5.34,5.34,0,0,1-5.34-5.34,5.36,5.36,0,0,1,5.34-5.34A5.35,5.35,0,0,1,196.1,100Z"/><path class="cls-6" d="M200.24,107.33a4.06,4.06,0,0,1-3.4,4.47l-.17,0a4,4,0,0,1-4.49-3.57,4,4,0,0,1,1.63-3.72,3.87,3.87,0,0,1,1.94-.77A4.06,4.06,0,0,1,200.24,107.33Z"/><path class="cls-6" d="M200.24,125.84a4.07,4.07,0,0,1-3.57,4.5,4.12,4.12,0,0,1-2.88-.77,4.07,4.07,0,0,1,2-7.3,3.86,3.86,0,0,1,1,0,1.91,1.91,0,0,0,.33.06h0A4.07,4.07,0,0,1,200.24,125.84Z"/><path class="cls-6" d="M187.15,138.84a4.06,4.06,0,0,1-8,1.3c0-.13-.05-.25-.07-.38a4.06,4.06,0,0,1,6.86-3.38,5.43,5.43,0,0,0,.93,1.37A4,4,0,0,1,187.15,138.84Z"/><path class="cls-6" d="M168.62,138.9a4.38,4.38,0,0,1,0,.81,6.11,6.11,0,0,0-.18.85,4,4,0,1,1,.17-1.66Z"/><path class="cls-6" d="M155.48,125.84a4.06,4.06,0,0,1-1.81,3.87,4.22,4.22,0,0,1-1.76.63,4.06,4.06,0,0,1-1.3-8,2.32,2.32,0,0,1,.38-.06A4.05,4.05,0,0,1,155.48,125.84Z"/><path class="cls-6" d="M155.55,107.33a4.06,4.06,0,0,1-3.57,4.49,4,4,0,0,1-1.25,0,4.06,4.06,0,1,1,3.08-7.34l.12.09A4,4,0,0,1,155.55,107.33Z"/><path class="cls-6" d="M168.56,94.33a4,4,0,0,1-7.07,3.14s0,0,0,0a7,7,0,0,0-.58-.84h0A4.06,4.06,0,1,1,168.52,94C168.54,94.14,168.55,94.24,168.56,94.33Z"/><path class="cls-6" d="M186.93,94.33a4.1,4.1,0,0,1-3.57,4.5,4.07,4.07,0,0,1-4.5-3.58l0-.37a4.93,4.93,0,0,0,.36-1.75,4.06,4.06,0,0,1,7.74,1.2Z"/><path class="cls-5" d="M173.76,150.26c1.68-1.25,4.56-.72,4.56,1.92s-4.38,5.86-4.38,5.86-4.83-3.1-4.83-5.77,2.88-3.31,4.6-2Z"/><path class="cls-4" d="M168.63,94a4.83,4.83,0,0,1-.11-1.08,5.34,5.34,0,1,1,10.68,0,1.09,1.09,0,0,1,0,.18,4.93,4.93,0,0,1-.36,1.75,5.33,5.33,0,0,1-10.2-.85Z"/><path class="cls-4" d="M160.91,96.62a7,7,0,0,1,.58.84"/><path class="cls-4" d="M153.81,104.44a5.34,5.34,0,1,1,7.1-7.83"/><path class="cls-4" d="M161.49,97.47a5.44,5.44,0,0,1,.64,2.54,5.35,5.35,0,0,1-8.2,4.52"/><path class="cls-4" d="M150.71,111.84a5.34,5.34,0,0,1-.1,10.48,5.15,5.15,0,0,1-1,.09,5.34,5.34,0,1,1,0-10.68A5.39,5.39,0,0,1,150.71,111.84Z"/><path class="cls-4" d="M153.69,129.74a5.34,5.34,0,0,1,8.44,4.35,5.34,5.34,0,1,1-8.44-4.35Z"/><path class="cls-4" d="M179,140.16a5.89,5.89,0,0,1,.09,1,5.34,5.34,0,1,1-10.67,0q0-.31,0-.63a6.11,6.11,0,0,1,.18-.85,5.34,5.34,0,0,1,10.37.45Z"/><path class="cls-4" d="M186.34,97a5.28,5.28,0,0,0-.92,3,5.34,5.34,0,0,0,5.34,5.34,5.28,5.28,0,0,0,3-.91A5.34,5.34,0,1,0,186.34,97Z"/><path class="cls-4" d="M197.11,122.34a4.28,4.28,0,0,0,.81.07,5.34,5.34,0,1,0,0-10.68,5.49,5.49,0,0,0-1.08.11,5.34,5.34,0,0,0-.07,10.44,1.91,1.91,0,0,0,.33.06"/><path class="cls-4" d="M193.75,129.66a5.28,5.28,0,0,0-3-.91,5.33,5.33,0,0,0-4.82,7.63,5.43,5.43,0,0,0,.93,1.37,5.34,5.34,0,1,0,6.88-8.09Z"/><path class="cls-4" d="M168.52,94c0,.1,0,.2,0,.29a4,4,0,0,1-7.07,3.14s0,0,0,0a3.49,3.49,0,0,1-.58-.84h0A4.06,4.06,0,1,1,168.52,94Z"/><path class="cls-4" d="M179.19,93.13a4.06,4.06,0,1,1-.33,2.12l0-.37A4.13,4.13,0,0,1,179.19,93.13Z"/><path class="cls-4" d="M153.93,104.53a3.81,3.81,0,1,1-.12-.09Z"/><path class="cls-4" d="M150.61,122.33a2.32,2.32,0,0,1,.38-.06,4.07,4.07,0,0,1,2.68,7.44,4.22,4.22,0,0,1-1.76.63,4.06,4.06,0,0,1-1.3-8Z"/><path class="cls-4" d="M161.23,137.08a4.06,4.06,0,0,1,7.39,1.82,4.38,4.38,0,0,1,0,.81,4.06,4.06,0,1,1-7.4-2.63Z"/><path class="cls-4" d="M186.87,137.75a4,4,0,0,1,.28,1.09,4.06,4.06,0,0,1-8,1.3c0-.13-.05-.25-.07-.38a4.06,4.06,0,0,1,6.86-3.38A3.92,3.92,0,0,1,186.87,137.75Z"/><path class="cls-4" d="M197.11,122.34a4.06,4.06,0,0,1-.44,8,4.12,4.12,0,0,1-2.88-.77,4.07,4.07,0,0,1,2-7.3,3.86,3.86,0,0,1,1,0,3.23,3.23,0,0,1,.33.06Z"/><path class="cls-4" d="M193.81,104.53a3.87,3.87,0,0,1,1.94-.77,4.06,4.06,0,0,1,1.09,8l-.17,0a4,4,0,0,1-4.49-3.57A4,4,0,0,1,193.81,104.53Z"/><path class="cls-4" d="M178.32,152.18c0,2.67-4.38,5.86-4.38,5.86s-4.83-3.1-4.83-5.77,2.88-3.31,4.6-2l0,0C175.44,149,178.32,149.54,178.32,152.18Z"/><polyline class="cls-4" points="173.76 146.53 173.76 150.26 173.76 150.29"/></svg>