<svg id="Layer_1" data-name="Layer 1" xmlns="http://www.w3.org/2000/svg" viewBox="0 0 256 256"><defs><style>.cls-1{fill:#0e4e91;}.cls-2{fill:#abe7ff;}.cls-3{fill:#fff;}.cls-4{fill:#2db5ff;}.cls-5{fill:none;stroke:#0e4e91;stroke-linecap:round;stroke-linejoin:round;}.cls-6{fill:#caf5fe;}</style></defs><path class="cls-1" d="M142.24,215.77l-.17-1.14c2-.31,4.07-.67,6.06-1.11l.25,1.13C146.36,215.09,144.3,215.47,142.24,215.77Zm-4.65.56c-2.07.2-4.17.32-6.23.36l0-1.16c2-.05,4.11-.17,6.15-.36Zm15.34-2.8-.32-1.13c2-.54,3.95-1.16,5.88-1.84l.39,1.1C156.93,212.35,154.93,213,152.93,213.53ZM163.25,210l-.44-1.08c1.89-.78,3.78-1.64,5.6-2.55l.52,1C167.08,208.33,165.17,209.2,163.25,210Zm9.82-4.78-.58-1c1.77-1,3.53-2.09,5.24-3.22l.65,1C176.65,203.09,174.86,204.19,173.07,205.21Zm9.13-6-.69-.94c1.64-1.22,3.26-2.51,4.81-3.84l.76.88C185.5,196.7,183.86,198,182.2,199.25ZM94.83,209.74c-1.91-.81-3.82-1.7-5.67-2.64l.53-1c1.82.93,3.7,1.8,5.59,2.6Zm95.71-17.53-.8-.84c1.49-1.42,2.93-2.9,4.31-4.41l.86.78C193.51,189.27,192.05,190.77,190.54,192.21ZM85.05,204.87c-1.8-1-3.58-2.14-5.3-3.31l.65-1c1.7,1.14,3.45,2.24,5.23,3.26ZM198,184.2l-.9-.73q1.95-2.39,3.74-4.91l1,.67C200.54,180.93,199.27,182.6,198,184.2Zm-122,14.65c-1.65-1.24-3.29-2.57-4.85-3.93l.77-.88c1.55,1.34,3.16,2.65,4.78,3.87Zm128.41-23.5-1-.62q1.65-2.61,3.11-5.33l1,.55C206.52,171.78,205.46,173.59,204.35,175.35ZM67.64,191.75c-1.49-1.44-3-2.95-4.33-4.49l.87-.78c1.36,1.52,2.8,3,4.27,4.43Zm142-26-1.06-.49c.87-1.85,1.69-3.76,2.44-5.67l1.08.42C211.32,162,210.48,163.89,209.6,165.76ZM60.27,183.7c-1.3-1.61-2.56-3.29-3.75-5l1-.67c1.17,1.68,2.41,3.33,3.7,4.92Zm153.37-28.09-1.1-.36c.64-1.94,1.22-3.93,1.71-5.92l1.13.28C214.88,151.62,214.29,153.64,213.64,155.61ZM42.16,144.45c-.34-1.82-.63-3.67-.85-5.49l-.08-.68,1.15-.14.08.67c.22,1.81.51,3.64.84,5.43ZM42,133.54l-1.16.07c-.13-2.07-.19-4.16-.18-6.24h1.17C41.77,129.43,41.83,131.49,42,133.54Zm171-31.56c-.6-2-1.28-3.92-2-5.82l1.08-.42c.75,1.93,1.44,3.91,2.06,5.89Zm-171,20.78-1.16-.07c.13-2.07.32-4.16.59-6.21l1.15.15C42.25,118.65,42.05,120.72,41.93,122.76ZM209.1,91.91c-.84-1.86-1.76-3.72-2.74-5.52l1-.55c1,1.83,1.92,3.71,2.77,5.6ZM43.23,112.07l-1.15-.21c.38-2,.83-4.09,1.35-6.1l1.13.29C44.05,108,43.6,110.06,43.23,112.07ZM204.06,82.4c-1.07-1.75-2.21-3.47-3.39-5.14l.94-.67c1.21,1.68,2.36,3.43,3.45,5.2ZM45.85,101.6l-1.11-.35c.62-2,1.33-4,2.1-5.89l1.08.43C47.16,97.7,46.46,99.65,45.85,101.6Zm152-28c-1.27-1.6-2.62-3.17-4-4.67l.86-.79c1.4,1.53,2.77,3.13,4.05,4.75Zm-148.15,18-1.06-.49c.87-1.88,1.81-3.76,2.8-5.57l1,.56C51.52,87.83,50.59,89.68,49.74,91.54Zm141-26c-1.46-1.42-3-2.82-4.54-4.15l.76-.89c1.57,1.34,3.12,2.76,4.6,4.21ZM54.83,82l-1-.61c1.08-1.77,2.25-3.51,3.46-5.2l.95.68C57.06,78.58,55.9,80.3,54.83,82ZM182.54,58.51c-1.61-1.24-3.3-2.44-5-3.57l.64-1c1.74,1.14,3.44,2.36,5.09,3.62ZM85.4,52.26l-.58-1c1.79-1,3.64-2,5.5-2.94l.51,1C89,50.27,87.17,51.24,85.4,52.26Zm57.92-10.68c-2-.33-4.07-.58-6.1-.76l.1-1.17c2.07.19,4.15.45,6.19.78ZM95,47.45l-.46-1.07c1.91-.81,3.87-1.56,5.83-2.24l.38,1.09C98.85,45.91,96.91,46.65,95,47.45Zm37.57-6.93c-2-.07-4.11-.07-6.16,0l0-1.16c2.07-.07,4.17-.07,6.24,0Zm-27.41,3.34-.32-1.12c2-.57,4-1.08,6.06-1.51l.24,1.14C109.17,42.8,107.15,43.3,105.19,43.86Zm16.64-3.07c-2,.18-4.1.43-6.12.75l-.18-1.14c2-.33,4.13-.58,6.2-.76Z"/><circle class="cls-2" cx="129.89" cy="127.49" r="68.22"/><polygon class="cls-3" points="106.22 118.76 106.24 118.79 107.93 129.38 98.27 124.68 106.22 118.76"/><polygon class="cls-3" points="101.94 113.02 106.22 118.76 98.27 124.68 96.11 121.77 101.94 113.02"/><polygon class="cls-3" points="98.72 108.69 101.94 113.02 96.11 121.77 92.88 117.44 98.72 108.69"/><polygon class="cls-3" points="95.49 104.35 98.72 108.69 92.88 117.44 89.66 113.11 95.49 104.35"/><polygon class="cls-3" points="92.26 100.02 95.49 104.35 89.66 113.11 86.43 108.78 92.26 100.02"/><polygon class="cls-3" points="89.04 95.69 92.26 100.02 86.43 108.78 83.2 104.44 89.04 95.69"/><polygon class="cls-3" points="83.53 88.29 85.81 91.36 79.98 100.11 75.58 94.21 83.53 88.29"/><polygon class="cls-3" points="85.81 91.36 89.04 95.69 83.2 104.44 79.98 100.11 85.81 91.36"/><polygon class="cls-3" points="84.8 79.55 83.51 88.26 83.53 88.29 75.58 94.21 66.67 93.06 84.8 79.55"/><rect class="cls-4" x="62.46" y="80.35" width="22.61" height="6.6" transform="translate(-35.36 60.61) rotate(-36.67)"/><rect class="cls-5" x="62.46" y="80.35" width="22.61" height="6.6" transform="translate(-35.36 60.61) rotate(-36.67)"/><polyline class="cls-5" points="66.67 93.06 75.58 94.21 79.98 100.11 83.2 104.44 86.43 108.78 89.66 113.11 92.88 117.44 96.11 121.77 98.27 124.68 107.93 129.38 106.24 118.79 106.22 118.76 101.94 113.02 98.72 108.69 95.49 104.35 92.26 100.02 89.04 95.69 85.81 91.36 83.53 88.29 83.51 88.26 84.8 79.55"/><line class="cls-5" x1="75.58" y1="94.21" x2="83.53" y2="88.29"/><polyline class="cls-5" points="86.85 89.8 85.81 91.36 79.98 100.11 79.02 101.55"/><polyline class="cls-5" points="93.3 98.46 92.26 100.02 86.43 108.78 85.47 110.22"/><polyline class="cls-5" points="96.53 102.8 95.49 104.35 89.66 113.11 88.69 114.55"/><polyline class="cls-5" points="99.75 107.13 98.72 108.69 92.88 117.44 91.92 118.88"/><polyline class="cls-5" points="102.98 111.46 101.94 113.02 96.11 121.77 95.15 123.22"/><polyline class="cls-5" points="90.07 94.13 89.04 95.69 83.2 104.44 82.24 105.88"/><line class="cls-5" x1="98.27" y1="124.68" x2="106.21" y2="118.76"/><polygon class="cls-3" points="97.72 145.21 97.74 145.24 99.43 155.83 89.77 151.13 97.72 145.21"/><polygon class="cls-3" points="93.44 139.47 97.72 145.21 89.77 151.13 87.61 148.22 93.44 139.47"/><polygon class="cls-3" points="90.22 135.14 93.44 139.47 87.61 148.22 84.38 143.89 90.22 135.14"/><polygon class="cls-3" points="86.99 130.8 90.22 135.14 84.38 143.89 81.16 139.56 86.99 130.8"/><polygon class="cls-3" points="83.76 126.47 86.99 130.8 81.16 139.56 77.93 135.22 83.76 126.47"/><polygon class="cls-3" points="80.54 122.14 83.76 126.47 77.93 135.22 74.7 130.89 80.54 122.14"/><polygon class="cls-3" points="75.03 114.74 77.31 117.81 71.48 126.56 67.08 120.66 75.03 114.74"/><polygon class="cls-3" points="77.31 117.81 80.54 122.14 74.7 130.89 71.48 126.56 77.31 117.81"/><polygon class="cls-3" points="76.31 106 75.01 114.71 75.03 114.74 67.08 120.66 58.17 119.5 76.31 106"/><rect class="cls-4" x="53.96" y="106.8" width="22.61" height="6.6" transform="translate(-52.84 60.77) rotate(-36.67)"/><rect class="cls-5" x="53.96" y="106.8" width="22.61" height="6.6" transform="translate(-52.84 60.77) rotate(-36.67)"/><polyline class="cls-5" points="58.17 119.5 67.08 120.66 71.48 126.56 74.7 130.89 77.93 135.22 81.16 139.56 84.38 143.89 87.61 148.22 89.77 151.13 99.43 155.83 97.74 145.24 97.72 145.21 93.44 139.47 90.22 135.14 86.99 130.8 83.76 126.47 80.54 122.14 77.31 117.81 75.03 114.74 75.01 114.71 76.31 106"/><line class="cls-5" x1="67.08" y1="120.66" x2="75.03" y2="114.74"/><polyline class="cls-5" points="78.35 116.25 77.31 117.81 71.48 126.56 70.52 128"/><polyline class="cls-5" points="84.8 124.91 83.76 126.47 77.93 135.22 76.97 136.67"/><polyline class="cls-5" points="88.03 129.25 86.99 130.8 81.16 139.56 80.2 141"/><polyline class="cls-5" points="91.25 133.58 90.22 135.14 84.38 143.89 83.42 145.33"/><polyline class="cls-5" points="94.48 137.91 93.44 139.47 87.61 148.22 86.65 149.66"/><polyline class="cls-5" points="81.58 120.58 80.54 122.14 74.7 130.89 73.74 132.33"/><line class="cls-5" x1="89.77" y1="151.13" x2="97.72" y2="145.21"/><path class="cls-3" d="M142.19,171.53a2.06,2.06,0,0,1-.48,2l-9.82,10.36a2,2,0,0,1-2,.59l-14-3.29a2,2,0,0,1-1.49-1.4l-4.18-13.65a2,2,0,0,1,.47-2l9.82-10.36a2,2,0,0,1,2-.58l14,3.29a2,2,0,0,1,1.49,1.39Zm-7.94-.93a8.22,8.22,0,1,0-9.88,6.12A8.22,8.22,0,0,0,134.25,170.6Z"/><path class="cls-6" d="M128.13,160.72a8.22,8.22,0,1,1-9.88,6.12A8.22,8.22,0,0,1,128.13,160.72Z"/><path class="cls-5" d="M142.19,171.53,138,157.88a2,2,0,0,0-1.49-1.39l-14-3.29a2,2,0,0,0-2,.58l-9.82,10.36a2,2,0,0,0-.47,2l4.18,13.65a2,2,0,0,0,1.49,1.4l14,3.29a2,2,0,0,0,2-.59l9.82-10.36A2.06,2.06,0,0,0,142.19,171.53Z"/><path class="cls-5" d="M128.13,160.72a8.22,8.22,0,1,0,6.12,9.88A8.22,8.22,0,0,0,128.13,160.72Z"/><path class="cls-4" d="M171.21,185.85l.44-1.87a1,1,0,0,1-.36,1.87Z"/><path class="cls-4" d="M172.86,179.4s0,0-.05,0h-.09l.44-1.88a1,1,0,0,1,.63.87A1,1,0,0,1,172.86,179.4Z"/><path class="cls-4" d="M174.38,172.93h-.14l.44-1.89a1,1,0,0,1,.63.87A1,1,0,0,1,174.38,172.93Z"/><path class="cls-4" d="M175.76,166.48l.44-1.87a1,1,0,0,1,.6.88,1,1,0,0,1-1,1Z"/><path class="cls-4" d="M177.41,160h-.13l.44-1.88a1,1,0,0,1,.62.86A1,1,0,0,1,177.41,160Z"/><path class="cls-4" d="M178.69,154l.44-1.87a1,1,0,0,1,.62.87,1,1,0,0,1-.95,1Z"/><path class="cls-4" d="M163.84,152.4h.62l-.46,2h-.11a1,1,0,0,1,0-1.94Z"/><path class="cls-4" d="M162.47,158.29h.6l-.46,2h-.11a1,1,0,0,1-.24,0,1,1,0,0,1,.21-1.93Z"/><path class="cls-4" d="M160.75,166.66a1,1,0,0,1-.73-1.16,1,1,0,0,1,.93-.76h.61l-.46,2H161A.85.85,0,0,1,160.75,166.66Z"/><path class="cls-4" d="M159.43,171.21H160l-.46,2h-.11a.88.88,0,0,1-.24,0,1,1,0,0,1-.73-1.16A1,1,0,0,1,159.43,171.21Z"/><path class="cls-4" d="M157.91,177.68h.61l-.46,2H158a.93.93,0,0,1-.24,0,1,1,0,0,1-.73-1.17A1,1,0,0,1,157.91,177.68Z"/><path class="cls-4" d="M171.65,184l-.44,1.87-14.07.23-.24,0-.18-.06a.85.85,0,0,1,0-.5l.32-1.34.11,0,14.16-.22A1,1,0,0,1,171.65,184Z"/><path class="cls-4" d="M173.16,177.52l-.44,1.88-14.66.22.46-2,14.26-.22A.92.92,0,0,1,173.16,177.52Z"/><path class="cls-4" d="M174.68,171.05l-.44,1.89-14.66.21.46-2L174.3,171A.78.78,0,0,1,174.68,171.05Z"/><path class="cls-4" d="M176.2,164.61l-.44,1.87-14.66.21.46-2,14.26-.2A.84.84,0,0,1,176.2,164.61Z"/><path class="cls-4" d="M177.72,158.14l-.44,1.88-14.67.22.46-2,14.27-.22A.72.72,0,0,1,177.72,158.14Z"/><path class="cls-4" d="M179.13,152.1l-.44,1.87-14.69.37.46-2,14.29-.37A1,1,0,0,1,179.13,152.1Z"/><path class="cls-3" d="M157.14,186.08l14.07-.23-.68,2.89a.91.91,0,0,1-.3.47l-3,2.27a.82.82,0,0,1-.71.16l-7.62-1.79a.85.85,0,0,1-.57-.46L156.74,186s0,0,0,0l.18.06Z"/><path class="cls-3" d="M172.72,179.4,171.65,184a1,1,0,0,0-.38-.07l-14.16.22-.11,0,1.06-4.53Z"/><path class="cls-3" d="M174.24,172.94l-1.08,4.58a.92.92,0,0,0-.38-.07l-14.26.22,1.06-4.52Z"/><path class="cls-3" d="M175.76,166.48l-1.08,4.57a.78.78,0,0,0-.38-.06L160,171.2l1.06-4.51Z"/><path class="cls-3" d="M177.28,160l-1.08,4.59a.84.84,0,0,0-.38-.08l-14.26.2,1.05-4.49Z"/><path class="cls-3" d="M178.69,154l-1,4.17a.72.72,0,0,0-.38-.07l-14.27.22.93-3.95Z"/><path class="cls-3" d="M179.87,149l-.74,3.13a1,1,0,0,0-.38-.08l-14.29.37,1.56-6.67Z"/><path class="cls-4" d="M193.11,141.29l-2.21,9.41a.85.85,0,0,1-1,.63l-.48-.12-.35-.08-7.89-1.85-1.3-.31L166,145.72l-10-2.35a.86.86,0,0,1-.63-1l2.21-9.4a4.11,4.11,0,0,1,4.94-3.06l10.68,2.51a.84.84,0,0,1,.63,1l-.64,2.72,4.52,1.06.64-2.72a.83.83,0,0,1,1-.63l10.69,2.51A4.11,4.11,0,0,1,193.11,141.29Z"/><path class="cls-5" d="M189.41,151.21l-.35-.08-7.89-1.85-1.3-.31L166,145.72l-10-2.35a.86.86,0,0,1-.63-1l2.21-9.4a4.11,4.11,0,0,1,4.94-3.06l10.68,2.51a.84.84,0,0,1,.63,1l-.64,2.72,4.52,1.06.64-2.72a.83.83,0,0,1,1-.63l10.69,2.51a4.11,4.11,0,0,1,3.06,4.93l-2.21,9.41a.85.85,0,0,1-1,.63l-.48-.12"/><path class="cls-5" d="M166,145.72l-1.56,6.67-.46,2-.93,3.95-.46,2-1.05,4.49-.46,2L160,171.2l-.46,2-1.06,4.52-.46,2L157,184.15l-.32,1.34a.85.85,0,0,0,0,.5s0,0,0,0l1.63,3.35a.85.85,0,0,0,.57.46l7.62,1.79a.82.82,0,0,0,.71-.16l3-2.27a.91.91,0,0,0,.3-.47l.68-2.89.44-1.87,1.07-4.58.44-1.88,1.08-4.58.44-1.89,1.08-4.57.44-1.87,1.08-4.59.44-1.88,1-4.17.44-1.87.74-3.13"/><path class="cls-5" d="M164,154.34h-.11a1,1,0,0,1,0-1.94h.62l14.29-.37a1,1,0,0,1,.38.08,1,1,0,0,1,.62.87,1,1,0,0,1-.95,1h-.11Z"/><path class="cls-5" d="M162.61,160.24h-.11a1,1,0,0,1-.24,0,1,1,0,0,1,.21-1.93h.6l14.27-.22a.72.72,0,0,1,.38.07,1,1,0,0,1,.62.86,1,1,0,0,1-.93,1h-.13Z"/><path class="cls-5" d="M161.1,166.69H161a.85.85,0,0,1-.23,0,1,1,0,0,1-.73-1.16,1,1,0,0,1,.93-.76h.61l14.26-.2a.84.84,0,0,1,.38.08,1,1,0,0,1,.6.88,1,1,0,0,1-1,1h-.08Z"/><path class="cls-5" d="M159.58,173.15h-.11a.88.88,0,0,1-.24,0,1,1,0,0,1-.73-1.16,1,1,0,0,1,.93-.76H160L174.3,171a.78.78,0,0,1,.38.06,1,1,0,0,1,.63.87,1,1,0,0,1-.93,1h-.14Z"/><path class="cls-5" d="M158.06,179.62H158a.93.93,0,0,1-.24,0,1,1,0,0,1-.73-1.17,1,1,0,0,1,.93-.75h.61l14.26-.22a.92.92,0,0,1,.38.07,1,1,0,0,1,.63.87,1,1,0,0,1-.93,1s0,0-.05,0h-.09Z"/><path class="cls-5" d="M171.21,185.85l-14.07.23-.24,0-.18-.06a1,1,0,0,1-.54-1.11,1,1,0,0,1,.82-.73l.11,0,14.16-.22a1,1,0,0,1,.38.07,1,1,0,0,1-.36,1.87Z"/><path class="cls-4" d="M159.79,60.38a2.84,2.84,0,0,1,0,5.68H147.25a2.84,2.84,0,0,1-2.84-2.84,2.87,2.87,0,0,1,.83-2,2.79,2.79,0,0,1,2-.83Z"/><polygon class="cls-3" points="156.64 66.06 156.64 109.62 153.52 117.96 150.4 109.62 150.4 66.06 156.64 66.06"/><path class="cls-4" d="M136.34,60.38a2.84,2.84,0,0,1,2.84,2.84,2.81,2.81,0,0,1-.83,2,2.87,2.87,0,0,1-2,.83H123.8a2.84,2.84,0,0,1-2-4.85,2.79,2.79,0,0,1,2-.83Z"/><polygon class="cls-3" points="133.2 66.06 133.2 109.62 130.07 117.96 126.95 109.62 126.95 66.06 133.2 66.06"/><path class="cls-5" d="M127,66.06H123.8a2.84,2.84,0,0,1-2-4.85,2.79,2.79,0,0,1,2-.83h12.54a2.84,2.84,0,0,1,2.84,2.84,2.81,2.81,0,0,1-.83,2,2.87,2.87,0,0,1-2,.83H133.2"/><polygon class="cls-5" points="133.2 66.06 133.2 109.62 130.07 117.96 126.95 109.62 126.95 66.06 133.2 66.06"/><path class="cls-5" d="M150.4,66.06h-3.15a2.84,2.84,0,0,1-2.84-2.84,2.87,2.87,0,0,1,.83-2,2.79,2.79,0,0,1,2-.83h12.54a2.84,2.84,0,0,1,0,5.68h-3.15"/><polygon class="cls-5" points="156.64 66.06 156.64 109.62 153.52 117.96 150.4 109.62 150.4 66.06 156.64 66.06"/></svg>