<svg xmlns="http://www.w3.org/2000/svg" viewBox="34.398 20.965 432.919 436.095"><defs><style>.cls-1{fill:#deeaf8}.cls-2{fill:#f6376d}.cls-4{fill:#fff}.cls-5{fill:#687c94}.cls-6{fill:#263238}.cls-7{fill:#455a64}.cls-8{opacity:.15}.cls-10{fill:#f0f0f0}.cls-13,.cls-18{opacity:.3}.cls-16{fill:#fafafa}.cls-19{opacity:.1}.cls-22{fill:#ffa8a7}.cls-24{fill:#f28f8f}</style></defs><g id="Shadows"><path id="Shadow" class="cls-1" d="M323.9 384.07a12.67 12.67 0 00-1.85-6.5c-.25-.42-.51-.82-.79-1.21l-.05-.06a12.81 12.81 0 00-.86-1.06l-.09-.09a11.36 11.36 0 00-.93-.91l-.09-.07a9.09 9.09 0 00-1-.76l-.6-.33-.27-.12-.31-.14a4.43 4.43 0 00-.44-.14h-.12a3.39 3.39 0 00-.52-.1 3.27 3.27 0 00-1.91.3c-5.29 2.65-35.77 22.05-49.8 30.79l-6.95 4.22a1.58 1.58 0 00-.52.48.35.35 0 01-.05.08 2.11 2.11 0 00-.16.3 1.29 1.29 0 00-.07.21 2.13 2.13 0 00-.08.27v.18l-1.15.63-1 .56a40.06 40.06 0 00-7.92-5.88c-9.62-5.55-22.36-8.61-35.88-8.61s-26.26 3.06-35.88 8.61c-10 5.75-15.44 13.52-15.44 21.87s5.48 16.11 15.44 21.87c9.62 5.55 22.36 8.6 35.88 8.6s26.26-3.05 35.88-8.6c10-5.76 15.44-13.52 15.44-21.87a20.11 20.11 0 00-3.26-10.81l.92-.49a2.07 2.07 0 002 .19c4.76-2.62 51.16-22.4 60.65-27.49 1-.67 1.71-1.99 1.78-3.92zm-82 56.74c-8.3 4.79-19.49 7.43-31.49 7.43s-23.19-2.64-31.49-7.43c-7.13-4.12-11.06-9.19-11.06-14.27s3.93-10.16 11.06-14.27c8.3-4.8 19.48-7.44 31.49-7.44s23.19 2.64 31.49 7.44c7.13 4.11 11.06 9.18 11.06 14.27s-3.96 10.15-11.11 14.27z"/><path id="Shadow-2" data-name="Shadow" class="cls-1" d="M331 266.6l-47.06-27.23a9.57 9.57 0 00-8.66 0l-239.09 138c-2.39 1.38-2.39 3.62 0 5l47.07 27.23a9.57 9.57 0 008.66 0l89.59-51.73 13.78 8c7.29 4.21 19.11 4.21 26.41 0l41.05-23.53c7.3-4.21 7.3-11 0-15.25l-13.77-8 82-47.54c2.4-1.33 2.4-3.55.02-4.95z"/><ellipse id="Shadow-3" data-name="Shadow" class="cls-1" cx="409.94" cy="368.86" rx="46.15" ry="26.65"/></g><g id="Plant"><g id="Plants"><path class="cls-2" d="M436.16 338.77c0-6.25-1.24-17.76 4-28.56 3.84-7.83 10.69-15.43 17.07-14.67 5.93.7 6.47 9.83.79 16.08s-12.9 14.9-14.48 28.71l-4.09 10.26z"/><path d="M436.16 338.77c0-6.25-1.24-17.76 4-28.56 3.84-7.83 10.69-15.43 17.07-14.67 5.93.7 6.47 9.83.79 16.08s-12.9 14.9-14.48 28.71l-4.09 10.26z" opacity=".2"/><path class="cls-4" d="M438.29 343.16a.45.45 0 00.36-.45c-.72-17.76 5.06-32.51 16.71-42.64a.43.43 0 10-.57-.65c-11.86 10.31-17.74 25.29-17 43.33a.44.44 0 00.45.42z"/><path class="cls-2" d="M435 361.1a22.06 22.06 0 0011 3.06c6.69.16 9.16-3.36 9.16-3.36s-3.41-5.79-7.35-7a36.94 36.94 0 0112 3.13s4-.47 4.78-6.79c0 0-2.86-3.35-11.07-4.27a26.45 26.45 0 0111.87-1c.55.14 1.72-8 1.91-11.78s-1.27-3.49-4.21-3.87-12.66.44-14.23 2.24-1.75 7.26-1.75 7.26-2.11-2.8-2.06-5.55a10.26 10.26 0 00-6 1c-3 1.54-4 2.77-4.16 5.1s-.35 5.83.59 8.54c0 0-2.77-4.47-2.63-8.35a41.34 41.34 0 00-2.85 5.84c-1.31 3.4.24 11.63 5 15.8z"/><path class="cls-4" d="M435.14 361.52a.42.42 0 00.3-.28c3.8-11.67 21.71-27 28.55-29.34a.42.42 0 00.27-.55.42.42 0 00-.55-.27c-7 2.35-25.22 18-29.1 29.89a.44.44 0 00.28.55.43.43 0 00.25 0z"/></g></g><g id="Device"><path class="cls-5" d="M221.68 362l35.38-20.46c3.64-2.1 5.46-4.86 5.46-7.62V329l-33.29-18.89a7.82 7.82 0 01-3.52-6.1v-43.67L164 296.05v43.61a7.77 7.77 0 003.53 6.1L195.27 362c7.29 4.16 19.12 4.16 26.41 0z"/><path class="cls-6" d="M178.78 347.38v4.9l-11.32-6.52a7.79 7.79 0 01-3.52-6.1v-43.61l11.77-6.79c.24 3 .51 6.08.75 9.09l-8.25 4.77v34.08a7.73 7.73 0 003.52 6.1z"/><path class="cls-7" d="M168.21 337.21a7.79 7.79 0 003.52 6.1L195.27 357c7.29 4.21 19.11 4.21 26.41 0l35.39-20.45c7.29-4.21 7.29-11 0-15.24l-23.55-13.71a7.77 7.77 0 01-3.53-6.1v-34.08l-61.78 35.71z"/><path class="cls-8" d="M240.69 311.75l-7.17-4.14a7.77 7.77 0 01-3.53-6.1v-34.09l-61.78 35.71v34.08a7.79 7.79 0 003.52 6.1l7.05 4.06z"/><path class="cls-5" d="M262.53 329v4.92c0 2.77-1.83 5.51-5.47 7.63l-35.38 20.44a26.47 26.47 0 01-12.6 3.13v-4.9a26.47 26.47 0 0012.6-3.13l35.38-20.46c3.64-2.15 5.47-4.91 5.47-7.63z"/><path class="cls-7" d="M69 384.26a9.47 9.47 0 008.53-.16l239-138a9.71 9.71 0 004.4-7.62V29.37a9.43 9.43 0 00-4.13-7.46 9.44 9.44 0 00-8.53.15l-239 138a9.73 9.73 0 00-4.4 7.62v209.11a9.45 9.45 0 004.13 7.47z"/><path class="cls-5" d="M77.53 384.09l239-137.95a9.73 9.73 0 004.4-7.62V29.37c0-2.81-2-3.95-4.4-2.54l-238.95 138a9.73 9.73 0 00-4.4 7.62v209.1c-.05 2.81 1.92 3.95 4.35 2.54z"/><path class="cls-2" d="M81.39 353.92V175.14a5.83 5.83 0 012.61-4.57L310 40.12c1.45-.84 2.64-.16 2.64 1.52v178.79A5.83 5.83 0 01310 225L84 355.45c-1.43.84-2.61.16-2.61-1.53z"/><path d="M81.39 353.92V175.14a5.83 5.83 0 012.61-4.57L310 40.12c1.45-.84 2.64-.16 2.64 1.52v178.79A5.83 5.83 0 01310 225L84 355.45c-1.43.84-2.61.16-2.61-1.53z" opacity=".7" fill="#fff"/><path class="cls-2" d="M196.55 306.65a2.6 2.6 0 01-1.32-.34 3.38 3.38 0 01-1.46-3.11 9.53 9.53 0 014.38-7.58 3 3 0 014.88 2.81 9.54 9.54 0 01-4.38 7.59 4.25 4.25 0 01-2.1.63zm3.69-10.65a3.28 3.28 0 00-1.59.5 8.59 8.59 0 00-3.88 6.72 2 2 0 003.38 1.95 8.58 8.58 0 003.88-6.72 2.45 2.45 0 00-1-2.24 1.63 1.63 0 00-.79-.21z"/></g><g id="Window"><g id="Window-2" data-name="Window"><path class="cls-10" d="M351.87 73.76L119.16 208v171.47a3 3 0 004.45 2.58l4.15-2.39 219.77-126.72a9.59 9.59 0 004.34-7.52z"/><path class="cls-1" d="M350.87 75.49v169.93a8.64 8.64 0 01-3.84 6.65L127.26 378.79l-4.15 2.39a1.93 1.93 0 01-1 .27 2 2 0 01-1.37-.56 1.93 1.93 0 01-.6-1.42V208.54l230.71-133m1-1.73L119.16 208v171.47a3 3 0 003 3 2.89 2.89 0 001.48-.4l4.15-2.39 219.74-126.74a9.59 9.59 0 004.34-7.52V73.76z"/><path opacity=".8" fill="#455a64" d="M346.35 70.58L113.62 204.76l5.54 3.2 232.71-134.2-5.52-3.18z"/><path d="M120.72 382.09a3 3 0 01-1.56-2.62V208l-5.54-3.2v170.53a4.44 4.44 0 000 .63 4.6 4.6 0 002.26 3.36l4.57 2.65.23.12z" fill="#ebebeb"/><path class="cls-2" d="M113.62 204.84v-11.57a4.81 4.81 0 012.16-3.76L344.19 57.83a4.77 4.77 0 014.32 0l1.19.69a4.78 4.78 0 012.17 3.75v11.58L119.16 208z"/><path class="cls-13" d="M113.62 204.84v-11.57a4.81 4.81 0 012.16-3.76L344.19 57.83a4.77 4.77 0 014.32 0l1.19.69a4.78 4.78 0 012.17 3.75v11.58L119.16 208z"/><path class="cls-2" d="M119.16 196.46a4.8 4.8 0 012.16-3.76L349.71 61c1.19-.7 2.16-.14 2.16 1.24v11.61L119.16 208z"/><path d="M119.16 196.46a4.8 4.8 0 012.16-3.76L349.71 61c1.19-.7 2.16-.14 2.16 1.24v11.61L119.16 208z" opacity=".4"/><path class="cls-2" d="M119.79 194.32a4.47 4.47 0 00-.63 2.14V208l-5.53-3.19v-11.55a4.43 4.43 0 01.63-2.13z"/><path d="M119.79 194.32a4.47 4.47 0 00-.63 2.14V208l-5.53-3.19v-11.55a4.43 4.43 0 01.63-2.13z" opacity=".5"/><path class="cls-16" d="M341.71 73.33c0 1.29.91 1.82 2 1.17a4.48 4.48 0 002-3.52c0-1.29-.91-1.82-2-1.17a4.49 4.49 0 00-2 3.52zM333.59 78c0 1.29.91 1.82 2 1.17a4.49 4.49 0 002-3.52c0-1.29-.91-1.82-2-1.17a4.49 4.49 0 00-2 3.52zM325.46 82.71c0 1.29.91 1.82 2 1.17a4.49 4.49 0 002-3.52c0-1.29-.91-1.82-2-1.17a4.48 4.48 0 00-2 3.52zM119.16 208v171.47a3 3 0 004.45 2.58l4.15-2.39 50.85-29.33V173.75L119.16 208zM182.67 176.65v166.51l164.32-94.87V81.78l-164.32 94.87z"/><path class="cls-2" d="M165 193.87l-37.93 21.92a2.8 2.8 0 00-1.27 2.2v3.95c0 .81.57 1.13 1.27.73L165 200.75a2.8 2.8 0 001.27-2.2v-3.94c0-.81-.57-1.14-1.27-.74z"/><path d="M165 193.87l-37.93 21.92a2.8 2.8 0 00-1.27 2.2v3.95c0 .81.57 1.13 1.27.73L165 200.75a2.8 2.8 0 001.27-2.2v-3.94c0-.81-.57-1.14-1.27-.74z" fill="#fafafa" opacity=".8"/><path class="cls-7" d="M173.44 195.44l-1.11-1.08a5 5 0 00.35-1.78 2.1 2.1 0 00-.83-1.92 1.29 1.29 0 00-1.36.06 4.45 4.45 0 00-1.76 3.63 2.1 2.1 0 00.84 1.92 1.11 1.11 0 00.59.16 1.53 1.53 0 00.77-.22 3.13 3.13 0 001-1l.92.88a.39.39 0 00.3.13.45.45 0 00.32-.14.43.43 0 00-.03-.64zm-2.95 0a.48.48 0 01-.48.06c-.19-.11-.4-.48-.4-1.16a3.62 3.62 0 011.32-2.87.59.59 0 01.31-.1.33.33 0 01.17 0c.18.11.39.47.39 1.16a3.67 3.67 0 01-1.31 2.92zM126.73 234.26l-.85.49s-.09 0-.09-.07v-2.3a.23.23 0 01.09-.18l.85-.49s.09 0 .09.07v2.3a.23.23 0 01-.09.18zM128 233.52l-.85.49c-.05 0-.09 0-.09-.07v-2.3a.21.21 0 01.09-.17l.85-.47c.05 0 .09 0 .09.06v2.31a.22.22 0 01-.09.15zM129.28 232.78l-.85.5c-.05 0-.09 0-.09-.07v-2.31a.22.22 0 01.09-.17l.85-.49c.05 0 .09 0 .09.07v2.3a.19.19 0 01-.09.17zM126.73 237.23l-.85.49s-.09 0-.09-.07v-2.3a.23.23 0 01.09-.18l.85-.49s.09 0 .09.07v2.3a.23.23 0 01-.09.18zM128 236.49l-.85.49c-.05 0-.09 0-.09-.07v-2.3a.21.21 0 01.09-.17l.85-.44c.05 0 .09 0 .09.06v2.31a.22.22 0 01-.09.12zM129.28 235.75l-.85.5c-.05 0-.09 0-.09-.07v-2.31a.22.22 0 01.09-.17l.85-.49c.05 0 .09 0 .09.07v2.3a.19.19 0 01-.09.17zM126.86 245.07l-1-.63v-.19l1-1.85c0-.09.13-.08.13 0v2.49c.01.11-.08.21-.13.18z"/><path class="cls-7" d="M126.42 243.66l1.38-.79v.65l-1.38.8c-.11.07-.21 0-.21-.21a.59.59 0 01.21-.45zM128.06 242.72l.47-.27v.65l-.47.27v-.65zM129.8 242v2.41a.53.53 0 01-.22.45c-.11.07-.21 0-.21-.2v-2.08l-.58.33v-.65l.79-.46c.12-.03.22.06.22.2zM127.27 250.48a4.54 4.54 0 00-1.45 3.9c.17 1.25.91 1.2 1 1.78 0 .07.05.09.09.07l.93-.53a.25.25 0 00.1-.17c.1-.77 1.05-1.7 1.05-3.57.01-1.43-.78-2.13-1.72-1.48zM127.83 257.2l-.9.52c-.06 0-.11 0-.11-.09v-.82a.28.28 0 01.11-.22l.9-.52c.06 0 .11 0 .11.09v.84a.27.27 0 01-.11.2zM127.49 231a5.46 5.46 0 00-1.63 3.46 3.66 3.66 0 00.23 1.88l-.3 1.58c0 .13 0 .19.12.11l.91-1a1.41 1.41 0 001.32-.38 5.46 5.46 0 001.63-3.46c.23-2.19-.93-3.28-2.28-2.19zm.32 5.16c-.83.48-1.51-.17-1.51-1.46a4 4 0 011.51-3.2c.84-.48 1.52.17 1.52 1.46a4 4 0 01-1.52 3.22zM127.49 261.37a5.43 5.43 0 00-1.63 3.45 3.68 3.68 0 00.23 1.89l-.3 1.57c0 .13 0 .2.12.12l.91-1a1.41 1.41 0 001.32-.38 5.49 5.49 0 001.63-3.46c.23-2.19-.93-3.3-2.28-2.19zm.32 5.16c-.83.48-1.51-.17-1.51-1.46a4 4 0 011.51-3.2c.84-.48 1.52.17 1.52 1.46a4 4 0 01-1.52 3.2zM128.77 272.49a2.1 2.1 0 01-.8 1.69c-.44.26-.8-.09-.8-.77a2.13 2.13 0 01.8-1.69c.44-.25.8.09.8.77zM130.14 272.73a1.41 1.41 0 01-.53 1.13c-.3.17-.54-.06-.54-.51a1.4 1.4 0 01.54-1.13c.29-.17.53.06.53.51zM128.91 277.34l-1.91 1.08V276a1.65 1.65 0 01.69-1.31l.52-.3c.37-.21.68 0 .68.52zM129.69 274.14l-.52.3v2.75l1-.57v-2.14c-.02-.34-.23-.48-.48-.34zM125.8 275.24c0 .45.24.68.53.51a1.4 1.4 0 00.53-1.12c0-.46-.24-.69-.53-.52a1.43 1.43 0 00-.53 1.13zM126.25 276.12l.51-.3v2.76l-1 .56V277a1.09 1.09 0 01.49-.88z"/><path class="cls-1" d="M135 228.86L157.22 216c.6-.35 1.08-.1 1.08.55a2.32 2.32 0 01-1.08 1.8L135 231.21c-.6.34-1.08.1-1.08-.55a2.32 2.32 0 011.08-1.8zM135 239.31l22.21-12.82c.6-.34 1.08-.1 1.08.55a2.32 2.32 0 01-1.08 1.8L135 241.66c-.6.34-1.08.1-1.08-.55a2.32 2.32 0 011.08-1.8zM135 249.77L157.22 237c.6-.35 1.08-.1 1.08.54a2.31 2.31 0 01-1.08 1.8L135 252.11c-.6.35-1.08.1-1.08-.55a2.3 2.3 0 011.08-1.79zM135 260.22l22.21-12.82c.6-.35 1.08-.1 1.08.55a2.3 2.3 0 01-1.08 1.79L135 262.57c-.6.34-1.08.1-1.08-.55a2.31 2.31 0 011.08-1.8zM135 270.67l22.21-12.82c.6-.34 1.08-.1 1.08.55a2.32 2.32 0 01-1.08 1.8L135 273c-.6.34-1.08.1-1.08-.55a2.32 2.32 0 011.08-1.78z"/><path class="cls-7" d="M139.07 279.21l22.21-12.82c.6-.35 1.08-.1 1.08.54a2.31 2.31 0 01-1.08 1.8l-22.21 12.82c-.6.35-1.08.1-1.08-.54a2.31 2.31 0 011.08-1.8z"/><path class="cls-1" d="M139.07 286.27l22.21-12.82c.6-.35 1.08-.1 1.08.55a2.3 2.3 0 01-1.08 1.79l-22.21 12.82c-.6.35-1.08.1-1.08-.54a2.31 2.31 0 011.08-1.8zM139.07 293.33l22.21-12.82c.6-.35 1.08-.1 1.08.55a2.3 2.3 0 01-1.08 1.79l-22.21 12.83c-.6.34-1.08.1-1.08-.55a2.32 2.32 0 011.08-1.8zM143.39 297.82L165.6 285c.6-.35 1.08-.1 1.08.54a2.31 2.31 0 01-1.08 1.8l-22.21 12.82c-.59.35-1.08.1-1.08-.54a2.33 2.33 0 011.08-1.8z"/><path class="cls-7" d="M138.2 303.89l1.81-3.18c.07-.12.07-.28 0-.32l-1.81-1.1c-.08-.05-.21.11-.21.28v4.28c.01.15.13.2.21.04z"/><path class="cls-1" d="M143.39 304.85L165.6 292c.6-.34 1.08-.1 1.08.55a2.32 2.32 0 01-1.08 1.8l-22.21 12.85c-.59.35-1.08.1-1.08-.55a2.35 2.35 0 011.08-1.8z"/><path class="cls-7" d="M138.2 310.93l1.81-3.18c.07-.12.07-.28 0-.33l-1.81-1.1c-.08-.05-.21.12-.21.29v4.28c.01.17.13.19.21.04z"/><path class="cls-1" d="M143.39 311.89l22.21-12.82c.6-.35 1.08-.1 1.08.55a2.32 2.32 0 01-1.08 1.8l-22.21 12.82c-.59.34-1.08.1-1.08-.55a2.35 2.35 0 011.08-1.8z"/><path class="cls-7" d="M138.2 318l1.81-3.19c.07-.12.07-.28 0-.32l-1.81-1.1c-.08-.05-.21.12-.21.29v4.28c.01.14.13.16.21.04z"/><path class="cls-1" d="M143.39 318.93l22.21-12.82c.6-.35 1.08-.1 1.08.54a2.31 2.31 0 01-1.08 1.8l-22.21 12.82c-.59.35-1.08.1-1.08-.54a2.33 2.33 0 011.08-1.8z"/><path class="cls-7" d="M138.2 325l1.81-3.18c.07-.12.07-.28 0-.32l-1.81-1.1c-.08-.06-.21.11-.21.28V325c.01.13.13.16.21 0z"/><path class="cls-1" d="M143.39 326l22.21-12.82c.6-.34 1.08-.1 1.08.55a2.32 2.32 0 01-1.08 1.8l-22.21 12.82c-.59.34-1.08.1-1.08-.55a2.35 2.35 0 011.08-1.8z"/><path class="cls-7" d="M138.2 332l1.81-3.18c.07-.12.07-.28 0-.33l-1.81-1.1c-.08-.05-.21.12-.21.29V332c.01.17.13.19.21 0z"/><path class="cls-1" d="M143.39 333l22.21-12.82c.6-.35 1.08-.1 1.08.55a2.3 2.3 0 01-1.08 1.79l-22.21 12.83c-.59.34-1.08.1-1.08-.55a2.35 2.35 0 011.08-1.8z"/><path class="cls-7" d="M138.2 339.08l1.81-3.19c.07-.12.07-.28 0-.32l-1.81-1.1c-.08-.05-.21.12-.21.29V339c.01.21.13.23.21.08z"/><path class="cls-1" d="M143.39 340l22.21-12.82c.6-.35 1.08-.1 1.08.54a2.31 2.31 0 01-1.08 1.8l-22.21 12.82c-.59.35-1.08.1-1.08-.55a2.33 2.33 0 011.08-1.79z"/><path class="cls-7" d="M138.2 346.11l1.81-3.18c.07-.12.07-.28 0-.32l-1.81-1.1c-.08-.06-.21.11-.21.28v4.28c.01.17.13.2.21.04z"/><path class="cls-1" d="M143.39 347.07l22.21-12.82c.6-.34 1.08-.1 1.08.55a2.32 2.32 0 01-1.08 1.8l-22.21 12.82c-.59.34-1.08.1-1.08-.55a2.35 2.35 0 011.08-1.8z"/><path class="cls-7" d="M138.2 353.15L140 350c.07-.12.07-.28 0-.33l-1.81-1.1c-.08-.05-.21.12-.21.29v4.28c.02.14.14.16.22.01z"/><path class="cls-10" d="M187.82 199.48l73-42.14a2.39 2.39 0 001.08-1.87v-18.61c0-.69-.49-1-1.08-.62l-73 42.13a2.38 2.38 0 00-1.09 1.87v18.62c0 .69.49.97 1.09.62z"/><path class="cls-7" d="M194.18 186.35l.48-2-.66.38v-.42a.17.17 0 010-.07v-.06l1.06-.61a.11.11 0 010 .06v.32a1.64 1.64 0 010 .19l-.48 2a.64.64 0 010 .07.11.11 0 010 .05l-.32.18a.08.08 0 01-.08-.09zM196 183a.46.46 0 01.29-.09.3.3 0 01.2.08.49.49 0 01.11.23 1.63 1.63 0 010 .33v.61a2.65 2.65 0 010 .38 1.65 1.65 0 01-.11.36 2.14 2.14 0 01-.2.32 1.37 1.37 0 01-.29.24.6.6 0 01-.29.09.34.34 0 01-.19-.09.42.42 0 01-.12-.23 1.63 1.63 0 010-.33v-.6a2.32 2.32 0 010-.38 1.23 1.23 0 01.12-.37 1.61 1.61 0 01.19-.31 1.09 1.09 0 01.29-.24zm.24 1.38v-.58a.77.77 0 000-.15.3.3 0 000-.1.08.08 0 00-.07 0h-.11a.52.52 0 00-.11.1.47.47 0 00-.07.12.83.83 0 000 .15v.89a.23.23 0 000 .1.1.1 0 00.07 0 .17.17 0 00.11 0 .36.36 0 00.11-.1.29.29 0 00.07-.12.42.42 0 000-.15.88.88 0 00-.05-.17zM197.49 182.6v.26a1.52 1.52 0 010 .21.7.7 0 01-.06.19.91.91 0 01-.11.16.64.64 0 01-.15.13.37.37 0 01-.15 0 .14.14 0 01-.11 0 .17.17 0 01-.06-.11.48.48 0 010-.18V183a.69.69 0 010-.2.6.6 0 01.06-.19.62.62 0 01.11-.17.44.44 0 01.15-.12.26.26 0 01.15 0 .15.15 0 01.11 0l.06.12a.74.74 0 010 .16zm.55-.72v-.07a.1.1 0 01.05 0l.18-.11-1.1 2.86v.06a.12.12 0 01-.05.05l-.18.1zm-1 1.22a.33.33 0 000 .12h.07a.19.19 0 00.07-.08.61.61 0 000-.15v-.22a.29.29 0 000-.12h-.07a.16.16 0 00-.07.09.46.46 0 000 .14.88.88 0 00.01.22zm1.47.1v.26a1.52 1.52 0 010 .21 1.39 1.39 0 01-.06.19.91.91 0 01-.11.16.64.64 0 01-.15.13.37.37 0 01-.15 0 .18.18 0 01-.11 0 .23.23 0 01-.06-.12.48.48 0 010-.18v-.25a.76.76 0 010-.21.6.6 0 01.06-.19.62.62 0 01.07-.2.44.44 0 01.15-.12.37.37 0 01.15 0 .15.15 0 01.11 0 .34.34 0 01.06.12zm-.44.5a.29.29 0 000 .12h.07c.07 0 .05 0 .07-.08a.61.61 0 000-.15v-.22a.29.29 0 000-.12h-.07a.16.16 0 00-.07.09.46.46 0 000 .14.88.88 0 00.01.22zM194.17 180.62l-.73-1.13a14.44 14.44 0 00-1.73 4.67l1.18-.1a10.92 10.92 0 011.28-3.44zM196.24 178.38v-1.91a8.16 8.16 0 00-2.8 3l.73 1.13a6.11 6.11 0 012.07-2.22z"/><path class="cls-7" d="M192.72 185.84a9.84 9.84 0 01.17-1.78l-1.18.1a12.29 12.29 0 00-.24 2.4 8.67 8.67 0 00.24 2.13l1.18-1.28a6.8 6.8 0 01-.17-1.57z"/><path class="cls-2" d="M200.77 178.92a4 4 0 00-1.73-2.67 2.81 2.81 0 00-2.8.22v1.91a2.08 2.08 0 012.07-.15 2.93 2.93 0 011.28 2 6.8 6.8 0 01.17 1.57 9.75 9.75 0 01-.17 1.78 11.17 11.17 0 01-1.28 3.44 6.28 6.28 0 01-2.07 2.24 2.06 2.06 0 01-2.07.15 2.9 2.9 0 01-1.28-2l-1.18 1.28a3.91 3.91 0 001.73 2.67 2.78 2.78 0 002.8-.22 8.33 8.33 0 002.8-3 14.62 14.62 0 001.73-4.66 13.11 13.11 0 00.23-2.41 9.21 9.21 0 00-.23-2.15z"/><path class="cls-7" d="M208.13 173.68l22.2-12.82c.6-.35 1.09-.1 1.09.54a2.32 2.32 0 01-1.09 1.8l-22.2 12.8c-.6.35-1.09.1-1.09-.54a2.32 2.32 0 011.09-1.78z"/><path class="cls-1" d="M208.13 178.41l38.45-22.2c.6-.35 1.08-.1 1.08.55a2.3 2.3 0 01-1.08 1.79l-38.45 22.2c-.6.35-1.09.1-1.09-.55a2.31 2.31 0 011.09-1.79z"/><path class="cls-10" d="M267 153.75l73-42.14a2.4 2.4 0 001.08-1.88V91.12c0-.69-.48-1-1.08-.62l-73 42.13a2.4 2.4 0 00-1.08 1.88v18.61c.02.69.5.97 1.08.63z"/><path class="cls-7" d="M273.74 138.91a1.32 1.32 0 01.06-.39 1.35 1.35 0 01.14-.35 1.54 1.54 0 01.21-.29 1.41 1.41 0 01.24-.2 1 1 0 01.24-.08.36.36 0 01.21.05.45.45 0 01.15.18 1 1 0 01.05.33 1.15 1.15 0 010 .19 1.16 1.16 0 010 .18 1.09 1.09 0 01-.05.17l-.06.16-.42 1.14a.14.14 0 000 .06.12.12 0 01-.05.05l-.35.2a.06.06 0 010-.05l.29-.77a.5.5 0 01-.21 0 .26.26 0 01-.17-.07.41.41 0 01-.12-.18.85.85 0 01-.16-.33zm.89-.51a.37.37 0 000-.12.1.1 0 00-.05-.06h-.08a.16.16 0 00-.09 0l-.09.07-.07.11a.52.52 0 00-.06.13.59.59 0 000 .13.37.37 0 000 .12s0 .05.06.06h.07a.16.16 0 00.09 0 .32.32 0 00.09-.08.39.39 0 00.08-.1.5.5 0 00.05-.13.59.59 0 000-.13zM275.88 136.83a.44.44 0 01.28-.09.28.28 0 01.2.08.62.62 0 01.12.23 1.15 1.15 0 010 .33v.61a1.69 1.69 0 010 .38 2.53 2.53 0 01-.12.36 1.55 1.55 0 01-.2.32 1.31 1.31 0 01-.28.24.64.64 0 01-.29.09.34.34 0 01-.2-.09.55.55 0 01-.12-.23 1.55 1.55 0 010-.32v-.3-.31a2.33 2.33 0 010-.38 2.29 2.29 0 01.12-.37 1.27 1.27 0 01.2-.31 1 1 0 01.29-.24zm.23 1.38a5.61 5.61 0 000-.58.61.61 0 000-.14.28.28 0 000-.11.1.1 0 00-.07 0h-.11a.36.36 0 00-.11.1.83.83 0 00-.08.12v.32a5.42 5.42 0 000 .57v.15a.51.51 0 000 .1.09.09 0 00.08 0h.11l.11-.09a.54.54 0 00.07-.13.83.83 0 000-.15.86.86 0 000-.16zM277.41 136.44a1.13 1.13 0 010 .26 1.49 1.49 0 010 .21 1.46 1.46 0 01-.07.19.86.86 0 01-.1.16.65.65 0 01-.16.13.3.3 0 01-.15.05.15.15 0 01-.1 0 .35.35 0 01-.07-.12.9.9 0 010-.18.49.49 0 010-.12.71.71 0 010-.14 1.36 1.36 0 010-.2 1.07 1.07 0 01.07-.19.59.59 0 01.1-.17.79.79 0 01.15-.12.37.37 0 01.16 0 .13.13 0 01.1 0 .35.35 0 01.07.12.88.88 0 010 .12zm.56-.72v-.07h.05l.18-.11-1.09 2.86a.33.33 0 010 .06v.05l-.18.1zm-1 1.22v.12c0 .02 0 0 .06 0a.1.1 0 00.07-.08v-.37a.5.5 0 000-.12h-.07a.15.15 0 00-.06.09.42.42 0 000 .14zm1.47.1a1.13 1.13 0 010 .26 1.49 1.49 0 010 .21 1.46 1.46 0 01-.07.19.57.57 0 01-.11.16.37.37 0 01-.15.13.3.3 0 01-.15 0 .12.12 0 01-.1 0 .35.35 0 01-.07-.12.88.88 0 010-.17.85.85 0 010-.26 1.49 1.49 0 010-.21 1.07 1.07 0 01.07-.19.44.44 0 01.1-.16.58.58 0 01.15-.13.37.37 0 01.15 0 .14.14 0 01.11 0 .35.35 0 01.07.12.88.88 0 010 .13zm-.44.5v.12c0 .02 0 0 .06 0a.1.1 0 00.07-.08.54.54 0 000-.15.81.81 0 000-.22.29.29 0 000-.12h-.07a.15.15 0 00-.06.09.42.42 0 000 .14zM276.1 132.26v-1.91a8.16 8.16 0 00-2.8 3l.73 1.13a6.11 6.11 0 012.07-2.22z"/><path class="cls-2" d="M280.63 132.8a3.94 3.94 0 00-1.73-2.67 2.78 2.78 0 00-2.8.22v1.91a2.06 2.06 0 012.07-.15 2.93 2.93 0 011.28 2 6.8 6.8 0 01.17 1.57 9.84 9.84 0 01-.17 1.78 10.92 10.92 0 01-1.28 3.44 6.28 6.28 0 01-2.07 2.24 2.06 2.06 0 01-2.07.15 2.9 2.9 0 01-1.28-2 6.8 6.8 0 01-.17-1.57 9.75 9.75 0 01.17-1.78 10.92 10.92 0 011.25-3.44l-.73-1.13a14.47 14.47 0 00-1.73 4.66 13.21 13.21 0 00-.24 2.41 9.18 9.18 0 00.24 2.13 3.91 3.91 0 001.73 2.67 2.78 2.78 0 002.8-.22 8.24 8.24 0 002.8-3 14.71 14.71 0 001.73-4.66 13.28 13.28 0 00.23-2.41 9.21 9.21 0 00-.2-2.15z"/><path class="cls-7" d="M288 127.56l22.21-12.83c.59-.34 1.08-.1 1.08.55a2.33 2.33 0 01-1.08 1.8L288 129.9c-.6.35-1.08.1-1.08-.55a2.3 2.3 0 011.08-1.79z"/><path class="cls-1" d="M288 132.28l38.45-22.19c.6-.35 1.09-.1 1.09.55a2.31 2.31 0 01-1.09 1.79L288 134.63c-.6.34-1.08.1-1.08-.55a2.32 2.32 0 011.08-1.8z"/><path class="cls-7" d="M195.25 204.59l15.58-9c.6-.35 1.08-.1 1.08.54a2.31 2.31 0 01-1.08 1.8l-15.58 9c-.6.35-1.08.1-1.08-.55a2.3 2.3 0 011.08-1.79z"/><path class="cls-1" d="M340.09000000000003 126.78999999999999v119a1.39 1.39 0 01-.58 1l-151.78 87.6v-119a1.44 1.44 0 01.59-1l1.89-1.09a3.39 3.39 0 001.59-2.74v-6.86a1.39 1.39 0 01.58-1l21.79-12.58v6.4a1.63 1.63 0 001.6 1.77 2 2 0 001-.28l123.34-71.21M340.49 125.53a1 1 0 00-.48.15l-123.76 71.45a1 1 0 01-.48.15c-.36 0-.6-.29-.6-.77v-6.89c0-.49-.25-.77-.6-.77a1 1 0 00-.48.15l-22.21 12.82a2.4 2.4 0 00-1.08 1.88v6.88a2.38 2.38 0 01-1.09 1.87l-1.89 1.1a2.38 2.38 0 00-1.09 1.87v119.45c0 .49.25.78.6.78a1 1 0 00.49-.15L340 247.63a2.38 2.38 0 001.08-1.87V126.3c0-.49-.24-.77-.6-.77z"/><path class="cls-1" d="M196.52 220.61a1.07 1.07 0 01-.53-.13 1.27 1.27 0 01-.57-1.14v-4.53a2.9 2.9 0 011.34-2.31l12.07-7a1.25 1.25 0 011.26-.08 1.27 1.27 0 01.57 1.14v4.53a2.9 2.9 0 01-1.34 2.31l-12.06 7a1.52 1.52 0 01-.74.21zm.74-7.24a1.86 1.86 0 00-.84 1.44v4.53a.38.38 0 00.07.27.39.39 0 00.27-.08l12.07-6.95a1.92 1.92 0 00.83-1.45v-4.53a.38.38 0 00-.07-.27.39.39 0 00-.27.08z"/><path class="cls-1" d="M198 215.23l7.87-4.56c.4-.23.72-.07.72.36a1.53 1.53 0 01-.72 1.2L198 216.8c-.4.23-.72.06-.72-.37a1.55 1.55 0 01.72-1.2z"/><path class="cls-7" d="M207.67 209.92l.65.93s.07 0 .1-.06l.65-1.68v-.12l-1.3.75a.16.16 0 00-.1.18z"/><path class="cls-2" d="M194.86 264.56c.58-.33 1-.06 1 .6a2.29 2.29 0 01-1 1.81c-.58.33-1 .06-1-.6a2.29 2.29 0 011-1.81zM203 255.18c.58-.33 1.05-.06 1.05.6a2.3 2.3 0 01-1.05 1.81c-.57.33-1 .06-1-.6a2.31 2.31 0 011-1.81zM211.11 250.49c.57-.33 1-.06 1 .6a2.31 2.31 0 01-1 1.81c-.58.33-1.05.06-1.05-.6a2.3 2.3 0 011.05-1.81zM219.23 247.86c.58-.33 1-.06 1 .6a2.29 2.29 0 01-1 1.81c-.58.33-1 .06-1-.6a2.29 2.29 0 011-1.81zM227.36 239.41c.58-.33 1-.06 1 .61a2.29 2.29 0 01-1 1.8c-.57.34-1 .07-1-.6a2.34 2.34 0 011-1.81zM235.48 236.42c.58-.33 1-.06 1 .6a2.29 2.29 0 01-1 1.81c-.58.33-1 .06-1-.6a2.29 2.29 0 011-1.81zM243.6 227c.58-.34 1.05-.07 1.05.6a2.31 2.31 0 01-1.05 1.81c-.57.33-1 .06-1-.61a2.31 2.31 0 011-1.8zM251.73 224.69c.57-.33 1-.06 1 .61a2.31 2.31 0 01-1 1.8c-.58.34-1 .07-1-.6a2.31 2.31 0 011-1.81zM259.85 198.89c.58-.33 1-.06 1 .61a2.33 2.33 0 01-1 1.81c-.58.33-1 .06-1-.61a2.32 2.32 0 011-1.81zM268 213c.57-.34 1-.07 1 .6a2.34 2.34 0 01-1 1.81c-.58.33-1.05.06-1.05-.61A2.29 2.29 0 01268 213zM276.1 213c.58-.34 1-.07 1 .6a2.32 2.32 0 01-1 1.81c-.58.33-1 .06-1-.61a2.28 2.28 0 011-1.8zM284.22 213c.58-.34 1-.07 1 .6a2.33 2.33 0 01-1 1.81c-.57.33-1 .06-1-.61a2.31 2.31 0 011-1.8zM292.35 198.9c.57-.34 1-.07 1 .6a2.34 2.34 0 01-1 1.81c-.58.33-1.05.06-1.05-.61a2.29 2.29 0 011.05-1.8zM300.47 196.2c.58-.33 1-.06 1 .6a2.29 2.29 0 01-1 1.81c-.58.33-1 .06-1-.6a2.29 2.29 0 011-1.81zM308.62 184.82c.58-.33 1.05-.06 1.05.61a2.29 2.29 0 01-1.05 1.8c-.57.34-1 .07-1-.6a2.34 2.34 0 011-1.81z"/><ellipse class="cls-2" cx="316.72" cy="186.03" rx="1.48" ry=".85" transform="rotate(-60 316.738 186.033)"/><ellipse class="cls-2" cx="324.84" cy="186.03" rx="1.48" ry=".85" transform="rotate(-60 324.862 186.023)"/><path class="cls-2" d="M333 180.13c.57-.33 1-.06 1 .61a2.31 2.31 0 01-1 1.8c-.58.34-1.05.07-1.05-.6a2.33 2.33 0 011.05-1.81z"/><path class="cls-2" d="M194.84 266a.27.27 0 01-.17-.06.26.26 0 010-.36l8.2-9.42.07-.06 8.06-4.65 8.11-2.63 8.08-8.41.1-.06 8.06-3 8.08-9.33a.42.42 0 01.12-.08l8-2.31 8.06-25.63a.26.26 0 01.21-.18.27.27 0 01.25.13l8.05 13.94h16l8.01-13.89a.24.24 0 01.14-.12l8.05-2.67 8.07-11.31a.27.27 0 01.21-.1h16.18l8.06-4.66a.26.26 0 01.35.09.26.26 0 01-.1.34l-8.12 4.7a.28.28 0 01-.13 0h-16.12l-8.05 11.27a.22.22 0 01-.12.09l-8 2.67-8.08 14a.26.26 0 01-.22.12H268a.26.26 0 01-.21-.12l-7.84-13.58L252 226a.29.29 0 01-.17.17l-8.06 2.32-8.07 9.33-.1.07-8.08 3-8.08 8.41a.21.21 0 01-.1.06l-8.13 2.63-8 4.62-8.21 9.33a.25.25 0 01-.16.06z"/><path class="cls-1" d="M194.86 271a.5.5 0 01-.43-.25.51.51 0 01.18-.69l138.11-79.73a.5.5 0 01.5.86l-138.11 79.7a.47.47 0 01-.25.11z"/><path class="cls-2" d="M194.86 259.87c.58-.33 1-.06 1 .6a2.29 2.29 0 01-1 1.81c-.58.33-1 .06-1-.6a2.29 2.29 0 011-1.81zM203 245.8c.58-.33 1.05-.06 1.05.6a2.3 2.3 0 01-1.05 1.81c-.57.33-1 .06-1-.6a2.31 2.31 0 011-1.81z"/><ellipse class="cls-2" cx="211.11" cy="245.25" rx="1.48" ry=".85" transform="rotate(-60 211.121 245.247)"/><path class="cls-2" d="M219.23 227c.58-.34 1-.07 1 .6a2.3 2.3 0 01-1 1.81c-.58.33-1 .06-1-.61a2.28 2.28 0 011-1.8zM227.36 231.73c.58-.33 1-.06 1 .6a2.3 2.3 0 01-1 1.81c-.57.33-1 .06-1-.6a2.31 2.31 0 011-1.81zM235.48 229.38c.58-.33 1-.06 1 .61a2.28 2.28 0 01-1 1.8c-.58.34-1 .07-1-.6a2.32 2.32 0 011-1.81zM243.6 222.35c.58-.34 1.05-.07 1.05.6a2.31 2.31 0 01-1.05 1.81c-.57.33-1 .06-1-.6a2.31 2.31 0 011-1.81zM251.73 213c.57-.34 1-.07 1 .6a2.34 2.34 0 01-1 1.81c-.58.33-1 .06-1-.61a2.29 2.29 0 011-1.8zM259.85 210.62c.58-.33 1-.06 1 .6a2.3 2.3 0 01-1 1.81c-.58.33-1 .06-1-.6a2.29 2.29 0 011-1.81zM268 203.59c.58-.34 1-.07 1 .6a2.33 2.33 0 01-1 1.81c-.57.33-1 .06-1-.61a2.31 2.31 0 011-1.8zM276.1 203.59c.58-.34 1-.07 1 .6a2.32 2.32 0 01-1 1.81c-.58.33-1 .06-1-.61a2.28 2.28 0 011-1.8zM284.22 184.82c.58-.33 1-.06 1 .61a2.29 2.29 0 01-1 1.8c-.57.34-1 .07-1-.6a2.34 2.34 0 011-1.81zM292.35 194.14c.57-.33 1-.07 1 .6a2.31 2.31 0 01-1 1.81c-.58.33-1.05.06-1.05-.6a2.3 2.3 0 011.05-1.81zM300.47 184.82c.58-.33 1-.06 1 .61a2.29 2.29 0 01-1 1.8c-.58.34-1 .07-1-.6a2.32 2.32 0 011-1.81zM308.6 180.13c.57-.33 1-.06 1 .61a2.31 2.31 0 01-1 1.8c-.58.34-1.05.07-1.05-.6a2.33 2.33 0 011.05-1.81zM316.72 180.13c.58-.33 1-.06 1 .61a2.28 2.28 0 01-1 1.8c-.58.34-1 .07-1-.6a2.32 2.32 0 011-1.81zM324.84 175.44c.58-.33 1.05-.06 1.05.61a2.29 2.29 0 01-1.05 1.8c-.57.34-1 .07-1-.6a2.34 2.34 0 011-1.81zM333 175.44c.57-.33 1-.06 1 .61a2.31 2.31 0 01-1 1.8c-.58.34-1.05.07-1.05-.6a2.33 2.33 0 011.05-1.81z"/><path class="cls-2" d="M194.86 261.33a.22.22 0 01-.13 0 .25.25 0 01-.09-.34l8.18-14.1a.23.23 0 01.17-.12l7.94-1.7 8.07-16.9a.26.26 0 01.16-.13.24.24 0 01.2 0l8 4.64 8-2.31 8.07-7 8.11-9.36a.2.2 0 01.12-.08l8.07-2.33 8.08-7a.25.25 0 01.17-.06h8l8.02-18.61a.28.28 0 01.2-.15.24.24 0 01.22.09l7.94 9.16 7.93-9.16a.2.2 0 01.07-.06l8.15-4.7a.19.19 0 01.12 0h8.06l8-4.64a.27.27 0 01.12 0H333a.25.25 0 010 .5h-8.06l-8 4.64h-8.18l-8.06 4.65-8.09 9.35a.26.26 0 01-.38 0l-7.87-9.08-8 18.4a.25.25 0 01-.23.15h-8L260 212h-.1l-8.05 2.32-8.09 9.33-8.14 7.06-.09.05-8.12 2.35a.22.22 0 01-.19 0l-7.9-4.56-8 16.77a.21.21 0 01-.17.13l-8 1.7-8.13 14a.24.24 0 01-.16.18z"/><g class="cls-18"><path d="M194.86 259.87c.58-.33 1-.06 1 .6a2.29 2.29 0 01-1 1.81c-.58.33-1 .06-1-.6a2.29 2.29 0 011-1.81zM203 245.8c.58-.33 1.05-.06 1.05.6a2.3 2.3 0 01-1.05 1.81c-.57.33-1 .06-1-.6a2.31 2.31 0 011-1.81z"/><ellipse cx="211.11" cy="245.25" rx="1.48" ry=".85" transform="rotate(-60 211.121 245.247)"/><path d="M219.23 227c.58-.34 1-.07 1 .6a2.3 2.3 0 01-1 1.81c-.58.33-1 .06-1-.61a2.28 2.28 0 011-1.8zM227.36 231.73c.58-.33 1-.06 1 .6a2.3 2.3 0 01-1 1.81c-.57.33-1 .06-1-.6a2.31 2.31 0 011-1.81zM235.48 229.38c.58-.33 1-.06 1 .61a2.28 2.28 0 01-1 1.8c-.58.34-1 .07-1-.6a2.32 2.32 0 011-1.81zM243.6 222.35c.58-.34 1.05-.07 1.05.6a2.31 2.31 0 01-1.05 1.81c-.57.33-1 .06-1-.6a2.31 2.31 0 011-1.81zM251.73 213c.57-.34 1-.07 1 .6a2.34 2.34 0 01-1 1.81c-.58.33-1 .06-1-.61a2.29 2.29 0 011-1.8zM259.85 210.62c.58-.33 1-.06 1 .6a2.3 2.3 0 01-1 1.81c-.58.33-1 .06-1-.6a2.29 2.29 0 011-1.81zM268 203.59c.58-.34 1-.07 1 .6a2.33 2.33 0 01-1 1.81c-.57.33-1 .06-1-.61a2.31 2.31 0 011-1.8zM276.1 203.59c.58-.34 1-.07 1 .6a2.32 2.32 0 01-1 1.81c-.58.33-1 .06-1-.61a2.28 2.28 0 011-1.8zM284.22 184.82c.58-.33 1-.06 1 .61a2.29 2.29 0 01-1 1.8c-.57.34-1 .07-1-.6a2.34 2.34 0 011-1.81zM292.35 194.14c.57-.33 1-.07 1 .6a2.31 2.31 0 01-1 1.81c-.58.33-1.05.06-1.05-.6a2.3 2.3 0 011.05-1.81zM300.47 184.82c.58-.33 1-.06 1 .61a2.29 2.29 0 01-1 1.8c-.58.34-1 .07-1-.6a2.32 2.32 0 011-1.81zM308.6 180.13c.57-.33 1-.06 1 .61a2.31 2.31 0 01-1 1.8c-.58.34-1.05.07-1.05-.6a2.33 2.33 0 011.05-1.81zM316.72 180.13c.58-.33 1-.06 1 .61a2.28 2.28 0 01-1 1.8c-.58.34-1 .07-1-.6a2.32 2.32 0 011-1.81zM324.84 175.44c.58-.33 1.05-.06 1.05.61a2.29 2.29 0 01-1.05 1.8c-.57.34-1 .07-1-.6a2.34 2.34 0 011-1.81zM333 175.44c.57-.33 1-.06 1 .61a2.31 2.31 0 01-1 1.8c-.58.34-1.05.07-1.05-.6a2.33 2.33 0 011.05-1.81z"/><path d="M194.86 261.33a.22.22 0 01-.13 0 .25.25 0 01-.09-.34l8.18-14.1a.23.23 0 01.17-.12l7.94-1.7 8.07-16.9a.26.26 0 01.16-.13.24.24 0 01.2 0l8 4.64 8-2.31 8.07-7 8.11-9.36a.2.2 0 01.12-.08l8.07-2.33 8.08-7a.25.25 0 01.17-.06h8l8.02-18.61a.28.28 0 01.2-.15.24.24 0 01.22.09l7.94 9.16 7.93-9.16a.2.2 0 01.07-.06l8.15-4.7a.19.19 0 01.12 0h8.06l8-4.64a.27.27 0 01.12 0H333a.25.25 0 010 .5h-8.06l-8 4.64h-8.18l-8.06 4.65-8.09 9.35a.26.26 0 01-.38 0l-7.87-9.08-8 18.4a.25.25 0 01-.23.15h-8L260 212h-.1l-8.05 2.32-8.09 9.33-8.14 7.06-.09.05-8.12 2.35a.22.22 0 01-.19 0l-7.9-4.56-8 16.77a.21.21 0 01-.17.13l-8 1.7-8.13 14a.24.24 0 01-.16.18z"/></g><path class="cls-1" d="M199.11 225.07l7.89-4.57c.4-.23.72-.07.72.37a1.53 1.53 0 01-.72 1.19l-7.87 4.57c-.39.23-.72.07-.72-.37a1.56 1.56 0 01.7-1.19z"/><path class="cls-2" d="M194.86 227c.58-.34 1-.07 1 .6a2.29 2.29 0 01-1 1.81c-.58.33-1.05.06-1.05-.6a2.3 2.3 0 011.05-1.81z"/><path class="cls-13" d="M194.86 227c.58-.34 1-.07 1 .6a2.29 2.29 0 01-1 1.81c-.58.33-1.05.06-1.05-.6a2.3 2.3 0 011.05-1.81z"/><path class="cls-1" d="M199.11 229.74l7.87-4.56c.4-.23.72-.07.72.36a1.53 1.53 0 01-.72 1.2l-7.87 4.57c-.39.23-.72.06-.72-.37a1.57 1.57 0 01.72-1.2z"/><path class="cls-2" d="M194.86 231.73c.58-.33 1-.07 1 .6a2.29 2.29 0 01-1 1.81c-.58.33-1.05.06-1.05-.6a2.3 2.3 0 011.05-1.81zM194.86 294.23a.26.26 0 01-.17-.07.25.25 0 010-.36l4.12-4.24 4-.51 4.09-5.28 4.09.56 4-3.59 4.06-2.43 4.13-5.73 4.11 1.29 3.95-3.53a.25.25 0 01.35 0 .23.23 0 010 .35l-4.16 3.72-4-1.27-4 5.55-4.06 2.43-4.11 3.72-4-.55-4 5.21-4.26.5-4 4.11a.27.27 0 01-.14.12z"/><path class="cls-7" d="M196.47 280.51a.45.45 0 01.1-.09.59.59 0 01.11-.08 1.11 1.11 0 01.61-.18.71.71 0 01.49.18 1.18 1.18 0 01.32.51 2.47 2.47 0 01.12.81 3.71 3.71 0 01-.12.93 4.27 4.27 0 01-.32.89 3.24 3.24 0 01-.49.75 2.28 2.28 0 01-.61.52 1.23 1.23 0 01-.62.19.76.76 0 01-.48-.19 1.19 1.19 0 01-.33-.51 2.73 2.73 0 01-.11-.81 2.92 2.92 0 010-.51 3.86 3.86 0 01.1-.49c0-.16.09-.31.14-.46s.1-.3.15-.44l1.08-3.08a1.07 1.07 0 00.07-.15.24.24 0 01.12-.14l.34-.19a.05.05 0 01.08 0v.25zm-.77 2.6a1.73 1.73 0 00.07.48.77.77 0 00.2.33.46.46 0 00.3.13.79.79 0 00.41-.12 1.91 1.91 0 00.41-.35 2.41 2.41 0 00.3-.48 2.46 2.46 0 00.26-1.12 1.75 1.75 0 00-.06-.48.77.77 0 00-.2-.33.46.46 0 00-.3-.13.86.86 0 00-.41.12 1.69 1.69 0 00-.41.35 2.22 2.22 0 00-.3.49 2.58 2.58 0 00-.2.55 2.77 2.77 0 00-.07.56zM199.23 281.64a1.83 1.83 0 00.08.25.35.35 0 00.16.16.42.42 0 00.28 0 1.44 1.44 0 00.46-.19 1.73 1.73 0 00.35-.27 1.82 1.82 0 00.29-.38 2 2 0 00.2-.48 2 2 0 00.07-.56 1.14 1.14 0 00-.07-.46.38.38 0 00-.19-.22.47.47 0 00-.29 0 1.38 1.38 0 00-.36.16l-.49.28a.09.09 0 01-.12 0 .2.2 0 010-.14v-.33a.51.51 0 010-.17l.06-.16 1.07-2.4-1.71 1a.07.07 0 01-.11 0s-.05-.07-.05-.14v-.33a.35.35 0 01.05-.2.27.27 0 01.11-.14l2.34-1.35h.11a.18.18 0 010 .15v.28a.62.62 0 010 .18.77.77 0 01-.08.19l-1.05 2.36a1.16 1.16 0 01.55-.17.57.57 0 01.42.13.84.84 0 01.27.43 2.09 2.09 0 01.1.71 3.44 3.44 0 01-.12.91 3.6 3.6 0 01-.32.81 3.43 3.43 0 01-.47.66 2.4 2.4 0 01-.57.46 1.7 1.7 0 01-.69.26.7.7 0 01-.47-.1.77.77 0 01-.28-.36 1.53 1.53 0 01-.1-.54.32.32 0 010-.16.25.25 0 01.09-.11l.27-.16h.11a.23.23 0 01.1.14zM202.77 279.6a.73.73 0 00.08.25.31.31 0 00.16.16.42.42 0 00.28 0 1.44 1.44 0 00.46-.19 1.73 1.73 0 00.35-.27 1.65 1.65 0 00.29-.39 2.22 2.22 0 00.2-.47 2 2 0 00.07-.56 1.14 1.14 0 00-.07-.46.42.42 0 00-.19-.22.47.47 0 00-.29 0 1.73 1.73 0 00-.36.15l-.5.29a.09.09 0 01-.11 0 .2.2 0 010-.14v-.33a.33.33 0 010-.17 1.38 1.38 0 01.06-.16l1.07-2.4-1.71 1a.09.09 0 01-.12 0 .2.2 0 010-.14v-.33a.45.45 0 010-.2.24.24 0 01.12-.14l2.34-1.36a.09.09 0 01.11 0 .21.21 0 01.05.15v.33a.67.67 0 010 .18c0 .06-.05.12-.08.19l-1.05 2.36a1.32 1.32 0 01.54-.18.64.64 0 01.43.14 1 1 0 01.27.42 2.4 2.4 0 01.1.72 3.5 3.5 0 01-.12.91 3.82 3.82 0 01-.32.8 2.91 2.91 0 01-.47.66 2.45 2.45 0 01-.57.47 1.75 1.75 0 01-.69.26.81.81 0 01-.48-.1.92.92 0 01-.28-.36 1.53 1.53 0 01-.09-.54.32.32 0 010-.16.23.23 0 01.09-.12l.27-.15a.08.08 0 01.11 0 .23.23 0 01.05.1z"/><path class="cls-1" d="M195.59 297.46l35.11-20.35c.39-.23.72-.06.72.37a1.57 1.57 0 01-.72 1.2L195.59 299c-.39.23-.72.07-.72-.37a1.56 1.56 0 01.72-1.17zM195.59 274l7.87-4.56c.4-.23.72-.07.72.36a1.55 1.55 0 01-.72 1.2l-7.87 4.56c-.39.23-.72.07-.72-.36a1.57 1.57 0 01.72-1.2z"/><path class="cls-2" d="M194.86 322.35a.23.23 0 01-.17-.08.24.24 0 010-.35l4.12-4.24 4.08-.51 4.1-3.59 4-1.08 4.13-8.21 4.13 2 4-3.52h.07l3.95-.75 4-6.91a.25.25 0 11.43.25l-4.11 7.11-4.11.78-4.14 3.64-4-2-4 8-4.11 1.12-4.08 3.59-4.05.52-4 4.11a.27.27 0 01-.24.12z"/><path d="M194.86 322.35a.23.23 0 01-.17-.08.24.24 0 010-.35l4.12-4.24 4.08-.51 4.1-3.59 4-1.08 4.13-8.21 4.13 2 4-3.52h.07l3.95-.75 4-6.91a.25.25 0 11.43.25l-4.11 7.11-4.11.78-4.14 3.64-4-2-4 8-4.11 1.12-4.08 3.59-4.05.52-4 4.11a.27.27 0 01-.24.12z"/><path class="cls-7" d="M196.93 312.38a.52.52 0 010 .21.26.26 0 01-.12.13l-.24.14a.08.08 0 01-.11 0 .21.21 0 010-.15v-5l-1 1.68q-.06.11-.12.12a.08.08 0 01-.11 0l-.14-.2a.2.2 0 010-.16.36.36 0 01.06-.2l1.27-2.24a.4.4 0 01.1-.12l.09-.06.24-.14a.09.09 0 01.12 0 .18.18 0 010 .14zM199.53 307.76a3.76 3.76 0 00.27-.65 2.63 2.63 0 00.09-.72 1.06 1.06 0 00-.19-.71c-.12-.14-.31-.14-.58 0a1.14 1.14 0 00-.35.3 2 2 0 00-.25.39 3.53 3.53 0 00-.15.46 4 4 0 00-.09.48.6.6 0 01-.06.19.36.36 0 01-.1.11l-.27.15h-.09a.16.16 0 010-.12 3.52 3.52 0 01.1-.75 4.1 4.1 0 01.27-.79 4.48 4.48 0 01.44-.72 2.07 2.07 0 01.59-.52 1.13 1.13 0 01.58-.18.62.62 0 01.41.18 1.05 1.05 0 01.26.48 3 3 0 01.08.71 4.68 4.68 0 010 .55 4.54 4.54 0 01-.09.51c-.05.17-.11.34-.18.52s-.16.36-.26.56l-1.33 2.67 1.82-1.05a.08.08 0 01.11 0V310.28a.35.35 0 010 .2.23.23 0 01-.11.14l-2.56 1.48a.09.09 0 01-.11 0 .2.2 0 01-.05-.14v-.33a.58.58 0 010-.19 1.8 1.8 0 01.1-.24zM204.23 304.45v1.54a6 6 0 01-.09 1.05 5.38 5.38 0 01-.28 1 3.18 3.18 0 01-.47.8 2.32 2.32 0 01-.67.58 1.18 1.18 0 01-.68.2.68.68 0 01-.46-.26 1.51 1.51 0 01-.28-.64 5.11 5.11 0 01-.1-.94v-1.58a7.46 7.46 0 01.1-1.06 4.27 4.27 0 01.28-1 3.7 3.7 0 01.46-.8 2.39 2.39 0 01.68-.59 1.13 1.13 0 01.67-.19.66.66 0 01.47.27 1.66 1.66 0 01.28.64 4.35 4.35 0 01.09.98zm-2.47 3a1.88 1.88 0 00.25 1.13c.16.19.4.19.71 0a1.67 1.67 0 00.7-.82 3.77 3.77 0 00.26-1.43v-1.54a1.89 1.89 0 00-.26-1.14c-.16-.19-.39-.19-.7 0a1.69 1.69 0 00-.71.82 3.82 3.82 0 00-.25 1.43v1.55z"/><path class="cls-1" d="M195.59 325.57l35.11-20.34c.39-.23.72-.07.72.37a1.56 1.56 0 01-.72 1.19l-35.11 20.35c-.39.23-.72.06-.72-.37a1.57 1.57 0 01.72-1.2zM195.59 302.11l7.87-4.57c.4-.23.72-.06.72.37a1.55 1.55 0 01-.72 1.2l-7.87 4.56c-.39.23-.72.07-.72-.36a1.56 1.56 0 01.72-1.2z"/><path class="cls-2" d="M243.6 266a.26.26 0 01-.19-.1.24.24 0 010-.35l4.06-3.24 4.09-4.67 4.15-.61 4-.89 4.11-4.84 4 .71 4-6.41 4.12.06 4-3.55a.25.25 0 01.36 0 .25.25 0 010 .35l-4.13 3.69-4-.07-4.07 6.46-4.09-.72-4 4.75-4.15.94-4 .58-4 4.56-4.1 3.35a.25.25 0 01-.16 0z"/><path class="cls-7" d="M245.21 252.31l.1-.09.11-.08a1.14 1.14 0 01.58-.14.72.72 0 01.49.18 1.28 1.28 0 01.32.51 2.78 2.78 0 01.11.81 4.22 4.22 0 01-.11.93 4.93 4.93 0 01-.32.89 3.6 3.6 0 01-.49.75 2.32 2.32 0 01-.62.52 1.2 1.2 0 01-.61.19.79.79 0 01-.49-.19 1.18 1.18 0 01-.28-.59 2.43 2.43 0 01-.12-.81 4.38 4.38 0 010-.51c0-.17.06-.33.1-.49l.14-.47c.05-.15.11-.29.16-.43l1.08-3.08.06-.15a.33.33 0 01.12-.14l.34-.19h.09a.17.17 0 010 .12.19.19 0 010 .08.08.08 0 010 .05zm-.76 2.6a1.43 1.43 0 00.07.48.76.76 0 00.19.33.46.46 0 00.31.13.76.76 0 00.4-.12 1.69 1.69 0 00.41-.35 2.71 2.71 0 00.31-.49 3 3 0 00.19-.55 2.68 2.68 0 00.07-.56 1.73 1.73 0 00-.07-.48.87.87 0 00-.19-.33.51.51 0 00-.31-.13.9.9 0 00-.41.12 1.65 1.65 0 00-.4.35 1.93 1.93 0 00-.31.49 2.55 2.55 0 00-.19.55 2.2 2.2 0 00-.07.56zM249.33 250.84a3.83 3.83 0 00.27-.66 3.08 3.08 0 00.09-.72 1.08 1.08 0 00-.19-.7c-.12-.15-.32-.14-.58 0a1.48 1.48 0 00-.36.29 2.23 2.23 0 00-.24.4 2.16 2.16 0 00-.15.45c0 .16-.07.32-.1.48a.47.47 0 01-.06.19.26.26 0 01-.09.11l-.27.16a.08.08 0 01-.1 0 .17.17 0 010-.12 2.91 2.91 0 01.1-.74 3.88 3.88 0 01.27-.79 3.31 3.31 0 01.44-.72 2.11 2.11 0 01.59-.53 1.1 1.1 0 01.57-.17.58.58 0 01.42.18 1 1 0 01.25.47 2.63 2.63 0 01.09.72 4.63 4.63 0 010 .54 3.06 3.06 0 01-.1.51 3.93 3.93 0 01-.17.52c-.08.18-.16.36-.26.56l-1.33 2.67 1.82-1.05a.09.09 0 01.11 0 .21.21 0 01.05.15v.33a.53.53 0 01-.05.2.4.4 0 01-.11.14l-2.56 1.47h-.12a.21.21 0 010-.15v-.33a.58.58 0 010-.19 1.33 1.33 0 01.1-.23zM253.37 245.47a.08.08 0 01.11 0 .17.17 0 01.05.15v.38a1.24 1.24 0 010 .18 2.07 2.07 0 010 .22l-1.32 6a1.46 1.46 0 01-.07.19.24.24 0 01-.11.13l-.27.16a.08.08 0 01-.1 0 .17.17 0 010-.13.31.31 0 010-.08l1.32-6-2 1.13a.09.09 0 01-.11 0 .21.21 0 01-.05-.15v-.33a.53.53 0 01.05-.2.33.33 0 01.11-.14z"/><path class="cls-1" d="M244.34 269.26l35.1-20.35c.4-.23.72-.06.72.37a1.55 1.55 0 01-.72 1.2l-35.1 20.34c-.4.23-.72.06-.72-.37a1.53 1.53 0 01.72-1.19zM244.34 245.79l7.86-4.56c.4-.23.73-.07.73.36a1.56 1.56 0 01-.73 1.2l-7.86 4.56c-.4.23-.72.07-.72-.36a1.55 1.55 0 01.72-1.2z"/><path class="cls-2" d="M243.6 294.14a.31.31 0 01-.13 0 .27.27 0 01-.08-.35l4.15-6.8 4.18.77 3.93-1.08 4.06-4.95 4-1 4.1-7.32 4.2 1.22 3.94-.75 4-3.56a.25.25 0 11.33.37l-4.11 3.66h-.06l-4.14.78-3.87-1.13-4 7.16-4.09 1-4.06 4.95h-.07l-4.12 1.13h-.06l-3.89-.72-4 6.51a.25.25 0 01-.21.11z"/><path d="M243.6 294.14a.31.31 0 01-.13 0 .27.27 0 01-.08-.35l4.15-6.8 4.18.77 3.93-1.08 4.06-4.95 4-1 4.1-7.32 4.2 1.22 3.94-.75 4-3.56a.25.25 0 11.33.37l-4.11 3.66h-.06l-4.14.78-3.87-1.13-4 7.16-4.09 1-4.06 4.95h-.07l-4.12 1.13h-.06l-3.89-.72-4 6.51a.25.25 0 01-.21.11z"/><path class="cls-7" d="M245.48 282.35l-.08.06h-.08a1.23 1.23 0 01-.55.18.74.74 0 01-.48-.15 1 1 0 01-.29-.44 2.27 2.27 0 01-.13-.85 3.71 3.71 0 01.12-.93 4.73 4.73 0 01.32-.87 3.76 3.76 0 01.48-.72 2.18 2.18 0 01.57-.5 1.31 1.31 0 01.62-.2.71.71 0 01.47.19 1.15 1.15 0 01.3.51 2.69 2.69 0 01.1.8 2.93 2.93 0 010 .49c0 .17-.08.34-.12.52s-.1.34-.16.51-.1.32-.15.45l-1.08 3.08-.07.15a.24.24 0 01-.12.14l-.34.2a.06.06 0 01-.08 0 .22.22 0 010-.13v-.07a.39.39 0 000-.06zm.77-2.59a1.45 1.45 0 00-.07-.49.63.63 0 00-.18-.27.39.39 0 00-.29-.11.85.85 0 00-.38.11 1.62 1.62 0 00-.38.32 2 2 0 00-.29.45 2.38 2.38 0 00-.25 1.1 1.8 1.8 0 00.06.5.71.71 0 00.19.31.44.44 0 00.29.11.66.66 0 00.38-.11 1.62 1.62 0 00.38-.32 2.66 2.66 0 00.29-.45 2.39 2.39 0 00.19-.53 2.25 2.25 0 00.06-.62zM247.79 281.66a1.06 1.06 0 00.09.25.37.37 0 00.16.17.49.49 0 00.28 0 1.44 1.44 0 00.46-.19 1.73 1.73 0 00.35-.27 2.24 2.24 0 00.29-.38 2.55 2.55 0 00.2-.48 2 2 0 00.07-.56 1.14 1.14 0 00-.07-.46.42.42 0 00-.19-.22.56.56 0 00-.29 0 1.38 1.38 0 00-.36.16l-.5.28a.08.08 0 01-.11 0 .18.18 0 010-.14v-.33a.51.51 0 010-.17l.07-.16 1.07-2.4-1.72 1a.08.08 0 01-.11 0 .23.23 0 01-.05-.15v-.33a.49.49 0 01.05-.2.33.33 0 01.11-.14l2.35-1.35a.08.08 0 01.11 0 .2.2 0 01.05.14v.33a.57.57 0 010 .18 1.54 1.54 0 01-.08.19l-1.05 2.36a1.16 1.16 0 01.54-.17.59.59 0 01.42.13.92.92 0 01.28.43 2.38 2.38 0 01.1.71 3.39 3.39 0 01-.12.91 4.14 4.14 0 01-.32.81 3.43 3.43 0 01-.47.66 2.4 2.4 0 01-.57.46 1.75 1.75 0 01-.69.26.75.75 0 01-.48-.1.92.92 0 01-.28-.36 1.51 1.51 0 01-.09-.53.51.51 0 010-.17.27.27 0 01.1-.11l.27-.16h.1a.12.12 0 01.03.1z"/><path class="cls-1" d="M244.34 297.37l35.1-20.37c.4-.23.72-.07.72.37a1.53 1.53 0 01-.72 1.19l-35.1 20.35c-.4.23-.72.06-.72-.37a1.55 1.55 0 01.72-1.17zM244.34 273.91l7.86-4.57c.4-.23.73-.06.73.37a1.56 1.56 0 01-.73 1.2l-7.86 4.56c-.4.23-.72.07-.72-.36a1.53 1.53 0 01.72-1.2z"/><path class="cls-2" d="M296.41 220.38A4.58 4.58 0 01301 220l-4.63 12.48z"/><path class="cls-2" d="M291.78 225.38a13.76 13.76 0 014.63-5v12.14z"/><path class="cls-2" d="M288.91 233.1a24.39 24.39 0 012.87-7.72l4.63 7.14z"/><path class="cls-13" d="M291.78 225.38a24.39 24.39 0 00-2.87 7.72l7.5-.58v-12.14a13.76 13.76 0 00-4.63 5z"/><path class="cls-2" d="M301 220a6.48 6.48 0 012.87 4.4l-7.5 8.08zM288.91 240.6a15.13 15.13 0 01-.39-3.53 21.45 21.45 0 01.39-4l7.5-.58zM303.91 231.94a24.39 24.39 0 01-2.87 7.72l-4.63-7.14zM296.41 244.66a4.58 4.58 0 01-4.63.34l4.63-12.48z"/><path class="cls-2" d="M288.91 240.6l7.5-8.08-4.63 12.48a6.48 6.48 0 01-2.87-4.4zM303.91 224.44a15.16 15.16 0 01.38 3.53 21.43 21.43 0 01-.38 4l-7.5.58z"/><path class="cls-2" d="M301 239.66a13.76 13.76 0 01-4.63 5v-12.14z"/><path class="cls-7" d="M292.48 250.85l7.86-4.56c.4-.23.72-.07.72.36a1.55 1.55 0 01-.72 1.2l-7.86 4.56c-.4.23-.72.07-.72-.36a1.55 1.55 0 01.72-1.2z"/><path class="cls-1" d="M290.74 256.56l11.34-6.56c.4-.23.72-.07.72.37a1.53 1.53 0 01-.72 1.19l-11.34 6.58c-.4.23-.72.07-.72-.36a1.53 1.53 0 01.72-1.22zM290.74 261.26l11.34-6.58c.4-.23.72-.06.72.37a1.53 1.53 0 01-.72 1.19l-11.34 6.58c-.4.23-.72.07-.72-.36a1.53 1.53 0 01.72-1.2zM290.74 266l11.34-6.58c.4-.23.72-.06.72.37a1.55 1.55 0 01-.72 1.2l-11.34 6.57c-.4.23-.72.07-.72-.36a1.55 1.55 0 01.72-1.2z"/><path class="cls-2" d="M324.84 203.9a4.58 4.58 0 014.63-.34L324.84 216zM320.21 208.9a13.85 13.85 0 014.63-5V216z"/><path class="cls-2" d="M317.35 216.62a24.38 24.38 0 012.86-7.72l4.63 7.14zM329.47 203.56a6.48 6.48 0 012.87 4.4l-7.5 8.08z"/><path class="cls-2" d="M317.35 224.12a15.13 15.13 0 01-.39-3.53 21.53 21.53 0 01.39-4l7.49-.58zM332.34 215.46a24.3 24.3 0 01-2.87 7.72l-4.63-7.18z"/><path class="cls-2" d="M324.84 228.18a4.6 4.6 0 01-4.63.35l4.63-12.53z"/><path class="cls-2" d="M317.35 224.12l7.49-8.08-4.63 12.49a6.52 6.52 0 01-2.86-4.41z"/><path class="cls-13" d="M320.21 208.9a24.38 24.38 0 00-2.86 7.72 21.53 21.53 0 00-.39 4 15.13 15.13 0 00.39 3.53 6.52 6.52 0 002.86 4.41l4.63-12.56v-12.1a13.85 13.85 0 00-4.63 5z"/><path class="cls-2" d="M332.34 208a15.13 15.13 0 01.39 3.53 21.45 21.45 0 01-.39 4l-7.5.58z"/><path class="cls-2" d="M329.47 223.18a13.68 13.68 0 01-4.63 5V216z"/><path class="cls-7" d="M320.91 234.43l7.87-4.56c.4-.23.72-.07.72.36a1.53 1.53 0 01-.72 1.2l-7.87 4.57c-.4.23-.72.06-.72-.37a1.55 1.55 0 01.72-1.2z"/><path class="cls-1" d="M319.18 240.14l11.33-6.58c.4-.23.72-.06.72.37a1.55 1.55 0 01-.72 1.2l-11.33 6.57c-.4.23-.73.07-.73-.36a1.56 1.56 0 01.73-1.2zM319.18 244.84l11.33-6.57c.4-.23.72-.07.72.36a1.55 1.55 0 01-.72 1.2l-11.33 6.57c-.4.24-.73.07-.73-.36a1.56 1.56 0 01.73-1.2zM319.18 249.54l11.33-6.54c.4-.23.72-.07.72.36a1.55 1.55 0 01-.72 1.2l-11.33 6.58c-.4.23-.73.06-.73-.37a1.56 1.56 0 01.73-1.23z"/></g></g><g id="Magnifying_Glass" data-name="Magnifying Glass"><path class="cls-2" d="M324.69 366.68A13.35 13.35 0 00319 356c-1.62-1-3.11-1.15-4.22-.58-6.69 3.36-53.7 33.51-56.71 35a2.13 2.13 0 00-1 1.94 6.72 6.72 0 002.86 5.37 2.11 2.11 0 002.15.28c4.76-2.62 51.17-22.4 60.65-27.48 1.18-.6 1.9-1.93 1.96-3.85z"/><path class="cls-19" d="M322.84 360.18A12 12 0 00319 356c-1.61-1-3.1-1.15-4.2-.59l-.14.07c-6.11 3.13-41.1 25.45-52.87 32.71h-.08l-.48.3-.14.09-.27.16-.32.19c-1.24.76-2.09 1.25-2.41 1.41a1.44 1.44 0 00-.27.22 2.32 2.32 0 00-.68 1.72 5 5 0 000 .67v.27c0 .09 0 .27.08.41l.09.33c0 .13.08.25.13.38a2.47 2.47 0 00.1.29z"/><path class="cls-2" d="M259.94 397.75a6.67 6.67 0 01-2.85-5.35c.06-1.93 1.44-2.67 3.09-1.65a6.73 6.73 0 012.82 5.35c0 1.9-1.42 2.67-3.06 1.65z"/><path class="cls-5" d="M245.89 399.05a5.16 5.16 0 002.19 4.11 1.67 1.67 0 001.64.22l11.38-6.05a1.64 1.64 0 00.72-1.48 5.16 5.16 0 00-2.19-4.11 1.64 1.64 0 00-1.64-.21l-11.37 6.05a1.65 1.65 0 00-.73 1.47z"/><path class="cls-6" d="M246.63 397.56a1.65 1.65 0 00-.74 1.49 4.43 4.43 0 00.34 1.75l14.67-7.8a4.44 4.44 0 00-1.26-1.26 1.64 1.64 0 00-1.64-.21l-11.37 6.05z"/><path class="cls-2" d="M260.48 409.14c0-7.29-4.82-14.57-14.45-20.13-19.26-11.12-50.49-11.12-69.75 0-9.63 5.56-14.45 12.84-14.45 20.13v13.43c0 7.28 4.82 14.57 14.45 20.13 19.26 11.12 50.49 11.12 69.75 0 9.63-5.56 14.45-12.85 14.45-20.13v-13.43zm-81.81-16c8.6-5 20.14-7.7 32.49-7.7s23.89 2.73 32.49 7.7c7.78 4.49 12.06 10.17 12.06 16s-4.28 11.52-12.06 16c-8.6 5-20.14 7.7-32.49 7.7s-23.89-2.74-32.49-7.7c-7.78-4.49-12.07-10.18-12.07-16s4.29-11.51 12.07-16z"/><path d="M176.28 429.28c19.26 11.12 50.49 11.12 69.75 0s19.26-29.15 0-40.27-50.49-11.12-69.75 0-19.28 29.15 0 40.27zm-9.68-20.14c0-5.83 4.28-11.51 12.06-16 8.6-5 20.14-7.7 32.49-7.7s23.89 2.73 32.5 7.7c7.77 4.49 12.06 10.17 12.06 16s-4.29 11.52-12.06 16c-8.61 5-20.15 7.7-32.5 7.7s-23.89-2.74-32.49-7.7c-7.77-4.48-12.06-10.14-12.06-16z" opacity=".3" fill="#fff"/><path class="cls-2" d="M166.6 409.14a13.34 13.34 0 001.92 6.72c2-3.39 5.4-6.57 10.15-9.3 8.59-5 20.13-7.7 32.49-7.7s23.89 2.73 32.48 7.7c4.74 2.73 8.19 5.91 10.15 9.3a13.34 13.34 0 001.92-6.72c0-5.83-4.28-11.51-12.07-16-8.59-5-20.14-7.7-32.48-7.7s-23.9 2.74-32.49 7.7c-7.79 4.49-12.07 10.17-12.07 16z"/><path class="cls-19" d="M166.6 409.14a13.34 13.34 0 001.92 6.72c2-3.39 5.4-6.57 10.15-9.3 8.59-5 20.13-7.7 32.49-7.7s23.89 2.73 32.48 7.7c4.74 2.73 8.19 5.91 10.15 9.3a13.34 13.34 0 001.92-6.72c0-5.83-4.28-11.51-12.07-16-8.59-5-20.14-7.7-32.48-7.7s-23.9 2.74-32.49 7.7c-7.79 4.49-12.07 10.17-12.07 16z"/><path d="M178.66 399.21c8.6-5 20.14-7.7 32.49-7.7s23.89 2.74 32.5 7.7c6.41 3.71 10.44 8.23 11.66 13-1.22 4.74-5.25 9.26-11.66 13-8.61 5-20.15 7.7-32.5 7.7s-23.89-2.74-32.49-7.7c-6.42-3.71-10.45-8.23-11.66-13 1.21-4.77 5.24-9.29 11.66-13z" opacity=".4" fill="#fff"/><path class="cls-19" d="M199.53 436.83v13.41a64.43 64.43 0 01-23.25-7.54c-9.63-5.56-14.45-12.85-14.45-20.14v-13.42a17 17 0 01.59-4.4c-2.34 8.67 2.28 17.85 13.85 24.54a65 65 0 0023.26 7.55z"/></g><g id="Character"><path class="cls-6" d="M434.61 354.86c.59.24.71 1.36.75 3.59 0 1.69.32 4.65-1.66 5.19s-4.88.18-6.11-1.44c-1.54-2-2.57-3.79-4.77-6.27-1.91-2.14-4-4.15-4.71-7.11-.65-2.68 0-3.82 1.81-4.56 2.52-1 6.36 2.56 8.31 3.15 1.67.51 5.77 7.21 6.38 7.45z"/><path class="cls-22" d="M434.66 352.8l-.06 2.73a6.68 6.68 0 01-6.92 0c-.12-.26-.63-3.93-.63-3.93z"/><path class="cls-6" d="M412.09 370.14s.73 2.4 1.11 4.49c.3 1.66.72 4.44.11 5.67s-2.89 2-6.39 1.88c-2.27-.07-5.84 1.39-8.3 2.69s-7.75 1.78-10.39 1.41c-3.11-.44-6.3-2.32-6.77-3.62s.22-2.63 7.64-5.6c.07 0 10.3-3.1 13.94-6.94z"/><path class="cls-22" d="M412.16 367.18s-.06 2-.08 3.19-1.42 2.86-5 2.65c-2.49-.14-4.22-.85-4.07-2.9l.07-3z"/><path class="cls-5" d="M437.26 316.51a74.16 74.16 0 00-2.91-14.33s1.25-12.28 2-23.94c.79-12.58 1.53-19.06-.95-37.24 0 0-38.59-3.47-39.64 11.08s.44 51.67.78 58.08 1.31 12.09 2.4 22.49 4.19 34.51 4.19 34.51a9.63 9.63 0 009.05 0s3.51-29.06 3.38-36.44a63.29 63.29 0 00-2.44-16.18s1-12 2-22.42 1.75-15.43 2-20l.88-.41s.49 18 .83 24.44 1.21 12.57 2.79 24.49C423 331 427.24 353 427.24 353c4.59 2.61 7.42-.16 7.42-.16s3.65-27.36 2.6-36.33z"/><path class="cls-6" d="M417.07 272.17s10-4.64 15-8.91c0 0-4.72 6.35-10.8 9.08 0 0-2.65 22.34-2.63 21.89l-.74-22.07z"/><path class="cls-22" d="M410.16 189.15l1.5 13.32 12.58-.63-1.39-15.55-12.69 2.86z"/><path class="cls-5" d="M429 194.25c4.68-.22 7.06.49 9.17 4.53s2.92 16.11 3.66 22.34.91 10.61-1.65 11.25-12.54.92-12.54.92z"/><path class="cls-7" d="M436.89 201.15c-.67-3.72-5.58-7.64-10.17-6.9l-3.11.53c-.55 2.24-6.69 3.64-12.56 2.26-1.77.47-7.59 1.56-9.07 2.05-4.21 1.4-6 5.55-6.61 19.3 0 0 .34 31.15.17 37.35 10.41 4.4 21.34 4.51 27.41 3.33 12.64-2.46 14.27-7.64 14.27-7.64l-1.88-14.25s3.09-27.59 1.55-36.03z"/><path class="cls-5" d="M410.65 193.54l.1.84a18.63 18.63 0 007.72 0c4.09-.91 4.92-2.06 4.92-2.06l-.09-1s1-.37 1.55 1.19a18.37 18.37 0 01.6 1.91s.47 2.87-4.34 4.33a14.89 14.89 0 01-12-1.31l-1.88.4s1.63-3.76 2.12-4.52a1.25 1.25 0 011.18-.66z"/><path class="cls-7" d="M372.24 179.25l-24.95 13.03 12.4 33.89 23.28-13.04-10.73-33.88z"/><path fill="#f5f5f5" d="M371.1 182.57l-20.94 10.93 10.98 29.14 19.53-10.94-9.57-29.13z"/><path class="cls-8" d="M366.68 185.72s-.18-.47-.41-1-2-.23-3.89.76l-3.68 1.91c-1.93 1-3.31 2.26-3.08 2.83l.4 1z"/><path class="cls-2" d="M366.27 181.57c-.13-.36-.89-.3-1.69.13l-1.44.78s-.89-2.24-4.21-.69-2.56 4.15-2.56 4.15l-1.53.84c-.85.47-1.45 1.14-1.35 1.5l.19.66 12.85-6.7z"/><path class="cls-2" d="M364.89 183.07c-1.2.59-1.67.88-1.33 1.76s.76 1.73.76 1.73l-5.68 3s-.47-1.28-.68-1.77-.63-.73-1.53-.26l-.34-.36 9-4.57z"/><path class="cls-13" d="M364.89 183.07c-1.2.59-1.67.88-1.33 1.76s.76 1.73.76 1.73l-5.68 3s-.47-1.28-.68-1.77-.63-.73-1.53-.26l-.34-.36 9-4.57z"/><path class="cls-2" d="M366.92 185.77l-.4-1c-.23-.58-2-.24-3.89.76l-3.69 1.9c-1.92 1-3.3 2.26-3.08 2.84l.41 1z"/><path class="cls-22" d="M402 199.09c-5.76.5-8.21 1.55-12.53 9.34-4.7 8.47-13.72 23.78-14.86 25.72-1.59 2.69-1.89 6.78-.52 9.25 1.28 2.31 5.35 3.36 10-1.85 5.49-6.2 15.7-21.34 15.7-21.34s8.62-11.44 2.21-21.12z"/><path class="cls-22" d="M376.46 245.17c-4.42-.53-14.73-14.52-17.66-19.09a32.59 32.59 0 00-8.94-9.43c-4.67-3.45-4-8.76-1.95-13.62.7-1.68 3.1-.59 3.1-.59l.84 2.31 1.46 4c1 .92 1.56 1.22 1.62.95.13-.52-.72-2.67-.7-4.91 0-2.69 1.91-.92 2.47 0a32.52 32.52 0 012 4.45c.94 2.41.56 4.85 1.7 6.49s16.53 16.39 16.53 16.39z"/><path class="cls-5" d="M403.09 198.78c-3.49-.08-7.68.48-10.93 4.7s-16.25 27.16-16.25 27.16l-7.29-6.54A12.71 12.71 0 00363 232a79.49 79.49 0 006.6 9c3.09 3.38 6.53 5.73 9.35 4.69s5.7-3.27 11.77-11.73 12.7-18.43 12.7-18.43 4.19-9.74-.33-16.75z"/><path class="cls-24" d="M401.29 172.84s-3.14 4.76-2.78 5.23 2.67.89 2.67.89z"/><path class="cls-6" d="M402.76 175.9a3.75 3.75 0 113.75-3.74 3.75 3.75 0 01-3.75 3.74zm0-6.66a2.92 2.92 0 102.91 2.92 2.92 2.92 0 00-2.91-2.92z"/><path class="cls-22" d="M410 159.65c-6.36 1.34-8.2 4.14-8.8 14.23-.62 10.56.46 13.87 1.84 15.29.94 1 6.14 1.14 8.76.41 3.29-.9 10.71-3.53 14.18-8.84 4.09-6.24 5.16-14.71.79-18.18-6.14-4.89-14.17-3.46-16.77-2.91z"/><path class="cls-24" d="M410.24 189.88l-.3-1.94a12.5 12.5 0 01-6.51 1.47c1.21.59 4.37.77 6.81.47z"/><path class="cls-6" d="M399.37 171.37l11.3 1.47-.45.79-10.85-1.41v-.85z"/><path class="cls-6" d="M400.14 163.73a3.68 3.68 0 001.44-.09 2.26 2.26 0 00.77 2.65 3.22 3.22 0 002.85.38 2.74 2.74 0 00-.31 2 3.18 3.18 0 003.29 2.38c.07 1.48.09 2.92 1.66 3.59 0 0 1-3.9 4.3-3.41s3.75 4.71 1.67 7.28-4 1.59-4 1.58c.19.09.26 1.34.32 1.57a11.92 11.92 0 00.85 2.14 10.17 10.17 0 003 3.48 7.32 7.32 0 006 1.66 6.45 6.45 0 004.35-3.49 3.66 3.66 0 01.7-1.27 4.21 4.21 0 011.62-.7 4.76 4.76 0 002.7-6.72 4.37 4.37 0 001.67-7.62 5.25 5.25 0 002.25-5.68 5.33 5.33 0 00-3.76-3.6c-1.29-.37-.79-.57-1.19-1.83a4.69 4.69 0 00-1.48-2.21 4.74 4.74 0 00-4.37-.81 4.44 4.44 0 00-3.18-3.41 4.26 4.26 0 00-2.24-.09c-.53.13-1.61.62-1.81 1.13-.67-.66-.89-1.53-1.7-2.12a4.83 4.83 0 00-7.1 1.51 5.92 5.92 0 00-4.44-1.86 4.85 4.85 0 00-4.05 2.47 4.12 4.12 0 00.55 4.62 4.79 4.79 0 00-2.46 2.12 3 3 0 00.35 3.32 2.56 2.56 0 001.24.93 4 4 0 00.51.1z"/><path class="cls-6" d="M409.78 176.83l.11-4.42a2.21 2.21 0 00-.11 4.42z"/></g></svg>