<svg xmlns="http://www.w3.org/2000/svg" xmlns:xlink="http://www.w3.org/1999/xlink" width="500" height="500" viewBox="34.398 20.965 432.919 436.095" fill="none"><style>.B{fill:#b9b9c5}.C{opacity:.3}.D{fill:#ef4351}.E{fill:#fefefe}.F{fill:#07074f}.G{fill:#687c94}.H{opacity:.1}.I{fill:#f5c2ac}.J{fill:#f0f0f0}</style><path d="M323.902 384.07a12.67 12.67 0 00-1.85-6.5l-.8-1.2-.05-.06a13.047 13.047 0 00-.86-1.06l-.1-.1a11.25 11.25 0 00-.93-.91l-.1-.07a9.205 9.205 0 00-1-.76l-.6-.33-.27-.12-.3-.14a4.5 4.5 0 00-.44-.14h-.12a3.41 3.41 0 00-.52-.1 3.27 3.27 0 00-1.91.3c-5.3 2.65-35.77 22.05-49.8 30.8l-6.95 4.22c-.208.12-.385.283-.52.48a.327.327 0 01-.05.08 2.16 2.16 0 00-.16.3c-.03.068-.053.138-.07.2-.033.088-.06.178-.08.27v.18l-1.15.63-1 .56a40.016 40.016 0 00-7.92-5.88c-9.62-5.55-22.36-8.6-35.88-8.6s-26.26 3.06-35.88 8.6c-10 5.75-15.44 13.52-15.44 21.87s5.48 16.1 15.44 21.87c9.62 5.55 22.36 8.6 35.88 8.6s26.26-3.05 35.88-8.6c10-5.76 15.44-13.52 15.44-21.87a20.05 20.05 0 00-3.26-10.8l.92-.5c.3.2.625.32.975.354a2.07 2.07 0 001.025-.164c4.76-2.62 51.16-22.4 60.65-27.5 1-.67 1.7-2 1.78-3.92zm-82 56.74c-8.3 4.8-19.5 7.43-31.5 7.43s-23.2-2.64-31.5-7.43c-7.13-4.12-11.06-9.2-11.06-14.27s3.93-10.16 11.06-14.27c8.3-4.8 19.48-7.44 31.5-7.44s23.2 2.64 31.5 7.44c7.13 4.1 11.06 9.18 11.06 14.27s-3.96 10.15-11.1 14.27h.05zM331 266.6l-47.06-27.23a9.58 9.58 0 00-4.33-1.036 9.567 9.567 0 00-4.33 1.036l-239.1 138c-2.4 1.38-2.4 3.62 0 5l47.07 27.23a9.57 9.57 0 008.66 0l89.6-51.73 13.78 8c7.3 4.2 19.1 4.2 26.4 0l41.05-23.53c7.3-4.2 7.3-11 0-15.25l-13.77-8 82-47.54c2.4-1.33 2.4-3.55.02-4.95zm78.94 128.9c25.488 0 46.15-11.932 46.15-26.65s-20.662-26.65-46.15-26.65-46.15 11.932-46.15 26.65 20.662 26.65 46.15 26.65z" fill="#e0e1e7"/><use xlink:href="#B" class="D"/><use xlink:href="#B" opacity=".04" class="F"/><path d="M438.29 343.16a.45.45 0 00.36-.45c-.72-17.76 5.06-32.5 16.7-42.64a.434.434 0 00.102-.134.44.44 0 00.044-.163.433.433 0 00-.24-.416.42.42 0 00-.163-.043.41.41 0 00-.167.022.425.425 0 00-.146.084c-11.86 10.3-17.74 25.3-17 43.33a.44.44 0 00.45.42l.05-.01z" fill="#fff"/><path d="M435 361.1a22.064 22.064 0 0011 3.06c6.7.16 9.16-3.36 9.16-3.36s-3.4-5.8-7.35-7a36.93 36.93 0 0112 3.13s4-.47 4.78-6.8c0 0-2.86-3.35-11.07-4.27a26.437 26.437 0 0111.87-1c.55.14 1.72-8 1.9-11.78s-1.27-3.5-4.2-3.87-12.66.44-14.23 2.24-1.75 7.26-1.75 7.26-2.1-2.8-2.06-5.55a10.26 10.26 0 00-6 1c-3 1.54-4 2.77-4.16 5.1s-.35 5.83.6 8.54c0 0-2.77-4.47-2.63-8.35a41.26 41.26 0 00-2.85 5.84c-1.3 3.4.24 11.63 5 15.8z" class="D"/><path d="M435.14 361.52a.413.413 0 00.3-.28c3.8-11.67 21.7-27 28.55-29.34a.43.43 0 00.15-.082c.044-.037.08-.083.104-.135s.04-.107.043-.165-.006-.114-.027-.168a.4.4 0 00-.082-.15.41.41 0 00-.299-.147.433.433 0 00-.17.027c-7 2.35-25.22 18-29.1 29.9a.44.44 0 00.28.55c.082.025.17.025.25 0z" fill="#fff"/><path d="M221.68 362l35.38-20.46c3.64-2.1 5.46-4.86 5.46-7.62V329l-33.3-18.9a7.83 7.83 0 01-2.486-2.63 7.83 7.83 0 01-1.034-3.469v-43.67l-61.7 35.7v43.6a7.763 7.763 0 003.53 6.1L195.27 362c7.3 4.16 19.12 4.16 26.4 0z" class="G"/><path d="M178.78 347.38v4.9l-11.32-6.52a7.79 7.79 0 01-3.52-6.1v-43.6l11.77-6.8.75 9.1-8.25 4.77v34.08a7.735 7.735 0 001.025 3.474 7.75 7.75 0 002.495 2.626l7.05 4.08z" class="F"/><path d="M168.21 337.2a7.8 7.8 0 001.03 3.47 7.79 7.79 0 002.489 2.63l23.54 13.7c7.3 4.2 19.1 4.2 26.4 0l35.4-20.45c7.3-4.2 7.3-11 0-15.24l-23.55-13.7a7.765 7.765 0 01-3.53-6.1v-34.08l-61.78 35.7v34.08z" class="B"/><path opacity=".15" d="M240.69 311.75l-7.17-4.14a7.765 7.765 0 01-3.53-6.1v-34.1l-61.78 35.7v34.08a7.8 7.8 0 001.03 3.47 7.79 7.79 0 002.489 2.63l7.05 4.06 61.9-35.62z" class="F"/><path d="M262.53 329v4.92c0 2.77-1.83 5.5-5.47 7.63L221.68 362a26.47 26.47 0 01-12.6 3.13v-4.9a26.47 26.47 0 0012.6-3.13l35.38-20.46c3.64-2.15 5.47-4.9 5.47-7.63z" class="G"/><path d="M69 384.26a9.475 9.475 0 008.53-.16l239-138a9.71 9.71 0 003.113-3.283 9.72 9.72 0 001.287-4.337V29.37a9.431 9.431 0 00-4.13-7.46 9.44 9.44 0 00-8.53.15l-239 138a9.6 9.6 0 00-3.1 3.284 9.73 9.73 0 00-1.29 4.336v209.1a9.45 9.45 0 001.174 4.228 9.46 9.46 0 002.956 3.242z" class="B"/><path d="M77.53 384.1l239-137.95c1.28-.835 2.346-1.96 3.1-3.284s1.206-2.8 1.3-4.336V29.37c0-2.8-2-3.95-4.4-2.54l-238.95 138a9.725 9.725 0 00-3.11 3.284 9.73 9.73 0 00-1.289 4.336v209.1c-.05 2.8 1.92 3.95 4.35 2.54z" class="G"/><use xlink:href="#C" fill="#a5aab1"/><use xlink:href="#C" opacity=".7" fill="#fff"/><path d="M196.55 306.65a2.586 2.586 0 01-1.32-.34 3.38 3.38 0 01-1.46-3.11 9.53 9.53 0 011.268-4.323 9.52 9.52 0 013.112-3.257 2.993 2.993 0 011.663-.686 2.99 2.99 0 011.757.389c.532.306.957.768 1.218 1.324a2.99 2.99 0 01.242 1.783 9.55 9.55 0 01-1.267 4.328 9.538 9.538 0 01-3.113 3.262c-.633.4-1.357.607-2.1.63zm3.7-10.65a3.28 3.28 0 00-1.59.5 8.58 8.58 0 00-2.742 2.897 8.59 8.59 0 00-1.138 3.823c-.135.433-.118.9.047 1.323a2 2 0 002.164 1.248c.45-.068.86-.287 1.17-.62a8.59 8.59 0 002.743-2.896 8.58 8.58 0 001.137-3.824 2.446 2.446 0 00-.2-1.254 2.44 2.44 0 00-.8-.986 1.63 1.63 0 00-.79-.21z" fill="#a5aab1"/><path d="M351.87 73.76L119.16 208v171.47a2.99 2.99 0 00.412 1.47 3 3 0 001.083 1.078c.448.26.956.4 1.474.405a3.01 3.01 0 001.481-.374l223.92-129.1a9.59 9.59 0 004.34-7.52V73.76z" class="J"/><path d="M350.87 75.5v169.93c-.084 1.33-.474 2.62-1.14 3.775s-1.6 2.138-2.7 2.875L123.1 381.18a1.93 1.93 0 01-1 .27 2 2 0 01-1.37-.56 1.928 1.928 0 01-.448-.648 1.93 1.93 0 01-.152-.772V208.54L350.87 75.5zm.98-1.68L119.16 208v171.47c0 .796.316 1.56.88 2.12a3 3 0 002.121.879 2.89 2.89 0 001.48-.4l223.9-129.13a9.59 9.59 0 004.34-7.52l-.02-171.6z" class="E"/><path opacity=".8" d="M346.35 70.58L113.62 204.76l5.54 3.2 232.7-134.2-5.52-3.18z" class="B"/><path d="M120.72 382.1a2.99 2.99 0 01-1.138-1.097 3 3 0 01-.422-1.523V208l-5.54-3.2v170.53c-.015.2-.015.42 0 .63a4.59 4.59 0 00.74 1.942c.392.583.91 1.068 1.52 1.418l4.57 2.65.23.12h.04z" fill="#ebebeb"/><g class="F"><use xlink:href="#D"/><use xlink:href="#D" class="C"/><use xlink:href="#E"/><use xlink:href="#E" opacity=".4"/><use xlink:href="#F"/><use xlink:href="#F" opacity=".5"/></g><path d="M341.7 73.33c0 1.3.9 1.82 2 1.17a4.393 4.393 0 001.42-1.52 4.52 4.52 0 00.58-2c0-1.3-.9-1.82-2-1.17a4.41 4.41 0 00-1.42 1.522 4.503 4.503 0 00-.58 1.998zM333.6 78c0 1.3.9 1.82 2 1.17a4.41 4.41 0 001.42-1.522 4.516 4.516 0 00.58-1.998c0-1.3-.9-1.82-2-1.17a4.41 4.41 0 00-1.42 1.522A4.503 4.503 0 00333.6 78zm-8.14 4.7c0 1.3.9 1.82 2 1.17a4.41 4.41 0 001.42-1.522 4.49 4.49 0 00.581-1.998c0-1.3-.9-1.82-2-1.17a4.48 4.48 0 00-2 3.52zM119.16 208v171.47a2.99 2.99 0 00.412 1.47 3 3 0 001.083 1.078c.448.26.956.4 1.474.405a3.01 3.01 0 001.481-.374l55-31.72V173.75L119.16 208zm63.5-31.35v166.5L347 248.3V81.78l-164.32 94.87z" fill="#fafafa"/><use xlink:href="#G" class="D"/><use xlink:href="#G" opacity=".8" fill="#fafafa"/><g class="B"><path d="M173.44 195.44l-1.1-1.08a4.98 4.98 0 00.35-1.78 2.1 2.1 0 00-.158-1.071 2.11 2.11 0 00-.672-.85 1.29 1.29 0 00-.688-.164c-.24.01-.473.088-.672.224a4.46 4.46 0 00-1.315 1.604 4.463 4.463 0 00-.445 2.026c-.04.366.016.735.164 1.072a2.1 2.1 0 00.676.848c.178.108.383.163.6.16.272-.004.538-.08.77-.22a3.12 3.12 0 001-1l.92.88a.39.39 0 00.136.098.387.387 0 00.164.032.46.46 0 00.175-.038.434.434 0 00.145-.102.41.41 0 00.099-.15.443.443 0 00.03-.177.42.42 0 00-.045-.173.426.426 0 00-.113-.14zm-2.95 0a.477.477 0 01-.23.095.48.48 0 01-.25-.035c-.2-.1-.4-.48-.4-1.16a3.64 3.64 0 01.33-1.586 3.63 3.63 0 01.989-1.284.59.59 0 01.3-.1.327.327 0 01.17 0c.18.1.4.47.4 1.16a3.67 3.67 0 01-.319 1.61 3.476 3.476 0 01-1 1.3v-.01zm-43.76 38.82l-.85.5s-.1 0-.1-.07v-2.3a.23.23 0 01.024-.1.215.215 0 01.066-.08l.85-.5s.1 0 .1.07v2.3a.23.23 0 01-.024.1.232.232 0 01-.066.08zM128 233.52l-.85.5c-.05 0-.1 0-.1-.07v-2.3a.204.204 0 01.09-.17l.85-.47c.05 0 .1 0 .1.06v2.3c-.004.03-.014.06-.03.084s-.036.048-.06.066z"/><use xlink:href="#H"/><path d="M126.73 237.23l-.85.5s-.1 0-.1-.07v-2.3a.23.23 0 01.024-.1.232.232 0 01.066-.08l.85-.5s.1 0 .1.07v2.3c0 .035-.01.07-.024.1a.23.23 0 01-.066.079zM128 236.5l-.85.5c-.05 0-.1 0-.1-.07v-2.3a.204.204 0 01.09-.17l.85-.44c.05 0 .1 0 .1.06v2.3a.22.22 0 01-.09.12z"/><use xlink:href="#H" y="2.97"/><path d="M126.86 245.07l-1-.63v-.2l1-1.85c0-.1.13-.08.13 0v2.5c.01.1-.08.2-.13.18z"/><path d="M126.42 243.66l1.38-.8v.65l-1.38.8c-.1.07-.2 0-.2-.2a.59.59 0 01.21-.45zm1.64-.94l.47-.27v.65l-.47.27v-.65zm1.74-.72v2.4a.54.54 0 01-.22.45c-.1.07-.2 0-.2-.2v-2.08l-.58.33v-.65l.8-.46c.12-.03.22.06.22.2zm-2.53 8.48a4.54 4.54 0 00-1.198 1.774 4.516 4.516 0 00-.252 2.126c.17 1.25.9 1.2 1 1.78 0 .07.05.1.1.07l.93-.53a.241.241 0 00.067-.075.23.23 0 00.033-.095c.1-.77 1.05-1.7 1.05-3.57.01-1.43-.78-2.13-1.72-1.48zM127.83 257.2l-.9.52c-.06 0-.1 0-.1-.1v-.82a.29.29 0 01.03-.123.3.3 0 01.08-.097l.9-.52c.06 0 .1 0 .1.1v.84a.26.26 0 01-.11.2zm-.34-26.2a5.46 5.46 0 00-1.63 3.46 3.66 3.66 0 00.23 1.88l-.3 1.58c0 .13 0 .2.12.1l.9-1a1.41 1.41 0 001.32-.38 5.46 5.46 0 001.63-3.46c.23-2.2-.93-3.28-2.28-2.2zm.32 5.16c-.83.48-1.5-.17-1.5-1.46a4.01 4.01 0 01.382-1.776 3.996 3.996 0 011.128-1.424c.84-.48 1.52.17 1.52 1.46a3.99 3.99 0 01-.382 1.789 3.994 3.994 0 01-1.138 1.43v-.02zm-.32 25.2a5.43 5.43 0 00-1.63 3.45c-.1.64-.01 1.3.23 1.9l-.3 1.57c0 .13 0 .2.12.12l.9-1a1.41 1.41 0 001.32-.38 5.484 5.484 0 001.63-3.46c.23-2.2-.93-3.3-2.28-2.2zm.32 5.16c-.83.48-1.5-.17-1.5-1.46a4.01 4.01 0 01.382-1.776 3.996 3.996 0 011.128-1.424c.84-.48 1.52.17 1.52 1.46a4.003 4.003 0 01-1.52 3.2zm.96 5.97a2.11 2.11 0 01-.201.939c-.14.293-.344.55-.6.75-.44.26-.8-.1-.8-.77a2.123 2.123 0 01.205-.937 2.12 2.12 0 01.595-.753c.44-.25.8.1.8.77zM130.14 272.73c.004.217-.042.43-.134.627a1.41 1.41 0 01-.396.503c-.3.17-.54-.06-.54-.5a1.4 1.4 0 01.136-.629c.094-.196.232-.367.404-.5.3-.17.53.06.53.5zm-1.24 4.6l-1.9 1.08V276a1.65 1.65 0 01.19-.737 1.66 1.66 0 01.5-.573l.52-.3c.37-.2.68 0 .68.52v2.43zM129.7 274.14l-.52.3v2.75l1-.57v-2.14c-.02-.34-.23-.48-.48-.34zm-3.9 1.1c0 .45.24.68.53.5.168-.133.304-.304.396-.498a1.42 1.42 0 00.134-.622c0-.46-.24-.7-.53-.52a1.44 1.44 0 00-.395.504c-.092.196-.138.4-.135.626zM126.25 276.12l.5-.3v2.76l-1 .56V277c.005-.175.052-.347.137-.5a1.09 1.09 0 01.353-.38z"/></g><path d="M135 228.86L157.22 216c.6-.35 1.08-.1 1.08.55a2.325 2.325 0 01-.325 1.03 2.32 2.32 0 01-.755.771L135 231.2c-.6.34-1.08.1-1.08-.55.026-.364.137-.716.325-1.03a2.31 2.31 0 01.755-.771zm0 10.44l22.2-12.82c.6-.34 1.08-.1 1.08.55a2.325 2.325 0 01-.325 1.03 2.31 2.31 0 01-.755.771L135 241.66c-.6.34-1.08.1-1.08-.55.026-.364.137-.716.325-1.03a2.31 2.31 0 01.755-.771zm0 10.47L157.22 237c.6-.35 1.08-.1 1.08.54a2.307 2.307 0 01-.324 1.03 2.31 2.31 0 01-.756.77L135 252.1c-.6.35-1.08.1-1.08-.55a2.3 2.3 0 011.08-1.79zm0 10.45l22.2-12.82c.6-.35 1.08-.1 1.08.55a2.297 2.297 0 01-.325 1.025 2.3 2.3 0 01-.755.765L135 262.57c-.6.34-1.08.1-1.08-.55.025-.364.136-.717.324-1.03a2.32 2.32 0 01.756-.77zm0 10.45l22.2-12.82c.6-.34 1.08-.1 1.08.55a2.325 2.325 0 01-.325 1.03 2.31 2.31 0 01-.755.771L135 273c-.6.34-1.08.1-1.08-.55a2.33 2.33 0 01.329-1.018c.188-.3.445-.57.75-.762z" class="E"/><path d="M139.07 279.2l22.2-12.82c.6-.35 1.08-.1 1.08.54a2.307 2.307 0 01-.324 1.03 2.29 2.29 0 01-.756.77l-22.2 12.82c-.6.35-1.08.1-1.08-.54.025-.364.136-.717.324-1.03a2.31 2.31 0 01.756-.77z" class="B"/><path d="M139.07 286.27l22.2-12.82c.6-.35 1.08-.1 1.08.55a2.3 2.3 0 01-.325 1.025 2.29 2.29 0 01-.755.765l-22.2 12.82c-.6.35-1.08.1-1.08-.54.025-.364.136-.717.324-1.03a2.31 2.31 0 01.756-.77zm0 7.06l22.2-12.82c.6-.35 1.08-.1 1.08.55a2.297 2.297 0 01-.325 1.025 2.29 2.29 0 01-.755.765l-22.2 12.83c-.6.34-1.08.1-1.08-.55.026-.364.137-.716.325-1.03a2.32 2.32 0 01.755-.771zm4.32 4.5L165.6 285c.6-.35 1.08-.1 1.08.54a2.32 2.32 0 01-.324 1.03 2.31 2.31 0 01-.756.77l-22.2 12.82c-.6.35-1.08.1-1.08-.54a2.32 2.32 0 01.325-1.028 2.33 2.33 0 01.755-.772z" class="E"/><path d="M138.2 303.9l1.8-3.18c.07-.12.07-.28 0-.32l-1.8-1.1c-.08-.05-.2.1-.2.28v4.28c.01.15.13.2.2.04z" class="B"/><path d="M143.39 304.85L165.6 292c.6-.34 1.08-.1 1.08.55a2.33 2.33 0 01-1.08 1.8l-22.2 12.85c-.6.35-1.08.1-1.08-.55a2.35 2.35 0 011.08-1.8z" class="E"/><path d="M138.2 310.93l1.8-3.18c.07-.12.07-.28 0-.33l-1.8-1.1c-.08-.05-.2.12-.2.3v4.28c.01.17.13.2.2.04z" class="B"/><path d="M143.39 311.9l22.2-12.82c.6-.35 1.08-.1 1.08.55a2.33 2.33 0 01-1.08 1.8l-22.2 12.82c-.6.34-1.08.1-1.08-.55a2.35 2.35 0 011.08-1.8z" class="E"/><path d="M138.2 318l1.8-3.2c.07-.12.07-.28 0-.32l-1.8-1.1c-.08-.05-.2.12-.2.3v4.28c.01.14.13.16.2.04z" class="B"/><path d="M143.39 318.93l22.2-12.82c.6-.35 1.08-.1 1.08.54a2.32 2.32 0 01-.324 1.03 2.31 2.31 0 01-.756.77l-22.2 12.82c-.6.35-1.08.1-1.08-.54a2.33 2.33 0 01.325-1.029 2.34 2.34 0 01.755-.771z" class="E"/><path d="M138.2 325l1.8-3.18c.07-.12.07-.28 0-.32l-1.8-1.1c-.08-.06-.2.1-.2.28V325c.01.13.13.16.2 0z" class="B"/><path d="M143.39 326l22.2-12.82c.6-.34 1.08-.1 1.08.55a2.334 2.334 0 01-.325 1.03 2.33 2.33 0 01-.755.771l-22.2 12.82c-.6.34-1.08.1-1.08-.55a2.35 2.35 0 01.327-1.027c.188-.312.445-.577.753-.773z" class="E"/><path d="M138.2 332l1.8-3.18c.07-.12.07-.28 0-.33l-1.8-1.1c-.08-.05-.2.12-.2.3V332c.01.17.13.2.2 0z" class="B"/><path d="M143.39 333l22.2-12.82c.6-.35 1.08-.1 1.08.55a2.314 2.314 0 01-.325 1.025 2.31 2.31 0 01-.755.765l-22.2 12.83c-.6.34-1.08.1-1.08-.55a2.35 2.35 0 011.08-1.8z" class="E"/><path d="M138.2 339.08l1.8-3.2c.07-.12.07-.28 0-.32l-1.8-1.1c-.08-.05-.2.12-.2.3V339c.01.2.13.23.2.08z" class="B"/><path d="M143.39 340l22.2-12.82c.6-.35 1.08-.1 1.08.54a2.32 2.32 0 01-.324 1.03 2.31 2.31 0 01-.756.77l-22.2 12.82c-.6.35-1.08.1-1.08-.55a2.32 2.32 0 01.328-1.023c.187-.31.445-.573.752-.767z" class="E"/><path d="M138.2 346.1l1.8-3.18c.07-.12.07-.28 0-.32l-1.8-1.1c-.08-.06-.2.1-.2.28v4.28c.01.17.13.2.2.04z" class="B"/><path d="M143.39 347.07l22.2-12.82c.6-.34 1.08-.1 1.08.55a2.33 2.33 0 01-1.08 1.8l-22.2 12.82c-.6.34-1.08.1-1.08-.55a2.35 2.35 0 011.08-1.8z" class="E"/><path d="M138.2 353.15L140 350c.07-.12.07-.28 0-.33l-1.8-1.1c-.08-.05-.2.12-.2.3v4.28c.02.14.14.16.22.01z" class="B"/><path d="M187.82 199.48l73-42.14c.315-.205.576-.48.764-.806a2.39 2.39 0 00.316-1.064v-18.6c0-.7-.5-1-1.08-.62l-73 42.13c-.316.203-.58.48-.77.804s-.3.7-.32 1.066v18.62c0 .7.5.97 1.1.62z" class="J"/><g class="B"><path d="M194.18 186.35l.48-2-.66.38v-.42a.165.165 0 010-.07v-.06l1.06-.6c.005.02.005.04 0 .06v.5l-.48 2v.07a.106.106 0 010 .05l-.32.18c-.012 0-.023-.002-.033-.007a.076.076 0 01-.044-.05.08.08 0 01-.003-.034zM196 183a.46.46 0 01.29-.09.3.3 0 01.2.08.5.5 0 01.11.23 1.82 1.82 0 010 .33v.6a2.41 2.41 0 010 .38 2.48 2.48 0 01-.1.36c-.057.112-.124.22-.2.32a1.205 1.205 0 01-.3.24.745.745 0 01-.3.1.34.34 0 01-.19-.09.425.425 0 01-.12-.23 1.82 1.82 0 010-.33v-.6a2.41 2.41 0 010-.38 1.2 1.2 0 01.12-.37 1.59 1.59 0 01.19-.31 1.1 1.1 0 01.29-.24zm.24 1.38v-.58a.75.75 0 000-.15.28.28 0 000-.1.082.082 0 00-.07 0h-.1a.55.55 0 00-.11.1.44.44 0 00-.07.12.75.75 0 000 .15v.9a.24.24 0 000 .1.105.105 0 00.07 0 .143.143 0 00.1 0 .35.35 0 00.11-.1.286.286 0 00.07-.12.42.42 0 000-.15.92.92 0 00-.05-.17l.05.01zm1.26-1.52v-.26a.713.713 0 000-.16l-.06-.12a.124.124 0 00-.1 0 .256.256 0 00-.15 0 .46.46 0 00-.15.12.435.435 0 00-.1.17.64.64 0 00-.06.19.67.67 0 000 .2v.26c-.01.06-.01.12 0 .18.006.043.027.083.06.1.018.008.036.01.055.01s.038-.003.055-.01a.38.38 0 00.15 0 .62.62 0 00.15-.13.515.515 0 00.1-.16.7.7 0 00.06-.19 1.47 1.47 0 000-.21zm.54-1.06v.07l-1.1 2.9.18-.1a.11.11 0 00.05-.05v-.06l1.1-2.86-.18.1a.106.106 0 00-.05 0zm-3.87-1.18l-.73-1.13a14.44 14.44 0 00-1.73 4.67l1.18-.1a10.93 10.93 0 011.28-3.44zM196.24 178.38v-1.9a8.17 8.17 0 00-2.8 3l.73 1.13a6.124 6.124 0 012.07-2.22zm-3.52 7.46c.003-.597.06-1.193.17-1.78l-1.18.1c-.158.8-.24 1.594-.24 2.4a8.73 8.73 0 00.24 2.13l1.18-1.28a6.853 6.853 0 01-.17-1.57z"/></g><path d="M200.77 178.92c-.1-.54-.29-1.055-.588-1.514s-.686-.853-1.142-1.156a2.82 2.82 0 00-1.43-.265c-.49.04-.964.206-1.37.485v1.9a2.08 2.08 0 011.015-.351c.363-.027.727.043 1.055.2a2.94 2.94 0 01.852.865c.22.344.366.73.428 1.135.117.515.174 1.042.17 1.57a9.847 9.847 0 01-.17 1.78 11.17 11.17 0 01-1.28 3.44 6.275 6.275 0 01-2.07 2.24 2.06 2.06 0 01-2.07.15 2.89 2.89 0 01-1.28-2l-1.18 1.28c.085.542.283 1.06.58 1.52s.7.852 1.15 1.15a2.79 2.79 0 001.43.27 2.78 2.78 0 001.37-.49 8.325 8.325 0 002.8-3 14.64 14.64 0 001.73-4.66c.15-.794.228-1.6.23-2.4a9.2 9.2 0 00-.23-2.15z" class="D"/><path d="M208.13 173.68l22.2-12.82c.6-.35 1.1-.1 1.1.54-.027.365-.14.718-.33 1.03a2.33 2.33 0 01-.761.769l-22.2 12.8c-.6.35-1.1.1-1.1-.54a2.32 2.32 0 01.334-1.02c.19-.31.448-.57.756-.76z" class="B"/><path d="M208.13 178.4l38.45-22.2c.6-.35 1.08-.1 1.08.55a2.3 2.3 0 01-1.08 1.79l-38.45 22.2c-.6.35-1.1.1-1.1-.55a2.32 2.32 0 01.33-1.026c.2-.31.45-.573.76-.764z" class="E"/><path d="M267 153.75l73-42.14a2.39 2.39 0 00.764-.811 2.4 2.4 0 00.316-1.069v-18.6c0-.7-.48-1-1.08-.62l-73 42.13a2.4 2.4 0 00-1.08 1.88v18.6c.02.7.5.97 1.08.63z" class="J"/><path d="M273.74 138.9c.001-.132.02-.264.06-.4a1.34 1.34 0 01.14-.35c.06-.104.13-.202.2-.3a1.48 1.48 0 01.24-.2.98.98 0 01.24-.08.36.36 0 01.21.05.45.45 0 01.15.18 1 1 0 01.05.33c.005.063.005.127 0 .2a1.08 1.08 0 010 .18 1.23 1.23 0 01-.05.17l-.06.16-.42 1.14a.151.151 0 000 .06.11.11 0 01-.05.05l-.35.2a.07.07 0 01-.005-.025.07.07 0 01.005-.025l.3-.77a.45.45 0 01-.2 0 .262.262 0 01-.17-.07.41.41 0 01-.12-.18.814.814 0 01-.16-.33zm.9-.5a.345.345 0 000-.12c-.004-.013-.01-.025-.02-.035s-.02-.02-.03-.025h-.08a.17.17 0 00-.1 0l-.1.07-.07.1a.51.51 0 00-.06.13.565.565 0 000 .13.402.402 0 000 .12s0 .05.06.06h.07c.03.01.06.01.1 0 .035-.02.066-.048.1-.08s.06-.062.08-.1a.48.48 0 00.05-.13.565.565 0 000-.13zm1.24-1.57a.44.44 0 01.28-.09.284.284 0 01.2.08.62.62 0 01.12.23 1.14 1.14 0 010 .33v.6c.014.126.014.254 0 .38-.03.123-.07.243-.12.36s-.12.222-.2.32a1.31 1.31 0 01-.28.24.79.79 0 01-.3.1.34.34 0 01-.2-.09.536.536 0 01-.12-.23 1.71 1.71 0 010-.32v-.6a2.41 2.41 0 010-.38 2.42 2.42 0 01.12-.37c.05-.112.12-.217.2-.3s.18-.18.3-.24zm.23 1.38a5.61 5.61 0 000-.58.655.655 0 000-.14.29.29 0 000-.11.105.105 0 00-.07 0h-.1a.26.26 0 00-.1.1c-.02.04-.057.078-.08.12v.32a5.42 5.42 0 000 .57v.15a.557.557 0 000 .1c.012.006.026.01.04.01s.028-.004.04-.01h.1l.1-.1a.495.495 0 00.07-.13.75.75 0 000-.15.855.855 0 000-.16zm1.3-1.77a1.13 1.13 0 010 .26 1.47 1.47 0 010 .21l-.07.2c-.028.072-.06.1-.1.16a.647.647 0 01-.16.13.295.295 0 01-.15.05.17.17 0 01-.1 0 .37.37 0 01-.07-.12.9.9 0 010-.18.48.48 0 010-.12.82.82 0 010-.14 1.335 1.335 0 010-.2 1.17 1.17 0 01.07-.19.62.62 0 01.1-.17.823.823 0 01.15-.12.36.36 0 01.16 0c.016-.007.033-.01.05-.01s.035.003.05.01a.37.37 0 01.07.12.8.8 0 010 .12zm.56-.72v-.07h.05l.18-.1-1.1 2.86a.3.3 0 010 .06v.05l-.18.1 1.04-2.9zm-1 1.22v.12c0 .02 0 0 .06 0a.103.103 0 00.047-.03.1.1 0 00.023-.05v-.37a.48.48 0 000-.12h-.07a.15.15 0 00-.06.1.47.47 0 000 .14v.22zm1.47.1a1.13 1.13 0 010 .26 1.47 1.47 0 010 .21l-.07.2c-.028.072-.064.113-.1.16a.37.37 0 01-.15.13.293.293 0 01-.15 0c-.015.007-.032.01-.05.01s-.034-.004-.05-.01a.37.37 0 01-.07-.12.965.965 0 010-.17.87.87 0 010-.26 1.47 1.47 0 010-.21 1.17 1.17 0 01.07-.19.46.46 0 01.1-.16.58.58 0 01.15-.13.38.38 0 01.15 0 .15.15 0 01.055-.011c.02 0 .038.004.055.01a.37.37 0 01.07.12.706.706 0 010 .13v.04zm-.44.5v.12c0 .02 0 0 .06 0a.103.103 0 00.047-.03.1.1 0 00.023-.05.54.54 0 000-.15.81.81 0 000-.22.27.27 0 000-.12h-.07a.15.15 0 00-.06.1.47.47 0 000 .14v.22zm-1.9-5.28v-1.9a8.153 8.153 0 00-2.8 3l.73 1.13a6.107 6.107 0 012.07-2.22z" class="B"/><path d="M280.63 132.8a3.94 3.94 0 00-.584-1.517 3.935 3.935 0 00-1.146-1.153 2.78 2.78 0 00-1.43-.269 2.77 2.77 0 00-1.37.489v1.9c.3-.206.65-.328 1.015-.355a2.07 2.07 0 011.055.205 2.94 2.94 0 01.852.865c.22.344.366.73.428 1.135.117.515.174 1.042.17 1.57a9.937 9.937 0 01-.17 1.78 10.92 10.92 0 01-1.28 3.44 6.284 6.284 0 01-2.07 2.24 2.064 2.064 0 01-2.07.15 2.88 2.88 0 01-.854-.863 2.902 2.902 0 01-.426-1.137 6.744 6.744 0 01-.17-1.57c.002-.597.06-1.193.17-1.78a10.92 10.92 0 011.25-3.44l-.73-1.13a14.498 14.498 0 00-1.73 4.66 13.17 13.17 0 00-.24 2.41 9.143 9.143 0 00.24 2.13 3.88 3.88 0 001.73 2.67 2.79 2.79 0 001.43.27 2.78 2.78 0 001.37-.49 8.25 8.25 0 002.8-3 14.705 14.705 0 001.73-4.66 13.25 13.25 0 00.23-2.41 9.19 9.19 0 00-.2-2.15z" class="D"/><path d="M288 127.56l22.2-12.83c.6-.34 1.08-.1 1.08.55a2.33 2.33 0 01-.326 1.029 2.322 2.322 0 01-.754.77L288 129.9c-.6.35-1.08.1-1.08-.55a2.3 2.3 0 011.08-1.79z" class="B"/><path d="M288 132.28l38.45-22.2c.6-.35 1.1-.1 1.1.55a2.32 2.32 0 01-.33 1.026c-.2.31-.45.573-.76.764L288 134.63c-.6.34-1.08.1-1.08-.55.026-.364.137-.716.325-1.03a2.31 2.31 0 01.755-.771z" class="E"/><path d="M195.25 204.6l15.58-9c.6-.35 1.08-.1 1.08.54a2.307 2.307 0 01-.324 1.03 2.31 2.31 0 01-.756.77l-15.58 9c-.6.35-1.08.1-1.08-.55.026-.362.137-.713.325-1.025a2.3 2.3 0 01.755-.765z" class="B"/><path d="M340.1 126.8v119a1.38 1.38 0 01-.58 1l-151.78 87.6v-119a1.46 1.46 0 01.19-.562 1.47 1.47 0 01.4-.438l1.9-1.1a3.38 3.38 0 001.135-1.173 3.377 3.377 0 00.455-1.567v-6.86a1.4 1.4 0 01.182-.563 1.39 1.39 0 01.398-.437l21.8-12.58v6.4a1.64 1.64 0 00.415 1.233c.15.166.333.3.537.392a1.63 1.63 0 00.648.145c.353-.004.698-.1 1-.28l123.3-71.2zm.4-1.26a1 1 0 00-.48.15l-123.76 71.45a.9.9 0 01-.48.15c-.36 0-.6-.3-.6-.77v-6.9c0-.5-.25-.77-.6-.77a1 1 0 00-.48.15l-22.2 12.82a2.42 2.42 0 00-.764.811 2.4 2.4 0 00-.316 1.069v6.88a2.36 2.36 0 01-.32 1.066 2.37 2.37 0 01-.77.804l-1.9 1.1c-.316.203-.58.48-.77.804s-.3.7-.32 1.066v119.45c0 .5.25.78.6.78a1 1 0 00.49-.15L340 247.63c.315-.204.577-.48.765-.805a2.38 2.38 0 00.315-1.065V126.3c0-.5-.24-.77-.6-.77h.01zM196.52 220.6a1.057 1.057 0 01-.53-.13 1.27 1.27 0 01-.438-.493 1.28 1.28 0 01-.132-.647v-4.53a2.89 2.89 0 01.389-1.318 2.92 2.92 0 01.95-.992l12.07-7a1.25 1.25 0 01.62-.211c.22-.014.442.03.64.13a1.27 1.27 0 01.439.493 1.26 1.26 0 01.13.647v4.53a2.89 2.89 0 01-.388 1.32c-.233.403-.56.742-.952 1l-12.06 7a1.41 1.41 0 01-.74.2zm.74-7.24c-.242.158-.444.37-.6.62s-.23.53-.25.82v4.53a.392.392 0 00.07.27.385.385 0 00.27-.08l12.07-6.95a1.89 1.89 0 00.58-.63 1.91 1.91 0 00.249-.82v-4.53a.38.38 0 00-.07-.27.388.388 0 00-.27.08l-12.06 6.96zm.74 1.87l7.87-4.56c.4-.23.72-.07.72.36a1.52 1.52 0 01-.72 1.2L198 216.8c-.4.23-.72.06-.72-.37a1.56 1.56 0 01.217-.686c.125-.208.298-.384.503-.514z" class="E"/><path d="M207.67 209.92l.65.93s.07 0 .1-.06l.65-1.68V209l-1.3.75a.16.16 0 00-.1.18z" class="B"/><g class="D"><use xlink:href="#I"/><use xlink:href="#J"/><path d="M211.1 250.5c.57-.33 1-.06 1 .6a2.31 2.31 0 01-1 1.81c-.58.33-1.05.06-1.05-.6a2.29 2.29 0 011.05-1.809zm8.12-2.64c.58-.33 1-.06 1 .6a2.19 2.19 0 01-.284 1.024c-.184.324-.42.584-.716.786-.58.33-1 .06-1-.6.014-.36.1-.7.285-1.024s.42-.584.715-.786zm8.13-8.46c.58-.33 1-.06 1 .6a2.28 2.28 0 01-1 1.799c-.57.34-1 .07-1-.6a2.21 2.21 0 01.3-1.02c.184-.313.416-.584.7-.8zm8.12-2.98c.58-.33 1-.06 1 .6a2.19 2.19 0 01-.284 1.024c-.184.324-.42.584-.716.786-.58.33-1 .06-1-.6.014-.36.1-.7.285-1.024s.42-.584.715-.786zm8.12-9.42c.58-.34 1.05-.07 1.05.6-.02.363-.126.716-.3 1.03a2.31 2.31 0 01-.741.779c-.57.33-1 .06-1-.6.016-.357.114-.705.288-1.018a2.3 2.3 0 01.712-.782zm8.13-2.3c.57-.33 1-.06 1 .6a2.306 2.306 0 01-.288 1.018 2.3 2.3 0 01-.712.782c-.58.34-1 .07-1-.6a2.31 2.31 0 011-1.81zm8.12-25.8c.58-.33 1-.06 1 .6-.017.358-.115.708-.3 1.022s-.417.584-.7.788c-.58.33-1 .06-1-.6a2.31 2.31 0 01.287-1.022c.173-.315.417-.584.713-.788zM268 213c.57-.34 1-.07 1 .6a2.35 2.35 0 01-.289 1.022 2.434 2.434 0 01-.7.788c-.58.33-1.05.06-1.05-.6a2.28 2.28 0 01.309-1.026c.182-.313.436-.578.74-.774zm8.1 0c.58-.34 1-.07 1 .6-.016.36-.114.7-.288 1.023s-.417.583-.712.787c-.58.33-1 .06-1-.6a2.26 2.26 0 01.285-1.02 2.28 2.28 0 01.715-.781zm8.12 0c.58-.34 1-.07 1 .6a2.31 2.31 0 01-.29 1.022 2.437 2.437 0 01-.7.788c-.57.33-1 .06-1-.6a2.32 2.32 0 01.288-1.018 2.31 2.31 0 01.712-.782zm8.13-14.1c.57-.34 1-.07 1 .6a2.34 2.34 0 01-.289 1.021 2.35 2.35 0 01-.711.789c-.58.33-1.05.06-1.05-.6a2.29 2.29 0 01.308-1.026 2.3 2.3 0 01.742-.774zm8.12-2.7c.58-.33 1-.06 1 .6-.013.36-.1.7-.284 1.024a2.22 2.22 0 01-.716.786c-.58.33-1 .06-1-.6a2.19 2.19 0 01.284-1.024c.184-.324.42-.584.716-.786zm8.15-11.38c.58-.33 1.05-.06 1.05.6a2.29 2.29 0 01-.308 1.026 2.3 2.3 0 01-.742.774c-.57.34-1 .07-1-.6a2.34 2.34 0 01.289-1.021 2.35 2.35 0 01.711-.789zm8.844 1.653c.4-.708.4-1.472.004-1.707s-1.067.15-1.476.857-.4 1.472-.004 1.706 1.068-.15 1.476-.856zm8.13-.003c.4-.707.4-1.472.004-1.706s-1.067.148-1.476.856-.4 1.472-.004 1.707 1.067-.15 1.476-.857z"/><use xlink:href="#K"/><path d="M194.84 266a.27.27 0 01-.17-.06.26.26 0 01-.072-.18c0-.067.026-.13.072-.18l8.2-9.42.07-.06 8.06-4.65 8.1-2.63 8.08-8.4.1-.06 8.06-3 8.08-9.33a.44.44 0 01.12-.08l8-2.3L259.6 200a.263.263 0 01.21-.18c.047-.007.1.007.143.03s.08.058.107.1l8.05 13.94h16l8-13.9a.244.244 0 01.14-.12l8.05-2.67 8.07-11.3c.025-.03.057-.056.094-.074s.076-.026.116-.026h16.18l8.06-4.66a.266.266 0 01.193-.026.26.26 0 01.157.116.26.26 0 01.017.19.262.262 0 01-.117.15l-8.12 4.7a.285.285 0 01-.13 0H308.7l-8.05 11.27a.22.22 0 01-.12.09l-8 2.67-8.08 14a.26.26 0 01-.095.088.267.267 0 01-.125.032H268c-.042-.001-.083-.013-.12-.034s-.067-.05-.1-.086l-7.84-13.58L252 226a.274.274 0 01-.067.104.28.28 0 01-.103.066l-8.06 2.32-8.07 9.33-.1.07-8.08 3-8.08 8.4a.21.21 0 01-.1.06L211.2 252l-8 4.62-8.2 9.33a.246.246 0 01-.16.06z"/></g><path d="M194.86 271a.505.505 0 01-.43-.25.51.51 0 01-.05-.382.502.502 0 01.23-.308l138.1-79.73c.113-.05.24-.058.36-.02a.497.497 0 01.337.58.5.5 0 01-.196.301l-138.1 79.7a.46.46 0 01-.25.11z" class="E"/><g class="D"><use xlink:href="#I" y="-4.69"/><use xlink:href="#J" y="-9.38"/><use xlink:href="#L"/><use xlink:href="#M"/><use xlink:href="#N"/><use xlink:href="#O"/><use xlink:href="#P"/><use xlink:href="#Q"/><use xlink:href="#R"/><path d="M268 203.6c.58-.34 1-.07 1 .6a2.335 2.335 0 01-.288 1.022A2.33 2.33 0 01268 206c-.57.33-1 .06-1-.6a2.31 2.31 0 01.288-1.017c.174-.313.417-.58.712-.783zm8.1 0c.58-.34 1-.07 1 .6-.016.36-.114.7-.288 1.023s-.417.583-.712.787c-.58.33-1 .06-1-.6a2.26 2.26 0 01.285-1.02 2.28 2.28 0 01.715-.781z"/><use xlink:href="#S"/><use xlink:href="#T"/><use xlink:href="#U"/><use xlink:href="#V"/><use xlink:href="#W"/><use xlink:href="#X"/><use xlink:href="#K" y="-4.69"/><use xlink:href="#Y"/><g class="C"><use xlink:href="#I" y="-4.69" class="C"/><path d="M203.002 245.8c.58-.33 1.05-.06 1.05.6a2.295 2.295 0 01-1.05 1.81c-.57.33-1 .06-1-.6a2.32 2.32 0 01.286-1.023 2.32 2.32 0 01.714-.787z" class="C"/><use xlink:href="#L" class="C"/><use xlink:href="#M" class="C"/><use xlink:href="#N" class="C"/><use xlink:href="#O" class="C"/><use xlink:href="#P" x=".002" class="C"/><use xlink:href="#Q" class="C"/><use xlink:href="#R" x=".002" class="C"/><path d="M268.002 203.6c.58-.34 1-.07 1 .6a2.335 2.335 0 01-.288 1.022 2.33 2.33 0 01-.712.788c-.57.33-1 .06-1-.6a2.31 2.31 0 01.288-1.017c.174-.313.417-.58.712-.783zm8.1 0c.58-.34 1-.07 1 .6-.016.36-.114.7-.288 1.023s-.417.583-.712.787c-.58.33-1 .06-1-.6a2.26 2.26 0 01.285-1.02 2.27 2.27 0 01.715-.781z" class="C"/><use xlink:href="#S" class="C"/><use xlink:href="#T" class="C"/><use xlink:href="#U" class="C"/><use xlink:href="#V" class="C"/><use xlink:href="#W" class="C"/><use xlink:href="#X" x=".002" class="C"/><use xlink:href="#K" y="-4.69" class="C"/><use xlink:href="#Y" class="C"/></g></g><path d="M199.1 225.07l7.9-4.57c.4-.23.72-.07.72.37a1.53 1.53 0 01-.217.682c-.125.206-.297.38-.503.508l-7.87 4.57c-.4.23-.72.07-.72-.37.018-.24.1-.47.21-.677a1.57 1.57 0 01.489-.513z" class="E"/><use xlink:href="#Z" class="D"/><use xlink:href="#Z" class="C F"/><path d="M199.11 229.74l7.87-4.56c.4-.23.72-.07.72.36a1.67 1.67 0 01-.215.687 1.53 1.53 0 01-.505.513l-7.87 4.57c-.4.23-.72.06-.72-.37.02-.242.094-.476.22-.685a1.56 1.56 0 01.501-.515z" class="E"/><path d="M194.86 231.73c.58-.33 1-.07 1 .6-.013.36-.1.7-.285 1.024s-.418.584-.715.786c-.58.33-1.05.06-1.05-.6a2.29 2.29 0 011.05-1.809zm0 62.5a.26.26 0 01-.17-.07c-.024-.023-.044-.05-.057-.082a.256.256 0 010-.196.237.237 0 01.057-.082l4.12-4.24 4-.5 4.1-5.28 4.1.56 4-3.6 4.06-2.43 4.13-5.73 4.1 1.3 3.95-3.53a.25.25 0 01.175-.07.25.25 0 01.175.071.23.23 0 01.059.079c.014.03.022.063.022.096s-.008.066-.022.096a.23.23 0 01-.059.079l-4.16 3.72-4-1.27-4 5.55-4.06 2.43-4.1 3.72-4-.55-4 5.2-4.26.5-4 4.1a.27.27 0 01-.14.12z" class="D"/><path d="M196.47 280.5a.45.45 0 01.1-.09.62.62 0 01.11-.08 1.11 1.11 0 01.61-.18.71.71 0 01.49.18c.15.14.26.315.32.5.085.262.125.535.12.8a3.69 3.69 0 01-.12.93 4.26 4.26 0 01-.32.89 3.24 3.24 0 01-.49.75 2.27 2.27 0 01-.61.52 1.23 1.23 0 01-.62.19.715.715 0 01-.48-.2 1.216 1.216 0 01-.33-.5 2.74 2.74 0 01-.11-.81 2.783 2.783 0 010-.5 4.42 4.42 0 01.1-.5c0-.16.1-.3.14-.46l.15-.44 1.08-3.08a1.14 1.14 0 00.07-.15.238.238 0 01.12-.14l.34-.2c.005-.006.01-.01.018-.015s.014-.005.022-.005.015.002.022.005.013.01.018.015v.25l-.75 2.3zm-.77 2.6a1.73 1.73 0 00.07.48.77.77 0 00.2.33.46.46 0 00.3.13.724.724 0 00.4-.12 1.88 1.88 0 00.41-.35c.12-.147.22-.3.3-.48.174-.347.263-.73.26-1.12a1.77 1.77 0 00-.06-.48.77.77 0 00-.2-.33.46.46 0 00-.3-.13.79.79 0 00-.4.12 1.48 1.48 0 00-.4.35 2.22 2.22 0 00-.3.49c-.087.175-.154.36-.2.55a2.786 2.786 0 00-.07.56zm3.53-1.46a1.69 1.69 0 00.08.25c.034.07.1.126.16.16a.42.42 0 00.28 0c.163-.036.318-.1.46-.2a1.76 1.76 0 00.35-.27c.112-.113.2-.24.3-.38a2.04 2.04 0 00.2-.48 1.99 1.99 0 00.07-.56 1.164 1.164 0 00-.07-.46.38.38 0 00-.19-.22.51.51 0 00-.3 0 1.8 1.8 0 00-.36.16l-.5.28a.09.09 0 01-.06.023.086.086 0 01-.06-.023.199.199 0 010-.14v-.33a.485.485 0 010-.17l.06-.16 1.07-2.4-1.7 1c-.007.008-.015.015-.025.02s-.02.007-.03.007-.02-.003-.03-.007-.018-.012-.024-.02c0 0-.05-.07-.05-.14v-.33a.344.344 0 01.05-.2.31.31 0 01.1-.14l2.34-1.35h.1c.01.024.016.05.016.075a.19.19 0 01-.016.075v.28a.68.68 0 010 .18.76.76 0 01-.08.19l-1.05 2.36c.166-.102.355-.16.55-.17a.58.58 0 01.42.13.843.843 0 01.27.43 2.11 2.11 0 01.1.71 3.5 3.5 0 01-.12.91 3.33 3.33 0 01-.32.8 3.44 3.44 0 01-.47.66 2.405 2.405 0 01-.57.46 1.7 1.7 0 01-.7.26.7.7 0 01-.47-.1.76.76 0 01-.28-.36 1.507 1.507 0 01-.1-.54.31.31 0 010-.16.165.165 0 01.1-.1l.27-.16h.1a.23.23 0 01.1.14zm3.54-2.04a.76.76 0 00.08.25c.032.072.1.13.16.16a.42.42 0 00.28 0 1.42 1.42 0 00.46-.19 1.766 1.766 0 00.65-.67c.085-.148.152-.306.2-.47a1.96 1.96 0 00.07-.56 1.11 1.11 0 00-.07-.46.394.394 0 00-.2-.22.51.51 0 00-.3 0 1.745 1.745 0 00-.36.15l-.5.3a.09.09 0 01-.055.02.085.085 0 01-.055-.02.21.21 0 010-.14v-.33a.35.35 0 010-.17 1.46 1.46 0 01.06-.16l1.07-2.4-1.7 1a.086.086 0 01-.06.023.09.09 0 01-.06-.023.21.21 0 010-.14v-.33a.45.45 0 010-.2.233.233 0 01.12-.14l2.34-1.36c.016-.012.035-.02.055-.02s.04.007.055.02a.206.206 0 01.05.15v.33a.68.68 0 010 .18c0 .06-.05.12-.08.2l-1.05 2.36c.165-.1.35-.16.54-.18a.64.64 0 01.43.14 1 1 0 01.27.42 2.37 2.37 0 01.1.72 3.33 3.33 0 01-.12.9 3.787 3.787 0 01-.32.8c-.125.24-.283.463-.47.66a2.43 2.43 0 01-.57.47 1.75 1.75 0 01-.69.26.81.81 0 01-.48-.1.924.924 0 01-.28-.36 1.55 1.55 0 01-.09-.54c-.013-.053-.013-.108 0-.16s.048-.1.1-.12l.27-.15c.015-.014.035-.022.055-.022s.04.008.055.022a.23.23 0 01.05.1z" class="B"/><path d="M195.6 297.46l35.1-20.35c.4-.23.72-.06.72.37a1.57 1.57 0 01-.72 1.2L195.6 299c-.4.23-.72.07-.72-.37a1.57 1.57 0 01.224-.668c.125-.203.295-.375.496-.502zm0-23.46l7.87-4.56c.4-.23.72-.07.72.36a1.55 1.55 0 01-.217.686 1.554 1.554 0 01-.503.514l-7.87 4.56c-.4.23-.72.07-.72-.36.02-.242.094-.476.22-.685a1.57 1.57 0 01.501-.515z" class="E"/><use xlink:href="#a" class="D"/><use xlink:href="#a" class="F H"/><path d="M196.93 312.38a.53.53 0 010 .21.262.262 0 01-.12.13l-.24.14a.082.082 0 01-.055.022.08.08 0 01-.055-.022.195.195 0 010-.15v-5l-1 1.68c-.04.073-.08.113-.12.12a.082.082 0 01-.055.022.08.08 0 01-.055-.022l-.14-.2a.198.198 0 010-.16.36.36 0 01.06-.2l1.27-2.24a.4.4 0 01.1-.12l.1-.06.24-.14a.088.088 0 01.06-.023.09.09 0 01.06.023.186.186 0 010 .14l-.04 5.85zm2.6-4.62a3.81 3.81 0 00.27-.65 3.02 3.02 0 00.1-.72.974.974 0 00-.2-.7c-.12-.14-.3-.14-.58 0a1.157 1.157 0 00-.35.3 2.02 2.02 0 00-.25.39 3.74 3.74 0 00-.15.46l-.1.48a.81.81 0 01-.06.2.35.35 0 01-.1.11l-.27.15h-.1a.166.166 0 010-.12 3.58 3.58 0 01.1-.75 4.16 4.16 0 01.27-.79 4.54 4.54 0 01.441-.72c.16-.2.36-.386.6-.52a1.13 1.13 0 01.58-.18.62.62 0 01.41.18c.128.134.218.3.26.48a2.98 2.98 0 01.08.71c.01.183.01.367 0 .55a4.39 4.39 0 01-.09.51l-.18.52c-.07.18-.16.36-.26.56l-1.33 2.67 1.82-1.05c.015-.014.035-.022.055-.022s.04.008.055.022v.47a.34.34 0 010 .2.223.223 0 01-.11.14l-2.56 1.48a.09.09 0 01-.054.02.09.09 0 01-.056-.02.207.207 0 01-.05-.14v-.33a.67.67 0 010-.2 1.93 1.93 0 01.1-.24l1.7-3.44zm4.7-3.3V306c.001.352-.03.703-.1 1.05a5.32 5.32 0 01-.28 1 3.186 3.186 0 01-.47.8 2.3 2.3 0 01-.67.58c-.2.135-.438.205-.68.2a.68.68 0 01-.256-.083.69.69 0 01-.204-.177 1.51 1.51 0 01-.28-.64 5.11 5.11 0 01-.1-.94v-1.58a7.53 7.53 0 01.1-1.06 4.3 4.3 0 01.28-1 3.74 3.74 0 01.46-.8 2.39 2.39 0 01.68-.59 1.13 1.13 0 01.67-.19.65.65 0 01.47.27c.138.2.233.4.28.64a5.03 5.03 0 01.1.98zm-2.47 3c-.037.394.05.8.25 1.13.16.2.4.2.7 0 .318-.188.564-.477.7-.82a3.76 3.76 0 00.26-1.43v-1.54a1.89 1.89 0 00-.26-1.14c-.16-.2-.4-.2-.7 0a1.69 1.69 0 00-.71.82c-.174.456-.26.942-.25 1.43v1.55z" class="B"/><path d="M195.6 325.57l35.1-20.34c.4-.23.72-.07.72.37a1.57 1.57 0 01-.22.68 1.56 1.56 0 01-.5.51l-35.1 20.35c-.4.23-.72.06-.72-.37.02-.242.094-.476.22-.685a1.57 1.57 0 01.501-.515zm0-23.47l7.87-4.57c.4-.23.72-.06.72.37a1.545 1.545 0 01-.72 1.2l-7.87 4.56c-.4.23-.72.07-.72-.36a1.555 1.555 0 01.72-1.2z" class="E"/><path d="M243.6 266c-.037-.002-.073-.012-.106-.03s-.062-.042-.084-.07a.236.236 0 01-.076-.176.238.238 0 01.076-.175l4.06-3.24 4.1-4.67 4.15-.6 4-.9 4.1-4.84 4 .7 4-6.4 4.12.06 4-3.55a.256.256 0 01.278-.056.272.272 0 01.082.056.25.25 0 01.071.175.252.252 0 01-.07.175l-4.13 3.7-4-.07-4.07 6.46-4.1-.72-4 4.75-4.15.94-4 .58-4 4.56-4.1 3.35a.244.244 0 01-.16 0z" class="D"/><path d="M245.2 252.3l.1-.1.1-.08a1.14 1.14 0 01.58-.14.72.72 0 01.49.18 1.27 1.27 0 01.32.51 2.74 2.74 0 01.11.81 4.83 4.83 0 01-.1.93 4.87 4.87 0 01-.32.89 3.6 3.6 0 01-.49.75 2.315 2.315 0 01-.62.52 1.2 1.2 0 01-.61.19.8.8 0 01-.5-.2 1.18 1.18 0 01-.28-.59 2.42 2.42 0 01-.12-.8 4.82 4.82 0 010-.51c0-.17.06-.33.1-.5l.14-.47.16-.43 1.08-3.08.06-.15a.333.333 0 01.12-.14l.34-.2h.1c.015.04.015.08 0 .12a.18.18 0 010 .08.072.072 0 010 .05l-.76 2.33zm-.76 2.6c-.004.163.02.325.07.48a.77.77 0 00.19.33c.084.08.194.127.3.13a.76.76 0 00.4-.12c.155-.094.293-.212.4-.35a2.07 2.07 0 00.3-.5 2.98 2.98 0 00.19-.55 2.64 2.64 0 00.07-.56c0-.163-.024-.324-.07-.48a.776.776 0 00-.2-.33.504.504 0 00-.3-.13.9.9 0 00-.41.12 1.65 1.65 0 00-.4.35 1.97 1.97 0 00-.31.49 3.34 3.34 0 00-.2.55 2.25 2.25 0 00-.07.56zm4.9-4.06c.1-.2.2-.432.27-.66a3.12 3.12 0 00.09-.72 1.08 1.08 0 00-.19-.7c-.12-.15-.32-.14-.58 0a1.48 1.48 0 00-.36.29 2.29 2.29 0 00-.24.4c-.066.14-.117.295-.15.45 0 .16-.07.32-.1.48a.47.47 0 01-.06.19.26.26 0 01-.09.11l-.27.16c-.014.01-.032.018-.05.018s-.036-.007-.05-.018a.166.166 0 010-.12 2.89 2.89 0 01.1-.74 3.88 3.88 0 01.27-.79c.115-.258.263-.5.44-.72a2.12 2.12 0 01.59-.53 1.1 1.1 0 01.57-.17.57.57 0 01.42.18 1 1 0 01.25.47 2.65 2.65 0 01.09.72 4.42 4.42 0 010 .54c-.02.173-.052.343-.1.5a3.95 3.95 0 01-.17.52l-.26.56-1.33 2.67 1.82-1.05c.016-.012.035-.02.055-.02s.04.007.055.02a.206.206 0 01.05.15v.33a.52.52 0 01-.05.2.544.544 0 01-.1.14l-2.56 1.47h-.12a.215.215 0 010-.15v-.33a.67.67 0 010-.2 1.27 1.27 0 01.1-.23l1.67-3.44zm4.04-5.37a.08.08 0 01.055-.022c.02 0 .04.008.055.022.02.02.035.043.043.07a.2.2 0 01.007.08v.38a1.35 1.35 0 010 .18 2.02 2.02 0 010 .22l-1.32 6a1.54 1.54 0 01-.07.19.283.283 0 01-.1.13l-.27.16c-.014.012-.032.018-.05.018s-.036-.006-.05-.018a.172.172 0 010-.13.268.268 0 010-.08l1.32-6-2 1.13c-.016.012-.035.02-.055.02s-.04-.007-.055-.02a.203.203 0 01-.05-.15v-.33a.52.52 0 01.05-.2.392.392 0 01.1-.14l2.4-1.5z" class="B"/><path d="M244.34 269.26l35.1-20.35c.4-.23.72-.06.72.37a1.54 1.54 0 01-.217.686c-.125.2-.297.385-.503.514l-35.1 20.34c-.4.23-.72.06-.72-.37a1.53 1.53 0 01.217-.68 1.54 1.54 0 01.503-.509zm0-23.46l7.86-4.56c.4-.23.73-.07.73.36a1.57 1.57 0 01-.222.687c-.127.21-.3.384-.508.513l-7.86 4.56c-.4.23-.72.07-.72-.36a1.56 1.56 0 01.217-.686c.125-.208.297-.384.503-.514z" class="E"/><use xlink:href="#b" class="D"/><use xlink:href="#b" class="F H"/><path d="M245.48 282.35l-.08.06h-.08a1.226 1.226 0 01-.55.18.733.733 0 01-.48-.15 1.11 1.11 0 01-.3-.44 2.29 2.29 0 01-.13-.85 3.65 3.65 0 01.12-.93c.08-.304.185-.6.32-.87a3.81 3.81 0 01.48-.72 2.18 2.18 0 01.57-.5c.186-.118.4-.186.62-.2.175.004.342.07.47.2a1.15 1.15 0 01.3.51c.073.26.107.53.1.8a2.98 2.98 0 010 .5c0 .17-.08.34-.12.52s-.1.34-.16.5l-.15.45-1.08 3.08-.07.15a.233.233 0 01-.12.14l-.34.2c-.01.01-.025.015-.04.015s-.03-.005-.04-.015a.222.222 0 010-.13v-.07a.6.6 0 000-.06l.75-2.36zm.77-2.6a1.578 1.578 0 00-.07-.5.643.643 0 00-.18-.27.392.392 0 00-.29-.11.982.982 0 00-.38.1c-.143.087-.27.195-.38.32a2 2 0 00-.29.45 2.39 2.39 0 00-.25 1.1 1.79 1.79 0 00.06.5.71.71 0 00.19.31.44.44 0 00.3.1.66.66 0 00.38-.11c.142-.086.27-.194.38-.32a4.4 4.4 0 00.3-.45 2.36 2.36 0 00.19-.53 2.23 2.23 0 00.06-.62zm1.55 1.9a.8.8 0 00.1.25c.034.072.1.132.16.17.092.027.2.027.28 0a1.42 1.42 0 00.46-.19c.128-.075.246-.165.35-.27l.3-.38a2.55 2.55 0 00.2-.48 1.96 1.96 0 00.07-.56 1.13 1.13 0 00-.07-.46.394.394 0 00-.2-.22.57.57 0 00-.29 0 1.4 1.4 0 00-.36.16l-.5.28a.08.08 0 01-.055.022.082.082 0 01-.055-.022.186.186 0 010-.14v-.33a.54.54 0 010-.17l.07-.16 1.07-2.4-1.72 1a.08.08 0 01-.055.022.082.082 0 01-.055-.022.238.238 0 01-.05-.15v-.33a.51.51 0 01.05-.2.418.418 0 01.1-.14l2.35-1.35a.082.082 0 01.055-.022.08.08 0 01.055.022c.034.04.052.1.05.14v.33c.01.06.01.12 0 .18a1.44 1.44 0 01-.08.19l-1.05 2.36a1.16 1.16 0 01.54-.17.59.59 0 01.42.13.91.91 0 01.28.43 2.37 2.37 0 01.1.71 3.37 3.37 0 01-.12.91 3.83 3.83 0 01-.32.8 3.4 3.4 0 01-.47.66 2.366 2.366 0 01-.57.46 1.75 1.75 0 01-.69.26.76.76 0 01-.48-.1.924.924 0 01-.28-.36 1.52 1.52 0 01-.09-.53.54.54 0 010-.17.28.28 0 01.1-.11l.27-.16h.1a.118.118 0 01.03.1z" class="B"/><path d="M244.34 297.37l35.1-20.37c.4-.23.72-.07.72.37a1.53 1.53 0 01-.217.682c-.125.206-.297.38-.503.508l-35.1 20.35c-.4.23-.72.06-.72-.37a1.56 1.56 0 01.223-.669 1.54 1.54 0 01.497-.5zm0-23.47l7.86-4.57c.4-.23.73-.06.73.37a1.55 1.55 0 01-.222.687c-.127.208-.3.384-.508.513l-7.86 4.56c-.4.23-.72.07-.72-.36a1.67 1.67 0 01.215-.687 1.52 1.52 0 01.505-.513z" class="E"/><g class="D"><path d="M296.41 220.38c.663-.463 1.438-.742 2.244-.81s1.616.08 2.346.43l-4.63 12.48.04-12.1z"/><path d="M291.78 225.38a13.767 13.767 0 014.63-5v12.14l-4.63-7.14zM288.9 233.1a24.4 24.4 0 012.87-7.72l4.63 7.14-7.5.58z"/></g><path d="M291.78 225.38a24.4 24.4 0 00-2.87 7.72l7.5-.58v-12.14a13.767 13.767 0 00-4.63 5z" class="C F"/><g class="D"><path d="M301 220a6.47 6.47 0 011.901 1.896 6.49 6.49 0 01.969 2.504l-7.5 8.08L301 220zm-12.1 20.6a15.644 15.644 0 01-.4-3.53 21.39 21.39 0 01.39-4l7.5-.58-7.5 8.1zm15-8.66a24.367 24.367 0 01-2.87 7.72l-4.63-7.14 7.5-.58z"/><path d="M296.41 244.66a4.58 4.58 0 01-4.63.34l4.63-12.48v12.14z"/><path d="M288.9 240.6l7.5-8.08-4.63 12.48a6.48 6.48 0 01-1.901-1.896 6.49 6.49 0 01-.969-2.504zm15-16.16a15.14 15.14 0 01.38 3.53 21.39 21.39 0 01-.38 4l-7.5.58 7.5-8.1z"/><path d="M301 239.66a13.76 13.76 0 01-4.63 5v-12.14l4.63 7.14z"/></g><path d="M292.48 250.85l7.86-4.56c.4-.23.72-.07.72.36a1.554 1.554 0 01-.72 1.2l-7.86 4.56c-.4.23-.72.07-.72-.36a1.55 1.55 0 01.217-.686c.125-.208.297-.384.503-.514z" class="B"/><path d="M290.74 256.56l11.34-6.56c.4-.23.72-.07.72.37a1.53 1.53 0 01-.216.682 1.54 1.54 0 01-.504.508l-11.34 6.58c-.4.23-.72.07-.72-.36.013-.246.085-.486.2-.698s.3-.392.5-.522zm0 4.7l11.34-6.58c.4-.23.72-.06.72.37a1.52 1.52 0 01-.216.681 1.428 1.428 0 01-.504.5l-11.34 6.58c-.4.23-.72.07-.72-.36a1.67 1.67 0 01.215-.687 1.53 1.53 0 01.505-.513zm0 4.74l11.34-6.58c.4-.23.72-.06.72.37a1.54 1.54 0 01-.72 1.2l-11.34 6.57c-.4.23-.72.07-.72-.36a1.56 1.56 0 01.217-.686c.125-.208.298-.384.503-.514z" class="E"/><g class="D"><path d="M324.84 203.9a4.58 4.58 0 014.63-.34L324.84 216v-12.1zM320.21 208.9a13.85 13.85 0 014.63-5V216l-4.63-7.1z"/><path d="M317.35 216.62a24.364 24.364 0 012.86-7.72l4.63 7.14-7.5.58z"/><path d="M329.47 203.56a6.48 6.48 0 011.901 1.896 6.49 6.49 0 01.969 2.504l-7.5 8.08 4.63-12.48zm-12.12 20.56a15.644 15.644 0 01-.4-3.53 21.56 21.56 0 01.39-4l7.5-.58-7.5 8.1z"/><path d="M332.34 215.46a24.31 24.31 0 01-2.87 7.72l-4.63-7.18 7.5-.54zM324.84 228.18a4.59 4.59 0 01-4.63.35l4.63-12.53v12.18z"/><path d="M317.35 224.12l7.5-8.08-4.63 12.5a6.51 6.51 0 01-1.894-1.904 6.5 6.5 0 01-.966-2.506z"/></g><path d="M320.21 208.9a24.39 24.39 0 00-2.86 7.72 21.57 21.57 0 00-.39 4c-.01 1.188.122 2.373.4 3.53a6.534 6.534 0 002.86 4.41l4.63-12.56v-12.1a13.86 13.86 0 00-4.63 5z" class="C F"/><g class="D"><path d="M332.34 208c.268 1.157.4 2.342.4 3.53a20.672 20.672 0 01-.4 4l-7.5.58 7.5-8.1z"/><path d="M329.47 223.18a13.778 13.778 0 01-4.63 5V216l4.63 7.18z"/></g><path d="M320.91 234.43l7.87-4.56c.4-.23.72-.07.72.36a1.53 1.53 0 01-.72 1.2l-7.87 4.57c-.4.23-.72.06-.72-.37a1.56 1.56 0 01.217-.686c.125-.208.298-.384.503-.514z" class="B"/><path d="M319.18 240.14l11.33-6.58c.4-.23.72-.06.72.37a1.545 1.545 0 01-.72 1.2l-11.33 6.57c-.4.23-.73.07-.73-.36a1.58 1.58 0 01.222-.687c.127-.208.3-.384.508-.513zm0 4.7l11.33-6.57c.4-.23.72-.07.72.36a1.54 1.54 0 01-.217.686 1.545 1.545 0 01-.503.514l-11.33 6.57c-.4.24-.73.07-.73-.36a1.58 1.58 0 01.222-.687c.127-.208.3-.384.508-.513zm0 4.7L330.5 243c.4-.23.72-.07.72.36a1.545 1.545 0 01-.72 1.2l-11.33 6.58c-.4.23-.73.06-.73-.37a1.54 1.54 0 01.216-.704 1.56 1.56 0 01.514-.526z" class="E"/><path d="M324.7 366.68c-.04-2.102-.576-4.166-1.565-6.022S320.723 357.206 319 356c-1.62-1-3.1-1.15-4.22-.58-6.7 3.36-53.7 33.5-56.7 35a2.13 2.13 0 00-.767.832 2.14 2.14 0 00-.233 1.108 6.72 6.72 0 00.788 3.027 6.725 6.725 0 002.072 2.343 2.11 2.11 0 001.037.437c.378.05.763-.005 1.113-.157 4.76-2.62 51.17-22.4 60.65-27.48 1.18-.6 1.9-1.93 1.96-3.85z" class="D"/><path d="M322.84 360.18A11.997 11.997 0 00319 356c-1.6-1-3.1-1.15-4.2-.6l-.14.07c-6.1 3.13-41.1 25.45-52.87 32.7h-.08l-.48.3-.14.1-.27.16-.32.2c-1.24.76-2.1 1.25-2.4 1.4a1.46 1.46 0 00-.27.22c-.225.225-.402.493-.52.79s-.172.613-.16.93a4.993 4.993 0 000 .67v.27c0 .1 0 .27.08.4l.1.33c0 .13.08.25.13.38a2.42 2.42 0 00.1.29l65.3-34.45z" class="F H"/><path d="M259.94 397.75a6.67 6.67 0 01-2.068-2.332 6.68 6.68 0 01-.782-3.018c.06-1.93 1.44-2.67 3.1-1.65a6.73 6.73 0 012.045 2.34 6.74 6.74 0 01.775 3.01c0 1.9-1.42 2.67-3.06 1.65z" class="D"/><path d="M245.9 399.05a5.15 5.15 0 002.19 4.11 1.66 1.66 0 00.79.327 1.67 1.67 0 00.85-.107l11.38-6.05a1.642 1.642 0 00.72-1.48 5.17 5.17 0 00-.605-2.316 5.17 5.17 0 00-1.585-1.794c-.23-.177-.504-.3-.792-.327a1.64 1.64 0 00-.848.117l-11.37 6.05c-.24.16-.433.38-.56.638a1.64 1.64 0 00-.169.832z" class="G"/><path d="M246.63 397.56a1.668 1.668 0 00-.74 1.49 4.45 4.45 0 00.34 1.75l14.67-7.8c-.33-.5-.76-.93-1.26-1.26a1.64 1.64 0 00-.791-.327 1.653 1.653 0 00-.85.117l-11.37 6.05v-.02z" class="F"/><path d="M260.48 409.14c0-7.3-4.82-14.57-14.45-20.13-19.26-11.12-50.5-11.12-69.75 0-9.63 5.56-14.45 12.84-14.45 20.13v13.43c0 7.28 4.82 14.57 14.45 20.13 19.26 11.12 50.5 11.12 69.75 0 9.63-5.56 14.45-12.85 14.45-20.13v-13.43zm-81.8-16c8.6-5 20.14-7.7 32.5-7.7s23.9 2.73 32.5 7.7c7.78 4.5 12.06 10.17 12.06 16s-4.28 11.52-12.06 16c-8.6 5-20.14 7.7-32.5 7.7s-23.9-2.74-32.5-7.7c-7.78-4.5-12.07-10.18-12.07-16s4.3-11.5 12.07-16z" class="D"/><path d="M176.28 429.28c19.26 11.12 50.5 11.12 69.75 0s19.26-29.15 0-40.27-50.5-11.12-69.75 0-19.28 29.15 0 40.27zm-9.68-20.14c0-5.83 4.28-11.5 12.06-16 8.6-5 20.14-7.7 32.5-7.7s23.9 2.73 32.5 7.7c7.77 4.5 12.06 10.17 12.06 16s-4.3 11.52-12.06 16c-8.6 5-20.15 7.7-32.5 7.7s-23.9-2.74-32.5-7.7c-7.77-4.48-12.06-10.14-12.06-16z" fill="#fff" class="C"/><use xlink:href="#c" class="D"/><use xlink:href="#c" class="F H"/><path opacity=".4" d="M178.66 399.2c8.6-5 20.14-7.7 32.5-7.7s23.9 2.74 32.5 7.7c6.4 3.7 10.44 8.23 11.66 13-1.22 4.74-5.25 9.26-11.66 13-8.6 5-20.15 7.7-32.5 7.7s-23.9-2.74-32.5-7.7c-6.42-3.7-10.45-8.23-11.66-13 1.2-4.77 5.24-9.3 11.66-13z" fill="#fff"/><g class="F"><path d="M199.53 436.83v13.4a64.43 64.43 0 01-23.25-7.54c-9.63-5.56-14.45-12.85-14.45-20.14v-13.42a17.03 17.03 0 01.59-4.4c-2.34 8.67 2.28 17.85 13.85 24.54a64.99 64.99 0 0023.26 7.55z" class="H"/><path d="M434.61 354.86c.6.24.7 1.36.75 3.6 0 1.7.32 4.65-1.66 5.2s-4.88.18-6.1-1.44c-1.54-2-2.57-3.8-4.77-6.27-1.9-2.14-4-4.15-4.7-7.1-.65-2.68 0-3.82 1.8-4.56 2.52-1 6.36 2.56 8.3 3.15 1.67.5 5.77 7.2 6.38 7.45z"/></g><path d="M434.66 352.8l-.06 2.73a6.68 6.68 0 01-3.46.966 6.677 6.677 0 01-3.46-.966c-.12-.26-.63-3.93-.63-3.93l7.6 1.2z" class="I"/><path d="M412.1 370.14s.73 2.4 1.1 4.5c.3 1.66.72 4.44.1 5.67s-2.9 2-6.4 1.88c-2.27-.07-5.84 1.4-8.3 2.7s-7.75 1.78-10.4 1.4c-3.1-.44-6.3-2.32-6.77-3.62s.22-2.63 7.64-5.6c.07 0 10.3-3.1 13.94-6.94l9.05.02z" class="F"/><path d="M412.16 367.18l-.08 3.2c-.02 1.2-1.42 2.86-5 2.65-2.5-.14-4.22-.85-4.07-2.9l.07-3 9.08.06z" class="I"/><path d="M437.26 316.5a74.24 74.24 0 00-2.91-14.33s1.25-12.28 2-23.94c.8-12.58 1.53-19.06-.95-37.24 0 0-38.6-3.47-39.64 11.08s.44 51.67.78 58.08 1.3 12.1 2.4 22.5 4.2 34.5 4.2 34.5a9.62 9.62 0 004.525 1.129 9.613 9.613 0 004.525-1.13s3.5-29.06 3.38-36.44a62.867 62.867 0 00-2.44-16.18l2-22.42 2-20 .88-.4.83 24.44c.34 6.44 1.2 12.57 2.8 24.5C423 331 427.24 353 427.24 353c4.6 2.6 7.42-.16 7.42-.16s3.65-27.36 2.6-36.33z" class="G"/><path d="M417.07 272.17s10-4.64 15-8.9c0 0-4.72 6.35-10.8 9.08l-2.63 21.9-.74-22.07-.83.01z" class="F"/><path d="M410.16 189.15l1.5 13.32 12.58-.63-1.4-15.55-12.7 2.86z" class="I"/><path d="M429 194.25c4.68-.22 7.06.5 9.17 4.53s2.92 16.1 3.66 22.34.9 10.6-1.65 11.25-12.54.92-12.54.92l1.36-39.04z" class="G"/><path d="M436.89 201.15c-.67-3.72-5.58-7.64-10.17-6.9l-3.1.53c-.55 2.24-6.7 3.64-12.56 2.26-1.77.47-7.6 1.56-9.07 2.05-4.2 1.4-6 5.55-6.6 19.3l.17 37.35c10.4 4.4 21.34 4.5 27.4 3.33 12.64-2.46 14.27-7.64 14.27-7.64l-1.88-14.25s3.1-27.6 1.55-36.03z" class="B"/><path d="M410.65 193.54l.1.84a18.63 18.63 0 007.72 0c4.1-.9 4.92-2.06 4.92-2.06l-.1-1s1-.37 1.55 1.2a18.22 18.22 0 01.6 1.91s.47 2.87-4.34 4.33c-1.98.632-4.07.84-6.138.616a14.9 14.9 0 01-5.862-1.926l-1.88.4 2.12-4.52a1.247 1.247 0 011.18-.66l.12.88z" class="G"/><path d="M372.24 179.25l-24.95 13.03 12.4 33.9 23.28-13.04-10.73-33.88z" class="B"/><path d="M371.1 182.57l-20.94 10.93 10.98 29.14 19.53-10.94-9.57-29.13z" fill="#f5f5f5"/><path opacity=".15" d="M366.68 185.72l-.4-1c-.23-.53-2-.23-3.9.76l-3.68 1.9c-1.93 1-3.3 2.26-3.08 2.83l.4 1 10.66-5.5z" class="F"/><g class="D"><path d="M366.27 181.57c-.13-.36-.9-.3-1.7.13l-1.44.78s-.9-2.24-4.2-.7-2.56 4.15-2.56 4.15l-1.53.84c-.85.47-1.45 1.14-1.35 1.5l.2.66 12.85-6.7-.26-.67z"/><use xlink:href="#d"/></g><use xlink:href="#d" class="C F"/><path d="M366.92 185.77l-.4-1c-.23-.58-2-.24-3.9.76l-3.7 1.9c-1.92 1-3.3 2.26-3.08 2.84l.4 1 10.65-5.5z" class="D"/><g class="I"><path d="M402 199.1c-5.76.5-8.2 1.55-12.53 9.34-4.7 8.47-13.72 23.78-14.86 25.72-1.6 2.7-1.9 6.78-.52 9.25 1.28 2.3 5.35 3.36 10-1.85 5.5-6.2 15.7-21.34 15.7-21.34s8.62-11.44 2.2-21.12z"/><path d="M376.46 245.17c-4.42-.53-14.73-14.52-17.66-19.1a32.58 32.58 0 00-8.94-9.43c-4.67-3.45-4-8.76-1.95-13.62.7-1.68 3.1-.6 3.1-.6l.84 2.3 1.46 4c1 .92 1.56 1.22 1.62.95.13-.52-.72-2.67-.7-4.9 0-2.7 1.9-.92 2.47 0a32.51 32.51 0 012 4.45c.94 2.4.56 4.85 1.7 6.5s16.53 16.4 16.53 16.4l-.47 13.05z"/></g><path d="M403.1 198.78c-3.5-.08-7.68.48-10.93 4.7s-16.25 27.16-16.25 27.16l-7.3-6.54A12.71 12.71 0 00363 232a79.48 79.48 0 006.6 9c3.1 3.38 6.53 5.73 9.35 4.7s5.7-3.27 11.77-11.73 12.7-18.43 12.7-18.43 4.2-9.74-.33-16.75z" class="G"/><path d="M401.29 172.84s-3.14 4.76-2.78 5.23 2.67.9 2.67.9l.1-6.12z" fill="#f28f8f"/><path d="M402.76 175.9a3.75 3.75 0 01-2.085-.633 3.739 3.739 0 01-1.38-1.684 3.75 3.75 0 01-.211-2.168 3.74 3.74 0 011.029-1.92 3.75 3.75 0 014.09-.807 3.748 3.748 0 012.307 3.472 3.75 3.75 0 01-3.75 3.74zm0-6.66a2.923 2.923 0 00-2.705 1.797 2.91 2.91 0 00.626 3.185c.408.4.93.69 1.495.802s1.155.057 1.69-.164a2.92 2.92 0 001.805-2.699c0-.773-.306-1.514-.852-2.06s-1.286-.856-2.058-.86z" class="F"/><path d="M410 159.65c-6.36 1.34-8.2 4.14-8.8 14.23-.62 10.56.46 13.87 1.84 15.3.94 1 6.14 1.14 8.76.4 3.3-.9 10.7-3.53 14.18-8.84 4.1-6.24 5.16-14.7.8-18.18-6.14-4.9-14.17-3.46-16.77-2.9z" class="I"/><path d="M410.24 189.88l-.3-1.94a12.5 12.5 0 01-6.51 1.47c1.2.6 4.37.77 6.8.47z" fill="#f28f8f"/><g class="F"><path d="M399.37 171.37l11.3 1.47-.45.8-10.85-1.4v-.85z"/><path d="M400.14 163.73a3.68 3.68 0 001.44-.09 2.264 2.264 0 00.77 2.65 3.22 3.22 0 001.381.526 3.22 3.22 0 001.47-.146 2.695 2.695 0 00-.3 2 3.18 3.18 0 003.29 2.38c.07 1.48.1 2.92 1.66 3.6 0 0 1-3.9 4.3-3.4s3.75 4.7 1.67 7.28-4 1.6-4 1.58c.2.1.26 1.34.32 1.57a12 12 0 00.85 2.14 10.177 10.177 0 003 3.48 7.32 7.32 0 002.815 1.5 7.338 7.338 0 003.185.16 6.45 6.45 0 002.572-1.25 6.44 6.44 0 001.778-2.24c.147-.466.385-.898.7-1.27a4.214 4.214 0 011.62-.7 4.765 4.765 0 001.75-1.05 4.76 4.76 0 001.149-1.687c.257-.64.372-1.326.338-2.013a4.76 4.76 0 00-.538-1.97 4.37 4.37 0 002.056-1.198 4.369 4.369 0 00.98-4.474 4.37 4.37 0 00-1.366-1.948 5.256 5.256 0 002.037-2.48 5.25 5.25 0 00.213-3.201 5.503 5.503 0 00-1.4-2.3 5.34 5.34 0 00-2.35-1.31c-1.3-.37-.8-.57-1.2-1.83a4.68 4.68 0 00-1.48-2.21 4.73 4.73 0 00-2.084-.949 4.75 4.75 0 00-2.286.139 4.43 4.43 0 00-1.106-2.156 4.45 4.45 0 00-2.074-1.254 4.27 4.27 0 00-2.24-.09c-.53.13-1.6.62-1.8 1.13-.67-.66-.9-1.53-1.7-2.12a4.824 4.824 0 00-3.891-.852 4.82 4.82 0 00-3.209 2.362 5.903 5.903 0 00-4.44-1.86 4.86 4.86 0 00-2.347.706 4.849 4.849 0 00-1.703 1.764 4.132 4.132 0 00-.44 2.395 4.12 4.12 0 00.989 2.225 4.81 4.81 0 00-2.46 2.12 3.02 3.02 0 00-.33 1.713 3 3 0 00.679 1.607 2.56 2.56 0 001.24.93 4.03 4.03 0 00.51.1z"/><path d="M409.78 176.83l.1-4.42a2.21 2.21 0 00-1.579.609c-.425.404-.672.96-.686 1.546a2.21 2.21 0 002.155 2.265z"/></g><defs><path id="B" d="M436.16 338.77c0-6.25-1.24-17.76 4-28.56 3.84-7.83 10.7-15.43 17.07-14.67 5.93.7 6.47 9.83.8 16.08s-12.9 14.9-14.48 28.7l-4.1 10.26-3.3-11.82z"/><path id="C" d="M81.39 353.92V175.14a5.835 5.835 0 01.76-2.597A5.84 5.84 0 0184 170.57L310 40.12c1.45-.84 2.64-.16 2.64 1.52v178.8a5.827 5.827 0 01-.774 2.6 5.83 5.83 0 01-1.866 1.969L84 355.45c-1.43.84-2.6.16-2.6-1.53z"/><path id="D" d="M113.62 204.84v-11.57a4.804 4.804 0 012.16-3.76l228.4-131.68a4.77 4.77 0 014.32 0l1.2.7c.632.4 1.157.963 1.534 1.615s.595 1.383.636 2.135v11.58L119.16 208l-5.54-3.16z"/><path id="E" d="M119.16 196.46a4.78 4.78 0 012.16-3.76L349.7 61c1.2-.7 2.16-.14 2.16 1.24v11.6L119.16 208v-11.54z"/><path id="F" d="M119.79 194.32a4.47 4.47 0 00-.63 2.14V208l-5.53-3.2v-11.55a4.428 4.428 0 01.63-2.13l5.53 3.2z"/><path id="G" d="M165 193.87l-37.93 21.92c-.37.24-.678.565-.9.948a2.79 2.79 0 00-.371 1.252v3.95c0 .8.57 1.13 1.27.73L165 200.75c.37-.24.678-.565.9-.948s.348-.81.37-1.252v-3.94c0-.8-.57-1.14-1.27-.74z"/><path id="H" d="M129.28 232.78l-.85.5c-.05 0-.1 0-.1-.07v-2.3a.222.222 0 01.09-.17l.85-.5c.05 0 .1 0 .1.07v2.3a.192.192 0 01-.022.097.19.19 0 01-.068.073z"/><path id="I" d="M194.86 264.56c.58-.33 1-.06 1 .6-.013.36-.1.7-.284 1.024s-.42.584-.716.786c-.58.33-1 .06-1-.6.013-.36.11-.7.284-1.024s.42-.584.716-.786z"/><path id="J" d="M203 255.18c.58-.33 1.05-.06 1.05.6a2.3 2.3 0 01-1.05 1.81c-.57.33-1 .06-1-.6a2.32 2.32 0 01.286-1.023c.174-.314.418-.584.714-.787z"/><path id="K" d="M333 180.13c.57-.33 1-.06 1 .6a2.32 2.32 0 01-.288 1.018 2.31 2.31 0 01-.712.782c-.58.34-1.05.07-1.05-.6a2.32 2.32 0 011.05-1.81z"/><path id="L" d="M211.855 245.684c.41-.708.4-1.472.004-1.707s-1.068.15-1.476.857-.41 1.472-.004 1.706 1.067-.15 1.476-.856z"/><path id="M" d="M219.23 227c.58-.34 1-.07 1 .6a2.29 2.29 0 01-.285 1.024 2.293 2.293 0 01-.715.786c-.58.33-1 .06-1-.6a2.28 2.28 0 01.286-1.019c.173-.313.418-.58.714-.78z"/><path id="N" d="M227.36 231.73c.58-.33 1-.06 1 .6a2.303 2.303 0 01-1 1.81c-.57.33-1 .06-1-.6a2.32 2.32 0 011-1.81z"/><path id="O" d="M235.48 229.38c.58-.33 1-.06 1 .6a2.26 2.26 0 01-1 1.8c-.58.34-1 .07-1-.6a2.32 2.32 0 01.288-1.022 2.31 2.31 0 01.712-.788z"/><path id="P" d="M243.6 222.35c.58-.34 1.05-.07 1.05.6-.02.363-.126.716-.31 1.03a2.31 2.31 0 01-.741.779c-.57.33-1 .06-1-.6a2.3 2.3 0 01.286-1.023c.173-.314.418-.584.714-.787z"/><path id="Q" d="M251.73 213c.57-.34 1-.07 1 .6a2.354 2.354 0 01-1 1.81c-.58.33-1 .06-1-.6.015-.357.113-.706.287-1.02a2.29 2.29 0 01.713-.781z"/><path id="R" d="M259.85 210.62c.58-.33 1-.06 1 .6a2.3 2.3 0 01-1 1.81c-.58.33-1 .06-1-.6.013-.36.1-.7.284-1.024s.42-.584.716-.786z"/><path id="S" d="M284.22 184.82c.58-.33 1-.06 1 .6a2.303 2.303 0 01-.287 1.02 2.29 2.29 0 01-.713.781c-.57.34-1 .07-1-.6a2.34 2.34 0 01.289-1.021 2.33 2.33 0 01.711-.789z"/><path id="T" d="M292.35 194.14c.57-.33 1-.07 1 .6a2.32 2.32 0 01-.286 1.023 2.304 2.304 0 01-.714.787c-.58.33-1.05.06-1.05-.6a2.3 2.3 0 011.05-1.81z"/><path id="U" d="M300.47 184.82c.58-.33 1-.06 1 .6a2.303 2.303 0 01-.287 1.02 2.29 2.29 0 01-.713.781c-.58.34-1 .07-1-.6.015-.358.113-.708.287-1.023a2.31 2.31 0 01.713-.787z"/><path id="V" d="M308.6 180.13c.57-.33 1-.06 1 .6a2.295 2.295 0 01-.29 1.018 2.31 2.31 0 01-.711.782c-.58.34-1.05.07-1.05-.6a2.33 2.33 0 01.31-1.029c.182-.315.436-.582.74-.78z"/><path id="W" d="M316.72 180.13c.58-.33 1-.06 1 .6a2.282 2.282 0 01-1 1.8c-.58.34-1 .07-1-.6a2.31 2.31 0 01.287-1.022c.173-.315.417-.584.713-.788z"/><path id="X" d="M324.84 175.44c.58-.33 1.05-.06 1.05.6a2.3 2.3 0 01-1.05 1.8c-.57.34-1 .07-1-.6.017-.358.116-.707.29-1.02a2.34 2.34 0 01.711-.789z"/><path id="Y" d="M194.86 261.33a.222.222 0 01-.13 0 .25.25 0 01-.09-.34l8.18-14.1a.216.216 0 01.07-.08.23.23 0 01.1-.04l7.94-1.7 8.07-16.9c.016-.03.04-.06.066-.08s.06-.04.094-.05.065-.022.1-.022a.25.25 0 01.1.022l8 4.64 8-2.3 8.07-7 8.1-9.36c.028-.04.07-.07.12-.08l8.07-2.33 8.08-7a.251.251 0 01.17-.06h8l8.02-18.6a.285.285 0 01.2-.15c.043-.008.083 0 .122.016s.072.04.098.074l7.94 9.16 7.93-9.16a.193.193 0 01.07-.06l8.15-4.7a.19.19 0 01.12 0h8.06l8-4.64a.27.27 0 01.12 0h8.2c.066 0 .13.026.176.073s.074.11.074.177-.027.13-.074.177-.1.073-.176.073h-8.06l-8 4.64h-8.18l-8.06 4.65-8.1 9.35a.247.247 0 01-.087.06.26.26 0 01-.103.022.27.27 0 01-.104-.022.25.25 0 01-.086-.061l-7.87-9.08-8 18.4c-.02.045-.052.083-.093.1s-.09.04-.137.04h-8L260 212h-.1l-8.05 2.32-8.1 9.33-8.14 7.06-.1.05-8.12 2.35a.224.224 0 01-.095.022.22.22 0 01-.095-.022l-7.9-4.56-8 16.77a.204.204 0 01-.068.088.2.2 0 01-.102.042l-8 1.7-8.13 14c-.01.042-.028.08-.056.112s-.064.055-.104.068z"/><path id="Z" d="M194.86 227c.58-.34 1-.07 1 .6a2.303 2.303 0 01-1 1.81c-.58.33-1.05.06-1.05-.6a2.29 2.29 0 01.307-1.03 2.29 2.29 0 01.743-.779z"/><path id="a" d="M194.86 322.35a.223.223 0 01-.17-.08c-.021-.025-.043-.05-.056-.08a.243.243 0 010-.191.246.246 0 01.056-.08l4.12-4.24 4.08-.5 4.1-3.6 4-1.08 4.13-8.2 4.13 2 4-3.52h.07l3.95-.75 4-6.9a.25.25 0 01.06-.083.25.25 0 01.091-.052.255.255 0 01.201.022c.03.018.057.04.077.07s.035.06.042.095.008.07 0 .103-.02.067-.042.095l-4.1 7.1-4.1.78-4.14 3.64-4-2-4 8-4.1 1.12-4.08 3.6-4.05.52-4 4.1a.271.271 0 01-.24.12z"/><path id="b" d="M243.6 294.14a.285.285 0 01-.13 0 .27.27 0 01-.107-.16.303.303 0 01.027-.2l4.15-6.8 4.18.77 3.93-1.08 4.06-4.95 4-1 4.1-7.32 4.2 1.22 3.94-.75 4-3.56a.25.25 0 01.084-.064c.032-.014.067-.022.103-.023s.07.007.103.022a.24.24 0 01.086.062.27.27 0 01.052.092c.01.034.013.07.01.105s-.016.07-.035.1-.043.056-.072.076l-4.1 3.66h-.06l-4.14.78-3.87-1.13-4 7.16-4.1 1-4.06 4.95h-.07l-4.12 1.13h-.06l-3.9-.72-4 6.5a.246.246 0 01-.09.08.25.25 0 01-.119.029z"/><path id="c" d="M166.602 409.14a13.3 13.3 0 001.92 6.72c2-3.4 5.4-6.57 10.15-9.3 8.6-5 20.13-7.7 32.5-7.7s23.9 2.73 32.48 7.7c4.74 2.73 8.2 5.9 10.15 9.3a13.358 13.358 0 001.92-6.72c0-5.83-4.28-11.5-12.07-16-8.6-5-20.14-7.7-32.48-7.7s-23.9 2.74-32.5 7.7c-7.8 4.5-12.07 10.17-12.07 16z"/><path id="d" d="M364.9 183.07c-1.2.6-1.67.88-1.33 1.76l.76 1.73-5.68 3-.68-1.77c-.2-.5-.63-.73-1.53-.26l-.34-.36 9-4.57-.2.47z"/></defs></svg>