<svg width="73" height="42" viewBox="1.44 10.433 71.264 29.771" fill="none" xmlns="http://www.w3.org/2000/svg"><path opacity=".99" d="M34.136 15.536c.26-.466.52-.97.743-1.472.222-.502.183-.574-.114-.711-.298-.137-.6.184-.794.429-.174.167-.34.344-.496.529-.456.675-.913 1.312-1.35 2.005l-4.707 7.172a1273.837 1273.837 0 01-5.88 8.952.233.233 0 01-.424-.078l-.01-.33c.003-1.064-.087-2.784-.209-3.752l-.653-12.097-.226-4.301a5.474 5.474 0 00-.2-1.112.492.492 0 00-.36-.337.778.778 0 00-.372.397 3.112 3.112 0 00-.177.794c-.047.808-.113 1.635-.142 2.46l-.25 9.01-.323 10.791-.578.275-.151-.142-1.568-1.471-6.957-6.14-5.826-5.148a6.27 6.27 0 00-.975-.702.467.467 0 00-.62.662c.176.315.388.61.632.878l5.575 5.944c2.107 2.298 4.177 4.597 6.338 6.838a25.892 25.892 0 003.097 2.907c.58.46 1.208.857 1.87 1.187.502.223.687.253 1.095-.181a25.07 25.07 0 002.146-2.287c.249-.265.497-.53.614-.918a37.85 37.85 0 001.991-3.144 7702.292 7702.292 0 019.261-16.907z" fill="#27AE60"/><path d="M27.414 36.004c0-.64.112-1.216.336-1.728a3.898 3.898 0 012.256-2.172c.512-.2 1.056-.3 1.632-.3.456 0 .86.044 1.212.132.36.088.668.188.924.3.296.128.552.268.768.42l-1.26 2.22a4.24 4.24 0 00-.42-.276 3.407 3.407 0 00-.492-.18 1.933 1.933 0 00-.636-.096c-.248 0-.476.044-.684.132a1.828 1.828 0 00-.552.36 1.68 1.68 0 00-.36.54c-.088.2-.132.416-.132.648 0 .232.044.452.132.66a1.791 1.791 0 001.656 1.02c.256 0 .484-.032.684-.096.2-.064.368-.136.504-.216.16-.088.3-.192.42-.312l1.26 2.22a3.566 3.566 0 01-.768.468 6.522 6.522 0 01-.924.312c-.36.096-.772.144-1.236.144-.624 0-1.2-.1-1.728-.3a4.152 4.152 0 01-1.368-.864 3.91 3.91 0 01-.9-1.32 4.43 4.43 0 01-.324-1.716zm10.927-4.008h1.92L43.297 40h-2.52l-.264-.72h-2.424l-.264.72h-2.52l3.036-8.004zm1.5 5.52l-.54-1.404-.54 1.404h1.08zm4.456-1.512c0-.64.112-1.216.336-1.728a3.898 3.898 0 012.256-2.172c.512-.2 1.056-.3 1.632-.3.456 0 .86.044 1.212.132.36.088.668.188.924.3.296.128.552.268.768.42l-1.26 2.22a4.24 4.24 0 00-.42-.276 3.407 3.407 0 00-.492-.18 1.933 1.933 0 00-.636-.096c-.248 0-.476.044-.684.132a1.828 1.828 0 00-.552.36 1.68 1.68 0 00-.36.54c-.088.2-.132.416-.132.648 0 .232.044.452.132.66a1.791 1.791 0 001.656 1.02c.256 0 .484-.032.684-.096.2-.064.368-.136.504-.216.16-.088.3-.192.42-.312l1.26 2.22a3.566 3.566 0 01-.768.468 6.522 6.522 0 01-.924.312c-.36.096-.772.144-1.236.144-.624 0-1.2-.1-1.728-.3a4.152 4.152 0 01-1.368-.864 3.91 3.91 0 01-.9-1.32 4.43 4.43 0 01-.324-1.716zm9.607-1.908h-1.476v-2.1h5.592v2.1h-1.476V40h-2.64v-5.904zm8.81 6.108c-.504 0-.96-.064-1.368-.192a2.817 2.817 0 01-1.044-.576 2.581 2.581 0 01-.672-.972c-.152-.392-.228-.852-.228-1.38v-5.088h2.556v4.98c0 .28.056.496.168.648.12.144.316.216.588.216.272 0 .464-.072.576-.216.12-.152.18-.368.18-.648v-4.98h2.568v5.088c0 .528-.08.988-.24 1.38a2.413 2.413 0 01-.672.972 2.817 2.817 0 01-1.044.576 4.559 4.559 0 01-1.368.192zm4.914-2.688c.176.056.36.1.552.132.16.04.34.072.54.096.208.024.416.036.624.036.368 0 .552-.136.552-.408 0-.104-.056-.208-.168-.312a3.658 3.658 0 00-.432-.36l-.552-.444a4.495 4.495 0 01-.552-.552 3.041 3.041 0 01-.42-.696 2.285 2.285 0 01-.168-.9c0-.376.068-.708.204-.996.136-.288.324-.528.564-.72.24-.192.52-.336.84-.432a3.434 3.434 0 011.044-.156c.192 0 .384.012.576.036.192.016.364.032.516.048l.516.072v2.244a8.884 8.884 0 00-.216-.024 8.884 8.884 0 00-.216-.024 2.535 2.535 0 00-.252-.012c-.048 0-.108.004-.18.012a.839.839 0 00-.204.024.416.416 0 00-.168.084.207.207 0 00-.072.168c0 .064.052.144.156.24l.396.336c.16.128.332.276.516.444.192.168.364.36.516.576.16.216.292.46.396.732.112.272.168.576.168.912 0 .352-.056.684-.168.996a2.132 2.132 0 01-.528.804c-.232.224-.532.4-.9.528-.368.136-.804.204-1.308.204-.304 0-.588-.016-.852-.048a6.712 6.712 0 01-.684-.096 5.795 5.795 0 01-.636-.144v-2.4z" fill="#687C94"/></svg>