<svg width="73" height="77" fill="none" xmlns="http://www.w3.org/2000/svg"><path d="M52.266 47.193L48.396 35.3l-.061.02c.052-.018 5.336-1.907 12.13-8.299a6.253 6.253 0 118.57 9.11c-8.855 8.328-15.985 10.806-16.77 11.062zm-31.532 0L24.605 35.3l.06.02c-.052-.018-5.336-1.907-12.13-8.299a6.253 6.253 0 10-8.569 9.11c8.854 8.328 15.984 10.806 16.768 11.062z" fill="#27AE60"/><path d="M11.18 26.052c.02.351.042.702.075 1.053l1.498 15.987c4.429 2.88 7.484 3.939 7.982 4.1l3.87-11.892.061.02c-.053-.018-5.337-1.907-12.13-8.298a6.248 6.248 0 00-1.355-.97zm50.566 1.053c.033-.35.055-.702.074-1.053a6.25 6.25 0 00-1.355.97c-6.794 6.39-12.078 8.28-12.13 8.299l.06-.02 3.871 11.892c.498-.162 3.553-1.22 7.982-4.101l1.498-15.987z" fill="#27AE60"/><path d="M49.297 8.09A20.85 20.85 0 0036.5 3.728a20.85 20.85 0 00-12.797 4.364c-5.678 4.39-8.625 11.448-7.956 18.593l2.165 23.112L36.5 54.031l18.588-4.235 2.166-23.112c.669-7.145-2.279-14.204-7.957-18.593z" fill="#27AE60"/><path d="M52.769 7.299a2.53 2.53 0 01-.265-1.674 2.529 2.529 0 00-2.95-2.95 2.53 2.53 0 01-1.674-.266 2.529 2.529 0 00-3.718 1.895 2.53 2.53 0 01-.77 1.51 2.53 2.53 0 00.653 4.12c.526.25.949.673 1.199 1.199a2.529 2.529 0 004.12.652 2.53 2.53 0 011.51-.77A2.529 2.529 0 0052.77 7.3zM36.5 54.03l-20.454 4.235 2.501 12.817a5.925 5.925 0 005.815 4.79h24.276a5.925 5.925 0 005.815-4.79l2.501-12.817L36.5 54.03z" fill="#EF4351"/><path d="M24.563 71.082l-2.5-12.817 17.445-3.612-3.008-.623-20.454 4.235 2.501 12.817a5.925 5.925 0 005.815 4.79h6.016a5.925 5.925 0 01-5.815-4.79z" fill="#EF4351"/><path d="M56.954 49.796H16.046a2.366 2.366 0 00-2.365 2.366v3.737a2.366 2.366 0 002.365 2.366h40.908a2.366 2.366 0 002.366-2.366v-3.737a2.366 2.366 0 00-2.366-2.366z" fill="#EFEDEE"/><path d="M19.696 55.9v-3.738a2.366 2.366 0 012.366-2.366h-6.015a2.366 2.366 0 00-2.366 2.366v3.737a2.366 2.366 0 002.366 2.366h6.015a2.366 2.366 0 01-2.366-2.366z" fill="#D2D2D2"/><path d="M25.592 26.328c-.623 0-1.128.505-1.128 1.128v1.974a1.128 1.128 0 002.256 0v-1.974c0-.623-.505-1.128-1.128-1.128zm21.813 4.23c.623 0 1.128-.505 1.128-1.128v-1.974a1.128 1.128 0 00-2.256 0v1.974c0 .623.505 1.128 1.128 1.128zm-10.907 1.054c1.375 0 2.666-.575 3.541-1.577a1.128 1.128 0 00-1.698-1.484c-.447.511-1.119.805-1.843.805-.723 0-1.395-.294-1.842-.805a1.128 1.128 0 10-1.699 1.484c.876 1.002 2.167 1.577 3.541 1.577zM47.838 9.19a1.853 1.853 0 100-3.705 1.853 1.853 0 000 3.706z" fill="#000"/><path d="M72.126 31.801a7.333 7.333 0 00-2.002-5.282 7.41 7.41 0 00-5.377-2.324 7.353 7.353 0 00-5.056 2.005 57.35 57.35 0 01-1.378 1.25l.062-.66a22.478 22.478 0 00-1.376-10.104l1.557-.648a1.128 1.128 0 10-.865-2.083l-1.603.666a21.864 21.864 0 00-2.575-3.978 3.655 3.655 0 00.244-3.884 1.405 1.405 0 01-.147-.927 3.642 3.642 0 00-.779-3.005 3.642 3.642 0 00-2.806-1.324c-.558 0-1.081.203-1.608-.084A3.663 3.663 0 0046.671.97a3.67 3.67 0 00-3.515 2.653 21.944 21.944 0 00-5.53-.995v-1.5a1.128 1.128 0 00-2.256 0v1.5a21.796 21.796 0 00-9.608 2.751l-.85-1.4a1.128 1.128 0 10-1.928 1.169l.868 1.432a21.773 21.773 0 00-6.947 8.04l-1.6-.664a1.128 1.128 0 00-.865 2.083l1.555.646a22.541 22.541 0 00-1.373 10.105l.062.66a55.156 55.156 0 01-1.378-1.25 7.353 7.353 0 00-5.057-2.005 7.41 7.41 0 00-5.377 2.324c-2.788 2.964-2.645 7.645.319 10.433 5.345 5.029 10.086 7.975 13.284 9.612l.197 2.104h-.628a3.498 3.498 0 00-3.493 3.494v3.737a3.5 3.5 0 002.538 3.36l2.35 12.039A7.066 7.066 0 0024.36 77h24.276a7.066 7.066 0 006.922-5.702l2.35-12.039a3.5 3.5 0 002.538-3.36v-3.737a3.498 3.498 0 00-3.494-3.494h-.627l.197-2.104c3.197-1.637 7.938-4.583 13.283-9.612a7.333 7.333 0 002.32-5.15zM46.672 3.227c.232 0 .456.058.667.173.732.399 1.6.536 2.42.383.955-.178 1.811.686 1.634 1.635a3.668 3.668 0 00.384 2.42c.224.412.23.888.018 1.306a1.413 1.413 0 01-1.052.75c-.837.117-1.617.5-2.2 1.116a1.42 1.42 0 01-1.921.109c-.237-.2-.355-.486-.508-.748a3.702 3.702 0 00-1.586-1.455 1.402 1.402 0 01-.361-2.283 3.688 3.688 0 001.112-2.184c.103-.793.795-1.222 1.393-1.222zM4.737 35.31a5.131 5.131 0 01-.221-7.245 5.077 5.077 0 013.734-1.613c1.31 0 2.556.494 3.51 1.392a56.233 56.233 0 003.224 2.812l1.239 13.217c-2.985-1.66-7.006-4.349-11.486-8.563zm24.796 15.615h27.42a1.24 1.24 0 011.237 1.238V55.9a1.24 1.24 0 01-1.238 1.238h-7.868a1.128 1.128 0 000 2.256h6.499l-2.239 11.473a4.806 4.806 0 01-4.708 3.878H24.36a4.806 4.806 0 01-4.708-3.878l-2.238-11.473h27.158a1.128 1.128 0 000-2.256H16.045a1.24 1.24 0 01-1.238-1.238v-3.737a1.24 1.24 0 011.238-1.238h8.976a1.128 1.128 0 000-2.256h-6.083l-.275-2.936L17.2 30.134l-.333-3.555a20.28 20.28 0 011.212-9.029l1.161.482a1.138 1.138 0 001.475-.608 1.128 1.128 0 00-.61-1.475l-1.11-.46a19.505 19.505 0 016.03-6.976l.654 1.08a1.139 1.139 0 001.55.38 1.128 1.128 0 00.379-1.55l-.674-1.111A19.561 19.561 0 0135.37 4.89v1.436a1.128 1.128 0 002.255 0V4.89c1.512.085 2.999.337 4.443.76l-.007.012a3.699 3.699 0 00-.544 2.561 3.656 3.656 0 002.042 2.73c.288.138.526.376.664.665a3.716 3.716 0 003.109 2.08 3.698 3.698 0 002.846-1.133l.003-.003a1.42 1.42 0 01.837-.427c.229-.03.457-.08.676-.152A19.595 19.595 0 0154 15.489l-1.108.46a1.128 1.128 0 00-.61 1.475c.236.566.91.843 1.475.609l1.159-.482a20.216 20.216 0 011.214 9.028l-.317 3.388-1.477 15.765-.276 2.936H29.534a1.128 1.128 0 000 2.256zM68.26 35.309c-4.48 4.214-8.501 6.903-11.486 8.563l1.239-13.217a56.296 56.296 0 003.224-2.812 5.105 5.105 0 013.51-1.392c1.43 0 2.756.573 3.734 1.613a5.092 5.092 0 011.39 3.669 5.092 5.092 0 01-1.611 3.576z" fill="#000"/></svg>