<svg width="90" height="94" viewBox="0 0 90 94" fill="none" xmlns="http://www.w3.org/2000/svg">
<path opacity="0.1" d="M66.8448 92.4875L52.0873 87.4323C49.6418 86.5779 47.6467 84.8334 46.5351 82.5774C45.4234 80.3215 45.285 77.7362 46.1498 75.383L54.7229 51.793C55.136 50.6283 55.7863 49.5539 56.6362 48.6321C57.486 47.7103 58.5184 46.9596 59.6734 46.4234C60.8285 45.8872 62.0831 45.5763 63.3645 45.5087C64.6459 45.4411 65.9285 45.6181 67.1379 46.0296L81.8955 51.0825C86.9633 52.817 89.6231 58.2136 87.8354 63.1317L79.2599 86.7218C78.847 87.8867 78.1969 88.9613 77.3471 89.8834C76.4974 90.8054 75.465 91.5564 74.31 92.0928C73.1549 92.6293 71.9002 92.9404 70.6187 93.0081C69.3372 93.0759 68.0544 92.8989 66.8448 92.4875Z" fill="#4A4A4A"/>
<path opacity="0.1" d="M53.5746 17.6123H10.4356C6.85944 17.6123 3.96039 20.3912 3.96039 23.8192V78.0512C3.96039 81.4791 6.85944 84.2581 10.4356 84.2581H53.5746C57.1508 84.2581 60.0499 81.4791 60.0499 78.0512V23.8192C60.0499 20.3912 57.1508 17.6123 53.5746 17.6123Z" fill="#4A4A4A"/>
<path d="M55.423 82.5328L6.59846 82.4934C5.11944 82.4829 3.7051 81.9107 2.66562 80.9021C1.62614 79.8935 1.04637 78.5309 1.05347 77.1131L1.00018 14.0435C0.993793 13.1993 1.16111 12.3621 1.49256 11.5799C1.82401 10.7977 2.31309 10.0858 2.93182 9.48495C3.55055 8.88409 4.28679 8.40606 5.09843 8.0782C5.91006 7.75034 6.78117 7.57908 7.66192 7.57422L55.3576 7.61834C56.837 7.62877 58.2517 8.20136 59.2913 9.21045C60.3308 10.2195 60.9103 11.5827 60.9025 13.0009L60.9558 77.1619C60.9642 78.5772 60.3862 79.9377 59.3488 80.9448C58.3114 81.9519 56.8994 82.523 55.423 82.5328Z" fill="#ECECEC" stroke="#4A4A4A" stroke-width="2" stroke-linecap="round" stroke-linejoin="round"/>
<path d="M5.33387 75.8003L5.28058 14.5936C5.27706 14.231 5.34965 13.8713 5.49416 13.5353C5.63867 13.1994 5.85224 12.8938 6.12252 12.6362C6.39281 12.3786 6.71446 12.1741 7.06889 12.0346C7.42333 11.8951 7.80352 11.8232 8.18752 11.8232L53.6739 11.8598C54.4489 11.8641 55.1905 12.1587 55.7356 12.6791C56.2807 13.1994 56.5847 13.9029 56.5808 14.6348L56.622 75.8529C56.6255 76.2155 56.5529 76.5752 56.4084 76.9111C56.2639 77.2471 56.0504 77.5527 55.7801 77.8103C55.5098 78.0679 55.1881 78.2724 54.8337 78.4119C54.4793 78.5514 54.0991 78.6233 53.7151 78.6232L8.2287 78.5889C7.45343 78.5811 6.71314 78.283 6.17038 77.7602C5.62762 77.2373 5.32677 76.5324 5.33387 75.8003Z" fill="white" stroke="#4A4A4A" stroke-width="2" stroke-linecap="round" stroke-linejoin="round"/>
<path d="M49.2119 28.2356C51.2709 28.2356 52.94 26.6159 52.94 24.6178C52.94 22.6197 51.2709 21 49.2119 21C47.1529 21 45.4837 22.6197 45.4837 24.6178C45.4837 26.6159 47.1529 28.2356 49.2119 28.2356Z" fill="#E0E1FF"/>
<path d="M47.8988 24.569L48.6255 25.449C48.6255 25.449 49.5945 24.0722 50.7331 23.7727" stroke="white" stroke-linecap="round" stroke-linejoin="round"/>
<path d="M43.3082 7.27199V4.25326C43.3121 3.39943 42.9626 2.57896 42.3364 1.97174C41.7102 1.36451 40.8583 1.02007 39.9676 1.01393L22.0657 1C21.6255 1.00213 21.19 1.08747 20.7842 1.25115C20.3784 1.41483 20.0102 1.65363 19.7008 1.95388C19.3914 2.25412 19.1468 2.60992 18.9811 3.0009C18.8153 3.39187 18.7317 3.81034 18.7348 4.23236V7.25109H14.825V15.6455L47.218 15.6733V7.27663L43.3082 7.27199Z" fill="#E0E1FF"/>
<path d="M47.2255 15.6709L14.6798 15.643L14.6774 11.9346L47.223 11.9624L47.2255 15.6709Z" fill="#F3F3FF"/>
<path d="M43.3082 7.27199V4.25326C43.3121 3.39943 42.9626 2.57897 42.3364 1.97174C41.7102 1.36451 40.8583 1.02007 39.9676 1.01393L22.0657 1C21.6255 1.00213 21.19 1.08747 20.7842 1.25115C20.3784 1.41483 20.0102 1.65363 19.7008 1.95388C19.3914 2.25412 19.1468 2.60992 18.9811 3.0009C18.8153 3.39187 18.7317 3.81034 18.7348 4.23236V7.25109H14.825V15.6455L47.218 15.6733V7.27663L43.3082 7.27199Z" stroke="#4A4A4A" stroke-width="2" stroke-linecap="round" stroke-linejoin="round"/>
<path d="M33.926 7.80859H27.3491C27.0375 7.80614 26.7395 7.6856 26.5203 7.47329C26.3011 7.26097 26.1784 6.97414 26.179 6.67542C26.1761 6.52636 26.2042 6.37824 26.2615 6.23964C26.3187 6.10103 26.4042 5.97472 26.5128 5.86801C26.6214 5.7613 26.7511 5.67633 26.8942 5.61802C27.0373 5.5597 27.1911 5.52922 27.3467 5.52832H33.9236C34.2355 5.53138 34.5334 5.65244 34.7526 5.86512C34.9717 6.0778 35.0943 6.36488 35.0937 6.66381C35.0956 6.81251 35.0669 6.96012 35.0092 7.09817C34.9515 7.23623 34.866 7.36203 34.7576 7.46836C34.6491 7.5747 34.5198 7.65948 34.3772 7.71787C34.2345 7.77625 34.0812 7.80708 33.926 7.80859Z" fill="#4A4A4A"/>
<path d="M70.3817 91.547L49.2676 84.3161C48.194 83.9362 47.3192 83.1669 46.832 82.1743C46.3448 81.1816 46.2843 80.0452 46.6635 79.0101L58.7757 45.7024C58.9581 45.19 59.2446 44.7174 59.6188 44.3119C59.993 43.9064 60.4474 43.5761 60.9556 43.34C61.4639 43.104 62.016 42.9669 62.5799 42.9368C63.1437 42.9066 63.7083 42.984 64.2408 43.1644L85.3549 50.3953C86.4307 50.7729 87.3083 51.5412 87.7978 52.5341C88.2874 53.527 88.3497 54.6647 87.9711 55.7012L75.8588 89.009C75.6763 89.5225 75.3891 89.9962 75.014 90.4024C74.639 90.8087 74.1834 91.1395 73.6738 91.3756C73.1643 91.6118 72.6108 91.7485 72.0457 91.7779C71.4805 91.8073 70.9149 91.7288 70.3817 91.547Z" fill="white" stroke="#4A4A4A" stroke-width="2" stroke-linecap="round" stroke-linejoin="round"/>
<path d="M81.0768 59.1842L61.3071 52.4131C60.8937 52.2688 60.5562 51.9741 60.368 51.5929C60.1798 51.2116 60.156 50.7746 60.3018 50.3767L61.5712 46.8936C61.6411 46.6969 61.7511 46.5154 61.8947 46.3597C62.0383 46.204 62.2127 46.0771 62.4078 45.9864C62.6029 45.8957 62.8148 45.843 63.0313 45.8313C63.2478 45.8197 63.4646 45.8492 63.669 45.9184L83.4387 52.6894C83.8521 52.8337 84.1894 53.1285 84.3772 53.5099C84.565 53.8912 84.5881 54.3282 84.4416 54.7259L83.1746 58.2089C83.1047 58.4056 82.9947 58.5871 82.8511 58.7428C82.7075 58.8985 82.5331 59.0254 82.338 59.1161C82.1429 59.2068 81.931 59.2595 81.7145 59.2712C81.498 59.2829 81.2813 59.2533 81.0768 59.1842Z" fill="#E0E1FF" stroke="#4A4A4A" stroke-width="2" stroke-linecap="round" stroke-linejoin="round"/>
<path d="M70.98 87.6923L51.2007 80.9189C50.7279 80.7517 50.3428 80.413 50.1284 79.976C49.914 79.5389 49.8876 79.0385 50.0549 78.5829L57.9181 56.9482C57.9984 56.7224 58.1246 56.5142 58.2895 56.3355C58.4544 56.1569 58.6546 56.0114 58.8786 55.9075C59.1026 55.8036 59.3459 55.7433 59.5944 55.7303C59.8428 55.7172 60.0915 55.7515 60.326 55.8313L80.0932 62.6047C80.5669 62.771 80.9532 63.1093 81.1685 63.5465C81.3839 63.9837 81.4109 64.4845 81.2439 64.9407L73.3879 86.5685C73.3081 86.7947 73.1822 87.0035 73.0176 87.1827C72.853 87.3619 72.6529 87.5081 72.4289 87.6126C72.2049 87.7171 71.9615 87.778 71.7128 87.7917C71.4641 87.8054 71.215 87.7716 70.98 87.6923Z" fill="#F7F7F7" stroke="#4A4A4A" stroke-width="2" stroke-linecap="round" stroke-linejoin="round"/>
<path d="M70.8226 87.5856L67.3052 86.3804L71.823 73.9504L75.7861 75.3065C76.1869 75.4489 76.5132 75.7367 76.6945 76.1078C76.8757 76.4788 76.8975 76.9033 76.7551 77.2896L73.4654 86.3595C73.3773 86.6073 73.2387 86.8358 73.0577 87.0319C72.8767 87.2279 72.657 87.3876 72.4111 87.5016C72.1653 87.6157 71.8983 87.6818 71.6256 87.6962C71.3529 87.7106 71.08 87.673 70.8226 87.5856Z" fill="#6665FF"/>
<path d="M64.4756 57.2544L55.3575 82.3423" stroke="#4A4A4A" stroke-width="2" stroke-linecap="round" stroke-linejoin="round"/>
<path d="M70.4107 59.2864L61.2902 84.374" stroke="#4A4A4A" stroke-width="2" stroke-linecap="round" stroke-linejoin="round"/>
<path d="M76.353 61.2952L67.2349 86.3828" stroke="#4A4A4A" stroke-width="2" stroke-linecap="round" stroke-linejoin="round"/>
<path d="M56.2612 61.4968L79.5967 69.4897" stroke="#4A4A4A" stroke-width="2" stroke-linecap="round" stroke-linejoin="round"/>
<path d="M53.9817 67.7668L77.2953 75.8242" stroke="#4A4A4A" stroke-width="2" stroke-linecap="round" stroke-linejoin="round"/>
<path d="M51.4866 74.6306L69.2892 80.7261" stroke="#4A4A4A" stroke-width="2" stroke-linecap="round" stroke-linejoin="round"/>
<path d="M70.98 87.6923L51.2007 80.9189C50.7279 80.7517 50.3428 80.413 50.1284 79.976C49.914 79.5389 49.8876 79.0385 50.0549 78.5829L57.9181 56.9482C57.9984 56.7224 58.1246 56.5142 58.2895 56.3355C58.4544 56.1569 58.6546 56.0114 58.8786 55.9075C59.1026 55.8036 59.3459 55.7433 59.5944 55.7303C59.8428 55.7172 60.0915 55.7515 60.326 55.8313L80.0932 62.6047C80.5669 62.771 80.9532 63.1093 81.1685 63.5465C81.3839 63.9837 81.4109 64.4845 81.2439 64.9407L73.3879 86.5685C73.3081 86.7947 73.1822 87.0035 73.0176 87.1827C72.853 87.3619 72.6529 87.5081 72.4289 87.6126C72.2049 87.7171 71.9615 87.778 71.7128 87.7917C71.4641 87.8054 71.215 87.7716 70.98 87.6923V87.6923Z" stroke="#4A4A4A" stroke-width="2" stroke-linecap="round" stroke-linejoin="round"/>
<rect x="10" y="21" width="30" height="9" rx="2" fill="#ECECEC"/>
<rect x="10" y="34" width="30" height="5" rx="2" fill="#ECECEC"/>
<rect x="10" y="61" width="30" height="5" rx="2" fill="#ECECEC"/>
<rect x="10" y="43" width="30" height="5" rx="2" fill="#ECECEC"/>
<rect x="10" y="52" width="38" height="5" rx="2" fill="#ECECEC"/>
</svg>
