<svg width="522" height="512" fill="none" xmlns="http://www.w3.org/2000/svg"><path d="M413.996 508.11c33.669-3.964 54.9-29.93 64.238-57.079 9.339-27.157 10.213-56.856 20.593-83.617 9.058-23.355 25.409-43.983 47.133-59.489 17.88-12.757 39.282-22.124 55.227-36.568 15.945-14.444 25.696-36.452 15.131-56.631-12.123-23.226-43.995-33.923-70.315-46.611-18.475-8.928-35.84-20.21-49.442-34.198-21.775-22.496-32.462-50.294-48.14-75.787-15.678-25.495-40.438-51.167-72.779-56.919-30.861-5.483-58.164 8.713-83.177 21.257C260.344 38.6 223.7 53.25 183.93 47c-19.218-3.008-37.84-10.808-57.118-13.452-28.56-3.934-56.37 4.063-77.375 17.973-35.17 23.325-52.47 62.971-49 103.367 3.48 40.336 26.677 80.874 60.62 112.865 14.956 14.101 32.793 27.843 38.594 45.452 8.078 24.642-10.18 48.766-.971 73.253 8.533 22.799 37.88 37.264 65.187 43.019 27.276 5.714 55.306 5.674 82.078 13.754 36.395 11.021 65.866 35.644 97.249 56.048 19.23 12.459 33.271 14.713 70.802 8.831z" fill="#687C94" fill-opacity=".15"/></svg>