<svg width="522" height="512" viewBox="0 0 522 512" fill="none" xmlns="http://www.w3.org/2000/svg">
<g style="mix-blend-mode:multiply">
<path d="M413.996 508.11C447.665 504.146 468.896 478.18 478.234 451.031C487.573 423.874 488.447 394.175 498.827 367.414C507.885 344.059 524.236 323.431 545.96 307.925C563.84 295.168 585.242 285.801 601.187 271.357C617.132 256.913 626.883 234.905 616.318 214.726C604.195 191.5 572.323 180.803 546.003 168.115C527.528 159.187 510.163 147.905 496.561 133.917C474.786 111.421 464.099 83.6233 448.421 58.1296C432.743 32.6351 407.983 6.96313 375.642 1.21128C344.781 -4.27204 317.478 9.92416 292.465 22.4684C260.344 38.6003 223.7 53.2504 183.93 46.9999C164.712 43.9925 146.09 36.1923 126.812 33.5485C98.2528 29.6141 70.4411 37.6109 49.4366 51.521C14.2665 74.8456 -3.0335 114.492 0.4365 154.888C3.9175 195.224 27.1145 235.762 61.0567 267.753C76.0129 281.854 93.8495 295.596 99.6512 313.205C107.729 337.847 89.4705 361.971 98.6798 386.458C107.213 409.257 136.56 423.722 163.867 429.477C191.143 435.191 219.173 435.151 245.945 443.231C282.34 454.252 311.811 478.875 343.194 499.279C362.424 511.738 376.465 513.992 413.996 508.11Z" fill="#687C94" fill-opacity="0.15"/>
</g>
</svg>
