<svg width="183" height="422" fill="none" xmlns="http://www.w3.org/2000/svg"><path d="M62.593 130.501c20.563-53.324 30.185-107.383-.575-101.623-30.76 5.76-45.624 99.285-24.593 169.206l1.471 25.536c-14.446-51.173-56.828-102.733-82.089-94.518-25.26 8.214 6.21 39.906 39.654 64.085 25.415 18.577 37.916 36.321 43.322 46.006l6.947 120.432C23.59 278.549-43.38 197.417-83.328 210.246c-39.949 12.829 9.868 63.282 62.957 101.668 40.07 29.015 59.847 57.22 68.527 72.685l1.434 23.918c4.202.42 8.403.84 12.624 1.186l-8.33-143.08a162.94 162.94 0 0132.19-39.344c30.49-27.876 57.958-62.915 32.116-68.192-22.317-4.529-52.513 36.448-65.77 81.532l-2.81-49.664a234.925 234.925 0 0112.983-60.454z" fill="#687C94"/><path d="M150.961 266.887c24.435-24.555 43.043-52.278 24.534-56.615-18.509-4.337-49.641 43.942-55.071 88.002l-5.43 14.535c4.518-32-6.46-70.972-22.512-72.576-16.052-1.604-6.302 23.763 6.381 45.308 9.651 16.456 12.187 29.427 12.821 36.14l-25.623 68.595c6.996-50.674-10.384-112.161-35.809-114.715-25.425-2.555-9.908 37.625 10.127 71.883 15.2 25.921 19.282 46.417 20.332 57.13l-5.113 13.683c2.24 1.268 4.479 2.495 6.738 3.743l30.478-81.626a98.42 98.42 0 0127.545-13.98c23.781-8.04 47.561-20.813 34.521-30.06-11.374-7.921-38.107 7.426-56.517 29.228l10.542-28.238c4.756-8.159 11.514-19.842 22.056-30.437z" fill="#DEEAF8"/></svg>