<svg width="96" height="48" fill="none" xmlns="http://www.w3.org/2000/svg"><path d="M93.965 25.232a1.395 1.395 0 00-1.572 1.194 20.773 20.773 0 01-6.874 12.778 20.771 20.771 0 01-13.726 5.174 20.67 20.67 0 01-7.945-1.571 1.512 1.512 0 00-.134-.048c-.03-.009-3.003-.938-7.43-4.452a1.396 1.396 0 00-1.736 2.187c4.542 3.605 7.733 4.736 8.29 4.916a23.453 23.453 0 008.955 1.76 23.562 23.562 0 0015.57-5.87 23.565 23.565 0 007.796-14.496 1.396 1.396 0 00-1.194-1.572z" fill="#F6376D"/><path d="M60.37 33.247c2.962 2.641 6.647 5.34 11.516 5.34h.005c8.27-.002 14.997-6.733 14.997-15.002 0-8.273-6.73-15.003-15.003-15.003-5.704 0-9.592 3.312-12.342 6.198-4.023 4.222-13.148 15.048-13.48 15.468-8.748 11.072-13.945 12.405-14.229 12.47-.119.016-.19.041-.304.088a20.66 20.66 0 01-7.074 1.554l-.885.018a20.65 20.65 0 01-14.743-6.145A20.653 20.653 0 012.793 23.43c.04-5.537 2.254-10.741 6.233-14.653 3.932-3.864 9.095-5.984 14.56-5.984h.21c2.587.026 5.106.521 7.488 1.471.148.059.294.116.443.172.726.272 7.132 2.859 14.341 12.011 0 0-3.097 3.783-3.814 4.634a105.177 105.177 0 00-7.246-7.157c-2.962-2.642-6.647-5.341-11.516-5.341h-.005c-.498 0-1 .025-1.494.074a1.396 1.396 0 00.276 2.778c.402-.04.812-.06 1.219-.06h.005c2.207 0 5.08.551 9.658 4.632 3.254 2.901 5.98 5.794 7.273 7.212a213.946 213.946 0 01-6.61 7.245c-3.515 3.688-6.698 5.332-10.322 5.332-6.733 0-12.21-5.478-12.21-12.21a12.2 12.2 0 015.446-10.169 1.396 1.396 0 10-1.549-2.323 14.988 14.988 0 00-6.69 12.492c0 8.272 6.73 15.002 15.003 15.003 5.704 0 9.592-3.312 12.342-6.198 4.024-4.222 13.729-15.782 13.729-15.782l.017-.02C58.17 5.82 63.263 4.514 63.543 4.45c.119-.015.191-.04.305-.088A20.665 20.665 0 0170.92 2.81l.885-.018a20.794 20.794 0 0120.528 17.546 1.396 1.396 0 002.758-.433A23.589 23.589 0 0071.792 0h-.028l-.913.019a23.449 23.449 0 00-7.942 1.712c-1.169.26-6.472 1.971-15.026 12.512C40.525 5.083 33.99 2.301 32.704 1.821c-.13-.049-.258-.1-.386-.15A23.465 23.465 0 0023.824 0C17.53-.064 11.584 2.348 7.07 6.786 2.557 11.22.047 17.125.001 23.409c-.046 6.335 2.385 12.298 6.846 16.792 4.461 4.494 10.405 6.969 16.738 6.969h.028l.914-.019h.028a23.445 23.445 0 007.914-1.712c1.154-.257 6.33-1.926 14.678-12.087.798.912 1.607 1.79 2.417 2.618a1.396 1.396 0 001.997-1.95c-.879-.9-1.759-1.86-2.623-2.862.733-.884 3.469-4.218 4.185-5.069a105.185 105.185 0 007.247 7.158zm1.194-16.541c3.514-3.688 6.697-5.332 10.321-5.332 6.733 0 12.211 5.478 12.211 12.211 0 6.73-5.475 12.209-12.206 12.211h-.005c-2.207 0-5.08-.552-9.658-4.633-3.255-2.901-5.981-5.795-7.274-7.212a214.258 214.258 0 016.611-7.245z" fill="#687C94"/></svg>