<svg width="75" height="75" fill="none" xmlns="http://www.w3.org/2000/svg"><path d="M70.261 36.402H59.652l4.05-2.338a4.744 4.744 0 001.734-6.473L52.978 6.01l-.282-.487-1.82-3.152A4.708 4.708 0 0048 .164a4.707 4.707 0 00-3.596.473L21.825 13.673a1.099 1.099 0 001.098 1.903L45.502 2.54a2.545 2.545 0 013.472.93l1.27 2.201L3.811 32.48 2.54 30.279a2.525 2.525 0 01-.254-1.929 2.525 2.525 0 011.184-1.543l15.513-8.957a1.099 1.099 0 00-1.098-1.902L2.37 24.904a4.708 4.708 0 00-2.208 2.878 4.707 4.707 0 00.474 3.595l1.82 3.152 1.82 3.153 10.92 18.915a4.743 4.743 0 001.791 1.766V70.26a4.744 4.744 0 004.739 4.74h33.21a1.099 1.099 0 100-2.198h-33.21a2.544 2.544 0 01-2.541-2.541V57.704 41.14a2.544 2.544 0 012.541-2.541h48.534a2.544 2.544 0 012.542 2.541v29.12a2.544 2.544 0 01-2.542 2.542h-10.93a1.099 1.099 0 100 2.197h10.93a4.744 4.744 0 004.74-4.739v-29.12a4.744 4.744 0 00-4.74-4.739zM51.343 7.574l.386.67.942 1.63L6.237 36.683l-1.328-2.3L51.343 7.574zM16.988 41.141v14.164l-9.652-16.72L53.77 11.778l9.764 16.912a2.545 2.545 0 01-.93 3.472l-7.346 4.241h-33.53a4.744 4.744 0 00-4.74 4.739z" fill="#687C94"/><path d="M56.987 22.662a1.099 1.099 0 00-1.5-.403l-10.509 6.067a1.099 1.099 0 101.099 1.903l10.508-6.067c.525-.303.705-.975.402-1.5zM59.011 28.366a1.099 1.099 0 00-1.098-1.903L53.71 28.89a1.099 1.099 0 001.098 1.902l4.203-2.426zM53.233 50.733h12.216a2.273 2.273 0 002.27-2.27v-2.51a2.273 2.273 0 00-2.27-2.27H53.233a2.273 2.273 0 00-2.27 2.27v2.51a2.273 2.273 0 002.27 2.27zm-.073-4.78c0-.04.033-.073.073-.073h12.216c.04 0 .073.032.073.073v2.51c0 .04-.032.073-.073.073H53.233a.073.073 0 01-.073-.074v-2.51z" fill="#F6376D"/><path d="M36.173 50.89v-7.364a2.273 2.273 0 00-2.27-2.27h-9.79a2.273 2.273 0 00-2.271 2.27v7.363a2.273 2.273 0 002.27 2.27h9.79a2.273 2.273 0 002.27-2.27zm-2.198-7.364v2.583h-3.87v-2.656h3.797c.04 0 .073.033.073.073zm-9.863-.073h3.797v2.656h-3.87v-2.583c0-.04.033-.073.073-.073zm-.073 7.436v-2.583h9.936v2.583c0 .04-.032.073-.073.073h-9.79a.073.073 0 01-.073-.073z" fill="#687C94"/><path d="M22.94 63.096a1.099 1.099 0 100 2.197h4.854a1.099 1.099 0 100-2.197h-4.853zM32.647 65.293h14.56a1.099 1.099 0 100-2.197h-14.56a1.099 1.099 0 000 2.197z" fill="#F6376D"/><path d="M52.06 65.293h7.281a1.099 1.099 0 100-2.197h-7.28a1.099 1.099 0 100 2.197z" fill="#687C94"/></svg>