<svg width="75" height="73" fill="none" xmlns="http://www.w3.org/2000/svg"><path d="M41.58 12.565C38.085 8.977 33.438 7 28.496 7c-4.943 0-9.59 1.976-13.085 5.565-7.215 7.408-7.215 19.462 0 26.87C18.906 43.023 23.553 45 28.496 45c4.942 0 9.59-1.976 13.084-5.565C45.075 35.846 47 31.075 47 26c0-5.075-1.925-9.846-5.42-13.435zm-24.679 1.53c3.097-3.18 7.215-4.931 11.595-4.931 4.38 0 8.497 1.751 11.594 4.931a16.868 16.868 0 0 1 4.577 9.105l-5.744 5.767a3.655 3.655 0 0 0-1.839-.495c-1.3 0-2.448.682-3.122 1.716l-8.443-2.72.002-.076c0-2.126-1.684-3.856-3.755-3.856-2.07 0-3.755 1.73-3.755 3.856 0 .695.18 1.348.495 1.911l-4.43 4.715c-3.36-6.381-2.42-14.537 2.825-19.923zm21.831 18.232c0 .933-.74 1.692-1.648 1.692-.908 0-1.648-.759-1.648-1.692 0-.933.74-1.692 1.648-1.692.909 0 1.648.76 1.648 1.692zm-15.318-4.935c0 .933-.74 1.692-1.648 1.692-.909 0-1.648-.76-1.648-1.692 0-.933.74-1.692 1.648-1.692.909 0 1.648.76 1.648 1.692zM40.09 37.905c-3.097 3.18-7.215 4.931-11.594 4.931-4.38 0-8.498-1.751-11.595-4.931a16.769 16.769 0 0 1-1.667-2.002l4.789-5.097a3.654 3.654 0 0 0 1.743.442c1.3 0 2.448-.682 3.122-1.716l8.443 2.72-.002.075c0 2.126 1.684 3.856 3.755 3.856 2.07 0 3.755-1.73 3.755-3.856 0-.655-.16-1.272-.442-1.813L44.893 26c0 4.497-1.706 8.725-4.803 11.905z" fill="#EF4351"/><path d="M19 15.43 20.38 17c3.26-2.802 7.83-3.666 11.928-2.254L33 12.782c-4.808-1.656-10.172-.64-14 2.649zM36.11 14 35 15.826c.564.344 1.106.74 1.61 1.174L38 15.38A14.407 14.407 0 0 0 36.11 14zm-5.53 24.612A11.336 11.336 0 0 1 23.758 38L23 39.969a13.309 13.309 0 0 0 8 .718l-.42-2.075z" fill="#263135"/><path d="m56.08 43.89-1.572 1.58-3.897-4.19c4.613-6.78 5.723-15.264 3.33-22.864l3.092-3.041a3.814 3.814 0 0 0 1.827.463c2.126 0 3.855-1.74 3.855-3.877a3.87 3.87 0 0 0-.421-1.76l6.638-6.527v3.374h2.164V0h-7.008v2.176h3.272l-6.55 6.442a3.814 3.814 0 0 0-1.95-.535c-2.126 0-3.856 1.74-3.856 3.878 0 .684.178 1.327.489 1.885l-2.37 2.33a26.22 26.22 0 0 0-5.617-8.4c-10.217-10.275-26.84-10.274-37.057 0C1.347 16.929.354 31.194 7.467 41.463l-1.822 1.9a3.813 3.813 0 0 0-1.79-.446C1.73 42.917 0 44.657 0 46.795s1.73 3.877 3.856 3.877 3.855-1.74 3.855-3.877c0-.7-.186-1.355-.509-1.922l1.592-1.66a26.52 26.52 0 0 0 1.654 1.83 26.048 26.048 0 0 0 18.53 7.706 26.071 26.071 0 0 0 14.727-4.543l3.907 4.2-1.625 1.633L64.907 73 75 62.85 56.08 43.89zm2.78-33.63c.933 0 1.692.763 1.692 1.7a1.7 1.7 0 0 1-1.692 1.702 1.699 1.699 0 0 1-1.692-1.701 1.7 1.7 0 0 1 1.692-1.702zM3.856 48.495a1.699 1.699 0 0 1-1.692-1.701c0-.939.759-1.702 1.692-1.702.933 0 1.692.763 1.692 1.702 0 .938-.76 1.701-1.692 1.701zm8.123-4.992c-9.374-9.426-9.374-24.763 0-34.19a23.895 23.895 0 0 1 16.998-7.069 23.897 23.897 0 0 1 16.999 7.07c9.373 9.426 9.373 24.763 0 34.19-9.373 9.425-24.625 9.425-33.997 0zM45.454 46.9a26.42 26.42 0 0 0 3.842-3.85l3.682 3.958-3.835 3.857-3.69-3.965zm19.451 23.024L49.05 54.036l7.032-7.072 15.855 15.89-7.032 7.071z" fill="#07074F"/><path d="M54.922 49 52 52.085l1.444 1.525 1.477-1.56L60.556 58 62 56.475 54.922 49z" fill="#263135"/><path d="M64.414 58.586 63 60l1.414 1.414L65.828 60l-1.414-1.414zM14 53h-2v2h2v-2zm0 13h-2v2h2v-2z" fill="#000"/><path d="M31 58h-2v2h2v-2z" fill="#EF4351"/><path d="M62 38h-2v2h2v-2zm2-18h-2v2h2v-2z" fill="#000"/><path d="M71 30h-2v2h2v-2z" fill="#EF4351"/></svg>