<svg width="75" height="75" fill="none" xmlns="http://www.w3.org/2000/svg"><path d="M73.583 11.399l.987-.988A1.465 1.465 0 0072.5 8.34l-.988.988-.986-.987a1.465 1.465 0 00-1.036-.43h-1.611L60.396.43A1.465 1.465 0 0059.36 0H5.275A5.281 5.281 0 000 5.275v27.451a5.281 5.281 0 005.275 5.276h12.762l-8.582 8.582a5.24 5.24 0 00-1.545 3.73c0 1.409.549 2.734 1.545 3.73l19.411 19.41A5.24 5.24 0 0032.596 75a5.24 5.24 0 003.73-1.545l14.538-14.538a1.465 1.465 0 10-2.071-2.072L34.255 71.383a2.33 2.33 0 01-1.659.687 2.33 2.33 0 01-1.658-.687l-19.411-19.41a2.33 2.33 0 01-.687-1.66c0-.626.244-1.215.687-1.658L49.34 10.841h19.541l.558.558-3.387 3.387a4.368 4.368 0 00-1.894-.43 4.4 4.4 0 00-4.394 4.395 4.4 4.4 0 004.394 4.394 4.4 4.4 0 004.395-4.394c0-.678-.155-1.32-.43-1.893l3.388-3.388.557.558v19.54L58.115 47.525a1.465 1.465 0 002.072 2.071L74.57 35.212c.275-.275.43-.648.43-1.036V13.42c0-.388-.155-.76-.43-1.036l-.987-.986zM26.305 26.284a1.467 1.467 0 01-1.465-1.465c0-.808.657-1.466 1.465-1.466s1.465.658 1.465 1.466c0 .808-.657 1.465-1.465 1.465zm22.43-18.373c-.389 0-.762.154-1.036.43L30.664 25.374a4.4 4.4 0 00-4.358-4.951 4.4 4.4 0 00-4.396 4.395 4.4 4.4 0 004.952 4.358l-5.895 5.895H5.275a2.349 2.349 0 01-2.345-2.346V5.276A2.348 2.348 0 015.275 2.93h53.478l4.981 4.981h-15zm15.424 12.305a1.466 1.466 0 01-1.465-1.465c0-.808.658-1.465 1.465-1.465.335 0 .642.114.889.303.039.05.08.1.126.146.047.047.096.088.147.127.19.247.303.554.303.889 0 .807-.657 1.465-1.465 1.465z" fill="#687C94"/><path d="M48.72 43.335c.388 0 .76-.155 1.036-.43l3.314-3.314a1.465 1.465 0 00-2.072-2.072L48.72 39.8l-7.25-7.251a1.465 1.465 0 00-2.072 2.071l8.286 8.287c.275.274.647.429 1.036.429zM60.114 30.476a1.465 1.465 0 00-2.072 0l-1.865 1.864-2.071-2.07 1.864-1.865a1.465 1.465 0 00-2.072-2.072l-1.864 1.864-2.072-2.071 1.865-1.865a1.465 1.465 0 00-2.072-2.071l-2.9 2.9a1.465 1.465 0 000 2.072l8.287 8.286a1.46 1.46 0 002.072 0l2.9-2.9c.572-.572.572-1.5 0-2.072zM43.912 47.318a1.465 1.465 0 101.33-2.61l-10.98-5.594a1.465 1.465 0 00-1.97 1.97l5.593 10.98a1.464 1.464 0 102.61-1.33l-.448-.882 2.983-2.983.882.449zm-5.264-.21l-1.7-3.337 3.337 1.7-1.637 1.637zM29.869 58.65a1.465 1.465 0 002.071 2.071l2.072-2.071a4.4 4.4 0 000-6.215 4.4 4.4 0 00-5.952-.241c-.054.04-.106.084-.155.133l-.108.108c-.277.276-.645.429-1.036.429s-.759-.152-1.036-.43a1.467 1.467 0 010-2.07l2.072-2.072a1.465 1.465 0 00-2.072-2.072l-2.071 2.071a4.4 4.4 0 000 6.215 4.366 4.366 0 003.107 1.287 4.366 4.366 0 003.104-1.284l.004-.003a1.466 1.466 0 012.5 1.036c0 .391-.152.76-.429 1.036l-2.072 2.072z" fill="#F6376D"/><path d="M25.098 9.456a1.465 1.465 0 00-1.996.556l-9.448 16.736a1.465 1.465 0 102.551 1.44l9.449-16.736a1.465 1.465 0 00-.556-1.996zM18.336 13.183a4.4 4.4 0 00-4.395-4.395 4.4 4.4 0 00-4.395 4.395 4.4 4.4 0 004.395 4.395 4.4 4.4 0 004.395-4.395zm-5.86 0c0-.808.657-1.465 1.465-1.465s1.465.657 1.465 1.465-.657 1.466-1.465 1.466a1.467 1.467 0 01-1.465-1.466z" fill="#687C94"/><path d="M54.49 51.755c-.387 0-.763.157-1.036.43-.272.272-.429.65-.429 1.035 0 .385.157.763.43 1.035.272.273.648.43 1.035.43.385 0 .763-.157 1.036-.43.272-.272.429-.65.429-1.035 0-.385-.157-.763-.43-1.036a1.476 1.476 0 00-1.035-.429z" fill="#000"/></svg>