<svg width="75" height="75" fill="none" xmlns="http://www.w3.org/2000/svg"><path d="M69.772 56.567a1.11 1.11 0 00.2-.346 37.364 37.364 0 000-37.442 1.087 1.087 0 00-.2-.346A37.658 37.658 0 0047.92 1.487a1.093 1.093 0 00-.293-.086 37.305 37.305 0 00-20.254 0 1.13 1.13 0 00-.29.082 37.654 37.654 0 00-21.855 16.95 1.11 1.11 0 00-.2.346 37.363 37.363 0 000 37.442c.045.127.113.244.2.346a37.654 37.654 0 0021.835 16.944c.097.044.2.073.305.087a37.308 37.308 0 0020.26 0c.11-.014.217-.044.319-.09a37.658 37.658 0 0021.825-16.94zm-31.164 16.19V56.962h15.134c-1.645 6.02-4.013 11.02-6.893 14.557a35.15 35.15 0 01-8.241 1.238zm-10.457-1.24c-2.88-3.535-5.248-8.535-6.893-14.556h15.134v15.795a35.156 35.156 0 01-8.241-1.238zM2.243 38.608H7.12v8.703a1.108 1.108 0 001.108 1.108h9.06a72.678 72.678 0 001.14 6.329H6.733a35.04 35.04 0 01-4.49-16.14zm4.494-18.355h11.69a72.238 72.238 0 00-1.138 6.33H8.228A1.108 1.108 0 007.12 27.69v8.702H2.243a35.04 35.04 0 014.491-16.139l.003-.001zm29.655-18.01v15.795H21.258c1.645-6.019 4.013-11.02 6.893-14.557a35.154 35.154 0 018.241-1.238zm10.457 1.24c2.88 3.535 5.248 8.535 6.893 14.556H38.608V2.243c2.786.085 5.553.501 8.241 1.24zm25.908 32.91H67.88V27.69a1.108 1.108 0 00-1.108-1.108h-9.06a72.678 72.678 0 00-1.14-6.329h11.694a35.04 35.04 0 014.49 16.14zm-4.494 18.355h-11.69a72.238 72.238 0 001.138-6.329h9.061a1.11 1.11 0 001.108-1.109v-8.702h4.877a35.04 35.04 0 01-4.491 16.139l-.003.001zm-29.658 0V48.42h16.87a68.967 68.967 0 01-1.179 6.33h-15.69zm-29.27-8.545V28.798h56.33v17.405H9.335zm46.14-19.62H38.608v-6.33h15.69c.48 2.038.875 4.158 1.177 6.33zm-19.084-6.33v6.33H19.525a69.014 69.014 0 011.179-6.33H36.39zM19.525 48.418h16.867v6.329h-15.69a69.173 69.173 0 01-1.177-6.33zm30.922 21.899a46.897 46.897 0 005.588-13.355h10.88a35.474 35.474 0 01-16.47 13.352l.002.003zm16.468-52.279H56.033a46.938 46.938 0 00-5.588-13.354 35.48 35.48 0 0116.468 13.354h.002zM24.557 4.684a46.928 46.928 0 00-5.589 13.354H8.088A35.475 35.475 0 0124.554 4.686l.002-.002zM8.087 56.962h10.88a46.91 46.91 0 005.587 13.355A35.48 35.48 0 018.087 56.962z" fill="#07074F"/><path d="M25.974 39.518l-2.201-6.686h-1.848l-2.215 6.686-1.997-6.686H15.85l2.962 9.336h1.685l2.35-6.93 2.338 6.93h1.699l2.948-9.336h-1.861l-1.998 6.686zm13.87 2.65h1.698l2.95-9.336h-1.863l-1.997 6.686-2.201-6.686h-1.848l-2.215 6.686-1.997-6.686h-1.862l2.962 9.336h1.685l2.35-6.93 2.338 6.93zm9.971 0l2.35-6.93 2.337 6.93H56.2l2.95-9.336h-1.863l-1.997 6.686-2.201-6.686H51.24l-2.214 6.686-1.998-6.686h-1.861l2.962 9.336h1.686z" fill="#EF4351"/></svg>