<svg width="477" height="417" fill="none" xmlns="http://www.w3.org/2000/svg"><path d="M246.599 227.161s3.535 35.089 32.833 43.802c29.298 8.714 45.123 3.17 62.539-15.041 0 0-4.749 35.626-24.539 49.088 0 0 46.714-5.683 61.755-54.298 0 0 45.123-3.224 47.498-44.93 0 0 43.544-14.773 49.087-54.363 5.544-39.591-13.461-51.463-38.795-66.504 0 0 10.153-22.712-18.586-45.274-20.145-11.818-43.953.935-43.953.935S363.351 1.791 309.514.201c-16.62 0-43.222 16.631-45.757 34.842 0 0-31.587-19.006-60.605 1.58-29.019 20.584-20.66 58.585-10.98 76 0 0-31.071 30.082-14.257 72.842s68.684 41.696 68.684 41.696z" fill="#DEEAF8"/><path d="M334.418 180.652H295.01v-3.932c0-6.704.763-12.148 2.288-16.331a36.025 36.025 0 016.79-11.463c3.009-3.445 9.763-9.533 20.263-18.264 5.608-4.563 8.409-8.746 8.402-12.549-.008-3.803-1.128-6.758-3.363-8.863-2.256-2.149-5.651-3.17-10.217-3.17a16.448 16.448 0 00-12.184 4.878c-3.209 3.259-5.264 8.928-6.167 17.007l-40.256-4.953c1.389-14.79 6.761-26.698 16.115-35.723 9.355-9.024 23.715-13.537 43.083-13.537 15.041 0 27.217 3.148 36.528 9.444 12.577 8.502 18.866 19.836 18.866 34.004a32.842 32.842 0 01-4.867 17.007c-3.252 5.458-9.888 12.126-19.908 20.005-6.983 5.536-11.392 9.977-13.225 13.322-1.827 3.363-2.74 7.725-2.74 13.118zm-22.143 10.475h4.974a18.615 18.615 0 0113.166 31.774 18.621 18.621 0 01-13.166 5.453h-4.974a18.604 18.604 0 01-13.162-5.454 18.617 18.617 0 0113.162-31.773z" fill="#fff"/><path d="M199.209 371.578h-53.601c-23.636 0-26.859 12.248-13.966 13.913 12.892 1.665 39.751 9.723 26.859 13.483-12.893 3.761-15.578 16.116 5.372 16.653 20.95.537 126.775 1.074 143.965 0 17.19-1.074 8.369-15.578-12.463-15.041-20.832.537-11.173-6.317 21.574-6.672 32.746-.355 56.426-18.887 17.748-20.058-38.677-1.172-135.488-2.278-135.488-2.278z" fill="#DEEAF8"/><path d="M207.975 383.374s-9.347-2.149-13.311 0c-3.964 2.149-.859 11.034 20.155 7.897l-6.844-7.897zM257.343 383.374s9.347-2.149 13.311 0c3.964 2.149.86 11.034-20.155 7.897l6.844-7.897z" fill="#263135"/><path d="M194.138 363.584s-9.229-2.148-7.65 9.24c1.579 7.381 28.331 18.447 28.331 18.447v-22.272l-20.681-5.415z" fill="#687C94"/><path d="M227.131 313.54v6.511s5.104 6.446 11.195 0v-6.511s-7.488-6.607-11.195 0z" fill="#ECA87B"/><path d="M272.91 363.584s9.24-2.148 7.661 9.24c-1.591 7.381-28.342 18.447-28.342 18.447v-22.272l20.681-5.415z" fill="#687C94"/><path d="M251.434 323.468l-8.939-3.331a27.442 27.442 0 00-19.059 0l-8.939 3.32s-12.892 7.134-2.385 43.813c0 0 6.339 5.543 20.853 5.543 14.515 0 20.843-5.543 20.843-5.543 10.561-36.668-2.374-43.802-2.374-43.802z" fill="#F6376D"/><path d="M226.745 275.787s-6.5-1.912-9.562 2.299c-3.062 4.212 0 9.755 0 9.755s-4.781.957-5.544 6.887c-.763 5.931 3.631 7.832 3.631 7.832a8.323 8.323 0 00.376 8.799c1.913 2.686 8.23 0 8.23 0a4.236 4.236 0 002.869 3.449c2.675.956 5.167-2.149 5.167-2.149s3.224 4.384 9.745 2.289c6.521-2.095 5.554-7.456 5.554-7.456s4.781.956 7.07-2.869c2.288-3.825-1.719-8.412-1.719-8.412a13.2 13.2 0 000-10.905c-2.675-5.737-6.887-3.631-6.887-3.631s.58-5.544-2.868-7.457c-3.449-1.912-7.457 2.482-7.457 2.482s.194-5.608-4.018-5.543c-4.448.107-4.587 4.63-4.587 4.63z" fill="#263135"/><path d="M212.112 367.28s-1.279 12.141 0 20.059c1.278 7.918 20.563 8.702 29.792 8.176 9.229-.527 15.901-4.222 11.904-28.235 0 0-20.542 10.422-41.696 0z" fill="#697A9E"/><path d="M214.046 339.196c.301 2.493.548 4.996.784 7.521l.666 7.52.548 7.521c.161 2.514.333 5.017.408 7.521-.408-2.482-.73-4.975-1.02-7.467-.29-2.493-.505-4.996-.742-7.521-.236-2.525-.365-5.006-.472-7.52-.108-2.514-.194-5.061-.172-7.575zM251.724 339.121c0 2.514-.065 5.028-.172 7.521-.108 2.492-.301 5.006-.473 7.52-.172 2.514-.44 5.007-.741 7.521-.301 2.514-.602 4.985-1.075 7.467.086-2.514.248-5.017.409-7.521l.548-7.52.666-7.521c.29-2.471.537-4.963.838-7.467z" fill="#5858BC"/><path d="M119.458 402.025c6.13 0 11.099-1.428 11.099-3.19 0-1.763-4.969-3.191-11.099-3.191-6.129 0-11.098 1.428-11.098 3.191 0 1.762 4.969 3.19 11.098 3.19zM373.546 395.644c8.011 0 14.504-1.458 14.504-3.256 0-1.798-6.493-3.255-14.504-3.255-8.01 0-14.504 1.457-14.504 3.255 0 1.798 6.494 3.256 14.504 3.256z" fill="#DEEAF8"/><path d="M341.144 409.901c0 .59-2.085 1.074-4.652 1.074-2.568 0-4.663-.484-4.663-1.074 0-.591 2.084-1.075 4.663-1.075 2.578 0 4.652.484 4.652 1.075z" fill="#E8E8F7"/><path d="M99.765 377.358c2.967 0 5.372-.491 5.372-1.096 0-.605-2.405-1.096-5.372-1.096s-5.372.491-5.372 1.096c0 .605 2.405 1.096 5.372 1.096zM90.461 400.425c0 .881-2.009 1.59-4.48 1.59-2.471 0-4.48-.709-4.48-1.59 0-.881 2.009-1.59 4.48-1.59 2.471 0 4.48.709 4.48 1.59z" fill="#DEEAF8"/><path d="M34.68 39.663a5.64 5.64 0 100-11.281 5.64 5.64 0 000 11.28z" fill="#E8E8F7"/><path d="M203.721 250.722a6.864 6.864 0 006.865-6.865 6.864 6.864 0 00-6.865-6.865 6.864 6.864 0 00-6.865 6.865 6.864 6.864 0 006.865 6.865z" fill="#B3C6E4"/><path d="M416.349 296.608a3.223 3.223 0 100-6.446 3.223 3.223 0 000 6.446z" fill="#E8E8F7"/><path d="M85.734 298.295a4.232 4.232 0 11-4.233-4.233 4.216 4.216 0 012.996 1.237 4.22 4.22 0 011.237 2.996zM167.687 46.41L31.779 82.594a42.791 42.791 0 00-30.34 52.354l24.915 93.341a42.768 42.768 0 0049.872 30.91c12 17.093 33.456 25.387 31.253 22.315a57.275 57.275 0 01-10.475-27.762l117.611-31.318a42.778 42.778 0 0026.008-19.889 42.766 42.766 0 004.321-32.454l-24.85-93.352a42.772 42.772 0 00-35.733-31.415 42.776 42.776 0 00-16.674 1.086z" fill="#B3C6E4"/><path d="M142.385 177.622l-30.082 9.057-.902-2.997a38.682 38.682 0 01-2.02-12.957 28.82 28.82 0 012.535-10.293c1.497-3.323 5.243-9.508 11.238-18.554 3.216-4.77 4.384-8.602 3.503-11.496a9.215 9.215 0 00-4.599-5.973c-2.206-1.082-5.042-1.082-8.509 0a13.036 13.036 0 00-8.154 6.511c-1.698 3.208-1.959 8-.784 14.375l-31.78 5.457c-2.357-11.581-1.003-21.884 4.06-30.909 5.065-9.025 14.97-15.783 29.718-20.273 11.46-3.46 21.448-3.861 29.964-1.204 11.539 3.581 18.938 10.765 22.196 21.552a26.127 26.127 0 01.205 14.074c-1.211 4.907-4.728 11.514-10.551 19.822-4.054 5.816-6.389 10.21-7.005 13.183a21.789 21.789 0 00.967 10.625zm-14.45 13.065l3.793-1.15a14.815 14.815 0 0111.279 1.123 14.812 14.812 0 017.178 8.772 14.805 14.805 0 01-9.948 18.458l-3.793 1.138a14.803 14.803 0 01-18.458-9.884 14.813 14.813 0 019.906-18.457h.043z" fill="#fff"/></svg>