<svg xmlns="http://www.w3.org/2000/svg" width="477" height="417" fill="none"><path d="M246.6 227.16s3.534 35.09 32.832 43.802 45.124 3.17 62.54-15.04c0 0-4.748 35.626-24.538 49.088 0 0 46.713-5.683 61.755-54.298 0 0 45.123-3.224 47.497-44.93 0 0 43.544-14.773 49.088-54.363s-13.462-51.463-38.795-66.504c0 0 10.153-22.712-18.587-45.274-20.144-11.818-43.952.935-43.952.935S363.35 1.79 309.515.2c-16.62 0-43.222 16.63-45.758 34.842 0 0-31.586-19.006-60.605 1.58s-20.66 58.585-10.98 76c0 0-31.07 30.082-14.257 72.842S246.6 227.16 246.6 227.16z" fill="#07074f" fill-opacity=".7"/><path d="M334.418 180.652H295.01v-3.932c0-6.704.762-12.148 2.288-16.33a35.941 35.941 0 016.8-11.463c3.008-3.445 9.762-9.533 20.263-18.264 5.608-4.563 8.408-8.746 8.4-12.55s-1.128-6.758-3.363-8.863c-2.256-2.15-5.65-3.17-10.217-3.17a16.434 16.434 0 00-12.184 4.878c-3.21 3.26-5.265 8.928-6.167 17.007l-40.257-4.953c1.4-14.8 6.762-26.698 16.116-35.723s23.715-13.537 43.082-13.537c15.04 0 27.217 3.148 36.53 9.444 12.577 8.502 18.866 19.836 18.866 34.004a32.85 32.85 0 01-4.867 17.007c-3.252 5.458-9.888 12.126-19.908 20.005-6.984 5.536-11.392 9.977-13.226 13.322-1.826 3.363-2.74 7.725-2.74 13.118zm-22.142 10.475h4.974a18.62 18.62 0 0118.619 18.608 18.617 18.617 0 01-18.619 18.619h-4.974a18.61 18.61 0 01-7.124-1.418c-2.258-.935-4.3-2.307-6.038-4.036s-3.098-3.782-4.033-6.04a18.6 18.6 0 01-1.413-7.124 18.61 18.61 0 0118.608-18.608z" fill="#fff"/><path d="M199.21 371.578h-53.6c-23.636 0-26.86 12.248-13.967 13.913s39.752 9.723 26.86 13.483-15.58 16.116 5.37 16.653 126.776 1.074 143.966 0 8.37-15.578-12.463-15.04-11.173-6.317 21.573-6.672 56.426-18.887 17.75-20.058l-135.49-2.278z" fill="#e0e1e7"/><path d="M207.976 383.374s-9.347-2.15-13.3 0-.86 11.034 20.155 7.897l-6.844-7.897zm49.366 0s9.347-2.15 13.3 0 .86 11.034-20.155 7.897l6.844-7.897z" fill="#0d0d0d"/><path d="M194.138 363.584s-9.23-2.148-7.65 9.24c1.58 7.38 28.332 18.447 28.332 18.447V369l-20.682-5.415z" fill="#687c94"/><path d="M227.13 313.54v6.51s5.103 6.446 11.195 0v-6.51s-7.49-6.607-11.195 0z" fill="#eca87b"/><path d="M272.9 363.584s9.24-2.148 7.66 9.24c-1.6 7.38-28.34 18.447-28.34 18.447V369l20.68-5.415z" fill="#687c94"/><path d="M251.433 323.468l-8.94-3.33a27.44 27.44 0 00-19.059 0l-8.94 3.32s-12.892 7.134-2.385 43.813c0 0 6.34 5.543 20.854 5.543s20.842-5.543 20.842-5.543c10.56-36.668-2.374-43.802-2.374-43.802z" fill="#ef4351"/><path d="M226.745 275.787s-6.5-1.912-9.562 2.3 0 9.755 0 9.755-4.78.957-5.543 6.887 3.63 7.832 3.63 7.832a8.325 8.325 0 00.376 8.799c1.912 2.686 8.23 0 8.23 0a4.228 4.228 0 002.868 3.449c2.676.956 5.168-2.15 5.168-2.15s3.223 4.384 9.745 2.29 5.554-7.456 5.554-7.456 4.78.956 7.07-2.87-1.72-8.412-1.72-8.412a13.185 13.185 0 000-10.905c-2.675-5.737-6.886-3.63-6.886-3.63s.58-5.544-2.87-7.456-7.456 2.48-7.456 2.48.193-5.608-4.018-5.543c-4.448.107-4.588 4.63-4.588 4.63z" fill="#07074f"/><path d="M212.11 367.28s-1.278 12.14 0 20.06 20.564 8.702 29.792 8.176 15.9-4.222 11.904-28.235c0 0-20.542 10.422-41.696 0z" fill="#697a9e"/><path d="M214.046 339.196l.785 7.52.666 7.52.548 7.52.408 7.52-1.02-7.467-.74-7.52-.473-7.52-.172-7.575zm37.678-.076l-.172 7.52-.473 7.52-.74 7.52-1.074 7.467.408-7.52.548-7.52.666-7.52.838-7.467z" fill="#5858bc"/><path d="M119.458 402.025c6.13 0 11.098-1.428 11.098-3.2s-4.97-3.2-11.098-3.2-11.1 1.428-11.1 3.2 4.97 3.2 11.1 3.2zm254.09-6.38c8 0 14.504-1.458 14.504-3.256s-6.494-3.255-14.504-3.255-14.504 1.457-14.504 3.255 6.494 3.256 14.504 3.256z" fill="#e3e8ef"/><path d="M341.143 409.9c0 .6-2.084 1.074-4.652 1.074s-4.663-.484-4.663-1.074 2.084-1.075 4.663-1.075 4.652.484 4.652 1.075z" fill="#e8e8f7"/><path d="M99.764 377.358c2.967 0 5.372-.5 5.372-1.096s-2.405-1.096-5.372-1.096-5.372.5-5.372 1.096 2.405 1.096 5.372 1.096zm-9.304 23.067c0 .88-2 1.6-4.48 1.6s-4.48-.7-4.48-1.6 2-1.6 4.48-1.6 4.48.7 4.48 1.6z" fill="#e3e8ef"/><path d="M34.68 39.663a5.64 5.64 0 100-11.281 5.64 5.64 0 100 11.281z" fill="#e8e8f7"/><path d="M203.72 250.722a6.866 6.866 0 10-.001-13.731 6.866 6.866 0 00.001 13.731z" fill="#a5aab1"/><path d="M416.35 296.608a3.223 3.223 0 100-6.446 3.223 3.223 0 000 6.446z" fill="#e8e8f7"/><path d="M85.734 298.295a4.23 4.23 0 01-2.613 3.911 4.23 4.23 0 01-4.613-.917c-.592-.592-.995-1.347-1.16-2.168a4.224 4.224 0 011.8-4.346 4.228 4.228 0 012.352-.714 4.222 4.222 0 012.997 1.237 4.22 4.22 0 011.237 2.996z" fill="#a5aab1"/><path d="M167.687 46.4L31.78 82.594a42.79 42.79 0 00-30.34 52.354l24.915 93.34a42.77 42.77 0 0018.8 25.355 42.767 42.767 0 0031.072 5.555c12 17.093 33.456 25.387 31.253 22.315a57.275 57.275 0 01-10.475-27.762l117.61-31.318a42.78 42.78 0 0014.982-7.357c4.463-3.413 8.21-7.67 11.026-12.532s4.647-10.228 5.39-15.797.38-11.23-1.068-16.657l-24.85-93.352a42.76 42.76 0 00-7.366-14.998 42.77 42.77 0 00-12.549-11.033 42.78 42.78 0 00-15.818-5.384 42.74 42.74 0 00-16.674 1.086z" fill="#07074f"/><path d="M142.386 177.622l-30.082 9.057-.903-2.997a38.68 38.68 0 01-2.02-12.957 28.84 28.84 0 012.536-10.293c1.497-3.323 5.243-9.508 11.238-18.554 3.216-4.77 4.383-8.602 3.502-11.496a9.226 9.226 0 00-4.598-5.973c-2.206-1.082-5.042-1.082-8.51 0a13.05 13.05 0 00-4.757 2.404 13.04 13.04 0 00-3.397 4.107c-1.698 3.208-1.96 8-.785 14.375l-31.78 5.457c-2.357-11.58-1.003-21.884 4.06-30.91S91.862 104.06 106.6 99.57c11.46-3.46 21.448-3.86 29.964-1.203 11.538 3.58 18.937 10.765 22.196 21.552a26.127 26.127 0 01.204 14.074c-1.2 4.907-4.727 11.514-10.55 19.822-4.054 5.816-6.39 10.2-7.005 13.183a21.79 21.79 0 00.967 10.625zm-14.45 13.065l3.792-1.15a14.8 14.8 0 015.752-.56c1.935.192 3.813.765 5.527 1.683a14.8 14.8 0 014.462 3.672 14.796 14.796 0 013.271 10.86 14.81 14.81 0 01-1.698 5.533 14.8 14.8 0 01-3.688 4.459 14.8 14.8 0 01-5.117 2.705l-3.792 1.138c-1.86.563-3.815.754-5.75.562a14.8 14.8 0 01-5.527-1.681 14.815 14.815 0 01-4.463-3.668 14.81 14.81 0 01-2.719-5.097 14.825 14.825 0 011.13-11.28 14.81 14.81 0 018.775-7.178h.043z" fill="#fff"/></svg>