<svg xmlns="http://www.w3.org/2000/svg" viewBox="0 0 214.75 227.06"><defs><style>.cls-1{fill:#ef4351}</style></defs><g id="Layer_2" data-name="Layer 2"><g id="Layer_1-2" data-name="Layer 1"><path class="cls-1" d="M188.9 83.89h-163l.31-2.82a22.71 22.71 0 0115.58-19.45H173a22.69 22.69 0 0115.62 19.45zM198.84 131.61H15.91l5.82-30.22h171.21l5.9 30.22zM214.68 209.72c.47 5.25-1.58 9.3-4.58 12.88a11.7 11.7 0 01-9.24 4.46h-187a11.59 11.59 0 01-9.24-4.46C1.67 219-.47 215 .09 209.72l2.45-12.89h209.69zM208.78 179.33H5.96l6.44-30.22h189.94l6.44 30.22z"/><path d="M68.62 48c0-22.09 17-40 38-40s38 17.91 38 40" fill="none" stroke="#ef4351" stroke-linecap="round" stroke-miterlimit="10" stroke-width="16"/></g></g></svg>