<svg xmlns="http://www.w3.org/2000/svg" height="245.333" width="746.667"><path d="M306.27 78.305a3.955 3.955 0 013.949-3.948h16.362a3.954 3.954 0 013.947 3.948v120.852a3.953 3.953 0 01-3.947 3.948H310.22a3.953 3.953 0 01-3.948-3.948zm111.39 43.197l.364-6.188a3.947 3.947 0 013.941-3.715h15.796a3.953 3.953 0 013.947 3.947v83.611a3.953 3.953 0 01-3.947 3.948h-15.498a3.94 3.94 0 01-3.932-3.62l-.57-6.81c-6.089 8.417-18.146 13.044-28.032 13.142-29.641.295-47.121-19.28-47.121-48.556 0-29.126 18.65-47.97 47.656-47.833 9.981.047 21.063 4.027 27.396 12.074zm39.744 69.023c0-18.743 28.415-18.743 28.415 0 0 18.741-28.415 18.741-28.415 0zm68.236-70.435c5.181-7.005 14.195-10.118 22.801-10.118 11.634 0 21.426 4.925 26.59 15.364 7.245-10.458 16.745-15.004 29.633-15.004 27.317 0 38.973 17.66 38.973 43.495v45.33a3.953 3.953 0 01-3.946 3.948h-16.543a3.953 3.953 0 01-3.947-3.948v-45.33c0-10.218-3.842-20.503-15.621-20.503-11.536 0-18.153 10.127-18.153 20.863v44.97a3.953 3.953 0 01-3.947 3.948h-16.541a3.953 3.953 0 01-3.948-3.948v-44.97c0-10.53-5.264-21.226-17.068-21.226-11.614 0-17.792 10.626-17.792 21.226v44.97a3.953 3.953 0 01-3.947 3.948h-16.543a3.953 3.953 0 01-3.946-3.948v-83.793a3.954 3.954 0 013.946-3.948h15.298a3.934 3.934 0 013.905 3.362zm137.49-41.785a3.954 3.954 0 013.947-3.948h16.543a3.954 3.954 0 013.947 3.948v62.7c0 .682.39 1.24 1.03 1.472a1.522 1.522 0 001.734-.465l24.317-29.003a3.865 3.865 0 013.025-1.41h19.072c1.57 0 2.938.878 3.59 2.306a3.898 3.898 0 01-.607 4.226l-30.812 35.563a1.55 1.55 0 00.007 2.057l35.8 40.804a3.896 3.896 0 01.628 4.232 3.892 3.892 0 01-3.595 2.318h-19.23a3.86 3.86 0 01-2.985-1.364l-29.226-33.77a1.518 1.518 0 00-1.728-.44 1.52 1.52 0 00-1.02 1.465v30.161a3.953 3.953 0 01-3.947 3.948h-16.543a3.953 3.953 0 01-3.946-3.948zm-270.88 53.212c-15.186 0-25.203 10.616-25.203 25.744 0 15.094 9.997 25.925 25.202 25.925 33.14 0 33.14-51.67 0-51.67" fill="#011126" fill-rule="evenodd"/><path d="M71.621 244.645c-7.199 0-13.036-5.837-13.036-13.036s5.837-13.035 13.036-13.035h107.227l-158.67-23.301a15.731 15.731 0 01-5.87-2.127 15.477 15.477 0 01-4.528-4.173 15.586 15.586 0 01-2.577-5.68 15.443 15.443 0 01-.175-6.13l2.718-15.82c.593-3.461 2.33-6.514 4.822-8.82v-.051c2.442-2.25 5.623-3.71 9.185-4.039l51.014-4.627c7.141-.647 13.456 4.618 14.103 11.76.647 7.142-4.618 13.457-11.76 14.104l-26.726 2.425a.65.65 0 00-.035 1.293l175.052 25.706a15.584 15.584 0 018.635 4.275 15.6 15.6 0 014.515 8.566l2.477 14.42c.379 2.203.267 4.45-.335 6.674l.035.009a15.609 15.609 0 01-3.183 6.041 15.463 15.463 0 01-5.376 4.106l-.01-.023c-2.119.98-4.32 1.483-6.547 1.483zm32.383-199.177l.002.023H77.99c-.283-7.371 1.306-14.535 4.467-20.872 3.5-7.014 8.957-13.1 15.96-17.434 7.004-4.33 14.874-6.498 22.696-6.498 7.822 0 15.691 2.168 22.695 6.498 7.004 4.334 12.462 10.42 15.96 17.434 3.162 6.337 4.75 13.501 4.47 20.872h-26.016l.001-.023c.29-3.199-.355-6.392-1.775-9.24-1.413-2.833-3.566-5.26-6.286-6.944-2.722-1.683-5.862-2.527-9.05-2.527-3.185 0-6.326.844-9.048 2.527-2.719 1.683-4.872 4.11-6.285 6.944-1.42 2.847-2.067 6.041-1.776 9.24zM13.99 244.645c-7.2 0-13.036-5.837-13.036-13.036s5.837-13.035 13.036-13.035h23.6c7.198 0 13.035 5.836 13.035 13.035 0 7.2-5.837 13.036-13.036 13.036zm97.986-78.143c-7.142.646-13.457-4.62-14.104-11.761-.647-7.142 4.62-13.457 11.76-14.104l81.944-7.438a.646.646 0 00.59-.618.649.649 0 00-.535-.672L35.384 103.877l-.009.05c-4.21-.752-7.739-3.164-10.033-6.422v-.05c-2.288-3.272-3.345-7.391-2.628-11.574l3.53-20.533a15.616 15.616 0 015.321-9.305h.05c2.775-2.335 6.29-3.719 10.043-3.719h156.287c3.794 0 7.324 1.381 10.094 3.721l-.022.024c2.76 2.338 4.702 5.575 5.342 9.279l3.141 18.27c1.208 7.085-3.557 13.811-10.643 15.02-7.084 1.209-13.81-3.557-15.018-10.64l-1.651-9.603H50.964a.645.645 0 00-.643.54l-.096.566a.651.651 0 00.526.751l159.56 28.627.008-.04a15.605 15.605 0 018.378 4.392 15.636 15.636 0 014.334 8.387l3.026 17.623a15.365 15.365 0 01-.234 6.369 15.527 15.527 0 01-2.764 5.753 15.523 15.523 0 01-4.835 4.17l-.05.052c-1.831 1.007-3.891 1.622-6.123 1.829l-100.075 9.088" fill="#f6376d"/></svg>