<?xml version="1.0" encoding="UTF-8" standalone="no"?>
<svg
   xmlns:dc="http://purl.org/dc/elements/1.1/"
   xmlns:cc="http://creativecommons.org/ns#"
   xmlns:rdf="http://www.w3.org/1999/02/22-rdf-syntax-ns#"
   xmlns:svg="http://www.w3.org/2000/svg"
   xmlns="http://www.w3.org/2000/svg"
   viewBox="0 0 413.33334 418.66666"
   height="418.66666"
   width="413.33334"
   xml:space="preserve"
   id="svg2"
   version="1.1"><metadata
     id="metadata8"><rdf:RDF><cc:Work
         rdf:about=""><dc:format>image/svg+xml</dc:format><dc:type
           rdf:resource="http://purl.org/dc/dcmitype/StillImage" /></cc:Work></rdf:RDF></metadata><defs
     id="defs6" /><g
     transform="matrix(1.3333333,0,0,-1.3333333,0,418.66667)"
     id="g10"><g
       transform="scale(0.1)"
       id="g12"><path
         id="path14"
         style="fill:#f6376d;fill-opacity:1;fill-rule:nonzero;stroke:none"
         d="m 914.621,3.63281 c -92.445,0 -167.391,74.94529 -167.391,167.39419 0,92.442 74.946,167.391 167.391,167.391 H 2291.55 L 254.008,637.633 c -26.985,4.074 -52.231,13.246 -75.36,27.301 -22.933,13.937 -42.367,31.851 -58.144,53.597 -15.856,21.867 -26.9063,46.262 -33.0977,72.93 -6.0079,25.902 -6.7579,52.293 -2.25,78.727 L 120.07,1073.34 c 7.61,44.45 29.91,83.65 61.918,113.26 v 0.66 c 31.356,28.88 72.2,47.64 117.946,51.85 l 655.078,59.43 c 91.708,8.31 172.808,-59.31 181.108,-151.02 8.31,-91.71 -59.31,-172.809 -151.018,-181.114 L 641.914,935.27 c -4.25,-0.395 -7.492,-3.856 -7.613,-8.125 -0.098,-4.25 2.945,-7.868 7.16,-8.481 L 2889.35,588.563 c 42.82,-6.344 81.1,-25.836 110.89,-54.899 29.91,-29.203 50.67,-67.176 57.97,-110 L 3090.02,238.5 c 4.86,-28.289 3.42,-57.137 -4.29,-85.703 l 0.43,-0.121 c -7.67,-28.387 -21.35,-54.4651 -40.86,-77.5744 -19.18,-22.7188 -42.37,-40.4297 -69.04,-52.7266 l -0.14,0.2969 C 2948.92,10.0977 2920.65,3.63281 2892.06,3.63281 Z M 1330.46,2561.32 l 0.02,-0.29 H 996.406 c -3.617,94.65 16.784,186.64 57.374,268.02 44.93,90.07 115.02,168.22 204.95,223.87 89.94,55.62 191,83.45 291.43,83.45 100.45,0 201.52,-27.83 291.45,-83.45 89.93,-55.65 160.02,-133.8 204.96,-223.87 40.58,-81.38 60.98,-173.37 57.36,-268.02 h -334.07 l 0.02,0.29 c 3.74,41.09 -4.54,82.09 -22.79,118.66 -18.15,36.38 -45.79,67.54 -80.72,89.16 -34.95,21.61 -75.28,32.45 -116.21,32.45 -40.9,0 -81.23,-10.84 -116.18,-32.45 -34.92,-21.6 -62.58,-52.78 -80.73,-89.16 -18.22,-36.55 -26.53,-77.57 -22.79,-118.66 z M 174.555,3.63281 C 82.1094,3.63281 7.16016,78.5781 7.16016,171.027 c 0,92.442 74.94924,167.391 167.39484,167.391 h 303.05 c 92.446,0 167.391,-74.949 167.391,-167.391 C 644.996,78.5781 570.051,3.63281 477.605,3.63281 Z M 1432.83,1007.09 c -91.71,-8.301 -172.81,59.31 -181.12,151.02 -8.3,91.72 59.31,172.81 151.03,181.12 l 1052.25,95.51 c 4.19,0.37 7.39,3.73 7.59,7.94 0.2,4.21 -2.73,7.87 -6.88,8.62 l -2006.403,359.97 -0.121,-0.63 c -54.071,9.65 -99.383,40.63 -128.84,82.46 v 0.65 c -29.379,42.01 -42.957,94.9 -33.746,148.61 l 45.332,263.68 c 8.305,48.23 33.234,89.83 68.324,119.48 h 0.652 c 35.629,30 80.762,47.77 128.961,47.77 H 2536.78 c 48.71,0 94.06,-17.74 129.61,-47.79 l -0.28,-0.31 c 35.45,-30.01 60.38,-71.59 68.6,-119.15 l 40.33,-234.61 c 15.52,-90.98 -45.66,-177.36 -136.65,-192.88 -90.98,-15.52 -177.35,45.67 -192.87,136.65 l -21.19,123.3 H 649.348 c -4.114,0 -7.551,-2.88 -8.246,-6.93 l -1.243,-7.28 c -0.773,-4.53 2.254,-8.84 6.758,-9.65 l 2048.953,-367.6 0.1,0.51 c 41.69,-7.43 78.82,-27.35 107.61,-56.4 28.68,-28.92 48.45,-66.01 55.63,-107.69 l 38.86,-226.3 c 4.73,-27.38 3.7,-54.73 -3,-81.79 -6.68,-27.01 -18.58,-51.78 -35.51,-73.88 -17.08,-22.34 -38.01,-40.21 -62.08,-53.55 l -0.65,-0.66 c -23.5,-12.93 -49.96,-20.84 -78.62,-23.48 L 1432.83,1007.09" /></g></g></svg>