<svg viewBox="0 0 746.67 245.33" xmlns="http://www.w3.org/2000/svg"><path d="M306.259 78.308a3.954 3.954 0 0 1 3.948-3.948h16.362a3.954 3.954 0 0 1 3.947 3.948v120.848a3.953 3.953 0 0 1-3.947 3.948h-16.362a3.953 3.953 0 0 1-3.948-3.948zm111.387 43.194.364-6.187a3.947 3.947 0 0 1 3.94-3.715h15.796a3.953 3.953 0 0 1 3.947 3.947v83.61a3.953 3.953 0 0 1-3.947 3.947h-15.498a3.94 3.94 0 0 1-3.932-3.62l-.57-6.809c-6.088 8.416-18.145 13.043-28.03 13.141-29.641.295-47.12-19.28-47.12-48.554 0-29.125 18.65-47.97 47.654-47.832 9.981.046 21.062 4.026 27.396 12.073zm39.743 69.021c0-18.742 28.414-18.742 28.414 0 0 18.741-28.414 18.741-28.414 0zm68.234-70.433c5.181-7.004 14.194-10.117 22.8-10.117 11.634 0 21.425 4.924 26.59 15.363 7.244-10.458 16.744-15.003 29.632-15.003 27.317 0 38.972 17.66 38.972 43.493v45.33a3.953 3.953 0 0 1-3.946 3.947h-16.543a3.953 3.953 0 0 1-3.946-3.947v-45.33c0-10.217-3.843-20.502-15.621-20.502-11.536 0-18.153 10.126-18.153 20.863v44.969a3.953 3.953 0 0 1-3.947 3.947h-16.54a3.953 3.953 0 0 1-3.948-3.947v-44.969c0-10.53-5.264-21.226-17.068-21.226-11.613 0-17.791 10.626-17.791 21.226v44.969a3.953 3.953 0 0 1-3.947 3.947h-16.542a3.953 3.953 0 0 1-3.947-3.947v-83.792a3.954 3.954 0 0 1 3.947-3.947h15.297a3.934 3.934 0 0 1 3.905 3.362zm137.49-41.784a3.954 3.954 0 0 1 3.946-3.948h16.543a3.954 3.954 0 0 1 3.946 3.948v62.699c0 .681.39 1.24 1.03 1.47a1.522 1.522 0 0 0 1.734-.464l24.317-29.002a3.865 3.865 0 0 1 3.025-1.41h19.072c1.569 0 2.937.878 3.589 2.306s.421 3.04-.607 4.226l-30.811 35.561a1.55 1.55 0 0 0 .007 2.057l35.799 40.803a3.896 3.896 0 0 1 .628 4.232 3.892 3.892 0 0 1-3.595 2.318h-19.23a3.86 3.86 0 0 1-2.984-1.364l-29.226-33.768a1.518 1.518 0 0 0-1.728-.442 1.52 1.52 0 0 0-1.02 1.466v30.16a3.953 3.953 0 0 1-3.946 3.948h-16.543a3.953 3.953 0 0 1-3.946-3.947zm-270.873 53.21c-15.185 0-25.203 10.616-25.203 25.743 0 15.093 9.998 25.925 25.203 25.925 33.139 0 33.139-51.668 0-51.668" fill="#F8F8F8" fill-rule="evenodd"/><path d="M71.62 244.641c-7.2 0-13.036-5.836-13.036-13.035 0-7.198 5.837-13.035 13.036-13.035h107.224l-158.663-23.3a15.73 15.73 0 0 1-5.869-2.127 15.475 15.475 0 0 1-4.528-4.173 15.585 15.585 0 0 1-2.577-5.68 15.442 15.442 0 0 1-.175-6.13l2.719-15.82c.592-3.46 2.33-6.513 4.821-8.82v-.05c2.442-2.25 5.623-3.71 9.185-4.038l51.012-4.628c7.141-.647 13.457 4.618 14.104 11.76.646 7.142-4.619 13.457-11.76 14.104l-26.725 2.425a.65.65 0 0 0-.035 1.293l175.049 25.705a15.584 15.584 0 0 1 8.634 4.275 15.599 15.599 0 0 1 4.515 8.566l2.477 14.42c.379 2.202.267 4.449-.335 6.673l.035.01a15.608 15.608 0 0 1-3.183 6.04 15.463 15.463 0 0 1-5.375 4.106l-.011-.023c-2.119.98-4.32 1.483-6.547 1.483zM104 45.473l.002.023H77.989c-.282-7.37 1.307-14.535 4.468-20.872 3.498-7.013 8.956-13.1 15.96-17.433C105.42 2.861 113.288.693 121.11.693c7.823 0 15.692 2.168 22.696 6.498 7.004 4.334 12.46 10.42 15.96 17.433 3.16 6.337 4.749 13.501 4.469 20.872h-26.016l.002-.023c.29-3.198-.355-6.392-1.775-9.24-1.413-2.833-3.566-5.26-6.287-6.943-2.722-1.683-5.862-2.527-9.048-2.527s-6.327.844-9.049 2.527c-2.718 1.682-4.872 4.11-6.285 6.943-1.42 2.847-2.067 6.042-1.775 9.24zM13.99 244.641c-7.199 0-13.036-5.836-13.036-13.035 0-7.198 5.837-13.035 13.036-13.035h23.6c7.198 0 13.035 5.837 13.035 13.035 0 7.2-5.837 13.035-13.036 13.035zm97.984-78.14c-7.142.647-13.457-4.619-14.103-11.76-.647-7.142 4.618-13.458 11.76-14.105l81.94-7.437a.646.646 0 0 0 .59-.619.649.649 0 0 0-.535-.67L35.389 103.877l-.01.05c-4.21-.753-7.738-3.165-10.032-6.422v-.05c-2.288-3.273-3.345-7.391-2.628-11.574l3.53-20.533a15.616 15.616 0 0 1 5.32-9.305h.051c2.775-2.334 6.29-3.718 10.043-3.718h156.29c3.792 0 7.323 1.381 10.092 3.721l-.021.024c2.76 2.337 4.701 5.575 5.341 9.278l3.141 18.27c1.208 7.084-3.557 13.811-10.642 15.02-7.084 1.208-13.81-3.557-15.018-10.64l-1.651-9.603H50.972a.645.645 0 0 0-.642.54l-.097.566a.651.651 0 0 0 .526.751l159.556 28.626.008-.04a15.605 15.605 0 0 1 8.379 4.392 15.636 15.636 0 0 1 4.333 8.387l3.027 17.622a15.364 15.364 0 0 1-.235 6.369 15.527 15.527 0 0 1-2.764 5.753 15.523 15.523 0 0 1-4.835 4.17l-.05.052c-1.83 1.006-3.89 1.622-6.123 1.828L111.983 166.5" fill="#EF4351"/></svg>