<svg xmlns="http://www.w3.org/2000/svg" height="418.667" width="413.333"><path d="M121.95 418.182c-12.327 0-22.32-9.992-22.32-22.319 0-12.326 9.993-22.319 22.32-22.319h183.59L33.868 333.65a26.959 26.959 0 01-10.048-3.64 26.504 26.504 0 01-7.753-7.146c-2.114-2.916-3.587-6.169-4.413-9.724a26.453 26.453 0 01-.3-10.497l4.655-27.087c1.015-5.927 3.988-11.154 8.256-15.102v-.088c4.18-3.85 9.627-6.352 15.726-6.913l87.344-7.924c12.228-1.108 23.041 7.908 24.148 20.136 1.108 12.228-7.908 23.041-20.136 24.149l-45.758 4.151a1.115 1.115 0 00-.06 2.214l299.718 44.014a26.681 26.681 0 0114.785 7.32c3.988 3.893 6.756 8.956 7.73 14.666l4.24 24.689c.649 3.772.457 7.618-.571 11.427l.057.016c-1.023 3.785-2.847 7.262-5.448 10.343-2.557 3.03-5.65 5.39-9.205 7.03l-.019-.04c-3.627 1.677-7.396 2.54-11.208 2.54zm55.445-341.025l.002.039h-44.543c-.482-12.62 2.238-24.885 7.65-35.736 5.99-12.01 15.336-22.43 27.327-29.85C179.823 4.196 193.297.485 206.688.485c13.393 0 26.87 3.71 38.86 11.127 11.99 7.42 21.336 17.84 27.328 29.849 5.41 10.85 8.13 23.116 7.648 35.736h-44.543l.003-.039c.499-5.478-.605-10.945-3.039-15.821-2.42-4.85-6.105-9.005-10.762-11.888-4.66-2.881-10.038-4.327-15.495-4.327-5.453 0-10.83 1.446-15.49 4.327-4.657 2.88-8.345 7.037-10.765 11.888-2.429 4.873-3.537 10.343-3.038 15.821zM23.274 418.182c-12.326 0-22.32-9.992-22.32-22.319 0-12.326 9.994-22.319 22.32-22.319h40.407c12.326 0 22.318 9.993 22.318 22.32 0 12.326-9.992 22.318-22.318 22.318zm167.77-133.794c-12.228 1.107-23.041-7.908-24.15-20.136-1.106-12.23 7.909-23.041 20.138-24.15l140.3-12.734c.559-.05.985-.497 1.012-1.059a1.112 1.112 0 00-.917-1.149l-267.52-47.996-.017.084c-7.21-1.287-13.25-5.417-17.179-10.995v-.086c-3.917-5.602-5.727-12.654-4.499-19.815l6.044-35.157a26.732 26.732 0 019.11-15.931h.087c4.75-4 10.768-6.37 17.195-6.37h267.59c6.494 0 12.54 2.366 17.28 6.373l-.037.041c4.727 4.001 8.051 9.545 9.147 15.887l5.377 31.281c2.07 12.13-6.088 23.648-18.22 25.717-12.13 2.07-23.646-6.089-25.716-18.22l-2.825-16.44H86.58c-.549 0-1.007.384-1.1.924l-.165.971c-.104.604.3 1.179.9 1.287l273.194 49.013.014-.068a26.724 26.724 0 0114.348 7.52c3.824 3.856 6.46 8.801 7.417 14.359l5.181 30.173c.631 3.65.494 7.297-.4 10.905a26.56 26.56 0 01-4.734 9.851 26.533 26.533 0 01-8.278 7.14l-.086.088c-3.134 1.724-6.662 2.779-10.483 3.13l-171.344 15.562" fill="#f6376d"/></svg>