<svg xmlns="http://www.w3.org/2000/svg" viewBox="0 0 361.9 130.48"><defs><style>.cls-1{fill:#fff}.cls-2{fill:#ef4351}</style></defs><g id="Layer_2" data-name="Layer 2"><g id="Layer_1-2" data-name="Layer 1"><path class="cls-1" d="M143.41 86.46V34.85h11.75V87c0 2.66 1.29 3.54 2.42 3.54a6.74 6.74 0 001.61-.16l1.45 8.78a16.21 16.21 0 01-6.12 1c-8.21.06-11.11-5.33-11.11-13.7zM166.51 86.86c0-9.66 7.81-14.73 25.93-16.66-.17-4.43-2.1-7.81-7.65-7.81-4.19 0-8.21 1.85-12.4 4.26l-4.27-7.81c5.32-3.3 11.76-6 18.84-6 11.43 0 17.31 6.84 17.31 19.88V99.1h-9.66l-.89-4.83h-.24c-3.94 3.38-8.45 6-13.6 6-8.05-.05-13.37-5.76-13.37-13.41zm25.93-.32v-9.1c-10.95 1.45-14.66 4.43-14.66 8.45 0 3.55 2.5 5.08 6 5.08s5.84-1.61 8.66-4.43zM215.7 92.5a7.37 7.37 0 117.33 7.72 7.4 7.4 0 01-7.33-7.72zM242.51 54h9.66l.81 6h.32c3.78-3.94 8-7.16 13.85-7.16 6.44 0 10.22 2.9 12.39 7.89 4.11-4.35 8.46-7.89 14.33-7.89 9.58 0 14 6.76 14 18.11V99.1h-11.82V72.45c0-6.92-2-9.42-6.28-9.42q-3.87 0-8.7 5.07v31h-11.83V72.45c0-6.92-2-9.42-6.28-9.42-2.58 0-5.47 1.69-8.7 5.07v31h-11.75zM320.12 34.85h11.51V73.5h.37L347.57 54h12.88l-15.62 18.45L361.9 99.1h-12.8l-11-18.68-6.52 7.41V99.1h-11.46z"/><path class="cls-2" d="M108.55 48.21h-93.7l.15-1.62a13 13 0 019-11.18h75.4a13 13 0 019 11.18zM114.27 75.63H9.14l3.34-17.36h98.4l3.39 17.36zM123.37 120.52a9.77 9.77 0 01-2.63 7.4 6.7 6.7 0 01-5.31 2.56H8a6.65 6.65 0 01-5.31-2.56 9.58 9.58 0 01-2.63-7.4l1.41-7.41H122zM119.98 103.06H3.43l3.7-17.37h109.15l3.7 17.37z"/><path d="M39.44 27.58c0-12.69 9.77-23 21.83-23s21.84 10.29 21.84 23" fill="none" stroke="#ef4351" stroke-linecap="round" stroke-miterlimit="10" stroke-width="9.19"/></g></g></svg>