<?xml version="1.0" encoding="UTF-8" standalone="no"?>
<svg
   xmlns:dc="http://purl.org/dc/elements/1.1/"
   xmlns:cc="http://creativecommons.org/ns#"
   xmlns:rdf="http://www.w3.org/1999/02/22-rdf-syntax-ns#"
   xmlns:svg="http://www.w3.org/2000/svg"
   xmlns="http://www.w3.org/2000/svg"
   viewBox="0 0 746.66669 245.33333"
   height="245.33333"
   width="746.66669"
   xml:space="preserve"
   id="svg2"
   version="1.1"><metadata
     id="metadata8"><rdf:RDF><cc:Work
         rdf:about=""><dc:format>image/svg+xml</dc:format><dc:type
           rdf:resource="http://purl.org/dc/dcmitype/StillImage" /></cc:Work></rdf:RDF></metadata><defs
     id="defs6" /><g
     transform="matrix(1.3333333,0,0,-1.3333333,0,245.33333)"
     id="g10"><g
       transform="scale(0.1)"
       id="g12"><path
         id="path14"
         style="fill:#011126;fill-opacity:1;fill-rule:evenodd;stroke:none"
         d="m 2297.03,1252.71 c 0,16.31 13.29,29.61 29.61,29.61 h 122.72 c 16.31,0 29.6,-13.3 29.6,-29.61 V 346.32 c 0,-16.316 -13.29,-29.605 -29.6,-29.605 h -122.72 c -16.32,0 -29.61,13.289 -29.61,29.605 z m 835.42,-323.972 2.73,46.407 c 0.93,15.656 13.87,27.865 29.56,27.865 h 118.47 c 16.31,0 29.6,-13.287 29.6,-29.604 V 346.32 c 0,-16.316 -13.29,-29.605 -29.6,-29.605 h -116.24 c -15.43,0 -28.22,11.785 -29.49,27.152 l -4.27,51.067 c -45.67,-63.121 -136.1,-97.825 -210.24,-98.563 -222.31,-2.211 -353.41,144.602 -353.41,364.172 0,218.441 139.88,359.777 357.42,358.747 74.86,-0.35 157.97,-30.2 205.47,-90.552 z m 298.08,-517.672 c 0,140.571 213.11,140.571 213.11,0 0,-140.562 -213.11,-140.562 -213.11,0 z m 511.77,528.258 c 38.86,52.535 106.46,75.886 171.01,75.886 87.25,0 160.69,-36.937 199.42,-115.23 54.34,78.438 125.59,112.53 222.25,112.53 204.88,0 292.3,-132.447 292.3,-326.209 V 346.32 c 0,-16.316 -13.29,-29.605 -29.6,-29.605 h -124.07 c -16.31,0 -29.6,13.289 -29.6,29.605 v 339.981 c 0,76.629 -28.82,153.769 -117.16,153.769 -86.52,0 -136.15,-75.949 -136.15,-156.476 V 346.32 c 0,-16.316 -13.29,-29.605 -29.6,-29.605 h -124.06 c -16.32,0 -29.61,13.289 -29.61,29.605 v 337.274 c 0,78.984 -39.48,159.195 -128.01,159.195 -87.1,0 -133.44,-79.691 -133.44,-159.195 V 346.32 c 0,-16.316 -13.29,-29.605 -29.6,-29.605 h -124.07 c -16.31,0 -29.6,13.289 -29.6,29.605 v 628.45 c 0,16.312 13.29,29.61 29.6,29.61 h 114.73 c 14.73,0 27.11,-10.653 29.29,-25.216 z m 1031.18,313.386 c 0,16.31 13.29,29.61 29.6,29.61 h 124.07 c 16.31,0 29.6,-13.3 29.6,-29.61 V 782.461 c 0,-5.113 2.93,-9.297 7.73,-11.035 4.79,-1.746 9.73,-0.422 13,3.484 l 182.38,217.52 c 5.77,6.871 13.72,10.58 22.69,10.58 h 143.04 c 11.77,0 22.03,-6.588 26.92,-17.295 4.89,-10.707 3.16,-22.797 -4.55,-31.695 L 5316.87,687.297 c -3.89,-4.481 -3.86,-10.961 0.05,-15.426 l 268.5,-306.031 c 7.78,-8.863 9.59,-21 4.71,-31.742 -4.87,-10.758 -15.15,-17.383 -26.96,-17.383 h -144.23 c -8.81,0 -16.62,3.578 -22.38,10.23 l -219.2,253.266 c -3.31,3.836 -8.22,5.086 -12.96,3.312 -4.76,-1.769 -7.65,-5.921 -7.65,-10.996 V 346.32 c 0,-16.316 -13.29,-29.605 -29.6,-29.605 h -124.07 c -16.31,0 -29.6,13.289 -29.6,29.605 z M 2941.87,853.625 c -113.89,0 -189.02,-79.625 -189.02,-193.082 0,-113.203 74.98,-194.441 189.02,-194.441 248.55,0 248.55,387.523 0,387.523" /><path
         id="path16"
         style="fill:#f6376d;fill-opacity:1;fill-rule:nonzero;stroke:none"
         d="m 537.16,5.16406 c -53.992,0 -97.769,43.77344 -97.769,97.76594 0,53.992 43.777,97.765 97.769,97.765 h 804.2 L 151.328,375.453 c -15.762,2.379 -30.508,7.735 -44.015,15.949 -13.395,8.137 -24.7466,18.602 -33.9614,31.301 -9.2618,12.77 -15.7149,27.02 -19.3282,42.594 -3.5117,15.129 -3.9492,30.543 -1.3164,45.98 L 73.0977,629.93 c 4.4453,25.957 17.4726,48.855 36.1643,66.152 v 0.379 c 18.312,16.871 42.172,27.828 68.886,30.289 l 382.602,34.707 c 53.563,4.852 100.926,-34.637 105.777,-88.203 4.848,-53.566 -34.64,-100.93 -88.203,-105.777 L 377.883,549.289 c -2.485,-0.23 -4.375,-2.25 -4.445,-4.746 -0.055,-2.484 1.722,-4.594 4.183,-4.953 L 1690.51,346.797 c 25.01,-3.707 47.36,-15.094 64.76,-32.067 17.48,-17.054 29.6,-39.234 33.86,-64.246 l 18.58,-108.148 c 2.84,-16.52 2,-33.367 -2.51,-50.0508 l 0.26,-0.0704 c -4.48,-16.582 -12.47,-31.8085 -23.87,-45.3085 -11.2,-13.2696 -24.75,-23.6133 -40.32,-30.7969 l -0.08,0.1758 C 1725.3,8.9375 1708.79,5.16406 1692.09,5.16406 Z M 780.031,1498.99 l 0.012,-0.17 H 584.93 c -2.117,55.28 9.8,109.01 33.508,156.54 26.242,52.6 67.175,98.25 119.703,130.75 52.527,32.48 111.55,48.74 170.211,48.74 58.668,0 117.688,-16.26 170.218,-48.74 52.53,-32.5 93.46,-78.15 119.7,-130.75 23.71,-47.53 35.62,-101.26 33.52,-156.54 h -195.12 l 0.01,0.17 c 2.18,23.99 -2.66,47.94 -13.31,69.3 -10.6,21.25 -26.745,39.45 -47.151,52.08 -20.414,12.62 -43.965,18.95 -67.867,18.95 -23.891,0 -47.45,-6.33 -67.864,-18.95 -20.39,-12.62 -36.543,-30.83 -47.14,-52.08 -10.649,-21.35 -15.5,-45.31 -13.317,-69.3 z M 104.922,5.16406 c -53.9923,0 -97.76966,43.77344 -97.76966,97.76594 0,53.992 43.77736,97.765 97.76966,97.765 h 176.996 c 53.992,0 97.77,-43.773 97.77,-97.765 0,-53.9925 -43.778,-97.76594 -97.77,-97.76594 z M 839.82,591.238 c -53.566,-4.851 -100.929,34.641 -105.777,88.207 -4.852,53.563 34.641,100.926 88.203,105.778 l 614.574,55.781 c 2.45,0.219 4.32,2.184 4.43,4.641 0.12,2.46 -1.59,4.593 -4.02,5.035 l -1171.847,210.24 -0.067,-0.37 c -31.582,5.64 -58.043,23.73 -75.25,48.16 v 0.38 c -17.16,24.54 -25.089,55.43 -19.711,86.8 l 26.477,154 c 4.852,28.17 19.41,52.47 39.906,69.79 h 0.379 c 20.809,17.51 47.168,27.89 75.321,27.89 H 1484.59 c 28.45,0 54.93,-10.36 75.7,-27.91 l -0.16,-0.18 c 20.7,-17.53 35.26,-41.81 40.06,-69.59 l 23.56,-137.03 c 9.06,-53.13 -26.68,-103.58 -79.82,-112.65 -53.13,-9.06 -103.58,26.68 -112.64,79.81 l -12.38,72.02 H 382.227 c -2.403,0 -4.411,-1.68 -4.817,-4.05 l -0.726,-4.25 c -0.45,-2.65 1.316,-5.16 3.949,-5.63 l 1196.697,-214.7 0.06,0.3 c 24.35,-4.34 46.03,-15.98 62.84,-32.944 16.76,-16.895 28.31,-38.555 32.5,-62.899 l 22.7,-132.172 c 2.76,-15.992 2.16,-31.961 -1.76,-47.769 -3.9,-15.774 -10.85,-30.238 -20.73,-43.149 -9.98,-13.047 -22.21,-23.488 -36.26,-31.281 l -0.38,-0.383 c -13.73,-7.55 -29.18,-12.168 -45.92,-13.715 l -750.56,-68.16" /></g></g></svg>