<svg width="87" height="87" fill="none" xmlns="http://www.w3.org/2000/svg"><path d="M38.808 80.198h-.022a1.7 1.7 0 100 3.398h.022a1.7 1.7 0 100-3.398z" fill="#EF4351"/><path d="M86.502 43.324L69.5 26.32a1.7 1.7 0 00-1.202-.497H54.035a1.7 1.7 0 00-1.7 1.699v29.566h-5.657a8.197 8.197 0 001.58-4.845V25.57c0-4.546-3.698-8.244-8.244-8.244h-2.052a8.615 8.615 0 001.789-5.263c0-4.775-3.885-8.66-8.66-8.66a8.653 8.653 0 00-6.962 3.515 8.653 8.653 0 00-6.962-3.515c-4.775 0-8.66 3.885-8.66 8.66 0 1.979.668 3.803 1.788 5.263H8.244C3.698 17.327 0 21.025 0 25.57v26.672c0 1.812.59 3.489 1.584 4.851A1.698 1.698 0 000 58.788v10.875c0 .938.76 1.699 1.7 1.699h11.4a9.133 9.133 0 00-.526 3.059c0 2.188.771 4.198 2.054 5.777H1.7a1.7 1.7 0 100 3.398h30.54a1.7 1.7 0 100-3.398h-3.367a9.13 9.13 0 002.054-5.777 9.133 9.133 0 00-.526-3.06h27.56a9.133 9.133 0 00-.526 3.06c0 2.188.77 4.198 2.053 5.777h-14.91a1.7 1.7 0 100 3.398H85.3a1.7 1.7 0 100-3.398H73.73a9.132 9.132 0 002.054-5.777 9.133 9.133 0 00-.526-3.06h10.042A1.7 1.7 0 0087 69.664V44.525c0-.45-.18-.883-.498-1.201zM63.891 29.22h3.703l1.54 1.54-5.243 5.244V29.22zm0 11.59l7.646-7.647 2.84 2.84-10.486 10.488V40.81zM40.014 20.725a4.851 4.851 0 014.845 4.846v6.55H29.566V20.724h10.448zm-5.35 25.648a1.7 1.7 0 00-1.7 1.7v9.016h-3.398v-21.57H44.86v16.724a4.85 4.85 0 01-4.845 4.846h-3.65v-9.017a1.7 1.7 0 00-1.7-1.699zm-8.836-34.308a5.268 5.268 0 015.262-5.263 5.268 5.268 0 015.263 5.263 5.268 5.268 0 01-5.263 5.262H25.828v-5.263zm-3.058 8.66h3.398v11.396H22.77V20.725zm0 14.794h3.398v21.57H22.77v-21.57zM17.168 6.802a5.268 5.268 0 015.262 5.263v5.262h-5.263a5.268 5.268 0 01-5.262-5.263 5.268 5.268 0 015.263-5.262zM3.398 25.571a4.851 4.851 0 014.846-4.846H19.37v11.396H3.398v-6.55zm0 9.948h15.973v21.57H8.244a4.85 4.85 0 01-4.846-4.846V35.519zM21.75 80.198a5.784 5.784 0 01-5.777-5.777 5.784 5.784 0 015.777-5.778 5.784 5.784 0 015.777 5.778 5.784 5.784 0 01-5.777 5.777zm44.863 0h-.007a5.784 5.784 0 01-5.774-5.778 5.784 5.784 0 015.777-5.777 5.784 5.784 0 015.778 5.777 5.784 5.784 0 01-5.774 5.778zm16.989-12.234H73.123h-.001a9.147 9.147 0 00-6.513-2.72 9.146 9.146 0 00-6.54 2.75 1.707 1.707 0 00-.313-.03H28.262a9.148 9.148 0 00-6.512-2.72 9.147 9.147 0 00-6.517 2.725c-.037-.002-.073-.005-.11-.005H3.398v-7.477h80.204v7.476zm0-10.875H55.734V29.22h4.758v21.41c0 .939.76 1.7 1.7 1.7h21.41v4.758zm0-8.157H66.257L76.78 38.408l6.82 6.82v3.704z" fill="#07074F"/><path d="M34.664 39.677a1.7 1.7 0 00-1.7 1.699v.024a1.7 1.7 0 003.4 0v-.024a1.7 1.7 0 00-1.7-1.7z" fill="#EF4351"/></svg>