<svg xmlns="http://www.w3.org/2000/svg" xmlns:xlink="http://www.w3.org/1999/xlink" width="723" height="1000" fill="none"><style>.B{fill:#fff}.C{fill:#ef4351}.D{fill:#27ae60}.E{fill:#070708}.F{color-interpolation-filters:sRGB}.G{flood-opacity:0}.H{fill:#f6f8fc}.I{fill:#404c4d}.J{fill:#e0e1e7}</style><g filter="url(#A)" class="B"><path d="M24 23c0-8.284 6.716-15 15-15h645c8.284 0 15 6.716 15 15v915c0 8.284-6.716 15-15 15H39c-8.284 0-15-6.716-15-15V23z"/></g><path d="M304 273a5 5 0 0 1 5-5h93a5 5 0 0 1 5 5v31a5 5 0 0 1-5 5h-93a5 5 0 0 1-5-5v-31z" fill="#07074f"/><path d="M321.064 296v-16.632h10.032v1.992h-7.704v5.016h6.84v1.968h-6.84V296h-2.328zm15.98 0h-2.232v-12.48h2.232V296zm-1.128-14.736a1.5 1.5 0 0 1-1.032-.384c-.272-.272-.408-.632-.408-1.08s.136-.8.408-1.056a1.45 1.45 0 0 1 1.032-.408 1.37 1.37 0 0 1 1.008.408c.288.256.432.608.432 1.056s-.144.808-.432 1.08a1.415 1.415 0 0 1-1.008.384zm9.7 14.976c-1.376-.032-2.352-.328-2.928-.888s-.864-1.432-.864-2.616V277.76l2.232-.384v15c0 .368.032.672.096.912a1.25 1.25 0 0 0 .312.576c.144.144.336.256.576.336a7.4 7.4 0 0 0 .888.168l-.312 1.872zm5.906-12.72h4.728v1.872h-4.728v5.76c0 .624.048 1.144.144 1.56.096.4.24.72.432.96a1.59 1.59 0 0 0 .72.48c.288.096.624.144 1.008.144.672 0 1.208-.072 1.608-.216l.864-.336.432 1.848c-.224.112-.616.248-1.176.408-.56.176-1.2.264-1.92.264-.848 0-1.552-.104-2.112-.312-.544-.224-.984-.552-1.32-.984s-.576-.96-.72-1.584c-.128-.64-.192-1.376-.192-2.208V280.04l2.232-.384v3.864zm7.638 6.264c0-1.104.16-2.064.48-2.88.32-.832.744-1.52 1.272-2.064s1.136-.952 1.824-1.224 1.392-.408 2.112-.408c1.68 0 2.968.528 3.864 1.584.896 1.04 1.344 2.632 1.344 4.776v.384c0 .144-.008.28-.024.408h-8.544c.096 1.296.472 2.28 1.128 2.952s1.68 1.008 3.072 1.008c.784 0 1.44-.064 1.968-.192.544-.144.952-.28 1.224-.408l.312 1.872c-.272.144-.752.296-1.44.456-.672.16-1.44.24-2.304.24-1.088 0-2.032-.16-2.832-.48-.784-.336-1.432-.792-1.944-1.368s-.896-1.256-1.152-2.04a9.07 9.07 0 0 1-.36-2.616zm8.568-1.224c.016-1.008-.24-1.832-.768-2.472-.512-.656-1.224-.984-2.136-.984-.512 0-.968.104-1.368.312a3.09 3.09 0 0 0-.984.768 3.79 3.79 0 0 0-.648 1.104c-.144.416-.24.84-.288 1.272h6.192zm11.143-5.304a4.95 4.95 0 0 1 .648.048 5.56 5.56 0 0 1 .744.096l.648.12c.208.032.36.064.456.096l-.384 1.944a6.514 6.514 0 0 0-.888-.216c-.4-.096-.92-.144-1.56-.144-.416 0-.832.048-1.248.144l-.792.168V296h-2.232v-11.952a14.14 14.14 0 0 1 1.968-.528c.784-.176 1.664-.264 2.64-.264zm8.553 11.136c.912 0 1.584-.12 2.016-.36.448-.24.672-.624.672-1.152 0-.544-.216-.976-.648-1.296s-1.144-.68-2.136-1.08l-1.392-.576a5.242 5.242 0 0 1-1.128-.72 3.09 3.09 0 0 1-.768-.984c-.192-.384-.288-.856-.288-1.416 0-1.104.408-1.976 1.224-2.616.816-.656 1.928-.984 3.336-.984.352 0 .704.024 1.056.072.352.032.68.08.984.144.304.048.568.104.792.168l.552.168-.408 1.92c-.24-.128-.616-.256-1.128-.384-.512-.144-1.128-.216-1.848-.216-.624 0-1.168.128-1.632.384-.464.24-.696.624-.696 1.152a1.7 1.7 0 0 0 .144.72c.112.208.272.4.48.576.224.16.496.312.816.456l1.152.456 1.584.672c.464.208.856.456 1.176.744.336.288.592.64.768 1.056.176.4.264.896.264 1.488 0 1.152-.432 2.024-1.296 2.616-.848.592-2.064.888-3.648.888-1.104 0-1.968-.096-2.592-.288l-1.272-.408.408-1.92 1.224.432c.56.192 1.304.288 2.232.288z" class="B"/><path d="M38 34c0-5.523 4.477-10 10-10h628c5.523 0 10 4.477 10 10v117a10 10 0 0 1-10 10H48c-5.523 0-10-4.477-10-10V34z" fill="#f6f8ff"/><g filter="url(#B)" class="H"><path d="M66 349c0-5.523 4.477-10 10-10h241a10 10 0 0 1 10 10v276a10 10 0 0 1-10 10H76a10 10 0 0 1-10-10V349z"/></g><g filter="url(#C)" class="H"><path d="M66 706c0-5.523 4.477-10 10-10h241a10 10 0 0 1 10 10v276a10 10 0 0 1-10 10H76a10 10 0 0 1-10-10V706z"/></g><g filter="url(#D)" class="H"><path d="M379 349a10 10 0 0 1 10-10h241a10 10 0 0 1 10 10v276a10 10 0 0 1-10 10H389a10 10 0 0 1-10-10V349z"/></g><g filter="url(#E)" class="H"><path d="M379 706a10 10 0 0 1 10-10h241a10 10 0 0 1 10 10v276a10 10 0 0 1-10 10H389a10 10 0 0 1-10-10V706z"/></g><path d="M61.5 196c4.867 0 8.6.933 11.2 2.8 2.633 1.833 3.95 4.583 3.95 8.25 0 2-.367 3.717-1.1 5.15-.7 1.4-1.733 2.55-3.1 3.45-1.333.867-2.967 1.5-4.9 1.9s-4.117.6-6.55.6h-3.85V231H52.3v-34.15c1.367-.333 2.883-.55 4.55-.65 1.7-.133 3.25-.2 4.65-.2zm.4 4.25c-2.067 0-3.65.05-4.75.15V214h3.65c1.667 0 3.167-.1 4.5-.3 1.333-.233 2.45-.6 3.35-1.1a5.55 5.55 0 0 0 2.15-2.15c.5-.9.75-2.05.75-3.45 0-1.333-.267-2.433-.8-3.3-.5-.867-1.2-1.55-2.1-2.05-.867-.533-1.883-.9-3.05-1.1s-2.4-.3-3.7-.3zm30.12 4.2c.4 0 .85.033 1.35.1.533.033 1.05.1 1.55.2a12.38 12.38 0 0 1 1.35.25c.433.067.75.133.95.2l-.8 4.05c-.367-.133-.983-.283-1.85-.45-.833-.2-1.917-.3-3.25-.3a11.53 11.53 0 0 0-2.6.3l-1.65.35V231h-4.65v-24.9c1.1-.4 2.467-.767 4.1-1.1 1.633-.367 3.467-.55 5.5-.55zM124.657 218c0 2.067-.3 3.933-.9 5.6s-1.45 3.1-2.55 4.3a11.144 11.144 0 0 1-3.85 2.8c-1.5.633-3.133.95-4.9.95s-3.4-.317-4.9-.95c-1.5-.667-2.8-1.6-3.9-2.8-1.067-1.2-1.9-2.633-2.5-4.3s-.9-3.533-.9-5.6c0-2.033.3-3.883.9-5.55.6-1.7 1.433-3.15 2.5-4.35a11.07 11.07 0 0 1 3.9-2.75c1.5-.667 3.133-1 4.9-1s3.4.333 4.9 1c1.5.633 2.783 1.55 3.85 2.75 1.1 1.2 1.95 2.65 2.55 4.35.6 1.667.9 3.517.9 5.55zm-4.85 0c0-2.933-.667-5.25-2-6.95-1.3-1.733-3.083-2.6-5.35-2.6s-4.067.867-5.4 2.6c-1.3 1.7-1.95 4.017-1.95 6.95s.65 5.267 1.95 7c1.333 1.7 3.133 2.55 5.4 2.55s4.05-.85 5.35-2.55c1.333-1.733 2-4.067 2-7zM148 210.5c-.566-.467-1.383-.917-2.45-1.35s-2.233-.65-3.5-.65c-1.333 0-2.483.25-3.45.75a6.05 6.05 0 0 0-2.3 2c-.6.833-1.033 1.833-1.3 3s-.4 2.417-.4 3.75c0 3.033.75 5.383 2.25 7.05 1.5 1.633 3.5 2.45 6 2.45 1.267 0 2.317-.05 3.15-.15.867-.133 1.534-.267 2-.4V210.5zm0-17.5 4.65-.8v38.05c-1.066.3-2.433.6-4.1.9s-3.583.45-5.75.45c-2 0-3.8-.317-5.4-.95s-2.966-1.533-4.1-2.7-2.016-2.583-2.65-4.25c-.6-1.7-.9-3.6-.9-5.7 0-2 .25-3.833.75-5.5.534-1.667 1.3-3.1 2.3-4.3s2.217-2.133 3.65-2.8c1.467-.667 3.134-1 5-1 1.5 0 2.817.2 3.95.6 1.167.4 2.034.783 2.6 1.15V193zm33.344 37.25c-1.067.267-2.484.55-4.25.85-1.734.3-3.75.45-6.05.45-2 0-3.684-.283-5.05-.85-1.367-.6-2.467-1.433-3.3-2.5s-1.434-2.317-1.8-3.75c-.367-1.467-.55-3.083-.55-4.85V205h4.65v13.6c0 3.167.5 5.433 1.5 6.8s2.683 2.05 5.05 2.05a25.14 25.14 0 0 0 1.55-.05l1.5-.1a23.97 23.97 0 0 1 1.25-.15c.4-.067.683-.133.85-.2V205h4.65v25.25zm19.31 1.35c-2.1 0-3.95-.333-5.55-1-1.567-.667-2.9-1.6-4-2.8-1.067-1.2-1.867-2.617-2.4-4.25-.534-1.667-.8-3.5-.8-5.5s.283-3.833.85-5.5c.6-1.667 1.433-3.1 2.5-4.3a10.746 10.746 0 0 1 3.9-2.85c1.566-.7 3.3-1.05 5.2-1.05a20.69 20.69 0 0 1 3.5.3c1.166.2 2.283.517 3.35.95l-1.05 3.95c-.7-.333-1.517-.6-2.45-.8-.9-.2-1.867-.3-2.9-.3-2.6 0-4.6.817-6 2.45-1.367 1.633-2.05 4.017-2.05 7.15 0 1.4.15 2.683.45 3.85.333 1.167.833 2.167 1.5 3 .7.833 1.583 1.483 2.65 1.95 1.066.433 2.366.65 3.9.65 1.233 0 2.35-.117 3.35-.35s1.783-.483 2.35-.75l.65 3.9c-.267.167-.65.333-1.15.5a16.94 16.94 0 0 1-1.7.35c-.634.133-1.317.233-2.05.3-.7.1-1.384.15-2.05.15zm16.292-26.6h9.85v3.9h-9.85v12c0 1.3.1 2.383.3 3.25.2.833.5 1.5.9 2 .4.467.9.8 1.5 1s1.3.3 2.1.3c1.4 0 2.516-.15 3.35-.45l1.8-.7.9 3.85c-.467.233-1.284.517-2.45.85-1.167.367-2.5.55-4 .55-1.767 0-3.234-.217-4.4-.65-1.134-.467-2.05-1.15-2.75-2.05s-1.2-2-1.5-3.3c-.267-1.333-.4-2.867-.4-4.6v-23.2l4.65-.8V205zm21.817 22.65c1.9 0 3.3-.25 4.2-.75.933-.5 1.4-1.3 1.4-2.4 0-1.133-.45-2.033-1.35-2.7s-2.383-1.417-4.45-2.25l-2.9-1.2c-.9-.433-1.683-.933-2.35-1.5s-1.2-1.25-1.6-2.05-.6-1.783-.6-2.95c0-2.3.85-4.117 2.55-5.45 1.7-1.367 4.017-2.05 6.95-2.05.733 0 1.467.05 2.2.15a17.93 17.93 0 0 1 2.05.3c.633.1 1.183.217 1.65.35.5.133.883.25 1.15.35l-.85 4c-.5-.267-1.283-.533-2.35-.8-1.067-.3-2.35-.45-3.85-.45-1.3 0-2.433.267-3.4.8-.967.5-1.45 1.3-1.45 2.4 0 .567.1 1.067.3 1.5.233.433.567.833 1 1.2a9.99 9.99 0 0 0 1.7.95c.667.3 1.467.617 2.4.95 1.233.467 2.333.933 3.3 1.4.967.433 1.783.95 2.45 1.55.7.6 1.233 1.333 1.6 2.2.367.833.55 1.867.55 3.1 0 2.4-.9 4.217-2.7 5.45-1.767 1.233-4.3 1.85-7.6 1.85-2.3 0-4.1-.2-5.4-.6-1.3-.367-2.183-.65-2.65-.85l.85-4a105.08 105.08 0 0 0 2.55.9c1.167.4 2.717.6 4.65.6z" class="E"/><path d="m98.404 43.68 1.082-2.21c.325-.754.268-.862-.166-1.068s-.874.277-1.157.644a10.2 10.2 0 0 0-.724.795l-1.967 3.01-15.438 24.213a.331.331 0 0 1-.523.062.35.35 0 0 1-.095-.18l-.015-.495c.005-1.597-.127-4.18-.305-5.634L77.814 38.2a8.42 8.42 0 0 0-.291-1.67.74.74 0 0 0-.196-.325.71.71 0 0 0-.327-.181 1.151 1.151 0 0 0-.543.596 4.79 4.79 0 0 0-.258 1.192L76 41.5l-.364 13.53-.47 16.204-.843.413-2.506-2.423-18.64-16.95a9.14 9.14 0 0 0-1.422-1.054.666.666 0 0 0-.832.129.71.71 0 0 0-.182.419.712.712 0 0 0 .11.445 7.23 7.23 0 0 0 .922 1.319l8.13 8.928 9.24 10.268a38.32 38.32 0 0 0 4.517 4.366c.847.69 1.76 1.287 2.727 1.782.732.334 1 .38 1.596-.273a37.42 37.42 0 0 0 3.13-3.434c.362-.397.724-.795.894-1.378a57.13 57.13 0 0 0 2.904-4.721l13.493-25.39z" class="D"/><path d="M99.806 75.757c-.827 0-1.58-.136-2.26-.408a4.81 4.81 0 0 1-1.751-1.19c-.487-.52-.867-1.162-1.14-1.92-.26-.77-.39-1.65-.39-2.635s.147-1.86.442-2.618c.306-.77.714-1.417 1.224-1.938a5.14 5.14 0 0 1 1.785-1.19 5.803 5.803 0 0 1 2.176-.408 7.58 7.58 0 0 1 1.309.102c.397.068.737.147 1.02.238a4.75 4.75 0 0 1 .714.272l.374.204-.476 1.36a2.62 2.62 0 0 0-.442-.221l-.663-.238a4.87 4.87 0 0 0-.799-.187 4.38 4.38 0 0 0-.867-.085c-.623 0-1.184.108-1.683.323a3.48 3.48 0 0 0-1.275.935c-.35.408-.623.907-.816 1.496a6.565 6.565 0 0 0-.272 1.955c0 .703.08 1.343.238 1.92.17.578.42 1.077.748 1.496.33.408.737.725 1.224.952.5.227 1.077.34 1.734.34.76 0 1.388-.08 1.887-.238s.873-.3 1.122-.425l.425 1.36c-.08.057-.22.13-.425.22-.204.08-.46.16-.765.238s-.663.147-1.07.204-.85.085-1.326.085zm9.366-1.394.986-.017a4.98 4.98 0 0 0 .73-.102V71.61c-.113-.057-.3-.102-.56-.136a5.275 5.275 0 0 0-.918-.068c-.238 0-.493.017-.765.05-.26.034-.504.108-.73.22-.215.102-.397.25-.544.442-.147.18-.22.425-.22.73 0 .567.18.963.544 1.2.363.215.856.323 1.48.323zm-.136-7.922c.635 0 1.167.085 1.598.255.442.16.793.39 1.054.697.272.295.465.652.578 1.07a5.09 5.09 0 0 1 .17 1.36v5.525l-.578.102-.816.102-1.003.085-1.054.05c-.5 0-.958-.05-1.377-.153s-.782-.26-1.088-.476c-.306-.227-.544-.52-.714-.884s-.255-.8-.255-1.31c0-.487.096-.907.29-1.258.204-.35.476-.635.816-.85s.737-.374 1.2-.476.93-.153 1.428-.153a3.72 3.72 0 0 1 .493.034 3 3 0 0 1 .476.068l.408.068.238.05v-.442a3.42 3.42 0 0 0-.085-.765 1.725 1.725 0 0 0-.306-.68 1.44 1.44 0 0 0-.612-.476c-.25-.125-.578-.187-.986-.187-.52 0-.98.04-1.377.12-.385.068-.674.142-.867.22l-.187-1.31c.204-.09.544-.176 1.02-.255.476-.09.992-.136 1.547-.136zm10.868 9.265c-.714 0-1.343-.113-1.887-.34a3.88 3.88 0 0 1-1.36-.952 4.106 4.106 0 0 1-.816-1.445 6.12 6.12 0 0 1-.272-1.87 5.77 5.77 0 0 1 .289-1.87 4.424 4.424 0 0 1 .85-1.462 3.66 3.66 0 0 1 1.326-.969 4.287 4.287 0 0 1 1.768-.357 7.03 7.03 0 0 1 1.19.102c.397.068.776.176 1.14.323l-.357 1.343a3.79 3.79 0 0 0-.833-.272 4.542 4.542 0 0 0-.986-.102c-.884 0-1.564.278-2.04.833-.465.555-.697 1.366-.697 2.43 0 .476.05.912.153 1.31.113.397.283.737.5 1.02.238.283.538.504.9.663.363.147.805.22 1.326.22.42 0 .8-.04 1.14-.12s.606-.164.8-.255l.22 1.326c-.09.057-.22.113-.39.17a5.75 5.75 0 0 1-.578.119 6.06 6.06 0 0 1-.697.102c-.238.034-.47.05-.697.05zm6.54-9.044h3.35v1.326h-3.35v4.08c0 .442.034.8.102 1.105.068.283.17.5.306.68.136.16.306.272.5.34a2.26 2.26 0 0 0 .714.102c.476 0 .856-.05 1.14-.153l.612-.238.306 1.31c-.158.08-.436.176-.833.29-.396.125-.85.187-1.36.187-.6 0-1.1-.074-1.496-.22a2.24 2.24 0 0 1-.935-.697 2.697 2.697 0 0 1-.5-1.122c-.1-.453-.136-.975-.136-1.564V64.2l1.58-.272v2.737zm13.4 8.585-1.445.29c-.59.102-1.275.153-2.057.153-.68 0-1.252-.096-1.717-.29a2.826 2.826 0 0 1-1.122-.85 3.43 3.43 0 0 1-.612-1.275 6.78 6.78 0 0 1-.187-1.649v-4.964h1.58v4.624c0 1.077.17 1.847.5 2.312s.912.697 1.717.697l.527-.017.5-.034.425-.05c.136-.023.232-.045.29-.068v-7.463h1.58v8.585zm5.78-.884c.646 0 1.122-.085 1.428-.255.317-.17.476-.442.476-.816a1.08 1.08 0 0 0-.459-.918c-.306-.227-.8-.482-1.513-.765l-.986-.408a3.72 3.72 0 0 1-.799-.51c-.227-.193-.408-.425-.544-.697s-.204-.606-.204-1.003c0-.782.29-1.4.867-1.853.578-.465 1.366-.697 2.363-.697a5.53 5.53 0 0 1 .748.051 6.06 6.06 0 0 1 .697.102 4.6 4.6 0 0 1 .56.12l.39.12-.29 1.36c-.17-.09-.436-.18-.8-.272-.363-.102-.8-.153-1.31-.153-.442 0-.827.09-1.156.272-.33.17-.493.442-.493.816 0 .193.034.363.102.5a1.42 1.42 0 0 0 .34.408 3.39 3.39 0 0 0 .578.323l.816.323 1.122.476c.33.147.606.323.833.527.238.204.42.453.544.748.125.283.187.635.187 1.054 0 .816-.306 1.434-.918 1.853-.6.42-1.462.63-2.584.63-.782 0-1.394-.068-1.836-.204l-.9-.29.29-1.36.867.306c.397.136.924.204 1.58.204z" fill="#687c94"/><g class="B"><path d="M81 359a10 10 0 0 1 10-10h212a10 10 0 0 1 10 10v149a10 10 0 0 1-10 10H91a10 10 0 0 1-10-10V359zm313 0a10 10 0 0 1 10-10h212a10 10 0 0 1 10 10v149a10 10 0 0 1-10 10H404a10 10 0 0 1-10-10V359z"/><use xlink:href="#F"/><use xlink:href="#G"/><use xlink:href="#F" y="54"/><use xlink:href="#G" y="54"/></g><g class="D"><path d="m222.772 464.136-6.534-20.678-.103.035c.1-.03 9-3.317 20.48-14.43a10.34 10.34 0 0 1 14.924.469c3.995 4.374 3.8 11.255-.456 15.37-14.948 14.48-26.987 18.8-28.3 19.234zm-53.236 0 6.535-20.678.103.036c-.1-.032-9-3.318-20.48-14.43a10.34 10.34 0 0 0-14.923.47c-3.995 4.374-3.8 11.255.456 15.37 14.948 14.482 26.987 18.8 28.3 19.234z"/><path d="m153.406 427.378.126 1.83 2.53 27.797c7.477 5.008 12.635 6.848 13.475 7.13l6.535-20.678.103.036c-.1-.032-9-3.318-20.48-14.43a10.53 10.53 0 0 0-2.287-1.686zm85.37 1.832.125-1.83a10.59 10.59 0 0 0-2.287 1.686c-11.47 11.112-20.4 14.398-20.48 14.43l.103-.036 6.534 20.678c.84-.28 5.998-2.122 13.476-7.13l2.53-27.797z"/><path d="M217.758 396.148c-5.974-4.757-13.47-7.587-21.605-7.587s-15.63 2.83-21.605 7.587c-9.586 7.632-14.563 19.905-13.433 32.33l3.656 40.185 31.382 7.363 31.382-7.363 3.656-40.185c1.13-12.424-3.846-24.697-13.433-32.33z"/></g><path d="M223.62 394.77a4.497 4.497 0 0 1-.447-2.9c.55-3.037-2.032-5.696-4.98-5.13a4.17 4.17 0 0 1-2.826-.461c-2.635-1.478-5.9.23-6.277 3.293a4.43 4.43 0 0 1-1.3 2.625c-2.178 2.124-1.607 5.84 1.102 7.166a4.34 4.34 0 0 1 2.024 2.083c1.288 2.8 4.895 3.38 6.957 1.135a4.226 4.226 0 0 1 2.55-1.338c2.975-.4 4.633-3.75 3.198-6.463zm-27.466 81.255-34.533 7.362 4.222 22.285c.917 4.838 5.032 8.33 9.818 8.33h40.985c4.786 0 8.9-3.5 9.818-8.33l4.222-22.285-34.532-7.362z" class="C"/><path d="m176 505.673-4.222-22.285 29.454-6.28-5.078-1.083-34.533 7.362 4.222 22.285c.917 4.838 5.032 8.33 9.818 8.33h10.156c-4.786 0-8.9-3.49-9.817-8.328z" fill="#de3263"/><path d="M230.686 468.662H161.62c-2.206 0-3.994 1.842-3.994 4.114v6.498c0 2.272 1.788 4.113 3.994 4.113h69.065c2.206 0 3.994-1.84 3.994-4.113v-6.498c0-2.272-1.788-4.114-3.994-4.114z" fill="#efedee"/><path d="M167.783 479.274v-6.498c0-2.272 1.788-4.113 3.994-4.113H161.62c-2.206 0-3.994 1.84-3.994 4.113v6.498c0 2.272 1.788 4.114 3.994 4.114h10.156c-2.206 0-3.994-1.842-3.994-4.114z" fill="#d2d2d2"/><path d="M177.736 427.858c-1.05 0-1.904.878-1.904 1.96v3.433c0 1.083.853 1.96 1.904 1.96s1.905-.878 1.905-1.96v-3.433c0-1.083-.853-1.96-1.905-1.96zm36.828 7.355c1.052 0 1.905-.878 1.905-1.96v-3.432c0-1.083-.853-1.96-1.905-1.96s-1.904.878-1.904 1.96v3.432c0 1.083.853 1.96 1.904 1.96zm-18.414 1.832c2.32 0 4.5-1 5.98-2.74.692-.816.6-2.054-.18-2.767s-1.995-.63-2.687.185c-.755.9-1.9 1.4-3.1 1.4s-2.356-.5-3.1-1.4c-.692-.815-1.895-.9-2.687-.186s-.872 1.952-.18 2.768c1.478 1.742 3.658 2.74 5.978 2.74zm19.146-38.985c1.727 0 3.128-1.442 3.128-3.22s-1.4-3.22-3.128-3.22-3.128 1.442-3.128 3.22 1.4 3.22 3.128 3.22zm41.004 39.315c.102-3.427-1.098-6.7-3.38-9.186-2.345-2.567-5.654-4.04-9.08-4.04-3.184 0-6.216 1.238-8.536 3.486l-2.327 2.172.105-1.147a40.17 40.17 0 0 0-2.324-17.568l2.63-1.125c.97-.415 1.43-1.563 1.028-2.563s-1.518-1.475-2.5-1.06l-2.707 1.158a38.16 38.16 0 0 0-4.347-6.917c.18-.26.348-.534.5-.825a6.52 6.52 0 0 0-.08-5.928 2.517 2.517 0 0 1-.248-1.613 6.473 6.473 0 0 0-1.316-5.225c-1.18-1.463-2.907-2.302-4.738-2.302-.942 0-1.825.353-2.714-.145a6.146 6.146 0 0 0-2.947-.78c-2.782 0-5.186 1.928-5.935 4.612a36.11 36.11 0 0 0-9.336-1.73v-2.6c0-1.084-.853-1.962-1.905-1.962s-1.904.878-1.904 1.962v2.6a35.99 35.99 0 0 0-16.221 4.782l-1.435-2.436c-.545-.926-1.716-1.22-2.616-.66s-1.186 1.767-.64 2.693l1.466 2.5a40.12 40.12 0 0 0-1.42 1.076c-4.3 3.43-7.84 7.858-10.3 12.904l-2.7-1.156c-.97-.415-2.086.06-2.5 1.06s.057 2.148 1.028 2.563l2.626 1.124a40.293 40.293 0 0 0-2.32 17.57l.104 1.147a98.31 98.31 0 0 1-2.326-2.17c-2.32-2.25-5.352-3.487-8.536-3.487-3.425 0-6.734 1.473-9.08 4.04-4.708 5.154-4.467 13.292.538 18.14 9.025 8.743 17.03 13.866 22.427 16.712l.333 3.66h-1.06c-3.252 0-5.898 2.725-5.898 6.074v6.498c0 2.774 1.814 5.118 4.285 5.842l3.966 20.933c1.088 5.745 6.003 9.914 11.687 9.914h40.985c5.684 0 10.6-4.17 11.687-9.914l3.966-20.933c2.47-.724 4.285-3.068 4.285-5.842v-6.498c0-3.35-2.646-6.074-5.898-6.074h-1.06l.333-3.66c5.398-2.846 13.402-7.97 22.427-16.712 2.424-2.35 3.815-5.53 3.917-8.956zm-42.975-49.684c.392 0 .77.102 1.126.3a6.07 6.07 0 0 0 4.087.667c1.6-.3 3.058 1.192 2.76 2.842a6.543 6.543 0 0 0 .647 4.208 2.43 2.43 0 0 1 .03 2.27 2.39 2.39 0 0 1-1.776 1.305 6.225 6.225 0 0 0-3.713 1.94 2.36 2.36 0 0 1-3.245.19c-.4-.348-.598-.845-.857-1.3-.62-1.087-1.57-2-2.677-2.53a2.393 2.393 0 0 1-1.32-1.82 2.48 2.48 0 0 1 .71-2.15 6.48 6.48 0 0 0 1.878-3.796 2.404 2.404 0 0 1 2.35-2.126zm-70.798 55.783c-3.476-3.367-3.643-9.018-.374-12.597 1.652-1.8 3.9-2.806 6.304-2.806 2.2 0 4.316.86 5.928 2.42a95.76 95.76 0 0 0 5.442 4.889l2.1 22.982c-5.04-2.887-11.828-7.562-19.4-14.9zm41.863 27.15h46.292c1.152 0 2.1.965 2.1 2.152v6.498c0 1.187-.938 2.153-2.1 2.153h-13.285c-1.05 0-1.904.878-1.904 1.96s.853 1.96 1.904 1.96h10.973l-3.78 19.95c-.74 3.907-4.083 6.743-7.948 6.743h-40.986c-3.865 0-7.208-2.836-7.948-6.744l-3.78-19.948h45.85c1.052 0 1.904-.878 1.904-1.96s-.852-1.96-1.904-1.96h-48.163c-1.152 0-2.1-.966-2.1-2.153v-6.498c0-1.187.937-2.152 2.1-2.152h15.155c1.052 0 1.905-.878 1.905-1.962s-.853-1.96-1.905-1.96H166.5l-.464-5.105-3.03-33.302a36.23 36.23 0 0 1 2.046-15.698l1.96.838a1.91 1.91 0 0 0 2.49-1.06c.403-1-.057-2.148-1.03-2.563l-1.874-.802c2.207-4.418 5.32-8.295 9.108-11.3a31.88 31.88 0 0 1 1.071-.817l1.105 1.877c.538.913 1.73 1.214 2.616.66.9-.56 1.186-1.767.64-2.693L180 394.805a32.32 32.32 0 0 1 14.243-4.21v2.497c0 1.084.852 1.962 1.904 1.962s1.904-.878 1.904-1.962v-2.498c2.553.147 5.063.586 7.5 1.32-.004.007-.007.015-.012.02a6.586 6.586 0 0 0-.918 4.454c.32 2.072 1.608 3.847 3.447 4.748a2.41 2.41 0 0 1 1.121 1.154c.954 2.065 3.03 3.498 5.25 3.618 1.783.096 3.576-.637 4.805-1.97a2.374 2.374 0 0 1 1.418-.747 5.98 5.98 0 0 0 1.141-.266 34.86 34.86 0 0 1 3.9 6.1l-1.87.8c-.97.415-1.432 1.563-1.028 2.564.397.985 1.534 1.467 2.5 1.06l1.957-.837a36.287 36.287 0 0 1 2.05 15.696l-3.494 38.407H184.4c-1.052 0-1.905.878-1.905 1.96s.853 1.96 1.905 1.96zm65.383-27.15c-7.563 7.327-14.352 12.002-19.4 14.9l2.1-22.982a95.84 95.84 0 0 0 5.442-4.889c1.612-1.56 3.717-2.42 5.927-2.42 2.413 0 4.652.997 6.305 2.806 1.583 1.733 2.417 4 2.346 6.378s-1.036 4.588-2.72 6.22z" fill="#000"/><path d="M103.308 545.298h1.358V555h-1.358v-4.48h-4.746V555h-1.358v-9.702h1.358v4.046h4.746v-4.046zm7.147 8.764.812-.014c.243-.02.443-.047.602-.084v-2.17c-.093-.047-.247-.084-.462-.112a4.342 4.342 0 0 0-.756-.056c-.196 0-.406.014-.63.042a1.89 1.89 0 0 0-.602.182 1.205 1.205 0 0 0-.448.364c-.12.15-.182.35-.182.602 0 .467.15.793.448.98.3.177.705.266 1.218.266zm-.112-6.524c.523 0 .96.07 1.316.2.364.13.653.322.868.574.224.243.383.537.476.882.093.336.14.71.14 1.12v4.55l-.476.084-.672.084-.826.07-.868.042a4.79 4.79 0 0 1-1.134-.126 2.623 2.623 0 0 1-.896-.392c-.252-.187-.448-.43-.588-.728s-.2-.658-.2-1.078c0-.4.08-.747.238-1.036a2.01 2.01 0 0 1 .672-.7 3.09 3.09 0 0 1 .98-.392 5.34 5.34 0 0 1 1.176-.126c.13 0 .266.01.406.028.14.01.27.028.392.056l.336.056.196.042v-.364a2.81 2.81 0 0 0-.07-.63c-.047-.215-.13-.4-.252-.56-.12-.168-.29-.3-.504-.392-.205-.103-.476-.154-.812-.154-.43 0-.807.033-1.134.098a3.71 3.71 0 0 0-.714.182l-.154-1.078c.168-.075.448-.145.84-.2a6.788 6.788 0 0 1 1.274-.112zm11.017 3.836c0-.85-.2-1.503-.63-1.96s-.98-.686-1.68-.686l-.924.042c-.215.028-.388.06-.518.098v4.592c.158.13.387.257.686.378s.625.182.98.182c.373 0 .7-.065.952-.196.27-.14.5-.327.658-.56.168-.243.29-.523.364-.84a4.75 4.75 0 0 0 .112-1.05zm1.358 0c0 .55-.075 1.06-.224 1.526-.14.467-.35.868-.63 1.204a2.89 2.89 0 0 1-1.036.784c-.402.187-.864.28-1.386.28-.42 0-.794-.056-1.12-.168a3.546 3.546 0 0 1-.714-.322v2.912h-1.302v-9.646l1.148-.238a8.29 8.29 0 0 1 1.61-.14c.56 0 1.064.09 1.512.266s.83.43 1.148.756.56.728.728 1.204c.177.467.266.994.266 1.582zm7.886 0c0-.85-.2-1.503-.63-1.96s-.98-.686-1.68-.686l-.924.042c-.215.028-.388.06-.518.098v4.592c.158.13.387.257.686.378s.625.182.98.182c.373 0 .7-.065.952-.196.27-.14.5-.327.658-.56.168-.243.29-.523.364-.84a4.75 4.75 0 0 0 .112-1.05zm1.358 0c0 .55-.075 1.06-.224 1.526-.14.467-.35.868-.63 1.204a2.89 2.89 0 0 1-1.036.784c-.402.187-.864.28-1.386.28-.42 0-.794-.056-1.12-.168a3.546 3.546 0 0 1-.714-.322v2.912h-1.302v-9.646l1.148-.238a8.29 8.29 0 0 1 1.61-.14c.56 0 1.064.09 1.512.266s.83.43 1.148.756.56.728.728 1.204c.177.467.266.994.266 1.582zm1.786 4.984c.103.047.234.09.392.126.168.047.332.07.5.07.514 0 .915-.117 1.204-.35.3-.224.55-.593.784-1.106l-1.652-3.556a32.103 32.103 0 0 1-1.26-3.822h1.4l.364 1.358.5 1.498.574 1.54.644 1.484.924-2.912.742-2.968h1.344l-1.12 3.962-1.33 3.542c-.186.42-.382.78-.588 1.078-.196.308-.415.56-.658.756s-.518.34-.826.434c-.298.093-.64.14-1.022.14a1.93 1.93 0 0 1-.322-.028 2.182 2.182 0 0 1-.336-.056l-.294-.07-.182-.07.238-1.05zm17.3-1.148a4.97 4.97 0 0 1-1.862-.336 3.96 3.96 0 0 1-1.442-.98 4.507 4.507 0 0 1-.938-1.582c-.215-.635-.322-1.358-.322-2.17s.12-1.53.364-2.156c.252-.635.588-1.167 1.008-1.596a4.24 4.24 0 0 1 1.47-.98 4.78 4.78 0 0 1 1.792-.336 6.25 6.25 0 0 1 1.078.084c.326.056.606.12.84.196.242.075.438.15.588.224l.308.168-.392 1.12a2.172 2.172 0 0 0-.364-.182l-.546-.196a4.033 4.033 0 0 0-.658-.154 3.616 3.616 0 0 0-.714-.07c-.514 0-.976.09-1.386.266a2.86 2.86 0 0 0-1.05.77c-.3.336-.514.747-.672 1.232a5.35 5.35 0 0 0-.224 1.61c0 .58.065 1.106.196 1.582.14.476.345.887.616 1.232.27.336.606.597 1.008.784.4.187.886.28 1.428.28.625 0 1.143-.065 1.554-.196s.718-.247.924-.35l.35 1.12a2.25 2.25 0 0 1-.35.182 5.77 5.77 0 0 1-.63.196c-.252.065-.546.12-.882.168s-.7.07-1.092.07zm7.89-1.148.812-.014a4.27 4.27 0 0 0 .602-.084v-2.17c-.093-.047-.247-.084-.462-.112a4.342 4.342 0 0 0-.756-.056c-.196 0-.406.014-.63.042-.214.028-.415.09-.602.182a1.213 1.213 0 0 0-.448.364c-.12.15-.182.35-.182.602 0 .467.15.793.448.98.3.177.705.266 1.218.266zm-.112-6.524c.523 0 .962.07 1.316.2.364.13.654.322.868.574.224.243.383.537.476.882.094.336.14.71.14 1.12v4.55l-.476.084-.672.084-.826.07-.868.042c-.4 0-.788-.042-1.134-.126s-.644-.215-.896-.392c-.252-.187-.448-.43-.588-.728s-.2-.658-.2-1.078c0-.4.08-.747.238-1.036a2.01 2.01 0 0 1 .672-.7 3.09 3.09 0 0 1 .98-.392 5.353 5.353 0 0 1 1.176-.126c.13 0 .266.01.406.028.14.01.27.028.392.056l.336.056.196.042v-.364a2.81 2.81 0 0 0-.07-.63 1.38 1.38 0 0 0-.252-.56c-.12-.168-.29-.3-.504-.392-.205-.103-.476-.154-.812-.154-.43 0-.807.033-1.134.098a3.71 3.71 0 0 0-.714.182l-.154-1.078c.168-.075.448-.145.84-.2a6.788 6.788 0 0 1 1.274-.112zm9.127 7.63c-.588 0-1.106-.093-1.554-.28a3.187 3.187 0 0 1-1.12-.784 3.31 3.31 0 0 1-.672-1.19c-.15-.467-.224-.98-.224-1.54s.08-1.073.238-1.54a3.64 3.64 0 0 1 .7-1.204c.298-.345.662-.61 1.092-.798a3.527 3.527 0 0 1 1.456-.294 5.8 5.8 0 0 1 .98.084c.326.056.64.145.938.266l-.294 1.106a3.138 3.138 0 0 0-.686-.224 3.74 3.74 0 0 0-.812-.084c-.728 0-1.288.23-1.68.686-.383.457-.574 1.125-.574 2.002 0 .392.042.75.126 1.078.093.327.233.607.42.84a2 2 0 0 0 .742.546c.298.12.662.182 1.092.182.345 0 .658-.033.938-.098s.5-.135.658-.2l.182 1.092a1.565 1.565 0 0 1-.322.14c-.14.037-.3.07-.476.098-.178.037-.37.065-.574.084a4.064 4.064 0 0 1-.574.042zm5.562-7.448h2.758v1.092h-2.758v3.36c0 .364.028.667.084.9.056.233.14.42.252.56.112.13.252.224.42.28a1.86 1.86 0 0 0 .588.084c.392 0 .704-.042.938-.126l.504-.196.252 1.078a4.47 4.47 0 0 1-.686.238c-.327.103-.7.154-1.12.154-.495 0-.906-.06-1.232-.182a1.84 1.84 0 0 1-.77-.574 2.34 2.34 0 0 1-.42-.924 6.591 6.591 0 0 1-.112-1.288V545.7l1.302-.224v2.254zm11.2 7.07-1.2.238c-.485.084-1.05.126-1.694.126-.56 0-1.03-.08-1.414-.238-.382-.168-.7-.4-.924-.7a2.83 2.83 0 0 1-.504-1.05 5.63 5.63 0 0 1-.154-1.358v-4.088h1.302v3.808c0 .887.14 1.52.42 1.904s.752.574 1.414.574l.434-.014.42-.028.35-.042a1.27 1.27 0 0 0 .238-.056v-6.146h1.302v7.07zm4.937-.728c.532 0 .924-.07 1.176-.2.262-.14.392-.364.392-.672a.89.89 0 0 0-.378-.756c-.252-.187-.667-.397-1.246-.63l-.812-.336a3.04 3.04 0 0 1-.658-.42c-.186-.16-.336-.35-.448-.574s-.168-.5-.168-.826c0-.644.238-1.153.714-1.526.476-.383 1.125-.574 1.946-.574.206 0 .41.014.616.042.206.02.397.047.574.084.178.028.332.06.462.098l.322.098-.238 1.12c-.14-.075-.36-.15-.658-.224a4.018 4.018 0 0 0-1.078-.126c-.364 0-.68.075-.952.224a.706.706 0 0 0-.406.672.99.99 0 0 0 .084.42c.066.12.16.233.28.336.13.093.3.182.476.266l.672.266.924.392a2.59 2.59 0 0 1 .686.434 1.63 1.63 0 0 1 .448.616c.103.233.154.523.154.868 0 .672-.252 1.18-.756 1.526-.494.345-1.204.518-2.128.518-.644 0-1.148-.056-1.512-.168l-.742-.238.238-1.12.714.252c.327.112.76.168 1.302.168zm225.298-3.122.56.742.714 1.008.714 1.148c.243.4.448.79.616 1.162h-1.484l-.616-1.078-.658-1.036-.672-.938-.588-.756-.378.014h-1.596V555h-1.358v-9.562a7.243 7.243 0 0 1 1.274-.182l1.302-.056c1.363 0 2.4.257 3.108.77.72.513 1.078 1.28 1.078 2.296 0 .644-.173 1.195-.518 1.652-.336.457-.835.798-1.498 1.022zm-2.058-4.55-1.33.042v3.654h.966a10.16 10.16 0 0 0 1.26-.07c.373-.047.686-.135.938-.266.26-.13.462-.313.602-.546.14-.243.2-.56.2-.952 0-.364-.07-.667-.2-.9s-.33-.434-.574-.574a2.407 2.407 0 0 0-.84-.294 5.88 5.88 0 0 0-1.022-.084zm6.627 4.984c0-.644.093-1.204.28-1.68.186-.485.434-.887.742-1.204s.662-.555 1.064-.714.812-.238 1.232-.238c.98 0 1.73.308 2.254.924.522.607.784 1.535.784 2.786v.224a1.99 1.99 0 0 1-.014.238h-4.984c.056.756.275 1.33.658 1.722s.98.588 1.792.588c.457 0 .84-.037 1.148-.112a4.46 4.46 0 0 0 .714-.238l.182 1.092c-.16.084-.44.173-.84.266-.392.093-.84.14-1.344.14-.635 0-1.186-.093-1.652-.28a3.14 3.14 0 0 1-1.134-.798 3.31 3.31 0 0 1-.672-1.19 5.29 5.29 0 0 1-.21-1.526zm4.998-.714c.01-.588-.14-1.07-.448-1.442-.3-.383-.714-.574-1.246-.574-.3 0-.565.06-.798.182a1.79 1.79 0 0 0-.574.448c-.16.187-.285.4-.378.644a3.42 3.42 0 0 0-.168.742h3.612zm6.412 4.48c-.803-.02-1.372-.19-1.708-.518s-.504-.835-.504-1.526v-8.736l1.302-.224v8.75c0 .215.02.392.056.532s.098.252.182.336.196.15.336.196c.14.037.313.07.518.098l-.182 1.092zm5.108-1.078.812-.014c.243-.02.443-.047.602-.084v-2.17c-.093-.047-.247-.084-.462-.112a4.342 4.342 0 0 0-.756-.056c-.196 0-.406.014-.63.042a1.89 1.89 0 0 0-.602.182 1.205 1.205 0 0 0-.448.364c-.12.15-.182.35-.182.602 0 .467.15.793.448.98.3.177.705.266 1.218.266zm-.112-6.524c.523 0 .96.07 1.316.2.364.13.653.322.868.574.224.243.383.537.476.882.093.336.14.71.14 1.12v4.55l-.476.084-.672.084-.826.07-.868.042a4.79 4.79 0 0 1-1.134-.126 2.623 2.623 0 0 1-.896-.392c-.252-.187-.448-.43-.588-.728s-.2-.658-.2-1.078c0-.4.08-.747.238-1.036a2.01 2.01 0 0 1 .672-.7 3.09 3.09 0 0 1 .98-.392 5.34 5.34 0 0 1 1.176-.126c.13 0 .266.01.406.028.14.01.27.028.392.056l.336.056.196.042v-.364a2.81 2.81 0 0 0-.07-.63c-.047-.215-.13-.4-.252-.56-.12-.168-.29-.3-.504-.392-.205-.103-.476-.154-.812-.154-.43 0-.807.033-1.134.098a3.71 3.71 0 0 0-.714.182l-.154-1.078c.168-.075.448-.145.84-.2a6.788 6.788 0 0 1 1.274-.112zM446.242 555l-.378-.686-.5-.77-.546-.798-.546-.742-.546.756-.546.798-.476.77-.378.672h-1.344a17.79 17.79 0 0 1 1.162-1.932l1.358-1.9-2.408-3.458h1.47l1.736 2.548 1.75-2.548h1.386l-2.352 3.374 1.372 1.932c.476.672.877 1.33 1.204 1.974h-1.428zm3.09-3.626c0-.644.094-1.204.28-1.68.187-.485.434-.887.742-1.204s.663-.555 1.064-.714a3.32 3.32 0 0 1 1.232-.238c.98 0 1.732.308 2.254.924.523.607.784 1.535.784 2.786v.224c0 .084-.004.163-.014.238h-4.984c.056.756.276 1.33.658 1.722s.98.588 1.792.588c.458 0 .84-.037 1.148-.112.318-.084.556-.163.714-.238l.182 1.092c-.158.084-.438.173-.84.266-.392.093-.84.14-1.344.14-.634 0-1.185-.093-1.652-.28a3.156 3.156 0 0 1-1.134-.798 3.34 3.34 0 0 1-.672-1.19 5.29 5.29 0 0 1-.21-1.526zm4.998-.714c.01-.588-.14-1.07-.448-1.442-.298-.383-.714-.574-1.246-.574a1.7 1.7 0 0 0-.798.182 1.8 1.8 0 0 0-.574.448 2.24 2.24 0 0 0-.378.644 3.42 3.42 0 0 0-.168.742h3.612zm8.933-1.4a2.726 2.726 0 0 0-.686-.378 2.59 2.59 0 0 0-.98-.182c-.374 0-.696.07-.966.2a1.69 1.69 0 0 0-.644.56 2.28 2.28 0 0 0-.364.84 4.69 4.69 0 0 0-.112 1.05c0 .85.2 1.507.63 1.974.42.457.98.686 1.68.686l.882-.042.56-.112v-4.606zm0-4.9 1.302-.224V554.8c-.3.084-.682.168-1.148.252s-1.004.126-1.6.126c-.56 0-1.064-.09-1.512-.266s-.83-.43-1.148-.756-.565-.723-.742-1.2a4.772 4.772 0 0 1-.252-1.596 5.38 5.38 0 0 1 .209-1.54c.15-.467.365-.868.645-1.204a2.91 2.91 0 0 1 1.022-.784c.4-.187.877-.28 1.4-.28.42 0 .788.056 1.106.168.326.112.57.22.728.322v-3.682zm13.036 10.85c-.68 0-1.302-.112-1.862-.336a3.96 3.96 0 0 1-1.442-.98c-.4-.43-.714-.957-.938-1.582-.215-.635-.322-1.358-.322-2.17s.12-1.53.364-2.156c.252-.635.588-1.167 1.008-1.596a4.24 4.24 0 0 1 1.47-.98 4.78 4.78 0 0 1 1.792-.336c.4 0 .76.028 1.078.084.327.056.607.12.84.196.243.075.44.15.588.224l.308.168-.392 1.12a2.133 2.133 0 0 0-.364-.182l-.546-.196a4.01 4.01 0 0 0-.658-.154 3.6 3.6 0 0 0-.714-.07c-.513 0-.975.09-1.386.266a2.86 2.86 0 0 0-1.05.77c-.29.336-.513.747-.672 1.232a5.329 5.329 0 0 0-.224 1.6c0 .58.065 1.106.196 1.582.14.476.345.887.616 1.232a2.79 2.79 0 0 0 1.008.784c.41.187.887.28 1.428.28.625 0 1.143-.065 1.554-.196a6.8 6.8 0 0 0 .924-.35l.35 1.12a2.202 2.202 0 0 1-.35.182 5.77 5.77 0 0 1-.63.196c-.252.065-.546.12-.882.168s-.7.07-1.092.07zm7.9-1.148.812-.014a4.17 4.17 0 0 0 .602-.084v-2.17c-.094-.047-.248-.084-.462-.112a4.358 4.358 0 0 0-.756-.056c-.196 0-.406.014-.63.042a1.88 1.88 0 0 0-.602.182 1.197 1.197 0 0 0-.448.364c-.122.15-.182.35-.182.602 0 .467.15.793.448.98.298.177.704.266 1.218.266zm-.112-6.524c.522 0 .96.07 1.316.2.364.13.653.322.868.574.224.243.382.537.476.882.093.336.14.71.14 1.12v4.55l-.476.084-.672.084-.826.07-.868.042a4.79 4.79 0 0 1-1.134-.126 2.614 2.614 0 0 1-.896-.392c-.252-.187-.448-.43-.588-.728s-.2-.658-.2-1.078c0-.4.08-.747.238-1.036a2.01 2.01 0 0 1 .672-.7 3.08 3.08 0 0 1 .98-.392 5.34 5.34 0 0 1 1.176-.126c.13 0 .266.01.406.028a2.45 2.45 0 0 1 .392.056l.336.056.196.042v-.364a2.87 2.87 0 0 0-.07-.63c-.047-.215-.13-.4-.252-.56-.122-.168-.3-.3-.504-.392-.206-.103-.476-.154-.812-.154-.43 0-.808.033-1.134.098a3.67 3.67 0 0 0-.714.182l-.154-1.078c.168-.075.448-.145.84-.2a6.78 6.78 0 0 1 1.274-.112zm9.126 7.63c-.588 0-1.106-.093-1.554-.28a3.187 3.187 0 0 1-1.12-.784 3.31 3.31 0 0 1-.672-1.19c-.15-.467-.224-.98-.224-1.54s.08-1.073.238-1.54a3.64 3.64 0 0 1 .7-1.204c.3-.345.663-.61 1.092-.798a3.53 3.53 0 0 1 1.456-.294 5.79 5.79 0 0 1 .98.084 4.53 4.53 0 0 1 .938.266l-.294 1.106a3.138 3.138 0 0 0-.686-.224 3.74 3.74 0 0 0-.812-.084c-.728 0-1.288.23-1.68.686-.383.457-.574 1.125-.574 2.002 0 .392.042.75.126 1.078.093.327.233.607.42.84a2 2 0 0 0 .742.546c.3.12.663.182 1.092.182.345 0 .658-.033.938-.098s.5-.135.658-.2l.182 1.092a1.565 1.565 0 0 1-.322.14c-.14.037-.3.07-.476.098a5.13 5.13 0 0 1-.574.084 4.053 4.053 0 0 1-.574.042zm5.562-7.448h2.758v1.092h-2.758v3.36c0 .364.028.667.084.9.056.233.14.42.252.56.112.13.252.224.42.28a1.86 1.86 0 0 0 .588.084c.392 0 .704-.042.938-.126l.504-.196.252 1.078a4.47 4.47 0 0 1-.686.238c-.327.103-.7.154-1.12.154-.495 0-.906-.06-1.232-.182a1.84 1.84 0 0 1-.77-.574 2.34 2.34 0 0 1-.42-.924 6.591 6.591 0 0 1-.112-1.288V545.7l1.302-.224v2.254zm11.21 7.07-1.2.238c-.486.084-1.05.126-1.694.126-.56 0-1.032-.08-1.414-.238a2.33 2.33 0 0 1-.924-.7 2.8 2.8 0 0 1-.504-1.05 5.58 5.58 0 0 1-.154-1.358v-4.088h1.302v3.808c0 .887.14 1.52.42 1.904s.75.574 1.414.574l.434-.014.42-.028.35-.042a1.29 1.29 0 0 0 .238-.056v-6.146h1.302v7.07zm4.937-.728c.532 0 .924-.07 1.176-.2.26-.14.392-.364.392-.672a.89.89 0 0 0-.378-.756c-.252-.187-.668-.397-1.246-.63l-.812-.336a2.944 2.944 0 0 1-.658-.42 1.8 1.8 0 0 1-.448-.574c-.112-.224-.168-.5-.168-.826 0-.644.238-1.153.714-1.526.476-.383 1.124-.574 1.946-.574.205 0 .4.014.616.042.205.02.396.047.574.084.177.028.33.06.462.098l.322.098-.238 1.12c-.14-.075-.36-.15-.658-.224a4.028 4.028 0 0 0-1.078-.126c-.364 0-.682.075-.952.224a.706.706 0 0 0-.406.672.99.99 0 0 0 .084.42 1.16 1.16 0 0 0 .28.336c.13.093.29.182.476.266l.672.266.924.392c.27.12.5.266.686.434.196.168.345.373.448.616.102.233.154.523.154.868 0 .672-.252 1.18-.756 1.526-.495.345-1.204.518-2.128.518-.644 0-1.148-.056-1.512-.168l-.742-.238.238-1.12.714.252c.326.112.76.168 1.302.168z"/><g class="B"><path d="M394 713a10 10 0 0 1 10-10h212a10 10 0 0 1 10 10v149a10 10 0 0 1-10 10H404a10 10 0 0 1-10-10V713z"/><use xlink:href="#G" y="354"/><use xlink:href="#G" y="408"/></g><path d="M416.042 907.824V909h-5.838v-9.702h1.358v8.526h4.48zm8.6-2.464c0 .58-.084 1.1-.252 1.568s-.406.868-.714 1.204c-.3.336-.658.597-1.078.784a3.5 3.5 0 0 1-1.372.266c-.495 0-.952-.09-1.372-.266a3.267 3.267 0 0 1-1.092-.784 3.64 3.64 0 0 1-.7-1.204 4.61 4.61 0 0 1-.252-1.568c0-.57.084-1.087.252-1.554a3.62 3.62 0 0 1 .7-1.218 3.096 3.096 0 0 1 1.092-.77c.42-.187.877-.28 1.372-.28s.952.093 1.372.28c.42.177.78.434 1.078.77.308.336.546.742.714 1.218.168.467.252.985.252 1.554zm-1.358 0c0-.82-.187-1.47-.56-1.946a1.77 1.77 0 0 0-1.498-.728c-.635 0-1.14.243-1.512.728-.364.476-.546 1.125-.546 1.946s.182 1.475.546 1.96c.373.476.877.714 1.512.714s1.134-.238 1.498-.714c.373-.485.56-1.14.56-1.96zm9.682-3.64a35.555 35.555 0 0 1-1.288 3.92l-1.414 3.36h-1.176l-1.428-3.36c-.485-1.25-.9-2.557-1.274-3.92h1.4l.392 1.47.5 1.54.532 1.47.504 1.274.504-1.274.518-1.47.5-1.54.406-1.47h1.344zm1.746 3.654c0-.644.093-1.204.28-1.68.187-.485.434-.887.742-1.204s.663-.555 1.064-.714.812-.238 1.232-.238c.98 0 1.73.308 2.254.924.523.607.784 1.535.784 2.786v.224a1.99 1.99 0 0 1-.014.238h-4.984c.056.756.275 1.33.658 1.722s.98.588 1.792.588c.457 0 .84-.037 1.148-.112a4.46 4.46 0 0 0 .714-.238l.182 1.092c-.16.084-.44.173-.84.266-.392.093-.84.14-1.344.14-.635 0-1.185-.093-1.652-.28a3.156 3.156 0 0 1-1.134-.798 3.31 3.31 0 0 1-.672-1.19 5.29 5.29 0 0 1-.21-1.526zm4.998-.714c.01-.588-.14-1.07-.448-1.442-.3-.383-.714-.574-1.246-.574-.3 0-.565.06-.798.182a1.8 1.8 0 0 0-.574.448c-.16.187-.285.4-.378.644a3.42 3.42 0 0 0-.168.742h3.612zm6.412 4.48c-.802-.02-1.372-.19-1.708-.518s-.504-.835-.504-1.526v-8.736l1.302-.224v8.75c0 .215.02.392.056.532s.098.252.182.336.196.15.336.196c.14.037.313.07.518.098l-.182 1.092zm1.8 1.218c.103.047.234.09.392.126.168.047.332.07.5.07.514 0 .915-.117 1.204-.35.3-.224.55-.593.784-1.106l-1.652-3.556a32.103 32.103 0 0 1-1.26-3.822h1.4l.364 1.358.5 1.498.574 1.54.644 1.484.924-2.912.742-2.968h1.344l-1.12 3.962-1.33 3.542c-.186.42-.382.78-.588 1.078-.196.308-.415.56-.658.756s-.518.34-.826.434c-.298.093-.64.14-1.022.14a1.93 1.93 0 0 1-.322-.028 2.182 2.182 0 0 1-.336-.056l-.294-.07-.182-.07.238-1.05zm17.3-1.148a4.97 4.97 0 0 1-1.862-.336 3.96 3.96 0 0 1-1.442-.98 4.507 4.507 0 0 1-.938-1.582c-.215-.635-.322-1.358-.322-2.17s.12-1.53.364-2.156c.252-.635.588-1.167 1.008-1.596a4.24 4.24 0 0 1 1.47-.98 4.78 4.78 0 0 1 1.792-.336 6.25 6.25 0 0 1 1.078.084c.326.056.606.12.84.196.242.075.438.15.588.224l.308.168-.392 1.12a2.172 2.172 0 0 0-.364-.182l-.546-.196a4.033 4.033 0 0 0-.658-.154 3.616 3.616 0 0 0-.714-.07c-.514 0-.976.09-1.386.266a2.86 2.86 0 0 0-1.05.77c-.3.336-.514.747-.672 1.232a5.35 5.35 0 0 0-.224 1.61c0 .58.065 1.106.196 1.582.14.476.345.887.616 1.232.27.336.606.597 1.008.784.4.187.886.28 1.428.28.625 0 1.143-.065 1.554-.196s.718-.247.924-.35l.35 1.12a2.25 2.25 0 0 1-.35.182 5.77 5.77 0 0 1-.63.196c-.252.065-.546.12-.882.168s-.7.07-1.092.07zm7.89-1.148.812-.014a4.27 4.27 0 0 0 .602-.084v-2.17c-.093-.047-.247-.084-.462-.112a4.342 4.342 0 0 0-.756-.056c-.196 0-.406.014-.63.042-.214.028-.415.09-.602.182a1.213 1.213 0 0 0-.448.364c-.12.15-.182.35-.182.602 0 .467.15.793.448.98.3.177.705.266 1.218.266zm-.112-6.524c.523 0 .962.07 1.316.2.364.13.654.322.868.574.224.243.383.537.476.882.094.336.14.71.14 1.12v4.55l-.476.084-.672.084-.826.07-.868.042c-.4 0-.788-.042-1.134-.126s-.644-.215-.896-.392c-.252-.187-.448-.43-.588-.728s-.2-.658-.2-1.078c0-.4.08-.747.238-1.036a2.01 2.01 0 0 1 .672-.7 3.09 3.09 0 0 1 .98-.392 5.353 5.353 0 0 1 1.176-.126c.13 0 .266.01.406.028.14.01.27.028.392.056l.336.056.196.042v-.364a2.81 2.81 0 0 0-.07-.63 1.38 1.38 0 0 0-.252-.56c-.12-.168-.29-.3-.504-.392-.205-.103-.476-.154-.812-.154-.43 0-.807.033-1.134.098a3.71 3.71 0 0 0-.714.182l-.154-1.078c.168-.075.448-.145.84-.2a6.788 6.788 0 0 1 1.274-.112zm9.127 7.63c-.588 0-1.106-.093-1.554-.28a3.187 3.187 0 0 1-1.12-.784 3.31 3.31 0 0 1-.672-1.19c-.15-.467-.224-.98-.224-1.54s.08-1.073.238-1.54a3.64 3.64 0 0 1 .7-1.204c.298-.345.662-.61 1.092-.798a3.527 3.527 0 0 1 1.456-.294 5.8 5.8 0 0 1 .98.084c.326.056.64.145.938.266l-.294 1.106a3.138 3.138 0 0 0-.686-.224 3.74 3.74 0 0 0-.812-.084c-.728 0-1.288.23-1.68.686-.383.457-.574 1.125-.574 2.002 0 .392.042.75.126 1.078.093.327.233.607.42.84a2 2 0 0 0 .742.546c.298.12.662.182 1.092.182.345 0 .658-.033.938-.098s.5-.135.658-.2l.182 1.092a1.565 1.565 0 0 1-.322.14c-.14.037-.3.07-.476.098-.178.037-.37.065-.574.084a4.064 4.064 0 0 1-.574.042zm5.562-7.448h2.758v1.092h-2.758v3.36c0 .364.028.667.084.9.056.233.14.42.252.56.112.13.252.224.42.28a1.86 1.86 0 0 0 .588.084c.392 0 .704-.042.938-.126l.504-.196.252 1.078a4.47 4.47 0 0 1-.686.238c-.327.103-.7.154-1.12.154-.495 0-.906-.06-1.232-.182a1.84 1.84 0 0 1-.77-.574 2.34 2.34 0 0 1-.42-.924 6.591 6.591 0 0 1-.112-1.288V899.7l1.302-.224v2.254zm11.2 7.07-1.2.238c-.485.084-1.05.126-1.694.126-.56 0-1.03-.08-1.414-.238-.382-.168-.7-.4-.924-.7a2.83 2.83 0 0 1-.504-1.05 5.63 5.63 0 0 1-.154-1.358v-4.088h1.302v3.808c0 .887.14 1.52.42 1.904s.752.574 1.414.574l.434-.014.42-.028.35-.042a1.27 1.27 0 0 0 .238-.056v-6.146h1.302v7.07zm4.937-.728c.532 0 .924-.07 1.176-.2.262-.14.392-.364.392-.672a.89.89 0 0 0-.378-.756c-.252-.187-.667-.397-1.246-.63l-.812-.336a3.04 3.04 0 0 1-.658-.42c-.186-.16-.336-.35-.448-.574s-.168-.5-.168-.826c0-.644.238-1.153.714-1.526.476-.383 1.125-.574 1.946-.574.206 0 .41.014.616.042.206.02.397.047.574.084.178.028.332.06.462.098l.322.098-.238 1.12c-.14-.075-.36-.15-.658-.224a4.018 4.018 0 0 0-1.078-.126c-.364 0-.68.075-.952.224a.706.706 0 0 0-.406.672.99.99 0 0 0 .084.42c.066.12.16.233.28.336.13.093.3.182.476.266l.672.266.924.392a2.59 2.59 0 0 1 .686.434 1.63 1.63 0 0 1 .448.616c.103.233.154.523.154.868 0 .672-.252 1.18-.756 1.526-.494.345-1.204.518-2.128.518-.644 0-1.148-.056-1.512-.168l-.742-.238.238-1.12.714.252c.327.112.76.168 1.302.168z" fill="#263135"/><g class="B"><path d="M81 713c0-5.523 4.477-10 10-10h212a10 10 0 0 1 10 10v149a10 10 0 0 1-10 10H91c-5.523 0-10-4.477-10-10V713z"/><use xlink:href="#F" y="354"/><use xlink:href="#F" y="408"/></g><path d="M99.458 908.034c1.42 0 2.128-.485 2.128-1.456 0-.3-.065-.55-.196-.756a1.638 1.638 0 0 0-.504-.546 3.264 3.264 0 0 0-.742-.406l-.868-.336a9.86 9.86 0 0 1-1.008-.406 3.87 3.87 0 0 1-.826-.546 2.5 2.5 0 0 1-.56-.756c-.13-.29-.196-.64-.196-1.05 0-.85.29-1.512.868-1.988s1.377-.714 2.394-.714c.588 0 1.12.065 1.596.196.485.12.84.257 1.064.406l-.434 1.106c-.196-.12-.5-.238-.882-.35a4.5 4.5 0 0 0-1.344-.182c-.26 0-.504.028-.728.084s-.42.14-.588.252-.303.257-.406.434c-.093.168-.14.37-.14.602 0 .26.05.48.154.658s.247.336.434.476a4.14 4.14 0 0 0 .644.364l.826.336 1.148.504a3.59 3.59 0 0 1 .91.602c.26.233.462.513.602.84.14.317.2.705.2 1.162 0 .85-.313 1.503-.938 1.96-.616.457-1.49.686-2.618.686-.383 0-.737-.028-1.064-.084l-.854-.168-.658-.224-.42-.2.406-1.12c.215.12.54.257.98.406s.975.224 1.6.224zm7.33-6.314h2.758v1.092h-2.758v3.36c0 .364.028.667.084.9.056.233.14.42.252.56.112.13.252.224.42.28a1.86 1.86 0 0 0 .588.084c.392 0 .705-.042.938-.126l.504-.196.252 1.078a4.47 4.47 0 0 1-.686.238c-.326.103-.7.154-1.12.154-.494 0-.905-.06-1.232-.182a1.838 1.838 0 0 1-.77-.574 2.34 2.34 0 0 1-.42-.924 6.67 6.67 0 0 1-.112-1.288V899.7l1.302-.224v2.254zm8.103-.154a2.83 2.83 0 0 1 .378.028c.15.01.294.028.434.056l.378.07c.12.02.2.037.266.056l-.224 1.134a3.75 3.75 0 0 0-.518-.126 4.02 4.02 0 0 0-.91-.084 3.23 3.23 0 0 0-.728.084l-.462.098V909h-1.302v-6.972c.308-.112.69-.215 1.148-.308.457-.103.97-.154 1.54-.154zm3.306 3.808c0-.644.094-1.204.28-1.68.187-.485.434-.887.742-1.204s.663-.555 1.064-.714a3.32 3.32 0 0 1 1.232-.238c.98 0 1.732.308 2.254.924.523.607.784 1.535.784 2.786v.224c0 .084-.004.163-.014.238h-4.984c.056.756.276 1.33.658 1.722s.98.588 1.792.588c.458 0 .84-.037 1.148-.112.318-.084.556-.163.714-.238l.182 1.092c-.158.084-.438.173-.84.266-.392.093-.84.14-1.344.14-.634 0-1.185-.093-1.652-.28a3.156 3.156 0 0 1-1.134-.798 3.34 3.34 0 0 1-.672-1.19 5.29 5.29 0 0 1-.21-1.526zm4.998-.714c.01-.588-.14-1.07-.448-1.442-.298-.383-.714-.574-1.246-.574a1.7 1.7 0 0 0-.798.182 1.8 1.8 0 0 0-.574.448 2.24 2.24 0 0 0-.378.644 3.42 3.42 0 0 0-.168.742h3.612zm5.923 3.402c.532 0 .924-.07 1.176-.2.26-.14.392-.364.392-.672a.89.89 0 0 0-.378-.756c-.252-.187-.668-.397-1.246-.63l-.812-.336a2.944 2.944 0 0 1-.658-.42 1.8 1.8 0 0 1-.448-.574c-.112-.224-.168-.5-.168-.826 0-.644.238-1.153.714-1.526.476-.383 1.124-.574 1.946-.574.205 0 .4.014.616.042.205.02.396.047.574.084.177.028.33.06.462.098l.322.098-.238 1.12c-.14-.075-.36-.15-.658-.224a4.028 4.028 0 0 0-1.078-.126c-.364 0-.682.075-.952.224a.706.706 0 0 0-.406.672.99.99 0 0 0 .084.42 1.16 1.16 0 0 0 .28.336c.13.093.29.182.476.266l.672.266.924.392c.27.12.5.266.686.434.196.168.345.373.448.616.102.233.154.523.154.868 0 .672-.252 1.18-.756 1.526-.495.345-1.204.518-2.128.518-.644 0-1.148-.056-1.512-.168l-.742-.238.238-1.12.714.252c.326.112.76.168 1.302.168zm7.248 0c.532 0 .924-.07 1.176-.2.26-.14.392-.364.392-.672a.89.89 0 0 0-.378-.756c-.252-.187-.668-.397-1.246-.63l-.812-.336a2.944 2.944 0 0 1-.658-.42 1.8 1.8 0 0 1-.448-.574c-.112-.224-.168-.5-.168-.826 0-.644.238-1.153.714-1.526.476-.383 1.124-.574 1.946-.574.205 0 .4.014.616.042.205.02.396.047.574.084.177.028.33.06.462.098l.322.098-.238 1.12c-.14-.075-.36-.15-.658-.224a4.028 4.028 0 0 0-1.078-.126c-.364 0-.682.075-.952.224a.706.706 0 0 0-.406.672.99.99 0 0 0 .084.42 1.16 1.16 0 0 0 .28.336c.13.093.29.182.476.266l.672.266.924.392c.27.12.5.266.686.434.196.168.345.373.448.616.102.233.154.523.154.868 0 .672-.252 1.18-.756 1.526-.495.345-1.204.518-2.128.518-.644 0-1.148-.056-1.512-.168l-.742-.238.238-1.12.714.252c.326.112.76.168 1.302.168zm5.148-2.688c0-.644.093-1.204.28-1.68.186-.485.434-.887.742-1.204s.662-.555 1.064-.714.812-.238 1.232-.238c.98 0 1.73.308 2.254.924.522.607.784 1.535.784 2.786v.224a1.99 1.99 0 0 1-.014.238h-4.984c.056.756.275 1.33.658 1.722s.98.588 1.792.588c.457 0 .84-.037 1.148-.112a4.46 4.46 0 0 0 .714-.238l.182 1.092c-.16.084-.44.173-.84.266-.392.093-.84.14-1.344.14-.635 0-1.186-.093-1.652-.28a3.14 3.14 0 0 1-1.134-.798 3.31 3.31 0 0 1-.672-1.19 5.29 5.29 0 0 1-.21-1.526zm4.998-.714c.01-.588-.14-1.07-.448-1.442-.3-.383-.714-.574-1.246-.574-.3 0-.565.06-.798.182a1.79 1.79 0 0 0-.574.448c-.16.187-.285.4-.378.644a3.42 3.42 0 0 0-.168.742h3.612zm8.932-1.4c-.16-.13-.387-.257-.686-.378s-.625-.182-.98-.182c-.373 0-.695.07-.966.2-.26.13-.476.317-.644.56a2.28 2.28 0 0 0-.364.84 4.69 4.69 0 0 0-.112 1.05c0 .85.2 1.507.63 1.974.42.457.98.686 1.68.686l.882-.042.56-.112v-4.606zm0-4.9 1.302-.224V908.8a12.65 12.65 0 0 1-1.148.252 9.127 9.127 0 0 1-1.6.126c-.56 0-1.064-.09-1.512-.266s-.83-.43-1.148-.756-.565-.723-.742-1.2a4.772 4.772 0 0 1-.252-1.596c0-.56.07-1.073.2-1.54.15-.467.364-.868.644-1.204a2.92 2.92 0 0 1 1.022-.784 3.34 3.34 0 0 1 1.4-.28c.42 0 .79.056 1.106.168.327.112.57.22.728.322v-3.682zm13.036 10.85c-.68 0-1.302-.112-1.862-.336a3.97 3.97 0 0 1-1.442-.98c-.4-.43-.714-.957-.938-1.582-.214-.635-.322-1.358-.322-2.17s.122-1.53.364-2.156c.252-.635.588-1.167 1.008-1.596a4.24 4.24 0 0 1 1.47-.98 4.782 4.782 0 0 1 1.792-.336c.402 0 .76.028 1.078.084.327.056.607.12.84.196.243.075.44.15.588.224l.308.168-.392 1.12a2.133 2.133 0 0 0-.364-.182l-.546-.196a4.01 4.01 0 0 0-.658-.154 3.6 3.6 0 0 0-.714-.07c-.513 0-.975.09-1.386.266s-.76.434-1.05.77-.513.747-.672 1.232a5.329 5.329 0 0 0-.224 1.6c0 .58.066 1.106.196 1.582.14.476.346.887.616 1.232a2.79 2.79 0 0 0 1.008.784c.41.187.887.28 1.428.28.626 0 1.144-.065 1.554-.196a6.8 6.8 0 0 0 .924-.35l.35 1.12a2.202 2.202 0 0 1-.35.182 5.77 5.77 0 0 1-.63.196c-.252.065-.546.12-.882.168s-.7.07-1.092.07zm7.9-1.148.812-.014c.243-.02.443-.047.602-.084v-2.17c-.093-.047-.247-.084-.462-.112a4.342 4.342 0 0 0-.756-.056c-.196 0-.406.014-.63.042a1.89 1.89 0 0 0-.602.182 1.205 1.205 0 0 0-.448.364c-.12.15-.182.35-.182.602 0 .467.15.793.448.98.3.177.705.266 1.218.266zm-.112-6.524c.523 0 .96.07 1.316.2.364.13.653.322.868.574.224.243.383.537.476.882.093.336.14.71.14 1.12v4.55l-.476.084-.672.084-.826.07-.868.042a4.79 4.79 0 0 1-1.134-.126 2.623 2.623 0 0 1-.896-.392c-.252-.187-.448-.43-.588-.728s-.2-.658-.2-1.078c0-.4.08-.747.238-1.036a2.01 2.01 0 0 1 .672-.7 3.09 3.09 0 0 1 .98-.392 5.34 5.34 0 0 1 1.176-.126c.13 0 .266.01.406.028.14.01.27.028.392.056l.336.056.196.042v-.364a2.81 2.81 0 0 0-.07-.63c-.047-.215-.13-.4-.252-.56-.12-.168-.29-.3-.504-.392-.205-.103-.476-.154-.812-.154-.43 0-.807.033-1.134.098a3.71 3.71 0 0 0-.714.182l-.154-1.078c.168-.075.448-.145.84-.2a6.788 6.788 0 0 1 1.274-.112zm9.127 7.63c-.588 0-1.106-.093-1.554-.28a3.187 3.187 0 0 1-1.12-.784 3.31 3.31 0 0 1-.672-1.19c-.15-.467-.224-.98-.224-1.54s.08-1.073.238-1.54a3.64 3.64 0 0 1 .7-1.204c.298-.345.662-.61 1.092-.798a3.527 3.527 0 0 1 1.456-.294 5.8 5.8 0 0 1 .98.084c.326.056.64.145.938.266l-.294 1.106a3.138 3.138 0 0 0-.686-.224 3.74 3.74 0 0 0-.812-.084c-.728 0-1.288.23-1.68.686-.383.457-.574 1.125-.574 2.002 0 .392.042.75.126 1.078.093.327.233.607.42.84a2 2 0 0 0 .742.546c.298.12.662.182 1.092.182.345 0 .658-.033.938-.098s.5-.135.658-.2l.182 1.092a1.565 1.565 0 0 1-.322.14c-.14.037-.3.07-.476.098-.178.037-.37.065-.574.084a4.064 4.064 0 0 1-.574.042zm5.56-7.448h2.758v1.092h-2.758v3.36c0 .364.028.667.084.9.056.233.14.42.252.56.112.13.252.224.42.28a1.86 1.86 0 0 0 .588.084c.392 0 .705-.042.938-.126l.504-.196.252 1.078a4.47 4.47 0 0 1-.686.238c-.326.103-.7.154-1.12.154-.494 0-.905-.06-1.232-.182a1.838 1.838 0 0 1-.77-.574 2.34 2.34 0 0 1-.42-.924 6.67 6.67 0 0 1-.112-1.288V899.7l1.302-.224v2.254zm11.21 7.07-1.2.238c-.485.084-1.05.126-1.694.126-.56 0-1.03-.08-1.414-.238-.382-.168-.7-.4-.924-.7a2.83 2.83 0 0 1-.504-1.05 5.63 5.63 0 0 1-.154-1.358v-4.088h1.302v3.808c0 .887.14 1.52.42 1.904s.752.574 1.414.574l.434-.014.42-.028.35-.042a1.27 1.27 0 0 0 .238-.056v-6.146h1.302v7.07zm4.937-.728c.532 0 .924-.07 1.176-.2.262-.14.392-.364.392-.672a.89.89 0 0 0-.378-.756c-.252-.187-.667-.397-1.246-.63l-.812-.336a3.04 3.04 0 0 1-.658-.42c-.186-.16-.336-.35-.448-.574s-.168-.5-.168-.826c0-.644.238-1.153.714-1.526.476-.383 1.125-.574 1.946-.574.206 0 .41.014.616.042.206.02.397.047.574.084.178.028.332.06.462.098l.322.098-.238 1.12c-.14-.075-.36-.15-.658-.224a4.018 4.018 0 0 0-1.078-.126c-.364 0-.68.075-.952.224a.706.706 0 0 0-.406.672.99.99 0 0 0 .084.42c.066.12.16.233.28.336.13.093.3.182.476.266l.672.266.924.392a2.59 2.59 0 0 1 .686.434 1.63 1.63 0 0 1 .448.616c.103.233.154.523.154.868 0 .672-.252 1.18-.756 1.526-.494.345-1.204.518-2.128.518-.644 0-1.148-.056-1.512-.168l-.742-.238.238-1.12.714.252c.327.112.76.168 1.302.168z" class="E"/><path d="M98 597a5 5 0 0 1 5-5h49a5 5 0 0 1 5 5v16a5 5 0 0 1-5 5h-49a5 5 0 0 1-5-5v-16z" class="C"/><use xlink:href="#H" class="B"/><path d="M268 715a5 5 0 0 1 5-5h27a5 5 0 0 1 5 5v16a5 5 0 0 1-5 5h-27a5 5 0 0 1-5-5v-16z" class="C"/><path d="m274.8 721.95.85-.17a7.35 7.35 0 0 1 1.22-.09c.413 0 .757.06 1.03.18a1.52 1.52 0 0 1 .65.49 1.82 1.82 0 0 1 .35.75 4.36 4.36 0 0 1 .1.97V727h-.93v-2.72c0-.32-.023-.593-.07-.82-.04-.227-.1-.4-.2-.55a.82.82 0 0 0-.4-.3 1.67 1.67 0 0 0-.62-.1l-.3.01-.3.03-.26.03-.16.03v4.4h-.93v-5.05zm6.452 2.46c0-.46.067-.86.2-1.2.134-.347.3-.633.53-.86a2.15 2.15 0 0 1 .76-.51 2.38 2.38 0 0 1 .88-.17c.7 0 1.237.22 1.6.66.374.433.56 1.097.56 2v.16c0 .06-.003.117-.01.17h-3.56c.04.54.197.95.47 1.23s.7.42 1.28.42c.327 0 .6-.027.82-.08.227-.06.397-.117.5-.17l.13.78c-.113.06-.313.123-.6.2-.28.067-.6.1-.96.1-.453 0-.846-.067-1.18-.2-.326-.14-.596-.33-.8-.57s-.373-.523-.48-.85a3.78 3.78 0 0 1-.15-1.09zm3.57-.5c.007-.42-.1-.763-.32-1.03-.213-.273-.5-.4-.9-.4-.213 0-.403.043-.57.13a1.3 1.3 0 0 0-.41.32 1.594 1.594 0 0 0-.27.46c-.06.173-.1.35-.12.53h2.58zm7.556 3.1-.6-1.64-.57-1.93-.57 1.93-.6 1.64h-.8a25.656 25.656 0 0 1-.9-2.35l-.83-2.85h1l.24 1.02.3 1.1.33 1.06.32.9.33-1 .32-1.06.28-1.05.24-.97h.77l.22.97.28 1.05.3 1.06.34 1 .3-.9.33-1.06.3-1.1.24-1.02h.96l-.83 2.85-.9 2.35h-.8z" class="B"/><path d="M411 597a5 5 0 0 1 5-5h49a5 5 0 0 1 5 5v16a5 5 0 0 1-5 5h-49a5 5 0 0 1-5-5v-16z" class="C"/><use xlink:href="#H" x="313" class="B"/><g class="C"><path d="m284.19 389.838-.001.02a3.25 3.25 0 0 0 1.796 3.09l.012.006c.4.202.746.535.958.95l.005.01a3.27 3.27 0 0 0 3.089 1.776l.02-.001c.47-.027.934.097 1.33.356a3.29 3.29 0 0 0 3.577 0c.396-.26.86-.383 1.33-.356l.02.001a3.26 3.26 0 0 0 3.09-1.778l.003-.006c.213-.415.55-.75.96-.95l.01-.005a3.253 3.253 0 0 0 1.796-3.09l-.001-.018a2.12 2.12 0 0 1 .35-1.285 3.27 3.27 0 0 0 0-3.605 2.124 2.124 0 0 1-.35-1.284l.001-.02a3.25 3.25 0 0 0-1.797-3.09l-.01-.006c-.4-.2-.745-.532-.957-.945l-.006-.013a3.27 3.27 0 0 0-3.09-1.775l-.02.001a2.2 2.2 0 0 1-1.329-.356h-.001a3.287 3.287 0 0 0-3.576 0 2.207 2.207 0 0 1-1.33.356l-.02-.002a3.27 3.27 0 0 0-3.089 1.776l-.005.008a2.136 2.136 0 0 1-.96.95l-.01.005a3.252 3.252 0 0 0-1.795 3.09l.001.018c.023.457-.1.91-.35 1.285a3.27 3.27 0 0 0 0 3.605 2.12 2.12 0 0 1 .35 1.285zm.544-4.255a3.27 3.27 0 0 0 .54-1.983l-.001-.02a2.132 2.132 0 0 1 1.186-2.02l.01-.004a3.24 3.24 0 0 0 1.447-1.435l.006-.01a2.19 2.19 0 0 1 2.07-1.179l.02.001c.693.04 1.38-.144 1.967-.526a2.225 2.225 0 0 1 2.42 0 3.255 3.255 0 0 0 1.966.526l.02-.001c.87-.047 1.68.416 2.07 1.177l.007.014c.32.625.827 1.128 1.446 1.433l.01.005a2.134 2.134 0 0 1 1.186 2.022v.02c-.037.704.153 1.4.54 1.982.47.704.468 1.632 0 2.335a3.27 3.27 0 0 0-.541 1.983l.001.02a2.136 2.136 0 0 1-1.186 2.022l-.008.004a3.24 3.24 0 0 0-1.449 1.437l-.004.008a2.199 2.199 0 0 1-2.07 1.18h-.02a3.259 3.259 0 0 0-1.967.527c-.74.477-1.68.477-2.42 0a3.263 3.263 0 0 0-1.783-.532l-.185.005H290a2.183 2.183 0 0 1-2.07-1.18l-.006-.01a3.23 3.23 0 0 0-1.445-1.432l-.01-.005a2.132 2.132 0 0 1-1.186-2.022l.001-.02a3.27 3.27 0 0 0-.541-1.982 2.115 2.115 0 0 1 .001-2.335v-.001z"/><use xlink:href="#I"/><use xlink:href="#J"/><use xlink:href="#K"/><path d="m597.19 389.838-.001.02a3.25 3.25 0 0 0 1.796 3.09l.012.006c.4.202.746.535.958.95l.005.01a3.27 3.27 0 0 0 3.089 1.776l.02-.001c.47-.027.934.097 1.33.356a3.29 3.29 0 0 0 3.577 0c.396-.26.86-.383 1.33-.356l.02.001a3.26 3.26 0 0 0 3.09-1.778l.003-.006c.213-.415.55-.75.96-.95l.01-.005a3.253 3.253 0 0 0 1.796-3.09l-.001-.018a2.12 2.12 0 0 1 .35-1.285 3.27 3.27 0 0 0 0-3.605 2.124 2.124 0 0 1-.35-1.284l.001-.02a3.25 3.25 0 0 0-1.797-3.09l-.01-.006c-.4-.2-.745-.532-.957-.945l-.006-.013a3.27 3.27 0 0 0-3.09-1.775l-.02.001a2.2 2.2 0 0 1-1.329-.356h-.001a3.287 3.287 0 0 0-3.576 0 2.207 2.207 0 0 1-1.33.356l-.02-.002a3.27 3.27 0 0 0-3.089 1.776l-.005.008a2.136 2.136 0 0 1-.96.95l-.01.005a3.252 3.252 0 0 0-1.795 3.09l.001.018c.023.457-.1.91-.35 1.285a3.27 3.27 0 0 0 0 3.605 2.12 2.12 0 0 1 .35 1.285zm.544-4.255a3.27 3.27 0 0 0 .54-1.983l-.001-.02a2.132 2.132 0 0 1 1.186-2.02l.01-.004a3.24 3.24 0 0 0 1.447-1.435l.006-.01a2.19 2.19 0 0 1 2.07-1.179l.02.001c.693.04 1.38-.144 1.967-.526a2.225 2.225 0 0 1 2.42 0 3.255 3.255 0 0 0 1.966.526l.02-.001c.87-.047 1.68.416 2.07 1.177l.007.014c.32.625.827 1.128 1.446 1.433l.01.005a2.134 2.134 0 0 1 1.186 2.022v.02c-.037.704.153 1.4.54 1.982.47.704.468 1.632 0 2.335a3.27 3.27 0 0 0-.541 1.983l.001.02a2.136 2.136 0 0 1-1.186 2.022l-.008.004a3.24 3.24 0 0 0-1.449 1.437l-.004.008a2.199 2.199 0 0 1-2.07 1.18h-.02a3.259 3.259 0 0 0-1.967.527c-.74.477-1.68.477-2.42 0a3.263 3.263 0 0 0-1.783-.532l-.185.005H603a2.183 2.183 0 0 1-2.07-1.18l-.006-.01a3.23 3.23 0 0 0-1.445-1.432l-.01-.005a2.132 2.132 0 0 1-1.186-2.022l.001-.02a3.27 3.27 0 0 0-.541-1.982 2.115 2.115 0 0 1 .001-2.335v-.001z"/><use xlink:href="#I" x="313"/><use xlink:href="#J" x="313"/><use xlink:href="#K" x="313"/></g><use xlink:href="#L" class="I"/><path d="M171.5 604H230" stroke="#ef4351"/><use xlink:href="#L" x="313" class="I"/><path d="M484.5 604H543" stroke="#ef4351"/><g class="I"><use xlink:href="#L" x="237.5" y="354"/><use xlink:href="#L" x="-75.5" y="354"/></g><path d="M524.635 390.626c-7.68-6.617-19.117-5.57-25.543 2.342-2.73 3.36-4.223 7.596-4.225 11.975v65.362h36.267v-65.362c.002-5.528-2.378-10.773-6.5-14.317z" class="D"/><path d="M531.134 470.305h-54.4v30.347c0 7.736 6.09 14.007 13.6 14.007h45.334c7.51 0 13.6-6.27 13.6-14.007v-30.347h-18.134z" class="J"/><path d="M549.267 467.97H533.4v-16.34h6.8v-4.67h-6.8v-14.006h6.8v-4.67h-6.8V414.28h6.8v-4.67h-6.8v-4.668c0-5.335-1.98-10.463-5.535-14.343l4.368-4.498-3.205-3.3-4.606 4.743a19.94 19.94 0 0 0-9.155-3.473v-7.14h-4.534v7.14a19.928 19.928 0 0 0-9.155 3.473l-4.606-4.743-3.205 3.3 4.368 4.498c-3.554 3.88-5.535 9.008-5.535 14.343v4.668h-6.8v4.67h6.8v14.006h-6.8v4.67h6.8v14.006h-6.8v4.67h6.8v16.34h-15.867c-1.25 0-2.266 1.046-2.266 2.335v30.346c.01 9.02 7.108 16.33 15.866 16.34h45.334c8.758-.01 15.857-7.32 15.866-16.34v-30.346c0-1.3-1.015-2.335-2.266-2.335zm-52.134-63.027c0-9.025 7.104-16.34 15.867-16.34s15.867 7.316 15.867 16.34v63.027h-4.534v-51.356H519.8v51.356h-4.533v-67.696h-4.534v67.696H506.2v-39.684h-4.533v39.684h-4.534v-63.027zm49.867 95.7c-.007 6.442-5.077 11.664-11.333 11.672h-45.334c-6.256-.008-11.326-5.23-11.333-11.672V472.64h68v28.013zm-6.8-.001h-4.533v4.67h4.533v-4.67zm0-9.337h-4.533v4.67h4.533v-4.67zm-9.067 9.337H526.6v4.67h4.533v-4.67z" fill="#231f20"/><path d="M539.725 777.017c-9.118-9.41-23.92-9.427-33.057-.036-.01.012-.023.024-.035.036l-4.134 4.257-4.134-4.257c-9.063-9.487-23.88-9.612-33.09-.277s-9.333 24.593-.27 34.08l23.845 24.557h27.3l23.565-24.27c9.138-9.39 9.154-24.633.036-34.044l-.036-.036.01-.01z" class="D"/><path d="M539.55 843.41h-74.1v36.148h74.1V843.41z" class="J"/><path d="M543.45 843.41v-8.033h-81.9v8.033h81.9z" class="C"/><path d="M555.15 795.2v-4.016h-6.77c-.544-5.22-2.625-10.144-5.963-14.112l4.204-4.332-2.757-2.844-4.208 4.338c-3.87-3.444-8.67-5.6-13.757-6.145v-7.03H522V768c-6.3.277-12.288 3-16.745 7.597l-.805.83v-7.322h-3.9v7.322l-.805-.83C495.287 771 489.3 768.277 483 768v-6.93h-3.9v7.03c-5.088.556-9.887 2.7-13.758 6.145l-4.208-4.338-2.757 2.844 4.204 4.332c-3.336 3.968-5.417 8.892-5.963 14.112h-6.768v4.016h6.665a26.341 26.341 0 0 0 4.85 14.225L457 813.932l2.758 2.84 4.134-4.26 9.648 9.937-4.138 4.262 2.763 2.84 4.138-4.26 7.84 8.077H461.55c-1.077 0-1.95.9-1.95 2.008v8.033c0 1.108.873 2.008 1.95 2.008h1.95v34.14c0 1.1.873 2.008 1.95 2.008h74.1c1.076 0 1.95-.9 1.95-2.008v-34.14h1.95c1.077 0 1.95-.9 1.95-2.008v-8.033c0-1.108-.873-2.008-1.95-2.008h-22.592l7.84-8.075 4.138 4.26 2.757-2.84-4.138-4.262 9.655-9.935 4.136 4.26 2.757-2.84-4.358-4.5c2.95-4.14 4.635-9.094 4.84-14.225h6.666zm-17.55 82.34h-70.2v-32.132h70.2v32.132zm3.9-36.148h-78v-4.017h78v4.017zm-3.154-31.73-23.004 23.697h-25.685l-23-23.697c-8.432-8.57-8.52-22.557-.197-31.24s21.902-8.774 30.334-.203a9.89 9.89 0 0 1 .203.21l4.134 4.258a1.91 1.91 0 0 0 2.757 0l4.134-4.258c8.247-8.76 21.827-8.977 30.33-.484s8.716 22.478.47 31.236l-.467.483zM484.95 797.22v-4.016h3.9v-4.017h-3.9v-4.016h-3.9v4.016h-3.9v4.017h3.9v4.016h3.9zm5.85 8.032h-3.9v4.017H483v4.017h3.9v4.016h3.9v-4.016h3.9v-4.017h-3.9v-4.017zm33.15-20.082h-3.9v4.016h-3.9v4.017h3.9v4.016h3.9v-4.016h3.9v-4.017h-3.9v-4.016zm-5.85 20.082h-3.9v4.017h-3.9v4.017h3.9v4.016h3.9v-4.016h3.9v-4.017h-3.9v-4.017zm15.6 64.264h-3.9v4.017h3.9v-4.017zm0-8.033h-3.9v4.017h3.9v-4.017zm-7.8 8.033H522v4.017h3.9v-4.017z" fill="#231f20"/><path d="M154.517 847.613h-4.742v5.034h94.516v-5.034h-89.774z" class="C"/><path d="M149.775 852.648v1.678c0 11.122 8.756 20.14 19.555 20.14h55.406c10.8 0 19.555-9.017 19.555-20.14v-1.678h-94.516z" class="J"/><g class="D"><path d="m196.887 777.126-11.625 41.9.088.213-4.465 16.06-.108-.137-.04.137v.017l-3.406 12.285h19.555l10.136-33.934-10.136-36.553zm19.7 5.034-19.555 65.452h17.926l1-2.215 11.814-25.762-11.195-37.475z"/><path d="m227.783 819.636-11.814 25.76.62 2.215h22.814l3.26-60.417-14.878 32.44z"/></g><path d="M214.96 847.612h1.63l-.62-2.215-1 2.215z" fill="#fff3c1"/><path d="m174.22 792.23-7.4 25.123 13.956 17.82 4.485-16.136-11.042-26.807z" class="D"/><path d="m185.35 819.25-.088-.214-.06.214-4.426 15.922.108.138 4.465-16.06z" fill="#fff3c1"/><path d="m166.674 817.354-17.045-21.767 4.89 52.026h22.814l3.406-12.285v-.017l-14.064-17.957z" class="D"/><path d="M244.3 845.935h-3.166L244.3 787.3c.044-.926-.647-1.713-1.546-1.76a1.625 1.625 0 0 0-1.55.948l-13.084 28.53-9.965-33.34c-.264-.886-1.175-1.385-2.035-1.113a1.66 1.66 0 0 0-1.081 1.113l-7.877 26.37-8.7-31.37c-.247-.9-1.148-1.407-2.014-1.153-.54.16-.964.596-1.12 1.153L184.957 814l-9.24-22.426a1.653 1.653 0 0 0-1.585-1.022c-.683.04-1.27.515-1.467 1.2l-6.55 22.224-14.773-18.866-.053-.135-.04.016-.352-.448a1.6 1.6 0 0 0-2.292-.25c-.425.354-.65.906-.598 1.467l4.716 50.184h-2.947c-.9 0-1.63.752-1.63 1.68v6.713c.013 12.043 9.5 21.803 21.184 21.817h55.406c11.694-.014 21.172-9.774 21.185-21.817v-6.713c0-.928-.73-1.678-1.63-1.678zm-26.476 0-.107-.387 19.36-42.224-7.393 30.457 3.16.812 7.248-29.854-2.222 41.196h-20.046zm-3.9 0H199.24l15.72-52.613v39.187h3.26v-39.186l7.822 26.18-12.116 26.43zm-18.52-57.353v38.892h3.26v-37.83l6.66 24.02-9.64 32.273h-16.2l15.912-57.353zm-22.275 13.134 1.1 19.144 3.26-.198-1.075-18.843 7.132 17.316-3.462 12.467-11.443-14.6 4.5-15.276zm-20.826 4.896 12.255 31.55 3.027-1.246-12.122-31.208 23.482 29.988-2.842 10.238h-20.106l-3.694-39.323zm90.36 42.68v1.68h-91.257v-1.68h91.257zm-17.926 23.495H169.33c-9.894-.01-17.913-8.27-17.925-18.46h91.257c-.013 10.2-8.03 18.447-17.926 18.46zm11.407-10.06h-3.26v3.356h3.26v-3.356zm0-5.036h-3.26v3.356h3.26V857.7zm-4.89 0h-3.26v3.356h3.26V857.7z" fill="#263135"/><g class="B"><path d="M63 109a5 5 0 0 1 5-5h588a5 5 0 0 1 5 5v30a5 5 0 0 1-5 5H68a5 5 0 0 1-5-5v-30z"/><path d="m639.646 136.103-5.063-4.21c-.228-.2-.538-.296-.863-.296h-.828c1.402-1.49 2.235-3.366 2.235-5.406 0-4.853-4.73-8.785-10.564-8.785S614 121.337 614 126.2s4.728 8.785 10.563 8.785c2.453 0 4.708-.693 6.5-1.858v.688c0 .27.127.528.355.718l5.064 4.21c.477.397 1.25.397 1.72 0l1.437-1.195c.478-.397.478-1.04.005-1.436zm-15.083-4.507c-3.6 0-6.5-2.416-6.5-5.406s2.905-5.406 6.5-5.406 6.5 2.416 6.5 5.406-2.905 5.406-6.5 5.406z"/></g><path d="M79.972 129H78.67v-6.188h-3.248V129H74.12v-7.28h5.852V129zm8.296-3.626c0-.85-.2-1.503-.63-1.96s-.98-.686-1.68-.686l-.924.042a3.74 3.74 0 0 0-.518.098v4.592c.16.13.387.257.686.378s.625.182.98.182c.373 0 .69-.065.952-.196.27-.14.5-.327.658-.56a2.45 2.45 0 0 0 .364-.84 4.69 4.69 0 0 0 .112-1.05zm1.358 0c0 .55-.075 1.06-.224 1.526-.14.467-.35.868-.63 1.204s-.625.597-1.036.784c-.4.187-.863.28-1.386.28-.42 0-.793-.056-1.12-.168a3.6 3.6 0 0 1-.714-.322v2.912h-1.302v-9.646l1.148-.238a8.263 8.263 0 0 1 1.6-.14c.56 0 1.064.09 1.512.266a3.23 3.23 0 0 1 1.148.756c.317.327.56.728.728 1.204a4.43 4.43 0 0 1 .266 1.582zm2.426 0c0-.644.093-1.204.28-1.68.187-.485.434-.887.742-1.204a3.02 3.02 0 0 1 1.064-.714c.4-.16.812-.238 1.232-.238.98 0 1.73.308 2.254.924.523.607.784 1.535.784 2.786v.224a1.93 1.93 0 0 1-.014.238H93.4c.056.756.275 1.33.658 1.722s.98.588 1.792.588a4.95 4.95 0 0 0 1.148-.112 4.46 4.46 0 0 0 .714-.238l.182 1.092c-.16.084-.44.173-.84.266-.392.093-.84.14-1.344.14-.635 0-1.185-.093-1.652-.28-.457-.196-.835-.462-1.134-.798s-.523-.733-.672-1.2a5.29 5.29 0 0 1-.21-1.526zm4.998-.714c.01-.588-.14-1.07-.448-1.442-.3-.383-.714-.574-1.246-.574-.3 0-.565.06-.798.182a1.8 1.8 0 0 0-.574.448 2.21 2.21 0 0 0-.378.644 3.42 3.42 0 0 0-.168.742h3.612zm5.404-2.1c.3-.233.626-.41 1.008-.532.392-.13.766-.196 1.12-.196 1.046 0 1.834.322 2.366.966.542.635.812 1.52.812 2.66 0 .485-.065.952-.196 1.4s-.336.845-.616 1.2a2.92 2.92 0 0 1-1.036.826c-.42.205-.92.308-1.498.308-.662 0-1.213-.12-1.652-.364a2.84 2.84 0 0 1-1.05-.994c-.252-.42-.43-.9-.532-1.47s-.154-1.153-.154-1.778c0-.812.056-1.568.168-2.268.122-.7.336-1.316.644-1.848s.733-.97 1.274-1.316c.55-.355 1.256-.593 2.114-.714l.658-.084.9-.126.378-.084.14 1.176a1.3 1.3 0 0 1-.21.042l-.294.042-.504.07-.812.098c-.924.103-1.633.383-2.128.84s-.798 1.176-.9 2.156zm-.084 2.226a8.81 8.81 0 0 0 .084 1.246c.066.392.173.737.322 1.036a1.95 1.95 0 0 0 .63.714c.262.168.598.252 1.008.252.355 0 .658-.065.9-.196.252-.14.458-.327.616-.56s.276-.504.35-.812c.075-.317.112-.653.112-1.008 0-.317-.032-.625-.098-.924-.056-.3-.163-.565-.322-.798s-.373-.42-.644-.56c-.26-.14-.592-.2-.994-.2-.392 0-.77.084-1.134.252-.354.168-.63.373-.826.616a5.26 5.26 0 0 0-.014.434v.518zm10.698 3.276.812-.014a4.27 4.27 0 0 0 .602-.084v-2.17c-.093-.047-.247-.084-.462-.112a4.342 4.342 0 0 0-.756-.056c-.196 0-.406.014-.63.042-.214.028-.415.09-.602.182a1.213 1.213 0 0 0-.448.364c-.12.15-.182.35-.182.602 0 .467.15.793.448.98.3.177.705.266 1.218.266zm-.112-6.524c.523 0 .962.07 1.316.2.364.13.654.322.868.574.224.243.383.537.476.882.094.336.14.71.14 1.12v4.55l-.476.084-.672.084-.826.07-.868.042c-.4 0-.788-.042-1.134-.126s-.644-.215-.896-.392c-.252-.187-.448-.43-.588-.728s-.2-.658-.2-1.078c0-.4.08-.747.238-1.036a2.01 2.01 0 0 1 .672-.7 3.09 3.09 0 0 1 .98-.392 5.353 5.353 0 0 1 1.176-.126c.13 0 .266.01.406.028.14.01.27.028.392.056l.336.056.196.042v-.364a2.81 2.81 0 0 0-.07-.63 1.38 1.38 0 0 0-.252-.56c-.12-.168-.29-.3-.504-.392-.205-.103-.476-.154-.812-.154-.43 0-.807.033-1.134.098a3.71 3.71 0 0 0-.714.182l-.154-1.078c.168-.075.448-.145.84-.2a6.788 6.788 0 0 1 1.274-.112zm11.017 3.836c0-.85-.2-1.503-.63-1.96s-.98-.686-1.68-.686l-.924.042c-.215.028-.388.06-.518.098v4.592c.158.13.387.257.686.378s.625.182.98.182c.373 0 .7-.065.952-.196.27-.14.5-.327.658-.56.168-.243.29-.523.364-.84a4.75 4.75 0 0 0 .112-1.05zm1.358 0c0 .55-.075 1.06-.224 1.526-.14.467-.35.868-.63 1.204a2.89 2.89 0 0 1-1.036.784c-.402.187-.864.28-1.386.28-.42 0-.794-.056-1.12-.168a3.546 3.546 0 0 1-.714-.322v2.912h-1.302v-9.646l1.148-.238a8.29 8.29 0 0 1 1.61-.14c.56 0 1.064.09 1.512.266s.83.43 1.148.756.56.728.728 1.204c.177.467.266.994.266 1.582zm5.296 2.688.812-.014c.243-.02.443-.047.602-.084v-2.17c-.093-.047-.247-.084-.462-.112a4.342 4.342 0 0 0-.756-.056c-.196 0-.406.014-.63.042a1.89 1.89 0 0 0-.602.182 1.205 1.205 0 0 0-.448.364c-.12.15-.182.35-.182.602 0 .467.15.793.448.98.3.177.705.266 1.218.266zm-.112-6.524c.523 0 .96.07 1.316.2.364.13.653.322.868.574.224.243.383.537.476.882.093.336.14.71.14 1.12v4.55l-.476.084-.672.084-.826.07-.868.042a4.79 4.79 0 0 1-1.134-.126 2.623 2.623 0 0 1-.896-.392c-.252-.187-.448-.43-.588-.728s-.2-.658-.2-1.078c0-.4.08-.747.238-1.036a2.01 2.01 0 0 1 .672-.7 3.09 3.09 0 0 1 .98-.392 5.34 5.34 0 0 1 1.176-.126c.13 0 .266.01.406.028.14.01.27.028.392.056l.336.056.196.042v-.364a2.81 2.81 0 0 0-.07-.63c-.047-.215-.13-.4-.252-.56-.12-.168-.29-.3-.504-.392-.205-.103-.476-.154-.812-.154-.43 0-.807.033-1.134.098a3.71 3.71 0 0 0-.714.182l-.154-1.078c.168-.075.448-.145.84-.2a6.788 6.788 0 0 1 1.274-.112zm4.772 10.08a2.91 2.91 0 0 1-.434-.042 2.23 2.23 0 0 1-.448-.112l.168-1.064c.094.028.2.05.322.07a2.19 2.19 0 0 0 .336.028c.448 0 .766-.14.952-.42.196-.27.294-.672.294-1.204v-7.154h1.302v7.14c0 .933-.214 1.624-.644 2.072-.42.457-1.036.686-1.848.686zm1.834-11.214a.878.878 0 0 1-.602-.224c-.158-.16-.238-.37-.238-.63s.08-.467.238-.616c.168-.16.37-.238.602-.238s.43.08.588.238c.168.15.252.355.252.616s-.084.47-.252.63a.82.82 0 0 1-.588.224zm9.035 1.316v1.092H143.8V129h-1.302v-6.188h-2.366v-1.092h6.034zm1.937 3.654c0-.644.093-1.204.28-1.68.187-.485.434-.887.742-1.204s.663-.555 1.064-.714.812-.238 1.232-.238c.98 0 1.73.308 2.254.924.523.607.784 1.535.784 2.786v.224a1.99 1.99 0 0 1-.014.238h-4.984c.056.756.275 1.33.658 1.722s.98.588 1.792.588c.457 0 .84-.037 1.148-.112a4.46 4.46 0 0 0 .714-.238l.182 1.092c-.16.084-.44.173-.84.266-.392.093-.84.14-1.344.14-.635 0-1.185-.093-1.652-.28a3.156 3.156 0 0 1-1.134-.798 3.31 3.31 0 0 1-.672-1.19 5.29 5.29 0 0 1-.21-1.526zm4.998-.714c.01-.588-.14-1.07-.448-1.442-.3-.383-.714-.574-1.246-.574-.3 0-.565.06-.798.182a1.8 1.8 0 0 0-.574.448c-.16.187-.285.4-.378.644a3.42 3.42 0 0 0-.168.742h3.612zm11.128.378a8.8 8.8 0 0 1 .938.784 12.52 12.52 0 0 1 .98 1.008l.9 1.12.714 1.05h-1.54a8.953 8.953 0 0 0-.728-.966l-.854-.966-.9-.854a8.85 8.85 0 0 0-.868-.658V129h-1.302v-7.28h1.302v3.122l.77-.742.868-.868.826-.84.616-.672h1.512l-.728.77-.854.868-.868.896-.784.784zm8.324 3.024.812-.014c.243-.02.443-.047.602-.084v-2.17c-.093-.047-.247-.084-.462-.112a4.342 4.342 0 0 0-.756-.056c-.196 0-.406.014-.63.042a1.89 1.89 0 0 0-.602.182 1.205 1.205 0 0 0-.448.364c-.12.15-.182.35-.182.602 0 .467.15.793.448.98.3.177.705.266 1.218.266zm-.112-6.524c.523 0 .96.07 1.316.2.364.13.653.322.868.574.224.243.383.537.476.882.093.336.14.71.14 1.12v4.55l-.476.084-.672.084-.826.07-.868.042a4.79 4.79 0 0 1-1.134-.126 2.623 2.623 0 0 1-.896-.392c-.252-.187-.448-.43-.588-.728s-.2-.658-.2-1.078c0-.4.08-.747.238-1.036a2.01 2.01 0 0 1 .672-.7 3.09 3.09 0 0 1 .98-.392 5.34 5.34 0 0 1 1.176-.126c.13 0 .266.01.406.028.14.01.27.028.392.056l.336.056.196.042v-.364a2.81 2.81 0 0 0-.07-.63c-.047-.215-.13-.4-.252-.56-.12-.168-.29-.3-.504-.392-.205-.103-.476-.154-.812-.154-.43 0-.807.033-1.134.098a3.71 3.71 0 0 0-.714.182l-.154-1.078c.168-.075.448-.145.84-.2a6.788 6.788 0 0 1 1.274-.112zm8.622 3.5a8.8 8.8 0 0 1 .938.784 12.52 12.52 0 0 1 .98 1.008l.9 1.12.714 1.05h-1.54a8.953 8.953 0 0 0-.728-.966l-.854-.966-.9-.854a8.85 8.85 0 0 0-.868-.658V129h-1.302v-7.28h1.302v3.122l.77-.742.868-.868.826-.84.616-.672h1.512l-.728.77-.854.868-.868.896-.784.784zm10.998-3.318v1.092h-2.366V129h-1.302v-6.188h-2.366v-1.092h6.034zm1.803 8.638c.103.047.233.09.392.126a1.81 1.81 0 0 0 .49.07c.513 0 .915-.117 1.204-.35.29-.224.55-.593.784-1.106l-1.652-3.556a32.103 32.103 0 0 1-1.26-3.822h1.4l.364 1.358.5 1.498.574 1.54.644 1.484.924-2.912.742-2.968h1.344l-1.12 3.962-1.33 3.542c-.187.42-.383.78-.588 1.078-.196.308-.415.56-.658.756s-.518.34-.826.434c-.3.093-.64.14-1.022.14a1.92 1.92 0 0 1-.322-.028 2.182 2.182 0 0 1-.336-.056 2.75 2.75 0 0 1-.294-.07l-.182-.07.238-1.05zm11.813-1.2c-.588 0-1.106-.093-1.554-.28a3.187 3.187 0 0 1-1.12-.784 3.31 3.31 0 0 1-.672-1.19c-.15-.467-.224-.98-.224-1.54s.08-1.073.238-1.54a3.64 3.64 0 0 1 .7-1.204c.298-.345.662-.61 1.092-.798a3.527 3.527 0 0 1 1.456-.294 5.8 5.8 0 0 1 .98.084c.326.056.64.145.938.266l-.294 1.106a3.138 3.138 0 0 0-.686-.224 3.74 3.74 0 0 0-.812-.084c-.728 0-1.288.23-1.68.686-.383.457-.574 1.125-.574 2.002 0 .392.042.75.126 1.078.093.327.233.607.42.84a2 2 0 0 0 .742.546c.298.12.662.182 1.092.182.345 0 .658-.033.938-.098s.5-.135.658-.2l.182 1.092a1.565 1.565 0 0 1-.322.14c-.14.037-.3.07-.476.098-.178.037-.37.065-.574.084a4.064 4.064 0 0 1-.574.042z" class="E"/><path d="M295.32 57.8c1.557 0 2.752.3 3.584.896.843.587 1.264 1.467 1.264 2.64 0 .64-.117 1.19-.352 1.648a2.816 2.816 0 0 1-.992 1.104c-.427.277-.95.48-1.568.608s-1.317.192-2.096.192h-1.232V69h-1.552V58.072a8.24 8.24 0 0 1 1.456-.208l1.488-.064zm.128 1.36-1.52.048v4.352h1.168c.533 0 1.013-.032 1.44-.096.427-.075.784-.192 1.072-.352.3-.17.528-.4.688-.688s.24-.656.24-1.104c0-.427-.085-.78-.256-1.056a1.73 1.73 0 0 0-.672-.656 2.72 2.72 0 0 0-.976-.352 7 7 0 0 0-1.184-.096zm10.638 1.344c.128 0 .272.01.432.032.17.01.336.032.496.064a3.93 3.93 0 0 1 .432.08 2.02 2.02 0 0 1 .304.064l-.256 1.296a4.354 4.354 0 0 0-.592-.144c-.266-.064-.613-.096-1.04-.096-.277 0-.554.032-.832.096l-.528.112V69h-1.488v-7.968c.352-.128.8-.245 1.312-.352a8.02 8.02 0 0 1 1.76-.176zm11.444 4.336c0 .66-.096 1.26-.288 1.792s-.464.992-.816 1.376a3.56 3.56 0 0 1-1.232.896 3.982 3.982 0 0 1-1.568.304 3.99 3.99 0 0 1-1.568-.304 3.73 3.73 0 0 1-1.248-.896c-.34-.384-.608-.843-.8-1.376s-.288-1.13-.288-1.792c0-.65.096-1.243.288-1.776.192-.544.46-1.008.8-1.392a3.548 3.548 0 0 1 1.248-.88c.48-.213 1.003-.32 1.568-.32s1.088.107 1.568.32a3.39 3.39 0 0 1 1.232.88c.352.384.624.848.816 1.392a5.21 5.21 0 0 1 .288 1.776zm-1.552 0c0-.94-.213-1.68-.64-2.224-.416-.555-.986-.832-1.712-.832s-1.3.277-1.728.832c-.416.544-.624 1.285-.624 2.224s.208 1.685.624 2.24c.427.544 1.003.816 1.728.816s1.296-.272 1.712-.816c.427-.555.64-1.3.64-2.24zM326 62.44c-.182-.15-.443-.293-.784-.432a2.95 2.95 0 0 0-1.12-.208c-.427 0-.795.08-1.104.24a1.93 1.93 0 0 0-.736.64c-.192.267-.33.587-.416.96s-.128.773-.128 1.2c0 .97.24 1.723.72 2.256.48.523 1.12.784 1.92.784l1.008-.048.64-.128V62.44zm0-5.6 1.488-.256V68.76c-.342.096-.78.192-1.312.288s-1.147.144-1.84.144c-.64 0-1.216-.1-1.728-.304s-.95-.49-1.312-.864-.646-.827-.848-1.36a5.454 5.454 0 0 1-.288-1.824c0-.64.08-1.227.24-1.76a4.04 4.04 0 0 1 .736-1.376 3.33 3.33 0 0 1 1.168-.896c.47-.213 1.002-.32 1.6-.32.48 0 .9.064 1.264.192.373.128.65.25.832.368V56.84zm11.67 11.92-1.36.272c-.555.096-1.2.144-1.936.144-.64 0-1.18-.09-1.616-.272-.438-.192-.8-.46-1.056-.8s-.46-.74-.576-1.2a6.37 6.37 0 0 1-.176-1.552V60.68h1.488v4.352c0 1.013.16 1.74.48 2.176s.858.656 1.616.656l.496-.016.48-.032.4-.048a1.48 1.48 0 0 0 .272-.064V60.68h1.488v8.08zm7.18.432c-.672 0-1.264-.107-1.776-.32a3.659 3.659 0 0 1-1.28-.896 3.8 3.8 0 0 1-.768-1.36 5.74 5.74 0 0 1-.256-1.76c0-.64.09-1.227.272-1.76.192-.533.46-.992.8-1.376.34-.395.757-.7 1.248-.912a4.03 4.03 0 0 1 1.664-.336c.373 0 .747.032 1.12.096a5.15 5.15 0 0 1 1.072.304l-.336 1.264a3.536 3.536 0 0 0-.784-.256 4.27 4.27 0 0 0-.928-.096c-.832 0-1.472.26-1.92.784-.437.523-.656 1.285-.656 2.288 0 .448.048.86.144 1.232.107.373.267.693.48.96.224.267.507.475.848.624.34.14.757.208 1.248.208.395 0 .752-.037 1.072-.112s.57-.155.752-.24l.208 1.248a1.77 1.77 0 0 1-.368.16c-.16.043-.34.08-.544.112-.203.043-.42.075-.656.096a4.64 4.64 0 0 1-.656.048zm6.214-8.512h3.152v1.248h-3.152v3.84c0 .416.032.763.096 1.04.064.267.16.48.288.64a1.06 1.06 0 0 0 .48.32c.192.064.416.096.672.096.448 0 .805-.048 1.072-.144l.576-.224.288 1.232c-.15.075-.41.165-.784.272-.374.117-.8.176-1.28.176-.566 0-1.035-.07-1.408-.208-.363-.15-.656-.368-.88-.656s-.384-.64-.48-1.056a7.51 7.51 0 0 1-.128-1.472V58.36l1.488-.256v2.576zm7.98 7.248c.608 0 1.056-.08 1.344-.24.3-.16.448-.416.448-.768a1.02 1.02 0 0 0-.432-.864c-.288-.213-.763-.453-1.424-.72l-.928-.384a3.49 3.49 0 0 1-.752-.48c-.213-.18-.384-.4-.512-.656s-.192-.57-.192-.944c0-.736.272-1.317.816-1.744.544-.437 1.285-.656 2.224-.656.235 0 .47.016.704.048.235.02.453.053.656.096.203.032.38.07.528.112l.368.112-.272 1.28c-.16-.085-.41-.17-.752-.256-.34-.096-.752-.144-1.232-.144-.416 0-.78.085-1.088.256-.31.16-.464.416-.464.768 0 .18.032.34.096.48.075.14.18.267.32.384.15.107.33.208.544.304l.768.304 1.056.448a2.99 2.99 0 0 1 .784.496c.224.192.395.427.512.704.117.267.176.597.176.992 0 .768-.288 1.35-.864 1.744-.565.395-1.376.592-2.432.592-.736 0-1.312-.064-1.728-.192l-.848-.272.272-1.28.816.288c.373.128.87.192 1.488.192z" class="C"/><path d="m419.784 69-.512-1.408-.496-1.424h-5.024L412.744 69h-1.616l1.2-3.248 1.088-2.848 1.072-2.56 1.104-2.432h1.424l1.104 2.432 1.056 2.56 1.104 2.848 1.2 3.248h-1.696zm-1.456-4.112-1.024-2.688-1.04-2.512-1.072 2.512-.992 2.688h4.128zm7.05-3.84c.182-.117.454-.24.816-.368.374-.128.8-.192 1.28-.192.598 0 1.126.107 1.584.32.47.213.864.512 1.184.896s.56.843.72 1.376a5.74 5.74 0 0 1 .256 1.76c0 .672-.1 1.28-.304 1.824-.192.533-.47.987-.832 1.36s-.8.66-1.312.864-1.088.304-1.728.304c-.693 0-1.306-.048-1.84-.144l-1.312-.288V56.84l1.488-.256v4.464zm0 6.656c.15.043.358.085.624.128a9.17 9.17 0 0 0 1.024.048c.8 0 1.44-.26 1.92-.784.48-.533.72-1.285.72-2.256 0-.427-.042-.827-.128-1.2s-.224-.693-.416-.96a1.9 1.9 0 0 0-.752-.64c-.298-.16-.66-.24-1.088-.24a2.95 2.95 0 0 0-1.12.208c-.34.14-.602.283-.784.432v5.264zm16.278-2.864c0 .66-.096 1.26-.288 1.792s-.464.992-.816 1.376a3.56 3.56 0 0 1-1.232.896 3.982 3.982 0 0 1-1.568.304 3.99 3.99 0 0 1-1.568-.304 3.73 3.73 0 0 1-1.248-.896c-.34-.384-.608-.843-.8-1.376s-.288-1.13-.288-1.792c0-.65.096-1.243.288-1.776.192-.544.46-1.008.8-1.392a3.548 3.548 0 0 1 1.248-.88c.48-.213 1.003-.32 1.568-.32s1.088.107 1.568.32a3.39 3.39 0 0 1 1.232.88c.352.384.624.848.816 1.392a5.21 5.21 0 0 1 .288 1.776zm-1.552 0c0-.94-.213-1.68-.64-2.224-.416-.555-.986-.832-1.712-.832s-1.3.277-1.728.832c-.416.544-.624 1.285-.624 2.224s.208 1.685.624 2.24c.427.544 1.003.816 1.728.816s1.296-.272 1.712-.816c.427-.555.64-1.3.64-2.24zm11.27 3.92-1.36.272c-.555.096-1.2.144-1.936.144-.64 0-1.18-.09-1.616-.272-.438-.192-.8-.46-1.056-.8s-.46-.74-.576-1.2a6.37 6.37 0 0 1-.176-1.552V60.68h1.488v4.352c0 1.013.16 1.74.48 2.176s.858.656 1.616.656l.496-.016.48-.032.4-.048a1.48 1.48 0 0 0 .272-.064V60.68h1.488v8.08zm4.955-8.08h3.152v1.248h-3.152v3.84c0 .416.032.763.096 1.04.064.267.16.48.288.64a1.06 1.06 0 0 0 .48.32c.192.064.416.096.672.096.448 0 .806-.048 1.072-.144l.576-.224.288 1.232c-.15.075-.4.165-.784.272-.373.117-.8.176-1.28.176-.565 0-1.034-.07-1.408-.208a2.11 2.11 0 0 1-.88-.656 2.674 2.674 0 0 1-.48-1.056 7.589 7.589 0 0 1-.128-1.472V58.36l1.488-.256v2.576zm17.373 8.08-1.36.272c-.555.096-1.2.144-1.936.144-.64 0-1.18-.09-1.616-.272-.437-.192-.79-.46-1.056-.8s-.46-.74-.576-1.2a6.42 6.42 0 0 1-.176-1.552V60.68h1.488v4.352c0 1.013.16 1.74.48 2.176s.86.656 1.616.656l.496-.016.48-.032.4-.048a1.46 1.46 0 0 0 .272-.064V60.68h1.488v8.08zm5.5-.832c.608 0 1.056-.08 1.344-.24.3-.16.448-.416.448-.768a1.02 1.02 0 0 0-.432-.864c-.288-.213-.762-.453-1.424-.72l-.928-.384c-.288-.14-.538-.3-.752-.48s-.384-.4-.512-.656-.192-.57-.192-.944c0-.736.272-1.317.816-1.744.544-.437 1.286-.656 2.224-.656.235 0 .47.016.704.048.235.02.454.053.656.096.203.032.38.07.528.112l.368.112-.272 1.28c-.16-.085-.4-.17-.752-.256-.34-.096-.752-.144-1.232-.144-.416 0-.778.085-1.088.256-.31.16-.464.416-.464.768 0 .18.032.34.096.48a1.35 1.35 0 0 0 .32.384c.15.107.33.208.544.304l.768.304 1.056.448c.3.14.57.304.784.496.224.192.395.427.512.704.118.267.176.597.176.992 0 .768-.288 1.35-.864 1.744-.565.395-1.376.592-2.432.592-.736 0-1.312-.064-1.728-.192l-.848-.272.272-1.28.816.288c.374.128.87.192 1.488.192z" class="E"/><path d="M544 48a5 5 0 0 1 5-5h35a5 5 0 0 1 5 5v30a5 5 0 0 1-5 5h-35a5 5 0 0 1-5-5V48z" fill="#07074f"/><path d="m576.374 66.04 2.18-12.133c.158-.876-.37-1.7-1.08-1.7h-18.127l-.423-2.614c-.106-.65-.56-1.12-1.085-1.12h-4.732c-.612 0-1.108.627-1.108 1.4v.933c0 .773.496 1.4 1.108 1.4h3.225l3.242 20.033c-.776.564-1.298 1.62-1.298 2.833 0 1.804 1.157 3.267 2.584 3.267s2.585-1.463 2.585-3.267c0-.914-.298-1.74-.777-2.333h9.676c-.48.593-.777 1.42-.777 2.333 0 1.804 1.157 3.267 2.585 3.267s2.584-1.463 2.584-3.267c0-1.293-.595-2.41-1.457-2.94l.254-1.416c.158-.876-.37-1.7-1.08-1.7h-12.388l-.302-1.867h13.53c.518 0 .966-.452 1.08-1.1z" class="B"/><circle cx="589" cy="45" r="6" class="C"/><path d="m645.985 136.103-3.748-4.21a.825.825 0 0 0-.64-.296h-.613c1.038-1.49 1.654-3.366 1.654-5.406 0-4.853-3.5-8.785-7.82-8.785S627 121.337 627 126.2s3.5 8.785 7.82 8.785c1.815 0 3.485-.693 4.812-1.858v.688a1.08 1.08 0 0 0 .263.718l3.748 4.21a.83.83 0 0 0 1.274 0l1.064-1.195a1.11 1.11 0 0 0 .004-1.436zm-11.165-4.507c-2.658 0-4.812-2.416-4.812-5.406s2.15-5.406 4.812-5.406c2.657 0 4.812 2.416 4.812 5.406s-2.15 5.406-4.812 5.406z" class="B"/><path d="M612 110a5 5 0 0 1 5-5h39a5 5 0 0 1 5 5v30a5 5 0 0 1-5 5h-39a5 5 0 0 1-5-5v-30zm27.5-67.775c-10.772 0-19.5 9.45-19.5 21.112s8.728 21.112 19.5 21.112S659 75 659 63.337s-8.728-21.112-19.5-21.112zm0 8.172c3.82 0 6.92 3.354 6.92 7.5s-3.098 7.492-6.92 7.492-6.92-3.354-6.92-7.492 3.098-7.5 6.92-7.5zm0 29.285c-4.616 0-8.75-2.264-11.52-5.806 1.478-3.014 4.372-5.1 7.745-5.1a1.77 1.77 0 0 1 .558.094c1.022.358 2.092.587 3.216.587s2.202-.23 3.216-.587c.18-.06.37-.094.558-.094 3.373 0 6.267 2.077 7.745 5.1-2.768 3.54-6.903 5.806-11.52 5.806z" class="C"/><defs><path id="F" d="M81 538c0-5.523 4.477-10 10-10h212a10 10 0 0 1 10 10v24a10 10 0 0 1-10 10H91c-5.523 0-10-4.477-10-10v-24z"/><path id="G" d="M394 538a10 10 0 0 1 10-10h212a10 10 0 0 1 10 10v24a10 10 0 0 1-10 10H404a10 10 0 0 1-10-10v-24z"/><path id="H" d="M104.93 603.5a6.42 6.42 0 0 0 1.11-.56c.36-.233.7-.523 1-.87h.66V609h-.93v-5.64c-.08.073-.18.15-.3.23-.113.08-.24.157-.38.23l-.43.2a4.45 4.45 0 0 1-.43.17l-.3-.7zm7.705 1.24c1.006.04 1.743.26 2.2.66.473.4.7.943.7 1.63a2.23 2.23 0 0 1-.16.85c-.1.26-.257.483-.47.67-.207.187-.47.333-.8.44s-.7.16-1.14.16a3.56 3.56 0 0 1-.53-.04l-.5-.1-.4-.12-.26-.1.18-.8a6.03 6.03 0 0 0 .55.21c.26.087.576.13.95.13.3 0 .55-.033.75-.1a1.39 1.39 0 0 0 .5-.27.97.97 0 0 0 .27-.39c.06-.153.1-.313.1-.48 0-.253-.044-.477-.13-.67-.087-.2-.24-.367-.46-.5s-.514-.233-.88-.3c-.367-.073-.83-.1-1.4-.1l.1-.92.07-.84.05-.8.04-.86h3.34v.8h-2.53l-.03.4-.08 1.06-.04.4zm5.154.8c0-1.16.203-2.053.6-2.68.413-.627.983-.94 1.7-.94s1.293.313 1.7.94c.413.627.62 1.52.62 2.68s-.207 2.053-.62 2.68c-.407.627-.973.94-1.7.94s-1.297-.313-1.7-.94c-.407-.627-.6-1.52-.6-2.68zm3.66 0c0-.38-.023-.74-.07-1.08a3.44 3.44 0 0 0-.22-.9 1.575 1.575 0 0 0-.4-.6c-.173-.153-.387-.23-.64-.23s-.467.077-.64.23a1.574 1.574 0 0 0-.42.6c-.1.253-.173.55-.22.9-.04.34-.06.7-.06 1.08s.02.74.06 1.08c.047.34.12.637.22.9.107.253.247.457.42.6.173.147.387.22.64.22s.467-.073.64-.22c.173-.153.3-.357.4-.6.107-.253.18-.55.22-.9.047-.34.07-.7.07-1.08zm9.77 2.5-.27-.6-.35-.8-.4-.88-.4-.86-.36-.73-.26-.5-.18 2.56-.12 2.77h-.95l.1-1.8.1-1.8.14-1.73.17-1.6h.85l.58 1.04.62 1.26.6 1.3.53 1.2.53-1.2.6-1.3.62-1.26.58-1.04h.85l.5 6.93h-.95l-.12-2.77-.18-2.56-.27.5-.35.73-.4.86-.4.88-.36.8-.26.6h-.78zm11.73-5.97-.7.76-.82.85-.84.85-.8.78c.287.2.6.447.9.74l.94.94.86 1.02c.273.347.5.677.68 1h-1.14a8.16 8.16 0 0 0-.7-.94 9.364 9.364 0 0 0-.83-.9 9.402 9.402 0 0 0-.88-.8 7.283 7.283 0 0 0-.86-.63v3.3h-.97v-6.93h.97v3.06l.77-.74.83-.84.77-.8.62-.68h1.17zm7.85 3.46c0 .6-.093 1.123-.28 1.57a2.95 2.95 0 0 1-.79 1.1c-.34.287-.747.503-1.22.65a5.48 5.48 0 0 1-1.56.21c-.28 0-.6-.013-.93-.04a5.12 5.12 0 0 1-.91-.13v-6.72a5.12 5.12 0 0 1 .91-.13l.93-.04c.567 0 1.087.073 1.56.22a3.26 3.26 0 0 1 1.22.65c.34.287.603.653.8 1.1.187.44.28.96.28 1.56zm-3.77 2.68c.92 0 1.607-.233 2.06-.7.453-.473.68-1.133.68-1.98s-.227-1.503-.68-1.97c-.453-.473-1.14-.7-2.06-.7l-.64.01-.3.02v5.3a5.49 5.49 0 0 0 .31.02h.64z"/><path id="I" d="M289.685 392.53c.254.164.59.084.748-.178l6.43-10.607c.105-.17.114-.384.023-.562s-.27-.29-.464-.298a.54.54 0 0 0-.48.268l-6.43 10.607a.57.57 0 0 0 .173.77z"/><path id="J" d="M290.26 386.78c1.322 0 2.397-1.263 2.397-2.815s-1.075-2.815-2.397-2.815-2.397 1.263-2.397 2.815 1.075 2.815 2.397 2.815zm0-4.512c.723 0 1.312.76 1.312 1.697s-.59 1.697-1.312 1.697-1.31-.762-1.31-1.697.588-1.697 1.31-1.697z"/><path id="K" d="M293.715 389.54c0 1.552 1.075 2.815 2.397 2.815s2.397-1.263 2.397-2.815-1.076-2.815-2.397-2.815-2.397 1.263-2.397 2.815zm3.708 0c0 .936-.588 1.697-1.31 1.697s-1.312-.76-1.312-1.697.59-1.697 1.312-1.697 1.31.76 1.31 1.697z"/><path id="L" d="M178.26 607.32c.593 0 1.017-.117 1.27-.35.26-.233.4-.547.4-.94 0-.253-.053-.467-.16-.64s-.247-.3-.42-.4a1.713 1.713 0 0 0-.6-.22 3.44 3.44 0 0 0-.7-.07h-.24v-.76h.33a2.72 2.72 0 0 0 .51-.05c.18-.033.343-.093.5-.18s.267-.203.36-.35a1.08 1.08 0 0 0 .14-.57c0-.187-.033-.347-.1-.48a.95.95 0 0 0-.27-.33.906.906 0 0 0-.38-.18 1.63 1.63 0 0 0-.45-.06c-.32 0-.593.047-.82.14a3.57 3.57 0 0 0-.56.29l-.36-.7a2.89 2.89 0 0 1 .3-.17 3.308 3.308 0 0 1 .92-.31c.18-.04.367-.06.56-.06.367 0 .683.047.95.14a1.663 1.663 0 0 1 1.06.96 1.94 1.94 0 0 1 .13.72c0 .36-.103.67-.3.93a2.06 2.06 0 0 1-.75.58c.18.053.353.13.52.23s.3.227.43.38c.127.153.227.33.3.53a1.79 1.79 0 0 1 .12.67c0 .3-.053.58-.16.84a1.66 1.66 0 0 1-.48.66c-.213.187-.483.333-.8.44s-.713.16-1.16.16a3.78 3.78 0 0 1-.54-.04l-.5-.1-.42-.12-.26-.1.18-.8a5.82 5.82 0 0 0 .56.21c.267.087.6.13.97.13zm4.885-2.8c0-1.16.203-2.053.6-2.68.413-.627.983-.94 1.7-.94s1.293.313 1.7.94c.413.627.62 1.52.62 2.68s-.207 2.053-.62 2.68c-.407.627-.974.94-1.7.94s-1.297-.313-1.7-.94c-.407-.627-.6-1.52-.6-2.68zm3.66 0c0-.38-.024-.74-.07-1.08a3.48 3.48 0 0 0-.22-.9 1.575 1.575 0 0 0-.4-.6.935.935 0 0 0-.64-.23.93.93 0 0 0-.64.23 1.553 1.553 0 0 0-.42.6c-.1.253-.174.55-.22.9-.04.34-.06.7-.06 1.08s.02.74.06 1.08c.046.34.12.637.22.9a1.64 1.64 0 0 0 .42.61c.173.147.386.22.64.22s.466-.073.64-.22c.173-.153.3-.357.4-.6.106-.253.18-.55.22-.9.046-.34.07-.7.07-1.08zm2.984 0c0-1.16.203-2.053.6-2.68.413-.627.983-.94 1.7-.94s1.293.313 1.7.94c.413.627.62 1.52.62 2.68s-.207 2.053-.62 2.68c-.407.627-.973.94-1.7.94s-1.297-.313-1.7-.94c-.407-.627-.6-1.52-.6-2.68zm3.66 0c0-.38-.023-.74-.07-1.08a3.44 3.44 0 0 0-.22-.9 1.575 1.575 0 0 0-.4-.6c-.173-.153-.387-.23-.64-.23s-.467.077-.64.23a1.574 1.574 0 0 0-.42.6c-.1.253-.173.55-.22.9-.04.34-.06.7-.06 1.08s.02.74.06 1.08c.047.34.12.637.22.9.107.253.247.457.42.6.173.147.387.22.64.22s.467-.073.64-.22c.173-.153.3-.357.4-.6.107-.253.18-.55.22-.9.047-.34.07-.7.07-1.08zm9.77 2.5-.27-.6-.35-.8-.4-.88-.4-.86-.36-.73-.26-.5-.18 2.56-.12 2.77h-.95l.1-1.8.1-1.8.14-1.73.17-1.6h.85l.58 1.04.62 1.26.6 1.3.53 1.2.53-1.2.6-1.3.62-1.26.58-1.04h.85l.5 6.93h-.95l-.12-2.77-.18-2.56-.27.5-.35.73-.4.86-.4.88-.36.8-.26.6h-.78zm11.73-5.97-.7.76-.82.85-.84.85-.8.78c.287.2.6.447.9.74l.94.94.86 1.02c.273.347.5.677.68 1h-1.14a8.16 8.16 0 0 0-.7-.94 9.364 9.364 0 0 0-.83-.9 9.402 9.402 0 0 0-.88-.8 7.283 7.283 0 0 0-.86-.63v3.3h-.97v-6.93h.97v3.06l.77-.74.83-.84.77-.8.62-.68h1.17zm7.85 3.46c0 .6-.093 1.123-.28 1.57a2.95 2.95 0 0 1-.79 1.1c-.34.287-.747.503-1.22.65a5.48 5.48 0 0 1-1.56.21c-.28 0-.6-.013-.93-.04a5.12 5.12 0 0 1-.91-.13v-6.72a5.12 5.12 0 0 1 .91-.13l.93-.04c.567 0 1.087.073 1.56.22a3.26 3.26 0 0 1 1.22.65c.34.287.603.653.8 1.1.187.44.28.96.28 1.56zm-3.77 2.68c.92 0 1.607-.233 2.06-.7.453-.473.68-1.133.68-1.98s-.227-1.503-.68-1.97c-.453-.473-1.14-.7-2.06-.7l-.64.01-.3.02v5.3a5.49 5.49 0 0 0 .31.02h.64z"/><filter id="A" x="0" y="-8" width="723" height="993" filterUnits="userSpaceOnUse" class="F"><feFlood result="A" class="G"/><feColorMatrix in="SourceAlpha" values="0 0 0 0 0 0 0 0 0 0 0 0 0 0 0 0 0 0 127 0"/><feOffset dy="8"/><feGaussianBlur stdDeviation="12"/><feColorMatrix values="0 0 0 0 0 0 0 0 0 0 0 0 0 0 0 0 0 0 0.2 0"/><feBlend in2="A"/><feBlend in="SourceGraphic"/></filter><filter id="B" x="51" y="328" width="291" height="326" filterUnits="userSpaceOnUse" class="F"><feFlood result="A" class="G"/><feColorMatrix in="SourceAlpha" values="0 0 0 0 0 0 0 0 0 0 0 0 0 0 0 0 0 0 127 0"/><feOffset dy="4"/><feGaussianBlur stdDeviation="7.5"/><feColorMatrix values="0 0 0 0 0 0 0 0 0 0 0 0 0 0 0 0 0 0 0.15 0"/><feBlend in2="A"/><feBlend in="SourceGraphic"/></filter><filter id="C" x="51" y="685" width="291" height="326" filterUnits="userSpaceOnUse" class="F"><feFlood result="A" class="G"/><feColorMatrix in="SourceAlpha" values="0 0 0 0 0 0 0 0 0 0 0 0 0 0 0 0 0 0 127 0"/><feOffset dy="4"/><feGaussianBlur stdDeviation="7.5"/><feColorMatrix values="0 0 0 0 0 0 0 0 0 0 0 0 0 0 0 0 0 0 0.15 0"/><feBlend in2="A"/><feBlend in="SourceGraphic"/></filter><filter id="D" x="364" y="328" width="291" height="326" filterUnits="userSpaceOnUse" class="F"><feFlood result="A" class="G"/><feColorMatrix in="SourceAlpha" values="0 0 0 0 0 0 0 0 0 0 0 0 0 0 0 0 0 0 127 0"/><feOffset dy="4"/><feGaussianBlur stdDeviation="7.5"/><feColorMatrix values="0 0 0 0 0 0 0 0 0 0 0 0 0 0 0 0 0 0 0.15 0"/><feBlend in2="A"/><feBlend in="SourceGraphic"/></filter><filter id="E" x="364" y="685" width="291" height="326" filterUnits="userSpaceOnUse" class="F"><feFlood result="A" class="G"/><feColorMatrix in="SourceAlpha" values="0 0 0 0 0 0 0 0 0 0 0 0 0 0 0 0 0 0 127 0"/><feOffset dy="4"/><feGaussianBlur stdDeviation="7.5"/><feColorMatrix values="0 0 0 0 0 0 0 0 0 0 0 0 0 0 0 0 0 0 0.15 0"/><feBlend in2="A"/><feBlend in="SourceGraphic"/></filter></defs></svg>