<svg width="723" height="1000" fill="none" xmlns="http://www.w3.org/2000/svg"><g filter="url(#filter0_d)"><path d="M24 23c0-8.284 6.716-15 15-15h645c8.284 0 15 6.716 15 15v915c0 8.284-6.716 15-15 15H39c-8.284 0-15-6.716-15-15V23z" fill="#fff"/></g><path d="M304 273a5 5 0 015-5h93a5 5 0 015 5v31a5 5 0 01-5 5h-93a5 5 0 01-5-5v-31z" fill="#B3C6E4"/><path d="M328.616 279.32v2.232h-7.08v4.92h5.52v2.232h-5.52V296H318.8v-16.68h9.816zm4.928 1.704c-.496 0-.912-.168-1.248-.504a1.695 1.695 0 01-.504-1.248c0-.496.168-.912.504-1.248a1.695 1.695 0 011.248-.504c.48 0 .888.168 1.224.504.336.336.504.752.504 1.248s-.168.912-.504 1.248a1.666 1.666 0 01-1.224.504zm1.344 1.752V296h-2.736v-13.224h2.736zm7.328-4.536V296h-2.736v-17.76h2.736zm7.784 6.768v7.32c0 .496.112.856.336 1.08.24.208.64.312 1.2.312h1.68V296h-2.16c-1.232 0-2.176-.288-2.832-.864-.656-.576-.984-1.512-.984-2.808v-7.32h-1.56v-2.232h1.56v-3.288H350v3.288h3.216v2.232H350zm18.858 4.056c0 .496-.032.944-.096 1.344h-10.104c.08 1.056.472 1.904 1.176 2.544.704.64 1.568.96 2.592.96 1.472 0 2.512-.616 3.12-1.848h2.951c-.399 1.216-1.127 2.216-2.183 3-1.04.768-2.336 1.152-3.888 1.152-1.264 0-2.4-.28-3.408-.84a6.278 6.278 0 01-2.352-2.4c-.56-1.04-.84-2.24-.84-3.6 0-1.36.272-2.552.816-3.576.56-1.04 1.336-1.84 2.328-2.4 1.008-.56 2.16-.84 3.456-.84 1.248 0 2.36.272 3.336.816a5.746 5.746 0 012.28 2.304c.544.976.816 2.104.816 3.384zm-2.856-.864c-.016-1.008-.376-1.816-1.08-2.424-.704-.608-1.576-.912-2.616-.912-.944 0-1.752.304-2.424.912-.672.592-1.072 1.4-1.2 2.424h7.32zm9.284-3.504c.4-.672.928-1.192 1.584-1.56.672-.384 1.464-.576 2.376-.576v2.832h-.696c-1.072 0-1.888.272-2.448.816-.544.544-.816 1.488-.816 2.832V296h-2.736v-13.224h2.736v1.92zm12.275 11.52c-1.04 0-1.976-.184-2.808-.552-.816-.384-1.464-.896-1.944-1.536a3.886 3.886 0 01-.768-2.184h2.832c.048.56.312 1.032.792 1.416.496.368 1.112.552 1.848.552.768 0 1.36-.144 1.776-.432.432-.304.648-.688.648-1.152 0-.496-.24-.864-.72-1.104-.464-.24-1.208-.504-2.232-.792-.992-.272-1.8-.536-2.424-.792a4.351 4.351 0 01-1.632-1.176c-.448-.528-.672-1.224-.672-2.088 0-.704.208-1.344.624-1.92.416-.592 1.008-1.056 1.776-1.392.784-.336 1.68-.504 2.688-.504 1.504 0 2.712.384 3.624 1.152.928.752 1.424 1.784 1.488 3.096h-2.736c-.048-.592-.288-1.064-.72-1.416-.432-.352-1.016-.528-1.752-.528-.72 0-1.272.136-1.656.408-.384.272-.576.632-.576 1.08 0 .352.128.648.384.888s.568.432.936.576c.368.128.912.296 1.632.504.96.256 1.744.52 2.352.792.624.256 1.16.64 1.608 1.152.448.512.68 1.192.696 2.04 0 .752-.208 1.424-.624 2.016-.416.592-1.008 1.056-1.776 1.392-.752.336-1.64.504-2.664.504z" fill="#fff"/><path d="M38 34c0-5.523 4.477-10 10-10h628c5.523 0 10 4.477 10 10v117c0 5.523-4.477 10-10 10H48c-5.523 0-10-4.477-10-10V34z" fill="#F6F8FC"/><g filter="url(#filter1_d)"><path d="M66 349c0-5.523 4.477-10 10-10h241c5.523 0 10 4.477 10 10v276c0 5.523-4.477 10-10 10H76c-5.523 0-10-4.477-10-10V349z" fill="#F6F8FC"/></g><g filter="url(#filter2_d)"><path d="M66 706c0-5.523 4.477-10 10-10h241c5.523 0 10 4.477 10 10v276c0 5.523-4.477 10-10 10H76c-5.523 0-10-4.477-10-10V706z" fill="#F6F8FC"/></g><g filter="url(#filter3_d)"><path d="M379 349c0-5.523 4.477-10 10-10h241c5.523 0 10 4.477 10 10v276c0 5.523-4.477 10-10 10H389c-5.523 0-10-4.477-10-10V349z" fill="#F6F8FC"/></g><g filter="url(#filter4_d)"><path d="M379 706c0-5.523 4.477-10 10-10h241c5.523 0 10 4.477 10 10v276c0 5.523-4.477 10-10 10H389c-5.523 0-10-4.477-10-10V706z" fill="#F6F8FC"/></g><path d="M76.05 205.6c0 1.767-.417 3.433-1.25 5-.833 1.567-2.167 2.85-4 3.85-1.833.967-4.183 1.45-7.05 1.45h-6.3V230h-5.7v-34.75h12c2.667 0 4.917.467 6.75 1.4 1.867.9 3.25 2.133 4.15 3.7.933 1.567 1.4 3.317 1.4 5.25zm-12.3 5.65c2.167 0 3.783-.483 4.85-1.45 1.067-1 1.6-2.4 1.6-4.2 0-3.8-2.15-5.7-6.45-5.7h-6.3v11.35h6.3zm23.436-4.8c.834-1.4 1.934-2.483 3.3-3.25 1.4-.8 3.05-1.2 4.95-1.2v5.9h-1.45c-2.233 0-3.933.567-5.1 1.7-1.133 1.133-1.7 3.1-1.7 5.9V230h-5.7v-27.55h5.7v4zm25.44 24c-2.6 0-4.95-.583-7.05-1.75-2.1-1.2-3.75-2.867-4.95-5-1.2-2.167-1.8-4.667-1.8-7.5 0-2.8.616-5.283 1.85-7.45 1.233-2.167 2.916-3.833 5.05-5 2.133-1.167 4.516-1.75 7.15-1.75 2.633 0 5.016.583 7.15 1.75 2.133 1.167 3.816 2.833 5.05 5 1.233 2.167 1.85 4.65 1.85 7.45s-.634 5.283-1.9 7.45c-1.267 2.167-3 3.85-5.2 5.05-2.167 1.167-4.567 1.75-7.2 1.75zm0-4.95c1.466 0 2.833-.35 4.1-1.05 1.3-.7 2.35-1.75 3.15-3.15.8-1.4 1.2-3.1 1.2-5.1 0-2-.384-3.683-1.15-5.05-.767-1.4-1.784-2.45-3.05-3.15a8.344 8.344 0 00-4.1-1.05c-1.467 0-2.834.35-4.1 1.05-1.234.7-2.217 1.75-2.95 3.15-.734 1.367-1.1 3.05-1.1 5.05 0 2.967.75 5.267 2.25 6.9 1.533 1.6 3.45 2.4 5.75 2.4zm18.035-9.4c0-2.767.566-5.217 1.7-7.35 1.166-2.133 2.733-3.783 4.7-4.95 2-1.2 4.216-1.8 6.65-1.8 1.8 0 3.566.4 5.3 1.2 1.766.767 3.166 1.8 4.2 3.1V193h5.75v37h-5.75v-4.15c-.934 1.333-2.234 2.433-3.9 3.3-1.634.867-3.517 1.3-5.65 1.3-2.4 0-4.6-.6-6.6-1.8-1.967-1.233-3.534-2.933-4.7-5.1-1.134-2.2-1.7-4.683-1.7-7.45zm22.55.1c0-1.9-.4-3.55-1.2-4.95-.767-1.4-1.784-2.467-3.05-3.2a8.05 8.05 0 00-4.1-1.1 8.046 8.046 0 00-4.1 1.1c-1.267.7-2.3 1.75-3.1 3.15-.767 1.367-1.15 3-1.15 4.9 0 1.9.383 3.567 1.15 5 .8 1.433 1.833 2.533 3.1 3.3 1.3.733 2.666 1.1 4.1 1.1a8.05 8.05 0 004.1-1.1c1.266-.733 2.283-1.8 3.05-3.2.8-1.433 1.2-3.1 1.2-5zm38.186-13.75V230h-5.7v-3.25c-.9 1.133-2.083 2.033-3.55 2.7-1.433.633-2.966.95-4.6.95-2.166 0-4.116-.45-5.85-1.35-1.7-.9-3.05-2.233-4.05-4-.966-1.767-1.45-3.9-1.45-6.4v-16.2h5.65v15.35c0 2.467.617 4.367 1.85 5.7 1.234 1.3 2.917 1.95 5.05 1.95 2.134 0 3.817-.65 5.05-1.95 1.267-1.333 1.9-3.233 1.9-5.7v-15.35h5.7zm5.621 13.75c0-2.833.567-5.317 1.7-7.45 1.167-2.167 2.767-3.833 4.8-5 2.033-1.167 4.367-1.75 7-1.75 3.333 0 6.083.8 8.25 2.4 2.2 1.567 3.683 3.817 4.45 6.75h-6.15c-.5-1.367-1.3-2.433-2.4-3.2-1.1-.767-2.483-1.15-4.15-1.15-2.333 0-4.2.833-5.6 2.5-1.367 1.633-2.05 3.933-2.05 6.9 0 2.967.683 5.283 2.05 6.95 1.4 1.667 3.267 2.5 5.6 2.5 3.3 0 5.483-1.45 6.55-4.35h6.15c-.8 2.8-2.3 5.033-4.5 6.7-2.2 1.633-4.933 2.45-8.2 2.45-2.633 0-4.967-.583-7-1.75-2.033-1.2-3.633-2.867-4.8-5-1.133-2.167-1.7-4.667-1.7-7.5zm38.53-9.1v15.25c0 1.033.234 1.783.7 2.25.5.433 1.334.65 2.5.65h3.5V230h-4.5c-2.566 0-4.533-.6-5.9-1.8-1.366-1.2-2.05-3.15-2.05-5.85V207.1h-3.25v-4.65h3.25v-6.85h5.75v6.85h6.7v4.65h-6.7zm21.954 23.35c-2.167 0-4.117-.383-5.85-1.15-1.7-.8-3.05-1.867-4.05-3.2-1-1.367-1.533-2.883-1.6-4.55h5.9c.1 1.167.65 2.15 1.65 2.95 1.033.767 2.317 1.15 3.85 1.15 1.6 0 2.833-.3 3.7-.9.9-.633 1.35-1.433 1.35-2.4 0-1.033-.5-1.8-1.5-2.3-.967-.5-2.517-1.05-4.65-1.65-2.067-.567-3.75-1.117-5.05-1.65-1.3-.533-2.433-1.35-3.4-2.45-.933-1.1-1.4-2.55-1.4-4.35 0-1.467.433-2.8 1.3-4 .867-1.233 2.1-2.2 3.7-2.9 1.633-.7 3.5-1.05 5.6-1.05 3.133 0 5.65.8 7.55 2.4 1.933 1.567 2.967 3.717 3.1 6.45h-5.7c-.1-1.233-.6-2.217-1.5-2.95-.9-.733-2.117-1.1-3.65-1.1-1.5 0-2.65.283-3.45.85-.8.567-1.2 1.317-1.2 2.25 0 .733.267 1.35.8 1.85s1.183.9 1.95 1.2c.767.267 1.9.617 3.4 1.05 2 .533 3.633 1.083 4.9 1.65a8.86 8.86 0 013.35 2.4c.933 1.067 1.417 2.483 1.45 4.25 0 1.567-.433 2.967-1.3 4.2s-2.1 2.2-3.7 2.9c-1.567.7-3.417 1.05-5.55 1.05z" fill="#263135"/><path opacity=".99" d="M98.403 43.679c.38-.701.758-1.457 1.082-2.21.325-.755.268-.863-.166-1.07-.434-.205-.873.277-1.156.645-.255.251-.497.517-.725.795-.664 1.013-1.33 1.97-1.967 3.01l-6.864 10.77c-2.831 4.472-5.689 8.97-8.574 13.443a.332.332 0 01-.523.061.353.353 0 01-.095-.178l-.015-.495c.005-1.597-.127-4.18-.305-5.634l-.952-18.167-.33-6.459a8.429 8.429 0 00-.291-1.67.743.743 0 00-.196-.325.71.71 0 00-.328-.18 1.155 1.155 0 00-.543.596 4.793 4.793 0 00-.258 1.192c-.07 1.214-.166 2.456-.208 3.696l-.365 13.53-.47 16.204-.843.413-.22-.213-2.286-2.21-10.145-9.219-8.495-7.731a9.145 9.145 0 00-1.422-1.055.663.663 0 00-.832.13.711.711 0 00-.073.864c.258.473.568.916.922 1.318l8.13 8.928c3.072 3.45 6.091 6.902 9.24 10.267a38.218 38.218 0 004.518 4.367c.847.689 1.76 1.286 2.727 1.782.732.334 1 .38 1.596-.273a37.432 37.432 0 003.13-3.434c.362-.398.724-.795.894-1.379a57.13 57.13 0 002.904-4.72c4.517-8.52 9.019-16.982 13.504-25.39z" fill="#27AE60"/><path d="M90.58 69.841c0-.906.158-1.722.475-2.448a5.704 5.704 0 011.292-1.887 5.522 5.522 0 011.904-1.19 6.298 6.298 0 012.312-.425c.646 0 1.219.063 1.717.187.51.125.947.266 1.31.425.419.181.781.38 1.087.595l-1.785 3.145a6 6 0 00-.595-.39 4.816 4.816 0 00-.697-.256 2.737 2.737 0 00-.9-.136c-.352 0-.675.063-.97.187a2.593 2.593 0 00-.782.51c-.215.216-.385.47-.51.765-.124.284-.187.59-.187.918 0 .329.063.64.187.935.136.284.318.533.544.748.227.216.493.385.8.51.305.125.64.187 1.002.187.363 0 .686-.045.97-.136a3.55 3.55 0 00.713-.306c.227-.124.425-.272.595-.442l1.785 3.145c-.306.25-.668.47-1.088.663a9.232 9.232 0 01-1.309.442 6.816 6.816 0 01-1.75.204c-.885 0-1.7-.141-2.449-.425a5.882 5.882 0 01-1.938-1.224 5.538 5.538 0 01-1.275-1.87c-.306-.737-.459-1.547-.459-2.43zm15.063-5.678h2.72l4.301 11.34h-3.57l-.374-1.02h-3.434l-.374 1.02h-3.57l4.301-11.34zm2.125 7.82l-.765-1.989-.765 1.99h1.53zm5.895-2.142c0-.906.159-1.722.476-2.448a5.713 5.713 0 011.292-1.887 5.525 5.525 0 011.904-1.19 6.3 6.3 0 012.312-.425c.646 0 1.219.063 1.717.187.51.125.947.266 1.309.425.42.181.782.38 1.088.595l-1.785 3.145a5.897 5.897 0 00-.595-.39 4.79 4.79 0 00-.697-.256 2.735 2.735 0 00-.901-.136c-.351 0-.674.063-.969.187a2.604 2.604 0 00-.782.51c-.215.216-.385.47-.51.765-.124.284-.187.59-.187.918 0 .329.063.64.187.935.136.284.318.533.544.748.227.216.493.385.799.51.306.125.641.187 1.003.187.363 0 .686-.045.969-.136a3.52 3.52 0 00.714-.306c.227-.124.425-.272.595-.442l1.785 3.145c-.306.25-.668.47-1.088.663a9.206 9.206 0 01-1.309.442 6.813 6.813 0 01-1.751.204c-.884 0-1.7-.141-2.448-.425a5.882 5.882 0 01-1.938-1.224 5.538 5.538 0 01-1.275-1.87c-.306-.737-.459-1.547-.459-2.43zm13.194-2.703h-2.091v-2.975h7.922v2.975h-2.091v8.364h-3.74v-8.364zm12.064 8.653a6.46 6.46 0 01-1.938-.272 3.99 3.99 0 01-1.479-.816 3.65 3.65 0 01-.952-1.377c-.216-.555-.323-1.207-.323-1.955v-7.208h3.621v7.055c0 .397.079.703.238.918.17.204.447.306.833.306.385 0 .657-.102.816-.306.17-.215.255-.521.255-.918v-7.055h3.638v7.208c0 .748-.114 1.4-.34 1.955a3.429 3.429 0 01-.952 1.377 3.99 3.99 0 01-1.479.816 6.46 6.46 0 01-1.938.272zm6.545-3.808c.249.08.51.142.782.187.226.057.481.102.765.136.294.034.589.051.884.051.521 0 .782-.192.782-.578 0-.147-.08-.294-.238-.442a5.23 5.23 0 00-.612-.51 195.88 195.88 0 00-.782-.629 6.345 6.345 0 01-.782-.782 4.285 4.285 0 01-.595-.986 3.232 3.232 0 01-.238-1.275c0-.532.096-1.003.289-1.41a2.83 2.83 0 01.799-1.02 3.48 3.48 0 011.19-.613 4.86 4.86 0 011.479-.22c.272 0 .544.016.816.05.272.023.515.045.731.068l.731.102v3.18a12.97 12.97 0 00-.306-.035 12.97 12.97 0 00-.306-.034 3.62 3.62 0 00-.357-.017c-.068 0-.153.006-.255.017-.102 0-.199.011-.289.034a.587.587 0 00-.238.12.293.293 0 00-.102.237c0 .09.073.204.221.34.158.136.345.295.561.476.226.181.47.391.731.63.272.237.515.51.731.815.226.306.413.652.561 1.037.158.385.238.816.238 1.292 0 .499-.08.97-.238 1.411-.159.43-.408.81-.748 1.14-.329.317-.754.566-1.275.747-.522.193-1.139.29-1.853.29-.431 0-.833-.023-1.207-.069a9.473 9.473 0 01-.969-.136 8.207 8.207 0 01-.901-.204v-3.4z" fill="#687C94"/><path d="M81 359c0-5.523 4.477-10 10-10h212c5.523 0 10 4.477 10 10v149c0 5.523-4.477 10-10 10H91c-5.523 0-10-4.477-10-10V359zM394 359c0-5.523 4.477-10 10-10h212c5.523 0 10 4.477 10 10v149c0 5.523-4.477 10-10 10H404c-5.523 0-10-4.477-10-10V359zM81 538c0-5.523 4.477-10 10-10h212c5.523 0 10 4.477 10 10v24c0 5.523-4.477 10-10 10H91c-5.523 0-10-4.477-10-10v-24zM394 538c0-5.523 4.477-10 10-10h212c5.523 0 10 4.477 10 10v24c0 5.523-4.477 10-10 10H404c-5.523 0-10-4.477-10-10v-24zM81 592c0-5.523 4.477-10 10-10h212c5.523 0 10 4.477 10 10v24c0 5.523-4.477 10-10 10H91c-5.523 0-10-4.477-10-10v-24zM394 592c0-5.523 4.477-10 10-10h212c5.523 0 10 4.477 10 10v24c0 5.523-4.477 10-10 10H404c-5.523 0-10-4.477-10-10v-24z" fill="#fff"/><path d="M222.772 464.136l-6.535-20.678-.103.035c.089-.031 9.01-3.317 20.481-14.429 4.246-4.115 10.928-3.905 14.923.469 3.995 4.374 3.791 11.255-.456 15.369-14.948 14.481-26.987 18.79-28.31 19.234zM169.536 464.136l6.535-20.678.103.036c-.089-.032-9.01-3.318-20.481-14.431-4.247-4.114-10.928-3.904-14.923.47-3.995 4.374-3.791 11.255.456 15.369 14.948 14.482 26.987 18.79 28.31 19.234z" fill="#27AE60"/><path d="M153.406 427.378c.032.611.07 1.221.126 1.831l2.529 27.797c7.477 5.008 12.635 6.848 13.475 7.13l6.535-20.678.103.036c-.089-.032-9.01-3.318-20.481-14.43a10.532 10.532 0 00-2.287-1.686zM238.776 429.209c.055-.61.094-1.22.125-1.831a10.56 10.56 0 00-2.286 1.686c-11.471 11.112-20.392 14.398-20.481 14.43l.103-.036 6.535 20.678c.84-.281 5.998-2.122 13.475-7.13l2.529-27.797z" fill="#27AE60"/><path d="M217.759 396.148c-5.975-4.757-13.469-7.587-21.605-7.587-8.136 0-15.631 2.83-21.606 7.587-9.586 7.632-14.562 19.905-13.432 32.329l3.656 40.185 31.382 7.363 31.382-7.363 3.656-40.185c1.13-12.424-3.846-24.697-13.433-32.329z" fill="#27AE60"/><path d="M223.621 394.771a4.514 4.514 0 01-.448-2.911c.55-3.037-2.032-5.696-4.981-5.129a4.171 4.171 0 01-2.826-.461c-2.635-1.478-5.889.229-6.276 3.293a4.444 4.444 0 01-1.299 2.625c-2.179 2.124-1.608 5.839 1.102 7.166a4.337 4.337 0 012.023 2.083c1.288 2.79 4.895 3.379 6.957 1.135a4.23 4.23 0 012.549-1.338c2.975-.399 4.633-3.75 3.199-6.463zM196.154 476.025l-34.532 7.362 4.222 22.285c.916 4.838 5.031 8.329 9.817 8.329h40.986c4.786 0 8.901-3.491 9.818-8.329l4.221-22.285-34.532-7.362z" fill="#F6376D"/><path d="M176 505.673l-4.222-22.285 29.454-6.28-5.078-1.083-34.532 7.362 4.222 22.285c.916 4.838 5.031 8.329 9.817 8.329h10.157c-4.786 0-8.902-3.491-9.818-8.328z" fill="#DE3263"/><path d="M230.686 468.662h-69.065c-2.206 0-3.994 1.842-3.994 4.114v6.498c0 2.272 1.788 4.113 3.994 4.113h69.065c2.206 0 3.995-1.841 3.995-4.113v-6.498c0-2.272-1.789-4.114-3.995-4.114z" fill="#EFEDEE"/><path d="M167.784 479.274v-6.498c0-2.272 1.788-4.113 3.994-4.113h-10.156c-2.206 0-3.995 1.841-3.995 4.113v6.498c0 2.272 1.789 4.114 3.995 4.114h10.156c-2.206 0-3.994-1.842-3.994-4.114z" fill="#D2D2D2"/><path d="M177.737 427.858c-1.052 0-1.904.878-1.904 1.961v3.433c0 1.083.852 1.961 1.904 1.961s1.904-.878 1.904-1.961v-3.433c0-1.083-.852-1.961-1.904-1.961zM214.565 435.213c1.051 0 1.904-.878 1.904-1.961v-3.432c0-1.083-.853-1.961-1.904-1.961-1.052 0-1.905.878-1.905 1.961v3.432c0 1.083.853 1.961 1.905 1.961zM196.151 437.045c2.32 0 4.5-.999 5.978-2.741a2.002 2.002 0 00-.18-2.767 1.865 1.865 0 00-2.687.185c-.756.89-1.89 1.401-3.111 1.401-1.222 0-2.356-.511-3.111-1.401a1.866 1.866 0 00-2.687-.186 2.003 2.003 0 00-.181 2.768c1.479 1.742 3.658 2.741 5.979 2.741zM215.296 398.06c1.727 0 3.127-1.442 3.127-3.221 0-1.779-1.4-3.221-3.127-3.221-1.728 0-3.128 1.442-3.128 3.221 0 1.779 1.4 3.221 3.128 3.221z" fill="#000"/><path d="M256.301 437.375c.102-3.427-1.098-6.689-3.379-9.186-2.345-2.567-5.654-4.04-9.079-4.04-3.184 0-6.216 1.238-8.536 3.486a92.655 92.655 0 01-2.327 2.172l.105-1.147a40.167 40.167 0 00-2.324-17.568l2.631-1.125c.971-.415 1.431-1.563 1.028-2.563-.403-1-1.518-1.475-2.489-1.059l-2.707 1.158a38.16 38.16 0 00-4.347-6.917c.181-.26.348-.534.491-.825a6.522 6.522 0 00-.079-5.928 2.515 2.515 0 01-.248-1.613 6.474 6.474 0 00-1.316-5.225c-1.18-1.463-2.907-2.302-4.738-2.302-.942 0-1.825.353-2.714-.145a6.035 6.035 0 00-2.947-.779c-2.782 0-5.186 1.928-5.935 4.612a36.112 36.112 0 00-9.336-1.73v-2.609c0-1.084-.853-1.962-1.905-1.962-1.051 0-1.904.878-1.904 1.962v2.609a35.992 35.992 0 00-16.221 4.782l-1.435-2.436a1.873 1.873 0 00-2.616-.659c-.899.561-1.186 1.767-.64 2.693l1.466 2.49a40.12 40.12 0 00-1.42 1.076c-4.31 3.431-7.839 7.858-10.309 12.904l-2.701-1.156c-.971-.415-2.086.059-2.489 1.059-.404 1.001.057 2.148 1.028 2.563l2.626 1.124a40.276 40.276 0 00-2.319 17.569l.104 1.147a94.338 94.338 0 01-2.326-2.171c-2.32-2.249-5.352-3.487-8.536-3.487-3.425 0-6.734 1.473-9.079 4.041-4.708 5.154-4.467 13.292.538 18.141 9.025 8.743 17.029 13.866 22.427 16.712l.333 3.659h-1.059c-3.252 0-5.898 2.725-5.898 6.074v6.498c0 2.774 1.814 5.118 4.285 5.842l3.966 20.933c1.088 5.745 6.003 9.914 11.687 9.914h40.985c5.684 0 10.599-4.169 11.687-9.914l3.966-20.933c2.47-.724 4.285-3.068 4.285-5.842v-6.498c0-3.349-2.646-6.074-5.898-6.074h-1.059l.333-3.659c5.398-2.846 13.402-7.969 22.427-16.712 2.424-2.349 3.815-5.53 3.917-8.956zm-42.975-49.684c.392 0 .77.102 1.126.301a6.068 6.068 0 004.087.667c1.611-.31 3.058 1.192 2.759 2.842a6.543 6.543 0 00.647 4.208c.379.716.39 1.544.031 2.271a2.392 2.392 0 01-1.776 1.305 6.224 6.224 0 00-3.713 1.939c-.846.92-2.304 1.01-3.245.189-.399-.348-.598-.845-.857-1.3a6.32 6.32 0 00-2.677-2.53 2.399 2.399 0 01-1.321-1.82 2.481 2.481 0 01.71-2.15 6.476 6.476 0 001.878-3.796 2.403 2.403 0 012.351-2.126zm-70.798 55.783c-3.476-3.367-3.643-9.018-.374-12.597 1.652-1.809 3.891-2.806 6.304-2.806 2.211 0 4.316.86 5.928 2.421a95.762 95.762 0 005.442 4.889l2.091 22.982c-5.039-2.887-11.828-7.562-19.391-14.889zm41.863 27.15h46.292c1.152 0 2.09.965 2.09 2.152v6.498c0 1.187-.938 2.153-2.09 2.153h-13.285c-1.051 0-1.904.878-1.904 1.961 0 1.083.853 1.961 1.904 1.961h10.973l-3.779 19.949c-.74 3.907-4.083 6.743-7.949 6.743h-40.985c-3.865 0-7.208-2.836-7.948-6.744l-3.78-19.948h45.851c1.052 0 1.904-.878 1.904-1.961 0-1.083-.852-1.961-1.904-1.961h-48.163c-1.152 0-2.089-.966-2.089-2.153v-6.498c0-1.187.937-2.152 2.089-2.152h15.155c1.052 0 1.905-.878 1.905-1.962 0-1.083-.853-1.961-1.905-1.961h-10.27l-.464-5.105-2.468-27.121-.562-6.181a36.232 36.232 0 012.046-15.698l1.961.838c.958.41 2.09-.071 2.489-1.059.403-1-.057-2.148-1.029-2.563l-1.874-.802c2.207-4.418 5.321-8.295 9.108-11.31.352-.281.71-.553 1.071-.817l1.105 1.877c.538.913 1.729 1.214 2.616.659.899-.561 1.186-1.767.64-2.693l-1.138-1.933a32.323 32.323 0 0114.243-4.21v2.497c0 1.084.852 1.962 1.904 1.962s1.904-.878 1.904-1.962v-2.498c2.553.147 5.063.586 7.5 1.32-.004.007-.007.015-.012.021a6.592 6.592 0 00-.918 4.454c.319 2.072 1.608 3.847 3.447 4.748.488.238.89.652 1.121 1.154.954 2.065 3.03 3.498 5.25 3.618 1.783.096 3.576-.637 4.805-1.971l.005-.006a2.371 2.371 0 011.413-.741 5.982 5.982 0 001.141-.266 34.174 34.174 0 013.89 6.099l-1.871.8c-.971.415-1.432 1.563-1.028 2.564.397.985 1.534 1.467 2.489 1.059l1.957-.837a36.122 36.122 0 012.049 15.696l-.536 5.892-2.493 27.411-.465 5.105h-41.408c-1.052 0-1.905.878-1.905 1.961 0 1.083.853 1.961 1.905 1.961zm65.383-27.15c-7.563 7.327-14.352 12.002-19.391 14.889l2.091-22.982a95.84 95.84 0 005.442-4.889c1.612-1.561 3.717-2.421 5.927-2.421 2.413 0 4.652.997 6.305 2.806 1.584 1.733 2.417 3.999 2.346 6.378-.07 2.379-1.036 4.588-2.72 6.219z" fill="#000"/><path d="M104.82 545.27V555h-1.596v-4.256h-4.578V555H97.05v-9.73h1.596v4.172h4.578v-4.172h1.596zm2.569 5.838c0-.775.159-1.461.476-2.058a3.56 3.56 0 013.164-1.89c.607 0 1.134.121 1.582.364.457.233.821.527 1.092.882v-1.12h1.61V555h-1.61v-1.148c-.271.364-.639.667-1.106.91-.467.243-.999.364-1.596.364a3.427 3.427 0 01-1.82-.504 3.736 3.736 0 01-1.316-1.428c-.317-.616-.476-1.311-.476-2.086zm6.314.028c0-.532-.112-.994-.336-1.386a2.259 2.259 0 00-.854-.896 2.256 2.256 0 00-1.148-.308c-.411 0-.793.103-1.148.308-.355.196-.644.49-.868.882-.215.383-.322.84-.322 1.372 0 .532.107.999.322 1.4.224.401.513.709.868.924.364.205.747.308 1.148.308.411 0 .793-.103 1.148-.308.355-.205.639-.504.854-.896.224-.401.336-.868.336-1.4zm6.302-2.716c.271-.355.64-.653 1.106-.896a3.375 3.375 0 011.582-.364 3.45 3.45 0 011.834.504c.56.327.999.789 1.316 1.386.318.597.476 1.283.476 2.058 0 .775-.158 1.47-.476 2.086a3.595 3.595 0 01-1.316 1.428 3.45 3.45 0 01-1.834.504c-.588 0-1.11-.117-1.568-.35a3.608 3.608 0 01-1.12-.896v4.788h-1.596v-11.382h1.596v1.134zm4.69 2.688c0-.532-.112-.989-.336-1.372a2.134 2.134 0 00-.868-.882 2.253 2.253 0 00-1.148-.308c-.401 0-.784.103-1.148.308a2.362 2.362 0 00-.868.896c-.214.392-.322.854-.322 1.386 0 .532.108.999.322 1.4.224.392.514.691.868.896.364.205.747.308 1.148.308.411 0 .794-.103 1.148-.308.364-.215.654-.523.868-.924.224-.401.336-.868.336-1.4zm5.799-2.688c.27-.355.639-.653 1.106-.896.466-.243.994-.364 1.582-.364.672 0 1.283.168 1.834.504.56.327.998.789 1.316 1.386.317.597.476 1.283.476 2.058 0 .775-.159 1.47-.476 2.086a3.602 3.602 0 01-1.316 1.428 3.453 3.453 0 01-1.834.504c-.588 0-1.111-.117-1.568-.35a3.585 3.585 0 01-1.12-.896v4.788h-1.596v-11.382h1.596v1.134zm4.69 2.688c0-.532-.112-.989-.336-1.372a2.14 2.14 0 00-.868-.882 2.259 2.259 0 00-1.148-.308c-.402 0-.784.103-1.148.308a2.354 2.354 0 00-.868.896c-.215.392-.322.854-.322 1.386 0 .532.107.999.322 1.4.224.392.513.691.868.896.364.205.746.308 1.148.308.41 0 .793-.103 1.148-.308.364-.215.653-.523.868-.924.224-.401.336-.868.336-1.4zm11.146-3.822l-4.732 11.34h-1.652l1.568-3.752-3.038-7.588h1.778l2.17 5.88 2.254-5.88h1.652zm6.309 2.828c0-.952.219-1.806.658-2.562a4.749 4.749 0 011.806-1.764 5.04 5.04 0 012.506-.644c1.036 0 1.955.257 2.758.77.812.504 1.4 1.223 1.764 2.156h-1.918c-.252-.513-.602-.896-1.05-1.148-.448-.252-.966-.378-1.554-.378-.644 0-1.218.145-1.722.434a3.064 3.064 0 00-1.19 1.246c-.28.541-.42 1.171-.42 1.89 0 .719.14 1.349.42 1.89.289.541.686.961 1.19 1.26.504.289 1.078.434 1.722.434.588 0 1.106-.126 1.554-.378.448-.252.798-.635 1.05-1.148h1.918c-.364.933-.952 1.652-1.764 2.156-.803.504-1.722.756-2.758.756-.915 0-1.75-.21-2.506-.63a4.851 4.851 0 01-1.806-1.778c-.439-.756-.658-1.61-.658-2.562zm11.828.994c0-.775.159-1.461.476-2.058a3.567 3.567 0 011.316-1.386 3.525 3.525 0 011.848-.504c.607 0 1.134.121 1.582.364.458.233.822.527 1.092.882v-1.12h1.61V555h-1.61v-1.148c-.27.364-.639.667-1.106.91-.466.243-.998.364-1.596.364a3.43 3.43 0 01-1.82-.504 3.744 3.744 0 01-1.316-1.428c-.317-.616-.476-1.311-.476-2.086zm6.314.028c0-.532-.112-.994-.336-1.386a2.252 2.252 0 00-2.002-1.204c-.41 0-.793.103-1.148.308a2.26 2.26 0 00-.868.882c-.214.383-.322.84-.322 1.372 0 .532.108.999.322 1.4.224.401.514.709.868.924.364.205.747.308 1.148.308a2.252 2.252 0 002.002-1.204c.224-.401.336-.868.336-1.4zm4.175 0c0-.793.158-1.489.476-2.086a3.463 3.463 0 011.344-1.4c.569-.327 1.222-.49 1.96-.49.933 0 1.703.224 2.31.672.616.439 1.031 1.069 1.246 1.89h-1.722a1.821 1.821 0 00-.672-.896c-.308-.215-.696-.322-1.162-.322-.654 0-1.176.233-1.568.7-.383.457-.574 1.101-.574 1.932s.191 1.479.574 1.946c.392.467.914.7 1.568.7.924 0 1.535-.406 1.834-1.218h1.722c-.224.784-.644 1.409-1.26 1.876-.616.457-1.382.686-2.296.686-.738 0-1.391-.163-1.96-.49a3.586 3.586 0 01-1.344-1.4c-.318-.607-.476-1.307-.476-2.1zm11.788-2.548v4.27c0 .289.065.499.196.63.14.121.373.182.7.182h.98V555h-1.26c-.719 0-1.269-.168-1.652-.504-.383-.336-.574-.882-.574-1.638v-4.27h-.91v-1.302h.91v-1.918h1.61v1.918h1.876v1.302h-1.876zm11.333-1.302V555h-1.596v-.91a2.638 2.638 0 01-.994.756 3.156 3.156 0 01-1.288.266 3.5 3.5 0 01-1.638-.378 2.784 2.784 0 01-1.134-1.12c-.271-.495-.406-1.092-.406-1.792v-4.536h1.582v4.298c0 .691.173 1.223.518 1.596.345.364.817.546 1.414.546s1.069-.182 1.414-.546c.355-.373.532-.905.532-1.596v-4.298h1.596zm5.906 7.84c-.607 0-1.153-.107-1.638-.322a2.962 2.962 0 01-1.134-.896 2.262 2.262 0 01-.448-1.274h1.652c.028.327.182.602.462.826.289.215.648.322 1.078.322.448 0 .793-.084 1.036-.252.252-.177.378-.401.378-.672 0-.289-.14-.504-.42-.644-.271-.14-.705-.294-1.302-.462a12.75 12.75 0 01-1.414-.462 2.53 2.53 0 01-.952-.686c-.262-.308-.392-.714-.392-1.218 0-.411.121-.784.364-1.12.242-.345.588-.616 1.036-.812.457-.196.98-.294 1.568-.294.877 0 1.582.224 2.114.672.541.439.83 1.041.868 1.806h-1.596a1.137 1.137 0 00-.42-.826c-.252-.205-.593-.308-1.022-.308-.42 0-.742.079-.966.238a.738.738 0 00-.336.63.68.68 0 00.224.518c.149.14.331.252.546.336.214.075.532.173.952.294a9.25 9.25 0 011.372.462c.364.149.676.373.938.672.261.299.396.695.406 1.19 0 .439-.122.831-.364 1.176-.243.345-.588.616-1.036.812-.439.196-.957.294-1.554.294zM415.104 555l-2.24-3.892h-1.218V555h-1.596v-9.73h3.36c.747 0 1.377.131 1.89.392.523.261.91.611 1.162 1.05.261.439.392.929.392 1.47 0 .635-.187 1.213-.56 1.736-.364.513-.929.863-1.694 1.05l2.408 4.032h-1.904zm-3.458-5.166h1.764c.597 0 1.045-.149 1.344-.448.308-.299.462-.7.462-1.204s-.149-.896-.448-1.176c-.299-.289-.751-.434-1.358-.434h-1.764v3.262zm15.32 1.12c0 .289-.019.551-.056.784h-5.894c.046.616.275 1.111.686 1.484.41.373.914.56 1.512.56.858 0 1.465-.359 1.82-1.078h1.722a3.502 3.502 0 01-1.274 1.75c-.607.448-1.363.672-2.268.672-.738 0-1.4-.163-1.988-.49a3.662 3.662 0 01-1.372-1.4c-.327-.607-.49-1.307-.49-2.1 0-.793.158-1.489.476-2.086a3.438 3.438 0 011.358-1.4c.588-.327 1.26-.49 2.016-.49.728 0 1.376.159 1.946.476a3.354 3.354 0 011.33 1.344c.317.569.476 1.227.476 1.974zm-1.666-.504c-.01-.588-.22-1.059-.63-1.414-.411-.355-.92-.532-1.526-.532-.551 0-1.022.177-1.414.532-.392.345-.626.817-.7 1.414h4.27zm5.832-5.81V555h-1.596v-10.36h1.596zm2.564 6.468c0-.775.158-1.461.476-2.058a3.553 3.553 0 013.164-1.89c.606 0 1.134.121 1.582.364.457.233.821.527 1.092.882v-1.12h1.61V555h-1.61v-1.148c-.271.364-.64.667-1.106.91-.467.243-.999.364-1.596.364-.663 0-1.27-.168-1.82-.504a3.728 3.728 0 01-1.316-1.428c-.318-.616-.476-1.311-.476-2.086zm6.314.028c0-.532-.112-.994-.336-1.386a2.266 2.266 0 00-.854-.896 2.259 2.259 0 00-1.148-.308c-.411 0-.794.103-1.148.308-.355.196-.644.49-.868.882-.215.383-.322.84-.322 1.372 0 .532.107.999.322 1.4.224.401.513.709.868.924.364.205.746.308 1.148.308.41 0 .793-.103 1.148-.308.354-.205.639-.504.854-.896.224-.401.336-.868.336-1.4zm8.01-.042l2.492 3.906h-1.806l-1.666-2.618-1.568 2.618h-1.666l2.492-3.794-2.492-3.92h1.806l1.666 2.618 1.568-2.618h1.666l-2.492 3.808zm11.752-.14c0 .289-.018.551-.056.784h-5.894c.047.616.276 1.111.686 1.484.411.373.915.56 1.512.56.859 0 1.466-.359 1.82-1.078h1.722a3.496 3.496 0 01-1.274 1.75c-.606.448-1.362.672-2.268.672-.737 0-1.4-.163-1.988-.49a3.67 3.67 0 01-1.372-1.4c-.326-.607-.49-1.307-.49-2.1 0-.793.159-1.489.476-2.086a3.45 3.45 0 011.358-1.4c.588-.327 1.26-.49 2.016-.49.728 0 1.377.159 1.946.476.57.317 1.013.765 1.33 1.344.318.569.476 1.227.476 1.974zm-1.666-.504c-.009-.588-.219-1.059-.63-1.414-.41-.355-.919-.532-1.526-.532-.55 0-1.022.177-1.414.532-.392.345-.625.817-.7 1.414h4.27zm3.705.658c0-.775.159-1.461.476-2.058a3.56 3.56 0 014.662-1.554c.495.215.887.504 1.176.868v-3.724h1.61V555h-1.61v-1.162c-.261.373-.625.681-1.092.924-.457.243-.985.364-1.582.364a3.525 3.525 0 01-1.848-.504 3.736 3.736 0 01-1.316-1.428c-.317-.616-.476-1.311-.476-2.086zm6.314.028c0-.532-.112-.994-.336-1.386a2.259 2.259 0 00-.854-.896 2.256 2.256 0 00-1.148-.308c-.411 0-.793.103-1.148.308-.355.196-.644.49-.868.882-.215.383-.322.84-.322 1.372 0 .532.107.999.322 1.4.224.401.513.709.868.924.364.205.747.308 1.148.308.411 0 .793-.103 1.148-.308.355-.205.639-.504.854-.896.224-.401.336-.868.336-1.4zm8.811-1.022c0-.952.219-1.806.658-2.562a4.749 4.749 0 011.806-1.764 5.04 5.04 0 012.506-.644c1.036 0 1.955.257 2.758.77.812.504 1.4 1.223 1.764 2.156h-1.918c-.252-.513-.602-.896-1.05-1.148-.448-.252-.966-.378-1.554-.378-.644 0-1.218.145-1.722.434a3.064 3.064 0 00-1.19 1.246c-.28.541-.42 1.171-.42 1.89 0 .719.14 1.349.42 1.89.289.541.686.961 1.19 1.26.504.289 1.078.434 1.722.434.588 0 1.106-.126 1.554-.378.448-.252.798-.635 1.05-1.148h1.918c-.364.933-.952 1.652-1.764 2.156-.803.504-1.722.756-2.758.756-.915 0-1.75-.21-2.506-.63a4.851 4.851 0 01-1.806-1.778c-.439-.756-.658-1.61-.658-2.562zm11.828.994c0-.775.159-1.461.476-2.058a3.56 3.56 0 013.164-1.89c.607 0 1.134.121 1.582.364.457.233.821.527 1.092.882v-1.12h1.61V555h-1.61v-1.148c-.271.364-.639.667-1.106.91-.467.243-.999.364-1.596.364a3.427 3.427 0 01-1.82-.504 3.736 3.736 0 01-1.316-1.428c-.317-.616-.476-1.311-.476-2.086zm6.314.028c0-.532-.112-.994-.336-1.386a2.259 2.259 0 00-.854-.896 2.256 2.256 0 00-1.148-.308c-.411 0-.793.103-1.148.308-.355.196-.644.49-.868.882-.215.383-.322.84-.322 1.372 0 .532.107.999.322 1.4.224.401.513.709.868.924.364.205.747.308 1.148.308.411 0 .793-.103 1.148-.308.355-.205.639-.504.854-.896.224-.401.336-.868.336-1.4zm4.174 0c0-.793.159-1.489.476-2.086a3.476 3.476 0 011.344-1.4c.57-.327 1.223-.49 1.96-.49.934 0 1.704.224 2.31.672.616.439 1.032 1.069 1.246 1.89h-1.722a1.821 1.821 0 00-.672-.896c-.308-.215-.695-.322-1.162-.322-.653 0-1.176.233-1.568.7-.382.457-.574 1.101-.574 1.932s.192 1.479.574 1.946c.392.467.915.7 1.568.7.924 0 1.536-.406 1.834-1.218h1.722c-.224.784-.644 1.409-1.26 1.876-.616.457-1.381.686-2.296.686-.737 0-1.39-.163-1.96-.49a3.6 3.6 0 01-1.344-1.4c-.317-.607-.476-1.307-.476-2.1zm11.789-2.548v4.27c0 .289.065.499.196.63.14.121.373.182.7.182h.98V555h-1.26c-.719 0-1.269-.168-1.652-.504-.383-.336-.574-.882-.574-1.638v-4.27h-.91v-1.302h.91v-1.918h1.61v1.918h1.876v1.302h-1.876zm11.333-1.302V555h-1.596v-.91a2.638 2.638 0 01-.994.756 3.156 3.156 0 01-1.288.266 3.5 3.5 0 01-1.638-.378 2.784 2.784 0 01-1.134-1.12c-.271-.495-.406-1.092-.406-1.792v-4.536h1.582v4.298c0 .691.173 1.223.518 1.596.345.364.817.546 1.414.546s1.069-.182 1.414-.546c.355-.373.532-.905.532-1.596v-4.298h1.596zm5.906 7.84c-.607 0-1.153-.107-1.638-.322a2.962 2.962 0 01-1.134-.896 2.262 2.262 0 01-.448-1.274h1.652c.028.327.182.602.462.826.289.215.648.322 1.078.322.448 0 .793-.084 1.036-.252.252-.177.378-.401.378-.672 0-.289-.14-.504-.42-.644-.271-.14-.705-.294-1.302-.462a12.75 12.75 0 01-1.414-.462 2.53 2.53 0 01-.952-.686c-.262-.308-.392-.714-.392-1.218 0-.411.121-.784.364-1.12.242-.345.588-.616 1.036-.812.457-.196.98-.294 1.568-.294.877 0 1.582.224 2.114.672.541.439.83 1.041.868 1.806h-1.596a1.137 1.137 0 00-.42-.826c-.252-.205-.593-.308-1.022-.308-.42 0-.742.079-.966.238a.738.738 0 00-.336.63.68.68 0 00.224.518c.149.14.331.252.546.336.214.075.532.173.952.294a9.25 9.25 0 011.372.462c.364.149.676.373.938.672.261.299.396.695.406 1.19 0 .439-.122.831-.364 1.176-.243.345-.588.616-1.036.812-.439.196-.957.294-1.554.294z" fill="#263135"/><path d="M394 713c0-5.523 4.477-10 10-10h212c5.523 0 10 4.477 10 10v149c0 5.523-4.477 10-10 10H404c-5.523 0-10-4.477-10-10V713zM394 892c0-5.523 4.477-10 10-10h212c5.523 0 10 4.477 10 10v24c0 5.523-4.477 10-10 10H404c-5.523 0-10-4.477-10-10v-24zM394 946c0-5.523 4.477-10 10-10h212c5.523 0 10 4.477 10 10v24c0 5.523-4.477 10-10 10H404c-5.523 0-10-4.477-10-10v-24z" fill="#fff"/><path d="M411.646 907.712h3.29V909h-4.886v-9.73h1.596v8.442zm8.971 1.414c-.728 0-1.386-.163-1.974-.49a3.635 3.635 0 01-1.386-1.4c-.336-.607-.504-1.307-.504-2.1 0-.784.172-1.479.518-2.086a3.572 3.572 0 011.414-1.4c.597-.327 1.264-.49 2.002-.49.737 0 1.404.163 2.002.49a3.584 3.584 0 011.414 1.4c.345.607.518 1.302.518 2.086 0 .784-.178 1.479-.532 2.086a3.72 3.72 0 01-1.456 1.414 4.182 4.182 0 01-2.016.49zm0-1.386c.41 0 .793-.098 1.148-.294.364-.196.658-.49.882-.882.224-.392.336-.868.336-1.428 0-.56-.108-1.031-.322-1.414a2.17 2.17 0 00-.854-.882 2.338 2.338 0 00-1.148-.294c-.411 0-.794.098-1.148.294-.346.196-.621.49-.826.882-.206.383-.308.854-.308 1.414 0 .831.21 1.475.63 1.932.429.448.966.672 1.61.672zm9.563-.168l2.184-6.286h1.694l-2.94 7.714h-1.904l-2.926-7.714h1.708l2.184 6.286zm13.155-2.618c0 .289-.019.551-.056.784h-5.894c.047.616.275 1.111.686 1.484.411.373.915.56 1.512.56.859 0 1.465-.359 1.82-1.078h1.722a3.496 3.496 0 01-1.274 1.75c-.607.448-1.363.672-2.268.672-.737 0-1.4-.163-1.988-.49a3.662 3.662 0 01-1.372-1.4c-.327-.607-.49-1.307-.49-2.1 0-.793.159-1.489.476-2.086a3.444 3.444 0 011.358-1.4c.588-.327 1.26-.49 2.016-.49.728 0 1.377.159 1.946.476a3.347 3.347 0 011.33 1.344c.317.569.476 1.227.476 1.974zm-1.666-.504c-.009-.588-.219-1.059-.63-1.414-.411-.355-.919-.532-1.526-.532-.551 0-1.022.177-1.414.532-.392.345-.625.817-.7 1.414h4.27zm5.832-5.81V909h-1.596v-10.36h1.596zm10.04 2.646l-4.732 11.34h-1.652l1.568-3.752-3.038-7.588h1.778l2.17 5.88 2.254-5.88h1.652zm6.309 2.828c0-.952.219-1.806.658-2.562a4.749 4.749 0 011.806-1.764 5.04 5.04 0 012.506-.644c1.036 0 1.955.257 2.758.77.812.504 1.4 1.223 1.764 2.156h-1.918c-.252-.513-.602-.896-1.05-1.148-.448-.252-.966-.378-1.554-.378-.644 0-1.218.145-1.722.434a3.064 3.064 0 00-1.19 1.246c-.28.541-.42 1.171-.42 1.89 0 .719.14 1.349.42 1.89.289.541.686.961 1.19 1.26.504.289 1.078.434 1.722.434.588 0 1.106-.126 1.554-.378.448-.252.798-.635 1.05-1.148h1.918c-.364.933-.952 1.652-1.764 2.156-.803.504-1.722.756-2.758.756-.915 0-1.75-.21-2.506-.63a4.851 4.851 0 01-1.806-1.778c-.439-.756-.658-1.61-.658-2.562zm11.828.994c0-.775.159-1.461.476-2.058a3.56 3.56 0 013.164-1.89c.607 0 1.134.121 1.582.364.457.233.821.527 1.092.882v-1.12h1.61V909h-1.61v-1.148c-.271.364-.639.667-1.106.91-.467.243-.999.364-1.596.364a3.427 3.427 0 01-1.82-.504 3.736 3.736 0 01-1.316-1.428c-.317-.616-.476-1.311-.476-2.086zm6.314.028c0-.532-.112-.994-.336-1.386a2.259 2.259 0 00-.854-.896 2.256 2.256 0 00-1.148-.308c-.411 0-.793.103-1.148.308-.355.196-.644.49-.868.882-.215.383-.322.84-.322 1.372 0 .532.107.999.322 1.4.224.401.513.709.868.924.364.205.747.308 1.148.308.411 0 .793-.103 1.148-.308.355-.205.639-.504.854-.896.224-.401.336-.868.336-1.4zm4.174 0c0-.793.159-1.489.476-2.086a3.476 3.476 0 011.344-1.4c.57-.327 1.223-.49 1.96-.49.934 0 1.704.224 2.31.672.616.439 1.032 1.069 1.246 1.89h-1.722a1.821 1.821 0 00-.672-.896c-.308-.215-.695-.322-1.162-.322-.653 0-1.176.233-1.568.7-.382.457-.574 1.101-.574 1.932s.192 1.479.574 1.946c.392.467.915.7 1.568.7.924 0 1.536-.406 1.834-1.218h1.722c-.224.784-.644 1.409-1.26 1.876-.616.457-1.381.686-2.296.686-.737 0-1.39-.163-1.96-.49a3.6 3.6 0 01-1.344-1.4c-.317-.607-.476-1.307-.476-2.1zm11.789-2.548v4.27c0 .289.065.499.196.63.14.121.373.182.7.182h.98V909h-1.26c-.719 0-1.269-.168-1.652-.504-.383-.336-.574-.882-.574-1.638v-4.27h-.91v-1.302h.91v-1.918h1.61v1.918h1.876v1.302h-1.876zm11.333-1.302V909h-1.596v-.91a2.638 2.638 0 01-.994.756 3.156 3.156 0 01-1.288.266 3.5 3.5 0 01-1.638-.378 2.784 2.784 0 01-1.134-1.12c-.271-.495-.406-1.092-.406-1.792v-4.536h1.582v4.298c0 .691.173 1.223.518 1.596.345.364.817.546 1.414.546s1.069-.182 1.414-.546c.355-.373.532-.905.532-1.596v-4.298h1.596zm5.906 7.84c-.607 0-1.153-.107-1.638-.322a2.962 2.962 0 01-1.134-.896 2.262 2.262 0 01-.448-1.274h1.652c.028.327.182.602.462.826.289.215.648.322 1.078.322.448 0 .793-.084 1.036-.252.252-.177.378-.401.378-.672 0-.289-.14-.504-.42-.644-.271-.14-.705-.294-1.302-.462a12.75 12.75 0 01-1.414-.462 2.53 2.53 0 01-.952-.686c-.262-.308-.392-.714-.392-1.218 0-.411.121-.784.364-1.12.242-.345.588-.616 1.036-.812.457-.196.98-.294 1.568-.294.877 0 1.582.224 2.114.672.541.439.83 1.041.868 1.806h-1.596a1.137 1.137 0 00-.42-.826c-.252-.205-.593-.308-1.022-.308-.42 0-.742.079-.966.238a.738.738 0 00-.336.63.68.68 0 00.224.518c.149.14.331.252.546.336.214.075.532.173.952.294a9.25 9.25 0 011.372.462c.364.149.676.373.938.672.261.299.396.695.406 1.19 0 .439-.122.831-.364 1.176-.243.345-.588.616-1.036.812-.439.196-.957.294-1.554.294z" fill="#263135"/><path d="M81 713c0-5.523 4.477-10 10-10h212c5.523 0 10 4.477 10 10v149c0 5.523-4.477 10-10 10H91c-5.523 0-10-4.477-10-10V713zM81 892c0-5.523 4.477-10 10-10h212c5.523 0 10 4.477 10 10v24c0 5.523-4.477 10-10 10H91c-5.523 0-10-4.477-10-10v-24zM81 946c0-5.523 4.477-10 10-10h212c5.523 0 10 4.477 10 10v24c0 5.523-4.477 10-10 10H91c-5.523 0-10-4.477-10-10v-24z" fill="#fff"/><path d="M100.256 909.098c-.653 0-1.241-.112-1.764-.336-.523-.233-.933-.56-1.232-.98-.299-.42-.448-.91-.448-1.47h1.708c.037.42.2.765.49 1.036.299.271.714.406 1.246.406.551 0 .98-.131 1.288-.392.308-.271.462-.616.462-1.036 0-.327-.098-.593-.294-.798a1.856 1.856 0 00-.714-.476c-.28-.112-.672-.233-1.176-.364a12.24 12.24 0 01-1.554-.504 2.627 2.627 0 01-1.008-.812c-.28-.364-.42-.849-.42-1.456 0-.56.14-1.05.42-1.47.28-.42.672-.742 1.176-.966.504-.224 1.087-.336 1.75-.336.943 0 1.713.238 2.31.714.607.467.943 1.111 1.008 1.932h-1.764c-.028-.355-.196-.658-.504-.91s-.714-.378-1.218-.378c-.457 0-.83.117-1.12.35-.29.233-.434.569-.434 1.008 0 .299.089.546.266.742.187.187.42.336.7.448.28.112.663.233 1.148.364.644.177 1.167.355 1.568.532.411.177.756.453 1.036.826.289.364.434.854.434 1.47 0 .495-.135.961-.406 1.4-.261.439-.649.793-1.162 1.064-.504.261-1.101.392-1.792.392zm8.105-6.51v4.27c0 .289.066.499.196.63.14.121.374.182.7.182h.98V909h-1.26c-.718 0-1.269-.168-1.652-.504-.382-.336-.574-.882-.574-1.638v-4.27h-.91v-1.302h.91v-1.918h1.61v1.918h1.876v1.302h-1.876zm5.943-.182a2.48 2.48 0 01.924-.91c.392-.224.854-.336 1.386-.336v1.652h-.406c-.625 0-1.101.159-1.428.476-.317.317-.476.868-.476 1.652V909h-1.596v-7.714h1.596v1.12zm11.847 2.548c0 .289-.018.551-.056.784h-5.894c.047.616.276 1.111.686 1.484.411.373.915.56 1.512.56.859 0 1.466-.359 1.82-1.078h1.722a3.496 3.496 0 01-1.274 1.75c-.606.448-1.362.672-2.268.672-.737 0-1.4-.163-1.988-.49a3.67 3.67 0 01-1.372-1.4c-.326-.607-.49-1.307-.49-2.1 0-.793.159-1.489.476-2.086a3.45 3.45 0 011.358-1.4c.588-.327 1.26-.49 2.016-.49.728 0 1.377.159 1.946.476.57.317 1.013.765 1.33 1.344.318.569.476 1.227.476 1.974zm-1.666-.504c-.009-.588-.219-1.059-.63-1.414-.41-.355-.919-.532-1.526-.532-.55 0-1.022.177-1.414.532-.392.345-.625.817-.7 1.414h4.27zm7.037 4.676c-.607 0-1.153-.107-1.638-.322a2.962 2.962 0 01-1.134-.896 2.27 2.27 0 01-.448-1.274h1.652c.028.327.182.602.462.826.289.215.649.322 1.078.322.448 0 .793-.084 1.036-.252.252-.177.378-.401.378-.672 0-.289-.14-.504-.42-.644-.271-.14-.705-.294-1.302-.462a12.75 12.75 0 01-1.414-.462 2.537 2.537 0 01-.952-.686c-.261-.308-.392-.714-.392-1.218 0-.411.121-.784.364-1.12.243-.345.588-.616 1.036-.812.457-.196.98-.294 1.568-.294.877 0 1.582.224 2.114.672.541.439.831 1.041.868 1.806h-1.596a1.137 1.137 0 00-.42-.826c-.252-.205-.593-.308-1.022-.308-.42 0-.742.079-.966.238a.738.738 0 00-.336.63c0 .205.075.378.224.518.149.14.331.252.546.336.215.075.532.173.952.294a9.25 9.25 0 011.372.462c.364.149.677.373.938.672.261.299.397.695.406 1.19 0 .439-.121.831-.364 1.176s-.588.616-1.036.812c-.439.196-.957.294-1.554.294zm8.478 0a4.007 4.007 0 01-1.638-.322 2.962 2.962 0 01-1.134-.896 2.27 2.27 0 01-.448-1.274h1.652c.028.327.182.602.462.826.29.215.649.322 1.078.322.448 0 .794-.084 1.036-.252.252-.177.378-.401.378-.672 0-.289-.14-.504-.42-.644-.27-.14-.704-.294-1.302-.462a12.82 12.82 0 01-1.414-.462 2.537 2.537 0 01-.952-.686c-.261-.308-.392-.714-.392-1.218 0-.411.122-.784.364-1.12.243-.345.588-.616 1.036-.812.458-.196.98-.294 1.568-.294.878 0 1.582.224 2.114.672.542.439.831 1.041.868 1.806h-1.596a1.137 1.137 0 00-.42-.826c-.252-.205-.592-.308-1.022-.308-.42 0-.742.079-.966.238a.738.738 0 00-.336.63c0 .205.075.378.224.518.15.14.332.252.546.336.215.075.532.173.952.294a9.21 9.21 0 011.372.462c.364.149.677.373.938.672.262.299.397.695.406 1.19 0 .439-.121.831-.364 1.176-.242.345-.588.616-1.036.812-.438.196-.956.294-1.554.294zm12.749-4.172c0 .289-.019.551-.056.784h-5.894c.047.616.275 1.111.686 1.484.411.373.915.56 1.512.56.859 0 1.465-.359 1.82-1.078h1.722a3.496 3.496 0 01-1.274 1.75c-.607.448-1.363.672-2.268.672-.737 0-1.4-.163-1.988-.49a3.662 3.662 0 01-1.372-1.4c-.327-.607-.49-1.307-.49-2.1 0-.793.159-1.489.476-2.086a3.444 3.444 0 011.358-1.4c.588-.327 1.26-.49 2.016-.49.728 0 1.377.159 1.946.476a3.347 3.347 0 011.33 1.344c.317.569.476 1.227.476 1.974zm-1.666-.504c-.009-.588-.219-1.059-.63-1.414-.411-.355-.919-.532-1.526-.532-.551 0-1.022.177-1.414.532-.392.345-.625.817-.7 1.414h4.27zm3.705.658c0-.775.158-1.461.476-2.058a3.553 3.553 0 013.178-1.89c.504 0 .998.112 1.484.336.494.215.886.504 1.176.868v-3.724h1.61V909h-1.61v-1.162c-.262.373-.626.681-1.092.924-.458.243-.985.364-1.582.364a3.525 3.525 0 01-1.848-.504 3.728 3.728 0 01-1.316-1.428c-.318-.616-.476-1.311-.476-2.086zm6.314.028c0-.532-.112-.994-.336-1.386a2.266 2.266 0 00-.854-.896 2.259 2.259 0 00-1.148-.308c-.411 0-.794.103-1.148.308-.355.196-.644.49-.868.882-.215.383-.322.84-.322 1.372 0 .532.107.999.322 1.4.224.401.513.709.868.924.364.205.746.308 1.148.308.41 0 .793-.103 1.148-.308.354-.205.639-.504.854-.896.224-.401.336-.868.336-1.4zm8.811-1.022c0-.952.219-1.806.658-2.562a4.749 4.749 0 011.806-1.764 5.037 5.037 0 012.506-.644c1.036 0 1.955.257 2.758.77.812.504 1.4 1.223 1.764 2.156h-1.918c-.252-.513-.602-.896-1.05-1.148-.448-.252-.966-.378-1.554-.378-.644 0-1.218.145-1.722.434a3.064 3.064 0 00-1.19 1.246c-.28.541-.42 1.171-.42 1.89 0 .719.14 1.349.42 1.89.289.541.686.961 1.19 1.26.504.289 1.078.434 1.722.434.588 0 1.106-.126 1.554-.378.448-.252.798-.635 1.05-1.148h1.918c-.364.933-.952 1.652-1.764 2.156-.803.504-1.722.756-2.758.756-.915 0-1.75-.21-2.506-.63a4.851 4.851 0 01-1.806-1.778c-.439-.756-.658-1.61-.658-2.562zm11.828.994c0-.775.158-1.461.476-2.058a3.553 3.553 0 013.164-1.89c.606 0 1.134.121 1.582.364.457.233.821.527 1.092.882v-1.12h1.61V909h-1.61v-1.148c-.271.364-.64.667-1.106.91-.467.243-.999.364-1.596.364-.663 0-1.27-.168-1.82-.504a3.728 3.728 0 01-1.316-1.428c-.318-.616-.476-1.311-.476-2.086zm6.314.028c0-.532-.112-.994-.336-1.386a2.266 2.266 0 00-.854-.896 2.259 2.259 0 00-1.148-.308c-.411 0-.794.103-1.148.308-.355.196-.644.49-.868.882-.215.383-.322.84-.322 1.372 0 .532.107.999.322 1.4.224.401.513.709.868.924.364.205.746.308 1.148.308.41 0 .793-.103 1.148-.308.354-.205.639-.504.854-.896.224-.401.336-.868.336-1.4zm4.174 0c0-.793.159-1.489.476-2.086a3.476 3.476 0 011.344-1.4c.569-.327 1.223-.49 1.96-.49.933 0 1.703.224 2.31.672.616.439 1.031 1.069 1.246 1.89h-1.722a1.821 1.821 0 00-.672-.896c-.308-.215-.695-.322-1.162-.322-.653 0-1.176.233-1.568.7-.383.457-.574 1.101-.574 1.932s.191 1.479.574 1.946c.392.467.915.7 1.568.7.924 0 1.535-.406 1.834-1.218h1.722c-.224.784-.644 1.409-1.26 1.876-.616.457-1.381.686-2.296.686-.737 0-1.391-.163-1.96-.49a3.6 3.6 0 01-1.344-1.4c-.317-.607-.476-1.307-.476-2.1zm11.788-2.548v4.27c0 .289.066.499.196.63.14.121.374.182.7.182h.98V909h-1.26c-.718 0-1.269-.168-1.652-.504-.382-.336-.574-.882-.574-1.638v-4.27h-.91v-1.302h.91v-1.918h1.61v1.918h1.876v1.302h-1.876zm11.333-1.302V909h-1.596v-.91a2.638 2.638 0 01-.994.756c-.401.177-.83.266-1.288.266a3.505 3.505 0 01-1.638-.378 2.784 2.784 0 01-1.134-1.12c-.27-.495-.406-1.092-.406-1.792v-4.536h1.582v4.298c0 .691.173 1.223.518 1.596.346.364.817.546 1.414.546.598 0 1.069-.182 1.414-.546.355-.373.532-.905.532-1.596v-4.298h1.596zm5.906 7.84a4.007 4.007 0 01-1.638-.322 2.962 2.962 0 01-1.134-.896 2.27 2.27 0 01-.448-1.274h1.652c.028.327.182.602.462.826.29.215.649.322 1.078.322.448 0 .794-.084 1.036-.252.252-.177.378-.401.378-.672 0-.289-.14-.504-.42-.644-.27-.14-.704-.294-1.302-.462a12.82 12.82 0 01-1.414-.462 2.537 2.537 0 01-.952-.686c-.261-.308-.392-.714-.392-1.218 0-.411.122-.784.364-1.12.243-.345.588-.616 1.036-.812.458-.196.98-.294 1.568-.294.878 0 1.582.224 2.114.672.542.439.831 1.041.868 1.806h-1.596a1.137 1.137 0 00-.42-.826c-.252-.205-.592-.308-1.022-.308-.42 0-.742.079-.966.238a.738.738 0 00-.336.63c0 .205.075.378.224.518.15.14.332.252.546.336.215.075.532.173.952.294a9.21 9.21 0 011.372.462c.364.149.677.373.938.672.262.299.397.695.406 1.19 0 .439-.121.831-.364 1.176-.242.345-.588.616-1.036.812-.438.196-.956.294-1.554.294z" fill="#263135"/><path d="M98 597a5 5 0 015-5h49a5 5 0 015 5v16a5 5 0 01-5 5h-49a5 5 0 01-5-5v-16z" fill="#F6376D"/><path d="M104.45 602.75v-1.04h2.08V609h-1.15v-6.25h-.93zm9.346-.06h-3.35v1.99c.14-.187.347-.343.62-.47.28-.127.577-.19.89-.19.56 0 1.013.12 1.36.36.353.24.603.543.75.91.153.367.23.753.23 1.16 0 .493-.097.933-.29 1.32-.187.38-.47.68-.85.9-.373.22-.833.33-1.38.33-.727 0-1.31-.18-1.75-.54-.44-.36-.703-.837-.79-1.43h1.11c.073.313.237.563.49.75.253.18.57.27.95.27.473 0 .827-.143 1.06-.43.24-.287.36-.667.36-1.14 0-.48-.12-.847-.36-1.1-.24-.26-.593-.39-1.06-.39-.327 0-.603.083-.83.25-.22.16-.38.38-.48.66h-1.08v-4.21h4.4v1zm2.687 2.57c0-1.153.193-2.053.58-2.7.393-.653 1.066-.98 2.02-.98.953 0 1.623.327 2.01.98.393.647.59 1.547.59 2.7 0 1.167-.197 2.08-.59 2.74-.387.653-1.057.98-2.01.98-.954 0-1.627-.327-2.02-.98-.387-.66-.58-1.573-.58-2.74zm4.08 0c0-.54-.037-.997-.11-1.37-.067-.373-.207-.677-.42-.91-.214-.24-.53-.36-.95-.36-.42 0-.737.12-.95.36-.214.233-.357.537-.43.91-.067.373-.1.83-.1 1.37 0 .56.033 1.03.1 1.41.066.38.206.687.42.92.22.233.54.35.96.35.42 0 .736-.117.95-.35.22-.233.363-.54.43-.92.066-.38.1-.85.1-1.41zm14.394-3.21V609h-1.14v-4.76l-2.12 4.76h-.79l-2.13-4.76V609h-1.14v-6.95h1.23l2.44 5.45 2.43-5.45h1.22zm6.328 6.95l-2.69-3.11V609h-1.14v-6.95h1.14v3.17l2.7-3.17h1.43l-3.02 3.48 3.07 3.47h-1.49zm5.768-6.95c.74 0 1.387.143 1.94.43.56.28.99.687 1.29 1.22.307.527.46 1.143.46 1.85 0 .707-.153 1.32-.46 1.84-.3.52-.73.92-1.29 1.2-.553.273-1.2.41-1.94.41h-2.27v-6.95h2.27zm0 6.02c.814 0 1.437-.22 1.87-.66.434-.44.65-1.06.65-1.86 0-.807-.216-1.437-.65-1.89-.433-.453-1.056-.68-1.87-.68h-1.13v5.09h1.13z" fill="#fff"/><path d="M268 715a5 5 0 015-5h27a5 5 0 015 5v16a5 5 0 01-5 5h-27a5 5 0 01-5-5v-16z" fill="#F6376D"/><path d="M277.53 721.4c.433 0 .82.09 1.16.27.347.18.617.447.81.8.193.353.29.78.29 1.28V727h-1.13v-3.08c0-.493-.123-.87-.37-1.13-.247-.267-.583-.4-1.01-.4-.427 0-.767.133-1.02.4-.247.26-.37.637-.37 1.13V727h-1.14v-5.51h1.14v.63c.187-.227.423-.403.71-.53.293-.127.603-.19.93-.19zm9.764 2.71c0 .207-.013.393-.04.56h-4.21c.033.44.197.793.49 1.06s.653.4 1.08.4c.613 0 1.047-.257 1.3-.77h1.23a2.5 2.5 0 01-.91 1.25c-.433.32-.973.48-1.62.48-.527 0-1-.117-1.42-.35a2.616 2.616 0 01-.98-1c-.233-.433-.35-.933-.35-1.5s.113-1.063.34-1.49a2.46 2.46 0 01.97-1c.42-.233.9-.35 1.44-.35.52 0 .983.113 1.39.34.407.227.723.547.95.96.227.407.34.877.34 1.41zm-1.19-.36c-.007-.42-.157-.757-.45-1.01-.293-.253-.657-.38-1.09-.38-.393 0-.73.127-1.01.38-.28.247-.447.583-.5 1.01h3.05zm10.712-2.26l-1.71 5.51h-1.2l-1.11-4.07-1.11 4.07h-1.2l-1.72-5.51h1.16l1.15 4.43 1.17-4.43h1.19l1.12 4.41 1.14-4.41h1.12z" fill="#fff"/><path d="M411 597a5 5 0 015-5h49a5 5 0 015 5v16a5 5 0 01-5 5h-49a5 5 0 01-5-5v-16z" fill="#F6376D"/><path d="M417.45 602.75v-1.04h2.08V609h-1.15v-6.25h-.93zm9.346-.06h-3.35v1.99c.14-.187.347-.343.62-.47.28-.127.577-.19.89-.19.56 0 1.013.12 1.36.36.353.24.603.543.75.91.153.367.23.753.23 1.16 0 .493-.097.933-.29 1.32-.187.38-.47.68-.85.9-.373.22-.833.33-1.38.33-.727 0-1.31-.18-1.75-.54-.44-.36-.703-.837-.79-1.43h1.11c.073.313.237.563.49.75.253.18.57.27.95.27.473 0 .827-.143 1.06-.43.24-.287.36-.667.36-1.14 0-.48-.12-.847-.36-1.1-.24-.26-.593-.39-1.06-.39-.327 0-.603.083-.83.25-.22.16-.38.38-.48.66h-1.08v-4.21h4.4v1zm2.687 2.57c0-1.153.193-2.053.58-2.7.393-.653 1.066-.98 2.02-.98.953 0 1.623.327 2.01.98.393.647.59 1.547.59 2.7 0 1.167-.197 2.08-.59 2.74-.387.653-1.057.98-2.01.98-.954 0-1.627-.327-2.02-.98-.387-.66-.58-1.573-.58-2.74zm4.08 0c0-.54-.037-.997-.11-1.37-.067-.373-.207-.677-.42-.91-.214-.24-.53-.36-.95-.36-.42 0-.737.12-.95.36-.214.233-.357.537-.43.91-.067.373-.1.83-.1 1.37 0 .56.033 1.03.1 1.41.066.38.206.687.42.92.22.233.54.35.96.35.42 0 .736-.117.95-.35.22-.233.363-.54.43-.92.066-.38.1-.85.1-1.41zm14.394-3.21V609h-1.14v-4.76l-2.12 4.76h-.79l-2.13-4.76V609h-1.14v-6.95h1.23l2.44 5.45 2.43-5.45h1.22zm6.328 6.95l-2.69-3.11V609h-1.14v-6.95h1.14v3.17l2.7-3.17h1.43l-3.02 3.48 3.07 3.47h-1.49zm5.768-6.95c.74 0 1.387.143 1.94.43.56.28.99.687 1.29 1.22.307.527.46 1.143.46 1.85 0 .707-.153 1.32-.46 1.84-.3.52-.73.92-1.29 1.2-.553.273-1.2.41-1.94.41h-2.27v-6.95h2.27zm0 6.02c.814 0 1.437-.22 1.87-.66.434-.44.65-1.06.65-1.86 0-.807-.216-1.437-.65-1.89-.433-.453-1.056-.68-1.87-.68h-1.13v5.09h1.13z" fill="#fff"/><path d="M284.19 389.838l-.001.019a3.253 3.253 0 001.795 3.091l.012.006c.41.202.746.535.958.949l.005.009a3.27 3.27 0 003.09 1.776l.019-.001c.469-.027.934.097 1.33.356a3.29 3.29 0 003.577 0 2.196 2.196 0 011.33-.356l.02.001a3.272 3.272 0 003.09-1.778l.003-.006a2.15 2.15 0 01.961-.951l.009-.005a3.254 3.254 0 001.796-3.091l-.001-.018a2.12 2.12 0 01.35-1.285 3.265 3.265 0 00.001-3.605 2.118 2.118 0 01-.351-1.284l.001-.02a3.254 3.254 0 00-1.797-3.091l-.01-.006a2.139 2.139 0 01-.957-.945l-.006-.013a3.27 3.27 0 00-3.089-1.775l-.02.001a2.203 2.203 0 01-1.33-.356 3.29 3.29 0 00-3.577 0 2.203 2.203 0 01-1.33.356l-.02-.002a3.27 3.27 0 00-3.089 1.776l-.004.008a2.156 2.156 0 01-.959.951l-.012.005a3.255 3.255 0 00-1.795 3.091l.001.018c.024.457-.099.909-.35 1.285a3.263 3.263 0 000 3.605c.25.377.374.829.35 1.285zm.543-4.255a3.257 3.257 0 00.54-1.983l-.001-.019a2.134 2.134 0 011.186-2.021l.009-.004a3.247 3.247 0 001.448-1.435l.005-.011a2.19 2.19 0 012.071-1.179l.019.001c.693.04 1.38-.144 1.967-.526a2.223 2.223 0 012.419 0 3.256 3.256 0 001.967.526l.019-.001a2.186 2.186 0 012.07 1.177l.007.014c.32.625.827 1.128 1.446 1.433l.009.005a2.134 2.134 0 011.187 2.022l-.002.02c-.037.704.154 1.4.541 1.982a2.113 2.113 0 010 2.335 3.268 3.268 0 00-.541 1.983l.002.019a2.135 2.135 0 01-1.187 2.022l-.008.004a3.238 3.238 0 00-1.449 1.437l-.004.008a2.186 2.186 0 01-2.071 1.179l-.019-.001a3.257 3.257 0 00-1.967.527 2.223 2.223 0 01-2.419 0 3.26 3.26 0 00-1.967-.527l-.019.001a2.186 2.186 0 01-2.072-1.18l-.006-.011a3.228 3.228 0 00-1.445-1.432l-.01-.005a2.136 2.136 0 01-1.186-2.022l.001-.02a3.263 3.263 0 00-.541-1.982 2.115 2.115 0 01.001-2.335v-.001z" fill="#F6376D"/><path d="M289.684 392.529a.533.533 0 00.748-.178l6.429-10.607a.574.574 0 00.023-.562.543.543 0 00-.463-.298.541.541 0 00-.481.268l-6.429 10.607a.57.57 0 00.173.77zM290.26 386.779c1.322 0 2.397-1.263 2.397-2.815s-1.075-2.815-2.397-2.815c-1.321 0-2.396 1.263-2.396 2.815s1.075 2.815 2.396 2.815zm0-4.512c.724 0 1.312.761 1.312 1.697s-.588 1.697-1.312 1.697c-.722 0-1.311-.762-1.311-1.697s.589-1.697 1.311-1.697zM293.715 389.539c0 1.552 1.075 2.815 2.397 2.815 1.322 0 2.397-1.263 2.397-2.815s-1.075-2.815-2.397-2.815c-1.322 0-2.397 1.263-2.397 2.815zm3.709 0c0 .936-.589 1.697-1.312 1.697-.723 0-1.311-.761-1.311-1.697s.588-1.697 1.311-1.697 1.312.761 1.312 1.697zM597.19 389.838l-.001.019a3.253 3.253 0 001.795 3.091l.012.006c.41.202.746.535.958.949l.005.009a3.27 3.27 0 003.09 1.776l.019-.001c.469-.027.934.097 1.33.356a3.29 3.29 0 003.577 0 2.196 2.196 0 011.33-.356l.02.001a3.272 3.272 0 003.09-1.778l.003-.006a2.15 2.15 0 01.961-.951l.009-.005a3.254 3.254 0 001.796-3.091l-.001-.018a2.12 2.12 0 01.35-1.285 3.265 3.265 0 00.001-3.605 2.118 2.118 0 01-.351-1.284l.001-.02a3.254 3.254 0 00-1.797-3.091l-.01-.006a2.139 2.139 0 01-.957-.945l-.006-.013a3.27 3.27 0 00-3.089-1.775l-.02.001a2.203 2.203 0 01-1.33-.356 3.29 3.29 0 00-3.577 0 2.203 2.203 0 01-1.33.356l-.02-.002a3.27 3.27 0 00-3.089 1.776l-.004.008a2.156 2.156 0 01-.959.951l-.012.005a3.255 3.255 0 00-1.795 3.091l.001.018c.024.457-.099.909-.35 1.285a3.263 3.263 0 000 3.605c.25.377.374.829.35 1.285zm.543-4.255a3.257 3.257 0 00.54-1.983l-.001-.019a2.134 2.134 0 011.186-2.021l.009-.004a3.247 3.247 0 001.448-1.435l.005-.011a2.19 2.19 0 012.071-1.179l.019.001c.693.04 1.38-.144 1.967-.526a2.223 2.223 0 012.419 0 3.256 3.256 0 001.967.526l.019-.001a2.186 2.186 0 012.07 1.177l.007.014c.32.625.827 1.128 1.446 1.433l.009.005a2.134 2.134 0 011.187 2.022l-.002.02c-.037.704.154 1.4.541 1.982a2.113 2.113 0 010 2.335 3.268 3.268 0 00-.541 1.983l.002.019a2.135 2.135 0 01-1.187 2.022l-.008.004a3.238 3.238 0 00-1.449 1.437l-.004.008a2.186 2.186 0 01-2.071 1.179l-.019-.001a3.257 3.257 0 00-1.967.527 2.223 2.223 0 01-2.419 0 3.26 3.26 0 00-1.967-.527l-.019.001a2.186 2.186 0 01-2.072-1.18l-.006-.011a3.228 3.228 0 00-1.445-1.432l-.01-.005a2.136 2.136 0 01-1.186-2.022l.001-.02a3.263 3.263 0 00-.541-1.982 2.115 2.115 0 01.001-2.335v-.001z" fill="#F6376D"/><path d="M602.684 392.529a.533.533 0 00.748-.178l6.429-10.607a.574.574 0 00.023-.562.543.543 0 00-.463-.298.541.541 0 00-.481.268l-6.429 10.607a.57.57 0 00.173.77zM603.26 386.779c1.322 0 2.397-1.263 2.397-2.815s-1.075-2.815-2.397-2.815c-1.321 0-2.396 1.263-2.396 2.815s1.075 2.815 2.396 2.815zm0-4.512c.724 0 1.312.761 1.312 1.697s-.588 1.697-1.312 1.697c-.722 0-1.311-.762-1.311-1.697s.589-1.697 1.311-1.697zM606.715 389.539c0 1.552 1.075 2.815 2.397 2.815 1.322 0 2.397-1.263 2.397-2.815s-1.075-2.815-2.397-2.815c-1.322 0-2.397 1.263-2.397 2.815zm3.709 0c0 .936-.589 1.697-1.312 1.697-.723 0-1.311-.761-1.311-1.697s.588-1.697 1.311-1.697 1.312.761 1.312 1.697z" fill="#F6376D"/><path d="M176.58 602.51c.04-.62.277-1.103.71-1.45.44-.347 1-.52 1.68-.52.467 0 .87.083 1.21.25.34.167.597.393.77.68.173.287.26.61.26.97 0 .413-.11.767-.33 1.06-.22.293-.483.49-.79.59v.04c.393.12.7.34.92.66.22.313.33.717.33 1.21 0 .393-.09.743-.27 1.05-.18.307-.447.55-.8.73-.353.173-.777.26-1.27.26-.72 0-1.313-.183-1.78-.55-.46-.373-.707-.907-.74-1.6h1.1c.027.353.163.643.41.87.247.22.58.33 1 .33.407 0 .72-.11.94-.33.22-.227.33-.517.33-.87 0-.467-.15-.797-.45-.99-.293-.2-.747-.3-1.36-.3h-.26v-.94h.27c.54-.007.95-.097 1.23-.27.287-.173.43-.447.43-.82 0-.32-.103-.573-.31-.76-.207-.193-.5-.29-.88-.29-.373 0-.663.097-.87.29a1.13 1.13 0 00-.37.7h-1.11zm6.958 1.75c0-1.153.193-2.053.58-2.7.393-.653 1.066-.98 2.02-.98.953 0 1.623.327 2.01.98.393.647.59 1.547.59 2.7 0 1.167-.197 2.08-.59 2.74-.387.653-1.057.98-2.01.98-.954 0-1.627-.327-2.02-.98-.387-.66-.58-1.573-.58-2.74zm4.08 0c0-.54-.037-.997-.11-1.37-.067-.373-.207-.677-.42-.91-.214-.24-.53-.36-.95-.36-.42 0-.737.12-.95.36-.214.233-.357.537-.43.91-.067.373-.1.83-.1 1.37 0 .56.033 1.03.1 1.41.066.38.206.687.42.92.22.233.54.35.96.35.42 0 .736-.117.95-.35.22-.233.363-.54.43-.92.066-.38.1-.85.1-1.41zm3.326 0c0-1.153.193-2.053.58-2.7.393-.653 1.066-.98 2.02-.98.953 0 1.623.327 2.01.98.393.647.59 1.547.59 2.7 0 1.167-.197 2.08-.59 2.74-.387.653-1.057.98-2.01.98-.954 0-1.627-.327-2.02-.98-.387-.66-.58-1.573-.58-2.74zm4.08 0c0-.54-.037-.997-.11-1.37-.067-.373-.207-.677-.42-.91-.214-.24-.53-.36-.95-.36-.42 0-.737.12-.95.36-.214.233-.357.537-.43.91-.067.373-.1.83-.1 1.37 0 .56.033 1.03.1 1.41.066.38.206.687.42.92.22.233.54.35.96.35.42 0 .736-.117.95-.35.22-.233.363-.54.43-.92.066-.38.1-.85.1-1.41zm14.394-3.21V608h-1.14v-4.76l-2.12 4.76h-.79l-2.13-4.76V608h-1.14v-6.95h1.23l2.44 5.45 2.43-5.45h1.22zm6.328 6.95l-2.69-3.11V608h-1.14v-6.95h1.14v3.17l2.7-3.17h1.43l-3.02 3.48 3.07 3.47h-1.49zm5.768-6.95c.74 0 1.387.143 1.94.43.56.28.99.687 1.29 1.22.307.527.46 1.143.46 1.85 0 .707-.153 1.32-.46 1.84-.3.52-.73.92-1.29 1.2-.553.273-1.2.41-1.94.41h-2.27v-6.95h2.27zm0 6.02c.813 0 1.437-.22 1.87-.66.433-.44.65-1.06.65-1.86 0-.807-.217-1.437-.65-1.89-.433-.453-1.057-.68-1.87-.68h-1.13v5.09h1.13z" fill="#687C94"/><path d="M171.5 604H230" stroke="#F6376D"/><path d="M489.58 602.51c.04-.62.277-1.103.71-1.45.44-.347 1-.52 1.68-.52.467 0 .87.083 1.21.25.34.167.597.393.77.68.173.287.26.61.26.97 0 .413-.11.767-.33 1.06-.22.293-.483.49-.79.59v.04c.393.12.7.34.92.66.22.313.33.717.33 1.21 0 .393-.09.743-.27 1.05-.18.307-.447.55-.8.73-.353.173-.777.26-1.27.26-.72 0-1.313-.183-1.78-.55-.46-.373-.707-.907-.74-1.6h1.1c.027.353.163.643.41.87.247.22.58.33 1 .33.407 0 .72-.11.94-.33.22-.227.33-.517.33-.87 0-.467-.15-.797-.45-.99-.293-.2-.747-.3-1.36-.3h-.26v-.94h.27c.54-.007.95-.097 1.23-.27.287-.173.43-.447.43-.82 0-.32-.103-.573-.31-.76-.207-.193-.5-.29-.88-.29-.373 0-.663.097-.87.29a1.13 1.13 0 00-.37.7h-1.11zm6.958 1.75c0-1.153.193-2.053.58-2.7.393-.653 1.066-.98 2.02-.98.953 0 1.623.327 2.01.98.393.647.59 1.547.59 2.7 0 1.167-.197 2.08-.59 2.74-.387.653-1.057.98-2.01.98-.954 0-1.627-.327-2.02-.98-.387-.66-.58-1.573-.58-2.74zm4.08 0c0-.54-.037-.997-.11-1.37-.067-.373-.207-.677-.42-.91-.214-.24-.53-.36-.95-.36-.42 0-.737.12-.95.36-.214.233-.357.537-.43.91-.067.373-.1.83-.1 1.37 0 .56.033 1.03.1 1.41.066.38.206.687.42.92.22.233.54.35.96.35.42 0 .736-.117.95-.35.22-.233.363-.54.43-.92.066-.38.1-.85.1-1.41zm3.326 0c0-1.153.193-2.053.58-2.7.393-.653 1.066-.98 2.02-.98.953 0 1.623.327 2.01.98.393.647.59 1.547.59 2.7 0 1.167-.197 2.08-.59 2.74-.387.653-1.057.98-2.01.98-.954 0-1.627-.327-2.02-.98-.387-.66-.58-1.573-.58-2.74zm4.08 0c0-.54-.037-.997-.11-1.37-.067-.373-.207-.677-.42-.91-.214-.24-.53-.36-.95-.36-.42 0-.737.12-.95.36-.214.233-.357.537-.43.91-.067.373-.1.83-.1 1.37 0 .56.033 1.03.1 1.41.066.38.206.687.42.92.22.233.54.35.96.35.42 0 .736-.117.95-.35.22-.233.363-.54.43-.92.066-.38.1-.85.1-1.41zm14.394-3.21V608h-1.14v-4.76l-2.12 4.76h-.79l-2.13-4.76V608h-1.14v-6.95h1.23l2.44 5.45 2.43-5.45h1.22zm6.328 6.95l-2.69-3.11V608h-1.14v-6.95h1.14v3.17l2.7-3.17h1.43l-3.02 3.48 3.07 3.47h-1.49zm5.768-6.95c.74 0 1.387.143 1.94.43.56.28.99.687 1.29 1.22.307.527.46 1.143.46 1.85 0 .707-.153 1.32-.46 1.84-.3.52-.73.92-1.29 1.2-.553.273-1.2.41-1.94.41h-2.27v-6.95h2.27zm0 6.02c.813 0 1.437-.22 1.87-.66.433-.44.65-1.06.65-1.86 0-.807-.217-1.437-.65-1.89-.433-.453-1.057-.68-1.87-.68h-1.13v5.09h1.13z" fill="#687C94"/><path d="M484.5 604H543" stroke="#F6376D"/><path d="M414.08 956.51c.04-.62.277-1.103.71-1.45.44-.347 1-.52 1.68-.52.467 0 .87.083 1.21.25.34.167.597.393.77.68.173.287.26.61.26.97 0 .413-.11.767-.33 1.06-.22.293-.483.49-.79.59v.04c.393.12.7.34.92.66.22.313.33.717.33 1.21 0 .393-.09.743-.27 1.05-.18.307-.447.55-.8.73-.353.173-.777.26-1.27.26-.72 0-1.313-.183-1.78-.55-.46-.373-.707-.907-.74-1.6h1.1c.027.353.163.643.41.87.247.22.58.33 1 .33.407 0 .72-.11.94-.33.22-.227.33-.517.33-.87 0-.467-.15-.797-.45-.99-.293-.2-.747-.3-1.36-.3h-.26v-.94h.27c.54-.007.95-.097 1.23-.27.287-.173.43-.447.43-.82 0-.32-.103-.573-.31-.76-.207-.193-.5-.29-.88-.29-.373 0-.663.097-.87.29a1.13 1.13 0 00-.37.7h-1.11zm6.958 1.75c0-1.153.193-2.053.58-2.7.393-.653 1.066-.98 2.02-.98.953 0 1.623.327 2.01.98.393.647.59 1.547.59 2.7 0 1.167-.197 2.08-.59 2.74-.387.653-1.057.98-2.01.98-.954 0-1.627-.327-2.02-.98-.387-.66-.58-1.573-.58-2.74zm4.08 0c0-.54-.037-.997-.11-1.37-.067-.373-.207-.677-.42-.91-.214-.24-.53-.36-.95-.36-.42 0-.737.12-.95.36-.214.233-.357.537-.43.91-.067.373-.1.83-.1 1.37 0 .56.033 1.03.1 1.41.066.38.206.687.42.92.22.233.54.35.96.35.42 0 .736-.117.95-.35.22-.233.363-.54.43-.92.066-.38.1-.85.1-1.41zm3.326 0c0-1.153.193-2.053.58-2.7.393-.653 1.066-.98 2.02-.98.953 0 1.623.327 2.01.98.393.647.59 1.547.59 2.7 0 1.167-.197 2.08-.59 2.74-.387.653-1.057.98-2.01.98-.954 0-1.627-.327-2.02-.98-.387-.66-.58-1.573-.58-2.74zm4.08 0c0-.54-.037-.997-.11-1.37-.067-.373-.207-.677-.42-.91-.214-.24-.53-.36-.95-.36-.42 0-.737.12-.95.36-.214.233-.357.537-.43.91-.067.373-.1.83-.1 1.37 0 .56.033 1.03.1 1.41.066.38.206.687.42.92.22.233.54.35.96.35.42 0 .736-.117.95-.35.22-.233.363-.54.43-.92.066-.38.1-.85.1-1.41zm14.394-3.21V962h-1.14v-4.76l-2.12 4.76h-.79l-2.13-4.76V962h-1.14v-6.95h1.23l2.44 5.45 2.43-5.45h1.22zm6.328 6.95l-2.69-3.11V962h-1.14v-6.95h1.14v3.17l2.7-3.17h1.43l-3.02 3.48 3.07 3.47h-1.49zm5.768-6.95c.74 0 1.387.143 1.94.43.56.28.99.687 1.29 1.22.307.527.46 1.143.46 1.85 0 .707-.153 1.32-.46 1.84-.3.52-.73.92-1.29 1.2-.553.273-1.2.41-1.94.41h-2.27v-6.95h2.27zm0 6.02c.813 0 1.437-.22 1.87-.66.433-.44.65-1.06.65-1.86 0-.807-.217-1.437-.65-1.89-.433-.453-1.057-.68-1.87-.68h-1.13v5.09h1.13zM101.08 956.51c.04-.62.277-1.103.71-1.45.44-.347 1-.52 1.68-.52.467 0 .87.083 1.21.25.34.167.597.393.77.68.173.287.26.61.26.97 0 .413-.11.767-.33 1.06-.22.293-.483.49-.79.59v.04c.393.12.7.34.92.66.22.313.33.717.33 1.21 0 .393-.09.743-.27 1.05-.18.307-.447.55-.8.73-.353.173-.777.26-1.27.26-.72 0-1.313-.183-1.78-.55-.46-.373-.707-.907-.74-1.6h1.1c.027.353.163.643.41.87.247.22.58.33 1 .33.407 0 .72-.11.94-.33.22-.227.33-.517.33-.87 0-.467-.15-.797-.45-.99-.293-.2-.747-.3-1.36-.3h-.26v-.94h.27c.54-.007.95-.097 1.23-.27.287-.173.43-.447.43-.82 0-.32-.103-.573-.31-.76-.207-.193-.5-.29-.88-.29-.373 0-.663.097-.87.29a1.13 1.13 0 00-.37.7h-1.11zm6.958 1.75c0-1.153.193-2.053.58-2.7.393-.653 1.066-.98 2.02-.98.953 0 1.623.327 2.01.98.393.647.59 1.547.59 2.7 0 1.167-.197 2.08-.59 2.74-.387.653-1.057.98-2.01.98-.954 0-1.627-.327-2.02-.98-.387-.66-.58-1.573-.58-2.74zm4.08 0c0-.54-.037-.997-.11-1.37-.067-.373-.207-.677-.42-.91-.214-.24-.53-.36-.95-.36-.42 0-.737.12-.95.36-.214.233-.357.537-.43.91-.067.373-.1.83-.1 1.37 0 .56.033 1.03.1 1.41.066.38.206.687.42.92.22.233.54.35.96.35.42 0 .736-.117.95-.35.22-.233.363-.54.43-.92.066-.38.1-.85.1-1.41zm3.326 0c0-1.153.193-2.053.58-2.7.393-.653 1.066-.98 2.02-.98.953 0 1.623.327 2.01.98.393.647.59 1.547.59 2.7 0 1.167-.197 2.08-.59 2.74-.387.653-1.057.98-2.01.98-.954 0-1.627-.327-2.02-.98-.387-.66-.58-1.573-.58-2.74zm4.08 0c0-.54-.037-.997-.11-1.37-.067-.373-.207-.677-.42-.91-.214-.24-.53-.36-.95-.36-.42 0-.737.12-.95.36-.214.233-.357.537-.43.91-.067.373-.1.83-.1 1.37 0 .56.033 1.03.1 1.41.066.38.206.687.42.92.22.233.54.35.96.35.42 0 .736-.117.95-.35.22-.233.363-.54.43-.92.066-.38.1-.85.1-1.41zm14.394-3.21V962h-1.14v-4.76l-2.12 4.76h-.79l-2.13-4.76V962h-1.14v-6.95h1.23l2.44 5.45 2.43-5.45h1.22zm6.328 6.95l-2.69-3.11V962h-1.14v-6.95h1.14v3.17l2.7-3.17h1.43l-3.02 3.48 3.07 3.47h-1.49zm5.768-6.95c.74 0 1.387.143 1.94.43.56.28.99.687 1.29 1.22.307.527.46 1.143.46 1.85 0 .707-.153 1.32-.46 1.84-.3.52-.73.92-1.29 1.2-.553.273-1.2.41-1.94.41h-2.27v-6.95h2.27zm0 6.02c.813 0 1.437-.22 1.87-.66.433-.44.65-1.06.65-1.86 0-.807-.217-1.437-.65-1.89-.433-.453-1.057-.68-1.87-.68h-1.13v5.09h1.13z" fill="#687C94"/><path d="M524.635 390.626c-7.682-6.617-19.117-5.569-25.543 2.342-2.729 3.359-4.223 7.596-4.225 11.975v65.362h36.266v-65.362c.002-5.528-2.378-10.773-6.498-14.317z" fill="#27AE60"/><path d="M531.133 470.305h-54.4v30.347c0 7.736 6.089 14.007 13.6 14.007h45.334c7.511 0 13.6-6.271 13.6-14.007v-30.347h-18.134z" fill="#B3C6E4"/><path d="M549.267 467.971H533.4v-16.34h6.8v-4.669h-6.8v-14.006h6.8v-4.669h-6.8v-14.006h6.8v-4.669h-6.8v-4.668c0-5.335-1.981-10.463-5.535-14.343l4.368-4.498-3.205-3.301-4.606 4.743a19.94 19.94 0 00-9.155-3.473v-7.141h-4.534v7.141a19.928 19.928 0 00-9.155 3.473l-4.606-4.743-3.205 3.301 4.368 4.498c-3.554 3.88-5.535 9.008-5.535 14.343v4.668h-6.8v4.669h6.8v14.006h-6.8v4.669h6.8v14.006h-6.8v4.669h6.8v16.34h-15.867c-1.251 0-2.266 1.046-2.266 2.335v30.346c.009 9.02 7.108 16.331 15.866 16.341h45.334c8.758-.01 15.857-7.321 15.866-16.341v-30.346c0-1.289-1.015-2.335-2.266-2.335zm-52.134-63.027c0-9.025 7.104-16.341 15.867-16.341 8.763 0 15.867 7.316 15.867 16.341v63.027h-4.534v-51.356H519.8v51.356h-4.533v-67.696h-4.534v67.696H506.2v-39.684h-4.533v39.684h-4.534v-63.027zM547 500.653c-.007 6.442-5.077 11.664-11.333 11.672h-45.334c-6.256-.008-11.326-5.23-11.333-11.672V472.64h68v28.013z" fill="#231F20"/><path d="M540.2 500.652h-4.533v4.669h4.533v-4.669zM540.2 491.315h-4.533v4.668h4.533v-4.668zM531.134 500.652H526.6v4.669h4.534v-4.669z" fill="#231F20"/><path d="M539.725 777.017c-9.118-9.411-23.918-9.427-33.056-.036l-.035.036-4.134 4.257-4.134-4.257c-9.064-9.487-23.88-9.612-33.091-.277-9.212 9.334-9.333 24.593-.27 34.08.09.092.18.187.27.277l4.134 4.257 6.883 7.09h.01l12.548 12.933h27.3l12.549-12.923 6.883-7.089 4.134-4.258c9.138-9.391 9.153-24.633.035-34.044a1.172 1.172 0 00-.035-.036l.009-.01z" fill="#27AE60"/><path d="M539.55 843.409h-74.1v36.148h74.1v-36.148z" fill="#DEEAF8"/><path d="M543.45 843.409v-8.033h-81.9v8.033h81.9z" fill="#F6376D"/><path d="M555.15 795.211v-4.016h-6.769c-.544-5.22-2.624-10.144-5.963-14.112l4.205-4.332-2.758-2.844-4.208 4.338c-3.871-3.444-8.67-5.589-13.757-6.145v-7.029H522V768c-6.31.277-12.287 2.99-16.745 7.597l-.805.829v-7.322h-3.9v7.322l-.806-.829c-4.457-4.607-10.434-7.32-16.744-7.597v-6.929h-3.9v7.029c-5.088.556-9.887 2.699-13.757 6.145l-4.209-4.338-2.757 2.844 4.204 4.332c-3.336 3.968-5.417 8.892-5.963 14.112h-6.768v4.016h6.665c.209 5.133 1.897 10.086 4.85 14.225l-4.366 4.496 2.757 2.84 4.134-4.26 9.648 9.937-4.137 4.262 2.763 2.841 4.138-4.261 7.841 8.077H461.55c-1.076 0-1.95.9-1.95 2.008v8.033c0 1.108.874 2.008 1.95 2.008h1.95v34.14c0 1.109.873 2.008 1.95 2.008h74.1c1.076 0 1.95-.899 1.95-2.008v-34.14h1.95c1.076 0 1.95-.9 1.95-2.008v-8.033c0-1.108-.874-2.008-1.95-2.008h-22.593l7.841-8.075 4.138 4.259 2.757-2.839-4.138-4.262 9.655-9.935 4.136 4.26 2.757-2.84-4.358-4.5a26.342 26.342 0 004.84-14.225h6.665zm-17.55 82.338h-70.2v-32.132h70.2v32.132zm3.9-36.148h-78v-4.017h78v4.017zm-3.153-31.73l-23.004 23.697h-25.686l-23.01-23.697c-8.432-8.571-8.519-22.557-.197-31.241 8.323-8.683 21.903-8.774 30.334-.203.069.069.137.139.203.209l4.134 4.258a1.912 1.912 0 002.757 0l4.135-4.258c8.246-8.76 21.826-8.977 30.33-.484 8.504 8.493 8.716 22.478.47 31.236-.152.163-.308.324-.466.483z" fill="#231F20"/><path d="M484.95 797.219v-4.016h3.9v-4.017h-3.9v-4.016h-3.9v4.016h-3.9v4.017h3.9v4.016h3.9zM490.8 805.252h-3.9v4.017H483v4.017h3.9v4.016h3.9v-4.016h3.9v-4.017h-3.9v-4.017zM523.95 785.17h-3.9v4.016h-3.9v4.017h3.9v4.016h3.9v-4.016h3.9v-4.017h-3.9v-4.016zM518.1 805.252h-3.9v4.017h-3.9v4.017h3.9v4.016h3.9v-4.016h3.9v-4.017h-3.9v-4.017zM533.7 869.516h-3.9v4.017h3.9v-4.017zM533.7 861.483h-3.9v4.017h3.9v-4.017zM525.9 869.516H522v4.017h3.9v-4.017z" fill="#231F20"/><path d="M154.518 847.613h-4.742v5.034h94.515v-5.034h-89.773z" fill="#F6376D"/><path d="M149.776 852.648v1.678c0 11.122 8.755 20.139 19.555 20.139h55.405c10.8 0 19.556-9.017 19.556-20.139v-1.678h-94.516z" fill="#B3C6E4"/><path d="M196.887 777.126l-11.626 41.911.088.213-4.465 16.061-.107-.137-.039.137v.017l-3.406 12.285h19.555l10.136-33.934-10.136-36.553zM216.588 782.161l-9.419 31.518-10.136 33.934h17.926l1.01-2.215 11.814-25.762-11.195-37.475z" fill="#27AE60"/><path d="M227.783 819.636l-11.814 25.761.619 2.215h22.814l3.26-60.417-14.879 32.441z" fill="#27AE60"/><path d="M214.959 847.612h1.629l-.619-2.215-1.01 2.215z" fill="#FFF3C1"/><path d="M174.219 792.23l-7.398 25.123 13.956 17.82 4.426-15.923.058-.213-11.042-26.807z" fill="#27AE60"/><path d="M185.349 819.251l-.088-.214-.059.214-4.425 15.922.107.138 4.465-16.06z" fill="#FFF3C1"/><path d="M166.674 817.354l-16.753-21.396-.292-.371 4.889 52.026h22.814l3.406-12.285v-.017l-14.064-17.957z" fill="#27AE60"/><path d="M244.291 845.935h-3.166l3.166-58.645c.044-.926-.647-1.713-1.546-1.759a1.627 1.627 0 00-1.55.948l-13.084 28.53-9.965-33.341c-.264-.886-1.175-1.385-2.035-1.113a1.66 1.66 0 00-1.081 1.113l-7.877 26.37-8.699-31.371c-.247-.891-1.148-1.407-2.014-1.153a1.657 1.657 0 00-1.119 1.153l-10.364 37.334-9.239-22.426a1.651 1.651 0 00-1.585-1.022c-.683.04-1.27.515-1.467 1.189l-6.551 22.224-14.773-18.866-.053-.135-.04.016-.352-.448a1.6 1.6 0 00-2.292-.25c-.425.354-.65.906-.598 1.467l4.716 50.184h-2.947c-.9 0-1.63.752-1.63 1.679v6.713c.013 12.043 9.491 21.803 21.184 21.817h55.406c11.694-.014 21.172-9.774 21.185-21.817v-6.713c0-.928-.73-1.678-1.63-1.678zm-26.476 0l-.107-.387 19.359-42.224-7.393 30.457 3.161.812 7.248-29.854-2.222 41.196h-20.046zm-3.891 0H199.24l15.719-52.613v39.187h3.259v-39.186l7.822 26.181-12.116 26.431zm-18.52-57.353v38.892h3.259v-37.831l6.66 24.019-9.641 32.273h-16.19l15.912-57.353zm-22.275 13.134l1.09 19.144 3.259-.198-1.075-18.843 7.132 17.316-3.462 12.467-11.443-14.61 4.499-15.276zm-20.826 4.896l12.255 31.551 3.027-1.246-12.122-31.208 23.482 29.988-2.842 10.238h-20.106l-3.694-39.323zm90.359 42.679v1.679h-91.257v-1.679h91.257zm-17.926 23.495H169.33c-9.894-.011-17.913-8.27-17.925-18.46h91.257c-.013 10.19-8.031 18.447-17.926 18.46z" fill="#263135"/><path d="M236.143 862.726h-3.259v3.356h3.259v-3.356zM236.143 857.691h-3.259v3.356h3.259v-3.356zM231.255 857.691h-3.26v3.356h3.26v-3.356z" fill="#263135"/><path d="M63 109a5 5 0 015-5h588a5 5 0 015 5v30a5 5 0 01-5 5H68a5 5 0 01-5-5v-30z" fill="#fff"/><path d="M639.646 136.103l-5.063-4.211a1.353 1.353 0 00-.863-.296h-.828c1.402-1.491 2.235-3.366 2.235-5.406 0-4.853-4.729-8.785-10.564-8.785S614 121.337 614 126.19s4.728 8.785 10.563 8.785c2.453 0 4.708-.693 6.501-1.858v.688c0 .27.127.528.355.718l5.064 4.211c.477.397 1.249.397 1.721 0l1.437-1.195c.478-.397.478-1.039.005-1.436zm-15.083-4.507c-3.59 0-6.5-2.416-6.5-5.406 0-2.986 2.905-5.406 6.5-5.406 3.591 0 6.501 2.416 6.501 5.406 0 2.986-2.905 5.406-6.501 5.406z" fill="#fff"/><path d="M80.532 121.496V129H79.3v-6.454h-3.878V129H74.19v-7.504h6.342zm6.964-.14c.924 0 1.666.322 2.226.966.57.644.854 1.615.854 2.912 0 1.279-.284 2.249-.854 2.912-.56.663-1.306.994-2.24.994-.578 0-1.059-.107-1.442-.322a3.003 3.003 0 01-.882-.77h-.084c.019.159.038.359.056.602.019.243.028.453.028.63v3.08h-1.232v-10.864h1.008l.168 1.022h.056a2.88 2.88 0 01.882-.826c.364-.224.85-.336 1.456-.336zm-.224 1.036c-.765 0-1.306.215-1.624.644-.308.429-.471 1.083-.49 1.96v.238c0 .924.15 1.638.448 2.142.308.495.873.742 1.694.742.458 0 .831-.126 1.12-.378.299-.252.518-.593.658-1.022.15-.439.224-.938.224-1.498 0-.859-.168-1.545-.504-2.058-.326-.513-.835-.77-1.526-.77zm9.166-1.036c.644 0 1.194.14 1.652.42.466.28.82.677 1.064 1.19.252.504.378 1.097.378 1.778v.742h-5.138c.018.849.233 1.498.644 1.946.42.439 1.003.658 1.75.658a5.64 5.64 0 001.26-.126 7.561 7.561 0 001.148-.392v1.078c-.383.168-.761.289-1.134.364a6.129 6.129 0 01-1.33.126c-.71 0-1.34-.145-1.89-.434a3.083 3.083 0 01-1.274-1.288c-.3-.579-.448-1.283-.448-2.114 0-.821.135-1.526.406-2.114.28-.588.667-1.041 1.162-1.358.504-.317 1.087-.476 1.75-.476zm-.014 1.008c-.588 0-1.055.191-1.4.574-.336.373-.537.896-.602 1.568h3.822c-.01-.635-.16-1.148-.448-1.54-.29-.401-.747-.602-1.372-.602zm5.626 2.128c0-1.643.247-2.921.742-3.836.495-.924 1.293-1.503 2.394-1.736a49.603 49.603 0 011.778-.35c.579-.103 1.12-.196 1.624-.28l.21 1.078c-.327.047-.695.107-1.106.182-.411.065-.817.135-1.218.21-.401.065-.747.131-1.036.196a2.295 2.295 0 00-1.442.952c-.355.495-.555 1.269-.602 2.324h.084c.131-.177.308-.359.532-.546.233-.187.509-.345.826-.476a2.95 2.95 0 011.106-.196c.971 0 1.703.313 2.198.938.495.625.742 1.437.742 2.436 0 .831-.145 1.526-.434 2.086-.289.56-.691.98-1.204 1.26-.513.271-1.111.406-1.792.406-1.036 0-1.862-.397-2.478-1.19-.616-.793-.924-1.946-.924-3.458zm3.5 3.626c.607 0 1.097-.196 1.47-.588.373-.392.56-1.064.56-2.016 0-.765-.145-1.367-.434-1.806-.28-.448-.747-.672-1.4-.672-.411 0-.784.093-1.12.28a3.262 3.262 0 00-.84.616 3.397 3.397 0 00-.476.588c0 .457.033.901.098 1.33.065.429.177.817.336 1.162.168.336.397.607.686.812.299.196.672.294 1.12.294zm9.115-6.748c.914 0 1.591.201 2.03.602.438.401.658 1.041.658 1.918V129h-.896l-.238-1.064h-.056c-.327.411-.672.714-1.036.91-.355.196-.85.294-1.484.294-.682 0-1.246-.177-1.694-.532-.448-.364-.672-.929-.672-1.694 0-.747.294-1.321.882-1.722.588-.411 1.493-.635 2.716-.672l1.274-.042v-.448c0-.625-.136-1.059-.406-1.302-.271-.243-.654-.364-1.148-.364-.392 0-.766.061-1.12.182a7.373 7.373 0 00-.994.392l-.378-.924a5.379 5.379 0 011.162-.448 4.959 4.959 0 011.4-.196zm1.47 3.962l-1.106.042c-.934.037-1.582.187-1.946.448-.355.261-.532.63-.532 1.106 0 .42.126.728.378.924.261.196.592.294.994.294.634 0 1.162-.173 1.582-.518.42-.355.63-.896.63-1.624v-.672zm8.105-3.976c.924 0 1.666.322 2.226.966.57.644.854 1.615.854 2.912 0 1.279-.284 2.249-.854 2.912-.56.663-1.306.994-2.24.994-.578 0-1.059-.107-1.442-.322a3.01 3.01 0 01-.882-.77h-.084a13.737 13.737 0 01.084 1.232v3.08h-1.232v-10.864h1.008l.168 1.022h.056a2.88 2.88 0 01.882-.826c.364-.224.85-.336 1.456-.336zm-.224 1.036c-.765 0-1.306.215-1.624.644-.308.429-.471 1.083-.49 1.96v.238c0 .924.15 1.638.448 2.142.308.495.873.742 1.694.742.458 0 .831-.126 1.12-.378.299-.252.518-.593.658-1.022a4.62 4.62 0 00.224-1.498c0-.859-.168-1.545-.504-2.058-.326-.513-.835-.77-1.526-.77zm9.11-1.022c.914 0 1.591.201 2.03.602.438.401.658 1.041.658 1.918V129h-.896l-.238-1.064h-.056c-.327.411-.672.714-1.036.91-.355.196-.85.294-1.484.294-.682 0-1.246-.177-1.694-.532-.448-.364-.672-.929-.672-1.694 0-.747.294-1.321.882-1.722.588-.411 1.493-.635 2.716-.672l1.274-.042v-.448c0-.625-.136-1.059-.406-1.302-.271-.243-.654-.364-1.148-.364-.392 0-.766.061-1.12.182a7.373 7.373 0 00-.994.392l-.378-.924a5.379 5.379 0 011.162-.448 4.959 4.959 0 011.4-.196zm1.47 3.962l-1.106.042c-.934.037-1.582.187-1.946.448-.355.261-.532.63-.532 1.106 0 .42.126.728.378.924.261.196.592.294.994.294.634 0 1.162-.173 1.582-.518.42-.355.63-.896.63-1.624v-.672zm3.653 7.028c-.233 0-.438-.019-.616-.056a2.566 2.566 0 01-.462-.112v-.994c.14.037.285.07.434.098.15.028.313.042.49.042.299 0 .546-.084.742-.252.196-.159.294-.467.294-.924v-8.666h1.232v8.624c0 .7-.168 1.246-.504 1.638-.336.401-.872.602-1.61.602zm10.672-9.828h-2.45V129h-1.218v-6.468h-2.422v-1.036h6.09v1.036zm5.239-1.176c.644 0 1.195.14 1.652.42.467.28.822.677 1.064 1.19.252.504.378 1.097.378 1.778v.742h-5.138c.019.849.234 1.498.644 1.946.42.439 1.004.658 1.75.658a5.64 5.64 0 001.26-.126 7.535 7.535 0 001.148-.392v1.078c-.382.168-.76.289-1.134.364a6.123 6.123 0 01-1.33.126c-.709 0-1.339-.145-1.89-.434a3.085 3.085 0 01-1.274-1.288c-.298-.579-.448-1.283-.448-2.114 0-.821.136-1.526.406-2.114.28-.588.668-1.041 1.162-1.358.504-.317 1.088-.476 1.75-.476zm-.014 1.008c-.588 0-1.054.191-1.4.574-.336.373-.536.896-.602 1.568h3.822c-.009-.635-.158-1.148-.448-1.54-.289-.401-.746-.602-1.372-.602zm15.093-.868h1.344l-3.206 3.612 3.472 3.892h-1.428l-3.388-3.808V129h-1.232v-7.504h1.232v3.64l3.206-3.64zm6.814-.126c.915 0 1.592.201 2.03.602.439.401.658 1.041.658 1.918V129h-.896l-.238-1.064h-.056c-.326.411-.672.714-1.036.91-.354.196-.849.294-1.484.294-.681 0-1.246-.177-1.694-.532-.448-.364-.672-.929-.672-1.694 0-.747.294-1.321.882-1.722.588-.411 1.494-.635 2.716-.672l1.274-.042v-.448c0-.625-.135-1.059-.406-1.302-.27-.243-.653-.364-1.148-.364-.392 0-.765.061-1.12.182a7.426 7.426 0 00-.994.392l-.378-.924a5.399 5.399 0 011.162-.448 4.964 4.964 0 011.4-.196zm1.47 3.962l-1.106.042c-.933.037-1.582.187-1.946.448-.354.261-.532.63-.532 1.106 0 .42.126.728.378.924.262.196.593.294.994.294.635 0 1.162-.173 1.582-.518.42-.355.63-.896.63-1.624v-.672zm8.974-3.836h1.344l-3.206 3.612 3.472 3.892h-1.428l-3.388-3.808V129h-1.232v-7.504h1.232v3.64l3.206-3.64zm9.152 1.036h-2.45V129h-1.218v-6.468h-2.422v-1.036h6.09v1.036zm1.303-1.036h1.316l1.624 4.27c.14.373.266.733.378 1.078.112.336.196.658.252.966h.056c.056-.233.144-.537.266-.91.121-.383.247-.765.378-1.148l1.526-4.256h1.33l-3.234 8.54c-.262.709-.602 1.274-1.022 1.694-.411.42-.98.63-1.708.63-.224 0-.42-.014-.588-.042a3.915 3.915 0 01-.434-.07v-.98c.102.019.224.037.364.056.149.019.303.028.462.028.429 0 .774-.121 1.036-.364.27-.243.48-.565.63-.966l.392-.994-3.024-7.532zm12.322 7.644c-.662 0-1.255-.135-1.778-.406-.513-.271-.919-.691-1.218-1.26-.289-.569-.434-1.297-.434-2.184 0-.924.154-1.675.462-2.254.308-.579.724-1.003 1.246-1.274.532-.271 1.134-.406 1.806-.406.383 0 .752.042 1.106.126.355.075.644.168.868.28l-.378 1.022a7.337 7.337 0 00-.784-.238 3.448 3.448 0 00-.84-.112c-1.474 0-2.212.947-2.212 2.842 0 .905.178 1.601.532 2.086.364.476.901.714 1.61.714.411 0 .77-.042 1.078-.126.318-.084.607-.187.868-.308v1.092a3.28 3.28 0 01-.84.294 4.545 4.545 0 01-1.092.112z" fill="#687C94"/><path d="M299.976 61.192c0 .565-.133 1.099-.4 1.6-.267.501-.693.912-1.28 1.232-.587.31-1.339.464-2.256.464h-2.016V69H292.2V57.88h3.84c.853 0 1.573.15 2.16.448.597.288 1.04.683 1.328 1.184.299.501.448 1.061.448 1.68zM296.04 63c.693 0 1.211-.155 1.552-.464.341-.32.512-.768.512-1.344 0-1.216-.688-1.824-2.064-1.824h-2.016V63h2.016zm8.5-1.536a2.811 2.811 0 011.056-1.04c.448-.256.976-.384 1.584-.384v1.888h-.464c-.715 0-1.259.181-1.632.544-.363.363-.544.992-.544 1.888V69h-1.824v-8.816h1.824v1.28zm9.14 7.68c-.832 0-1.584-.187-2.256-.56a4.151 4.151 0 01-1.584-1.6c-.384-.693-.576-1.493-.576-2.4 0-.896.198-1.69.592-2.384a4.095 4.095 0 011.616-1.6c.683-.373 1.446-.56 2.288-.56.843 0 1.606.187 2.288.56a4.083 4.083 0 011.616 1.6c.395.693.592 1.488.592 2.384 0 .896-.202 1.69-.608 2.384a4.25 4.25 0 01-1.664 1.616 4.78 4.78 0 01-2.304.56zm0-1.584c.47 0 .907-.112 1.312-.336.416-.224.752-.56 1.008-1.008.256-.448.384-.992.384-1.632 0-.64-.122-1.179-.368-1.616a2.466 2.466 0 00-.976-1.008 2.666 2.666 0 00-1.312-.336c-.469 0-.906.112-1.312.336-.394.224-.709.56-.944 1.008-.234.437-.352.976-.352 1.616 0 .95.24 1.685.72 2.208.491.512 1.104.768 1.84.768zm6.771-3.008c0-.885.182-1.67.544-2.352a4.059 4.059 0 013.632-2.16c.576 0 1.142.128 1.696.384.566.245 1.014.576 1.344.992V57.16h1.84V69h-1.84v-1.328c-.298.427-.714.779-1.248 1.056-.522.277-1.125.416-1.808.416a4.028 4.028 0 01-2.112-.576 4.283 4.283 0 01-1.504-1.632c-.362-.704-.544-1.499-.544-2.384zm7.216.032c0-.608-.128-1.136-.384-1.584a2.578 2.578 0 00-.976-1.024 2.571 2.571 0 00-1.312-.352c-.469 0-.906.117-1.312.352a2.58 2.58 0 00-.992 1.008c-.245.437-.368.96-.368 1.568 0 .608.123 1.141.368 1.6.256.459.587.81.992 1.056.416.235.854.352 1.312.352.47 0 .907-.117 1.312-.352.406-.235.731-.576.976-1.024.256-.459.384-.992.384-1.6zm13.22-4.4V69h-1.824v-1.04c-.288.363-.667.65-1.136.864a3.6 3.6 0 01-1.472.304c-.693 0-1.317-.144-1.872-.432a3.184 3.184 0 01-1.296-1.28c-.309-.565-.464-1.248-.464-2.048v-5.184h1.808v4.912c0 .79.197 1.397.592 1.824.395.416.933.624 1.616.624s1.221-.208 1.616-.624c.405-.427.608-1.035.608-1.824v-4.912h1.824zm2.799 4.4c0-.907.181-1.701.544-2.384a3.963 3.963 0 011.536-1.6c.65-.373 1.397-.56 2.24-.56 1.066 0 1.946.256 2.64.768.704.501 1.178 1.221 1.424 2.16h-1.968a2.081 2.081 0 00-.768-1.024c-.352-.245-.795-.368-1.328-.368-.747 0-1.344.267-1.792.8-.438.523-.656 1.259-.656 2.208 0 .95.218 1.69.656 2.224.448.533 1.045.8 1.792.8 1.056 0 1.754-.464 2.096-1.392h1.968c-.256.896-.736 1.61-1.44 2.144-.704.523-1.579.784-2.624.784-.843 0-1.59-.187-2.24-.56a4.101 4.101 0 01-1.536-1.6c-.363-.693-.544-1.493-.544-2.4zm13.33-2.912v4.88c0 .33.074.57.224.72.16.139.426.208.8.208h1.12V69h-1.44c-.822 0-1.451-.192-1.888-.576-.438-.384-.656-1.008-.656-1.872v-4.88h-1.04v-1.488h1.04v-2.192h1.84v2.192h2.144v1.488h-2.144zm8.025 7.472c-.694 0-1.318-.123-1.872-.368-.544-.256-.976-.597-1.296-1.024a2.588 2.588 0 01-.512-1.456h1.888c.032.373.208.688.528.944.33.245.741.368 1.232.368.512 0 .906-.096 1.184-.288.288-.203.432-.459.432-.768 0-.33-.16-.576-.48-.736-.31-.16-.806-.336-1.488-.528a14.38 14.38 0 01-1.616-.528 2.898 2.898 0 01-1.088-.784c-.299-.352-.448-.816-.448-1.392 0-.47.138-.896.416-1.28.277-.395.672-.704 1.184-.928.522-.224 1.12-.336 1.792-.336 1.002 0 1.808.256 2.416.768.618.501.949 1.19.992 2.064h-1.824a1.3 1.3 0 00-.48-.944c-.288-.235-.678-.352-1.168-.352-.48 0-.848.09-1.104.272a.842.842 0 00-.384.72c0 .235.085.432.256.592.17.16.378.288.624.384.245.085.608.197 1.088.336.64.17 1.162.347 1.568.528.416.17.773.427 1.072.768.298.341.453.795.464 1.36 0 .501-.139.95-.416 1.344-.278.395-.672.704-1.184.928-.502.224-1.094.336-1.776.336z" fill="#F6376D"/><path d="M418.904 66.728h-4.656l-.8 2.272h-1.904l3.984-11.136h2.112L421.624 69h-1.92l-.8-2.272zm-.512-1.488l-1.808-5.168-1.824 5.168h3.632zm7.788-3.744c.31-.427.731-.773 1.264-1.04a3.924 3.924 0 011.808-.416 4.06 4.06 0 012.112.56c.63.373 1.126.907 1.488 1.6.363.683.544 1.467.544 2.352 0 .885-.181 1.68-.544 2.384a4.112 4.112 0 01-1.504 1.632 3.945 3.945 0 01-2.096.576c-.682 0-1.29-.133-1.824-.4a3.52 3.52 0 01-1.248-1.024V69h-1.824V57.16h1.824v4.336zm5.36 3.056c0-.608-.128-1.13-.384-1.568a2.441 2.441 0 00-.992-1.008 2.571 2.571 0 00-1.312-.352c-.458 0-.896.117-1.312.352a2.699 2.699 0 00-.992 1.024c-.245.448-.368.976-.368 1.584 0 .608.123 1.141.368 1.6.256.448.587.79.992 1.024.416.235.854.352 1.312.352.47 0 .907-.117 1.312-.352.416-.245.747-.597.992-1.056.256-.459.384-.992.384-1.6zm8.484 4.592c-.832 0-1.584-.187-2.256-.56a4.151 4.151 0 01-1.584-1.6c-.384-.693-.576-1.493-.576-2.4 0-.896.197-1.69.592-2.384a4.09 4.09 0 011.616-1.6c.683-.373 1.445-.56 2.288-.56.843 0 1.605.187 2.288.56a4.09 4.09 0 011.616 1.6c.395.693.592 1.488.592 2.384 0 .896-.203 1.69-.608 2.384a4.25 4.25 0 01-1.664 1.616 4.78 4.78 0 01-2.304.56zm0-1.584a2.67 2.67 0 001.312-.336c.416-.224.752-.56 1.008-1.008.256-.448.384-.992.384-1.632 0-.64-.123-1.179-.368-1.616a2.473 2.473 0 00-.976-1.008 2.67 2.67 0 00-1.312-.336 2.67 2.67 0 00-1.312.336c-.395.224-.709.56-.944 1.008-.235.437-.352.976-.352 1.616 0 .95.24 1.685.72 2.208.491.512 1.104.768 1.84.768zm15.363-7.376V69h-1.824v-1.04c-.288.363-.667.65-1.136.864a3.6 3.6 0 01-1.472.304c-.693 0-1.317-.144-1.872-.432a3.184 3.184 0 01-1.296-1.28c-.309-.565-.464-1.248-.464-2.048v-5.184h1.808v4.912c0 .79.197 1.397.592 1.824.395.416.933.624 1.616.624s1.221-.208 1.616-.624c.405-.427.608-1.035.608-1.824v-4.912h1.824zm5.535 1.488v4.88c0 .33.074.57.224.72.16.139.426.208.8.208h1.12V69h-1.44c-.822 0-1.451-.192-1.888-.576-.438-.384-.656-1.008-.656-1.872v-4.88h-1.04v-1.488h1.04v-2.192h1.84v2.192h2.144v1.488h-2.144zm17.965-1.488V69h-1.824v-1.04c-.288.363-.667.65-1.136.864a3.6 3.6 0 01-1.472.304c-.693 0-1.317-.144-1.872-.432a3.184 3.184 0 01-1.296-1.28c-.309-.565-.464-1.248-.464-2.048v-5.184h1.808v4.912c0 .79.197 1.397.592 1.824.395.416.933.624 1.616.624s1.221-.208 1.616-.624c.405-.427.608-1.035.608-1.824v-4.912h1.824zm6.607 8.96c-.694 0-1.318-.123-1.872-.368-.544-.256-.976-.597-1.296-1.024a2.588 2.588 0 01-.512-1.456h1.888c.032.373.208.688.528.944.33.245.741.368 1.232.368.512 0 .906-.096 1.184-.288.288-.203.432-.459.432-.768 0-.33-.16-.576-.48-.736-.31-.16-.806-.336-1.488-.528a14.38 14.38 0 01-1.616-.528 2.898 2.898 0 01-1.088-.784c-.299-.352-.448-.816-.448-1.392 0-.47.138-.896.416-1.28.277-.395.672-.704 1.184-.928.522-.224 1.12-.336 1.792-.336 1.002 0 1.808.256 2.416.768.618.501.949 1.19.992 2.064h-1.824a1.3 1.3 0 00-.48-.944c-.288-.235-.678-.352-1.168-.352-.48 0-.848.09-1.104.272a.842.842 0 00-.384.72c0 .235.085.432.256.592.17.16.378.288.624.384.245.085.608.197 1.088.336.64.17 1.162.347 1.568.528.416.17.773.427 1.072.768.298.341.453.795.464 1.36 0 .501-.139.95-.416 1.344-.278.395-.672.704-1.184.928-.502.224-1.094.336-1.776.336z" fill="#687C94"/><path d="M526 48a5 5 0 015-5h35a5 5 0 015 5v30a5 5 0 01-5 5h-35a5 5 0 01-5-5V48z" fill="#B3C6E4"/><path d="M558.374 68.04l2.181-12.133c.158-.876-.369-1.71-1.08-1.71h-18.127l-.423-2.614c-.106-.652-.559-1.12-1.085-1.12h-4.732c-.612 0-1.108.627-1.108 1.4v.934c0 .773.496 1.4 1.108 1.4h3.225l3.242 20.033c-.776.564-1.298 1.62-1.298 2.833 0 1.804 1.157 3.267 2.584 3.267s2.585-1.463 2.585-3.267c0-.914-.298-1.74-.777-2.333h9.676c-.479.593-.777 1.419-.777 2.333 0 1.804 1.157 3.267 2.585 3.267 1.427 0 2.584-1.463 2.584-3.267 0-1.293-.595-2.411-1.457-2.94l.254-1.416c.158-.876-.369-1.71-1.08-1.71h-12.388l-.302-1.867h13.529c.518 0 .966-.453 1.081-1.09z" fill="#fff"/><circle cx="589" cy="45" r="6" fill="#F6376D"/><path d="M645.985 136.103l-3.748-4.211a.855.855 0 00-.639-.296h-.613c1.038-1.491 1.654-3.366 1.654-5.406 0-4.853-3.5-8.785-7.819-8.785-4.32 0-7.82 3.932-7.82 8.785s3.5 8.785 7.82 8.785c1.815 0 3.485-.693 4.812-1.858v.688c0 .27.094.528.263.718l3.748 4.211a.83.83 0 001.274 0l1.064-1.195a1.108 1.108 0 00.004-1.436zm-11.165-4.507c-2.658 0-4.812-2.416-4.812-5.406 0-2.986 2.15-5.406 4.812-5.406 2.657 0 4.812 2.416 4.812 5.406 0 2.986-2.151 5.406-4.812 5.406z" fill="#fff"/><path d="M612 110a5 5 0 015-5h39a5 5 0 015 5v30a5 5 0 01-5 5h-39a5 5 0 01-5-5v-30zM639.5 42.224c-10.772 0-19.5 9.45-19.5 21.113s8.728 21.112 19.5 21.112 19.5-9.45 19.5-21.112c0-11.663-8.728-21.113-19.5-21.113zm0 8.173c3.821 0 6.919 3.354 6.919 7.491 0 4.138-3.098 7.492-6.919 7.492-3.821 0-6.919-3.354-6.919-7.492 0-4.137 3.098-7.491 6.919-7.491zm0 29.285c-4.616 0-8.751-2.265-11.519-5.806 1.478-3.014 4.372-5.09 7.745-5.09.189 0 .377.033.558.093 1.022.357 2.092.587 3.216.587s2.202-.23 3.216-.587c.181-.06.369-.094.558-.094 3.373 0 6.267 2.077 7.745 5.09-2.768 3.542-6.903 5.807-11.519 5.807z" fill="#F6376D"/><defs><filter id="filter0_d" x="0" y="-8" width="723" height="993" filterUnits="userSpaceOnUse" color-interpolation-filters="sRGB"><feFlood flood-opacity="0" result="BackgroundImageFix"/><feColorMatrix in="SourceAlpha" values="0 0 0 0 0 0 0 0 0 0 0 0 0 0 0 0 0 0 127 0"/><feOffset dy="8"/><feGaussianBlur stdDeviation="12"/><feColorMatrix values="0 0 0 0 0 0 0 0 0 0 0 0 0 0 0 0 0 0 0.2 0"/><feBlend in2="BackgroundImageFix" result="effect1_dropShadow"/><feBlend in="SourceGraphic" in2="effect1_dropShadow" result="shape"/></filter><filter id="filter1_d" x="51" y="328" width="291" height="326" filterUnits="userSpaceOnUse" color-interpolation-filters="sRGB"><feFlood flood-opacity="0" result="BackgroundImageFix"/><feColorMatrix in="SourceAlpha" values="0 0 0 0 0 0 0 0 0 0 0 0 0 0 0 0 0 0 127 0"/><feOffset dy="4"/><feGaussianBlur stdDeviation="7.5"/><feColorMatrix values="0 0 0 0 0 0 0 0 0 0 0 0 0 0 0 0 0 0 0.15 0"/><feBlend in2="BackgroundImageFix" result="effect1_dropShadow"/><feBlend in="SourceGraphic" in2="effect1_dropShadow" result="shape"/></filter><filter id="filter2_d" x="51" y="685" width="291" height="326" filterUnits="userSpaceOnUse" color-interpolation-filters="sRGB"><feFlood flood-opacity="0" result="BackgroundImageFix"/><feColorMatrix in="SourceAlpha" values="0 0 0 0 0 0 0 0 0 0 0 0 0 0 0 0 0 0 127 0"/><feOffset dy="4"/><feGaussianBlur stdDeviation="7.5"/><feColorMatrix values="0 0 0 0 0 0 0 0 0 0 0 0 0 0 0 0 0 0 0.15 0"/><feBlend in2="BackgroundImageFix" result="effect1_dropShadow"/><feBlend in="SourceGraphic" in2="effect1_dropShadow" result="shape"/></filter><filter id="filter3_d" x="364" y="328" width="291" height="326" filterUnits="userSpaceOnUse" color-interpolation-filters="sRGB"><feFlood flood-opacity="0" result="BackgroundImageFix"/><feColorMatrix in="SourceAlpha" values="0 0 0 0 0 0 0 0 0 0 0 0 0 0 0 0 0 0 127 0"/><feOffset dy="4"/><feGaussianBlur stdDeviation="7.5"/><feColorMatrix values="0 0 0 0 0 0 0 0 0 0 0 0 0 0 0 0 0 0 0.15 0"/><feBlend in2="BackgroundImageFix" result="effect1_dropShadow"/><feBlend in="SourceGraphic" in2="effect1_dropShadow" result="shape"/></filter><filter id="filter4_d" x="364" y="685" width="291" height="326" filterUnits="userSpaceOnUse" color-interpolation-filters="sRGB"><feFlood flood-opacity="0" result="BackgroundImageFix"/><feColorMatrix in="SourceAlpha" values="0 0 0 0 0 0 0 0 0 0 0 0 0 0 0 0 0 0 127 0"/><feOffset dy="4"/><feGaussianBlur stdDeviation="7.5"/><feColorMatrix values="0 0 0 0 0 0 0 0 0 0 0 0 0 0 0 0 0 0 0.15 0"/><feBlend in2="BackgroundImageFix" result="effect1_dropShadow"/><feBlend in="SourceGraphic" in2="effect1_dropShadow" result="shape"/></filter></defs></svg>