<svg width="86" height="86" fill="none" xmlns="http://www.w3.org/2000/svg"><path d="M71.667 47.347V19.708c0-.338-.119-.636-.282-.906l.026-.016L60.661.87A1.792 1.792 0 0059.125 0H12.542c-.63 0-1.213.33-1.537.87L.255 18.786l.027.016c-.163.27-.282.568-.282.906v50.167c0 .99.801 1.792 1.792 1.792h45.555C49.695 79.927 57.29 86 66.292 86 77.159 86 86 77.159 86 66.292c0-9.002-6.074-16.597-14.333-18.945zM58.11 3.583l8.6 14.334H46.26L43.394 3.583H58.11zm-26.183 0h7.816l2.895 14.334H29.06l2.867-14.334zM43 21.5v7.167H28.661l-.024-7.167H43zM13.556 3.583h14.721l-2.839 14.334H4.956l8.6-14.334zm33.118 64.5H3.584V21.5h21.5v8.958c0 .99.8 1.792 1.791 1.792h17.917a1.79 1.79 0 001.791-1.792l-.028-8.958h21.528v25.174c-.59-.053-1.187-.09-1.791-.09-10.868 0-19.709 8.84-19.709 19.708 0 .604.038 1.2.091 1.791zm19.618 14.334c-8.892 0-16.125-7.234-16.125-16.125 0-8.892 7.233-16.125 16.125-16.125 8.891 0 16.125 7.233 16.125 16.125 0 8.891-7.234 16.125-16.125 16.125z" fill="#687C94"/><path d="M73.458 64.5h-5.375v-5.375a1.79 1.79 0 10-3.583 0V64.5h-5.375a1.79 1.79 0 100 3.584H64.5v5.374a1.79 1.79 0 103.583 0v-5.374h5.375a1.79 1.79 0 100-3.584z" fill="#F6376D"/></svg>