<svg width="122" height="260" viewBox="0 0 122 260" fill="none" xmlns="http://www.w3.org/2000/svg">
<path d="M27.804 222.748L27.668 222.368C26.7439 219.514 23.6996 217.938 20.8458 218.862C17.9919 219.786 16.4153 222.83 17.3394 225.684L17.4755 226.065C18.209 228.375 20.3565 229.843 22.6401 229.843C23.1831 229.843 23.754 229.761 24.2977 229.571C27.1521 228.674 28.7281 225.602 27.804 222.748Z" fill="#DEEAF8"/>
<path d="M35.3332 245.961C34.4091 243.107 31.3375 241.558 28.4837 242.482C25.6299 243.406 24.0805 246.478 25.0046 249.331L25.1407 249.712C25.8742 251.995 28.0217 253.463 30.3053 253.463C30.8755 253.463 31.4192 253.382 31.9901 253.191C34.8439 252.267 36.3933 249.195 35.4692 246.342L35.3332 245.961Z" fill="#DEEAF8"/>
<path d="M12.4471 175.535L12.3116 175.155C11.3876 172.3 8.31602 170.724 5.48878 171.648C2.63495 172.573 1.05835 175.617 1.98241 178.471L2.11848 178.851C2.85267 181.162 4.99952 182.63 7.28309 182.63C7.82677 182.63 8.39766 182.548 8.9407 182.357C11.7952 181.433 13.3718 178.389 12.4471 175.535Z" fill="#DEEAF8"/>
<path d="M4.80897 155.15C5.37986 155.339 5.95075 155.476 6.54885 155.476C7.66342 155.476 8.77736 155.15 9.72927 154.443C11.2242 153.355 11.985 151.67 11.9578 149.958C11.985 149.958 12.0122 149.958 12.0394 149.958C13.7249 149.958 15.3825 149.17 16.4426 147.701C17.53 146.206 17.7205 144.386 17.1768 142.755C18.8072 142.265 20.1667 141.015 20.7376 139.275C21.3078 137.536 20.9547 135.688 19.9218 134.329C21.3079 133.35 22.2325 131.719 22.2325 129.898C22.2325 128.077 21.3079 126.446 19.9218 125.468C20.9547 124.109 21.3078 122.26 20.7376 120.521C20.1667 118.781 18.8072 117.531 17.1768 117.042C17.7205 115.438 17.53 113.59 16.4426 112.095C15.3553 110.6 13.6704 109.838 11.9578 109.866C11.985 108.154 11.2242 106.468 9.72927 105.381C8.23432 104.293 6.41278 104.104 4.78176 104.647C4.2653 103.016 3.0425 101.657 1.3026 101.086C-0.382221 100.543 -2.14932 100.869 -3.5082 101.82C-4.45947 100.298 -6.14493 99.2921 -8.07469 99.2921C-9.92281 99.2921 -11.5811 100.217 -12.5595 101.657C-13.9456 100.597 -15.7937 100.217 -17.5608 100.787C-19.3273 101.358 -20.578 102.744 -21.0672 104.402C-22.6982 103.831 -24.5736 104.022 -26.0685 105.136C-27.5635 106.224 -28.3515 107.936 -28.297 109.676C-30.0369 109.621 -31.749 110.409 -32.8363 111.904C-33.9237 113.399 -34.1414 115.275 -33.5433 116.906C-35.2015 117.395 -36.6148 118.673 -37.1857 120.439C-37.756 122.206 -37.3756 124.054 -36.3155 125.413C-37.7288 126.392 -38.6807 128.023 -38.6807 129.898C-38.6807 131.773 -37.756 133.404 -36.3155 134.383C-37.3756 135.742 -37.756 137.591 -37.1857 139.357C-36.6148 141.124 -35.2015 142.401 -33.5433 142.891C-34.1142 144.522 -33.9237 146.397 -32.8363 147.919C-31.7762 149.387 -30.1186 150.175 -28.4331 150.175C-28.3787 150.175 -28.3515 150.148 -28.297 150.148C-28.3515 151.888 -27.5635 153.6 -26.0685 154.714C-25.1172 155.421 -23.9755 155.747 -22.8881 155.747C-22.2628 155.747 -21.6653 155.612 -21.0944 155.394C-20.6052 157.052 -19.3273 158.465 -17.5608 159.064C-16.99 159.253 -16.4463 159.335 -15.8754 159.335C-14.5982 159.335 -13.402 158.846 -12.4507 158.058C-11.4722 159.389 -9.89559 160.259 -8.10191 160.259C-6.25315 160.259 -4.64998 159.335 -3.67149 157.949C-2.7468 158.656 -1.60564 159.036 -0.436642 159.036C0.134251 159.036 0.677921 158.955 1.24881 158.764C3.0425 158.167 4.29251 156.807 4.80897 155.15ZM1.16717 148.055C0.107033 147.701 -1.06197 147.675 -2.17654 148.055C-3.31769 148.436 -4.21516 149.143 -4.86706 150.039C-5.7639 149.387 -6.85126 149.006 -8.04748 149.006C-9.3247 149.006 -10.4937 149.469 -11.4178 150.202C-12.0703 149.36 -12.9399 148.707 -14.0273 148.381C-15.1963 148.001 -16.3646 148.055 -17.452 148.408C-17.7779 147.321 -18.4305 146.343 -19.4362 145.636C-20.4147 144.929 -21.5565 144.603 -22.6982 144.603C-22.671 143.461 -22.997 142.32 -23.7039 141.341C-24.4103 140.363 -25.416 139.684 -26.5033 139.357C-26.1502 138.297 -26.0957 137.101 -26.4489 135.96C-26.8293 134.791 -27.5635 133.866 -28.4875 133.214C-27.8078 132.317 -27.4002 131.203 -27.4002 129.98C-27.4002 128.756 -27.8078 127.67 -28.4875 126.745C-27.5635 126.093 -26.8293 125.142 -26.4489 123.973C-26.0685 122.804 -26.123 121.635 -26.5033 120.548C-25.416 120.221 -24.4375 119.57 -23.7039 118.591C-22.997 117.613 -22.671 116.471 -22.6982 115.356C-22.671 115.356 -22.6438 115.356 -22.6166 115.356C-21.502 115.356 -20.3875 115.03 -19.4362 114.323C-18.4577 113.617 -17.8052 112.611 -17.452 111.551C-16.9083 111.741 -16.3102 111.85 -15.7127 111.85C-15.1418 111.85 -14.571 111.768 -14.0273 111.578C-12.8855 111.198 -11.9342 110.464 -11.3089 109.54C-10.4121 110.219 -9.29749 110.627 -8.07469 110.627C-6.93291 110.627 -5.89999 110.273 -5.03036 109.703C-4.37782 110.681 -3.42655 111.497 -2.20375 111.877C-1.63286 112.068 -1.06197 112.149 -0.518295 112.149C0.0525932 112.149 0.623493 112.068 1.13995 111.877C1.49312 112.937 2.14566 113.888 3.09693 114.568C4.0482 115.275 5.16277 115.601 6.27671 115.601C6.27671 116.715 6.60329 117.802 7.30963 118.781C8.0166 119.759 8.96787 120.385 10.028 120.738C9.67484 121.798 9.64762 122.967 10.0008 124.109C10.3812 125.223 11.0881 126.147 11.9578 126.799C11.3052 127.697 10.9248 128.784 10.9248 129.98C10.9248 131.176 11.3324 132.263 11.9578 133.16C11.0609 133.812 10.354 134.709 10.0008 135.851C9.62041 136.992 9.67484 138.161 10.0008 139.221C8.94066 139.575 7.98938 140.227 7.28241 141.179C6.57608 142.13 6.25012 143.244 6.25012 144.358C5.13555 144.358 4.02099 144.685 3.06971 145.391C2.14566 146.017 1.49312 146.995 1.16717 148.055Z" fill="#DEEAF8"/>
<path d="M20.1116 199.101L19.9762 198.72C19.0515 195.866 15.9534 194.317 13.1261 195.241C10.2723 196.165 8.72291 199.237 9.64697 202.091L9.78305 202.471C10.5438 204.754 12.6641 206.222 14.9477 206.222C15.5179 206.222 16.0888 206.141 16.6325 205.951C19.4869 205.026 21.0629 201.955 20.1116 199.101Z" fill="#DEEAF8"/>
<path d="M17.7204 165.397C15.3008 167.164 14.7571 170.561 16.5242 172.98L16.7685 173.306C17.8287 174.774 19.4869 175.562 21.1724 175.562C22.2863 175.562 23.4009 175.236 24.3521 174.53C26.7711 172.762 27.3148 169.365 25.5483 166.946L25.3034 166.62C23.5369 164.174 20.1394 163.63 17.7204 165.397Z" fill="#DEEAF8"/>
<path d="M54.4688 206.793C52.7024 204.374 49.3042 203.83 46.8852 205.597C44.4662 207.364 43.9226 210.762 45.6897 213.181L45.934 213.507C46.9941 214.975 48.6523 215.763 50.3372 215.763C51.4517 215.763 52.5663 215.437 53.5176 214.73C55.9366 212.963 56.4802 209.565 54.7138 207.146L54.4688 206.793Z" fill="#DEEAF8"/>
<path d="M39.8719 186.68C38.1055 184.261 34.708 183.717 32.2883 185.483C29.8693 187.251 29.3256 190.648 31.0927 193.067L31.337 193.393C32.3972 194.861 34.0554 195.622 35.7409 195.622C36.8548 195.622 37.9694 195.296 38.9479 194.589C41.3669 192.822 41.9106 189.425 40.1441 187.006L39.8719 186.68Z" fill="#DEEAF8"/>
<path d="M69.0646 226.88C67.2975 224.461 63.9 223.917 61.481 225.684C59.062 227.451 58.5183 230.848 60.2847 233.267L60.5297 233.593C61.5898 235.061 63.2474 235.85 64.9329 235.85C66.0475 235.85 67.162 235.523 68.1133 234.817C70.5323 233.05 71.076 229.652 69.3089 227.233L69.0646 226.88Z" fill="#DEEAF8"/>
<path d="M55.4194 169.338L55.0934 169.093C52.6744 167.326 49.2769 167.87 47.5098 170.289C45.7434 172.709 46.2871 176.106 48.7061 177.873L49.032 178.118C49.9833 178.824 51.1251 179.151 52.2124 179.151C53.8979 179.151 55.5555 178.362 56.6156 176.894C58.3827 174.502 57.839 171.105 55.4194 169.338Z" fill="#DEEAF8"/>
<path d="M95.5933 198.53L95.2674 198.285C92.8477 196.519 89.4502 197.063 87.6837 199.482C85.9166 201.901 86.4603 205.298 88.8793 207.065L89.2059 207.31C90.1572 208.017 91.299 208.343 92.3857 208.343C94.0712 208.343 95.7294 207.555 96.7895 206.087C98.556 203.667 98.0123 200.297 95.5933 198.53Z" fill="#DEEAF8"/>
<path d="M75.507 183.934L75.1804 183.689C72.7614 181.923 69.3639 182.466 67.5974 184.885C65.8303 187.304 66.374 190.702 68.793 192.469L69.1196 192.713C70.0709 193.42 71.212 193.746 72.2994 193.746C73.9848 193.746 75.6424 192.958 76.7026 191.49C78.4697 189.071 77.926 185.701 75.507 183.934Z" fill="#DEEAF8"/>
<path d="M28.6198 163.303L28.9458 163.548C29.8971 164.255 31.0388 164.581 32.1262 164.581C33.811 164.581 35.4693 163.793 36.5294 162.325C38.2959 159.906 37.7522 156.508 35.3332 154.741L35.0072 154.497C32.5882 152.73 29.1907 153.274 27.4236 155.693C25.6572 158.112 26.1736 161.537 28.6198 163.303Z" fill="#DEEAF8"/>
<path d="M61.1278 158.112C61.6715 158.302 62.2424 158.384 62.7861 158.384C65.069 158.384 67.2165 156.916 67.95 154.633C68.8747 151.779 67.2981 148.707 64.4437 147.783L64.0633 147.647C61.2095 146.723 58.1379 148.3 57.2139 151.153C56.2898 154.008 57.8664 157.079 60.7202 158.003L61.1278 158.112Z" fill="#DEEAF8"/>
<path d="M111.685 163.14L111.304 163.005C108.45 162.081 105.379 163.657 104.455 166.511C103.531 169.365 105.107 172.437 107.961 173.361L108.342 173.497C108.885 173.687 109.456 173.768 110 173.768C112.283 173.768 114.43 172.3 115.164 170.018C116.115 167.109 114.566 164.038 111.685 163.14Z" fill="#DEEAF8"/>
<path d="M91.5977 162.298C92.5218 159.444 90.9452 156.372 88.0914 155.476L87.711 155.339C84.8566 154.415 81.7856 155.992 80.8882 158.846C79.9641 161.7 81.5407 164.771 84.3945 165.669L84.7483 165.804C85.292 165.995 85.8623 166.076 86.4059 166.076C88.7167 166.049 90.837 164.581 91.5977 162.298Z" fill="#DEEAF8"/>
<path d="M40.8783 140.118L40.4979 139.982C37.6441 139.031 34.5726 140.58 33.6485 143.434C32.7245 146.288 34.2738 149.36 37.1005 150.284L37.4808 150.42C38.0517 150.61 38.6226 150.691 39.1663 150.691C41.4492 150.691 43.5695 149.251 44.3309 146.941C45.2822 144.141 43.7328 141.069 40.8783 140.118Z" fill="#DEEAF8"/>
<path d="M85.4281 129.925C85.4281 132.915 87.8743 135.361 90.8642 135.361H91.2718C94.2617 135.361 96.7079 132.942 96.7079 129.925C96.7079 126.908 94.2617 124.489 91.2718 124.489H90.8642C87.8743 124.489 85.4281 126.935 85.4281 129.925Z" fill="#DEEAF8"/>
<path d="M41.6118 124.489H41.2042C38.2143 124.489 35.7681 126.908 35.7681 129.925C35.7681 132.942 38.2143 135.361 41.2042 135.361H41.6118C44.6017 135.361 47.0479 132.942 47.0479 129.925C47.0479 126.908 44.6289 124.489 41.6118 124.489Z" fill="#DEEAF8"/>
<path d="M60.6114 129.925C60.6114 132.915 63.0582 135.361 66.0481 135.361H66.4557C69.4456 135.361 71.8919 132.942 71.8919 129.925C71.8919 126.908 69.4456 124.489 66.4557 124.489H66.0481C63.0582 124.489 60.6114 126.935 60.6114 129.925Z" fill="#DEEAF8"/>
<path d="M116.116 124.489H115.708C112.717 124.489 110.271 126.908 110.271 129.925C110.271 132.942 112.717 135.361 115.708 135.361H116.116C119.105 135.361 121.552 132.942 121.552 129.925C121.552 126.908 119.105 124.489 116.116 124.489Z" fill="#DEEAF8"/>
<path d="M109.646 97.1181C110.19 97.1181 110.761 97.0364 111.304 96.8459L111.685 96.7105C114.539 95.7858 116.115 92.7149 115.191 89.8604C114.267 87.0066 111.223 85.43 108.342 86.3541L107.961 86.4901C105.107 87.4142 103.531 90.4857 104.455 93.3396C105.216 95.6503 107.336 97.1181 109.646 97.1181Z" fill="#DEEAF8"/>
<path d="M86.0254 104.783C86.5691 104.783 87.14 104.701 87.6837 104.511L88.0641 104.375C90.9179 103.451 92.4945 100.407 91.5704 97.5529C90.6463 94.6984 87.5748 93.1218 84.7482 94.0465L84.3672 94.1819C81.5134 95.106 79.9368 98.1503 80.8608 101.005C81.595 103.315 83.7425 104.783 86.0254 104.783Z" fill="#DEEAF8"/>
<path d="M57.2411 108.697C57.9753 111.007 60.1221 112.448 62.4057 112.448C62.9494 112.448 63.5196 112.366 64.0633 112.176L64.4443 112.04C67.2982 111.116 68.8747 108.045 67.9507 105.191C67.026 102.336 63.9551 100.76 61.1006 101.685L60.7202 101.82C57.8936 102.771 56.317 105.843 57.2411 108.697Z" fill="#DEEAF8"/>
<path d="M37.5079 109.404L37.1269 109.54C34.2731 110.464 32.7237 113.535 33.675 116.389C34.4364 118.673 36.556 120.14 38.8396 120.14C39.4105 120.14 39.9814 120.059 40.525 119.868L40.9054 119.733C43.7593 118.809 45.3086 115.737 44.3574 112.883C43.4061 110.029 40.3345 108.452 37.5079 109.404Z" fill="#DEEAF8"/>
<path d="M69.1196 67.1374L68.793 67.3817C66.374 69.1488 65.8303 72.5463 67.5974 74.9653C68.6569 76.4331 70.3152 77.2217 72.0006 77.2217C73.1152 77.2217 74.2291 76.8951 75.1804 76.1888L75.507 75.9438C77.926 74.1774 78.4697 70.7792 76.7026 68.3602C74.9361 65.914 71.5386 65.3703 69.1196 67.1374Z" fill="#DEEAF8"/>
<path d="M49.032 81.7331L48.7061 81.9781C46.2871 83.7445 45.7434 87.1427 47.5098 89.5617C48.57 91.0294 50.2282 91.8174 51.913 91.8174C53.0276 91.8174 54.1422 91.4914 55.0934 90.7845L55.4194 90.5402C57.839 88.7731 58.3827 85.3756 56.6156 82.9566C54.8491 80.5103 51.451 79.9666 49.032 81.7331Z" fill="#DEEAF8"/>
<path d="M89.2059 52.5409L88.8793 52.7856C86.4603 54.5523 85.9166 57.9499 87.6837 60.3691C88.7439 61.8368 90.4015 62.6251 92.087 62.6251C93.2015 62.6251 94.3161 62.2989 95.2674 61.5922L95.5933 61.3475C98.0123 59.5808 98.556 56.1832 96.7895 53.7641C95.0224 51.3449 91.6249 50.7742 89.2059 52.5409Z" fill="#DEEAF8"/>
<path d="M35.3333 105.109C37.753 103.342 38.296 99.9447 36.5295 97.5256C34.763 95.1066 31.3649 94.563 28.9459 96.3294L28.6199 96.5744C26.2009 98.3408 25.6573 101.738 27.4237 104.158C28.4839 105.626 30.1421 106.414 31.8269 106.414C32.9415 106.414 34.0561 106.088 35.0073 105.381L35.3333 105.109Z" fill="#DEEAF8"/>
<path d="M46.8852 54.2808C47.8365 54.9875 48.9783 55.3137 50.0656 55.3137C51.7505 55.3137 53.4087 54.5254 54.4688 53.0576L54.7138 52.7315C56.4802 50.3124 55.9366 46.9147 53.5176 45.1479C51.0986 43.3812 47.7011 43.9248 45.934 46.3439L45.6897 46.6701C43.9226 49.1164 44.4662 52.514 46.8852 54.2808Z" fill="#DEEAF8"/>
<path d="M61.481 34.1665C62.4595 34.8732 63.5741 35.1994 64.6886 35.1994C66.3734 35.1994 68.0045 34.4383 69.0918 32.9705L69.3361 32.6443C71.1032 30.2253 70.5868 26.8276 68.1406 25.0608C65.7216 23.2941 62.3234 23.8105 60.557 26.2568L60.312 26.583C58.5183 29.0021 59.062 32.3997 61.481 34.1665Z" fill="#DEEAF8"/>
<path d="M31.337 66.4304L31.0927 66.7564C29.3256 69.1754 29.8693 72.5735 32.2883 74.34C33.2402 75.047 34.3814 75.3729 35.4687 75.3729C37.1542 75.3729 38.8118 74.5849 39.8719 73.1172L40.1168 72.7906C41.8833 70.3716 41.3396 66.9741 38.9206 65.207C36.5016 63.4678 33.1041 64.0114 31.337 66.4304Z" fill="#DEEAF8"/>
<path d="M25.5483 92.9047C27.3148 90.4857 26.7711 87.0882 24.3521 85.3211C21.9331 83.5547 18.5356 84.0983 16.7685 86.5173L16.5242 86.8433C14.7571 89.2623 15.3008 92.6604 17.7204 94.4269C18.6717 95.1339 19.8128 95.4598 20.9002 95.4598C22.5857 95.4598 24.2433 94.6712 25.3034 93.2035L25.5483 92.9047Z" fill="#DEEAF8"/>
<path d="M20.8186 40.9892C21.3895 41.1794 21.9332 41.261 22.5041 41.261C24.787 41.261 26.9345 39.7932 27.6687 37.51L27.8041 37.1294C28.7288 34.2754 27.1794 31.204 24.325 30.2798C21.4712 29.3557 18.3996 30.905 17.4756 33.759L17.3395 34.1395C16.4154 36.9936 17.9648 40.065 20.8186 40.9892Z" fill="#DEEAF8"/>
<path d="M5.48866 88.2028C6.05955 88.3927 6.60323 88.4743 7.17412 88.4743C9.45705 88.4743 11.6045 87.0066 12.3381 84.7236L12.4742 84.3426C13.3982 81.4888 11.8488 78.4173 8.99502 77.4932C6.1412 76.5419 3.06965 78.1185 2.14559 80.9724L2.00951 81.3527C1.05824 84.2072 2.63484 87.2787 5.48866 88.2028Z" fill="#DEEAF8"/>
<path d="M13.1539 64.6089C13.6976 64.7994 14.2685 64.8811 14.8115 64.8811C17.0951 64.8811 19.2426 63.4133 19.9761 61.1028L20.1122 60.7223C21.0363 57.8683 19.4597 54.7969 16.6058 53.8999C13.752 52.9757 10.6805 54.5522 9.78363 57.4062L9.64756 57.7868C8.75072 60.6408 10.2995 63.6849 13.1539 64.6089Z" fill="#DEEAF8"/>
<path d="M28.5111 17.3958C29.0548 17.586 29.6256 17.6675 30.1693 17.6675C32.4522 17.6675 34.5997 16.1998 35.3333 13.8894L35.4694 13.5089C36.3934 10.6549 34.8168 7.58341 31.963 6.68644C29.1092 5.7623 26.0377 7.33878 25.1408 10.1928L25.0047 10.5733C24.0807 13.4002 25.6573 16.4716 28.5111 17.3958Z" fill="#DEEAF8"/>
</svg>
