<svg width="122" height="260" fill="none" xmlns="http://www.w3.org/2000/svg"><path d="M27.804 222.748l-.136-.38c-.924-2.854-3.968-4.43-6.822-3.506-2.854.924-4.43 3.968-3.507 6.822l.137.381a5.43 5.43 0 005.164 3.778c.543 0 1.114-.082 1.658-.272 2.854-.897 4.43-3.969 3.506-6.823zM35.333 245.961c-.924-2.854-3.995-4.403-6.85-3.479-2.853.924-4.402 3.996-3.478 6.849l.136.381c.733 2.283 2.88 3.751 5.164 3.751.57 0 1.114-.081 1.685-.272 2.854-.924 4.403-3.996 3.48-6.849l-.137-.381zM12.447 175.535l-.135-.38c-.924-2.855-3.996-4.431-6.823-3.507-2.854.925-4.43 3.969-3.507 6.823l.136.38a5.431 5.431 0 005.165 3.779c.544 0 1.115-.082 1.658-.273 2.854-.924 4.43-3.968 3.506-6.822zM4.809 155.15c.57.189 1.142.326 1.74.326a5.292 5.292 0 003.18-1.033 5.402 5.402 0 002.229-4.485h.081a5.422 5.422 0 004.404-2.257c1.087-1.495 1.277-3.315.734-4.946a5.36 5.36 0 003.56-3.48 5.403 5.403 0 00-.815-4.946 5.446 5.446 0 002.31-4.431 5.443 5.443 0 00-2.31-4.43 5.405 5.405 0 00.816-4.947 5.357 5.357 0 00-3.561-3.479c.544-1.604.353-3.452-.734-4.947a5.398 5.398 0 00-4.485-2.229 5.4 5.4 0 00-2.229-4.485c-1.495-1.088-3.316-1.277-4.947-.734-.517-1.631-1.74-2.99-3.48-3.561a5.458 5.458 0 00-4.81.734 5.367 5.367 0 00-4.567-2.528 5.416 5.416 0 00-4.485 2.365 5.452 5.452 0 00-5-.87 5.364 5.364 0 00-3.507 3.615c-1.631-.571-3.507-.38-5.002.734a5.394 5.394 0 00-2.228 4.54 5.39 5.39 0 00-4.54 2.228 5.355 5.355 0 00-.706 5.002 5.44 5.44 0 00-3.643 3.533 5.383 5.383 0 00.87 4.974 5.449 5.449 0 00-2.365 4.485 5.38 5.38 0 002.365 4.485 5.384 5.384 0 00-.87 4.974 5.442 5.442 0 003.643 3.534 5.494 5.494 0 00.707 5.028 5.423 5.423 0 004.403 2.256c.054 0 .081-.027.136-.027a5.473 5.473 0 002.229 4.566 5.349 5.349 0 003.18 1.033c.625 0 1.223-.135 1.794-.353a5.537 5.537 0 003.533 3.67c.571.189 1.115.271 1.686.271 1.277 0 2.473-.489 3.424-1.277a5.38 5.38 0 004.35 2.201 5.405 5.405 0 004.43-2.31 5.33 5.33 0 003.234 1.087c.571 0 1.115-.081 1.686-.272a5.495 5.495 0 003.56-3.614zm-3.642-7.095a5.214 5.214 0 00-3.344 0 5.415 5.415 0 00-2.69 1.984 5.363 5.363 0 00-3.18-1.033 5.42 5.42 0 00-3.37 1.196c-.653-.842-1.523-1.495-2.61-1.821-1.17-.38-2.338-.326-3.425.027a5.148 5.148 0 00-1.984-2.772 5.53 5.53 0 00-3.262-1.033 5.322 5.322 0 00-1.006-3.262 5.363 5.363 0 00-2.8-1.984 5.57 5.57 0 00.055-3.397 5.373 5.373 0 00-2.038-2.746 5.325 5.325 0 001.087-3.234c0-1.224-.408-2.31-1.088-3.235a5.44 5.44 0 002.04-2.772c.38-1.169.325-2.338-.055-3.425a5.413 5.413 0 002.8-1.957 5.295 5.295 0 001.005-3.235h.081a5.29 5.29 0 003.18-1.033c.98-.706 1.632-1.712 1.985-2.772.544.19 1.142.299 1.74.299.57 0 1.141-.082 1.685-.272a5.302 5.302 0 002.718-2.038 5.33 5.33 0 003.234 1.087 5.517 5.517 0 003.045-.924c.652.978 1.603 1.794 2.826 2.174.571.191 1.142.272 1.686.272.57 0 1.141-.081 1.658-.272.353 1.06 1.006 2.011 1.957 2.691a5.29 5.29 0 003.18 1.033c0 1.114.326 2.201 1.033 3.18.707.978 1.658 1.604 2.718 1.957a5.49 5.49 0 00-.027 3.371 5.65 5.65 0 001.957 2.69 5.363 5.363 0 00-1.033 3.181c0 1.196.407 2.283 1.033 3.18-.897.652-1.604 1.549-1.957 2.691-.38 1.141-.326 2.31 0 3.37a5.538 5.538 0 00-2.719 1.958 5.291 5.291 0 00-1.032 3.179c-1.114 0-2.229.327-3.18 1.033-.924.626-1.577 1.604-1.903 2.664zM20.112 199.101l-.136-.381c-.924-2.854-4.023-4.403-6.85-3.479-2.854.924-4.403 3.996-3.479 6.85l.136.38a5.466 5.466 0 005.165 3.751c.57 0 1.14-.081 1.684-.271 2.855-.925 4.43-3.996 3.48-6.85zM17.72 165.397c-2.42 1.767-2.963 5.164-1.196 7.583l.244.326a5.425 5.425 0 004.404 2.256 5.296 5.296 0 003.18-1.032c2.42-1.768 2.963-5.165 1.196-7.584l-.245-.326c-1.766-2.446-5.164-2.99-7.583-1.223zM54.469 206.793c-1.767-2.419-5.165-2.963-7.584-1.196-2.419 1.767-2.962 5.165-1.195 7.584l.244.326a5.424 5.424 0 004.403 2.256c1.115 0 2.23-.326 3.18-1.033 2.42-1.767 2.963-5.165 1.197-7.584l-.245-.353zM39.872 186.68c-1.767-2.419-5.164-2.963-7.584-1.197-2.419 1.768-2.962 5.165-1.195 7.584l.244.326c1.06 1.468 2.718 2.229 4.404 2.229a5.428 5.428 0 003.207-1.033c2.419-1.767 2.963-5.164 1.196-7.583l-.272-.326zM69.065 226.88c-1.767-2.419-5.165-2.963-7.584-1.196-2.419 1.767-2.963 5.164-1.196 7.583l.245.326a5.424 5.424 0 004.403 2.257c1.114 0 2.229-.327 3.18-1.033 2.42-1.767 2.963-5.165 1.196-7.584l-.244-.353zM55.42 169.338l-.327-.245c-2.419-1.767-5.816-1.223-7.583 1.196-1.767 2.42-1.223 5.817 1.196 7.584l.326.245a5.356 5.356 0 003.18 1.033 5.424 5.424 0 004.404-2.257c1.767-2.392 1.223-5.789-1.197-7.556zM95.593 198.53l-.326-.245c-2.42-1.766-5.817-1.222-7.583 1.197-1.767 2.419-1.224 5.816 1.195 7.583l.327.245a5.349 5.349 0 003.18 1.033 5.424 5.424 0 004.404-2.256c1.766-2.42 1.222-5.79-1.197-7.557zM75.507 183.934l-.327-.245c-2.419-1.766-5.816-1.223-7.583 1.196-1.767 2.419-1.223 5.817 1.196 7.584l.327.244a5.347 5.347 0 003.18 1.033 5.424 5.424 0 004.403-2.256c1.767-2.419 1.223-5.789-1.196-7.556zM28.62 163.303l.326.245a5.349 5.349 0 003.18 1.033 5.424 5.424 0 004.403-2.256c1.767-2.419 1.223-5.817-1.196-7.584l-.326-.244c-2.419-1.767-5.816-1.223-7.583 1.196-1.767 2.419-1.25 5.844 1.196 7.61zM61.128 158.112c.544.19 1.114.272 1.658.272 2.283 0 4.43-1.468 5.164-3.751.925-2.854-.652-5.926-3.506-6.85l-.38-.136c-2.854-.924-5.926.653-6.85 3.506-.924 2.855.652 5.926 3.506 6.85l.408.109zM111.685 163.14l-.381-.135c-2.854-.924-5.925.652-6.849 3.506-.924 2.854.652 5.926 3.506 6.85l.381.136c.543.19 1.114.271 1.658.271 2.283 0 4.43-1.468 5.164-3.75.951-2.909-.598-5.98-3.479-6.878zM91.598 162.298c.924-2.854-.653-5.926-3.507-6.822l-.38-.137c-2.854-.924-5.925.653-6.823 3.507-.924 2.854.653 5.925 3.506 6.823l.354.135a5.025 5.025 0 001.658.272 5.535 5.535 0 005.192-3.778zM40.878 140.118l-.38-.136a5.396 5.396 0 00-6.85 3.452c-.924 2.854.626 5.926 3.452 6.85l.38.136c.572.19 1.143.271 1.686.271a5.431 5.431 0 005.165-3.75c.951-2.8-.598-5.872-3.453-6.823zM85.428 129.925c0 2.99 2.446 5.436 5.436 5.436h.408a5.434 5.434 0 005.436-5.436 5.434 5.434 0 00-5.436-5.436h-.408c-2.99 0-5.436 2.446-5.436 5.436zM41.612 124.489h-.408a5.434 5.434 0 00-5.436 5.436 5.434 5.434 0 005.436 5.436h.408a5.434 5.434 0 005.436-5.436 5.417 5.417 0 00-5.436-5.436zM60.611 129.925c0 2.99 2.447 5.436 5.437 5.436h.408a5.435 5.435 0 005.436-5.436 5.435 5.435 0 00-5.436-5.436h-.408c-2.99 0-5.437 2.446-5.437 5.436zM116.116 124.489h-.408a5.435 5.435 0 00-5.437 5.436 5.435 5.435 0 005.437 5.436h.408a5.435 5.435 0 005.436-5.436 5.435 5.435 0 00-5.436-5.436zM109.646 97.118c.544 0 1.115-.082 1.658-.272l.381-.136c2.854-.924 4.43-3.995 3.506-6.85a5.436 5.436 0 00-6.849-3.506l-.381.136c-2.854.924-4.43 3.996-3.506 6.85a5.464 5.464 0 005.191 3.778zM86.025 104.783c.544 0 1.115-.082 1.659-.272l.38-.136c2.854-.924 4.43-3.968 3.506-6.822-.924-2.855-3.995-4.431-6.822-3.507l-.38.136c-2.855.924-4.431 3.968-3.507 6.823a5.432 5.432 0 005.164 3.778zM57.241 108.697c.734 2.31 2.881 3.751 5.165 3.751a5.05 5.05 0 001.657-.272l.381-.136c2.854-.924 4.43-3.995 3.507-6.849-.925-2.855-3.996-4.431-6.85-3.506l-.38.135c-2.827.951-4.404 4.023-3.48 6.877zM37.508 109.404l-.381.136a5.396 5.396 0 00-3.452 6.849 5.466 5.466 0 005.165 3.751c.57 0 1.141-.081 1.685-.272l.38-.135a5.397 5.397 0 003.452-6.85c-.95-2.854-4.023-4.431-6.85-3.479zM69.12 67.137l-.327.245c-2.419 1.767-2.963 5.164-1.196 7.583a5.424 5.424 0 004.404 2.257 5.294 5.294 0 003.18-1.033l.326-.245c2.419-1.767 2.963-5.165 1.196-7.584-1.767-2.446-5.164-2.99-7.583-1.223zM49.032 81.733l-.326.245c-2.419 1.767-2.963 5.165-1.196 7.584a5.425 5.425 0 004.403 2.255c1.115 0 2.23-.326 3.18-1.032l.326-.245c2.42-1.767 2.964-5.164 1.197-7.583-1.767-2.447-5.165-2.99-7.584-1.224zM89.206 52.54l-.327.246c-2.419 1.766-2.962 5.164-1.195 7.583a5.424 5.424 0 004.403 2.256c1.114 0 2.23-.326 3.18-1.033l.326-.245c2.42-1.766 2.963-5.164 1.197-7.583-1.768-2.42-5.165-2.99-7.584-1.223zM35.333 105.109c2.42-1.767 2.963-5.164 1.197-7.583-1.767-2.42-5.165-2.963-7.584-1.197l-.326.245c-2.42 1.767-2.963 5.164-1.196 7.584a5.424 5.424 0 004.403 2.256 5.29 5.29 0 003.18-1.033l.326-.272zM46.885 54.28a5.351 5.351 0 003.18 1.034 5.425 5.425 0 004.404-2.256l.245-.327c1.766-2.419 1.223-5.816-1.196-7.583-2.42-1.767-5.817-1.223-7.584 1.196l-.244.326a5.46 5.46 0 001.195 7.61zM61.481 34.166a5.43 5.43 0 003.208 1.033 5.435 5.435 0 004.403-2.228l.244-.327a5.407 5.407 0 00-1.195-7.583 5.408 5.408 0 00-7.584 1.196l-.245.326c-1.794 2.42-1.25 5.817 1.169 7.584zM31.337 66.43l-.244.326c-1.767 2.42-1.224 5.817 1.195 7.584a5.35 5.35 0 003.18 1.033 5.424 5.424 0 004.404-2.256l.245-.326c1.766-2.42 1.223-5.817-1.196-7.584-2.42-1.74-5.817-1.196-7.584 1.223zM25.548 92.905c1.767-2.42 1.223-5.817-1.196-7.584-2.419-1.766-5.816-1.223-7.584 1.196l-.244.326c-1.767 2.42-1.223 5.817 1.196 7.584a5.347 5.347 0 003.18 1.033 5.424 5.424 0 004.403-2.256l.245-.3zM20.819 40.99c.57.19 1.114.271 1.685.271 2.283 0 4.43-1.468 5.165-3.751l.135-.38c.925-2.855-.625-5.926-3.479-6.85-2.854-.924-5.925.625-6.85 3.479l-.136.38c-.924 2.855.626 5.926 3.48 6.85zM5.489 88.203c.57.19 1.114.271 1.685.271 2.283 0 4.43-1.467 5.164-3.75l.136-.381c.924-2.854-.625-5.926-3.479-6.85-2.854-.951-5.925.626-6.85 3.48l-.135.38c-.952 2.854.625 5.926 3.479 6.85zM13.154 64.609a5.04 5.04 0 001.658.272 5.43 5.43 0 005.164-3.778l.136-.38c.924-2.855-.652-5.926-3.506-6.823-2.854-.924-5.926.652-6.822 3.506l-.136.38c-.897 2.855.652 5.899 3.506 6.823zM28.511 17.396c.544.19 1.115.271 1.658.271a5.43 5.43 0 005.164-3.778l.136-.38c.924-2.854-.652-5.926-3.506-6.823-2.854-.924-5.925.653-6.822 3.507l-.136.38c-.924 2.827.652 5.899 3.506 6.823z" fill="#F6F8FF"/></svg>