<svg width="333" height="354" fill="none" xmlns="http://www.w3.org/2000/svg"><path d="M205.28 78.494c4.724 0 8.589-3.823 8.589-8.59v-.644c0-4.724-3.865-8.59-8.589-8.59s-8.589 3.823-8.589 8.59v.644c0 4.724 3.865 8.59 8.589 8.59zm0-78.462c4.724 0 8.589-3.865 8.589-8.59V-9.2c0-4.724-3.865-8.59-8.589-8.59s-8.589 3.866-8.589 8.59v.644c0 4.767 3.865 8.589 8.589 8.589zm0 295.98c-4.724 0-8.589 3.823-8.589 8.59v.644c0 4.724 3.865 8.589 8.589 8.589s8.589-3.822 8.589-8.589v-.644c0-4.724-3.865-8.59-8.589-8.59zm0-256.771c4.724 0 8.589-3.822 8.589-8.589v-.644c0-4.724-3.865-8.59-8.589-8.59s-8.589 3.866-8.589 8.59v.644c0 4.767 3.865 8.59 8.589 8.59zm0 178.353c-4.724 0-8.589 3.822-8.589 8.589v.644c0 4.724 3.865 8.589 8.589 8.589s8.589-3.822 8.589-8.589v-.644c0-4.767-3.865-8.589-8.589-8.589zm0 117.671c-4.724 0-8.589 3.822-8.589 8.589v.644c0 4.724 3.865 8.589 8.589 8.589s8.589-3.822 8.589-8.589v-.644c0-4.767-3.865-8.589-8.589-8.589zm0-78.462c-4.724 0-8.589 3.822-8.589 8.589v.644c0 4.724 3.865 8.59 8.589 8.59s8.589-3.823 8.589-8.59v-.644c0-4.724-3.865-8.589-8.589-8.589zm56.688 38.136-.215-.601c-1.46-4.509-6.27-7-10.779-5.54s-7 6.27-5.54 10.779l.215.602c1.159 3.65 4.552 5.969 8.16 5.969.858 0 1.76-.129 2.619-.429 4.51-1.418 7-6.271 5.54-10.78zm11.896 36.676c-1.46-4.509-6.313-6.957-10.822-5.497-4.509 1.46-6.957 6.313-5.497 10.822l.215.601c1.159 3.608 4.552 5.927 8.16 5.927.901 0 1.76-.129 2.662-.43 4.509-1.46 6.957-6.313 5.497-10.822l-.215-.601zm-36.16-111.272-.214-.601c-1.46-4.51-6.313-7.001-10.78-5.54-4.509 1.46-7 6.27-5.54 10.779l.215.601c1.16 3.651 4.552 5.97 8.16 5.97.859 0 1.761-.129 2.619-.43 4.51-1.46 7.001-6.27 5.54-10.779zm-12.068-32.209c.902.3 1.804.515 2.749.515 1.761 0 3.521-.515 5.025-1.632 2.362-1.718 3.564-4.38 3.521-7.086h.129a8.568 8.568 0 0 0 6.957-3.565c1.718-2.362 2.019-5.239 1.16-7.816a8.466 8.466 0 0 0 5.626-5.497 8.54 8.54 0 0 0-1.289-7.816c2.19-1.546 3.651-4.123 3.651-7s-1.461-5.454-3.651-7a8.54 8.54 0 0 0 1.289-7.816 8.466 8.466 0 0 0-5.626-5.497c.859-2.534.558-5.454-1.16-7.816s-4.38-3.565-7.086-3.522c.043-2.705-1.159-5.368-3.521-7.086s-5.24-2.018-7.817-1.159c-.816-2.577-2.748-4.724-5.497-5.626-2.662-.859-5.454-.344-7.601 1.159a8.48 8.48 0 0 0-7.215-3.994 8.556 8.556 0 0 0-7.086 3.737c-2.19-1.675-5.11-2.276-7.902-1.375-2.791.902-4.767 3.092-5.54 5.712-2.577-.902-5.54-.601-7.902 1.16a8.52 8.52 0 0 0-3.521 7.172 8.52 8.52 0 0 0-7.172 3.521 8.459 8.459 0 0 0-1.117 7.902c-2.62.773-4.853 2.792-5.755 5.583a8.505 8.505 0 0 0 1.375 7.859c-2.233 1.546-3.737 4.123-3.737 7.086a8.499 8.499 0 0 0 3.737 7.086 8.506 8.506 0 0 0-1.375 7.859c.902 2.792 3.135 4.81 5.755 5.583-.902 2.577-.601 5.54 1.117 7.945a8.57 8.57 0 0 0 6.957 3.565c.086 0 .129-.043.215-.043-.086 2.748 1.159 5.454 3.521 7.214 1.503 1.117 3.307 1.632 5.025 1.632.988 0 1.932-.214 2.834-.558a8.745 8.745 0 0 0 5.583 5.798c.902.3 1.761.429 2.663.429 2.018 0 3.908-.773 5.411-2.018a8.498 8.498 0 0 0 6.871 3.478c2.921 0 5.454-1.46 7-3.65a8.422 8.422 0 0 0 5.111 1.718c.902 0 1.761-.129 2.663-.43 2.834-.944 4.809-3.092 5.625-5.711zm-5.754-11.209a8.237 8.237 0 0 0-5.283 0c-1.803.601-3.221 1.718-4.251 3.135a8.467 8.467 0 0 0-5.025-1.632c-2.018 0-3.865.73-5.325 1.889-1.031-1.331-2.405-2.362-4.123-2.877-1.847-.601-3.693-.515-5.411.043-.515-1.718-1.546-3.264-3.135-4.38-1.546-1.117-3.35-1.632-5.154-1.632a8.406 8.406 0 0 0-1.589-5.154 8.465 8.465 0 0 0-4.423-3.135c.558-1.675.644-3.564.086-5.368-.601-1.847-1.761-3.307-3.221-4.338a8.412 8.412 0 0 0 1.718-5.11c0-1.933-.644-3.65-1.718-5.111a8.595 8.595 0 0 0 3.221-4.38c.601-1.847.515-3.693-.086-5.411a8.552 8.552 0 0 0 4.423-3.092 8.368 8.368 0 0 0 1.589-5.111h.129c1.761 0 3.522-.515 5.025-1.632 1.546-1.116 2.577-2.705 3.135-4.38.859.3 1.804.472 2.748.472a8.06 8.06 0 0 0 2.663-.429c1.804-.601 3.307-1.761 4.295-3.221a8.414 8.414 0 0 0 5.11 1.718c1.804 0 3.436-.559 4.81-1.46 1.031 1.546 2.534 2.834 4.466 3.435.902.301 1.804.43 2.663.43.902 0 1.804-.129 2.62-.43.558 1.675 1.589 3.178 3.092 4.252 1.503 1.116 3.264 1.632 5.024 1.632 0 1.76.516 3.478 1.632 5.024 1.117 1.546 2.62 2.534 4.295 3.092a8.673 8.673 0 0 0-.043 5.326 8.929 8.929 0 0 0 3.092 4.251 8.47 8.47 0 0 0-1.632 5.025c0 1.89.644 3.607 1.632 5.025-1.417 1.03-2.534 2.447-3.092 4.251-.601 1.804-.515 3.651 0 5.325a8.747 8.747 0 0 0-4.295 3.093c-1.116 1.503-1.631 3.263-1.631 5.024-1.761 0-3.522.516-5.025 1.632-1.46.988-2.491 2.534-3.006 4.209zm29.932 80.651-.214-.601c-1.461-4.509-6.356-6.957-10.823-5.497-4.509 1.46-6.957 6.313-5.497 10.822l.215.601c1.202 3.608 4.552 5.927 8.16 5.927.901 0 1.803-.129 2.662-.429 4.51-1.461 7-6.313 5.497-10.823zM148.463 1.149l.215.6c1.159 3.651 4.552 5.927 8.159 5.927.859 0 1.761-.129 2.62-.43 4.509-1.46 7-6.312 5.54-10.821l-.215-.602c-1.46-4.509-6.313-7-10.822-5.54-4.466 1.503-6.957 6.356-5.497 10.866zm12.111 37.319.214.601c1.16 3.608 4.553 5.927 8.16 5.927.902 0 1.761-.129 2.663-.43 4.509-1.46 6.957-6.313 5.497-10.822l-.215-.558c-1.46-4.51-6.313-6.957-10.822-5.497a8.537 8.537 0 0 0-5.497 10.78zm12.11 37.277.215.601c1.16 3.65 4.552 5.97 8.16 5.97.859 0 1.761-.129 2.619-.43 4.51-1.46 7.001-6.27 5.54-10.779l-.214-.602c-1.46-4.509-6.313-7-10.78-5.54-4.509 1.461-7 6.27-5.54 10.78zm-8.417 16.061c3.822-2.79 4.681-8.159 1.89-11.98l-.387-.517c-2.791-3.822-8.16-4.68-11.982-1.889-3.822 2.791-4.681 8.16-1.889 11.981l.386.516a8.571 8.571 0 0 0 6.957 3.564 8.91 8.91 0 0 0 5.025-1.675zm81.769 112.518c-3.823 2.792-4.682 8.16-1.89 11.982l.386.515a8.572 8.572 0 0 0 6.958 3.565c1.76 0 3.521-.516 5.024-1.632 3.822-2.792 4.681-8.16 1.89-11.982l-.387-.515c-2.791-3.865-8.159-4.724-11.981-1.933zM106.162 26.443c1.675 2.32 4.294 3.522 6.957 3.522 1.761 0 3.521-.516 5.025-1.632 3.822-2.792 4.681-8.16 1.889-11.982l-.386-.515c-2.792-3.822-8.16-4.681-11.982-1.89-3.822 2.792-4.681 8.16-1.89 11.982l.387.515zm23.061 31.737c1.675 2.32 4.295 3.522 6.957 3.522a8.584 8.584 0 0 0 5.068-1.632c3.822-2.792 4.681-8.16 1.889-11.982l-.386-.516c-2.792-3.822-8.16-4.68-11.982-1.889-3.822 2.791-4.681 8.16-1.89 11.982l.344.515zm174.875 211.55c-2.791-3.822-8.16-4.681-11.982-1.89-3.822 2.792-4.681 8.16-1.889 11.982l.386.516a8.571 8.571 0 0 0 6.957 3.564c1.761 0 3.522-.515 5.025-1.632 3.822-2.791 4.681-8.16 1.89-11.982l-.387-.558zm-23.063-31.779c-2.791-3.822-8.159-4.681-11.982-1.89-3.822 2.792-4.681 8.16-1.889 11.982l.386.515c1.675 2.319 4.295 3.522 6.958 3.522 1.76 0 3.521-.515 5.067-1.632 3.822-2.792 4.681-8.16 1.89-11.982l-.43-.515zm46.124 63.516c-2.792-3.822-8.16-4.681-11.982-1.89-3.822 2.792-4.681 8.16-1.89 11.982l.387.515a8.57 8.57 0 0 0 6.957 3.565c1.761 0 3.522-.516 5.025-1.632 3.822-2.792 4.681-8.16 1.889-11.982l-.386-.558zM104.573 85.708l.515.387c1.503 1.117 3.307 1.632 5.025 1.632a8.568 8.568 0 0 0 6.957-3.565c2.792-3.822 1.933-9.19-1.889-11.981l-.516-.344c-3.822-2.791-9.19-1.932-11.982 1.89a8.576 8.576 0 0 0 1.89 11.981zM305.6 210.551l-.515-.386c-3.822-2.792-9.19-1.933-11.982 1.889-2.791 3.823-1.932 9.191 1.89 11.982l.515.387c1.503 1.116 3.307 1.632 5.025 1.632a8.57 8.57 0 0 0 6.957-3.565c2.792-3.779 1.933-9.147-1.89-11.939zm31.738 23.062-.516-.387c-3.822-2.791-9.19-1.932-11.981 1.89-2.792 3.822-1.933 9.19 1.889 11.982l.516.386c1.503 1.117 3.306 1.632 5.024 1.632a8.57 8.57 0 0 0 6.957-3.564c2.792-3.822 1.933-9.148-1.889-11.939zM41.099 39.627l.515.387c1.503 1.116 3.307 1.632 5.025 1.632a8.57 8.57 0 0 0 6.957-3.565c2.792-3.822 1.933-9.19-1.89-11.982l-.515-.386c-3.822-2.791-9.19-1.933-11.982 1.89-2.791 3.865-1.932 9.233 1.89 12.024zm222.158 161.39.515.387c1.503 1.116 3.307 1.632 5.025 1.632a8.572 8.572 0 0 0 6.957-3.565c2.791-3.822 1.932-9.19-1.89-11.982l-.515-.386c-3.822-2.792-9.19-1.933-11.982 1.89-2.791 3.822-1.975 9.233 1.89 12.024zm-114.451-93.75c2.792-3.822 1.933-9.19-1.889-11.982l-.516-.386c-3.822-2.792-9.19-1.933-11.982 1.89-2.791 3.821-1.932 9.19 1.89 11.981l.515.387c1.504 1.116 3.307 1.632 5.025 1.632 2.663 0 5.282-1.203 6.957-3.522zm-75.971-44.62.516.386c1.503 1.117 3.306 1.632 5.024 1.632a8.57 8.57 0 0 0 6.957-3.564c2.792-3.823 1.933-9.19-1.89-11.982l-.514-.387c-3.823-2.79-9.19-1.932-11.982 1.89-2.792 3.908-1.933 9.276 1.89 12.025zM21.473 79.524l-.601-.215c-4.51-1.46-9.362 1.031-10.78 5.54-1.417 4.51 1.031 9.362 5.54 10.78l.602.214c.859.301 1.76.43 2.62.43 3.607 0 7-2.319 8.16-5.97 1.416-4.509-1.031-9.319-5.54-10.779zm74.037 24.049c-4.509-1.503-9.361.945-10.822 5.455-1.46 4.509.988 9.362 5.455 10.822l.6.215a8.44 8.44 0 0 0 2.663.429 8.58 8.58 0 0 0 8.16-5.926c1.46-4.51-.988-9.363-5.454-10.823l-.601-.172zm219.109 89.241c.859.301 1.761.43 2.62.43 3.607 0 7-2.319 8.159-5.927 1.461-4.509-1.03-9.362-5.54-10.822l-.601-.215c-4.509-1.46-9.362 1.031-10.822 5.54-1.46 4.51 1.031 9.362 5.54 10.823l.644.171zM58.835 91.678l-.601-.215c-4.51-1.503-9.362.945-10.822 5.454-1.504 4.51.944 9.362 5.454 10.823l.6.214a8.47 8.47 0 0 0 2.706.43 8.597 8.597 0 0 0 8.16-5.884c1.417-4.509-1.03-9.362-5.497-10.822zm68.671 40.368.601.215a7.99 7.99 0 0 0 2.62.429c3.607 0 7-2.319 8.159-5.926 1.46-4.509-1.03-9.362-5.54-10.822l-.601-.215c-4.509-1.46-9.362 1.03-10.822 5.54-1.46 4.509 1.073 9.319 5.583 10.779zm155.119 32.338-.601-.214c-4.509-1.503-9.362.944-10.822 5.454-1.46 4.509.988 9.362 5.454 10.822l.601.215a8.43 8.43 0 0 0 2.663.429 8.582 8.582 0 0 0 8.16-5.926c1.503-4.424-.945-9.277-5.455-10.78zM126.26 139.691c-4.724 0-8.589 3.822-8.589 8.589s3.865 8.589 8.589 8.589h.644c4.724 0 8.589-3.822 8.589-8.589s-3.865-8.589-8.589-8.589h-.644zm-39.21 0c-4.723 0-8.588 3.822-8.588 8.589s3.865 8.589 8.589 8.589h.644c4.724 0 8.589-3.822 8.589-8.589s-3.865-8.589-8.59-8.589h-.643zm196.734 0h-.644c-4.724 0-8.589 3.822-8.589 8.589s3.865 8.589 8.589 8.589h.644c4.724 0 8.589-3.822 8.589-8.589a8.56 8.56 0 0 0-8.589-8.589zm30.019 8.589c0 4.724 3.866 8.589 8.59 8.589h.644c4.724 0 8.589-3.822 8.589-8.589s-3.865-8.589-8.589-8.589h-.644c-4.724 0-8.59 3.865-8.59 8.589zm-295.981 0c0-4.724-3.865-8.589-8.589-8.589H8.59c-4.724 0-8.589 3.822-8.589 8.589s3.865 8.589 8.59 8.589h.643c4.724 0 8.59-3.865 8.59-8.589zm29.976 8.589h.644c4.724 0 8.59-3.822 8.59-8.589s-3.866-8.589-8.59-8.589h-.644c-4.724 0-8.589 3.822-8.589 8.589s3.865 8.589 8.59 8.589zm260.68-42.13c1.16 3.651 4.552 5.927 8.16 5.927.859 0 1.76-.129 2.619-.429l.602-.215c4.509-1.46 7-6.313 5.54-10.822-1.461-4.51-6.313-7.001-10.823-5.54l-.601.214c-4.466 1.503-6.957 6.356-5.497 10.865zm-31.178 1.117-.602.215c-4.509 1.46-6.957 6.313-5.454 10.822 1.203 3.608 4.552 5.927 8.16 5.927.902 0 1.804-.129 2.663-.43l.601-.214c4.509-1.46 6.957-6.313 5.454-10.823-1.503-4.509-6.356-7-10.822-5.497zm-261.11 84.86-.601.215c-4.51 1.417-7 6.27-5.54 10.779 1.16 3.651 4.552 5.97 8.16 5.97a7.97 7.97 0 0 0 2.62-.43l.644-.214c4.509-1.46 7-6.27 5.54-10.78-1.46-4.552-6.313-7-10.823-5.54zm116.598-19.84.601-.215c4.51-1.46 7.001-6.313 5.54-10.822-1.46-4.51-6.313-7-10.822-5.54l-.601.214c-4.509 1.461-7 6.313-5.54 10.823 1.159 3.65 4.552 5.926 8.16 5.926.858 0 1.76-.129 2.662-.386zm-79.364 7.73-.601.215c-4.51 1.503-6.958 6.356-5.455 10.822a8.598 8.598 0 0 0 8.16 5.884 8.47 8.47 0 0 0 2.706-.43l.601-.215c4.51-1.503 6.957-6.356 5.454-10.822-1.503-4.509-6.356-6.957-10.865-5.454zm48.143-6.657c-1.461-4.509-6.356-6.957-10.823-5.454l-.601.215c-4.51 1.46-6.957 6.313-5.454 10.822 1.202 3.607 4.552 5.926 8.16 5.926.901 0 1.803-.128 2.662-.429l.602-.215c4.509-1.503 6.957-6.356 5.454-10.865zM327.246 49.076l-.516.386c-3.822 2.792-4.681 8.16-1.889 11.982a8.57 8.57 0 0 0 6.957 3.565c1.761 0 3.521-.516 5.024-1.632l.516-.387c3.822-2.79 4.681-8.16 1.889-11.982-2.791-3.865-8.159-4.724-11.981-1.932zM41.614 256.589l-.515.344c-3.822 2.791-4.681 8.159-1.89 12.024a8.571 8.571 0 0 0 6.958 3.565c1.76 0 3.521-.516 5.024-1.632l.515-.387c3.823-2.791 4.682-8.159 1.89-11.981-2.748-3.866-8.117-4.724-11.982-1.933zM295.508 72.137l-.515.387c-3.822 2.791-4.681 8.16-1.89 11.982a8.571 8.571 0 0 0 6.957 3.564c1.761 0 3.522-.515 5.025-1.632l.515-.386c3.823-2.792 4.682-8.16 1.89-11.982-2.791-3.865-8.16-4.724-11.982-1.933zM136.309 187.79c-3.822 2.791-4.681 8.159-1.89 11.982a8.571 8.571 0 0 0 6.958 3.564c1.76 0 3.521-.515 5.024-1.632l.516-.386c3.822-2.792 4.681-8.16 1.889-11.982-2.791-3.822-8.159-4.681-11.982-1.89l-.515.344zm137.555-78.719c3.823-2.792 4.681-8.16 1.89-11.982-2.791-3.822-8.16-4.68-11.982-1.89l-.515.387c-3.822 2.791-4.681 8.159-1.89 11.982a8.571 8.571 0 0 0 6.957 3.564c1.761 0 3.522-.515 5.025-1.632l.515-.429zM114.665 224.723l.516-.387c3.822-2.791 4.681-8.159 1.889-11.981-2.791-3.823-8.16-4.681-11.982-1.89l-.515.387c-3.822 2.791-4.681 8.159-1.89 11.981a8.572 8.572 0 0 0 6.958 3.565 8.909 8.909 0 0 0 5.024-1.675zm-31.222 22.675c3.822-2.791 4.681-8.159 1.89-11.982-2.792-3.822-8.16-4.681-11.982-1.889l-.516.386c-3.822 2.792-4.68 8.16-1.89 11.982a8.571 8.571 0 0 0 6.958 3.565c1.76 0 3.521-.516 5.024-1.632l.516-.43zM292.116 28.763c1.503 1.116 3.307 1.632 5.025 1.632a8.571 8.571 0 0 0 6.957-3.565l.387-.515c2.791-3.822 1.932-9.19-1.89-11.982-3.822-2.791-9.19-1.933-11.982 1.89l-.386.515c-2.792 3.865-1.933 9.233 1.889 12.025zM95.081 299.964c-3.822-2.792-9.19-1.933-11.981 1.889l-.387.516c-2.791 3.822-1.932 9.19 1.89 11.982 1.503 1.116 3.306 1.632 5.024 1.632a8.571 8.571 0 0 0 6.958-3.565l.386-.515c2.791-3.822 1.932-9.148-1.89-11.939zm47.628-50.977.386-.515c2.792-3.822 1.976-9.191-1.889-11.982-3.822-2.791-9.191-1.976-11.982 1.89l-.387.515c-2.791 3.822-1.975 9.19 1.89 11.982a8.584 8.584 0 0 0 5.068 1.632 8.51 8.51 0 0 0 6.914-3.522zM267.55 47.959l-.386.515c-2.792 3.822-1.933 9.19 1.889 11.982 1.504 1.117 3.307 1.632 5.025 1.632a8.57 8.57 0 0 0 6.957-3.564l.387-.516c2.791-3.822 1.932-9.19-1.89-11.982-3.822-2.748-9.19-1.89-11.982 1.933zM153.789 219.14a8.577 8.577 0 0 0 5.067 1.632c2.663 0 5.24-1.245 6.957-3.521l.387-.516c2.791-3.822 1.975-9.19-1.89-11.981-3.822-2.792-9.19-1.976-11.981 1.889l-.387.516c-2.834 3.822-1.975 9.19 1.847 11.981zM258.404 89.788c2.791-3.822 1.932-9.19-1.89-11.982-3.822-2.791-9.19-1.932-11.982 1.89l-.386.515c-2.792 3.822-1.933 9.191 1.89 11.982 1.503 1.117 3.306 1.632 5.024 1.632a8.57 8.57 0 0 0 6.957-3.565l.387-.472zm-140.26 178.439c-3.823-2.791-9.191-1.932-11.982 1.89l-.387.515c-2.791 3.822-1.932 9.191 1.89 11.982 1.503 1.117 3.307 1.632 5.024 1.632a8.572 8.572 0 0 0 6.958-3.565l.386-.515c2.792-3.822 1.933-9.147-1.889-11.939zm53.467-16.234c-4.51-1.46-9.362.988-10.823 5.498l-.214.601c-1.46 4.509.987 9.362 5.497 10.822.902.301 1.803.43 2.662.43a8.581 8.581 0 0 0 8.16-5.927l.215-.601c1.46-4.509-.988-9.362-5.497-10.823zm12.111-37.319c-4.509-1.46-9.362.988-10.823 5.497l-.214.601c-1.46 4.509.988 9.362 5.497 10.822.902.301 1.761.43 2.662.43 3.608 0 7.001-2.319 8.16-5.927l.215-.601c1.46-4.509-.988-9.362-5.497-10.822zM250.931 7.762c.902.3 1.761.43 2.663.43 3.607 0 7-2.32 8.16-5.927l.214-.601c1.461-4.51-.987-9.362-5.497-10.823-4.509-1.46-9.362.988-10.822 5.498l-.215.6c-1.46 4.51.988 9.363 5.497 10.823zM226.71 82.359c.902.3 1.761.429 2.663.429 3.607 0 7-2.32 8.159-5.926l.215-.602c1.46-4.51-.988-9.362-5.497-10.822-4.509-1.503-9.362.988-10.822 5.497l-.215.6c-1.503 4.51.988 9.364 5.497 10.824zm12.111-37.278c.859.301 1.761.43 2.619.43 3.608 0 7.001-2.319 8.16-5.97l.215-.6c1.46-4.51-1.031-9.363-5.54-10.78-4.509-1.46-9.362 1.03-10.779 5.54l-.215.601c-1.417 4.51 1.03 9.32 5.54 10.78zM147.346 326.59c-4.509-1.46-9.362.988-10.822 5.497l-.215.601c-1.46 4.51.988 9.362 5.497 10.823.902.3 1.761.429 2.663.429 3.607 0 7-2.319 8.159-5.926l.215-.602c1.503-4.509-.988-9.362-5.497-10.822zm12.111-37.32c-4.51-1.46-9.362.988-10.823 5.497l-.214.602c-1.46 4.509.988 9.362 5.497 10.822a8.214 8.214 0 0 0 2.662.429c3.608 0 7.001-2.319 8.16-5.926l.215-.601c1.503-4.51-.988-9.363-5.497-10.823z" fill="#fff" fill-opacity=".1"/><path d="M205.366 139.691h-.645c-4.724 0-8.589 3.822-8.589 8.589s3.865 8.589 8.589 8.589h.645c4.724 0 8.589-3.822 8.589-8.589s-3.865-8.589-8.589-8.589z" fill="#fff" fill-opacity=".1"/></svg>