<svg width="333" height="354" viewBox="0 0 333 354" fill="none" xmlns="http://www.w3.org/2000/svg">
<path d="M205.28 78.4939C210.004 78.4939 213.869 74.6709 213.869 69.9039V69.2599C213.869 64.5359 210.004 60.6709 205.28 60.6709C200.556 60.6709 196.691 64.4929 196.691 69.2599V69.9039C196.691 74.6279 200.556 78.4939 205.28 78.4939Z" fill="white" fill-opacity="0.1"/>
<path d="M205.28 0.0318718C210.004 0.0318718 213.869 -3.83323 213.869 -8.55723V-9.20143C213.869 -13.9254 210.004 -17.7905 205.28 -17.7905C200.556 -17.7905 196.691 -13.9254 196.691 -9.20143V-8.55723C196.691 -3.79033 200.556 0.0318718 205.28 0.0318718Z" fill="white" fill-opacity="0.1"/>
<path d="M205.28 296.012C200.556 296.012 196.691 299.835 196.691 304.602V305.246C196.691 309.97 200.556 313.835 205.28 313.835C210.004 313.835 213.869 310.013 213.869 305.246V304.602C213.869 299.878 210.004 296.012 205.28 296.012Z" fill="white" fill-opacity="0.1"/>
<path d="M205.28 39.2411C210.004 39.2411 213.869 35.4189 213.869 30.652V30.0078C213.869 25.2838 210.004 21.4187 205.28 21.4187C200.556 21.4187 196.691 25.2838 196.691 30.0078V30.652C196.691 35.4189 200.556 39.2411 205.28 39.2411Z" fill="white" fill-opacity="0.1"/>
<path d="M205.28 217.594C200.556 217.594 196.691 221.416 196.691 226.183V226.827C196.691 231.551 200.556 235.416 205.28 235.416C210.004 235.416 213.869 231.594 213.869 226.827V226.183C213.869 221.416 210.004 217.594 205.28 217.594Z" fill="white" fill-opacity="0.1"/>
<path d="M205.28 335.265C200.556 335.265 196.691 339.087 196.691 343.854V344.498C196.691 349.222 200.556 353.087 205.28 353.087C210.004 353.087 213.869 349.265 213.869 344.498V343.854C213.869 339.087 210.004 335.265 205.28 335.265Z" fill="white" fill-opacity="0.1"/>
<path d="M205.28 256.803C200.556 256.803 196.691 260.625 196.691 265.392V266.036C196.691 270.76 200.556 274.626 205.28 274.626C210.004 274.626 213.869 270.803 213.869 266.036V265.392C213.869 260.668 210.004 256.803 205.28 256.803Z" fill="white" fill-opacity="0.1"/>
<path d="M261.968 294.939L261.753 294.338C260.293 289.829 255.483 287.338 250.974 288.798C246.465 290.258 243.974 295.068 245.434 299.577L245.649 300.179C246.808 303.829 250.201 306.148 253.809 306.148C254.667 306.148 255.569 306.019 256.428 305.719C260.938 304.301 263.428 299.448 261.968 294.939Z" fill="white" fill-opacity="0.1"/>
<path d="M273.864 331.615C272.404 327.106 267.551 324.658 263.042 326.118C258.533 327.578 256.085 332.431 257.545 336.94L257.76 337.541C258.919 341.149 262.312 343.468 265.92 343.468C266.821 343.468 267.68 343.339 268.582 343.038C273.091 341.578 275.539 336.725 274.079 332.216L273.864 331.615Z" fill="white" fill-opacity="0.1"/>
<path d="M237.704 220.343L237.49 219.742C236.03 215.232 231.177 212.741 226.71 214.202C222.201 215.662 219.71 220.472 221.17 224.981L221.385 225.582C222.545 229.233 225.937 231.552 229.545 231.552C230.404 231.552 231.306 231.423 232.164 231.122C236.674 229.662 239.165 224.852 237.704 220.343Z" fill="white" fill-opacity="0.1"/>
<path d="M225.636 188.134C226.538 188.434 227.44 188.649 228.385 188.649C230.146 188.649 231.906 188.134 233.41 187.017C235.772 185.299 236.974 182.637 236.931 179.931C236.974 179.931 237.017 179.931 237.06 179.931C239.723 179.931 242.342 178.686 244.017 176.366C245.735 174.004 246.036 171.127 245.177 168.55C247.753 167.777 249.901 165.802 250.803 163.053C251.704 160.305 251.146 157.385 249.514 155.237C251.704 153.691 253.165 151.114 253.165 148.237C253.165 145.36 251.704 142.783 249.514 141.237C251.146 139.09 251.704 136.169 250.803 133.421C249.901 130.672 247.753 128.697 245.177 127.924C246.036 125.39 245.735 122.47 244.017 120.108C242.299 117.746 239.637 116.543 236.931 116.586C236.974 113.881 235.772 111.218 233.41 109.5C231.048 107.782 228.17 107.482 225.593 108.341C224.777 105.764 222.845 103.617 220.096 102.715C217.434 101.856 214.642 102.371 212.495 103.874C210.992 101.469 208.329 99.8799 205.28 99.8799C202.36 99.8799 199.74 101.341 198.194 103.617C196.004 101.942 193.084 101.341 190.292 102.242C187.501 103.144 185.525 105.334 184.752 107.954C182.175 107.052 179.212 107.353 176.85 109.114C174.488 110.832 173.243 113.537 173.329 116.286C170.58 116.2 167.875 117.445 166.157 119.807C164.439 122.169 164.095 125.132 165.04 127.709C162.42 128.482 160.187 130.501 159.285 133.292C158.384 136.084 158.985 139.004 160.66 141.151C158.427 142.697 156.923 145.274 156.923 148.237C156.923 151.2 158.384 153.777 160.66 155.323C158.985 157.47 158.384 160.391 159.285 163.182C160.187 165.974 162.42 167.992 165.04 168.765C164.138 171.342 164.439 174.305 166.157 176.71C167.832 179.029 170.451 180.275 173.114 180.275C173.2 180.275 173.243 180.232 173.329 180.232C173.243 182.98 174.488 185.686 176.85 187.446C178.353 188.563 180.157 189.078 181.875 189.078C182.863 189.078 183.807 188.864 184.709 188.52C185.482 191.14 187.501 193.373 190.292 194.318C191.194 194.618 192.053 194.747 192.955 194.747C194.973 194.747 196.863 193.974 198.366 192.729C199.912 194.833 202.403 196.207 205.237 196.207C208.158 196.207 210.691 194.747 212.237 192.557C213.698 193.674 215.501 194.275 217.348 194.275C218.25 194.275 219.109 194.146 220.011 193.845C222.845 192.901 224.82 190.753 225.636 188.134ZM219.882 176.925C218.207 176.366 216.36 176.324 214.599 176.925C212.796 177.526 211.378 178.643 210.348 180.06C208.931 179.029 207.213 178.428 205.323 178.428C203.305 178.428 201.458 179.158 199.998 180.317C198.967 178.986 197.593 177.955 195.875 177.44C194.028 176.839 192.182 176.925 190.464 177.483C189.949 175.765 188.918 174.219 187.329 173.103C185.783 171.986 183.979 171.471 182.175 171.471C182.218 169.667 181.703 167.863 180.586 166.317C179.47 164.771 177.881 163.698 176.163 163.182C176.721 161.507 176.807 159.618 176.249 157.814C175.648 155.967 174.488 154.507 173.028 153.476C174.102 152.059 174.746 150.299 174.746 148.366C174.746 146.433 174.102 144.716 173.028 143.255C174.488 142.225 175.648 140.722 176.249 138.875C176.85 137.028 176.764 135.182 176.163 133.464C177.881 132.948 179.427 131.918 180.586 130.372C181.703 128.826 182.218 127.022 182.175 125.261C182.218 125.261 182.261 125.261 182.304 125.261C184.065 125.261 185.826 124.746 187.329 123.629C188.875 122.513 189.906 120.924 190.464 119.249C191.323 119.549 192.268 119.721 193.212 119.721C194.114 119.721 195.016 119.592 195.875 119.292C197.679 118.691 199.182 117.531 200.17 116.071C201.587 117.145 203.348 117.789 205.28 117.789C207.084 117.789 208.716 117.23 210.09 116.329C211.121 117.875 212.624 119.163 214.556 119.764C215.458 120.065 216.36 120.194 217.219 120.194C218.121 120.194 219.023 120.065 219.839 119.764C220.397 121.439 221.428 122.942 222.931 124.016C224.434 125.132 226.195 125.648 227.955 125.648C227.955 127.408 228.471 129.126 229.587 130.672C230.704 132.218 232.207 133.206 233.882 133.764C233.324 135.439 233.281 137.286 233.839 139.09C234.44 140.85 235.557 142.311 236.931 143.341C235.9 144.759 235.299 146.476 235.299 148.366C235.299 150.256 235.943 151.973 236.931 153.391C235.514 154.421 234.397 155.838 233.839 157.642C233.238 159.446 233.324 161.293 233.839 162.967C232.164 163.526 230.661 164.556 229.544 166.06C228.428 167.563 227.913 169.323 227.913 171.084C226.152 171.084 224.391 171.6 222.888 172.716C221.428 173.704 220.397 175.25 219.882 176.925Z" fill="white" fill-opacity="0.1"/>
<path d="M249.814 257.576L249.6 256.975C248.139 252.466 243.244 250.018 238.777 251.478C234.268 252.938 231.82 257.791 233.28 262.3L233.495 262.901C234.697 266.509 238.047 268.828 241.655 268.828C242.556 268.828 243.458 268.699 244.317 268.399C248.827 266.938 251.317 262.086 249.814 257.576Z" fill="white" fill-opacity="0.1"/>
<path d="M148.463 1.14852L148.678 1.74972C149.837 5.40012 153.23 7.67622 156.837 7.67622C157.696 7.67622 158.598 7.54741 159.457 7.24681C163.966 5.78661 166.457 0.933817 164.997 -3.57548L164.782 -4.17668C163.322 -8.68598 158.469 -11.1769 153.96 -9.71668C149.494 -8.21358 147.003 -3.36078 148.463 1.14852Z" fill="white" fill-opacity="0.1"/>
<path d="M160.574 38.4682L160.788 39.0695C161.948 42.6769 165.341 44.9961 168.948 44.9961C169.85 44.9961 170.709 44.8671 171.611 44.5661C176.12 43.1061 178.568 38.2535 177.108 33.7442L176.893 33.1859C175.433 28.6767 170.58 26.2288 166.071 27.6889C161.561 29.1491 159.114 33.959 160.574 38.4682Z" fill="white" fill-opacity="0.1"/>
<path d="M172.684 75.7451L172.899 76.3461C174.059 79.9961 177.451 82.3151 181.059 82.3151C181.918 82.3151 182.82 82.1871 183.678 81.8861C188.188 80.4261 190.679 75.6161 189.218 71.1071L189.004 70.5051C187.544 65.9961 182.691 63.5051 178.224 64.9651C173.715 66.4261 171.224 71.2351 172.684 75.7451Z" fill="white" fill-opacity="0.1"/>
<path d="M164.267 91.8061C168.089 89.0151 168.948 83.6471 166.157 79.8251L165.77 79.3091C162.979 75.4871 157.61 74.6281 153.788 77.4201C149.966 80.2111 149.107 85.5791 151.899 89.4011L152.285 89.9171C153.96 92.2361 156.58 93.4811 159.242 93.4811C160.96 93.4381 162.721 92.9231 164.267 91.8061Z" fill="white" fill-opacity="0.1"/>
<path d="M246.036 204.324C242.213 207.116 241.354 212.484 244.146 216.306L244.532 216.821C246.207 219.14 248.827 220.386 251.49 220.386C253.25 220.386 255.011 219.87 256.514 218.754C260.336 215.962 261.195 210.594 258.404 206.772L258.017 206.257C255.226 202.392 249.858 201.533 246.036 204.324Z" fill="white" fill-opacity="0.1"/>
<path d="M106.162 26.4432C107.837 28.7623 110.456 29.9648 113.119 29.9648C114.88 29.9648 116.64 29.4494 118.144 28.3328C121.966 25.5414 122.825 20.1732 120.033 16.351L119.647 15.8357C116.855 12.0135 111.487 11.1546 107.665 13.9461C103.843 16.7375 102.984 22.1057 105.775 25.9279L106.162 26.4432Z" fill="white" fill-opacity="0.1"/>
<path d="M129.223 58.1801C130.898 60.4991 133.518 61.7021 136.18 61.7021C137.941 61.7021 139.702 61.1861 141.248 60.0701C145.07 57.2781 145.929 51.9101 143.137 48.0881L142.751 47.5721C139.959 43.7501 134.591 42.8915 130.769 45.6831C126.947 48.4741 126.088 53.8431 128.879 57.6651L129.223 58.1801Z" fill="white" fill-opacity="0.1"/>
<path d="M304.098 269.73C301.307 265.908 295.938 265.049 292.116 267.84C288.294 270.632 287.435 276 290.227 279.822L290.613 280.338C292.288 282.657 294.908 283.902 297.57 283.902C299.331 283.902 301.092 283.387 302.595 282.27C306.417 279.479 307.276 274.11 304.485 270.288L304.098 269.73Z" fill="white" fill-opacity="0.1"/>
<path d="M281.035 237.951C278.244 234.129 272.876 233.27 269.053 236.061C265.231 238.853 264.372 244.221 267.164 248.043L267.55 248.558C269.225 250.877 271.845 252.08 274.508 252.08C276.268 252.08 278.029 251.565 279.575 250.448C283.397 247.656 284.256 242.288 281.465 238.466L281.035 237.951Z" fill="white" fill-opacity="0.1"/>
<path d="M327.159 301.467C324.367 297.645 318.999 296.786 315.177 299.577C311.355 302.369 310.496 307.737 313.287 311.559L313.674 312.074C315.349 314.393 317.968 315.639 320.631 315.639C322.392 315.639 324.153 315.123 325.656 314.007C329.478 311.215 330.337 305.847 327.545 302.025L327.159 301.467Z" fill="white" fill-opacity="0.1"/>
<path d="M104.573 85.708L105.088 86.095C106.591 87.212 108.395 87.727 110.113 87.727C112.776 87.727 115.395 86.482 117.07 84.162C119.862 80.34 119.003 74.972 115.181 72.181L114.665 71.837C110.843 69.046 105.475 69.905 102.683 73.727C99.8919 77.592 100.751 82.917 104.573 85.708Z" fill="white" fill-opacity="0.1"/>
<path d="M305.6 210.551L305.085 210.165C301.263 207.373 295.895 208.232 293.103 212.054C290.312 215.877 291.171 221.245 294.993 224.036L295.508 224.423C297.011 225.539 298.815 226.055 300.533 226.055C303.196 226.055 305.815 224.809 307.49 222.49C310.282 218.711 309.423 213.343 305.6 210.551Z" fill="white" fill-opacity="0.1"/>
<path d="M337.338 233.613L336.822 233.226C333 230.435 327.632 231.294 324.841 235.116C322.049 238.938 322.908 244.306 326.73 247.098L327.246 247.484C328.749 248.601 330.552 249.116 332.27 249.116C334.933 249.116 337.552 247.871 339.227 245.552C342.019 241.73 341.16 236.404 337.338 233.613Z" fill="white" fill-opacity="0.1"/>
<path d="M41.099 39.6273L41.6143 40.0138C43.1174 41.1304 44.9211 41.6458 46.639 41.6458C49.3016 41.6458 51.9213 40.4003 53.5962 38.0813C56.3876 34.2591 55.5287 28.8909 51.7065 26.0995L51.1912 25.7129C47.369 22.9215 42.0008 23.7804 39.2094 27.6026C36.4179 31.4677 37.2768 36.8358 41.099 39.6273Z" fill="white" fill-opacity="0.1"/>
<path d="M263.257 201.017L263.772 201.404C265.275 202.52 267.079 203.036 268.797 203.036C271.459 203.036 274.079 201.79 275.754 199.471C278.545 195.649 277.686 190.281 273.864 187.489L273.349 187.103C269.527 184.311 264.159 185.17 261.367 188.993C258.576 192.815 259.392 198.226 263.257 201.017Z" fill="white" fill-opacity="0.1"/>
<path d="M148.806 107.267C151.598 103.445 150.739 98.0771 146.917 95.2851L146.401 94.8991C142.579 92.1071 137.211 92.9661 134.419 96.7881C131.628 100.61 132.487 105.979 136.309 108.77L136.824 109.157C138.328 110.273 140.131 110.789 141.849 110.789C144.512 110.789 147.131 109.586 148.806 107.267Z" fill="white" fill-opacity="0.1"/>
<path d="M72.8353 62.6471L73.3507 63.0331C74.8538 64.1501 76.6575 64.6651 78.3753 64.6651C81.0379 64.6651 83.6576 63.4201 85.3325 61.1011C88.124 57.2781 87.265 51.9101 83.4429 49.1191L82.9275 48.7321C79.1054 45.9411 73.7372 46.8001 70.9457 50.6221C68.1542 54.5301 69.0132 59.8981 72.8353 62.6471Z" fill="white" fill-opacity="0.1"/>
<path d="M21.4733 79.5241L20.872 79.3091C16.3627 77.8491 11.5099 80.3401 10.0927 84.8491C8.67544 89.3581 11.1234 94.2111 15.6327 95.6291L16.2339 95.8431C17.0928 96.1441 17.9947 96.2731 18.8536 96.2731C22.461 96.2731 25.8537 93.9541 27.0132 90.3031C28.4304 85.7941 25.9825 80.9841 21.4733 79.5241Z" fill="white" fill-opacity="0.1"/>
<path d="M95.5108 103.573C91.0015 102.07 86.1487 104.518 84.6885 109.028C83.2284 113.537 85.6763 118.39 90.1426 119.85L90.7438 120.065C91.6457 120.365 92.5476 120.494 93.4065 120.494C97.0139 120.494 100.364 118.218 101.566 114.568C103.026 110.058 100.578 105.205 96.112 103.745L95.5108 103.573Z" fill="white" fill-opacity="0.1"/>
<path d="M314.619 192.814C315.478 193.115 316.38 193.244 317.239 193.244C320.846 193.244 324.239 190.925 325.398 187.317C326.859 182.808 324.368 177.955 319.858 176.495L319.257 176.28C314.748 174.82 309.895 177.311 308.435 181.82C306.975 186.33 309.466 191.182 313.975 192.643L314.619 192.814Z" fill="white" fill-opacity="0.1"/>
<path d="M58.8351 91.6781L58.2339 91.4631C53.7246 89.9601 48.8718 92.4081 47.4116 96.9171C45.9085 101.427 48.3564 106.279 52.8657 107.74L53.4669 107.954C54.3688 108.255 55.2706 108.384 56.1725 108.384C59.7799 108.384 63.1297 106.108 64.3322 102.5C65.7494 97.9911 63.3015 93.1381 58.8351 91.6781Z" fill="white" fill-opacity="0.1"/>
<path d="M127.506 132.046L128.107 132.261C128.966 132.561 129.868 132.69 130.727 132.69C134.334 132.69 137.727 130.371 138.886 126.764C140.346 122.255 137.856 117.402 133.346 115.942L132.745 115.727C128.236 114.267 123.383 116.757 121.923 121.267C120.463 125.776 122.996 130.586 127.506 132.046Z" fill="white" fill-opacity="0.1"/>
<path d="M282.625 164.384L282.024 164.17C277.515 162.667 272.662 165.114 271.202 169.624C269.742 174.133 272.19 178.986 276.656 180.446L277.257 180.661C278.159 180.961 279.061 181.09 279.92 181.09C283.527 181.09 286.877 178.814 288.08 175.164C289.583 170.74 287.135 165.887 282.625 164.384Z" fill="white" fill-opacity="0.1"/>
<path d="M126.26 139.691C121.536 139.691 117.671 143.513 117.671 148.28C117.671 153.047 121.536 156.869 126.26 156.869H126.904C131.628 156.869 135.493 153.047 135.493 148.28C135.493 143.513 131.628 139.691 126.904 139.691H126.26Z" fill="white" fill-opacity="0.1"/>
<path d="M87.0507 139.691C82.3267 139.691 78.4615 143.513 78.4615 148.28C78.4615 153.047 82.3267 156.869 87.0507 156.869H87.6948C92.4189 156.869 96.284 153.047 96.284 148.28C96.284 143.513 92.4189 139.691 87.6948 139.691H87.0507Z" fill="white" fill-opacity="0.1"/>
<path d="M283.784 139.691H283.14C278.416 139.691 274.551 143.513 274.551 148.28C274.551 153.047 278.416 156.869 283.14 156.869H283.784C288.508 156.869 292.373 153.047 292.373 148.28C292.373 143.513 288.551 139.691 283.784 139.691Z" fill="white" fill-opacity="0.1"/>
<path d="M313.803 148.28C313.803 153.004 317.669 156.869 322.393 156.869H323.037C327.761 156.869 331.626 153.047 331.626 148.28C331.626 143.513 327.761 139.691 323.037 139.691H322.393C317.669 139.691 313.803 143.556 313.803 148.28Z" fill="white" fill-opacity="0.1"/>
<path d="M17.8224 148.28C17.8224 143.556 13.9573 139.691 9.2333 139.691H8.58912C3.8651 139.691 0 143.513 0 148.28C0 153.047 3.8651 156.869 8.58912 156.869H9.2333C13.9573 156.869 17.8224 153.004 17.8224 148.28Z" fill="white" fill-opacity="0.1"/>
<path d="M47.7982 156.869H48.4424C53.1664 156.869 57.0315 153.047 57.0315 148.28C57.0315 143.513 53.1664 139.691 48.4424 139.691H47.7982C43.0742 139.691 39.2091 143.513 39.2091 148.28C39.2091 153.047 43.0742 156.869 47.7982 156.869Z" fill="white" fill-opacity="0.1"/>
<path d="M308.478 114.739C309.638 118.39 313.03 120.666 316.638 120.666C317.497 120.666 318.398 120.537 319.257 120.237L319.859 120.022C324.368 118.562 326.859 113.709 325.399 109.2C323.938 104.69 319.086 102.199 314.576 103.66L313.975 103.874C309.509 105.377 307.018 110.23 308.478 114.739Z" fill="white" fill-opacity="0.1"/>
<path d="M277.3 115.856L276.698 116.071C272.189 117.531 269.741 122.384 271.244 126.893C272.447 130.501 275.796 132.82 279.404 132.82C280.306 132.82 281.208 132.691 282.067 132.39L282.668 132.176C287.177 130.716 289.625 125.863 288.122 121.353C286.619 116.844 281.766 114.353 277.3 115.856Z" fill="white" fill-opacity="0.1"/>
<path d="M16.1903 200.716L15.589 200.931C11.0797 202.348 8.58892 207.201 10.049 211.71C11.2086 215.361 14.6013 217.68 18.2087 217.68C19.0676 217.68 19.9695 217.551 20.8284 217.25L21.4726 217.036C25.9819 215.576 28.4727 210.766 27.0126 206.256C25.5524 201.704 20.6996 199.256 16.1903 200.716Z" fill="white" fill-opacity="0.1"/>
<path d="M132.788 180.876L133.389 180.661C137.899 179.201 140.39 174.348 138.929 169.839C137.469 165.329 132.616 162.839 128.107 164.299L127.506 164.513C122.997 165.974 120.506 170.826 121.966 175.336C123.125 178.986 126.518 181.262 130.126 181.262C130.984 181.262 131.886 181.133 132.788 180.876Z" fill="white" fill-opacity="0.1"/>
<path d="M53.4238 188.606L52.8226 188.821C48.3133 190.324 45.8654 195.177 47.3685 199.643C48.571 203.25 51.9207 205.527 55.5282 205.527C56.43 205.527 57.3319 205.398 58.2338 205.097L58.835 204.882C63.3443 203.379 65.7922 198.526 64.2891 194.06C62.786 189.551 57.9331 187.103 53.4238 188.606Z" fill="white" fill-opacity="0.1"/>
<path d="M101.567 181.949C100.106 177.44 95.2106 174.992 90.7443 176.495L90.143 176.71C85.6338 178.17 83.1859 183.023 84.6889 187.532C85.8914 191.139 89.2412 193.458 92.8486 193.458C93.7505 193.458 94.6523 193.33 95.5112 193.029L96.1125 192.814C100.622 191.311 103.07 186.458 101.567 181.949Z" fill="white" fill-opacity="0.1"/>
<path d="M327.246 49.0761L326.73 49.4621C322.908 52.2541 322.049 57.6221 324.841 61.4441C326.515 63.7631 329.135 65.0091 331.798 65.0091C333.559 65.0091 335.319 64.4931 336.822 63.3771L337.338 62.9901C341.16 60.1991 342.019 54.8301 339.227 51.0081C336.436 47.1431 331.068 46.2841 327.246 49.0761Z" fill="white" fill-opacity="0.1"/>
<path d="M41.6143 256.589L41.099 256.933C37.2768 259.724 36.4179 265.092 39.2094 268.957C40.8843 271.276 43.5039 272.522 46.1666 272.522C47.9273 272.522 49.6881 272.006 51.1912 270.89L51.7065 270.503C55.5287 267.712 56.3876 262.344 53.5962 258.522C50.8476 254.656 45.4794 253.798 41.6143 256.589Z" fill="white" fill-opacity="0.1"/>
<path d="M295.508 72.1371L294.993 72.5241C291.171 75.3151 290.312 80.6841 293.103 84.5061C294.778 86.8251 297.398 88.0701 300.06 88.0701C301.821 88.0701 303.582 87.5551 305.085 86.4381L305.6 86.0521C309.423 83.2601 310.282 77.8921 307.49 74.0701C304.699 70.2051 299.33 69.3461 295.508 72.1371Z" fill="white" fill-opacity="0.1"/>
<path d="M136.309 187.79C132.487 190.581 131.628 195.949 134.419 199.772C136.094 202.091 138.714 203.336 141.377 203.336C143.137 203.336 144.898 202.821 146.401 201.704L146.917 201.318C150.739 198.526 151.598 193.158 148.806 189.336C146.015 185.514 140.647 184.655 136.824 187.446L136.309 187.79Z" fill="white" fill-opacity="0.1"/>
<path d="M273.864 109.071C277.687 106.279 278.545 100.911 275.754 97.0891C272.963 93.2671 267.594 92.4081 263.772 95.1991L263.257 95.5861C259.435 98.3771 258.576 103.745 261.367 107.568C263.042 109.887 265.662 111.132 268.324 111.132C270.085 111.132 271.846 110.617 273.349 109.5L273.864 109.071Z" fill="white" fill-opacity="0.1"/>
<path d="M114.665 224.723L115.181 224.336C119.003 221.545 119.862 216.177 117.07 212.355C114.279 208.532 108.91 207.674 105.088 210.465L104.573 210.852C100.751 213.643 99.8919 219.011 102.683 222.833C104.358 225.152 106.978 226.398 109.641 226.398C111.358 226.355 113.119 225.84 114.665 224.723Z" fill="white" fill-opacity="0.1"/>
<path d="M83.4429 247.398C87.265 244.607 88.124 239.239 85.3325 235.416C82.541 231.594 77.1728 230.735 73.3507 233.527L72.8353 233.913C69.0132 236.705 68.1542 242.073 70.9457 245.895C72.6206 248.214 75.2403 249.46 77.9029 249.46C79.6637 249.46 81.4244 248.944 82.9275 247.828L83.4429 247.398Z" fill="white" fill-opacity="0.1"/>
<path d="M292.116 28.7628C293.619 29.8793 295.423 30.3947 297.141 30.3947C299.803 30.3947 302.423 29.1493 304.098 26.8302L304.485 26.3149C307.276 22.4927 306.417 17.1245 302.595 14.333C298.773 11.5416 293.405 12.4005 290.613 16.2226L290.227 16.738C287.435 20.6031 288.294 25.9713 292.116 28.7628Z" fill="white" fill-opacity="0.1"/>
<path d="M95.0814 299.964C91.2592 297.172 85.891 298.031 83.0996 301.853L82.713 302.369C79.9216 306.191 80.7805 311.559 84.6027 314.351C86.1057 315.467 87.9095 315.983 89.6273 315.983C92.2899 315.983 94.9096 314.737 96.5845 312.418L96.971 311.903C99.7624 308.081 98.9035 302.755 95.0814 299.964Z" fill="white" fill-opacity="0.1"/>
<path d="M142.709 248.987L143.095 248.472C145.887 244.65 145.071 239.281 141.206 236.49C137.384 233.699 132.015 234.514 129.224 238.38L128.837 238.895C126.046 242.717 126.862 248.085 130.727 250.877C132.273 251.993 134.034 252.509 135.795 252.509C138.414 252.509 141.034 251.306 142.709 248.987Z" fill="white" fill-opacity="0.1"/>
<path d="M267.55 47.9589L267.164 48.4739C264.372 52.2959 265.231 57.6649 269.053 60.4559C270.557 61.5729 272.36 62.0879 274.078 62.0879C276.741 62.0879 279.36 60.8429 281.035 58.5239L281.422 58.0079C284.213 54.1859 283.354 48.8179 279.532 46.0259C275.71 43.2779 270.342 44.1369 267.55 47.9589Z" fill="white" fill-opacity="0.1"/>
<path d="M153.789 219.14C155.335 220.257 157.096 220.772 158.856 220.772C161.519 220.772 164.096 219.527 165.813 217.251L166.2 216.735C168.991 212.913 168.175 207.545 164.31 204.754C160.488 201.962 155.12 202.778 152.329 206.643L151.942 207.159C149.108 210.981 149.967 216.349 153.789 219.14Z" fill="white" fill-opacity="0.1"/>
<path d="M258.404 89.788C261.195 85.966 260.336 80.598 256.514 77.806C252.692 75.015 247.324 75.874 244.532 79.696L244.146 80.211C241.354 84.033 242.213 89.402 246.036 92.193C247.539 93.31 249.342 93.825 251.06 93.825C253.723 93.825 256.342 92.579 258.017 90.26L258.404 89.788Z" fill="white" fill-opacity="0.1"/>
<path d="M118.144 268.227C114.321 265.436 108.953 266.295 106.162 270.117L105.775 270.632C102.984 274.454 103.843 279.823 107.665 282.614C109.168 283.731 110.972 284.246 112.689 284.246C115.352 284.246 117.972 283 119.647 280.681L120.033 280.166C122.825 276.344 121.966 271.019 118.144 268.227Z" fill="white" fill-opacity="0.1"/>
<path d="M171.611 251.993C167.101 250.533 162.249 252.981 160.788 257.491L160.574 258.092C159.114 262.601 161.561 267.454 166.071 268.914C166.973 269.215 167.874 269.344 168.733 269.344C172.341 269.344 175.691 267.067 176.893 263.417L177.108 262.816C178.568 258.307 176.12 253.454 171.611 251.993Z" fill="white" fill-opacity="0.1"/>
<path d="M183.722 214.674C179.213 213.214 174.36 215.662 172.899 220.171L172.685 220.772C171.225 225.281 173.673 230.134 178.182 231.594C179.084 231.895 179.943 232.024 180.844 232.024C184.452 232.024 187.845 229.705 189.004 226.097L189.219 225.496C190.679 220.987 188.231 216.134 183.722 214.674Z" fill="white" fill-opacity="0.1"/>
<path d="M250.931 7.76209C251.833 8.06269 252.692 8.19159 253.594 8.19159C257.201 8.19159 260.594 5.87249 261.754 2.26509L261.968 1.66379C263.429 -2.84551 260.981 -7.69831 256.471 -9.15851C251.962 -10.6186 247.109 -8.17071 245.649 -3.66141L245.434 -3.06021C243.974 1.44909 246.422 6.30189 250.931 7.76209Z" fill="white" fill-opacity="0.1"/>
<path d="M226.71 82.3589C227.612 82.6589 228.471 82.7879 229.373 82.7879C232.98 82.7879 236.373 80.4689 237.532 76.8619L237.747 76.2599C239.207 71.7509 236.759 66.8979 232.25 65.4379C227.741 63.9349 222.888 66.4259 221.428 70.9349L221.213 71.5359C219.71 76.0459 222.201 80.8989 226.71 82.3589Z" fill="white" fill-opacity="0.1"/>
<path d="M238.821 45.0811C239.68 45.3821 240.582 45.5111 241.44 45.5111C245.048 45.5111 248.441 43.1921 249.6 39.5415L249.815 38.9403C251.275 34.431 248.784 29.5782 244.275 28.161C239.766 26.7008 234.913 29.1917 233.496 33.7009L233.281 34.3022C231.864 38.8115 234.311 43.6211 238.821 45.0811Z" fill="white" fill-opacity="0.1"/>
<path d="M147.346 326.59C142.837 325.13 137.984 327.578 136.524 332.087L136.309 332.688C134.849 337.198 137.297 342.05 141.806 343.511C142.708 343.811 143.567 343.94 144.469 343.94C148.076 343.94 151.469 341.621 152.628 338.014L152.843 337.412C154.346 332.903 151.855 328.05 147.346 326.59Z" fill="white" fill-opacity="0.1"/>
<path d="M159.457 289.27C154.947 287.81 150.095 290.258 148.634 294.767L148.42 295.369C146.96 299.878 149.408 304.731 153.917 306.191C154.819 306.492 155.678 306.62 156.579 306.62C160.187 306.62 163.58 304.301 164.739 300.694L164.954 300.093C166.457 295.583 163.966 290.73 159.457 289.27Z" fill="white" fill-opacity="0.1"/>
<path d="M205.366 139.691H204.721C199.997 139.691 196.132 143.513 196.132 148.28C196.132 153.047 199.997 156.869 204.721 156.869H205.366C210.09 156.869 213.955 153.047 213.955 148.28C213.955 143.513 210.09 139.691 205.366 139.691Z" fill="white" fill-opacity="0.1"/>
</svg>
