<svg width="122" height="260" fill="none" xmlns="http://www.w3.org/2000/svg"><path d="m27.804 222.748-.136-.38c-.924-2.854-3.968-4.43-6.822-3.506-2.854.924-4.43 3.968-3.507 6.822l.137.381a5.43 5.43 0 0 0 5.164 3.778c.543 0 1.114-.082 1.658-.272 2.854-.897 4.43-3.969 3.506-6.823zm7.529 23.213c-.924-2.854-3.995-4.403-6.85-3.479-2.853.924-4.402 3.996-3.478 6.849l.136.381c.733 2.283 2.88 3.751 5.164 3.751.57 0 1.114-.081 1.685-.272 2.854-.924 4.403-3.996 3.48-6.849l-.137-.381zm-22.886-70.426-.135-.38c-.924-2.855-3.996-4.431-6.823-3.507-2.854.925-4.43 3.969-3.507 6.823l.136.38a5.431 5.431 0 0 0 5.165 3.779c.544 0 1.115-.082 1.658-.273 2.854-.924 4.43-3.968 3.506-6.822zM4.809 155.15c.57.189 1.142.326 1.74.326a5.292 5.292 0 0 0 3.18-1.033 5.402 5.402 0 0 0 2.229-4.485h.081a5.422 5.422 0 0 0 4.404-2.257c1.087-1.495 1.277-3.315.734-4.946a5.36 5.36 0 0 0 3.56-3.48 5.403 5.403 0 0 0-.815-4.946 5.446 5.446 0 0 0 2.31-4.431 5.443 5.443 0 0 0-2.31-4.43 5.405 5.405 0 0 0 .816-4.947 5.357 5.357 0 0 0-3.561-3.479c.544-1.604.353-3.452-.734-4.947a5.398 5.398 0 0 0-4.485-2.229 5.4 5.4 0 0 0-2.229-4.485c-1.495-1.088-3.316-1.277-4.947-.734-.517-1.631-1.74-2.99-3.48-3.561a5.458 5.458 0 0 0-4.81.734 5.367 5.367 0 0 0-4.567-2.528 5.416 5.416 0 0 0-4.485 2.365 5.452 5.452 0 0 0-5-.87 5.364 5.364 0 0 0-3.507 3.615c-1.631-.571-3.507-.38-5.002.734a5.394 5.394 0 0 0-2.228 4.54 5.39 5.39 0 0 0-4.54 2.228 5.355 5.355 0 0 0-.706 5.002 5.44 5.44 0 0 0-3.643 3.533 5.383 5.383 0 0 0 .87 4.974 5.449 5.449 0 0 0-2.365 4.485 5.38 5.38 0 0 0 2.365 4.485 5.384 5.384 0 0 0-.87 4.974 5.442 5.442 0 0 0 3.643 3.534 5.494 5.494 0 0 0 .707 5.028 5.423 5.423 0 0 0 4.403 2.256c.054 0 .081-.027.136-.027a5.473 5.473 0 0 0 2.229 4.566 5.349 5.349 0 0 0 3.18 1.033 5.01 5.01 0 0 0 1.794-.353 5.537 5.537 0 0 0 3.533 3.67 5.243 5.243 0 0 0 1.686.271c1.277 0 2.473-.489 3.424-1.277a5.38 5.38 0 0 0 4.35 2.201 5.405 5.405 0 0 0 4.43-2.31 5.33 5.33 0 0 0 3.234 1.087 5.19 5.19 0 0 0 1.686-.272 5.495 5.495 0 0 0 3.56-3.614zm-3.642-7.095a5.214 5.214 0 0 0-3.344 0 5.415 5.415 0 0 0-2.69 1.984 5.363 5.363 0 0 0-3.18-1.033 5.42 5.42 0 0 0-3.37 1.196c-.653-.842-1.523-1.495-2.61-1.821-1.17-.38-2.338-.326-3.425.027a5.148 5.148 0 0 0-1.984-2.772 5.53 5.53 0 0 0-3.262-1.033 5.322 5.322 0 0 0-1.006-3.262 5.363 5.363 0 0 0-2.8-1.984 5.57 5.57 0 0 0 .055-3.397 5.373 5.373 0 0 0-2.038-2.746 5.325 5.325 0 0 0 1.087-3.234c0-1.224-.408-2.31-1.088-3.235a5.44 5.44 0 0 0 2.04-2.772c.38-1.169.325-2.338-.055-3.425a5.413 5.413 0 0 0 2.8-1.957 5.295 5.295 0 0 0 1.005-3.235h.081a5.29 5.29 0 0 0 3.18-1.033c.98-.706 1.632-1.712 1.985-2.772.544.19 1.142.299 1.74.299.57 0 1.141-.082 1.685-.272a5.302 5.302 0 0 0 2.718-2.038 5.33 5.33 0 0 0 3.234 1.087 5.517 5.517 0 0 0 3.045-.924c.652.978 1.603 1.794 2.826 2.174a5.307 5.307 0 0 0 1.686.272c.57 0 1.141-.081 1.658-.272.353 1.06 1.006 2.011 1.957 2.691a5.29 5.29 0 0 0 3.18 1.033 5.35 5.35 0 0 0 1.033 3.18c.707.978 1.658 1.604 2.718 1.957a5.49 5.49 0 0 0-.027 3.371 5.65 5.65 0 0 0 1.957 2.69 5.363 5.363 0 0 0-1.033 3.181c0 1.196.407 2.283 1.033 3.18-.897.652-1.604 1.549-1.957 2.691-.38 1.141-.326 2.31 0 3.37a5.538 5.538 0 0 0-2.719 1.958 5.291 5.291 0 0 0-1.032 3.179 5.297 5.297 0 0 0-3.18 1.033c-.924.626-1.577 1.604-1.903 2.664zm18.945 51.046-.136-.381c-.924-2.854-4.023-4.403-6.85-3.479-2.854.924-4.403 3.996-3.479 6.85l.136.38a5.466 5.466 0 0 0 5.165 3.751c.57 0 1.14-.081 1.684-.271 2.855-.925 4.43-3.996 3.48-6.85zm-2.392-33.704c-2.42 1.767-2.963 5.164-1.196 7.583l.244.326a5.425 5.425 0 0 0 4.404 2.256 5.296 5.296 0 0 0 3.18-1.032c2.42-1.768 2.963-5.165 1.196-7.584l-.245-.326c-1.766-2.446-5.164-2.99-7.583-1.223zm36.749 41.396c-1.767-2.419-5.165-2.963-7.584-1.196-2.419 1.767-2.962 5.165-1.195 7.584l.244.326a5.424 5.424 0 0 0 4.403 2.256c1.115 0 2.23-.326 3.18-1.033 2.42-1.767 2.963-5.165 1.197-7.584l-.245-.353zM39.872 186.68c-1.767-2.419-5.164-2.963-7.584-1.197-2.419 1.768-2.962 5.165-1.195 7.584l.244.326c1.06 1.468 2.718 2.229 4.404 2.229a5.428 5.428 0 0 0 3.207-1.033c2.419-1.767 2.963-5.164 1.196-7.583l-.272-.326zm29.193 40.2c-1.767-2.419-5.165-2.963-7.584-1.196-2.419 1.767-2.963 5.164-1.196 7.583l.245.326a5.424 5.424 0 0 0 4.403 2.257 5.297 5.297 0 0 0 3.18-1.033c2.42-1.767 2.963-5.165 1.196-7.584l-.244-.353zM55.42 169.338l-.327-.245c-2.419-1.767-5.816-1.223-7.583 1.196-1.767 2.42-1.223 5.817 1.196 7.584l.326.245a5.356 5.356 0 0 0 3.18 1.033 5.424 5.424 0 0 0 4.404-2.257c1.767-2.392 1.223-5.789-1.197-7.556zm40.173 29.192-.326-.245c-2.42-1.766-5.817-1.222-7.583 1.197-1.767 2.419-1.224 5.816 1.195 7.583l.327.245a5.349 5.349 0 0 0 3.18 1.033 5.424 5.424 0 0 0 4.404-2.256c1.766-2.42 1.222-5.79-1.197-7.557zm-20.086-14.596-.327-.245c-2.419-1.766-5.816-1.223-7.583 1.196-1.767 2.419-1.223 5.817 1.196 7.584l.327.244a5.347 5.347 0 0 0 3.18 1.033 5.424 5.424 0 0 0 4.403-2.256c1.767-2.419 1.223-5.789-1.196-7.556zM28.62 163.303l.326.245a5.349 5.349 0 0 0 3.18 1.033 5.424 5.424 0 0 0 4.403-2.256c1.767-2.419 1.223-5.817-1.196-7.584l-.326-.244c-2.419-1.767-5.816-1.223-7.583 1.196-1.767 2.419-1.25 5.844 1.196 7.61zm32.508-5.191c.544.19 1.114.272 1.658.272 2.283 0 4.43-1.468 5.164-3.751.925-2.854-.652-5.926-3.506-6.85l-.38-.136c-2.854-.924-5.926.653-6.85 3.506-.924 2.855.652 5.926 3.506 6.85l.408.109zm50.557 5.028-.381-.135c-2.854-.924-5.925.652-6.849 3.506-.924 2.854.652 5.926 3.506 6.85l.381.136c.543.19 1.114.271 1.658.271 2.283 0 4.43-1.468 5.164-3.75.951-2.909-.598-5.98-3.479-6.878zm-20.087-.842c.924-2.854-.653-5.926-3.507-6.822l-.38-.137c-2.854-.924-5.925.653-6.823 3.507-.924 2.854.653 5.925 3.506 6.823l.354.135a5.025 5.025 0 0 0 1.658.272 5.535 5.535 0 0 0 5.192-3.778zm-50.72-22.18-.38-.136a5.396 5.396 0 0 0-6.85 3.452c-.924 2.854.626 5.926 3.452 6.85l.38.136c.572.19 1.143.271 1.686.271a5.431 5.431 0 0 0 5.165-3.75c.951-2.8-.598-5.872-3.453-6.823zm44.55-10.193c0 2.99 2.446 5.436 5.436 5.436h.408a5.434 5.434 0 0 0 5.436-5.436 5.434 5.434 0 0 0-5.436-5.436h-.408c-2.99 0-5.436 2.446-5.436 5.436zm-43.816-5.436h-.408a5.434 5.434 0 0 0-5.436 5.436 5.434 5.434 0 0 0 5.436 5.436h.408a5.434 5.434 0 0 0 5.436-5.436 5.417 5.417 0 0 0-5.436-5.436zm18.999 5.436c0 2.99 2.447 5.436 5.437 5.436h.408a5.435 5.435 0 0 0 5.436-5.436 5.435 5.435 0 0 0-5.436-5.436h-.408c-2.99 0-5.437 2.446-5.437 5.436zm55.505-5.436h-.408a5.435 5.435 0 0 0-5.437 5.436 5.435 5.435 0 0 0 5.437 5.436h.408a5.435 5.435 0 0 0 5.436-5.436 5.435 5.435 0 0 0-5.436-5.436zm-6.47-27.371c.544 0 1.115-.082 1.658-.272l.381-.136c2.854-.924 4.43-3.995 3.506-6.85a5.436 5.436 0 0 0-6.849-3.506l-.381.136c-2.854.924-4.43 3.996-3.506 6.85a5.464 5.464 0 0 0 5.191 3.778zm-23.621 7.665c.544 0 1.115-.082 1.659-.272l.38-.136c2.854-.924 4.43-3.968 3.506-6.822-.924-2.855-3.995-4.431-6.822-3.507l-.38.136c-2.855.924-4.431 3.968-3.507 6.823a5.432 5.432 0 0 0 5.164 3.778zm-28.784 3.914c.734 2.31 2.881 3.751 5.165 3.751a5.05 5.05 0 0 0 1.657-.272l.381-.136c2.854-.924 4.43-3.995 3.507-6.849-.925-2.855-3.996-4.431-6.85-3.506l-.38.135c-2.827.951-4.404 4.023-3.48 6.877zm-19.733.707-.381.136a5.396 5.396 0 0 0-3.452 6.849 5.466 5.466 0 0 0 5.165 3.751c.57 0 1.141-.081 1.685-.272l.38-.135a5.397 5.397 0 0 0 3.452-6.85c-.95-2.854-4.023-4.431-6.85-3.479zM69.12 67.137l-.327.245c-2.419 1.767-2.963 5.164-1.196 7.583a5.424 5.424 0 0 0 4.404 2.257 5.294 5.294 0 0 0 3.18-1.033l.326-.245c2.419-1.767 2.963-5.165 1.196-7.584-1.767-2.446-5.164-2.99-7.583-1.223zM49.032 81.733l-.326.245c-2.419 1.767-2.963 5.165-1.196 7.584a5.425 5.425 0 0 0 4.403 2.255c1.115 0 2.23-.326 3.18-1.032l.326-.245c2.42-1.767 2.964-5.164 1.197-7.583-1.767-2.447-5.165-2.99-7.584-1.224zM89.206 52.54l-.327.246c-2.419 1.766-2.962 5.164-1.195 7.583a5.424 5.424 0 0 0 4.403 2.256c1.114 0 2.23-.326 3.18-1.033l.326-.245c2.42-1.766 2.963-5.164 1.197-7.583-1.768-2.42-5.165-2.99-7.584-1.223zm-53.873 52.569c2.42-1.767 2.963-5.164 1.197-7.583-1.767-2.42-5.165-2.963-7.584-1.197l-.326.245c-2.42 1.767-2.963 5.164-1.196 7.584a5.424 5.424 0 0 0 4.403 2.256 5.29 5.29 0 0 0 3.18-1.033l.326-.272zM46.885 54.28a5.351 5.351 0 0 0 3.18 1.034 5.425 5.425 0 0 0 4.404-2.256l.245-.327c1.766-2.419 1.223-5.816-1.196-7.583-2.42-1.767-5.817-1.223-7.584 1.196l-.244.326a5.46 5.46 0 0 0 1.195 7.61zm14.596-20.114a5.43 5.43 0 0 0 3.208 1.033 5.435 5.435 0 0 0 4.403-2.228l.244-.327a5.407 5.407 0 0 0-1.195-7.583 5.408 5.408 0 0 0-7.584 1.196l-.245.326c-1.794 2.42-1.25 5.817 1.169 7.584zM31.337 66.43l-.244.326c-1.767 2.42-1.224 5.817 1.195 7.584a5.35 5.35 0 0 0 3.18 1.033 5.424 5.424 0 0 0 4.404-2.256l.245-.326c1.766-2.42 1.223-5.817-1.196-7.584-2.42-1.74-5.817-1.196-7.584 1.223zm-5.789 26.475c1.767-2.42 1.223-5.817-1.196-7.584-2.419-1.766-5.816-1.223-7.584 1.196l-.244.326c-1.767 2.42-1.223 5.817 1.196 7.584a5.347 5.347 0 0 0 3.18 1.033 5.424 5.424 0 0 0 4.403-2.256l.245-.3zM20.819 40.99c.57.19 1.114.271 1.685.271 2.283 0 4.43-1.468 5.165-3.751l.135-.38c.925-2.855-.625-5.926-3.479-6.85-2.854-.924-5.925.625-6.85 3.479l-.136.38c-.924 2.855.626 5.926 3.48 6.85zM5.489 88.203c.57.19 1.114.271 1.685.271 2.283 0 4.43-1.467 5.164-3.75l.136-.381c.924-2.854-.625-5.926-3.479-6.85-2.854-.951-5.925.626-6.85 3.48l-.135.38c-.952 2.854.625 5.926 3.479 6.85zm7.665-23.594a5.04 5.04 0 0 0 1.658.272 5.43 5.43 0 0 0 5.164-3.778l.136-.38c.924-2.855-.652-5.926-3.506-6.823-2.854-.924-5.926.652-6.822 3.506l-.136.38c-.897 2.855.652 5.899 3.506 6.823zm15.357-47.213c.544.19 1.115.271 1.658.271a5.43 5.43 0 0 0 5.164-3.778l.136-.38c.924-2.854-.652-5.926-3.506-6.823-2.854-.924-5.925.653-6.822 3.507l-.136.38c-.924 2.827.652 5.899 3.506 6.823z" fill="#F6F8FF"/></svg>