<svg width="462" height="353" fill="none" xmlns="http://www.w3.org/2000/svg"><path fill-rule="evenodd" clip-rule="evenodd" d="M451.338 113.429a17.26 17.26 0 013.269 3.194l4.164-.766 2.77 6.463-3.435 2.484c.222 1.511.241 3.045.056 4.561l3.481 2.41-2.613 6.509-4.183-.674a16.947 16.947 0 01-3.195 3.259l.757 4.174-6.463 2.77-2.446-3.463a16.838 16.838 0 01-4.617 0l-2.41 3.49-6.463-2.613.674-4.182a17.029 17.029 0 01-3.269-3.195l-4.164.757-2.77-6.463 3.426-2.484a17.57 17.57 0 010-4.616l-3.49-2.299 2.613-6.463 4.182.664a17.24 17.24 0 013.195-3.259l-.757-4.21 6.463-2.77 2.484 3.425a17.234 17.234 0 014.616-.046l2.401-3.481 6.509 2.613-.674 4.183-.111.028zm-7.248 6.971a7.519 7.519 0 00-8.171 1.718 7.51 7.51 0 00-1.541 8.207 7.513 7.513 0 0011.154 3.254 7.517 7.517 0 00-1.442-13.179z" fill="#F6376D"/><path fill-rule="evenodd" clip-rule="evenodd" d="M64.776 141.525a31.257 31.257 0 015.9 5.78l7.534-1.376 4.977 11.652-6.242 4.525c.398 2.735.425 5.511.083 8.254l6.297 4.349-4.718 11.763-7.525-1.284a30.698 30.698 0 01-5.78 5.9l1.376 7.535-11.652 5.032-4.488-6.205c-2.735.396-5.51.427-8.254.092l-4.358 6.288-11.763-4.737 1.21-7.561a31.285 31.285 0 01-5.9-5.78l-7.525 1.375-4.977-11.652 6.205-4.487a31.25 31.25 0 01-.093-8.255l-6.287-4.321 4.727-11.753 7.553 1.218a31.6 31.6 0 015.78-5.909l-1.376-7.562 11.652-4.976 4.497 6.204a31.293 31.293 0 018.254-.092l4.349-6.297 11.763 4.727-1.219 7.553zm-13.093 12.612a13.6 13.6 0 00-14.781 3.102 13.596 13.596 0 00-2.788 14.844 13.588 13.588 0 0012.648 8.255 13.589 13.589 0 0012.348-18.925 13.601 13.601 0 00-7.427-7.276z" fill="#DEEAF8"/><path fill-rule="evenodd" clip-rule="evenodd" d="M33.864 82.544c1.223.916 2.319 1.99 3.259 3.195l4.164-.758 2.77 6.464-3.426 2.483a17.204 17.204 0 010 4.617l3.481 2.41-2.613 6.463-4.173-.674a17.34 17.34 0 01-3.204 3.268l.766 4.165-6.463 2.769-2.483-3.425a17.499 17.499 0 01-4.562 0l-2.41 3.481-6.463-2.613.674-4.183a16.982 16.982 0 01-3.259-3.194l-4.173.757-2.77-6.463 3.434-2.484a16.823 16.823 0 01-.046-4.57l-3.49-2.401 2.613-6.51 4.183.675a17.291 17.291 0 013.194-3.269l-.757-4.164 6.463-2.77 2.484 3.435a17.201 17.201 0 014.617-.056l2.41-3.48 6.463 2.612-.665 4.183-.018.037zm-7.248 6.97a7.524 7.524 0 10-5.621 13.96 7.524 7.524 0 005.62-13.96z" fill="#8E96A3"/><path fill-rule="evenodd" clip-rule="evenodd" d="M118.67 31.263a42.624 42.624 0 0110.064 5.319l9.418-4.783 11.153 13.443-6.463 8.375a43.148 43.148 0 013.37 10.876l10.027 3.278-1.616 17.395-10.47 1.367a42.685 42.685 0 01-5.318 10.073l4.783 9.418-13.453 11.153-8.365-6.463a42.846 42.846 0 01-10.858 3.38l-3.278 10.036-17.395-1.625-1.32-10.452a42.619 42.619 0 01-10.065-5.318l-9.418 4.773-11.153-13.443 6.463-8.375a43.168 43.168 0 01-3.37-10.876l-10.027-3.278 1.56-17.395 10.47-1.367a42.863 42.863 0 015.3-10.082l-4.782-9.409L77.379 26.13l8.365 6.463a42.472 42.472 0 0110.886-3.37l3.278-10.037 17.395 1.653 1.367 10.47v-.046zm-12.354 21.809a18.742 18.742 0 1016.924 20.396 18.728 18.728 0 00-9.914-18.313 18.732 18.732 0 00-7.01-2.083z" fill="#B3C6E4"/><path d="M130.903 10.664v123.004c0 5.889 4.775 10.664 10.665 10.664h185.807c5.889 0 10.664-4.775 10.664-10.664V10.664c0-5.89-4.775-10.664-10.664-10.664H141.568c-5.89 0-10.665 4.775-10.665 10.664z" fill="#455A64"/><path d="M145.076 4.552V139.78h172.983V4.552H145.076z" fill="#fff"/><path d="M322.176 158.929H59.541c-7.43 0-13.453 6.023-13.453 13.453v164.562c0 7.429 6.023 13.452 13.453 13.452h262.635c7.43 0 13.453-6.023 13.453-13.452V172.382c0-7.43-6.023-13.453-13.453-13.453z" fill="#263238"/><path d="M327.042 166.537H53.853v161.691h273.189V166.537z" fill="#E0E0E0"/><path d="M314.485 177.303H62.966v150.86h251.519v-150.86z" fill="#FAFAFA"/><path d="M45.654 319.068c11.523-7.543 14.45-21.993 14.32-35.086 0-2.179.287-4.468-.72-6.407-1.006-1.939-3.416-3.297-5.42-2.429-1.652.721-2.41 2.586-3.37 4.118a12.827 12.827 0 01-5.29 4.755c-1.422.684-3.167 1.081-4.533.296-1.847-1.08-2.041-3.693-1.976-5.845.129-4.038.252-8.073.369-12.104.19-2.167.02-4.351-.499-6.463a6.776 6.776 0 00-4.164-4.617c-2.077-.628-4.68.499-5.18 2.604a20.109 20.109 0 00-.129 2.696 2.278 2.278 0 01-1.403 2.114 2.677 2.677 0 01-2.382-1.052 28.878 28.878 0 01-5.042-7.932 39.702 39.702 0 00-4.69-8.162c-1.994-2.437-4.792-4.395-7.931-4.616-3.14-.222-6.528 1.588-7.387 4.616-.858 3.029.859 6.177 2.77 8.689a48.636 48.636 0 009.963 9.842 4.008 4.008 0 011.662 1.847c.434 1.459-.988 2.853-2.438 3.296-1.653.499-3.425.286-5.134.443-1.708.157-3.591.859-4.274 2.438-.924 2.197.867 4.561 2.668 6.121a42.254 42.254 0 0012.243 7.387 14.216 14.216 0 014.561 2.326c1.274 1.145 2.013 3.112 1.191 4.617-.822 1.505-2.853 1.948-4.542 1.597a29.716 29.716 0 01-4.737-1.865c-2.992-1.191-6.888-1.08-8.882 1.45a6.775 6.775 0 00-.924 6.038 15.797 15.797 0 003.195 5.429 42.121 42.121 0 0017.7 12.927c6.934 2.567 13.406 3.37 20.414 1.025" fill="#B3C6E4"/><path d="M3.459 242.701l.212.213.637.581c.563.517 1.385 1.275 2.428 2.281a82.123 82.123 0 018.163 9.131c1.578 2.041 3.222 4.359 4.94 6.87a212.993 212.993 0 015.318 8.134 96.649 96.649 0 015.18 9.381c.812 1.671 1.523 3.426 2.243 5.208s1.459 3.591 2.197 5.429c2.831 6.86 5.27 13.877 7.304 21.014a95.739 95.739 0 013.222 17.857c.331 4.073.3 8.167-.092 12.234a65.999 65.999 0 01-.406 3.305c-.056.36-.093.647-.13.859a2.342 2.342 0 000 .295c.031-.093.056-.189.074-.286 0-.212.093-.498.157-.858.148-.748.314-1.847.49-3.297.452-4.074.526-8.182.221-12.27a93.496 93.496 0 00-3.148-17.931 193.013 193.013 0 00-7.285-21.079c-.751-1.847-1.484-3.654-2.198-5.42-.73-1.782-1.45-3.546-2.262-5.235a97.118 97.118 0 00-5.226-9.409 286.024 286.024 0 00-5.355-8.116c-1.717-2.511-3.389-4.819-4.995-6.86a77.884 77.884 0 00-8.31-9.067 69.089 69.089 0 00-2.493-2.225l-.655-.563c-.148-.12-.222-.185-.231-.176z" fill="#687C94"/><path d="M30.586 279.098c.11-.298.187-.608.23-.923.13-.6.296-1.459.471-2.539.36-2.152.767-5.134 1.191-8.421.425-3.287.868-6.26 1.265-8.402.194-1.062.36-1.93.48-2.53.084-.301.133-.611.148-.923-.14.294-.242.604-.304.923a42.848 42.848 0 00-.61 2.502c-.461 2.133-.923 5.106-1.376 8.402-.452 3.297-.794 6.187-1.07 8.44-.139 1.006-.26 1.846-.342 2.548a4.004 4.004 0 00-.083.923z" fill="#687C94"/><path d="M2.508 273.226c.366.087.74.14 1.117.157.72.083 1.773.194 3.056.378 2.576.333 6.122.924 10 1.736 3.877.813 7.386 1.727 9.851 2.438 1.256.351 2.262.665 2.955.877a5.49 5.49 0 001.099.286 8.036 8.036 0 00-1.044-.434 53.361 53.361 0 00-2.927-.997c-2.483-.794-5.964-1.736-9.851-2.558a100.892 100.892 0 00-10.046-1.634 41.769 41.769 0 00-3.075-.24 5.671 5.671 0 00-1.135-.009zM42.108 310.325a1.52 1.52 0 00.204-.333l.508-.997c.433-.868 1.034-2.133 1.754-3.693 1.44-3.158 3.287-7.58 5.253-12.483 1.967-4.903 3.786-9.344 5.153-12.52l1.634-3.767.443-1.025c.092-.24.138-.37.12-.37a1.831 1.831 0 00-.194.333l-.508.997c-.443.868-1.034 2.133-1.754 3.693-1.44 3.158-3.287 7.581-5.263 12.483-1.976 4.903-3.776 9.344-5.152 12.52a382.608 382.608 0 01-1.634 3.767l-.434 1.025a1.524 1.524 0 00-.13.37zM4.927 297.509s.12.074.36.166l1.08.379 3.989 1.385c3.36 1.163 7.987 2.825 13.092 4.672 5.106 1.846 9.75 3.462 13.14 4.561 1.698.554 3.065.979 4.025 1.256l1.099.313c.258.074.397.102.397.084a1.912 1.912 0 00-.37-.157l-1.08-.388-3.98-1.376c-3.36-1.163-7.986-2.825-13.092-4.672-5.106-1.846-9.76-3.471-13.139-4.57a175.616 175.616 0 00-4.025-1.256l-1.108-.314a2.052 2.052 0 00-.388-.083z" fill="#687C94"/><path d="M420.343 221.641l-55.704-.259a12.116 12.116 0 01-8.57-3.584 12.109 12.109 0 01-3.506-8.604l.59-139.263a12.128 12.128 0 013.597-8.55 12.118 12.118 0 018.591-3.499l55.703.25a12.133 12.133 0 0112.087 12.15l-.591 139.272a12.122 12.122 0 01-7.544 11.189 12.146 12.146 0 01-4.653.898z" fill="#455A64"/><path d="M420.971 62.979h-10.803a2.672 2.672 0 00-2.445 1.688 2.672 2.672 0 00-.187 1.026v1.958a2.695 2.695 0 01-2.631 2.724l-21.061-.102a2.672 2.672 0 01-2.436-1.733 2.66 2.66 0 01-.167-1.037v-1.976a2.691 2.691 0 00-.725-1.927 2.674 2.674 0 00-1.879-.843h-13.259a8.488 8.488 0 00-7.868 5.196 8.484 8.484 0 00-.663 3.243l-.582 135.939a8.492 8.492 0 008.467 8.513l55.592.259a8.504 8.504 0 008.541-8.439l.572-135.94a8.485 8.485 0 00-8.466-8.55z" fill="#fff"/><path d="M327.624 66.626a5.54 5.54 0 110 11.08 5.54 5.54 0 010-11.08zM136.868 51.557v41.217c0 .622.504 1.126 1.126 1.126h.037c.622 0 1.127-.504 1.127-1.126V51.557c0-.622-.505-1.126-1.127-1.126h-.037c-.622 0-1.126.504-1.126 1.127zM33.974 336.242H347.67v.323A16.435 16.435 0 01331.234 353H50.409a16.436 16.436 0 01-16.435-16.435v-.323z" fill="#263238"/><path d="M162.314 336.242l3.888 6.186h54.78l3.61-6.186h-62.278z" fill="#455A64"/><path d="M335.629 336.362H46.088v.923h289.541v-.923z" fill="#455A64"/><path d="M405.343 161.906c0 .07-4.711.131-10.526.131-5.814 0-10.525-.061-10.525-.131 0-.071 4.711-.131 10.525-.131 5.815 0 10.526.06 10.526.131z" fill="#687C94"/><path d="M413.471 165.916c0 .076-8.516.131-19.011.131-10.496 0-19.012-.055-19.012-.131 0-.075 8.511-.131 19.012-.131 10.5 0 19.011.061 19.011.131zM413.471 169.055c0 .071-8.516.131-19.011.131-10.496 0-19.012-.06-19.012-.131 0-.07 8.511-.131 19.012-.131 10.5 0 19.011.061 19.011.131z" fill="#263238"/><path d="M391.175 179.437v4.367h-1.009v-3.559h-.877v-.804l1.886-.004zM391.919 181.62c0-1.443.804-2.26 1.874-2.26 1.069 0 1.874.805 1.874 2.26 0 1.456-.805 2.26-1.874 2.26-1.07 0-1.874-.82-1.874-2.26zm2.73 0c0-.993-.35-1.403-.856-1.403-.507 0-.849.402-.849 1.403 0 1.002.35 1.404.849 1.404.498 0 .872-.411.872-1.404h-.016z" fill="#000"/><path d="M398.469 180.394a.875.875 0 01-.908.957.939.939 0 01-.491-.125l.153-.301a.556.556 0 00.329.088.473.473 0 00.479-.313.472.472 0 00.024-.201.623.623 0 01-.442.156.553.553 0 01-.425-.142.562.562 0 01-.186-.409.6.6 0 01.205-.444.61.61 0 01.466-.151c.495 0 .796.31.796.885zm-.458-.31c0-.152-.117-.265-.314-.265a.274.274 0 00-.11.011.273.273 0 00-.161.146.252.252 0 00-.022.108.251.251 0 00.023.111.26.26 0 00.278.155.276.276 0 00.306-.266zM400.086 180.394a.86.86 0 01-.234.688.87.87 0 01-.675.269.933.933 0 01-.49-.125l.152-.301a.555.555 0 00.334.088.471.471 0 00.499-.514.625.625 0 01-.443.156.563.563 0 01-.611-.551.603.603 0 01.423-.568.617.617 0 01.249-.027c.494 0 .796.31.796.885zm-.463-.31a.293.293 0 00-.031-.179.298.298 0 00-.128-.13.292.292 0 00-.179-.034.3.3 0 00-.166.074.302.302 0 00-.084.338.308.308 0 00.287.197.272.272 0 00.301-.266zM400.07 181.958h-3.121v.394h3.121v-.394z" fill="#263238"/><path d="M418.028 186.922a6.064 6.064 0 10-4.641-11.205 6.064 6.064 0 004.641 11.205z" fill="#687C94"/><path d="M414.176 184.721c.1-.112.212-.212.334-.298.225-.185.551-.442.957-.756.804-.631 1.946-1.492 3.217-2.433v.169l-.028-.024-.061-.044-.116-.085-.229-.177-.451-.337-.852-.644-1.436-1.098-.957-.756a2.076 2.076 0 01-.334-.301c.137.061.266.139.382.233l.998.704 1.463 1.065.857.632.454.338.233.172.117.089.056.04.033.024v.169a252.747 252.747 0 01-3.242 2.381l-.997.703a1.692 1.692 0 01-.398.234z" fill="#FAFAFA"/><path d="M375.791 182.299a6.063 6.063 0 00-5.014-6.957 6.063 6.063 0 00-6.957 5.014 6.063 6.063 0 005.014 6.957 6.063 6.063 0 006.957-5.014z" fill="#687C94"/><path d="M371.334 177.917c-.098.114-.21.215-.333.301a113.424 113.424 0 01-4.174 3.169v-.165l.032.02.056.045.117.088.233.173.45.338.853.643 1.431 1.102c.403.314.736.571.957.756.124.085.236.185.334.298a1.873 1.873 0 01-.382-.234l-.997-.703-1.46-1.062-.86-.635-.451-.338-.233-.169-.117-.088-.06-.045-.028-.02v-.169c1.259-.937 2.413-1.777 3.237-2.38.402-.274.724-.511.997-.704.123-.09.257-.164.398-.221z" fill="#FAFAFA"/><path d="M377.676 191.653H365.56v12.116h12.116v-12.116zM393.045 191.653h-12.116v12.116h12.116v-12.116zM408.418 191.653h-12.116v12.116h12.116v-12.116zM423.787 191.653h-12.116v12.116h12.116v-12.116z" fill="#F6376D"/><path d="M357.148 209.991a26.915 26.915 0 00-.287 16.361c.984 3.265 2.612 6.53 2.116 9.9-.41 2.751-2.194 5.154-2.551 7.914-.714 5.608 4.614 10.919 3.186 16.387a8.7 8.7 0 01-5.111 5.529 15.879 15.879 0 01-7.662.967c-3.822-.331-7.958-1.742-9.726-5.225-1.41-2.716-.966-5.981-.479-8.994 2.16-13.339 4.65-26.774 10.057-39.182" fill="#263238"/><path d="M358.846 251.219a2.754 2.754 0 01-.444.148 4.707 4.707 0 01-1.349.114 5.144 5.144 0 01-2.055-.593 4.617 4.617 0 01-1.968-2.011 5.102 5.102 0 01-.392-3.396 4.804 4.804 0 01.819-1.741 7.332 7.332 0 011.454-1.437 39.666 39.666 0 003.483-2.612 6.91 6.91 0 001.933-4.031 11.637 11.637 0 00-.331-4.537 26.23 26.23 0 00-1.515-4.022 33.505 33.505 0 01-2.613-6.835 10.348 10.348 0 010-4.929 5.372 5.372 0 01.714-1.663c-.252.545-.459 1.11-.618 1.689a10.635 10.635 0 00.07 4.859 34.01 34.01 0 002.673 6.774 26.505 26.505 0 011.55 4.058c.416 1.512.532 3.092.339 4.649a7.1 7.1 0 01-2.02 4.18 37.67 37.67 0 01-3.482 2.612 5.38 5.38 0 00-2.195 3.039 4.879 4.879 0 00.34 3.256 4.566 4.566 0 001.872 1.968 5.228 5.228 0 001.985.618 5.791 5.791 0 001.75-.157z" fill="#263238"/><path d="M306.194 337.115l-2.176 8.341-22.421-.209s1.646-3.927 13.931-3.744l.871-4.353 9.795-.035z" fill="#FFA681"/><path d="M387.823 212.046c-.217.427-5.912 29.682-5.912 29.682l13.418.627 5.224-25.154-12.73-5.155z" fill="#455A64"/><path d="M381.911 241.729l-1.532-.653 5.807-28.838 1.82-.122-6.095 29.613zM393.213 218.437a.692.692 0 00.344.695.698.698 0 001.018-.79.693.693 0 00-.587-.506.684.684 0 00-.513.138.7.7 0 00-.178.205.712.712 0 00-.084.258z" fill="#263238"/><path d="M395.982 238.977l.2-3.831-5.729-2.368 2.238-5.303a4.62 4.62 0 016.434-2.203l2.334 1.263a6.582 6.582 0 013.265 4.24 85.568 85.568 0 011.332 9.36" fill="#FFA681"/><path d="M411.324 336.488s23.579 6.53 24.528 6.861c1.419.505 1.184 5.703-1.028 5.625-1.044 0-18.11.635-20.27.505-2.159-.131-8.663-2.699-8.663-2.699l5.433-10.292z" fill="#687C94"/><path d="M421.145 345.491c.296-.865.645-1.712 1.045-2.534a22.81 22.81 0 011.663-2.168 5.232 5.232 0 00-2.708 4.702zM418.69 344.376c.113 0 .357-1.097.984-2.324.627-1.228 1.367-2.099 1.28-2.177a4.445 4.445 0 00-1.637 1.994 4.566 4.566 0 00-.627 2.507zM416.383 343.758c.123-.843.309-1.675.557-2.49.369-.769.797-1.508 1.28-2.212a4.436 4.436 0 00-1.837 4.702z" fill="#263238"/><path d="M416.801 340.711c.208-.556.294-1.15.252-1.741a8.034 8.034 0 00-.235-1.916 8.42 8.42 0 00-.348-1.097 1.284 1.284 0 00-.383-.575.636.636 0 00-.81 0 1.063 1.063 0 00-.314.671 3.75 3.75 0 000 .618c.001.39.047.779.14 1.158a6.94 6.94 0 00.731 1.802c.263.533.62 1.014 1.054 1.42.061 0-.34-.584-.81-1.55a8.173 8.173 0 01-.618-1.742 5.364 5.364 0 01-.113-1.079c0-.366 0-.819.217-.993a.244.244 0 01.314 0c.118.117.207.26.261.418.137.339.256.685.357 1.036.162.604.264 1.222.305 1.846.043 1.045-.061 1.715 0 1.724z" fill="#263238"/><path d="M416.775 340.467a3.483 3.483 0 00-1.524-.244c-.564 0-1.125.071-1.672.209a3.365 3.365 0 00-.966.357.992.992 0 00-.532 1.071 1.176 1.176 0 00.871.871 2.16 2.16 0 001.054 0 4.013 4.013 0 001.532-.758c.43-.288.803-.654 1.097-1.08a10.02 10.02 0 00-1.254.871c-.438.298-.928.51-1.445.627a1.885 1.885 0 01-.871 0 .791.791 0 01-.574-.557.627.627 0 01.357-.662c.274-.147.567-.259.87-.331a8.123 8.123 0 011.585-.278c.879-.122 1.463-.027 1.472-.096zM424.776 345.743c.09-.72.244-1.431.462-2.124a11.53 11.53 0 011.158-1.846c0-.105-1.028.461-1.524 1.689a2.765 2.765 0 00-.296 1.13c-.016.394.052.786.2 1.151zM408.32 346.832c.276.17.567.313.871.426.851.33 1.724.6 2.612.81 2.954.659 5.977.952 9.003.871 3.535 0 6.722-.192 9.029-.288l2.734-.148c.334-.001.666-.036.993-.104a4.799 4.799 0 00-1.002-.044h-2.734l-9.02.174a42.036 42.036 0 01-8.942-.731c-2.203-.461-3.518-1.045-3.544-.966z" fill="#263238"/><path d="M407.623 347.363a18.572 18.572 0 001.742-.793 8.232 8.232 0 014.458-.749 7.12 7.12 0 013.857 2.299c.421.492.875.954 1.358 1.385a7.508 7.508 0 00-1.149-1.576 9.567 9.567 0 00-1.567-1.463 5.527 5.527 0 00-2.438-1.028c-1.6-.2-3.223.104-4.641.871a6.298 6.298 0 00-1.62 1.054z" fill="#263238"/><path d="M386.3 329.983s-22.282 14.611-23.152 15.211c-1.202.871.182 5.225 2.263 4.484.984-.357 19.704-5.563 21.716-6.347 2.011-.784 7.436-5.224 7.436-5.224l-8.263-8.124z" fill="#687C94"/><path d="M379.691 341.538a4.269 4.269 0 00-1.498-2.386 4.14 4.14 0 00-2.507-1.271c.78.472 1.531.992 2.246 1.558a24.641 24.641 0 011.759 2.099zM381.676 339.727a5.881 5.881 0 00-3.483-3.596c-.061.095.923.687 1.881 1.68.958.993 1.498 1.968 1.602 1.916zM383.688 338.438a4.427 4.427 0 00-3.178-3.918 15.971 15.971 0 011.889 1.742c.484.691.915 1.419 1.289 2.176z" fill="#263238"/><path d="M382.364 335.661c.052 0-.252-.627-.505-1.663a9.074 9.074 0 01-.261-1.855 9.125 9.125 0 010-1.097c.006-.164.047-.324.122-.47a.227.227 0 01.305-.07c.261.105.391.531.513.871.109.343.181.696.218 1.053a7.554 7.554 0 01-.061 1.864c-.157 1.053-.366 1.741-.305 1.741a4.792 4.792 0 00.584-1.68 6.974 6.974 0 00.139-1.933 5.544 5.544 0 00-.209-1.15 6 6 0 00-.218-.583 1.071 1.071 0 00-.505-.54.634.634 0 00-.783.209 1.362 1.362 0 00-.183.67 8.24 8.24 0 00.357 3.048c.143.58.414 1.122.792 1.585z" fill="#263238"/><path d="M382.303 335.425c0 .061.557-.209 1.454-.426a8.095 8.095 0 011.602-.218c.306-.023.614-.003.915.061a.604.604 0 01.531.522.798.798 0 01-.375.706 1.868 1.868 0 01-.87.278 4.302 4.302 0 01-1.576-.156 9.585 9.585 0 00-1.455-.436c.41.319.877.555 1.376.697a3.957 3.957 0 001.689.252c.358-.02.704-.128 1.01-.313a1.188 1.188 0 00.549-1.062.994.994 0 00-.871-.871 3.736 3.736 0 00-1.018-.052 6.937 6.937 0 00-1.664.313c-.477.14-.92.38-1.297.705zM368.285 348.861s.374-.227.548-.871a3.306 3.306 0 00-.418-2.421 9.26 9.26 0 00-.748-1.114 4.018 4.018 0 00-.758-.81 1.322 1.322 0 00-.714-.305c-.183 0-.279 0-.279.061.3.09.577.244.81.453.241.248.457.519.644.81.227.34.479.696.697 1.097a3.43 3.43 0 01.488 2.177 9.28 9.28 0 01-.27.923zM376.295 342.879a3.363 3.363 0 00-2.751-3.291c.595.416 1.151.885 1.663 1.401.415.598.779 1.23 1.088 1.89z" fill="#263238"/><path d="M392.299 338.917a7.655 7.655 0 00-.975.67 27.784 27.784 0 01-2.752 1.689 35.508 35.508 0 01-4.353 1.942c-1.689.636-3.588 1.228-5.59 1.811a973.05 973.05 0 00-10.266 2.995l-3.108.958a7.026 7.026 0 00-1.115.401 7.763 7.763 0 001.158-.253l3.135-.871a995.299 995.299 0 0010.309-2.89c2.003-.584 3.909-1.184 5.607-1.846a33.096 33.096 0 004.354-2.038 21.842 21.842 0 002.708-1.802c.322-.224.619-.481.888-.766z" fill="#263238"/><path d="M393.126 339.222a6.142 6.142 0 00-1.889-.505 7.751 7.751 0 00-4.685.574 5.52 5.52 0 00-2.011 1.742 9.572 9.572 0 00-1.045 1.863 7.14 7.14 0 00-.618 1.855c.329-.561.62-1.142.87-1.742a7.069 7.069 0 012.978-3.361 8.182 8.182 0 014.476-.644c1.184.113 1.915.279 1.924.218z" fill="#263238"/><path d="M332.786 242.939l18.285 1.741 7.436 2.107a20.248 20.248 0 018.463 4.85l23.953 22.996 4.354-35.699 11.972 1.036-2.003 45.973a13.686 13.686 0 01-13.06 9.534 14.172 14.172 0 01-9.639-3.961l-17.057-16.039-.505 22.917 11.833 9.578-45.634 25.425s-2.473-9.717-1.35-31.346c.209-3.97-7.07-16.021-7.627-19.565-2.133-13.626-1.803-33.557-1.803-33.557l12.382-5.99z" fill="#687C94"/><path d="M321.545 248.494s-9.256 3.439-11.493 10.684c-1.985 6.434-8.612 42.586-8.612 42.586l-6.573 38.311 13.766.523 15.838-65.216-2.926-26.888z" fill="#687C94"/><path d="M320.927 290.758c.124-.246.217-.506.278-.775.157-.505.366-1.245.61-2.159a142.003 142.003 0 001.741-7.201c.61-2.847 1.15-5.389 1.489-7.261.166-.932.296-1.69.375-2.212.061-.271.088-.549.078-.827a3.837 3.837 0 00-.235.801c-.131.601-.296 1.323-.496 2.185-.427 1.942-.984 4.45-1.594 7.227l-1.654 7.218c-.192.871-.348 1.594-.488 2.195-.065.265-.1.536-.104.809zM405.159 243.374a4.347 4.347 0 00.357-1.803 4.664 4.664 0 000-1.846 4.356 4.356 0 00-.357 1.812 4.619 4.619 0 000 1.837zM401.659 243.478c.23-.611.331-1.263.296-1.915a5.08 5.08 0 00-.096-1.942 4.76 4.76 0 00-.296 1.924 5.034 5.034 0 00.096 1.933zM398.185 243.261a6.405 6.405 0 00.313-2.142 5.83 5.83 0 00-.078-2.159 6.016 6.016 0 00-.313 2.142 5.83 5.83 0 00.078 2.159zM391.454 280.1a12.861 12.861 0 00-.13-3.16 12.607 12.607 0 00-.523-3.126 12.92 12.92 0 00.131 3.161c.038 1.06.213 2.11.522 3.125zM306.369 336.575a4.913 4.913 0 00-.531 1.915 5.134 5.134 0 00-.148 1.985 4.925 4.925 0 00.531-1.915c.178-.646.228-1.32.148-1.985zM301.841 336.566a4.425 4.425 0 00-.488 1.742 4.316 4.316 0 00-.104 1.802 4.124 4.124 0 00.496-1.741 4.422 4.422 0 00.096-1.803zM297.548 336.131a6.436 6.436 0 00-.452 1.967 6.665 6.665 0 00-.218 2.003c.352-.587.561-1.25.609-1.933a4.58 4.58 0 00.061-2.037zM314.118 252.952c0 .078.958 0 2.447.331a11.609 11.609 0 015.224 2.612 11.754 11.754 0 013.282 4.858c.514 1.437.584 2.395.653 2.386a1.845 1.845 0 000-.679 9.65 9.65 0 00-.383-1.794 11.118 11.118 0 00-3.282-5.067 11.252 11.252 0 00-5.46-2.612 9.563 9.563 0 00-1.828-.131 2.33 2.33 0 00-.653.096zM363.548 285.246c-.078 0 .357-1.132.792-2.969a25.964 25.964 0 00-.775-14.541c-.626-1.785-1.175-2.83-1.105-2.864.069-.035.191.235.452.696.361.664.678 1.35.95 2.055a23.38 23.38 0 01.783 14.732 15.536 15.536 0 01-.731 2.142 3.116 3.116 0 01-.366.749zM364.715 297.88a3.147 3.147 0 01-.793.053c-.505 0-1.245 0-2.15-.096a36.862 36.862 0 01-13.627-3.901 22.983 22.983 0 01-1.881-1.062 2.72 2.72 0 01-.644-.462c0-.061 1.019.479 2.664 1.237a45.056 45.056 0 0013.523 3.866 28.73 28.73 0 012.908.365z" fill="#263238"/><path opacity=".2" d="M344.515 291.507c1.427 1.289 3.656 1.472 5.572 1.437 1.916-.035 3.831-.418 5.755-.383a7.128 7.128 0 015.225 1.976c.423.424.687.981.748 1.576a1.409 1.409 0 01-.87 1.402c-.36.091-.737.091-1.097 0-5.39-1.115-11.18-2.377-15.351-5.964M326.883 293.213c1.419-.409 1.645-2.072 1.741-3.543a32.098 32.098 0 00-3.422-17.667c-.67 3.996-1.785 8.167-2.612 12.242l4.293 8.968z" fill="#000"/><path opacity=".3" d="M390.549 274.145a7.829 7.829 0 00-1.568 6.818c.096.391.27.818.653.931a.868.868 0 00.871-.331c.181-.261.306-.558.366-.87.51-2.22.468-4.531-.122-6.731" fill="#000"/><path d="M414.006 336.244s-54.716-35.917-56.953-36.666c-2.238-.749-7.654-4.292-13.061-2.803-5.407 1.488-10.266 6.356-12.695 13.443-2.429 7.088-2.612 22.97-2.612 22.97s4.292 12.512 12.695 15.124c.718.221 1.447.405 2.185.548a25.838 25.838 0 0026.426-11.415l1.228-1.863s35.795 13.148 36.352 12.965l6.435-12.303z" fill="#263238"/><path d="M432.665 294.354a10.678 10.678 0 016.722 9.892c.052 14.375-29.047 30.257-29.047 30.257l-38.729-25.669v-2.716s49.874-17.928 61.054-11.764z" fill="#263238"/><path d="M346.308 326.335l.305.14.871.357 3.482 1.332 12.896 4.858a3048.302 3048.302 0 0019.39 7.149c7.358 2.682 15.516 5.616 24.232 8.559l.157.052.078-.148 4.275-8.158 2.177-4.162.087-.166-.156-.095-41.725-26.496-12.538-7.906-3.405-2.125-.87-.548-.305-.174.287.209.871.574 3.37 2.186 12.468 8.01 41.672 26.6-.069-.252-2.177 4.162-4.301 8.141.235-.096c-8.707-2.943-16.866-5.868-24.232-8.524l-19.426-7.053-12.93-4.736-3.483-1.272-.87-.322-.366-.096z" fill="#455A64"/><path d="M391.228 321.773a8.169 8.169 0 001.01-.688 65.48 65.48 0 002.612-1.994 225.328 225.328 0 008.481-6.966 251.203 251.203 0 008.132-7.34c1.019-.966 1.829-1.741 2.377-2.316a6.29 6.29 0 00.871-.871c-.33.237-.642.499-.932.784l-2.464 2.22a393.467 393.467 0 01-8.193 7.236c-3.239 2.778-6.226 5.224-8.402 7.018l-2.613 2.09a7.392 7.392 0 00-.879.827zM421.738 299.727a7.604 7.604 0 00-3.736.339 7.506 7.506 0 00-3.317 1.742c.061.104 1.471-.801 3.43-1.367 1.96-.566 3.623-.592 3.623-.714z" fill="#455A64"/><path d="M418.394 297.463a5.907 5.907 0 00-3.483 4.353c.114 0 .54-1.175 1.515-2.368.976-1.193 2.038-1.89 1.968-1.985z" fill="#455A64"/><path d="M434.798 342.983c0-.044-.461-.139-1.001.305a3.601 3.601 0 00-1.114 2.246 4.401 4.401 0 00.348 2.482c.278.583.574.87.609.87.035 0-.156-.365-.348-.94a4.948 4.948 0 01-.218-2.325 3.883 3.883 0 01.915-2.098c.409-.462.818-.479.809-.54zM322.668 214.85a5.495 5.495 0 00-4.08-1.558 5.515 5.515 0 00-3.93 1.906 9.371 9.371 0 00-1.846 4.858 23.4 23.4 0 01-1.019 5.155 5.29 5.29 0 01-3.657 3.483c-1.306.244-2.856-.157-3.857.714a2.507 2.507 0 00-.226 3.117 5.808 5.808 0 002.681 2.011c.41.183.871.444.871.871 0 .583-.749.792-1.289 1.019-1.619.688-2.089 2.995-1.184 4.51a5.224 5.224 0 004.519 2.255 15.257 15.257 0 005.12-1.175 1.982 1.982 0 00-.052 2.525 2.731 2.731 0 002.473.923 4.462 4.462 0 002.403-1.245 8.643 8.643 0 002.359-4.746c.275-1.776.38-3.575.314-5.372a144.1 144.1 0 011.367-19.156" fill="#263238"/><path d="M341.162 202.486a13.243 13.243 0 0112.625 13.217c0 5.477-.078 11.432-.426 14.967-.81 8.22-6.966 9.622-6.966 9.622s.192 5.111.47 9.952c.261 4.615-3.483 8.707-8.463 9.073-4.885.392-9.073-2.952-9.404-7.523l-1.654-35.464a13.238 13.238 0 013.862-9.976 13.236 13.236 0 019.973-3.868h-.017z" fill="#FFA681"/><path d="M351.916 219.29a1.061 1.061 0 01-.237.777 1.041 1.041 0 01-.721.373.993.993 0 01-1.132-.871 1.043 1.043 0 01.949-1.115.99.99 0 011.141.836zM351.889 217.671c-.122.148-.949-.392-2.072-.323-1.123.07-1.907.679-2.038.549-.13-.131.053-.305.392-.592a2.952 2.952 0 011.628-.61 2.884 2.884 0 011.664.427c.365.252.487.488.426.549zM340.213 219.909a1.056 1.056 0 01-.94 1.114 1.012 1.012 0 01-.749-.198 1.002 1.002 0 01-.383-.673 1.045 1.045 0 01.94-1.114 1.006 1.006 0 011.008.496.995.995 0 01.124.375zM340.187 218.777c-.122.148-.94-.392-2.064-.322-1.123.069-1.915.679-2.046.548-.13-.131.052-.313.401-.592a2.83 2.83 0 011.619-.609 2.777 2.777 0 011.663.426c.357.244.488.47.427.549zM344.767 226.874a7.138 7.138 0 011.802-.444c.287-.044.549-.113.592-.314a1.514 1.514 0 00-.244-.87l-.975-2.134a37.337 37.337 0 01-2.246-5.598 38.51 38.51 0 012.69 5.407c.331.749.645 1.463.941 2.15.202.334.279.729.217 1.115a.746.746 0 01-.452.453 2.246 2.246 0 01-.479.095 7.942 7.942 0 01-1.846.14z" fill="#263238"/><path d="M346.404 240.301a22.3 22.3 0 01-11.119-2.447s3.039 5.851 11.223 4.789l-.104-2.342z" fill="#995037"/><path d="M336.486 215.651c.131.2.95-.139 1.968-.366 1.019-.226 1.907-.279 1.942-.514.035-.235-.923-.574-2.125-.304-1.201.27-1.924 1.01-1.785 1.184zM347.614 213.63c.052.227.975.201 2.081.218 1.106.018 2.029.061 2.09-.165.061-.227-.871-.671-2.081-.679-1.211-.009-2.151.409-2.09.626z" fill="#263238"/><path d="M329.416 247.536c-.078-1.689 1.811-9.02 2.569-13.522.757-4.502-2.194-5.224-2.665-7.889a9.162 9.162 0 01.871-5.18c4.301 1.541 5.999-1.524 8.35-3.335 2.49-1.933 3.039-4.301 4.058-7.288 1.018-2.987 2.211-4.841 5.355-5.137a9.33 9.33 0 014.179 4.797c.958 2.795 1.741 13.697 1.741 13.697.436-5.225 4.676-7.419 3.527-15.116-.497-3.317-3.248-7.836-7.497-8.515-1.236-.201-3.57-.349-3.57-.349-2.534-2.281-3.77-2.211-6.199-3.291-5.225-2.325-11.546 1.829-15.02 6.382-2.682 3.483-3.979 8.246-4.711 12.704a36.959 36.959 0 00-.2 9.351c.174 1.855-.052 4.206-1.881 5.634-2.612 2.029-3.291 5.895-1.489 11.049 1.803 5.155-4.841 13.932-4.841 13.932a40.833 40.833 0 015.921-4.014c2.673-1.402 11.502-3.91 11.502-3.91z" fill="#263238"/><path d="M343.408 229.556a1.68 1.68 0 00-1.549-.514 1.57 1.57 0 00-1.019.653.98.98 0 000 1.115 1.142 1.142 0 001.245.217 3.711 3.711 0 001.141-.801.979.979 0 00.243-.296.307.307 0 00.053-.174.307.307 0 00-.053-.174" fill="#995037"/><path d="M340.944 228.128c.148 0 .227.992 1.15 1.645.923.653 1.985.462 2.002.601.018.14-.226.218-.679.261a2.502 2.502 0 01-1.671-.444 2.216 2.216 0 01-.871-1.384c-.096-.418 0-.679.069-.679zM305.428 225.829c.003.379.032.757.087 1.132.074.435.218.856.427 1.245a2.86 2.86 0 001.219 1.184 2.384 2.384 0 002.002.096 2.55 2.55 0 00.89-.764 2.55 2.55 0 00.451-1.082c.167-.886.214-1.791.14-2.69 0-.941-.087-1.925-.087-2.935a11.727 11.727 0 011.097-5.581 5.554 5.554 0 013.482-2.995 4.43 4.43 0 013.1.244c.335.17.631.407.871.696a7.472 7.472 0 00-.958-.601 4.447 4.447 0 00-3.013-.148 5.405 5.405 0 00-3.299 2.926 11.667 11.667 0 00-1.045 5.451c0 1.01.052 1.985.087 2.934.069.923.013 1.852-.166 2.76a2.777 2.777 0 01-1.497 1.994 2.608 2.608 0 01-2.177-.131 2.986 2.986 0 01-1.263-1.288 3.895 3.895 0 01-.4-1.298 3.467 3.467 0 01.052-1.149z" fill="#263238"/><path d="M317.435 243.487a2.136 2.136 0 01-.435-.409 3.436 3.436 0 01-.636-1.611 4.727 4.727 0 01.471-2.699 10.354 10.354 0 012.263-2.847 19.177 19.177 0 002.961-3.204 7.522 7.522 0 001.036-4.789 50.283 50.283 0 01-.418-5.564 7.311 7.311 0 01.679-2.908 5.224 5.224 0 012.125-2.212c1.828-1.036 3.874-1.323 5.546-2.246a9.039 9.039 0 003.587-4.049c.801-1.576 1.376-3.178 2.116-4.58a9.893 9.893 0 012.743-3.483 5.357 5.357 0 013.422-1.167c.933.052 1.824.41 2.534 1.019.45.377.788.871.975 1.428.055.139.09.286.104.435v.157s0-.209-.174-.575a3.18 3.18 0 00-.992-1.367 4.218 4.218 0 00-2.473-.949 5.23 5.23 0 00-3.292 1.176 9.641 9.641 0 00-2.664 3.396c-.723 1.393-1.289 2.986-2.098 4.588a9.268 9.268 0 01-3.683 4.171c-1.742.958-3.771 1.236-5.529 2.246a4.878 4.878 0 00-2.02 2.099 7.243 7.243 0 00-.662 2.795c.036 1.852.173 3.7.409 5.537a7.761 7.761 0 01-1.062 4.911 19.339 19.339 0 01-3.022 3.222 10.369 10.369 0 00-2.255 2.777 4.712 4.712 0 00-.505 2.613c.062.786.398 1.525.949 2.089z" fill="#455A64"/><path d="M319.612 218.777a4.182 4.182 0 011.036-4.946 19.233 19.233 0 00-.871 2.394 17.567 17.567 0 00-.165 2.552z" fill="#FAFAFA"/><path d="M322.442 243.897a19.427 19.427 0 002.542 12.59 9.908 9.908 0 003.109 3.431 5.147 5.147 0 004.467.635 3.486 3.486 0 002.307-3.648c-.348-2.177-3.03-3.544-3.048-5.755.976.592 2.299 1.158 3.152.4a1.934 1.934 0 00.323-2.142 8.301 8.301 0 00-1.324-1.889 11.84 11.84 0 01-2.368-9.012c.13-.871.366-3.605.383-4.493.017-.888-.244 0-.871-.583a2.771 2.771 0 00-1.189-.534 2.769 2.769 0 00-1.301.072 5.293 5.293 0 00-2.203 1.385 10.198 10.198 0 00-3.03 7.731M423.714 76.952a9.33 9.33 0 01-1.446.074c-.9 0-2.147.035-3.555.04h-.099v-.096c-.027-.191-.057-.391-.083-.591a236.844 236.844 0 01-.556-4.276l.069.061a7.85 7.85 0 01-1.303-.074c.432-.057.868-.08 1.303-.07h.061v.062c.161.995.396 2.537.635 4.266.03.2.056.4.082.587l-.109-.096c1.408 0 2.655 0 3.555.04.483-.013.967.011 1.446.073z" fill="#263238"/><path d="M418.566 75.914a2.1 2.1 0 01.386-.035l1.069-.03c.917 0 2.203-.035 3.694-.04l-.109.088.348-1.99c.065-.357.126-.709.186-1.043l.109.13c-1.738 0-3.254 0-4.345-.039l-1.303-.03a1.736 1.736 0 01-.465-.044c.153-.03.309-.042.465-.039l1.303-.035c1.095 0 2.607-.03 4.345-.034h.135v.13c-.061.334-.122.686-.183 1.043-.126.695-.247 1.364-.356 1.99v.091h-.091c-1.491 0-2.777 0-3.694-.04l-1.068-.03a1.524 1.524 0 01-.426-.043zM419.96 78.312c-.034 0-.034-.195-.243-.334a.432.432 0 00-.391-.04.4.4 0 00.2.77.432.432 0 00.191-.066c.209-.134.209-.338.243-.33.035.009.035.044.031.13a.521.521 0 01-.178.33.578.578 0 01-.556.105.6.6 0 010-1.134.576.576 0 01.556.104.521.521 0 01.178.33c.004.087-.013.135-.031.135zM423.18 78.312c-.035 0-.035-.195-.243-.334a.437.437 0 00-.391-.04.4.4 0 000 .743.432.432 0 00.391-.038c.208-.135.208-.34.243-.33.035.008.035.043.03.13a.517.517 0 01-.178.33.579.579 0 01-.556.104.592.592 0 01-.408-.565.602.602 0 01.408-.569.58.58 0 01.556.104.517.517 0 01.178.33c.005.087-.013.135-.03.135zM372.383 77.482c-1.432.112-2.869.15-4.306.113a41.586 41.586 0 01-4.305-.113 40.184 40.184 0 014.305-.113 40.248 40.248 0 014.306.113zM372.383 75.853a40.248 40.248 0 01-4.306.113c-1.436.04-2.873.002-4.305-.113a41.614 41.614 0 014.305-.113 41.682 41.682 0 014.306.113zM372.383 74.21c-1.432.113-2.869.15-4.306.114a41.586 41.586 0 01-4.305-.113 41.586 41.586 0 014.305-.113 41.654 41.654 0 014.306.113z" fill="#263238"/><path d="M386.735 100.628s-5.779-.078-7.052 1.812c-1.273 1.89-6.518 13.652-6.518 13.652l8.199 4.266 1.764-5.04 2.877 10.537c-3.294 2.607-7.96 26.343-7.03 36.341l30.797.1s.213-27.738-8.117-36.858l1.951-11.015 1.882 5.375 8.689-3.606-6.539-11.762a6.328 6.328 0 00-5.5-3.255h-2.134s-.899 7.873-6.622 7.721c-5.722-.152-6.647-8.268-6.647-8.268z" fill="#687C94"/><path d="M401.812 125.481c0 .065-3.476.2-7.821.304-4.345.105-7.821.139-7.821.079 0-.061 3.476-.2 7.821-.305 4.345-.104 7.821-.139 7.821-.078zM380.552 108.18a38.246 38.246 0 011.455 3.832 38.847 38.847 0 011.243 3.91 35.998 35.998 0 01-1.456-3.836 36.385 36.385 0 01-1.242-3.906zM404.427 108.714c.012.419-.015.838-.082 1.251-.083.77-.222 1.825-.409 2.99a61.17 61.17 0 01-.547 2.972c-.065.413-.17.819-.313 1.212a6.85 6.85 0 01.156-1.243l.483-2.976c.178-1.125.339-2.142.473-2.976.042-.417.122-.828.239-1.23z" fill="#263238"/><path d="M387.86 131.012a2.27 2.27 0 01-.17-.825 6.43 6.43 0 01.965-3.911c.135-.249.317-.47.535-.651a8.632 8.632 0 00-1.33 5.379v.008zM390.202 128.579a2.698 2.698 0 01-.243-1.408 2.758 2.758 0 01.282-1.403c.007.47-.012.94-.057 1.408-.017.769.083 1.39.018 1.403zM403.697 155.027a1.12 1.12 0 01-.26-.109c-.166-.087-.435-.191-.722-.373a13.31 13.31 0 01-2.416-1.764 16.855 16.855 0 01-2.837-3.402 21.82 21.82 0 01-2.303-4.915c-1.177-3.684-1.451-7.199-1.616-9.702a100.706 100.706 0 01-.13-2.981v-.808a1.109 1.109 0 010-.282c.018.092.03.185.034.278 0 .209.035.478.057.808.052.73.122 1.738.204 2.972.204 2.498.504 5.992 1.673 9.646a21.905 21.905 0 002.264 4.871 17.155 17.155 0 002.767 3.397 14.43 14.43 0 002.351 1.804c.595.364.943.56.934.56zM410.793 88.77c0 .061-7.343.114-16.394.114-9.05 0-16.393-.053-16.393-.113 0-.061 7.338-.113 16.393-.113s16.394.047 16.394.113z" fill="#263238"/><path d="M406.326 84.226h-24.427v1.39h24.427v-1.39z" fill="#687C94"/><path d="M284.971 48.169c0 .09-10.171.156-22.708.156-12.537 0-22.708-.066-22.708-.156s10.165-.157 22.708-.157 22.708.072 22.708.157zM285.464 55.555c0 .09-10.171.157-22.708.157-12.537 0-22.708-.067-22.708-.157s10.165-.156 22.708-.156 22.708.072 22.708.156zM285.464 62.941c0 .09-10.171.157-22.708.157-12.537 0-22.708-.066-22.708-.157 0-.09 10.165-.156 22.708-.156s22.708.072 22.708.157zM284.971 51.918c0 .084-10.171.157-22.708.157-12.537 0-22.708-.073-22.708-.157s10.165-.156 22.708-.156 22.708.072 22.708.156zM285.464 59.305c0 .084-10.171.156-22.708.156-12.537 0-22.708-.072-22.708-.156 0-.085 10.165-.157 22.708-.157s22.708.072 22.708.157zM285.464 66.691c0 .084-10.171.157-22.708.157-12.537 0-22.708-.073-22.708-.157s10.165-.156 22.708-.156 22.708.072 22.708.156z" fill="#263238"/><path d="M245.071 77.65v5.216h-1.206v-4.251h-1.047v-.96l2.253-.006zM245.959 80.257c0-1.724.961-2.699 2.238-2.699 1.278 0 2.239.96 2.239 2.7 0 1.738-.961 2.699-2.239 2.699-1.277 0-2.238-.98-2.238-2.7zm3.262 0c0-1.186-.418-1.676-1.024-1.676-.605 0-1.013.48-1.013 1.676s.418 1.677 1.013 1.677c.596 0 1.043-.49 1.043-1.677h-.019z" fill="#000"/><path d="M253.783 78.793a1.032 1.032 0 01-.647 1.07c-.139.056-.289.08-.438.073a1.115 1.115 0 01-.586-.15l.182-.36a.66.66 0 00.394.106.56.56 0 00.601-.614.746.746 0 01-.529.187.67.67 0 01-.73-.658.729.729 0 01.802-.71c.591-.001.951.369.951 1.056zm-.547-.37c0-.183-.139-.317-.375-.317a.314.314 0 00-.246.08.305.305 0 00-.104.237.316.316 0 00.36.317.332.332 0 00.365-.317zM255.714 78.793a1.032 1.032 0 01-.647 1.07c-.139.056-.289.08-.438.073a1.113 1.113 0 01-.586-.15l.182-.36a.665.665 0 00.399.106.566.566 0 00.567-.375.573.573 0 00.029-.24.746.746 0 01-.529.188.669.669 0 01-.669-.391.666.666 0 01-.061-.267.729.729 0 01.802-.71c.591-.001.951.369.951 1.056zm-.552-.37a.363.363 0 00-.404-.41.365.365 0 00.044.727.325.325 0 00.36-.317zM255.695 80.66h-3.727v.472h3.727v-.471z" fill="#263238"/><path d="M221.982 72.77a4.063 4.063 0 10-3.11-7.507 4.063 4.063 0 003.11 7.508z" fill="#687C94"/><path d="M219.401 71.296c.067-.075.142-.142.224-.2.151-.123.369-.296.641-.506.539-.423 1.304-1 2.156-1.63v.113l-.019-.016-.041-.03-.078-.056-.153-.119-.302-.226-.571-.431-.962-.736-.641-.506a1.374 1.374 0 01-.224-.202c.092.04.178.093.256.156l.668.471.981.714.574.423.304.227.156.116.079.059.037.027.022.016v.113c-.843.63-1.617 1.194-2.172 1.595l-.668.472a1.157 1.157 0 01-.267.156z" fill="#FAFAFA"/><path d="M156.529 70.03a4.129 4.129 0 10-8.151-1.323 4.129 4.129 0 008.151 1.323z" fill="#687C94"/><path d="M153.495 67.046a1.292 1.292 0 01-.228.206c-.15.123-.375.298-.651.514a77.245 77.245 0 01-2.191 1.643v-.112l.022.013.039.03.079.06.159.118.307.23.58.438.975.75c.273.214.501.39.651.515.084.058.161.126.227.203a1.275 1.275 0 01-.26-.159l-.679-.479-.993-.723-.586-.432-.307-.23-.159-.115-.079-.06-.041-.03-.019-.014v-.115c.857-.638 1.642-1.21 2.204-1.621.273-.186.492-.348.678-.48.084-.06.175-.111.272-.15z" fill="#FAFAFA"/><path d="M167.275 116.908h-14.472v14.472h14.472v-14.472zM185.632 116.908H171.16v14.472h14.472v-14.472zM203.995 116.908h-14.472v14.472h14.472v-14.472zM222.352 116.908H207.88v14.472h14.472v-14.472z" fill="#F6376D"/><path d="M306.454 17.86c-.48.063-.963.087-1.447.074-.899 0-2.146.035-3.554.04h-.1v-.096c-.026-.191-.056-.391-.083-.591a246.344 246.344 0 01-.556-4.275l.07.06A7.866 7.866 0 01299.48 13c.432-.058.868-.081 1.304-.07h.061v.06c.16.996.395 2.538.634 4.268.03.2.057.4.083.586l-.109-.095c1.408 0 2.655 0 3.554.039.484-.013.967.012 1.447.074z" fill="#263238"/><path d="M301.305 16.822a2.12 2.12 0 01.387-.035l1.069-.03c.917 0 2.203-.035 3.693-.04l-.109.088.348-1.99c.065-.357.126-.709.187-1.043l.108.13c-1.738 0-3.254 0-4.344-.039l-1.304-.03a1.74 1.74 0 01-.465-.044c.153-.03.309-.042.465-.039l1.304-.035c1.094 0 2.606-.03 4.344-.034h.135v.13c-.061.335-.121.686-.182 1.043-.126.695-.248 1.364-.357 1.99v.09h-.091c-1.49 0-2.776 0-3.693-.038l-1.069-.03a1.532 1.532 0 01-.426-.044zM302.7 19.22c-.035 0-.035-.195-.243-.334a.437.437 0 00-.391-.04.4.4 0 000 .744.432.432 0 00.391-.04c.208-.134.208-.338.243-.33.035.01.035.044.03.13a.517.517 0 01-.178.331.578.578 0 01-.849-.114.597.597 0 01.585-.936.579.579 0 01.264.125.516.516 0 01.178.33c.005.087-.013.134-.03.134zM305.92 19.22c-.035 0-.035-.195-.244-.334a.432.432 0 00-.391-.04.402.402 0 00-.252.372.4.4 0 00.252.372.434.434 0 00.391-.04c.209-.134.209-.338.244-.33.034.01.034.044.03.13a.521.521 0 01-.178.331.576.576 0 01-.556.104.594.594 0 01-.295-.915.602.602 0 01.295-.219.577.577 0 01.556.105.52.52 0 01.178.33c.004.087-.013.134-.03.134zM162.792 18.39c-1.433.113-2.87.15-4.306.114a41.605 41.605 0 01-4.306-.113 40.202 40.202 0 014.306-.113 40.255 40.255 0 014.306.113zM162.792 16.761c-1.432.115-2.87.153-4.306.113a40.15 40.15 0 01-4.306-.113c1.432-.111 2.87-.15 4.306-.113a41.697 41.697 0 014.306.113zM162.792 15.119c-1.433.112-2.87.15-4.306.113a41.605 41.605 0 01-4.306-.113c1.432-.112 2.87-.15 4.306-.113a41.697 41.697 0 014.306.113z" fill="#263238"/><path d="M177.143 36.92s-5.779-.079-7.052 1.811c-1.273 1.89-6.517 13.652-6.517 13.652l8.199 4.267 1.764-5.04 2.876 10.536c-3.293 2.607-7.96 26.344-7.03 36.341l30.797.1s.213-27.738-8.116-36.858l1.951-11.014 1.881 5.374 8.69-3.606-6.539-11.762a6.34 6.34 0 00-5.501-3.254h-2.133s-.9 7.873-6.622 7.72c-5.722-.151-6.648-8.268-6.648-8.268z" fill="#687C94"/><path d="M192.22 71.006c0 .065-3.476.2-7.821.304-4.345.104-7.821.14-7.821.078 0-.06 3.476-.2 7.821-.304 4.345-.104 7.821-.139 7.821-.078zM170.96 53.704a38.522 38.522 0 011.456 3.833c.482 1.28.897 2.586 1.242 3.91a35.755 35.755 0 01-1.455-3.837 36.57 36.57 0 01-1.243-3.906zM194.836 54.239c.012.418-.016.837-.083 1.251a59.404 59.404 0 01-.408 2.99 62.159 62.159 0 01-.548 2.971c-.065.413-.169.82-.313 1.212.014-.418.066-.834.157-1.242l.482-2.976c.178-1.126.339-2.142.474-2.977.042-.416.122-.828.239-1.23z" fill="#263238"/><path d="M178.268 76.537a2.27 2.27 0 01-.169-.825 6.42 6.42 0 01.965-3.91c.135-.25.316-.471.534-.653a8.64 8.64 0 00-1.33 5.38v.008zM180.61 74.104a2.718 2.718 0 01-.243-1.408 2.759 2.759 0 01.283-1.403c.007.47-.012.94-.057 1.407-.017.77.083 1.39.017 1.404zM194.106 100.552a1.126 1.126 0 01-.261-.109c-.165-.087-.434-.191-.721-.374a13.265 13.265 0 01-2.416-1.764 16.856 16.856 0 01-2.837-3.402 21.768 21.768 0 01-2.303-4.914c-1.178-3.685-1.451-7.2-1.616-9.702a104.969 104.969 0 01-.131-2.981v-.808a1.212 1.212 0 010-.282c.019.091.03.184.035.278 0 .208.035.478.057.808.052.73.121 1.738.204 2.972.204 2.498.504 5.991 1.673 9.645a21.93 21.93 0 002.263 4.871 17.179 17.179 0 002.768 3.398c.719.68 1.507 1.284 2.351 1.803.595.365.943.561.934.561zM278.375 35.014c0 .06-7.343.113-16.394.113-9.05 0-16.393-.052-16.393-.113 0-.06 7.338-.113 16.393-.113s16.394.048 16.394.113z" fill="#263238"/><path d="M273.908 30.47h-24.427v1.39h24.427v-1.39zM259.437 197.589h-39.702v3.693h39.702v-3.693zM265.399 90.484h-24.428v1.39h24.428v-1.39zM265.399 94.178h-24.428v1.39h24.428v-1.39z" fill="#687C94"/><path d="M264.977 99.717h-24.006v6.464h24.006v-6.464z" fill="#F6376D"/><path d="M273.287 238.676c0 .266-15.095.461-33.701.461-18.605 0-33.701-.195-33.701-.461 0-.267 15.087-.462 33.701-.462 18.615 0 33.701.213 33.701.462zM273.287 228.519c0 .267-15.095.462-33.701.462-18.605 0-33.701-.195-33.701-.462 0-.266 15.087-.461 33.701-.461 18.615 0 33.701.213 33.701.461zM273.287 218.363c0 .266-15.095.462-33.701.462-18.605 0-33.701-.196-33.701-.462s15.087-.462 33.701-.462c18.615 0 33.701.213 33.701.462zM273.287 244.216c0 .248-15.095.461-33.701.461-18.605 0-33.701-.213-33.701-.461 0-.249 15.087-.462 33.701-.462 18.615 0 33.701.213 33.701.462zM273.287 234.059c0 .249-15.095.462-33.701.462-18.605 0-33.701-.213-33.701-.462 0-.248 15.087-.461 33.701-.461 18.615 0 33.701.213 33.701.461zM273.287 223.903c0 .248-15.095.461-33.701.461-18.605 0-33.701-.213-33.701-.461 0-.249 15.087-.462 33.701-.462 18.615 0 33.701.213 33.701.462z" fill="#687C94"/><path d="M210.642 264.456v5.499h-1.27v-4.481h-1.104v-1.013l2.374-.005zM211.579 267.205c0-1.817 1.013-2.845 2.36-2.845 1.346 0 2.359 1.012 2.359 2.845 0 1.833-1.013 2.846-2.359 2.846-1.347 0-2.36-1.033-2.36-2.846zm3.438 0c0-1.25-.44-1.767-1.078-1.767-.638 0-1.069.507-1.069 1.767 0 1.261.441 1.767 1.069 1.767.627 0 1.098-.516 1.098-1.767h-.02z" fill="#000"/><path d="M219.827 265.661a1.085 1.085 0 01-.294.866 1.095 1.095 0 01-.85.339 1.167 1.167 0 01-.618-.157l.193-.379c.123.08.268.119.415.111a.59.59 0 00.633-.648.781.781 0 01-.557.197.7.7 0 01-.536-.179.711.711 0 01-.234-.514.792.792 0 01.071-.307.793.793 0 01.188-.253.787.787 0 01.587-.19c.623 0 1.002.39 1.002 1.114zm-.577-.39c0-.192-.147-.334-.395-.334a.328.328 0 00-.259.085.329.329 0 00-.11.249.323.323 0 00.029.14.332.332 0 00.35.195.352.352 0 00.385-.335zM221.863 265.661a1.101 1.101 0 01-.295.866 1.1 1.1 0 01-.849.339 1.163 1.163 0 01-.618-.157l.192-.379c.125.081.272.12.421.111a.598.598 0 00.463-.179.586.586 0 00.164-.469.778.778 0 01-.557.197.695.695 0 01-.535-.179.698.698 0 01-.234-.514.758.758 0 01.259-.56.774.774 0 01.586-.19c.623 0 1.003.39 1.003 1.114zm-.582-.39a.383.383 0 00-.426-.432.383.383 0 00-.316.518.385.385 0 00.362.249.348.348 0 00.263-.084.344.344 0 00.117-.251zM221.843 267.631h-3.93v.496h3.93v-.496z" fill="#263238"/><path d="M161.374 246.387a4.284 4.284 0 10-3.28-7.915 4.284 4.284 0 003.28 7.915z" fill="#687C94"/><path d="M158.653 244.832c.07-.079.149-.149.236-.21.159-.131.389-.313.676-.534a112.17 112.17 0 012.272-1.719v.12l-.02-.017-.042-.031-.083-.06-.162-.125-.318-.239-.602-.454-1.014-.776-.676-.534a1.443 1.443 0 01-.236-.213c.097.043.188.099.27.165l.705.497 1.033.753.605.446.321.238.165.123.083.062.039.028.023.017v.12a185.97 185.97 0 01-2.289 1.681l-.705.497c-.086.068-.18.123-.281.165z" fill="#FAFAFA"/><path d="M86.835 243.498a4.353 4.353 0 10-8.593-1.395 4.353 4.353 0 008.593 1.395z" fill="#687C94"/><path d="M83.636 240.352c-.07.082-.151.154-.24.217-.158.13-.395.314-.686.542a81.182 81.182 0 01-2.31 1.732v-.118l.024.014.04.032.084.063.167.124.324.243.611.462 1.028.79c.288.225.528.41.687.543.088.061.169.132.24.214a1.335 1.335 0 01-.275-.168l-.716-.505-1.047-.762-.618-.456-.323-.242-.168-.122-.083-.063-.043-.032-.02-.014v-.121c.903-.673 1.731-1.276 2.323-1.709.288-.196.52-.367.715-.505.089-.065.185-.118.286-.159z" fill="#FAFAFA"/><path d="M100.628 290.843H79.392v21.236h21.236v-21.236zM126.481 290.843h-20.313v21.236h20.313v-21.236zM153.257 290.843h-20.313v21.236h20.313v-21.236zM180.033 290.843h-21.236v21.236h21.236v-21.236z" fill="#F6376D"/><path d="M300.281 192.195a9.973 9.973 0 01-1.525.078c-.948 0-2.263.037-3.747.041h-.105v-.101c-.028-.201-.06-.412-.087-.623a255.953 255.953 0 01-.587-4.507l.074.064a8.196 8.196 0 01-1.374-.077 8.64 8.64 0 011.374-.074h.064v.064c.169 1.049.417 2.675.669 4.498.032.211.059.422.087.619l-.115-.101c1.484 0 2.799 0 3.747.041a9.973 9.973 0 011.525.078z" fill="#263238"/><path d="M294.853 191.1c.135-.025.271-.037.408-.037l1.127-.032c.966 0 2.322-.036 3.893-.041l-.115.092.367-2.098c.069-.376.133-.747.197-1.099l.114.137c-1.832 0-3.43 0-4.58-.041l-1.374-.032a1.832 1.832 0 01-.49-.046 2.3 2.3 0 01.49-.041l1.374-.037c1.154 0 2.748-.032 4.58-.037h.142v.138c-.064.353-.128.724-.192 1.099-.133.733-.261 1.438-.376 2.098v.096h-.096c-1.571 0-2.927 0-3.893-.041l-1.127-.032a1.617 1.617 0 01-.449-.046zM296.323 193.628c-.036 0-.036-.206-.256-.352a.457.457 0 00-.412-.042.427.427 0 00-.266.392.42.42 0 00.266.392.457.457 0 00.412-.042c.22-.142.22-.357.256-.348.037.01.037.046.033.138a.558.558 0 01-.188.348.617.617 0 01-.587.11.633.633 0 010-1.196.608.608 0 01.587.11c.103.089.17.213.188.348.004.092-.014.142-.033.142zM299.718 193.628c-.037 0-.037-.206-.257-.352a.453.453 0 00-.412-.042.427.427 0 00-.266.392.42.42 0 00.266.392.453.453 0 00.412-.042c.22-.142.22-.357.257-.348.036.01.036.046.032.138a.553.553 0 01-.188.348.617.617 0 01-.586.11.627.627 0 01-.312-.964.639.639 0 01.312-.232.605.605 0 01.586.11c.104.089.17.213.188.348.004.092-.014.142-.032.142zM93.437 192.754a44.07 44.07 0 01-4.54.119 43.79 43.79 0 01-4.538-.119 42.18 42.18 0 014.539-.119 42.18 42.18 0 014.539.119zM93.437 191.036a42.18 42.18 0 01-4.54.119 42.18 42.18 0 01-4.538-.119 44.07 44.07 0 014.539-.119 44.07 44.07 0 014.539.119zM93.437 189.305a44.07 44.07 0 01-4.54.119 44.07 44.07 0 01-4.538-.119 43.79 43.79 0 014.539-.119 43.79 43.79 0 014.539.119z" fill="#263238"/><path d="M114.333 203.032s-7.016-.095-8.562 2.2c-1.546 2.295-7.913 16.575-7.913 16.575l9.955 5.18 2.141-6.119 3.493 12.792c-3.999 3.166-9.665 31.985-8.536 44.123l37.391.121s.259-33.677-9.854-44.75l2.369-13.373 2.284 6.526 10.551-4.379-7.94-14.28a7.691 7.691 0 00-6.678-3.951h-2.59s-1.092 9.559-8.04 9.374c-6.948-.185-8.071-10.039-8.071-10.039z" fill="#687C94"/><path d="M113.554 223.441a50.617 50.617 0 011.495 4.57 52.056 52.056 0 011.275 4.663 47.285 47.285 0 01-1.494-4.575 48.787 48.787 0 01-1.276-4.658zM130.17 223.441a7.077 7.077 0 01-.112 1.509c-.113.927-.303 2.2-.557 3.603a67.625 67.625 0 01-.747 3.583 7.086 7.086 0 01-.427 1.462c.019-.505.09-1.006.214-1.498l.657-3.588c.243-1.357.463-2.583.646-3.588.057-.502.166-.999.326-1.483zM115.63 251.14a2.673 2.673 0 01-.206-.99 7.616 7.616 0 011.174-4.691c.164-.299.384-.564.65-.782a10.252 10.252 0 00-1.618 6.453v.01zM133.867 276.07a1.32 1.32 0 01-.304-.132c-.192-.106-.507-.232-.841-.454a15.556 15.556 0 01-2.817-2.141 20.28 20.28 0 01-3.309-4.131 26.968 26.968 0 01-2.685-5.966c-1.373-4.473-1.692-8.741-1.885-11.779a134.74 134.74 0 01-.152-3.619v-.981a1.513 1.513 0 010-.343c.022.111.035.224.041.338 0 .253.04.58.066.981.06.886.142 2.11.238 3.608.238 3.033.588 7.274 1.95 11.711a27.168 27.168 0 002.64 5.913 20.688 20.688 0 003.228 4.125c.839.826 1.757 1.56 2.741 2.189.694.443 1.099.681 1.089.681z" fill="#263238"/><path d="M263.131 205.898h-47.089v.924h47.089v-.924zM232.072 277.986h-25.751v1.466h25.751v-1.466zM232.072 281.88h-25.751v1.465h25.751v-1.465z" fill="#687C94"/><path d="M231.628 287.72h-25.307v6.813h25.307v-6.813z" fill="#F6376D"/></svg>