<svg xmlns="http://www.w3.org/2000/svg" width="462" height="353" viewBox="0 0 461.642 353" fill="none"><style>.B{fill:#07074f}.C{fill:#b9b9c5}.D{fill:#fafafa}.E{fill:#ef4351}.F{fill:#455a64}.G{fill:#f5c2ac}</style><g fill-rule="evenodd"><path d="M451.338 113.43a17.284 17.284 0 0 1 3.268 3.194l4.164-.766 2.77 6.463-3.434 2.484c.22 1.51.24 3.045.055 4.56l3.48 2.4-2.613 6.51-4.183-.674a16.97 16.97 0 0 1-3.194 3.259l.757 4.174-6.463 2.77-2.447-3.463a16.84 16.84 0 0 1-4.617 0l-2.4 3.5-6.463-2.613.674-4.182a17.024 17.024 0 0 1-3.268-3.195l-4.164.757-2.77-6.463 3.425-2.484a17.57 17.57 0 0 1 0-4.616l-3.5-2.3 2.613-6.463 4.183.664c.915-1.223 2-2.32 3.194-3.26l-.757-4.2 6.463-2.77 2.484 3.425a17.24 17.24 0 0 1 4.617-.046l2.4-3.48 6.5 2.613-.675 4.183-.1.028zm-7.248 6.97a7.514 7.514 0 0 0-8.172 1.72 7.51 7.51 0 0 0-2.015 3.869 7.518 7.518 0 0 0 .474 4.338 7.52 7.52 0 0 0 2.804 3.343 7.517 7.517 0 0 0 8.35-.088 7.51 7.51 0 0 0 2.732-3.402 7.525 7.525 0 0 0-.061-5.752 7.517 7.517 0 0 0-1.656-2.42 7.49 7.49 0 0 0-2.456-1.603z" class="E"/><path d="M64.775 141.525a31.26 31.26 0 0 1 5.9 5.78l7.534-1.376 4.977 11.652-6.242 4.525a30.87 30.87 0 0 1 .083 8.254l6.297 4.35-4.718 11.763-7.525-1.284a30.678 30.678 0 0 1-5.78 5.9l1.376 7.535-11.652 5.032-4.487-6.205a31.21 31.21 0 0 1-8.254.092l-4.358 6.288-11.763-4.737 1.21-7.56a31.237 31.237 0 0 1-5.9-5.78l-7.525 1.375-4.977-11.652 6.205-4.487a31.212 31.212 0 0 1-.092-8.255l-6.288-4.32 4.727-11.753 7.553 1.218a31.6 31.6 0 0 1 5.78-5.909l-1.376-7.562 11.652-4.976 4.496 6.204a31.29 31.29 0 0 1 8.254-.092l4.35-6.297 11.763 4.727-1.22 7.553zm-13.093 12.612a13.6 13.6 0 0 0-7.861-.691 13.59 13.59 0 0 0-6.92 3.793 13.599 13.599 0 0 0-3.646 7 13.59 13.59 0 0 0 .858 7.845 13.58 13.58 0 0 0 5.072 6.046 13.59 13.59 0 0 0 15.103-.164 13.59 13.59 0 0 0 4.939-6.155 13.6 13.6 0 0 0-7.543-17.673z" fill="#4f4f84"/><path d="M33.863 82.544c1.223.916 2.32 2 3.26 3.195l4.164-.757 2.77 6.463-3.425 2.484a17.24 17.24 0 0 1 0 4.617l3.48 2.4-2.613 6.463-4.173-.674a17.34 17.34 0 0 1-3.204 3.268l.766 4.165-6.463 2.77-2.484-3.425a17.5 17.5 0 0 1-4.561 0l-2.4 3.48-6.463-2.613.674-4.183a16.98 16.98 0 0 1-3.259-3.194l-4.173.757-2.77-6.463 3.435-2.484a16.774 16.774 0 0 1-.046-4.57l-3.5-2.4 2.613-6.51 4.183.674a17.29 17.29 0 0 1 3.195-3.269l-.757-4.164 6.463-2.77 2.484 3.435a17.2 17.2 0 0 1 4.617-.055l2.4-3.48 6.463 2.613-.665 4.183-.018.037zm-7.248 6.97c-1.38-.556-2.894-.7-4.35-.385s-2.79 1.033-3.83 2.095-1.746 2.41-2.023 3.87-.114 2.972.467 4.342 1.556 2.535 2.8 3.35a7.52 7.52 0 0 0 4.189 1.232 7.53 7.53 0 0 0 6.863-10.466c-.386-.91-.95-1.736-1.656-2.43s-1.542-1.24-2.46-1.6z" fill="#8e96a3"/><path d="M118.67 31.263a42.63 42.63 0 0 1 10.064 5.318l9.418-4.783 11.153 13.443-6.463 8.375a43.15 43.15 0 0 1 3.37 10.877l10.027 3.278-1.615 17.395-10.47 1.367a42.65 42.65 0 0 1-5.318 10.073l4.783 9.418-13.453 11.153-8.365-6.463a42.886 42.886 0 0 1-10.858 3.38l-3.278 10.036-17.395-1.625-1.32-10.452a42.62 42.62 0 0 1-10.064-5.318l-9.418 4.773-11.154-13.443 6.463-8.374a43.16 43.16 0 0 1-3.37-10.877L51.38 75.536l1.56-17.395 10.47-1.367a42.86 42.86 0 0 1 5.3-10.083l-4.783-9.41L77.38 26.13l8.365 6.463a42.498 42.498 0 0 1 10.886-3.37l3.278-10.036 17.395 1.653 1.367 10.47v-.046zm-12.354 21.81a18.745 18.745 0 0 0-20.382 20.598c.384 3.687 1.85 7.178 4.22 10.03s5.528 4.94 9.08 5.997a18.74 18.74 0 0 0 19.897-6.155 18.76 18.76 0 0 0 3.356-17.351c-.727-2.352-1.9-4.537-3.482-6.43s-3.5-3.46-5.678-4.608a18.73 18.73 0 0 0-7.01-2.083z" class="E"/></g><path d="M130.904 10.664v123.004c0 5.89 4.775 10.664 10.665 10.664h185.807c5.89 0 10.664-4.775 10.664-10.664V10.664c0-5.9-4.775-10.664-10.664-10.664H141.57c-5.9 0-10.665 4.775-10.665 10.664z" class="F"/><path d="M145.076 4.552V139.78h172.982V4.552H145.076z" fill="#fff"/><path d="M322.176 158.93H59.54c-7.43 0-13.453 6.023-13.453 13.453v164.562c0 7.43 6.023 13.452 13.453 13.452h262.636c7.43 0 13.453-6.023 13.453-13.452V172.382c0-7.43-6.023-13.453-13.453-13.453z" class="B"/><path d="M327.043 166.537H53.854v161.69h273.2v-161.69z" fill="#f6f8ff"/><path d="M314.486 177.303H62.967v150.86h251.52v-150.86z" class="D"/><path d="M45.654 319.068c11.523-7.543 14.45-21.993 14.32-35.086 0-2.18.286-4.468-.72-6.407s-3.416-3.297-5.42-2.43c-1.653.72-2.4 2.586-3.37 4.118a12.833 12.833 0 0 1-5.29 4.755c-1.422.684-3.167 1.08-4.533.296-1.847-1.08-2.04-3.693-1.976-5.845l.37-12.104c.19-2.167.02-4.35-.5-6.463a6.773 6.773 0 0 0-4.165-4.617c-2.077-.628-4.68.5-5.18 2.604a20.11 20.11 0 0 0-.129 2.696 2.28 2.28 0 0 1-1.403 2.114 2.68 2.68 0 0 1-1.328-.217 2.68 2.68 0 0 1-1.055-.835 28.88 28.88 0 0 1-5.041-7.932 39.7 39.7 0 0 0-4.69-8.162c-1.994-2.437-4.792-4.395-7.93-4.616s-6.528 1.588-7.386 4.616.86 6.177 2.77 8.69a48.633 48.633 0 0 0 9.963 9.842 4.01 4.01 0 0 1 1.662 1.847c.434 1.46-.988 2.853-2.437 3.296-1.653.5-3.426.286-5.134.443s-3.592.86-4.275 2.438c-.923 2.197.868 4.56 2.668 6.12a42.26 42.26 0 0 0 12.243 7.387c1.65.493 3.194 1.28 4.56 2.326 1.274 1.145 2.013 3.112 1.19 4.617s-2.853 1.948-4.543 1.597a29.8 29.8 0 0 1-4.737-1.865c-2.992-1.19-6.888-1.08-8.882 1.45a6.793 6.793 0 0 0-.923 6.04 15.97 15.97 0 0 0 3.195 5.43 42.12 42.12 0 0 0 17.7 12.927c6.934 2.567 13.407 3.37 20.414 1.025" class="B"/><g class="C"><path d="m3.46 242.7.212.213.637.58 2.428 2.28a82.12 82.12 0 0 1 8.162 9.131l4.94 6.87s3.518 5.226 5.318 8.134a96.67 96.67 0 0 1 5.18 9.381l2.244 5.208 2.198 5.43a195.68 195.68 0 0 1 7.303 21.014 95.74 95.74 0 0 1 3.222 17.857c.33 4.073.3 8.167-.092 12.234a66.561 66.561 0 0 1-.406 3.305l-.13.86a2.34 2.34 0 0 0 0 .295 2.13 2.13 0 0 0 .074-.286c0-.212.092-.498.157-.858.148-.748.314-1.847.49-3.297.453-4.074.527-8.182.222-12.27a93.51 93.51 0 0 0-3.149-17.931c-2.02-7.16-4.452-14.2-7.285-21.08l-2.197-5.42c-.73-1.782-1.45-3.546-2.262-5.235a97.03 97.03 0 0 0-5.226-9.41 285.59 285.59 0 0 0-5.355-8.116c-1.717-2.51-3.39-4.82-4.995-6.86a78.611 78.611 0 0 0-8.3-9.067 68.117 68.117 0 0 0-2.493-2.225l-.656-.563c-.148-.12-.222-.185-.23-.176z"/><path d="M30.585 279.098a4.44 4.44 0 0 0 .231-.923l.47-2.54 1.19-8.42 1.265-8.402.48-2.53c.083-.3.133-.61.148-.923-.14.294-.242.604-.305.923l-.61 2.502c-.462 2.133-.923 5.106-1.376 8.402l-1.07 8.44-.342 2.548c-.063.303-.09.613-.083.923z"/><path d="M2.508 273.226a6.01 6.01 0 0 0 1.117.157l3.056.378c2.576.333 6.122.924 10 1.736s7.387 1.727 9.852 2.438c1.256.35 2.262.665 2.955.877a5.41 5.41 0 0 0 1.1.286 7.91 7.91 0 0 0-1.043-.434 53.42 53.42 0 0 0-2.927-.997c-2.484-.794-5.965-1.736-9.852-2.558a100.89 100.89 0 0 0-10.046-1.634 41.77 41.77 0 0 0-3.075-.24 5.67 5.67 0 0 0-1.136-.009zm39.602 37.1c.082-.102.15-.214.203-.333l.508-.997 1.754-3.693c1.44-3.158 3.287-7.58 5.254-12.483l5.152-12.52 2.077-4.792c.092-.24.14-.37.12-.37a1.84 1.84 0 0 0-.194.333l-.508.997c-.443.868-1.034 2.133-1.754 3.693-1.44 3.158-3.287 7.58-5.263 12.483l-5.152 12.52-1.634 3.767-.434 1.025a1.52 1.52 0 0 0-.13.37z"/><path d="M4.928 297.51a2.37 2.37 0 0 0 .36.166l1.08.38 3.99 1.385 13.093 4.672 13.14 4.56 4.026 1.256 1.1.313c.26.074.397.102.397.084a1.862 1.862 0 0 0-.37-.157l-1.08-.388-3.98-1.376-13.092-4.672-13.14-4.57-4.026-1.256-1.108-.314a2.05 2.05 0 0 0-.388-.083z"/></g><path d="m420.343 221.64-55.703-.26a12.11 12.11 0 0 1-4.643-.937c-1.47-.615-2.806-1.515-3.928-2.647s-2-2.476-2.61-3.952a12.1 12.1 0 0 1-.895-4.652l.59-139.263a12.11 12.11 0 0 1 .947-4.633 12.127 12.127 0 0 1 6.597-6.521c1.474-.6 3.052-.904 4.643-.895l55.704.25a12.13 12.13 0 0 1 12.086 12.151l-.59 139.272a12.12 12.12 0 0 1-.94 4.645 12.14 12.14 0 0 1-2.65 3.93 12.13 12.13 0 0 1-3.954 2.614 12.14 12.14 0 0 1-4.653.898z" class="F"/><path d="M420.97 62.98h-10.8c-.352.005-.7.08-1.02.218a2.67 2.67 0 0 0-.859.593 2.67 2.67 0 0 0-.566.877 2.67 2.67 0 0 0-.186 1.027v1.958a2.69 2.69 0 0 1-.757 1.902c-.492.5-1.166.805-1.874.822l-21.06-.102a2.67 2.67 0 0 1-1.025-.231 2.68 2.68 0 0 1-.857-.609 2.684 2.684 0 0 1-.555-.892 2.68 2.68 0 0 1-.167-1.037V65.53a2.655 2.655 0 0 0-.17-1.036 2.67 2.67 0 0 0-1.41-1.5 2.677 2.677 0 0 0-1.024-.234h-13.26a8.47 8.47 0 0 0-3.25.628 8.48 8.48 0 0 0-2.763 1.824 8.494 8.494 0 0 0-2.518 5.987l-.58 135.94a8.487 8.487 0 0 0 8.465 8.514l55.593.26a8.5 8.5 0 0 0 6.014-2.455 8.55 8.55 0 0 0 2.527-5.984l.572-135.94a8.494 8.494 0 0 0-2.455-6.036 8.49 8.49 0 0 0-6.011-2.515z" fill="#fff"/><path d="M327.624 66.626a5.54 5.54 0 0 1 3.078.934 5.56 5.56 0 0 1 2.04 2.486 5.54 5.54 0 0 1 .315 3.201 5.526 5.526 0 0 1-1.516 2.837 5.54 5.54 0 0 1-6.037 1.201 5.547 5.547 0 0 1-2.486-2.04 5.54 5.54 0 0 1 4.606-8.618zM136.867 51.558v41.217c0 .622.505 1.126 1.127 1.126h.037c.622 0 1.126-.504 1.126-1.126V51.558c0-.622-.504-1.126-1.126-1.126h-.037c-.622 0-1.127.504-1.127 1.126zM33.975 336.242H347.67v.323a16.42 16.42 0 0 1-4.813 11.62A16.45 16.45 0 0 1 331.235 353H50.4c-4.36 0-8.54-1.732-11.62-4.814s-4.814-7.262-4.814-11.62v-.323z" class="B"/><g class="F"><path d="m162.314 336.242 3.888 6.186h54.78l3.6-6.186h-62.278z"/><path d="M335.63 336.362H46.088v.923h289.54v-.923z"/></g><path d="M405.343 161.906c0 .07-4.71.13-10.526.13s-10.526-.06-10.526-.13 4.71-.13 10.526-.13l10.526.13z" class="C"/><path d="M413.47 165.916c0 .076-8.515.13-19 .13s-19-.055-19-.13 8.5-.13 19-.13l19 .13zm0 3.14c0 .07-8.515.13-19 .13s-19-.06-19-.13 8.5-.13 19-.13l19 .13z" class="B"/><path d="M391.175 179.437v4.367h-1v-3.56h-.877v-.804l1.886-.004zm.743 2.183c0-1.443.804-2.26 1.874-2.26s1.874.805 1.874 2.26-.805 2.26-1.874 2.26-1.874-.82-1.874-2.26zm2.73 0c0-.993-.35-1.403-.856-1.403s-.85.402-.85 1.403.35 1.404.85 1.404.872-.4.872-1.404h-.016z" fill="#000"/><path d="M398.47 180.394a.88.88 0 0 1-.042.37.87.87 0 0 1-.5.526.84.84 0 0 1-.367.06.94.94 0 0 1-.491-.125l.153-.3a.557.557 0 0 0 .33.088.454.454 0 0 0 .2-.03.47.47 0 0 0 .301-.484.62.62 0 0 1-.442.156.546.546 0 0 1-.227-.027.59.59 0 0 1-.198-.115.55.55 0 0 1-.135-.185.54.54 0 0 1-.05-.224.6.6 0 0 1 .056-.243.62.62 0 0 1 .15-.201.61.61 0 0 1 .217-.124.614.614 0 0 1 .248-.027c.495 0 .797.3.797.885zm-.46-.3c0-.152-.116-.265-.313-.265a.29.29 0 0 0-.11.01.24.24 0 0 0-.096.056c-.028.026-.05.056-.064.1s-.023.07-.023.108.008.076.023.1.04.066.067.1.062.044.1.055a.27.27 0 0 0 .113.009c.037.004.076 0 .112-.012a.28.28 0 0 0 .098-.055c.028-.025.052-.055.068-.1s.026-.072.027-.1zm2.075.3a.86.86 0 0 1-.042.37.87.87 0 0 1-.5.526.84.84 0 0 1-.367.06 1.003 1.003 0 0 1-.5-.125l.152-.3c.1.064.216.095.334.088a.47.47 0 0 0 .2-.03.486.486 0 0 0 .275-.284.47.47 0 0 0 .024-.2.625.625 0 0 1-.443.156.55.55 0 0 1-.227-.027.57.57 0 0 1-.198-.115.55.55 0 0 1-.135-.185.54.54 0 0 1-.05-.224.6.6 0 0 1 .057-.243.58.58 0 0 1 .15-.2.61.61 0 0 1 .217-.124.62.62 0 0 1 .25-.027c.494 0 .796.3.796.885zm-.463-.3a.298.298 0 0 0-.03-.18.3.3 0 0 0-.127-.13.297.297 0 0 0-.18-.034.3.3 0 0 0-.166.074c-.047.04-.08.095-.095.156s-.01.124.01.182a.3.3 0 0 0 .113.143.31.31 0 0 0 .174.054c.037.004.075 0 .1-.012s.07-.03.098-.055a.24.24 0 0 0 .067-.1.273.273 0 0 0 .025-.1zm.448 1.864h-3.12v.394h3.12v-.394z" class="B"/><path d="M418.027 186.922a6.064 6.064 0 1 0-4.643-11.204 6.064 6.064 0 0 0 4.642 11.204z" class="C"/><path d="M414.176 184.72c.1-.112.21-.212.334-.298l.957-.756 3.217-2.433v.17l-.03-.024-.06-.044-.117-.085-.23-.177-.45-.337-.853-.644-1.435-1.098-.957-.756a2.168 2.168 0 0 1-.334-.3c.137.06.265.14.382.233l.997.704 1.464 1.065.856.632.455.338.233.172.117.09.056.04.032.024v.17l-3.24 2.38-.997.703a1.734 1.734 0 0 1-.398.234z" class="D"/><path d="M375.8 182.3a6.063 6.063 0 1 0-11.971-1.943A6.065 6.065 0 0 0 375.8 182.3z" class="C"/><path d="M371.334 177.917c-.1.114-.21.215-.334.3l-.957.756-3.217 2.413v-.165l.032.02.056.045.117.088.233.173.45.338.852.643L370 183.63l.957.756a1.78 1.78 0 0 1 .333.298 1.83 1.83 0 0 1-.382-.234l-.997-.703-1.46-1.062-.86-.635-.45-.338-.233-.17-.116-.088-.06-.045-.028-.02v-.17l3.237-2.38.997-.704a1.83 1.83 0 0 1 .399-.221z" class="D"/><path d="M377.674 191.653H365.56v12.116h12.115v-12.116zm15.37 0h-12.116v12.116h12.116v-12.116zm15.373 0H396.3v12.116h12.116v-12.116zm15.37 0H411.67v12.116h12.116v-12.116z" class="E"/><g class="B"><path d="M357.148 209.99c-1.79 5.292-1.89 11-.287 16.36.984 3.265 2.612 6.53 2.116 9.9-.41 2.75-2.194 5.154-2.55 7.914-.714 5.608 4.615 10.92 3.187 16.387a8.706 8.706 0 0 1-1.927 3.346 8.7 8.7 0 0 1-3.185 2.183 15.88 15.88 0 0 1-7.662.967c-3.822-.33-7.958-1.742-9.726-5.225-1.4-2.716-.966-5.98-.478-8.994 2.16-13.34 4.65-26.774 10.056-39.182"/><path d="M358.847 251.22a2.8 2.8 0 0 1-.445.148c-.442.103-.896.14-1.35.114a5.135 5.135 0 0 1-2.055-.593 4.62 4.62 0 0 1-1.968-2.01 5.11 5.11 0 0 1-.392-3.396c.153-.63.43-1.222.82-1.74a7.36 7.36 0 0 1 1.454-1.437 39.666 39.666 0 0 0 3.483-2.612 6.91 6.91 0 0 0 1.933-4.031c.19-1.52.077-3.06-.33-4.537a26.23 26.23 0 0 0-1.515-4.022 33.444 33.444 0 0 1-2.612-6.835c-.398-1.62-.398-3.3 0-4.93.14-.59.383-1.153.714-1.663a10.81 10.81 0 0 0-.619 1.689 10.64 10.64 0 0 0 .07 4.86 34.01 34.01 0 0 0 2.673 6.774 26.505 26.505 0 0 1 1.55 4.058c.416 1.512.532 3.092.34 4.65a7.112 7.112 0 0 1-2.02 4.18 37.82 37.82 0 0 1-3.483 2.612 5.378 5.378 0 0 0-2.194 3.04 4.867 4.867 0 0 0 .34 3.256c.4.83 1.063 1.517 1.872 1.968a5.23 5.23 0 0 0 1.985.618 5.8 5.8 0 0 0 1.751-.157z"/></g><path d="m306.195 337.115-2.177 8.34-22.42-.21s1.645-3.927 13.93-3.744l.87-4.353 9.795-.035z" class="G"/><path d="M387.824 212.046c-.217.427-5.912 29.682-5.912 29.682l13.418.627 5.224-25.154-12.73-5.155z" class="F"/><path d="m381.9 241.73-1.532-.653 5.808-28.838 1.82-.122-6.095 29.613zm11.303-23.293a.7.7 0 0 0 .066.4.706.706 0 0 0 .278.295.7.7 0 0 0 .773-.054c.108-.084.2-.2.235-.33a.7.7 0 0 0 .01-.405.695.695 0 0 0-.217-.342.7.7 0 0 0-.37-.164.67.67 0 0 0-.27.018.67.67 0 0 0-.242.12.685.685 0 0 0-.262.463z" class="B"/><path d="m395.982 238.977.2-3.83-5.73-2.368 2.238-5.303a4.62 4.62 0 0 1 1.104-1.543 4.643 4.643 0 0 1 1.63-.97 4.63 4.63 0 0 1 1.883-.233 4.62 4.62 0 0 1 1.817.542l2.334 1.263a6.58 6.58 0 0 1 2.083 1.773 6.58 6.58 0 0 1 1.182 2.467 85.57 85.57 0 0 1 1.332 9.36" class="G"/><path d="m411.324 336.488 24.528 6.86c1.42.505 1.184 5.703-1.028 5.625-1.045 0-18.1.635-20.27.505s-8.663-2.7-8.663-2.7l5.433-10.292z" class="C"/><g class="B"><path d="M421.146 345.5c.296-.865.645-1.712 1.045-2.534.5-.755 1.065-1.48 1.663-2.168a5.22 5.22 0 0 0-2.012 1.972 5.207 5.207 0 0 0-.696 2.73zm-2.446-1.114c.113 0 .357-1.097.984-2.324s1.367-2.1 1.28-2.177a4.443 4.443 0 0 0-1.636 1.994 4.55 4.55 0 0 0-.627 2.507zm-2.318-.618c.123-.843.3-1.675.557-2.5a16.77 16.77 0 0 1 1.28-2.212 4.434 4.434 0 0 0-1.653 2.064 4.43 4.43 0 0 0-.184 2.638z"/><path d="M416.8 340.71a4.12 4.12 0 0 0 .253-1.741 8.079 8.079 0 0 0-.235-1.916 8.134 8.134 0 0 0-.35-1.097 1.276 1.276 0 0 0-.383-.575.636.636 0 0 0-.81 0c-.18.18-.292.417-.313.67a3.75 3.75 0 0 0 0 .618 4.91 4.91 0 0 0 .139 1.158c.16.632.405 1.24.732 1.802a4.91 4.91 0 0 0 1.053 1.42c.06 0-.34-.584-.8-1.55a8.23 8.23 0 0 1-.618-1.742c-.074-.355-.112-.717-.113-1.08s0-.82.218-.993a.244.244 0 0 1 .313 0 1.07 1.07 0 0 1 .261.418 10.3 10.3 0 0 1 .357 1.036 9.39 9.39 0 0 1 .305 1.846v1.724z"/><path d="M416.775 340.467a3.483 3.483 0 0 0-1.524-.244 6.74 6.74 0 0 0-1.672.21c-.338.07-.664.2-.966.357a.99.99 0 0 0-.531 1.071 1.17 1.17 0 0 0 .312.558 1.19 1.19 0 0 0 .558.313 2.16 2.16 0 0 0 1.054 0 4.005 4.005 0 0 0 1.532-.758 4.1 4.1 0 0 0 1.097-1.08 10.01 10.01 0 0 0-1.253.871 4.24 4.24 0 0 1-1.446.627 1.88 1.88 0 0 1-.87 0 .79.79 0 0 1-.574-.557.63.63 0 0 1 .068-.39.593.593 0 0 1 .3-.27 3.54 3.54 0 0 1 .87-.33 8.136 8.136 0 0 1 1.585-.278c.88-.122 1.463-.027 1.472-.096zm8.002 5.276a12.17 12.17 0 0 1 .46-2.124 11.53 11.53 0 0 1 1.158-1.846c0-.105-1.027.46-1.524 1.7a2.75 2.75 0 0 0-.295 1.13 2.73 2.73 0 0 0 .2 1.151zm-16.457 1.09a4.98 4.98 0 0 0 .871.426c.85.33 1.724.6 2.612.8 2.954.66 5.978.952 9.003.87l9.03-.288 2.734-.148c.333-.001.666-.036.992-.104a4.79 4.79 0 0 0-1.001-.044h-2.734l-9.02.174a42.166 42.166 0 0 1-8.942-.73c-2.203-.46-3.518-1.045-3.544-.966z"/><path d="M407.623 347.363a18.44 18.44 0 0 0 1.741-.793 8.252 8.252 0 0 1 4.458-.75 7.12 7.12 0 0 1 3.858 2.299c.42.492.875.954 1.358 1.385a7.512 7.512 0 0 0-1.15-1.576 9.533 9.533 0 0 0-1.568-1.463 5.52 5.52 0 0 0-2.438-1.028c-1.6-.2-3.222.104-4.64.87a6.28 6.28 0 0 0-1.62 1.054z"/></g><path d="m386.3 329.983-23.152 15.21c-1.2.87.183 5.225 2.264 4.484.984-.357 19.704-5.563 21.716-6.347s7.435-5.224 7.435-5.224l-8.263-8.124z" class="C"/><g class="B"><path d="M379.7 341.538a4.27 4.27 0 0 0-1.498-2.386 4.14 4.14 0 0 0-2.507-1.271c.78.472 1.53.992 2.246 1.558a24.64 24.64 0 0 1 1.759 2.099zm1.987-1.81a5.87 5.87 0 0 0-1.34-2.188 5.89 5.89 0 0 0-2.143-1.408c-.06.095.923.687 1.88 1.68s1.497 1.968 1.602 1.916zm2.01-1.29a4.42 4.42 0 0 0-.976-2.456 4.43 4.43 0 0 0-2.202-1.462 15.97 15.97 0 0 1 1.889 1.742c.484.7.915 1.42 1.3 2.176z"/><path d="M382.364 335.66c.052 0-.252-.627-.505-1.663a9.082 9.082 0 0 1-.26-1.855 9.56 9.56 0 0 1 0-1.097c.006-.164.047-.324.122-.47a.227.227 0 0 1 .305-.07c.26.105.392.53.513.87a5.2 5.2 0 0 1 .218 1.053 7.602 7.602 0 0 1-.06 1.864l-.305 1.74a4.79 4.79 0 0 0 .584-1.68 7.013 7.013 0 0 0 .14-1.933c-.03-.4-.1-.775-.21-1.15a5.75 5.75 0 0 0-.218-.583 1.07 1.07 0 0 0-.505-.54.637.637 0 0 0-.784.209 1.36 1.36 0 0 0-.183.67 8.487 8.487 0 0 0 0 1.15 8.24 8.24 0 0 0 .357 1.898c.143.58.414 1.122.792 1.585z"/><path d="M382.303 335.425c0 .06.557-.2 1.454-.426a8.01 8.01 0 0 1 1.602-.218 3.26 3.26 0 0 1 .914.06.6.6 0 0 1 .531.522.79.79 0 0 1-.092.404.795.795 0 0 1-.282.302 1.87 1.87 0 0 1-.871.278 4.304 4.304 0 0 1-1.576-.156 9.54 9.54 0 0 0-1.454-.436 4.04 4.04 0 0 0 1.376.697 3.979 3.979 0 0 0 1.7.252 2.19 2.19 0 0 0 1.01-.313c.177-.113.322-.27.418-.457a1.18 1.18 0 0 0 .131-.605.99.99 0 0 0-.284-.587 1 1 0 0 0-.587-.284 3.79 3.79 0 0 0-1.02-.052 6.93 6.93 0 0 0-1.663.313c-.478.14-.92.38-1.297.705zm-14.02 13.435s.375-.227.55-.87a3.31 3.31 0 0 0-.418-2.421 9.15 9.15 0 0 0-.749-1.114 4.04 4.04 0 0 0-.757-.81 1.32 1.32 0 0 0-.714-.305c-.183 0-.28 0-.28.06a2.13 2.13 0 0 1 .81.453 5.74 5.74 0 0 1 .644.8l.697 1.097a3.43 3.43 0 0 1 .487 2.177c-.073.312-.163.62-.27.923z"/><path d="M376.294 342.88a3.365 3.365 0 0 0-.782-2.142 3.36 3.36 0 0 0-1.969-1.149c.595.416 1.152.885 1.663 1.4.415.598.78 1.23 1.088 1.9zm16.006-3.963a7.655 7.655 0 0 0-.975.67 27.77 27.77 0 0 1-2.751 1.689 35.52 35.52 0 0 1-4.354 1.942l-5.6 1.8-10.265 2.995-3.1.958a6.98 6.98 0 0 0-1.114.401 7.86 7.86 0 0 0 1.158-.253l3.134-.87 10.3-2.9 5.608-1.846a33.144 33.144 0 0 0 4.353-2.038 21.694 21.694 0 0 0 2.708-1.802 5.59 5.59 0 0 0 .888-.766z"/><path d="M393.125 339.222a6.112 6.112 0 0 0-1.89-.505 7.75 7.75 0 0 0-4.685.574 5.53 5.53 0 0 0-2.011 1.742 9.57 9.57 0 0 0-1.045 1.863 7.166 7.166 0 0 0-.618 1.855c.33-.56.62-1.142.87-1.742a7.057 7.057 0 0 1 2.978-3.36 8.185 8.185 0 0 1 4.475-.644l1.924.218z"/></g><g class="C"><path d="m332.787 242.94 18.285 1.74 7.436 2.107a20.248 20.248 0 0 1 8.463 4.85l23.953 22.996 4.354-35.7 11.972 1.036-2.003 45.973a13.68 13.68 0 0 1-4.972 6.902 13.684 13.684 0 0 1-8.088 2.632 14.17 14.17 0 0 1-9.639-3.961l-17.057-16.04-.505 22.917 11.833 9.578-45.634 25.425s-2.473-9.717-1.35-31.346c.21-3.97-7.07-16.02-7.627-19.565-2.134-13.626-1.803-33.557-1.803-33.557l12.382-6z"/><path d="M321.546 248.494s-9.256 3.44-11.494 10.684c-1.985 6.434-8.61 42.586-8.61 42.586l-6.574 38.31 13.766.523 15.838-65.216-2.925-26.888z"/></g><path d="M320.928 290.758a3.43 3.43 0 0 0 .278-.775l.6-2.16 1.74-7.2 1.5-7.26.375-2.212a3.33 3.33 0 0 0 .078-.827 3.846 3.846 0 0 0-.235.8l-.496 2.185-1.594 7.227-1.654 7.218-.488 2.195c-.065.265-.1.536-.104.8zm84.232-47.384a4.38 4.38 0 0 0 .357-1.803 4.7 4.7 0 0 0 0-1.846 4.34 4.34 0 0 0-.357 1.812 4.62 4.62 0 0 0 0 1.837zm-3.5.104a4.75 4.75 0 0 0 .296-1.915 5.1 5.1 0 0 0-.096-1.942 4.78 4.78 0 0 0-.296 1.924c-.094.645-.06 1.3.096 1.933zm-3.475-.218c.225-.7.33-1.415.313-2.142a5.83 5.83 0 0 0-.078-2.159 6.03 6.03 0 0 0-.313 2.142 5.83 5.83 0 0 0 .078 2.159zm-6.73 36.84a12.91 12.91 0 0 0-.131-3.16c-.042-1.06-.217-2.1-.522-3.126a12.87 12.87 0 0 0 .13 3.161c.038 1.06.214 2.1.523 3.125zm-85.084 56.475a4.914 4.914 0 0 0-.532 1.915 5.154 5.154 0 0 0-.148 1.985 4.91 4.91 0 0 0 .531-1.915c.178-.646.23-1.32.15-1.985zm-4.528-.01a4.437 4.437 0 0 0-.488 1.742 4.3 4.3 0 0 0-.104 1.802 4.12 4.12 0 0 0 .496-1.74 4.42 4.42 0 0 0 .096-1.803zm-4.294-.436a6.44 6.44 0 0 0-.453 1.967 6.665 6.665 0 0 0-.218 2.003 4.21 4.21 0 0 0 .6-1.933 4.61 4.61 0 0 0 .061-2.037zm16.57-83.178c0 .078.958 0 2.447.33 1.935.4 3.734 1.3 5.224 2.612s2.616 2.988 3.283 4.858c.513 1.437.583 2.395.653 2.386a1.89 1.89 0 0 0 0-.679 9.73 9.73 0 0 0-.383-1.794 11.12 11.12 0 0 0-3.283-5.067 11.25 11.25 0 0 0-5.46-2.612 9.58 9.58 0 0 0-1.829-.131 2.33 2.33 0 0 0-.653.096zm49.43 32.294c-.078 0 .357-1.132.793-2.97a25.96 25.96 0 0 0-.775-14.54l-1.106-2.864s.192.235.453.696a17.61 17.61 0 0 1 .949 2.055 23.38 23.38 0 0 1 .784 14.732 15.54 15.54 0 0 1-.732 2.142c-.088.265-.2.517-.366.75zm1.17 12.634c-.26.05-.527.07-.793.053-.505 0-1.245 0-2.15-.096a36.86 36.86 0 0 1-13.627-3.901l-1.88-1.062a2.72 2.72 0 0 1-.644-.462c0-.06 1.02.48 2.664 1.237a45.02 45.02 0 0 0 13.523 3.866 28.73 28.73 0 0 1 2.908.365z" class="B"/><g fill="#000"><path opacity=".04" d="M344.514 291.507c1.427 1.3 3.656 1.472 5.572 1.437l5.755-.383a7.13 7.13 0 0 1 2.814.455c.898.34 1.718.857 2.4 1.52a2.61 2.61 0 0 1 .748 1.576 1.41 1.41 0 0 1-.208.842 1.42 1.42 0 0 1-.662.56 2.24 2.24 0 0 1-1.097 0c-5.4-1.115-11.18-2.377-15.35-5.964m-17.614 1.663c1.42-.4 1.646-2.072 1.742-3.543a32.1 32.1 0 0 0-3.422-17.667c-.67 3.996-1.785 8.167-2.612 12.242l4.292 8.968z"/><path opacity=".1" d="M390.55 274.145a7.84 7.84 0 0 0-1.586 3.224 7.82 7.82 0 0 0 .02 3.594c.096.39.27.818.653.93a.87.87 0 0 0 .484-.039.867.867 0 0 0 .387-.292c.18-.26.306-.558.366-.87a13.94 13.94 0 0 0-.122-6.731"/></g><g class="B"><path d="m414.006 336.244-56.953-36.666c-2.237-.75-7.653-4.292-13.06-2.803s-10.266 6.356-12.695 13.443-2.612 22.97-2.612 22.97 4.292 12.512 12.694 15.124c.72.22 1.448.405 2.186.548a25.84 25.84 0 0 0 14.95-1.687 25.853 25.853 0 0 0 11.476-9.728l1.228-1.863 36.352 12.965 6.434-12.303z"/><path d="M432.666 294.354c1.98.8 3.678 2.153 4.876 3.916s1.84 3.844 1.845 5.976c.053 14.375-29.046 30.257-29.046 30.257l-38.73-25.67v-2.716s49.875-17.928 61.055-11.764z"/></g><g class="F"><path d="m346.31 326.335.304.14.87.357 3.483 1.332 12.895 4.858 19.39 7.15 24.232 8.56.156.052.08-.148 6.54-12.486-.157-.095-41.724-26.496-12.54-7.906-3.404-2.125-.87-.548-.305-.174.288.21.87.574 3.37 2.186 12.47 8 41.672 26.6-.07-.252-2.177 4.162-4.3 8.14.235-.096-24.232-8.524-19.425-7.053-12.93-4.736-4.354-1.594-.365-.096z"/><path d="M391.23 321.773c.353-.204.7-.434 1-.688l2.612-1.994a224.6 224.6 0 0 0 8.48-6.966 250.206 250.206 0 0 0 8.133-7.34l2.377-2.316a6.22 6.22 0 0 0 .87-.87c-.33.237-.642.5-.932.784l-2.464 2.22-8.194 7.236-8.402 7.018-2.612 2.1a7.39 7.39 0 0 0-.879.827zm30.508-22.046a7.6 7.6 0 0 0-3.735.339 7.6 7.6 0 0 0-3.317 1.742c.06.104 1.47-.8 3.43-1.367s3.622-.592 3.622-.714z"/><path d="M418.395 297.463a5.9 5.9 0 0 0-3.483 4.354c.113 0 .54-1.175 1.515-2.368s2.038-1.9 1.968-1.985z"/></g><path d="M434.8 342.983c0-.044-.46-.14-1 .305a3.6 3.6 0 0 0-1.115 2.246 4.41 4.41 0 0 0 .349 2.482c.278.583.574.87.6.87s-.157-.365-.348-.94a4.935 4.935 0 0 1-.218-2.325 3.89 3.89 0 0 1 .914-2.098c.4-.462.82-.48.8-.54zM322.667 214.85a5.46 5.46 0 0 0-1.88-1.2 5.49 5.49 0 0 0-2.201-.357 5.52 5.52 0 0 0-2.162.546 5.49 5.49 0 0 0-1.768 1.36 9.37 9.37 0 0 0-1.846 4.858 23.4 23.4 0 0 1-1.019 5.155 5.29 5.29 0 0 1-3.657 3.483c-1.306.244-2.856-.157-3.857.714a2.507 2.507 0 0 0-.658 1.52 2.5 2.5 0 0 0 .432 1.598c.677.92 1.6 1.62 2.68 2 .4.183.87.444.87.87 0 .583-.75.792-1.288 1.02-1.62.688-2.1 2.995-1.185 4.5a5.23 5.23 0 0 0 4.519 2.255c1.762-.093 3.494-.5 5.12-1.175a1.98 1.98 0 0 0-.052 2.525 2.73 2.73 0 0 0 2.473.923 4.46 4.46 0 0 0 2.403-1.245 8.58 8.58 0 0 0 2.36-4.746c.275-1.776.38-3.575.314-5.372a144.1 144.1 0 0 1 1.367-19.156" class="B"/><path d="M341.163 202.486a13.24 13.24 0 0 1 8.958 4.081 13.246 13.246 0 0 1 3.667 9.136c0 5.477-.08 11.432-.427 14.967-.8 8.22-6.966 9.622-6.966 9.622l.47 9.952c.26 4.615-3.483 8.707-8.464 9.073-4.884.392-9.072-2.952-9.403-7.523l-1.655-35.464c-.085-1.84.214-3.678.88-5.396a13.24 13.24 0 0 1 2.983-4.58 13.24 13.24 0 0 1 4.58-2.986 13.23 13.23 0 0 1 5.395-.882h-.017z" class="G"/><path d="M351.915 219.3a1.06 1.06 0 0 1-.04.412 1.05 1.05 0 0 1-.197.365 1.04 1.04 0 0 1-.323.259 1.05 1.05 0 0 1-.398.114.993.993 0 0 1-1.133-.872 1.04 1.04 0 0 1 .247-.75 1.05 1.05 0 0 1 .702-.364.99.99 0 0 1 .391.015.98.98 0 0 1 .354.165c.106.078.196.176.264.288a1.01 1.01 0 0 1 .132.368zm-.027-1.63c-.12.148-.95-.392-2.072-.323s-1.907.68-2.037.55.052-.305.4-.592a2.87 2.87 0 0 1 1.63-.6 2.88 2.88 0 0 1 1.663.427c.365.252.487.488.426.55zm-11.674 2.24a1.05 1.05 0 0 1-.247.746c-.175.207-.424.34-.694.368a1.01 1.01 0 0 1-.394-.024 1 1 0 0 1-.354-.174.99.99 0 0 1-.26-.298 1.012 1.012 0 0 1-.124-.375 1.04 1.04 0 0 1 .244-.748c.176-.208.426-.34.697-.366a1.01 1.01 0 0 1 .394.024 1 1 0 0 1 .354.174.99.99 0 0 1 .26.298c.065.115.108.243.124.375zm-.027-1.133c-.122.148-.94-.392-2.063-.322s-1.916.68-2.047.548.053-.313.4-.592a2.83 2.83 0 0 1 1.619-.609 2.78 2.78 0 0 1 1.664.426c.357.244.487.47.426.55zm4.58 8.097a7.145 7.145 0 0 1 1.803-.444c.287-.044.548-.113.592-.314a1.53 1.53 0 0 0-.244-.87l-.975-2.134a37.34 37.34 0 0 1-2.247-5.598 39.629 39.629 0 0 1 2.7 5.407l.94 2.15c.203.334.28.73.218 1.115a.73.73 0 0 1-.176.277.76.76 0 0 1-.277.176 2.23 2.23 0 0 1-.48.095 7.884 7.884 0 0 1-1.846.14z"/><path d="M346.404 240.3a22.3 22.3 0 0 1-11.119-2.447s3.04 5.85 11.224 4.79l-.105-2.342z" fill="#995037"/><g class="B"><path d="M336.486 215.65c.13.2.95-.14 1.968-.366s1.906-.28 1.94-.514-.923-.574-2.124-.304-1.924 1-1.785 1.184zm11.128-2.02c.052.227.975.2 2.08.218s2.03.06 2.1-.165-.87-.67-2.08-.68-2.15.4-2.1.626z"/><path d="M329.417 247.536c-.078-1.69 1.81-9.02 2.57-13.522s-2.195-5.224-2.665-7.89a9.153 9.153 0 0 1 .87-5.18c4.3 1.54 6-1.524 8.35-3.335 2.5-1.933 3.04-4.3 4.058-7.288s2.21-4.84 5.354-5.137a9.333 9.333 0 0 1 4.18 4.797c.958 2.795 1.74 13.697 1.74 13.697.436-5.225 4.676-7.42 3.527-15.116-.497-3.317-3.248-7.836-7.497-8.515-1.237-.2-3.57-.35-3.57-.35-2.534-2.28-3.77-2.21-6.2-3.29-5.224-2.325-11.545 1.83-15.02 6.382-2.682 3.483-3.98 8.246-4.71 12.704a36.906 36.906 0 0 0-.2 9.35c.174 1.855-.052 4.206-1.88 5.634-2.612 2.03-3.29 5.895-1.49 11.05s-4.84 13.932-4.84 13.932a40.798 40.798 0 0 1 5.92-4.014c2.673-1.402 11.502-3.9 11.502-3.9z"/></g><path d="M343.408 229.556a1.69 1.69 0 0 0-1.55-.514 1.57 1.57 0 0 0-.575.225 1.56 1.56 0 0 0-.444.428.98.98 0 0 0-.173.557c0 .2.06.394.173.558a1.14 1.14 0 0 0 1.245.217 3.685 3.685 0 0 0 1.14-.8.98.98 0 0 0 .244-.296.314.314 0 0 0 0-.348" fill="#995037"/><path d="M340.944 228.128c.148 0 .226.992 1.15 1.645s1.986.462 2.003.6-.226.218-.68.26a2.506 2.506 0 0 1-1.672-.444 2.22 2.22 0 0 1-.871-1.384c-.095-.418 0-.68.07-.68zm-35.514-2.298a8.25 8.25 0 0 0 .087 1.132c.074.435.218.856.427 1.245a2.86 2.86 0 0 0 1.219 1.184c.307.16.645.252 1 .27a2.36 2.36 0 0 0 1.01-.173 2.55 2.55 0 0 0 1.341-1.846c.167-.886.214-1.8.14-2.7l-.087-2.935a11.73 11.73 0 0 1 1.097-5.58 5.526 5.526 0 0 1 1.417-1.874 5.54 5.54 0 0 1 2.065-1.12 4.43 4.43 0 0 1 3.1.244 2.75 2.75 0 0 1 .871.696 7.47 7.47 0 0 0-.958-.601 4.447 4.447 0 0 0-3.013-.148 5.543 5.543 0 0 0-1.962 1.1 5.41 5.41 0 0 0-1.338 1.815 11.68 11.68 0 0 0-1.044 5.451l.087 2.934c.07.923.013 1.852-.166 2.76a2.777 2.777 0 0 1-.513 1.174 2.79 2.79 0 0 1-.984.82 2.63 2.63 0 0 1-1.103.173 2.61 2.61 0 0 1-1.074-.304c-.544-.3-.985-.74-1.263-1.288a3.895 3.895 0 0 1-.4-1.298 3.45 3.45 0 0 1 .052-1.15z" class="B"/><path d="M317.436 243.487a2.11 2.11 0 0 1-.435-.409 3.426 3.426 0 0 1-.636-1.61 4.732 4.732 0 0 1 .47-2.7 10.324 10.324 0 0 1 2.264-2.847 19.214 19.214 0 0 0 2.96-3.204 7.53 7.53 0 0 0 1.037-4.789 50.283 50.283 0 0 1-.418-5.564 7.31 7.31 0 0 1 .679-2.908 5.216 5.216 0 0 1 2.124-2.212c1.83-1.036 3.875-1.323 5.547-2.246a9.04 9.04 0 0 0 3.587-4.049l2.116-4.58a9.904 9.904 0 0 1 2.743-3.483 5.353 5.353 0 0 1 3.42-1.167c.934.052 1.824.4 2.534 1.02a3.17 3.17 0 0 1 .975 1.428 1.59 1.59 0 0 1 .105.435v.157s0-.21-.174-.575a3.19 3.19 0 0 0-.993-1.367 4.22 4.22 0 0 0-2.473-.949 5.23 5.23 0 0 0-3.291 1.176 9.62 9.62 0 0 0-2.664 3.396l-2.1 4.588a9.26 9.26 0 0 1-3.683 4.171c-1.74.958-3.77 1.236-5.53 2.246a4.833 4.833 0 0 0-2.02 2.1 7.28 7.28 0 0 0-.662 2.795 51.27 51.27 0 0 0 .41 5.537 7.76 7.76 0 0 1-1.063 4.911 19.29 19.29 0 0 1-3.021 3.222 10.37 10.37 0 0 0-2.255 2.777 4.71 4.71 0 0 0-.505 2.613 3.37 3.37 0 0 0 .949 2.089z" class="F"/><path d="M319.612 218.777a4.18 4.18 0 0 1-.314-2.648 4.17 4.17 0 0 1 1.35-2.298 18.92 18.92 0 0 0-.871 2.394 17.43 17.43 0 0 0-.165 2.552z" class="D"/><g class="B"><path d="M322.442 243.897a19.468 19.468 0 0 0 2.542 12.6 9.9 9.9 0 0 0 3.109 3.431 5.14 5.14 0 0 0 2.16.834c.775.1 1.564.042 2.307-.2a3.48 3.48 0 0 0 1.787-1.423c.42-.662.602-1.446.52-2.225-.35-2.177-3.03-3.544-3.048-5.755.975.592 2.3 1.158 3.152.4.262-.284.432-.64.5-1.022a1.92 1.92 0 0 0-.167-1.12 8.578 8.578 0 0 0-1.323-1.9 11.84 11.84 0 0 1-2.108-4.264 11.824 11.824 0 0 1-.26-4.748 59.94 59.94 0 0 0 .383-4.493c.018-.888-.244 0-.87-.583a2.77 2.77 0 0 0-2.49-.462 5.283 5.283 0 0 0-2.203 1.385 10.2 10.2 0 0 0-2.338 3.543 10.19 10.19 0 0 0-.692 4.188m100.32-165.14a9.35 9.35 0 0 1-1.447.074l-3.654.04v-.096l-.083-.6-.556-4.275.07.06a7.79 7.79 0 0 1-1.304-.074 8.36 8.36 0 0 1 1.304-.07h.06v.06l.634 4.267.082.587-.108-.096 3.554.04c.483-.013.967.012 1.447.074z"/><path d="M418.565 75.914c.127-.023.257-.035.387-.035l1.068-.03 3.694-.04-.1.087.348-2 .186-1.043.1.13c-1.738 0-3.254 0-4.345-.04l-1.303-.03a1.727 1.727 0 0 1-.465-.043 2.27 2.27 0 0 1 .465-.04l1.303-.035 4.48-.035v.13l-.183 1.043-.356 2v.1h-.1c-1.5 0-2.777 0-3.693-.04l-1.07-.03a1.56 1.56 0 0 1-.426-.043zm1.395 2.398c-.035 0-.035-.195-.243-.334a.424.424 0 0 0-.2-.066.43.43 0 0 0-.2.027.394.394 0 0 0-.183.147.4.4 0 0 0 0 .449.394.394 0 0 0 .183.147.43.43 0 0 0 .2.027.44.44 0 0 0 .19-.066c.208-.135.208-.34.243-.33s.035.044.03.13a.52.52 0 0 1-.178.33.58.58 0 0 1-.556.104.6.6 0 0 1-.403-.567c0-.125.04-.247.1-.348a.6.6 0 0 1 .293-.219.58.58 0 0 1 .556.104.51.51 0 0 1 .178.33c.005.087-.013.135-.03.135zm3.22 0c-.035 0-.035-.195-.244-.334a.42.42 0 0 0-.19-.066.44.44 0 0 0-.2.027.4.4 0 0 0 0 .742.43.43 0 0 0 .2.027.44.44 0 0 0 .19-.066c.2-.135.2-.34.244-.33s.034.044.03.13a.52.52 0 0 1-.178.33.58.58 0 0 1-.265.125.643.643 0 0 1-.3-.02.6.6 0 0 1-.296-.216.594.594 0 0 1 .001-.7.6.6 0 0 1 .295-.219.55.55 0 0 1 .29-.02.58.58 0 0 1 .265.125.52.52 0 0 1 .178.33c.004.087-.013.135-.03.135zm-50.797-.83a41.52 41.52 0 0 1-4.306.113 41.53 41.53 0 0 1-4.306-.113 40.21 40.21 0 0 1 4.306-.113 40.25 40.25 0 0 1 4.306.113zm0-1.63a40.25 40.25 0 0 1-4.306.113c-1.436.04-2.873.002-4.306-.113a41.64 41.64 0 0 1 4.306-.113 41.68 41.68 0 0 1 4.306.113zm0-1.643a41.68 41.68 0 0 1-4.306.113 41.53 41.53 0 0 1-4.306-.113 41.53 41.53 0 0 1 4.306-.113 41.514 41.514 0 0 1 4.306.113z"/></g><path d="M386.735 100.628s-5.778-.078-7.052 1.812-6.517 13.652-6.517 13.652l8.2 4.266 1.764-5.04 2.876 10.537c-3.293 2.607-7.96 26.343-7.03 36.34l30.797.1s.213-27.738-8.116-36.858l1.95-11.015 1.88 5.375 8.7-3.606-6.54-11.762a6.33 6.33 0 0 0-2.31-2.372 6.343 6.343 0 0 0-3.19-.883h-2.133s-.9 7.873-6.622 7.72-6.648-8.268-6.648-8.268z" class="C"/><g class="B"><path d="M401.812 125.48c0 .065-3.476.2-7.82.304l-7.82.08c0-.06 3.476-.2 7.82-.305l7.82-.078zm-21.262-17.3c.553 1.25 1.04 2.53 1.455 3.832a39.41 39.41 0 0 1 1.243 3.9 36 36 0 0 1-1.456-3.836 36.385 36.385 0 0 1-1.242-3.906z"/><path d="M404.427 108.714a6.63 6.63 0 0 1-.082 1.251l-.4 3-.547 2.972a6.5 6.5 0 0 1-.313 1.212c.014-.418.066-.834.157-1.243l.482-2.976.473-2.976a6.77 6.77 0 0 1 .24-1.23zm-16.567 22.298a2.27 2.27 0 0 1-.169-.825 6.42 6.42 0 0 1 .965-3.91c.135-.25.316-.47.534-.65a8.64 8.64 0 0 0-1.33 5.379v.008zm2.34-2.432a2.7 2.7 0 0 1-.243-1.408 2.76 2.76 0 0 1 .282-1.403c.007.47-.012.94-.056 1.408l.017 1.403zm13.497 26.447a1.12 1.12 0 0 1-.26-.109c-.165-.087-.435-.2-.722-.373a13.27 13.27 0 0 1-2.415-1.764 16.827 16.827 0 0 1-2.838-3.402 21.73 21.73 0 0 1-2.302-4.915c-1.178-3.684-1.452-7.2-1.617-9.702l-.13-2.98v-.808a1.11 1.11 0 0 1 0-.282 2.01 2.01 0 0 1 .035.278c0 .2.034.478.056.808l.204 2.972c.205 2.498.504 5.992 1.673 9.646a22.087 22.087 0 0 0 2.264 4.87 17.125 17.125 0 0 0 2.768 3.397 14.38 14.38 0 0 0 2.35 1.804l.934.56zm7.096-66.257c0 .06-7.343.113-16.394.113s-16.393-.052-16.393-.113 7.338-.113 16.393-.113l16.394.113z"/></g><path d="M406.326 84.226h-24.428v1.4h24.428v-1.4z" class="C"/><path d="M284.97 48.17c0 .1-10.172.156-22.708.156s-22.708-.066-22.708-.156 10.165-.157 22.708-.157l22.708.157zm.495 7.385c0 .1-10.17.157-22.708.157s-22.708-.066-22.708-.157 10.165-.156 22.708-.156l22.708.156zm0 7.387c0 .1-10.17.157-22.708.157s-22.708-.066-22.708-.157 10.165-.157 22.708-.157l22.708.157zm-.495-11.024c0 .084-10.172.156-22.708.156s-22.708-.072-22.708-.156 10.165-.157 22.708-.157l22.708.157zm.495 7.387c0 .084-10.17.157-22.708.157s-22.708-.072-22.708-.157 10.165-.156 22.708-.156l22.708.156zm0 7.385c0 .084-10.17.156-22.708.156s-22.708-.072-22.708-.156 10.165-.156 22.708-.156l22.708.156z" class="B"/><path d="M245.07 77.65v5.216h-1.206v-4.25h-1.047v-.96l2.253-.005zm.9 2.607c0-1.724.96-2.7 2.238-2.7s2.24.96 2.24 2.7-.96 2.7-2.24 2.7-2.238-.98-2.238-2.7zm3.26 0c0-1.186-.418-1.676-1.023-1.676s-1.013.48-1.013 1.676.418 1.676 1.013 1.676 1.043-.5 1.043-1.676h-.02z" fill="#000"/><path d="M253.784 78.793a1.03 1.03 0 0 1-.049.441 1.05 1.05 0 0 1-.23.38 1.04 1.04 0 0 1-.368.249c-.14.055-.3.08-.438.072a1.107 1.107 0 0 1-.586-.15l.182-.36a.66.66 0 0 0 .394.106.56.56 0 0 0 .24-.035.564.564 0 0 0 .203-.133.55.55 0 0 0 .158-.447.74.74 0 0 1-.53.187.67.67 0 0 1-.271-.032.68.68 0 0 1-.237-.138.65.65 0 0 1-.16-.22.663.663 0 0 1-.06-.267.71.71 0 0 1 .068-.29.73.73 0 0 1 .734-.42c.6 0 .95.37.95 1.057zm-.547-.37c0-.183-.14-.317-.375-.317a.3.3 0 0 0-.13.014.34.34 0 0 0-.115.066.32.32 0 0 0-.078.107.334.334 0 0 0 .001.262.3.3 0 0 0 .08.11.32.32 0 0 0 .253.076c.045.005.1 0 .134-.014a.33.33 0 0 0 .117-.066.34.34 0 0 0 .082-.107c.02-.04.03-.085.032-.13zm2.477.37a1.02 1.02 0 0 1-.05.441 1.03 1.03 0 0 1-.23.38c-.104.1-.228.194-.367.25a1.03 1.03 0 0 1-.438.072 1.11 1.11 0 0 1-.586-.149l.182-.36a.663.663 0 0 0 .4.106.56.56 0 0 0 .238-.037.57.57 0 0 0 .202-.133c.056-.058.1-.13.126-.205a.56.56 0 0 0 .029-.24.737.737 0 0 1-.528.187.68.68 0 0 1-.508-.17.69.69 0 0 1-.162-.221.68.68 0 0 1-.06-.267.73.73 0 0 1 .246-.531.715.715 0 0 1 .26-.148.73.73 0 0 1 .297-.032c.6 0 .95.37.95 1.057zm-.552-.37a.362.362 0 0 0-.037-.215.37.37 0 0 0-.153-.155c-.066-.035-.14-.05-.214-.04s-.143.04-.2.1-.096.114-.113.186a.36.36 0 0 0 .013.218c.026.07.073.13.134.17s.134.064.208.064a.33.33 0 0 0 .134-.014.327.327 0 0 0 .226-.303zm.534 2.237h-3.727v.47h3.727v-.47z" class="B"/><path d="M221.983 72.77a4.064 4.064 0 1 0-3.11-7.51 4.064 4.064 0 0 0 3.11 7.51z" class="C"/><path d="M219.402 71.296a1.33 1.33 0 0 1 .224-.2l.64-.506 2.156-1.63v.113l-.02-.016-.04-.03-.078-.057-.153-.12-.302-.226-.57-.43-.962-.736-.64-.507a1.435 1.435 0 0 1-.224-.202 1.15 1.15 0 0 1 .256.156l.668.472.98.714.574.423.304.226.157.116.078.06.037.027.022.016v.113l-2.172 1.595-.668.472c-.08.064-.17.116-.267.156z" class="D"/><path d="M156.53 70.03a4.13 4.13 0 0 0-3.414-4.737 4.13 4.13 0 0 0-4.737 3.414 4.13 4.13 0 0 0 3.414 4.737 4.13 4.13 0 0 0 4.737-3.414z" class="C"/><path d="M153.494 67.046a1.3 1.3 0 0 1-.227.205l-.652.515-2.2 1.643v-.112l.022.014.038.03.08.06.16.118.307.23.58.438.975.75.65.515a1.21 1.21 0 0 1 .228.203 1.22 1.22 0 0 1-.26-.16l-.68-.48-.994-.723-.586-.433-.307-.23-.16-.115-.08-.06-.04-.03-.02-.014v-.115l2.204-1.62.68-.48a1.26 1.26 0 0 1 .271-.15z" class="D"/><path d="M167.275 116.908h-14.472v14.472h14.472v-14.472zm18.357 0H171.16v14.472h14.472v-14.472zm18.363 0h-14.472v14.472h14.472v-14.472zm18.358 0H207.88v14.472h14.472v-14.472z" class="E"/><g class="B"><path d="M306.454 17.86c-.48.062-.963.087-1.447.074l-3.654.04v-.096l-.082-.59-.557-4.275.07.06a7.792 7.792 0 0 1-1.304-.074 8.26 8.26 0 0 1 1.304-.07h.06V13l.634 4.267.083.587-.11-.096 3.554.04a9.33 9.33 0 0 1 1.447.074z"/><path d="M301.305 16.822a2.12 2.12 0 0 1 .387-.035l1.07-.03 3.693-.04-.1.087.348-2 .187-1.043.108.13c-1.738 0-3.254 0-4.345-.04l-1.303-.03a1.74 1.74 0 0 1-.465-.043 2.27 2.27 0 0 1 .465-.04l1.303-.035 4.48-.035v.13l-.182 1.043-.357 2v.1h-.1c-1.5 0-2.776 0-3.693-.04l-1.07-.03a1.53 1.53 0 0 1-.426-.044zm1.395 2.398c-.034 0-.034-.196-.243-.335a.424.424 0 0 0-.2-.066.44.44 0 0 0-.2.027.4.4 0 0 0-.183.596.4.4 0 0 0 .183.147.427.427 0 0 0 .2.027.44.44 0 0 0 .19-.066c.2-.135.2-.34.243-.33s.035.043.03.13a.526.526 0 0 1-.178.33.57.57 0 0 1-.265.125.58.58 0 0 1-.292-.021.6.6 0 0 1-.403-.567c0-.125.04-.247.1-.348a.6.6 0 0 1 .293-.219.58.58 0 0 1 .557.104.53.53 0 0 1 .178.33c.004.087-.013.135-.03.135zm3.22 0c-.035 0-.035-.196-.243-.335a.424.424 0 0 0-.2-.066.44.44 0 0 0-.2.027.4.4 0 0 0 0 .744.43.43 0 0 0 .2.027.44.44 0 0 0 .19-.066c.208-.135.208-.34.243-.33s.035.043.03.13a.52.52 0 0 1-.178.33.58.58 0 0 1-.556.104.59.59 0 0 1-.408-.565.6.6 0 0 1 .408-.569.58.58 0 0 1 .556.104.51.51 0 0 1 .178.33c.005.087-.013.135-.03.135zM162.8 18.4a41.64 41.64 0 0 1-4.305.113 41.6 41.6 0 0 1-4.306-.113 40.176 40.176 0 0 1 4.306-.113 39.9 39.9 0 0 1 4.305.113zm0-1.63c-1.432.115-2.87.152-4.305.113a39.91 39.91 0 0 1-4.306-.113 41.52 41.52 0 0 1 4.306-.113 41.67 41.67 0 0 1 4.305.113zm0-1.64a41.64 41.64 0 0 1-4.305.113 41.6 41.6 0 0 1-4.306-.113 41.52 41.52 0 0 1 4.306-.113 41.67 41.67 0 0 1 4.305.113z"/></g><path d="M177.144 36.92s-5.78-.078-7.052 1.812-6.518 13.652-6.518 13.652l8.2 4.267 1.764-5.04 2.877 10.537c-3.294 2.607-7.96 26.344-7.03 36.34l30.797.1s.213-27.738-8.116-36.858l1.95-11.015 1.88 5.375 8.7-3.606-6.54-11.762a6.33 6.33 0 0 0-2.31-2.372 6.34 6.34 0 0 0-3.19-.883h-2.133s-.9 7.873-6.622 7.72-6.647-8.268-6.647-8.268z" class="C"/><g class="B"><path d="M192.22 61.006c0 .065-3.476.2-7.82.304l-7.82.078c0-.06 3.476-.2 7.82-.304l7.82-.078zm-21.26-17.302a38.52 38.52 0 0 1 1.456 3.832 39.04 39.04 0 0 1 1.242 3.91 35.633 35.633 0 0 1-1.455-3.837 36.39 36.39 0 0 1-1.243-3.906z"/><path d="M194.836 44.24c.012.42-.016.838-.083 1.25l-.408 3-.548 2.972a6.48 6.48 0 0 1-.313 1.212 6.75 6.75 0 0 1 .157-1.243l.482-2.976.474-2.976a6.86 6.86 0 0 1 .239-1.23zM178.27 66.537a2.25 2.25 0 0 1-.17-.826 6.42 6.42 0 0 1 .965-3.91c.135-.25.316-.47.534-.652a8.588 8.588 0 0 0-1.33 5.38v.01zm2.34-2.433a2.72 2.72 0 0 1-.243-1.408 2.76 2.76 0 0 1 .282-1.403 12.49 12.49 0 0 1-.056 1.408l.017 1.403zm13.496 30.448a1.11 1.11 0 0 1-.261-.109c-.165-.087-.435-.2-.72-.374a13.24 13.24 0 0 1-2.416-1.764 16.79 16.79 0 0 1-2.837-3.402 21.726 21.726 0 0 1-2.303-4.914c-1.178-3.685-1.45-7.2-1.617-9.702l-.13-2.98V70.5a1.21 1.21 0 0 1 0-.282 2 2 0 0 1 .035.278c0 .2.035.478.056.808l.205 2.972c.204 2.498.504 5.992 1.672 9.646a22.132 22.132 0 0 0 2.264 4.87 17.18 17.18 0 0 0 2.768 3.398 14.38 14.38 0 0 0 2.35 1.803l.935.56zm84.27-59.538c0 .06-7.343.113-16.394.113s-16.393-.052-16.393-.113 7.34-.113 16.393-.113l16.394.113z"/></g><path d="M273.908 30.47H249.48v1.4h24.428v-1.4zm-14.47 167.12h-39.703v3.693h39.703V197.6zm5.96-107.106H240.97v1.4h24.427v-1.4zm0 3.694H240.97v1.4h24.427v-1.4z" class="C"/><path d="M264.977 99.717H240.97v6.464h24.006v-6.464z" class="E"/><path d="M273.286 238.676c0 .266-15.095.46-33.7.46s-33.7-.195-33.7-.46 15.086-.462 33.7-.462l33.7.462zm0-10.156c0 .267-15.095.462-33.7.462s-33.7-.195-33.7-.462 15.086-.46 33.7-.46l33.7.46zm0-10.157c0 .266-15.095.462-33.7.462s-33.7-.196-33.7-.462 15.086-.462 33.7-.462l33.7.462zm0 25.853c0 .248-15.095.46-33.7.46s-33.7-.213-33.7-.46 15.086-.462 33.7-.462l33.7.462zm0-10.156c0 .25-15.095.462-33.7.462s-33.7-.213-33.7-.462 15.086-.46 33.7-.46l33.7.46zm0-10.157c0 .248-15.095.46-33.7.46s-33.7-.213-33.7-.46 15.086-.462 33.7-.462l33.7.462z" class="C"/><path d="M210.642 264.456v5.5h-1.27v-4.48h-1.103v-1.013l2.374-.005zm.936 2.75c0-1.817 1.013-2.845 2.36-2.845s2.36 1.012 2.36 2.845-1.012 2.846-2.36 2.846-2.36-1.033-2.36-2.846zm3.438 0c0-1.25-.44-1.767-1.078-1.767s-1.07.507-1.07 1.767.44 1.767 1.07 1.767 1.098-.516 1.098-1.767h-.02z" fill="#000"/><path d="M219.827 265.66a1.1 1.1 0 0 1-.053.466 1.09 1.09 0 0 1-.242.4c-.1.115-.24.204-.388.263s-.304.085-.462.076a1.16 1.16 0 0 1-.617-.157l.192-.38a.69.69 0 0 0 .415.111.59.59 0 0 0 .253-.037.585.585 0 0 0 .214-.14.58.58 0 0 0 .135-.217.55.55 0 0 0 .03-.254.78.78 0 0 1-.557.197.677.677 0 0 1-.286-.034.71.71 0 0 1-.419-.378.7.7 0 0 1-.063-.281.76.76 0 0 1 .071-.307.764.764 0 0 1 .774-.443c.623 0 1.003.4 1.003 1.114zm-.578-.4c0-.192-.146-.334-.395-.334a.323.323 0 0 0-.138.015.32.32 0 0 0-.121.07.33.33 0 0 0-.082.113c-.02.043-.028.1-.028.136s.01.096.03.14.048.083.084.114a.36.36 0 0 0 .125.07.323.323 0 0 0 .142.01.35.35 0 0 0 .263-.084.34.34 0 0 0 .086-.113.33.33 0 0 0 .034-.138zm2.613.4a1.1 1.1 0 0 1-.053.466 1.09 1.09 0 0 1-.242.4c-.1.115-.24.204-.388.263s-.304.085-.462.076a1.16 1.16 0 0 1-.617-.157l.192-.38c.125.08.272.12.42.1a.6.6 0 0 0 .252-.038c.08-.03.152-.08.212-.14a.6.6 0 0 0 .134-.216.59.59 0 0 0 .03-.253.78.78 0 0 1-.557.197.677.677 0 0 1-.286-.034.71.71 0 0 1-.249-.145.73.73 0 0 1-.171-.233.7.7 0 0 1-.063-.281.76.76 0 0 1 .071-.307.764.764 0 0 1 .774-.443c.623 0 1.003.4 1.003 1.114zm-.582-.4a.386.386 0 0 0-.04-.226.38.38 0 0 0-.161-.164.392.392 0 0 0-.225-.042.32.32 0 0 0-.2.093c-.05.053-.1.12-.12.196a.38.38 0 0 0 .013.229.378.378 0 0 0 .142.18.39.39 0 0 0 .22.068c.047.005.095 0 .14-.015a.35.35 0 0 0 .123-.069.36.36 0 0 0 .084-.113.44.44 0 0 0 .033-.138zm.563 2.37h-3.93v.496h3.93v-.496z" class="B"/><path d="M161.374 246.387a4.284 4.284 0 0 0-3.278-7.916 4.283 4.283 0 1 0 3.278 7.915z" class="C"/><path d="M158.652 244.832c.07-.08.15-.15.236-.2l.676-.534 2.272-1.72v.12l-.02-.017-.042-.03-.082-.06-.162-.125-.32-.24-.602-.454-1.014-.776-.676-.534a1.397 1.397 0 0 1-.235-.213 1.24 1.24 0 0 1 .269.165l.705.497 1.034.753.605.446.32.238.164.123.083.062.04.028.022.017v.12l-2.29 1.68-.704.497a1.19 1.19 0 0 1-.282.165z" class="D"/><path d="M86.834 243.498a4.352 4.352 0 1 0-8.593-1.394c-.385 2.374 1.226 4.608 3.6 4.993s4.608-1.226 4.993-3.598z" class="C"/><path d="M83.635 240.352a1.35 1.35 0 0 1-.24.217l-.687.542-2.31 1.732v-.118l.023.014.04.032.084.063.167.124.323.243.612.462 1.028.8.687.543a1.25 1.25 0 0 1 .24.214 1.34 1.34 0 0 1-.274-.168l-.716-.505-1.048-.762-.618-.456-.323-.242-.167-.122-.084-.063-.043-.032-.02-.014v-.12l2.323-1.71.716-.505c.088-.065.184-.118.286-.16z" class="D"/><path d="M100.63 290.843H79.393v21.236h21.236v-21.236zm25.85 0h-20.313v21.236h20.313v-21.236zm26.776 0h-20.313v21.236h20.313v-21.236zm26.777 0h-21.236v21.236h21.236v-21.236z" class="E"/><g class="B"><path d="M300.28 192.195a9.96 9.96 0 0 1-1.525.078l-3.852.04v-.1l-.087-.623-.586-4.507.073.064a8.19 8.19 0 0 1-1.374-.077c.455-.06.915-.086 1.374-.074h.064v.064l.67 4.498.087.62-.115-.1 3.747.04a9.96 9.96 0 0 1 1.525.078z"/><path d="M294.854 191.1c.134-.025.27-.037.407-.037l1.127-.032 3.894-.04-.115.092.366-2.098.197-1.1.115.137c-1.832 0-3.43 0-4.58-.04l-1.375-.032a1.84 1.84 0 0 1-.49-.046c.162-.03.326-.045.5-.04l1.375-.037 4.722-.037v.138l-.192 1.1-.376 2.098v.096h-.096c-1.57 0-2.927 0-3.894-.04l-1.126-.032a1.63 1.63 0 0 1-.45-.046zm1.47 2.528c-.037 0-.037-.206-.257-.352a.45.45 0 0 0-.201-.07.46.46 0 0 0-.211.028.425.425 0 0 0-.193.629.42.42 0 0 0 .193.155c.067.026.14.036.2.028a.45.45 0 0 0 .201-.07c.22-.142.22-.357.257-.348s.037.046.032.138a.55.55 0 0 1-.188.348.615.615 0 0 1-.587.11.63.63 0 0 1-.309-.231.627.627 0 0 1-.118-.367.62.62 0 0 1 .118-.367.63.63 0 0 1 .309-.231.633.633 0 0 1 .587.11.55.55 0 0 1 .188.348c.005.092-.014.142-.032.142zm3.394 0c-.036 0-.036-.206-.256-.352a.44.44 0 0 0-.2-.07.46.46 0 0 0-.211.028.42.42 0 0 0-.193.629.421.421 0 0 0 .393.183.5.5 0 0 0 .2-.07c.22-.142.22-.357.256-.348s.037.046.033.138a.56.56 0 0 1-.188.348.615.615 0 0 1-.28.132.62.62 0 0 1-.308-.022.63.63 0 0 1-.311-.964.63.63 0 0 1 .31-.232.61.61 0 0 1 .308-.021c.103.02.2.064.28.13a.56.56 0 0 1 .188.348c.004.092-.014.142-.033.142zm-206.28-.874a44.07 44.07 0 0 1-4.539.119 43.79 43.79 0 0 1-4.539-.119 42.18 42.18 0 0 1 4.539-.119 42.18 42.18 0 0 1 4.539.119zm0-1.718a42.18 42.18 0 0 1-4.539.119 42.18 42.18 0 0 1-4.539-.119 44.07 44.07 0 0 1 4.539-.119 44.07 44.07 0 0 1 4.539.119zm0-1.73a44.07 44.07 0 0 1-4.539.119 44.07 44.07 0 0 1-4.539-.119 43.79 43.79 0 0 1 4.539-.119 43.79 43.79 0 0 1 4.539.119z"/></g><path d="M114.332 203.032s-7.016-.095-8.562 2.2-7.913 16.575-7.913 16.575l9.955 5.18 2.142-6.12 3.492 12.792c-4 3.166-9.664 31.985-8.535 44.123l37.39.12s.258-33.677-9.854-44.75l2.368-13.373 2.284 6.526 10.55-4.38-7.94-14.28a7.69 7.69 0 0 0-2.805-2.88 7.647 7.647 0 0 0-3.874-1.07h-2.6s-1.092 9.56-8.04 9.374-8.07-10.04-8.07-10.04z" class="C"/><path d="m113.555 223.44 1.494 4.57 1.276 4.663a47.29 47.29 0 0 1-1.495-4.575l-1.275-4.658zm16.615 0a7.08 7.08 0 0 1-.113 1.509l-.557 3.603-.746 3.583a7.15 7.15 0 0 1-.427 1.462 7.3 7.3 0 0 1 .213-1.498l.658-3.588.646-3.588a7.36 7.36 0 0 1 .326-1.483zm-14.54 27.7c-.13-.314-.2-.65-.206-1a7.62 7.62 0 0 1 1.173-4.691c.164-.3.385-.564.65-.782a10.25 10.25 0 0 0-1.617 6.453v.01zm18.236 24.93a1.32 1.32 0 0 1-.304-.132c-.192-.106-.507-.232-.84-.454a15.597 15.597 0 0 1-2.817-2.14 20.28 20.28 0 0 1-3.309-4.131 26.97 26.97 0 0 1-2.685-5.966c-1.373-4.473-1.692-8.74-1.885-11.78l-.152-3.62v-.98a1.513 1.513 0 0 1 0-.343 2.38 2.38 0 0 1 .041.338c0 .253.04.58.066.98l.238 3.608c.238 3.033.588 7.274 1.95 11.7a27.17 27.17 0 0 0 2.64 5.913 20.66 20.66 0 0 0 3.228 4.125 17.59 17.59 0 0 0 2.74 2.2l1.1.68z" class="B"/><path d="M263.13 205.898h-47.1v.924h47.1v-.924zm-31.06 72.088h-25.75v1.466h25.75v-1.466zm0 3.894h-25.75v1.465h25.75v-1.465z" class="C"/><path d="M231.627 287.72H206.32v6.813h25.307v-6.813z" class="E"/></svg>