<svg width="462" height="353" viewBox="0 0 462 353" fill="none" xmlns="http://www.w3.org/2000/svg">
<path fill-rule="evenodd" clip-rule="evenodd" d="M451.338 113.429C452.564 114.344 453.664 115.418 454.607 116.623L458.771 115.857L461.541 122.32L458.106 124.804C458.328 126.315 458.347 127.849 458.162 129.365L461.643 131.775L459.03 138.284L454.847 137.61C453.934 138.835 452.859 139.932 451.652 140.869L452.409 145.043L445.946 147.813L443.5 144.35C441.968 144.562 440.415 144.562 438.883 144.35L436.473 147.84L430.01 145.227L430.684 141.045C429.456 140.132 428.356 139.057 427.415 137.85L423.251 138.607L420.481 132.144L423.907 129.66C423.704 128.128 423.704 126.576 423.907 125.044L420.417 122.745L423.03 116.282L427.212 116.946C428.128 115.723 429.202 114.627 430.407 113.687L429.65 109.477L436.113 106.707L438.597 110.132C440.127 109.91 441.679 109.894 443.213 110.086L445.614 106.605L452.123 109.218L451.449 113.401L451.338 113.429ZM444.09 120.4C442.711 119.846 441.199 119.714 439.744 120.019C438.289 120.325 436.958 121.055 435.919 122.118C434.879 123.18 434.178 124.527 433.904 125.987C433.629 127.448 433.794 128.958 434.378 130.325C434.961 131.692 435.937 132.855 437.182 133.668C438.426 134.48 439.884 134.905 441.37 134.89C442.856 134.874 444.304 134.418 445.532 133.579C446.759 132.74 447.709 131.557 448.264 130.177C448.632 129.261 448.816 128.282 448.806 127.295C448.795 126.307 448.59 125.332 448.203 124.424C447.815 123.516 447.253 122.693 446.547 122.003C445.841 121.312 445.007 120.767 444.09 120.4Z" fill="#F6376D"/>
<path fill-rule="evenodd" clip-rule="evenodd" d="M64.776 141.525C66.9896 143.182 68.9736 145.126 70.6759 147.305L78.2101 145.929L83.1868 157.581L76.9452 162.106C77.3425 164.841 77.3704 167.617 77.0283 170.36L83.3253 174.709L78.6072 186.472L71.0822 185.188C69.43 187.406 67.4858 189.391 65.3023 191.088L66.678 198.623L55.0258 203.655L50.5385 197.45C47.8032 197.846 45.0276 197.877 42.2841 197.542L37.9261 203.83L26.1631 199.093L27.3727 191.532C25.159 189.874 23.175 187.931 21.4727 185.752L13.9477 187.127L8.97108 175.475L15.1757 170.988C14.78 168.253 14.749 165.477 15.0834 162.733L8.79565 158.412L13.523 146.659L21.0757 147.877C22.7352 145.663 24.6785 143.676 26.8556 141.968L25.4799 134.406L37.1321 129.43L41.6286 135.634C44.3639 135.239 47.1395 135.208 49.883 135.542L54.2318 129.245L65.9948 133.972L64.776 141.525ZM51.6834 154.137C49.189 153.135 46.4533 152.894 43.8222 153.446C41.191 153.998 38.7828 155.318 36.902 157.239C35.0212 159.161 33.7524 161.596 33.2561 164.238C32.7598 166.881 33.0582 169.611 34.1136 172.083C35.1691 174.556 36.9341 176.66 39.1855 178.129C41.4369 179.599 44.0734 180.367 46.7617 180.338C49.45 180.309 52.0692 179.483 54.288 177.965C56.5068 176.447 58.2256 174.305 59.2269 171.81C60.5663 168.465 60.5243 164.727 59.1101 161.413C57.6958 158.1 55.0249 155.483 51.6834 154.137Z" fill="#DEEAF8"/>
<path fill-rule="evenodd" clip-rule="evenodd" d="M33.8635 82.5439C35.0867 83.4597 36.1828 84.5339 37.1228 85.7386L41.2869 84.9815L44.0569 91.4446L40.6314 93.9284C40.8388 95.4602 40.8388 97.0131 40.6314 98.5449L44.1123 100.955L41.4993 107.418L37.3259 106.744C36.4071 107.97 35.3297 109.069 34.122 110.012L34.8884 114.177L28.4252 116.946L25.9415 113.521C24.4276 113.72 22.8943 113.72 21.3803 113.521L18.9705 117.002L12.5073 114.389L13.1813 110.206C11.956 109.293 10.8597 108.218 9.92206 107.012L5.74869 107.769L2.97876 101.306L6.41348 98.8219C6.19024 97.3076 6.17471 95.77 6.36731 94.2515L2.8772 91.8509L5.49017 85.3416L9.67276 86.0156C10.5884 84.7895 11.6626 83.6904 12.8674 82.7471L12.1103 78.5829L18.5735 75.813L21.0572 79.2477C22.5866 79.0219 24.1394 79.0032 25.6737 79.1923L28.0836 75.7114L34.5468 78.3244L33.882 82.507L33.8635 82.5439ZM26.6155 89.5149C25.2355 88.9593 23.7218 88.8252 22.2657 89.1296C20.8095 89.4339 19.4762 90.163 18.4343 91.2248C17.3923 92.2866 16.6884 93.6333 16.4116 95.095C16.1347 96.5566 16.2973 98.0675 16.8788 99.4368C17.4603 100.806 18.4346 101.972 19.6786 102.788C20.9226 103.604 22.3805 104.033 23.8681 104.02C25.3556 104.008 26.8062 103.555 28.0363 102.718C29.2665 101.882 30.2212 100.699 30.7796 99.3205C31.1511 98.4033 31.3381 97.4219 31.3298 96.4324C31.3215 95.4429 31.1182 94.4648 30.7314 93.554C30.3446 92.6432 29.782 91.8176 29.0757 91.1246C28.3695 90.4315 27.5334 89.8845 26.6155 89.5149Z" fill="#8E96A3"/>
<path fill-rule="evenodd" clip-rule="evenodd" d="M118.67 31.2633C122.247 32.578 125.632 34.3667 128.734 36.5816L138.152 31.7988L149.305 45.2422L142.842 53.6167C144.441 57.0775 145.574 60.7348 146.212 64.4933L156.239 67.771L154.623 85.1662L144.153 86.5327C142.838 90.113 141.05 93.501 138.835 96.606L143.618 106.024L130.165 117.177L121.8 110.714C118.347 112.318 114.695 113.455 110.942 114.094L107.664 124.13L90.2686 122.505L88.9483 112.053C85.3709 110.738 81.986 108.95 78.8842 106.735L69.4664 111.508L58.3129 98.0648L64.776 89.6904C63.1773 86.2296 62.0441 82.5723 61.4059 78.8138L51.3788 75.5361L52.9392 58.1409L63.4095 56.7744C64.7197 53.1927 66.502 49.8019 68.7093 46.6918L63.9266 37.2833L77.3792 26.1297L85.7444 32.5929C89.2052 30.9856 92.8667 29.8521 96.6303 29.2228L99.908 19.1864L117.303 20.8391L118.67 31.3095V31.2633ZM106.316 53.0719C102.624 52.728 98.9141 53.4865 95.6539 55.2515C92.3938 57.0164 89.7302 59.7086 88.0001 62.9874C86.27 66.2662 85.5512 69.9845 85.9344 73.6719C86.3176 77.3593 87.7858 80.8502 90.1531 83.7032C92.5205 86.5562 95.6807 88.643 99.2342 89.6998C102.788 90.7567 106.575 90.7359 110.116 89.6403C113.658 88.5447 116.795 86.4234 119.131 83.5447C121.467 80.666 122.897 77.1592 123.24 73.4678C123.469 71.0172 123.213 68.5455 122.486 66.1939C121.759 63.8424 120.576 61.6571 119.004 59.763C117.432 57.8688 115.503 56.303 113.326 55.1549C111.149 54.0068 108.767 53.299 106.316 53.0719Z" fill="#B3C6E4"/>
<path d="M130.903 10.6642V133.668C130.903 139.557 135.678 144.332 141.568 144.332H327.375C333.264 144.332 338.039 139.557 338.039 133.668V10.6642C338.039 4.77454 333.264 0 327.375 0H141.568C135.678 0 130.903 4.77454 130.903 10.6642Z" fill="#455A64"/>
<path d="M145.076 4.5517V139.78H318.059V4.5517H145.076Z" fill="white"/>
<path d="M322.176 158.929H59.5407C52.111 158.929 46.088 164.952 46.088 172.382V336.944C46.088 344.373 52.111 350.396 59.5407 350.396H322.176C329.606 350.396 335.629 344.373 335.629 336.944V172.382C335.629 164.952 329.606 158.929 322.176 158.929Z" fill="#263238"/>
<path d="M327.042 166.537H53.853V328.228H327.042V166.537Z" fill="#E0E0E0"/>
<path d="M314.485 177.303H62.9662V328.163H314.485V177.303Z" fill="#FAFAFA"/>
<path d="M45.6541 319.068C57.177 311.525 60.1039 297.075 59.9746 283.982C59.9746 281.803 60.2609 279.514 59.2545 277.575C58.2481 275.636 55.8382 274.278 53.8346 275.146C52.1819 275.867 51.4248 277.732 50.4646 279.264C49.1843 281.316 47.3503 282.965 45.174 284.019C43.7521 284.703 42.007 285.1 40.6405 284.315C38.7939 283.235 38.6 280.622 38.6646 278.47C38.7939 274.432 38.917 270.397 39.034 266.366C39.2232 264.199 39.0547 262.015 38.5354 259.903C38.26 258.857 37.7384 257.892 37.0139 257.089C36.2895 256.285 35.3834 255.667 34.3712 255.286C32.2938 254.658 29.6901 255.785 29.1915 257.89C29.0881 258.784 29.0449 259.685 29.0622 260.586C29.064 261.038 28.9316 261.48 28.6818 261.856C28.4319 262.233 28.0758 262.526 27.6588 262.7C27.2049 262.742 26.748 262.667 26.3311 262.483C25.9143 262.299 25.5513 262.011 25.2766 261.648C23.1745 259.297 21.4715 256.618 20.2354 253.716C19.0011 250.819 17.4266 248.079 15.5449 245.554C13.5506 243.117 10.753 241.159 7.6137 240.938C4.47444 240.716 1.08589 242.526 0.227214 245.554C-0.631465 248.583 1.08589 251.731 2.99715 254.243C5.82572 257.987 9.18134 261.302 12.9597 264.085C13.6953 264.509 14.2773 265.156 14.6216 265.932C15.0556 267.391 13.6337 268.785 12.1841 269.228C10.5314 269.727 8.7586 269.514 7.05048 269.671C5.34235 269.828 3.4588 270.53 2.77555 272.109C1.85224 274.306 3.64346 276.67 5.44391 278.23C9.07555 281.37 13.2159 283.868 17.687 285.617C19.3357 286.11 20.8812 286.898 22.2482 287.943C23.5223 289.088 24.261 291.055 23.4392 292.56C22.6175 294.065 20.5862 294.508 18.8966 294.157C17.2673 293.672 15.6827 293.048 14.16 292.292C11.1684 291.101 7.27207 291.212 5.27772 293.742C4.66188 294.606 4.2575 295.602 4.09713 296.651C3.93677 297.7 4.02489 298.772 4.35441 299.78C5.04404 301.786 6.13052 303.632 7.54906 305.209C12.205 311.005 18.3117 315.464 25.2489 318.136C32.183 320.703 38.6554 321.506 45.6633 319.161" fill="#B3C6E4"/>
<path d="M3.45874 242.701L3.6711 242.914L4.30818 243.495C4.8714 244.012 5.69315 244.77 6.73649 245.776C9.68081 248.612 12.4091 251.665 14.8986 254.907C16.4774 256.948 18.1209 259.266 19.8383 261.777C21.5556 264.288 23.3561 267.003 25.1565 269.911C27.0554 272.94 28.7847 276.072 30.3363 279.292C31.1488 280.963 31.8598 282.718 32.58 284.5C33.3001 286.282 34.0388 288.091 34.7774 289.929C37.6081 296.789 40.0465 303.806 42.0808 310.943C43.7179 316.78 44.7968 322.759 45.3032 328.8C45.6342 332.873 45.6033 336.967 45.2108 341.034C45.0631 342.465 44.9246 343.582 44.8046 344.339C44.7492 344.699 44.7123 344.986 44.6753 345.198C44.6691 345.296 44.6691 345.395 44.6753 345.493C44.7064 345.4 44.7311 345.304 44.7492 345.207C44.7492 344.995 44.8415 344.709 44.9062 344.349C45.0539 343.601 45.2201 342.502 45.3955 341.052C45.8481 336.978 45.9223 332.87 45.6171 328.782C45.1533 322.716 44.0988 316.711 42.4686 310.851C40.4486 303.69 38.0162 296.652 35.1837 289.772C34.4327 287.925 33.7002 286.118 32.9862 284.352C32.2568 282.57 31.5366 280.806 30.7241 279.117C29.1572 275.886 27.4125 272.745 25.4982 269.708C23.6515 266.8 21.8603 264.104 20.143 261.592C18.4256 259.081 16.7544 256.773 15.1479 254.732C12.6213 251.495 9.84275 248.464 6.83805 245.665C5.77625 244.677 4.9268 243.929 4.34512 243.44L3.68957 242.877C3.54184 242.757 3.46797 242.692 3.45874 242.701Z" fill="#687C94"/>
<path d="M30.5857 279.098C30.6954 278.8 30.7728 278.49 30.8166 278.175C30.9458 277.575 31.112 276.716 31.2874 275.636C31.6475 273.484 32.0538 270.502 32.4785 267.215C32.9032 263.928 33.3464 260.955 33.7435 258.813C33.9374 257.751 34.1035 256.883 34.2236 256.283C34.3069 255.982 34.3565 255.672 34.3713 255.36C34.2315 255.654 34.1291 255.964 34.0666 256.283C33.9004 256.865 33.688 257.724 33.4572 258.785C32.9956 260.918 32.5339 263.891 32.0815 267.187C31.6291 270.484 31.2874 273.374 31.0105 275.627C30.872 276.633 30.7519 277.473 30.6688 278.175C30.6055 278.478 30.5776 278.788 30.5857 279.098Z" fill="#687C94"/>
<path d="M2.50769 273.226C2.87436 273.313 3.2484 273.366 3.6249 273.383C4.34508 273.466 5.39766 273.577 6.68106 273.761C9.2571 274.094 12.8026 274.685 16.6805 275.497C20.5584 276.31 24.067 277.224 26.5322 277.935C27.7879 278.286 28.7944 278.6 29.4868 278.812C29.8423 278.945 30.2105 279.041 30.5856 279.098C30.2484 278.929 29.8997 278.784 29.5422 278.664C28.859 278.406 27.8618 278.055 26.6153 277.667C24.1316 276.873 20.6507 275.931 16.7636 275.109C13.4447 274.396 10.0919 273.85 6.71799 273.475C5.41612 273.327 4.36355 273.263 3.64337 273.235C3.26608 273.194 2.88559 273.191 2.50769 273.226Z" fill="#687C94"/>
<path d="M42.1085 310.325C42.1904 310.223 42.2587 310.111 42.3117 309.992L42.8195 308.995C43.2534 308.127 43.8536 306.862 44.5738 305.302C46.0141 302.144 47.8607 297.722 49.8274 292.819C51.7941 287.916 53.613 283.475 54.9795 280.299L56.6137 276.532L57.0569 275.507C57.1493 275.267 57.1954 275.137 57.1769 275.137C57.1009 275.241 57.0359 275.352 56.9831 275.47L56.4752 276.467C56.032 277.335 55.4411 278.6 54.7209 280.16C53.2806 283.318 51.434 287.741 49.4581 292.643C47.4822 297.546 45.6817 301.987 44.306 305.163C43.6412 306.715 43.0872 307.989 42.6717 308.93L42.2378 309.955C42.1789 310.072 42.1355 310.197 42.1085 310.325Z" fill="#687C94"/>
<path d="M4.92688 297.509C4.92688 297.509 5.04691 297.583 5.28697 297.675L6.36724 298.054L10.3559 299.439C13.7168 300.602 18.3426 302.264 23.4485 304.111C28.5544 305.957 33.1986 307.573 36.5872 308.672C38.2861 309.226 39.6526 309.651 40.6128 309.928L41.7116 310.241C41.9701 310.315 42.1086 310.343 42.1086 310.325C41.9912 310.26 41.8675 310.207 41.7393 310.168L40.659 309.78L36.6795 308.404C33.3187 307.241 28.6929 305.579 23.587 303.732C18.4811 301.886 13.8276 300.261 10.4483 299.162C8.74939 298.617 7.37366 298.183 6.42265 297.906L5.31467 297.592C5.18849 297.552 5.05858 297.524 4.92688 297.509Z" fill="#687C94"/>
<path d="M420.343 221.641L364.639 221.382C363.045 221.378 361.467 221.06 359.996 220.445C358.526 219.83 357.191 218.93 356.069 217.798C354.946 216.665 354.059 215.322 353.457 213.846C352.856 212.369 352.552 210.789 352.563 209.194L353.153 69.9314C353.162 68.3398 353.484 66.7655 354.101 65.2984C354.718 63.8313 355.619 62.5002 356.75 61.3812C357.882 60.2622 359.224 59.3772 360.698 58.7769C362.172 58.1765 363.75 57.8725 365.341 57.8822L421.044 58.1315C424.257 58.1437 427.334 59.4298 429.6 61.7078C431.866 63.9857 433.136 67.0693 433.131 70.2822L432.54 209.554C432.535 211.15 432.215 212.728 431.599 214.199C430.983 215.671 430.083 217.006 428.95 218.129C427.817 219.252 426.473 220.14 424.996 220.743C423.519 221.345 421.938 221.65 420.343 221.641Z" fill="#455A64"/>
<path d="M420.971 62.9788H410.168C409.817 62.9836 409.47 63.0577 409.147 63.1969C408.825 63.336 408.533 63.5375 408.289 63.7897C408.044 64.0419 407.852 64.3398 407.723 64.6665C407.594 64.9932 407.53 65.3421 407.536 65.6933V67.6508C407.544 68.3595 407.272 69.0427 406.78 69.5525C406.287 70.0623 405.614 70.3576 404.905 70.3745L383.844 70.273C383.491 70.2646 383.142 70.1861 382.819 70.0419C382.496 69.8977 382.205 69.6907 381.963 69.4329C381.72 69.1752 381.532 68.8718 381.408 68.5405C381.284 68.2092 381.227 67.8565 381.241 67.503V65.5271C381.253 65.174 381.195 64.8218 381.071 64.4911C380.946 64.1603 380.758 63.8574 380.516 63.5999C380.274 63.3424 379.983 63.1354 379.66 62.9908C379.338 62.8461 378.99 62.7667 378.637 62.7572H374.833H365.378C364.264 62.7511 363.159 62.9646 362.127 63.3854C361.096 63.8062 360.157 64.4262 359.365 65.2098C358.572 65.9934 357.942 66.9254 357.51 67.9526C357.078 68.9798 356.853 70.082 356.847 71.1963L356.265 207.135C356.26 209.387 357.149 211.548 358.737 213.144C360.324 214.74 362.481 215.641 364.732 215.648L420.324 215.907C422.575 215.917 424.738 215.034 426.338 213.452C427.939 211.87 428.848 209.718 428.865 207.468L429.437 71.5287C429.446 70.4105 429.233 69.3017 428.812 68.2659C428.39 67.2302 427.768 66.288 426.982 65.4934C426.195 64.6989 425.259 64.0677 424.227 63.6362C423.196 63.2046 422.089 62.9812 420.971 62.9788Z" fill="white"/>
<path d="M327.624 66.6259C328.72 66.6259 329.791 66.9508 330.702 67.5595C331.613 68.1682 332.323 69.0334 332.742 70.0457C333.161 71.058 333.271 72.1719 333.057 73.2465C332.844 74.3211 332.316 75.3082 331.541 76.083C330.766 76.8578 329.779 77.3854 328.705 77.5991C327.63 77.8129 326.516 77.7032 325.504 77.2839C324.492 76.8646 323.626 76.1545 323.018 75.2435C322.409 74.3325 322.084 73.2614 322.084 72.1657C322.084 70.6965 322.668 69.2874 323.707 68.2485C324.746 67.2095 326.155 66.6259 327.624 66.6259Z" fill="#263238"/>
<path d="M136.868 51.5575V92.7741C136.868 93.3962 137.372 93.9005 137.994 93.9005H138.031C138.653 93.9005 139.158 93.3962 139.158 92.7741V51.5575C139.158 50.9354 138.653 50.4311 138.031 50.4311H137.994C137.372 50.4311 136.868 50.9354 136.868 51.5575Z" fill="#263238"/>
<path d="M33.9742 336.242H347.669V336.565C347.669 340.924 345.938 345.104 342.855 348.186C339.773 351.268 335.593 353 331.234 353H50.4092C46.0504 353 41.8701 351.268 38.7879 348.186C35.7058 345.104 33.9742 340.924 33.9742 336.565V336.242Z" fill="#263238"/>
<path d="M162.314 336.242L166.202 342.428H220.982L224.592 336.242H162.314Z" fill="#455A64"/>
<path d="M335.629 336.362H46.0879V337.285H335.629V336.362Z" fill="#455A64"/>
<path d="M405.343 161.906C405.343 161.976 400.632 162.037 394.817 162.037C389.003 162.037 384.292 161.976 384.292 161.906C384.292 161.835 389.003 161.775 394.817 161.775C400.632 161.775 405.343 161.835 405.343 161.906Z" fill="#687C94"/>
<path d="M413.471 165.916C413.471 165.992 404.955 166.047 394.46 166.047C383.964 166.047 375.448 165.992 375.448 165.916C375.448 165.841 383.959 165.785 394.46 165.785C404.96 165.785 413.471 165.846 413.471 165.916Z" fill="#263238"/>
<path d="M413.471 169.055C413.471 169.126 404.955 169.186 394.46 169.186C383.964 169.186 375.448 169.126 375.448 169.055C375.448 168.985 383.959 168.924 394.46 168.924C404.96 168.924 413.471 168.985 413.471 169.055Z" fill="#263238"/>
<path d="M391.175 179.437V183.804H390.166V180.245H389.289V179.441L391.175 179.437Z" fill="black"/>
<path d="M391.919 181.62C391.919 180.177 392.723 179.36 393.793 179.36C394.862 179.36 395.667 180.165 395.667 181.62C395.667 183.076 394.862 183.88 393.793 183.88C392.723 183.88 391.919 183.06 391.919 181.62ZM394.649 181.62C394.649 180.627 394.299 180.217 393.793 180.217C393.286 180.217 392.944 180.619 392.944 181.62C392.944 182.622 393.294 183.024 393.793 183.024C394.291 183.024 394.665 182.613 394.665 181.62H394.649Z" fill="black"/>
<path d="M398.469 180.394C398.482 180.519 398.468 180.645 398.428 180.764C398.387 180.882 398.322 180.991 398.235 181.082C398.149 181.173 398.044 181.244 397.927 181.29C397.811 181.337 397.686 181.358 397.561 181.351C397.389 181.355 397.219 181.312 397.07 181.226L397.223 180.925C397.321 180.988 397.436 181.019 397.552 181.013C397.621 181.018 397.689 181.008 397.753 180.984C397.818 180.96 397.876 180.922 397.923 180.873C397.971 180.824 398.008 180.765 398.031 180.7C398.053 180.636 398.062 180.567 398.055 180.499C397.934 180.606 397.775 180.663 397.613 180.655C397.536 180.662 397.459 180.653 397.385 180.628C397.312 180.604 397.245 180.564 397.188 180.513C397.13 180.461 397.084 180.398 397.052 180.328C397.02 180.258 397.003 180.182 397.002 180.104C397.003 180.02 397.023 179.937 397.058 179.861C397.093 179.784 397.144 179.716 397.207 179.66C397.27 179.604 397.344 179.562 397.424 179.536C397.505 179.51 397.589 179.501 397.673 179.509C398.168 179.509 398.469 179.819 398.469 180.394ZM398.011 180.084C398.011 179.932 397.894 179.819 397.697 179.819C397.66 179.815 397.623 179.819 397.587 179.83C397.551 179.842 397.519 179.861 397.491 179.886C397.463 179.911 397.441 179.942 397.426 179.976C397.411 180.01 397.403 180.047 397.404 180.084C397.403 180.122 397.411 180.16 397.427 180.195C397.442 180.23 397.465 180.261 397.494 180.286C397.522 180.311 397.556 180.33 397.593 180.341C397.629 180.352 397.668 180.355 397.705 180.35C397.743 180.354 397.781 180.35 397.817 180.338C397.853 180.327 397.887 180.308 397.916 180.283C397.944 180.258 397.967 180.228 397.984 180.194C398 180.159 398.009 180.122 398.011 180.084Z" fill="#263238"/>
<path d="M400.086 180.394C400.099 180.519 400.085 180.645 400.044 180.764C400.004 180.882 399.938 180.991 399.852 181.082C399.765 181.173 399.66 181.244 399.544 181.29C399.427 181.337 399.302 181.358 399.177 181.351C399.005 181.355 398.835 181.312 398.687 181.226L398.839 180.925C398.938 180.989 399.055 181.02 399.173 181.013C399.241 181.018 399.309 181.007 399.373 180.983C399.436 180.958 399.494 180.92 399.541 180.871C399.589 180.822 399.625 180.763 399.647 180.699C399.67 180.635 399.678 180.566 399.672 180.499C399.55 180.606 399.392 180.663 399.229 180.655C399.153 180.662 399.075 180.653 399.002 180.628C398.929 180.604 398.861 180.564 398.804 180.513C398.747 180.461 398.701 180.398 398.669 180.328C398.637 180.258 398.62 180.182 398.618 180.104C398.62 180.02 398.639 179.937 398.675 179.861C398.71 179.784 398.761 179.716 398.824 179.66C398.887 179.604 398.961 179.562 399.041 179.536C399.121 179.51 399.206 179.501 399.29 179.509C399.784 179.509 400.086 179.819 400.086 180.394ZM399.623 180.084C399.632 180.023 399.621 179.96 399.592 179.905C399.564 179.849 399.519 179.804 399.464 179.775C399.41 179.745 399.347 179.733 399.285 179.741C399.223 179.748 399.165 179.774 399.119 179.815C399.072 179.856 399.039 179.91 399.024 179.971C399.009 180.031 399.013 180.095 399.035 180.153C399.057 180.211 399.096 180.261 399.148 180.296C399.199 180.331 399.26 180.35 399.322 180.35C399.359 180.354 399.397 180.35 399.433 180.338C399.469 180.327 399.502 180.308 399.531 180.283C399.559 180.258 399.582 180.228 399.598 180.193C399.614 180.159 399.623 180.122 399.623 180.084Z" fill="#263238"/>
<path d="M400.07 181.958H396.949V182.352H400.07V181.958Z" fill="#263238"/>
<path d="M418.028 186.922C421.122 185.64 422.592 182.093 421.31 178.999C420.028 175.905 416.481 174.435 413.387 175.717C410.293 176.999 408.824 180.546 410.105 183.64C411.387 186.734 414.934 188.203 418.028 186.922Z" fill="#687C94"/>
<path d="M414.176 184.721C414.276 184.609 414.388 184.509 414.51 184.423C414.735 184.238 415.061 183.981 415.467 183.667C416.271 183.036 417.413 182.175 418.684 181.234C418.684 181.572 418.684 181.327 418.684 181.403L418.656 181.379L418.595 181.335L418.479 181.25L418.25 181.073L417.799 180.736L416.947 180.092L415.511 178.994L414.554 178.238C414.432 178.15 414.32 178.049 414.22 177.937C414.357 177.998 414.486 178.076 414.602 178.17L415.6 178.874L417.063 179.939L417.92 180.571L418.374 180.909L418.607 181.081L418.724 181.17L418.78 181.21L418.813 181.234C418.813 181.311 418.813 181.069 418.813 181.403C417.554 182.344 416.4 183.185 415.571 183.784L414.574 184.487C414.453 184.583 414.319 184.661 414.176 184.721Z" fill="#FAFAFA"/>
<path d="M375.791 182.299C376.328 178.993 374.083 175.879 370.777 175.342C367.471 174.805 364.356 177.05 363.82 180.356C363.283 183.662 365.528 186.777 368.834 187.313C372.14 187.85 375.254 185.605 375.791 182.299Z" fill="#687C94"/>
<path d="M371.334 177.917C371.236 178.031 371.124 178.132 371.001 178.218C370.78 178.399 370.45 178.657 370.044 178.974C369.239 179.606 368.101 180.462 366.827 181.387V181.222L366.859 181.242L366.915 181.287L367.032 181.375L367.265 181.548L367.715 181.886L368.568 182.529L369.999 183.631C370.402 183.945 370.735 184.202 370.956 184.387C371.08 184.472 371.192 184.572 371.29 184.685C371.154 184.623 371.026 184.544 370.908 184.451L369.911 183.748L368.451 182.686L367.591 182.051L367.14 181.713L366.907 181.544L366.79 181.456L366.73 181.411L366.702 181.391V181.222C367.961 180.285 369.115 179.445 369.939 178.842C370.341 178.568 370.663 178.331 370.936 178.138C371.059 178.048 371.193 177.974 371.334 177.917Z" fill="#FAFAFA"/>
<path d="M377.676 191.653H365.56V203.769H377.676V191.653Z" fill="#F6376D"/>
<path d="M393.045 191.653H380.929V203.769H393.045V191.653Z" fill="#F6376D"/>
<path d="M408.418 191.653H396.302V203.769H408.418V191.653Z" fill="#F6376D"/>
<path d="M423.787 191.653H411.671V203.769H423.787V191.653Z" fill="#F6376D"/>
<path d="M357.148 209.991C355.357 215.283 355.256 221.001 356.861 226.352C357.845 229.617 359.473 232.882 358.977 236.252C358.567 239.003 356.783 241.406 356.426 244.166C355.712 249.774 361.04 255.085 359.612 260.553C359.228 261.799 358.57 262.942 357.685 263.899C356.801 264.856 355.713 265.602 354.501 266.082C352.066 267.03 349.434 267.362 346.839 267.049C343.017 266.718 338.881 265.307 337.113 261.824C335.703 259.108 336.147 255.843 336.634 252.83C338.794 239.491 341.284 226.056 346.691 213.648" fill="#263238"/>
<path d="M358.846 251.219C358.703 251.281 358.554 251.33 358.402 251.367C357.96 251.47 357.506 251.508 357.053 251.481C356.334 251.429 355.634 251.228 354.998 250.888C354.149 250.439 353.461 249.736 353.03 248.877C352.513 247.824 352.374 246.625 352.638 245.481C352.791 244.852 353.069 244.259 353.457 243.74C353.872 243.196 354.361 242.712 354.911 242.303C356.119 241.497 357.281 240.625 358.394 239.691C359.467 238.599 360.147 237.181 360.327 235.66C360.516 234.141 360.404 232.599 359.996 231.123C359.602 229.743 359.095 228.398 358.481 227.101C357.363 224.925 356.487 222.633 355.868 220.266C355.471 218.647 355.471 216.956 355.868 215.337C356.01 214.746 356.252 214.184 356.582 213.674C356.33 214.219 356.123 214.784 355.964 215.363C355.612 216.967 355.636 218.63 356.034 220.222C356.68 222.569 357.576 224.84 358.707 226.996C359.334 228.304 359.852 229.661 360.257 231.054C360.673 232.566 360.789 234.146 360.596 235.703C360.41 237.283 359.699 238.755 358.576 239.883C357.467 240.82 356.304 241.692 355.094 242.495C354.022 243.212 353.243 244.29 352.899 245.534C352.634 246.626 352.754 247.776 353.239 248.79C353.649 249.621 354.302 250.307 355.111 250.758C355.725 251.095 356.4 251.305 357.096 251.376C357.684 251.413 358.274 251.36 358.846 251.219Z" fill="#263238"/>
<path d="M306.194 337.115L304.018 345.456L281.597 345.247C281.597 345.247 283.243 341.32 295.528 341.503L296.399 337.15L306.194 337.115Z" fill="#FFA681"/>
<path d="M387.823 212.046C387.606 212.473 381.911 241.728 381.911 241.728L395.329 242.355L400.553 217.201L387.823 212.046Z" fill="#455A64"/>
<path d="M381.911 241.729L380.379 241.076L386.186 212.238L388.006 212.116L381.911 241.729Z" fill="#263238"/>
<path d="M393.213 218.437C393.195 218.574 393.218 218.713 393.28 218.837C393.341 218.96 393.437 219.063 393.557 219.132C393.677 219.2 393.814 219.232 393.952 219.222C394.09 219.213 394.222 219.163 394.331 219.078C394.44 218.993 394.521 218.878 394.565 218.747C394.608 218.616 394.612 218.475 394.575 218.342C394.539 218.209 394.463 218.09 394.359 218C394.254 217.91 394.125 217.853 393.988 217.836C393.898 217.824 393.806 217.83 393.718 217.854C393.629 217.877 393.547 217.918 393.475 217.974C393.403 218.03 393.342 218.1 393.297 218.179C393.253 218.259 393.224 218.346 393.213 218.437Z" fill="#263238"/>
<path d="M395.982 238.977L396.182 235.146L390.453 232.778L392.691 227.475C392.948 226.89 393.324 226.365 393.795 225.932C394.265 225.5 394.821 225.17 395.425 224.963C396.03 224.756 396.671 224.677 397.308 224.73C397.945 224.783 398.564 224.968 399.125 225.272L401.459 226.535C402.27 226.973 402.979 227.578 403.542 228.308C404.104 229.039 404.507 229.879 404.724 230.775C405.34 233.868 405.785 236.993 406.056 240.135" fill="#FFA681"/>
<path d="M411.324 336.488C411.324 336.488 434.903 343.018 435.852 343.349C437.271 343.854 437.036 349.052 434.824 348.974C433.78 348.974 416.714 349.609 414.554 349.479C412.395 349.348 405.891 346.78 405.891 346.78L411.324 336.488Z" fill="#687C94"/>
<path d="M421.145 345.491C421.441 344.626 421.79 343.779 422.19 342.957C422.7 342.202 423.256 341.478 423.853 340.789C423.015 341.25 422.319 341.932 421.841 342.761C421.364 343.59 421.123 344.534 421.145 345.491Z" fill="#263238"/>
<path d="M418.69 344.376C418.803 344.376 419.047 343.279 419.674 342.052C420.301 340.824 421.041 339.953 420.954 339.875C420.223 340.363 419.654 341.057 419.317 341.869C418.871 342.627 418.653 343.498 418.69 344.376Z" fill="#263238"/>
<path d="M416.383 343.758C416.506 342.915 416.692 342.083 416.94 341.268C417.309 340.499 417.737 339.76 418.22 339.056C417.471 339.56 416.895 340.28 416.566 341.12C416.238 341.96 416.174 342.88 416.383 343.758Z" fill="#263238"/>
<path d="M416.801 340.711C417.009 340.155 417.095 339.561 417.053 338.97C417.052 338.324 416.973 337.681 416.818 337.054C416.727 336.681 416.611 336.314 416.47 335.957C416.397 335.734 416.265 335.535 416.087 335.382C415.973 335.288 415.83 335.237 415.682 335.237C415.534 335.237 415.391 335.288 415.277 335.382C415.095 335.561 414.984 335.799 414.963 336.053C414.946 336.258 414.946 336.465 414.963 336.671C414.964 337.061 415.01 337.45 415.103 337.829C415.261 338.461 415.507 339.068 415.834 339.631C416.097 340.164 416.454 340.645 416.888 341.051C416.949 341.051 416.548 340.467 416.078 339.501C415.807 338.945 415.599 338.361 415.46 337.759C415.386 337.404 415.348 337.042 415.347 336.68C415.347 336.314 415.347 335.861 415.564 335.687C415.608 335.65 415.664 335.63 415.721 335.63C415.778 335.63 415.834 335.65 415.878 335.687C415.996 335.804 416.085 335.947 416.139 336.105C416.276 336.444 416.395 336.79 416.496 337.141C416.658 337.745 416.76 338.363 416.801 338.987C416.844 340.032 416.74 340.702 416.801 340.711Z" fill="#263238"/>
<path d="M416.775 340.467C416.291 340.273 415.771 340.189 415.251 340.223C414.687 340.223 414.126 340.294 413.579 340.432C413.24 340.501 412.915 340.621 412.613 340.789C412.42 340.886 412.264 341.042 412.168 341.236C412.072 341.429 412.042 341.648 412.081 341.86C412.132 342.071 412.24 342.265 412.394 342.418C412.547 342.572 412.741 342.68 412.952 342.731C413.298 342.818 413.66 342.818 414.006 342.731C414.565 342.591 415.088 342.333 415.538 341.973C415.968 341.685 416.341 341.319 416.635 340.893C416.196 341.151 415.776 341.442 415.381 341.764C414.943 342.062 414.453 342.274 413.936 342.391C413.65 342.459 413.352 342.459 413.065 342.391C412.929 342.358 412.803 342.288 412.702 342.19C412.601 342.092 412.528 341.969 412.491 341.834C412.471 341.7 412.495 341.563 412.559 341.443C412.623 341.324 412.725 341.229 412.848 341.172C413.122 341.025 413.415 340.913 413.718 340.841C414.236 340.696 414.767 340.603 415.303 340.563C416.182 340.441 416.766 340.536 416.775 340.467Z" fill="#263238"/>
<path d="M424.776 345.743C424.866 345.023 425.02 344.312 425.238 343.619C425.565 342.968 425.953 342.35 426.396 341.773C426.396 341.668 425.368 342.234 424.872 343.462C424.694 343.813 424.593 344.199 424.576 344.592C424.56 344.986 424.628 345.378 424.776 345.743Z" fill="#263238"/>
<path d="M408.32 346.832C408.596 347.002 408.887 347.145 409.191 347.258C410.042 347.588 410.915 347.858 411.803 348.068C414.757 348.727 417.78 349.02 420.806 348.939C424.341 348.939 427.528 348.747 429.835 348.651L432.569 348.503C432.903 348.502 433.235 348.467 433.562 348.399C433.23 348.349 432.895 348.335 432.56 348.355H429.826L420.806 348.529C417.808 348.605 414.81 348.36 411.864 347.798C409.661 347.337 408.346 346.753 408.32 346.832Z" fill="#263238"/>
<path d="M407.623 347.363C408.217 347.129 408.798 346.864 409.365 346.57C410.752 345.909 412.296 345.65 413.823 345.821C415.323 346.151 416.676 346.958 417.68 348.12C418.101 348.612 418.555 349.074 419.038 349.505C418.725 348.932 418.339 348.402 417.889 347.929C417.423 347.384 416.897 346.893 416.322 346.466C415.604 345.931 414.768 345.578 413.884 345.438C412.284 345.238 410.661 345.542 409.243 346.309C408.652 346.575 408.106 346.93 407.623 347.363Z" fill="#263238"/>
<path d="M386.3 329.983C386.3 329.983 364.018 344.594 363.148 345.194C361.946 346.065 363.33 350.419 365.411 349.678C366.395 349.321 385.115 344.115 387.127 343.331C389.138 342.547 394.563 338.107 394.563 338.107L386.3 329.983Z" fill="#687C94"/>
<path d="M379.691 341.538C379.476 340.596 378.948 339.755 378.193 339.152C377.531 338.449 376.644 337.999 375.686 337.881C376.466 338.353 377.217 338.873 377.932 339.439C378.557 340.106 379.144 340.806 379.691 341.538Z" fill="#263238"/>
<path d="M381.676 339.727C381.396 338.908 380.939 338.161 380.337 337.539C379.735 336.918 379.003 336.437 378.193 336.131C378.132 336.226 379.116 336.818 380.074 337.811C381.032 338.804 381.572 339.779 381.676 339.727Z" fill="#263238"/>
<path d="M383.688 338.438C383.62 337.539 383.28 336.682 382.712 335.982C382.144 335.282 381.375 334.772 380.51 334.52C381.185 335.049 381.817 335.631 382.399 336.262C382.883 336.953 383.314 337.681 383.688 338.438Z" fill="#263238"/>
<path d="M382.364 335.661C382.416 335.661 382.112 335.034 381.859 333.998C381.708 333.39 381.621 332.769 381.598 332.143C381.576 331.778 381.576 331.411 381.598 331.046C381.604 330.882 381.645 330.722 381.72 330.576C381.752 330.527 381.801 330.493 381.858 330.48C381.915 330.467 381.975 330.476 382.025 330.506C382.286 330.611 382.416 331.037 382.538 331.377C382.647 331.72 382.719 332.073 382.756 332.43C382.813 333.052 382.792 333.677 382.695 334.294C382.538 335.347 382.329 336.035 382.39 336.035C382.688 335.516 382.886 334.946 382.974 334.355C383.11 333.72 383.157 333.069 383.113 332.422C383.084 332.032 383.014 331.647 382.904 331.272C382.841 331.074 382.769 330.879 382.686 330.689C382.587 330.455 382.408 330.263 382.181 330.149C382.047 330.087 381.895 330.074 381.752 330.112C381.609 330.15 381.483 330.237 381.398 330.358C381.28 330.562 381.217 330.793 381.215 331.028C381.189 331.411 381.189 331.795 381.215 332.178C381.259 332.822 381.379 333.459 381.572 334.076C381.715 334.656 381.986 335.198 382.364 335.661Z" fill="#263238"/>
<path d="M382.303 335.425C382.303 335.486 382.86 335.216 383.757 334.999C384.283 334.873 384.819 334.8 385.359 334.781C385.665 334.758 385.973 334.778 386.274 334.842C386.408 334.857 386.533 334.916 386.63 335.011C386.726 335.106 386.788 335.23 386.805 335.364C386.81 335.505 386.779 335.644 386.713 335.768C386.647 335.892 386.55 335.996 386.43 336.07C386.168 336.233 385.868 336.329 385.56 336.348C385.029 336.394 384.495 336.341 383.984 336.192C383.511 336.008 383.025 335.863 382.529 335.756C382.939 336.075 383.406 336.311 383.905 336.453C384.443 336.659 385.02 336.745 385.594 336.705C385.952 336.685 386.298 336.577 386.604 336.392C386.782 336.279 386.926 336.122 387.023 335.935C387.119 335.748 387.164 335.539 387.153 335.33C387.127 335.108 387.027 334.901 386.869 334.743C386.711 334.585 386.504 334.485 386.282 334.459C385.947 334.395 385.604 334.378 385.264 334.407C384.699 334.443 384.14 334.548 383.6 334.72C383.123 334.86 382.68 335.1 382.303 335.425Z" fill="#263238"/>
<path d="M368.285 348.861C368.285 348.861 368.659 348.634 368.833 347.99C369.01 347.159 368.86 346.293 368.415 345.569C368.193 345.18 367.943 344.808 367.667 344.455C367.453 344.151 367.198 343.879 366.909 343.645C366.707 343.474 366.458 343.368 366.195 343.34C366.012 343.34 365.916 343.34 365.916 343.401C366.216 343.491 366.493 343.645 366.726 343.854C366.967 344.102 367.183 344.373 367.37 344.664C367.597 345.004 367.849 345.36 368.067 345.761C368.468 346.412 368.639 347.178 368.555 347.938C368.481 348.25 368.391 348.558 368.285 348.861Z" fill="#263238"/>
<path d="M376.295 342.879C376.292 342.096 376.015 341.338 375.513 340.737C375.011 340.136 374.314 339.73 373.544 339.588C374.139 340.004 374.695 340.473 375.207 340.989C375.622 341.587 375.986 342.219 376.295 342.879Z" fill="#263238"/>
<path d="M392.299 338.917C391.957 339.115 391.631 339.339 391.324 339.587C390.44 340.203 389.521 340.767 388.572 341.276C387.166 342.02 385.712 342.669 384.219 343.218C382.53 343.854 380.631 344.446 378.629 345.029C374.615 346.178 370.984 347.241 368.363 348.024L365.255 348.982C364.873 349.084 364.5 349.218 364.14 349.383C364.532 349.328 364.919 349.244 365.298 349.13L368.433 348.259C371.045 347.545 374.719 346.518 378.742 345.369C380.745 344.785 382.651 344.185 384.349 343.523C385.848 342.95 387.303 342.269 388.703 341.485C389.649 340.953 390.554 340.35 391.411 339.683C391.733 339.459 392.03 339.202 392.299 338.917Z" fill="#263238"/>
<path d="M393.126 339.222C392.527 338.954 391.889 338.783 391.237 338.717C389.653 338.417 388.016 338.617 386.552 339.291C385.75 339.699 385.059 340.297 384.541 341.033C384.124 341.613 383.774 342.238 383.496 342.896C383.206 343.483 382.998 344.107 382.878 344.751C383.207 344.19 383.498 343.609 383.748 343.009C384.349 341.595 385.394 340.415 386.726 339.648C388.128 339.017 389.679 338.794 391.202 339.004C392.386 339.117 393.117 339.283 393.126 339.222Z" fill="#263238"/>
<path d="M332.786 242.939L351.071 244.68L358.507 246.787C361.681 247.69 364.587 249.355 366.97 251.637L390.923 274.633L395.277 238.934L407.249 239.97L405.246 285.943C404.364 288.714 402.623 291.131 400.274 292.845C397.926 294.559 395.093 295.481 392.186 295.477C388.586 295.429 385.14 294.012 382.547 291.516L365.49 275.477L364.985 298.394L376.818 307.972L331.184 333.397C331.184 333.397 328.711 323.68 329.834 302.051C330.043 298.081 322.764 286.03 322.207 282.486C320.074 268.86 320.404 248.929 320.404 248.929L332.786 242.939Z" fill="#687C94"/>
<path d="M321.545 248.494C321.545 248.494 312.289 251.933 310.052 259.178C308.067 265.612 301.44 301.764 301.44 301.764L294.867 340.075L308.633 340.598L324.471 275.382L321.545 248.494Z" fill="#687C94"/>
<path d="M320.927 290.758C321.051 290.512 321.144 290.252 321.205 289.983C321.362 289.478 321.571 288.738 321.815 287.824C322.311 285.987 322.947 283.47 323.556 280.623C324.166 277.776 324.706 275.234 325.045 273.362C325.211 272.43 325.341 271.672 325.42 271.15C325.481 270.879 325.508 270.601 325.498 270.323C325.391 270.58 325.312 270.849 325.263 271.124C325.132 271.725 324.967 272.447 324.767 273.309C324.34 275.251 323.783 277.759 323.173 280.536L321.519 287.754C321.327 288.625 321.171 289.348 321.031 289.949C320.966 290.214 320.931 290.485 320.927 290.758Z" fill="#263238"/>
<path d="M405.159 243.374C405.405 242.805 405.527 242.191 405.516 241.571C405.639 240.962 405.639 240.335 405.516 239.725C405.269 240.297 405.147 240.914 405.159 241.537C405.036 242.143 405.036 242.768 405.159 243.374Z" fill="#263238"/>
<path d="M401.659 243.478C401.889 242.867 401.99 242.215 401.955 241.563C402.048 240.915 402.016 240.256 401.859 239.621C401.629 240.235 401.528 240.89 401.563 241.545C401.47 242.19 401.502 242.846 401.659 243.478Z" fill="#263238"/>
<path d="M398.185 243.261C398.41 242.57 398.516 241.846 398.498 241.119C398.607 240.401 398.58 239.668 398.42 238.96C398.187 239.649 398.081 240.375 398.107 241.102C397.998 241.82 398.025 242.552 398.185 243.261Z" fill="#263238"/>
<path d="M391.454 280.1C391.541 279.045 391.497 277.984 391.324 276.94C391.282 275.88 391.106 274.83 390.801 273.814C390.715 274.869 390.759 275.93 390.932 276.975C390.97 278.035 391.145 279.085 391.454 280.1Z" fill="#263238"/>
<path d="M306.369 336.575C306.063 337.171 305.883 337.822 305.838 338.49C305.66 339.136 305.609 339.81 305.69 340.475C305.995 339.88 306.176 339.228 306.221 338.56C306.399 337.914 306.449 337.24 306.369 336.575Z" fill="#263238"/>
<path d="M301.841 336.566C301.56 337.107 301.394 337.7 301.353 338.308C301.192 338.894 301.156 339.509 301.249 340.11C301.541 339.573 301.711 338.979 301.745 338.369C301.901 337.781 301.933 337.167 301.841 336.566Z" fill="#263238"/>
<path d="M297.548 336.131C297.295 336.759 297.142 337.423 297.096 338.098C296.922 338.751 296.849 339.426 296.878 340.101C297.23 339.514 297.439 338.851 297.487 338.168C297.66 337.502 297.681 336.806 297.548 336.131Z" fill="#263238"/>
<path d="M314.118 252.952C314.118 253.03 315.076 252.952 316.565 253.283C318.5 253.694 320.298 254.593 321.789 255.895C323.276 257.211 324.405 258.883 325.071 260.753C325.585 262.19 325.655 263.148 325.724 263.139C325.766 262.915 325.766 262.684 325.724 262.46C325.654 261.851 325.525 261.251 325.341 260.666C324.736 258.707 323.599 256.953 322.059 255.599C320.512 254.246 318.624 253.343 316.599 252.987C315.996 252.885 315.383 252.841 314.771 252.856C314.55 252.857 314.33 252.889 314.118 252.952Z" fill="#263238"/>
<path d="M363.548 285.246C363.47 285.246 363.905 284.114 364.34 282.277C365.474 277.455 365.205 272.41 363.565 267.736C362.939 265.951 362.39 264.906 362.46 264.872C362.529 264.837 362.651 265.107 362.912 265.568C363.273 266.232 363.59 266.918 363.862 267.623C365.706 272.321 365.981 277.489 364.645 282.355C364.454 283.086 364.209 283.802 363.914 284.497C363.826 284.762 363.703 285.014 363.548 285.246Z" fill="#263238"/>
<path d="M364.715 297.88C364.454 297.931 364.188 297.949 363.922 297.933C363.417 297.933 362.677 297.933 361.772 297.837C357.02 297.43 352.392 296.106 348.145 293.936C347.335 293.518 346.691 293.152 346.264 292.874C346.028 292.752 345.811 292.597 345.62 292.412C345.62 292.351 346.639 292.891 348.284 293.649C352.562 295.638 357.125 296.942 361.807 297.515C362.782 297.587 363.752 297.709 364.715 297.88Z" fill="#263238"/>
<g opacity="0.2">
<path opacity="0.2" d="M344.515 291.507C345.942 292.796 348.171 292.979 350.087 292.944C352.003 292.909 353.918 292.526 355.842 292.561C356.801 292.522 357.758 292.676 358.656 293.016C359.554 293.356 360.374 293.873 361.067 294.537C361.49 294.961 361.754 295.518 361.815 296.113C361.836 296.409 361.763 296.703 361.607 296.955C361.45 297.206 361.219 297.402 360.945 297.515C360.585 297.606 360.208 297.606 359.848 297.515C354.458 296.4 348.668 295.138 344.497 291.551" fill="black"/>
</g>
<g opacity="0.2">
<path opacity="0.2" d="M326.883 293.213C328.302 292.804 328.528 291.141 328.624 289.67C329.191 283.575 328.004 277.445 325.202 272.003C324.532 275.999 323.417 280.17 322.59 284.245L326.883 293.213Z" fill="black"/>
</g>
<g opacity="0.3">
<path opacity="0.3" d="M390.549 274.145C389.777 275.082 389.234 276.186 388.962 277.369C388.69 278.552 388.697 279.783 388.981 280.963C389.077 281.354 389.251 281.781 389.634 281.894C389.796 281.927 389.964 281.914 390.118 281.855C390.272 281.797 390.406 281.695 390.505 281.563C390.686 281.302 390.811 281.005 390.871 280.693C391.381 278.473 391.339 276.162 390.749 273.962" fill="black"/>
</g>
<path d="M414.006 336.244C414.006 336.244 359.29 300.327 357.053 299.578C354.815 298.829 349.399 295.286 343.992 296.775C338.585 298.263 333.726 303.131 331.297 310.218C328.868 317.306 328.685 333.188 328.685 333.188C328.685 333.188 332.977 345.7 341.38 348.312C342.098 348.533 342.827 348.717 343.565 348.86C348.605 349.793 353.809 349.206 358.515 347.173C363.22 345.14 367.215 341.754 369.991 337.445L371.219 335.582C371.219 335.582 407.014 348.73 407.571 348.547L414.006 336.244Z" fill="#263238"/>
<path d="M432.665 294.354C434.645 295.144 436.343 296.507 437.541 298.27C438.739 300.033 439.382 302.114 439.387 304.246C439.439 318.621 410.34 334.503 410.34 334.503L371.611 308.834V306.118C371.611 306.118 421.485 288.19 432.665 294.354Z" fill="#263238"/>
<path d="M346.308 326.335L346.613 326.475L347.484 326.832L350.966 328.164L363.862 333.022C369.338 335.06 375.895 337.489 383.252 340.171C390.61 342.853 398.768 345.787 407.484 348.73L407.641 348.782L407.719 348.634L411.994 340.476L414.171 336.314L414.258 336.148L414.102 336.053L372.377 309.557L359.839 301.651L356.434 299.526L355.564 298.978L355.259 298.804L355.546 299.013L356.417 299.587L359.787 301.773L372.255 309.783L413.927 336.383L413.858 336.131L411.681 340.293L407.38 348.434L407.615 348.338C398.908 345.395 390.749 342.47 383.383 339.814L363.957 332.761L351.027 328.025L347.544 326.753L346.674 326.431L346.308 326.335Z" fill="#455A64"/>
<path d="M391.228 321.773C391.582 321.569 391.919 321.339 392.238 321.085C392.874 320.632 393.779 319.944 394.85 319.091C397.07 317.35 400.074 314.946 403.331 312.125C406.587 309.304 409.426 306.718 411.463 304.785C412.482 303.819 413.292 303.044 413.84 302.469C414.158 302.208 414.45 301.916 414.711 301.598C414.381 301.835 414.069 302.097 413.779 302.382L411.315 304.602C409.243 306.483 406.361 309.06 403.122 311.838C399.883 314.616 396.896 317.062 394.72 318.856L392.107 320.946C391.792 321.197 391.498 321.474 391.228 321.773Z" fill="#455A64"/>
<path d="M421.738 299.727C420.484 299.526 419.199 299.643 418.002 300.066C416.767 300.357 415.626 300.956 414.685 301.808C414.746 301.912 416.156 301.007 418.115 300.441C420.075 299.875 421.738 299.849 421.738 299.727Z" fill="#455A64"/>
<path d="M418.394 297.463C417.5 297.845 416.714 298.443 416.106 299.202C415.499 299.962 415.088 300.86 414.911 301.816C415.025 301.816 415.451 300.641 416.426 299.448C417.402 298.255 418.464 297.558 418.394 297.463Z" fill="#455A64"/>
<path d="M434.798 342.983C434.798 342.939 434.337 342.844 433.797 343.288C433.169 343.879 432.773 344.676 432.683 345.534C432.556 346.378 432.677 347.24 433.031 348.016C433.309 348.599 433.605 348.886 433.64 348.886C433.675 348.886 433.484 348.521 433.292 347.946C433.035 347.2 432.96 346.402 433.074 345.621C433.161 344.846 433.48 344.115 433.989 343.523C434.398 343.061 434.807 343.044 434.798 342.983Z" fill="#263238"/>
<path d="M322.668 214.85C322.13 214.325 321.491 213.917 320.789 213.649C320.087 213.381 319.338 213.259 318.588 213.292C317.837 213.325 317.101 213.511 316.426 213.838C315.75 214.166 315.148 214.629 314.658 215.198C313.597 216.611 312.957 218.295 312.812 220.056C312.667 221.807 312.325 223.537 311.793 225.211C311.523 226.051 311.046 226.809 310.408 227.418C309.769 228.026 308.988 228.465 308.136 228.694C306.83 228.938 305.28 228.537 304.279 229.408C303.894 229.825 303.662 230.361 303.621 230.927C303.58 231.493 303.732 232.057 304.053 232.525C304.73 233.444 305.662 234.144 306.734 234.536C307.144 234.719 307.605 234.98 307.605 235.407C307.605 235.99 306.856 236.199 306.316 236.426C304.697 237.114 304.227 239.421 305.132 240.936C305.633 241.663 306.311 242.252 307.101 242.646C307.891 243.04 308.769 243.228 309.651 243.191C311.413 243.098 313.145 242.701 314.771 242.016C314.471 242.365 314.301 242.808 314.292 243.269C314.282 243.73 314.433 244.179 314.719 244.541C315.02 244.891 315.404 245.159 315.836 245.32C316.269 245.482 316.735 245.531 317.192 245.464C318.102 245.308 318.942 244.873 319.595 244.219C320.859 242.923 321.684 241.263 321.954 239.473C322.229 237.697 322.334 235.898 322.268 234.101C322.297 227.693 322.754 221.293 323.635 214.945" fill="#263238"/>
<path d="M341.162 202.486C344.562 202.644 347.77 204.106 350.12 206.567C352.471 209.028 353.784 212.3 353.787 215.703C353.787 221.18 353.709 227.135 353.361 230.67C352.551 238.89 346.395 240.292 346.395 240.292C346.395 240.292 346.587 245.403 346.865 250.244C347.126 254.859 343.382 258.951 338.402 259.317C333.517 259.709 329.329 256.365 328.998 251.794L327.344 216.33C327.258 214.49 327.558 212.652 328.223 210.934C328.888 209.217 329.903 207.656 331.206 206.354C332.508 205.051 334.067 204.034 335.785 203.368C337.502 202.702 339.339 202.401 341.179 202.486H341.162Z" fill="#FFA681"/>
<path d="M351.916 219.29C351.93 219.429 351.916 219.569 351.876 219.702C351.835 219.836 351.768 219.96 351.679 220.067C351.59 220.174 351.48 220.262 351.356 220.326C351.232 220.39 351.097 220.429 350.958 220.44C350.826 220.459 350.692 220.452 350.563 220.418C350.434 220.385 350.313 220.326 350.207 220.244C350.101 220.163 350.013 220.062 349.948 219.945C349.882 219.829 349.841 219.701 349.826 219.569C349.807 219.296 349.895 219.026 350.073 218.818C350.25 218.609 350.502 218.479 350.775 218.454C350.905 218.433 351.038 218.438 351.166 218.469C351.293 218.5 351.414 218.556 351.52 218.634C351.626 218.711 351.716 218.81 351.784 218.922C351.852 219.035 351.896 219.16 351.916 219.29Z" fill="#263238"/>
<path d="M351.889 217.671C351.767 217.819 350.94 217.279 349.817 217.348C348.694 217.418 347.91 218.027 347.779 217.897C347.649 217.766 347.832 217.592 348.171 217.305C348.64 216.943 349.208 216.73 349.799 216.695C350.384 216.665 350.965 216.814 351.463 217.122C351.828 217.374 351.95 217.61 351.889 217.671Z" fill="#263238"/>
<path d="M340.213 219.909C340.23 220.18 340.142 220.447 339.967 220.655C339.791 220.862 339.543 220.994 339.273 221.023C339.141 221.041 339.007 221.033 338.878 220.999C338.75 220.965 338.629 220.906 338.524 220.825C338.419 220.744 338.331 220.643 338.265 220.527C338.199 220.412 338.157 220.284 338.141 220.152C338.121 219.881 338.209 219.612 338.384 219.404C338.56 219.196 338.81 219.064 339.081 219.038C339.213 219.02 339.347 219.028 339.475 219.062C339.604 219.096 339.724 219.155 339.829 219.236C339.935 219.317 340.023 219.418 340.089 219.534C340.155 219.649 340.197 219.777 340.213 219.909Z" fill="#263238"/>
<path d="M340.187 218.777C340.065 218.925 339.247 218.385 338.123 218.455C337 218.524 336.208 219.134 336.077 219.003C335.947 218.872 336.129 218.69 336.478 218.411C336.941 218.044 337.507 217.831 338.097 217.802C338.683 217.765 339.265 217.914 339.76 218.228C340.117 218.472 340.248 218.698 340.187 218.777Z" fill="#263238"/>
<path d="M344.767 226.874C345.346 226.648 345.952 226.499 346.569 226.43C346.856 226.386 347.118 226.317 347.161 226.116C347.17 225.808 347.085 225.504 346.917 225.246L345.942 223.112C345.044 221.31 344.292 219.437 343.696 217.514C344.733 219.243 345.632 221.051 346.386 222.921C346.717 223.67 347.031 224.384 347.327 225.071C347.529 225.405 347.606 225.8 347.544 226.186C347.507 226.29 347.447 226.385 347.369 226.463C347.29 226.541 347.196 226.601 347.092 226.639C346.936 226.688 346.775 226.72 346.613 226.734C346.005 226.853 345.385 226.899 344.767 226.874Z" fill="#263238"/>
<path d="M346.404 240.301C342.548 240.461 338.717 239.618 335.285 237.854C335.285 237.854 338.324 243.705 346.508 242.643L346.404 240.301Z" fill="#995037"/>
<path d="M336.486 215.651C336.617 215.851 337.436 215.512 338.454 215.285C339.473 215.059 340.361 215.006 340.396 214.771C340.431 214.536 339.473 214.197 338.271 214.467C337.07 214.737 336.347 215.477 336.486 215.651Z" fill="#263238"/>
<path d="M347.614 213.63C347.666 213.857 348.589 213.831 349.695 213.848C350.801 213.866 351.724 213.909 351.785 213.683C351.846 213.456 350.914 213.012 349.704 213.004C348.493 212.995 347.553 213.413 347.614 213.63Z" fill="#263238"/>
<path d="M329.416 247.536C329.338 245.847 331.227 238.516 331.985 234.014C332.742 229.512 329.791 228.79 329.32 226.125C329.099 224.35 329.401 222.549 330.191 220.945C334.492 222.486 336.19 219.421 338.541 217.61C341.031 215.677 341.58 213.309 342.599 210.322C343.617 207.335 344.81 205.481 347.954 205.185C349.866 206.245 351.345 207.943 352.133 209.982C353.091 212.777 353.874 223.679 353.874 223.679C354.31 218.454 358.55 216.26 357.401 208.563C356.904 205.246 354.153 200.727 349.904 200.048C348.668 199.847 346.334 199.699 346.334 199.699C343.8 197.418 342.564 197.488 340.135 196.408C334.91 194.083 328.589 198.237 325.115 202.79C322.433 206.273 321.136 211.036 320.404 215.494C319.942 218.59 319.874 221.732 320.204 224.845C320.378 226.7 320.152 229.051 318.323 230.479C315.711 232.508 315.032 236.374 316.834 241.528C318.637 246.683 311.993 255.46 311.993 255.46C313.846 253.951 315.827 252.608 317.914 251.446C320.587 250.044 329.416 247.536 329.416 247.536Z" fill="#263238"/>
<path d="M343.408 229.556C343.215 229.346 342.971 229.189 342.7 229.099C342.429 229.009 342.139 228.99 341.859 229.042C341.654 229.078 341.459 229.155 341.284 229.267C341.109 229.379 340.958 229.524 340.84 229.695C340.727 229.859 340.667 230.053 340.667 230.252C340.667 230.451 340.727 230.646 340.84 230.81C341.003 230.965 341.208 231.068 341.43 231.107C341.651 231.145 341.879 231.118 342.085 231.027C342.512 230.835 342.899 230.563 343.226 230.226C343.326 230.144 343.408 230.044 343.469 229.93C343.504 229.879 343.522 229.818 343.522 229.756C343.522 229.694 343.504 229.633 343.469 229.582" fill="#995037"/>
<path d="M340.944 228.128C341.092 228.128 341.171 229.12 342.094 229.773C343.017 230.426 344.079 230.235 344.096 230.374C344.114 230.514 343.87 230.592 343.417 230.635C342.825 230.69 342.232 230.533 341.746 230.191C341.29 229.858 340.978 229.362 340.875 228.807C340.779 228.389 340.875 228.128 340.944 228.128Z" fill="#263238"/>
<path d="M305.428 225.829C305.431 226.208 305.46 226.586 305.515 226.961C305.589 227.396 305.733 227.817 305.942 228.206C306.219 228.715 306.644 229.128 307.161 229.39C307.468 229.551 307.806 229.642 308.152 229.659C308.497 229.675 308.843 229.616 309.163 229.486C309.515 229.304 309.82 229.042 310.053 228.722C310.285 228.401 310.44 228.031 310.504 227.64C310.671 226.754 310.718 225.849 310.644 224.95C310.644 224.009 310.557 223.025 310.557 222.015C310.459 220.093 310.836 218.176 311.654 216.434C311.987 215.715 312.47 215.076 313.071 214.56C313.672 214.043 314.376 213.661 315.136 213.439C316.165 213.143 317.266 213.23 318.236 213.683C318.571 213.853 318.867 214.09 319.107 214.379C318.804 214.155 318.483 213.954 318.149 213.778C317.193 213.379 316.127 213.327 315.136 213.63C314.411 213.858 313.743 214.237 313.174 214.741C312.605 215.245 312.15 215.864 311.837 216.556C311.055 218.263 310.697 220.132 310.792 222.007C310.792 223.017 310.844 223.992 310.879 224.941C310.948 225.864 310.892 226.793 310.713 227.701C310.636 228.127 310.46 228.529 310.2 228.875C309.94 229.221 309.603 229.502 309.216 229.695C308.865 229.831 308.489 229.89 308.113 229.868C307.737 229.845 307.371 229.742 307.039 229.564C306.495 229.275 306.054 228.825 305.776 228.276C305.568 227.87 305.432 227.431 305.376 226.978C305.329 226.595 305.347 226.207 305.428 225.829Z" fill="#263238"/>
<path d="M317.435 243.487C317.272 243.372 317.125 243.234 317 243.078C316.654 242.604 316.435 242.05 316.364 241.467C316.251 240.541 316.415 239.602 316.835 238.768C317.415 237.693 318.182 236.729 319.098 235.921C320.204 234.969 321.197 233.894 322.059 232.717C322.929 231.281 323.294 229.595 323.095 227.928C322.853 226.082 322.713 224.225 322.677 222.364C322.701 221.358 322.932 220.368 323.356 219.456C323.827 218.523 324.567 217.752 325.481 217.244C327.309 216.208 329.355 215.921 331.027 214.998C332.608 214.046 333.86 212.633 334.614 210.949C335.415 209.373 335.99 207.771 336.73 206.369C337.369 205.015 338.307 203.825 339.473 202.886C340.444 202.112 341.653 201.7 342.895 201.719C343.828 201.771 344.719 202.129 345.429 202.738C345.879 203.115 346.217 203.609 346.404 204.166C346.459 204.305 346.494 204.452 346.508 204.601C346.508 204.706 346.508 204.758 346.508 204.758C346.508 204.758 346.508 204.549 346.334 204.183C346.133 203.647 345.79 203.174 345.342 202.816C344.641 202.242 343.774 201.91 342.869 201.867C341.669 201.87 340.507 202.285 339.577 203.043C338.444 203.959 337.533 205.12 336.913 206.439C336.19 207.832 335.624 209.425 334.815 211.027C334.043 212.762 332.758 214.218 331.132 215.198C329.39 216.156 327.361 216.434 325.603 217.444C324.731 217.922 324.027 218.654 323.583 219.543C323.178 220.421 322.953 221.371 322.921 222.338C322.957 224.19 323.094 226.038 323.33 227.875C323.53 229.585 323.157 231.312 322.268 232.786C321.387 233.972 320.373 235.053 319.246 236.008C318.339 236.796 317.576 237.736 316.991 238.785C316.575 239.589 316.4 240.496 316.486 241.398C316.548 242.184 316.884 242.923 317.435 243.487Z" fill="#455A64"/>
<path d="M319.612 218.777C319.221 217.952 319.111 217.022 319.298 216.129C319.485 215.236 319.959 214.429 320.648 213.831C320.305 214.609 320.014 215.409 319.777 216.225C319.66 217.071 319.605 217.923 319.612 218.777Z" fill="#FAFAFA"/>
<path d="M322.442 243.897C321.837 248.26 322.734 252.7 324.984 256.487C325.735 257.86 326.8 259.036 328.093 259.918C328.74 260.356 329.479 260.642 330.253 260.752C331.027 260.862 331.816 260.794 332.56 260.553C333.298 260.293 333.928 259.792 334.347 259.13C334.765 258.468 334.949 257.684 334.867 256.905C334.519 254.728 331.837 253.361 331.819 251.15C332.795 251.742 334.118 252.308 334.971 251.55C335.233 251.266 335.403 250.91 335.461 250.528C335.518 250.147 335.46 249.756 335.294 249.408C334.943 248.72 334.497 248.084 333.97 247.519C332.986 246.255 332.269 244.804 331.862 243.255C331.455 241.707 331.367 240.091 331.602 238.507C331.732 237.636 331.968 234.902 331.985 234.014C332.002 233.126 331.741 234.014 331.114 233.431C330.766 233.161 330.358 232.978 329.925 232.897C329.492 232.817 329.046 232.842 328.624 232.969C327.786 233.24 327.029 233.716 326.421 234.354C325.402 235.358 324.605 236.565 324.083 237.897C323.561 239.229 323.325 240.656 323.391 242.085" fill="#263238"/>
<path d="M423.714 76.9524C423.235 77.0144 422.751 77.0391 422.268 77.0262C421.368 77.0262 420.121 77.061 418.713 77.0653H418.614V76.9697C418.587 76.7786 418.557 76.5787 418.531 76.3788C418.288 74.6408 418.096 73.1027 417.975 72.1034L418.044 72.1642C417.609 72.1758 417.173 72.1511 416.741 72.0903C417.173 72.0328 417.609 72.0096 418.044 72.0208H418.105V72.0817C418.266 73.0767 418.501 74.6191 418.74 76.3484C418.77 76.5483 418.796 76.7481 418.822 76.935L418.713 76.8394C420.121 76.8394 421.368 76.8394 422.268 76.8785C422.751 76.8656 423.235 76.8903 423.714 76.9524Z" fill="#263238"/>
<path d="M418.566 75.914C418.693 75.8905 418.823 75.8789 418.952 75.8792L420.021 75.8488C420.938 75.8488 422.224 75.8141 423.715 75.8097L423.606 75.8966L423.954 73.9066C424.019 73.5503 424.08 73.1984 424.14 72.8638L424.249 72.9942C422.511 72.9942 420.995 72.9942 419.904 72.9551L418.601 72.9247C418.444 72.9312 418.288 72.9165 418.136 72.8812C418.289 72.8519 418.445 72.8388 418.601 72.8421L419.904 72.8073C420.999 72.8073 422.511 72.7769 424.249 72.7726H424.384V72.9029C424.323 73.2375 424.262 73.5894 424.201 73.9457C424.075 74.6409 423.954 75.31 423.845 75.9357V76.027H423.754C422.263 76.027 420.977 76.027 420.06 75.9878L418.992 75.9574C418.848 75.963 418.705 75.9484 418.566 75.914Z" fill="#263238"/>
<path d="M419.96 78.3123C419.926 78.3123 419.926 78.1168 419.717 77.9778C419.66 77.941 419.594 77.9183 419.526 77.9115C419.458 77.9047 419.39 77.914 419.326 77.9387C419.252 77.9682 419.188 78.0194 419.143 78.0857C419.098 78.1519 419.074 78.2301 419.074 78.3101C419.074 78.3902 419.098 78.4684 419.143 78.5346C419.188 78.6009 419.252 78.6521 419.326 78.6816C419.39 78.7063 419.458 78.7156 419.526 78.7088C419.594 78.702 419.66 78.6793 419.717 78.6425C419.926 78.5078 419.926 78.3036 419.96 78.3123C419.995 78.321 419.995 78.3558 419.991 78.4427C419.975 78.571 419.911 78.6887 419.813 78.7729C419.737 78.8365 419.646 78.8795 419.548 78.8978C419.451 78.916 419.35 78.9089 419.257 78.8772C419.138 78.8366 419.036 78.7601 418.963 78.6584C418.891 78.5568 418.852 78.435 418.852 78.3101C418.852 78.1853 418.891 78.0635 418.963 77.9619C419.036 77.8602 419.138 77.7837 419.257 77.7431C419.35 77.7114 419.451 77.7043 419.548 77.7225C419.646 77.7408 419.737 77.7838 419.813 77.8474C419.911 77.9316 419.975 78.0493 419.991 78.1776C419.995 78.2645 419.978 78.3123 419.96 78.3123Z" fill="#263238"/>
<path d="M423.18 78.3123C423.145 78.3123 423.145 78.1168 422.937 77.9778C422.879 77.941 422.814 77.9183 422.746 77.9115C422.678 77.9047 422.609 77.914 422.546 77.9387C422.471 77.9682 422.407 78.0194 422.363 78.0857C422.318 78.1519 422.294 78.2301 422.294 78.3101C422.294 78.3902 422.318 78.4684 422.363 78.5346C422.407 78.6009 422.471 78.6521 422.546 78.6816C422.609 78.7063 422.678 78.7156 422.746 78.7088C422.814 78.702 422.879 78.6793 422.937 78.6425C423.145 78.5078 423.145 78.3036 423.18 78.3123C423.215 78.321 423.215 78.3558 423.21 78.4427C423.194 78.571 423.131 78.6887 423.032 78.7729C422.956 78.8365 422.865 78.8795 422.768 78.8978C422.67 78.916 422.57 78.9089 422.476 78.8772C422.357 78.8379 422.254 78.7622 422.181 78.6608C422.107 78.5594 422.068 78.4375 422.068 78.3123C422.068 78.1868 422.108 78.0645 422.181 77.9625C422.254 77.8604 422.357 77.7838 422.476 77.7431C422.57 77.7114 422.67 77.7043 422.768 77.7225C422.865 77.7408 422.956 77.7838 423.032 77.8474C423.131 77.9316 423.194 78.0493 423.21 78.1776C423.215 78.2645 423.197 78.3123 423.18 78.3123Z" fill="#263238"/>
<path d="M372.383 77.4824C370.951 77.5943 369.514 77.632 368.077 77.5954C366.641 77.6321 365.204 77.5944 363.772 77.4824C365.204 77.3678 366.641 77.3301 368.077 77.3694C369.514 77.3302 370.951 77.3679 372.383 77.4824Z" fill="#263238"/>
<path d="M372.383 75.8532C370.951 75.9677 369.514 76.0054 368.077 75.9662C366.641 76.0056 365.204 75.9678 363.772 75.8532C365.204 75.7413 366.641 75.7036 368.077 75.7403C369.514 75.7037 370.951 75.7414 372.383 75.8532Z" fill="#263238"/>
<path d="M372.383 74.2107C370.951 74.3225 369.514 74.3602 368.077 74.3236C366.641 74.3604 365.204 74.3226 363.772 74.2107C365.204 74.0987 366.641 74.061 368.077 74.0977C369.514 74.0611 370.951 74.0988 372.383 74.2107Z" fill="#263238"/>
<path d="M386.735 100.628C386.735 100.628 380.956 100.55 379.683 102.44C378.41 104.33 373.165 116.092 373.165 116.092L381.364 120.358L383.128 115.318L386.005 125.855C382.711 128.462 378.045 152.198 378.975 162.196L409.772 162.296C409.772 162.296 409.985 134.558 401.655 125.438L403.606 114.423L405.488 119.798L414.177 116.192L407.638 104.43C407.092 103.448 406.295 102.63 405.328 102.058C404.362 101.486 403.261 101.182 402.138 101.175H400.004C400.004 101.175 399.105 109.048 393.382 108.896C387.66 108.744 386.735 100.628 386.735 100.628Z" fill="#687C94"/>
<path d="M401.812 125.481C401.812 125.546 398.336 125.681 393.991 125.785C389.646 125.89 386.17 125.924 386.17 125.864C386.17 125.803 389.646 125.664 393.991 125.559C398.336 125.455 401.812 125.42 401.812 125.481Z" fill="#263238"/>
<path d="M380.552 108.18C381.105 109.43 381.591 110.71 382.007 112.012C382.49 113.293 382.905 114.598 383.25 115.922C382.692 114.672 382.206 113.391 381.794 112.086C381.307 110.808 380.892 109.504 380.552 108.18Z" fill="#263238"/>
<path d="M404.427 108.714C404.439 109.133 404.412 109.552 404.345 109.965C404.262 110.735 404.123 111.79 403.936 112.955C403.75 114.119 403.55 115.171 403.389 115.927C403.324 116.34 403.219 116.746 403.076 117.139C403.09 116.721 403.142 116.305 403.232 115.896L403.715 112.92C403.893 111.795 404.054 110.778 404.188 109.944C404.23 109.527 404.31 109.116 404.427 108.714Z" fill="#263238"/>
<path d="M387.86 131.012C387.752 130.75 387.695 130.47 387.69 130.187C387.584 128.814 387.923 127.443 388.655 126.276C388.79 126.027 388.972 125.806 389.19 125.625C388.168 127.223 387.7 129.113 387.86 131.004V131.012Z" fill="#263238"/>
<path d="M390.202 128.579C389.996 128.14 389.912 127.654 389.959 127.171C389.928 126.687 390.025 126.203 390.241 125.768C390.248 126.238 390.229 126.708 390.184 127.176C390.167 127.945 390.267 128.566 390.202 128.579Z" fill="#263238"/>
<path d="M403.697 155.027C403.606 155.002 403.519 154.965 403.437 154.918C403.271 154.831 403.002 154.727 402.715 154.545C401.846 154.05 401.036 153.458 400.299 152.781C399.208 151.777 398.254 150.633 397.462 149.379C396.493 147.843 395.719 146.192 395.159 144.464C393.982 140.78 393.708 137.265 393.543 134.762C393.469 133.506 393.434 132.485 393.413 131.781C393.413 131.451 393.413 131.182 393.413 130.973C393.401 130.88 393.401 130.785 393.413 130.691C393.431 130.783 393.443 130.876 393.447 130.969C393.447 131.178 393.482 131.447 393.504 131.777C393.556 132.507 393.626 133.515 393.708 134.749C393.912 137.247 394.212 140.741 395.381 144.395C395.933 146.105 396.693 147.741 397.645 149.266C398.418 150.512 399.349 151.654 400.412 152.663C401.132 153.344 401.92 153.948 402.763 154.467C403.358 154.831 403.706 155.027 403.697 155.027Z" fill="#263238"/>
<path d="M410.793 88.7706C410.793 88.8314 403.45 88.8835 394.399 88.8835C385.349 88.8835 378.006 88.8314 378.006 88.7706C378.006 88.7097 385.344 88.6576 394.399 88.6576C403.454 88.6576 410.793 88.7054 410.793 88.7706Z" fill="#263238"/>
<path d="M406.326 84.2258H381.899V85.6162H406.326V84.2258Z" fill="#687C94"/>
<path d="M284.971 48.1686C284.971 48.2588 274.8 48.325 262.263 48.325C249.726 48.325 239.555 48.2588 239.555 48.1686C239.555 48.0783 249.72 48.0121 262.263 48.0121C274.806 48.0121 284.971 48.0843 284.971 48.1686Z" fill="#263238"/>
<path d="M285.464 55.555C285.464 55.6453 275.293 55.7115 262.756 55.7115C250.219 55.7115 240.048 55.6453 240.048 55.555C240.048 55.4648 250.213 55.3986 262.756 55.3986C275.299 55.3986 285.464 55.4708 285.464 55.555Z" fill="#263238"/>
<path d="M285.464 62.9415C285.464 63.0318 275.293 63.098 262.756 63.098C250.219 63.098 240.048 63.0318 240.048 62.9415C240.048 62.8512 250.213 62.785 262.756 62.785C275.299 62.785 285.464 62.8572 285.464 62.9415Z" fill="#263238"/>
<path d="M284.971 51.9181C284.971 52.0023 274.8 52.0746 262.263 52.0746C249.726 52.0746 239.555 52.0023 239.555 51.9181C239.555 51.8338 249.72 51.7616 262.263 51.7616C274.806 51.7616 284.971 51.8338 284.971 51.9181Z" fill="#263238"/>
<path d="M285.464 59.3047C285.464 59.3889 275.293 59.4612 262.756 59.4612C250.219 59.4612 240.048 59.3889 240.048 59.3047C240.048 59.2204 250.213 59.1482 262.756 59.1482C275.299 59.1482 285.464 59.2204 285.464 59.3047Z" fill="#263238"/>
<path d="M285.464 66.6912C285.464 66.7754 275.293 66.8476 262.756 66.8476C250.219 66.8476 240.048 66.7754 240.048 66.6912C240.048 66.6069 250.213 66.5347 262.756 66.5347C275.299 66.5347 285.464 66.6069 285.464 66.6912Z" fill="#263238"/>
<path d="M245.071 77.6494V82.8656H243.865V78.6148H242.818V77.6542L245.071 77.6494Z" fill="black"/>
<path d="M245.959 80.2574C245.959 78.533 246.92 77.558 248.197 77.558C249.475 77.558 250.436 78.5186 250.436 80.2574C250.436 81.9961 249.475 82.9567 248.197 82.9567C246.92 82.9567 245.959 81.9769 245.959 80.2574ZM249.221 80.2574C249.221 79.071 248.803 78.581 248.197 78.581C247.592 78.581 247.184 79.0614 247.184 80.2574C247.184 81.4533 247.602 81.9336 248.197 81.9336C248.793 81.9336 249.24 81.4437 249.24 80.2574H249.221Z" fill="black"/>
<path d="M253.783 78.7926C253.799 78.9416 253.782 79.0921 253.734 79.2339C253.685 79.3757 253.607 79.5054 253.504 79.614C253.401 79.7226 253.275 79.8076 253.136 79.8632C252.997 79.9187 252.847 79.9435 252.698 79.9357C252.493 79.941 252.29 79.8895 252.112 79.7868L252.294 79.4266C252.411 79.5026 252.549 79.5396 252.688 79.5323C252.77 79.5382 252.852 79.5263 252.928 79.4973C253.005 79.4683 253.074 79.423 253.131 79.3644C253.189 79.3059 253.232 79.2355 253.259 79.1583C253.287 79.0811 253.297 78.9989 253.289 78.9175C253.144 79.0463 252.954 79.1136 252.76 79.1048C252.669 79.1127 252.576 79.1016 252.489 79.0723C252.401 79.043 252.321 78.996 252.252 78.9343C252.184 78.8726 252.129 78.7975 252.091 78.7136C252.052 78.6297 252.032 78.5389 252.03 78.4467C252.032 78.3461 252.055 78.247 252.098 78.1557C252.14 78.0643 252.201 77.9827 252.276 77.916C252.351 77.8492 252.44 77.7988 252.535 77.7678C252.631 77.7368 252.732 77.7259 252.832 77.7359C253.423 77.7359 253.783 78.1057 253.783 78.7926ZM253.236 78.4227C253.236 78.2402 253.097 78.1057 252.861 78.1057C252.817 78.101 252.772 78.1057 252.73 78.1195C252.687 78.1333 252.648 78.1559 252.615 78.1858C252.582 78.2157 252.555 78.2523 252.537 78.2931C252.519 78.334 252.51 78.3781 252.511 78.4227C252.51 78.4683 252.52 78.5134 252.538 78.5549C252.557 78.5965 252.584 78.6336 252.618 78.6637C252.652 78.6938 252.693 78.7161 252.736 78.7292C252.78 78.7424 252.826 78.7459 252.871 78.7397C252.916 78.7444 252.961 78.7397 253.005 78.726C253.048 78.7124 253.088 78.69 253.122 78.6603C253.156 78.6306 253.184 78.5942 253.204 78.5533C253.223 78.5124 253.234 78.468 253.236 78.4227Z" fill="#263238"/>
<path d="M255.714 78.7926C255.73 78.9416 255.713 79.0921 255.665 79.2339C255.616 79.3757 255.538 79.5054 255.435 79.614C255.332 79.7226 255.206 79.8076 255.067 79.8632C254.928 79.9187 254.778 79.9435 254.629 79.9357C254.423 79.941 254.221 79.8895 254.043 79.7868L254.225 79.4266C254.344 79.5033 254.483 79.5403 254.624 79.5323C254.705 79.5375 254.787 79.525 254.863 79.4957C254.939 79.4664 255.007 79.4209 255.064 79.3625C255.121 79.304 255.164 79.2339 255.191 79.1571C255.218 79.0802 255.227 78.9985 255.22 78.9175C255.075 79.0463 254.885 79.1136 254.691 79.1048C254.599 79.1127 254.507 79.1016 254.42 79.0723C254.332 79.043 254.252 78.996 254.183 78.9343C254.115 78.8726 254.06 78.7975 254.022 78.7136C253.983 78.6297 253.963 78.5389 253.961 78.4467C253.963 78.3461 253.986 78.247 254.029 78.1557C254.071 78.0643 254.132 77.9827 254.207 77.916C254.282 77.8492 254.371 77.7988 254.466 77.7678C254.562 77.7368 254.663 77.7259 254.763 77.7359C255.354 77.7359 255.714 78.1057 255.714 78.7926ZM255.162 78.4227C255.172 78.3491 255.159 78.2742 255.125 78.208C255.091 78.1419 255.038 78.0877 254.972 78.0527C254.907 78.0177 254.832 78.0035 254.758 78.0121C254.684 78.0207 254.615 78.0516 254.559 78.1007C254.503 78.1498 254.464 78.2147 254.446 78.2868C254.428 78.359 254.432 78.4349 254.459 78.5043C254.485 78.5738 254.532 78.6336 254.593 78.6756C254.655 78.7177 254.727 78.7401 254.802 78.7397C254.847 78.7444 254.892 78.7397 254.935 78.726C254.978 78.7123 255.017 78.6898 255.051 78.6601C255.085 78.6303 255.112 78.5938 255.131 78.553C255.15 78.5121 255.161 78.4678 255.162 78.4227Z" fill="#263238"/>
<path d="M255.695 80.6609H251.968V81.1316H255.695V80.6609Z" fill="#263238"/>
<path d="M221.982 72.7708C224.055 71.912 225.04 69.5352 224.181 67.4621C223.322 65.3889 220.946 64.4044 218.872 65.2631C216.799 66.1218 215.815 68.4986 216.674 70.5718C217.532 72.645 219.909 73.6295 221.982 72.7708Z" fill="#687C94"/>
<path d="M219.401 71.296C219.468 71.2212 219.543 71.1544 219.625 71.0966C219.776 70.9727 219.994 70.8003 220.266 70.5901C220.805 70.1671 221.57 69.5905 222.422 68.96C222.422 69.1863 222.422 69.022 222.422 69.0732L222.403 69.057L222.362 69.0274L222.284 68.9708L222.131 68.8522L221.829 68.6259L221.258 68.1948L220.296 67.4592L219.655 66.9527C219.573 66.8937 219.498 66.8259 219.431 66.7506C219.523 66.7914 219.609 66.8439 219.687 66.9069L220.355 67.3784L221.336 68.0924L221.91 68.5154L222.214 68.7418L222.37 68.8576L222.449 68.9169L222.486 68.9438L222.508 68.96C222.508 69.0112 222.508 68.8495 222.508 69.0732C221.665 69.7037 220.891 70.2668 220.336 70.6682L219.668 71.1398C219.586 71.2036 219.497 71.2561 219.401 71.296Z" fill="#FAFAFA"/>
<path d="M156.529 70.03C156.894 67.7793 155.366 65.6585 153.115 65.2932C150.864 64.9279 148.744 66.4562 148.378 68.707C148.013 70.9577 149.541 73.0784 151.792 73.4437C154.043 73.8091 156.164 72.2807 156.529 70.03Z" fill="#687C94"/>
<path d="M153.495 67.0463C153.427 67.1237 153.351 67.1926 153.267 67.2516C153.117 67.3748 152.892 67.55 152.616 67.7663C152.068 68.1961 151.293 68.7793 150.425 69.409V69.2967L150.447 69.3104L150.486 69.3405L150.565 69.4008L150.724 69.5185L151.031 69.7485L151.611 70.1865L152.586 70.9367C152.859 71.1502 153.087 71.3255 153.237 71.4514C153.321 71.509 153.398 71.5771 153.464 71.654C153.372 71.6119 153.284 71.5585 153.204 71.4952L152.525 71.0161L151.532 70.2933L150.946 69.8607L150.639 69.6307L150.48 69.5158L150.401 69.4555L150.36 69.4254L150.341 69.4117V69.2967C151.198 68.6588 151.983 68.0866 152.545 67.676C152.818 67.4898 153.037 67.3283 153.223 67.1968C153.307 67.1356 153.398 67.085 153.495 67.0463Z" fill="#FAFAFA"/>
<path d="M167.275 116.908H152.803V131.38H167.275V116.908Z" fill="#F6376D"/>
<path d="M185.632 116.908H171.16V131.38H185.632V116.908Z" fill="#F6376D"/>
<path d="M203.995 116.908H189.523V131.38H203.995V116.908Z" fill="#F6376D"/>
<path d="M222.352 116.908H207.88V131.38H222.352V116.908Z" fill="#F6376D"/>
<path d="M306.454 17.8606C305.974 17.9226 305.491 17.9473 305.007 17.9344C304.108 17.9344 302.861 17.9692 301.453 17.9735H301.353V17.8779C301.327 17.6868 301.297 17.4869 301.27 17.287C301.027 15.549 300.836 14.0109 300.714 13.0116L300.784 13.0724C300.348 13.084 299.912 13.0593 299.48 12.9986C299.912 12.941 300.348 12.9178 300.784 12.929H300.845V12.9899C301.005 13.9849 301.24 15.5273 301.479 17.2566C301.509 17.4565 301.536 17.6563 301.562 17.8432L301.453 17.7476C302.861 17.7476 304.108 17.7476 305.007 17.7867C305.491 17.7738 305.974 17.7985 306.454 17.8606Z" fill="#263238"/>
<path d="M301.305 16.8219C301.433 16.7985 301.562 16.7869 301.692 16.7872L302.761 16.7568C303.678 16.7568 304.964 16.722 306.454 16.7177L306.345 16.8046L306.693 14.8146C306.758 14.4583 306.819 14.1063 306.88 13.7718L306.988 13.9021C305.25 13.9021 303.734 13.9021 302.644 13.863L301.34 13.8326C301.184 13.8391 301.027 13.8245 300.875 13.7892C301.028 13.7599 301.184 13.7468 301.34 13.7501L302.644 13.7153C303.738 13.7153 305.25 13.6849 306.988 13.6805H307.123V13.8109C307.062 14.1455 307.002 14.4974 306.941 14.8537C306.815 15.5489 306.693 16.218 306.584 16.8437V16.9349H306.493C305.003 16.9349 303.717 16.9349 302.8 16.8958L301.731 16.8654C301.588 16.8709 301.444 16.8563 301.305 16.8219Z" fill="#263238"/>
<path d="M302.7 19.2204C302.665 19.2204 302.665 19.0249 302.457 18.8858C302.399 18.8491 302.334 18.8263 302.266 18.8196C302.198 18.8128 302.129 18.8221 302.066 18.8467C301.991 18.8763 301.927 18.9275 301.882 18.9937C301.837 19.06 301.813 19.1382 301.813 19.2182C301.813 19.2983 301.837 19.3765 301.882 19.4427C301.927 19.509 301.991 19.5602 302.066 19.5897C302.129 19.6144 302.198 19.6237 302.266 19.6169C302.334 19.6101 302.399 19.5874 302.457 19.5506C302.665 19.4159 302.665 19.2117 302.7 19.2204C302.735 19.2291 302.735 19.2639 302.73 19.3508C302.714 19.4791 302.651 19.5968 302.552 19.681C302.476 19.7446 302.385 19.7876 302.288 19.8058C302.19 19.8241 302.09 19.817 301.996 19.7852C301.878 19.7446 301.775 19.6682 301.703 19.5665C301.63 19.4649 301.591 19.3431 301.591 19.2182C301.591 19.0934 301.63 18.9716 301.703 18.8699C301.775 18.7683 301.878 18.6918 301.996 18.6512C302.09 18.6195 302.19 18.6124 302.288 18.6306C302.385 18.6489 302.476 18.6919 302.552 18.7555C302.651 18.8396 302.714 18.9573 302.73 19.0857C302.735 19.1726 302.717 19.2204 302.7 19.2204Z" fill="#263238"/>
<path d="M305.92 19.2204C305.885 19.2204 305.885 19.0249 305.676 18.8858C305.619 18.8491 305.553 18.8263 305.485 18.8196C305.417 18.8128 305.349 18.8221 305.285 18.8467C305.211 18.8763 305.147 18.9275 305.102 18.9937C305.057 19.06 305.033 19.1382 305.033 19.2182C305.033 19.2983 305.057 19.3765 305.102 19.4427C305.147 19.509 305.211 19.5602 305.285 19.5897C305.349 19.6144 305.417 19.6237 305.485 19.6169C305.553 19.6101 305.619 19.5874 305.676 19.5506C305.885 19.4159 305.885 19.2117 305.92 19.2204C305.954 19.2291 305.954 19.2639 305.95 19.3508C305.934 19.4791 305.87 19.5968 305.772 19.681C305.696 19.7446 305.605 19.7876 305.507 19.8058C305.41 19.8241 305.31 19.817 305.216 19.7852C305.097 19.746 304.993 19.6703 304.92 19.5689C304.847 19.4675 304.807 19.3455 304.807 19.2204C304.808 19.0948 304.847 18.9726 304.921 18.8705C304.994 18.7685 305.097 18.6919 305.216 18.6512C305.31 18.6195 305.41 18.6124 305.507 18.6306C305.605 18.6489 305.696 18.6919 305.772 18.7555C305.87 18.8396 305.934 18.9573 305.95 19.0857C305.954 19.1726 305.937 19.2204 305.92 19.2204Z" fill="#263238"/>
<path d="M162.792 18.3906C161.359 18.5025 159.922 18.5402 158.486 18.5036C157.05 18.5403 155.612 18.5026 154.18 18.3906C155.612 18.276 157.05 18.2383 158.486 18.2776C159.922 18.2384 161.36 18.2761 162.792 18.3906Z" fill="#263238"/>
<path d="M162.792 16.7614C161.36 16.8759 159.922 16.9136 158.486 16.8744C157.05 16.9138 155.612 16.8761 154.18 16.7614C155.612 16.6495 157.05 16.6118 158.486 16.6485C159.922 16.6119 161.359 16.6496 162.792 16.7614Z" fill="#263238"/>
<path d="M162.792 15.1187C161.359 15.2306 159.922 15.2683 158.486 15.2317C157.05 15.2684 155.612 15.2307 154.18 15.1187C155.612 15.0068 157.05 14.9691 158.486 15.0058C159.922 14.9692 161.359 15.0069 162.792 15.1187Z" fill="#263238"/>
<path d="M177.143 36.9194C177.143 36.9194 171.364 36.8412 170.091 38.7312C168.818 40.6213 163.574 52.3831 163.574 52.3831L171.773 56.6499L173.537 51.6097L176.413 62.1462C173.12 64.7532 168.453 88.4897 169.383 98.4874L200.18 98.5874C200.18 98.5874 200.393 70.8492 192.064 61.7291L194.015 50.7146L195.896 56.0893L204.586 52.483L198.047 40.7212C197.501 39.7399 196.703 38.9214 195.737 38.3495C194.77 37.7777 193.669 37.473 192.546 37.4669H190.413C190.413 37.4669 189.513 45.3399 183.791 45.1879C178.069 45.0358 177.143 36.9194 177.143 36.9194Z" fill="#687C94"/>
<path d="M192.22 71.006C192.22 71.0712 188.744 71.2059 184.399 71.3102C180.054 71.4144 176.578 71.4492 176.578 71.3884C176.578 71.3275 180.054 71.1885 184.399 71.0842C188.744 70.9799 192.22 70.9452 192.22 71.006Z" fill="#263238"/>
<path d="M170.96 53.7043C171.513 54.9549 171.999 56.2342 172.416 57.5366C172.898 58.8173 173.313 60.1226 173.658 61.4471C173.1 60.197 172.614 58.916 172.203 57.6105C171.716 56.3328 171.301 55.0287 170.96 53.7043Z" fill="#263238"/>
<path d="M194.836 54.2386C194.848 54.6574 194.82 55.0764 194.753 55.49C194.671 56.259 194.532 57.3149 194.345 58.4793C194.158 59.6438 193.958 60.6952 193.797 61.4513C193.732 61.8645 193.628 62.2705 193.484 62.6635C193.498 62.2453 193.55 61.8293 193.641 61.4209L194.123 58.4446C194.301 57.3192 194.462 56.3025 194.597 55.4683C194.639 55.0519 194.719 54.6403 194.836 54.2386Z" fill="#263238"/>
<path d="M178.268 76.5372C178.161 76.275 178.103 75.995 178.099 75.7116C177.993 74.3384 178.331 72.9675 179.064 71.8012C179.199 71.5519 179.38 71.3307 179.598 71.1494C178.576 72.7478 178.109 74.6381 178.268 76.5285V76.5372Z" fill="#263238"/>
<path d="M180.61 74.1039C180.405 73.6648 180.321 73.1787 180.367 72.6961C180.336 72.2116 180.434 71.7275 180.65 71.2927C180.657 71.7627 180.638 72.2326 180.593 72.7005C180.576 73.4695 180.676 74.0909 180.61 74.1039Z" fill="#263238"/>
<path d="M194.106 100.552C194.015 100.527 193.927 100.49 193.845 100.443C193.68 100.356 193.411 100.252 193.124 100.069C192.255 99.5741 191.444 98.9823 190.708 98.3052C189.617 97.3011 188.663 96.1572 187.871 94.9031C186.901 93.3675 186.128 91.7167 185.568 89.989C184.39 86.3044 184.117 82.7894 183.952 80.2867C183.878 79.031 183.843 78.0099 183.821 77.306C183.821 76.9758 183.821 76.7064 183.821 76.4979C183.81 76.4041 183.81 76.3092 183.821 76.2155C183.84 76.3072 183.851 76.4001 183.856 76.4935C183.856 76.7021 183.891 76.9715 183.913 77.3017C183.965 78.0316 184.034 79.0397 184.117 80.2736C184.321 82.772 184.621 86.2653 185.79 89.9194C186.342 91.6297 187.102 93.2655 188.053 94.7901C188.827 96.0363 189.757 97.1782 190.821 98.1879C191.54 98.8683 192.328 99.4725 193.172 99.991C193.767 100.356 194.115 100.552 194.106 100.552Z" fill="#263238"/>
<path d="M278.375 35.0141C278.375 35.0749 271.032 35.1271 261.981 35.1271C252.931 35.1271 245.588 35.0749 245.588 35.0141C245.588 34.9533 252.926 34.9011 261.981 34.9011C271.036 34.9011 278.375 34.9489 278.375 35.0141Z" fill="#263238"/>
<path d="M273.908 30.4692H249.481V31.8596H273.908V30.4692Z" fill="#687C94"/>
<path d="M259.437 197.589H219.735V201.282H259.437V197.589Z" fill="#687C94"/>
<path d="M265.399 90.4844H240.971V91.8748H265.399V90.4844Z" fill="#687C94"/>
<path d="M265.399 94.1776H240.971V95.568H265.399V94.1776Z" fill="#687C94"/>
<path d="M264.977 99.7174H240.971V106.181H264.977V99.7174Z" fill="#F6376D"/>
<path d="M273.287 238.676C273.287 238.942 258.192 239.137 239.586 239.137C220.981 239.137 205.885 238.942 205.885 238.676C205.885 238.409 220.972 238.214 239.586 238.214C258.201 238.214 273.287 238.427 273.287 238.676Z" fill="#687C94"/>
<path d="M273.287 228.519C273.287 228.786 258.192 228.981 239.586 228.981C220.981 228.981 205.885 228.786 205.885 228.519C205.885 228.253 220.972 228.058 239.586 228.058C258.201 228.058 273.287 228.271 273.287 228.519Z" fill="#687C94"/>
<path d="M273.287 218.363C273.287 218.629 258.192 218.825 239.586 218.825C220.981 218.825 205.885 218.629 205.885 218.363C205.885 218.097 220.972 217.901 239.586 217.901C258.201 217.901 273.287 218.114 273.287 218.363Z" fill="#687C94"/>
<path d="M273.287 244.216C273.287 244.464 258.192 244.677 239.586 244.677C220.981 244.677 205.885 244.464 205.885 244.216C205.885 243.967 220.972 243.754 239.586 243.754C258.201 243.754 273.287 243.967 273.287 244.216Z" fill="#687C94"/>
<path d="M273.287 234.059C273.287 234.308 258.192 234.521 239.586 234.521C220.981 234.521 205.885 234.308 205.885 234.059C205.885 233.811 220.972 233.598 239.586 233.598C258.201 233.598 273.287 233.811 273.287 234.059Z" fill="#687C94"/>
<path d="M273.287 223.903C273.287 224.151 258.192 224.364 239.586 224.364C220.981 224.364 205.885 224.151 205.885 223.903C205.885 223.654 220.972 223.441 239.586 223.441C258.201 223.441 273.287 223.654 273.287 223.903Z" fill="#687C94"/>
<path d="M210.642 264.456V269.955H209.372V265.474H208.268V264.461L210.642 264.456Z" fill="black"/>
<path d="M211.579 267.205C211.579 265.388 212.592 264.36 213.939 264.36C215.285 264.36 216.298 265.372 216.298 267.205C216.298 269.038 215.285 270.051 213.939 270.051C212.592 270.051 211.579 269.018 211.579 267.205ZM215.017 267.205C215.017 265.955 214.577 265.438 213.939 265.438C213.301 265.438 212.87 265.945 212.87 267.205C212.87 268.466 213.311 268.972 213.939 268.972C214.566 268.972 215.037 268.456 215.037 267.205H215.017Z" fill="black"/>
<path d="M219.827 265.661C219.844 265.818 219.826 265.977 219.775 266.127C219.724 266.276 219.641 266.413 219.533 266.527C219.424 266.642 219.292 266.731 219.145 266.79C218.998 266.848 218.841 266.875 218.683 266.866C218.467 266.872 218.253 266.818 218.065 266.709L218.258 266.33C218.381 266.41 218.526 266.449 218.673 266.441C218.759 266.447 218.845 266.435 218.926 266.404C219.007 266.374 219.08 266.326 219.14 266.264C219.2 266.202 219.246 266.128 219.275 266.047C219.304 265.965 219.314 265.879 219.306 265.793C219.153 265.929 218.953 266 218.749 265.99C218.652 265.999 218.555 265.987 218.462 265.956C218.37 265.925 218.286 265.876 218.213 265.811C218.141 265.746 218.083 265.666 218.043 265.578C218.003 265.49 217.981 265.394 217.979 265.297C217.982 265.191 218.006 265.086 218.05 264.99C218.095 264.894 218.159 264.808 218.238 264.737C218.318 264.667 218.411 264.614 218.512 264.581C218.613 264.548 218.719 264.537 218.825 264.547C219.448 264.547 219.827 264.937 219.827 265.661ZM219.25 265.271C219.25 265.079 219.103 264.937 218.855 264.937C218.808 264.932 218.761 264.937 218.716 264.952C218.672 264.966 218.631 264.99 218.596 265.022C218.561 265.053 218.533 265.092 218.514 265.135C218.495 265.178 218.485 265.224 218.486 265.271C218.485 265.319 218.495 265.367 218.515 265.411C218.534 265.455 218.563 265.494 218.599 265.525C218.635 265.557 218.677 265.581 218.723 265.595C218.769 265.608 218.818 265.612 218.865 265.606C218.913 265.61 218.961 265.606 219.006 265.591C219.052 265.577 219.094 265.553 219.13 265.522C219.166 265.491 219.195 265.452 219.216 265.409C219.237 265.366 219.248 265.319 219.25 265.271Z" fill="#263238"/>
<path d="M221.863 265.661C221.879 265.818 221.861 265.977 221.81 266.127C221.76 266.276 221.677 266.413 221.568 266.527C221.459 266.642 221.327 266.731 221.181 266.79C221.034 266.848 220.876 266.875 220.719 266.866C220.502 266.872 220.288 266.818 220.101 266.709L220.293 266.33C220.418 266.411 220.565 266.45 220.714 266.441C220.799 266.447 220.885 266.433 220.965 266.403C221.045 266.372 221.117 266.324 221.177 266.262C221.237 266.2 221.283 266.127 221.311 266.046C221.339 265.965 221.35 265.878 221.341 265.793C221.189 265.929 220.989 266 220.784 265.99C220.688 265.999 220.59 265.987 220.498 265.956C220.406 265.925 220.321 265.876 220.249 265.811C220.177 265.746 220.119 265.666 220.078 265.578C220.038 265.49 220.016 265.394 220.015 265.297C220.017 265.191 220.041 265.086 220.086 264.99C220.13 264.894 220.194 264.808 220.274 264.737C220.353 264.667 220.446 264.614 220.547 264.581C220.648 264.548 220.755 264.537 220.86 264.547C221.483 264.547 221.863 264.937 221.863 265.661ZM221.281 265.271C221.291 265.194 221.277 265.115 221.242 265.045C221.206 264.975 221.15 264.918 221.08 264.881C221.011 264.844 220.933 264.83 220.855 264.839C220.777 264.848 220.704 264.88 220.645 264.932C220.586 264.984 220.544 265.052 220.526 265.128C220.507 265.204 220.512 265.284 220.539 265.357C220.567 265.431 220.617 265.494 220.681 265.538C220.746 265.582 220.823 265.606 220.901 265.606C220.948 265.611 220.996 265.606 221.041 265.591C221.086 265.577 221.128 265.553 221.164 265.522C221.2 265.49 221.228 265.452 221.248 265.409C221.269 265.366 221.279 265.319 221.281 265.271Z" fill="#263238"/>
<path d="M221.843 267.631H217.913V268.127H221.843V267.631Z" fill="#263238"/>
<path d="M161.374 246.387C163.559 245.482 164.597 242.976 163.692 240.791C162.787 238.605 160.281 237.567 158.096 238.472C155.91 239.378 154.872 241.883 155.778 244.069C156.683 246.254 159.188 247.292 161.374 246.387Z" fill="#687C94"/>
<path d="M158.653 244.832C158.723 244.753 158.802 244.683 158.889 244.622C159.048 244.491 159.278 244.309 159.565 244.088C160.133 243.642 160.94 243.034 161.837 242.369C161.837 242.608 161.837 242.435 161.837 242.489L161.817 242.472L161.775 242.441L161.692 242.381L161.53 242.256L161.212 242.017L160.61 241.563L159.596 240.787L158.92 240.253C158.834 240.191 158.755 240.12 158.684 240.04C158.781 240.083 158.872 240.139 158.954 240.205L159.659 240.702L160.692 241.455L161.297 241.901L161.618 242.139L161.783 242.262L161.866 242.324L161.905 242.352L161.928 242.369C161.928 242.423 161.928 242.253 161.928 242.489C161.039 243.153 160.224 243.747 159.639 244.17L158.934 244.667C158.848 244.735 158.754 244.79 158.653 244.832Z" fill="#FAFAFA"/>
<path d="M86.8346 243.498C87.2198 241.125 85.6086 238.889 83.2359 238.504C80.8633 238.119 78.6276 239.73 78.2425 242.103C77.8574 244.476 79.4686 246.711 81.8412 247.096C84.2139 247.482 86.4495 245.87 86.8346 243.498Z" fill="#687C94"/>
<path d="M83.6361 240.352C83.5653 240.434 83.4849 240.506 83.3966 240.569C83.2378 240.699 83.0012 240.883 82.7097 241.111C82.1324 241.564 81.3157 242.179 80.4007 242.843V242.725L80.4238 242.739L80.4642 242.771L80.5479 242.834L80.7153 242.958L81.0386 243.201L81.6504 243.663L82.6779 244.453C82.9665 244.678 83.2061 244.863 83.3648 244.996C83.4534 245.057 83.5339 245.128 83.6044 245.21C83.5065 245.165 83.4144 245.109 83.3302 245.042L82.6144 244.537L81.5667 243.775L80.9491 243.319L80.6259 243.077L80.4585 242.955L80.3748 242.892L80.3315 242.86L80.3113 242.846V242.725C81.2146 242.052 82.043 241.449 82.6346 241.016C82.9232 240.82 83.1541 240.649 83.3504 240.511C83.4387 240.446 83.5346 240.393 83.6361 240.352Z" fill="#FAFAFA"/>
<path d="M100.628 290.843H79.3918V312.079H100.628V290.843Z" fill="#F6376D"/>
<path d="M126.481 290.843H106.168V312.079H126.481V290.843Z" fill="#F6376D"/>
<path d="M153.257 290.843H132.944V312.079H153.257V290.843Z" fill="#F6376D"/>
<path d="M180.033 290.843H158.797V312.079H180.033V290.843Z" fill="#F6376D"/>
<path d="M300.281 192.195C299.775 192.26 299.265 192.286 298.756 192.273C297.808 192.273 296.493 192.31 295.009 192.314H294.904V192.213C294.876 192.012 294.844 191.801 294.817 191.59C294.56 189.758 294.359 188.137 294.23 187.083L294.304 187.147C293.844 187.16 293.385 187.134 292.93 187.07C293.385 187.009 293.844 186.984 294.304 186.996H294.368V187.06C294.537 188.109 294.785 189.735 295.037 191.558C295.069 191.769 295.096 191.98 295.124 192.177L295.009 192.076C296.493 192.076 297.808 192.076 298.756 192.117C299.265 192.104 299.775 192.13 300.281 192.195Z" fill="#263238"/>
<path d="M294.853 191.1C294.988 191.075 295.124 191.063 295.261 191.063L296.388 191.031C297.354 191.031 298.71 190.995 300.281 190.99L300.166 191.082L300.533 188.984C300.602 188.608 300.666 188.237 300.73 187.885L300.844 188.022C299.012 188.022 297.414 188.022 296.264 187.981L294.89 187.949C294.725 187.956 294.56 187.94 294.4 187.903C294.561 187.872 294.726 187.858 294.89 187.862L296.264 187.825C297.418 187.825 299.012 187.793 300.844 187.788H300.986V187.926C300.922 188.279 300.858 188.65 300.794 189.025C300.661 189.758 300.533 190.463 300.418 191.123V191.219H300.322C298.751 191.219 297.395 191.219 296.429 191.178L295.302 191.146C295.151 191.152 295 191.136 294.853 191.1Z" fill="#263238"/>
<path d="M296.323 193.628C296.287 193.628 296.287 193.422 296.067 193.276C296.006 193.237 295.937 193.213 295.866 193.206C295.794 193.199 295.722 193.208 295.655 193.234C295.576 193.266 295.509 193.32 295.462 193.389C295.414 193.459 295.389 193.542 295.389 193.626C295.389 193.71 295.414 193.793 295.462 193.863C295.509 193.933 295.576 193.987 295.655 194.018C295.722 194.044 295.794 194.054 295.866 194.046C295.937 194.039 296.006 194.015 296.067 193.976C296.287 193.834 296.287 193.619 296.323 193.628C296.36 193.638 296.36 193.674 296.356 193.766C296.338 193.901 296.271 194.025 296.168 194.114C296.088 194.181 295.992 194.226 295.889 194.246C295.786 194.265 295.68 194.257 295.581 194.224C295.457 194.181 295.349 194.1 295.272 193.993C295.196 193.886 295.155 193.758 295.155 193.626C295.155 193.494 295.196 193.366 295.272 193.259C295.349 193.152 295.457 193.071 295.581 193.028C295.68 192.995 295.786 192.987 295.889 193.007C295.992 193.026 296.088 193.071 296.168 193.138C296.271 193.227 296.338 193.351 296.356 193.486C296.36 193.578 296.342 193.628 296.323 193.628Z" fill="#263238"/>
<path d="M299.718 193.628C299.681 193.628 299.681 193.422 299.461 193.276C299.4 193.237 299.332 193.213 299.26 193.206C299.188 193.199 299.116 193.208 299.049 193.234C298.97 193.266 298.903 193.32 298.856 193.389C298.808 193.459 298.783 193.542 298.783 193.626C298.783 193.71 298.808 193.793 298.856 193.863C298.903 193.933 298.97 193.987 299.049 194.018C299.116 194.044 299.188 194.054 299.26 194.046C299.332 194.039 299.4 194.015 299.461 193.976C299.681 193.834 299.681 193.619 299.718 193.628C299.754 193.638 299.754 193.674 299.75 193.766C299.732 193.901 299.666 194.025 299.562 194.114C299.482 194.181 299.386 194.226 299.283 194.246C299.18 194.265 299.075 194.257 298.976 194.224C298.85 194.182 298.741 194.103 298.664 193.996C298.587 193.889 298.545 193.76 298.545 193.628C298.546 193.496 298.587 193.367 298.664 193.26C298.742 193.152 298.85 193.071 298.976 193.028C299.075 192.995 299.18 192.987 299.283 193.007C299.386 193.026 299.482 193.071 299.562 193.138C299.666 193.227 299.732 193.351 299.75 193.486C299.754 193.578 299.736 193.628 299.718 193.628Z" fill="#263238"/>
<path d="M93.4368 192.754C91.9268 192.872 90.4117 192.911 88.8977 192.873C87.3836 192.912 85.8685 192.872 84.3585 192.754C85.8683 192.633 87.3836 192.593 88.8977 192.635C90.4117 192.593 91.927 192.633 93.4368 192.754Z" fill="#263238"/>
<path d="M93.4368 191.036C91.927 191.157 90.4117 191.197 88.8977 191.155C87.3836 191.197 85.8683 191.157 84.3585 191.036C85.8685 190.918 87.3836 190.879 88.8977 190.917C90.4117 190.879 91.9268 190.918 93.4368 191.036Z" fill="#263238"/>
<path d="M93.4368 189.305C91.9268 189.423 90.4117 189.462 88.8977 189.424C87.3836 189.462 85.8685 189.423 84.3585 189.305C85.8685 189.187 87.3836 189.147 88.8977 189.186C90.4117 189.147 91.9268 189.187 93.4368 189.305Z" fill="#263238"/>
<path d="M114.333 203.032C114.333 203.032 107.317 202.937 105.771 205.232C104.225 207.527 97.858 221.807 97.858 221.807L107.813 226.987L109.954 220.868L113.447 233.66C109.448 236.826 103.782 265.645 104.911 277.783L142.302 277.904C142.302 277.904 142.561 244.227 132.448 233.154L134.817 219.781L137.101 226.307L147.652 221.928L139.712 207.648C139.049 206.456 138.081 205.463 136.908 204.768C135.734 204.074 134.397 203.704 133.034 203.697H130.444C130.444 203.697 129.352 213.256 122.404 213.071C115.456 212.886 114.333 203.032 114.333 203.032Z" fill="#687C94"/>
<path d="M113.554 223.441C114.122 224.932 114.621 226.458 115.049 228.011C115.544 229.538 115.97 231.095 116.324 232.674C115.751 231.184 115.253 229.656 114.83 228.099C114.33 226.576 113.904 225.02 113.554 223.441Z" fill="#263238"/>
<path d="M130.17 223.441C130.187 223.946 130.149 224.451 130.058 224.95C129.945 225.877 129.755 227.15 129.501 228.553C129.246 229.957 128.973 231.225 128.754 232.136C128.665 232.634 128.523 233.124 128.327 233.598C128.346 233.093 128.417 232.592 128.541 232.1L129.198 228.512C129.441 227.155 129.661 225.929 129.844 224.924C129.901 224.422 130.01 223.925 130.17 223.441Z" fill="#263238"/>
<path d="M115.63 251.14C115.499 250.826 115.429 250.49 115.424 250.15C115.295 248.503 115.706 246.858 116.598 245.459C116.762 245.16 116.982 244.895 117.248 244.677C116.005 246.595 115.436 248.862 115.63 251.13V251.14Z" fill="#263238"/>
<path d="M133.867 276.07C133.761 276.039 133.659 275.995 133.563 275.938C133.371 275.832 133.056 275.706 132.722 275.484C131.709 274.883 130.764 274.165 129.905 273.343C128.632 272.124 127.52 270.735 126.596 269.212C125.466 267.348 124.564 265.344 123.911 263.246C122.538 258.773 122.219 254.505 122.026 251.467C121.94 249.942 121.9 248.703 121.874 247.848C121.874 247.447 121.874 247.12 121.874 246.867C121.861 246.753 121.861 246.638 121.874 246.524C121.896 246.635 121.909 246.748 121.915 246.862C121.915 247.115 121.955 247.442 121.981 247.843C122.041 248.729 122.123 249.953 122.219 251.451C122.457 254.484 122.807 258.725 124.169 263.162C124.813 265.238 125.7 267.224 126.809 269.075C127.711 270.588 128.796 271.974 130.037 273.2C130.876 274.026 131.794 274.76 132.778 275.389C133.472 275.832 133.877 276.07 133.867 276.07Z" fill="#263238"/>
<path d="M263.131 205.898H216.042V206.822H263.131V205.898Z" fill="#687C94"/>
<path d="M232.072 277.986H206.321V279.452H232.072V277.986Z" fill="#687C94"/>
<path d="M232.072 281.88H206.321V283.345H232.072V281.88Z" fill="#687C94"/>
<path d="M231.628 287.72H206.321V294.533H231.628V287.72Z" fill="#F6376D"/>
</svg>
