<svg width="72" height="86" fill="none" xmlns="http://www.w3.org/2000/svg"><path d="M50.146 60.21v-2.292a15.663 15.663 0 0 1 4.666-11.176 26.97 26.97 0 0 0 8.229-19.484C63.056 14.86 54.69 4.018 42.695.885a27.222 27.222 0 0 0-30.64 13.061 27.221 27.221 0 0 0 4.936 32.94 15.252 15.252 0 0 1 4.5 11.032v2.293A5.716 5.716 0 0 0 19.61 71.33a5.734 5.734 0 0 0-.313 5.896 5.734 5.734 0 0 0 5.06 3.043h1.576A7.178 7.178 0 0 0 32.953 86h5.731a7.177 7.177 0 0 0 7.02-5.731h1.577a5.732 5.732 0 0 0 4.745-8.94 5.717 5.717 0 0 0-1.88-11.118zM18.973 44.82a24.29 24.29 0 0 1-7.433-19.514c1.017-11.558 9.975-20.832 21.49-22.25a24.342 24.342 0 0 1 19.772 41.622 18.544 18.544 0 0 0-5.521 13.24v2.293H24.357v-2.293a18.128 18.128 0 0 0-5.384-13.098zm19.711 38.315h-5.73a4.299 4.299 0 0 1-4.035-2.866h13.8a4.297 4.297 0 0 1-4.035 2.865zm8.597-5.732H24.357a2.866 2.866 0 0 1 0-5.73H47.28a2.865 2.865 0 1 1 0 5.73zm2.865-8.596H21.491a2.866 2.866 0 0 1 0-5.73h28.655a2.865 2.865 0 1 1 0 5.73z" fill="#07074F"/><path d="M65.906 25.825h5.731v2.865h-5.73v-2.865zM61.16 10.971l4.962-2.865 1.433 2.482-4.963 2.865-1.432-2.482zM4.082 10.59l1.433-2.48 4.963 2.865-1.433 2.482-4.963-2.866zM0 25.825h5.731v2.865H0v-2.865zm4.084 18.099 4.964-2.865 1.432 2.482-4.964 2.865-1.432-2.482zm57.076-.382 1.432-2.481 4.963 2.865-1.433 2.482-4.962-2.866zm-31.216-2.75.745-1.491.913 2.737c.194.582.738.976 1.351.98h5.731c.616 0 1.163-.395 1.359-.98l.912-2.737.745 1.491c.243.486.74.793 1.282.793h5.097a2.865 2.865 0 0 0 2.684-3.869l-2.876-7.665a4.316 4.316 0 0 0-3.472-2.75v-8.375a7.067 7.067 0 0 0-1.233-4.02c-4.293-6.274-6.604-6.274-7.364-6.274-.758 0-3.07 0-7.36 6.272a7.071 7.071 0 0 0-1.236 4.022V27.3a4.316 4.316 0 0 0-3.471 2.747l-2.876 7.67a2.865 2.865 0 0 0 2.684 3.868h5.096a1.432 1.432 0 0 0 1.29-.793zm4.042-.64-.478-1.433h4.622l-.479 1.433h-3.665zm11.217-9.1 2.876 7.667h-4.211l-.125-.25c.413-.252.666-.699.672-1.182V30.25c.362.148.647.438.788.803zM30.088 18.927a4.228 4.228 0 0 1 .733-2.403c2.72-3.976 4.459-5.026 4.997-5.026.54 0 2.28 1.05 5 5.028.481.708.736 1.545.732 2.4v16.93h-4.3v-8.597h-2.865v8.596h-4.298V18.926zM23.559 38.72l2.875-7.668c.142-.363.427-.653.788-.8v7.036c.006.483.26.93.672 1.183l-.124.25h-4.21zm10.827 10.029h2.865v8.596h-2.865V48.75z" fill="#EF4351"/><path d="M40.117 45.883h2.865v8.597h-2.865v-8.597zm-11.462 0h2.865v8.597h-2.865v-8.597z" fill="#07074F"/></svg>