<svg width="76" height="76" fill="none" xmlns="http://www.w3.org/2000/svg"><g clip-path="url(#clip0)"><path d="M.861 70.95l.985 2.217L37.2 58.508l6.159.74 2.217 6.774-2.956 2.834c-1.109.985-1.478 2.586-.862 4.065L42.989 76l20.447-8.007-1.109-2.956c-.492-1.478-1.848-2.34-3.449-2.34h-4.065L52.596 57.4l5.42-2.71a3.702 3.702 0 001.848-4.557l-7.021-18.846c-.74-1.971-2.834-2.834-4.805-2.218 0 0-.122 0-.122.123l-5.174 2.217-.74-1.847 2.834-3.326a14.496 14.496 0 003.572-7.883l3.572-4.311c2.34-2.71 1.848-6.775-.862-9.116-.493-.37-.985-.739-1.478-.985-1.355-.616-2.71-.74-4.188-.37l-.37-1.109C44.466.492 42.25-.494 40.402.245L14.41 9.607c-1.971.74-2.956 2.833-2.217 4.68v.124l.616 1.601c-3.203 1.478-4.681 5.174-3.573 8.377.863 2.463 3.08 4.187 5.666 4.557l5.79.616c2.34 1.725 5.173 2.833 8.007 3.079l4.064.37.74 1.848c-.863.492-1.479 1.355-1.725 2.463l-.862 4.188L.86 53.705l.863 2.34 17.245-6.898 4.188 12.564L.86 70.95zm59.002-5.174l.247.74-15.767 6.281-.37-.739c-.123-.493 0-.985.247-1.354l4.188-3.942 5.297-1.725h4.927c.616 0 .986.246 1.232.74zm-7.76-2.956l-4.434 1.478-1.601-4.68c.739.122 1.354 0 1.97-.37l2.095-.985 1.97 4.557zm-3.325-31.78c.615-.247 1.355 0 1.601.616l.985 2.587-6.035 1.97.739 2.341 6.036-1.971 1.477 3.942-5.789 1.97.74 2.341 5.912-1.97 1.478 3.94-5.666 1.848.74 2.341 5.788-1.97.616 1.6c.247.616 0 1.232-.616 1.479l-9.73 4.803c-.248.124-.494.124-.74.124l-8.376-.986-4.558-13.672.863-4.558c.123-.37.369-.74.739-.863l13.796-5.912zm-.124-24.882c1.971.862 2.957 3.202 2.094 5.297-.123.369-.369.616-.615.985l-1.479 1.848c-.123-1.232-.37-2.34-.738-3.572l-1.602-4.804c.862-.124 1.602 0 2.34.246zM11.701 23.773c-.739-2.095.123-4.312 2.094-5.297l1.724 4.188a17.848 17.848 0 002.464 4.188l-2.587-.247c-1.724-.123-3.202-1.231-3.695-2.832zM29.192 30.3c-5.05-.493-9.485-3.696-11.332-8.5l-3.202-8.13c-.247-.615 0-1.354.615-1.6l25.99-9.362c.37-.123.616-.123.986 0 .246.123.493.37.616.74l2.71 8.129c1.478 4.557.493 9.484-2.587 13.056L39.17 29.07l1.108 2.956-4.434 1.848-1.232-3.08-5.42-.492zM21.31 48.16l2.833-1.108 3.08 9.362 2.34-.74-3.203-9.607 4.928-1.971 4.188 12.441-9.978 4.188-4.188-12.564z" fill="#07074F"/><path d="M61.711 21.555v1.232h2.464v-1.232c0-3.449 2.71-6.159 6.159-6.159v-2.464c-3.45 0-6.16-2.71-6.16-6.158V5.542h-2.463v1.232c0 3.449-2.71 6.158-6.159 6.158v2.464c3.45 0 6.16 2.71 6.16 6.159zm1.232-10.347a8.489 8.489 0 002.956 2.956 8.495 8.495 0 00-2.956 2.957 8.495 8.495 0 00-2.956-2.957 8.49 8.49 0 002.956-2.956zM7.513 46.19v1.232h2.463v-1.231c0-3.45 2.71-6.16 6.16-6.16v-2.463c-3.45 0-6.16-2.71-6.16-6.159v-1.232H7.513v1.232c0 3.45-2.71 6.16-6.16 6.16v2.463c3.45 0 6.16 2.71 6.16 6.159zm1.232-10.346A8.488 8.488 0 0011.7 38.8a8.495 8.495 0 00-2.956 2.957A8.495 8.495 0 005.788 38.8a8.489 8.489 0 002.957-2.956zM69.102 31.41v-1.233h-2.464v1.232c0 3.45-2.71 6.16-6.159 6.16v2.463c3.45 0 6.16 2.71 6.16 6.159v1.231h2.463v-1.231c0-3.45 2.71-6.16 6.159-6.16v-2.463c-3.449 0-6.16-2.71-6.16-6.159zM67.87 41.756a8.495 8.495 0 00-2.956-2.957 8.489 8.489 0 002.956-2.956 8.489 8.489 0 002.956 2.956 8.495 8.495 0 00-2.956 2.957zM37.446 21.925l1.724 1.724c6.775-6.774.492-17.121.123-17.491L37.2 7.513c.123 0 5.666 8.992.247 14.412z" fill="#F1C40F"/></g><defs><clipPath id="clip0"><path fill="#fff" d="M0 0h76v76H0z"/></clipPath></defs></svg>