<svg id="OBJECTS" xmlns="http://www.w3.org/2000/svg" viewBox="15.71 85.33 463.367 339.34"><defs><style>.cls-1{fill:#deeaf8}.cls-2{fill:#687c94}.cls-3{fill:#263135}.cls-4{fill:#000b29}.cls-5{fill:#e29479}.cls-6{fill:#ffa681}.cls-7{fill:#fff}.cls-8{fill:#e3e3e3}.cls-10{fill:#f6376d}.cls-11{fill:#f777a2}</style></defs><path class="cls-1" d="M216.79 158.1c-15.63-56.68-86-74.95-126.41-32.58q-.87.92-1.74 1.86c-57.86 62.89-30.52 217.88 90.23 257.17s246.34-32.46 253.4-96.55-48.65-84.28-135.11-66.35c-48.84 10.1-70.64-28.25-80.37-63.55z"/><path class="cls-1" d="M462.91 334.4c12.33-12.4 21.72-26.4 12.38-28.59S450.24 328 447.5 350.25l-2.74 7.34c2.28-16.16-3.26-35.84-11.36-36.65s-3.18 12 3.22 22.88c4.87 8.31 6.15 14.86 6.47 18.25l-12.93 34.64c3.53-25.59-5.24-56.64-18.07-57.93s-5 19 5.11 36.3c7.67 13.09 9.73 23.44 10.26 28.85l-2.58 6.91c1.13.64 2.26 1.26 3.4 1.89l15.38-41.22a49.65 49.65 0 0113.9-7.06c12-4.06 24-10.51 17.42-15.18-5.74-4-19.23 3.75-28.52 14.76l5.32-14.26c2.4-4.12 5.81-10.02 11.13-15.37z"/><path class="cls-2" d="M74.27 172.7c1.6-15 .36-29.44-7.09-25.87s-4.85 28.43 5.29 44.82l2.12 6.41C67.41 186 53.08 175.75 47.2 179.57s4.31 9.75 14.49 13.63c7.75 3 12.15 6.67 14.19 8.77l10 30.23C74.44 213.11 51.82 197 42.51 203s6.84 15.46 23 21.62c12.2 4.66 19.17 10.5 22.44 13.85l2 6c1.1-.18 2.2-.36 3.3-.56L81.35 208a43 43 0 015.52-12.23c5.87-9.19 10.48-20 3.53-19.58-6 .37-10.9 12.88-11.2 25.28L75.09 189a62 62 0 01-.82-16.3z"/><path class="cls-1" d="M116.36 408.68h16.71c-9-1.49-31.42-11.11-33.42-30.39-2.53-24.41-11.22-24.11-25.88-26.66s-18.68 1.61-28-17.35-30.06-21.34-30.06-21.34S34.64 333.58 31 349.27s8.93 22 19 23.92 7.64 15.47 11.46 24.14c1.74 4 8.87 8.06 16.11 11.35z"/><path class="cls-1" d="M80.15 384.64c.73 7.32 4.93 16 11.25 23.27l.69.77H94c-.55-.57-1.06-1.14-1.54-1.69-6-6.94-10.22-15.55-10.92-22.49-1.1-11-9.63-18.55-27.65-24.38-10.46-3.38-13.77-16.15-13.8-16.28a.69.69 0 10-1.35.33c.14.56 3.51 13.65 14.72 17.28 17.41 5.63 25.65 12.78 26.69 23.19z"/><path class="cls-3" d="M138.28 397c.06 3.77.13 7.69.21 11.66h36.36c.07-4.34.12-8.5.16-12.41.11-10.58.12-19.29.11-24.71v-6l-37.07-.4v8.45c.03 5.83.09 14.17.23 23.41z"/><path class="cls-4" d="M138.06 373.6c0 5.82.08 14.16.22 23.42a182.33 182.33 0 0036.73-.75c.11-10.58.12-19.29.11-24.71z"/><path class="cls-3" d="M92.46 388.66c0 5.93.11 12.72.23 20h36.36c.09-4.28.16-8.5.22-12.54.13-8.66.19-16.47.23-22.07s0-8.92 0-8.92l-37.09.4v10.55c0 3.52.02 7.76.05 12.58z"/><path class="cls-4" d="M92.41 376.1v12.56a227.13 227.13 0 0036.81 7.48c.13-8.66.19-16.47.23-22.07z"/><path class="cls-3" d="M153.37 170.08s5.84-5.63 5.82-11.18-3.8-3.92-5.82-9.1-8.05-8.33-11.36-7.7-10.27-12.25-19.73-10-8.64 14.4-12.71 16.17-2.94 9-.79 10.61 3 8.24 4.26 8.09 40.33 3.11 40.33 3.11z"/><path class="cls-5" d="M114 170s-3.67-4.9-6.4-.85 1.13 16 7.81 13.09z"/><path class="cls-6" d="M114 178.5a.57.57 0 01-.54-.42c-1-3.69-4.86-5.19-4.9-5.2a.57.57 0 11.4-1.06 9.74 9.74 0 015.59 6 .56.56 0 01-.39.69.45.45 0 01-.16-.01z"/><path class="cls-6" d="M110.13 176.64a.55.55 0 01-.3-.09.57.57 0 01-.17-.79 5.22 5.22 0 012.12-1.71.56.56 0 01.74.29.57.57 0 01-.28.75 4 4 0 00-1.63 1.29.59.59 0 01-.48.26z"/><path class="cls-5" d="M151.9 170s3.67-4.9 6.4-.85-1.13 16-7.81 13.09z"/><path class="cls-6" d="M152 178.5a.57.57 0 00.54-.42c1-3.69 4.86-5.19 4.9-5.2a.57.57 0 00-.4-1.06 9.74 9.74 0 00-5.59 6 .56.56 0 00.39.69.45.45 0 00.16-.01z"/><path class="cls-6" d="M155.81 176.64a.55.55 0 00.3-.09.57.57 0 00.17-.79 5.22 5.22 0 00-2.12-1.71.56.56 0 00-.74.29.57.57 0 00.28.75 4 4 0 011.63 1.29.59.59 0 00.48.26zM142 192.34v11.89s-3.55 6.06-8.34 6.48-9.06-5.22-9.06-5.22v-12.31z"/><path class="cls-5" d="M142 192.34v5.28c-3.22 3.57-8.93 4.46-17.4 3.21v-7.65z"/><path class="cls-6" d="M154.55 161.79a115.86 115.86 0 01-1.54 15 39.53 39.53 0 01-.74 3.21c-2.51 8.77-8.77 23.8-26.3 17.54-7.74-2.76-11.33-11.39-12.93-20.16a84.24 84.24 0 01-1.17-16.27 12.39 12.39 0 016.3-10.57c10.35-5.87 21.27-3.68 28.46-.92a12.37 12.37 0 017.92 12.17z"/><path class="cls-3" d="M113 177.4s1.7 10.14 3.31 13.83 6 4.39 7.65 7.51c2.35 4.46 5.93 8 11.83 5.83 4.9-1.78 4.68-4.29 7.43-6.23 4.7-3.33 7-7 7.23-10s2.55-11.53 2.55-11.53l-2.52-.17a65.26 65.26 0 01-3.56 6.26c-2.13-4.67-12.37-1.27-12.37-1.27l-1.95.63-2-.63s-10.36-3.25-12.41 1.64a18.64 18.64 0 01-2.74-6.35zm19.57 6.44c11.74-2 9.64 4.86 9.57 5.11a11.81 11.81 0 01-2.41 1.83c-4.55 2.46-5 2.08-6.84 2.16a13.42 13.42 0 01-6.9-1.88 19.44 19.44 0 01-3.29-2.5s-1.82-6.3 9.91-4.72zM125.55 171.5c0 1.27-.66 2.3-1.47 2.3s-1.46-1-1.46-2.3.66-2.3 1.46-2.3 1.47 1.03 1.47 2.3zM142.92 171.5c0 1.27-.65 2.3-1.46 2.3s-1.46-1-1.46-2.3.66-2.3 1.46-2.3 1.46 1.03 1.46 2.3zM147.22 163.93s-6-2.39-10.69-.38l.46 2.59s6.83-.58 10.27.81a4.54 4.54 0 00-.04-3.02zM118.5 163.94s6.08-2.4 10.77-.38l-.47 2.61s-6.88-.59-10.34.82a4.5 4.5 0 01.04-3.05z"/><path class="cls-5" d="M133.17 181.14a6 6 0 002-.43.57.57 0 10-.43-1.05 3.34 3.34 0 01-2.26.21.62.62 0 01-.28-.52c-.2-2 .34-8.59.34-8.66a.56.56 0 10-1.12-.09 80.49 80.49 0 00-.34 8.86 1.7 1.7 0 00.82 1.38 2.34 2.34 0 001.27.3z"/><path class="cls-7" d="M126 185c.43 2.16 1.86 6.13 6.66 6.13s6.17-3.63 6.63-6.13z"/><path class="cls-3" d="M154.55 161.79a115.86 115.86 0 01-1.54 15l-2.52-.17s.61-3.91.89-6.45.76-7.3-1.41-7.89-.89-6-3.9-8.36-9.71-4.43-14.15-1.7-9.49 1.22-11.54 1.7-4.83 3.29-4.08 5.93-1.5 4.24-2 7 1.2 10.08 1.2 10.08l-2.41.48a84.24 84.24 0 01-1.17-16.27 12.39 12.39 0 016.3-10.57c10.35-5.87 21.27-3.68 28.46-.92a12.37 12.37 0 017.87 12.14z"/><path class="cls-2" d="M182.79 383.42a200.49 200.49 0 01-34.32 5.63l-1.55.12c-1.57.1-3.14.19-4.72.26a195.72 195.72 0 01-23.35-.4q-2.35-.18-4.71-.42l-1.51-.16a203.8 203.8 0 01-27.89-5c-.09-8.57 0-35.66.54-65 .06-3.53.13-7.09.21-10.66.82-38.72 2.41-78 5.28-82 2.74-3.77 11-8.56 18.9-12.88l1.41-.77 5.15-2.79c3.5-1.9 6.52-3.6 8.39-4.9v1.07s4.25 5.63 9 5.22c4.38-.38 7.7-5.43 8.27-6.33a111.61 111.61 0 0010 5.72l3.69 2 1.4.74c8.74 4.63 18.16 9.86 21 13.74a4.86 4.86 0 01.6 1.43c1.68 5.67 2.72 24.47 3.35 47.24v.25c0 .92 0 1.84.07 2.78v.36c.21 8 .36 16.4.48 24.85v3q0 2.49.06 5v3.66c.46 30.46.37 59.27.25 68.24z"/><path class="cls-2" d="M182.09 278.23c-2.75-4.5-5.71-9.09-8.49-13.14-1.17-1.71-2.31-3.32-3.39-4.78a.22.22 0 00-.05-.08l-1-1.35a.57.57 0 01-.12-.23.74.74 0 01.27-.81.75.75 0 011.06.14c3.34 4.43 7.62 10.8 11.66 17.26v.25c-.03.88.04 1.8.06 2.74z"/><path class="cls-2" d="M178.18 225.91s17.24 31.59 27.75 47.6c0 0 6-5.49 13.76-12.84 8.43-8 19.95-21.27 19.95-21.27L246 247s-25.9 46.62-37.52 52.48-33-35.61-33-35.61zM105.16 350.43a.78.78 0 01-.75-.81c.9-25.52-12.33-33.78-12.46-33.86a.78.78 0 01.8-1.34c.15.09 3.65 2.21 7 7.66 3.1 5 6.68 13.79 6.19 27.59a.78.78 0 01-.78.76zM161.6 326.39a.77.77 0 01-.77-.72c-.42-5.37 1.35-9.29 3.59-14.25.65-1.46 1.33-3 2-4.64 4.34-10.55 2.16-22.61 2.14-22.73a.78.78 0 111.53-.28c.1.51 2.29 12.63-2.23 23.61-.71 1.7-1.39 3.21-2 4.68-2.23 4.94-3.85 8.51-3.46 13.49a.78.78 0 01-.72.84z"/><path class="cls-7" d="M116.23 209.32c.33 2.51.82 5.77 1.36 9.47.16 1.1.32 2.24.49 3.41.54 3.83 1.1 8 1.58 12.19.13 1.13.25 2.27.36 3.4.42 4.16.74 8.3.86 12.14 0 1.17.05 2.3 0 3.4a54 54 0 01-.53 7.95c-.22 1.46-.42 2.88-.6 4.27a143.293 143.293 0 00-1.15 15.6v3.4c0 4.32.28 8.35.64 12.18.11 1.15.22 2.28.34 3.39.47 4.2 1 8.19 1.57 12.13a242.782 242.782 0 011.1 8.8c.19 1.81.33 4.18.39 6.67v3.41c0 3.74-.08 7.87-.26 12.19 0 1.13-.09 2.28-.15 3.43-.19 4-.45 8.15-.73 12.22-.08 1.15-.17 2.29-.25 3.43-.32 4.24-.67 8.38-1 12.22-.1 1.17-.21 2.31-.32 3.42-.4 4.23-.8 8-1.14 11a195.72 195.72 0 0023.35.4c.19-3.2.68-8.35 1.17-14.42q.13-1.67.27-3.42c.29-3.86.55-8 .73-12.14q.07-1.71.12-3.42c.12-4.16.12-8.28-.06-12.15a90.84 90.84 0 00-.54-6.78 66.82 66.82 0 01-.5-8.84c0-1.14 0-2.28.08-3.42.18-4 .61-7.92 1.11-12.13.14-1.12.28-2.25.42-3.41.45-3.75.92-7.72 1.29-12.06.1-1.12.18-2.26.27-3.42.25-3.73.43-7.74.46-12.1v-3.45c0-3.78-.2-7.82-.5-12.17l-.09-1.17c0-.77-.1-1.54-.14-2.3a117 117 0 01.08-12.13c.06-1.15.14-2.29.22-3.44.32-4.07.78-8.11 1.31-12q.23-1.74.48-3.42c.64-4.24 1.32-8.23 1.95-11.8l.6-3.38c.43-2.41.8-4.56 1.07-6.38a111.61 111.61 0 01-10-5.72c-.57.9-3.89 6-8.27 6.33-4.79.41-9-5.22-9-5.22v-1.07c-1.92 1.31-4.94 3.01-8.44 4.91z"/><path class="cls-8" d="M117.59 218.79c.16 1.1.32 2.24.49 3.41a63.05 63.05 0 0015.44-1.95 40.92 40.92 0 0116.79-.39l.6-3.38a44.53 44.53 0 00-18.16.45 58.93 58.93 0 01-15.16 1.86zM119.66 234.39c.13 1.13.25 2.27.36 3.4a69.6 69.6 0 0013.5-1.95 40.67 40.67 0 0114.36-.76q.23-1.74.48-3.42a44.89 44.89 0 00-15.61.85 65.13 65.13 0 01-13.09 1.88zM120.88 249.93c0 1.17.05 2.3 0 3.4a71.25 71.25 0 0012.6-1.91 41 41 0 0112.83-.92c.06-1.15.14-2.29.22-3.44a45 45 0 00-13.82 1 69.59 69.59 0 01-11.83 1.87zM119.39 269a67 67 0 0014.13-2 41.08 41.08 0 0113-.91l-.09-1.17c0-.77-.1-1.54-.14-2.3a44.91 44.91 0 00-13.52 1.05 65.8 65.8 0 01-13 1.87c-.13 1.17-.26 2.31-.38 3.46zM118.63 284.55a65.46 65.46 0 0014.89-2 41.17 41.17 0 0113.5-.87v-3.45a45 45 0 00-14.25 1 62.09 62.09 0 01-14.11 1.88c-.03 1.2-.04 2.33-.03 3.44zM119.27 296.73c.11 1.15.22 2.28.34 3.39a67.41 67.41 0 0013.91-1.95 41.3 41.3 0 0112.77-.93c.1-1.12.18-2.26.27-3.42a44.56 44.56 0 00-13.81 1 64.42 64.42 0 01-13.48 1.91zM121.18 312.25c.16 1.13.31 2.25.46 3.38a74.89 74.89 0 0011.88-1.87 41.63 41.63 0 0111.06-1.05c.14-1.12.28-2.25.42-3.41a45 45 0 00-12.25 1.13 70.68 70.68 0 01-11.57 1.82zM122.67 327.72v3.41a77.29 77.29 0 0010.8-1.79 41.74 41.74 0 019.87-1.08c0-1.14 0-2.28.08-3.42a45.62 45.62 0 00-10.67 1.16 75.74 75.74 0 01-10.08 1.72zM122.31 346.75a75.6 75.6 0 0011.21-1.83 41.23 41.23 0 0110.91-1 90.84 90.84 0 00-.21-3.44 45 45 0 00-11.47 1.16 74.68 74.68 0 01-10.29 1.72c-.04 1.09-.09 2.24-.15 3.39zM121.33 362.4a73.69 73.69 0 0012.19-1.89 41.22 41.22 0 0110.85-1.06q.07-1.71.12-3.42a45.34 45.34 0 00-11.74 1.15 71.48 71.48 0 01-11.17 1.82c-.08 1.12-.17 2.26-.25 3.4zM120 378a69.1 69.1 0 0013.53-2 41.58 41.58 0 019.85-1.08q.13-1.67.27-3.42a45 45 0 00-10.89 1.18 67.68 67.68 0 01-12.44 1.85c-.11 1.26-.22 2.4-.32 3.47z"/><path class="cls-2" d="M146.92 389.17l1.55-.11c3.07-18.05 1.3-44.53.64-52.65-.68-8.43.63-19.26 3.6-29.72 2.3-8.12.89-27-.24-42.09-.32-4.25-.62-8.26-.8-11.56-.58-10.65 3.28-30.37 5.4-40.25l-1.4-.74c-2.13 9.78-6.12 29.94-5.52 41.08.19 3.31.49 7.33.81 11.58 1.12 15 2.52 33.7.3 41.56-3 10.63-4.35 21.66-3.65 30.26.65 8.13 2.39 34.78-.69 52.64zM115.48 315.75c1.81 11.09 1.24 18.3.58 26.64-.21 2.7-.43 5.48-.59 8.56-.48 9.65-2.11 29.1-2.84 37.5l1.51.16c.73-8.41 2.36-27.9 2.85-37.58.15-3.06.37-5.84.58-8.52.66-8.44 1.24-15.73-.59-27-.39-2.42-.81-4.88-1.22-7.32-2.05-12.09-4.16-24.6-3.16-30.59.24-1.46.55-3.12.89-4.88 1.35-7.23 3.05-16.22 2.51-24s-3.7-28.68-4.91-36.58l-1.42.77c1.27 8.26 4.31 28.4 4.82 35.92s-1.15 16.5-2.49 23.64c-.34 1.77-.65 3.44-.9 4.91-1 6.24 1 18.31 3.16 31.09.42 2.41.83 4.86 1.22 7.28z"/><path class="cls-6" d="M85.66 238.62S70.22 290.1 66.4 308.45s-4.12 56.48-4.12 56.48-6.75 14-6.91 20.25c-.17 6.64 3.32 11.93 2.92 16.28s4.9 2 3.41-6.82 2.74-16.79 4.58-16.53-1.52 9.62.11 13 3.73-3.18 5.82-7.16 2.05-13.14 1.06-19.57S83.94 318.87 84 307.55l14.77-49.89s-4.89-20.82-13.11-19.04z"/><path class="cls-2" d="M100.65 256.41c-.52 3.31-2.35 9-4.72 16.13l-.61 1.84v.08c-.59 1.78-1.21 3.64-1.84 5.57-2.62 7.95-5.52 17-8 26.39-.84 3.19-1.62 6.43-2.31 9.65-.89 4.11-1.64 8.21-2.19 12.22-2 14.45-5.75 32.76-5.75 32.76-5.53 2.28-14.19-.72-14.19-.72s-.22-26.37 1-36.62a275.19 275.19 0 015.88-32c6.63-28.49 18.3-56.37 21.51-63.76l.59-1.37h2.78c5.42 3.42 9.26 20.92 7.85 29.83z"/><path class="cls-2" d="M60.6 355.09l.44 6.06s8.22 2.68 14.39.79l1.63-5.41c-5.94.32-11.42.17-16.46-1.44zM95.93 272.54a.82.82 0 010 .26c-.19.51-.38 1-.57 1.58v.08c-.6 1.72-1.22 3.6-1.84 5.57a296.32 296.32 0 00-8 31.37q0-2.49.06-5c-.84 3.19-1.62 6.43-2.31 9.65a115.29 115.29 0 012.35-12.67 296.62 296.62 0 018.93-31.15.75.75 0 011-.45.74.74 0 01.38.76z"/><path class="cls-3" d="M372.07 408.68h36.47c-.12-2.53-.24-4.95-.36-7.24-.64-12.49-1.18-21-1.18-21l-29.65 1.32-2.46.11-4.36.19s.42 7.61 1.07 18.74c.15 2.48.31 5.11.47 7.88z"/><path class="cls-4" d="M374.89 381.88l-4.36.19s.42 7.61 1.07 18.74a265.25 265.25 0 0036.58.63c-.64-12.49-1.18-21-1.18-21l-29.65 1.32z"/><path class="cls-4" d="M378.86 408.68c-.67-11.56-1.21-21.43-1.51-26.91l-2.46.11c.3 5.46.84 15.28 1.51 26.8z"/><path class="cls-3" d="M361.37 408.68c.19-3.13.37-6.1.53-8.84.63-10.61 1-17.77 1-17.77l-4.73-.21-2.46-.11-29.29-1.3s-.32 5.07-.76 13.12c-.23 4.29-.5 9.44-.77 15.11z"/><path class="cls-4" d="M325.68 393.57a322.06 322.06 0 0036.22 6.27c.63-10.61 1-17.77 1-17.77l-4.73-.21-2.46-.11-29.29-1.3s-.3 5.07-.74 13.12z"/><path class="cls-4" d="M356.68 408.68c.66-11.53 1.21-21.36 1.51-26.82l-2.46-.11c-.3 5.48-.85 15.36-1.51 26.93z"/><path d="M412.3 386.13a174.88 174.88 0 01-22.3 4.63q-3.87.54-7.74.9-5.22.48-10.44.65a165.74 165.74 0 01-17.26-.38 174.65 174.65 0 01-33.39-5.8c-.1-10.37.06-47.58.83-83.47l.12-4.83V295.72c0-1.14.05-2.27.08-3.4.06-2.31.12-4.59.19-6.86 0-1.35.08-2.7.12-4v-.83l.09-2.62v-.81c0-.8.06-1.6.08-2.39s.05-1.33.07-2c.86-24.21 2.12-43.31 3.93-46 3.06-4.56 13.48-10.62 21.86-15.55 3-1.76 6.56-3.58 8.6-4.94 3 2.4 5.13 4.57 9.55 4.42 4.93-.17 6.15-3.14 8-5.69 1.15.75 4.07 3.14 5.59 4 1.3.77 2.7 1.58 4.17 2.43 2.27 1.29 4.68 2.67 7.07 4.08 3.54 2.08 7 4.23 9.93 6.29s5.19 4 6.32 5.72c1.64 2.46 2.7 18.38 3.38 39.34 0 .73.05 1.48.08 2.23v.27c0 .76.05 1.54.07 2.33.07 2.35.13 4.76.2 7.21v2.73l.06 3v.61l.15 8.17v2.42c.87 37.75.73 79.12.59 90.25z" fill="#4f5e6d"/><path class="cls-2" d="M412 295.9l-11.8 11.93-11-11.11-11 11.11-11-11.16-11 11.16-10.99-11.23-11.07 11.23-12-12.13c0-1.14.05-2.27.08-3.4.06-2.31.12-4.59.19-6.86l11.69-11.85 11.07 11.23 11.07-11.23 11 11.15 11-11.15 11 11.11 11-11.11 11.57 11.72.15 8.17c-.02.8.04 1.61.04 2.42zM391.66 357.39c-15.75-.07-29.2-7.23-37.7-13.23A86.83 86.83 0 01339.13 331a.76.76 0 111.16-1 85.5 85.5 0 0014.58 12.89c8.32 5.87 21.45 12.87 36.79 12.94a.76.76 0 01.76.76.75.75 0 01-.76.8zM381.84 348.08c-13.42-2.64-25.29-12.91-25.82-13.38a.75.75 0 111-1.14c.14.12 14.11 12.2 28.35 13.5a.75.75 0 01.68.82.75.75 0 01-.82.69c-1.15-.11-2.23-.27-3.39-.49zM355 231.53a.77.77 0 01-.75-.62.76.76 0 01.61-.88c19.2-3.65 25-16 25-16.13a.76.76 0 011-.37.75.75 0 01.37 1c-.24.54-6.17 13.2-26.14 17zM331.55 264.78a1.09 1.09 0 01-.1.25c-.29.46-.59.93-.89 1.42l-.05.08c-1 1.55-2 3.25-3 5-1.61 2.82-3.27 5.88-4.91 9l.09-2.62v-.81c2.64-4.89 5.26-9.46 7.47-12.93a.75.75 0 011-.24.77.77 0 01.39.85z"/><path class="cls-6" d="M428.31 236.69s24.55-7.89 31.82-24c2.1-4.67-15.21-52.05-15.21-52.05l-8.36.41s2.38 16.44 3.83 25.74c1.18 7.66 3.1 16.8 3.75 19.81.14.66.22 1 .22 1l-1.24.23c-11.47 2.33-26.12 9.81-26.12 9.81z"/><path class="cls-5" d="M450.53 212.16a.78.78 0 001.09-.17.77.77 0 00-.17-1.1 61.82 61.82 0 00-7.31-4.29c.14.66.22 1 .22 1l-1.24.23a63.12 63.12 0 017.41 4.33z"/><path class="cls-2" d="M390.74 215s-7.43 17.43 11.48 27.13c13.08 6.72 42.89-10.82 42.89-10.82l-10.62-22.56S407.21 220 390.74 215z"/><path class="cls-6" d="M440.64 134c-.74.52-.59 3.72-.26 6.74h-.32c-.88-4-2.63-10.87-4.13-9.56-1 .85.34 6.76 1.23 10.29l-.56.17c-1.12-4.19-3.55-12.26-5.17-10.69-1.08 1.05 1 8.15 2.14 11.78l-.47.18c-1.1-3.51-3.45-10.17-5.06-8.6-1.46 1.41 2.72 11.47 2.72 11.47l1.1 3.95s-1.3.56-3.34-1.74-4.46-2.7-2.77.62c1.91 3.76 4.73 6.46 6 9.11s5.15 3.54 5.15 3.54l7.85-.38s1.52-13.26-1.41-19.58c-.53-3.71-1.41-8.2-2.7-7.3z"/><path class="cls-3" d="M343.55 164.59c0 13.37 8.23 22.58 21.59 22.58s22.68-9.9 22.68-23.27a28.53 28.53 0 00-1.76-10.17 4.33 4.33 0 00-.21-.54c-.14-.35-.28-.69-.44-1-.24-.52-.5-1-.77-1.51-3.48-6.26-9.72-10.24-18.1-10.24-16.03-.03-22.99 10.79-22.99 24.15z"/><path class="cls-5" d="M346.55 170.35s-3.71-4.95-6.47-.86 1.14 16.18 7.9 13.23z"/><path class="cls-6" d="M346.5 179a.58.58 0 01-.55-.42c-1.05-3.73-4.91-5.25-4.95-5.26a.57.57 0 01.4-1.07c.18.07 4.45 1.72 5.65 6a.58.58 0 01-.39.71z"/><path class="cls-6" d="M342.6 177.11a.59.59 0 01-.31-.09.57.57 0 01-.17-.79 5.15 5.15 0 012.14-1.73.58.58 0 01.76.29.57.57 0 01-.29.75 4.09 4.09 0 00-1.65 1.3.57.57 0 01-.48.27z"/><path class="cls-5" d="M384.82 170.35s3.71-4.95 6.47-.86-1.14 16.18-7.9 13.23z"/><path class="cls-6" d="M384.86 179a.58.58 0 00.55-.42c1-3.73 4.92-5.25 5-5.26a.57.57 0 00-.41-1.07c-.18.07-4.44 1.72-5.65 6a.59.59 0 00.4.71z"/><path class="cls-6" d="M388.77 177.11a.59.59 0 00.31-.09.58.58 0 00.17-.79 5.14 5.14 0 00-2.15-1.73.57.57 0 00-.46 1 4.28 4.28 0 011.65 1.3.57.57 0 00.48.31zM374.82 193v12s-3.58 6.13-8.43 6.55-9.15-5.28-9.15-5.28v-12.45z"/><path class="cls-5" d="M374.82 193v5.33c-3.25 3.62-9 4.52-17.58 3.26v-7.75z"/><path class="cls-6" d="M387.5 162.1a116.92 116.92 0 01-1.56 15.19 37.19 37.19 0 01-.75 3.24c-2.53 8.86-8.86 24.06-26.58 17.73-7.83-2.8-11.46-11.51-13.07-20.38a85.49 85.49 0 01-1.19-16.45 12.55 12.55 0 016.37-10.68c10.46-5.93 21.5-3.72 28.77-.93a12.52 12.52 0 018.01 12.28z"/><path class="cls-3" d="M358.09 171.92c0 1.28-.67 2.32-1.48 2.32s-1.48-1-1.48-2.32.66-2.33 1.48-2.33 1.48 1.04 1.48 2.33zM375.5 171.87c0 1.28-.66 2.32-1.48 2.32s-1.47-1-1.47-2.32.66-2.33 1.47-2.33 1.48 1.04 1.48 2.33zM378.84 163.88s-4.66-1.84-8.25-.29l.36 2s5.27-.45 7.92.63a3.48 3.48 0 00-.03-2.34zM351.68 163.88s4.66-1.84 8.25-.29l-.36 2s-5.27-.45-7.92.63a3.42 3.42 0 01.03-2.34z"/><path class="cls-5" d="M365.88 181.66a6.05 6.05 0 002.07-.44.57.57 0 00-.43-1.06 3.44 3.44 0 01-2.29.22.6.6 0 01-.28-.53 87.38 87.38 0 01.34-8.75.57.57 0 00-.52-.62.58.58 0 00-.62.52 85 85 0 00-.34 9 1.74 1.74 0 00.83 1.4 2.4 2.4 0 001.24.26z"/><path class="cls-7" d="M358.21 184.56c1 3.29 3.65 6.58 7.37 6.63s6.41-3.34 7.36-6.63z"/><path class="cls-5" d="M365.26 194.77a6.06 6.06 0 002.79-.78.57.57 0 00-.6-1 5 5 0 01-2.19.61 4.59 4.59 0 01-2.08-.61.57.57 0 00-.78.19.56.56 0 00.18.78 5.61 5.61 0 002.68.81z"/><path class="cls-3" d="M386.9 170.45h-2.59c.28-2.6.7-7.18-1.44-7.84-6.75-2.07 2-6.84-1.05-9.21s-10.62-1.36-15.89-1.53-13.83-.1-15.9.38-.93 3.92-.17 6.58-2.55 5.61-3.1 8.37a12 12 0 000 3.25h-2.16c-.25-3.36-.29-6.49-.25-9a12.55 12.55 0 016.37-10.68c10.46-5.93 21.5-3.72 28.77-.93a12.52 12.52 0 018 12.28c-.11 2.54-.3 5.45-.59 8.33z"/><path class="cls-7" d="M356.35 178.65a6.47 6.47 0 116.46-6.47 6.48 6.48 0 01-6.46 6.47zm0-11.93a5.46 5.46 0 105.46 5.46 5.47 5.47 0 00-5.46-5.46zM374 178.65a6.47 6.47 0 116.47-6.47 6.48 6.48 0 01-6.47 6.47zm0-11.93a5.46 5.46 0 105.46 5.46 5.46 5.46 0 00-5.46-5.46z"/><path class="cls-7" d="M351 170.1a.49.49 0 01-.35-.15 7.94 7.94 0 00-6.82-2 .52.52 0 01-.61-.38.5.5 0 01.38-.6 8.84 8.84 0 017.76 2.24.51.51 0 01-.36.87zM379.52 170.1a.54.54 0 01-.43-.23.51.51 0 01.15-.7c.19-.13 4.77-3.08 8.66-2.44a.51.51 0 01.42.58.51.51 0 01-.58.42c-3.5-.58-7.9 2.25-7.95 2.28a.46.46 0 01-.27.09zM367.91 170.73a4.06 4.06 0 00-2.78-1.64 3.72 3.72 0 00-2.65 1.63l-.85-.55a4.71 4.71 0 013.5-2.09 5 5 0 013.6 2.06z"/><path class="cls-6" d="M329.42 263.83a183 183 0 01-14.84 23.64 60.63 60.63 0 01-7.27 8.12c-3.94 3.56-7.79 5.42-10.92 3.84-11.62-5.85-37.52-52.43-37.52-52.43l6.38-7.56s11.53 13.31 20 21.28C293 268 299 273.51 299 273.51c1.08-1.63 2.22-3.43 3.42-5.33s2.58-4.15 3.92-6.34c9.71-15.94 20.48-35.08 20.48-35.08z"/><path class="cls-5" d="M314.58 287.47a60.63 60.63 0 01-7.27 8.12l-4.93-27.41c1.26-2 2.58-4.15 3.92-6.34z"/><path class="cls-2" d="M326.78 226.76l-23.29 36.62 7.82 32.21 19.27-31.37s2.33-21.47-3.8-37.46zM297.5 408.68c-1.66-9.22-3.3-19.61-4.79-29.7-.33-2.23-.65-4.45-1-6.63-1.2-8.36-2.26-16.26-3.12-22.82-.33-2.49-.62-4.79-.89-6.84-.83-6.55-1.32-10.61-1.32-10.61l-36.77 1.39-36.88-1.39s-1 8-2.47 19.71c-.28 2.12-.58 4.36-.89 6.7-.82 6.12-1.75 12.88-2.76 19.8v.3q-.48 3.24-1 6.5v.09c-.79 5.24-1.62 10.49-2.46 15.53-.35 2.08-.7 4.13-1 6.12l-.33 1.84z"/><path class="cls-2" d="M221.25 343.12a3.47 3.47 0 11-3.47-3.46 3.47 3.47 0 013.47 3.46zM229.85 356.55a3.47 3.47 0 11-3.47-3.47 3.46 3.46 0 013.47 3.47zM246.77 349.62a3.47 3.47 0 11-3.47-3.47 3.47 3.47 0 013.47 3.47zM220.06 370.81a3.47 3.47 0 11-3.46-3.47 3.46 3.46 0 013.46 3.47zM241.2 369.32a3.47 3.47 0 11-3.46-3.46 3.46 3.46 0 013.46 3.46zM212.55 355a3.46 3.46 0 01-3.14 3.45c.31-2.34.61-4.58.89-6.7a3.46 3.46 0 012.25 3.25zM275.66 389.68a3.47 3.47 0 11-3.47-3.46 3.47 3.47 0 013.47 3.46zM274 370.81a3.47 3.47 0 11-3.46-3.47 3.46 3.46 0 013.46 3.47zM292.71 379a3.62 3.62 0 01-1.36.27 3.47 3.47 0 110-6.93 2.69 2.69 0 01.4 0c.31 2.19.63 4.41.96 6.66zM277.49 403.52a3.47 3.47 0 11-3.47-3.47 3.47 3.47 0 013.47 3.47zM292.31 398a3.47 3.47 0 11-3.47-3.47 3.46 3.46 0 013.47 3.47zM261.46 408.68a3.45 3.45 0 00-5.71 0zM217.78 392.7a3.47 3.47 0 11-3.46-3.47 3.46 3.46 0 013.46 3.47zM208.64 381.75a3.46 3.46 0 01-3 3.43v-.09l1-6.5a3.49 3.49 0 012 3.16zM204.59 403.51a3.49 3.49 0 01-2.47 3.33c.35-2 .7-4 1-6.12a3.46 3.46 0 011.47 2.79zM226.38 405a3.47 3.47 0 11-3.46-3.46 3.46 3.46 0 013.46 3.46zM244.67 402.27a3.47 3.47 0 11-3.47-3.47 3.46 3.46 0 013.47 3.47zM231.62 385.23a3.47 3.47 0 11-3.46-3.47 3.46 3.46 0 013.46 3.47zM250.23 381.76a3.47 3.47 0 11-3.46-3.46 3.46 3.46 0 013.46 3.46zM258.61 363.48a3.47 3.47 0 11-3.47-3.47 3.46 3.46 0 013.47 3.47zM288.63 349.53a3.08 3.08 0 01-.75.08 3.46 3.46 0 01-.14-6.92c.26 2.05.56 4.31.89 6.84zM270.56 349.62a3.47 3.47 0 11-3.47-3.47 3.47 3.47 0 013.47 3.47zM283.25 362a3.47 3.47 0 11-3.47-3.47 3.46 3.46 0 013.47 3.47zM262.07 392.7a3.47 3.47 0 11-3.46-3.47 3.46 3.46 0 013.46 3.47z"/><path class="cls-10" d="M288.66 333c-19.4 12.66-55 11.67-77.39 0 2.13-13.32 4.95-26.65 4.34-44.38-.06-1.94-.15-3.87-.24-5.78-.09-1.67-.19-3.32-.29-5-1.94-29.48-7-53.59-4.49-56.71a23.29 23.29 0 015.1-4.34c.87-.6 1.8-1.2 2.78-1.8 2.33-1.41 4.91-2.84 7.5-4.23 6.15-3.29 12.4-6.33 15.53-8.42a19.68 19.68 0 008.24 2.08h.45a19.75 19.75 0 008.24-2.08c2.91 1.94 8.37 4.63 13.95 7.57a119.61 119.61 0 0111.5 6.68 22.88 22.88 0 014.91 4.22c1.23 1.54.71 8.31-.33 18.34-1 9.88-2.59 22.91-3.53 37.24-.26 4-.48 8.06-.62 12.19-.6 17.76 2.21 31.09 4.35 44.42z"/><path class="cls-11" d="M276.8 318.26c-15.62-.07-29-7.18-37.38-13.13a85.61 85.61 0 01-14.71-13 .75.75 0 011.15-1 84.55 84.55 0 0014.46 12.79c8.25 5.81 21.28 12.76 36.49 12.83a.75.75 0 010 1.5zM266.46 309.17c-13.3-2.62-25.08-12.8-25.61-13.27a.75.75 0 011-1.13c.14.12 14 12.1 28.11 13.39a.74.74 0 01.68.81.75.75 0 01-.82.68 31.78 31.78 0 01-3.36-.48zM246.77 240.36a.75.75 0 01-.14-1.49c19-3.61 24.78-15.86 24.84-16a.74.74 0 011-.37.73.73 0 01.37 1c-.24.53-6.12 13.09-25.92 16.85z"/><path class="cls-6" d="M272.38 209.94c-3.78 8.62-13.07 17.55-25.15 15.46-11.7-2-17.25-8.21-21.26-14.61 6.15-3.29 12.4-6.33 15.53-8.42a19.68 19.68 0 008.24 2.08h.45a19.71 19.71 0 008.24-2.08c2.91 1.93 8.38 4.63 13.95 7.57z"/><path class="cls-7" d="M262.28 203a.59.59 0 00-.6.59c0 .48-.2 11.88-10.43 12.76-9.49.83-13.42-8.26-14.63-12a.54.54 0 00-.51-.37H236a.53.53 0 00-.51.7c1.29 3.89 5.43 13.28 15.1 12.93h.76c11.32-1 11.52-13.81 11.53-13.94a.6.6 0 00-.6-.67z"/><path class="cls-3" d="M269.51 142.43s9.15 14.16 8.14 28.91 1.35 31.78-11.85 31-36.74 5.3-44.22-6.19 47.93-53.72 47.93-53.72z"/><path class="cls-4" d="M272.9 168.47s2.37 21.38-7.77 27.27-17.49-.69-17.49-.69 21.36-29.8 25.26-26.58z"/><path class="cls-5" d="M230.76 168.37s-3.65-4.86-6.36-.84 1.13 15.88 7.76 13z"/><path class="cls-6" d="M230.71 176.85a.56.56 0 01-.54-.41c-1-3.66-4.82-5.15-4.86-5.16a.56.56 0 11.4-1.05c.17.07 4.36 1.69 5.54 5.91a.57.57 0 01-.39.69z"/><path class="cls-6" d="M226.88 175a.56.56 0 01-.47-.86 5.18 5.18 0 012.1-1.7.56.56 0 01.46 1 4 4 0 00-1.62 1.28.57.57 0 01-.47.28z"/><path class="cls-5" d="M268.3 168.37s3.64-4.86 6.35-.84-1.12 15.88-7.75 13z"/><path class="cls-6" d="M268.35 176.85a.56.56 0 00.54-.41c1-3.66 4.82-5.15 4.86-5.16a.56.56 0 00-.4-1.05c-.18.07-4.36 1.69-5.54 5.91a.57.57 0 00.39.69z"/><path class="cls-6" d="M272.18 175a.56.56 0 00.47-.86 5.18 5.18 0 00-2.1-1.7.56.56 0 00-.46 1 4.09 4.09 0 011.62 1.28.55.55 0 00.47.28zM258.5 190.58v11.8s-3.52 6-8.28 6.41-9-5.17-9-5.17v-12.21z"/><path class="cls-6" d="M258.5 190.58v5.23c-3.2 3.54-8.86 4.8-17.26 3.56v-8z"/><path class="cls-6" d="M270.94 160.28a115.78 115.78 0 01-1.53 14.9c-.22 1.14-.47 2.22-.74 3.18-2.49 8.7-8.7 23.61-26.08 17.4-7.68-2.74-11.24-11.3-12.83-20a84.39 84.39 0 01-1.16-16.14 12.34 12.34 0 016.25-10.48c10.26-5.82 21.09-3.65 28.22-.91a12.29 12.29 0 017.87 12.05z"/><path class="cls-3" d="M241.87 169.06c0 1.26-.65 2.28-1.45 2.28s-1.45-1-1.45-2.28.65-2.28 1.45-2.28 1.45 1.02 1.45 2.28zM259.78 169.06c0 1.26-.65 2.28-1.45 2.28s-1.45-1-1.45-2.28.64-2.28 1.45-2.28 1.45 1.02 1.45 2.28zM237.55 162.27a24 24 0 016.2-.92 1.07 1.07 0 011.08 1.26 1.07 1.07 0 01-1.11.89c-1.74-.09-6.32.16-8.49 1a1.64 1.64 0 01.5-1.16 3.74 3.74 0 011.82-1.07zM261 162.32a24.41 24.41 0 00-6.21-.93 1.08 1.08 0 00-1.07 1.26 1.07 1.07 0 001.11.88c1.75-.08 6.33.17 8.49 1a1.58 1.58 0 00-.49-1.15 3.79 3.79 0 00-1.83-1.06z"/><path class="cls-5" d="M249.72 179.47a2.36 2.36 0 01-1.21-.29 1.73 1.73 0 01-.82-1.37A81.61 81.61 0 01248 169a.56.56 0 111.11.09 84.85 84.85 0 00-.33 8.58.59.59 0 00.27.52 3.31 3.31 0 002.25-.21.56.56 0 11.42 1 5.88 5.88 0 01-2 .49z"/><path class="cls-7" d="M242.61 183c.42 2.13 1.83 6.05 6.57 6.05s6.09-3.58 6.55-6.05z"/><path class="cls-5" d="M249.11 192.33a5.6 5.6 0 01-2.62-.77.56.56 0 01-.19-.77.57.57 0 01.77-.18 4.63 4.63 0 002 .6 4.93 4.93 0 002.16-.6.56.56 0 01.77.19.57.57 0 01-.19.77 5.9 5.9 0 01-2.7.76z"/><path class="cls-3" d="M273.19 159.36a1.87 1.87 0 01-1.35 1 35.9 35.9 0 01-.2 4.15c-.69 8.1-2.73 9.52-3.2 7.52a95.78 95.78 0 01-.14-11.45 27.85 27.85 0 01-3-.37l-1.88-7.87-.66 7.77c-2.82 1-9.4-.59-9.4-.59l-2.2-7.75-1.37 7.46c-4.22 2.06-9.51.68-9.51.68l-1.21-8-2.8 8s-9 3.24-9.12 0c-.06-1.88 1.32-7.18 2.48-11.29a17 17 0 018.2-10.4c11.18-6 23-2.81 27.07-.38 8.65 5.16 8.29 21.52 8.29 21.52z"/><path class="cls-3" d="M232.16 143s-7.43 8.83-9.87 24.6-5.82 27.42 3.68 32.63c10.29 5.64 9.39-5.92 9.25-9.06s-8.9-11.73-3.06-35.92c1.84-7.78 0-12.25 0-12.25z"/><path class="cls-4" d="M230.42 175.62c0 .11 0 .74.06 1.72 0 .61.06 1.35.12 2.19.34 5.32 1.38 14.49 4.41 17.68 1.2 1.25 3.51 1.89 6.23 2.14v-4.15a16.55 16.55 0 01-6.83-6.35 39 39 0 01-3.78-11.66z"/><path class="cls-7" d="M271.07 180.78a1.32 1.32 0 11-1.31-1.31 1.31 1.31 0 011.31 1.31z"/><path class="cls-10" d="M297.83 279.7c-3.72 10.65-20.38 9.88-39.35 4.05h-.08l-.18-.06-2.61-.83-1.08-.36q-3.06-1-6.17-2.21a208.69 208.69 0 01-20.05-8.88v-.11l1.94-5 .66-1.72s35.18 3.84 52.86.14l.88-.19a10.56 10.56 0 00-.2-1.17c-9.37-31.9.87-38 4.3-42.47.04-.06 16.1 38.71 9.08 58.81z"/><path class="cls-11" d="M292.1 269.83a.78.78 0 01-.33.07.73.73 0 01-.67-.42c-1.34-2.74-5.89-4.37-7.29-4.82l.88-.19c-.07-.4-.14-.79-.2-1.17 1.77.59 6.42 2.38 7.95 5.53a.74.74 0 01-.34 1zM242.84 268.49c-7.18 0-13-.41-13.52-.45a.75.75 0 11.11-1.49c.27 0 26.65 1.88 37.05-2.34a.76.76 0 011 .42.75.75 0 01-.41 1c-5.78 2.31-15.91 2.86-24.23 2.86zM255.61 282.84c6-1.66 11.5-3.28 14.65-4.29 4.39-1.41 8-5.84 9.67-9.61a.75.75 0 011.38.6c-1.79 4.08-5.75 8.89-10.59 10.44-2.29.74-5.79 1.79-9.84 2.94a9.1 9.1 0 01-5.27-.08z"/><path class="cls-10" d="M271.84 277.68C217.48 296 200.76 284 200.76 284c-3.66-33.09 9.82-62.85 9.82-62.85 4 6.57 8.49 18 8.49 18l1.19 25.36-.09.71v.33l-.22 1.73.35.07c16.44 3.47 46.51-.4 46.51-.4z"/><path class="cls-11" d="M220.25 267.44A54 54 0 00212 276a.75.75 0 11-1.19-.91 55 55 0 019.28-9.49l-.22 1.73z"/><path class="cls-6" d="M266.76 267s6-13.67 15.17-12.46l2.76 9.89c-5 2.12-5.74 10.71-12.85 13.21zM231 264.52a21.75 21.75 0 00-13.8-11.5c-10-2.59-16.37 2.12-17 3.9s3.77.08 3.77.08a8.65 8.65 0 00-4.55 3.53c-1.66 2.72 4-.21 4-.21s-4.09 1.79-4.61 3.45 4.87-1.14 5.88-1.09c0 0-4.81 1.91-4.78 3.63s5.53-1.08 9.64-.86a64.84 64.84 0 0110.4 1.92 69.73 69.73 0 009.48 1.25z"/><path class="cls-2" d="M327.54 125.83a6.72 6.72 0 116.71-6.71 6.72 6.72 0 01-6.71 6.71zm0-11.32a4.61 4.61 0 104.6 4.61 4.61 4.61 0 00-4.6-4.61z"/><path class="cls-10" d="M386.11 114.42a6.71 6.71 0 116.71-6.71 6.72 6.72 0 01-6.71 6.71zm0-11.32a4.61 4.61 0 104.61 4.61 4.62 4.62 0 00-4.61-4.61z"/><path class="cls-2" d="M394.41 136.24a1.05 1.05 0 01-1.06-1.05v-4.65a1.06 1.06 0 012.11 0v4.65a1 1 0 01-1.05 1.05zM394.41 144.37a1.05 1.05 0 01-1.06-1.05v-4.65a1.06 1.06 0 012.11 0v4.65a1 1 0 01-1.05 1.05zM400.92 138h-4.17a1 1 0 010-2.1h4.17a1.05 1.05 0 110 2.1zM392.06 138h-4.17a1.05 1.05 0 110-2.1h4.17a1.05 1.05 0 010 2.1zM358.94 108.11a1.05 1.05 0 01-1.05-1.06v-4.64a1.06 1.06 0 012.11 0v4.64a1.06 1.06 0 01-1.06 1.06zM358.94 116.23a1 1 0 01-1.05-1v-4.64a1.06 1.06 0 112.11 0v4.64a1.06 1.06 0 01-1.06 1zM365.46 109.85h-4.17a1.06 1.06 0 010-2.11h4.17a1.06 1.06 0 110 2.11zM356.6 109.85h-4.18a1.06 1.06 0 010-2.11h4.18a1.06 1.06 0 010 2.11zM87.57 102.08a6.72 6.72 0 116.71 6.72 6.72 6.72 0 01-6.71-6.72zm2.1 0a4.61 4.61 0 104.61-4.61 4.62 4.62 0 00-4.61 4.61z"/><path class="cls-10" d="M60.61 127.67a6.71 6.71 0 116.71 6.72 6.72 6.72 0 01-6.71-6.72zm2.1 0a4.61 4.61 0 104.61-4.61 4.62 4.62 0 00-4.61 4.61z"/><path class="cls-2" d="M46.65 137.09A1 1 0 0047.7 136v-4.6a1.05 1.05 0 10-2.1 0v4.6a1 1 0 001.05 1.09zM46.65 145.22a1 1 0 001.05-1.05v-4.65a1.05 1.05 0 10-2.1 0v4.65a1 1 0 001.05 1.05zM40.13 138.84h4.17a1.06 1.06 0 000-2.11h-4.17a1.06 1.06 0 000 2.11zM49 138.84h4.17a1.06 1.06 0 000-2.11H49a1.06 1.06 0 100 2.11zM70.91 101.39a1.05 1.05 0 001.06-1V95.7a1.06 1.06 0 10-2.11 0v4.64a1 1 0 001.05 1.05zM70.91 109.52a1.05 1.05 0 001.06-1v-4.65a1.06 1.06 0 00-2.11 0v4.65a1 1 0 001.05 1zM64.4 103.13h4.17a1 1 0 100-2.1H64.4a1.05 1.05 0 100 2.1zM73.26 103.13h4.17a1.05 1.05 0 100-2.1h-4.17a1.05 1.05 0 000 2.1z"/><path class="cls-1" d="M271.69 102.56a.68.68 0 01-.37 0c-1.28-.54-2-.79-2-.79a.75.75 0 11.47-1.42s.8.27 2.14.83a.75.75 0 01.4 1 .73.73 0 01-.64.38zM309.8 142.67c.51 1.36 1 2.76 1.42 4.16a.75.75 0 00.79.53h.14a.75.75 0 00.49-.94 72.8 72.8 0 00-1.44-4.24.75.75 0 00-1.4.52zM312.38 151.07c.34 1.4.65 2.85.92 4.3a.74.74 0 00.81.6h.06a.75.75 0 00.6-.88c-.27-1.47-.59-2.94-.94-4.38a.75.75 0 10-1.45.36zM315.53 173.65a.74.74 0 00.67-.73v-4.48a.75.75 0 00-.77-.72.73.73 0 00-.72.77c0 1.44.05 2.93 0 4.41a.73.73 0 00.73.75zM314.63 158.87a.76.76 0 00-.65.84 80.565 80.565 0 01.46 4.35.75.75 0 00.8.69.75.75 0 00.67-.8 96.418 96.418 0 00-.46-4.45.75.75 0 00-.82-.65zM308.13 138.61a.76.76 0 00.76.44 1 1 0 00.23-.06.76.76 0 00.38-1c-.61-1.36-1.27-2.72-2-4a.76.76 0 00-1-.31.75.75 0 00-.32 1c.71 1.32 1.35 2.6 1.95 3.93zM275.29 104.37c1.29.65 2.58 1.37 3.86 2.12a.67.67 0 00.45.1.75.75 0 00.57-.36.76.76 0 00-.26-1c-1.3-.76-2.62-1.49-3.94-2.16a.74.74 0 00-1 .32.76.76 0 00.32.98zM286.44 111.41a.75.75 0 10.9-1.19c-1.18-.9-2.41-1.78-3.64-2.62a.75.75 0 10-.84 1.24c1.21.82 2.42 1.68 3.58 2.57zM299 123.65a.76.76 0 00.66.28.79.79 0 00.39-.16.74.74 0 00.12-1c-.93-1.16-1.91-2.31-2.91-3.42a.76.76 0 00-1.06 0 .75.75 0 00-.05 1.06c.98.98 1.94 2.11 2.85 3.24zM293.09 117.15a.78.78 0 00.61.21.74.74 0 00.45-.22.75.75 0 000-1.06c-1.07-1-2.18-2.06-3.31-3a.75.75 0 10-1 1.13c1.16.93 2.21 1.93 3.25 2.94zM304.05 130.84a.73.73 0 00.71.35.67.67 0 00.31-.1.74.74 0 00.25-1c-.77-1.27-1.6-2.53-2.46-3.75a.75.75 0 10-1.22.86c.84 1.16 1.65 2.4 2.41 3.64z"/><path class="cls-10" d="M271.68 97.45l3.27-12.12-40.1.34 36.83 11.78z"/><path class="cls-2" d="M234.85 85.67l34.88 14.7.09.04 1.5 2.49.36-5.45-36.83-11.78z"/><path class="cls-2" d="M271.32 102.9l-3.25-.51 1.75-1.98 1.5 2.49z"/><path class="cls-10" d="M265.43 98.56l4.39 1.85-9.04 10.19-25.93-24.93 30.58 12.89z"/><rect class="cls-2" x="44.84" y="408.68" width="411.21" height="15.99" rx="7.63"/><path class="cls-2" d="M456.06 416.31v.37H44.84v-.37a7.64 7.64 0 017.63-7.63h396a7.64 7.64 0 017.59 7.63z"/><rect class="cls-3" x="181.28" y="308.83" width="135.15" height="75.84" rx="5.38"/><path class="cls-4" d="M238.39 384.58h20.93v23.86h-20.93z"/><circle class="cls-1" cx="248.62" cy="347.68" r="10.39"/><path class="cls-3" d="M228.17 400h40.7a6.65 6.65 0 016.65 6.65v1.82h-54v-1.82a6.65 6.65 0 016.65-6.65z"/></svg>