<svg xmlns="http://www.w3.org/2000/svg" xmlns:xlink="http://www.w3.org/1999/xlink" width="465" height="340" fill="none" xmlns:v="https://vecta.io/nano"><style><![CDATA[.B{fill:#263135}.C{fill:#f8b29a}.D{fill:#f5c2ac}.E{fill:#ef4351}.F{fill:#000b29}.G{fill:#fff}.H{fill:#07074f}.I{fill:#a6a6b1}.J{fill:#c84650}]]></style><path d="M201.8 73.1c-15.63-56.68-86-74.95-126.41-32.58l-1.74 1.86c-57.86 62.9-30.52 217.88 90.23 257.17S410.2 267.1 417.27 203s-48.65-84.28-135.1-66.35c-48.84 10.1-70.64-28.25-80.37-63.55z" fill="#e0e1e7"/><path d="M447.9 249.4c12.33-12.4 21.72-26.4 12.38-28.6s-25.05 22.2-27.8 44.44l-2.74 7.34c2.28-16.16-3.26-35.84-11.36-36.65s-3.18 12 3.22 22.88c4.87 8.3 6.15 14.86 6.47 18.25l-12.93 34.64c3.53-25.6-5.24-56.64-18.07-57.93s-5 19 5.1 36.3c7.67 13.1 9.73 23.44 10.26 28.85l-2.58 6.9 3.4 1.9 15.38-41.22a49.67 49.67 0 0 1 13.9-7.06c12-4.06 24-10.5 17.42-15.18-5.74-4-19.23 3.75-28.52 14.76l5.32-14.26c2.4-4.12 5.8-10.02 11.13-15.37zM59.27 87.7c1.6-15 .36-29.44-7.1-25.87s-4.85 28.43 5.3 44.82l2.12 6.4C52.4 101 38.1 90.75 32.2 94.55s4.3 9.75 14.5 13.63c7.75 3 12.15 6.67 14.2 8.77l10 30.23C59.44 128.1 36.82 112 27.5 118s6.84 15.46 23 21.62c12.2 4.66 19.17 10.5 22.44 13.85l2 6 3.3-.56-11.9-35.9c1.2-4.34 3.05-8.467 5.52-12.23 5.87-9.2 10.48-20 3.53-19.58-6 .37-10.9 12.88-11.2 25.28L60.1 104c-1-5.373-1.266-10.854-.82-16.3z" class="E"/><g fill="#e0e1e7"><path d="M101.36 323.68h16.7c-9-1.5-31.42-11.1-33.42-30.4-2.53-24.4-11.22-24.1-25.88-26.66s-18.68 1.6-28-17.35S.71 227.94.71 227.94s18.93 20.64 15.3 36.33 8.93 22 19 23.92 7.64 15.47 11.46 24.14c1.74 4 8.87 8.06 16.1 11.35h38.8z"/><path d="M65.15 299.64c.73 7.32 4.93 16 11.25 23.27l.7.77H79c-.55-.57-1.06-1.14-1.54-1.7-6-6.94-10.22-15.55-10.92-22.5-1.1-11-9.63-18.55-27.65-24.38-10.46-3.38-13.77-16.15-13.8-16.28a.7.7 0 0 0-.314-.429c-.078-.047-.165-.08-.255-.093s-.182-.01-.27.012-.172.06-.246.114-.136.122-.183.2-.08.165-.093.255-.01.182.012.27c.14.56 3.5 13.65 14.72 17.28 17.4 5.63 25.65 12.78 26.7 23.2z"/></g><path d="M123.28 312l.2 11.66h36.36l.16-12.4.1-24.7v-6l-37.07-.4v8.45l.23 23.4z" class="B"/><path d="M123.06 288.6l.22 23.42c12.237.987 24.543.736 36.73-.75l.1-24.7-37.06 2.04z" class="F"/><path d="M77.46 303.66l.23 20h36.36l.22-12.54.23-22.07v-8.92l-37.1.4v10.55l.05 12.58z" class="B"/><path d="M77.4 291.1v12.56a227.21 227.21 0 0 0 36.81 7.48l.23-22.07-37.04 2.03z" class="F"/><path d="M138.37 85.08s5.84-5.63 5.82-11.18-3.8-3.92-5.82-9.1-8.05-8.33-11.36-7.7-10.27-12.25-19.73-10-8.64 14.4-12.7 16.17-2.94 9-.8 10.6 3 8.24 4.26 8.1 40.33 3.1 40.33 3.1z" class="B"/><path d="M99 85s-3.67-4.9-6.4-.85 1.13 16 7.8 13.1L99 85z" class="C"/><g class="D"><path d="M99 93.5a.57.57 0 0 1-.54-.42c-1-3.7-4.86-5.2-4.9-5.2a.57.57 0 0 1-.365-.289.57.57 0 0 1-.028-.465.57.57 0 0 1 .328-.33.57.57 0 0 1 .465.024 9.74 9.74 0 0 1 5.59 6 .56.56 0 0 1-.052.426.56.56 0 0 1-.338.264.45.45 0 0 1-.16-.01h0z"/><path d="M95.13 91.64a.55.55 0 0 1-.3-.09.57.57 0 0 1-.249-.36.57.57 0 0 1 .079-.43 5.22 5.22 0 0 1 2.12-1.71.56.56 0 0 1 .43-.009.56.56 0 0 1 .31.299.57.57 0 0 1-.28.75 4 4 0 0 0-1.63 1.29.59.59 0 0 1-.48.26h0z"/></g><path d="M136.9 85s3.67-4.9 6.4-.85-1.13 16-7.8 13.1L136.9 85z" class="C"/><g class="D"><path d="M137 93.5c.124-.002.243-.044.34-.12s.168-.18.2-.3c1-3.7 4.86-5.2 4.9-5.2a.57.57 0 0 0 .274-.709c-.05-.13-.145-.24-.27-.304a.57.57 0 0 0-.404-.047c-1.312.534-2.492 1.347-3.457 2.383s-1.693 2.27-2.133 3.617c-.02.07-.025.145-.016.218s.032.144.068.208.085.12.143.166a.56.56 0 0 0 .195.098.45.45 0 0 0 .16-.01h0z"/><path d="M140.8 91.64a.55.55 0 0 0 .3-.09.56.56 0 0 0 .16-.155.57.57 0 0 0 .089-.205.56.56 0 0 0 .003-.223.54.54 0 0 0-.082-.207c-.543-.748-1.275-1.338-2.12-1.7a.56.56 0 0 0-.214-.047.53.53 0 0 0-.216.038.59.59 0 0 0-.185.118.56.56 0 0 0-.125.181c-.06.137-.066.292-.014.432a.57.57 0 0 0 .294.318 4 4 0 0 1 1.63 1.29c.053.08.124.144.208.2a.59.59 0 0 0 .272.071h0zm-13.8 15.7v11.9s-3.55 6.06-8.34 6.48-9.06-5.22-9.06-5.22v-12.3l17.4-.84z"/></g><path d="M127 107.34v5.28c-3.22 3.57-8.93 4.46-17.4 3.2v-7.65l17.4-.84z" class="C"/><path d="M139.55 76.8a115.76 115.76 0 0 1-1.54 15 39.53 39.53 0 0 1-.74 3.21c-2.5 8.77-8.77 23.8-26.3 17.54-7.74-2.76-11.33-11.4-12.93-20.16-.915-5.373-1.307-10.822-1.17-16.27a12.39 12.39 0 0 1 1.745-6.122c1.105-1.854 2.675-3.387 4.555-4.448 10.35-5.87 21.27-3.68 28.46-.92 2.435.935 4.512 2.615 5.934 4.8s2.118 4.765 1.986 7.37h0z" class="D"/><path d="M98 92.4s1.7 10.14 3.3 13.83 6 4.4 7.65 7.5c2.35 4.46 5.93 8 11.83 5.83 4.9-1.78 4.68-4.3 7.43-6.23 4.7-3.33 7-7 7.23-10S138 91.8 138 91.8l-2.52-.17a65.36 65.36 0 0 1-3.56 6.26c-2.13-4.67-12.37-1.27-12.37-1.27l-1.95.63-2-.63s-10.36-3.25-12.4 1.64c-1.3-1.927-2.23-4.08-2.74-6.35l-2.46.5zm19.57 6.44c11.74-2 9.64 4.86 9.57 5.1a12.08 12.08 0 0 1-2.4 1.83c-4.55 2.46-5 2.08-6.84 2.16-2.428.01-4.812-.64-6.9-1.88-1.182-.714-2.285-1.552-3.3-2.5 0 0-1.82-6.3 9.9-4.72h-.04zm-7.02-12.34c0 1.27-.66 2.3-1.47 2.3s-1.46-1-1.46-2.3.66-2.3 1.46-2.3 1.47 1.03 1.47 2.3zm17.37 0c0 1.27-.65 2.3-1.46 2.3s-1.46-1-1.46-2.3.66-2.3 1.46-2.3 1.46 1.03 1.46 2.3zm4.3-7.57s-6-2.4-10.7-.38l.46 2.6s6.83-.58 10.27.8c.332-.982.318-2.047-.04-3.02h0zm-28.72.01s6.08-2.4 10.77-.38l-.47 2.6s-6.88-.6-10.34.82c-.343-1-.328-2.07.04-3.05h0z" class="B"/><path d="M118.17 96.14a6 6 0 0 0 2-.43.58.58 0 0 0 .207-.113.57.57 0 0 0 .143-.187.59.59 0 0 0 .056-.229c.002-.08-.013-.16-.043-.232a.57.57 0 0 0-.132-.195c-.058-.055-.126-.097-.2-.125s-.154-.038-.233-.033-.157.027-.227.065a3.34 3.34 0 0 1-2.26.21c-.087-.056-.157-.134-.206-.225a.61.61 0 0 1-.074-.295c-.2-2 .34-8.6.34-8.66.006-.074-.003-.148-.026-.218a.55.55 0 0 0-.107-.191c-.047-.056-.106-.102-.17-.136s-.138-.054-.21-.06a.56.56 0 0 0-.218.025c-.07.023-.135.06-.192.107a.57.57 0 0 0-.136.172c-.033.066-.053.137-.06.21-.276 2.945-.4 5.903-.34 8.86.012.28.093.552.237.793s.343.443.583.587c.386.218.826.322 1.27.3h0z" class="C"/><path d="M111 100c.43 2.16 1.86 6.13 6.66 6.13s6.17-3.63 6.63-6.13H111z" class="G"/><path d="M139.55 76.8a115.76 115.76 0 0 1-1.54 15l-2.52-.17s.6-3.9.9-6.45.76-7.3-1.4-7.9-.9-6-3.9-8.36-9.7-4.43-14.15-1.7-9.5 1.22-11.54 1.7-4.83 3.3-4.08 5.93-1.5 4.24-2 7 1.2 10.08 1.2 10.08l-2.4.48c-.915-5.373-1.307-10.822-1.17-16.27a12.39 12.39 0 0 1 1.745-6.122c1.105-1.854 2.676-3.387 4.555-4.448 10.35-5.87 21.27-3.68 28.46-.92a12.37 12.37 0 0 1 5.895 4.8 12.36 12.36 0 0 1 1.975 7.34h0z" class="B"/><g class="H"><path d="M167.79 298.42a200.5 200.5 0 0 1-34.32 5.63l-1.55.12-4.72.26c-7.784.33-15.58.198-23.35-.4l-4.7-.42-1.5-.16c-9.4-1.018-18.72-2.688-27.9-5-.1-8.57 0-35.66.54-65l.2-10.66c.82-38.72 2.4-78 5.28-82 2.74-3.77 11-8.56 18.9-12.88l1.4-.77 5.15-2.8c3.5-1.9 6.52-3.6 8.4-4.9v1.07s4.25 5.63 9 5.22c4.38-.38 7.7-5.43 8.27-6.33 3.233 2.077 6.57 3.987 10 5.72l3.7 2 1.4.74c8.74 4.63 18.16 9.86 21 13.74.276.44.478.924.6 1.43 1.68 5.67 2.72 24.47 3.35 47.24v.25c0 .92 0 1.84.07 2.78v.36l.48 24.85v3l.06 5v3.66l.25 68.24z"/><path d="M167.09 193.23c-2.75-4.5-5.7-9.1-8.5-13.14-1.17-1.7-2.3-3.32-3.4-4.78-.01-.03-.027-.057-.05-.08l-1-1.35c-.057-.067-.098-.145-.12-.23h0c-.044-.146-.042-.303.007-.448s.14-.272.263-.362a.76.76 0 0 1 .265-.132.75.75 0 0 1 .295-.02c.098.013.193.045.28.096a.74.74 0 0 1 .221.196c3.34 4.43 7.62 10.8 11.66 17.26v.25c-.03.88.04 1.8.06 2.74z"/><path d="M163.18 140.9s17.24 31.6 27.75 47.6l13.76-12.84c8.43-8 19.95-21.27 19.95-21.27L231 162s-25.9 46.62-37.52 52.48-33-35.6-33-35.6l2.7-37.96zM90.16 265.43a.78.78 0 0 1-.296-.071c-.093-.043-.177-.103-.247-.18s-.124-.163-.16-.26a.78.78 0 0 1-.048-.301c.9-25.52-12.33-33.78-12.46-33.86a.78.78 0 0 1 .209-1.427c.2-.05.413-.02.6.087.15.1 3.65 2.2 7 7.66 3.1 5 6.68 13.8 6.2 27.6a.78.78 0 0 1-.78.76h0zm56.44-24.03a.77.77 0 0 1-.528-.207c-.143-.134-.23-.317-.242-.513-.42-5.37 1.35-9.3 3.6-14.25l2-4.64c4.34-10.55 2.16-22.6 2.14-22.73-.028-.104-.033-.212-.017-.318s.055-.208.112-.3.134-.17.223-.23.2-.1.295-.12a.78.78 0 0 1 .319.008.79.79 0 0 1 .289.135.78.78 0 0 1 .211.239.8.8 0 0 1 .098.304c.1.5 2.3 12.63-2.23 23.6l-2 4.68c-2.23 4.94-3.85 8.5-3.46 13.5.008.103-.004.206-.036.303s-.083.2-.15.267a.77.77 0 0 1-.24.188.76.76 0 0 1-.294.082h-.08z"/></g><path d="M101.23 124.32l1.85 12.88 1.58 12.2.36 3.4c.42 4.16.74 8.3.86 12.14 0 1.17.05 2.3 0 3.4a53.79 53.79 0 0 1-.53 7.95l-.6 4.27-.4 3.4c-.45 4.34-.68 8.38-.75 12.2v3.4c0 4.32.28 8.35.64 12.18l.34 3.4c.47 4.2 1 8.2 1.57 12.13l.46 3.38.64 5.42c.2 1.8.33 4.18.4 6.67v3.4c0 3.74-.08 7.87-.26 12.2 0 1.13-.1 2.28-.15 3.43l-.73 12.22-.25 3.43-1 12.22-.32 3.42-1.14 11c7.77.598 15.566.732 23.35.4.2-3.2.68-8.35 1.17-14.42l.27-3.42.73-12.14.12-3.42c.12-4.16.12-8.28-.06-12.15a90.84 90.84 0 0 0-.21-3.44 85.85 85.85 0 0 0-.33-3.34c-.36-2.932-.528-5.885-.5-8.84 0-1.14 0-2.28.08-3.42.18-4 .6-7.92 1.1-12.13l.42-3.4 1.3-12.06.27-3.42c.25-3.73.43-7.74.46-12.1v-3.45c0-3.78-.2-7.82-.5-12.17l-.1-1.17c0-.77-.1-1.54-.14-2.3-.183-4.042-.156-8.09.08-12.13l.22-3.44c.32-4.07.78-8.1 1.3-12l.48-3.42 1.95-11.8.6-3.38 1.07-6.38a111.57 111.57 0 0 1-10-5.72c-.57.9-3.9 6-8.27 6.33-4.8.4-9-5.22-9-5.22v-1.07c-1.92 1.3-4.94 3-8.44 4.9z" class="G"/><path d="M102.6 133.8l.5 3.4c5.207-.01 10.393-.665 15.44-1.95a40.96 40.96 0 0 1 16.8-.4l.6-3.38c-6.02-1.1-12.202-.946-18.16.45a58.94 58.94 0 0 1-15.16 1.86h0zm2.06 15.6l.36 3.4c4.553-.207 9.075-.86 13.5-1.95a40.67 40.67 0 0 1 14.36-.76l.48-3.42a44.89 44.89 0 0 0-15.61.85c-4.288 1.07-8.674 1.7-13.1 1.88h0zm1.22 15.53v3.4a71.24 71.24 0 0 0 12.6-1.91 41 41 0 0 1 12.83-.92l.22-3.44a45 45 0 0 0-13.82 1c-3.882.962-7.84 1.588-11.83 1.87h0zM104.4 184a67.02 67.02 0 0 0 14.13-2 41.09 41.09 0 0 1 13-.91l-.1-1.17c0-.77-.1-1.54-.14-2.3a44.93 44.93 0 0 0-13.52 1.05c-4.26 1.055-8.616 1.682-13 1.87l-.38 3.46zm-.76 15.55a65.46 65.46 0 0 0 14.89-2 41.19 41.19 0 0 1 13.5-.87v-3.45c-4.773-.428-9.584-.1-14.25 1a62.07 62.07 0 0 1-14.1 1.88c-.03 1.2-.04 2.33-.03 3.44zm.64 12.18l.34 3.4a67.41 67.41 0 0 0 13.91-1.95 41.31 41.31 0 0 1 12.77-.93l.27-3.42a44.56 44.56 0 0 0-13.81 1 64.45 64.45 0 0 1-13.48 1.91zm1.9 15.52l.46 3.38a75.02 75.02 0 0 0 11.88-1.87 41.6 41.6 0 0 1 11.06-1.05l.42-3.4a44.98 44.98 0 0 0-12.25 1.13 70.71 70.71 0 0 1-11.57 1.82h0zm1.5 15.47v3.4a77.36 77.36 0 0 0 10.8-1.79 41.76 41.76 0 0 1 9.87-1.08l.08-3.42c-3.6-.035-7.17.355-10.67 1.16a75.75 75.75 0 0 1-10.08 1.72h0zm-.36 19.03a75.3 75.3 0 0 0 11.2-1.83 41.22 41.22 0 0 1 10.9-1 90.84 90.84 0 0 0-.21-3.44c-3.858-.107-7.713.283-11.47 1.16a74.56 74.56 0 0 1-10.3 1.72l-.15 3.4zm-.98 15.65a73.62 73.62 0 0 0 12.19-1.89 41.21 41.21 0 0 1 10.85-1.06l.12-3.42a45.32 45.32 0 0 0-11.74 1.15 71.4 71.4 0 0 1-11.17 1.82l-.25 3.4zM105 293c4.565-.218 9.097-.887 13.53-2a41.65 41.65 0 0 1 9.85-1.08l.27-3.42a44.99 44.99 0 0 0-10.89 1.18 67.7 67.7 0 0 1-12.44 1.85L105 293z" fill="#a5aab1"/><path d="M131.92 304.17l1.55-.1c3.07-18.05 1.3-44.53.64-52.65-.68-8.43.63-19.26 3.6-29.72 2.3-8.12.9-27-.24-42.1l-.8-11.56c-.58-10.65 3.28-30.37 5.4-40.25l-1.4-.74c-2.13 9.78-6.12 29.94-5.52 41.08l.8 11.58c1.12 15 2.52 33.7.3 41.56-3 10.63-4.35 21.66-3.65 30.26.65 8.13 2.4 34.78-.7 52.64zm-31.44-73.42c1.8 11.1 1.24 18.3.58 26.64l-.6 8.56c-.48 9.65-2.1 29.1-2.84 37.5l1.5.16 2.85-37.58c.15-3.06.37-5.84.58-8.52.66-8.44 1.24-15.73-.6-27l-1.22-7.32c-2.05-12.1-4.16-24.6-3.16-30.6a152.33 152.33 0 0 1 .9-4.88c1.35-7.23 3.05-16.22 2.5-24s-3.7-28.68-4.9-36.58l-1.42.77c1.27 8.26 4.3 28.4 4.82 35.92s-1.15 16.5-2.5 23.64l-.9 4.9c-1 6.24 1 18.3 3.16 31.1l1.22 7.28z" class="H"/><path d="M70.66 153.62S55.22 205.1 51.4 223.45s-4.12 56.48-4.12 56.48-6.75 14-6.9 20.25c-.17 6.64 3.32 11.93 2.92 16.28s4.9 2 3.4-6.82 2.74-16.8 4.58-16.53-1.52 9.62.1 13 3.73-3.18 5.82-7.16 2.05-13.14 1.06-19.57 10.67-45.5 10.73-56.83l14.77-49.9s-4.9-20.82-13.1-19.04z" class="D"/><g class="H"><path d="M85.65 171.4c-.52 3.3-2.35 9-4.72 16.13l-.6 1.84v.08l-1.84 5.57c-2.62 7.95-5.52 17-8 26.4a214.73 214.73 0 0 0-2.31 9.65c-.9 4.1-1.64 8.2-2.2 12.22-2 14.45-5.75 32.76-5.75 32.76-5.53 2.28-14.2-.72-14.2-.72s-.22-26.37 1-36.62c1.327-10.773 3.29-21.46 5.88-32 6.63-28.5 18.3-56.37 21.5-63.76l.6-1.37h2.78c5.42 3.42 9.26 20.92 7.85 29.83z"/><path d="M45.6 270.1l.44 6.06s8.22 2.68 14.4.8l1.63-5.4c-5.94.32-11.42.17-16.46-1.44zm35.33-82.56a.81.81 0 0 1 0 .26l-.57 1.58v.08l-1.84 5.57a296.36 296.36 0 0 0-8 31.37l.06-5a204.7 204.7 0 0 0-2.3 9.65c.547-4.264 1.33-8.494 2.35-12.67a296.67 296.67 0 0 1 8.93-31.15c.033-.097.086-.187.155-.263a.76.76 0 0 1 .247-.18.73.73 0 0 1 .298-.066c.103-.001.205.018.3.058a.74.74 0 0 1 .38.76h0z"/></g><path d="M357.07 323.68h36.47l-.36-7.24-1.18-21-36.47 1.62 1.07 18.74.47 7.88z" class="B"/><g class="F"><path d="M359.89 296.88l-4.36.2 1.07 18.74c12.165 1.052 24.387 1.262 36.58.63l-1.18-21-32.1 1.44z"/><path d="M363.86 323.68l-1.5-26.9-2.46.1 1.5 26.8h2.46z"/></g><path d="M346.37 323.68l.53-8.84 1-17.77-36.48-1.62-.76 13.12-.77 15.1h36.48z" class="B"/><g class="F"><path d="M310.68 308.57a322.08 322.08 0 0 0 36.22 6.27l1-17.77-36.48-1.62-.74 13.12z"/><path d="M341.68 323.68l1.5-26.82-2.46-.1-1.5 26.93h2.46z"/></g><path d="M397.3 301.13c-7.325 2.026-14.774 3.573-22.3 4.63a169.82 169.82 0 0 1-7.74.9c-3.48.32-6.96.537-10.44.65-5.756.173-11.517.046-17.26-.38a174.65 174.65 0 0 1-33.39-5.8c-.1-10.37.06-47.58.83-83.47l.12-4.83v-2.1c0-1.14.05-2.27.08-3.4l.2-6.86c0-1.35.08-2.7.12-4v-.83l.1-2.62v-.8c0-.8.06-1.6.08-2.4l.07-2c.86-24.2 2.12-43.3 3.93-46 3.06-4.56 13.48-10.62 21.86-15.55 3-1.76 6.56-3.58 8.6-4.94 3 2.4 5.13 4.57 9.55 4.42 4.93-.17 6.15-3.14 8-5.7 1.15.75 4.07 3.14 5.6 4l4.17 2.43 7.07 4.08c3.54 2.08 7 4.23 9.93 6.3s5.2 4 6.32 5.72c1.64 2.46 2.7 18.38 3.38 39.34 0 .73.05 1.48.08 2.23v.27c0 .76.05 1.54.07 2.33l.2 7.2v2.73l.06 3v.6l.15 8.17v2.42c.87 37.75.73 79.12.6 90.25z" fill="#b9b9c5"/><path d="M397 210.9l-11.8 11.93-11-11.1-11 11.1-11-11.16-11 11.16-11-11.23-11.07 11.23-12-12.13.08-3.4.2-6.86 11.7-11.85 11.07 11.23 11.07-11.23 11 11.15 11-11.15 11 11.1 11-11.1 11.57 11.72.15 8.17.04 2.42zm-20.34 61.5c-15.75-.07-29.2-7.23-37.7-13.23a86.85 86.85 0 0 1-14.83-13.16c-.066-.076-.116-.165-.147-.26s-.044-.196-.037-.297a.76.76 0 0 1 .08-.288c.045-.1.108-.17.184-.235a.77.77 0 0 1 .26-.147c.095-.03.196-.044.297-.037a.76.76 0 0 1 .288.08c.1.045.17.108.235.184a85.54 85.54 0 0 0 14.58 12.89c8.32 5.87 21.45 12.87 36.8 12.94a.76.76 0 0 1 .76.76c.007.103-.008.207-.043.305s-.1.186-.16.262a.64.64 0 0 1-.254.174.78.78 0 0 1-.302.06zm-9.82-9.32c-13.42-2.64-25.3-12.9-25.82-13.38a.75.75 0 0 1-.18-.235.77.77 0 0 1-.077-.285.77.77 0 0 1 .039-.294c.032-.094.082-.18.148-.256a.75.75 0 0 1 .235-.18.77.77 0 0 1 .285-.077.77.77 0 0 1 .294.039c.094.032.18.082.256.148.14.12 14.1 12.2 28.35 13.5a.75.75 0 0 1 .282.083.78.78 0 0 1 .23.185.77.77 0 0 1 .14.259c.03.095.04.194.03.293a.76.76 0 0 1-.265.517c-.076.065-.165.113-.26.143s-.196.04-.295.03a36.42 36.42 0 0 1-3.39-.49zM340 146.53c-.177-.001-.35-.064-.485-.177s-.23-.27-.265-.443c-.035-.198.01-.4.124-.566s.3-.278.486-.314c19.2-3.65 25-16 25-16.13a.76.76 0 0 1 1-.37.74.74 0 0 1 .239.172.75.75 0 0 1 .155.251.76.76 0 0 1 .046.291c-.004.1-.028.196-.07.286-.24.54-6.17 13.2-26.14 17h-.1zm-23.45 33.25c-.023.087-.057.17-.1.25l-.94 1.5-3 5a298.81 298.81 0 0 0-4.9 9l.1-2.62v-.8c2.64-4.9 5.26-9.46 7.47-12.93.104-.16.266-.274.452-.318a.75.75 0 0 1 .548.078.76.76 0 0 1 .338.36.77.77 0 0 1 .052.491h0z" class="I"/><path d="M413.3 151.7s24.55-7.9 31.82-24c2.1-4.67-15.2-52.05-15.2-52.05l-8.36.4 3.83 25.74c1.18 7.66 3.1 16.8 3.75 19.8l.22 1-1.24.23c-11.47 2.33-26.12 9.8-26.12 9.8l11.3 19.05z" class="D"/><path d="M435.53 127.16c.083.06.177.104.276.128a.78.78 0 0 0 .304.013c.102-.016.2-.05.286-.105a.76.76 0 0 0 .224-.206c.063-.082.11-.177.135-.278a.76.76 0 0 0 .015-.308.77.77 0 0 0-.107-.29c-.055-.088-.128-.164-.213-.224a61.83 61.83 0 0 0-7.31-4.29l.22 1-1.24.23a63.11 63.11 0 0 1 7.41 4.33h0z" class="C"/><path d="M375.74 130s-7.43 17.43 11.48 27.13c13.08 6.72 42.9-10.82 42.9-10.82l-10.62-22.56S392.21 135 375.74 130z" class="I"/><path d="M425.64 49c-.74.52-.6 3.72-.26 6.74h-.32c-.88-4-2.63-10.87-4.13-9.56-1 .85.34 6.76 1.23 10.3l-.56.17c-1.12-4.2-3.55-12.26-5.17-10.7-1.08 1.05 1 8.15 2.14 11.78l-.47.18c-1.1-3.5-3.45-10.17-5.06-8.6-1.46 1.4 2.72 11.47 2.72 11.47l1.1 3.95s-1.3.56-3.34-1.74-4.46-2.7-2.77.62c1.9 3.76 4.73 6.46 6 9.1s5.15 3.54 5.15 3.54l7.85-.38s1.52-13.26-1.4-19.58c-.53-3.7-1.4-8.2-2.7-7.3z" class="D"/><path d="M328.55 79.6c0 13.37 8.23 22.58 21.6 22.58s22.68-9.9 22.68-23.27c.036-3.47-.56-6.915-1.76-10.17-.058-.184-.128-.365-.2-.54-.14-.35-.28-.7-.44-1-.24-.52-.5-1-.77-1.5-3.48-6.26-9.72-10.24-18.1-10.24-16.03-.03-23 10.8-23 24.15z" class="B"/><path d="M331.55 85.35s-3.7-4.95-6.47-.86 1.14 16.18 7.9 13.23l-1.43-12.37z" class="C"/><g class="D"><path d="M331.5 94c-.125-.002-.245-.043-.344-.12s-.172-.18-.206-.3c-1.05-3.73-4.9-5.25-4.95-5.26-.07-.026-.135-.066-.19-.117a.57.57 0 0 1-.131-.181.58.58 0 0 1-.051-.217.59.59 0 0 1 .036-.22.57.57 0 0 1 .117-.189c.05-.055.113-.1.18-.13a.57.57 0 0 1 .437-.015c.18.07 4.45 1.72 5.65 6a.58.58 0 0 1-.39.71l-.16.04z"/><path d="M327.6 92.1a.59.59 0 0 1-.31-.09c-.063-.04-.117-.093-.16-.155a.57.57 0 0 1-.089-.205.56.56 0 0 1-.003-.223c.013-.074.04-.144.082-.207a5.15 5.15 0 0 1 2.14-1.73.58.58 0 0 1 .76.29.57.57 0 0 1-.29.75 4.1 4.1 0 0 0-1.65 1.3c-.05.082-.12.15-.205.197a.57.57 0 0 1-.275.073z"/></g><path d="M369.82 85.35s3.7-4.95 6.47-.86-1.14 16.18-7.9 13.23l1.43-12.37z" class="C"/><g class="D"><path d="M369.86 94a.58.58 0 0 0 .345-.119c.1-.076.17-.18.205-.3 1-3.73 4.92-5.25 5-5.26.142-.054.257-.163.32-.302s.066-.296.01-.438-.163-.256-.3-.318-.297-.066-.44-.012c-.18.07-4.44 1.72-5.65 6a.59.59 0 0 0 .4.71l.1.04z"/><path d="M373.77 92.1a.59.59 0 0 0 .31-.09c.125-.084.213-.213.245-.36a.58.58 0 0 0-.075-.429 5.14 5.14 0 0 0-2.15-1.73.57.57 0 0 0-.613.324c-.053.114-.066.242-.038.364a.56.56 0 0 0 .191.312c.65.3 1.216.736 1.65 1.3.045.1.114.165.198.22a.57.57 0 0 0 .282.091h0zM359.82 108v12s-3.58 6.13-8.43 6.55-9.15-5.28-9.15-5.28v-12.45l17.58-.82z"/></g><path d="M359.82 108v5.33c-3.25 3.62-9 4.52-17.58 3.26v-7.75l17.58-.84z" class="C"/><path d="M372.5 77.1c-.19 5.092-.7 10.166-1.56 15.2a37.19 37.19 0 0 1-.75 3.24c-2.53 8.86-8.86 24.06-26.58 17.73-7.83-2.8-11.46-11.5-13.07-20.38a85.44 85.44 0 0 1-1.19-16.45c.042-2.18.652-4.312 1.77-6.184a12.55 12.55 0 0 1 4.601-4.495c10.46-5.93 21.5-3.72 28.77-.93a12.52 12.52 0 0 1 8.01 12.28h0z" class="D"/><path d="M343.1 86.92c0 1.28-.67 2.32-1.48 2.32s-1.48-1-1.48-2.32.66-2.33 1.48-2.33 1.48 1.04 1.48 2.33zm17.4-.05c0 1.28-.66 2.32-1.48 2.32s-1.47-1-1.47-2.32.66-2.33 1.47-2.33 1.48 1.04 1.48 2.33zm3.34-8s-4.66-1.84-8.25-.3l.36 2s5.27-.45 7.92.63a3.48 3.48 0 0 0-.03-2.34zm-27.16 0s4.66-1.84 8.25-.3l-.36 2s-5.27-.45-7.92.63c-.266-.76-.255-1.588.03-2.34z" class="B"/><path d="M350.88 96.66a6.05 6.05 0 0 0 2.07-.44.57.57 0 0 0 .186-.123.56.56 0 0 0 .125-.185c.03-.07.045-.143.046-.22s-.014-.15-.042-.22a.58.58 0 0 0-.123-.186.57.57 0 0 0-.403-.171.57.57 0 0 0-.219.042 3.44 3.44 0 0 1-2.29.22.6.6 0 0 1-.28-.53c-.033-2.92.08-5.84.34-8.75.007-.075-.002-.15-.024-.222a.57.57 0 0 0-.107-.196.58.58 0 0 0-.175-.14c-.066-.035-.14-.056-.214-.062a.58.58 0 0 0-.62.52 84.76 84.76 0 0 0-.34 9c.013.283.096.56.24.803s.347.45.59.597a2.4 2.4 0 0 0 1.24.26h0z" class="C"/><path d="M343.21 99.56c1 3.3 3.65 6.58 7.37 6.63s6.4-3.34 7.36-6.63h-14.73z" class="G"/><path d="M350.26 109.77a6.06 6.06 0 0 0 2.79-.78c.132-.08.228-.208.266-.358a.59.59 0 0 0-.066-.442c-.08-.133-.21-.228-.36-.266s-.31-.013-.44.066c-.674.37-1.423.578-2.2.6a4.58 4.58 0 0 1-2.08-.61.57.57 0 0 0-.429-.066c-.146.036-.272.128-.35.256a.55.55 0 0 0-.074.428c.017.073.048.14.09.202a.57.57 0 0 0 .163.15c.8.492 1.732.77 2.68.8h0z" class="C"/><path d="M371.9 85.45h-2.6c.28-2.6.7-7.18-1.44-7.84-6.75-2.07 2-6.84-1.05-9.2s-10.62-1.36-15.9-1.53-13.83-.1-15.9.38-.93 3.92-.17 6.58-2.55 5.6-3.1 8.37a12.03 12.03 0 0 0 0 3.25h-2.16l-.25-9c.043-2.18.653-4.312 1.77-6.184a12.55 12.55 0 0 1 4.6-4.496c10.46-5.93 21.5-3.72 28.77-.93a12.52 12.52 0 0 1 8 12.28c-.1 2.54-.3 5.45-.6 8.33z" class="B"/><g class="G"><path d="M341.35 93.65a6.47 6.47 0 0 1-4.588-11.041 6.47 6.47 0 0 1 7.052-1.407 6.48 6.48 0 0 1 2.905 2.383 6.47 6.47 0 0 1 1.09 3.596 6.48 6.48 0 0 1-6.46 6.47h0zm0-11.93a5.46 5.46 0 0 0-5.044 3.371 5.45 5.45 0 0 0 1.183 5.951c.764.764 1.737 1.284 2.796 1.494a5.46 5.46 0 0 0 6.525-5.355c-.003-1.447-.58-2.835-1.602-3.858a5.47 5.47 0 0 0-3.858-1.602h0zM359 93.65a6.47 6.47 0 0 1-3.594-1.09 6.45 6.45 0 0 1-2.383-2.904c-.49-1.184-.618-2.483-.368-3.738a6.47 6.47 0 0 1 8.821-4.716 6.47 6.47 0 0 1 3.994 5.978c-.002 1.715-.685 3.36-1.898 4.572A6.48 6.48 0 0 1 359 93.65h0zm0-11.93a5.46 5.46 0 0 0-5.044 3.371 5.47 5.47 0 0 0-.311 3.155 5.45 5.45 0 0 0 1.494 2.796c.764.764 1.737 1.284 2.796 1.494a5.46 5.46 0 0 0 4.926-9.216A5.46 5.46 0 0 0 359 81.721h0z"/><path d="M336 85.1c-.066 0-.13-.014-.2-.04a.48.48 0 0 1-.16-.11h0c-.904-.84-2-1.46-3.174-1.806a7.94 7.94 0 0 0-3.646-.194.52.52 0 0 1-.61-.38.5.5 0 0 1-.006-.196c.01-.065.035-.127.07-.183a.48.48 0 0 1 .135-.142.5.5 0 0 1 .18-.079 8.83 8.83 0 0 1 4.15.182c1.35.4 2.587 1.095 3.6 2.058a.52.52 0 0 1 .14.26.52.52 0 0 1-.029.294.53.53 0 0 1-.188.23.51.51 0 0 1-.282.086v.02zm28.52 0a.54.54 0 0 1-.243-.064.53.53 0 0 1-.187-.166.51.51 0 0 1 .15-.7c.2-.13 4.77-3.08 8.66-2.44.132.022.25.095.328.204a.51.51 0 0 1 .092.376.52.52 0 0 1-.204.33.51.51 0 0 1-.376.091c-3.5-.58-7.9 2.25-7.95 2.28-.08.058-.173.1-.27.1zm-11.6.63a4.05 4.05 0 0 0-1.22-1.108 4.06 4.06 0 0 0-1.56-.532 3.71 3.71 0 0 0-1.504.525 3.74 3.74 0 0 0-1.146 1.105l-.85-.55a4.7 4.7 0 0 1 1.512-1.443 4.71 4.71 0 0 1 1.988-.647 5.01 5.01 0 0 1 2.024.639 5 5 0 0 1 1.576 1.421l-.82.6z"/></g><path d="M314.42 178.83a183 183 0 0 1-14.84 23.64 60.7 60.7 0 0 1-7.27 8.12c-3.94 3.56-7.8 5.42-10.92 3.84-11.62-5.85-37.52-52.43-37.52-52.43l6.38-7.56s11.53 13.3 20 21.28L284 188.5l3.42-5.33 3.92-6.34c9.7-15.94 20.48-35.08 20.48-35.08l2.6 37.07z" class="D"/><path d="M299.58 202.47c-2.175 2.92-4.608 5.637-7.27 8.12l-4.93-27.4 3.92-6.34 8.28 25.63z" class="C"/><path d="M311.78 141.76l-23.3 36.62 7.82 32.2 19.27-31.37s2.33-21.47-3.8-37.46z" class="I"/><g class="H"><path d="M282.5 323.68c-1.66-9.22-3.3-19.6-4.8-29.7l-1-6.63-3.12-22.82-.9-6.84-1.32-10.6-36.77 1.4-36.88-1.4-2.47 19.7-.9 6.7-2.76 19.8v.3l-1 6.5v.1l-2.46 15.53-1 6.12-.33 1.84 95.68.01z"/><path d="M206.25 258.12a3.47 3.47 0 0 1-2.136 3.213 3.46 3.46 0 0 1-2.005.2c-.673-.134-1.293-.462-1.78-.947s-.817-1.103-.952-1.776-.067-1.372.196-2.007a3.47 3.47 0 0 1 1.278-1.559 3.48 3.48 0 0 1 1.93-.585 3.47 3.47 0 0 1 3.47 3.46zm8.6 13.43c0 .686-.203 1.357-.585 1.928a3.47 3.47 0 0 1-1.557 1.278c-.634.263-1.332.33-2.005.197a3.46 3.46 0 0 1-1.776-.949 3.47 3.47 0 0 1-.95-1.777c-.134-.673-.065-1.37.197-2.005s.708-1.176 1.278-1.557a3.47 3.47 0 0 1 3.258-.323 3.46 3.46 0 0 1 1.127.751c.322.323.578.706.752 1.128a3.46 3.46 0 0 1 .261 1.329h0zm16.92-6.93c0 .686-.203 1.357-.585 1.928s-.923 1.015-1.557 1.278-1.332.33-2.005.197-1.3-.464-1.777-.95a3.47 3.47 0 0 1-.95-1.777c-.135-.673-.065-1.37.197-2.005s.708-1.176 1.278-1.557a3.47 3.47 0 0 1 1.928-.585c.92 0 1.803.366 2.454 1.016a3.47 3.47 0 0 1 1.016 2.454h0zm-26.7 21.18a3.48 3.48 0 0 1-.585 1.93 3.47 3.47 0 0 1-1.559 1.278 3.48 3.48 0 0 1-3.783-.757 3.46 3.46 0 0 1-.947-1.779 3.47 3.47 0 0 1 3.414-4.141c.455 0 .906.1 1.327.264a3.47 3.47 0 0 1 1.123.753 3.46 3.46 0 0 1 .75 1.126 3.47 3.47 0 0 1 .26 1.327h0zm21.14-1.48c.002.687-.2 1.36-.58 1.93a3.46 3.46 0 0 1-1.557 1.283c-.634.264-1.333.333-2.007.2a3.48 3.48 0 0 1-1.779-.95c-.486-.486-.816-1.106-.95-1.78s-.064-1.372.2-2.007a3.47 3.47 0 0 1 3.214-2.137 3.46 3.46 0 0 1 3.46 3.46h0zM197.55 270c.001.863-.32 1.695-.9 2.334a3.46 3.46 0 0 1-2.239 1.116l.9-6.7a3.46 3.46 0 0 1 2.25 3.25h0zm63.1 34.68a3.47 3.47 0 0 1-.58 1.931 3.48 3.48 0 0 1-3.561 1.484 3.47 3.47 0 0 1-2.732-2.724c-.135-.674-.066-1.372.196-2.007a3.47 3.47 0 0 1 1.278-1.559 3.48 3.48 0 0 1 1.93-.585 3.47 3.47 0 0 1 3.47 3.46zM259 285.8a3.47 3.47 0 0 1-2.146 3.207 3.48 3.48 0 0 1-3.783-.757c-.485-.486-.814-1.105-.947-1.78a3.46 3.46 0 0 1 .202-2.006c.264-.634.7-1.175 1.282-1.555a3.47 3.47 0 0 1 1.931-.58c.455 0 .906.1 1.326.264s.802.43 1.124.753a3.47 3.47 0 0 1 1.011 2.453zm18.7 8.2a3.63 3.63 0 0 1-1.36.27 3.49 3.49 0 0 1-1.384-.208c-.442-.162-.847-.414-1.2-.738a3.31 3.31 0 0 1-.8-1.148 3.46 3.46 0 0 1 0-2.742c.186-.433.458-.823.8-1.148a3.41 3.41 0 0 1 1.2-.738c.453-.163.913-.233 1.384-.208a2.67 2.67 0 0 1 .4 0l.96 6.66zm-15.2 24.52c0 .686-.204 1.357-.585 1.928a3.47 3.47 0 0 1-1.557 1.278c-.634.263-1.332.33-2.005.197a3.46 3.46 0 0 1-1.777-.95 3.48 3.48 0 0 1-.95-1.777c-.133-.673-.065-1.37.198-2.005a3.47 3.47 0 0 1 3.206-2.142 3.48 3.48 0 0 1 1.328.264 3.49 3.49 0 0 1 1.125.752 3.48 3.48 0 0 1 .753 1.126c.174.42.264.872.264 1.328zM277.3 313c0 .686-.203 1.357-.585 1.928a3.47 3.47 0 0 1-1.557 1.278c-.634.263-1.332.33-2.005.197s-1.3-.464-1.777-.95a3.47 3.47 0 0 1-.95-1.777c-.135-.673-.065-1.37.197-2.005s.708-1.176 1.278-1.557a3.47 3.47 0 0 1 1.928-.585c.456-.001.908.088 1.33.26a3.48 3.48 0 0 1 1.127.752c.322.323.578.706.752 1.128a3.46 3.46 0 0 1 .261 1.329h0zm-30.85 10.68a3.43 3.43 0 0 0-1.24-1.11 3.45 3.45 0 0 0-3.232 0c-.497.263-.923.645-1.24 1.1h5.7z"/><use xlink:href="#B"/><path d="M193.64 296.75a3.46 3.46 0 0 1-3 3.43v-.1l1-6.5a3.5 3.5 0 0 1 1.459 1.29c.354.56.54 1.208.54 1.87zm-4.05 21.75c-.001.746-.242 1.472-.687 2.072a3.49 3.49 0 0 1-1.783 1.258l1-6.12a3.45 3.45 0 0 1 1.47 2.79zm21.8 1.5c.002.687-.2 1.36-.58 1.932a3.47 3.47 0 0 1-1.557 1.282c-.634.264-1.333.333-2.007.2a3.47 3.47 0 0 1-1.779-.95c-.486-.486-.817-1.105-.95-1.78s-.064-1.373.2-2.007a3.46 3.46 0 0 1 1.282-1.557c.572-.38 1.244-.583 1.93-.58.918 0 1.798.365 2.447 1.013a3.46 3.46 0 0 1 1.013 2.447h0zm18.3-2.73c0 .686-.203 1.357-.584 1.928a3.47 3.47 0 0 1-3.562 1.475 3.46 3.46 0 0 1-1.777-.949 3.48 3.48 0 0 1-.95-1.777c-.134-.673-.065-1.37.198-2.005a3.46 3.46 0 0 1 1.278-1.557 3.47 3.47 0 0 1 1.927-.585c.457-.001.908.088 1.33.262a3.44 3.44 0 0 1 1.127.751 3.46 3.46 0 0 1 .752 1.128 3.44 3.44 0 0 1 .261 1.329h0zm-13.05-17.04a3.47 3.47 0 0 1-.586 1.929c-.382.57-.924 1.015-1.56 1.278a3.48 3.48 0 0 1-3.783-.757c-.484-.486-.814-1.105-.947-1.78a3.47 3.47 0 0 1 .202-2.006c.264-.634.7-1.175 1.282-1.555a3.47 3.47 0 0 1 1.931-.58c.455 0 .906.1 1.326.264s.802.43 1.124.753a3.47 3.47 0 0 1 1.011 2.453zm18.6-3.47a3.47 3.47 0 0 1-2.137 3.214c-.635.264-1.333.333-2.007.2a3.47 3.47 0 0 1-1.78-.95 3.48 3.48 0 0 1-.95-1.779c-.133-.674-.064-1.373.2-2.007s.7-1.177 1.282-1.557a3.47 3.47 0 0 1 1.932-.581c.918 0 1.798.365 2.447 1.013a3.46 3.46 0 0 1 1.013 2.447zm8.37-18.28c0 .686-.204 1.357-.585 1.928a3.47 3.47 0 0 1-1.557 1.278c-.634.263-1.332.33-2.005.197s-1.3-.464-1.777-.95a3.47 3.47 0 0 1-.949-1.777c-.134-.673-.066-1.37.197-2.005a3.47 3.47 0 0 1 1.278-1.557 3.48 3.48 0 0 1 3.257-.324c.422.174.805.43 1.128.752a3.41 3.41 0 0 1 .75 1.128 3.46 3.46 0 0 1 .262 1.329zm30.03-13.95c-.245.057-.497.084-.75.08-.917.018-1.805-.328-2.467-.964a3.46 3.46 0 0 1-.099-4.893c.636-.662 1.5-1.044 2.426-1.063l.9 6.84zm-18.07.1c0 .686-.203 1.357-.585 1.928s-.923 1.015-1.557 1.278-1.332.33-2.005.197-1.3-.464-1.777-.95a3.47 3.47 0 0 1-.95-1.777c-.135-.673-.065-1.37.197-2.005s.708-1.176 1.278-1.557a3.47 3.47 0 0 1 1.928-.585c.456 0 .907.1 1.328.264s.804.43 1.126.752.578.705.752 1.126.264.872.264 1.328h0zm12.7 12.38c0 .686-.204 1.357-.585 1.928a3.47 3.47 0 0 1-3.562 1.475 3.47 3.47 0 0 1-1.777-.949 3.48 3.48 0 0 1-.95-1.777c-.134-.673-.065-1.37.198-2.005a3.46 3.46 0 0 1 1.278-1.557 3.47 3.47 0 0 1 1.928-.585 3.48 3.48 0 0 1 1.329.261A3.46 3.46 0 0 1 268.25 277z"/><use xlink:href="#B" x="44.29"/></g><path d="M273.66 248c-19.4 12.66-55 11.67-77.4 0 2.13-13.32 4.95-26.65 4.34-44.38l-.24-5.78-.3-5c-1.94-29.48-7-53.6-4.5-56.7 1.483-1.685 3.2-3.146 5.1-4.34a61.14 61.14 0 0 1 2.78-1.8c2.33-1.4 4.9-2.84 7.5-4.23 6.15-3.3 12.4-6.33 15.53-8.42a19.69 19.69 0 0 0 8.241 2.08h.45c2.866-.087 5.677-.797 8.24-2.08 2.9 1.94 8.37 4.63 13.95 7.57a119.82 119.82 0 0 1 11.5 6.68 22.92 22.92 0 0 1 4.91 4.22c1.23 1.54.71 8.3-.33 18.34-1 9.88-2.6 22.9-3.53 37.24l-.62 12.2c-.6 17.76 2.2 31.1 4.35 44.42z" class="E"/><path d="M261.8 233.26c-15.62-.07-29-7.18-37.38-13.13a85.65 85.65 0 0 1-14.71-13c-.132-.153-.2-.352-.185-.553a.76.76 0 0 1 .813-.707c.202.014.4.107.522.26a84.58 84.58 0 0 0 14.46 12.79c8.25 5.8 21.28 12.76 36.5 12.83a.75.75 0 0 1 .75.75.75.75 0 0 1-.75.75l-.01.01z" class="J"/><path d="M251.46 224.17c-13.3-2.62-25.08-12.8-25.6-13.27-.15-.133-.24-.32-.253-.52a.76.76 0 0 1 .188-.546c.133-.15.32-.24.52-.253s.396.055.546.188c.14.12 14 12.1 28.1 13.4.098.008.194.035.282.08s.165.107.228.182a.75.75 0 0 1 .141.257c.03.094.04.193.03.29a.75.75 0 0 1-.083.282c-.046.088-.11.166-.185.23a.75.75 0 0 1-.259.14c-.095.03-.194.04-.293.03-1.128-.1-2.25-.26-3.36-.48h0z" class="E"/><path d="M231.77 155.36a.75.75 0 0 1-.766-.68.75.75 0 0 1 .626-.81c19-3.6 24.78-15.86 24.84-16 .04-.09.098-.173.17-.242a.74.74 0 0 1 .251-.156c.093-.034.193-.05.292-.045s.197.03.286.073a.73.73 0 0 1 .245.168.72.72 0 0 1 .157.252.73.73 0 0 1 .045.293c-.006.1-.032.198-.077.287-.24.53-6.12 13.1-25.92 16.85l-.15.01z" class="J"/><path d="M257.38 124.94c-3.78 8.62-13.07 17.55-25.15 15.46-11.7-2-17.25-8.2-21.26-14.6 6.15-3.3 12.4-6.33 15.53-8.42a19.68 19.68 0 0 0 8.24 2.08h.45a19.72 19.72 0 0 0 8.24-2.08c2.9 1.93 8.38 4.63 13.95 7.57z" class="D"/><path d="M247.28 118a.6.6 0 0 0-.229.042c-.073.03-.14.072-.195.127s-.1.12-.13.193-.046.15-.046.228c0 .48-.2 11.88-10.43 12.76-9.5.83-13.42-8.26-14.63-12a.54.54 0 0 0-.196-.267c-.09-.066-.2-.102-.314-.103h-.1c-.085-.001-.17.018-.245.056s-.14.093-.19.162-.083.148-.096.232a.53.53 0 0 0 .022.25c1.3 3.9 5.43 13.28 15.1 12.93h.76c11.32-1 11.52-13.8 11.53-13.94.01-.084.002-.17-.024-.25a.6.6 0 0 0-.329-.368c-.078-.034-.162-.05-.247-.05h0z" class="G"/><path d="M254.51 57.43s9.15 14.16 8.14 28.9 1.35 31.78-11.85 31-36.74 5.3-44.22-6.2 47.93-53.72 47.93-53.72z" class="B"/><path d="M257.9 83.47s2.37 21.38-7.77 27.27-17.5-.7-17.5-.7S254 80.25 257.9 83.47z" class="F"/><path d="M215.76 83.37s-3.65-4.86-6.36-.84 1.13 15.88 7.76 13l-1.4-12.16z" class="C"/><g class="D"><path d="M215.71 91.85a.56.56 0 0 1-.54-.41c-1-3.66-4.82-5.15-4.86-5.16-.07-.026-.132-.066-.186-.117s-.096-.11-.127-.18a.58.58 0 0 1-.049-.214.57.57 0 0 1 .037-.216c.026-.07.066-.132.117-.186s.11-.097.178-.127.14-.047.214-.05a.56.56 0 0 1 .216.037c.17.07 4.36 1.7 5.54 5.9.037.143.017.295-.055.424a.57.57 0 0 1-.335.266l-.15.02z"/><path d="M211.88 90a.56.56 0 0 1-.488-.291.55.55 0 0 1-.068-.287c.003-.1.033-.197.086-.282.538-.743 1.262-1.33 2.1-1.7a.56.56 0 0 1 .645.309c.055.12.066.253.032.38s-.1.237-.217.312c-.642.278-1.2.72-1.62 1.28-.048.082-.117.15-.2.2a.57.57 0 0 1-.271.08h0z"/></g><path d="M253.3 83.37s3.64-4.86 6.35-.84-1.12 15.88-7.75 13l1.4-12.16z" class="C"/><g class="D"><path d="M253.35 91.85c.123 0 .242-.04.34-.114s.17-.178.2-.296c1-3.66 4.82-5.15 4.86-5.16a.56.56 0 0 0 .325-.725.56.56 0 0 0-.725-.325c-.18.07-4.36 1.7-5.54 5.9a.57.57 0 0 0 .39.69l.15.02z"/><path d="M257.18 90a.56.56 0 0 0 .488-.291.55.55 0 0 0 .068-.287c-.003-.1-.033-.197-.086-.282-.538-.743-1.262-1.33-2.1-1.7a.56.56 0 0 0-.677.689.51.51 0 0 0 .217.312 4.09 4.09 0 0 1 1.62 1.28.55.55 0 0 0 .197.203.54.54 0 0 0 .273.077h0zm-13.68 15.58v11.8s-3.52 6-8.28 6.4-9-5.17-9-5.17v-12.2l17.28-.83z"/><path d="M243.5 105.58v5.23c-3.2 3.54-8.86 4.8-17.26 3.56v-8l17.26-.8z"/><path d="M255.94 75.28c-.188 4.995-.7 9.972-1.53 14.9-.22 1.14-.47 2.22-.74 3.18-2.5 8.7-8.7 23.6-26.08 17.4-7.68-2.74-11.24-11.3-12.83-20a84.39 84.39 0 0 1-1.16-16.14c.044-2.14.643-4.23 1.74-6.067a12.34 12.34 0 0 1 4.511-4.413c10.26-5.82 21.1-3.65 28.22-.9 2.412.926 4.47 2.59 5.883 4.753a12.29 12.29 0 0 1 1.987 7.297h0z"/></g><path d="M226.87 84.06c0 1.26-.65 2.28-1.45 2.28s-1.45-1-1.45-2.28.65-2.28 1.45-2.28 1.45 1.02 1.45 2.28zm17.9 0c0 1.26-.65 2.28-1.45 2.28s-1.45-1-1.45-2.28.64-2.28 1.45-2.28 1.45 1.02 1.45 2.28zm-22.23-6.8a24 24 0 0 1 6.2-.92 1.07 1.07 0 0 1 .462.092 1.06 1.06 0 0 1 .378.281 1.05 1.05 0 0 1 .22.416c.04.153.05.314.02.47h0a1.07 1.07 0 0 1-1.11.89c-1.74-.1-6.32.16-8.5 1a1.65 1.65 0 0 1 .134-.63c.086-.2.2-.38.366-.53a3.75 3.75 0 0 1 1.82-1.07h0zm23.45.05a24.41 24.41 0 0 0-6.21-.93 1.08 1.08 0 0 0-.828.381 1.07 1.07 0 0 0-.218.413 1.08 1.08 0 0 0-.024.466h0a1.07 1.07 0 0 0 1.11.88c1.75-.08 6.33.17 8.5 1a1.58 1.58 0 0 0-.126-.626 1.57 1.57 0 0 0-.364-.524 3.79 3.79 0 0 0-1.83-1.06h0z" class="B"/><path d="M234.72 94.47a2.36 2.36 0 0 1-1.21-.29c-.236-.146-.434-.346-.577-.585s-.226-.508-.243-.785c-.055-2.94.048-5.88.3-8.8-.002-.078.013-.157.043-.23a.56.56 0 0 1 .331-.313.56.56 0 0 1 .455.037c.07.038.13.09.177.152s.08.134.1.21.02.156.005.233c-.254 2.853-.365 5.716-.33 8.58-.004.103.02.205.066.296a.6.6 0 0 0 .204.224 3.31 3.31 0 0 0 2.25-.21.56.56 0 0 1 .484-.095.56.56 0 0 1 .223.119.55.55 0 0 1 .148.205.56.56 0 0 1-.028.492c-.042.074-.1.138-.17.187a.56.56 0 0 1-.236.092 5.87 5.87 0 0 1-2 .49h0z" class="C"/><path d="M227.61 98c.42 2.13 1.83 6.05 6.57 6.05s6.1-3.58 6.55-6.05h-13.12z" class="G"/><path d="M234.1 107.33a5.6 5.6 0 0 1-2.62-.77.57.57 0 0 1-.162-.147c-.044-.06-.075-.127-.093-.2a.55.55 0 0 1-.01-.218.56.56 0 0 1 .075-.206c.08-.124.205-.212.35-.245s.294-.01.42.065h0a4.62 4.62 0 0 0 2 .6c.756-.032 1.495-.237 2.16-.6a.56.56 0 0 1 .206-.075c.072-.01.147-.008.218.01s.14.05.198.093a.56.56 0 0 1 .148.162c.074.128.096.28.06.423s-.126.268-.25.347a5.9 5.9 0 0 1-2.7.76z" class="C"/><g class="B"><path d="M258.2 74.36a1.87 1.87 0 0 1-.556.66c-.234.174-.506.3-.794.34a35.73 35.73 0 0 1-.2 4.15c-.7 8.1-2.73 9.52-3.2 7.52a95.93 95.93 0 0 1-.14-11.45 27.84 27.84 0 0 1-3-.37l-1.88-7.87-.66 7.77c-2.82 1-9.4-.6-9.4-.6l-2.2-7.75-1.37 7.46c-4.22 2.06-9.5.68-9.5.68l-1.2-8-2.8 8s-9 3.24-9.12 0c-.06-1.88 1.32-7.18 2.48-11.3.602-2.194 1.637-4.245 3.046-6.03s3.16-3.272 5.154-4.37c11.18-6 23-2.8 27.07-.38 8.65 5.16 8.3 21.52 8.3 21.52z"/><path d="M217.16 58s-7.43 8.83-9.87 24.6-5.82 27.42 3.68 32.63c10.3 5.64 9.4-5.92 9.25-9.06s-8.9-11.73-3.06-35.92c1.84-7.78 0-12.25 0-12.25z"/></g><path d="M215.42 90.62l.06 1.72c0 .6.06 1.35.12 2.2.34 5.32 1.38 14.5 4.4 17.68 1.2 1.25 3.5 1.9 6.23 2.14v-4.15a16.55 16.55 0 0 1-6.83-6.35c-1.867-3.663-3.143-7.598-3.78-11.66l-.2-1.57z" class="F"/><path d="M256.07 95.78c.002.262-.074.52-.22.737s-.35.39-.592.5-.507.128-.764.078a1.32 1.32 0 0 1-.679-.362c-.185-.185-.31-.42-.36-.678a1.32 1.32 0 0 1 .568-1.357 1.32 1.32 0 0 1 .737-.218 1.31 1.31 0 0 1 1.31 1.31h0z" class="G"/><g class="E"><path d="M282.83 194.7c-3.72 10.65-20.38 9.88-39.35 4.05h-.08l-.18-.06-2.6-.83-1.08-.36a118.66 118.66 0 0 1-6.17-2.21 208.79 208.79 0 0 1-20.05-8.88v-.1l1.94-5 .66-1.72s35.18 3.84 52.86.14l.88-.2a10.79 10.79 0 0 0-.2-1.17c-9.37-31.9.87-38 4.3-42.47.04-.06 16.1 38.7 9.08 58.8z"/><path d="M277.1 184.83c-.104.047-.217.07-.33.07a.73.73 0 0 1-.67-.42c-1.34-2.74-5.9-4.37-7.3-4.82l.88-.2-.2-1.17c1.77.6 6.42 2.38 7.95 5.53a.75.75 0 0 1 .077.282.73.73 0 0 1-.184.542c-.066.074-.145.133-.233.176h0z"/></g><path d="M227.84 183.5c-7.18 0-13-.4-13.52-.45a.75.75 0 0 1-.303-.059c-.096-.04-.183-.1-.254-.176s-.126-.166-.16-.264a.74.74 0 0 1-.041-.306c.007-.104.037-.205.085-.297s.117-.173.2-.237a.74.74 0 0 1 .276-.137.75.75 0 0 1 .309-.014c.27 0 26.65 1.88 37.05-2.34a.76.76 0 0 1 .588 0c.093.04.178.097.248.17a.78.78 0 0 1 .164.25.74.74 0 0 1 .064.293c.001.1-.018.2-.056.294a.74.74 0 0 1-.167.249.77.77 0 0 1-.25.164c-5.78 2.3-15.9 2.86-24.23 2.86zm12.77 14.34l14.65-4.3c4.4-1.4 8-5.84 9.67-9.6.08-.183.23-.327.415-.4a.75.75 0 0 1 .975.424c.074.186.07.393-.01.576-1.8 4.08-5.75 8.9-10.6 10.44-2.3.74-5.8 1.8-9.84 2.94a9.1 9.1 0 0 1-5.27-.08z" class="J"/><g class="E"><path d="M256.84 192.68C202.48 211 185.76 199 185.76 199c-3.66-33.1 9.82-62.85 9.82-62.85 4 6.57 8.5 18 8.5 18l1.2 25.36-.1.7v.33l-.22 1.73.35.07c16.44 3.47 46.5-.4 46.5-.4l5.03 10.73z"/><path d="M205.25 182.44c-3.057 2.54-5.823 5.412-8.25 8.56a.75.75 0 0 1-.218.209.74.74 0 0 1-.282.107.75.75 0 0 1-.302-.014.74.74 0 0 1-.272-.131c-.08-.062-.148-.14-.198-.228s-.08-.186-.092-.287-.001-.204.03-.3.08-.187.145-.265c2.7-3.526 5.815-6.713 9.28-9.5l-.22 1.73.38.1z"/></g><path d="M251.76 182s6-13.67 15.17-12.46l2.76 9.9c-5 2.12-5.74 10.7-12.85 13.2L251.76 182zM216 179.52c-1.35-2.8-3.278-5.258-5.658-7.24a21.78 21.78 0 0 0-8.142-4.26c-10-2.6-16.37 2.12-17 3.9s3.77.08 3.77.08a8.65 8.65 0 0 0-4.55 3.53c-1.66 2.72 4-.2 4-.2s-4.1 1.8-4.6 3.45 4.87-1.14 5.88-1.1c0 0-4.8 1.9-4.78 3.63s5.53-1.08 9.64-.86c3.513.356 7 .998 10.4 1.92a69.69 69.69 0 0 0 9.48 1.25l1.57-4.1z" class="D"/><path d="M312.54 40.83a6.72 6.72 0 0 1-3.738-1.128c-1.108-.738-1.97-1.787-2.48-3.015a6.72 6.72 0 0 1-.385-3.885 6.73 6.73 0 0 1 1.84-3.443 6.72 6.72 0 0 1 3.443-1.84 6.71 6.71 0 0 1 3.885.385 6.72 6.72 0 0 1 3.015 2.479c.738 1.107 1.13 2.407 1.13 3.737a6.72 6.72 0 0 1-6.71 6.71h0zm0-11.32a4.61 4.61 0 0 0-4.533 5.503 4.61 4.61 0 0 0 1.26 2.363c.645.646 1.466 1.086 2.36 1.264a4.61 4.61 0 0 0 4.166-7.777 4.61 4.61 0 0 0-3.253-1.354h0zm58.56-.1c-1.327 0-2.624-.394-3.727-1.13a6.71 6.71 0 0 1-2.854-6.888c.26-1.302.898-2.497 1.837-3.436a6.71 6.71 0 0 1 7.312-1.454c1.226.508 2.274 1.368 3.012 2.47a6.71 6.71 0 0 1 1.13 3.728c-.002 1.78-.7 3.484-1.968 4.742a6.72 6.72 0 0 1-4.742 1.968zm0-11.32a4.61 4.61 0 0 0-3.259 7.87c.644.645 1.466 1.084 2.36 1.262a4.61 4.61 0 0 0 2.664-.262c.842-.35 1.562-.94 2.068-1.698s.777-1.65.777-2.56a4.62 4.62 0 0 0-4.61-4.61h0z" class="E"/><g class="H"><path d="M379.4 51.24c-.14.001-.277-.025-.405-.077a1.04 1.04 0 0 1-.344-.227c-.1-.098-.177-.214-.23-.342s-.08-.265-.08-.404v-4.65c.025-.262.147-.505.342-.682a1.06 1.06 0 0 1 1.768.682v4.65a.99.99 0 0 1-.292.758c-.1.098-.218.176-.348.226a1 1 0 0 1-.41.065zm0 8.13a1.05 1.05 0 0 1-.405-.077 1.04 1.04 0 0 1-.344-.227c-.1-.098-.177-.214-.23-.342s-.08-.265-.08-.404v-4.65c.025-.262.147-.505.342-.682a1.06 1.06 0 0 1 1.768.682v4.65a.99.99 0 0 1-.292.758c-.1.098-.218.176-.348.226s-.27.072-.4.065z"/><use xlink:href="#C"/><use xlink:href="#C" x="-8.86"/><path d="M343.94 23.1a1.05 1.05 0 0 1-.404-.08c-.128-.053-.245-.132-.342-.23a1.04 1.04 0 0 1-.304-.749V17.4c.025-.262.147-.505.342-.682A1.06 1.06 0 0 1 345 17.4v4.64a1.06 1.06 0 0 1-1.06 1.06h0zm0 8.13a1 1 0 0 1-.74-.275c-.098-.094-.176-.206-.23-.33a1.01 1.01 0 0 1-.08-.395V25.6a1.04 1.04 0 0 1 .049-.436 1.05 1.05 0 0 1 .22-.38 1.06 1.06 0 0 1 .785-.347c.148 0 .294.03.43.1a1.07 1.07 0 0 1 .356.257c.1.1.175.24.22.38a1.11 1.11 0 0 1 .05.436v4.64c-.016.27-.134.525-.33.7a1.06 1.06 0 0 1-.729.289h0zm6.52-6.38h-4.17a1.06 1.06 0 0 1 0-2.11h4.17a1.06 1.06 0 0 1 .436.049 1.05 1.05 0 0 1 .379.221 1.21 1.21 0 0 1 .257.356 1.06 1.06 0 0 1 0 .859c-.06.135-.147.256-.257.356a1.05 1.05 0 0 1-.379.221 1.06 1.06 0 0 1-.436.049h0zm-8.86 0h-4.18a1.06 1.06 0 0 1 0-2.11h4.18a1.06 1.06 0 0 1 0 2.11h0z"/></g><path d="M72.57 17.08a6.72 6.72 0 0 1 4.151-6.209 6.72 6.72 0 0 1 7.325 1.461 6.72 6.72 0 0 1 1.45 7.327A6.72 6.72 0 0 1 79.28 23.8a6.72 6.72 0 0 1-6.71-6.72zm2.1 0a4.61 4.61 0 0 0 2.846 4.259 4.61 4.61 0 0 0 5.024-.999 4.61 4.61 0 0 0 .999-5.024 4.61 4.61 0 0 0-4.259-2.846 4.62 4.62 0 0 0-4.61 4.61z" class="E"/><path d="M45.61 42.67a6.71 6.71 0 0 1 4.149-6.192 6.71 6.71 0 0 1 7.309 1.461 6.71 6.71 0 0 1 1.45 7.311 6.71 6.71 0 0 1-6.198 4.14 6.72 6.72 0 0 1-6.71-6.72h0zm2.1 0a4.61 4.61 0 0 0 2.846 4.259 4.61 4.61 0 0 0 5.024-.999 4.61 4.61 0 0 0 .999-5.024 4.61 4.61 0 0 0-4.259-2.846 4.62 4.62 0 0 0-4.61 4.61h0z" fill="#505f65"/><path d="M31.65 52.1A1 1 0 0 0 32.7 51v-4.6a1.05 1.05 0 1 0-2.1 0V51a1 1 0 0 0 1.05 1.09h0zm0 8.12a1 1 0 0 0 1.049-1.05v-4.65a1.05 1.05 0 0 0-2.1 0v4.65a1 1 0 0 0 1.05 1.05h0zm-6.52-6.38h4.17a1.06 1.06 0 0 0 0-2.11h-4.17a1.06 1.06 0 0 0 0 2.11h0zm8.87 0h4.17a1.06 1.06 0 0 0 0-2.11H34a1.06 1.06 0 0 0-1.163 1.055A1.06 1.06 0 0 0 34 53.84h0zM55.9 16.4a1.05 1.05 0 0 0 1.06-1v-4.7a1.06 1.06 0 0 0-1.055-1.163A1.06 1.06 0 0 0 54.86 10.7v4.64a1 1 0 0 0 .291.759c.1.1.218.176.348.226a1 1 0 0 0 .41.065h0zm0 8.12a1.05 1.05 0 0 0 1.06-1v-4.65a1.06 1.06 0 0 0-2.11 0v4.65a1 1 0 0 0 1.05 1zm-6.5-6.4h4.17a1.05 1.05 0 1 0 0-2.1H49.4a1.05 1.05 0 0 0 0 2.1h0zm8.86 0h4.17a1.05 1.05 0 1 0 0-2.1h-4.17a1.05 1.05 0 0 0 0 2.1h0zm198.44-.57a.68.68 0 0 1-.37 0l-2-.8a.74.74 0 0 1-.275-.133.75.75 0 0 1-.2-.233c-.05-.1-.08-.2-.1-.293a.75.75 0 0 1 .035-.304c.032-.098.085-.188.154-.265a.75.75 0 0 1 .247-.182c.093-.043.195-.066.298-.068s.206.018.3.058l2.14.83c.093.038.178.095.248.166a.74.74 0 0 1 .164.25c.037.093.056.193.054.293a.75.75 0 0 1-.066.291c-.062.115-.155.2-.267.278a.72.72 0 0 1-.373.102h0zm38.1 40.1l1.42 4.16a.75.75 0 0 0 .79.53h.14a.75.75 0 0 0 .49-.94l-1.44-4.24a.75.75 0 0 0-1.4.521v-.03zm2.58 8.4l.92 4.3a.74.74 0 0 0 .81.6h.06c.097-.018.2-.055.273-.1s.154-.124.2-.206.095-.174.115-.27.02-.197.002-.294l-.94-4.38a.75.75 0 0 0-.109-.289c-.056-.088-.13-.163-.217-.22a.75.75 0 0 0-.596-.103c-.1.025-.196.07-.278.135a.78.78 0 0 0-.2.235c-.05.09-.08.192-.1.296a.76.76 0 0 0 .039.307h0zm3.15 22.58a.74.74 0 0 0 .67-.73v-4.48a.75.75 0 0 0-.77-.72.73.73 0 0 0-.286.062c-.1.04-.17.097-.238.17a.74.74 0 0 0-.153.249.73.73 0 0 0-.043.289v4.4a.71.71 0 0 0 .05.285.77.77 0 0 0 .157.244c.067.07.15.126.24.163a.75.75 0 0 0 .284.057h.1zm-.9-14.78a.75.75 0 0 0-.496.288.76.76 0 0 0-.154.552l.24 2 .22 2.35a.75.75 0 0 0 .258.51c.15.13.344.194.542.18h0a.75.75 0 0 0 .67-.8l-.22-2.4-.24-2.06a.75.75 0 0 0-.82-.65v.02zm-6.5-20.27c.066.143.174.262.3.34s.294.114.45.1a1 1 0 0 0 .23-.06.76.76 0 0 0 .38-1l-2-4a.76.76 0 0 0-1-.31c-.173.092-.304.248-.364.435a.75.75 0 0 0 .044.565l1.95 3.93zM260.3 19.37l3.86 2.12a.67.67 0 0 0 .45.1.75.75 0 0 0 .328-.112.76.76 0 0 0 .243-.248c.1-.17.114-.366.066-.55a.76.76 0 0 0-.327-.449l-3.94-2.16c-.086-.045-.18-.072-.278-.08a.74.74 0 0 0-.288.032.75.75 0 0 0-.434.368c-.08.174-.1.37-.03.552a.76.76 0 0 0 .351.428zm11.15 7.03c.077.072.168.126.267.16a.75.75 0 0 0 .608-.052.73.73 0 0 0 .235-.204.76.76 0 0 0 .132-.282c.024-.102.026-.208.006-.3a.74.74 0 0 0-.121-.287.75.75 0 0 0-.227-.213l-3.64-2.62a.75.75 0 0 0-.858-.035.76.76 0 0 0-.217.21.77.77 0 0 0-.116.28c-.02.1-.017.203.005.303a.76.76 0 0 0 .346.481l3.58 2.57zM284 38.65a.75.75 0 0 0 .295.223.76.76 0 0 0 .365.057c.142-.017.276-.072.4-.16a.74.74 0 0 0 .12-1l-2.9-3.42a.76.76 0 0 0-1.06 0 .75.75 0 0 0-.174.235.74.74 0 0 0-.07.284.75.75 0 0 0 .195.54c.98.98 1.94 2.1 2.85 3.24zm-5.9-6.5a.76.76 0 0 0 .283.17.78.78 0 0 0 .327.039.74.74 0 0 0 .45-.22.75.75 0 0 0 0-1.06l-3.3-3a.74.74 0 0 0-.254-.148c-.094-.032-.193-.046-.292-.04s-.195.032-.284.075-.17.104-.235.178a.76.76 0 0 0-.113.831c.044.1.104.17.178.234 1.16.93 2.2 1.93 3.25 2.94zm10.95 13.7a.73.73 0 0 0 .71.35.67.67 0 0 0 .31-.1.74.74 0 0 0 .25-1l-2.46-3.75a.78.78 0 0 0-.206-.233.74.74 0 0 0-.283-.13c-.103-.023-.208-.024-.3-.004a.75.75 0 0 0-.598.644.74.74 0 0 0 .027.31.72.72 0 0 0 .15.272l2.4 3.64zm-32.37-33.4L259.95.33l-40.1.34 36.83 11.78z" class="H"/><path d="M219.85.67l34.97 14.74 1.5 2.5.36-5.45L219.85.67z" fill="#020221"/><g class="H"><path d="M256.32 17.9l-3.25-.5 1.75-1.98 1.5 2.5z"/><path d="M250.43 13.56l4.4 1.85-9.04 10.2L219.85.67l30.58 12.9zm183 310.12H37.47a7.63 7.63 0 0 0-7.63 7.63v.73a7.63 7.63 0 0 0 7.63 7.63h395.95a7.63 7.63 0 0 0 7.63-7.63v-.73a7.63 7.63 0 0 0-7.63-7.63z"/><path d="M441.06 331.3v.37H29.84v-.37a7.64 7.64 0 0 1 7.63-7.63h396a7.64 7.64 0 0 1 7.59 7.63z"/></g><path d="M296.05 223.83h-124.4a5.38 5.38 0 0 0-5.38 5.38v65.08a5.38 5.38 0 0 0 5.38 5.38h124.4a5.38 5.38 0 0 0 5.38-5.38V229.2a5.38 5.38 0 0 0-5.38-5.38z" class="B"/><path d="M244.32 299.58h-20.93v23.86h20.93v-23.86z" class="F"/><path d="M233.62 273.07a10.39 10.39 0 1 0 0-20.78c-5.738 0-10.4 4.652-10.4 10.4s4.652 10.4 10.4 10.4z" fill="#fefefe"/><path d="M213.17 315h40.7a6.65 6.65 0 0 1 6.65 6.65v1.82h-54v-1.82a6.65 6.65 0 0 1 6.65-6.65h0z" class="B"/><defs ><path id="B" d="M202.78 307.7a3.47 3.47 0 0 1-2.145 3.207c-.634.262-1.332.33-2.006.196s-1.29-.467-1.776-.953a3.47 3.47 0 0 1-.948-1.779 3.48 3.48 0 0 1 .202-2.006c.264-.634.7-1.175 1.282-1.555a3.47 3.47 0 0 1 1.931-.58c.455 0 .906.1 1.326.264s.803.43 1.124.753.576.705.75 1.126.262.872.26 1.327h0z"/><path id="C" d="M385.92 53h-4.17a1.05 1.05 0 0 1-1.05-1.05 1.05 1.05 0 0 1 1.05-1.05h4.17a1.05 1.05 0 0 1 1.05 1.05 1.05 1.05 0 0 1-1.05 1.05z"/></defs></svg>