<svg width="53" height="52" fill="none" xmlns="http://www.w3.org/2000/svg"><path d="M2.39 33.724l-.003.05c-.192 3.368 1.695 6.524 4.809 8.037l.032.016a5.665 5.665 0 012.565 2.467l.013.024c1.57 2.988 4.815 4.799 8.274 4.617l.053-.003c1.255-.07 2.5.253 3.562.926a9.03 9.03 0 009.578 0 6.025 6.025 0 013.561-.926l.053.003c3.454.183 6.704-1.63 8.276-4.622l.008-.017a5.676 5.676 0 012.573-2.472l.026-.013c3.114-1.514 5.002-4.669 4.809-8.038l-.003-.047a5.39 5.39 0 01.938-3.341 8.29 8.29 0 000-9.375 5.391 5.391 0 01-.938-3.34l.003-.049c.193-3.37-1.695-6.525-4.812-8.04l-.028-.013a5.66 5.66 0 01-2.562-2.46l-.017-.031c-1.57-2.988-4.819-4.799-8.273-4.618l-.053.003a6.02 6.02 0 01-3.56-.926h-.002a9.031 9.031 0 00-9.578 0 6.03 6.03 0 01-3.562.926l-.052-.003c-3.455-.183-6.704 1.63-8.273 4.616l-.012.022a5.668 5.668 0 01-2.569 2.471l-.03.015c-3.113 1.513-5.001 4.668-4.808 8.038l.003.047a5.388 5.388 0 01-.938 3.34 8.29 8.29 0 000 9.375 5.387 5.387 0 01.937 3.34zm1.455-11.065a8.31 8.31 0 001.448-5.155l-.003-.05A5.526 5.526 0 018.464 12.2l.025-.012a8.558 8.558 0 003.876-3.731l.014-.027c1.043-1.986 3.227-3.19 5.546-3.066l.051.002a8.905 8.905 0 005.267-1.37 6.109 6.109 0 016.48 0 8.925 8.925 0 005.266 1.37l.051-.002c2.33-.122 4.504 1.08 5.544 3.06l.019.036a8.557 8.557 0 003.872 3.727l.025.012c2.055.999 3.303 3.062 3.177 5.257l-.003.052a8.308 8.308 0 001.449 5.154 5.368 5.368 0 01-.002 6.073 8.318 8.318 0 00-1.447 5.156l.003.049c.126 2.195-1.122 4.258-3.178 5.258l-.021.01a8.568 8.568 0 00-3.88 3.738l-.01.02c-1.044 1.987-3.224 3.19-5.547 3.067l-.05-.003a8.92 8.92 0 00-5.269 1.37 6.11 6.11 0 01-6.478 0 8.907 8.907 0 00-5.268-1.37l-.051.002a5.887 5.887 0 01-5.548-3.069l-.014-.027a8.548 8.548 0 00-3.87-3.726l-.027-.013c-2.056-1-3.304-3.063-3.178-5.257l.003-.052a8.316 8.316 0 00-1.448-5.154 5.368 5.368 0 01.002-6.073z" fill="#fff"/><path d="M17.105 40.722c.68.426 1.577.218 2.002-.463l17.218-27.582a1.454 1.454 0 10-2.466-1.54L16.642 38.72a1.453 1.453 0 00.463 2.002zM18.648 25.769c3.54 0 6.42-3.284 6.42-7.32 0-4.036-2.88-7.319-6.42-7.319s-6.418 3.283-6.418 7.32c0 4.035 2.879 7.319 6.418 7.319zm0-11.732c1.937 0 3.512 1.98 3.512 4.412 0 2.433-1.575 4.413-3.512 4.413-1.936 0-3.511-1.98-3.511-4.413 0-2.432 1.575-4.412 3.511-4.412zM27.9 32.946c0 4.036 2.879 7.32 6.418 7.32 3.54 0 6.419-3.284 6.419-7.32 0-4.034-2.88-7.319-6.418-7.319-3.54 0-6.42 3.283-6.42 7.32zm9.93 0c0 2.433-1.575 4.413-3.512 4.413-1.936 0-3.512-1.98-3.512-4.413 0-2.432 1.576-4.412 3.512-4.412 1.937 0 3.512 1.978 3.512 4.412z" fill="#fff"/></svg>