<svg xmlns="http://www.w3.org/2000/svg" viewBox="0 0 218.49 210.46"><defs><style>.cls-1{fill:#07074f;}.cls-2{fill:#ef4351;}.cls-3{fill:none;stroke:#ef4351;stroke-linecap:round;stroke-miterlimit:10;stroke-width:9.19px;}</style></defs><g id="Layer_2" data-name="Layer 2"><g id="Layer_1-2" data-name="Layer 1"><path class="cls-1" d="M0,196.69v-51.6H11.75v52.16c0,2.66,1.29,3.54,2.42,3.54a6.74,6.74,0,0,0,1.61-.16l1.45,8.78a16.18,16.18,0,0,1-6.12,1.05C2.9,210.46,0,205.06,0,196.69Z"/><path class="cls-1" d="M23.1,197.09c0-9.66,7.81-14.73,25.93-16.66-.16-4.43-2.1-7.81-7.65-7.81-4.19,0-8.21,1.85-12.4,4.26l-4.27-7.8c5.32-3.31,11.76-6,18.84-6C55,163.12,60.86,170,60.86,183v26.33H51.2l-.89-4.83h-.24c-3.94,3.38-8.45,6-13.6,6C28.42,210.46,23.1,204.74,23.1,197.09ZM49,196.77v-9.1c-11,1.45-14.65,4.43-14.65,8.46,0,3.54,2.49,5.07,5.95,5.07S46.21,199.59,49,196.77Z"/><path class="cls-1" d="M72.29,202.73a7.37,7.37,0,1,1,7.33,7.73A7.4,7.4,0,0,1,72.29,202.73Z"/><path class="cls-1" d="M99.1,164.25h9.66l.81,6h.32c3.78-3.94,8-7.16,13.85-7.16,6.44,0,10.22,2.9,12.39,7.89,4.11-4.35,8.46-7.89,14.33-7.89,9.58,0,14,6.76,14,18.11v28.1H152.64V182.68c0-6.92-2-9.42-6.28-9.42q-3.87,0-8.7,5.07v31H125.83V182.68c0-6.92-2-9.42-6.28-9.42-2.58,0-5.47,1.69-8.7,5.07v31H99.1Z"/><path class="cls-1" d="M176.71,145.09h11.51v38.64h.32l15.62-19.48H217l-15.62,18.43,17.07,26.65h-12.8l-10.95-18.68-6.52,7.41v11.27H176.71Z"/><path class="cls-2" d="M148.1,48.21H54.4l.18-1.62a13,13,0,0,1,9-11.18h75.39a13,13,0,0,1,9,11.18Z"/><polygon class="cls-2" points="153.81 75.63 48.68 75.63 52.02 58.27 150.42 58.27 153.81 75.63"/><path class="cls-2" d="M162.91,120.52a9.77,9.77,0,0,1-2.63,7.4,6.7,6.7,0,0,1-5.31,2.56H47.53a6.65,6.65,0,0,1-5.31-2.56,9.58,9.58,0,0,1-2.63-7.4L41,113.11H161.5Z"/><polygon class="cls-2" points="159.52 103.06 42.97 103.06 46.67 85.69 155.82 85.69 159.52 103.06"/><path class="cls-3" d="M79.41,27.58c0-12.69,9.77-23,21.84-23s21.83,10.29,21.83,23"/></g></g></svg>