<svg xmlns="http://www.w3.org/2000/svg" id="Layer_1" data-name="Layer 1" viewBox="41.26 41 174.12 174.43"><defs><style>.cls-1{fill:#0e4e91}.cls-3{fill:#fff}.cls-4{fill:#2db5ff}.cls-5,.cls-6{fill:none;stroke:#0e4e91}.cls-5{stroke-miterlimit:10}.cls-6{stroke-linecap:round;stroke-linejoin:round}.cls-7{fill:#caf5fe}</style></defs><path class="cls-1" d="m96.13 209.3.42-1.06c1.87.74 3.79 1.43 5.7 2l-.35 1.09c-1.9-.59-3.9-1.28-5.77-2.03zm-4.24-1.81a82.43 82.43 0 0 1-5.48-2.75l.55-1c1.76 1 3.58 1.87 5.41 2.7zm14.44 5.14.29-1.11c1.95.5 3.93.95 5.9 1.32l-.21 1.12c-2-.36-4.01-.82-5.98-1.33zm10.53 2.06.15-1.14c2 .26 4 .46 6 .58l-.07 1.14c-2-.12-4.06-.27-6.08-.58zm10.7.74v-1.14c2 0 4 0 6-.17l.08 1.14c-1.98.13-4.05.18-6.08.17zm10.71-.59-.14-1.14c2-.23 4-.54 6-.91l.21 1.12c-2.01.38-4.05.69-6.07.93zm-79.56-34a95.906 95.906 0 0 1-3.53-5l1-.63c1.1 1.69 2.27 3.36 3.48 5zm90.12 32.05-.27-1.11c2-.47 3.91-1 5.83-1.64l.35 1.09c-1.95.67-3.93 1.22-5.91 1.71zM52.77 172c-1-1.77-2-3.59-2.88-5.42l1-.5c.88 1.81 1.84 3.6 2.84 5.34zm106.3 37.81-.41-1.07c1.88-.71 3.75-1.5 5.58-2.35l.49 1c-1.86.86-3.73 1.61-5.66 2.37zM48 162.35c-.79-1.87-1.53-3.8-2.2-5.73l1.09-.37c.66 1.9 1.39 3.81 2.18 5.65zm120.89 43-.53-1c1.79-.94 3.55-1.95 5.26-3l.6 1c-1.77 1.03-3.56 2.05-5.36 3.01zm-124.5-53.12c-.56-2-1.06-4-1.48-5.95L44 146c.42 2 .91 4 1.47 5.87zM178 199.77l-.65-.94c1.64-1.14 3.28-2.37 4.85-3.63l.71.89a64.73 64.73 0 0 1-4.91 3.68zm-136-58c-.32-2-.56-4.06-.74-6.09l1.14-.1c.17 2 .42 4 .73 6zm144.38 51.35-.76-.85c1.51-1.34 3-2.75 4.37-4.2l.82.79a56.67 56.67 0 0 1-4.36 4.25zM45.91 99.44c.6-1.71 1.26-3.43 2-5.09l.26-.62 1 .45-.26.61a93.51 93.51 0 0 0-1.94 5zm5.19-9.38-1-.51c.9-1.83 1.9-3.64 2.9-5.4l1 .58c-1 1.73-2 3.52-2.9 5.33zm161.06 57c.44-2 .82-4 1.12-6l1.13.17c-.31 2-.69 4-1.14 6zm-155.8-66.2-1-.62c1.12-1.71 2.31-3.39 3.55-5l.9.7c-1.17 1.58-2.35 3.24-3.45 4.92zm157.49 55.78c.2-2 .33-4 .38-6h1.14c-.06 2-.19 4.1-.39 6.12zM62.71 72.4l-.88-.75c1.33-1.55 2.72-3.07 4.15-4.53l.82.8c-1.41 1.44-2.8 2.95-4.09 4.48zm151.52 53.66c-.06-2-.18-4-.37-6l1.14-.12c.2 2 .32 4.08.38 6.12zM70.08 64.77l-.78-.85c1.5-1.37 3.08-2.71 4.68-4l.72.9a88.064 88.064 0 0 0-4.62 3.95zm143.23 50.75c-.3-2-.68-4-1.12-5.94l1.12-.25c.45 2 .82 4 1.13 6zm-135-57.41-.66-.93a85.18 85.18 0 0 1 5.12-3.37l.59 1c-1.69 1.01-3.36 2.13-5.03 3.3zm132.79 47.06c-.55-1.93-1.15-3.87-1.83-5.76l1.08-.39c.69 1.92 1.31 3.89 1.85 5.85zM87.33 52.52l-.54-1c1.79-1 3.64-1.88 5.5-2.72l.47 1c-1.84.87-3.66 1.76-5.43 2.72zm120.3 42.64c-.77-1.85-1.62-3.7-2.52-5.5l1-.51c.91 1.82 1.77 3.7 2.55 5.58zM128 42.17V41c2 0 4.1.06 6.13.2l-.13 1.16c-2-.13-4-.2-6-.19zm54.54 19.33a78.33 78.33 0 0 0-4.83-3.65l.66-.94c1.68 1.18 3.32 2.42 4.89 3.7zm-44-18.71.13-1.14c2 .25 4.06.57 6.06 1l-.21 1.12c-1.98-.42-3.99-.77-5.98-.98zm35.39 12.54c-1.7-1.06-3.47-2.08-5.25-3l.54-1c1.8 1 3.58 2 5.31 3.06zM149 44.72l.28-1.11c2 .49 4 1.06 5.89 1.69l-.35 1.09c-1.96-.62-3.92-1.18-5.82-1.67zm15.68 5.56c-1.83-.85-3.7-1.65-5.58-2.37l.41-1.06c1.89.73 3.8 1.54 5.65 2.4z"/><circle cx="128.94" cy="128.05" r="67.05" style="fill:#abe7ff"/><path class="cls-3" d="M191 97.67v17.12c0 4.06 3.75 4.92 5.88 7.27 1.47 1.63 1.69 3.6 1.69 6.23v5.4h-11.7a.57.57 0 0 0-.57.57v26.15a.57.57 0 0 0 .57.57h11.69v6.4c-3.2 5.49-21.42 4.85-24.52 0v-39.09c0-2.63.21-4.6 1.69-6.23 2.12-2.35 5.88-3.21 5.88-7.27V97.67H191z"/><path class="cls-4" d="M192 94.43v2a1.22 1.22 0 0 1-1 1.2h-9.38a1.21 1.21 0 0 1-1.22-1.21v-2a1.21 1.21 0 0 1 1.22-1.22h9.22a1.21 1.21 0 0 1 1.16 1.23zm6.56 39.26V161h-11.69a.57.57 0 0 1-.57-.57v-26.17a.57.57 0 0 1 .57-.57z"/><path class="cls-5" d="M191 97.66h-9.38a1.21 1.21 0 0 1-1.22-1.21v-2a1.21 1.21 0 0 1 1.22-1.22h9.22a1.21 1.21 0 0 1 1.16 1.2v2a1.22 1.22 0 0 1-1 1.23zm-9.39.01v17.12c0 4.06-3.76 4.92-5.88 7.27-1.48 1.63-1.69 3.6-1.69 6.23v39.09c3.1 4.85 21.32 5.49 24.52 0v-39.09c0-2.63-.22-4.6-1.69-6.23-2.13-2.35-5.88-3.21-5.88-7.27V97.67"/><path class="cls-5" d="M198.56 161h-11.69a.57.57 0 0 1-.57-.57v-26.17a.57.57 0 0 1 .57-.57h11.69"/><path class="cls-4" d="M179 136.61c.65 3.87 1 8.06.28 10.73-.93 2.32-2.72 3.28-5.46 3.61s-5.06 1.21-5 4 0 10.08 0 10.08 6.81 2.52 6.81 4.29-4.43 2.27-8.29 2.37-8.79-.65-8.79-2.73 6.69-3.93 6.69-3.93-.06-7.33 0-10.08-2.26-3.61-5-4-4.53-1.29-5.46-3.61c-.75-2.75-.34-7.11.34-11.08 2.88 2.12 21.36 2.12 23.88.35z"/><path class="cls-3" d="M176.9 127.11a95.22 95.22 0 0 1 2.14 9.5c-2.56 1.77-21 1.77-23.89-.35a96.12 96.12 0 0 1 2.08-9.15z"/><path class="cls-5" d="M155.15 136.26a96.12 96.12 0 0 1 2.08-9.15h19.67a95.22 95.22 0 0 1 2.14 9.5c.65 3.87 1 8.06.28 10.73-.93 2.32-2.72 3.28-5.46 3.61s-5.06 1.21-5 4 0 10.08 0 10.08 6.81 2.52 6.81 4.29-4.43 2.27-8.29 2.37-8.79-.65-8.79-2.73 6.69-3.93 6.69-3.93-.06-7.33 0-10.08-2.26-3.61-5-4-4.53-1.29-5.46-3.61c-.76-2.75-.35-7.11.33-11.08z"/><path class="cls-5" d="M155.15 136.26c2.84 2.12 21.33 2.12 23.89.35"/><path class="cls-4" d="M78.3 186.56v-8.45C74.19 181.2 67.54 176.54 66 167c-.48-2.94-.37-6.68 2.72-7.73 2.7-.91 8.15.29 9.6 8.46v-10.61c-6.23-5.29-19.14-3.66-16.88 10.61 2 12.61 12.33 17.35 16.9 18.84z"/><path class="cls-3" d="m78.52 153.33-.12-.09.2.14zm.32.19-.16-.09.17.1zm.27.15-.26-.14zm.89.33-.22-.07zm34.83 34.58a8.19 8.19 0 0 1-6.24 2.87H86.24a8.15 8.15 0 0 1-6.24-2.87l-1.71-2v8.74a2.19 2.19 0 0 0 2.18 2.18h33.87a2.12 2.12 0 0 0 .44 0 1.29 1.29 0 0 0 .21-.06l.2-.07a2.28 2.28 0 0 0 1.07-1l.09-.19a.42.42 0 0 0 0-.1.42.42 0 0 1 0-.1 2.37 2.37 0 0 0 .09-.65v-8.74z"/><path class="cls-4" d="M91.45 153.36a1.54 1.54 0 0 1-.19.17l-.06.05-.13.11a3.75 3.75 0 0 1-.36.24l-.17.11h-.05l-.15.08-.23.11-.27.11a2.17 2.17 0 0 1-.36.12l-.19.05a1.4 1.4 0 0 1-.28.06 3.33 3.33 0 0 1-.54.07h-.78l-.6-.09-.23-.06-.19-.06-.44-.16-.16-.08a2.59 2.59 0 0 1-.33-.17l-.16-.09-.15-.1-.14-.1-.14-.1-.21-.18-.09-.09-.08-.06-.06-.08a2.87 2.87 0 0 1-.29-.31l-.18.15-.17.14-.19.13-.38.23-.2.1-.25.11a4.82 4.82 0 0 1-2.5.32c-.2 0-.39-.07-.59-.12l-.22-.07h-.16l-.21-.08-.25-.11-.26-.14-.17-.1-.08-.05-.2-.14h-.05v42.13a2.18 2.18 0 0 0 2.18 2.18h34a1.75 1.75 0 0 0 .33 0 2.12 2.12 0 0 1-.44 0H80.48a2.19 2.19 0 0 1-2.18-2.18v-8.74l1.71 2a8.15 8.15 0 0 0 6.23 2.87h22.35a8.19 8.19 0 0 0 6.24-2.87l1.7-2v-33.5a4.82 4.82 0 0 1-5.87 0l-.22-.19a4.74 4.74 0 0 1-1.25 1.07 5.2 5.2 0 0 1-.9.41l-.26.08-.25.07a5.37 5.37 0 0 1-1.06.11v4.15a3.26 3.26 0 0 1-6.52 0v-4a6.35 6.35 0 0 1-1 .4l-.22.06a6 6 0 0 1-3.8-.24l-.36-.15a2.79 2.79 0 0 1-.34-.18l-.34-.19-.16-.11-.32-.23-.15-.13-.3-.26a1.85 1.85 0 0 0-.14-.14 6.09 6.09 0 0 1-.87-1.12 4.88 4.88 0 0 1-.38.49.86.86 0 0 1-.13.14l-.13.13z"/><path class="cls-3" d="M115 197.38a.68.68 0 0 0 .2-.07zm-37-51.72a4.84 4.84 0 0 0-.43 6.84 6.51 6.51 0 0 0 .73.67h.05l.12.09.16.1.16.1.28.14a4.53 4.53 0 0 0 .57.23l.3.08a5.4 5.4 0 0 0 .88.15 5.06 5.06 0 0 0 1.23-.08 5.61 5.61 0 0 0 .91-.27l.25-.12.2-.09.38-.23a1.24 1.24 0 0 0 .18-.14l.19-.13.17-.15c.09.11.19.22.29.32l.07.07.06.06a.48.48 0 0 0 .11.09l.2.18.14.1.14.1.15.1.16.09a2.59 2.59 0 0 0 .33.17l.16.08.43.16.21.06.22.05a4.17 4.17 0 0 0 .6.1h.77a3.31 3.31 0 0 0 .55-.07l.28-.05a1.39 1.39 0 0 0 .19-.06l.36-.12.27-.1.23-.12.15-.08.18-.1c.12-.08.24-.16.35-.25l.14-.11.06-.05a1.54 1.54 0 0 0 .19-.17l.06-.06.13-.13.13-.14a4.21 4.21 0 0 0 .38-.48 5.92 5.92 0 0 0 .87 1.11l.14.14a3.48 3.48 0 0 0 .3.26l.15.12a3.81 3.81 0 0 0 .32.24.91.91 0 0 1 .16.11l.34.19c.11.07.23.12.34.18l.36.15a6.09 6.09 0 0 0 3.8.24h.22a6.39 6.39 0 0 0 1-.41v4a3.26 3.26 0 0 0 6.52 0v-4.15a4.72 4.72 0 0 0 1.06-.12l.26-.06.25-.08a4.54 4.54 0 0 0 .9-.41 5.41 5.41 0 0 0 1-.76c.09-.11.19-.2.28-.32l.23.19.23.17a2.9 2.9 0 0 0 .29.19l.33.17a3.8 3.8 0 0 0 .68.27 5.47 5.47 0 0 0 .7.16 5.48 5.48 0 0 0 1.28 0 5.21 5.21 0 0 0 1.66-.5 6.9 6.9 0 0 0 .67-.43 4.85 4.85 0 0 0-.17-7.88v-.32a5.76 5.76 0 0 0-.15-1.3 5.63 5.63 0 0 0-6.77-4.19 4.39 4.39 0 0 0-.7-1.36 4.44 4.44 0 0 0-6.22-.84 6.09 6.09 0 0 0-1.64-1.64 6.19 6.19 0 0 0-8.61 1.64 4.34 4.34 0 0 0-1.35-.7 4.43 4.43 0 0 0-5.56 2.9 5.84 5.84 0 0 0-1.31-.14 5.61 5.61 0 0 0-5.42 5.69v.32a5.9 5.9 0 0 0-.46.34z"/><path class="cls-6" d="M78.3 186.57c-4.58-1.51-14.89-6.24-16.89-18.85-2.27-14.27 10.64-15.9 16.88-10.61v10.61c-1.45-8.17-6.9-9.38-9.6-8.45-3.09 1-3.2 4.78-2.72 7.72 1.56 9.54 8.21 14.2 12.32 11.13m2.61-23.99a4.25 4.25 0 0 0 1.23-.08M80 154a3.37 3.37 0 0 0 .55.12h.33m-1.76-.45.24.11.21.08h.12"/><path class="cls-6" d="M116.53 153.17v42.17a2.13 2.13 0 0 1-2.06 2.14h-34a2.18 2.18 0 0 1-2.18-2.19v-8.73h0v-33.39"/><path class="cls-6" d="M112.92 154.09a4.57 4.57 0 0 0 1.28 0 4.75 4.75 0 0 0 1.66-.5m-4.94-.29a2.9 2.9 0 0 0 .29.19 2.59 2.59 0 0 0 .33.17 2.41 2.41 0 0 0 .33.15 2.06 2.06 0 0 0 .35.12 4 4 0 0 0 .7.16m-2.78-.85c.09-.11.19-.2.28-.32h0"/><path class="cls-6" d="M78.47 145.29v-.32a5.61 5.61 0 0 1 5.61-5.63 5.84 5.84 0 0 1 1.31.14 4.43 4.43 0 0 1 5.56-2.9 4.34 4.34 0 0 1 1.35.7 6.19 6.19 0 0 1 8.61-1.64 6.09 6.09 0 0 1 1.64 1.64 4.44 4.44 0 0 1 6.22.84 4.39 4.39 0 0 1 .7 1.36 5.63 5.63 0 0 1 6.77 4.19 5.76 5.76 0 0 1 .15 1.3v.32a4.85 4.85 0 0 1 .17 7.88 6.9 6.9 0 0 1-.67.43 5.21 5.21 0 0 1-1.66.5 5.48 5.48 0 0 1-1.28 0h0a5.47 5.47 0 0 1-.7-.16 3.8 3.8 0 0 1-.68-.27l-.33-.17a2.9 2.9 0 0 1-.29-.19h0l-.23-.17-.23-.19h0l-.29.32a5.41 5.41 0 0 1-1 .76 4.54 4.54 0 0 1-.9.41l-.25.08-.26.06a4.72 4.72 0 0 1-1.06.12v4.15a3.26 3.26 0 0 1-6.52 0v-4a6.39 6.39 0 0 1-1 .41h-.22a6.09 6.09 0 0 1-3.8-.24l-.36-.15c-.11-.06-.23-.11-.34-.18l-.34-.19a.91.91 0 0 0-.16-.11 3.81 3.81 0 0 1-.32-.24l-.15-.12a3.48 3.48 0 0 1-.3-.26l-.14-.14a5.92 5.92 0 0 1-.87-1.11 4.21 4.21 0 0 1-.38.48l-.13.14-.13.13-.06.06a1.54 1.54 0 0 1-.19.17l-.06.05-.14.11c-.11.09-.23.17-.35.25l-.18.1s0 0 0 0l-.15.08-.23.12-.27.1-.36.12a1.39 1.39 0 0 1-.19.06h0l-.28.05a3.31 3.31 0 0 1-.55.07h-.77a4.17 4.17 0 0 1-.6-.1l-.22-.05-.21-.06-.43-.16-.16-.08a2.59 2.59 0 0 1-.33-.17l-.16-.09-.15-.1-.14-.1-.14-.1-.2-.18a.48.48 0 0 1-.11-.09l-.06-.06-.07-.07c-.1-.1-.2-.21-.29-.32l-.17.15-.19.13a1.24 1.24 0 0 1-.18.14l-.38.23-.2.09-.25.12a5.61 5.61 0 0 1-.91.27 5.06 5.06 0 0 1-1.23.08h0A5.4 5.4 0 0 1 80 154l-.3-.08a4.53 4.53 0 0 1-.57-.23l-.28-.14-.16-.1-.16-.1-.12-.09h-.05 0a6.51 6.51 0 0 1-.73-.67 4.84 4.84 0 0 1 .43-6.84 5.9 5.9 0 0 1 .47-.37m28.45 22.59v14.07m-9.56-14.07v14.07m-9.56-14.07v14.07"/><path class="cls-7" d="M97.75 115.82h35.91v3.06H97.75z"/><path class="cls-3" d="M97.75 80.32h35.91v35.5H97.75z"/><path class="cls-4" d="M133.65 67v13.32h-35.9V67h2.52a4.52 4.52 0 0 1 4.53 4.53v1.77a4.06 4.06 0 0 0 4.06 4.06h13.73a4.06 4.06 0 0 0 4.07-4.06v-1.8a4.4 4.4 0 0 1 .29-1.59 4.52 4.52 0 0 1 4.24-2.91h2.46z"/><path class="cls-7" d="M133.65 56.04v10.93h-1.11v-7.75H121.6v-3.18h12.05z"/><path class="cls-3" d="M132.54 59.22V67h-1.35a4.52 4.52 0 0 0-4.19 2.91V59.22zm-5.54 0v10.69a4.4 4.4 0 0 0-.29 1.59v1.57h-5.11V59.22z"/><path class="cls-7" d="M126.66 73.07v.2a4.06 4.06 0 0 1-4.07 4.06h-1v-4.26h5.06z"/><path class="cls-7" d="M121.6 73.07v4.26h-5.92V70.7h5.92v2.37z"/><path class="cls-3" d="M121.6 59.22V70.7h-5.92V56.04h5.92v3.18z"/><path class="cls-7" d="M115.68 70.7v6.63h-5.3V66.97h5.3v3.73z"/><path class="cls-3" d="M115.68 56.04v10.93h-5.3V51.49h5.3v4.55z"/><path class="cls-7" d="M110.38 73.27v4.06h-1.52a4.06 4.06 0 0 1-4.06-4.06z"/><path class="cls-3" d="M110.38 67v6.3h-5.58v-1.8a4.56 4.56 0 0 0-.34-1.73V59.22h5.92z"/><path class="cls-7" d="M110.38 56.04v3.18H98.81v7.75h-1.06V56.04h12.63z"/><path class="cls-3" d="M104.46 59.22v10.55a4.52 4.52 0 0 0-4.19-2.8h-1.46v-7.75z"/><path class="cls-5" d="M110.38 56.04H97.75v62.85h35.9V56.04H121.6"/><path class="cls-5" d="M121.6 77.33h1a4.06 4.06 0 0 0 4.07-4.06V71.5a4.4 4.4 0 0 1 .29-1.59 4.52 4.52 0 0 1 4.23-2.91h2.46m-35.9 0h2.52a4.52 4.52 0 0 1 4.53 4.53v1.77a4.06 4.06 0 0 0 4.06 4.06h1.52m0-18.14v-7.73h5.3v4.55m0 21.29h-5.3m0-10.36h5.3"/><path class="cls-5" d="M104.46 59.22h-5.2a.45.45 0 0 0-.45.45V67m11.57 10.33V59.22h-5.92v10.55m17.14-10.55h5.35m5.59 7.78v-6.77a1 1 0 0 0-1-1H127v10.68m-5.4-13.87v21.29h-5.92V56.04h5.92zm-5.9 14.67h5.9m.06 2.36h5m-21.86.2h5.58"/><path class="cls-4" d="M105.5 80.32h19.25l-9.62 15.98-9.63-15.98z"/><path class="cls-5" d="M97.75 80.32h35.9"/><path class="cls-1" d="M106 105.22a8.57 8.57 0 0 1-.38 1.12 6.3 6.3 0 0 1-1.28.18 2.34 2.34 0 0 1-2.64-2.31 2.46 2.46 0 0 1 2.76-2.41 7.16 7.16 0 0 1 1.31.17c0 .33.09.84.14 1.15h-.28a1.22 1.22 0 0 0-.72-1 1.77 1.77 0 0 0-.61-.1c-1 0-1.51.84-1.51 1.93 0 1.28.65 2.14 1.6 2.14.59 0 1-.31 1.35-1.07zm.52 1.2v-.24c.38-.05.42-.08.42-.57v-1.35c0-.47 0-.5-.36-.54v-.23a8 8 0 0 0 1.26-.25v2.37c0 .47 0 .52.43.57v.24zm.82-3.6a.5.5 0 0 1-.5-.5.49.49 0 0 1 .5-.49.49.49 0 0 1 .5.49.5.5 0 0 1-.5.5zm2.29 2.51a.42.42 0 0 0-.12.24c0 .11.13.26.39.26h.79c.42 0 1 .17 1 .85s-1 1.41-1.88 1.41-1.32-.44-1.32-.82a.45.45 0 0 1 .2-.39c.19-.13.37-.25.53-.34a1.11 1.11 0 0 1-.53-.39.67.67 0 0 1-.11-.39 2 2 0 0 0 .75-.5zm.34.07c-.8 0-1.31-.42-1.31-1.05a1.22 1.22 0 0 1 1.35-1.1 1.63 1.63 0 0 1 .78.18 5 5 0 0 0 1-.1v.06a.94.94 0 0 1-.25.43h-.41a.9.9 0 0 1 .17.57c-.01.66-.65 1.01-1.3 1.01zm.08 1.16c-.36 0-.53 0-.63.13a.5.5 0 0 0-.2.38c0 .37.35.65 1 .65s.87-.25.87-.62a.48.48 0 0 0-.39-.48 2.13 2.13 0 0 0-.65-.06zm-.08-3c-.21 0-.43.26-.43.77s.16.86.49.86.42-.29.42-.79-.14-.89-.45-.89zm4.29 2.94a.6.6 0 0 1-.43-.15.62.62 0 0 1-.18-.25 2.77 2.77 0 0 1-.74.4.9.9 0 0 1-.94-.9c0-.36.16-.53.53-.68a5.6 5.6 0 0 0 1.12-.46v-.3c0-.36-.13-.56-.43-.56a.36.36 0 0 0-.28.13 1.44 1.44 0 0 0-.16.46.28.28 0 0 1-.3.24.43.43 0 0 1-.41-.36c0-.13.08-.22.24-.33a3.27 3.27 0 0 1 1.11-.49 1.22 1.22 0 0 1 .72.2.94.94 0 0 1 .38.85v1.21c0 .33.11.41.22.41a.63.63 0 0 0 .22 0l.07.23zm-.64-1.75-.39.22a.5.5 0 0 0-.34.47.47.47 0 0 0 .43.53.38.38 0 0 0 .3-.12zm3.46 1.67h-1.84v-.24c.37 0 .41-.08.41-.49v-1.52c0-.35 0-.39-.36-.46v-.21a7 7 0 0 0 1.25-.26v.76c.32-.48.57-.74.85-.74a.42.42 0 0 1 .45.42.68.68 0 0 1-.35.59.2.2 0 0 1-.22 0c-.12-.1-.21-.21-.32-.21s-.28.09-.41.36v1.32c0 .41 0 .44.54.49zm3.73-.68a1.59 1.59 0 0 1-1.27.76 1.42 1.42 0 0 1-1.46-1.51 1.86 1.86 0 0 1 .52-1.26 1.55 1.55 0 0 1 1.09-.48 1.13 1.13 0 0 1 1.14 1.13c0 .12 0 .24-.09.26s-1.11.08-1.78.11c0 .74.43 1.11.93 1.11a1.22 1.22 0 0 0 .79-.31zm-1.26-2.21c-.28 0-.52.33-.56.88h.84c.1 0 .14 0 .14-.14.03-.37-.15-.74-.42-.74zm3.19 2.89a.67.67 0 0 1-.27.08.76.76 0 0 1-.86-.88v-1.94h-.44v-.08l.2-.27h.28v-.57l.82-.56.09.06v1.07h.69a.29.29 0 0 1 0 .35h-.64v1.7c0 .54.22.61.35.61a.86.86 0 0 0 .34-.07l.07.25zm2.26 0a.71.71 0 0 1-.28.08c-.53 0-.85-.25-.85-.88v-1.94h-.45v-.08l.2-.27h.29v-.57c.23-.17.57-.39.82-.56l.09.06v1.07h.7a.31.31 0 0 1-.06.35h-.64v1.7c0 .54.23.61.36.61a.78.78 0 0 0 .33-.07l.07.25zm3.45-.68a1.6 1.6 0 0 1-1.28.76 1.41 1.41 0 0 1-1.45-1.51 1.82 1.82 0 0 1 .52-1.26 1.55 1.55 0 0 1 1.08-.48 1.15 1.15 0 0 1 1.15 1.13c0 .12 0 .24-.09.26s-1.12.08-1.79.11c0 .74.44 1.11.94 1.11a1.22 1.22 0 0 0 .79-.31zm-1.27-2.21c-.28 0-.51.33-.56.88h.85c.09 0 .13 0 .13-.14.01-.37-.15-.74-.42-.74zm3.66.71c-.18-.49-.42-.71-.75-.71a.35.35 0 0 0-.36.37c0 .24.17.37.53.53.56.25 1 .49 1 1a1.14 1.14 0 0 1-1.27 1 2.25 2.25 0 0 1-.88-.21c0-.16-.09-.64-.11-.88h.23c.14.44.43.85.88.85a.36.36 0 0 0 .4-.37c0-.21-.11-.37-.54-.58s-.9-.46-.9-1 .45-1 1.19-1a3.57 3.57 0 0 1 .75.1c0 .19.08.64.11.82z"/><path class="cls-5" d="m105.5 80.32 9.63 15.98 9.62-15.98"/><path class="cls-4" d="M139.93 104.22h6.63v13.87h-6.63z"/><path class="cls-3" d="M146.56 104.22h-6.63V78.06h6.63v26.16z"/><path class="cls-5" d="M146.56 104.22v13.87h-6.63V78.06h6.63v26.16zm0 0h-6.63"/><path class="cls-3" d="M156.2 57.58s4.17 1 3.92 4.16c0 1.89-1.14 3.26-2.64 3.29a2.65 2.65 0 0 1-.69-.07c-.76-.18-2.83-.53-3.7.6-1.09 1.4-.42 3.33-1.75 4.45-2 1.57-4-.07-5.75 1.4a3.69 3.69 0 0 0-1.15 3.19h-2.87c-1-3.47 3.18-7.88 7.14-6.73-1.16-7.57 6.58-7.06 6.58-7.06z"/><path class="cls-5" d="M141.57 74.6c-1-3.47 3.18-7.88 7.14-6.73-1.16-7.57 6.58-7.06 6.58-7.06"/><path class="cls-5" d="M156.2 57.58s4.17 1 3.92 4.16c0 1.89-1.14 3.26-2.64 3.29a2.65 2.65 0 0 1-.69-.07c-.76-.18-2.83-.53-3.7.6-1.09 1.4-.42 3.33-1.75 4.45-2 1.57-4-.07-5.75 1.4a3.69 3.69 0 0 0-1.15 3.19"/><path d="M104.06 80.32v35.5m23.05-35.5v35.5m-5.98 0V86.34m-5.43 29.48V95.35m-5.25 20.47V88.53" style="stroke-width:.5px;opacity:.19;stroke-miterlimit:10;fill:none;stroke:#0e4e91"/></svg>