<svg id="Layer_1" data-name="Layer 1" xmlns="http://www.w3.org/2000/svg" viewBox="0 0 256 256"><defs><style>.cls-1{fill:#0e4e91;}.cls-2{fill:#abe7ff;}.cls-3{fill:#2db5ff;}.cls-4{fill:#caf5fe;}.cls-5{fill:#fff;}.cls-6{fill:none;stroke:#0e4e91;stroke-linecap:round;stroke-linejoin:round;}</style></defs><path class="cls-1" d="M131.65,225.79l0-1.28c2.26-.07,4.55-.21,6.78-.43l.13,1.28C136.25,225.58,133.94,225.73,131.65,225.79Zm-5.16,0c-2.29-.06-4.6-.19-6.87-.41l.12-1.27c2.24.21,4.52.34,6.78.39Zm17.15-1.09-.19-1.27c2.23-.34,4.48-.77,6.67-1.26l.29,1.25C148.18,223.94,145.91,224.37,143.64,224.72Zm11.77-2.55-.35-1.23c2.17-.61,4.35-1.31,6.47-2.07l.44,1.2C159.82,220.85,157.61,221.55,155.41,222.17Zm11.37-4-.5-1.19c2.07-.87,4.14-1.83,6.15-2.85l.58,1.14C171,216.34,168.87,217.31,166.78,218.2Zm10.77-5.35-.64-1.11c2-1.13,3.89-2.33,5.76-3.59l.72,1.06C181.49,210.49,179.53,211.71,177.55,212.85Zm-97.06.23c-2-1.13-3.95-2.35-5.86-3.62l.71-1.07c1.88,1.26,3.83,2.46,5.79,3.57Zm107.1-6.86-.77-1c1.8-1.36,3.58-2.8,5.28-4.28l.84,1C191.22,203.39,189.42,204.84,187.59,206.22Zm-117.18.26c-1.83-1.36-3.64-2.81-5.37-4.3l.83-1c1.72,1.48,3.5,2.91,5.31,4.25Zm126.34-8.08-.89-.92c1.62-1.56,3.21-3.21,4.72-4.89l.95.86C200,195.15,198.39,196.82,196.75,198.4Zm-135.54.31c-1.64-1.58-3.26-3.23-4.8-4.93l1-.86c1.52,1.67,3.12,3.31,4.74,4.86Zm143.67-9.18-1-.81c1.42-1.76,2.79-3.58,4.09-5.43L209,184C207.72,185.9,206.32,187.75,204.88,189.53ZM53,189.87c-1.45-1.77-2.85-3.61-4.17-5.48l1.05-.74c1.3,1.84,2.69,3.66,4.11,5.41Zm158.84-10.15-1.09-.68c1.19-1.92,2.33-3.9,3.39-5.89l1.13.6C214.24,175.77,213.09,177.78,211.88,179.72ZM46,180.1c-1.22-1.93-2.38-3.93-3.46-5.94l1.13-.61c1.06,2,2.21,4,3.41,5.87Zm171.6-11-1.16-.55c1-2,1.84-4.15,2.64-6.26l1.2.45C219.48,164.9,218.58,167,217.61,169.12ZM31.23,134.77c-.13-2-.21-4.09-.22-6.13v-.75h1.29v.74c0,2,.09,4.05.23,6.05Zm1.2-12-1.29-.07c.13-2.28.33-4.59.61-6.86L33,116C32.75,118.27,32.55,120.54,32.43,122.8Zm191.3-12.52c-.41-2.22-.9-4.45-1.47-6.63l1.24-.32c.57,2.21,1.08,4.47,1.5,6.72ZM33.78,111l-1.26-.22c.4-2.26.88-4.52,1.44-6.73l1.25.31C34.66,106.54,34.18,108.77,33.78,111ZM220.85,98.76c-.69-2.15-1.45-4.3-2.29-6.4l1.2-.47c.84,2.12,1.62,4.31,2.31,6.48Zm-184.27.69-1.22-.38c.67-2.18,1.44-4.37,2.27-6.51l1.19.46C38,95.13,37.25,97.29,36.58,99.45Zm180-11.76c-.94-2-2-4.09-3.05-6.06l1.12-.62c1.1,2,2.14,4.07,3.1,6.14ZM40.8,88.32l-1.17-.53c.94-2.08,2-4.16,3.06-6.18l1.13.61C42.74,84.22,41.73,86.27,40.8,88.32ZM210.94,77.23c-1.19-1.91-2.46-3.81-3.78-5.64l1-.75c1.34,1.85,2.63,3.78,3.83,5.72ZM46.36,77.8l-1.1-.67c1.19-1.95,2.47-3.88,3.79-5.75l1.05.75C48.79,74,47.53,75.88,46.36,77.8ZM204.08,67.54c-1.42-1.76-2.91-3.48-4.44-5.14l.94-.87c1.55,1.68,3.07,3.43,4.5,5.21Zm-150.92.51-1-.8c1.42-1.78,2.92-3.55,4.46-5.24l1,.87C56.05,64.55,54.56,66.29,53.16,68.05Zm142.91-9.29c-1.61-1.57-3.3-3.11-5-4.56l.83-1c1.75,1.47,3.46,3,5.1,4.62ZM90.49,39.39,90,38.21c2.09-.91,4.25-1.75,6.4-2.51l.43,1.21C94.68,37.66,92.56,38.49,90.49,39.39Zm64.81-4.24c-2.17-.61-4.39-1.16-6.59-1.62l.26-1.26c2.24.47,4.48,1,6.68,1.65Zm-53.64.2-.36-1.23c2.19-.64,4.43-1.21,6.67-1.7l.27,1.26C106,34.16,103.82,34.72,101.66,35.35Zm42-2.74c-2.22-.34-4.49-.61-6.74-.8l.11-1.27c2.28.19,4.57.46,6.83.81Zm-30.45.12-.2-1.27c2.25-.36,4.55-.65,6.83-.86l.11,1.28C117.73,32.08,115.47,32.37,113.24,32.73Zm18.62-1.21c-2.26-.07-4.54-.06-6.79,0l0-1.28c2.28-.09,4.59-.1,6.88,0Z"/><circle class="cls-2" cx="132.07" cy="128.54" r="80.25"/><path class="cls-3" d="M208.36,151.2c.1,3.05-.08,6.75-1.48,7-28.43,5.68-46.76.72-47.23-.48-.33-.81-1.18-4.9-1.71-7.56a6,6,0,0,0,2.67,1.29c5.78,1.2,4.33-2.65,7.47-1.45s1.93,3.86,5.3,3.38,3.14-3.61,5.55-1.45,6.5,1.93,8.19.48,1.92-.48,5.78.49,4.1.24,6.51-1.45,1.93,1.93,6.75.48C206.94,151.73,207.68,151.47,208.36,151.2Z"/><path class="cls-4" d="M204.88,147.18l.07,0a10.14,10.14,0,0,1,5-2,2.84,2.84,0,0,1,2.48,1.09c1.42,1.82-.55,3.63-4.06,5-.68.27-1.42.53-2.2.76-4.82,1.45-4.34-2.16-6.75-.48s-2.65,2.41-6.51,1.45-4.1-1.93-5.78-.49-5.78,1.69-8.19-.48-2.18,1-5.55,1.45-2.17-2.17-5.3-3.38-1.69,2.65-7.47,1.45a6,6,0,0,1-2.67-1.29c-3.22-2.63-3.54-7.79-1.05-5.55h0a3.46,3.46,0,0,1,.35.33c4.09,4.33,7,1.92,10.84,1s2.17,4.09,4.58,3.86,1.68-4.1,5.54-2.18,3.86,1,8.92-.72,3.61,4.58,7.47,1.21S202.47,148.76,204.88,147.18Z"/><path class="cls-5" d="M178.68,132.2s-8.19,1.69-7.71,4.82S178.68,132.2,178.68,132.2Zm-21.79,12.44c1.81-3.79,8-13.36,24.92-15.09,16.49-1.69,25.11,10.17,28.13,15.54h0a10.14,10.14,0,0,0-5,2l-.07,0c-2.41,1.58-6.47-2.42-10.29.93s-2.41-2.9-7.47-1.21-5.06,2.65-8.92.72-3.13,1.93-5.54,2.18-.73-4.82-4.58-3.86-6.75,3.37-10.84-1a3.46,3.46,0,0,0-.35-.33Zm37.22-7.86c2.65-1.44-7.23-4.58-7.23-4.58S191.45,138.22,194.11,136.78Zm-11.33,3.61c4.34,1.21,0-8.19,0-8.19S178.44,139.19,182.78,140.39Z"/><path class="cls-3" d="M186.88,132.2s9.88,3.14,7.23,4.58S186.88,132.2,186.88,132.2Z"/><path class="cls-3" d="M182.78,132.2s4.34,9.4,0,8.19S182.78,132.2,182.78,132.2Z"/><path class="cls-3" d="M171,137c-.48-3.13,7.71-4.82,7.71-4.82S171.45,140.16,171,137Z"/><line class="cls-6" x1="204.88" y1="147.18" x2="204.88" y2="147.19"/><path class="cls-6" d="M208.36,151.2c.1,3.05-.08,6.75-1.48,7-28.43,5.68-46.76.72-47.23-.48-.33-.81-1.18-4.9-1.71-7.56"/><path class="cls-6" d="M156.89,144.64c1.81-3.79,8-13.36,24.92-15.09,16.49-1.69,25.11,10.17,28.13,15.54"/><path class="cls-6" d="M204.88,147.18c-2.41,1.58-6.47-2.42-10.29.93s-2.41-2.9-7.47-1.21-5.06,2.65-8.92.72-3.13,1.93-5.54,2.18-.73-4.82-4.58-3.86-6.75,3.37-10.84-1a3.46,3.46,0,0,0-.35-.33h0c-2.49-2.24-2.17,2.92,1.05,5.55a6,6,0,0,0,2.67,1.29c5.78,1.2,4.33-2.65,7.47-1.45s1.93,3.86,5.3,3.38,3.14-3.61,5.55-1.45,6.5,1.93,8.19.48,1.92-.48,5.78.49,4.1.24,6.51-1.45,1.93,1.93,6.75.48c.78-.23,1.52-.49,2.2-.76,3.51-1.39,5.48-3.2,4.06-5a2.84,2.84,0,0,0-2.48-1.09,10.14,10.14,0,0,0-5,2Z"/><path class="cls-5" d="M186.75,83c9.21.32,20.42,11,14.92,16.27-5.85,5.62-38.69,6.52-47.24,3.37s-9-7.2-5-12.82c3.05-4.22,8.76-5.91,11.41-6.49-.75,2.31,1.94,7.16,3.89,7.16,2.23,0,1-7.16-1.61-8.21,2.59-1.83,6.86-1.39,8.94-1-2,2.09,2,8.15,4.14,8.35s.89-7.15-1.56-8.73c3-.89,7.11.66,9.11,1.59-1.9,1.32.73,6.46,3,6.46S188.41,84.82,186.75,83Z"/><path class="cls-3" d="M186.75,83c1.66,1.81,2.21,5.92.07,5.92s-4.92-5.14-3-6.46c.76.35,1.22.61,1.22.61A11,11,0,0,1,186.75,83Z"/><path class="cls-3" d="M186.75,83a11,11,0,0,0-1.73.07s-.46-.26-1.22-.61a2.22,2.22,0,0,1,1.45-.29A2.38,2.38,0,0,1,186.75,83Z"/><path class="cls-3" d="M174.69,80.88c2.45,1.58,3.72,8.92,1.56,8.73s-6.17-6.26-4.14-8.35c.75.13,1.22.25,1.22.25a5,5,0,0,1,1.35-.63Z"/><path class="cls-3" d="M173.55,80.6a1.64,1.64,0,0,1,1.13.28,5,5,0,0,0-1.35.63s-.47-.12-1.22-.25A2.43,2.43,0,0,1,173.55,80.6Z"/><path class="cls-3" d="M163.17,82.29c2.59,1,3.84,8.21,1.61,8.21-1.95,0-4.64-4.85-3.89-7.16.87-.19,1.42-.26,1.42-.26A5.34,5.34,0,0,1,163.17,82.29Z"/><path class="cls-3" d="M160.89,83.34a1.62,1.62,0,0,1,1.42-1.16,1.67,1.67,0,0,1,.86.11,5.34,5.34,0,0,0-.86.79S161.76,83.15,160.89,83.34Z"/><path class="cls-6" d="M172.11,81.26c-2.08-.36-6.35-.8-8.94,1"/><path class="cls-6" d="M183.8,82.47c-2-.93-6.07-2.48-9.11-1.59"/><path class="cls-6" d="M160.89,83.34c-2.65.58-8.36,2.27-11.41,6.49-4,5.62-3.6,9.67,5,12.82s41.39,2.25,47.24-3.37c5.5-5.29-5.71-16-14.92-16.27"/><path class="cls-5" d="M113.78,122.33c11,5,11.13,19.31,8.41,21.8s-20.22.91-20.67.23,1.13-4.32-2-12.49-17.26-10.68-17.26-10.68C85.39,118.69,109.24,120.28,113.78,122.33Z"/><path class="cls-4" d="M101.52,144.36c-3.18,2.5-30.67,2-33.17-.22s-2.27-9.77,1.82-15.46,12-7.49,12-7.49h0s14.08,2.5,17.26,10.68S101.06,143.68,101.52,144.36Zm-21.83-5.6c2,1.54,7.8,1.28,9,.77s-.25-2.06-4-2.31-1.51-3.85,2.52-1.8,7,2.83,5.78,4.62c-.86,1.24-7.08,1.74-12,1.52a20.71,20.71,0,0,1-5.33-.75c-3.52-1.28-1.76-8.46,3.27-10.51s11.56-4.1,4.78-5.9c-7.58-2-12.32,7.95-13.08,12.82s.26,6.15,7.55,6.41l2.73.11c6.78.3,14.48.73,17.13-.62,3-1.54-4.78-11.54-12.83-11.8S77.68,137.22,79.69,138.76Z"/><path class="cls-3" d="M83.72,124.4c6.78,1.8.25,3.85-4.78,5.9s-6.79,9.23-3.27,10.51a20.71,20.71,0,0,0,5.33.75l-.08,2.18-2.73-.11c-7.29-.26-8.3-1.54-7.55-6.41S76.14,122.4,83.72,124.4Z"/><path class="cls-3" d="M81,141.56c4.94.22,11.16-.28,12-1.52,1.25-1.79-1.76-2.57-5.78-4.62S81,137,84.72,137.22s5.28,1.8,4,2.31-7,.77-9-.77-2.51-7.69,5.53-7.44,15.84,10.26,12.83,11.8c-2.65,1.35-10.35.92-17.13.62Z"/><path class="cls-6" d="M82.21,121.19s-7.95,1.82-12,7.49-4.31,13.18-1.82,15.46,30,2.72,33.17.22"/><path class="cls-6" d="M82.21,121.19s14.08,2.5,17.26,10.68,1.59,11.81,2,12.49,17.94,2.27,20.67-.23,2.62-16.84-8.41-21.8C109.24,120.28,85.39,118.69,82.21,121.19Z"/><path class="cls-5" d="M130.92,168.75c.23-1.37-3.65-2-3.65-.22C127.27,169.44,130.7,170.12,130.92,168.75Zm-6.17-3.19c0,1.39,3.43,2.05,3.43.46S124.75,164.19,124.75,165.56Zm0,3.88c-.22-1.14-3.89-.3-3.65.68C121.56,172,125,170.58,124.75,169.44Zm-3.87-7.54c3.19-.22,18.94.69,22.59,5.26s.69,8.67.69,10.72,1.59,13.47,0,16c-1.36,2.13-17,8-24.19,9.5a1.78,1.78,0,0,0,.45-.37c2.06-2.51-.45-16,1.37-18.49s7.08-13.23-14.38-15.29a40.18,40.18,0,0,0-9.54,0C105.1,166.67,118.56,162.07,120.88,161.9Zm-.68.7c-1.38.45.82,3.41,2.28,1.59C123.39,163.05,121.56,162.13,120.2,162.6Zm1.36,2.73c-1.82.19-.68,2.52.69,2.74S123.85,165.1,121.56,165.33Zm-3.65,1.6c.23-1.37-3.24-1.58-3.42-.68C114.26,167.38,117.68,168.3,117.91,166.93Z"/><path class="cls-5" d="M107.41,172.18c19.4,1.6,13,9.82,11,13.24s0,13.23-2.06,15.29-17.11.68-18.71-1.6-2-11-1.37-14.38-.68-2.51-1.83-6.39S96.15,171.25,107.41,172.18Z"/><path class="cls-4" d="M107.41,169.21c21.46,2.06,16.21,12.79,14.38,15.29s.69,16-1.37,18.49a1.78,1.78,0,0,1-.45.37c-3.59,2.15-21.87,2.1-25.34-2.88-3.65-5.25-1.14-16.89-1.14-16.89-3.56-8.83-2.67-13.29,4.37-14.39h0A40.18,40.18,0,0,1,107.41,169.21Zm11,16.21c2-3.42,8.44-11.64-11-13.24-11.26-.93-14.15,2.28-13,6.16s2.51,3,1.83,6.39-.23,12.1,1.37,14.38,16.66,3.66,18.71,1.6S116.31,188.84,118.37,185.42Z"/><path class="cls-3" d="M127.27,168.53c0-1.75,3.88-1.15,3.65.22S127.27,169.44,127.27,168.53Z"/><path class="cls-3" d="M128.18,166c0,1.59-3.43.93-3.43-.46S128.18,164.42,128.18,166Z"/><path class="cls-3" d="M124.75,169.44c.24,1.14-3.19,2.51-3.65.68C120.86,169.14,124.53,168.3,124.75,169.44Z"/><path class="cls-3" d="M121.56,165.33c2.29-.23,2.06,3,.69,2.74S119.74,165.52,121.56,165.33Z"/><path class="cls-3" d="M120.2,162.6c1.36-.47,3.19.45,2.28,1.59C121,166,118.82,163.05,120.2,162.6Z"/><path class="cls-3" d="M114.49,166.25c.18-.9,3.65-.69,3.42.68S114.26,167.38,114.49,166.25Z"/><path class="cls-6" d="M120,203.36c7.24-1.49,22.83-7.37,24.19-9.5,1.59-2.51,0-13.92,0-16s3-6.16-.69-10.72-19.4-5.48-22.59-5.26c-2.32.17-15.78,4.77-23,7.29"/><path class="cls-6" d="M120,203.36a1.78,1.78,0,0,0,.45-.37c2.06-2.51-.45-16,1.37-18.49s7.08-13.23-14.38-15.29a40.18,40.18,0,0,0-9.54,0h0c-7,1.1-7.93,5.56-4.37,14.39,0,0-2.51,11.64,1.14,16.89C98.1,205.46,116.38,205.51,120,203.36Z"/><path class="cls-6" d="M107.41,172.18c-11.26-.93-14.15,2.28-13,6.16s2.51,3,1.83,6.39-.23,12.1,1.37,14.38,16.66,3.66,18.71,1.6,0-11.87,2.06-15.29S126.81,173.78,107.41,172.18Z"/><path class="cls-4" d="M118.67,81.91a1.14,1.14,0,0,1,.87,1.36l-1.87,8.3a1.14,1.14,0,0,1-1.36.86,1,1,0,0,1-.26-.09,1.15,1.15,0,0,1-.61-1.27l1.87-8.3A1.13,1.13,0,0,1,118.67,81.91Z"/><path class="cls-4" d="M97.32,91a1.14,1.14,0,0,1-.84,1.38,1.24,1.24,0,0,1-.27,0,1.15,1.15,0,0,1-1.11-.87l-2-8.26a1.14,1.14,0,1,1,2.22-.54Z"/><path class="cls-4" d="M102.33,81.78a1.14,1.14,0,0,1,1.14,1.14v8.5a1.16,1.16,0,0,1-1.15,1.15,1.26,1.26,0,0,1-.27,0,1.14,1.14,0,0,1-.87-1.11v-8.5A1.14,1.14,0,0,1,102.33,81.78Z"/><path class="cls-4" d="M110.55,91.54a1.14,1.14,0,0,1-1.29,1,1.07,1.07,0,0,1-.27-.07,1.13,1.13,0,0,1-.7-1.22l1.19-8.42a1.14,1.14,0,1,1,2.26.32Z"/><path class="cls-5" d="M114.86,69.77A2.22,2.22,0,1,1,112.65,72,2.22,2.22,0,0,1,114.86,69.77Z"/><circle class="cls-5" cx="118.7" cy="65.09" r="1.63"/><path class="cls-5" d="M108.62,58a2,2,0,1,1-2.05,2A2,2,0,0,1,108.62,58Z"/><circle class="cls-5" cx="95.26" cy="71.21" r="2.57"/><path class="cls-5" d="M98.4,58.78a2,2,0,1,1-2,2A2,2,0,0,1,98.4,58.78Z"/><path class="cls-5" d="M105.24,66a2,2,0,1,1-2,2A2,2,0,0,1,105.24,66Z"/><path class="cls-5" d="M106.58,78.49a5.35,5.35,0,0,0,4.58-2.58,5.37,5.37,0,0,0,9.18,0,5.35,5.35,0,0,0,4.58,2.58,5.52,5.52,0,0,0,1.09-.11,5.11,5.11,0,0,0,1.54-.58L121,97.51H91.78l-6.61-20a5.36,5.36,0,0,0,7.64-1.62,5.37,5.37,0,0,0,9.18,0A5.35,5.35,0,0,0,106.58,78.49Zm13,4.78a1.14,1.14,0,0,0-2.23-.5l-1.87,8.3a1.15,1.15,0,0,0,.61,1.27,1,1,0,0,0,.26.09,1.14,1.14,0,0,0,1.36-.86Zm-7.8-.15a1.14,1.14,0,1,0-2.26-.32l-1.19,8.42a1.13,1.13,0,0,0,.7,1.22,1.07,1.07,0,0,0,.27.07,1.14,1.14,0,0,0,1.29-1Zm-8.27-.2a1.15,1.15,0,0,0-2.29,0v8.5a1.14,1.14,0,0,0,.87,1.11,1.26,1.26,0,0,0,.27,0,1.16,1.16,0,0,0,1.15-1.15Zm-7,9.49A1.14,1.14,0,0,0,97.32,91l-2-8.26a1.14,1.14,0,1,0-2.22.54l2,8.26a1.15,1.15,0,0,0,1.11.87A1.24,1.24,0,0,0,96.48,92.41Z"/><path class="cls-5" d="M88.23,78.49a5.37,5.37,0,0,1-1.79-10.43A20.46,20.46,0,0,1,126.35,68a5.36,5.36,0,0,1,1.2,9.85,5.11,5.11,0,0,1-1.54.58,5.52,5.52,0,0,1-1.09.11,5.35,5.35,0,0,1-4.58-2.58,5.37,5.37,0,0,1-9.18,0,5.36,5.36,0,0,1-9.17,0,5.37,5.37,0,0,1-9.18,0A5.35,5.35,0,0,1,88.23,78.49Z"/><circle class="cls-3" cx="118.7" cy="65.09" r="1.63"/><path class="cls-3" d="M117.07,72a2.21,2.21,0,1,0-2.21,2.21A2.22,2.22,0,0,0,117.07,72Z"/><path class="cls-3" d="M110.66,60.07a2,2,0,1,0-2,2A2,2,0,0,0,110.66,60.07Z"/><path class="cls-3" d="M107.28,68.06a2,2,0,1,0-2,2A2,2,0,0,0,107.28,68.06Z"/><path class="cls-3" d="M100.44,60.82a2,2,0,1,0-2,2A2,2,0,0,0,100.44,60.82Z"/><circle class="cls-3" cx="95.26" cy="71.21" r="2.57"/><polyline class="cls-6" points="127.55 77.8 121.02 97.51 91.78 97.51 85.17 77.53"/><path class="cls-6" d="M86.44,68.06a5.37,5.37,0,0,0,.33,10.23"/><path class="cls-6" d="M126,78.38a5.11,5.11,0,0,0,1.54-.58,5.36,5.36,0,0,0-1.2-9.85"/><path class="cls-6" d="M86.44,68.06A20.46,20.46,0,0,1,126.35,68"/><path class="cls-6" d="M86.77,78.29a5.37,5.37,0,0,0,6-2.38,5.37,5.37,0,0,0,9.18,0,5.36,5.36,0,0,0,9.17,0,5.37,5.37,0,0,0,9.18,0,5.35,5.35,0,0,0,4.58,2.58,5.52,5.52,0,0,0,1.09-.11"/><circle class="cls-6" cx="95.26" cy="71.21" r="2.57"/><path class="cls-6" d="M117.07,72a2.21,2.21,0,1,1-2.21-2.22A2.21,2.21,0,0,1,117.07,72Z"/><circle class="cls-6" cx="118.7" cy="65.09" r="1.63"/><path class="cls-6" d="M107.28,68.06a2,2,0,1,1-2-2A2,2,0,0,1,107.28,68.06Z"/><path class="cls-6" d="M100.44,60.82a2,2,0,1,1-2-2A2.05,2.05,0,0,1,100.44,60.82Z"/><path class="cls-6" d="M110.66,60.07a2,2,0,1,1-2-2A2,2,0,0,1,110.66,60.07Z"/></svg>