<svg xmlns="http://www.w3.org/2000/svg" id="Layer_1" data-name="Layer 1" viewBox="41.08 40.82 173.84 174.36"><defs><style>.cls-1{fill:#0e4e91}.cls-3{fill:#fff}.cls-4{fill:#2db5ff}.cls-5{fill:none;stroke:#0e4e91;stroke-miterlimit:10}.cls-6{fill:#caf5fe}</style></defs><path class="cls-1" d="M124.33 215.09v-1.14c2 .09 4.05.12 6.05.06v1.15c-1.94.04-4.01.02-6.05-.07zm-4.59-.33c-2-.2-4.08-.47-6.08-.81l.19-1.13c2 .33 4 .6 6 .79zm15.32.16-.09-1.14c2-.16 4-.39 6-.68l.17 1.13c-2 .3-4.05.53-6.08.69zm10.63-1.48-.23-1.13c2-.4 3.95-.87 5.88-1.42l.31 1.11c-1.96.55-3.96 1-5.96 1.44zm10.36-2.79-.37-1.08c1.89-.64 3.8-1.35 5.66-2.13l.44 1.05c-1.88.79-3.78 1.51-5.73 2.16zm9.93-4-.5-1c1.81-.87 3.62-1.82 5.36-2.82l.57 1c-1.77.94-3.6 1.89-5.41 2.78zm-86.28-6.2c-1.69-1.14-3.36-2.35-5-3.6l.7-.9c1.59 1.23 3.24 2.43 4.91 3.55zm95.64 1-.61-1c1.69-1.08 3.36-2.24 5-3.44l.69.91c-1.67 1.18-3.36 2.35-5.08 3.45zm-104.16-7.56a84.604 84.604 0 0 1-4.49-4.19l.8-.81a86.44 86.44 0 0 0 4.44 4.13zM184 195l-.74-.88c1.55-1.28 3.07-2.64 4.52-4l.79.82c-1.47 1.42-3.02 2.8-4.57 4.06zm-120.49-8.63c-1.35-1.5-2.69-3.09-3.94-4.69l.91-.71c1.24 1.59 2.55 3.15 3.89 4.63zm128.3 1.31-.83-.78c1.39-1.47 2.72-3 4-4.56l.89.73c-1.3 1.57-2.66 3.13-4.06 4.61zM56.83 178a86.879 86.879 0 0 1-3.34-5.14l1-.59c1 1.72 2.14 3.43 3.29 5.07zm141.84 1.45-.93-.68c1.19-1.62 2.33-3.31 3.41-5l1 .61c-1.15 1.69-2.28 3.39-3.48 5.04zM51.23 168.83c-1-1.8-1.86-3.66-2.69-5.51l1.05-.47c.81 1.84 1.71 3.66 2.65 5.44zm153.24 1.55-1-.56c1-1.76 1.91-3.57 2.76-5.4l1 .49c-.83 1.85-1.77 3.69-2.76 5.47zM41.08 127.57c0-1.81.08-3.66.2-5.46v-.67l1.14.08v.67c-.12 1.78-.19 3.6-.2 5.39zM42.93 117l-1.13-.14c.25-2 .59-4.06 1-6.06l1.13.23c-.42 1.97-.75 3.97-1 5.97zm170.85 1.49c-.22-2-.51-4-.87-6l1.12-.21c.36 2 .66 4 .89 6.07zM44.91 106.6l-1.1-.29c.51-2 1.08-4 1.73-5.88l1.08.36c-.62 1.91-1.21 3.86-1.71 5.81zM212 108.06c-.46-2-1-3.92-1.61-5.83l1.09-.35c.61 2 1.16 3.94 1.63 5.92zM48.16 96.53l-1.07-.43c.75-1.89 1.57-3.78 2.45-5.63l1 .49c-.83 1.82-1.64 3.69-2.38 5.57zm160.74 1.41a93.83 93.83 0 0 0-2.31-5.59l1-.48c.85 1.85 1.63 3.76 2.35 5.67zm-156.26-11-1-.55c1-1.78 2-3.56 3.12-5.29l1 .62a68.571 68.571 0 0 0-3.12 5.19zm152 1.36c-.93-1.78-1.93-3.55-3-5.26l1-.59c1.07 1.73 2.09 3.53 3 5.33zM58.28 77.93l-.93-.66c1.19-1.66 2.45-3.3 3.75-4.86l.87.73a85.81 85.81 0 0 0-3.69 4.79zm140.86 1.28a89.853 89.853 0 0 0-3.61-4.86l.9-.71c1.27 1.58 2.5 3.24 3.65 4.92zM65 69.72l-.84-.78c1.38-1.5 2.83-3 4.32-4.37l.78.84c-1.5 1.38-2.93 2.82-4.26 4.31zm127.6 1.15c-1.33-1.5-2.74-3-4.18-4.38l.8-.82c1.46 1.43 2.88 2.92 4.23 4.45zM100 46.69l-.38-1.08c1.92-.67 3.9-1.28 5.86-1.81l.3 1.11c-1.91.53-3.86 1.09-5.78 1.78zm57.89.52c-1.89-.7-3.83-1.33-5.76-1.88l.32-1.1c2 .56 3.92 1.2 5.83 1.91zm-47.7-3.37-.19-1.11c2-.43 4-.79 6-1.08l.16 1.13c-1.97.3-3.97.65-5.94 1.06zm37.55.34c-2-.45-4-.83-6-1.15l.26-1.13c2 .32 4 .71 6 1.17zm-27.08-1.9-.1-1.14c2-.17 4.1-.28 6.13-.32v1.15c-1.96.03-4 .14-6 .31zm16.64.15c-2-.21-4-.35-6.05-.42v-1.14c2 .07 4.09.22 6.13.43z"/><circle cx="128.9" cy="127.59" r="67.05" style="fill:#abe7ff"/><path class="cls-3" d="M182.57 148.29c4.22-3.59 7-10 7-17.26a27.4 27.4 0 0 0-.65-6h4v19.67a3.55 3.55 0 0 1-3.54 3.54h-6.8z"/><path class="cls-3" d="M192 151.15v2h-34.72v-1.53a3.34 3.34 0 0 1 3.34-3.34h28.55a2.86 2.86 0 0 1 2.83 2.87zm-2.63-32.96a3.54 3.54 0 0 1 3.54 3.54v3.35h-4a23.46 23.46 0 0 0-2.69-6.88h3.12zm-29.66 34.97h29.89c-.17 0 .17 8.44-7.83 11.63a21.18 21.18 0 0 1-14 0h-.09c-7.95-3.21-7.97-11.63-7.97-11.63z"/><path class="cls-3" d="m181.77 164.79 3.4 18.25H164.8l3-18.23a21.18 21.18 0 0 0 14 0z"/><circle class="cls-4" cx="181.95" cy="144.86" r="1.22"/><circle class="cls-4" cx="181.95" cy="118.75" r="1.22"/><path class="cls-4" d="M168.79 118.75a1.22 1.22 0 1 1-1.21-1.22 1.22 1.22 0 0 1 1.21 1.22zm-1.21 24.89a1.22 1.22 0 1 1-1.23 1.22 1.22 1.22 0 0 1 1.23-1.22z"/><path class="cls-3" d="M167.58 146.07a1.22 1.22 0 0 0 0-2.43 1.22 1.22 0 1 0 0 2.43zm0-26.1a1.23 1.23 0 0 0 1.21-1.22 1.22 1.22 0 1 0-2.44 0 1.23 1.23 0 0 0 1.23 1.25zm7.08-1.78c-4.58 0-8.29 5.75-8.29 12.84s3.71 12.84 8.29 12.84 8.27-5.75 8.27-12.84-3.71-12.84-8.27-12.84zm8.51 26.67a1.22 1.22 0 1 0-1.22 1.21 1.22 1.22 0 0 0 1.22-1.21zm0-26.11a1.22 1.22 0 1 0-2.43 0 1.22 1.22 0 1 0 2.43 0zm3.08-.56a23.46 23.46 0 0 1 2.69 6.88 27.4 27.4 0 0 1 .65 6c0 7.29-2.8 13.67-7 17.26h-15.86c-4.22-3.61-7-10-7-17.26a26.79 26.79 0 0 1 .65-6 23.46 23.46 0 0 1 2.69-6.88c2.76-4.59 6.92-7.52 11.59-7.52s8.84 2.93 11.59 7.52z"/><path class="cls-3" d="M163.05 118.19a23.46 23.46 0 0 0-2.69 6.88h-4v-3.32a3.54 3.54 0 0 1 3.53-3.54z"/><path class="cls-3" d="M156.4 144.75v-19.7h4a26.79 26.79 0 0 0-.65 6c0 7.27 2.8 13.65 7 17.26h-6.8a3.53 3.53 0 0 1-3.53-3.54z"/><path class="cls-5" d="M182.57 148.29c4.22-3.59 7-10 7-17.26a27.4 27.4 0 0 0-.65-6 23.46 23.46 0 0 0-2.69-6.88c-2.75-4.59-6.91-7.52-11.61-7.52s-8.83 2.93-11.59 7.52a23.46 23.46 0 0 0-2.69 6.88 26.79 26.79 0 0 0-.65 6c0 7.27 2.8 13.65 7 17.26"/><path class="cls-5" d="M174.66 118.19c4.56 0 8.27 5.75 8.27 12.84s-3.71 12.84-8.27 12.84-8.29-5.75-8.29-12.84 3.71-12.84 8.29-12.84zm-11.61 0h-3.12a3.54 3.54 0 0 0-3.53 3.54v23a3.53 3.53 0 0 0 3.53 3.54h.69m28.55.02h.2a3.55 3.55 0 0 0 3.54-3.54v-23a3.54 3.54 0 0 0-3.54-3.54h-3.12m3.35 34.95h2.4v-2a2.86 2.86 0 0 0-2.86-2.86h-28.52a3.34 3.34 0 0 0-3.34 3.34v1.53h32.32zm-33.2-28.11 3.96.03m28.58 0h3.97"/><path class="cls-5" d="M189.6 153.16c-.17 0 .17 8.44-7.83 11.63a21.18 21.18 0 0 1-14 0h-.09c-8-3.2-8-11.62-8-11.62"/><path class="cls-5" d="m167.77 164.81-2.97 18.23h20.37l-3.4-18.25"/><circle class="cls-5" cx="181.95" cy="118.75" r="1.22"/><circle class="cls-5" cx="181.95" cy="144.86" r="1.22"/><path class="cls-5" d="M167.58 117.53a1.22 1.22 0 0 1 1.21 1.22 1.22 1.22 0 1 1-1.21-1.22zm0 26.11a1.22 1.22 0 1 1-1.23 1.22 1.22 1.22 0 0 1 1.23-1.22z"/><path class="cls-3" d="M134.42 157a2.67 2.67 0 0 1 .77 1.85 2.63 2.63 0 0 1-2.61 2.61H104v-5.22h28.62a2.61 2.61 0 0 1 1.8.76zm-10.37-17.58a5 5 0 1 1-5 5 5 5 0 0 1 5-5zM116.67 180a8.64 8.64 0 0 0 5-1.54v3.8a3.21 3.21 0 0 1-3.23 3.23 3.22 3.22 0 0 1-3.23-3.23V180zm-1.39-50.23a5.66 5.66 0 1 1-5.66-5.65 5.66 5.66 0 0 1 5.66 5.65z"/><path class="cls-4" d="M103.24 154.46a2.48 2.48 0 0 1 .72 1.76v14.3h-20v-14.3a2.51 2.51 0 0 1 2.5-2.5h15a2.49 2.49 0 0 1 1.78.74z"/><path class="cls-3" d="M97.8 138.43a3.86 3.86 0 1 1-3.8 3.85 3.85 3.85 0 0 1 3.8-3.85zm-13.26 41.43h2.13v2.34a3.24 3.24 0 1 1-6.47 0v-3.53a8.51 8.51 0 0 0 4.34 1.19zm-2.99-56.12a6.21 6.21 0 0 0-6.2 6.21v26.27h-2.74v-27.74a7.59 7.59 0 0 1 15.18 0V131a1.17 1.17 0 0 1-.35.81 1.21 1.21 0 0 1-.81.32h-1.14a.7.7 0 0 1-.68-.7V127a3.26 3.26 0 0 0-3.26-3.26z"/><path class="cls-3" d="M75.35 156.22h8.58v5.22h-13.8a2.57 2.57 0 0 1-1.85-.77 2.53 2.53 0 0 1-.76-1.84 2.6 2.6 0 0 1 2.61-2.61h5.22z"/><path class="cls-3" d="M80.2 178.68a8.64 8.64 0 0 1-3.86-4.88c-1.62-5.28-3.73-12.11-3.73-12.11v-.25h11.32v9.08h20v-9.08h25.13l-4.26 12.66a8.48 8.48 0 0 1-3.21 4.29 8.64 8.64 0 0 1-5 1.54h-1.51c-7.93 0-20.28-.06-28.49-.08h-2.05a8.51 8.51 0 0 1-4.34-1.17z"/><path class="cls-5" d="M104 161.44h28.62a2.63 2.63 0 0 0 2.61-2.61 2.67 2.67 0 0 0-.77-1.85 2.61 2.61 0 0 0-1.84-.76H104m-31.39 0h-2.48a2.6 2.6 0 0 0-2.61 2.61 2.53 2.53 0 0 0 .76 1.84 2.57 2.57 0 0 0 1.85.77h13.8m20.03 0v-5.22m-20.03 5.22v9.08h20.03v-9.08m-20.03-5.22v5.22m20.07-5.22a2.49 2.49 0 0 0-2.48-2.5h-15a2.51 2.51 0 0 0-2.5 2.5m25.6-20.79a5.66 5.66 0 1 1 5.66-5.66 5.65 5.65 0 0 1-5.66 5.66zm14.43 14.06a5 5 0 1 1 5-5 5 5 0 0 1-5 5zm-22.39-7.21a3.86 3.86 0 1 1-3.86-3.85 3.86 3.86 0 0 1 3.86 3.85z"/><path class="cls-5" d="M75.35 156.22V130a6.21 6.21 0 0 1 6.2-6.21 3.26 3.26 0 0 1 3.26 3.21v4.4a.7.7 0 0 0 .68.7h1.14a1.21 1.21 0 0 0 .81-.32 1.17 1.17 0 0 0 .35-.81v-2.52a7.59 7.59 0 0 0-15.18 0v27.74h11.32m37.69 22.22a8.64 8.64 0 0 1-5 1.54h-1.51c-7.93 0-20.28-.06-28.49-.08h-2.08a8.51 8.51 0 0 1-4.34-1.18 8.64 8.64 0 0 1-3.86-4.88c-1.62-5.28-3.73-12.11-3.73-12.11m56.48-.26-4.26 12.66a8.48 8.48 0 0 1-3.21 4.29"/><path class="cls-5" d="M115.16 180v2.26a3.22 3.22 0 0 0 3.23 3.23 3.21 3.21 0 0 0 3.23-3.23v-3.82m-6.46 1.56v-.21m-28.49-.11v.19m-6.47-1.19v3.53a3.24 3.24 0 1 0 6.47 0v-2.34m-6.47-1.19v-.12"/><path class="cls-6" d="M109.64 79.62a3.38 3.38 0 1 0 3.36-3.37 3.37 3.37 0 0 0-3.36 3.37zm-.28-12.79h7.31v4.36h-7.31z"/><path class="cls-3" d="M109.64 79.62A3.38 3.38 0 1 1 113 83a3.37 3.37 0 0 1-3.36-3.38zm6.24 7a2.08 2.08 0 0 0 2.06-2.06V65.1a2.06 2.06 0 0 0-.61-1.46 2 2 0 0 0-1.45-.6h-5.72a2 2 0 0 0-1.46.6 2.09 2.09 0 0 0-.6 1.46v19.49a2.07 2.07 0 0 0 2.06 2.06zm-6.52-19.82h7.31v4.36h-7.31z"/><path class="cls-4" d="M119.27 91.71h1.34v-1.83h-4.22v1.83h2.88z"/><path class="cls-6" d="M119.76 85.66h3.38v1.83h-3.38z"/><path class="cls-3" d="M117.33 86a2 2 0 0 1-1.45.61h-5.72a2.07 2.07 0 0 1-2.06-2.06V65.1a2.09 2.09 0 0 1 .6-1.46 2 2 0 0 1 1.46-.6h5.72a2 2 0 0 1 1.45.6 2.06 2.06 0 0 1 .61 1.46v19.49a2 2 0 0 1-.61 1.41zm2.43 1.45v-1.79h3.38v1.83zm3.24 2.43a1.57 1.57 0 0 0 1.57-1.57V61.23a1.57 1.57 0 0 0-1.57-1.57h-20a1.57 1.57 0 0 0-1.57 1.57v27.08a1.57 1.57 0 0 0 1.57 1.57h20z"/><circle class="cls-1" cx="131.92" cy="69.29" r=".42"/><circle class="cls-1" cx="132.48" cy="66.62" r=".42"/><circle class="cls-1" cx="132.76" cy="71.68" r=".42"/><path class="cls-1" d="M135.15 65.57a.43.43 0 0 0 0-.85.43.43 0 0 0 0 .85zm0 7.02a.43.43 0 1 0 .42-.42.42.42 0 0 0-.42.42z"/><path class="cls-4" d="M137.33 73.86h-3.51v10.4h3.51z"/><circle class="cls-1" cx="137.82" cy="65.99" r=".42"/><path class="cls-1" d="M137.82 71.47a.43.43 0 1 0 .42-.42.42.42 0 0 0-.42.42z"/><circle class="cls-1" cx="139.09" cy="68.8" r=".42"/><path class="cls-3" d="M131.5 69.29a.42.42 0 1 1 .42.42.42.42 0 0 1-.42-.42zm1.68 2.39a.42.42 0 0 1-.42.42.42.42 0 0 1 0-.84.42.42 0 0 1 .42.42zm-.7-5.48a.42.42 0 1 1 0 .84.42.42 0 1 1 0-.84zm2.67 6.39a.43.43 0 0 1 .85 0 .43.43 0 1 1-.85 0zm.42-7.44a.42.42 0 0 1-.42.42.43.43 0 1 1 .42-.42zm2.67 6.74a.42.42 0 1 1 .43-.42.42.42 0 0 1-.43.42zm-.42-6.32a.42.42 0 1 1 0 .84.42.42 0 1 1 0-.84zm-2.25.91a2.39 2.39 0 1 1-2.39 2.39 2.39 2.39 0 0 1 2.39-2.39zm5 2.39a5 5 0 1 0-5 5h.05a5 5 0 0 0 4.94-5zm-1.05-.07a.42.42 0 0 1-.42.42.42.42 0 0 1 0-.84.42.42 0 0 1 .41.42zm3.71 19.96v-3.1h-3.37v3.1h3.37z"/><path class="cls-4" d="M146.11 66.97h3.31v-5.06h-3.31v5.06zm3.45 41.18h-3.59v5.06h3.59v-5.06z"/><path class="cls-3" d="M143.23 88.76h8.86v-3.1h-8.86v3.1z"/><path class="cls-5" d="M120.61 89.88H123a1.57 1.57 0 0 0 1.57-1.57V61.23a1.57 1.57 0 0 0-1.57-1.57h-20a1.57 1.57 0 0 0-1.57 1.57v27.08a1.57 1.57 0 0 0 1.57 1.57h13.47"/><path class="cls-5" d="M108.1 84.59a2.07 2.07 0 0 0 2.06 2.06h5.72a2.08 2.08 0 0 0 2.06-2.06V65.1a2.06 2.06 0 0 0-.61-1.46 2 2 0 0 0-1.45-.6h-5.72a2 2 0 0 0-1.46.6 2.09 2.09 0 0 0-.6 1.46z"/><path class="cls-5" d="M116.39 79.62a3.38 3.38 0 1 1-3.39-3.37 3.37 3.37 0 0 1 3.39 3.37zm-7.03-12.79h7.31v4.36h-7.31zm10.4 18.83h3.38v1.83h-3.38zm.85 4.22v1.83h-4.22v-1.83h4.22zm15.01-16.02h1.71v10.4h-3.51v-10.4h1.75"/><path class="cls-5" d="M117.66 91.71v14.69a9.34 9.34 0 0 0 9.33 9.34h.12a9.34 9.34 0 0 0 9.34-9.38c0-9.28-.1-22.1-.1-22.1m13.77 1.4h1.97v3.1h-12.23v-3.1h10.26zm-1.3 22.49h.74v5.06h-3.59v-5.06h.74m0-41.18h-.6v-5.06h3.31v5.06h-.6m-2.11 21.86v19.32h2.11V88.82m0-3.16V66.97h-2.11v18.69m-11.14-11.8a5 5 0 1 1 .05 0z"/><path class="cls-5" d="M119.27 91.71s0 8.35.09 14.88a7.67 7.67 0 0 0 15.33-.11c0-8.87-.1-22.22-.1-22.22"/><circle class="cls-5" cx="135.57" cy="68.87" r="2.39"/><path class="cls-5" d="M143.23 88.62v-2.96m6.89 2.96v-2.96"/></svg>