<svg id="Layer_1" data-name="Layer 1" xmlns="http://www.w3.org/2000/svg" viewBox="0 0 256 256"><defs><style>.cls-1{fill:#0e4e91;}.cls-2{fill:#abe7ff;}.cls-3{fill:#fff;}.cls-4{fill:#2db5ff;}.cls-5{fill:none;stroke:#0e4e91;stroke-miterlimit:10;}.cls-6{fill:#caf5fe;}</style></defs><path class="cls-1" d="M124.33,215.09l0-1.14c2,.09,4.05.12,6.05.06l0,1.15C128.44,215.2,126.37,215.18,124.33,215.09Zm-4.59-.33c-2-.2-4.08-.47-6.08-.81l.19-1.13c2,.33,4,.6,6,.79Zm15.32.16-.09-1.14c2-.16,4-.39,6-.68l.17,1.13C139.14,214.53,137.09,214.76,135.06,214.92Zm10.63-1.48-.23-1.13c2-.4,3.95-.87,5.88-1.42l.31,1.11C149.69,212.55,147.69,213,145.69,213.44Zm10.36-2.79-.37-1.08c1.89-.64,3.8-1.35,5.66-2.13l.44,1.05C159.9,209.28,158,210,156.05,210.65Zm9.93-4-.5-1c1.81-.87,3.62-1.82,5.36-2.82l.57,1C169.64,204.77,167.81,205.72,166,206.61Zm-86.28-6.2c-1.69-1.14-3.36-2.35-5-3.6l.7-.9c1.59,1.23,3.24,2.43,4.91,3.55Zm95.64,1-.61-1c1.69-1.08,3.36-2.24,5-3.44l.69.91C178.75,199.1,177.06,200.27,175.34,201.37ZM71.18,193.89c-1.54-1.34-3.05-2.74-4.49-4.19l.8-.81c1.43,1.43,2.92,2.81,4.44,4.13ZM184,195l-.74-.88c1.55-1.28,3.07-2.64,4.52-4l.79.82C187.1,192.36,185.55,193.74,184,195ZM63.51,186.37c-1.35-1.5-2.69-3.09-3.94-4.69l.91-.71c1.24,1.59,2.55,3.15,3.89,4.63Zm128.3,1.31-.83-.78c1.39-1.47,2.72-3,4-4.56l.89.73C194.57,184.64,193.21,186.2,191.81,187.68ZM56.83,178c-1.17-1.67-2.29-3.39-3.34-5.14l1-.59c1,1.72,2.14,3.43,3.29,5.07Zm141.84,1.45-.93-.68c1.19-1.62,2.33-3.31,3.41-5l1,.61C201,176.07,199.87,177.77,198.67,179.42ZM51.23,168.83c-1-1.8-1.86-3.66-2.69-5.51l1.05-.47c.81,1.84,1.71,3.66,2.65,5.44Zm153.24,1.55-1-.56c1-1.76,1.91-3.57,2.76-5.4l1,.49C206.4,166.76,205.46,168.6,204.47,170.38ZM41.08,127.57c0-1.81.08-3.66.2-5.46l0-.67,1.14.08,0,.67c-.12,1.78-.19,3.6-.2,5.39ZM42.93,117l-1.13-.14c.25-2,.59-4.06,1-6.06l1.13.23C43.51,113,43.18,115,42.93,117Zm170.85,1.49c-.22-2-.51-4-.87-6l1.12-.21c.36,2,.66,4,.89,6.07ZM44.91,106.6l-1.1-.29c.51-2,1.08-4,1.73-5.88l1.08.36C46,102.7,45.41,104.65,44.91,106.6ZM212,108.06c-.46-2-1-3.92-1.61-5.83l1.09-.35c.61,2,1.16,3.94,1.63,5.92ZM48.16,96.53l-1.07-.43c.75-1.89,1.57-3.78,2.45-5.63l1,.49C49.71,92.78,48.9,94.65,48.16,96.53ZM208.9,97.94c-.71-1.88-1.48-3.76-2.31-5.59l1-.48c.85,1.85,1.63,3.76,2.35,5.67Zm-156.26-11-1-.55c1-1.78,2-3.56,3.12-5.29l1,.62C54.64,83.4,53.6,85.15,52.64,86.91Zm152,1.36c-.93-1.78-1.93-3.55-3-5.26l1-.59c1.07,1.73,2.09,3.53,3,5.33ZM58.28,77.93l-.93-.66c1.19-1.66,2.45-3.3,3.75-4.86l.87.73C60.69,74.68,59.45,76.3,58.28,77.93Zm140.86,1.28c-1.15-1.65-2.35-3.29-3.61-4.86l.9-.71c1.27,1.58,2.5,3.24,3.65,4.92ZM65,69.72l-.84-.78c1.38-1.5,2.83-3,4.32-4.37l.78.84C67.76,66.79,66.33,68.23,65,69.72ZM192.6,70.87c-1.33-1.5-2.74-3-4.18-4.38l.8-.82c1.46,1.43,2.88,2.92,4.23,4.45ZM100,46.69l-.38-1.08c1.92-.67,3.9-1.28,5.86-1.81l.3,1.11C103.87,45.44,101.92,46,100,46.69Zm57.89.52c-1.89-.7-3.83-1.33-5.76-1.88l.32-1.1c2,.56,3.92,1.2,5.83,1.91Zm-47.7-3.37L110,42.73c2-.43,4-.79,6-1.08l.16,1.13C114.19,43.08,112.19,43.43,110.22,43.84Zm37.55.34c-2-.45-4-.83-6-1.15L142,41.9c2,.32,4,.71,6,1.17Zm-27.08-1.9-.1-1.14c2-.17,4.1-.28,6.13-.32l0,1.15C124.73,42,122.69,42.11,120.69,42.28Zm16.64.15c-2-.21-4-.35-6.05-.42l0-1.14c2,.07,4.09.22,6.13.43Z"/><circle class="cls-2" cx="128.9" cy="127.59" r="67.05"/><path class="cls-3" d="M182.57,148.29c4.22-3.59,7-10,7-17.26a27.4,27.4,0,0,0-.65-6h4v19.67a3.55,3.55,0,0,1-3.54,3.54h-6.8Z"/><path class="cls-3" d="M192,151.15v2H157.28v-1.53a3.34,3.34,0,0,1,3.34-3.34h28.55A2.86,2.86,0,0,1,192,151.15Z"/><path class="cls-3" d="M189.37,118.19a3.54,3.54,0,0,1,3.54,3.54v3.35h-4a23.46,23.46,0,0,0-2.69-6.88h3.12Z"/><path class="cls-3" d="M159.71,153.16H189.6c-.17,0,.17,8.44-7.83,11.63a21.18,21.18,0,0,1-14,0l-.09,0C159.73,161.58,159.71,153.16,159.71,153.16Z"/><path class="cls-3" d="M181.77,164.79l3.4,18.25H164.8l3-18.23a21.18,21.18,0,0,0,14,0Z"/><circle class="cls-4" cx="181.95" cy="144.86" r="1.22"/><circle class="cls-4" cx="181.95" cy="118.75" r="1.22"/><path class="cls-4" d="M168.79,118.75a1.22,1.22,0,1,1-1.21-1.22A1.22,1.22,0,0,1,168.79,118.75Z"/><path class="cls-4" d="M167.58,143.64a1.22,1.22,0,1,1-1.23,1.22A1.22,1.22,0,0,1,167.58,143.64Z"/><path class="cls-3" d="M167.58,146.07a1.22,1.22,0,0,0,0-2.43,1.22,1.22,0,1,0,0,2.43Zm0-26.1a1.23,1.23,0,0,0,1.21-1.22,1.22,1.22,0,1,0-2.44,0A1.23,1.23,0,0,0,167.58,120Zm7.08-1.78c-4.58,0-8.29,5.75-8.29,12.84s3.71,12.84,8.29,12.84,8.27-5.75,8.27-12.84S179.22,118.19,174.66,118.19Zm8.51,26.67a1.22,1.22,0,1,0-1.22,1.21A1.22,1.22,0,0,0,183.17,144.86Zm0-26.11a1.22,1.22,0,1,0-2.43,0,1.22,1.22,0,1,0,2.43,0Zm3.08-.56h0a23.46,23.46,0,0,1,2.69,6.88,27.4,27.4,0,0,1,.65,6c0,7.29-2.8,13.67-7,17.26H166.73c-4.22-3.61-7-10-7-17.26a26.79,26.79,0,0,1,.65-6,23.46,23.46,0,0,1,2.69-6.88h0c2.76-4.59,6.92-7.52,11.59-7.52S183.5,113.6,186.25,118.19Z"/><path class="cls-3" d="M163.05,118.19h0a23.46,23.46,0,0,0-2.69,6.88l-4,0v-3.32a3.54,3.54,0,0,1,3.53-3.54Z"/><path class="cls-3" d="M156.4,144.75v-19.7l4,0a26.79,26.79,0,0,0-.65,6c0,7.27,2.8,13.65,7,17.26h-6.8a3.53,3.53,0,0,1-3.53-3.54Z"/><path class="cls-5" d="M182.57,148.29c4.22-3.59,7-10,7-17.26a27.4,27.4,0,0,0-.65-6,23.46,23.46,0,0,0-2.69-6.88h0c-2.75-4.59-6.91-7.52-11.61-7.52s-8.83,2.93-11.59,7.52h0a23.46,23.46,0,0,0-2.69,6.88,26.79,26.79,0,0,0-.65,6c0,7.27,2.8,13.65,7,17.26"/><path class="cls-5" d="M174.66,118.19c4.56,0,8.27,5.75,8.27,12.84s-3.71,12.84-8.27,12.84-8.29-5.75-8.29-12.84S170.08,118.19,174.66,118.19Z"/><path class="cls-5" d="M163.05,118.19h-3.12a3.54,3.54,0,0,0-3.53,3.54v23a3.53,3.53,0,0,0,3.53,3.54h.69"/><path class="cls-5" d="M189.17,148.29h.2a3.55,3.55,0,0,0,3.54-3.54v-23a3.54,3.54,0,0,0-3.54-3.54h-3.12"/><path class="cls-5" d="M189.6,153.16H192v-2a2.86,2.86,0,0,0-2.86-2.86H160.62a3.34,3.34,0,0,0-3.34,3.34v1.53H189.6Z"/><line class="cls-5" x1="156.4" y1="125.05" x2="160.36" y2="125.08"/><line class="cls-5" x1="188.94" y1="125.08" x2="192.91" y2="125.08"/><path class="cls-5" d="M189.6,153.16c-.17,0,.17,8.44-7.83,11.63a21.18,21.18,0,0,1-14,0l-.09,0c-8-3.2-8-11.62-8-11.62"/><polyline class="cls-5" points="167.77 164.81 164.8 183.04 185.17 183.04 181.77 164.79"/><circle class="cls-5" cx="181.95" cy="118.75" r="1.22"/><circle class="cls-5" cx="181.95" cy="144.86" r="1.22"/><path class="cls-5" d="M167.58,117.53a1.22,1.22,0,0,1,1.21,1.22,1.22,1.22,0,1,1-1.21-1.22Z"/><path class="cls-5" d="M167.58,143.64a1.22,1.22,0,1,1-1.23,1.22A1.22,1.22,0,0,1,167.58,143.64Z"/><path class="cls-3" d="M134.42,157a2.67,2.67,0,0,1,.77,1.85,2.63,2.63,0,0,1-2.61,2.61H104v-5.22h28.62A2.61,2.61,0,0,1,134.42,157Z"/><path class="cls-3" d="M124.05,139.42a5,5,0,1,1-5,5A5,5,0,0,1,124.05,139.42Z"/><path class="cls-3" d="M116.67,180a8.64,8.64,0,0,0,5-1.54v3.8a3.21,3.21,0,0,1-3.23,3.23,3.22,3.22,0,0,1-3.23-3.23V180Z"/><path class="cls-3" d="M115.28,129.77a5.66,5.66,0,1,1-5.66-5.65A5.66,5.66,0,0,1,115.28,129.77Z"/><path class="cls-4" d="M103.24,154.46a2.48,2.48,0,0,1,.72,1.76v14.3h-20v-14.3a2.51,2.51,0,0,1,2.5-2.5h15A2.49,2.49,0,0,1,103.24,154.46Z"/><path class="cls-3" d="M97.8,138.43A3.86,3.86,0,1,1,94,142.28,3.85,3.85,0,0,1,97.8,138.43Z"/><path class="cls-3" d="M84.54,179.86h2.13v2.34a3.24,3.24,0,1,1-6.47,0v-3.53A8.51,8.51,0,0,0,84.54,179.86Z"/><path class="cls-3" d="M81.55,123.74a6.21,6.21,0,0,0-6.2,6.21v26.27H72.61V128.48a7.59,7.59,0,0,1,15.18,0V131a1.17,1.17,0,0,1-.35.81,1.21,1.21,0,0,1-.81.32c-.38,0-.79,0-1.14,0a.7.7,0,0,1-.68-.7V127a3.26,3.26,0,0,0-3.26-3.26Z"/><path class="cls-3" d="M75.35,156.22h8.58v5.22H70.13a2.57,2.57,0,0,1-1.85-.77,2.53,2.53,0,0,1-.76-1.84,2.6,2.6,0,0,1,2.61-2.61h5.22Z"/><path class="cls-3" d="M80.2,178.68a8.64,8.64,0,0,1-3.86-4.88c-1.62-5.28-3.73-12.11-3.73-12.11v-.25H83.93v9.08h20v-9.08h25.13l-4.26,12.66a8.48,8.48,0,0,1-3.21,4.29v0a8.64,8.64,0,0,1-5,1.54h-1.51c-7.93,0-20.28-.06-28.49-.08H84.54A8.51,8.51,0,0,1,80.2,178.68Z"/><path class="cls-5" d="M104,161.44h28.62a2.63,2.63,0,0,0,2.61-2.61,2.67,2.67,0,0,0-.77-1.85,2.61,2.61,0,0,0-1.84-.76H104"/><path class="cls-5" d="M72.61,156.22H70.13a2.6,2.6,0,0,0-2.61,2.61,2.53,2.53,0,0,0,.76,1.84,2.57,2.57,0,0,0,1.85.77h13.8"/><line class="cls-5" x1="103.96" y1="161.44" x2="103.96" y2="156.22"/><polyline class="cls-5" points="83.93 161.44 83.93 170.52 103.96 170.52 103.96 161.44"/><line class="cls-5" x1="83.93" y1="156.22" x2="83.93" y2="161.44"/><path class="cls-5" d="M104,156.22a2.49,2.49,0,0,0-2.48-2.5h-15a2.51,2.51,0,0,0-2.5,2.5"/><path class="cls-5" d="M109.62,135.43a5.66,5.66,0,1,1,5.66-5.66A5.65,5.65,0,0,1,109.62,135.43Z"/><path class="cls-5" d="M124.05,149.49a5,5,0,1,1,5-5A5,5,0,0,1,124.05,149.49Z"/><path class="cls-5" d="M101.66,142.28a3.86,3.86,0,1,1-3.86-3.85A3.86,3.86,0,0,1,101.66,142.28Z"/><path class="cls-5" d="M75.35,156.22V130a6.21,6.21,0,0,1,6.2-6.21A3.26,3.26,0,0,1,84.81,127v4.4a.7.7,0,0,0,.68.7c.35,0,.76,0,1.14,0a1.21,1.21,0,0,0,.81-.32,1.17,1.17,0,0,0,.35-.81v-2.52a7.59,7.59,0,0,0-15.18,0v27.74H83.93"/><path class="cls-5" d="M121.62,178.41a8.64,8.64,0,0,1-5,1.54h-1.51c-7.93,0-20.28-.06-28.49-.08H84.54a8.51,8.51,0,0,1-4.34-1.18,8.64,8.64,0,0,1-3.86-4.88c-1.62-5.28-3.73-12.11-3.73-12.11"/><path class="cls-5" d="M129.09,161.44l-4.26,12.66a8.48,8.48,0,0,1-3.21,4.29"/><path class="cls-5" d="M115.16,180v2.26a3.22,3.22,0,0,0,3.23,3.23,3.21,3.21,0,0,0,3.23-3.23v-3.82"/><path class="cls-5" d="M115.16,180v-.21"/><line class="cls-5" x1="86.67" y1="179.68" x2="86.67" y2="179.87"/><path class="cls-5" d="M80.2,178.68v3.53a3.24,3.24,0,1,0,6.47,0v-2.34"/><line class="cls-5" x1="80.2" y1="178.68" x2="80.2" y2="178.56"/><path class="cls-6" d="M109.64,79.62A3.38,3.38,0,1,0,113,76.25,3.37,3.37,0,0,0,109.64,79.62Z"/><rect class="cls-6" x="109.36" y="66.83" width="7.31" height="4.36"/><path class="cls-3" d="M109.64,79.62A3.38,3.38,0,1,1,113,83,3.37,3.37,0,0,1,109.64,79.62Zm6.24,7a2.08,2.08,0,0,0,2.06-2.06V65.1a2.06,2.06,0,0,0-.61-1.46,2,2,0,0,0-1.45-.6h-5.72a2,2,0,0,0-1.46.6,2.09,2.09,0,0,0-.6,1.46V84.59a2.07,2.07,0,0,0,2.06,2.06Zm-6.52-19.82h7.31v4.36h-7.31Z"/><polygon class="cls-4" points="119.27 91.71 120.61 91.71 120.61 89.88 116.39 89.88 116.39 91.71 117.66 91.71 119.27 91.71"/><rect class="cls-6" x="119.76" y="85.66" width="3.38" height="1.83"/><path class="cls-3" d="M117.33,86a2,2,0,0,1-1.45.61h-5.72a2.07,2.07,0,0,1-2.06-2.06V65.1a2.09,2.09,0,0,1,.6-1.46,2,2,0,0,1,1.46-.6h5.72a2,2,0,0,1,1.45.6,2.06,2.06,0,0,1,.61,1.46V84.59A2,2,0,0,1,117.33,86Zm2.43,1.45V85.66h3.38v1.83ZM123,89.88a1.57,1.57,0,0,0,1.57-1.57V61.23A1.57,1.57,0,0,0,123,59.66h-20a1.57,1.57,0,0,0-1.57,1.57V88.31a1.57,1.57,0,0,0,1.57,1.57h20Z"/><circle class="cls-1" cx="131.92" cy="69.29" r="0.42"/><circle class="cls-1" cx="132.48" cy="66.62" r="0.42"/><circle class="cls-1" cx="132.76" cy="71.68" r="0.42"/><path class="cls-1" d="M135.15,65.57a.43.43,0,0,0,0-.85.43.43,0,0,0,0,.85Z"/><path class="cls-1" d="M135.15,72.59a.43.43,0,1,0,.42-.42A.42.42,0,0,0,135.15,72.59Z"/><path class="cls-4" d="M137.33,73.86h-3.51v10.4h3.51Z"/><circle class="cls-1" cx="137.82" cy="65.99" r="0.42"/><path class="cls-1" d="M137.82,71.47a.43.43,0,1,0,.42-.42A.42.42,0,0,0,137.82,71.47Z"/><circle class="cls-1" cx="139.09" cy="68.8" r="0.42"/><path class="cls-3" d="M131.5,69.29a.42.42,0,1,1,.42.42A.42.42,0,0,1,131.5,69.29Zm1.68,2.39a.42.42,0,0,1-.42.42.42.42,0,0,1,0-.84A.42.42,0,0,1,133.18,71.68Zm-.7-5.48a.42.42,0,1,1,0,.84.42.42,0,1,1,0-.84Zm2.67,6.39a.43.43,0,0,1,.85,0,.43.43,0,1,1-.85,0Zm.42-7.44a.42.42,0,0,1-.42.42.43.43,0,1,1,.42-.42Zm2.67,6.74a.42.42,0,1,1,.43-.42A.42.42,0,0,1,138.24,71.89Zm-.42-6.32a.42.42,0,1,1,0,.84.42.42,0,1,1,0-.84Zm-2.25.91a2.39,2.39,0,1,1-2.39,2.39A2.39,2.39,0,0,1,135.57,66.48Zm5,2.39a5,5,0,1,0-5,5h.05A5,5,0,0,0,140.56,68.87Zm-1.05-.07a.42.42,0,0,1-.42.42.42.42,0,0,1,0-.84A.42.42,0,0,1,139.51,68.8Z"/><polygon class="cls-3" points="143.23 88.76 143.23 88.62 143.23 85.66 139.86 85.66 139.86 88.76 143.23 88.76"/><polygon class="cls-4" points="146.11 66.97 146.71 66.97 148.82 66.97 149.42 66.97 149.42 61.91 146.11 61.91 146.11 66.97"/><polygon class="cls-4" points="149.56 108.15 148.82 108.15 146.71 108.15 145.97 108.15 145.97 113.21 149.56 113.21 149.56 108.15"/><polygon class="cls-3" points="143.23 88.76 146.71 88.76 148.82 88.76 152.09 88.76 152.09 85.66 150.12 85.66 148.82 85.66 146.71 85.66 143.23 85.66 143.23 88.62 143.23 88.76"/><path class="cls-5" d="M120.61,89.88H123a1.57,1.57,0,0,0,1.57-1.57V61.23A1.57,1.57,0,0,0,123,59.66h-20a1.57,1.57,0,0,0-1.57,1.57V88.31a1.57,1.57,0,0,0,1.57,1.57h13.47"/><path class="cls-5" d="M108.1,84.59a2.07,2.07,0,0,0,2.06,2.06h5.72a2.08,2.08,0,0,0,2.06-2.06V65.1a2.06,2.06,0,0,0-.61-1.46,2,2,0,0,0-1.45-.6h-5.72a2,2,0,0,0-1.46.6,2.09,2.09,0,0,0-.6,1.46Z"/><path class="cls-5" d="M116.39,79.62A3.38,3.38,0,1,1,113,76.25,3.37,3.37,0,0,1,116.39,79.62Z"/><rect class="cls-5" x="109.36" y="66.83" width="7.31" height="4.36"/><rect class="cls-5" x="119.76" y="85.66" width="3.38" height="1.83"/><polygon class="cls-5" points="120.61 89.88 120.61 91.71 119.27 91.71 117.66 91.71 116.39 91.71 116.39 89.88 120.61 89.88"/><polyline class="cls-5" points="135.62 73.86 137.33 73.86 137.33 84.26 136.35 84.26 134.59 84.26 133.82 84.26 133.82 73.86 135.57 73.86"/><path class="cls-5" d="M117.66,91.71V106.4a9.34,9.34,0,0,0,9.33,9.34h.12a9.34,9.34,0,0,0,9.34-9.38c0-9.28-.1-22.1-.1-22.1"/><polygon class="cls-5" points="150.12 85.66 152.09 85.66 152.09 88.76 148.82 88.76 146.71 88.76 143.23 88.76 139.86 88.76 139.86 85.66 143.23 85.66 146.71 85.66 148.82 85.66 150.12 85.66"/><polyline class="cls-5" points="148.82 108.15 149.56 108.15 149.56 113.21 145.97 113.21 145.97 108.15 146.71 108.15"/><polyline class="cls-5" points="146.71 66.97 146.11 66.97 146.11 61.91 149.42 61.91 149.42 66.97 148.82 66.97"/><polyline class="cls-5" points="146.71 88.83 146.71 108.15 148.82 108.15 148.82 88.82"/><polyline class="cls-5" points="148.82 85.66 148.82 66.97 146.71 66.97 146.71 85.66"/><path class="cls-5" d="M135.57,73.86a5,5,0,1,1,.05,0Z"/><path class="cls-5" d="M119.27,91.71s0,8.35.09,14.88a7.67,7.67,0,0,0,15.33-.11c0-8.87-.1-22.22-.1-22.22"/><circle class="cls-5" cx="135.57" cy="68.87" r="2.39"/><line class="cls-5" x1="143.23" y1="88.62" x2="143.23" y2="85.66"/><line class="cls-5" x1="150.12" y1="88.62" x2="150.12" y2="85.66"/></svg>