<svg id="Layer_1" data-name="Layer 1" xmlns="http://www.w3.org/2000/svg" viewBox="0 0 256 256"><defs><style>.cls-1{fill:#0e4e91;}.cls-2{fill:#abe7ff;}.cls-3{fill:#2db5ff;}.cls-4{fill:#fff;}.cls-5{fill:none;stroke:#0e4e91;stroke-miterlimit:10;}.cls-6{fill:#caf5fe;}</style></defs><path class="cls-1" d="M73.23,59.71l.71.9c-1.59,1.24-3.16,2.55-4.64,3.89l-.77-.85C70,62.3,71.62,61,73.23,59.71ZM76.93,57c1.67-1.18,3.4-2.3,5.14-3.34l.59,1c-1.72,1-3.42,2.14-5.07,3.3ZM65.2,66.83l.81.81c-1.42,1.42-2.8,2.91-4.12,4.43L61,71.32C62.35,69.78,63.76,68.27,65.2,66.83Zm-7.1,8,.9.71c-1.23,1.58-2.42,3.24-3.53,4.91l-.95-.64C55.64,78.16,56.85,76.48,58.1,74.87Zm-6.05,8.87,1,.58c-1,1.72-2,3.5-2.91,5.3l-1-.51C50,87.29,51,85.48,52.05,83.74Zm-4.89,9.53,1,.46c-.81,1.84-1.56,3.74-2.23,5.63L44.89,99C45.58,97.05,46.34,95.14,47.16,93.27Zm69.49-51.49c2-.24,4.08-.4,6.12-.5l.06,1.13c-2,.1-4,.27-6,.5ZM43.46,103.34l1.09.33c-.58,1.93-1.09,3.9-1.53,5.86l-1.12-.25C42.35,107.3,42.87,105.3,43.46,103.34Zm83.91-62.16c2,0,4.1.09,6.13.24l-.08,1.15c-2-.16-4-.24-6-.25ZM41,113.79l1.13.19c-.34,2-.61,4-.8,6l-1.14-.11C40.41,117.84,40.69,115.79,41,113.79Zm97.05-71.91c2,.26,4.06.6,6,1L143.91,44c-2-.4-4-.73-6-1Zm10.54,2c2,.5,3.95,1.08,5.89,1.72l-.37,1.09c-1.9-.63-3.86-1.2-5.8-1.7Zm10.21,3.29c1.9.74,3.79,1.56,5.63,2.43l-.49,1c-1.82-.86-3.68-1.66-5.55-2.4ZM193.4,71.89c1.18,1.39,2.32,2.83,3.4,4.27l.4.55-.91.67-.4-.53c-1.07-1.44-2.2-2.86-3.36-4.22Zm5.48,9.22,1-.62C201,82.19,202,84,203,85.73l-1,.56C201.05,84.53,200,82.79,198.88,81.11ZM68.28,191.27c1.47,1.38,3,2.72,4.56,4l-.71.89c-1.58-1.28-3.13-2.64-4.63-4Zm135.87-101,1-.5c.9,1.83,1.75,3.7,2.52,5.59l-1.06.43C205.88,94,205.05,92.1,204.15,90.3ZM76.44,198c1.62,1.18,3.31,2.32,5,3.38l-.6,1c-1.73-1.08-3.45-2.23-5.09-3.43Zm131.81-97.95,1.09-.38c.67,1.93,1.28,3.89,1.81,5.87l-1.11.3C209.52,103.91,208.91,102,208.25,100.06ZM85.37,203.68c1.76,1,3.57,1.89,5.4,2.74l-.48,1c-1.85-.85-3.68-1.79-5.47-2.77Zm125.74-93.41,1.12-.24c.43,2,.79,4,1.08,6l-1.14.16C211.89,114.24,211.54,112.23,211.11,110.27ZM94.93,208.21c1.87.75,3.79,1.44,5.7,2l-.36,1.09c-1.94-.62-3.88-1.32-5.77-2.08Zm117.76-87.45,1.13-.1c.18,2,.29,4.09.33,6.12l-1.15,0C213,124.79,212.87,122.76,212.69,120.76ZM105,211.54c1.94.51,3.92,1,5.9,1.34l-.22,1.12c-2-.37-4-.83-6-1.35Zm96.38-39.89,1,.58c-1,1.76-2.12,3.5-3.27,5.19l-.94-.65C199.26,175.11,200.35,173.39,201.36,171.65ZM157.1,209c1.88-.7,3.76-1.49,5.59-2.32l.47,1c-1.86.85-3.76,1.64-5.66,2.35Zm38.38-28.52.91.69c-1.23,1.62-2.54,3.22-3.88,4.75l-.86-.75C193,183.62,194.26,182.05,195.48,180.45Zm-28.71,24.2c1.78-.93,3.55-1.94,5.26-3l.6,1c-1.73,1.07-3.52,2.09-5.33,3Zm21.78-16.19.82.8c-1.42,1.45-2.92,2.88-4.44,4.23l-.76-.85C185.67,191.3,187.15,189.9,188.55,188.46Zm-12.72,10.72c1.66-1.15,3.29-2.36,4.86-3.62l.71.89c-1.58,1.27-3.24,2.51-4.92,3.67Z"/><circle class="cls-2" cx="126.76" cy="129.08" r="67.05"/><path class="cls-3" d="M99.18,75.94a1.32,1.32,0,0,1,.44-.08,1.23,1.23,0,1,1-1.22,1.23A1.25,1.25,0,0,1,99.18,75.94Zm-.88-1.31-2.89.61-1.84,3.39,2.68,12.68,12.64-3.22-2.72-12-2.85-2.5Z"/><path class="cls-4" d="M130.79,63.29,125.4,64l-7,9.57.26,1.93h0c6.42-1.26,9.55.21,10.68,2.34.89,1.67,1.45,5,4.83,4.57,2.19-.26,1.08-3.49,6.18-3.51s6.23,3.2,6.23,3.2L145,69.88l-8.86-7.31Z"/><path class="cls-3" d="M118.7,75.52l3.45,25.71s20-.54,26.64-3.43l-2.12-15.68s-1.13-3.23-6.23-3.2-4,3.25-6.18,3.51c-3.38.41-3.94-2.9-4.83-4.57-1.13-2.13-4.26-3.6-10.68-2.34Z"/><path class="cls-5" d="M146.67,82.12,145,69.88l-8.86-7.31-5.36.72L125.4,64l-7,9.57.26,1.93,3.45,25.71s20-.54,26.64-3.43Z"/><polyline class="cls-5" points="133.1 65.97 131.3 66.24 129.51 66.5"/><path class="cls-5" d="M109.15,50.49a17.35,17.35,0,0,0-3.75-.39c-7,0-10.31,6.93-10.32,12.47A23.51,23.51,0,0,0,98.3,74.63a14.26,14.26,0,0,0,.88,1.31.93.93,0,0,0,.1.13"/><path class="cls-5" d="M109.15,50.49a9.5,9.5,0,0,0-4.39,7.62c.06,2.67,1,6.24,5.41,6.11s6.49-2.64,6.24-6.61C116.21,54.44,113.72,51.52,109.15,50.49Z"/><path class="cls-5" d="M131.3,66.24a20.87,20.87,0,0,0-.51-2.95c-1.15-4.8-4.71-13.82-15.33-14.28a10.86,10.86,0,0,0-6.31,1.48"/><path class="cls-5" d="M98.4,77.09a1.22,1.22,0,1,0,1.22-1.23,1.32,1.32,0,0,0-.44.08A1.25,1.25,0,0,0,98.4,77.09Z"/><polygon class="cls-5" points="106.17 76.07 103.32 73.57 98.3 74.63 95.41 75.24 93.57 78.63 96.25 91.31 108.89 88.09 106.17 76.07"/><path class="cls-5" d="M146.67,82.12s-1.13-3.23-6.23-3.2-4,3.25-6.18,3.51c-3.38.41-3.94-2.9-4.83-4.57-1.13-2.13-4.26-3.6-10.68-2.34"/><path class="cls-1" d="M142.35,86.07a1.19,1.19,0,0,0-.69-.07,1.16,1.16,0,0,0-.61.33,1.16,1.16,0,0,0,.7.08A1.06,1.06,0,0,0,142.35,86.07Z"/><path class="cls-1" d="M137.2,85a1.45,1.45,0,0,0-.79-.2,1.49,1.49,0,0,0-.8.2,1.5,1.5,0,0,0,.8.21A1.47,1.47,0,0,0,137.2,85Z"/><path class="cls-1" d="M136.59,88.68a1.17,1.17,0,0,0-1.31,0,1.13,1.13,0,0,0,1.31,0Z"/><path class="cls-1" d="M139.4,90.11a1.12,1.12,0,0,0-.68-.2,1.14,1.14,0,0,0-.68.2,1.15,1.15,0,0,0,.68.21A1.13,1.13,0,0,0,139.4,90.11Z"/><path class="cls-1" d="M131.65,88.07a1.4,1.4,0,0,0-.77-.21,1.42,1.42,0,0,0-.77.21,1.41,1.41,0,0,0,.77.2A1.39,1.39,0,0,0,131.65,88.07Z"/><path class="cls-1" d="M124.59,87.39a1.62,1.62,0,0,0-.84-.2,1.59,1.59,0,0,0-.83.2,1.6,1.6,0,0,0,.83.21A1.64,1.64,0,0,0,124.59,87.39Z"/><path class="cls-1" d="M123.75,83.6a1.17,1.17,0,0,0-.67-.21,1.2,1.2,0,0,0-.68.21,1.2,1.2,0,0,0,.68.21A1.17,1.17,0,0,0,123.75,83.6Z"/><path class="cls-1" d="M145.44,89.06a1.37,1.37,0,0,0-1.46,0,1.37,1.37,0,0,0,1.46,0Z"/><path class="cls-1" d="M146.5,93.44a1.61,1.61,0,0,0-1.59,0,1.61,1.61,0,0,0,1.59,0Z"/><path class="cls-1" d="M142.64,93.63a.92.92,0,0,0-.6-.21.94.94,0,0,0-.61.21.93.93,0,0,0,.61.2A.9.9,0,0,0,142.64,93.63Z"/><path class="cls-1" d="M140.44,96.42a1.17,1.17,0,0,0-1.31,0,1.13,1.13,0,0,0,1.31,0Z"/><path class="cls-1" d="M146,97a1.09,1.09,0,0,0-1.26,0,1,1,0,0,0,.63.21A1.06,1.06,0,0,0,146,97Z"/><path class="cls-1" d="M134,96.64a1.09,1.09,0,0,0-.64-.21,1.11,1.11,0,0,0-.64.21,1.11,1.11,0,0,0,.64.21A1.09,1.09,0,0,0,134,96.64Z"/><path class="cls-1" d="M137.74,98.26a1.12,1.12,0,0,0-.67-.21,1.07,1.07,0,0,0-.66.21,1.06,1.06,0,0,0,.66.2A1.18,1.18,0,0,0,137.74,98.26Z"/><path class="cls-1" d="M136.59,93.1a1.13,1.13,0,0,0-1.31,0,1.17,1.17,0,0,0,1.31,0Z"/><path class="cls-1" d="M130.55,92.84a.85.85,0,0,0-1.12,0,.85.85,0,0,0,1.12,0Z"/><path class="cls-1" d="M127.48,90.47a.8.8,0,0,0-.56-.21.84.84,0,0,0-.56.21.82.82,0,0,0,.56.2A.79.79,0,0,0,127.48,90.47Z"/><path class="cls-1" d="M124.27,92.84a1,1,0,0,0-.6-.21,1,1,0,0,0-.59.21,1,1,0,0,0,.59.21A1,1,0,0,0,124.27,92.84Z"/><path class="cls-1" d="M126.36,96.24a1,1,0,0,0-.62-.2,1,1,0,0,0-.63.2,1,1,0,0,0,.63.21A1,1,0,0,0,126.36,96.24Z"/><path class="cls-1" d="M129.65,98.79a.94.94,0,0,0-.61-.21,1,1,0,0,0-.61.21,1,1,0,0,0,.61.2A1,1,0,0,0,129.65,98.79Z"/><path class="cls-4" d="M77.85,143.44c1.11-3,9.39-23.92,28.27-23.86-10.41,4.15-19.59,13.33-28.2,24.84C77.89,144.1,77.87,143.77,77.85,143.44Z"/><path class="cls-4" d="M106.12,119.58s-.6,23.12-28.16,25.3c0-.15,0-.3,0-.46C86.53,132.91,95.71,123.73,106.12,119.58Z"/><path class="cls-4" d="M88.12,110.32c.68,6.88-2,11.65-9.11,13.61A33.7,33.7,0,0,1,88.12,110.32Z"/><path class="cls-4" d="M88.12,110.32A33.7,33.7,0,0,0,79,123.93C79.09,117.63,81.92,113,88.12,110.32Z"/><path class="cls-3" d="M78,144.88a71.52,71.52,0,0,0,2.26,12.82H77.69a66.73,66.73,0,0,1-1.39-23.1A45.27,45.27,0,0,1,79,123.93a81.29,81.29,0,0,0-1.16,19.51c0,.33,0,.66.07,1C77.93,144.58,77.94,144.73,78,144.88Z"/><path class="cls-4" d="M76.29,134.59h0q-14.18,1.32-18.37-12.07a61,61,0,0,1,10,5.13C71.41,130.16,76,134.33,76.29,134.59Z"/><path class="cls-4" d="M76.29,134.59c-.29-.26-4.88-4.43-8.41-6.93a61,61,0,0,0-10-5.13C66.35,122.27,72.16,126.87,76.29,134.59Z"/><path class="cls-5" d="M77.72,143.81s0-.13.13-.37c1.11-3,9.39-23.92,28.27-23.86,0,0-.6,23.12-28.16,25.3l-.24,0"/><path class="cls-5" d="M79,123.93a81.29,81.29,0,0,0-1.16,19.51c0,.33,0,.66.07,1,0,.16,0,.31,0,.46a71.52,71.52,0,0,0,2.26,12.82H77.69a66.73,66.73,0,0,1-1.39-23.1A45.27,45.27,0,0,1,79,123.93Z"/><path class="cls-5" d="M79,123.93c.08-6.3,2.91-11,9.11-13.61C88.8,117.2,86.12,122,79,123.93Z"/><path class="cls-5" d="M88.12,110.32A33.7,33.7,0,0,0,79,123.93"/><path class="cls-5" d="M77.92,144.42c8.61-11.51,17.79-20.69,28.2-24.84"/><path class="cls-5" d="M76.3,134.6h0c-4.13-7.72-9.94-12.32-18.37-12.06q4.19,13.4,18.37,12.07"/><path class="cls-5" d="M76.3,134.6h0c-.29-.26-4.88-4.43-8.41-6.93a61,61,0,0,0-10-5.13"/><path class="cls-4" d="M205.61,154,202.48,156c-5.22,3.06-7.63,6.51-11.39,7.87s-10,3-21.87,3c-27,1-27.92-4.35-27.92-4.35-3.49-15.07,2-29,2.72-31.78.67-2.51-.58-3.72-.85-3.94.47.29,4.5,2.62,10.66,1,7.4-.33,8.74,4.68,19,4.35s14.92-2.92,18-4.74c3.83,1,7.51-1.92,7.51-1.92.19,6.57,1.6,8.92,3.47,13.36S205.61,154,205.61,154Zm-15.32-1.55c6.44-2.05,3.3-11.56,1.79-15.26a1.72,1.72,0,0,0-2.1-1c-11.31,3.47-23.54,3.94-36.56,1.78a1.74,1.74,0,0,0-2,1.19,24.35,24.35,0,0,0-1.18,8.24c.14,3.51-1.14,6.34,4.25,6.68S182.26,155.06,190.29,152.49Z"/><path class="cls-4" d="M199.32,110.49l.42,11.84a13.23,13.23,0,0,1-1.31,3.14s-3.68,3-7.51,1.92c-3.12,1.82-7.73,4.42-18,4.74s-11.65-4.68-19-4.35c-6.16,1.64-10.19-.69-10.66-1l0,0a45.88,45.88,0,0,0,.09-9.32c-.46-4.81,1-6.61,1.13-6.78a11.59,11.59,0,0,0-.32,2.76c0,3.83,5.5,6.51,9.59,6.9s10.28,1.14,13.33.89,5,.51,12.2.83,6.58-1,10.79-2S199.32,115.85,199.32,110.49Z"/><path class="cls-4" d="M197.23,110.48c.33,4.23-8.73,8.27-14.87,8.79s-6.51.14-10.17,0-6.58.39-13.36-.71c-5.54-.2-13.1-.91-13.23-5.81s6.61-6.38,8.48-6.54c5-.41,10.82.74,13.82.55s4-1.05,7.75-1.44a51.27,51.27,0,0,1,11.35,0C190.58,105.78,196.9,106.24,197.23,110.48Z"/><path class="cls-4" d="M199.32,110.49c0,5.36-5.17,8.55-9.39,9.57s-3.57,2.3-10.79,2-9.13-1.09-12.2-.83-9.25-.51-13.33-.89-9.59-3.07-9.59-6.9a11.59,11.59,0,0,1,.32-2.76h0c.75-3.11,3.08-6.1,9.07-6.69,7.79-.77,10,1.23,12.81,1,3.88-.28,9.11-1.61,11.48-1.85s6.47.59,9.51.66S199.32,105.14,199.32,110.49Zm-17,8.78c6.14-.52,15.2-4.56,14.87-8.79s-6.65-4.7-10.23-5.16a51.27,51.27,0,0,0-11.35,0c-3.71.39-4.76,1.24-7.75,1.44s-8.77-1-13.82-.55c-1.87.16-8.61,1.66-8.48,6.54s7.69,5.61,13.23,5.81c6.78,1.1,9.72.58,13.36.71S176.24,119.8,182.36,119.27Z"/><path class="cls-6" d="M192.08,137.23c1.51,3.7,4.65,13.21-1.79,15.26-8,2.57-30.36,2-35.77,1.62s-4.11-3.17-4.25-6.68a24.35,24.35,0,0,1,1.18-8.24,1.74,1.74,0,0,1,2-1.19c13,2.16,25.25,1.69,36.56-1.78A1.72,1.72,0,0,1,192.08,137.23Z"/><path class="cls-5" d="M154.08,106.21c5-.41,10.82.74,13.82.55s4-1.05,7.75-1.44a51.27,51.27,0,0,1,11.35,0c3.58.46,9.9.92,10.23,5.16s-8.73,8.27-14.87,8.79-6.51.14-10.17,0-6.58.39-13.36-.71c-5.54-.2-13.1-.91-13.23-5.81S152.21,106.37,154.08,106.21Z"/><path class="cls-5" d="M144.34,110.66c.75-3.11,3.08-6.1,9.07-6.69,7.79-.77,10,1.23,12.81,1,3.88-.28,9.11-1.61,11.48-1.85s6.47.59,9.51.66,12.11,1.32,12.11,6.67-5.17,8.55-9.39,9.57-3.57,2.3-10.79,2-9.13-1.09-12.2-.83-9.25-.51-13.33-.89-9.59-3.07-9.59-6.9a11.59,11.59,0,0,1,.32-2.76"/><path class="cls-5" d="M143.17,126.8c.27.22,1.52,1.43.85,3.94-.74,2.79-6.21,16.71-2.72,31.78,0,0,.92,5.4,27.92,4.35,11.91,0,18.1-1.66,21.87-3s6.17-4.81,11.39-7.87l.31-.19a4.87,4.87,0,0,0,2.2-5.08c-.69-3.54-1.88-9-3.09-11.88-1.87-4.44-3.28-6.79-3.47-13.36a13.23,13.23,0,0,0,1.31-3.14l-.42-11.84"/><path class="cls-5" d="M144.34,110.66h0c-.14.17-1.59,2-1.13,6.78a45.88,45.88,0,0,1-.09,9.32"/><path class="cls-5" d="M143.12,126.76l0,0c.47.29,4.5,2.62,10.66,1,7.4-.33,8.74,4.68,19,4.35s14.92-2.92,18-4.74c3.83,1,7.51-1.92,7.51-1.92"/><path class="cls-5" d="M153.42,138c13,2.16,25.25,1.69,36.56-1.78a1.72,1.72,0,0,1,2.1,1c1.51,3.7,4.65,13.21-1.79,15.26-8,2.57-30.36,2-35.77,1.62s-4.11-3.17-4.25-6.68a24.35,24.35,0,0,1,1.18-8.24A1.74,1.74,0,0,1,153.42,138Z"/><path class="cls-3" d="M160.56,115.12c2,.7,2,2.48,1.7,2.7s-1.22-.16-1.93-1-1.31-1.36-2.23-1.24C158.1,115.55,158.59,114.43,160.56,115.12Z"/><path class="cls-3" d="M159.91,116.91c.72.86,1.31,1.35,2.23,1.24,0,0-.48,1.12-2.45.43s-2-2.47-1.72-2.69S159.19,116,159.91,116.91Z"/><path class="cls-1" d="M162,118.13a3,3,0,0,1-1.9-1.18c-.7-.84-1.2-1.25-2-1.16l-.44.06.18-.4c0-.06.6-1.33,2.77-.56a2.8,2.8,0,0,1,2,2.19,1.05,1.05,0,0,1-.23,1A.65.65,0,0,1,162,118.13Zm-3.35-2.82a3.13,3.13,0,0,1,1.84,1.33c.71.86,1.48,1.06,1.6,1a1.21,1.21,0,0,0,0-.72,2.4,2.4,0,0,0-1.62-1.54A2.17,2.17,0,0,0,158.68,115.31Z"/><path class="cls-1" d="M160.85,119.05a3.87,3.87,0,0,1-1.25-.23,2.78,2.78,0,0,1-2-2.19,1.05,1.05,0,0,1,.22-.95c.47-.34,1.52.15,2.28,1.07s1.21,1.25,2,1.15l.44-.06-.18.4A1.56,1.56,0,0,1,160.85,119.05Zm-2.65-3a.13.13,0,0,0-.08,0,1.12,1.12,0,0,0,0,.72,2.37,2.37,0,0,0,1.62,1.53,2.16,2.16,0,0,0,1.79,0,3.15,3.15,0,0,1-1.84-1.32A2.52,2.52,0,0,0,158.2,116.07Z"/><path class="cls-3" d="M175.44,117.68s.06,1.23-2,1.49-2.91-1.32-2.73-1.66,1.16-.4,2.19.06S174.66,118.2,175.44,117.68Z"/><path class="cls-3" d="M172.68,115.68c2.07-.25,2.9,1.32,2.72,1.66s-1.17.4-2.19-.06-1.77-.64-2.55-.13C170.66,117.15,170.6,115.93,172.68,115.68Z"/><path class="cls-1" d="M174.62,117.86a3.7,3.7,0,0,1-1.51-.35c-1-.44-1.64-.59-2.31-.15l-.37.24,0-.43c0-.06,0-1.46,2.24-1.74a2.79,2.79,0,0,1,2.76,1.08,1.05,1.05,0,0,1,.21.95A1.08,1.08,0,0,1,174.62,117.86Zm-3-1.27a4.22,4.22,0,0,1,1.66.46c1,.46,1.8.31,1.87.18a1.07,1.07,0,0,0-.34-.63,2.4,2.4,0,0,0-2.13-.67,2.18,2.18,0,0,0-1.63.75A1.84,1.84,0,0,1,171.65,116.59Z"/><path class="cls-1" d="M173,119.44a2.72,2.72,0,0,1-2.29-1.09,1.05,1.05,0,0,1-.21-.95c.27-.52,1.42-.54,2.51-.06s1.64.59,2.31.14l.37-.25,0,.44c0,.06.05,1.46-2.23,1.74A2.69,2.69,0,0,1,173,119.44Zm-1.49-2c-.33,0-.54.08-.57.14a1.07,1.07,0,0,0,.35.63,2.37,2.37,0,0,0,2.13.66,2.18,2.18,0,0,0,1.62-.76,3.07,3.07,0,0,1-2.23-.37A3.43,3.43,0,0,0,171.49,117.49Z"/><path class="cls-3" d="M169.56,115.41c.34.13,1.12.83.62,2.55-.56,2-2.18,2.15-2.55,1.86-.14-.1-.19-.35,0-.79s.51-.44.66-.74.12-.62.3-1,.55-.63.74-1S169.35,115.52,169.56,115.41Z"/><path class="cls-3" d="M169,115c.14.1.19.35,0,.79s-.51.44-.66.74-.12.62-.3,1-.55.63-.74,1,0,.82-.25.93c-.34-.13-1.13-.84-.63-2.55C167,114.88,168.63,114.75,169,115Z"/><path class="cls-1" d="M167.09,119.72l-.1,0c-.41-.15-1.34-1-.79-2.85a2.77,2.77,0,0,1,1.73-2,1.39,1.39,0,0,1,1.22.06h0c.18.14.35.44.11,1.08a1.18,1.18,0,0,1-.48.57.74.74,0,0,0-.2.19,1.89,1.89,0,0,0-.11.38,2.61,2.61,0,0,1-.18.59,2.35,2.35,0,0,1-.42.56,2.47,2.47,0,0,0-.33.43,1.12,1.12,0,0,0-.08.42c0,.23,0,.48-.27.61Zm1.46-4.55a1.39,1.39,0,0,0-.46.08,2.31,2.31,0,0,0-1.41,1.72c-.35,1.21,0,1.85.28,2.11V119a1.45,1.45,0,0,1,.14-.61,3.07,3.07,0,0,1,.4-.53,2.22,2.22,0,0,0,.34-.45A1.68,1.68,0,0,0,168,117a2.07,2.07,0,0,1,.16-.5.9.9,0,0,1,.35-.37.7.7,0,0,0,.3-.35c.13-.34.09-.48.06-.51A.58.58,0,0,0,168.55,115.17Z"/><path class="cls-1" d="M168.08,120.19a1,1,0,0,1-.6-.17h0c-.18-.14-.35-.44-.11-1.08a1.27,1.27,0,0,1,.48-.58c.1-.07.16-.11.19-.18a1.49,1.49,0,0,0,.12-.39,2.23,2.23,0,0,1,.18-.58,2.61,2.61,0,0,1,.41-.56,1.77,1.77,0,0,0,.33-.43,1,1,0,0,0,.09-.43c0-.22,0-.48.27-.6l.1,0,.1,0c.41.15,1.34,1,.78,2.86a2.77,2.77,0,0,1-1.72,2A2,2,0,0,1,168.08,120.19Zm-.3-.57a1,1,0,0,0,.76,0,2.3,2.3,0,0,0,1.4-1.72c.36-1.21,0-1.85-.27-2.11v0a1.49,1.49,0,0,1-.14.62,3.07,3.07,0,0,1-.4.53,1.9,1.9,0,0,0-.34.45,1.59,1.59,0,0,0-.14.47,2.07,2.07,0,0,1-.16.5.9.9,0,0,1-.35.37.66.66,0,0,0-.3.35C167.71,119.46,167.75,119.6,167.78,119.62Z"/><path class="cls-3" d="M158.24,115.61c0,2.09-1.46,2.7-1.9,2.53-.16-.06-.28-.28-.25-.75s.36-.57.41-.9-.06-.63,0-1,.35-.76.42-1.16-.2-.78,0-1C157.25,113.38,158.21,113.82,158.24,115.61Z"/><path class="cls-3" d="M156.24,113.16c.16.07.29.28.26.76s-.36.57-.42.9.07.62,0,1-.34.77-.41,1.16.2.79,0,1c-.36,0-1.32-.46-1.35-2.25C154.29,113.6,155.8,113,156.24,113.16Z"/><path class="cls-1" d="M155.8,118.2h-.11c-.43,0-1.56-.51-1.59-2.5a2.75,2.75,0,0,1,1.05-2.47,1.41,1.41,0,0,1,1.18-.3h0c.17.07.46.29.42,1a1.14,1.14,0,0,1-.29.69.57.57,0,0,0-.13.24,1.78,1.78,0,0,0,0,.4,2.07,2.07,0,0,1,0,.61,2.16,2.16,0,0,1-.23.66,2.48,2.48,0,0,0-.19.51,1.1,1.1,0,0,0,.05.43.68.68,0,0,1-.08.66Zm.28-4.81a1.16,1.16,0,0,0-.64.25,2.25,2.25,0,0,0-.84,2c0,1.27.53,1.78.88,1.94,0,0,0,0,0,0a1.6,1.6,0,0,1-.05-.63,2.38,2.38,0,0,1,.23-.63,2.55,2.55,0,0,0,.19-.52,2,2,0,0,0,0-.49,1.88,1.88,0,0,1,0-.53.87.87,0,0,1,.23-.46.71.71,0,0,0,.18-.42c0-.37-.06-.49-.1-.5Z"/><path class="cls-1" d="M156.51,118.42a1.09,1.09,0,0,1-.26,0h0c-.21-.09-.46-.32-.41-1a1.14,1.14,0,0,1,.28-.68.48.48,0,0,0,.13-.24,1.87,1.87,0,0,0,0-.41,2.06,2.06,0,0,1,0-.61,2.78,2.78,0,0,1,.23-.65,2.48,2.48,0,0,0,.19-.51,1.07,1.07,0,0,0,0-.43.65.65,0,0,1,.08-.66l.08-.08h.11c.43,0,1.55.52,1.59,2.49a2.81,2.81,0,0,1-1.05,2.48A1.77,1.77,0,0,1,156.51,118.42Zm-.08-.51a1,1,0,0,0,.71-.24,2.29,2.29,0,0,0,.85-2c0-1.26-.53-1.78-.89-2l0,.06a1.42,1.42,0,0,1,0,.63,2.77,2.77,0,0,1-.22.63,1.74,1.74,0,0,0-.19.52,1.61,1.61,0,0,0,0,.49,2.35,2.35,0,0,1,0,.53,1.1,1.1,0,0,1-.23.46.62.62,0,0,0-.18.41C156.31,117.78,156.4,117.9,156.43,117.91Z"/><path class="cls-3" d="M166.23,114.89c.48.13.92,1.65-.18,2.8-1.43,1.56-2.61,1.13-2.83.83-.35-.45,1.37-1.5,2-2A5,5,0,0,0,166.23,114.89Z"/><path class="cls-3" d="M165.92,114.5c.35.46-1.37,1.5-2,2a4.7,4.7,0,0,0-1,1.61c-.49-.12-.93-1.65.17-2.8C164.52,113.77,165.7,114.2,165.92,114.5Z"/><path class="cls-1" d="M163,118.41l-.14,0a1,1,0,0,1-.61-.78,2.55,2.55,0,0,1,.67-2.44,3,3,0,0,1,2.31-1.2,1.21,1.21,0,0,1,.9.39.46.46,0,0,1,.09.36c-.06.44-.68.93-1.55,1.57-.22.16-.43.31-.57.43a3.28,3.28,0,0,0-.82,1.27,1.07,1.07,0,0,1-.18.33Zm2.14-4a2.58,2.58,0,0,0-1.85,1,2.05,2.05,0,0,0-.56,2,.92.92,0,0,0,.11.26,3.77,3.77,0,0,1,.93-1.4c.16-.13.37-.28.6-.45.4-.3,1.34-1,1.36-1.24a.9.9,0,0,0-.53-.18Zm.59.17h0Z"/><path class="cls-1" d="M164,119.06h-.1a1.22,1.22,0,0,1-.9-.39h0a.46.46,0,0,1-.09-.36c.06-.44.68-.93,1.55-1.57.23-.16.43-.31.57-.43a3.28,3.28,0,0,0,.82-1.27,1.07,1.07,0,0,1,.18-.33l.1-.1.14,0a1,1,0,0,1,.61.77,2.55,2.55,0,0,1-.67,2.44A3,3,0,0,1,164,119.06Zm-.6-.68a.9.9,0,0,0,.53.18,2.51,2.51,0,0,0,1.91-1,2,2,0,0,0,.56-2,.88.88,0,0,0-.11-.27,3.67,3.67,0,0,1-.93,1.39c-.16.14-.37.29-.6.46C164.38,117.44,163.44,118.13,163.42,118.38Zm0,0Z"/><path class="cls-3" d="M153,113.73c1.85,1,1.71,2.27,1.47,2.55-.36.44-1.78-1-2.43-1.46a5.11,5.11,0,0,0-1.81-.61C150.22,113.71,151.59,112.93,153,113.73Z"/><path class="cls-3" d="M152.33,116.06a4.9,4.9,0,0,0,1.81.61c0,.5-1.39,1.28-2.77.48-1.85-1-1.71-2.27-1.47-2.55C150.26,114.16,151.68,115.58,152.33,116.06Z"/><path class="cls-1" d="M154.25,116.62c-.44,0-1-.48-1.83-1.15-.21-.18-.41-.34-.56-.45a3.47,3.47,0,0,0-1.42-.5,1.09,1.09,0,0,1-.37-.09l-.12-.08v-.14a1,1,0,0,1,.62-.78,2.57,2.57,0,0,1,2.53.08,3,3,0,0,1,1.7,2,1.26,1.26,0,0,1-.16,1h0a.49.49,0,0,1-.34.17ZM150.57,114a3.76,3.76,0,0,1,1.58.57c.17.12.37.29.59.48.38.32,1.24,1.08,1.52,1a.9.9,0,0,0,.05-.56,2.52,2.52,0,0,0-1.46-1.61,2,2,0,0,0-2-.08A.92.92,0,0,0,150.57,114Z"/><path class="cls-1" d="M152.61,117.74a2.69,2.69,0,0,1-1.36-.37,3,3,0,0,1-1.71-2,1.22,1.22,0,0,1,.17-1,.45.45,0,0,1,.33-.17c.43,0,1.06.45,1.89,1.14.21.18.4.34.55.45a3.27,3.27,0,0,0,1.43.5,1.09,1.09,0,0,1,.36.09l.12.08v.14a1,1,0,0,1-.61.78A2.44,2.44,0,0,1,152.61,117.74Zm-2.52-3a.78.78,0,0,0-.05.56c.06.34.34,1,1.45,1.61a2.07,2.07,0,0,0,2,.09,1,1,0,0,0,.24-.18,3.67,3.67,0,0,1-1.58-.57c-.16-.12-.36-.29-.58-.48C151.22,115.47,150.35,114.71,150.09,114.76Z"/><path class="cls-3" d="M177.9,115.34c1.35,1.62.75,2.74.43,2.91-.5.28-1.3-1.57-1.73-2.26a4.83,4.83,0,0,0-1.45-1.22C175.34,114.3,176.91,114.09,177.9,115.34Z"/><path class="cls-3" d="M176.45,117.27a4.76,4.76,0,0,0,1.45,1.23c-.19.46-1.76.68-2.75-.57-1.35-1.63-.75-2.74-.43-2.92C175.22,114.74,176,116.59,176.45,117.27Z"/><path class="cls-1" d="M178.22,118.53l-.15,0c-.43-.13-.82-.81-1.33-1.76-.13-.25-.25-.47-.35-.62a3.38,3.38,0,0,0-1.14-1,1.22,1.22,0,0,1-.3-.22l-.09-.12.06-.13a1.06,1.06,0,0,1,.85-.5,2.56,2.56,0,0,1,2.32,1,2.94,2.94,0,0,1,.87,2.44,1.28,1.28,0,0,1-.51.85h0A.46.46,0,0,1,178.22,118.53Zm-2.66-3.79a3.77,3.77,0,0,1,1.25,1.11c.11.18.23.41.37.66.24.44.79,1.47,1,1.52a.81.81,0,0,0,.26-.5,2.53,2.53,0,0,0-.76-2,2.06,2.06,0,0,0-1.87-.83A.88.88,0,0,0,175.56,114.74Z"/><path class="cls-1" d="M177,119.11a2.6,2.6,0,0,1-2-1,3,3,0,0,1-.86-2.44,1.31,1.31,0,0,1,.51-.85h0a.5.5,0,0,1,.38,0c.43.12.82.81,1.33,1.76.13.24.25.46.35.62a3.38,3.38,0,0,0,1.14,1,1,1,0,0,1,.3.22l.09.11-.06.14a1,1,0,0,1-.85.49A1.37,1.37,0,0,1,177,119.11Zm-2.15-3.88a.85.85,0,0,0-.26.51,2.53,2.53,0,0,0,.76,2,2.08,2.08,0,0,0,1.87.83,1.26,1.26,0,0,0,.28-.07,3.71,3.71,0,0,1-1.25-1.12c-.11-.17-.23-.4-.37-.66C175.63,116.31,175.08,115.28,174.84,115.23Z"/><path class="cls-3" d="M191.38,112.77c1.35,1.63.76,2.74.43,2.92-.5.28-1.29-1.57-1.72-2.26a4.92,4.92,0,0,0-1.46-1.23C188.83,111.74,190.4,111.52,191.38,112.77Z"/><path class="cls-3" d="M189.93,114.71a4.75,4.75,0,0,0,1.46,1.23c-.2.46-1.77.68-2.76-.58-1.34-1.62-.75-2.73-.42-2.91C188.71,112.17,189.5,114,189.93,114.71Z"/><path class="cls-1" d="M191.7,116l-.14,0c-.43-.13-.83-.81-1.34-1.76-.13-.25-.24-.47-.34-.63a3.33,3.33,0,0,0-1.14-1,1,1,0,0,1-.31-.23l-.08-.11.05-.13a1,1,0,0,1,.86-.5,2.57,2.57,0,0,1,2.32,1,3,3,0,0,1,.86,2.44,1.21,1.21,0,0,1-.51.85A.46.46,0,0,1,191.7,116ZM189,112.18a3.66,3.66,0,0,1,1.26,1.11c.1.17.23.41.36.66.24.44.79,1.47,1,1.52a.81.81,0,0,0,.25-.5,2.51,2.51,0,0,0-.76-2,2.07,2.07,0,0,0-1.87-.83A1.36,1.36,0,0,0,189,112.18Z"/><path class="cls-1" d="M190.48,116.55a2.61,2.61,0,0,1-2-1,3,3,0,0,1-.86-2.44,1.21,1.21,0,0,1,.51-.85h0a.47.47,0,0,1,.37,0c.43.13.83.81,1.34,1.76.13.25.24.47.34.62a3.25,3.25,0,0,0,1.14,1,.91.91,0,0,1,.3.22l.09.12,0,.13a1,1,0,0,1-.86.5Zm-2.16-3.88a.81.81,0,0,0-.25.5,2.48,2.48,0,0,0,.76,2,2.07,2.07,0,0,0,1.87.84A1.36,1.36,0,0,0,191,116a3.77,3.77,0,0,1-1.26-1.11c-.1-.18-.23-.41-.36-.66C189.12,113.75,188.57,112.72,188.32,112.67Z"/><path class="cls-3" d="M176.56,114.71c-2-.48-2.27-2.25-2-2.5s1.23,0,2,.82,1.43,1.21,2.34,1C179,114,178.59,115.2,176.56,114.71Z"/><path class="cls-3" d="M177,112.87c-.81-.78-1.44-1.21-2.35-1,0,0,.36-1.16,2.39-.69s2.28,2.24,2,2.5S177.82,113.65,177,112.87Z"/><path class="cls-1" d="M177.48,115.08a4.27,4.27,0,0,1-1-.13,2.78,2.78,0,0,1-2.21-2,1,1,0,0,1,.13-1c.43-.38,1.52,0,2.37.83s1.34,1.12,2.12.94l.42-.1-.13.42A1.64,1.64,0,0,1,177.48,115.08Zm-2.6-2.72a.19.19,0,0,0-.13,0,1.16,1.16,0,0,0,.1.71,2.39,2.39,0,0,0,1.77,1.37,2.15,2.15,0,0,0,1.78-.14,3.15,3.15,0,0,1-2-1.13A2.67,2.67,0,0,0,174.88,112.36Z"/><path class="cls-1" d="M178.75,114a3.11,3.11,0,0,1-1.91-1c-.78-.77-1.33-1.12-2.12-.93l-.42.1.13-.42c0-.06.46-1.38,2.69-.86a2.78,2.78,0,0,1,2.22,2,1,1,0,0,1-.12,1A.72.72,0,0,1,178.75,114Zm-3.53-2.45a3.08,3.08,0,0,1,2,1.12c.8.78,1.59.9,1.7.8a1.12,1.12,0,0,0-.11-.71,2.36,2.36,0,0,0-1.77-1.35A2.18,2.18,0,0,0,175.22,111.57Z"/><path class="cls-3" d="M180.51,118.69c-2-.49-2.26-2.25-2-2.51s1.24,0,2,.82,1.44,1.22,2.35,1C182.92,118,182.55,119.17,180.51,118.69Z"/><path class="cls-3" d="M181,116.84c-.8-.78-1.44-1.21-2.35-1,0,0,.36-1.17,2.4-.69s2.27,2.24,2,2.5S181.77,117.63,181,116.84Z"/><path class="cls-1" d="M181.43,119.06a4.12,4.12,0,0,1-1-.13,2.79,2.79,0,0,1-2.22-2c-.08-.34-.1-.77.13-1,.44-.38,1.52,0,2.37.83s1.33,1.13,2.12.94l.43-.1-.14.42A1.63,1.63,0,0,1,181.43,119.06Zm-2.6-2.72a.19.19,0,0,0-.13,0,1.16,1.16,0,0,0,.1.71,2.39,2.39,0,0,0,1.77,1.36,2.19,2.19,0,0,0,1.79-.13,3.19,3.19,0,0,1-2-1.13A2.56,2.56,0,0,0,178.83,116.34Z"/><path class="cls-1" d="M182.7,118a3.09,3.09,0,0,1-1.9-1c-.79-.76-1.34-1.11-2.12-.93l-.43.1.13-.42s.45-1.38,2.69-.86a2.79,2.79,0,0,1,2.23,2c.08.33.1.76-.13,1A.65.65,0,0,1,182.7,118Zm-3.52-2.46a3.19,3.19,0,0,1,2,1.13c.8.78,1.58.9,1.69.8a1.12,1.12,0,0,0-.11-.71A2.37,2.37,0,0,0,181,115.4,2.2,2.2,0,0,0,179.18,115.54Z"/><path class="cls-3" d="M161.49,113.72s-.19-1.2,1.84-1.68,3,1,2.9,1.36-1.12.52-2.19.17S162.21,113.13,161.49,113.72Z"/><path class="cls-3" d="M164.45,115.43c-2,.46-3-1-2.88-1.37s1.11-.52,2.18-.17,1.83.45,2.55-.14C166.3,113.75,166.49,115,164.45,115.43Z"/><path class="cls-1" d="M163.69,115.77a2.67,2.67,0,0,1-2-.88,1,1,0,0,1-.32-.93c.22-.53,1.36-.68,2.5-.31s1.69.42,2.31-.09l.34-.28.07.43c0,.06.19,1.45-2,2A3.59,3.59,0,0,1,163.69,115.77ZM162.6,114c-.47,0-.77.12-.8.2a1.08,1.08,0,0,0,.41.59,2.34,2.34,0,0,0,2.18.44,2.17,2.17,0,0,0,1.54-.91,3.17,3.17,0,0,1-2.26-.14A3.27,3.27,0,0,0,162.6,114Z"/><path class="cls-1" d="M161.31,114.2l-.06-.44c0-.06-.21-1.44,2-2a2.78,2.78,0,0,1,2.86.77,1,1,0,0,1,.32.92c-.22.54-1.36.68-2.49.32s-1.69-.41-2.32.11Zm1.35-1.15a4.82,4.82,0,0,1,1.46.29c1.07.34,1.82.1,1.88,0a1.21,1.21,0,0,0-.42-.59,2.4,2.4,0,0,0-2.19-.43,2.18,2.18,0,0,0-1.53.92A2,2,0,0,1,162.66,113.05Z"/><path class="cls-3" d="M167.58,115.37c-.35-.09-1.21-.71-.89-2.47.35-2.07,1.94-2.36,2.35-2.12.14.09.22.33.1.79s-.46.49-.58.8-.06.63-.19,1-.49.68-.64,1S167.78,115.24,167.58,115.37Z"/><path class="cls-3" d="M168.17,115.68c-.14-.09-.22-.32-.1-.79s.46-.49.58-.8.06-.62.19-1,.49-.68.64-1,0-.81.15-1c.35.09,1.21.71.89,2.47C170.17,115.63,168.58,115.93,168.17,115.68Z"/><path class="cls-1" d="M168.51,116a1,1,0,0,1-.47-.11h0c-.19-.12-.39-.41-.21-1.07a1.17,1.17,0,0,1,.41-.62.56.56,0,0,0,.18-.21,2,2,0,0,0,.07-.39,2.06,2.06,0,0,1,.12-.6,2.36,2.36,0,0,1,.35-.6,2.1,2.1,0,0,0,.28-.46,1,1,0,0,0,0-.43c0-.23,0-.49.21-.63l.09-.07.11,0c.42.11,1.43.81,1.08,2.76a2.78,2.78,0,0,1-1.51,2.22A1.79,1.79,0,0,1,168.51,116Zm-.21-.54a1,1,0,0,0,.76-.1,2.29,2.29,0,0,0,1.22-1.85c.22-1.24-.19-1.84-.5-2.07v0a1.42,1.42,0,0,1-.07.63,3,3,0,0,1-.34.57,1.92,1.92,0,0,0-.29.48,2.05,2.05,0,0,0-.1.48,1.65,1.65,0,0,1-.1.52.93.93,0,0,1-.31.4.7.7,0,0,0-.26.38C168.22,115.29,168.27,115.45,168.3,115.47Z"/><path class="cls-1" d="M167.63,115.64l-.11,0c-.42-.1-1.43-.8-1.08-2.76a2.78,2.78,0,0,1,1.51-2.22,1.43,1.43,0,0,1,1.22-.06h0c.19.12.39.4.21,1.06a1.13,1.13,0,0,1-.41.62.56.56,0,0,0-.18.21,2.26,2.26,0,0,0-.07.39,2.61,2.61,0,0,1-.12.61,2.49,2.49,0,0,1-.35.59,2.67,2.67,0,0,0-.29.46,1.57,1.57,0,0,0,0,.44.65.65,0,0,1-.2.63Zm1.08-4.68a1.38,1.38,0,0,0-.56.13,2.29,2.29,0,0,0-1.21,1.85c-.23,1.24.17,1.84.49,2.08a.13.13,0,0,0,0-.06,1.61,1.61,0,0,1,.08-.63,2.53,2.53,0,0,1,.34-.57,1.76,1.76,0,0,0,.29-.48,1.57,1.57,0,0,0,.09-.48,2.11,2.11,0,0,1,.11-.52,1,1,0,0,1,.31-.4.7.7,0,0,0,.26-.38c.09-.36,0-.49,0-.51A.41.41,0,0,0,168.71,111Z"/><path class="cls-3" d="M167.82,115c-.36-.09-1.21-.72-.9-2.48.35-2.06,2-2.36,2.35-2.11.15.09.23.32.11.78s-.47.49-.58.81-.06.62-.2,1-.49.68-.63,1S168,114.83,167.82,115Z"/><path class="cls-3" d="M168.41,115.28c-.15-.09-.23-.33-.11-.79s.47-.49.58-.8.06-.63.2-1,.49-.68.63-1.06,0-.81.15-.94c.36.09,1.21.71.9,2.47C170.41,115.23,168.81,115.52,168.41,115.28Z"/><path class="cls-1" d="M168.74,115.6a.83.83,0,0,1-.46-.11h0c-.2-.12-.39-.4-.22-1.06a1.14,1.14,0,0,1,.42-.62.71.71,0,0,0,.17-.21,1.59,1.59,0,0,0,.07-.39,2.61,2.61,0,0,1,.12-.61,2.45,2.45,0,0,1,.36-.6,2,2,0,0,0,.28-.46,1.19,1.19,0,0,0,0-.43.66.66,0,0,1,.21-.63l.09-.06.11,0c.41.1,1.42.8,1.07,2.75a2.74,2.74,0,0,1-1.5,2.22A1.87,1.87,0,0,1,168.74,115.6Zm-.2-.53a1.05,1.05,0,0,0,.75-.1,2.29,2.29,0,0,0,1.22-1.85c.22-1.24-.18-1.85-.49-2.08v.06a1.63,1.63,0,0,1-.08.63,2.53,2.53,0,0,1-.34.57,2.22,2.22,0,0,0-.29.47,2.11,2.11,0,0,0-.09.49,2.42,2.42,0,0,1-.1.51,1.05,1.05,0,0,1-.31.41.75.75,0,0,0-.27.37C168.46,114.89,168.5,115,168.54,115.07Z"/><path class="cls-1" d="M167.87,115.23l-.11,0c-.42-.11-1.43-.81-1.08-2.76a2.76,2.76,0,0,1,1.5-2.22,1.4,1.4,0,0,1,1.22-.07h0c.2.12.39.4.22,1.07a1.23,1.23,0,0,1-.41.62.53.53,0,0,0-.18.2,1.59,1.59,0,0,0-.07.4,1.92,1.92,0,0,1-.48,1.2,2.58,2.58,0,0,0-.28.46,1.21,1.21,0,0,0,0,.43c0,.23,0,.48-.2.63Zm1.07-4.68a1.38,1.38,0,0,0-.55.14,2.27,2.27,0,0,0-1.22,1.85c-.22,1.24.18,1.84.49,2.07v0a1.61,1.61,0,0,1,.08-.63,2.33,2.33,0,0,1,.34-.57,2.27,2.27,0,0,0,.29-.48,2,2,0,0,0,.09-.48,2.51,2.51,0,0,1,.1-.52,1.05,1.05,0,0,1,.31-.41.71.71,0,0,0,.27-.37c.08-.33,0-.49,0-.51A.4.4,0,0,0,168.94,110.55Z"/><path class="cls-3" d="M178.82,114c-.28-2.08,1.16-2.84,1.62-2.72.16,0,.31.24.33.72s-.3.61-.32.94.13.61.11,1-.27.8-.3,1.2.29.76.14.94C180,116.1,179,115.76,178.82,114Z"/><path class="cls-3" d="M181.06,116.21c-.17,0-.32-.25-.33-.72s.29-.61.31-.94-.13-.62-.11-1,.27-.8.3-1.2-.28-.76-.13-1c.36,0,1.36.32,1.58,2.1C183,115.57,181.51,116.32,181.06,116.21Z"/><path class="cls-1" d="M181.16,116.47l-.16,0h0c-.18,0-.49-.24-.51-1a1.12,1.12,0,0,1,.21-.72.54.54,0,0,0,.1-.25,1.94,1.94,0,0,0,0-.4,2.18,2.18,0,0,1-.07-.61,2.71,2.71,0,0,1,.17-.68,2.2,2.2,0,0,0,.13-.52,1.1,1.1,0,0,0-.09-.42.69.69,0,0,1,0-.67l.07-.08h.11c.44,0,1.6.35,1.84,2.32a2.75,2.75,0,0,1-.78,2.57A1.62,1.62,0,0,1,181.16,116.47Zm0-.51a1,1,0,0,0,.69-.31,2.29,2.29,0,0,0,.62-2.13c-.15-1.25-.72-1.71-1.08-1.84a.14.14,0,0,0,0,.06,1.64,1.64,0,0,1,.11.62,2.73,2.73,0,0,1-.16.64,2.12,2.12,0,0,0-.14.55,1.54,1.54,0,0,0,.06.48,2.27,2.27,0,0,1,0,.53,1,1,0,0,1-.18.48.67.67,0,0,0-.13.43C181,115.85,181.09,116,181.12,116Z"/><path class="cls-1" d="M180.38,116.33c-.46,0-1.58-.4-1.81-2.31a2.76,2.76,0,0,1,.79-2.57,1.4,1.4,0,0,1,1.14-.42h0c.18,0,.49.23.52,1a1.22,1.22,0,0,1-.21.71.58.58,0,0,0-.11.25,1.53,1.53,0,0,0,.05.41,2.64,2.64,0,0,1,.06.6,2.59,2.59,0,0,1-.16.68,2.89,2.89,0,0,0-.14.52,1.11,1.11,0,0,0,.09.43.63.63,0,0,1,0,.66l-.07.09h-.14Zm0-4.82a1.12,1.12,0,0,0-.64.31,2.25,2.25,0,0,0-.62,2.13c.15,1.25.71,1.71,1.08,1.84a.17.17,0,0,1,0-.05,1.49,1.49,0,0,1-.11-.62,2.29,2.29,0,0,1,.16-.65,2.62,2.62,0,0,0,.13-.54,1.94,1.94,0,0,0-.05-.49,2.15,2.15,0,0,1-.06-.53,1.1,1.1,0,0,1,.18-.48.67.67,0,0,0,.14-.43c0-.37-.11-.48-.15-.49Z"/><path class="cls-3" d="M184.05,116.19c-.27-2.08,1.17-2.84,1.62-2.72.17,0,.32.24.33.72s-.29.6-.31.94.13.61.1,1-.26.79-.29,1.19.28.77.13,1C185.27,118.3,184.27,118,184.05,116.19Z"/><path class="cls-3" d="M186.29,118.41c-.16,0-.31-.25-.33-.73s.3-.6.32-.93-.13-.62-.11-1,.26-.79.29-1.19-.28-.76-.13-1c.36,0,1.36.32,1.58,2.1C188.19,117.77,186.75,118.52,186.29,118.41Z"/><path class="cls-1" d="M186.4,118.67l-.17,0h0c-.22-.06-.49-.27-.52-1a1.25,1.25,0,0,1,.21-.71.73.73,0,0,0,.11-.25,2,2,0,0,0-.05-.4,2.74,2.74,0,0,1-.06-.61,2.59,2.59,0,0,1,.16-.68,2.2,2.2,0,0,0,.13-.52,1.3,1.3,0,0,0-.08-.42.65.65,0,0,1,0-.67l.07-.08h.11c.4,0,1.6.34,1.84,2.32a2.78,2.78,0,0,1-.79,2.57A1.62,1.62,0,0,1,186.4,118.67Zm0-.51a1,1,0,0,0,.68-.31,2.27,2.27,0,0,0,.62-2.13c-.15-1.25-.71-1.71-1.08-1.84,0,0,0,0,0,.06a1.46,1.46,0,0,1,.11.62,2.31,2.31,0,0,1-.16.64,2.55,2.55,0,0,0-.13.55,1.91,1.91,0,0,0,.05.48,1.84,1.84,0,0,1,.05.53.94.94,0,0,1-.17.48.67.67,0,0,0-.14.43C186.22,118.05,186.32,118.16,186.36,118.16Z"/><path class="cls-1" d="M185.61,118.53c-.45,0-1.57-.4-1.81-2.31a2.76,2.76,0,0,1,.79-2.57,1.35,1.35,0,0,1,1.14-.42h0c.23,0,.5.27.52,1a1.09,1.09,0,0,1-.21.71.54.54,0,0,0-.1.25,1.87,1.87,0,0,0,0,.4,2,2,0,0,1,.06.61,2.12,2.12,0,0,1-.16.67,2.4,2.4,0,0,0-.13.53,1.14,1.14,0,0,0,.09.43.67.67,0,0,1,0,.66l-.07.09h-.15Zm0-4.82a1.17,1.17,0,0,0-.65.31,2.3,2.3,0,0,0-.62,2.13c.15,1.25.71,1.71,1.08,1.84a.08.08,0,0,0,0,0,1.67,1.67,0,0,1-.11-.62,2.89,2.89,0,0,1,.16-.66,1.64,1.64,0,0,0,.13-.53,1.94,1.94,0,0,0,0-.49,2.17,2.17,0,0,1-.05-.53,1,1,0,0,1,.18-.48.67.67,0,0,0,.13-.43c0-.37-.11-.48-.14-.49Z"/><path class="cls-3" d="M171,115.54c-.5-.08-1.09-1.55-.12-2.81,1.25-1.7,2.48-1.39,2.73-1.12.39.42-1.21,1.64-1.77,2.22A4.68,4.68,0,0,0,171,115.54Z"/><path class="cls-3" d="M171.29,115.89c-.39-.41,1.21-1.63,1.77-2.22a4.68,4.68,0,0,0,.84-1.71c.5.08,1.09,1.55.12,2.81C172.77,116.47,171.54,116.17,171.29,115.89Z"/><path class="cls-1" d="M172,116.36a1.15,1.15,0,0,1-.85-.3.44.44,0,0,1-.13-.35c0-.44.58-1,1.38-1.72.2-.18.39-.35.52-.49a3.19,3.19,0,0,0,.68-1.34,1.08,1.08,0,0,1,.15-.35l.09-.11.14,0a1,1,0,0,1,.69.7,2.56,2.56,0,0,1-.42,2.5,3,3,0,0,1-2.16,1.43Zm-.48-.63a.78.78,0,0,0,.54.12,2.45,2.45,0,0,0,1.79-1.23,2.07,2.07,0,0,0,.36-2,1.92,1.92,0,0,0-.14-.26,3.83,3.83,0,0,1-.78,1.49c-.14.15-.34.33-.55.52C172.33,114.7,171.47,115.48,171.48,115.73Zm0,0Z"/><path class="cls-1" d="M171.05,115.81l-.14,0a1,1,0,0,1-.69-.71,2.58,2.58,0,0,1,.41-2.5,3,3,0,0,1,2.17-1.43,1.24,1.24,0,0,1,.94.29h0a.47.47,0,0,1,.13.35c0,.45-.59,1-1.38,1.73a6.56,6.56,0,0,0-.52.49,3.35,3.35,0,0,0-.69,1.34,1.09,1.09,0,0,1-.14.35Zm1.85-4.16h-.07a2.51,2.51,0,0,0-1.8,1.23,2.1,2.1,0,0,0-.35,2,1.72,1.72,0,0,0,.14.25,4,4,0,0,1,.78-1.49c.14-.14.34-.32.55-.51.37-.34,1.23-1.13,1.22-1.38A.84.84,0,0,0,172.9,111.65Z"/><path class="cls-3" d="M184.25,115.3c-1.95-.81-1.94-2.07-1.73-2.38.31-.48,1.87.79,2.57,1.2a4.83,4.83,0,0,0,1.86.41C187,115,185.71,116,184.25,115.3Z"/><path class="cls-3" d="M184.64,112.92a4.88,4.88,0,0,0-1.86-.42c0-.5,1.25-1.42,2.7-.77,2,.82,1.94,2.08,1.73,2.39C186.9,114.59,185.34,113.32,184.64,112.92Z"/><path class="cls-1" d="M185.27,115.78a2.82,2.82,0,0,1-1.12-.25,3,3,0,0,1-1.9-1.76,1.26,1.26,0,0,1,.06-1h0a.49.49,0,0,1,.31-.21c.45-.08,1.11.34,2,.94.23.16.44.3.6.39a3.38,3.38,0,0,0,1.47.35,1.09,1.09,0,0,1,.37,0l.13.07v.14a1,1,0,0,1-.53.84A2.45,2.45,0,0,1,185.27,115.78Zm-2.55-2.72a.85.85,0,0,0,0,.56c.1.33.44,1,1.62,1.45a2.06,2.06,0,0,0,2-.13,1.58,1.58,0,0,0,.22-.19,3.78,3.78,0,0,1-1.63-.41c-.17-.1-.39-.25-.63-.41C183.93,113.65,183,113,182.72,113.06Z"/><path class="cls-1" d="M187,114.47a4.49,4.49,0,0,1-1.88-1c-.23-.15-.43-.29-.6-.39a3.19,3.19,0,0,0-1.47-.34,1.09,1.09,0,0,1-.37-.06l-.13-.06v-.15a1,1,0,0,1,.53-.83,2.57,2.57,0,0,1,2.52-.19,3,3,0,0,1,1.9,1.77,1.22,1.22,0,0,1-.06,1h0a.47.47,0,0,1-.31.2Zm-3.86-2.18a3.75,3.75,0,0,1,1.63.41c.18.1.39.25.63.41.42.28,1.38.94,1.62.86a.78.78,0,0,0,0-.56c-.1-.33-.44-1-1.62-1.45a2.09,2.09,0,0,0-2,.13A1.11,1.11,0,0,0,183.13,112.29Z"/><path class="cls-3" d="M158.17,114.78c-1.51-1.48-1-2.65-.73-2.86.47-.33,1.45,1.43,1.95,2.07a5.17,5.17,0,0,0,1.57,1.07C160.82,115.54,159.28,115.92,158.17,114.78Z"/><path class="cls-3" d="M159.41,112.7a4.79,4.79,0,0,0-1.57-1.07c.14-.48,1.68-.86,2.79.28,1.51,1.48,1,2.65.73,2.86C160.89,115.09,159.91,113.34,159.41,112.7Z"/><path class="cls-1" d="M159.88,115.77A2.62,2.62,0,0,1,158,115a2.94,2.94,0,0,1-1.11-2.34,1.22,1.22,0,0,1,.42-.89h0a.45.45,0,0,1,.36-.08c.44.08.91.72,1.52,1.61a6.07,6.07,0,0,0,.41.58,3.29,3.29,0,0,0,1.23.86,1.28,1.28,0,0,1,.33.2l.09.1,0,.14a1,1,0,0,1-.79.58A2.2,2.2,0,0,1,159.88,115.77Zm-2.3-3.64a.8.8,0,0,0-.2.52,2.51,2.51,0,0,0,1,1.95,2,2,0,0,0,1.94.63,1.3,1.3,0,0,0,.27-.1,3.9,3.9,0,0,1-1.36-1c-.13-.16-.28-.38-.44-.62C158.48,113.12,157.83,112.15,157.58,112.13Z"/><path class="cls-1" d="M161.23,115.06h-.09c-.44-.08-.91-.72-1.51-1.61-.16-.23-.3-.44-.41-.58A3.32,3.32,0,0,0,158,112a.89.89,0,0,1-.32-.19l-.1-.1,0-.14a1,1,0,0,1,.79-.58,2.55,2.55,0,0,1,2.42.76,2.92,2.92,0,0,1,1.11,2.34,1.18,1.18,0,0,1-.42.89h0A.44.44,0,0,1,161.23,115.06Zm-3-3.5a3.81,3.81,0,0,1,1.36,1c.13.16.28.38.44.61.28.42.94,1.38,1.19,1.41a.86.86,0,0,0,.2-.53,2.55,2.55,0,0,0-1-1.94,2.07,2.07,0,0,0-2-.63A1.18,1.18,0,0,0,158.24,111.56Z"/><path class="cls-3" d="M147.24,150.3c1.23.45,4,3,2.25,9.13-2,7.22-7.8,7.67-9.14,6.66-.49-.38-.68-1.25-.08-2.85s1.83-1.57,2.36-2.64.44-2.2,1.07-3.48,2-2.25,2.65-3.51S146.5,150.7,147.24,150.3Z"/><path class="cls-3" d="M146.35,172.18c4.83,5.82,2.7,9.79,1.53,10.43-1.78,1-4.62-5.62-6.16-8.08-1.91-2.86-4.86-3.92-5.2-4.4C137.22,168.48,142.83,167.7,146.35,172.18Z"/><path class="cls-3" d="M145.25,149c.49.38.69,1.25.08,2.84s-1.82,1.57-2.36,2.64-.44,2.21-1.07,3.49-2,2.24-2.65,3.51-.14,2.91-.9,3.31c-1.21-.45-4-3-2.25-9.12C138.12,148.4,143.92,147.94,145.25,149Z"/><path class="cls-3" d="M141.16,179.09c1.91,2.86,4.85,3.93,5.2,4.4-.7,1.66-6.31,2.43-9.84-2.05-4.82-5.81-2.69-9.79-1.52-10.43C136.78,170,139.62,176.64,141.16,179.09Z"/><path class="cls-3" d="M134.57,187.26s.23,4.37-7.19,5.3-10.43-4.7-9.78-5.91,4.16-1.43,7.83.19S131.78,189.11,134.57,187.26Z"/><path class="cls-3" d="M124.68,180.09c7.41-.9,10.4,4.74,9.75,5.95s-4.17,1.42-7.83-.22-6.34-2.3-9.13-.46C117.47,185.36,117.26,181,124.68,180.09Z"/><path class="cls-3" d="M127.11,143.54c7,2.48,7.23,8.86,6.11,9.66s-4.37-.58-6.94-3.68-4.65-4.87-8-4.46C118.31,145.06,120.06,141.06,127.11,143.54Z"/><path class="cls-3" d="M124.79,149.92c2.58,3.09,4.68,4.86,8,4.43,0,0-1.74,4-8.79,1.56s-7.26-8.83-6.15-9.64S122.23,146.83,124.79,149.92Z"/><path class="cls-3" d="M131.24,162.78c1.74.45,3.3,5.9-.64,10-5.09,5.59-9.33,4-10.12,3-1.23-1.63,4.93-5.37,7.14-7.24C130.18,166.25,130.83,163.19,131.24,162.78Z"/><path class="cls-3" d="M130.16,161.39c1.23,1.63-4.93,5.36-7.14,7.23-2.56,2.29-3.2,5.36-3.62,5.77-1.74-.46-3.3-5.91.64-10C125.13,158.78,129.37,160.32,130.16,161.39Z"/><path class="cls-3" d="M112.92,152.28c6.63,3.62,6.12,8.11,5.28,9.13-1.3,1.57-6.38-3.52-8.72-5.24-2.83-1.95-6-1.86-6.46-2.16C103.06,152.21,108,149.42,112.92,152.28Z"/><path class="cls-3" d="M110.65,160.62c2.83,1.95,6,1.86,6.46,2.16,0,1.8-5,4.6-9.9,1.74-6.63-3.63-6.13-8.12-5.28-9.14C103.23,153.81,108.31,158.91,110.65,160.62Z"/><path class="cls-3" d="M114.34,176c.2,7.51-5.2,9.65-6.78,9.07-.58-.22-1-1-.91-2.69s1.28-2.05,1.47-3.23-.22-2.23,0-3.63,1.24-2.74,1.5-4.15-.72-2.82-.12-3.42C110.8,168,114.23,169.59,114.34,176Z"/><path class="cls-3" d="M107.2,167.24c.58.22,1,1,.91,2.69s-1.28,2-1.47,3.23.22,2.23,0,3.63-1.24,2.75-1.5,4.15.72,2.82.12,3.42c-1.3-.06-4.73-1.66-4.84-8.05C100.22,168.8,105.62,166.66,107.2,167.24Z"/><path class="cls-5" d="M118.31,145.06s1.75-4,8.8-1.52,7.23,8.86,6.11,9.66-4.37-.58-6.94-3.68S121.63,144.65,118.31,145.06Z"/><path class="cls-5" d="M132.79,154.35s-1.74,4-8.79,1.56-7.26-8.83-6.15-9.64,4.38.56,6.94,3.65S129.47,154.78,132.79,154.35Z"/><path class="cls-5" d="M117.47,185.36s-.21-4.37,7.21-5.27,10.4,4.74,9.75,5.95-4.17,1.42-7.83-.22S120.26,183.52,117.47,185.36Z"/><path class="cls-5" d="M134.57,187.26s.23,4.37-7.19,5.3-10.43-4.7-9.78-5.91,4.16-1.43,7.83.19S131.78,189.11,134.57,187.26Z"/><path class="cls-5" d="M145.25,149c-1.33-1-7.13-.56-9.15,6.67-1.78,6.14,1,8.67,2.25,9.12.76-.4.24-2.05.9-3.31s2-2.24,2.65-3.51.54-2.42,1.07-3.49,1.76-1,2.36-2.64S145.74,149.34,145.25,149Z"/><path class="cls-5" d="M140.35,166.09c1.34,1,7.13.56,9.14-6.66,1.79-6.15-1-8.68-2.25-9.13-.74.4-.23,2-.89,3.31s-2,2.23-2.65,3.51-.54,2.42-1.07,3.48-1.75,1.05-2.36,2.64S139.86,165.71,140.35,166.09Z"/><path class="cls-5" d="M107.2,167.24c-1.58-.58-7,1.56-6.78,9.07.11,6.39,3.54,8,4.84,8.05.6-.6-.38-2-.12-3.42s1.28-2.74,1.5-4.15-.2-2.46,0-3.63,1.37-1.52,1.47-3.23S107.78,167.46,107.2,167.24Z"/><path class="cls-5" d="M107.56,185.05c1.58.58,7-1.56,6.78-9.07-.11-6.39-3.54-8-4.84-8-.6.6.38,2,.12,3.42s-1.27,2.74-1.5,4.15.2,2.46,0,3.63-1.37,1.53-1.47,3.23S107,184.83,107.56,185.05Z"/><path class="cls-5" d="M130.16,161.39c-.79-1.07-5-2.61-10.12,3-3.94,4.12-2.38,9.57-.64,10,.42-.41,1.06-3.48,3.62-5.77C125.23,166.75,131.39,163,130.16,161.39Z"/><path class="cls-5" d="M120.48,175.78c.79,1.06,5,2.61,10.12-3,3.94-4.12,2.38-9.57.64-10-.41.41-1.06,3.47-3.62,5.76C125.41,170.41,119.25,174.15,120.48,175.78Z"/><path class="cls-5" d="M118.2,161.41c.84-1,1.35-5.51-5.28-9.13-4.93-2.86-9.86-.07-9.9,1.73.5.3,3.63.21,6.46,2.16C111.82,157.89,116.9,163,118.2,161.41Z"/><path class="cls-5" d="M101.93,155.38c-.85,1-1.35,5.51,5.28,9.14,4.93,2.86,9.86.06,9.9-1.74-.5-.3-3.63-.21-6.46-2.16C108.31,158.91,103.23,153.81,101.93,155.38Z"/><path class="cls-5" d="M147.88,182.61c1.17-.64,3.3-4.61-1.53-10.43-3.52-4.48-9.13-3.7-9.83-2.05.34.48,3.29,1.54,5.2,4.4C143.26,177,146.1,183.6,147.88,182.61Z"/><path class="cls-5" d="M135,171c-1.17.64-3.3,4.62,1.52,10.43,3.53,4.48,9.14,3.71,9.84,2.05-.35-.47-3.29-1.54-5.2-4.4C139.62,176.64,136.78,170,135,171Z"/></svg>