<svg id="Layer_1" data-name="Layer 1" xmlns="http://www.w3.org/2000/svg" viewBox="0 0 256 256"><defs><style>.cls-1{fill:#0e4e91;}.cls-2{fill:#abe7ff;}.cls-3{fill:#fff;}.cls-4{fill:#caf5fe;}.cls-5{fill:#2db5ff;}.cls-6{fill:none;stroke:#2f3a5a;stroke-linecap:round;stroke-linejoin:round;}</style></defs><path class="cls-1" d="M201.77,82.11l-1,.6c-1.06-1.72-2.19-3.43-3.36-5.06l.93-.67C199.54,78.64,200.69,80.36,201.77,82.11Zm2.31,4c1,1.8,1.92,3.65,2.76,5.5l-1,.48c-.85-1.83-1.75-3.65-2.73-5.42Zm-8.51-12.8-.9.72c-1.26-1.57-2.59-3.12-4-4.6l.84-.78C192.94,70.14,194.29,71.71,195.57,73.3Zm-7.23-8-.81.82c-1.44-1.4-2.95-2.78-4.49-4.08l.74-.87C185.34,62.51,186.87,63.9,188.34,65.33Zm-8.16-7-.69.91c-1.6-1.21-3.27-2.39-5-3.49l.62-1C176.86,55.88,178.56,57.08,180.18,58.31Zm-9-6-.57,1c-1.75-1-3.55-2-5.36-2.86l.5-1C167.63,50.36,169.45,51.34,171.22,52.36Zm43.56,75c0,2-.05,4.12-.18,6.16l-1.14-.07c.13-2,.19-4.06.18-6.08ZM161.59,47.54l-.44,1.05c-1.87-.79-3.77-1.52-5.67-2.18l.36-1.08C157.78,46,159.71,46.74,161.59,47.54Zm52.6,90.62c-.24,2-.55,4.07-.94,6.08l-1.12-.21c.37-2,.68-4,.92-6ZM151.45,44l-.31,1.11c-1.94-.56-3.92-1.05-5.9-1.47l.24-1.12C147.48,42.88,149.49,43.39,151.45,44Zm60.83,104.81c-.48,2-1,4-1.67,5.92l-1.09-.35c.61-1.93,1.17-3.9,1.64-5.85ZM140.94,41.61l-.18,1.13c-2-.32-4-.56-6-.74l.1-1.15C136.86,41,138.92,41.29,140.94,41.61ZM209.09,159c-.72,1.91-1.52,3.82-2.38,5.67l-1-.48c.84-1.83,1.63-3.72,2.34-5.6ZM130.21,40.59l0,1.15c-2-.07-4.06-.06-6.08,0l0-1.15C126.1,40.52,128.17,40.52,130.21,40.59Zm74.46,128.26c-.95,1.81-2,3.6-3.06,5.34l-1-.61c1.07-1.71,2.08-3.48,3-5.26Zm-85.22-128,.1,1.14c-2,.17-4,.43-6,.76l-.18-1.13C115.35,41.32,117.41,41.07,119.45,40.89Zm56.73,159.67c-1.51,1-3.08,2-4.64,2.91l-.59.34-.57-1,.58-.34c1.55-.9,3.09-1.87,4.58-2.88ZM166.37,205l.52,1c-1.82.93-3.69,1.8-5.58,2.59l-.45-1.06C162.73,206.77,164.57,205.9,166.37,205ZM71.15,62.45c-1.54,1.32-3,2.7-4.47,4.11l-.81-.81c1.45-1.43,3-2.83,4.54-4.17Zm85.47,146.76.39,1.08c-1.92.7-3.89,1.33-5.86,1.89l-.31-1.1C152.78,210.53,154.73,209.9,156.62,209.21ZM63.52,69.84c-1.36,1.48-2.68,3-3.93,4.62l-.9-.71c1.27-1.6,2.61-3.18,4-4.69Zm82.92,142.37.25,1.12c-2,.46-4,.85-6.05,1.15l-.18-1.13C142.46,213,144.47,212.66,146.44,212.21ZM56.87,78.11c-1.17,1.64-2.28,3.35-3.33,5.07l-1-.59c1-1.75,2.19-3.47,3.36-5.15Zm79.06,135.81.12,1.14c-2,.21-4.11.34-6.16.4l0-1.15C131.89,214.25,133.93,214.12,135.93,213.92ZM51.28,87.13c-1,1.78-1.86,3.61-2.68,5.45l-1-.47c.83-1.87,1.75-3.73,2.71-5.52Zm74,127.19,0,1.14c-2-.05-4.12-.17-6.15-.36l.12-1.15C121.25,214.15,123.29,214.27,125.31,214.32ZM46.84,96.78c-.72,1.88-1.4,3.8-2,5.73l-1.1-.34c.6-2,1.28-3.91,2-5.81ZM114.71,213.4l-.17,1.14c-2-.3-4.05-.68-6.05-1.12l.24-1.12C110.71,212.74,112.72,213.11,114.71,213.4ZM43.62,106.9c-.49,1.95-.92,3.95-1.27,5.94l-1.14-.2c.36-2,.8-4,1.3-6Zm32.21,90.43-.69.92c-1.64-1.22-3.25-2.51-4.8-3.84l.74-.87C72.62,194.85,74.21,196.13,75.83,197.33ZM43.57,149c.49,1.95,1.07,3.91,1.69,5.83l-1.09.35c-.64-1.94-1.21-3.93-1.71-5.91Zm24.14,41.45-.79.83c-1.47-1.41-2.92-2.89-4.3-4.4l.85-.77C64.83,187.62,66.26,189.09,67.71,190.48ZM46.8,159.15c.72,1.88,1.54,3.76,2.4,5.58l-1,.49c-.88-1.85-1.69-3.75-2.43-5.65Zm13.7,23.53-.89.73c-1.29-1.59-2.54-3.24-3.72-4.9l.94-.67C58,179.49,59.23,181.12,60.5,182.68ZM51.24,168.8c1,1.78,2,3.54,3.06,5.25l-1,.61c-1.08-1.72-2.13-3.52-3.1-5.32Z"/><circle class="cls-2" cx="126.62" cy="127.71" r="67.27"/><path class="cls-3" d="M173,171.26a3.8,3.8,0,0,0-.94,1.54l-2.83-2.57,2.6-2.76,2.85,2.75a3.84,3.84,0,0,0-1.6,1Z"/><path class="cls-4" d="M172.08,172.8a3.8,3.8,0,0,1,.94-1.54l.08-.08a3.86,3.86,0,0,1,5.39-.06l3.32,3.17a3.85,3.85,0,0,1,.13,5.45,3.8,3.8,0,0,1-2.79,1.19,3.86,3.86,0,0,1-2.6-1l-3.4-3.1A3.83,3.83,0,0,1,172.08,172.8Z"/><path class="cls-5" d="M173.77,160.88a3.22,3.22,0,0,1,.07,4.48l-2,2.11-2.6,2.76-1.72,1.84a3.22,3.22,0,0,1-4.56.14l-.67-.63-5.51-5.18,5.51-5.33,5.94-5.77Z"/><path class="cls-3" d="M187.71,142.2v42.7H162.3V171.58l.67.63a3.22,3.22,0,0,0,4.56-.14l1.72-1.84,2.83,2.57a3.83,3.83,0,0,0,1.07,4l3.4,3.1a3.86,3.86,0,0,0,2.6,1,3.8,3.8,0,0,0,2.79-1.19,3.85,3.85,0,0,0-.13-5.45l-3.32-3.17a3.83,3.83,0,0,0-3.79-.9l-2.85-2.75,2-2.11a3.22,3.22,0,0,0-.07-4.48l-5.53-5.58-5.94,5.77V142.2Z"/><polygon class="cls-3" points="162.3 171.58 162.3 184.9 136.89 184.9 136.89 142.19 162.3 142.19 162.3 161.06 156.79 166.4 162.3 171.58"/><polyline class="cls-6" points="162.3 184.9 136.89 184.9 136.89 142.19 162.3 142.19"/><polyline class="cls-6" points="162.3 161.06 162.3 142.19 187.71 142.19 187.71 184.9 162.3 184.9 162.3 171.58"/><path class="cls-6" d="M162.3,171.58l-5.51-5.18,5.51-5.33,5.94-5.77,5.53,5.58a3.22,3.22,0,0,1,.07,4.48l-2,2.11-2.6,2.76-1.72,1.84a3.22,3.22,0,0,1-4.56.14Z"/><line class="cls-6" x1="172.08" y1="172.8" x2="169.25" y2="170.23"/><polyline class="cls-6" points="171.85 167.47 174.7 170.22 174.71 170.23"/><path class="cls-6" d="M172.08,172.8a3.8,3.8,0,0,1,.94-1.54l.08-.08a3.86,3.86,0,0,1,5.39-.06l3.32,3.17a3.85,3.85,0,0,1,.13,5.45,3.8,3.8,0,0,1-2.79,1.19,3.86,3.86,0,0,1-2.6-1l-3.4-3.1A3.83,3.83,0,0,1,172.08,172.8Z"/><path class="cls-3" d="M97.1,91.62a35.16,35.16,0,0,0,7.3-5.24c.43-.39.86-.79,1.32-1.16a52.21,52.21,0,0,1,8.43-5.6l.09-.05c10-5.28,17.14-4.4,17.14-4.4h0v41.7H79.86V95.75A34.93,34.93,0,0,0,97,91.67h0Zm30.2-7.75a1.3,1.3,0,1,0-1.3,1.29A1.3,1.3,0,0,0,127.3,83.87Zm0,13.55a1.3,1.3,0,1,0-1.3,1.3A1.3,1.3,0,0,0,127.3,97.42Zm0,13.54a1.3,1.3,0,1,0-1.3,1.3A1.3,1.3,0,0,0,127.3,111Zm-13.8,0a1.29,1.29,0,1,0-1.29,1.3A1.29,1.29,0,0,0,113.5,111Zm-13.82,0a1.29,1.29,0,1,0-1.29,1.3A1.29,1.29,0,0,0,99.68,111Zm-13.16,0a1.3,1.3,0,1,0-1.29,1.3A1.29,1.29,0,0,0,86.52,111Z"/><path class="cls-5" d="M131.38,64.66V75.17h0s-7.15-.88-17.14,4.4V64.66Z"/><path class="cls-3" d="M126,82.57a1.3,1.3,0,1,1-1.29,1.3A1.3,1.3,0,0,1,126,82.57Z"/><path class="cls-3" d="M126,96.13a1.3,1.3,0,1,1-1.29,1.29A1.3,1.3,0,0,1,126,96.13Z"/><path class="cls-3" d="M126,109.67a1.3,1.3,0,1,1-1.29,1.29A1.3,1.3,0,0,1,126,109.67Z"/><path class="cls-5" d="M114.15,64.66v15a52.21,52.21,0,0,0-8.43,5.6c-.46.37-.89.77-1.32,1.16a35.16,35.16,0,0,1-7.3,5.24v-27Z"/><path class="cls-3" d="M112.21,109.67a1.3,1.3,0,1,1-1.29,1.29A1.29,1.29,0,0,1,112.21,109.67Z"/><path class="cls-3" d="M98.39,109.67A1.3,1.3,0,1,1,97.1,111,1.29,1.29,0,0,1,98.39,109.67Z"/><path class="cls-5" d="M97,91.67h0a34.93,34.93,0,0,1-17.15,4.08V64.66H97Z"/><path class="cls-3" d="M85.23,109.67a1.3,1.3,0,1,1-1.3,1.29A1.29,1.29,0,0,1,85.23,109.67Z"/><polyline class="cls-6" points="97.01 64.66 79.86 64.66 79.86 95.75 79.86 116.87 97.01 116.87"/><polyline class="cls-6" points="97.09 91.62 97.09 91.62 97.09 64.66"/><line class="cls-6" x1="114.24" y1="64.66" x2="114.24" y2="79.57"/><polyline class="cls-6" points="97.01 91.67 97.01 64.66 97.09 64.66 114.15 64.66"/><polyline class="cls-6" points="114.15 116.87 97.09 116.87 97.01 116.87"/><polyline class="cls-6" points="114.15 116.87 114.23 116.87 131.38 116.87 131.38 75.17 131.38 64.66 114.23 64.66 114.15 64.66 114.15 79.61"/><path class="cls-6" d="M79.86,95.75A34.93,34.93,0,0,0,97,91.67h0l.09,0a35.16,35.16,0,0,0,7.3-5.24c.43-.39.86-.79,1.32-1.16a52.21,52.21,0,0,1,8.43-5.6l.09-.05c10-5.28,17.14-4.4,17.14-4.4"/><path class="cls-6" d="M86.52,111a1.3,1.3,0,1,1-1.29-1.29A1.3,1.3,0,0,1,86.52,111Z"/><path class="cls-6" d="M99.68,111a1.29,1.29,0,1,1-1.29-1.29A1.3,1.3,0,0,1,99.68,111Z"/><path class="cls-6" d="M113.5,111a1.29,1.29,0,1,1-1.29-1.29A1.29,1.29,0,0,1,113.5,111Z"/><path class="cls-6" d="M127.3,111a1.3,1.3,0,1,1-1.3-1.29A1.3,1.3,0,0,1,127.3,111Z"/><path class="cls-6" d="M127.3,97.42a1.3,1.3,0,1,1-1.3-1.29A1.3,1.3,0,0,1,127.3,97.42Z"/><path class="cls-6" d="M127.3,83.87a1.3,1.3,0,1,1-1.3-1.3A1.3,1.3,0,0,1,127.3,83.87Z"/><path class="cls-3" d="M199.88,111.88l-5,5a2.71,2.71,0,0,1,0-3.82l.4-.4.76-.77a2.73,2.73,0,0,1,3.84,0Z"/><path class="cls-5" d="M193.36,101a2.22,2.22,0,0,1,0,3.13L190,107.42l-3.31,3.31a2.21,2.21,0,0,1-3.12,0l-.69-.68-6-6L175.83,103l9.75-9.76Z"/><path class="cls-3" d="M181.39,89l4.19,4.18L175.83,103h0l-22.59-22.6L163,70.6l3.79,3.78-.45.45a4,4,0,0,0,0,5.58l9.05,9a4,4,0,0,0,5.58,0Z"/><path class="cls-5" d="M176.94,104.07l6,6c-1.16,1.59-7.26,11.5-10,15.93a2,2,0,0,1-3.08.37l-.74-.74c-.87-.88-2.63-2.09.5-7.35a51,51,0,0,1,4.1-8.88C175.44,106.34,176.94,104.07,176.94,104.07Z"/><path class="cls-5" d="M166.77,74.38,181.39,89l-.44.44a4,4,0,0,1-5.58,0l-9.05-9a4,4,0,0,1,0-5.58Z"/><path class="cls-5" d="M164.32,108.08l12.62-4s-1.5,2.27-3.22,5.31c-3.05.65-11.42,1.62-11.42.73S164.32,108.08,164.32,108.08Z"/><path class="cls-5" d="M163,70.6l-9.75,9.76-2-2a2.2,2.2,0,0,1,0-3.13l1.89-1.88,3.07-3.07,1.67-1.67a2.2,2.2,0,0,1,3.13,0Z"/><path class="cls-6" d="M175.83,103l1.11,1.11,6,6,.69.68a2.21,2.21,0,0,0,3.12,0l3.31-3.31,3.32-3.31a2.22,2.22,0,0,0,0-3.13l-7.78-7.78L181.39,89"/><path class="cls-6" d="M166.77,74.38,163,70.6,161,68.65a2.2,2.2,0,0,0-3.13,0l-1.67,1.67-3.07,3.07-1.89,1.88a2.2,2.2,0,0,0,0,3.13l2,2L175.82,103"/><path class="cls-6" d="M166.77,74.38l-.45.45a4,4,0,0,0,0,5.58l9.05,9a4,4,0,0,0,5.58,0l.44-.44"/><polyline class="cls-6" points="185.58 93.2 175.83 102.96 175.82 102.96"/><line class="cls-6" x1="153.23" y1="80.36" x2="162.98" y2="70.6"/><polyline class="cls-6" points="156.22 70.31 140.41 56.7 139.38 57.73 153.16 73.39"/><line class="cls-6" x1="190.04" y1="107.42" x2="195.28" y2="112.65"/><path class="cls-6" d="M194.88,116.87l5-5a2.73,2.73,0,0,0-3.84,0l-.76.77-.4.4A2.71,2.71,0,0,0,194.88,116.87Z"/><path class="cls-6" d="M182.92,110.05c-1.16,1.59-7.26,11.5-10,15.93a2,2,0,0,1-3.08.37l-.74-.74c-.87-.88-2.63-2.09.5-7.35a51,51,0,0,1,4.1-8.88c1.72-3,3.22-5.31,3.22-5.31l-12.62,4s-2,1-2,2,8.37-.08,11.42-.73"/><line class="cls-6" x1="167.9" y1="88.71" x2="170.39" y2="91.2"/><line class="cls-6" x1="171.81" y1="92.63" x2="172.42" y2="93.22"/><line class="cls-6" x1="173.65" y1="94.47" x2="177.5" y2="98.31"/><polygon class="cls-5" points="120.35 145.93 120.35 152.31 94.93 177.08 94.93 171.74 120.35 145.93"/><path class="cls-3" d="M120.35,145.93,94.93,171.74H86.19l6.14-6.05,20-19.76Z"/><path class="cls-3" d="M111.69,128.3c7.86,6.72,3,15.33,3,15.33l-2.34,2.3-20,19.76a31.78,31.78,0,0,0,.68-3.27,9.29,9.29,0,0,0,.06-1.3,13.36,13.36,0,0,0-13.36-13.36,13.05,13.05,0,0,0-8.37,3L95.75,126.7A13.69,13.69,0,0,1,111.69,128.3Z"/><path class="cls-5" d="M71.37,160.94l6.45-.42c-1.25,2.71.93,5.94,5.3,5.62s6.82-7.43,1.69-11.31-11.75,0-13,3.55A11.75,11.75,0,0,0,71.37,160.94Zm14.82,10.8h8.74v5.34s-9.66.32-16.11,0c-12.35-3.6-13-13.5-12.38-17.5a14.21,14.21,0,0,1,3.22-7.15v0l1.64-1.61,0,0a13.05,13.05,0,0,1,8.37-3,13.36,13.36,0,0,1,13.36,13.36,9.29,9.29,0,0,1-.06,1.3,31.78,31.78,0,0,1-.68,3.27Z"/><path class="cls-3" d="M84.81,154.83c5.13,3.88,2.68,11-1.69,11.31s-6.55-2.91-5.3-5.62l-6.45.42a11.75,11.75,0,0,1,.49-2.56C73.06,154.83,79.67,151,84.81,154.83Z"/><path class="cls-6" d="M71.34,150.78a13.05,13.05,0,0,1,8.37-3,13.36,13.36,0,0,1,13.36,13.36,9.29,9.29,0,0,1-.06,1.3,31.78,31.78,0,0,1-.68,3.27"/><path class="cls-6" d="M69.67,152.41a13.84,13.84,0,0,1,1.64-1.61"/><line class="cls-6" x1="71.37" y1="160.94" x2="71.31" y2="160.94"/><path class="cls-6" d="M71.37,160.94a11.75,11.75,0,0,1,.49-2.56c1.2-3.55,7.81-7.43,13-3.55s2.68,11-1.69,11.31-6.55-2.91-5.3-5.62Z"/><path class="cls-6" d="M69.66,152.43a14.21,14.21,0,0,0-3.22,7.15c-.58,4,0,13.9,12.38,17.5,6.45.32,16.11,0,16.11,0v-5.34H80.22c-3.69,0-9.36-4.3-8.85-10.8"/><path class="cls-6" d="M86.19,171.74l6.14-6.05,20-19.76,2.34-2.3s4.87-8.61-3-15.33a13.69,13.69,0,0,0-15.94-1.6L71.34,150.78l0,0-1.64,1.61v0"/><polyline class="cls-6" points="112.34 145.93 120.35 145.93 120.35 152.31 94.93 177.08"/><line class="cls-6" x1="94.93" y1="171.74" x2="120.35" y2="145.93"/><line class="cls-6" x1="166.76" y1="74.38" x2="181.39" y2="89.01"/></svg>