<svg id="Layer_1" data-name="Layer 1" xmlns="http://www.w3.org/2000/svg" viewBox="0 0 256 256"><defs><style>.cls-1{fill:#0e4e91;}.cls-2{fill:#abe7ff;}.cls-3,.cls-9{fill:#fff;}.cls-4,.cls-7{fill:#2db5ff;}.cls-5,.cls-8{fill:none;stroke:#0e4e91;stroke-linecap:round;stroke-linejoin:round;}.cls-10,.cls-6{fill:#caf5fe;}.cls-10,.cls-7,.cls-8,.cls-9{fill-rule:evenodd;}</style></defs><path class="cls-1" d="M131.65,225.79l0-1.28c2.26-.07,4.55-.21,6.78-.43l.13,1.28C136.25,225.58,133.94,225.73,131.65,225.79Zm-5.16,0c-2.29-.06-4.6-.19-6.87-.41l.12-1.27c2.24.21,4.52.34,6.78.39Zm17.15-1.09-.19-1.27c2.23-.34,4.48-.77,6.67-1.26l.29,1.25C148.18,223.94,145.91,224.37,143.64,224.72Zm11.77-2.55-.35-1.23c2.17-.61,4.35-1.31,6.47-2.07l.44,1.2C159.82,220.85,157.61,221.55,155.41,222.17Zm11.37-4-.5-1.19c2.07-.87,4.14-1.83,6.15-2.85l.58,1.14C171,216.34,168.87,217.31,166.78,218.2Zm10.77-5.35-.64-1.11c2-1.13,3.89-2.33,5.76-3.59l.72,1.06C181.49,210.49,179.53,211.71,177.55,212.85Zm-97.06.23c-2-1.13-3.95-2.35-5.86-3.62l.71-1.07c1.88,1.26,3.83,2.46,5.79,3.57Zm107.1-6.86-.77-1c1.8-1.36,3.58-2.8,5.28-4.28l.84,1C191.22,203.39,189.42,204.84,187.59,206.22Zm-117.18.26c-1.83-1.36-3.64-2.81-5.37-4.3l.83-1c1.72,1.48,3.5,2.91,5.31,4.25Zm126.34-8.08-.89-.92c1.62-1.56,3.21-3.21,4.72-4.89l.95.86C200,195.15,198.39,196.82,196.75,198.4Zm-135.54.31c-1.64-1.58-3.26-3.23-4.8-4.93l1-.86c1.52,1.67,3.12,3.31,4.74,4.86Zm143.67-9.18-1-.81c1.42-1.76,2.79-3.58,4.09-5.43L209,184C207.72,185.9,206.32,187.75,204.88,189.53ZM53,189.87c-1.45-1.77-2.85-3.61-4.17-5.48l1.05-.74c1.3,1.84,2.69,3.66,4.11,5.41Zm158.84-10.15-1.09-.68c1.19-1.92,2.33-3.9,3.39-5.89l1.13.6C214.24,175.77,213.09,177.78,211.88,179.72ZM46,180.1c-1.22-1.93-2.38-3.93-3.46-5.94l1.13-.61c1.06,2,2.21,4,3.41,5.87Zm171.6-11-1.16-.55c1-2,1.84-4.15,2.64-6.26l1.2.45C219.48,164.9,218.58,167,217.61,169.12ZM31.23,134.77c-.13-2-.21-4.09-.22-6.13v-.75h1.29v.74c0,2,.09,4.05.23,6.05Zm1.2-12-1.29-.07c.13-2.28.33-4.59.61-6.86L33,116C32.75,118.27,32.55,120.54,32.43,122.8Zm191.3-12.52c-.41-2.22-.9-4.45-1.47-6.63l1.24-.32c.57,2.21,1.08,4.47,1.5,6.72ZM33.78,111l-1.26-.22c.4-2.26.88-4.52,1.44-6.73l1.25.31C34.66,106.54,34.18,108.77,33.78,111ZM220.85,98.76c-.69-2.15-1.45-4.3-2.29-6.4l1.2-.47c.84,2.12,1.62,4.31,2.31,6.48Zm-184.27.69-1.22-.38c.67-2.18,1.44-4.37,2.27-6.51l1.19.46C38,95.13,37.25,97.29,36.58,99.45Zm180-11.76c-.94-2-2-4.09-3.05-6.06l1.12-.62c1.1,2,2.14,4.07,3.1,6.14ZM40.8,88.32l-1.17-.53c.94-2.08,2-4.16,3.06-6.18l1.13.61C42.74,84.22,41.73,86.27,40.8,88.32ZM210.94,77.23c-1.19-1.91-2.46-3.81-3.78-5.64l1-.75c1.34,1.85,2.63,3.78,3.83,5.72ZM46.36,77.8l-1.1-.67c1.19-1.95,2.47-3.88,3.79-5.75l1.05.75C48.79,74,47.53,75.88,46.36,77.8ZM204.08,67.54c-1.42-1.76-2.91-3.48-4.44-5.14l.94-.87c1.55,1.68,3.07,3.43,4.5,5.21Zm-150.92.51-1-.8c1.42-1.78,2.92-3.55,4.46-5.24l1,.87C56.05,64.55,54.56,66.29,53.16,68.05Zm142.91-9.29c-1.61-1.57-3.3-3.11-5-4.56l.83-1c1.75,1.47,3.46,3,5.1,4.62ZM90.49,39.39,90,38.21c2.09-.91,4.25-1.75,6.4-2.51l.43,1.21C94.68,37.66,92.56,38.49,90.49,39.39Zm64.81-4.24c-2.17-.61-4.39-1.16-6.59-1.62l.26-1.26c2.24.47,4.48,1,6.68,1.65Zm-53.64.2-.36-1.23c2.19-.64,4.43-1.21,6.67-1.7l.27,1.26C106,34.16,103.82,34.72,101.66,35.35Zm42-2.74c-2.22-.34-4.49-.61-6.74-.8l.11-1.27c2.28.19,4.57.46,6.83.81Zm-30.45.12-.2-1.27c2.25-.36,4.55-.65,6.83-.86l.11,1.28C117.73,32.08,115.47,32.37,113.24,32.73Zm18.62-1.21c-2.26-.07-4.54-.06-6.79,0l0-1.28c2.28-.09,4.59-.1,6.88,0Z"/><circle class="cls-2" cx="128.37" cy="124.83" r="76.55"/><path class="cls-3" d="M144.76,55.79c8.11,2.05,13.67,13.49,10.73,25.14s-12.83,19.2-20.94,17.15c-5.36-1.35-10.07-6.1-11.8-12.54a21.78,21.78,0,0,1,0-11A28.43,28.43,0,0,1,133.06,59C136.87,56.21,141.1,54.87,144.76,55.79Zm4.34,25.46a10.8,10.8,0,1,0-10.8,10.8A10.79,10.79,0,0,0,149.1,81.25Z"/><path class="cls-4" d="M138.3,70.45a10.8,10.8,0,1,1-10.8,10.8A10.79,10.79,0,0,1,138.3,70.45Z"/><path class="cls-3" d="M117.18,43.26c6.93,0,13.74,6.66,15.88,15.78a28.43,28.43,0,0,0-10.29,15.5,21.78,21.78,0,0,0,0,11,11.67,11.67,0,0,1-5.11,1.22c-8.37,0-17.19-7.93-17.19-20S108.81,43.26,117.18,43.26Z"/><path class="cls-5" d="M133.06,59a28.43,28.43,0,0,0-10.29,15.5,21.78,21.78,0,0,0,0,11,11.67,11.67,0,0,1-5.11,1.22c-8.37,0-17.19-7.93-17.19-20s8.36-23.55,16.73-23.55C124.11,43.26,130.92,49.92,133.06,59Z"/><path class="cls-5" d="M133.06,59c3.81-2.83,8-4.17,11.7-3.25,8.11,2.05,13.67,13.49,10.73,25.14s-12.83,19.2-20.94,17.15c-5.36-1.35-10.07-6.1-11.8-12.54"/><path class="cls-5" d="M149.1,81.25a10.8,10.8,0,1,1-10.8-10.8A10.8,10.8,0,0,1,149.1,81.25Z"/><path class="cls-3" d="M106.34,133.7v4.23a3.49,3.49,0,0,1-3.49,3.5H92.19a3.5,3.5,0,0,1-3.51-3.5v-4.55q4,5.28,8.63.32C100.25,136.73,103.25,137.09,106.34,133.7Z"/><path class="cls-3" d="M106.34,107.22V133.7c-3.09,3.39-6.09,3-9,0q-4.65,5-8.63-.32V107.22Z"/><path class="cls-3" d="M79.92,102.94a12,12,0,0,1,1.49,5.86l0,5a50,50,0,0,1-25.28,0l0-4.22a10.22,10.22,0,0,1,1.36-5c2.81-4.94,4.93-9.91,5.44-16H74.71C75.11,93,77.24,98.07,79.92,102.94Z"/><path class="cls-6" d="M81.37,113.85l-.12,13.74a67.74,67.74,0,0,1-25.27,0l.11-13.69A50,50,0,0,0,81.37,113.85Z"/><path class="cls-3" d="M81.25,127.59l-.07,9a3.44,3.44,0,0,1-1.67,2.94c-5.12,3-15.71,2-21.44-.21a3.45,3.45,0,0,1-2.16-3.24l.07-8.53A67.74,67.74,0,0,0,81.25,127.59Z"/><path class="cls-3" d="M73.46,83a1.34,1.34,0,0,1,1.33,1.49l-.43,4.12H63.52l-.34-4.16A1.35,1.35,0,0,1,64.52,83Z"/><path class="cls-5" d="M56.09,113.88l0-4.22a10.22,10.22,0,0,1,1.36-5c2.81-4.94,4.93-9.91,5.44-16H74.71c.4,4.39,2.53,9.43,5.21,14.3a12,12,0,0,1,1.49,5.86l0,5-.12,13.74-.07,9a3.44,3.44,0,0,1-1.67,2.94c-5.12,3-15.71,2-21.44-.21a3.45,3.45,0,0,1-2.16-3.24l.07-8.53Z"/><path class="cls-5" d="M63.52,88.64l-.34-4.16A1.35,1.35,0,0,1,64.52,83h8.94a1.34,1.34,0,0,1,1.33,1.49l-.43,4.12"/><path class="cls-5" d="M55.91,113.84l.18,0a50,50,0,0,0,25.28,0h0"/><path class="cls-5" d="M55.91,127.56H56a67.74,67.74,0,0,0,25.27,0,.76.76,0,0,0,.16,0"/><path class="cls-5" d="M106.34,133.7v4.23a3.49,3.49,0,0,1-3.49,3.5H92.19a3.5,3.5,0,0,1-3.51-3.5V107.22h17.66Z"/><path class="cls-5" d="M88.68,133.38q4,5.28,8.63.32c2.94,3,5.94,3.39,9,0"/><path class="cls-3" d="M141.29,172.92v26.76H111.2V198a3.35,3.35,0,0,0-6.69,0v1.68H84.44V172.92h56.85ZM134.61,188a5,5,0,1,0-5,5A5,5,0,0,0,134.61,188Zm-16.73-6.69a5,5,0,1,0-5,5A5,5,0,0,0,117.88,181.28Zm-16.71,5a5,5,0,1,0-5,5A5,5,0,0,0,101.17,186.3Z"/><path class="cls-3" d="M125.43,154l15.86,18.94H85.82L109.5,161.6l.79,1.28a3.37,3.37,0,0,0,6-2.89l-.51-1.43Z"/><circle class="cls-4" cx="129.59" cy="187.97" r="5.02"/><circle class="cls-4" cx="112.87" cy="181.28" r="5.02"/><path class="cls-4" d="M96.15,181.28a5,5,0,1,1-5,5A5,5,0,0,1,96.15,181.28Z"/><path class="cls-5" d="M141.29,172.92,125.43,154l-9.6,4.58.51,1.43a3.37,3.37,0,0,1-6,2.89l-.79-1.28L85.82,172.92"/><path class="cls-5" d="M85.82,172.92H84.44v26.76h20.07V198a3.35,3.35,0,0,1,6.69,0v1.68h30.09V172.92Z"/><path class="cls-5" d="M96.15,191.31a5,5,0,1,1,5-5A5,5,0,0,1,96.15,191.31Z"/><circle class="cls-5" cx="112.87" cy="181.28" r="5.02"/><circle class="cls-5" cx="129.59" cy="187.97" r="5.02"/><path class="cls-7" d="M191.1,109.58H166.32v-4.73a2.36,2.36,0,0,1,2.36-2.36h20.06a2.36,2.36,0,0,1,2.36,2.36v4.73Z"/><path class="cls-8" d="M191.1,109.58H166.32v-4.73a2.36,2.36,0,0,1,2.36-2.36h20.06a2.36,2.36,0,0,1,2.36,2.36v4.73Z"/><path class="cls-9" d="M166.32,109.58H191.1l8,10c1.88,2.36,3.27,4.33,3.27,8.54H177.57c0-4.21-1.38-6.18-3.26-8.54Z"/><path class="cls-9" d="M177.57,128.17h24.79v25.4H177.57Z"/><path class="cls-9" d="M177.57,153.57h24.79v3.62a3.38,3.38,0,0,1-3.27,3.47H177.57Z"/><path class="cls-8" d="M166.32,109.58H191.1l8,10c1.88,2.36,3.27,4.33,3.27,8.54H177.57c0-4.21-1.38-6.18-3.26-8.54Z"/><path class="cls-8" d="M177.57,128.17h24.79v25.4H177.57Z"/><path class="cls-8" d="M177.57,153.57h24.79v3.62a3.38,3.38,0,0,1-3.27,3.47H177.57Z"/><path class="cls-10" d="M177.57,153.57v7.09H158.33a3.38,3.38,0,0,1-3.27-3.47v-3.62Z"/><path class="cls-10" d="M155.06,128.17h22.51v25.4H155.06Z"/><path class="cls-10" d="M177.57,128.17H155.06c0-4.21,1.39-6.18,3.27-8.54l8-10,8,10c1.88,2.36,3.26,4.33,3.26,8.54Z"/><path class="cls-8" d="M177.57,153.57v7.09H158.33a3.38,3.38,0,0,1-3.27-3.47v-3.62Z"/><path class="cls-8" d="M155.06,128.17h22.51v25.4H155.06Z"/><path class="cls-8" d="M177.57,128.17H155.06c0-4.21,1.39-6.18,3.27-8.54l8-10,8,10c1.88,2.36,3.26,4.33,3.26,8.54Z"/><path class="cls-4" d="M184.94,143.49a.65.65,0,0,1-.61-.44v0l-.64-2.19-.39,2.16a.55.55,0,0,1-1.08-.19l.73-4a.64.64,0,0,1,1.24-.09v0l.75,2.53.72-2.52v0a.64.64,0,0,1,.65-.44.63.63,0,0,1,.59.51l.77,4.05a.54.54,0,0,1-1.07.2l-.42-2.17-.62,2.19h0a.64.64,0,0,1-.6.45Z"/><path class="cls-4" d="M193.22,143.49a2.2,2.2,0,0,1-.52,0,.54.54,0,0,1-.46-.53v-4.15a.55.55,0,0,1,.55-.54.54.54,0,0,1,.54.54v3.61h.91a.55.55,0,1,1,0,1.09Z"/><path class="cls-4" d="M199.83,142.55,198,140.78l1.67-1.54a.53.53,0,0,0,0-.76.54.54,0,0,0-.77,0l-1.32,1.21v-.86a.55.55,0,0,0-.55-.54.54.54,0,0,0-.54.54v4.15a.55.55,0,0,0,.54.55.55.55,0,0,0,.55-.55v-1l1.45,1.4a.59.59,0,0,0,.38.16.56.56,0,0,0,.4-.17A.55.55,0,0,0,199.83,142.55Z"/><path class="cls-4" d="M190,143.49a.55.55,0,0,1-.55-.55v-4.15a.55.55,0,0,1,.55-.54.54.54,0,0,1,.54.54v4.15A.55.55,0,0,1,190,143.49Z"/><path class="cls-4" d="M184.94,143.49a.65.65,0,0,1-.61-.44v0l-.64-2.19-.39,2.16a.55.55,0,0,1-1.08-.19l.73-4a.64.64,0,0,1,1.24-.09v0l.75,2.53.72-2.52v0a.64.64,0,0,1,.65-.44.63.63,0,0,1,.59.51l.77,4.05a.54.54,0,0,1-1.07.2l-.42-2.17-.62,2.19h0a.64.64,0,0,1-.6.45Z"/><path class="cls-4" d="M193.22,143.49a2.2,2.2,0,0,1-.52,0,.54.54,0,0,1-.46-.53v-4.15a.55.55,0,0,1,.55-.54.54.54,0,0,1,.54.54v3.61h.91a.55.55,0,1,1,0,1.09Z"/><path class="cls-4" d="M199.83,142.55,198,140.78l1.67-1.54a.53.53,0,0,0,0-.76.54.54,0,0,0-.77,0l-1.32,1.21v-.86a.55.55,0,0,0-.55-.54.54.54,0,0,0-.54.54v4.15a.55.55,0,0,0,.54.55.55.55,0,0,0,.55-.55v-1l1.45,1.4a.59.59,0,0,0,.38.16.56.56,0,0,0,.4-.17A.55.55,0,0,0,199.83,142.55Z"/><path class="cls-4" d="M190,143.49a.55.55,0,0,1-.55-.55v-4.15a.55.55,0,0,1,.55-.54.54.54,0,0,1,.54.54v4.15A.55.55,0,0,1,190,143.49Z"/></svg>