<svg id="Layer_1" data-name="Layer 1" xmlns="http://www.w3.org/2000/svg" viewBox="0 0 256 256"><defs><style>.cls-1{fill:#0e4e91;}.cls-2{fill:#abe7ff;}.cls-3{fill:#fff;}.cls-4{fill:#2db5ff;}.cls-5,.cls-7{fill:none;stroke:#0e4e91;}.cls-5{stroke-linecap:round;stroke-linejoin:round;}.cls-6{fill:#caf5fe;}.cls-7{stroke-miterlimit:10;}</style></defs><path class="cls-1" d="M53.42,125.75l1.13.09c-.15,2-.24,4-.25,6H53.16C53.18,129.85,53.26,127.79,53.42,125.75Zm.47-4.58c.26-2,.6-4.06,1-6l1.12.23c-.39,2-.72,4-1,6Zm-.64,15.31,1.15,0c.09,2,.26,4,.49,6l-1.14.13C53.51,140.57,53.35,138.52,53.25,136.48Zm1.15,10.67,1.13-.19c.34,2,.76,4,1.24,5.92l-1.12.27C55.17,151.18,54.74,149.16,54.4,147.15Zm2.46,10.44,1.09-.33c.59,1.91,1.24,3.84,2,5.72l-1.07.41C58.12,161.49,57.45,159.53,56.86,157.59Zm3.74,10,1-.46c.81,1.84,1.7,3.67,2.64,5.45l-1,.53C62.32,171.36,61.42,169.5,60.6,167.64Zm8.88-86c1.19-1.66,2.45-3.29,3.76-4.86l.87.73c-1.28,1.54-2.53,3.16-3.7,4.79Zm-4,95.56,1-.59c1,1.73,2.14,3.44,3.29,5.08l-.93.66C67.7,180.65,66.58,178.92,65.53,177.17ZM76.27,73.29c1.38-1.5,2.83-3,4.32-4.36l.78.83c-1.47,1.38-2.9,2.82-4.26,4.3ZM71.6,186l.9-.71c1.24,1.59,2.55,3.14,3.9,4.64l-.85.77C74.17,189.2,72.85,187.61,71.6,186ZM84,65.86c1.54-1.31,3.17-2.59,4.81-3.79l.68.92c-1.62,1.2-3.23,2.46-4.75,3.75ZM78.7,194.06l.81-.81q2.14,2.15,4.43,4.14l-.75.86C81.66,196.91,80.15,195.5,78.7,194.06ZM92.62,59.44c1.71-1.11,3.47-2.18,5.25-3.17l.55,1c-1.75,1-3.49,2-5.17,3.14ZM86.75,201.17l.71-.91c1.58,1.24,3.23,2.44,4.9,3.56l-.64,1C90,203.64,88.36,202.42,86.75,201.17Zm15.19-147c1.82-.9,3.71-1.74,5.59-2.51l.43,1.06c-1.86.75-3.71,1.59-5.51,2.47ZM95.61,207.24l.58-1c1.73,1,3.51,2,5.31,2.92l-.51,1C99.16,209.29,97.36,208.29,95.61,207.24Zm47.88-162c1.81.06,3.65.19,5.45.37l.67.07-.12,1.13-.66-.07c-1.78-.18-3.59-.3-5.39-.36ZM154,47.45l.18-1.13c2,.32,4,.72,6,1.19l-.26,1.12C158,48.15,156,47.77,154,47.45Zm-6.81,170.73c2-.16,4-.39,6-.69l.18,1.13c-2,.3-4.06.53-6.1.69ZM164.33,49.76l.32-1.09c2,.56,3.92,1.2,5.83,1.91l-.4,1.07C168.2,51,166.26,50.32,164.33,49.76ZM157.66,216.7c2-.4,4-.88,5.88-1.43l.31,1.1c-2,.55-4,1-6,1.45ZM174.3,53.32l.45-1.06c1.88.81,3.74,1.68,5.55,2.63l-.52,1C178,55,176.15,54.11,174.3,53.32Zm-6.43,160.61c1.9-.64,3.8-1.36,5.66-2.13l.44,1c-1.87.79-3.8,1.51-5.73,2.17ZM183.77,58.1l.58-1c1.75,1,3.5,2.14,5.19,3.29l-.65,1C187.22,60.2,185.5,59.11,183.77,58.1Zm-6.1,151.83c1.81-.87,3.61-1.82,5.35-2.82l.56,1c-1.76,1-3.59,2-5.42,2.85ZM192.57,64l.69-.9c1.62,1.23,3.22,2.55,4.74,3.89l-.76.85C195.74,66.52,194.17,65.23,192.57,64ZM186.9,204.76c1.68-1.09,3.36-2.24,5-3.45l.68.92c-1.63,1.22-3.32,2.4-5,3.5ZM200.57,71l.8-.82c1.46,1.43,2.88,2.93,4.23,4.45l-.85.76C203.41,73.84,202,72.36,200.57,71Zm-5.14,127.53c1.54-1.29,3.06-2.64,4.51-4l.8.82c-1.47,1.42-3,2.79-4.58,4.1Zm27.06-91.77,1.09-.35c.61,1.95,1.16,3.93,1.63,5.91l-1.12.27C223.62,110.59,223.09,108.63,222.49,106.72Zm-2.32,57.84c.75-1.86,1.44-3.78,2.06-5.69l1.09.35c-.63,1.95-1.33,3.88-2.09,5.77ZM225,117l1.12-.21c.36,2,.66,4,.89,6.08l-1.14.12C225.66,121,225.37,119,225,117Zm-1.51,37.52c.51-1.94,1-3.93,1.33-5.91l1.13.22c-.38,2-.84,4-1.36,6Zm2.74-27,1.15-.07c.11,2,.15,4.1.12,6.14l-1.14,0C226.41,131.55,226.37,129.51,226.25,127.51Zm-.67,16.62c.27-2,.48-4,.61-6l1.14.08c-.13,2-.34,4.08-.62,6.1Z"/><circle class="cls-2" cx="140.73" cy="133.05" r="67.05"/><path class="cls-3" d="M109.32,121.38c.59.83.72,1.74.26,2.24a1,1,0,0,1-.7.32,2.93,2.93,0,0,1-2.19-.91c-1-1-1.38-2.22-.8-2.84a1.14,1.14,0,0,1,.39-.25,2.64,2.64,0,0,1,2.51.84A4.85,4.85,0,0,1,109.32,121.38Z"/><path class="cls-3" d="M104.54,114.94l.09.07a2,2,0,0,1,.6,2.72l0,0a2,2,0,0,1-2.74-.29,2.16,2.16,0,0,1-.75-2.53h0l.22-.27s0,0,0,0A2,2,0,0,1,104.54,114.94Z"/><path class="cls-3" d="M96.3,110.14a4.36,4.36,0,0,1,.7.48A2.62,2.62,0,0,1,98.1,113a1,1,0,0,1-.2.4c-.55.65-1.86.43-2.91-.47a3,3,0,0,1-1.15-2.07h0a1,1,0,0,1,.25-.73C94.52,109.65,95.42,109.66,96.3,110.14Z"/><path class="cls-3" d="M85.86,133.51a11.9,11.9,0,0,0,2.86,2,14.49,14.49,0,0,0,4.21,1.4c.46-.49,1.3-1.28,2.34-2.21.71,1.93.65,3.69-.35,4.81-.07.06-.12.13-.19.18-2.06,1.95-6.72.82-10.59-2.62s-5.51-7.89-3.88-10.18l.2-.25c1.1-1.23,3.11-1.43,5.37-.73-1.26,2.14-2.26,3.77-2.63,4.22A13.94,13.94,0,0,0,85.86,133.51Z"/><path class="cls-3" d="M93.09,131c-.76.72-1.43,1.37-2,1.89l-.85.92-1.57,1.69a14.49,14.49,0,0,0,4.21,1.4c.46-.49,1.3-1.28,2.34-2.21h0Z"/><path class="cls-3" d="M95.27,134.72c4.33-3.88,12.31-10.49,13.61-10.77h0a2.93,2.93,0,0,1-2.19-.91c-1-1-1.38-2.22-.8-2.84a1.14,1.14,0,0,1,.39-.25h0c-1.46.48-8.87,7-13.19,11.11Z"/><path class="cls-3" d="M85.83,125.94c-1.26,2.14-2.26,3.77-2.63,4.22a13.94,13.94,0,0,0,2.66,3.35c.69-.92,2.1-3.09,3.73-5.69Z"/><path class="cls-3" d="M89.59,127.82c3.59-5.72,8.23-13.53,8.52-14.79h0a1,1,0,0,1-.2.4c-.55.65-1.86.43-2.91-.47a3,3,0,0,1-1.15-2.07c-.12,1.09-4.86,9.68-8,15Z"/><path class="cls-4" d="M93,130.93l12.21-13.17a2,2,0,0,1-2.74-.29,2.16,2.16,0,0,1-.75-2.53L90.28,128.33Z"/><path class="cls-4" d="M90.28,128.33l-4.42,5.18a11.9,11.9,0,0,0,2.86,2l1.57-1.69.85-.92,1.85-2Z"/><path class="cls-3" d="M94.73,139.72,81.11,154.9c-7.63-3.05-12.17-7.5-14.25-13.07h0l13.4-14.91h0c-1.63,2.29,0,6.75,3.88,10.18S92.67,141.67,94.73,139.72Z"/><path class="cls-5" d="M90.28,128.33l-.69-.51"/><path class="cls-5" d="M93.09,131l-.1-.11"/><path class="cls-5" d="M85.83,125.94c-2.26-.7-4.27-.5-5.37.73l-.2.25c-1.63,2.29,0,6.75,3.88,10.18s8.53,4.57,10.59,2.62c.07-.05.12-.12.19-.18,1-1.12,1.06-2.88.35-4.81"/><polyline class="cls-5" points="66.86 141.82 80.26 126.91 80.29 126.87"/><polyline class="cls-5" points="81.11 154.9 94.73 139.72 94.93 139.5"/><path class="cls-5" d="M93.84,110.88a1,1,0,0,1,.25-.73c.43-.5,1.33-.49,2.21,0a4.36,4.36,0,0,1,.7.48A2.62,2.62,0,0,1,98.1,113a1,1,0,0,1-.2.4c-.55.65-1.86.43-2.91-.47a3,3,0,0,1-1.15-2.07"/><path class="cls-5" d="M93.84,110.88h0c-.12,1.09-4.86,9.68-8,15-1.26,2.14-2.26,3.77-2.63,4.22"/><path class="cls-5" d="M98.12,113s0,0,0,.08c-.29,1.26-4.93,9.07-8.52,14.79-1.63,2.6-3,4.77-3.73,5.69"/><path class="cls-5" d="M109.32,121.38a4.85,4.85,0,0,0-.53-.6,2.64,2.64,0,0,0-2.51-.84,1.14,1.14,0,0,0-.39.25c-.58.62-.22,1.89.8,2.84a2.93,2.93,0,0,0,2.19.91,1,1,0,0,0,.7-.32C110,123.12,109.91,122.21,109.32,121.38Z"/><path class="cls-5" d="M108.88,124c-1.3.28-9.28,6.89-13.61,10.77h0c-1,.93-1.88,1.72-2.34,2.21l-.11.11"/><path class="cls-5" d="M106.35,119.91l-.07,0c-1.46.48-8.87,7-13.19,11.11-.76.72-1.43,1.37-2,1.89"/><line class="cls-5" x1="101.73" y1="114.93" x2="101.95" y2="114.66"/><polyline class="cls-5" points="85.85 133.52 85.86 133.51 90.28 128.33 101.71 114.94"/><polyline class="cls-5" points="88.71 135.55 88.72 135.54 90.29 133.85 91.14 132.93 92.99 130.93 105.2 117.76"/><path class="cls-5" d="M104.54,114.94l.09.07a2,2,0,0,1,.6,2.72l0,0a2,2,0,0,1-2.74-.29,2.16,2.16,0,0,1-.75-2.53h0a.57.57,0,0,1,.12-.18.28.28,0,0,1,.1-.09s0,0,0,0A2,2,0,0,1,104.54,114.94Z"/><path class="cls-5" d="M95.56,111.72a13.34,13.34,0,0,0,.74-1.58,14.67,14.67,0,0,0,.82-2.82"/><path class="cls-5" d="M103.65,116.05c.29-.38.58-.75.89-1.11a23.64,23.64,0,0,1,3.74-3.4"/><path class="cls-5" d="M108.26,122c.34-.23.7-.44,1.06-.65a18.36,18.36,0,0,1,4.36-1.88"/><path class="cls-5" d="M82.31,128.45c.28.6.57,1.17.89,1.71a13.94,13.94,0,0,0,2.66,3.35,11.9,11.9,0,0,0,2.86,2,14.49,14.49,0,0,0,4.21,1.4l.75.11"/><line class="cls-5" x1="66.86" y1="141.82" x2="66.86" y2="141.83"/><path class="cls-3" d="M151.12,71V93.14H111.87V71Zm-4.76,4.48a2.09,2.09,0,1,0-2.08,2.08A2.09,2.09,0,0,0,146.36,75.46Zm-8.55,0a2.09,2.09,0,1,0-2.08,2.08A2.09,2.09,0,0,0,137.81,75.46Zm-8.55,0a2.09,2.09,0,1,0-2.08,2.08A2.09,2.09,0,0,0,129.26,75.46Zm-9.49,0a2.09,2.09,0,1,0-2.08,2.08A2.09,2.09,0,0,0,119.77,75.46Z"/><path class="cls-6" d="M144.28,73.36a2.09,2.09,0,1,1-2.1,2.1A2.09,2.09,0,0,1,144.28,73.36Z"/><path class="cls-6" d="M135.73,73.36a2.09,2.09,0,1,1-2.09,2.1A2.09,2.09,0,0,1,135.73,73.36Z"/><path class="cls-6" d="M127.18,73.36a2.09,2.09,0,1,1-2.09,2.1A2.09,2.09,0,0,1,127.18,73.36Z"/><path class="cls-6" d="M117.69,73.36a2.09,2.09,0,1,1-2.1,2.1A2.09,2.09,0,0,1,117.69,73.36Z"/><path class="cls-4" d="M154.8,69.3V95.22a1.69,1.69,0,0,1-1.69,1.7H110a1.69,1.69,0,0,1-1.7-1.7V69.3a1.69,1.69,0,0,1,1.7-1.7h43.07a1.69,1.69,0,0,1,1.69,1.7Zm-3.68,23.84V71H111.87V93.14Z"/><path class="cls-3" d="M148.94,63.9v3.7h-6.86V63.9A.85.85,0,0,1,143,63h5.12a.91.91,0,0,1,.61.25A.87.87,0,0,1,148.94,63.9Z"/><path class="cls-3" d="M121.11,63.78V67.6h-6.86V63.78A.76.76,0,0,1,115,63h5.36A.75.75,0,0,1,121.11,63.78Z"/><polygon class="cls-3" points="138.61 63.03 138.61 67.6 123.89 67.6 123.89 63.03 127.18 63.03 131.25 63.03 135.32 63.03 138.61 63.03"/><line class="cls-7" x1="123.89" y1="67.6" x2="121.11" y2="67.6"/><line class="cls-7" x1="142.08" y1="67.6" x2="138.61" y2="67.6"/><path class="cls-7" d="M114.25,67.6H110a1.69,1.69,0,0,0-1.7,1.7V95.22a1.69,1.69,0,0,0,1.7,1.7h43.07a1.69,1.69,0,0,0,1.69-1.7V69.3a1.69,1.69,0,0,0-1.69-1.7h-4.17"/><rect class="cls-7" x="111.87" y="70.98" width="39.25" height="22.16"/><path class="cls-7" d="M121.11,67.6V63.78a.75.75,0,0,0-.75-.75H115a.76.76,0,0,0-.75.75V67.6Z"/><path class="cls-7" d="M148.94,67.6V63.9a.87.87,0,0,0-.26-.62.91.91,0,0,0-.61-.25H143a.85.85,0,0,0-.87.87v3.7Z"/><path class="cls-7" d="M117.69,73.36a2.09,2.09,0,1,1-2.1,2.1A2.09,2.09,0,0,1,117.69,73.36Z"/><path class="cls-7" d="M127.18,73.36a2.09,2.09,0,1,1-2.09,2.1A2.09,2.09,0,0,1,127.18,73.36Z"/><path class="cls-7" d="M135.73,73.36a2.09,2.09,0,1,1-2.09,2.1A2.09,2.09,0,0,1,135.73,73.36Z"/><path class="cls-7" d="M144.28,73.36a2.09,2.09,0,1,1-2.1,2.1A2.09,2.09,0,0,1,144.28,73.36Z"/><polygon class="cls-7" points="123.89 67.6 123.89 63.03 127.18 63.03 131.25 63.03 135.32 63.03 138.61 63.03 138.61 67.6 123.89 67.6"/><path class="cls-7" d="M145.51,63V57.21a1.63,1.63,0,0,1,1.63-1.63h6.77"/><line class="cls-7" x1="135.32" y1="57.96" x2="135.32" y2="63.03"/><line class="cls-7" x1="131.26" y1="57.96" x2="131.26" y2="63.03"/><line class="cls-7" x1="127.18" y1="57.96" x2="127.18" y2="63.03"/><path class="cls-7" d="M109.19,55.58h6.54a2,2,0,0,1,2,2c.06,2.2.15,5.45.15,5.45"/><line class="cls-7" x1="114.25" y1="83" x2="119.77" y2="83"/><polyline class="cls-7" points="114.25 85.99 117.01 85.99 119.77 85.99"/><line class="cls-7" x1="117.01" y1="85.99" x2="117.01" y2="90.46"/><line class="cls-7" x1="126.7" y1="85.99" x2="126.7" y2="90.46"/><line class="cls-7" x1="136.2" y1="85.99" x2="136.2" y2="90.46"/><line class="cls-7" x1="145.9" y1="85.99" x2="145.9" y2="90.46"/><line class="cls-7" x1="123.75" y1="83" x2="129.26" y2="83"/><polyline class="cls-7" points="123.75 85.99 126.7 85.99 129.26 85.99"/><line class="cls-7" x1="133.64" y1="83" x2="139.16" y2="83"/><line class="cls-7" x1="143.34" y1="83" x2="148.85" y2="83"/><polyline class="cls-7" points="133.64 85.99 136.21 85.99 139.16 85.99"/><polyline class="cls-7" points="143.34 85.99 145.9 85.99 148.85 85.99"/><path class="cls-6" d="M207.2,152.26v3a1.13,1.13,0,0,1-.34.82,1.18,1.18,0,0,1-.82.35h-5.16a1.16,1.16,0,0,1-.82-.35,1.13,1.13,0,0,1-.34-.82v-3Z"/><path class="cls-4" d="M215.09,138.17v12.58a1.51,1.51,0,0,1-1.51,1.51H193a1.5,1.5,0,0,1-1.51-1.51V138.17a1.51,1.51,0,0,1,1.51-1.51h20.63A1.52,1.52,0,0,1,215.09,138.17Z"/><path class="cls-3" d="M211.66,126.85v9.81H207.2v-9.81a2.23,2.23,0,0,1,2.22-2.22h0A2.23,2.23,0,0,1,211.66,126.85Z"/><path class="cls-3" d="M200,126.85v9.81h-4.46v-9.81a2.22,2.22,0,0,1,2.22-2.22h0A2.23,2.23,0,0,1,200,126.85Z"/><path class="cls-3" d="M187.93,113.9V141a2.42,2.42,0,0,1-2.4,2.41H159.22a2.42,2.42,0,0,1-2.41-2.41V113.9a2.42,2.42,0,0,1,2.41-2.42h26.31a2.4,2.4,0,0,1,1.69.71A2.37,2.37,0,0,1,187.93,113.9Zm-4.13,13a11.71,11.71,0,1,0-11.71,11.78A11.75,11.75,0,0,0,183.8,126.86Z"/><path class="cls-6" d="M172.09,115.07a11.79,11.79,0,1,1-11.7,11.79A11.75,11.75,0,0,1,172.09,115.07Zm8.12,11.79a2.23,2.23,0,1,0-2.23,2.23A2.23,2.23,0,0,0,180.21,126.86Zm-11.63,0a2.23,2.23,0,1,0-2.22,2.23A2.23,2.23,0,0,0,168.58,126.86Z"/><path class="cls-6" d="M166.36,124.63a2.23,2.23,0,1,1-2.24,2.23A2.23,2.23,0,0,1,166.36,124.63Z"/><path class="cls-6" d="M178,124.63a2.23,2.23,0,1,1-2.23,2.23A2.23,2.23,0,0,1,178,124.63Z"/><path class="cls-7" d="M187.93,113.9a2.37,2.37,0,0,0-.71-1.71,2.4,2.4,0,0,0-1.69-.71H159.22a2.42,2.42,0,0,0-2.41,2.42V141a2.42,2.42,0,0,0,2.41,2.41h26.31a2.42,2.42,0,0,0,2.4-2.41Z"/><path class="cls-7" d="M172.09,115.07a11.79,11.79,0,1,1-11.7,11.79A11.75,11.75,0,0,1,172.09,115.07Z"/><path class="cls-7" d="M166.36,124.63a2.23,2.23,0,1,1-2.24,2.23A2.23,2.23,0,0,1,166.36,124.63Z"/><path class="cls-7" d="M178,124.63a2.23,2.23,0,1,1-2.23,2.23A2.23,2.23,0,0,1,178,124.63Z"/><path class="cls-7" d="M195.58,136.66H193a1.51,1.51,0,0,0-1.51,1.51v12.58a1.5,1.5,0,0,0,1.51,1.51h6.77"/><path class="cls-7" d="M207.2,136.66H200"/><path class="cls-7" d="M207.2,152.26h6.38a1.51,1.51,0,0,0,1.51-1.51V138.17a1.52,1.52,0,0,0-1.51-1.51h-1.92"/><path class="cls-7" d="M200,136.66v-9.81a2.23,2.23,0,0,0-2.22-2.22h0a2.22,2.22,0,0,0-2.22,2.22v9.81Z"/><path class="cls-7" d="M211.66,136.66v-9.81a2.23,2.23,0,0,0-2.22-2.22h0a2.23,2.23,0,0,0-2.22,2.22v9.81Z"/><path class="cls-7" d="M207.2,152.26h-7.48v3a1.13,1.13,0,0,0,.34.82,1.16,1.16,0,0,0,.82.35H206a1.18,1.18,0,0,0,.82-.35,1.13,1.13,0,0,0,.34-.82Z"/><path class="cls-7" d="M201.55,156.41s-.12,4.3-.21,7.68a4.13,4.13,0,0,1-4.13,4H187"/><path class="cls-7" d="M205.7,156.41s-.13,4.27-.26,8.35a7.55,7.55,0,0,1-7.47,7.32l-11,.09"/><path class="cls-3" d="M131.15,144.35v23.82h-4.52V144.58a3.1,3.1,0,0,0,2.18.74A2.75,2.75,0,0,0,131.15,144.35Z"/><path class="cls-3" d="M131.15,177.9v28.19c-2.17,1-3.47.69-4.52,0V177.9Z"/><path class="cls-4" d="M148.94,144.18a32,32,0,0,1-8.83,21.42v2.57h-4.67v-4.5l.68-.69a26.89,26.89,0,0,0,8.13-18.45,3,3,0,0,0,2.22.79,2.53,2.53,0,0,0,2.43-1.14Z"/><path class="cls-4" d="M140.11,177.9v28.19c-1.32,1-2.93.73-4.67,0V177.9Z"/><path class="cls-4" d="M122.17,177.9v28.19a4.62,4.62,0,0,1-4.67,0V177.9Z"/><path class="cls-4" d="M111,145.32a2.63,2.63,0,0,0,2.39-1A26.93,26.93,0,0,0,121.49,163l.68.69v4.5H117.5V165.6a32,32,0,0,1-8.82-21.13A2.94,2.94,0,0,0,111,145.32Z"/><path class="cls-3" d="M148.9,144.18a2.53,2.53,0,0,1-2.43,1.14,3,3,0,0,1-2.22-.79c0-.18,0-.37,0-.55Z"/><path class="cls-3" d="M146.47,142.51c1.36,0,2.47.63,2.47,1.4a.84.84,0,0,1,0,.27l-4.62-.2c0,.18,0,.37,0,.55a1,1,0,0,1-.25-.62C144,143.14,145.1,142.51,146.47,142.51Z"/><rect class="cls-3" x="140.11" y="168.17" width="5.46" height="9.74"/><rect class="cls-3" x="135.44" y="168.17" width="4.67" height="9.74"/><rect class="cls-3" x="131.15" y="168.17" width="4.28" height="9.74"/><rect class="cls-3" x="126.63" y="168.17" width="4.52" height="9.74"/><path class="cls-3" d="M126.63,144h4.52v.37a2.75,2.75,0,0,1-2.34,1,3.1,3.1,0,0,1-2.18-.74Z"/><path class="cls-3" d="M128.81,142.51c1.36,0,2.47.63,2.47,1.4a.9.9,0,0,1-.13.44V144h-4.52v.6a1,1,0,0,1-.3-.67C126.33,143.14,127.44,142.51,128.81,142.51Z"/><rect class="cls-3" x="122.17" y="168.17" width="4.46" height="9.74"/><rect class="cls-3" x="117.5" y="168.17" width="4.67" height="9.74"/><rect class="cls-3" x="112.03" y="168.17" width="5.48" height="9.74"/><path class="cls-3" d="M113.35,144.27a2.63,2.63,0,0,1-2.39,1,2.94,2.94,0,0,1-2.28-.85h0c0-.1,0-.19,0-.28l4.66-.2A2.83,2.83,0,0,0,113.35,144.27Z"/><path class="cls-3" d="M111,142.51c1.36,0,2.47.63,2.47,1.4a.9.9,0,0,1-.08.36,2.83,2.83,0,0,1,0-.29l-4.66.2c0,.09,0,.18,0,.28a.89.89,0,0,1-.2-.55C108.48,143.14,109.59,142.51,111,142.51Z"/><path class="cls-7" d="M113.35,144.27A26.93,26.93,0,0,0,121.49,163l.68.69v4.5"/><path class="cls-7" d="M117.5,168.17V165.6a32,32,0,0,1-8.82-21.13"/><path class="cls-7" d="M122.17,177.9v28.19a4.62,4.62,0,0,1-4.67,0V177.9"/><path class="cls-7" d="M144.25,144.53A26.89,26.89,0,0,1,136.12,163l-.68.69v4.5"/><path class="cls-7" d="M140.11,168.17V165.6a32,32,0,0,0,8.83-21.42h0"/><path class="cls-7" d="M135.44,177.9v28.19c1.74.73,3.35,1,4.67,0V177.9"/><line class="cls-7" x1="131.15" y1="144.35" x2="131.15" y2="168.17"/><line class="cls-7" x1="126.63" y1="168.17" x2="126.63" y2="144.58"/><path class="cls-7" d="M131.15,177.9v28.19c-2.17,1-3.47.69-4.52,0V177.9"/><polygon class="cls-7" points="140.11 168.17 145.57 168.17 145.57 177.9 140.11 177.9 135.44 177.9 131.15 177.9 126.63 177.9 122.17 177.9 117.5 177.9 112.03 177.9 112.03 168.17 117.5 168.17 122.17 168.17 126.63 168.17 131.15 168.17 135.44 168.17 140.11 168.17"/><path class="cls-7" d="M108.68,144.46a.89.89,0,0,1-.2-.55c0-.77,1.11-1.4,2.48-1.4s2.47.63,2.47,1.4a.9.9,0,0,1-.08.36,2.63,2.63,0,0,1-2.39,1,2.94,2.94,0,0,1-2.28-.85Z"/><path class="cls-7" d="M126.63,144.58a1,1,0,0,1-.3-.67c0-.77,1.11-1.4,2.48-1.4s2.47.63,2.47,1.4a.9.9,0,0,1-.13.44,2.75,2.75,0,0,1-2.34,1A3.1,3.1,0,0,1,126.63,144.58Z"/><path class="cls-7" d="M144.25,144.53a1,1,0,0,1-.25-.62c0-.77,1.1-1.4,2.47-1.4s2.47.63,2.47,1.4a.84.84,0,0,1,0,.27,2.53,2.53,0,0,1-2.43,1.14A3,3,0,0,1,144.25,144.53Z"/></svg>