<svg id="Layer_1" data-name="Layer 1" xmlns="http://www.w3.org/2000/svg" viewBox="0 0 256 256"><defs><style>.cls-1{fill:#0e4e91;}.cls-2{fill:#abe7ff;}.cls-3{fill:#2db5ff;}.cls-4{fill:#fff;}.cls-5{fill:#caf5fe;}.cls-6,.cls-7{fill:none;stroke-linecap:round;stroke-linejoin:round;}.cls-6{stroke:#0e4e91;}.cls-7{stroke:#2f3a5a;}</style></defs><path class="cls-1" d="M144.21,210.29l-.17-1.11c2-.29,3.93-.65,5.85-1.07l.24,1.1C148.19,209.63,146.19,210,144.21,210.29Zm-4.49.53c-2,.2-4,.31-6,.36l0-1.13c2-.05,4-.16,5.93-.35Zm14.8-2.7-.3-1.08c1.91-.53,3.82-1.13,5.67-1.78l.38,1.05C158.39,207,156.46,207.59,154.52,208.12Zm10-3.41-.43-1.05c1.82-.75,3.65-1.58,5.41-2.46l.5,1C168.19,203.1,166.35,203.94,164.5,204.71Zm9.47-4.62-.56-1c1.71-1,3.42-2,5.06-3.11l.63.93C177.43,198,175.7,199.1,174,200.09Zm8.82-5.76-.67-.9c1.59-1.18,3.15-2.43,4.64-3.71l.74.85C186,191.87,184.39,193.14,182.79,194.33ZM98.43,204.46c-1.84-.78-3.68-1.64-5.47-2.54l.51-1c1.76.89,3.58,1.74,5.39,2.51Zm92.41-16.92-.77-.81c1.44-1.37,2.83-2.8,4.16-4.26l.83.75C193.71,184.7,192.29,186.15,190.84,187.54ZM89,199.76c-1.73-1-3.45-2.07-5.11-3.19l.62-.93c1.64,1.1,3.34,2.16,5,3.15Zm109-19.95-.87-.71c1.25-1.53,2.46-3.12,3.6-4.74l.92.65C200.5,176.65,199.26,178.26,198,179.81ZM80.19,194c-1.59-1.2-3.17-2.48-4.67-3.8l.74-.85c1.49,1.3,3,2.57,4.62,3.74Zm124-22.69-.94-.6c1.06-1.68,2.06-3.4,3-5.14l1,.53C206.26,167.81,205.24,169.56,204.17,171.26Zm-132,15.84c-1.44-1.4-2.84-2.85-4.18-4.34l.84-.75c1.32,1.46,2.71,2.9,4.13,4.27ZM209.24,162l-1-.48c.84-1.78,1.63-3.63,2.35-5.47l1.05.4C210.9,158.33,210.09,160.2,209.24,162ZM65.07,179.32c-1.26-1.55-2.47-3.18-3.62-4.81l.92-.65c1.13,1.62,2.33,3.21,3.57,4.75Zm148.07-27.11-1.06-.36c.62-1.87,1.17-3.79,1.65-5.71l1.09.27C214.34,148.35,213.77,150.3,213.14,152.21ZM47.58,141.42c-.32-1.74-.6-3.53-.82-5.29l-.08-.66,1.11-.13.08.65c.22,1.74.49,3.5.82,5.23Zm-.19-10.53-1.12.07c-.13-2-.18-4-.17-6h1.13C47.2,126.92,47.26,128.92,47.39,130.89Zm165.05-30.47c-.59-1.89-1.24-3.78-2-5.61l1-.41c.73,1.86,1.39,3.78,2,5.69ZM47.36,120.49l-1.11-.07c.12-2,.3-4,.56-6l1.11.15C47.67,116.52,47.48,118.51,47.36,120.49ZM208.75,90.7c-.8-1.79-1.69-3.59-2.63-5.32l1-.54c1,1.76,1.86,3.58,2.68,5.4ZM48.61,110.17,47.5,110c.37-2,.81-3.95,1.31-5.89l1.09.28C49.41,106.26,49,108.22,48.61,110.17ZM203.89,81.52c-1-1.68-2.13-3.35-3.27-5l.91-.65c1.16,1.62,2.27,3.31,3.32,5ZM51.14,100.06l-1.07-.34c.6-1.9,1.29-3.82,2-5.69l1,.42C52.41,96.29,51.74,98.18,51.14,100.06ZM197.94,73c-1.23-1.55-2.53-3.07-3.87-4.51l.84-.76c1.35,1.47,2.67,3,3.91,4.58ZM54.9,90.35l-1-.47c.84-1.82,1.75-3.64,2.71-5.39l1,.55C56.62,86.76,55.72,88.55,54.9,90.35ZM191,65.28c-1.41-1.38-2.88-2.73-4.38-4l.73-.86c1.52,1.29,3,2.66,4.44,4.06ZM59.82,81.17l-1-.59c1.05-1.7,2.17-3.39,3.34-5l.91.66C62,77.83,60.85,79.49,59.82,81.17Zm123.3-22.71c-1.56-1.2-3.19-2.36-4.85-3.45l.62-.94q2.52,1.66,4.91,3.5Zm-93.79-6-.56-1c1.73-1,3.51-2,5.31-2.84l.49,1C92.8,50.5,91,51.43,89.33,52.42Zm55.92-10.31c-1.94-.32-3.93-.56-5.89-.74l.1-1.12c2,.18,4,.43,6,.75ZM98.63,47.77l-.44-1c1.84-.78,3.73-1.51,5.62-2.16l.37,1.06C102.31,46.29,100.45,47,98.63,47.77Zm36.27-6.68c-2-.07-4-.07-6,0l0-1.12c2-.07,4-.07,6,0Zm-26.46,3.22-.31-1.08c1.92-.55,3.89-1,5.85-1.45l.23,1.1C112.28,43.29,110.33,43.77,108.44,44.31Zm16.07-3c-2,.17-4,.42-5.91.72l-.18-1.1c2-.31,4-.56,6-.73Z"/><circle class="cls-2" cx="132.28" cy="125.05" r="65.87"/><path class="cls-3" d="M116.41,137.64V152a1.65,1.65,0,0,1-1.65,1.65h-.83a1.65,1.65,0,0,1-1.65-1.65V128.31a1.65,1.65,0,0,1,1.65-1.65h.83a1.65,1.65,0,0,1,1.65,1.65v9.33Zm-1.11,13.42v-5.19h-1.91v5.19a.58.58,0,0,0,.58.58h.76A.58.58,0,0,0,115.3,151.06Z"/><path class="cls-4" d="M115.3,145.87v5.19a.58.58,0,0,1-.57.58H114a.58.58,0,0,1-.58-.58v-5.19Z"/><rect class="cls-4" x="111.59" y="122.58" width="2.76" height="1.13"/><path class="cls-4" d="M111.59,123.71v1.21a1.53,1.53,0,1,1-3,0v-3.3a1.52,1.52,0,0,1,2.6-1.08,1.5,1.5,0,0,1,.45,1.08v2.09Z"/><path class="cls-4" d="M101.55,160.08v4.32a2,2,0,0,1-2,2H65.43a2,2,0,0,1-2-2V137h38.09Zm-5.38-14.53a1,1,0,0,0-1-1H91.78a1,1,0,0,0,0,1.91h3.44A1,1,0,0,0,96.17,145.55Zm0,4a1,1,0,0,0-1-1H91.78a1,1,0,0,0,0,1.91h3.44A1,1,0,0,0,96.17,149.58Zm0,4a1,1,0,0,0-1-1H91.78a1,1,0,0,0,0,1.91h3.44A1,1,0,0,0,96.17,153.61Zm-.26,6.47a2.42,2.42,0,1,0-2.41,2.41A2.41,2.41,0,0,0,95.91,160.08Zm-9.48-16.55a1,1,0,0,0-1-.95H70.75a1,1,0,0,0,0,1.91H85.47A1,1,0,0,0,86.43,143.53Zm0,4a1,1,0,0,0-1-1H70.75a1,1,0,0,0,0,1.91H85.47A1,1,0,0,0,86.43,147.57Zm0,4a1,1,0,0,0-1-.95H70.75a1,1,0,0,0,0,1.9H85.47A1,1,0,0,0,86.43,151.6Zm0,4a1,1,0,0,0-1-1H70.75a1,1,0,0,0,0,1.91H85.47A1,1,0,0,0,86.43,155.63Zm0,4a1,1,0,0,0-1-.95H70.75a1,1,0,0,0,0,1.9H85.47A1,1,0,0,0,86.43,159.66Z"/><path class="cls-3" d="M101.55,127.09V137H63.46v-9.44a2.06,2.06,0,0,1,2.07-2.07h9.3v.06H90.27v-.06H100A1.59,1.59,0,0,1,101.55,127.09Zm-5.92,4.2A2.64,2.64,0,1,0,93,133.92,2.64,2.64,0,0,0,95.63,131.29Zm-10.51,0a2.64,2.64,0,1,0-2.63,2.63A2.64,2.64,0,0,0,85.12,131.29Zm-10.5,0A2.64,2.64,0,1,0,72,133.92,2.64,2.64,0,0,0,74.62,131.29Z"/><path class="cls-3" d="M98.84,166.37v1.55a1.53,1.53,0,0,1-1.52,1.53h-5a1.54,1.54,0,0,1-1.53-1.53v-1.55Z"/><path class="cls-5" d="M95.22,144.6a1,1,0,0,1,0,1.91H91.78a1,1,0,0,1,0-1.91Z"/><path class="cls-5" d="M95.22,148.63a1,1,0,0,1,0,1.91H91.78a1,1,0,0,1,0-1.91Z"/><path class="cls-5" d="M95.22,152.66a1,1,0,0,1,0,1.91H91.78a1,1,0,0,1,0-1.91Z"/><path class="cls-3" d="M93.5,157.66a2.42,2.42,0,1,1-2.42,2.42A2.41,2.41,0,0,1,93.5,157.66Z"/><path class="cls-4" d="M93,128.65a2.64,2.64,0,1,1-2.64,2.64A2.64,2.64,0,0,1,93,128.65Z"/><path class="cls-4" d="M90.27,123.72v1.78H74.83v-1.78a1.52,1.52,0,0,1,1.52-1.52h12.4A1.52,1.52,0,0,1,90.27,123.72Z"/><path class="cls-5" d="M85.47,142.58a1,1,0,1,1,0,1.91H70.75a1,1,0,0,1,0-1.91Z"/><path class="cls-5" d="M85.47,146.61a1,1,0,1,1,0,1.91H70.75a1,1,0,0,1,0-1.91Z"/><path class="cls-5" d="M85.47,150.65a1,1,0,1,1,0,1.9H70.75a.95.95,0,0,1,0-1.9Z"/><path class="cls-5" d="M85.47,154.67a1,1,0,1,1,0,1.91H70.75a1,1,0,0,1,0-1.91Z"/><path class="cls-5" d="M85.47,158.71a1,1,0,1,1,0,1.9H70.75a.95.95,0,0,1,0-1.9Z"/><circle class="cls-4" cx="82.49" cy="131.29" r="2.64"/><path class="cls-3" d="M74.27,166.37v1.55a1.54,1.54,0,0,1-1.53,1.53h-5a1.53,1.53,0,0,1-1.52-1.53v-1.55Z"/><path class="cls-4" d="M72,128.65a2.64,2.64,0,1,1-2.64,2.64A2.64,2.64,0,0,1,72,128.65Z"/><path class="cls-6" d="M74.83,125.5v.06H90.27v-1.84a1.52,1.52,0,0,0-1.52-1.52H76.35a1.52,1.52,0,0,0-1.52,1.52Z"/><path class="cls-6" d="M66.26,166.37v1.55a1.53,1.53,0,0,0,1.52,1.53h5a1.54,1.54,0,0,0,1.53-1.53v-1.55"/><path class="cls-6" d="M90.83,166.37v1.55a1.54,1.54,0,0,0,1.53,1.53h5a1.53,1.53,0,0,0,1.52-1.53v-1.55"/><path class="cls-6" d="M93,128.65a2.64,2.64,0,1,1-2.64,2.64A2.64,2.64,0,0,1,93,128.65Z"/><circle class="cls-6" cx="82.49" cy="131.29" r="2.64"/><path class="cls-6" d="M72,128.65a2.64,2.64,0,1,1-2.64,2.64A2.64,2.64,0,0,1,72,128.65Z"/><path class="cls-6" d="M93.5,157.66a2.42,2.42,0,1,1-2.42,2.42A2.41,2.41,0,0,1,93.5,157.66Z"/><path class="cls-6" d="M114.35,153.61h.41a1.65,1.65,0,0,0,1.65-1.65V128.31a1.65,1.65,0,0,0-1.65-1.65h-.83a1.65,1.65,0,0,0-1.65,1.65V152a1.65,1.65,0,0,0,1.65,1.65Z"/><path class="cls-6" d="M111.59,123.71v1.21a1.53,1.53,0,1,1-3,0v-3.3a1.52,1.52,0,0,1,2.6-1.08,1.5,1.5,0,0,1,.45,1.08v1"/><path class="cls-6" d="M115.3,145.87v5.19a.58.58,0,0,1-.57.58H114a.58.58,0,0,1-.58-.58v-5.19Z"/><path class="cls-6" d="M70.75,144.49H85.47a1,1,0,1,0,0-1.91H70.75a1,1,0,0,0,0,1.91Z"/><path class="cls-6" d="M70.75,148.52H85.47a1,1,0,1,0,0-1.91H70.75a1,1,0,0,0,0,1.91Z"/><path class="cls-6" d="M70.75,152.55H85.47a1,1,0,1,0,0-1.9H70.75a1,1,0,0,0,0,1.9Z"/><path class="cls-6" d="M70.75,156.58H85.47a1,1,0,1,0,0-1.91H70.75a1,1,0,0,0,0,1.91Z"/><path class="cls-6" d="M70.75,160.61H85.47a1,1,0,1,0,0-1.9H70.75a1,1,0,0,0,0,1.9Z"/><path class="cls-6" d="M91.78,154.57h3.44a1,1,0,0,0,0-1.91H91.78a1,1,0,0,0,0,1.91Z"/><path class="cls-6" d="M95.22,148.63H91.78a1,1,0,0,0,0,1.91h3.44a1,1,0,0,0,0-1.91Z"/><path class="cls-6" d="M95.22,144.6H91.78a1,1,0,0,0,0,1.91h3.44a1,1,0,0,0,0-1.91Z"/><path class="cls-6" d="M63.46,137v-9.44a2.06,2.06,0,0,1,2.07-2.07H100a1.59,1.59,0,0,1,1.59,1.59V137"/><path class="cls-6" d="M101.55,160.08v4.32a2,2,0,0,1-2,2H65.43a2,2,0,0,1-2-2V137h38.09Z"/><path class="cls-6" d="M101.55,160.08h6.33a6.47,6.47,0,0,0,6.47-6.47"/><polyline class="cls-6" points="114.35 122.58 114.35 115.31 122.28 110.61"/><line class="cls-6" x1="114.35" y1="126.66" x2="114.35" y2="123.71"/><rect class="cls-6" x="111.59" y="122.58" width="2.76" height="1.13"/><path class="cls-3" d="M124.47,63.79v.07l-2.52.71a7,7,0,0,0-1-2.73A2.83,2.83,0,0,1,124.47,63.79Z"/><path class="cls-4" d="M122,64.57a7,7,0,0,1-.62,3.9l-1-1-1.64,1.64-1-1a3.77,3.77,0,1,0-5.32-5.33L97,78.24,94.71,76l2-2L98,75.22l2-2-1.26-1.26,2.29-2.29,1.26,1.27,2-2-1.26-1.26,2.29-2.29,1.26,1.27,2-2-1.26-1.26L109.74,61,111,62.22l2-2-1-1a6.91,6.91,0,0,1,3.18-.68,7,7,0,0,1,4.74,2,7.26,7.26,0,0,1,1,1.29A7,7,0,0,1,122,64.57Z"/><path class="cls-3" d="M121.62,68.76a2.82,2.82,0,0,1,0,4l-.05,0-2-2-1.27-1.27.41-.4,1.64-1.64,1,1Z"/><polygon class="cls-4" points="119.58 70.8 117.29 73.09 116.02 71.82 113.98 73.87 115.24 75.13 112.95 77.42 111.69 76.16 109.65 78.21 110.91 79.47 108.62 81.76 107.36 80.49 105.31 82.54 106.57 83.8 104.55 85.82 102.29 83.56 117.72 68.14 118.72 69.13 118.31 69.53 119.58 70.8"/><path class="cls-3" d="M118.71,56.52l-.66,2.67a7.11,7.11,0,0,0-2.81-.67,2.84,2.84,0,0,1,3.41-2Z"/><path class="cls-5" d="M117.72,62.81a3.77,3.77,0,0,1,0,5.33L102.29,83.56,97,78.24h0L112.4,62.81A3.76,3.76,0,0,1,117.72,62.81Zm-2.34,3.77A1.43,1.43,0,1,0,114,68,1.42,1.42,0,0,0,115.38,66.58Z"/><path class="cls-3" d="M117.29,73.09a2.84,2.84,0,0,1,0,4l-.05,0-2-2L114,73.87l2-2.05Z"/><circle class="cls-3" cx="113.96" cy="66.58" r="1.42"/><path class="cls-3" d="M113,77.42a2.84,2.84,0,0,1,0,4l0,0-2-2-1.26-1.26,2-2Z"/><path class="cls-3" d="M113,60.18l-2,2L109.74,61a2.82,2.82,0,0,1,0-4l0-.05,2.28,2.29h0Z"/><path class="cls-3" d="M108.62,81.76a2.81,2.81,0,0,1,0,4l-.05,0-2-2-1.26-1.26,2-2.05Z"/><path class="cls-3" d="M108.71,64.51l-2,2-1.26-1.27a2.82,2.82,0,0,1,0-4l0,0,2,2Z"/><path class="cls-3" d="M104.55,85.82,90.63,99.75l-2.51-2.51-5.35-5.36-2.68-2.67L79,88.11a2.69,2.69,0,0,1,0-3.82l1.49-1.5,3.18-3.17,3-3,1.43,7.28a1.87,1.87,0,0,0,3.66-.73L90,74.54A5.22,5.22,0,0,1,94.71,76L97,78.24h0l5.32,5.32ZM97.27,89.1a.72.72,0,0,0-1-1l-5.11,5.11a.72.72,0,0,0,1,1Zm-4.09-.49a.71.71,0,0,0,0-1,.72.72,0,0,0-1,0l-3.3,3.3a.72.72,0,0,0,.51,1.23.75.75,0,0,0,.51-.21Z"/><path class="cls-3" d="M104.37,68.84l-2,2-1.26-1.27a2.82,2.82,0,0,1,0-4l0,0,2,2Z"/><path class="cls-3" d="M100,73.17l-2,2L96.74,74a2.82,2.82,0,0,1,0-4l0,0,2,2Z"/><path class="cls-4" d="M97.27,88.08a.71.71,0,0,1,0,1l-5.1,5.11a.72.72,0,0,1-1-1l5.11-5.11A.71.71,0,0,1,97.27,88.08Z"/><path class="cls-4" d="M93.18,87.6a.71.71,0,0,1,0,1l-3.3,3.31a.75.75,0,0,1-.51.21.72.72,0,0,1-.51-1.23l3.3-3.3A.72.72,0,0,1,93.18,87.6Z"/><path class="cls-4" d="M91.74,83.18a1.87,1.87,0,0,1-3.66.73l-1.43-7.28-1.22-6.2a1.77,1.77,0,0,0-2.07-1.38,1.82,1.82,0,0,0-1.12.74A1.77,1.77,0,0,0,82,71.11l1.68,8.51-3.18,3.17-2.15-11a5.48,5.48,0,1,1,10.75-2.12l1,4.82Z"/><path class="cls-4" d="M90.63,99.75l-2.85,2.84a5.21,5.21,0,0,1-7.36,0l-1.89-1.89a5.16,5.16,0,0,1-1.27-5.28c0-.07,0-.13.07-.19l2.76-6,2.68,2.67-2.16,4.71A1.66,1.66,0,0,0,81,98.2l1.88,1.88a1.67,1.67,0,0,0,2.36,0l2.84-2.84Z"/><path class="cls-6" d="M82.77,91.88l-2.16,4.71A1.66,1.66,0,0,0,81,98.2l1.88,1.88a1.67,1.67,0,0,0,2.36,0l2.84-2.84"/><path class="cls-6" d="M80.09,89.21l-2.76,6c0,.06,0,.12-.07.19a5.16,5.16,0,0,0,1.27,5.28l1.89,1.89a5.21,5.21,0,0,0,7.36,0l2.85-2.84"/><path class="cls-6" d="M118.05,59.19l.66-2.67-.06,0a2.84,2.84,0,0,0-3.41,2"/><path class="cls-6" d="M122,64.57l2.52-.71v-.07A2.83,2.83,0,0,0,121,61.84"/><path class="cls-6" d="M98.78,71.91l-2-2,0,0a2.82,2.82,0,0,0,0,4L98,75.22l2-2Z"/><path class="cls-6" d="M103.11,67.58l-2-2,0,0a2.82,2.82,0,0,0,0,4l1.26,1.27,2-2Z"/><path class="cls-6" d="M107.45,63.25l-2-2,0,0a2.82,2.82,0,0,0,0,4l1.26,1.27,2-2Z"/><path class="cls-6" d="M112.06,59.2l-2.28-2.29,0,.05a2.82,2.82,0,0,0,0,4L111,62.22l2-2-1-1"/><path class="cls-6" d="M119.58,70.8l2,2,.05,0a2.82,2.82,0,0,0,0-4l-.28-.29-1-1-1.64,1.64-.41.4Z"/><path class="cls-6" d="M115.24,75.13l2,2,.05,0a2.84,2.84,0,0,0,0-4L116,71.82l-2,2.05Z"/><path class="cls-6" d="M110.91,79.47l2,2,0,0a2.84,2.84,0,0,0,0-4l-1.27-1.26-2,2Z"/><path class="cls-6" d="M106.57,83.8l2,2,.05,0a2.81,2.81,0,0,0,0-4l-1.26-1.27-2,2.05Z"/><line class="cls-6" x1="109.74" y1="60.96" x2="107.45" y2="63.25"/><line class="cls-6" x1="101.07" y1="69.62" x2="98.78" y2="71.91"/><path class="cls-6" d="M112.06,59.2h0a6.91,6.91,0,0,1,3.18-.68,7,7,0,0,1,4.74,2,7.26,7.26,0,0,1,1,1.29,6.94,6.94,0,0,1,.35,6.63"/><line class="cls-6" x1="115.24" y1="75.13" x2="112.96" y2="77.42"/><line class="cls-6" x1="106.57" y1="83.8" x2="104.55" y2="85.82"/><line class="cls-6" x1="96.74" y1="73.96" x2="94.71" y2="75.98"/><line class="cls-6" x1="110.91" y1="79.47" x2="108.62" y2="81.76"/><line class="cls-6" x1="119.58" y1="70.8" x2="117.29" y2="73.09"/><line class="cls-6" x1="103.11" y1="67.58" x2="105.4" y2="65.29"/><line class="cls-6" x1="83.66" y1="79.62" x2="86.65" y2="76.63"/><path class="cls-6" d="M90,74.54A5.22,5.22,0,0,1,94.71,76L97,78.24h0l5.32,5.32,2.26,2.26L90.63,99.75l-2.51-2.51-5.35-5.36-2.68-2.67L79,88.11a2.69,2.69,0,0,1,0-3.82l1.49-1.5"/><path class="cls-6" d="M80.48,82.79l-2.15-11a5.48,5.48,0,1,1,10.75-2.12l1,4.82,1.7,8.64a1.87,1.87,0,0,1-3.66.73l-1.43-7.28-1.22-6.2a1.77,1.77,0,0,0-2.07-1.38,1.82,1.82,0,0,0-1.12.74A1.77,1.77,0,0,0,82,71.11l1.68,8.51Z"/><circle class="cls-6" cx="113.96" cy="66.58" r="1.42"/><path class="cls-4" d="M146,84h2.49a.58.58,0,0,1,.58.58v1.78a.58.58,0,0,1-.58.58h-3.6l-1.3-.39a.37.37,0,0,0-.31,0l-.16.09Z"/><path class="cls-5" d="M143.45,84H146l-2.88,2.66h0l-.6.35a.35.35,0,0,1-.19.06h-1.1a.37.37,0,0,1-.18,0l-.86-.45a.4.4,0,0,0-.34,0l-.08,0,2.56-2.23a.31.31,0,0,0,.21,0l.75-.31A.41.41,0,0,1,143.45,84Z"/><path class="cls-3" d="M140,84h1.25a.4.4,0,0,1,.15,0l.81.31.08,0-2.56,2.23-.74.32a.32.32,0,0,1-.16,0h-1.25a.29.29,0,0,1-.16,0l-.86-.36s0,0-.07,0a.41.41,0,0,0-.22,0l2.62-2.16h0l.12,0,.85-.32Z"/><path class="cls-5" d="M136.37,84h1.11l.11,0,1.21.34a.3.3,0,0,0,.13,0h0l-2.62,2.16-1,.38a.32.32,0,0,1-.14,0h-2.31l2.51-2.59.16,0,.69-.29A.4.4,0,0,1,136.37,84Z"/><path class="cls-3" d="M132.86,84h1.69a.36.36,0,0,1,.2.06l.42.24a.46.46,0,0,0,.2,0l-2.51,2.59a.39.39,0,0,1-.3-.13l-.94-1.08a.4.4,0,0,1,0-.52l.53-.61.41-.47A.43.43,0,0,1,132.86,84Z"/><path class="cls-7" d="M136.53,86.51a.41.41,0,0,0-.22,0l-1,.38a.32.32,0,0,1-.14,0h-2.31a.39.39,0,0,1-.3-.13l-.94-1.08a.4.4,0,0,1,0-.52l.53-.61.41-.47a.43.43,0,0,1,.3-.13h1.69a.36.36,0,0,1,.2.06l.42.24a.46.46,0,0,0,.2,0l.16,0,.69-.29a.4.4,0,0,1,.15,0h1.11l.11,0,1.21.34a.3.3,0,0,0,.13,0l.12,0,.85-.32.14,0h1.25a.4.4,0,0,1,.15,0l.81.31.08,0a.31.31,0,0,0,.21,0l.75-.31a.41.41,0,0,1,.16,0h5a.58.58,0,0,1,.58.58v1.78a.58.58,0,0,1-.58.58h-3.6l-1.3-.39a.37.37,0,0,0-.31,0l-.16.09"/><path class="cls-7" d="M143.12,86.65l-.6.35a.35.35,0,0,1-.19.06h-1.1a.37.37,0,0,1-.18,0l-.86-.45a.4.4,0,0,0-.34,0l-.08,0-.74.32a.32.32,0,0,1-.16,0h-1.25a.29.29,0,0,1-.16,0"/><path class="cls-7" d="M136.53,86.51s.05,0,.07,0l.86.36-.86-.36Z"/><line class="cls-7" x1="135.37" y1="84.34" x2="132.86" y2="86.93"/><line class="cls-7" x1="138.93" y1="84.37" x2="136.31" y2="86.53"/><polyline class="cls-7" points="142.33 84.35 142.33 84.35 139.77 86.58 139.76 86.59 139.75 86.6"/><polyline class="cls-7" points="143.11 86.66 143.12 86.65 143.12 86.65 146 83.99"/><path class="cls-3" d="M191.28,90.38c7.48,10.06,4.79,26.69,4.17,29.92a1.73,1.73,0,0,1-.87,1.2,11.38,11.38,0,0,1-9.53.8l-1.27-.47a1.76,1.76,0,0,1-1.1-2.25,1.68,1.68,0,0,1,.43-.68l1.35-1.35a.86.86,0,0,0,.25-.61v-5.53l-2.7-3.19-.11-.14a.46.46,0,0,1-.11-.3V102L178.1,99.2H163.84a.45.45,0,0,0,.46-.46v-20a.43.43,0,0,0-.14-.33.51.51,0,0,0-.34-.13,105.7,105.7,0,0,1,22.09,1.13.51.51,0,0,1,.31.2l.95,1.42c1.34.17,4,.71,4.81,2.31a2.5,2.5,0,0,1-.3,2.49A4.58,4.58,0,0,0,191.28,90.38ZM179,82.85a.47.47,0,0,0-.46-.46H168.46a.46.46,0,0,0,0,.92h10.06A.47.47,0,0,0,179,82.85Zm0,2.21a.46.46,0,0,0-.46-.46H168.46a.46.46,0,0,0-.46.46.47.47,0,0,0,.46.46h10.06A.47.47,0,0,0,179,85.06Zm0,2.21a.47.47,0,0,0-.46-.46H168.46a.47.47,0,0,0,0,.93h10.06A.47.47,0,0,0,179,87.27Zm0,2.22a.46.46,0,0,0-.46-.46H168.46a.46.46,0,0,0-.46.46.47.47,0,0,0,.46.46h10.06A.47.47,0,0,0,179,89.49Z"/><path class="cls-4" d="M182,108.22h-2.3a.46.46,0,0,1-.46-.46v-5.27h-4.47a.46.46,0,0,1-.46-.46V99.2h3.78l3.69,2.83v5.75a.46.46,0,0,0,.11.3Z"/><path class="cls-4" d="M178.52,82.39a.46.46,0,1,1,0,.92H168.46a.46.46,0,0,1,0-.92Z"/><path class="cls-4" d="M178.52,84.6a.46.46,0,0,1,.46.46.47.47,0,0,1-.46.46H168.46a.47.47,0,0,1-.46-.46.46.46,0,0,1,.46-.46Z"/><path class="cls-4" d="M178.52,86.81a.47.47,0,0,1,0,.93H168.46a.47.47,0,0,1,0-.93Z"/><path class="cls-4" d="M178.52,89a.46.46,0,0,1,.46.46.47.47,0,0,1-.46.46H168.46a.47.47,0,0,1-.46-.46.46.46,0,0,1,.46-.46Z"/><path class="cls-4" d="M164.3,78.74v20a.45.45,0,0,1-.46.46h-3.62A2.43,2.43,0,0,1,158,97.84l-2.79-5.72a2.41,2.41,0,0,1-.24-1.05l0-4v-5.9a2.35,2.35,0,0,1,.26-1.1,2.4,2.4,0,0,1,.23-.38l.14-.17.16-.15a2.41,2.41,0,0,1,1.42-.63l1.68-.14c1.13-.08,2.24-.16,3.33-.21l1.63-.09a.51.51,0,0,1,.34.13A.43.43,0,0,1,164.3,78.74Z"/><polygon class="cls-4" points="154.97 83.26 154.99 87.05 153.78 87.05 153.78 83.26 154.97 83.26"/><path class="cls-4" d="M153.78,87.05v3.23a.45.45,0,0,1-.46.46h-6.94a.45.45,0,0,1-.46-.46V80a.46.46,0,0,1,.46-.46h6.94a.46.46,0,0,1,.46.46v7Z"/><line class="cls-6" x1="154.98" y1="83.26" x2="153.78" y2="83.26"/><line class="cls-6" x1="154.99" y1="87.05" x2="153.78" y2="87.05"/><path class="cls-6" d="M174.32,99.2V102a.46.46,0,0,0,.46.46h4.47v5.27a.46.46,0,0,0,.46.46H182"/><path class="cls-6" d="M158.86,78.58c1.13-.08,2.24-.16,3.33-.21l1.63-.09a105.7,105.7,0,0,1,22.09,1.13.51.51,0,0,1,.31.2l.95,1.42c1.34.17,4,.71,4.81,2.31a2.5,2.5,0,0,1-.3,2.49,4.58,4.58,0,0,0-.4,4.55c7.48,10.06,4.79,26.69,4.17,29.92a1.73,1.73,0,0,1-.87,1.2,11.38,11.38,0,0,1-9.53.8l-1.27-.47a1.76,1.76,0,0,1-1.1-2.25,1.68,1.68,0,0,1,.43-.68l1.35-1.35a.86.86,0,0,0,.25-.61v-5.53l-2.7-3.19-.11-.14a.46.46,0,0,1-.11-.3V102L178.1,99.2H163.84"/><path class="cls-6" d="M155.23,80.05a1.83,1.83,0,0,1,.23-.38l.14-.17.16-.15"/><path class="cls-6" d="M163.84,99.2h-3.62A2.43,2.43,0,0,1,158,97.84l-2.79-5.72a2.41,2.41,0,0,1-.24-1.05l0-4v-5.9a2.35,2.35,0,0,1,.26-1.1,2.4,2.4,0,0,1,.23-.38l.14-.17.16-.15a2.41,2.41,0,0,1,1.42-.63l1.68-.14c1.13-.08,2.24-.16,3.33-.21l1.63-.09a.51.51,0,0,1,.34.13.43.43,0,0,1,.14.33v20A.45.45,0,0,1,163.84,99.2Z"/><path class="cls-6" d="M153.78,87.05v3.23a.45.45,0,0,1-.46.46h-6.94a.45.45,0,0,1-.46-.46V80a.46.46,0,0,1,.46-.46h6.94a.46.46,0,0,1,.46.46v7Z"/><path class="cls-3" d="M184.23,163.52H173.57a10.76,10.76,0,1,0-21.52,0H141.39a21.42,21.42,0,1,1,42.84,0Z"/><path class="cls-4" d="M179.13,169.53l3.18,2.82c-2.2,3.5-7.21,1.8-7.21,1.8L173,176.31l2.33,4.41c-4.79,2.21-6.93-1.45-6.93-1.45l-3.27,1v5.1c-3.78.06-5.79-5.31-5.79-5.31l-2.46-.74L154,183.92c-3.48-2-2-7.77-2-7.77l-2.15-2L145,177.48c-1.73-3.14.42-6.58,1.45-7.95Z"/><path class="cls-4" d="M178,168.53l1.13,1H146.46a7.12,7.12,0,0,1,.5-.61,20.25,20.25,0,0,1-.35-5.4h5.44a10.76,10.76,0,1,1,21.52,0h5A33.59,33.59,0,0,1,178,168.53Zm-12.36-5a3.51,3.51,0,1,0-3.5,3.51A3.5,3.5,0,0,0,165.64,163.52Z"/><path class="cls-3" d="M162.14,160a3.51,3.51,0,1,1-3.51,3.5A3.5,3.5,0,0,1,162.14,160Z"/><path class="cls-4" d="M148.19,136.18l7,7.31a21.42,21.42,0,0,0-9.36,6.95L140,143.73a5.59,5.59,0,0,1,8.23-7.55Z"/><path class="cls-6" d="M165.64,163.52a3.51,3.51,0,1,1-3.5-3.5A3.51,3.51,0,0,1,165.64,163.52Z"/><path class="cls-6" d="M178.56,163.52h5.67a21.42,21.42,0,0,0-42.84,0h10.66a10.76,10.76,0,1,1,21.52,0Z"/><path class="cls-6" d="M146.61,163.52a20.25,20.25,0,0,0,.35,5.4,7.12,7.12,0,0,0-.5.61c-1,1.37-3.18,4.81-1.45,7.95l4.82-3.32,2.15,2s-1.5,5.72,2,7.77l2.87-4.59,2.46.74s2,5.37,5.79,5.31v-5.1l3.27-1s2.14,3.66,6.93,1.45L173,176.31l2.15-2.16s5,1.7,7.21-1.8l-3.18-2.82-1.13-1a33.59,33.59,0,0,0,.56-5"/><polyline class="cls-6" points="134.44 169.53 146.46 169.53 179.13 169.53 189.99 169.53"/><path class="cls-6" d="M145.85,150.44,140,143.73a5.59,5.59,0,0,1,8.23-7.55l7,7.31"/></svg>