<svg xmlns="http://www.w3.org/2000/svg" id="Layer_1" data-name="Layer 1" viewBox="41.08 40.82 173.84 174.36"><defs><style>.cls-3{fill:#fff}.cls-4{fill:#2db5ff}.cls-5,.cls-6{fill:none;stroke:#0e4e91}.cls-5{stroke-miterlimit:10}.cls-6{stroke-linecap:round;stroke-linejoin:round}</style></defs><path d="M124.33 215.09v-1.14c2 .09 4.05.12 6.05.06v1.15c-1.94.04-4.01.02-6.05-.07zm-4.59-.33c-2-.2-4.08-.47-6.08-.81l.19-1.13c2 .33 4 .6 6 .79zm15.32.16-.09-1.14c2-.16 4-.39 6-.68l.17 1.13c-2 .3-4.05.53-6.08.69zm10.63-1.48-.23-1.13c2-.4 3.95-.87 5.88-1.42l.31 1.11c-1.96.55-3.96 1-5.96 1.44zm10.36-2.79-.37-1.08c1.89-.64 3.8-1.35 5.66-2.13l.44 1.05c-1.88.79-3.78 1.51-5.73 2.16zm9.93-4-.5-1c1.81-.87 3.62-1.82 5.36-2.82l.57 1c-1.77.94-3.6 1.89-5.41 2.78zm-86.28-6.2c-1.69-1.14-3.36-2.35-5-3.6l.7-.9c1.59 1.23 3.24 2.43 4.91 3.55zm95.64 1-.61-1c1.69-1.08 3.36-2.24 5-3.44l.69.91c-1.67 1.18-3.36 2.35-5.08 3.45zm-104.16-7.56a84.604 84.604 0 0 1-4.49-4.19l.8-.81a86.44 86.44 0 0 0 4.44 4.13zM184 195l-.74-.88c1.55-1.28 3.07-2.64 4.52-4l.79.82c-1.47 1.42-3.02 2.8-4.57 4.06zm-120.49-8.63c-1.35-1.5-2.69-3.09-3.94-4.69l.91-.71c1.24 1.59 2.55 3.15 3.89 4.63zm128.3 1.31-.83-.78c1.39-1.47 2.72-3 4-4.56l.89.73c-1.3 1.57-2.66 3.13-4.06 4.61zM56.83 178a86.879 86.879 0 0 1-3.34-5.14l1-.59c1 1.72 2.14 3.43 3.29 5.07zm141.84 1.45-.93-.68c1.19-1.62 2.33-3.31 3.41-5l1 .61c-1.15 1.69-2.28 3.39-3.48 5.04zM51.23 168.83c-1-1.8-1.86-3.66-2.69-5.51l1.05-.47c.81 1.84 1.71 3.66 2.65 5.44zm153.24 1.55-1-.56c1-1.76 1.91-3.57 2.76-5.4l1 .49c-.83 1.85-1.77 3.69-2.76 5.47zM41.08 127.57c0-1.81.08-3.66.2-5.46v-.67l1.14.08v.67c-.12 1.78-.19 3.6-.2 5.39zM42.93 117l-1.13-.14c.25-2 .59-4.06 1-6.06l1.13.23c-.42 1.97-.75 3.97-1 5.97zm170.85 1.49c-.22-2-.51-4-.87-6l1.12-.21c.36 2 .66 4 .89 6.07zM44.91 106.6l-1.1-.29c.51-2 1.08-4 1.73-5.88l1.08.36c-.62 1.91-1.21 3.86-1.71 5.81zM212 108.06c-.46-2-1-3.92-1.61-5.83l1.09-.35c.61 2 1.16 3.94 1.63 5.92zM48.16 96.53l-1.07-.43c.75-1.89 1.57-3.78 2.45-5.63l1 .49c-.83 1.82-1.64 3.69-2.38 5.57zm160.74 1.41a93.83 93.83 0 0 0-2.31-5.59l1-.48c.85 1.85 1.63 3.76 2.35 5.67zm-156.26-11-1-.55c1-1.78 2-3.56 3.12-5.29l1 .62a68.571 68.571 0 0 0-3.12 5.19zm152 1.36c-.93-1.78-1.93-3.55-3-5.26l1-.59c1.07 1.73 2.09 3.53 3 5.33zM58.28 77.93l-.93-.66c1.19-1.66 2.45-3.3 3.75-4.86l.87.73a85.81 85.81 0 0 0-3.69 4.79zm140.86 1.28a89.853 89.853 0 0 0-3.61-4.86l.9-.71c1.27 1.58 2.5 3.24 3.65 4.92zM65 69.72l-.84-.78c1.38-1.5 2.83-3 4.32-4.37l.78.84c-1.5 1.38-2.93 2.82-4.26 4.31zm127.6 1.15c-1.33-1.5-2.74-3-4.18-4.38l.8-.82c1.46 1.43 2.88 2.92 4.23 4.45zM100 46.69l-.38-1.08c1.92-.67 3.9-1.28 5.86-1.81l.3 1.11c-1.91.53-3.86 1.09-5.78 1.78zm57.89.52c-1.89-.7-3.83-1.33-5.76-1.88l.32-1.1c2 .56 3.92 1.2 5.83 1.91zm-47.7-3.37-.19-1.11c2-.43 4-.79 6-1.08l.16 1.13c-1.97.3-3.97.65-5.94 1.06zm37.55.34c-2-.45-4-.83-6-1.15l.26-1.13c2 .32 4 .71 6 1.17zm-27.08-1.9-.1-1.14c2-.17 4.1-.28 6.13-.32v1.15c-1.96.03-4 .14-6 .31zm16.64.15c-2-.21-4-.35-6.05-.42v-1.14c2 .07 4.09.22 6.13.43z" style="fill:#0e4e91"/><circle cx="128.9" cy="127.59" r="67.05" style="fill:#abe7ff"/><path class="cls-3" d="M189 95.62v5.79h-21.88v-5.79a.71.71 0 0 1 .71-.71h20.43a.71.71 0 0 1 .74.71z"/><path class="cls-4" d="M186.58 124.2a4.08 4.08 0 0 1-.81 3.47c-1.23 1.23-2.3.87-3 1.29a4.3 4.3 0 0 1 .28-2.61c.95-1.84 2.61-1.51 3.53-2.15zm0 4.28a4.08 4.08 0 0 1-.81 3.47c-1.23 1.23-2.3.87-3 1.29a4.33 4.33 0 0 1 .28-2.62c.95-1.83 2.61-1.5 3.53-2.14zm-3.85-3.91A4.33 4.33 0 0 1 183 122c1-1.83 2.65-1.5 3.57-2.14a4.08 4.08 0 0 1-.81 3.47c-1.22 1.19-2.29.82-3.03 1.24zm.75-4.88A4.54 4.54 0 0 1 182 122c-.33-.82-1.43-1.22-1.61-3a4.21 4.21 0 0 1 1.61-3.33c.33 1.08 1.85 1.87 1.48 4.02zm-2.24 13.61c-.75-.42-1.82-.06-3-1.3a4 4 0 0 1-.81-3.47c.91.64 2.53.32 3.56 2.14a4.4 4.4 0 0 1 .25 2.63zm-.24-6.9a4.37 4.37 0 0 1 .29 2.62c-.75-.42-1.82-.06-3-1.3a4 4 0 0 1-.81-3.47c.82.65 2.44.32 3.52 2.15zm0-4.4a4.37 4.37 0 0 1 .29 2.62c-.75-.42-1.82-.06-3-1.29a4 4 0 0 1-.81-3.47c.82.64 2.44.32 3.52 2.14z"/><path class="cls-3" d="M182 122a4.54 4.54 0 0 0 1.47-2.29c.37-2.15-1.15-2.94-1.47-4.06a4.21 4.21 0 0 0-1.6 3.35c.18 1.76 1.28 2.16 1.6 3zm4.57-2.17c-.92.64-2.54.31-3.57 2.14a4.33 4.33 0 0 0-.28 2.62c.74-.42 1.81 0 3-1.29a4.08 4.08 0 0 0 .86-3.49zm0 8.67c-.92.64-2.54.31-3.57 2.14a4.33 4.33 0 0 0-.28 2.62c.74-.42 1.81-.06 3-1.29a4.08 4.08 0 0 0 .86-3.49zm0-4.28c-.92.64-2.54.31-3.57 2.15a4.3 4.3 0 0 0-.28 2.61c.74-.42 1.81-.06 3-1.29a4.08 4.08 0 0 0 .86-3.49zm-5.57 6.45c-1-1.82-2.65-1.5-3.56-2.14a4 4 0 0 0 .81 3.47c1.22 1.24 2.29.88 3 1.3a4.4 4.4 0 0 0-.25-2.63zm-2.75-2.95c1.22 1.24 2.29.88 3 1.3a4.37 4.37 0 0 0-.29-2.62c-1-1.83-2.65-1.5-3.56-2.15a4 4 0 0 0 .8 3.47zm0-4.38c1.22 1.23 2.29.87 3 1.29A4.37 4.37 0 0 0 181 122c-1-1.83-2.65-1.51-3.56-2.14a4 4 0 0 0 .76 3.48zm15-17.65v39h-21.97v-39l-4.18-4.27H189z"/><path class="cls-3" d="m162.94 105.69 4.18-4.28 4.18 4.27-.02 38.98h-8.34v-38.97z"/><path class="cls-5" d="M189 101.41h-21.88v-5.79a.71.71 0 0 1 .71-.71h20.43a.71.71 0 0 1 .71.71zm-.03 0 4.24 4.28v38.97h-30.27v-38.97l4.18-4.28 4.18 4.27-.02 38.98m1.86-38.88h17.68m-.55 2.88v2.54m0 2.86v8.98m-23.15-19.18v6.19"/><path class="cls-5" d="M182 115.63a4.21 4.21 0 0 0-1.6 3.37c.18 1.8 1.28 2.2 1.61 3a4.54 4.54 0 0 0 1.47-2.29c.37-2.17-1.15-2.96-1.48-4.08zm4.58 4.18a4.08 4.08 0 0 1-.81 3.47c-1.23 1.24-2.3.87-3 1.29A4.33 4.33 0 0 1 183 122c1-1.88 2.66-1.55 3.58-2.19zm0 4.39a4.08 4.08 0 0 1-.81 3.47c-1.23 1.23-2.3.87-3 1.29a4.3 4.3 0 0 1 .28-2.61c.95-1.84 2.61-1.51 3.53-2.15zm0 4.28a4.08 4.08 0 0 1-.81 3.47c-1.23 1.23-2.3.87-3 1.29a4.33 4.33 0 0 1 .28-2.62c.95-1.83 2.61-1.5 3.53-2.14zm-9.19-8.61a4 4 0 0 0 .81 3.47c1.22 1.23 2.29.87 3 1.29a4.37 4.37 0 0 0-.2-2.63c-1.08-1.82-2.7-1.5-3.61-2.13zm0 4.38a4 4 0 0 0 .81 3.47c1.22 1.24 2.29.88 3 1.3a4.37 4.37 0 0 0-.29-2.62c-.99-1.83-2.61-1.5-3.52-2.15zm0 4.28a4 4 0 0 0 .81 3.47c1.22 1.24 2.29.88 3 1.3a4.4 4.4 0 0 0-.29-2.63c-.99-1.82-2.61-1.5-3.52-2.14zm4.58-6.01v12.64"/><path class="cls-3" d="M175.44 128.18c2.57-2.77 3.37.26 2.69 1.62-.45.87-3.29 4.77-5.3 7.49l-2 2.74a3.08 3.08 0 0 0-.38-.16 2 2 0 0 0-1.74 0 3.89 3.89 0 0 0-.42.19c.06-.12.92-1.53 2-3.34 1.94-3.34 4.71-7.96 5.15-8.54z"/><path class="cls-3" d="M168.24 140a3.89 3.89 0 0 1 .42-.19 2.49 2.49 0 0 1 1.74 0 3.08 3.08 0 0 1 .38.16l2-2.74c2.34.68 3.72 1.5 3.72 2.4 0 .05-.06.18-.14.5-1.19 2-9.53 3.61-19.65 3.61-10.56 0-19.2-1.72-19.76-3.88v-.15a.18.18 0 0 1 0-.05c0-2.27 8.87-4.11 19.79-4.11a74.34 74.34 0 0 1 13.48 1.1c-1.06 1.84-1.92 3.25-1.98 3.35z"/><path class="cls-4" d="M176.41 140.19c-.47 1.75-1.43 16.36-19.65 16.55-17 .17-19.5-14.8-19.76-16.82.56 2.16 9.2 3.88 19.76 3.88 10.12 0 18.46-1.58 19.65-3.61z"/><path class="cls-5" d="M137 139.69c0-2.27 8.87-4.11 19.79-4.11a74.34 74.34 0 0 1 13.48 1.1M137 139.89a.77.77 0 0 1 0-.15m39.55 0a1.12 1.12 0 0 1-.14.45c-1.19 2-9.53 3.61-19.65 3.61-10.56 0-19.2-1.72-19.76-3.88m35.83-2.63c2.34.68 3.72 1.5 3.72 2.4"/><path class="cls-5" d="M137 139.69a.18.18 0 0 0 0 .05v.15c.26 2 2.77 17 19.76 16.82 18.22-.19 19.18-14.8 19.65-16.55.08-.32.13-.45.14-.5s0 .17 0 .05v-.05"/><path class="cls-5" d="M171.73 146.7a11.65 11.65 0 0 0 1-2.6m-9.05 9.58a16.43 16.43 0 0 0 7.14-5.48m-20.46-6.86a1.94 1.94 0 0 1 3.87 0m-9.45-.29a1.94 1.94 0 1 1 3.87 0m-7.01-.53a1.93 1.93 0 1 1 3.36-1.91m2.62.12a1.94 1.94 0 1 1 3.87 0m1.4 0a1.94 1.94 0 1 1 3.87 0m1.33 0a1.94 1.94 0 1 1 3.87 0m-5.91 2.84a1.94 1.94 0 0 1 3.87 0m1.36-.23a1.94 1.94 0 0 1 3.87 0m5.27-1.47a1.92 1.92 0 0 1 1 1.7m-3.85 0a1.92 1.92 0 0 1 1.93-1.93 2 2 0 0 1 .9.22m-6.7-.69a1.94 1.94 0 0 1 3.87 0"/><path class="cls-5" d="M168.23 140a3.89 3.89 0 0 1 .42-.19 2.49 2.49 0 0 1 1.74 0 3.08 3.08 0 0 1 .38.16l2-2.74c2-2.72 4.85-6.62 5.3-7.49.68-1.36-.12-4.39-2.69-1.62-.42.58-3.21 5.2-5.2 8.5-1.08 1.81-1.94 3.22-2 3.34"/><path class="cls-3" d="M142 169.81a8.53 8.53 0 0 1 2.9 10.48c-1.59 3.14-6.88 5.12-10.77 2.68-4.19-2.64-6.12-9.62-6.95-14.14a3.09 3.09 0 0 1 3.62-3.6 27.6 27.6 0 0 1 11.2 4.58zm-16.91 6.51a3.09 3.09 0 0 1-1.61 4.84 27.78 27.78 0 0 1-12 1 8.54 8.54 0 0 1-7.33-8c0-3.51 3.83-7.68 8.4-7.25 4.89.39 9.76 5.74 12.54 9.41zm3.12 4.24A3.1 3.1 0 0 1 132 184a27.85 27.85 0 0 1-3.91 11.45 8.53 8.53 0 0 1-10.29 3.52c-3.23-1.4-5.53-6.57-3.32-10.59 2.41-4.38 9.26-6.72 13.73-7.82z"/><path class="cls-5" d="M125.09 176.32a3.09 3.09 0 0 1-1.61 4.84 27.78 27.78 0 0 1-12 1 8.54 8.54 0 0 1-7.33-8c0-3.51 3.83-7.68 8.4-7.25 4.89.39 9.76 5.74 12.54 9.41z"/><path class="cls-5" d="M108 173.07s1.29-3.12 4.41-2.48m14.74-1.76a3.09 3.09 0 0 1 3.62-3.6 27.6 27.6 0 0 1 11.2 4.58 8.53 8.53 0 0 1 2.9 10.48c-1.59 3.14-6.88 5.12-10.77 2.68-4.19-2.64-6.1-9.62-6.95-14.14zm1.06 11.73A3.1 3.1 0 0 1 132 184a27.85 27.85 0 0 1-3.91 11.45 8.53 8.53 0 0 1-10.29 3.52c-3.23-1.4-5.53-6.57-3.32-10.59 2.41-4.38 9.26-6.72 13.73-7.82z"/><path class="cls-5" d="M132.35 169.48a9.58 9.58 0 0 1 4 2.31m-12.85 13.96a8.68 8.68 0 0 0-4.85 2.93"/><path class="cls-3" d="M80.61 101.25a4.06 4.06 0 0 1 2.34-.07c.77.17 1.51.49 2.33.59a4.26 4.26 0 0 0 1.23-.06 4.35 4.35 0 0 0 1.14-.42 5.61 5.61 0 0 0 1-.67l.13-.1a.28.28 0 0 0 0 .09.53.53 0 0 0 .13.23 1.72 1.72 0 0 0 .37.34 2.38 2.38 0 0 1-.23-.41c0-.07 0-.15-.08-.21s0-.08-.07-.13a7.28 7.28 0 0 0 .63-.61c.12-.12.23-.25.33-.37.06 0 .11.1.18.15a2.94 2.94 0 0 0 .26.17l.52.37a4 4 0 0 0-.42-.49 1 1 0 0 0-.25-.22.49.49 0 0 0-.17-.06H90a5.92 5.92 0 0 0 .35-.48 4.49 4.49 0 0 0 .29-.53 3 3 0 0 0 .2-.49l.34.09.4.1a3.17 3.17 0 0 1 .38.17 2.71 2.71 0 0 1 .37.21 2.41 2.41 0 0 0-.7-.52 1 1 0 0 0-.42-.16.6.6 0 0 0-.35.05 6.8 6.8 0 0 0 .25-1.19v-.56a2.78 2.78 0 0 1 .39-.06h1.35a3.84 3.84 0 0 0-.9-.23 1.35 1.35 0 0 0-.49 0 .75.75 0 0 0-.35.19v-.56a12.34 12.34 0 0 0-.45-2.4 1.87 1.87 0 0 1 .23-1.15 3.57 3.57 0 0 1 .73-.93 5.86 5.86 0 0 1 1.7-.49c3.21-.32 6.14 3.45 3.3 9.8-4 8-11.5 7.11-14.17 6-2.07-.88-3-3.47-1.83-5z"/><path class="cls-3" d="M87.56 101.1a4.06 4.06 0 0 1-2.26.45c-.78-.07-1.53-.37-2.32-.52a4.46 4.46 0 0 0-1.21-.09 3.8 3.8 0 0 0-1.15.28 2.94 2.94 0 0 1 1.5-1c3.2.28 4.4.83 6.25-1.44 1.55-1.82.83-4.08 1-5.64.13-1 1.12-1.74 2.17-2.22a3.05 3.05 0 0 0-.73.91A1.82 1.82 0 0 0 90.6 93a11.77 11.77 0 0 1 .4 2.38 6.62 6.62 0 0 1 0 1.18 5 5 0 0 1-.26 1.15 4.35 4.35 0 0 1-.22.54c-.09.18-.19.35-.29.52s-.24.31-.36.47-.25.3-.39.44a9.48 9.48 0 0 1-.88.8 6.32 6.32 0 0 1-1.04.62zM76.32 84.39c.06.13.15.25.21.37l.2.32h-.08a.89.89 0 0 1-.3-.24 1.3 1.3 0 0 1-.2-.43 3.25 3.25 0 0 1-.13-.92 2.26 2.26 0 0 0 .11.43 2.63 2.63 0 0 0 .19.47zm-2.25 18.27v-1.18c0-.2 0-.4.09-.58a11.52 11.52 0 0 1 .28-1.16 7.93 7.93 0 0 1 .48-1.07 4.23 4.23 0 0 1 1.6-1.67c.69-.37 1.49-.53 2.23-.85a5.19 5.19 0 0 0 1-.6 3.69 3.69 0 0 0 .79-.88 2.75 2.75 0 0 1-.7 1.63c-2.81 1.57-4.12 1.77-4.39 4.69-.28 2.37 1.59 3.85 2.27 5.26a3.38 3.38 0 0 1-.55 3 3.49 3.49 0 0 0 .1-1.16 1.85 1.85 0 0 0-.44-1.1 12.22 12.22 0 0 1-1.64-1.74 8 8 0 0 1-.63-1 5.74 5.74 0 0 1-.54-1.68z"/><path class="cls-3" d="m73.31 103.45-.41.07a3.11 3.11 0 0 1-.43 0 2.86 2.86 0 0 0 .88.05 1.14 1.14 0 0 0 .43-.11.74.74 0 0 0 .27-.23 5.73 5.73 0 0 0 .45 1.11c.09.17.19.33.29.5a3.31 3.31 0 0 1-.3.25 3.17 3.17 0 0 1-.34.28 2.08 2.08 0 0 1-.38.25c-.13.07-.27.15-.41.21a3.39 3.39 0 0 0 .87-.33 1.18 1.18 0 0 0 .4-.27.72.72 0 0 0 .2-.35 4.73 4.73 0 0 0 .32.46 11.73 11.73 0 0 0 1.67 1.71 1.88 1.88 0 0 1 .45 1.07 3.65 3.65 0 0 1-.09 1.18 5.88 5.88 0 0 1-1.15 1.35c-2.48 2.06-7 .55-8.19-6.31-1.17-8.88 5.59-12.3 8.43-12.86 2.21-.42 4.4 1.23 4.3 3.14a4 4 0 0 1-1.89 1.37c-.73.29-1.53.43-2.27.8a3.89 3.89 0 0 0-1 .74 4.17 4.17 0 0 0-.73 1 7.36 7.36 0 0 0-.47 1.12v.15-.07c-.05-.08-.15-.09-.23-.12a1.39 1.39 0 0 0-.49-.07 2.06 2.06 0 0 1 .42.21 1.92 1.92 0 0 0 .17.13l.13.07a8 8 0 0 0-.18.85c0 .17 0 .33-.06.5a1.6 1.6 0 0 1-.23 0h-.95a3.45 3.45 0 0 0 .63.17.88.88 0 0 0 .33 0 .64.64 0 0 0 .17 0 5.82 5.82 0 0 0 0 .59 3.83 3.83 0 0 0 0 .6c0 .18.07.36.11.52l-.34.13c-.12.04-.24.1-.38.14zm-1.12-13.9a1.89 1.89 0 0 0 1.07-.7 12.58 12.58 0 0 1 1.48-2 6.32 6.32 0 0 1 .92-.87 5.76 5.76 0 0 1 1.06-.67 4.17 4.17 0 0 1 .58-.31 4.11 4.11 0 0 1 .6-.17c.2 0 .41 0 .62-.09s.42 0 .63 0a8.87 8.87 0 0 1 1.26.07 6.5 6.5 0 0 1 1.22.27 4.33 4.33 0 0 1 2 1.36c.53.63.86 1.43 1.35 2.14a5.24 5.24 0 0 0 .85 1 3.62 3.62 0 0 0 1.08.65 3 3 0 0 1-1.86-.4c-2.21-2.61-2.7-3.93-5.79-3.61-2.53.2-3.7 2.45-5 3.46a3.61 3.61 0 0 1-3.29 0 3.27 3.27 0 0 0 1.22-.13z"/><path class="cls-3" d="M70.93 89.66a6 6 0 0 1-1.64-.91c-2.66-2.17-2-7.21 4.9-9.86 9-3 14 3.31 15.15 6.16.91 2.22-.37 4.86-2.39 5.14a4.3 4.3 0 0 1-1.81-1.7 23.45 23.45 0 0 0-1.31-2.19 4 4 0 0 0-1-.88 5.31 5.31 0 0 0-1.18-.56 7 7 0 0 0-1.27-.26h-.15a.55.55 0 0 0 .07-.28 1.29 1.29 0 0 0 0-.52 2 2 0 0 1-.12.48c0 .08-.08.14-.11.21s0 .09 0 .15H78.6a1.77 1.77 0 0 0 0-.23 1.3 1.3 0 0 0-.07-.33c0-.22-.07-.45-.11-.67a5.09 5.09 0 0 0-.05.69.83.83 0 0 0 0 .35.77.77 0 0 0 .07.17 6 6 0 0 0-.61.1 4.4 4.4 0 0 0-.62.18 4.71 4.71 0 0 0-.52.21l-.2-.32c-.06-.12-.15-.24-.21-.37a2.63 2.63 0 0 1-.17-.42 2.26 2.26 0 0 1-.11-.43 3.25 3.25 0 0 0 .13.92 1.3 1.3 0 0 0 .2.43.89.89 0 0 0 .3.24 5.67 5.67 0 0 0-1.06.69c-.16.14-.32.27-.46.41a2.23 2.23 0 0 1-.33-.26l-.37-.29a3.49 3.49 0 0 1-.32-.35 3 3 0 0 1-.31-.39 4.18 4.18 0 0 0 .51.84 1.45 1.45 0 0 0 .38.36.68.68 0 0 0 .4.13c-.14.14-.28.28-.4.42a12.69 12.69 0 0 0-1.45 2.1 2 2 0 0 1-1 .69 3.19 3.19 0 0 1-1.26.15z"/><path class="cls-6" d="M70.93 89.66a6 6 0 0 1-1.64-.91c-2.66-2.17-2-7.21 4.9-9.86 9-3 14 3.31 15.15 6.16.91 2.22-.37 4.86-2.39 5.14h0a3 3 0 0 1-1.86-.4c-2.21-2.61-2.7-3.93-5.79-3.61-2.53.2-3.7 2.45-5 3.46a3.61 3.61 0 0 1-3.29 0z"/><path class="cls-6" d="M76.65 85.13h.08a4.71 4.71 0 0 1 .52-.21 4.4 4.4 0 0 1 .62-.18 6 6 0 0 1 .61-.1h1.95a7 7 0 0 1 1.27.26 5.31 5.31 0 0 1 1.18.56 4 4 0 0 1 1 .88 23.45 23.45 0 0 1 1.31 2.19A4.3 4.3 0 0 0 87 90.18h0a3.62 3.62 0 0 1-1.08-.65 5.24 5.24 0 0 1-.85-1c-.49-.71-.82-1.51-1.35-2.14a4.33 4.33 0 0 0-2-1.36 6.5 6.5 0 0 0-1.22-.27 8.87 8.87 0 0 0-1.26-.07h-.63c-.21 0-.42 0-.62.09a4.11 4.11 0 0 0-.6.17 4.17 4.17 0 0 0-.58.24 5.76 5.76 0 0 0-1.06.67 6.32 6.32 0 0 0-.92.87 12.58 12.58 0 0 0-1.48 2 1.89 1.89 0 0 1-1.07.7 3.27 3.27 0 0 1-1.21.13h0v0h0a3.19 3.19 0 0 0 1.26-.15 2 2 0 0 0 1-.69 12.69 12.69 0 0 1 1.45-2.1c.12-.14.26-.28.4-.42l.06-.06c.06-.06.3-.27.46-.41a5.67 5.67 0 0 1 1.06-.69"/><path class="cls-6" d="M75.06 86.29a.68.68 0 0 1-.4-.13 1.45 1.45 0 0 1-.38-.36 4.18 4.18 0 0 1-.51-.84h0a3 3 0 0 0 .31.39 3.49 3.49 0 0 0 .32.35l.37.29a2.23 2.23 0 0 0 .33.26h0v0zm1.58-1.16a.89.89 0 0 1-.3-.24 1.3 1.3 0 0 1-.2-.43 3.25 3.25 0 0 1-.13-.92h0a2.26 2.26 0 0 0 .11.43 2.63 2.63 0 0 0 .17.42c.06.13.15.25.21.37l.2.32a.33.33 0 0 0 0 .06v0h-.1zm1.84-.54h0a.77.77 0 0 1-.07-.17.83.83 0 0 1 0-.35 5.09 5.09 0 0 1 .05-.69h0c0 .22.07.45.11.67a1.3 1.3 0 0 1 .07.33 1.77 1.77 0 0 1 0 .23.28.28 0 0 0 0 .09h0a.26.26 0 0 1-.16-.11zm1.6-.03v-.15c0-.04.07-.13.11-.21a2 2 0 0 0 .12-.48h0a1.29 1.29 0 0 1 0 .52.55.55 0 0 1-.07.28h0a.33.33 0 0 1-.21.09h0a.46.46 0 0 1 .05-.05zm11.53 6.38a5.86 5.86 0 0 1 1.7-.49c3.21-.32 6.14 3.45 3.3 9.8-4 8-11.5 7.11-14.17 6-2.07-.88-3-3.47-1.83-5h0a2.94 2.94 0 0 1 1.5-1c3.2.28 4.4.83 6.25-1.44 1.55-1.82.83-4.08 1-5.64.13-1 1.12-1.74 2.17-2.22z"/><path class="cls-6" d="m88.8 100.52-.13.1a5.61 5.61 0 0 1-1 .67 4.35 4.35 0 0 1-1.14.42 4.26 4.26 0 0 1-1.23.06c-.82-.1-1.56-.42-2.33-.59a4.06 4.06 0 0 0-2.34.07h0a3.8 3.8 0 0 1 1.15-.28A4.46 4.46 0 0 1 83 101c.79.15 1.54.45 2.32.52a4.06 4.06 0 0 0 2.26-.45 6.32 6.32 0 0 0 1-.62 9.48 9.48 0 0 0 .88-.8c.14-.14.26-.29.39-.44s.25-.3.36-.47.2-.34.29-.52a4.35 4.35 0 0 0 .22-.54 5 5 0 0 0 .28-1.12 6.62 6.62 0 0 0 0-1.18 11.77 11.77 0 0 0-.4-2.38 1.82 1.82 0 0 1 .25-1.17 3.05 3.05 0 0 1 .73-.91h0a3.57 3.57 0 0 0-.73.93 1.87 1.87 0 0 0-.19 1.15 12.34 12.34 0 0 1 .44 2.35v1.21a6.8 6.8 0 0 1-.25 1.19v.07a3 3 0 0 1-.2.49 4.49 4.49 0 0 1-.29.53 5.92 5.92 0 0 1-.35.48v0l-.08.08c-.1.12-.21.25-.33.37a7.28 7.28 0 0 1-.63.61l-.12.1"/><path class="cls-6" d="M91.11 95.93a.75.75 0 0 1 .35-.19 1.35 1.35 0 0 1 .49 0 3.84 3.84 0 0 1 .9.23h0-1.35a2.78 2.78 0 0 0-.39.05h0v0a.34.34 0 0 1 0-.09zm-.28 1.83a.6.6 0 0 1 .35-.05 1 1 0 0 1 .42.16 2.41 2.41 0 0 1 .7.52h0a2.71 2.71 0 0 0-.37-.21 3.17 3.17 0 0 0-.38-.17l-.4-.1-.34-.09h-.06v0zM90 99.33h0a.49.49 0 0 1 .17.06 1 1 0 0 1 .25.22 4 4 0 0 1 .42.49h0l-.52-.37a2.94 2.94 0 0 1-.26-.17c-.07 0-.12-.11-.18-.15s0 0-.06-.05v0a.19.19 0 0 1 .18-.03zm-1.08 1.08s0 .09.07.13 0 .14.08.21a2.38 2.38 0 0 0 .23.41v0a1.72 1.72 0 0 1-.37-.34.53.53 0 0 1-.13-.23.28.28 0 0 1 0-.09h0a.22.22 0 0 1 .06-.17h0a.25.25 0 0 0 .06.08zm-11.72 8.96a5.88 5.88 0 0 1-1.15 1.35c-2.48 2.06-7 .55-8.19-6.31-1.17-8.88 5.59-12.3 8.43-12.86 2.21-.42 4.4 1.23 4.3 3.14 0 0 0 0 0 0a2.75 2.75 0 0 1-.7 1.63c-2.81 1.57-4.12 1.77-4.39 4.69-.28 2.37 1.59 3.85 2.27 5.26a3.38 3.38 0 0 1-.55 3z"/><path class="cls-6" d="M77.2 109.37h0a3.65 3.65 0 0 0 .09-1.18 1.88 1.88 0 0 0-.45-1.07 11.73 11.73 0 0 1-1.67-1.71 4.73 4.73 0 0 1-.32-.46v-.06c-.1-.17-.2-.33-.29-.5a5.73 5.73 0 0 1-.45-1.11h0a.24.24 0 0 1 0-.08c0-.16-.08-.34-.11-.52a3.83 3.83 0 0 1 0-.6 5.82 5.82 0 0 1 0-.59v0-.1c0-.03 0-.33.06-.5a8 8 0 0 1 .18-.85 1.09 1.09 0 0 0 0-.17v-.15a7.36 7.36 0 0 1 .47-1.12 4.17 4.17 0 0 1 .73-1 3.89 3.89 0 0 1 1-.74c.74-.37 1.54-.51 2.27-.8a4 4 0 0 0 1.89-1.37h0a3.69 3.69 0 0 1-.79.88 5.19 5.19 0 0 1-1 .6c-.74.32-1.54.48-2.23.85a4.23 4.23 0 0 0-1.62 1.63 7.93 7.93 0 0 0-.48 1.07 11.52 11.52 0 0 0-.28 1.16c0 .18 0 .38-.09.58s0 .39 0 .59v.59a5.74 5.74 0 0 0 .54 1.68 8 8 0 0 0 .63 1 12.22 12.22 0 0 0 1.64 1.74 1.85 1.85 0 0 1 .44 1.1 3.49 3.49 0 0 1-.1 1.16v0zM74.84 105a.72.72 0 0 1-.2.35 1.18 1.18 0 0 1-.4.27 3.39 3.39 0 0 1-.87.33v0c.14-.06.28-.14.41-.21a2.08 2.08 0 0 0 .38-.25 3.17 3.17 0 0 0 .34-.28 3.31 3.31 0 0 0 .3-.25h0zm-.79-1.72a.74.74 0 0 1-.27.23 1.14 1.14 0 0 1-.43.11 2.86 2.86 0 0 1-.88-.05v0a3.11 3.11 0 0 0 .43 0l.41-.07c.14 0 .26-.1.38-.13l.34-.13h.06z"/><path class="cls-6" d="M73.89 101.48s0 0 0 0a.64.64 0 0 1-.17 0 .88.88 0 0 1-.33 0 3.45 3.45 0 0 1-.63-.17v0h.95a1.6 1.6 0 0 0 .23 0H74a.19.19 0 0 1-.11.17zm.26-1.48-.15-.06a1.92 1.92 0 0 1-.17-.13 2.06 2.06 0 0 0-.42-.21v0a1.39 1.39 0 0 1 .49.07c.08 0 .18 0 .23.12v.07a.27.27 0 0 1 0 .19h0a.13.13 0 0 0 .02-.05z"/><path class="cls-4" d="M165.76 80.41c.51.55-.51 2.54-.57 2.67-5.11.82-13.53-.77-13.53-.77a19.68 19.68 0 0 0 3.13-1.13c3.56-1.68 5.47-1.76 8.65-3.18s1.8 1.83 2.32 2.41z"/><path class="cls-3" d="M165.19 83.08c.27 0 .54-.1.8-.15a16.49 16.49 0 0 1-14.33 5.83c-5.37-.66-8-4.3-7.81-6.75 1.67 1.22 4.81 1.12 7.81.3 0 0 8.42 1.59 13.53.77z"/><path class="cls-3" d="M143.89 79.78c1-1.61 3-4.15 5.31-5.1 3.53-1.42 11.6-2.69 16 2.48q-.93.5-1.74.84c-3.18 1.42-5.09 1.5-8.65 3.18a19.68 19.68 0 0 1-3.13 1.13c-3 .82-6.14.92-7.81-.3a2.93 2.93 0 0 1-.78-.83s.27-.58.8-1.4zm1.19 11.43c.5.83.78 1.41.78 1.41a2.8 2.8 0 0 1-.79.82c-1.69 1.18-4.84 1-7.82.13a20.14 20.14 0 0 1-3.1-1.2c-3.52-1.75-5.43-1.88-8.58-3.36-.54-.25-1.11-.54-1.72-.88 4.49-5.07 12.53-3.63 16-2.13 2.36 1 4.23 3.58 5.23 5.21z"/><path class="cls-3" d="M145.07 93.44c.14 2.45-2.57 6-8 6.58a16.46 16.46 0 0 1-14.19-6.14c.25.06.52.12.8.16 5.09.93 13.53-.48 13.53-.48 3.02.9 6.17 1.06 7.86-.12zM145 66.22c.05 5.15-.72 9.39-3 12.56S134 84 131.44 82c0 0 4.13-11.9 13.56-15.78z"/><path class="cls-4" d="M140.23 62.68a.77.77 0 0 1 .61.87 2 2 0 0 1 1.78.16c.48.35.36 2.51.36 2.51h2C135.57 70.1 131.44 82 131.44 82a1.71 1.71 0 0 1-.64.11V82s-.25-6.22 1.93-10.29 6.28-9.38 7.51-9z"/><path class="cls-3" d="M138.58 61.31a3.69 3.69 0 0 1 1 .11 1.7 1.7 0 0 1 .68 1.26c-1.23-.34-5.33 5-7.51 9S130.79 82 130.79 82v.11a4 4 0 0 1-1-.11c-1.13-.26-5.65-5-2.75-11.49 2.63-5.84 8.28-9.17 11.54-9.2z"/><path class="cls-4" d="M134.15 92.37a20.14 20.14 0 0 0 3.1 1.2s-8.44 1.41-13.53.48c-.07-.12-1-2.13-.52-2.68s2.37-2.37 2.37-2.37c3.15 1.49 5.06 1.62 8.58 3.37z"/><path class="cls-5" d="M151.66 82.31s8.42 1.59 13.53.77c.27 0 .54-.1.8-.15a16.49 16.49 0 0 1-14.33 5.83c-5.37-.66-8-4.3-7.81-6.75"/><path class="cls-5" d="M163.44 78s1.8 1.82 2.32 2.4-.51 2.54-.57 2.67m-21.3-3.29s.07.94 2.24.89"/><path class="cls-5" d="M143.85 82a2.93 2.93 0 0 1-.78-.83s.29-.58.82-1.4c1-1.61 3-4.15 5.31-5.1 3.53-1.42 11.6-2.69 16 2.48q-.93.5-1.74.84c-3.18 1.42-5.09 1.5-8.65 3.18a19.68 19.68 0 0 1-3.13 1.13c-3 .82-6.14.92-7.81-.3zm-20.13 12c-.28 0-.55-.1-.8-.16a16.46 16.46 0 0 0 14.19 6.16c5.39-.54 8.1-4.13 8-6.58"/><path class="cls-5" d="M137.25 93.57s-8.44 1.41-13.53.48m1.85-5.05s-1.84 1.79-2.37 2.35.45 2.56.52 2.68m21.36-2.82c0 .09-.21.93-2.26.84"/><path class="cls-5" d="M145.07 93.44a2.8 2.8 0 0 0 .79-.82s-.28-.58-.78-1.41c-1-1.63-2.87-4.21-5.2-5.21-3.5-1.5-11.54-2.94-16 2.13.61.34 1.18.63 1.72.88 3.15 1.48 5.06 1.61 8.58 3.36a20.14 20.14 0 0 0 3.1 1.2c2.95.89 6.1 1.05 7.79-.13zM131.44 82s4.13-11.9 13.56-15.78c.05 5.15-.72 9.39-3 12.56S134 84 131.44 82z"/><path class="cls-5" d="M131.44 82a1.71 1.71 0 0 1-.64.11 4 4 0 0 1-1-.11c-1.13-.26-5.65-5-2.75-11.49 2.61-5.85 8.26-9.18 11.52-9.21a3.69 3.69 0 0 1 1 .11 1.7 1.7 0 0 1 .68 1.26 1.25 1.25 0 0 1-.09.53"/><path class="cls-5" d="M130.79 82s-.25-6.22 1.93-10.29 6.28-9.38 7.51-9a.77.77 0 0 1 .61.87 2 2 0 0 1 1.78.16c.48.35.36 2.51.36 2.51h2m-6.4-4.94s-3.5 3.15-4.19 4.91"/><path class="cls-4" d="M118.39 136.81c0 10.59-8.83 16.58-17.67 17a21 21 0 0 1-6.82-1.48 11 11 0 0 0 4.1-8.76c0-7.35-8.64-12.47-9.76-13.42s-.55-2.91-.55-2.91h-1.25c3.81-5.34 9.61-8.87 10.68-9.78a12.93 12.93 0 0 0 2.75-4.2h3.67s-.83 2.83.78 4.2 14.07 8.76 14.07 19.35z"/><path d="M98 143.58a11 11 0 0 1-4.1 8.76 14.06 14.06 0 0 1-8.16 3c-6.13-.3-12.26-4.46-12.26-11.8s8.63-12.47 9.76-13.42a8.83 8.83 0 0 0 1.9-2.91h2.55s-.58 2 .55 2.91S98 136.23 98 143.58zm-12.15 8.11c4.39-.06 8.8-4.67 8.62-8.66s-3.8-8.42-6.65-9.48a5.5 5.5 0 0 0-1.95-.47 4.87 4.87 0 0 0-2.26.47s-7.18 4.15-7 9.5a9.09 9.09 0 0 0 9.24 8.64z" style="fill:#caf5fe"/><path class="cls-3" d="M94.47 143c.18 4-4.23 8.6-8.62 8.66a9.09 9.09 0 0 1-9.26-8.64c-.16-5.35 7-9.5 7-9.5a4.87 4.87 0 0 1 2.26-.47 5.5 5.5 0 0 1 1.95.47c2.87 1.09 6.49 5.53 6.67 9.48zm-2.36 2.2c.21-.48 0-.65-.36-.79s-.63-.21-.83.25a.56.56 0 0 0 .36.79.61.61 0 0 0 .83-.22zm-.46-4.2c.45-.26.35-.54.17-.85s-.39-.53-.82-.28a.56.56 0 0 0-.17.85.61.61 0 0 0 .82.28zm-2.31 1c.22-.47 0-.64-.36-.79s-.63-.2-.83.25a.56.56 0 0 0 .36.79.61.61 0 0 0 .83-.32zm-.63 4c.45-.26.35-.54.17-.85s-.4-.53-.83-.28a.56.56 0 0 0-.17.85.63.63 0 0 0 .83.19zm.14-7c.35-.39.17-.62-.1-.87s-.53-.38-.87 0a.56.56 0 0 0 .1.86.63.63 0 0 0 .87-.08zm-.44 10c.45-.26.35-.54.17-.85s-.39-.54-.82-.29a.57.57 0 0 0-.17.86.62.62 0 0 0 .82.28zm-1.66-5.42c.45-.26.35-.54.17-.85s-.39-.53-.82-.29a.57.57 0 0 0-.17.86.62.62 0 0 0 .82.28zm-.88-7.29c.52 0 .57-.29.57-.66s-.07-.65-.57-.65-.57.29-.57.65a.61.61 0 0 0 .57.66zm.25 3.31c.22-.47 0-.64-.36-.79s-.63-.2-.83.25 0 .64.36.79a.61.61 0 0 0 .83-.25zm-1.85 6.33c.45-.26.35-.54.17-.85s-.39-.53-.82-.28a.56.56 0 0 0-.17.85.62.62 0 0 0 .82.28zm0 2.95c.35-.38.17-.62-.1-.86s-.54-.39-.87 0a.56.56 0 0 0 .1.86.62.62 0 0 0 .87 0zm-.81-6.32c.45-.26.35-.54.17-.85s-.39-.53-.82-.28-.35.53-.17.85a.62.62 0 0 0 .82.28zm-.61-3.56c.45-.26.34-.54.16-.86s-.39-.53-.82-.28a.57.57 0 0 0-.17.86.62.62 0 0 0 .83.28zm-2.36 2.46c.35-.38.17-.62-.1-.86s-.54-.39-.87 0a.56.56 0 0 0 .1.86.61.61 0 0 0 .87.01zm0 4.56c.35-.38.17-.62-.1-.86s-.53-.39-.87 0a.57.57 0 0 0 .1.86.61.61 0 0 0 .85-.02z"/><path class="cls-4" d="M91.75 144.44c.33.14.57.31.36.79a.61.61 0 0 1-.83.25.56.56 0 0 1-.36-.79c.2-.46.5-.4.83-.25zm.07-4.33c.18.31.28.59-.17.85a.61.61 0 0 1-.82-.28.56.56 0 0 1 .17-.85c.43-.25.64-.03.82.28zM89 141.14c.33.15.58.32.36.79a.61.61 0 0 1-.83.25.56.56 0 0 1-.36-.79c.18-.45.48-.39.83-.25zm-.12 3.92c.18.31.28.59-.17.85a.63.63 0 0 1-.83-.28.56.56 0 0 1 .17-.85c.43-.25.64-.04.83.28zm-.13-7.06c.27.25.45.48.1.87a.63.63 0 0 1-.87 0 .56.56 0 0 1-.1-.86c.34-.35.6-.21.87-.01zm-.17 10.15c.18.31.28.59-.17.85a.62.62 0 0 1-.82-.28.57.57 0 0 1 .17-.86c.43-.25.64-.03.82.29zm-1.66-5.42c.18.31.28.59-.17.85a.62.62 0 0 1-.82-.28.57.57 0 0 1 .17-.86c.43-.24.64-.03.82.29zm-.48-7.1c0 .37 0 .66-.57.66a.61.61 0 0 1-.57-.66c0-.36.16-.65.57-.65s.57.29.57.65zm-.68 3.18c.33.15.58.32.36.79a.61.61 0 0 1-.83.25c-.33-.15-.53-.41-.36-.79s.5-.4.83-.25zm-1.32 6.27c.18.31.28.59-.17.85a.62.62 0 0 1-.82-.28.56.56 0 0 1 .17-.85c.43-.25.64-.03.82.28zm-.27 2.92c.27.24.45.48.1.86a.62.62 0 0 1-.87 0 .56.56 0 0 1-.1-.86c.33-.37.6-.23.87 0zm-.54-6.29c.18.31.28.59-.17.85a.62.62 0 0 1-.82-.28c-.18-.32-.19-.65.17-.85s.64-.04.82.28zm-.63-3.56c.18.32.29.6-.16.86a.62.62 0 0 1-.83-.28.57.57 0 0 1 .17-.86c.44-.25.65-.03.82.28zm-2.61 2.46c.27.24.45.48.1.86a.61.61 0 0 1-.87 0 .56.56 0 0 1-.1-.86c.33-.39.6-.25.87 0zm-.02 4.56c.27.24.45.48.1.86a.61.61 0 0 1-.87 0 .57.57 0 0 1-.1-.86c.34-.39.61-.25.87 0z"/><path class="cls-5" d="M86.44 127.25c3.81-5.34 9.61-8.87 10.68-9.78a12.93 12.93 0 0 0 2.75-4.2h3.67s-.83 2.83.78 4.2 14.07 8.75 14.07 19.34-8.83 16.58-17.67 17a21 21 0 0 1-6.82-1.48"/><path class="cls-5" d="M85.74 155.38c-6.13-.3-12.26-4.46-12.26-11.8s8.63-12.47 9.76-13.42a8.83 8.83 0 0 0 1.9-2.91h2.55s-.58 2 .55 2.91S98 136.23 98 143.58a11 11 0 0 1-4.1 8.76 14.06 14.06 0 0 1-8.16 3m14.98-29.96c1.13 7.74.93 16.62 0 26.13m4.36-22.3a35.88 35.88 0 0 1 3 18.79m-.71-22.62a21.35 21.35 0 0 1 6.88 15.56m-15.69-19.32a38.3 38.3 0 0 0-6.56 6.11m3.26 4.54a14.41 14.41 0 0 1 2.31-4.27"/><path class="cls-5" d="M83.61 133.55s-7.18 4.15-7 9.5a9.09 9.09 0 0 0 9.26 8.64c4.39-.06 8.8-4.67 8.62-8.66s-3.8-8.42-6.65-9.48a5.5 5.5 0 0 0-1.95-.47 4.87 4.87 0 0 0-2.28.47z"/></svg>