<svg id="Layer_1" data-name="Layer 1" xmlns="http://www.w3.org/2000/svg" viewBox="0 0 256 256"><defs><style>.cls-1{fill:#0e4e91;}.cls-2{fill:#abe7ff;}.cls-3{fill:#fff;}.cls-4{fill:#2db5ff;}.cls-5,.cls-6{fill:none;}.cls-5,.cls-6,.cls-8{stroke:#0e4e91;stroke-miterlimit:10;}.cls-6,.cls-8{stroke-width:0.5px;}.cls-7,.cls-8{fill:#caf5fe;}</style></defs><path class="cls-1" d="M92.65,207.87l.46-1c1.85.82,3.73,1.59,5.62,2.27l-.4,1.08C96.43,209.48,94.52,208.7,92.65,207.87Zm-4.15-2c-1.82-.92-3.63-1.93-5.36-3l.59-1c1.72,1,3.49,2,5.29,2.94Zm14.2,5.76.33-1.1c1.93.59,3.89,1.12,5.85,1.57l-.26,1.11C106.64,212.78,104.65,212.24,102.7,211.64Zm10.43,2.51.2-1.13c2,.35,4,.63,6,.83l-.12,1.14C117.18,214.79,115.14,214.5,113.13,214.15Zm10.66,1.2.06-1.14c2,.09,4,.13,6.05.09l0,1.14C127.89,215.48,125.82,215.45,123.79,215.35Zm10.72-.13-.08-1.14c2-.15,4-.37,6-.66l.16,1.13C138.59,214.85,136.54,215.07,134.51,215.22Zm-78-37.34c-1.16-1.68-2.27-3.42-3.31-5.18l1-.58c1,1.73,2.12,3.45,3.26,5.11Zm88.64,35.9-.22-1.12c2-.39,4-.86,5.9-1.39l.3,1.1C149.15,212.91,147.15,213.38,145.14,213.78ZM51,168.69c-.94-1.81-1.84-3.67-2.65-5.54l1.05-.46c.8,1.85,1.68,3.68,2.61,5.46ZM155.51,211l-.36-1.09c1.91-.63,3.82-1.33,5.68-2.1l.44,1.06C159.38,209.69,157.44,210.41,155.51,211ZM46.56,158.89c-.71-1.9-1.37-3.86-2-5.82l1.11-.32c.57,1.93,1.22,3.87,1.92,5.73Zm118.92,48.18-.48-1c1.82-.86,3.63-1.79,5.38-2.78l.56,1C169.16,205.25,167.33,206.19,165.48,207.07ZM43.42,148.62c-.48-2-.89-4-1.22-6l1.13-.18c.33,2,.74,4,1.21,5.93Zm131.47,53.26-.62-1c1.7-1.07,3.38-2.22,5-3.42l.68.92C178.32,199.63,176.61,200.79,174.89,201.88ZM41.56,138.06c-.24-2-.4-4.08-.49-6.11l1.15,0c.08,2,.24,4,.47,6Zm142,57.53-.72-.88c1.56-1.28,3.08-2.63,4.54-4l.79.83C186.72,192.93,185.17,194.3,183.59,195.59ZM47.21,96c.68-1.68,1.41-3.37,2.19-5l.29-.61,1,.5-.29.6c-.77,1.61-1.49,3.28-2.16,4.94ZM52.8,86.8l-1-.55c1-1.79,2-3.56,3.14-5.27l1,.62C54.8,83.29,53.76,85,52.8,86.8Zm158.45,63.91c.53-1.94,1-3.93,1.38-5.89l1.12.21c-.39,2-.86,4-1.39,6ZM58.45,77.84l-.92-.67c1.19-1.65,2.46-3.28,3.76-4.84l.88.73C60.88,74.6,59.63,76.21,58.45,77.84Zm154.94,62.51c.29-2,.5-4,.64-6l1.14.08c-.14,2-.36,4.09-.65,6.1ZM65.16,69.66l-.84-.79c1.39-1.49,2.84-3,4.34-4.34l.78.83C68,66.74,66.53,68.18,65.16,69.66ZM214.23,129.8c0-2,0-4-.11-6.05l1.14-.06c.11,2,.15,4.09.12,6.13ZM72.85,62.35l-.73-.88c1.55-1.3,3.19-2.58,4.84-3.78l.67.93C76,59.81,74.39,61.06,72.85,62.35Zm140.91,56.88c-.21-2-.5-4-.85-6L214,113c.36,2,.65,4,.87,6.07ZM81.38,56.06l-.62-1C82.47,54,84.25,52.93,86,52l.54,1C84.82,53.91,83.07,55,81.38,56.06ZM212,108.8c-.46-2-1-3.92-1.58-5.84l1.1-.34c.6,1.94,1.14,3.93,1.6,5.92ZM90.62,50.86l-.5-1c1.83-.89,3.72-1.72,5.61-2.48l.43,1.06C94.29,49.16,92.42,50,90.62,50.86ZM209,98.64c-.69-1.88-1.46-3.76-2.29-5.6l1-.47c.83,1.86,1.61,3.77,2.31,5.69Zm-77.3-56.38,0-1.14c2,.08,4.09.24,6.12.46l-.13,1.14C135.7,42.5,133.67,42.34,131.67,42.26Zm53.68,21.67c-1.5-1.34-3.07-2.63-4.66-3.85l.7-.91c1.62,1.24,3.2,2.55,4.72,3.91ZM142.2,43.34l.18-1.13c2,.34,4,.75,6,1.22l-.26,1.11C146.17,44.08,144.18,43.67,142.2,43.34ZM177,57.4c-1.65-1.14-3.37-2.23-5.11-3.25l.58-1c1.76,1,3.5,2.14,5.18,3.29Zm-24.5-11.68.33-1.1c1.95.58,3.91,1.24,5.82,2l-.4,1.07C156.38,46.94,154.44,46.29,152.51,45.72ZM167.94,52c-1.79-.93-3.63-1.8-5.47-2.6l.45-1.05c1.86.81,3.73,1.7,5.54,2.64Z"/><circle class="cls-2" cx="128.93" cy="128.12" r="67.05"/><path class="cls-3" d="M103.49,152.87l16.69-.13s.38,16.23-16.34,18.93a30.72,30.72,0,0,1-5,.39,35.1,35.1,0,0,1-6.36-.54c-17-3-17-18.19-17-18.43l23.7-.19,2.78,0Z"/><polygon class="cls-4" points="106.89 140.72 106.1 142.1 106.05 142.07 91.56 134.01 45.53 108.4 47.36 105.55 106.89 140.72"/><polygon class="cls-4" points="106.05 142.07 105.85 142.51 103.02 141.26 101.95 140.79 100.94 140.34 42.43 114.54 43.98 111.54 91.56 134.01 106.05 142.07"/><path class="cls-3" d="M105,151.13a1,1,0,0,1-.22,1.25,2.86,2.86,0,0,1-1.28.49h-1.57a2.18,2.18,0,0,0-1.46-1.16,15.55,15.55,0,0,1-1.91-.57,1.71,1.71,0,0,1-1.09-1.52,2.1,2.1,0,0,1,1.11-1.42,3.94,3.94,0,0,0,1.45-1.15,1.88,1.88,0,0,0,.06-1.7,3,3,0,0,0-1.16-1.3c-.43-.27-1-.56-1-1.06s.32-.64.62-.84a6.71,6.71,0,0,1,3.24-1.1l.12-.27,1.06.47-.2.47a3.76,3.76,0,0,0-2.16.39,1.3,1.3,0,0,0-.4,1.9,2.23,2.23,0,0,0,1.35.42,5.53,5.53,0,0,1,1.83.59c.52.27,1,.77.9,1.33s-.58.67-1,.84l-1.78.75c-.52.22-1.1.53-1.18,1.08a1.11,1.11,0,0,0,.57,1.05,3.2,3.2,0,0,0,1.21.36l2,.32A1.4,1.4,0,0,1,105,151.13Z"/><path class="cls-3" d="M104.67,173.26v.3a1.92,1.92,0,0,1-1.92,1.91H93.31a1.92,1.92,0,0,1-1.92-1.91v-.3a1.93,1.93,0,0,1,1.1-1.74,35.1,35.1,0,0,0,6.36.54,30.72,30.72,0,0,0,5-.39A1.94,1.94,0,0,1,104.67,173.26Z"/><path class="cls-3" d="M100.94,140.34l1,.45-.12.27a6.71,6.71,0,0,0-3.24,1.1c-.3.2-.62.47-.62.84s.52.79,1,1.06a3,3,0,0,1,1.16,1.3,1.88,1.88,0,0,1-.06,1.7,3.94,3.94,0,0,1-1.45,1.15,2.1,2.1,0,0,0-1.11,1.42,1.71,1.71,0,0,0,1.09,1.52,15.55,15.55,0,0,0,1.91.57,2.18,2.18,0,0,1,1.46,1.16l-2.78,0v-.22a9.79,9.79,0,0,1-4.53-2c-.65-.51-1.28-1.27-1.08-2.07a2,2,0,0,1,1.66-1.21,17,17,0,0,0,2.16-.26c.7-.21,1.37-.84,1.26-1.56s-.84-1.1-1.53-1.22A8.82,8.82,0,0,1,95,144a1.1,1.1,0,0,1-.69-.75c-.11-.55.41-1,.9-1.29a9.57,9.57,0,0,1,5.58-1.32Z"/><path class="cls-5" d="M92.49,171.52c-17-3-17-18.19-17-18.43l23.7-.19,2.78,0h1.57l16.69-.13s.38,16.23-16.34,18.93"/><path class="cls-5" d="M103.84,171.67a1.94,1.94,0,0,1,.83,1.59v.3a1.92,1.92,0,0,1-1.92,1.91H93.31a1.92,1.92,0,0,1-1.92-1.91v-.3a1.93,1.93,0,0,1,1.1-1.74,35.1,35.1,0,0,0,6.36.54A30.72,30.72,0,0,0,103.84,171.67Z"/><polyline class="cls-5" points="91.56 134.01 45.53 108.4 47.36 105.55 106.89 140.72 106.1 142.1 106.05 142.07"/><polygon class="cls-5" points="106.05 142.07 105.85 142.51 103.02 141.26 101.95 140.79 100.94 140.34 42.43 114.54 43.98 111.54 91.56 134.01 106.05 142.07"/><path class="cls-5" d="M100.81,140.64A9.57,9.57,0,0,0,95.23,142c-.49.28-1,.74-.9,1.29A1.1,1.1,0,0,0,95,144a8.82,8.82,0,0,0,2.06.38c.69.12,1.43.53,1.53,1.22s-.56,1.35-1.26,1.56a17,17,0,0,1-2.16.26,2,2,0,0,0-1.66,1.21c-.2.8.43,1.56,1.08,2.07a9.79,9.79,0,0,0,4.53,2"/><path class="cls-5" d="M102.81,141.73a3.76,3.76,0,0,0-2.16.39,1.3,1.3,0,0,0-.4,1.9,2.23,2.23,0,0,0,1.35.42,5.53,5.53,0,0,1,1.83.59c.52.27,1,.77.9,1.33s-.58.67-1,.84l-1.78.75c-.52.22-1.1.53-1.18,1.08a1.11,1.11,0,0,0,.57,1.05,3.2,3.2,0,0,0,1.21.36l2,.32a1.4,1.4,0,0,1,.88.37,1,1,0,0,1-.22,1.25,2.86,2.86,0,0,1-1.28.49h0"/><path class="cls-5" d="M101.83,141.06a6.71,6.71,0,0,0-3.24,1.1c-.3.2-.62.47-.62.84s.52.79,1,1.06a3,3,0,0,1,1.16,1.3,1.88,1.88,0,0,1-.06,1.7,3.94,3.94,0,0,1-1.45,1.15,2.1,2.1,0,0,0-1.11,1.42,1.71,1.71,0,0,0,1.09,1.52,15.55,15.55,0,0,0,1.91.57,2.18,2.18,0,0,1,1.46,1.16l0,.05"/><path class="cls-3" d="M116.8,88.05l.44,10.11s-3.31,12.92-21.1,13.89c-20.26,1.11-24-11.62-24-11.62l-.8-9.76.21,0c.1.45.22.89.36,1.33,2.43,7.18,11.4,12.5,22.11,12.5s19.68-5.32,22.11-12.5A12.22,12.22,0,0,0,116.8,88.05Z"/><path class="cls-4" d="M111.1,97.54a14.28,14.28,0,0,0,3.75-5.47,11.93,11.93,0,0,0,.54-1.92,11.39,11.39,0,0,0,.19-2.1,11.91,11.91,0,0,0-.23-2.31c-1.55-7.47-10.49-13.21-21.3-13.21S74.37,78.21,72.78,85.65a10.7,10.7,0,0,0-.26,2.4,11.39,11.39,0,0,0,.19,2.1,11.16,11.16,0,0,0,.45,1.67A14.35,14.35,0,0,0,77.51,98c3.94,3.41,9.89,5.59,16.54,5.59C101,103.58,107.15,101.21,111.1,97.54Zm5.7-9.49a12.22,12.22,0,0,1-.64,3.9c-2.43,7.18-11.4,12.5-22.11,12.5S74.37,99.13,71.94,92c-.14-.44-.26-.88-.36-1.33a11.63,11.63,0,0,1-.28-2.57c0-9.06,10.18-16.39,22.75-16.39S116.8,79,116.8,88.05Z"/><path class="cls-3" d="M115.58,88.05a11.39,11.39,0,0,1-.19,2.1,11.93,11.93,0,0,1-.54,1.92l-.08,0a58.82,58.82,0,0,1-11.49,0,5.6,5.6,0,0,0-.81-1.45,6.4,6.4,0,0,0-3-2.11l.1-.27a10.68,10.68,0,0,0,2.86.63,11.79,11.79,0,0,0,4.73-.37A6.46,6.46,0,0,0,110.66,86l.09.06,4.53-.26.07,0A11.91,11.91,0,0,1,115.58,88.05Z"/><path class="cls-3" d="M115.35,85.74l-.07,0-4.53.26-.09-.06.21-.34c1.32-2.42.39-5.66-1.68-7.48s-5.07-2.71-6.5-2.32a9.35,9.35,0,0,0-5.58,3.88l-7.17-.45a8.78,8.78,0,0,0-4-2.26,6.79,6.79,0,0,0-6.29,2.08,9,9,0,0,0-2.25,6.38l-4.58.2c1.59-7.44,10.51-13.12,21.27-13.12S113.8,78.27,115.35,85.74Z"/><path class="cls-3" d="M114.77,92l.08,0a14.28,14.28,0,0,1-3.75,5.47,63.61,63.61,0,0,1-8.59.77,7.19,7.19,0,0,0,.77-6.27A58.82,58.82,0,0,0,114.77,92Z"/><path class="cls-3" d="M109.19,78.14c2.07,1.82,3,5.06,1.68,7.48l-.21.34a6.46,6.46,0,0,1-3.46,2.51,11.79,11.79,0,0,1-4.73.37,10.68,10.68,0,0,1-2.86-.63A5.75,5.75,0,0,1,97.71,87a4.65,4.65,0,0,1-.95-1.26,6.29,6.29,0,0,1,.09-5.64c.08-.15.17-.3.26-.44a9.35,9.35,0,0,1,5.58-3.88C104.12,75.43,107.12,76.33,109.19,78.14Zm1.2,2.88a.32.32,0,0,0,0-.31c-.18,0-.26,0-.31.08s-.06.15,0,.31A.29.29,0,0,0,110.39,81ZM110,85.73a.62.62,0,0,0-.14-.47.66.66,0,0,0-.45-.2.55.55,0,0,0,.14.47A.66.66,0,0,0,110,85.73Zm-2.73-5.86a.52.52,0,0,0-.46-.05.52.52,0,0,0-.32.33.55.55,0,0,0,.46,0A.52.52,0,0,0,107.29,79.87Zm-1.5,7.68a.88.88,0,0,0,0-.52.61.61,0,0,0-.36.93A1,1,0,0,0,105.79,87.55Zm-2.44-4.42a.25.25,0,1,0-.07-.41.52.52,0,0,0-.37.27A.55.55,0,0,0,103.35,83.13Zm-.49-5.8A.38.38,0,0,0,103,77a.41.41,0,0,0-.39,0,.23.23,0,1,0,.27.31Zm-.65,10a.84.84,0,0,0,0-.55.66.66,0,0,0-.4.42.67.67,0,0,0,.06.58A.83.83,0,0,0,102.21,87.32Zm-3.32-2a.54.54,0,0,0-.12-.48.64.64,0,0,0-.28.41.56.56,0,0,0,.12.49A.66.66,0,0,0,98.89,85.33Zm-.14-6.15a.39.39,0,0,0-.46.13.4.4,0,0,0,0,.48.74.74,0,0,0,.34-.23A.72.72,0,0,0,98.75,79.18Z"/><path class="cls-4" d="M110.36,80.71a.32.32,0,0,1,0,.31.29.29,0,0,1-.31.08c-.09-.16-.07-.24,0-.31S110.18,80.68,110.36,80.71Z"/><path class="cls-4" d="M109.88,85.26a.62.62,0,0,1,.14.47.66.66,0,0,1-.45-.2.55.55,0,0,1-.14-.47A.66.66,0,0,1,109.88,85.26Z"/><path class="cls-4" d="M106.83,79.82a.52.52,0,0,1,.46.05.52.52,0,0,1-.32.33.55.55,0,0,1-.46,0A.52.52,0,0,1,106.83,79.82Z"/><path class="cls-4" d="M105.82,87a.88.88,0,0,1,0,.52,1,1,0,0,1-.33.41.61.61,0,0,1,.36-.93Z"/><path class="cls-3" d="M111.1,97.54c-3.95,3.67-10.12,6-17,6-6.65,0-12.6-2.18-16.54-5.59l.36-.07,11.31.35a4.82,4.82,0,0,0,.35.63,6.09,6.09,0,0,0,3,2.22,8.72,8.72,0,0,0,9-1.69,6.55,6.55,0,0,0,.91-1.12A63.61,63.61,0,0,0,111.1,97.54Z"/><path class="cls-3" d="M89.18,98.27a6,6,0,0,1-.48-2.87,7.41,7.41,0,0,1,1.14-3.56,8.08,8.08,0,0,1,5.32-3.75,8.62,8.62,0,0,1,4.35.39,6.4,6.4,0,0,1,3,2.11,5.6,5.6,0,0,1,.81,1.45,7.19,7.19,0,0,1-.77,6.27,6.55,6.55,0,0,1-.91,1.12,8.72,8.72,0,0,1-9,1.69,6.09,6.09,0,0,1-3-2.22A4.82,4.82,0,0,1,89.18,98.27Zm13.89-4a.65.65,0,0,0-.64-.08.68.68,0,0,0-.45.48,1.42,1.42,0,0,0,.59-.1A1.28,1.28,0,0,0,103.07,94.24ZM99.84,91a.85.85,0,0,0,.07-.6.86.86,0,0,0-.44.42.88.88,0,0,0-.07.61A.84.84,0,0,0,99.84,91ZM97.4,96a.67.67,0,0,0,0-.54.73.73,0,0,0-.37.39.29.29,0,1,0,.37.15ZM97,100.72a.44.44,0,0,1-.06-.21.2.2,0,0,0-.2-.05.16.16,0,0,0-.11.1.14.14,0,0,0,0,.15.15.15,0,0,0,.16.11C97,100.72,97,100.74,97,100.72Zm-2-8.77a1.11,1.11,0,0,0-.14-.69,1.18,1.18,0,0,0-.27.65,1.08,1.08,0,0,0,.13.69A1.08,1.08,0,0,0,95.07,92Zm-1,7.65a.78.78,0,0,0-.52-.16.75.75,0,0,0-.48.26.69.69,0,0,0,.52.15A.67.67,0,0,0,94.1,99.6Zm-2.49-8.36A.45.45,0,0,0,91.9,91a.41.41,0,0,0-.39-.11.45.45,0,0,0-.3.28A.5.5,0,0,0,91.61,91.24Zm-.8,4.6a.74.74,0,0,0-.55-.12.77.77,0,0,0-.49.29.72.72,0,0,0,.55.11A.78.78,0,0,0,90.81,95.84Z"/><path class="cls-4" d="M103.7,82.86a.51.51,0,0,1-.35.27.55.55,0,0,1-.44-.14.52.52,0,0,1,.37-.27A.52.52,0,0,1,103.7,82.86Z"/><path class="cls-4" d="M103,77a.36.36,0,1,1-.39,0A.41.41,0,0,1,103,77Z"/><path class="cls-4" d="M102.43,94.16a.65.65,0,0,1,.64.08,1.28,1.28,0,0,1-.5.3,1.42,1.42,0,0,1-.59.1A.68.68,0,0,1,102.43,94.16Z"/><path class="cls-4" d="M102.23,86.77a.84.84,0,0,1,0,.55.83.83,0,0,1-.32.45.67.67,0,0,1-.06-.58A.66.66,0,0,1,102.23,86.77Z"/><path class="cls-4" d="M99.91,90.37a.85.85,0,0,1-.07.6.84.84,0,0,1-.44.43.88.88,0,0,1,.07-.61A.86.86,0,0,1,99.91,90.37Z"/><path class="cls-3" d="M99.61,88.21l-.1.27a8.62,8.62,0,0,0-4.35-.39,8.08,8.08,0,0,0-5.32,3.75l-.06,0c-1.75.07-3.5.11-5.26.13v-1a8.52,8.52,0,0,0,5.36-1.78,6.13,6.13,0,0,0,1.95-3.21,16.06,16.06,0,0,1,4.94-.16A4.65,4.65,0,0,0,97.71,87,5.75,5.75,0,0,0,99.61,88.21Z"/><path class="cls-4" d="M98.77,84.85a.54.54,0,0,1,.12.48.66.66,0,0,1-.28.42.56.56,0,0,1-.12-.49A.64.64,0,0,1,98.77,84.85Z"/><path class="cls-4" d="M98.29,79.31a.39.39,0,0,1,.46-.13.72.72,0,0,1-.14.38.74.74,0,0,1-.34.23A.4.4,0,0,1,98.29,79.31Z"/><path class="cls-4" d="M97.4,95.42a.73.73,0,1,1-.37.39A.73.73,0,0,1,97.4,95.42Z"/><path class="cls-3" d="M97.11,79.7c-.09.14-.18.29-.26.44a6.29,6.29,0,0,0-.09,5.64,16.06,16.06,0,0,0-4.94.16,6.87,6.87,0,0,0-.27-4.32,7.26,7.26,0,0,0-1.61-2.37Z"/><path class="cls-4" d="M97,100.51a.44.44,0,0,0,.06.21s0,0-.2.1a.15.15,0,0,1-.16-.11.14.14,0,0,1,0-.15.16.16,0,0,1,.11-.1A.2.2,0,0,1,97,100.51Z"/><path class="cls-4" d="M94.93,91.26a1.11,1.11,0,0,1,.14.69,1.08,1.08,0,0,1-.28.65,1.08,1.08,0,0,1-.13-.69A1.18,1.18,0,0,1,94.93,91.26Z"/><path class="cls-4" d="M93.58,99.44a.78.78,0,0,1,.52.16.67.67,0,0,1-.48.25.69.69,0,0,1-.52-.15A.75.75,0,0,1,93.58,99.44Z"/><path class="cls-3" d="M91.82,85.94a6.13,6.13,0,0,1-1.95,3.21,8.52,8.52,0,0,1-5.36,1.78,15.22,15.22,0,0,1-1.79-.07A6.39,6.39,0,0,1,79,89.63a5.55,5.55,0,0,1-1.66-4.18,9,9,0,0,1,2.25-6.38A6.79,6.79,0,0,1,85.9,77a8.78,8.78,0,0,1,4,2.26,7.26,7.26,0,0,1,1.61,2.37A6.87,6.87,0,0,1,91.82,85.94Zm-1.21.68a.46.46,0,0,0-.15-.31.32.32,0,0,0-.26.29.34.34,0,0,0,.23.32A.45.45,0,0,0,90.61,86.62ZM90.19,81a.56.56,0,0,0-.11-.48.6.6,0,0,0-.29.41.58.58,0,0,0,.12.47A.49.49,0,0,0,90.19,81Zm-3.37,8.42a.72.72,0,0,0,.14-.36.77.77,0,0,0-.15-.35.37.37,0,0,0,0,.71ZM86.33,79a.34.34,0,0,0,.25-.24c-.12-.15-.22-.18-.31-.17a.34.34,0,0,0-.25.24A.34.34,0,0,0,86.33,79Zm-.56,5.57a.39.39,0,0,0-.12-.3.33.33,0,0,0-.29.24.3.3,0,0,0,.2.32C85.71,84.69,85.75,84.62,85.77,84.54Zm-2,4.86a.66.66,0,0,0-.1-.34.33.33,0,0,0-.31.31.33.33,0,0,0,.26.36A.73.73,0,0,0,83.74,89.4Zm-1.51-8c-.09-.16-.16-.21-.25-.22a.32.32,0,0,0-.27.2c.08.17.17.2.26.21S82.14,81.56,82.23,81.4ZM80,79.54a.4.4,0,0,0-.32-.23.38.38,0,0,0-.34.19.42.42,0,0,0,.31.22A.41.41,0,0,0,80,79.54Zm-1,7.28.28-1-.62.78a3.58,3.58,0,0,0-.43.91s0,0,0,0l.15-.11.19-.15.19-.16.1-.09,0-.06A.23.23,0,0,0,79,86.82Zm-.13-4.69a.5.5,0,0,0-.49-.21.52.52,0,0,0-.42.34,1,1,0,0,0,.48.07A1,1,0,0,0,78.89,82.13Z"/><path class="cls-4" d="M91.9,91a.45.45,0,0,1-.29.29.5.5,0,0,1-.4-.12.45.45,0,0,1,.3-.28A.41.41,0,0,1,91.9,91Z"/><path class="cls-4" d="M90.46,86.31a.46.46,0,0,1,.15.31.45.45,0,0,1-.18.3.34.34,0,0,1-.23-.32A.32.32,0,0,1,90.46,86.31Z"/><path class="cls-4" d="M90.26,95.72a.74.74,0,0,1,.55.12.78.78,0,0,1-.49.28.72.72,0,0,1-.55-.11A.77.77,0,0,1,90.26,95.72Z"/><path class="cls-4" d="M90.08,80.53a.56.56,0,0,1,.11.48.49.49,0,0,1-.28.4.58.58,0,0,1-.12-.47A.6.6,0,0,1,90.08,80.53Z"/><path class="cls-3" d="M89.78,91.8l.06,0A7.41,7.41,0,0,0,88.7,95.4a6,6,0,0,0,.48,2.87l-11.31-.35-.36.07a14.35,14.35,0,0,1-4.35-6.17l.17,0q5.6.23,11.19.16C86.28,91.91,88,91.87,89.78,91.8Z"/><path class="cls-4" d="M87,89.07a.72.72,0,0,1-.14.36.37.37,0,0,1,0-.71A.77.77,0,0,1,87,89.07Z"/><path class="cls-4" d="M86.58,78.73a.34.34,0,0,1-.25.24A.34.34,0,0,1,86,78.8a.34.34,0,0,1,.25-.24C86.36,78.55,86.46,78.58,86.58,78.73Z"/><path class="cls-4" d="M85.65,84.24a.39.39,0,0,1,.12.3c0,.08-.06.15-.21.26a.3.3,0,0,1-.2-.32A.33.33,0,0,1,85.65,84.24Z"/><path class="cls-3" d="M84.51,90.93v1q-5.59.06-11.19-.16l-.17,0a11.16,11.16,0,0,1-.45-1.67,11.39,11.39,0,0,1-.19-2.1,10.7,10.7,0,0,1,.26-2.4l4.58-.2A5.55,5.55,0,0,0,79,89.63a6.39,6.39,0,0,0,3.7,1.23A15.22,15.22,0,0,0,84.51,90.93Z"/><path class="cls-4" d="M83.64,89.06a.66.66,0,0,1,.1.34.73.73,0,0,1-.15.33.33.33,0,0,1-.26-.36A.33.33,0,0,1,83.64,89.06Z"/><path class="cls-4" d="M82,81.18c.09,0,.16.06.25.22-.09.16-.17.19-.26.19s-.18,0-.26-.21A.32.32,0,0,1,82,81.18Z"/><path class="cls-4" d="M79.68,79.31a.4.4,0,0,1,.32.23.41.41,0,0,1-.35.18.42.42,0,0,1-.31-.22A.38.38,0,0,1,79.68,79.31Z"/><path class="cls-4" d="M78.81,86.82s0,0,0,0l-.15-.07s0-.06,0,0h0v0l0,.1-.1.21-.11.22a.51.51,0,0,0-.07.15l0,.07a3.58,3.58,0,0,1,.43-.91l.62-.78-.28,1a.23.23,0,0,1,0,.12l-.18-.08S78.81,86.83,78.81,86.82Z"/><path class="cls-4" d="M78.79,86.86l.18.08a3.08,3.08,0,0,0-.68.57A7.57,7.57,0,0,0,78.79,86.86Z"/><path class="cls-4" d="M79,86.94l0,.06-.1.09-.19.16-.19.15-.15.11A3.08,3.08,0,0,1,79,86.94Z"/><path class="cls-4" d="M78.81,86.82s0,0,0,0h0S78.79,86.82,78.81,86.82Z"/><path class="cls-4" d="M78.78,86.85h0a7.57,7.57,0,0,1-.5.65s0,0,0,0l0-.07A2.45,2.45,0,0,1,78.78,86.85Z"/><path class="cls-4" d="M78.63,86.78l.15.07a2.45,2.45,0,0,0-.48.63.51.51,0,0,1,.07-.15l.11-.22.1-.21,0-.1Z"/><path class="cls-4" d="M78.62,86.77s0,0,0,0Z"/><path class="cls-4" d="M78.4,81.92a.5.5,0,0,1,.49.21,1,1,0,0,1-.43.2,1,1,0,0,1-.48-.07A.52.52,0,0,1,78.4,81.92Z"/><path class="cls-5" d="M116.8,88.05c0-9.06-10.18-16.39-22.75-16.39S71.3,79,71.3,88.05a11.63,11.63,0,0,0,.28,2.57c.1.45.22.89.36,1.33,2.43,7.18,11.4,12.5,22.11,12.5s19.68-5.32,22.11-12.5A12.22,12.22,0,0,0,116.8,88.05Z"/><path class="cls-5" d="M71.37,90.67l.8,9.76s3.71,12.73,24,11.62c17.79-1,21.1-13.89,21.1-13.89l-.44-10.11"/><path class="cls-5" d="M89.94,79.25a8.78,8.78,0,0,0-4-2.26,6.79,6.79,0,0,0-6.29,2.08,9,9,0,0,0-2.25,6.38A5.55,5.55,0,0,0,79,89.63a6.39,6.39,0,0,0,3.7,1.23,15.22,15.22,0,0,0,1.79.07,8.52,8.52,0,0,0,5.36-1.78,6.13,6.13,0,0,0,1.95-3.21,6.87,6.87,0,0,0-.27-4.32A7.26,7.26,0,0,0,89.94,79.25Z"/><path class="cls-5" d="M99.51,88.48a8.62,8.62,0,0,0-4.35-.39,8.08,8.08,0,0,0-5.32,3.75A7.41,7.41,0,0,0,88.7,95.4a6,6,0,0,0,.48,2.87,4.82,4.82,0,0,0,.35.63,6.09,6.09,0,0,0,3,2.22,8.72,8.72,0,0,0,9-1.69,6.55,6.55,0,0,0,.91-1.12,7.19,7.19,0,0,0,.77-6.27,5.6,5.6,0,0,0-.81-1.45A6.4,6.4,0,0,0,99.51,88.48Z"/><path class="cls-5" d="M110.66,86l.21-.34c1.32-2.42.39-5.66-1.68-7.48s-5.07-2.71-6.5-2.32a9.35,9.35,0,0,0-5.58,3.88c-.09.14-.18.29-.26.44a6.29,6.29,0,0,0-.09,5.64A4.65,4.65,0,0,0,97.71,87a5.75,5.75,0,0,0,1.9,1.17,10.68,10.68,0,0,0,2.86.63,11.79,11.79,0,0,0,4.73-.37A6.46,6.46,0,0,0,110.66,86Z"/><path class="cls-6" d="M73.33,91.77q5.6.23,11.19.16c1.76,0,3.51-.06,5.26-.13"/><path class="cls-6" d="M103.28,92a58.82,58.82,0,0,0,11.49,0"/><path class="cls-6" d="M77.53,85.44h-.17l-4.58.2"/><path class="cls-6" d="M96.76,85.78a16.06,16.06,0,0,0-4.94.16h0"/><path class="cls-6" d="M110.75,86l4.53-.26"/><path class="cls-5" d="M97.11,79.7l-7.17-.45"/><path class="cls-6" d="M77.87,97.92l11.31.35h.09"/><path class="cls-6" d="M111.19,97.53h-.09a63.61,63.61,0,0,1-8.59.77"/><path class="cls-3" d="M150.64,154.85c.08,2,0,24.47,0,33a3.24,3.24,0,0,1-3.24,3.24h-12.1a3.25,3.25,0,0,1-3.24-3.24c0-8.5-.07-30.94,0-33,.35-4,5.4-6.51,5.64-9.26,0-1.58-.27-6.57-.17-8.18a5.21,5.21,0,0,1,.66-2.28h6.3a5.21,5.21,0,0,1,.66,2.28c.1,1.61-.2,6.6-.17,8.18C145.24,148.34,150.29,150.85,150.64,154.85Z"/><path class="cls-4" d="M145.23,128.5v5.84a.78.78,0,0,1-.72.78h-6.3a.78.78,0,0,1-.78-.79V128.5a.78.78,0,0,1,.78-.78h6.24A.78.78,0,0,1,145.23,128.5Z"/><path class="cls-5" d="M144.51,135.12h-6.3a.78.78,0,0,1-.78-.79V128.5a.78.78,0,0,1,.78-.78h6.24a.78.78,0,0,1,.78.78v5.84A.78.78,0,0,1,144.51,135.12Z"/><path class="cls-5" d="M141,191.06h-5.66a3.25,3.25,0,0,1-3.24-3.24c0-8.5-.07-30.94,0-33,.35-4,5.4-6.51,5.64-9.26,0-1.58-.27-6.57-.17-8.18a5.21,5.21,0,0,1,.66-2.28"/><path class="cls-5" d="M141,191.06h6.44a3.24,3.24,0,0,0,3.24-3.24c0-8.5.07-30.94,0-33-.35-4-5.4-6.51-5.64-9.26,0-1.58.27-6.57.17-8.18a5.21,5.21,0,0,0-.66-2.28"/><path class="cls-4" d="M146.07,161.53a3.85,3.85,0,0,1,1.7,3.08,3.69,3.69,0,0,1-.4.09l-.7.56s-.13,4.48-4.35,4.31c-2.63-.09-3.36-1.11-3.36-1.11s-.75,1.29-3.55.3a1.29,1.29,0,0,0,.79-.43c.21-.35.61-1.46,1.82-1.38a1.7,1.7,0,0,1-.29-1.66,2,2,0,0,0,.16-1.5,2.55,2.55,0,0,1,1.86,2.83s1.2.68,1.79-.24a3.06,3.06,0,0,0,.48-1.88,1.15,1.15,0,0,1-1.34-.46s-1.06,0-1.24-.5c0-.32.37-.45.55-.7-.69,0-1.59-.6-1.49-1.27a.82.82,0,0,1,.82-.79s1.31-2.22,3.53-1.85A3.74,3.74,0,0,1,146.07,161.53Z"/><path class="cls-4" d="M137.89,163.79h0"/><path class="cls-4" d="M137.89,163.79a2.55,2.55,0,0,1,1.86,2.83s1.2.68,1.79-.24a3.06,3.06,0,0,0,.48-1.88,1.15,1.15,0,0,1-1.34-.46s-1.06,0-1.24-.5c0-.32.37-.45.55-.7-.69,0-1.59-.6-1.49-1.27a.82.82,0,0,1,.82-.79s1.31-2.22,3.53-1.85a3.74,3.74,0,0,1,3.22,2.6,3.85,3.85,0,0,1,1.7,3.08,3.69,3.69,0,0,1-.4.09l-.7.56s-.13,4.48-4.35,4.31c-2.63-.09-3.36-1.11-3.36-1.11s-.75,1.29-3.55.3a1.29,1.29,0,0,0,.79-.43c.21-.35.61-1.46,1.82-1.38a1.7,1.7,0,0,1-.29-1.66A2,2,0,0,0,137.89,163.79Z"/><path class="cls-1" d="M138.41,175.46h1.28v.24h-1v.75h.85v.24h-.85v1h-.28Z"/><path class="cls-1" d="M140.09,175.46h.28v2.23h-.28Z"/><path class="cls-1" d="M140.82,177.4l.17-.2a.87.87,0,0,0,.62.28c.29,0,.46-.14.46-.36s-.16-.3-.37-.4l-.32-.13a.6.6,0,0,1,.25-1.17.93.93,0,0,1,.66.27l-.15.19a.72.72,0,0,0-.51-.21c-.25,0-.41.12-.41.32s.19.3.37.37l.31.14a.62.62,0,0,1,.46.6.67.67,0,0,1-.76.63A1.1,1.1,0,0,1,140.82,177.4Z"/><path class="cls-1" d="M142.8,175.46h.29v.93h1v-.93h.29v2.23h-.29v-1.05h-1v1.05h-.29Z"/><path class="cls-1" d="M137.12,181.49l.17-.2a.85.85,0,0,0,.61.28c.29,0,.47-.15.47-.36s-.16-.3-.37-.4l-.32-.14a.64.64,0,0,1-.46-.57.65.65,0,0,1,.71-.6,1,1,0,0,1,.66.28l-.16.18a.69.69,0,0,0-.5-.21c-.25,0-.42.13-.42.33s.19.29.37.37l.32.14a.61.61,0,0,1,.46.59.67.67,0,0,1-.76.64A1.08,1.08,0,0,1,137.12,181.49Z"/><path class="cls-1" d="M139.56,179.54h.32l.75,2.24h-.3l-.21-.68h-.82l-.21.68h-.29Zm-.18,1.33h.67l-.11-.34c-.08-.25-.15-.5-.22-.75h0c-.07.25-.14.5-.22.75Z"/><path class="cls-1" d="M140.89,180.85v-1.31h.28v1.32c0,.54.23.71.52.71s.53-.17.53-.71v-1.32h.27v1.31c0,.72-.34,1-.8,1S140.89,181.57,140.89,180.85Z"/><path class="cls-1" d="M143,180.66a1,1,0,0,1,1-1.16.8.8,0,0,1,.61.28l-.16.18a.6.6,0,0,0-.45-.21c-.42,0-.7.35-.7.9s.27.92.69.92a.72.72,0,0,0,.52-.25l.15.17a.83.83,0,0,1-.68.33C143.38,181.82,143,181.39,143,180.66Z"/><path class="cls-1" d="M145,179.54h1.28v.24h-1v.7h.85v.25h-.85v.81h1v.24H145Z"/><path class="cls-4" d="M188.78,165.58a8.7,8.7,0,0,1-.31,3.06,3.57,3.57,0,0,1-1.84,2.09,39.85,39.85,0,0,1-14.88.5,9.23,9.23,0,0,1-3.84-1.3,4.61,4.61,0,0,1-1.94-3,111.64,111.64,0,0,1,1-16,51.18,51.18,0,0,1,2.56-9.07c.22-.61.43-1.24.63-1.86l.26.1a1,1,0,0,1,0,.14l.16-.22a1.47,1.47,0,0,0,.19.57,1.61,1.61,0,0,0,1.12.53,42.43,42.43,0,0,0,10.44.48c.58,0,1.3-.23,1.45-.86a1.07,1.07,0,0,0-.08-.66l.42-.2c.89,2.33,1.9,4.62,2.63,7C188.56,152.84,188.69,159.27,188.78,165.58Z"/><path class="cls-3" d="M184.29,123.34a.26.26,0,0,1,.06.31.18.18,0,0,0,0,.07,0,0,0,0,0,0,0h0c-.41.21-.84.39-1.27.56a1.19,1.19,0,0,0,.21-.73,9.91,9.91,0,0,0-6.12-2.12,11.46,11.46,0,0,0-5.39,1.52,1.11,1.11,0,0,0-.44,1.34l0,.08q-.66-.24-1.29-.54l-.06,0-.1-.18a.33.33,0,0,1,.12-.35,11.64,11.64,0,0,1,14.34.06Z"/><path class="cls-3" d="M184.25,123.75h0c-2.43,3-2.61,7.61-1.66,11.54a38,38,0,0,0,1.47,4.57l-.42.2a1.21,1.21,0,0,0-.28-.38,2.22,2.22,0,0,0-.95-.49,22.76,22.76,0,0,0-7.45-.66,9.53,9.53,0,0,0-2.5.26,3.73,3.73,0,0,0-1.94,1.21c0-.11,0-.13-.12.08l-.26-.1a32.07,32.07,0,0,0,1.62-7.31,16.08,16.08,0,0,0-1.86-8.85l.06,0q.63.3,1.29.54c.22.6.42,1.21.61,1.83a21,21,0,0,1,.69,3,2.55,2.55,0,0,0,.51,1.43,1.8,1.8,0,0,0,1.09.42,21,21,0,0,0,5.66,0,2.2,2.2,0,0,0,1.06-.33,2.3,2.3,0,0,0,.78-1.7c.06-.65,0-1.32,0-2a4.24,4.24,0,0,1,1.23-2.75.25.25,0,0,0,0-.07C183.41,124.14,183.84,124,184.25,123.75Z"/><path class="cls-4" d="M183.67,140.05a1.07,1.07,0,0,1,.08.66c-.15.63-.87.81-1.45.86a42.43,42.43,0,0,1-10.44-.48,1.61,1.61,0,0,1-1.12-.53,1.47,1.47,0,0,1-.19-.57,3.73,3.73,0,0,1,1.94-1.21,9.53,9.53,0,0,1,2.5-.26,22.76,22.76,0,0,1,7.45.66,2.22,2.22,0,0,1,.95.49A1.21,1.21,0,0,1,183.67,140.05Z"/><path class="cls-4" d="M183.19,123.58a1.19,1.19,0,0,1-.21.73,16.23,16.23,0,0,1-11.7.09l0-.08a1.11,1.11,0,0,1,.44-1.34,11.46,11.46,0,0,1,5.39-1.52A9.91,9.91,0,0,1,183.19,123.58Z"/><path class="cls-4" d="M183,124.31a.25.25,0,0,1,0,.07,4.24,4.24,0,0,0-1.23,2.75c-.05.65,0,1.32,0,2a2.3,2.3,0,0,1-.78,1.7,2.2,2.2,0,0,1-1.06.33,21,21,0,0,1-5.66,0,1.8,1.8,0,0,1-1.09-.42,2.55,2.55,0,0,1-.51-1.43,21,21,0,0,0-.69-3c-.19-.62-.39-1.23-.61-1.83A16.23,16.23,0,0,0,183,124.31Z"/><path class="cls-5" d="M169.82,123.61v0l.1.18a16.08,16.08,0,0,1,1.86,8.85,32.07,32.07,0,0,1-1.62,7.31c-.2.62-.41,1.25-.63,1.86A51.18,51.18,0,0,0,167,150.9a111.64,111.64,0,0,0-1,16v.24"/><path class="cls-5" d="M184.28,123.74c-2.43,3-2.61,7.61-1.66,11.54a38,38,0,0,0,1.47,4.57c.89,2.33,1.9,4.62,2.63,7,1.84,6,2,12.4,2.06,18.71a8.7,8.7,0,0,1-.31,3.06,3.57,3.57,0,0,1-1.84,2.09,39.85,39.85,0,0,1-14.88.5,9.23,9.23,0,0,1-3.84-1.3,4.61,4.61,0,0,1-1.94-3,4.05,4.05,0,0,1,0-.7"/><path class="cls-5" d="M184.44,123.54l-.09.11a.18.18,0,0,0,0,.07"/><path class="cls-5" d="M183,124.31c.43-.17.86-.35,1.27-.56h0a0,0,0,0,1,0,0,.18.18,0,0,0,0-.07.26.26,0,0,0-.06-.31,11.64,11.64,0,0,0-14.34-.06.33.33,0,0,0-.12.35.32.32,0,0,0,.1.18l.06,0q.63.3,1.29.54A16.23,16.23,0,0,0,183,124.31Z"/><path class="cls-5" d="M170.43,140.07a1,1,0,0,1,0,.14l.16-.22a3.73,3.73,0,0,1,1.94-1.21,9.53,9.53,0,0,1,2.5-.26,22.76,22.76,0,0,1,7.45.66,2.22,2.22,0,0,1,.95.49,1.21,1.21,0,0,1,.28.38,1.07,1.07,0,0,1,.08.66c-.15.63-.87.81-1.45.86a42.43,42.43,0,0,1-10.44-.48,1.61,1.61,0,0,1-1.12-.53,1.47,1.47,0,0,1-.19-.57C170.53,139.88,170.51,139.86,170.43,140.07Z"/><path class="cls-5" d="M183,124.31a1.19,1.19,0,0,0,.21-.73,9.91,9.91,0,0,0-6.12-2.12,11.46,11.46,0,0,0-5.39,1.52,1.11,1.11,0,0,0-.44,1.34l0,.08c.22.6.42,1.21.61,1.83a21,21,0,0,1,.69,3,2.55,2.55,0,0,0,.51,1.43,1.8,1.8,0,0,0,1.09.42,21,21,0,0,0,5.66,0,2.2,2.2,0,0,0,1.06-.33,2.3,2.3,0,0,0,.78-1.7c.06-.65,0-1.32,0-2a4.24,4.24,0,0,1,1.23-2.75A.25.25,0,0,0,183,124.31Z"/><path id="Shape" class="cls-3" d="M173.14,155.74c.5,0,.92.31.92.68a.46.46,0,1,0,.91,0,1.84,1.84,0,1,0-1.83,1.6c.5,0,.92.31.92.69s-.42.68-.92.68-.91-.31-.91-.68a.46.46,0,1,0-.91,0,1.84,1.84,0,1,0,1.82-1.6c-.49,0-.91-.32-.91-.69S172.65,155.74,173.14,155.74Z"/><path id="Shape-2" data-name="Shape" class="cls-3" d="M177.25,154.83a1.81,1.81,0,0,0-1.82,1.82v1.83a1.83,1.83,0,0,0,3.65,0v-1.83A1.82,1.82,0,0,0,177.25,154.83Zm.91,3.65a.91.91,0,1,1-1.82,0v-1.83a.91.91,0,1,1,1.82,0Z"/><path id="Shape-3" data-name="Shape" class="cls-3" d="M183,154.89a.45.45,0,0,0-.62.16l-1,1.63-1-1.63a.45.45,0,0,0-.62-.15.46.46,0,0,0-.16.62l1.3,2.17v2.16a.46.46,0,0,0,.92,0v-2.16l1.3-2.17a.46.46,0,0,0-.16-.63Z"/><ellipse class="cls-3" cx="161.76" cy="97.1" rx="25.37" ry="18.61"/><ellipse class="cls-5" cx="161.76" cy="97.1" rx="25.37" ry="18.61"/><ellipse class="cls-3" cx="161.4" cy="93.87" rx="25.37" ry="18.61"/><ellipse class="cls-5" cx="161.4" cy="93.87" rx="25.37" ry="18.61"/><path class="cls-3" d="M158.35,80.55a.85.85,0,0,0,0-.17,2.34,2.34,0,0,1,.38-1,1.55,1.55,0,0,1,.21-.23q.21-.19.42-.36l.46-.39a1.91,1.91,0,0,1,.79-.4l.16,0a1.12,1.12,0,0,0,.72-.26,1.38,1.38,0,0,1,.47-.33,1,1,0,0,1,.39,0c.6.07,1.19-.16,1.79-.15a1.11,1.11,0,0,1,.64.16c.08,0,.15.12.23.16a1,1,0,0,0,.47,0,1.72,1.72,0,0,1,.94.25,4,4,0,0,1,1.16,1.39.62.62,0,0,0,.24.24l.2.07a.43.43,0,0,1,.13.19,2.39,2.39,0,0,1,.2,1v.14h0a2.38,2.38,0,0,1-.22.86.6.6,0,0,1-.23.29,1.75,1.75,0,0,1-.24.11c-.17.1-.26.3-.4.45a1.3,1.3,0,0,1-1,.26,1.15,1.15,0,0,0-.61,0l-.26.17a1.42,1.42,0,0,1-.89,0,.79.79,0,0,0-.43,0,2.4,2.4,0,0,1-.23.11c-.22.07-.47-.1-.69,0l-.21.12a.41.41,0,0,1-.4,0c-.08,0-.14-.12-.23-.14s-.3.06-.43,0a.84.84,0,0,1-.18-.15.66.66,0,0,0-.46,0,1.23,1.23,0,0,1-1.06-.33c-.13-.13-.26-.3-.45-.29a.69.69,0,0,1-.2,0,.39.39,0,0,1-.23-.15,9.92,9.92,0,0,1-.63-.79,1.37,1.37,0,0,1-.33-.71.81.81,0,0,1,0-.22Zm7.36.29a1.62,1.62,0,0,0-.44-1.32c-.11-.12-.24-.22-.36-.33a3.41,3.41,0,0,1-.58-.62c-.05-.07-.11-.22-.21-.23a1.12,1.12,0,0,0-.43.1l-.51.14a5.92,5.92,0,0,0-1.23.48,1.42,1.42,0,0,0-.29.21.82.82,0,0,0-.25.61,1.65,1.65,0,0,0,.13.47.46.46,0,0,0,.08.13.54.54,0,0,0,.19.08.53.53,0,0,1,.23.19,1,1,0,0,1,.1.18.7.7,0,0,0,.85.27,3.62,3.62,0,0,1,.43-.24,1.14,1.14,0,0,1,.55,0,3,3,0,0,0,.84,0A2.52,2.52,0,0,1,165.71,80.84Z"/><path class="cls-4" d="M168.39,80.91c0,.5-.07,2.16-.08,2.83s0,1.44,0,2.52a1.87,1.87,0,0,1-.76,1.49l-.5.51a5,5,0,0,1-2.65.88,8.3,8.3,0,0,1-1.34.15,8.87,8.87,0,0,1-3.75-1.14,4,4,0,0,1-.84-1c-.34-.52-.08-1.76-.22-3.43-.26-2.56.1-3.07.14-3.12a.81.81,0,0,0,0,.22,1.37,1.37,0,0,0,.33.71,9.92,9.92,0,0,0,.63.79.39.39,0,0,0,.23.15.69.69,0,0,0,.2,0c.19,0,.32.16.45.29a1.23,1.23,0,0,0,1.06.33.66.66,0,0,1,.46,0,.84.84,0,0,0,.18.15c.13.07.29,0,.43,0s.15.1.23.14a.41.41,0,0,0,.4,0l.21-.12c.22-.08.47.09.69,0a2.4,2.4,0,0,0,.23-.11.79.79,0,0,1,.43,0,1.42,1.42,0,0,0,.89,0l.26-.17a1.15,1.15,0,0,1,.61,0,1.3,1.3,0,0,0,1-.26c.14-.15.23-.35.4-.45a1.75,1.75,0,0,0,.24-.11.6.6,0,0,0,.23-.29A2.38,2.38,0,0,0,168.39,80.91Z"/><path class="cls-7" d="M165.27,79.52a1.62,1.62,0,0,1,.44,1.32,2.52,2.52,0,0,0-.9.1,3,3,0,0,1-.84,0,1.14,1.14,0,0,0-.55,0,3.62,3.62,0,0,0-.43.24.7.7,0,0,1-.85-.27,1,1,0,0,0-.1-.18.53.53,0,0,0-.23-.19.54.54,0,0,1-.19-.08.46.46,0,0,1-.08-.13,1.65,1.65,0,0,1-.13-.47.82.82,0,0,1,.25-.61,1.42,1.42,0,0,1,.29-.21,5.92,5.92,0,0,1,1.23-.48l.51-.14a1.12,1.12,0,0,1,.43-.1c.1,0,.16.16.21.23a3.41,3.41,0,0,0,.58.62C165,79.3,165.16,79.4,165.27,79.52Zm-.24.4a.27.27,0,0,0-.16-.1.41.41,0,0,0-.19,0,.78.78,0,0,0-.35.15.57.57,0,0,0-.16.36.89.89,0,0,0,0,.36,2,2,0,0,1,0-.35.63.63,0,0,1,.15-.28,1.35,1.35,0,0,1,.29-.16A.38.38,0,0,1,165,79.92Zm-1.43-.4.41-.26a2.58,2.58,0,0,0-.46.18,1.57,1.57,0,0,0-.41.28l-.09.1a1,1,0,0,0,0,.14.69.69,0,0,0,0,.25,2.41,2.41,0,0,0,.12.48c0-.16,0-.32,0-.48a1.69,1.69,0,0,1,0-.23l0-.1a.27.27,0,0,0,.07-.08A2.2,2.2,0,0,1,163.6,79.52Zm0-.71a5.44,5.44,0,0,0-.54.15l-.53.2-.25.13a.56.56,0,0,0-.19.25,1.47,1.47,0,0,0-.12.55,2.08,2.08,0,0,1,.2-.51.53.53,0,0,1,.17-.19l.24-.12C163,79.12,163.3,79,163.63,78.81Z"/><path class="cls-1" d="M164.87,79.82a.27.27,0,0,1,.16.1.38.38,0,0,0-.33,0,1.35,1.35,0,0,0-.29.16.63.63,0,0,0-.15.28,2,2,0,0,0,0,.35.89.89,0,0,1,0-.36.57.57,0,0,1,.16-.36.78.78,0,0,1,.35-.15A.41.41,0,0,1,164.87,79.82Z"/><path class="cls-1" d="M164,79.26l-.41.26a2.2,2.2,0,0,0-.38.28.27.27,0,0,1-.07.08l0,.1a1.69,1.69,0,0,0,0,.23c0,.16,0,.32,0,.48a2.41,2.41,0,0,1-.12-.48.69.69,0,0,1,0-.25,1,1,0,0,1,0-.14l.09-.1a1.57,1.57,0,0,1,.41-.28A2.58,2.58,0,0,1,164,79.26Z"/><path class="cls-1" d="M163.09,79a5.44,5.44,0,0,1,.54-.15c-.33.17-.68.31-1,.46l-.24.12a.53.53,0,0,0-.17.19,2.08,2.08,0,0,0-.2.51,1.47,1.47,0,0,1,.12-.55.56.56,0,0,1,.19-.25l.25-.13Z"/><path class="cls-6" d="M168.39,80.91a2.38,2.38,0,0,1-.22.86.6.6,0,0,1-.23.29,1.75,1.75,0,0,1-.24.11c-.17.1-.26.3-.4.45a1.3,1.3,0,0,1-1,.26,1.15,1.15,0,0,0-.61,0l-.26.17a1.42,1.42,0,0,1-.89,0,.79.79,0,0,0-.43,0,2.4,2.4,0,0,1-.23.11c-.22.07-.47-.1-.69,0l-.21.12a.41.41,0,0,1-.4,0c-.08,0-.14-.12-.23-.14s-.3.06-.43,0a.84.84,0,0,1-.18-.15.66.66,0,0,0-.46,0,1.23,1.23,0,0,1-1.06-.33c-.13-.13-.26-.3-.45-.29a.69.69,0,0,1-.2,0,.39.39,0,0,1-.23-.15,9.92,9.92,0,0,1-.63-.79,1.37,1.37,0,0,1-.33-.71.81.81,0,0,1,0-.22"/><path class="cls-6" d="M168.39,80.82v.08"/><path class="cls-6" d="M158.35,80.55a.85.85,0,0,0,0-.17,2.34,2.34,0,0,1,.38-1,1.55,1.55,0,0,1,.21-.23q.21-.19.42-.36l.46-.39a1.91,1.91,0,0,1,.79-.4l.16,0a1.12,1.12,0,0,0,.72-.26,1.38,1.38,0,0,1,.47-.33,1,1,0,0,1,.39,0c.6.07,1.19-.16,1.79-.15a1.11,1.11,0,0,1,.64.16c.08,0,.15.12.23.16a1,1,0,0,0,.47,0,1.72,1.72,0,0,1,.94.25,4,4,0,0,1,1.16,1.39.62.62,0,0,0,.24.24l.2.07a.43.43,0,0,1,.13.19,2.39,2.39,0,0,1,.2,1"/><path class="cls-6" d="M158.36,80.55h0s-.4.56-.14,3.12c.14,1.67-.12,2.91.22,3.43a4,4,0,0,0,.84,1A8.87,8.87,0,0,0,163,89.29a8.3,8.3,0,0,0,1.34-.15,5,5,0,0,0,2.65-.88l.5-.51a1.87,1.87,0,0,0,.76-1.49c.08-1.08,0-1.73,0-2.52s.06-2.33.08-2.83h0v-.14"/><path class="cls-6" d="M163.18,78.58a5.92,5.92,0,0,0-1.23.48,1.42,1.42,0,0,0-.29.21.82.82,0,0,0-.25.61,1.65,1.65,0,0,0,.13.47.46.46,0,0,0,.08.13.54.54,0,0,0,.19.08.53.53,0,0,1,.23.19,1,1,0,0,1,.1.18.7.7,0,0,0,.85.27,3.62,3.62,0,0,1,.43-.24,1.14,1.14,0,0,1,.55,0,3,3,0,0,0,.84,0,2.52,2.52,0,0,1,.9-.1,1.62,1.62,0,0,0-.44-1.32c-.11-.12-.24-.22-.36-.33a3.41,3.41,0,0,1-.58-.62c-.05-.07-.11-.22-.21-.23a1.12,1.12,0,0,0-.43.1Z"/><path class="cls-3" d="M150.75,84.57l0-.17a2.54,2.54,0,0,1,.38-1,1.61,1.61,0,0,1,.22-.23c.13-.13.28-.24.41-.36l.46-.38A1.87,1.87,0,0,1,153,82l.16,0a1.17,1.17,0,0,0,.72-.25c.15-.12.28-.29.47-.33a.9.9,0,0,1,.4,0c.59.07,1.18-.16,1.79-.15a1.14,1.14,0,0,1,.63.16,1.31,1.31,0,0,0,.24.17,1.05,1.05,0,0,0,.47,0,1.78,1.78,0,0,1,.93.25A4.08,4.08,0,0,1,160,83.3a.54.54,0,0,0,.23.24,1.19,1.19,0,0,1,.2.08.34.34,0,0,1,.14.19,2.49,2.49,0,0,1,.2,1v.14h0a2.53,2.53,0,0,1-.21.86.76.76,0,0,1-.23.3,2.56,2.56,0,0,0-.24.11c-.18.1-.26.3-.41.44a1.29,1.29,0,0,1-1,.26,1.14,1.14,0,0,0-.61,0l-.26.17a1.45,1.45,0,0,1-.9,0,.85.85,0,0,0-.42,0,2.4,2.4,0,0,1-.23.11c-.23.07-.48-.1-.7,0a2.12,2.12,0,0,0-.2.12.46.46,0,0,1-.41,0,.78.78,0,0,0-.22-.15c-.14,0-.31.06-.44,0s-.11-.11-.18-.16a.63.63,0,0,0-.45,0,1.22,1.22,0,0,1-1.06-.33c-.13-.12-.27-.3-.45-.29a1.55,1.55,0,0,1-.21,0,.38.38,0,0,1-.22-.16,9.46,9.46,0,0,1-.64-.78,1.54,1.54,0,0,1-.33-.71,1.64,1.64,0,0,1,0-.23Zm7.36.29a1.66,1.66,0,0,0-.44-1.32,2.83,2.83,0,0,0-.37-.32,4.76,4.76,0,0,1-.57-.62c-.06-.08-.11-.22-.22-.24a1,1,0,0,0-.42.1,4.44,4.44,0,0,0-.52.15,5.31,5.31,0,0,0-1.22.47,1,1,0,0,0-.29.21.82.82,0,0,0-.25.61,1.57,1.57,0,0,0,.13.47.4.4,0,0,0,.07.13.52.52,0,0,0,.19.08.5.5,0,0,1,.24.19,1.62,1.62,0,0,0,.1.18.68.68,0,0,0,.85.27,4.49,4.49,0,0,1,.42-.24,1.14,1.14,0,0,1,.55,0,2.62,2.62,0,0,0,.84,0A2.58,2.58,0,0,1,158.11,84.86Z"/><path class="cls-4" d="M160.78,84.93c0,.5-.06,2.16-.07,2.83s0,1.44-.05,2.53a1.84,1.84,0,0,1-.75,1.48l-.51.51a4.94,4.94,0,0,1-2.64.88,8.64,8.64,0,0,1-1.35.15,8.78,8.78,0,0,1-3.75-1.14,4.09,4.09,0,0,1-.83-1c-.35-.52-.09-1.76-.22-3.42-.26-2.56.09-3.08.14-3.13a1.64,1.64,0,0,0,0,.23,1.54,1.54,0,0,0,.33.71,9.46,9.46,0,0,0,.64.78.38.38,0,0,0,.22.16,1.55,1.55,0,0,0,.21,0c.18,0,.32.17.45.29a1.22,1.22,0,0,0,1.06.33.63.63,0,0,1,.45,0c.07,0,.11.12.18.16s.3,0,.44,0a.78.78,0,0,1,.22.15.46.46,0,0,0,.41,0,2.12,2.12,0,0,1,.2-.12c.22-.08.47.09.7,0a2.4,2.4,0,0,0,.23-.11.85.85,0,0,1,.42,0,1.45,1.45,0,0,0,.9,0l.26-.17a1.14,1.14,0,0,1,.61,0,1.29,1.29,0,0,0,1-.26c.15-.14.23-.34.41-.44a2.56,2.56,0,0,1,.24-.11.76.76,0,0,0,.23-.3A2.53,2.53,0,0,0,160.78,84.93Z"/><path class="cls-7" d="M157.67,83.54a1.66,1.66,0,0,1,.44,1.32,2.58,2.58,0,0,0-.91.1,2.62,2.62,0,0,1-.84,0,1.14,1.14,0,0,0-.55,0,4.49,4.49,0,0,0-.42.24.68.68,0,0,1-.85-.27,1.62,1.62,0,0,1-.1-.18.5.5,0,0,0-.24-.19.52.52,0,0,1-.19-.08.4.4,0,0,1-.07-.13,1.57,1.57,0,0,1-.13-.47.82.82,0,0,1,.25-.61,1,1,0,0,1,.29-.21,5.31,5.31,0,0,1,1.22-.47,4.44,4.44,0,0,1,.52-.15,1,1,0,0,1,.42-.1c.11,0,.16.16.22.24a4.76,4.76,0,0,0,.57.62A2.83,2.83,0,0,1,157.67,83.54Zm-.25.4a.23.23,0,0,0-.15-.1.45.45,0,0,0-.2,0,.93.93,0,0,0-.34.15.52.52,0,0,0-.16.36.87.87,0,0,0,0,.36,2,2,0,0,1,0-.35.52.52,0,0,1,.15-.27.9.9,0,0,1,.29-.16A.33.33,0,0,1,157.42,83.94Zm-1.43-.4.41-.26a3,3,0,0,0-.45.18,1.62,1.62,0,0,0-.42.28.44.44,0,0,0-.08.11.22.22,0,0,0,0,.13,1.13,1.13,0,0,0,0,.26,2.49,2.49,0,0,0,.12.47c0-.16,0-.32,0-.48a.86.86,0,0,1,0-.23.46.46,0,0,1,0-.09l.07-.09A2.75,2.75,0,0,1,156,83.54Zm0-.71a4.94,4.94,0,0,0-.55.15c-.17.06-.35.13-.52.21a1.58,1.58,0,0,0-.26.13.47.47,0,0,0-.18.24,1.57,1.57,0,0,0-.13.55,3.22,3.22,0,0,1,.21-.51.43.43,0,0,1,.16-.19l.25-.11C155.35,83.14,155.69,83,156,82.83Z"/><path class="cls-1" d="M157.27,83.84a.23.23,0,0,1,.15.1.33.33,0,0,0-.32,0,.9.9,0,0,0-.29.16.52.52,0,0,0-.15.27,2,2,0,0,0,0,.35.87.87,0,0,1,0-.36.52.52,0,0,1,.16-.36.93.93,0,0,1,.34-.15A.45.45,0,0,1,157.27,83.84Z"/><path class="cls-1" d="M156.4,83.28l-.41.26a2.75,2.75,0,0,0-.37.28l-.07.09a.46.46,0,0,0,0,.09.86.86,0,0,0,0,.23c0,.16,0,.32,0,.48a2.49,2.49,0,0,1-.12-.47,1.13,1.13,0,0,1,0-.26.22.22,0,0,1,0-.13.44.44,0,0,1,.08-.11,1.62,1.62,0,0,1,.42-.28A3,3,0,0,1,156.4,83.28Z"/><path class="cls-1" d="M155.48,83a4.94,4.94,0,0,1,.55-.15c-.34.17-.68.31-1,.47l-.25.11a.43.43,0,0,0-.16.19,3.22,3.22,0,0,0-.21.51,1.57,1.57,0,0,1,.13-.55.47.47,0,0,1,.18-.24,1.58,1.58,0,0,1,.26-.13C155.13,83.11,155.31,83,155.48,83Z"/><path class="cls-6" d="M160.78,84.93a2.53,2.53,0,0,1-.21.86.76.76,0,0,1-.23.3,2.56,2.56,0,0,0-.24.11c-.18.1-.26.3-.41.44a1.29,1.29,0,0,1-1,.26,1.14,1.14,0,0,0-.61,0l-.26.17a1.45,1.45,0,0,1-.9,0,.85.85,0,0,0-.42,0,2.4,2.4,0,0,1-.23.11c-.23.07-.48-.1-.7,0a2.12,2.12,0,0,0-.2.12.46.46,0,0,1-.41,0,.78.78,0,0,0-.22-.15c-.14,0-.31.06-.44,0s-.11-.11-.18-.16a.63.63,0,0,0-.45,0,1.22,1.22,0,0,1-1.06-.33c-.13-.12-.27-.3-.45-.29a1.55,1.55,0,0,1-.21,0,.38.38,0,0,1-.22-.16,9.46,9.46,0,0,1-.64-.78,1.54,1.54,0,0,1-.33-.71,1.64,1.64,0,0,1,0-.23"/><path class="cls-6" d="M160.78,84.84v.09"/><path class="cls-6" d="M150.75,84.57l0-.17a2.54,2.54,0,0,1,.38-1,1.61,1.61,0,0,1,.22-.23c.13-.13.28-.24.41-.36l.46-.38A1.87,1.87,0,0,1,153,82l.16,0a1.17,1.17,0,0,0,.72-.25c.15-.12.28-.29.47-.33a.9.9,0,0,1,.4,0c.59.07,1.18-.16,1.79-.15a1.14,1.14,0,0,1,.63.16,1.31,1.31,0,0,0,.24.17,1.05,1.05,0,0,0,.47,0,1.78,1.78,0,0,1,.93.25A4.08,4.08,0,0,1,160,83.3a.54.54,0,0,0,.23.24,1.19,1.19,0,0,1,.2.08.34.34,0,0,1,.14.19,2.49,2.49,0,0,1,.2,1"/><path class="cls-6" d="M150.75,84.57h0c-.05,0-.4.57-.14,3.13.13,1.66-.13,2.9.22,3.42a4.09,4.09,0,0,0,.83,1,8.78,8.78,0,0,0,3.75,1.14,8.64,8.64,0,0,0,1.35-.15,4.94,4.94,0,0,0,2.64-.88l.51-.51a1.84,1.84,0,0,0,.75-1.48c.08-1.09,0-1.74.05-2.53s.06-2.33.07-2.83h0v-.14"/><path class="cls-6" d="M155.57,82.61a5.31,5.31,0,0,0-1.22.47,1,1,0,0,0-.29.21.82.82,0,0,0-.25.61,1.57,1.57,0,0,0,.13.47.4.4,0,0,0,.07.13.52.52,0,0,0,.19.08.5.5,0,0,1,.24.19,1.62,1.62,0,0,0,.1.18.68.68,0,0,0,.85.27,4.49,4.49,0,0,1,.42-.24,1.14,1.14,0,0,1,.55,0,2.62,2.62,0,0,0,.84,0,2.58,2.58,0,0,1,.91-.1,1.66,1.66,0,0,0-.44-1.32,2.83,2.83,0,0,0-.37-.32,4.76,4.76,0,0,1-.57-.62c-.06-.08-.11-.22-.22-.24a1,1,0,0,0-.42.1A4.44,4.44,0,0,0,155.57,82.61Z"/><path class="cls-3" d="M142.81,88.41a.85.85,0,0,1,0-.17,2.44,2.44,0,0,1,.38-1,2.19,2.19,0,0,1,.21-.23l.42-.35.46-.39a1.93,1.93,0,0,1,.78-.4l.17,0a1.24,1.24,0,0,0,.71-.26,1.49,1.49,0,0,1,.47-.33,1.08,1.08,0,0,1,.4,0,15.65,15.65,0,0,0,1.79-.16,1.2,1.2,0,0,1,.64.17c.08,0,.15.12.23.16a1.06,1.06,0,0,0,.47,0,1.8,1.8,0,0,1,.94.24,4.13,4.13,0,0,1,1.16,1.39.58.58,0,0,0,.24.25,1.46,1.46,0,0,1,.19.07.38.38,0,0,1,.14.19,2.53,2.53,0,0,1,.2,1v.06a.25.25,0,0,1,0,.08h0a2.31,2.31,0,0,1-.21.85.64.64,0,0,1-.23.3,1.75,1.75,0,0,1-.24.11c-.18.1-.26.3-.4.45a1.38,1.38,0,0,1-1,.26,1.14,1.14,0,0,0-.61,0c-.09,0-.17.11-.26.16a1.35,1.35,0,0,1-.89,0,.78.78,0,0,0-.43,0l-.23.11c-.23.07-.48-.1-.7,0l-.2.11a.38.38,0,0,1-.4,0c-.08,0-.14-.12-.23-.14s-.3.06-.44,0-.11-.11-.17-.15-.31,0-.46,0a1.23,1.23,0,0,1-1.06-.33c-.13-.13-.27-.31-.45-.29s-.14,0-.2,0a.36.36,0,0,1-.23-.15c-.22-.25-.44-.52-.64-.79a1.36,1.36,0,0,1-.32-.71.91.91,0,0,1,0-.23Zm7.36.29a1.6,1.6,0,0,0-.44-1.32,4,4,0,0,0-.37-.33,3.75,3.75,0,0,1-.57-.62c0-.07-.11-.22-.21-.23a1.07,1.07,0,0,0-.43.09l-.51.15a5.69,5.69,0,0,0-1.23.47,1.94,1.94,0,0,0-.29.21.84.84,0,0,0-.25.62,1.51,1.51,0,0,0,.13.46.39.39,0,0,0,.08.14.58.58,0,0,0,.18.08.55.55,0,0,1,.24.18c0,.06.06.13.1.19a.7.7,0,0,0,.85.27,4.64,4.64,0,0,1,.42-.25,1.51,1.51,0,0,1,.56,0,2.64,2.64,0,0,0,.84,0A2.5,2.5,0,0,1,150.17,88.7Z"/><path class="cls-4" d="M152.84,88.77c0,.5-.06,2.16-.07,2.82s0,1.45,0,2.53a1.87,1.87,0,0,1-.76,1.49l-.51.51a4.94,4.94,0,0,1-2.64.88,8.64,8.64,0,0,1-1.35.15A8.75,8.75,0,0,1,143.72,96a4,4,0,0,1-.83-1c-.34-.52-.09-1.76-.22-3.43-.26-2.56.1-3.07.14-3.13a.91.91,0,0,0,0,.23,1.36,1.36,0,0,0,.32.71c.2.27.42.54.64.79a.36.36,0,0,0,.23.15c.06,0,.13,0,.2,0s.32.16.45.29a1.23,1.23,0,0,0,1.06.33c.15,0,.33-.09.46,0s.1.12.17.15.3,0,.44,0,.15.1.23.14a.38.38,0,0,0,.4,0l.2-.11c.22-.08.47.09.7,0l.23-.11a.78.78,0,0,1,.43,0,1.35,1.35,0,0,0,.89,0c.09,0,.17-.12.26-.16a1.14,1.14,0,0,1,.61,0,1.38,1.38,0,0,0,1-.26c.14-.15.22-.35.4-.45a1.75,1.75,0,0,0,.24-.11.64.64,0,0,0,.23-.3A2.31,2.31,0,0,0,152.84,88.77Z"/><path class="cls-7" d="M149.73,87.38a1.6,1.6,0,0,1,.44,1.32,2.5,2.5,0,0,0-.9.1,2.64,2.64,0,0,1-.84,0,1.51,1.51,0,0,0-.56,0,4.64,4.64,0,0,0-.42.25.7.7,0,0,1-.85-.27c0-.06-.06-.13-.1-.19a.55.55,0,0,0-.24-.18.58.58,0,0,1-.18-.08.39.39,0,0,1-.08-.14,1.51,1.51,0,0,1-.13-.46.84.84,0,0,1,.25-.62,1.94,1.94,0,0,1,.29-.21,5.69,5.69,0,0,1,1.23-.47l.51-.15a1.07,1.07,0,0,1,.43-.09c.1,0,.16.16.21.23a3.75,3.75,0,0,0,.57.62A4,4,0,0,1,149.73,87.38Zm-.25.4a.28.28,0,0,0-.15-.11.6.6,0,0,0-.19,0,.93.93,0,0,0-.35.16.56.56,0,0,0-.16.35.92.92,0,0,0,0,.37,2,2,0,0,1,.05-.35.55.55,0,0,1,.15-.28,1.15,1.15,0,0,1,.29-.16A.36.36,0,0,1,149.48,87.78Zm-1.43-.4.42-.26a2,2,0,0,0-.46.18,1.4,1.4,0,0,0-.42.28l-.08.1a1,1,0,0,0,0,.14,1,1,0,0,0,0,.25,1.89,1.89,0,0,0,.13.48c0-.17,0-.33,0-.48a1.64,1.64,0,0,1,0-.23l0-.1.07-.08A2.57,2.57,0,0,1,148.05,87.38Zm0-.72a4.81,4.81,0,0,0-.54.16L147,87l-.26.13a.66.66,0,0,0-.18.24,1.38,1.38,0,0,0-.12.56,2.33,2.33,0,0,1,.2-.52.46.46,0,0,1,.16-.18l.25-.12C147.41,87,147.75,86.84,148.09,86.66Z"/><path class="cls-1" d="M149.33,87.67a.28.28,0,0,1,.15.11.36.36,0,0,0-.32,0,1.15,1.15,0,0,0-.29.16.55.55,0,0,0-.15.28,2,2,0,0,0-.05.35.92.92,0,0,1,0-.37.56.56,0,0,1,.16-.35.93.93,0,0,1,.35-.16A.6.6,0,0,1,149.33,87.67Z"/><path class="cls-1" d="M148.47,87.12l-.42.26a2.57,2.57,0,0,0-.37.28l-.07.08,0,.1a1.64,1.64,0,0,0,0,.23c0,.15,0,.31,0,.48a1.89,1.89,0,0,1-.13-.48,1,1,0,0,1,0-.25,1,1,0,0,1,0-.14l.08-.1a1.4,1.4,0,0,1,.42-.28A2,2,0,0,1,148.47,87.12Z"/><path class="cls-1" d="M147.55,86.82a4.81,4.81,0,0,1,.54-.16c-.34.18-.68.32-1,.47l-.25.12a.46.46,0,0,0-.16.18,2.33,2.33,0,0,0-.2.52,1.38,1.38,0,0,1,.12-.56.66.66,0,0,1,.18-.24L147,87Z"/><path class="cls-6" d="M152.84,88.77a2.31,2.31,0,0,1-.21.85.64.64,0,0,1-.23.3,1.75,1.75,0,0,1-.24.11c-.18.1-.26.3-.4.45a1.38,1.38,0,0,1-1,.26,1.14,1.14,0,0,0-.61,0c-.09,0-.17.11-.26.16a1.35,1.35,0,0,1-.89,0,.78.78,0,0,0-.43,0l-.23.11c-.23.07-.48-.1-.7,0l-.2.11a.38.38,0,0,1-.4,0c-.08,0-.14-.12-.23-.14s-.3.06-.44,0-.11-.11-.17-.15-.31,0-.46,0a1.23,1.23,0,0,1-1.06-.33c-.13-.13-.27-.31-.45-.29s-.14,0-.2,0a.36.36,0,0,1-.23-.15c-.22-.25-.44-.52-.64-.79a1.36,1.36,0,0,1-.32-.71.91.91,0,0,1,0-.23"/><path class="cls-6" d="M152.85,88.68a.25.25,0,0,1,0,.08"/><path class="cls-6" d="M142.81,88.41a.85.85,0,0,1,0-.17,2.44,2.44,0,0,1,.38-1,2.19,2.19,0,0,1,.21-.23l.42-.35.46-.39a1.93,1.93,0,0,1,.78-.4l.17,0a1.24,1.24,0,0,0,.71-.26,1.49,1.49,0,0,1,.47-.33,1.08,1.08,0,0,1,.4,0,15.65,15.65,0,0,0,1.79-.16,1.2,1.2,0,0,1,.64.17c.08,0,.15.12.23.16a1.06,1.06,0,0,0,.47,0,1.8,1.8,0,0,1,.94.24,4.13,4.13,0,0,1,1.16,1.39.58.58,0,0,0,.24.25,1.46,1.46,0,0,1,.19.07.38.38,0,0,1,.14.19,2.53,2.53,0,0,1,.2,1"/><path class="cls-6" d="M142.81,88.41h0c0,.06-.4.57-.14,3.13.13,1.67-.12,2.91.22,3.43a4,4,0,0,0,.83,1,8.75,8.75,0,0,0,3.75,1.15,8.64,8.64,0,0,0,1.35-.15,4.94,4.94,0,0,0,2.64-.88l.51-.51a1.87,1.87,0,0,0,.76-1.49c.08-1.08,0-1.73,0-2.53s.06-2.32.07-2.82h0a.25.25,0,0,0,0-.08v-.06"/><path class="cls-6" d="M147.64,86.44a5.69,5.69,0,0,0-1.23.47,1.94,1.94,0,0,0-.29.21.84.84,0,0,0-.25.62,1.51,1.51,0,0,0,.13.46.39.39,0,0,0,.08.14.58.58,0,0,0,.18.08.55.55,0,0,1,.24.18c0,.06.06.13.1.19a.7.7,0,0,0,.85.27,4.64,4.64,0,0,1,.42-.25,1.51,1.51,0,0,1,.56,0,2.64,2.64,0,0,0,.84,0,2.5,2.5,0,0,1,.9-.1,1.6,1.6,0,0,0-.44-1.32,4,4,0,0,0-.37-.33,3.75,3.75,0,0,1-.57-.62c0-.07-.11-.22-.21-.23a1.07,1.07,0,0,0-.43.09Z"/><path class="cls-3" d="M164.35,85.88a1.16,1.16,0,0,0,0-.18,2.45,2.45,0,0,1,.38-1,2.29,2.29,0,0,1,.21-.23l.42-.36.46-.38a1.8,1.8,0,0,1,.79-.4l.16,0a1.17,1.17,0,0,0,.72-.25c.15-.12.28-.29.47-.33a1.28,1.28,0,0,1,.39,0,15.43,15.43,0,0,0,1.79-.15,1.2,1.2,0,0,1,.64.16,1.31,1.31,0,0,0,.24.17,1.05,1.05,0,0,0,.47,0,1.7,1.7,0,0,1,.93.24,4.13,4.13,0,0,1,1.16,1.39.64.64,0,0,0,.24.25.8.8,0,0,1,.2.07.38.38,0,0,1,.13.19,2.36,2.36,0,0,1,.2,1v.14h0a2.33,2.33,0,0,1-.22.86.68.68,0,0,1-.23.3,1.75,1.75,0,0,1-.24.11c-.17.1-.26.3-.4.44a1.3,1.3,0,0,1-1,.26,1.26,1.26,0,0,0-.61,0c-.09,0-.17.11-.26.16a1.35,1.35,0,0,1-.89,0,.79.79,0,0,0-.43,0c-.08,0-.15.09-.23.12s-.47-.11-.69,0a2.12,2.12,0,0,0-.21.11.41.41,0,0,1-.4,0,1.14,1.14,0,0,0-.23-.15c-.14,0-.3.07-.43,0s-.12-.11-.18-.15a.58.58,0,0,0-.45,0,1.21,1.21,0,0,1-1.06-.32c-.14-.13-.27-.31-.46-.29s-.13,0-.2,0a.39.39,0,0,1-.23-.15c-.22-.26-.43-.52-.63-.79a1.41,1.41,0,0,1-.33-.71.89.89,0,0,1,0-.23Zm7.36.29a1.63,1.63,0,0,0-.44-1.33c-.11-.11-.24-.21-.36-.32a3.41,3.41,0,0,1-.58-.62c-.05-.08-.11-.22-.21-.24a1.34,1.34,0,0,0-.43.1l-.51.15a5.39,5.39,0,0,0-1.23.47,1.46,1.46,0,0,0-.28.21.81.81,0,0,0-.26.61,1.49,1.49,0,0,0,.13.47.29.29,0,0,0,.08.13.56.56,0,0,0,.19.09.46.46,0,0,1,.23.18l.11.19a.67.67,0,0,0,.84.26,3.62,3.62,0,0,1,.43-.24,1.28,1.28,0,0,1,.55,0,2.63,2.63,0,0,0,.84,0A2.14,2.14,0,0,1,171.71,86.17Z"/><path class="cls-4" d="M174.39,86.23c0,.5-.07,2.16-.08,2.83s0,1.44,0,2.53a1.89,1.89,0,0,1-.76,1.49l-.5.5a4.88,4.88,0,0,1-2.65.88,8.3,8.3,0,0,1-1.34.15,8.73,8.73,0,0,1-3.75-1.14,3.88,3.88,0,0,1-.83-1c-.35-.51-.09-1.75-.23-3.42-.26-2.56.1-3.08.14-3.13a.89.89,0,0,0,0,.23,1.41,1.41,0,0,0,.33.71c.2.27.41.53.63.79a.39.39,0,0,0,.23.15c.07,0,.13,0,.2,0s.32.16.46.29a1.21,1.21,0,0,0,1.06.32.58.58,0,0,1,.45,0c.06,0,.11.12.18.15s.29,0,.43,0a1.14,1.14,0,0,1,.23.15.41.41,0,0,0,.4,0,2.12,2.12,0,0,1,.21-.11c.22-.09.47.09.69,0s.15-.09.23-.12a.79.79,0,0,1,.43,0,1.35,1.35,0,0,0,.89,0c.09,0,.17-.12.26-.16a1.26,1.26,0,0,1,.61,0,1.3,1.3,0,0,0,1-.26c.14-.14.23-.34.4-.44a1.75,1.75,0,0,0,.24-.11.68.68,0,0,0,.23-.3A2.33,2.33,0,0,0,174.39,86.23Z"/><path class="cls-7" d="M171.27,84.84a1.63,1.63,0,0,1,.44,1.33,2.14,2.14,0,0,0-.9.1,2.63,2.63,0,0,1-.84,0,1.28,1.28,0,0,0-.55,0,3.62,3.62,0,0,0-.43.24.67.67,0,0,1-.84-.26l-.11-.19a.46.46,0,0,0-.23-.18.56.56,0,0,1-.19-.09.29.29,0,0,1-.08-.13,1.49,1.49,0,0,1-.13-.47.81.81,0,0,1,.26-.61,1.46,1.46,0,0,1,.28-.21,5.39,5.39,0,0,1,1.23-.47l.51-.15a1.34,1.34,0,0,1,.43-.1c.1,0,.16.16.21.24a3.41,3.41,0,0,0,.58.62C171,84.63,171.16,84.73,171.27,84.84Zm-.24.4a.34.34,0,0,0-.16-.1.61.61,0,0,0-.19,0,.8.8,0,0,0-.35.16.54.54,0,0,0-.16.35.87.87,0,0,0,0,.36,1.86,1.86,0,0,1,0-.34.58.58,0,0,1,.15-.28,1.35,1.35,0,0,1,.29-.16A.38.38,0,0,1,171,85.24Zm-1.43-.4.41-.25a2.54,2.54,0,0,0-.46.17,1.86,1.86,0,0,0-.41.28l-.09.11a.74.74,0,0,0,0,.14.7.7,0,0,0,0,.25,2.31,2.31,0,0,0,.12.47c0-.16,0-.32,0-.48a1.77,1.77,0,0,1,0-.23l0-.09.07-.08A2.72,2.72,0,0,1,169.6,84.84Zm0-.71a5.52,5.52,0,0,0-.54.16,3.28,3.28,0,0,0-.52.2,2.1,2.1,0,0,0-.26.13.49.49,0,0,0-.19.24,1.56,1.56,0,0,0-.12.56,2.33,2.33,0,0,1,.2-.52.63.63,0,0,1,.17-.19l.24-.11C169,84.45,169.3,84.3,169.63,84.13Z"/><path class="cls-1" d="M170.87,85.14a.34.34,0,0,1,.16.1.38.38,0,0,0-.33,0,1.35,1.35,0,0,0-.29.16.58.58,0,0,0-.15.28,1.86,1.86,0,0,0,0,.34.87.87,0,0,1,0-.36.54.54,0,0,1,.16-.35.8.8,0,0,1,.35-.16A.61.61,0,0,1,170.87,85.14Z"/><path class="cls-1" d="M170,84.59l-.41.25a2.72,2.72,0,0,0-.38.29l-.07.08,0,.09a1.77,1.77,0,0,0,0,.23c0,.16,0,.32,0,.48a2.31,2.31,0,0,1-.12-.47.7.7,0,0,1,0-.25.74.74,0,0,1,0-.14l.09-.11a1.86,1.86,0,0,1,.41-.28A2.54,2.54,0,0,1,170,84.59Z"/><path class="cls-1" d="M169.09,84.29a5.52,5.52,0,0,1,.54-.16c-.33.17-.68.32-1,.47l-.24.11a.63.63,0,0,0-.17.19,2.33,2.33,0,0,0-.2.52,1.56,1.56,0,0,1,.12-.56.49.49,0,0,1,.19-.24,2.1,2.1,0,0,1,.26-.13A3.28,3.28,0,0,1,169.09,84.29Z"/><path class="cls-6" d="M174.39,86.23a2.33,2.33,0,0,1-.22.86.68.68,0,0,1-.23.3,1.75,1.75,0,0,1-.24.11c-.17.1-.26.3-.4.44a1.3,1.3,0,0,1-1,.26,1.26,1.26,0,0,0-.61,0c-.09,0-.17.11-.26.16a1.35,1.35,0,0,1-.89,0,.79.79,0,0,0-.43,0c-.08,0-.15.09-.23.12s-.47-.11-.69,0a2.12,2.12,0,0,0-.21.11.41.41,0,0,1-.4,0,1.14,1.14,0,0,0-.23-.15c-.14,0-.3.07-.43,0s-.12-.11-.18-.15a.58.58,0,0,0-.45,0,1.21,1.21,0,0,1-1.06-.32c-.14-.13-.27-.31-.46-.29s-.13,0-.2,0a.39.39,0,0,1-.23-.15c-.22-.26-.43-.52-.63-.79a1.41,1.41,0,0,1-.33-.71.89.89,0,0,1,0-.23"/><path class="cls-6" d="M174.39,86.14v.09"/><path class="cls-6" d="M164.35,85.88a1.16,1.16,0,0,0,0-.18,2.45,2.45,0,0,1,.38-1,2.29,2.29,0,0,1,.21-.23l.42-.36.46-.38a1.8,1.8,0,0,1,.79-.4l.16,0a1.17,1.17,0,0,0,.72-.25c.15-.12.28-.29.47-.33a1.28,1.28,0,0,1,.39,0,15.43,15.43,0,0,0,1.79-.15,1.2,1.2,0,0,1,.64.16,1.31,1.31,0,0,0,.24.17,1.05,1.05,0,0,0,.47,0,1.7,1.7,0,0,1,.93.24,4.13,4.13,0,0,1,1.16,1.39.64.64,0,0,0,.24.25.8.8,0,0,1,.2.07.38.38,0,0,1,.13.19,2.36,2.36,0,0,1,.2,1"/><path class="cls-6" d="M164.36,85.88h0c0,.05-.4.57-.14,3.13.14,1.67-.12,2.91.23,3.42a3.88,3.88,0,0,0,.83,1A8.73,8.73,0,0,0,169,94.61a8.3,8.3,0,0,0,1.34-.15,4.88,4.88,0,0,0,2.65-.88l.5-.5a1.89,1.89,0,0,0,.76-1.49c.08-1.09,0-1.74,0-2.53s.06-2.33.08-2.83h0v-.14"/><path class="cls-6" d="M169.18,83.91a5.39,5.39,0,0,0-1.23.47,1.46,1.46,0,0,0-.28.21.81.81,0,0,0-.26.61,1.49,1.49,0,0,0,.13.47.29.29,0,0,0,.08.13.56.56,0,0,0,.19.09.46.46,0,0,1,.23.18l.11.19a.67.67,0,0,0,.84.26,3.62,3.62,0,0,1,.43-.24,1.28,1.28,0,0,1,.55,0,2.63,2.63,0,0,0,.84,0,2.14,2.14,0,0,1,.9-.1,1.63,1.63,0,0,0-.44-1.33c-.11-.11-.24-.21-.36-.32a3.41,3.41,0,0,1-.58-.62c-.05-.08-.11-.22-.21-.24a1.34,1.34,0,0,0-.43.1Z"/><path class="cls-3" d="M156.75,89.9l0-.17a2.59,2.59,0,0,1,.38-1,2.39,2.39,0,0,1,.22-.23l.41-.36c.16-.12.31-.25.46-.38a2,2,0,0,1,.79-.4.5.5,0,0,1,.17,0,1.24,1.24,0,0,0,.71-.26,1.38,1.38,0,0,1,.47-.33,1.35,1.35,0,0,1,.4,0,15.81,15.81,0,0,0,1.79-.15,1.07,1.07,0,0,1,.63.17,2,2,0,0,0,.24.16,1.06,1.06,0,0,0,.47,0,1.77,1.77,0,0,1,.93.24A4.28,4.28,0,0,1,166,88.62a.62.62,0,0,0,.23.25,1.18,1.18,0,0,1,.2.07.38.38,0,0,1,.14.19,2.53,2.53,0,0,1,.2,1,.18.18,0,0,1,0,0v.09h0a2.53,2.53,0,0,1-.21.85.69.69,0,0,1-.23.3,2.56,2.56,0,0,1-.24.11c-.18.1-.26.3-.41.44a1.28,1.28,0,0,1-1,.26,1.24,1.24,0,0,0-.61,0c-.09,0-.17.11-.26.16a1.38,1.38,0,0,1-.9,0,.75.75,0,0,0-.42,0,2.53,2.53,0,0,1-.23.12c-.23.07-.48-.11-.7,0a2,2,0,0,0-.2.11.43.43,0,0,1-.41,0,.74.74,0,0,0-.22-.14c-.14,0-.31.06-.44,0s-.11-.11-.18-.15-.3,0-.45,0a1.25,1.25,0,0,1-1.06-.33c-.13-.13-.27-.31-.45-.29s-.14,0-.21,0a.37.37,0,0,1-.22-.15c-.23-.26-.44-.52-.64-.79a1.45,1.45,0,0,1-.33-.71,1.79,1.79,0,0,1,0-.23Zm7.36.29a1.64,1.64,0,0,0-.44-1.32,4,4,0,0,0-.37-.33,3.75,3.75,0,0,1-.57-.62c-.06-.07-.11-.22-.22-.24a1.23,1.23,0,0,0-.42.1l-.52.15a5.31,5.31,0,0,0-1.22.47,1.27,1.27,0,0,0-.29.21.84.84,0,0,0-.25.62,1.51,1.51,0,0,0,.13.46.61.61,0,0,0,.07.14.77.77,0,0,0,.19.08.48.48,0,0,1,.24.18c0,.06.06.13.1.19a.68.68,0,0,0,.85.26,4.49,4.49,0,0,1,.42-.24,1.45,1.45,0,0,1,.55,0,2.63,2.63,0,0,0,.84,0A2.19,2.19,0,0,1,164.11,90.19Z"/><path class="cls-4" d="M166.78,90.26c0,.5-.06,2.16-.07,2.82s0,1.44,0,2.53a1.89,1.89,0,0,1-.76,1.49l-.51.51a5,5,0,0,1-2.64.88,8.64,8.64,0,0,1-1.35.15,8.9,8.9,0,0,1-3.75-1.15,3.91,3.91,0,0,1-.83-1c-.35-.51-.09-1.75-.22-3.42-.26-2.56.09-3.08.14-3.13a1.79,1.79,0,0,0,0,.23,1.45,1.45,0,0,0,.33.71c.2.27.41.53.64.79a.37.37,0,0,0,.22.15c.07,0,.14,0,.21,0s.32.16.45.29a1.25,1.25,0,0,0,1.06.33c.15,0,.32-.09.45,0s.11.12.18.15.3,0,.44,0a.74.74,0,0,1,.22.14.43.43,0,0,0,.41,0,2,2,0,0,1,.2-.11c.22-.09.47.09.7,0a2.53,2.53,0,0,0,.23-.12.75.75,0,0,1,.42,0,1.38,1.38,0,0,0,.9,0c.09-.05.17-.12.26-.16a1.24,1.24,0,0,1,.61,0,1.28,1.28,0,0,0,1-.26c.15-.14.23-.34.41-.44a2.56,2.56,0,0,0,.24-.11.69.69,0,0,0,.23-.3A2.53,2.53,0,0,0,166.78,90.26Z"/><path class="cls-7" d="M163.67,88.87a1.64,1.64,0,0,1,.44,1.32,2.19,2.19,0,0,0-.91.1,2.63,2.63,0,0,1-.84,0,1.45,1.45,0,0,0-.55,0,4.49,4.49,0,0,0-.42.24.68.68,0,0,1-.85-.26c0-.06-.06-.13-.1-.19a.48.48,0,0,0-.24-.18.77.77,0,0,1-.19-.08.61.61,0,0,1-.07-.14,1.51,1.51,0,0,1-.13-.46.84.84,0,0,1,.25-.62,1.27,1.27,0,0,1,.29-.21,5.31,5.31,0,0,1,1.22-.47l.52-.15a1.23,1.23,0,0,1,.42-.1c.11,0,.16.17.22.24a3.75,3.75,0,0,0,.57.62A4,4,0,0,1,163.67,88.87Zm-.25.4a.24.24,0,0,0-.15-.11h-.2a1,1,0,0,0-.34.16.5.5,0,0,0-.16.35.92.92,0,0,0,0,.37,2,2,0,0,1,0-.35.55.55,0,0,1,.15-.28,1.15,1.15,0,0,1,.29-.16A.33.33,0,0,1,163.42,89.27Zm-1.43-.4.41-.26a2.2,2.2,0,0,0-.45.17,1.66,1.66,0,0,0-.42.29l-.08.1a.37.37,0,0,0,0,.14,1,1,0,0,0,0,.25,2.41,2.41,0,0,0,.12.48c0-.17,0-.33,0-.48a.86.86,0,0,1,0-.23l0-.1a.27.27,0,0,1,.07-.08A1.72,1.72,0,0,1,162,88.87Zm0-.72a5,5,0,0,0-.55.16,5.55,5.55,0,0,0-.52.2l-.26.13a.47.47,0,0,0-.18.24,1.58,1.58,0,0,0-.13.56,3,3,0,0,1,.21-.52.46.46,0,0,1,.16-.18,1.92,1.92,0,0,1,.25-.12C161.35,88.47,161.69,88.32,162,88.15Z"/><path class="cls-1" d="M163.27,89.16a.24.24,0,0,1,.15.11.33.33,0,0,0-.32,0,1.15,1.15,0,0,0-.29.16.55.55,0,0,0-.15.28,2,2,0,0,0,0,.35.92.92,0,0,1,0-.37.5.5,0,0,1,.16-.35,1,1,0,0,1,.34-.16Z"/><path class="cls-1" d="M162.4,88.61l-.41.26a1.72,1.72,0,0,0-.37.28.27.27,0,0,0-.07.08l0,.1a.86.86,0,0,0,0,.23c0,.15,0,.31,0,.48a2.41,2.41,0,0,1-.12-.48,1,1,0,0,1,0-.25.37.37,0,0,1,0-.14l.08-.1a1.66,1.66,0,0,1,.42-.29A2.2,2.2,0,0,1,162.4,88.61Z"/><path class="cls-1" d="M161.48,88.31a5,5,0,0,1,.55-.16c-.34.17-.68.32-1,.47a1.92,1.92,0,0,0-.25.12.46.46,0,0,0-.16.18,3,3,0,0,0-.21.52,1.58,1.58,0,0,1,.13-.56.47.47,0,0,1,.18-.24l.26-.13A5.55,5.55,0,0,1,161.48,88.31Z"/><path class="cls-6" d="M166.78,90.26a2.53,2.53,0,0,1-.21.85.69.69,0,0,1-.23.3,2.56,2.56,0,0,1-.24.11c-.18.1-.26.3-.41.44a1.28,1.28,0,0,1-1,.26,1.24,1.24,0,0,0-.61,0c-.09,0-.17.11-.26.16a1.38,1.38,0,0,1-.9,0,.75.75,0,0,0-.42,0,2.53,2.53,0,0,1-.23.12c-.23.07-.48-.11-.7,0a2,2,0,0,0-.2.11.43.43,0,0,1-.41,0,.74.74,0,0,0-.22-.14c-.14,0-.31.06-.44,0s-.11-.11-.18-.15-.3,0-.45,0a1.25,1.25,0,0,1-1.06-.33c-.13-.13-.27-.31-.45-.29s-.14,0-.21,0a.37.37,0,0,1-.22-.15c-.23-.26-.44-.52-.64-.79a1.45,1.45,0,0,1-.33-.71,1.79,1.79,0,0,1,0-.23"/><path class="cls-6" d="M166.78,90.16v.09"/><path class="cls-6" d="M156.75,89.9l0-.17a2.59,2.59,0,0,1,.38-1,2.39,2.39,0,0,1,.22-.23l.41-.36c.16-.12.31-.25.46-.38a2,2,0,0,1,.79-.4.5.5,0,0,1,.17,0,1.24,1.24,0,0,0,.71-.26,1.38,1.38,0,0,1,.47-.33,1.35,1.35,0,0,1,.4,0,15.81,15.81,0,0,0,1.79-.15,1.07,1.07,0,0,1,.63.17,2,2,0,0,0,.24.16,1.06,1.06,0,0,0,.47,0,1.77,1.77,0,0,1,.93.24A4.28,4.28,0,0,1,166,88.62a.62.62,0,0,0,.23.25,1.18,1.18,0,0,1,.2.07.38.38,0,0,1,.14.19,2.53,2.53,0,0,1,.2,1"/><path class="cls-6" d="M156.75,89.9h0c-.05,0-.4.57-.14,3.13.13,1.67-.13,2.91.22,3.42a3.91,3.91,0,0,0,.83,1,8.9,8.9,0,0,0,3.75,1.15,8.64,8.64,0,0,0,1.35-.15,5,5,0,0,0,2.64-.88l.51-.51a1.89,1.89,0,0,0,.76-1.49c.07-1.09,0-1.74,0-2.53s.06-2.32.07-2.82h0v-.09a.18.18,0,0,0,0,0"/><path class="cls-6" d="M161.57,87.93a5.31,5.31,0,0,0-1.22.47,1.27,1.27,0,0,0-.29.21.84.84,0,0,0-.25.62,1.51,1.51,0,0,0,.13.46.61.61,0,0,0,.07.14.77.77,0,0,0,.19.08.48.48,0,0,1,.24.18c0,.06.06.13.1.19a.68.68,0,0,0,.85.26,4.49,4.49,0,0,1,.42-.24,1.45,1.45,0,0,1,.55,0,2.63,2.63,0,0,0,.84,0,2.19,2.19,0,0,1,.91-.1,1.64,1.64,0,0,0-.44-1.32,4,4,0,0,0-.37-.33,3.75,3.75,0,0,1-.57-.62c-.06-.07-.11-.22-.22-.24a1.23,1.23,0,0,0-.42.1Z"/><path class="cls-3" d="M148.81,93.74a1.16,1.16,0,0,1,0-.18,2.45,2.45,0,0,1,.38-1,1.15,1.15,0,0,1,.21-.23l.42-.36.46-.38a1.82,1.82,0,0,1,.78-.4l.17,0a1.14,1.14,0,0,0,.71-.25c.16-.12.29-.29.47-.33a1.08,1.08,0,0,1,.4,0,15.62,15.62,0,0,0,1.79-.15,1.2,1.2,0,0,1,.64.16,1.7,1.7,0,0,0,.23.17,1.23,1.23,0,0,0,.47,0,1.71,1.71,0,0,1,.94.24,4,4,0,0,1,1.16,1.39.51.51,0,0,0,.24.24,1.54,1.54,0,0,1,.19.08.34.34,0,0,1,.14.19,2.53,2.53,0,0,1,.2,1v0a.34.34,0,0,1,0,.09h0a2.31,2.31,0,0,1-.21.86.76.76,0,0,1-.23.3c-.07,0-.16.06-.24.11s-.26.3-.4.44a1.3,1.3,0,0,1-1,.26,1.25,1.25,0,0,0-.61,0l-.26.17a1.42,1.42,0,0,1-.89,0,.89.89,0,0,0-.43,0,2.4,2.4,0,0,1-.23.11c-.23.07-.48-.1-.7,0-.07,0-.13.09-.2.12a.44.44,0,0,1-.4,0,1.14,1.14,0,0,0-.23-.15c-.14,0-.3.06-.44,0a1.29,1.29,0,0,1-.17-.16.66.66,0,0,0-.46,0,1.23,1.23,0,0,1-1.06-.33c-.13-.12-.27-.3-.45-.29a1.77,1.77,0,0,1-.2,0,.38.38,0,0,1-.23-.16c-.22-.25-.44-.51-.64-.78a1.43,1.43,0,0,1-.32-.71.87.87,0,0,1,0-.23Zm7.36.28a1.62,1.62,0,0,0-.44-1.32,3.87,3.87,0,0,0-.37-.32,4.76,4.76,0,0,1-.57-.62c0-.08-.11-.22-.21-.24a1.08,1.08,0,0,0-.43.1,4.91,4.91,0,0,0-.51.15,5.22,5.22,0,0,0-1.23.47,1.94,1.94,0,0,0-.29.21.84.84,0,0,0-.25.61,1.57,1.57,0,0,0,.13.47.29.29,0,0,0,.08.13.56.56,0,0,0,.19.09.5.5,0,0,1,.23.18c0,.06.06.13.1.19a.7.7,0,0,0,.85.26,4.49,4.49,0,0,1,.42-.24,1.18,1.18,0,0,1,.56,0,2.65,2.65,0,0,0,.84,0A2.5,2.5,0,0,1,156.17,94Z"/><path class="cls-4" d="M158.84,94.09c0,.5-.06,2.16-.07,2.83s0,1.44,0,2.53a1.89,1.89,0,0,1-.76,1.49l-.51.5a4.94,4.94,0,0,1-2.64.88,8.64,8.64,0,0,1-1.35.15,8.78,8.78,0,0,1-3.75-1.14,4.09,4.09,0,0,1-.83-1c-.34-.51-.09-1.76-.22-3.42-.26-2.56.1-3.08.14-3.13a.87.87,0,0,0,0,.23,1.43,1.43,0,0,0,.32.71c.2.27.42.53.64.78a.38.38,0,0,0,.23.16,1.77,1.77,0,0,0,.2,0c.18,0,.32.17.45.29a1.23,1.23,0,0,0,1.06.33.66.66,0,0,1,.46,0,1.29,1.29,0,0,0,.17.16c.14.06.3,0,.44,0a1.14,1.14,0,0,1,.23.15.44.44,0,0,0,.4,0c.07,0,.13-.09.2-.12.22-.08.47.09.7,0a2.4,2.4,0,0,0,.23-.11.89.89,0,0,1,.43,0,1.42,1.42,0,0,0,.89,0l.26-.17a1.25,1.25,0,0,1,.61,0,1.3,1.3,0,0,0,1-.26c.14-.14.23-.34.4-.44s.17-.07.24-.11a.76.76,0,0,0,.23-.3A2.31,2.31,0,0,0,158.84,94.09Z"/><path class="cls-7" d="M155.73,92.7a1.62,1.62,0,0,1,.44,1.32,2.5,2.5,0,0,0-.9.1,2.65,2.65,0,0,1-.84,0,1.18,1.18,0,0,0-.56,0,4.49,4.49,0,0,0-.42.24.7.7,0,0,1-.85-.26c0-.06-.06-.13-.1-.19a.5.5,0,0,0-.23-.18.56.56,0,0,1-.19-.09.29.29,0,0,1-.08-.13,1.57,1.57,0,0,1-.13-.47.84.84,0,0,1,.25-.61,1.94,1.94,0,0,1,.29-.21,5.22,5.22,0,0,1,1.23-.47,4.91,4.91,0,0,1,.51-.15,1.08,1.08,0,0,1,.43-.1c.1,0,.16.16.21.24a4.76,4.76,0,0,0,.57.62A3.87,3.87,0,0,1,155.73,92.7Zm-.25.4a.23.23,0,0,0-.15-.1.41.41,0,0,0-.19,0,.8.8,0,0,0-.35.16.52.52,0,0,0-.16.35.87.87,0,0,0,0,.36,2.11,2.11,0,0,1,.05-.35.52.52,0,0,1,.15-.27.9.9,0,0,1,.29-.16A.33.33,0,0,1,155.48,93.1Zm-1.43-.4.42-.26a3.66,3.66,0,0,0-.46.18,1.42,1.42,0,0,0-.41.28.48.48,0,0,0-.09.11.93.93,0,0,0,0,.13,1.13,1.13,0,0,0,0,.26,1.93,1.93,0,0,0,.13.47c0-.16,0-.32,0-.48a1.64,1.64,0,0,1,0-.23.46.46,0,0,1,0-.09l.07-.09A3.58,3.58,0,0,1,154.05,92.7Zm0-.71a5.44,5.44,0,0,0-.54.15,4.87,4.87,0,0,0-.53.21l-.26.13a.53.53,0,0,0-.18.24,1.38,1.38,0,0,0-.12.56,2.33,2.33,0,0,1,.2-.52.49.49,0,0,1,.16-.19l.25-.11C153.41,92.3,153.75,92.16,154.09,92Z"/><path class="cls-1" d="M155.33,93a.23.23,0,0,1,.15.1.33.33,0,0,0-.32,0,.9.9,0,0,0-.29.16.52.52,0,0,0-.15.27,2.11,2.11,0,0,0-.05.35.87.87,0,0,1,0-.36.52.52,0,0,1,.16-.35.8.8,0,0,1,.35-.16A.41.41,0,0,1,155.33,93Z"/><path class="cls-1" d="M154.47,92.44l-.42.26a3.58,3.58,0,0,0-.37.28l-.07.09a.46.46,0,0,0,0,.09,1.64,1.64,0,0,0,0,.23c0,.16,0,.32,0,.48a1.93,1.93,0,0,1-.13-.47,1.13,1.13,0,0,1,0-.26.93.93,0,0,1,0-.13.48.48,0,0,1,.09-.11,1.42,1.42,0,0,1,.41-.28A3.66,3.66,0,0,1,154.47,92.44Z"/><path class="cls-1" d="M153.55,92.14a5.44,5.44,0,0,1,.54-.15c-.34.17-.68.31-1,.47l-.25.11a.49.49,0,0,0-.16.19,2.33,2.33,0,0,0-.2.52,1.38,1.38,0,0,1,.12-.56.53.53,0,0,1,.18-.24l.26-.13A4.87,4.87,0,0,1,153.55,92.14Z"/><path class="cls-6" d="M158.84,94.09a2.31,2.31,0,0,1-.21.86.76.76,0,0,1-.23.3c-.07,0-.16.06-.24.11s-.26.3-.4.44a1.3,1.3,0,0,1-1,.26,1.25,1.25,0,0,0-.61,0l-.26.17a1.42,1.42,0,0,1-.89,0,.89.89,0,0,0-.43,0,2.4,2.4,0,0,1-.23.11c-.23.07-.48-.1-.7,0-.07,0-.13.09-.2.12a.44.44,0,0,1-.4,0,1.14,1.14,0,0,0-.23-.15c-.14,0-.3.06-.44,0a1.29,1.29,0,0,1-.17-.16.66.66,0,0,0-.46,0,1.23,1.23,0,0,1-1.06-.33c-.13-.12-.27-.3-.45-.29a1.77,1.77,0,0,1-.2,0,.38.38,0,0,1-.23-.16c-.22-.25-.44-.51-.64-.78a1.43,1.43,0,0,1-.32-.71.87.87,0,0,1,0-.23"/><path class="cls-6" d="M158.85,94a.28.28,0,0,1,0,.09"/><path class="cls-6" d="M148.81,93.74a1.16,1.16,0,0,1,0-.18,2.45,2.45,0,0,1,.38-1,1.15,1.15,0,0,1,.21-.23l.42-.36.46-.38a1.82,1.82,0,0,1,.78-.4l.17,0a1.14,1.14,0,0,0,.71-.25c.16-.12.29-.29.47-.33a1.08,1.08,0,0,1,.4,0,15.62,15.62,0,0,0,1.79-.15,1.2,1.2,0,0,1,.64.16,1.7,1.7,0,0,0,.23.17,1.23,1.23,0,0,0,.47,0,1.71,1.71,0,0,1,.94.24,4,4,0,0,1,1.16,1.39.51.51,0,0,0,.24.24,1.54,1.54,0,0,1,.19.08.34.34,0,0,1,.14.19,2.53,2.53,0,0,1,.2,1"/><path class="cls-6" d="M148.81,93.73h0c0,.05-.4.57-.14,3.13.13,1.66-.12,2.91.22,3.42a4.09,4.09,0,0,0,.83,1,8.78,8.78,0,0,0,3.75,1.14,8.64,8.64,0,0,0,1.35-.15,4.94,4.94,0,0,0,2.64-.88l.51-.5a1.89,1.89,0,0,0,.76-1.49c.08-1.09,0-1.74,0-2.53s.06-2.33.07-2.83h0a.34.34,0,0,0,0-.09v0"/><path class="cls-6" d="M153.64,91.77a5.22,5.22,0,0,0-1.23.47,1.94,1.94,0,0,0-.29.21.84.84,0,0,0-.25.61,1.57,1.57,0,0,0,.13.47.29.29,0,0,0,.08.13.56.56,0,0,0,.19.09.5.5,0,0,1,.23.18c0,.06.06.13.1.19a.7.7,0,0,0,.85.26,4.49,4.49,0,0,1,.42-.24,1.18,1.18,0,0,1,.56,0,2.65,2.65,0,0,0,.84,0,2.5,2.5,0,0,1,.9-.1,1.62,1.62,0,0,0-.44-1.32,3.87,3.87,0,0,0-.37-.32,4.76,4.76,0,0,1-.57-.62c0-.08-.11-.22-.21-.24a1.08,1.08,0,0,0-.43.1A4.91,4.91,0,0,0,153.64,91.77Z"/><path class="cls-8" d="M152.93,105.43,181,94.77a.37.37,0,0,1,.49.27l.17.83a.38.38,0,0,1-.24.42l-28.23,9.82a.36.36,0,0,1-.46-.21h0A.35.35,0,0,1,152.93,105.43Z"/><path class="cls-8" d="M154.46,106.52l28.5-9.4a.36.36,0,0,1,.47.29l.14.84a.36.36,0,0,1-.26.41l-28.64,8.56a.36.36,0,0,1-.45-.23h0A.38.38,0,0,1,154.46,106.52Z"/></svg>