<svg xmlns="http://www.w3.org/2000/svg" id="Layer_1" data-name="Layer 1" viewBox="41.08 40.82 173.84 174.36"><defs><style>.cls-3{fill:#2db5ff}.cls-4{fill:#fff}.cls-5,.cls-7{fill:none}.cls-5{stroke:#0e4e91;stroke-miterlimit:10}.cls-7{stroke:#2f3a5a;stroke-linecap:round;stroke-linejoin:round}</style></defs><path d="M124.33 215.09v-1.14c2 .09 4.05.12 6.05.06v1.15c-1.94.04-4.01.02-6.05-.07zm-4.59-.33c-2-.2-4.08-.47-6.08-.81l.19-1.13c2 .33 4 .6 6 .79zm15.32.16-.09-1.14c2-.16 4-.39 6-.68l.17 1.13c-2 .3-4.05.53-6.08.69zm10.63-1.48-.23-1.13c2-.4 3.95-.87 5.88-1.42l.31 1.11c-1.96.55-3.96 1-5.96 1.44zm10.36-2.79-.37-1.08c1.89-.64 3.8-1.35 5.66-2.13l.44 1.05c-1.88.79-3.78 1.51-5.73 2.16zm9.93-4-.5-1c1.81-.87 3.62-1.82 5.36-2.82l.57 1c-1.77.94-3.6 1.89-5.41 2.78zm-86.28-6.2c-1.69-1.14-3.36-2.35-5-3.6l.7-.9c1.59 1.23 3.24 2.43 4.91 3.55zm95.64 1-.61-1c1.69-1.08 3.36-2.24 5-3.44l.69.91c-1.67 1.18-3.36 2.35-5.08 3.45zm-104.16-7.56a84.604 84.604 0 0 1-4.49-4.19l.8-.81a86.44 86.44 0 0 0 4.44 4.13zM184 195l-.74-.88c1.55-1.28 3.07-2.64 4.52-4l.79.82c-1.47 1.42-3.02 2.8-4.57 4.06zm-120.49-8.63c-1.35-1.5-2.69-3.09-3.94-4.69l.91-.71c1.24 1.59 2.55 3.15 3.89 4.63zm128.3 1.31-.83-.78c1.39-1.47 2.72-3 4-4.56l.89.73c-1.3 1.57-2.66 3.13-4.06 4.61zM56.83 178a86.879 86.879 0 0 1-3.34-5.14l1-.59c1 1.72 2.14 3.43 3.29 5.07zm141.84 1.45-.93-.68c1.19-1.62 2.33-3.31 3.41-5l1 .61c-1.15 1.69-2.28 3.39-3.48 5.04zM51.23 168.83c-1-1.8-1.86-3.66-2.69-5.51l1.05-.47c.81 1.84 1.71 3.66 2.65 5.44zm153.24 1.55-1-.56c1-1.76 1.91-3.57 2.76-5.4l1 .49c-.83 1.85-1.77 3.69-2.76 5.47zM41.08 127.57c0-1.81.08-3.66.2-5.46v-.67l1.14.08v.67c-.12 1.78-.19 3.6-.2 5.39zM42.93 117l-1.13-.14c.25-2 .59-4.06 1-6.06l1.13.23c-.42 1.97-.75 3.97-1 5.97zm170.85 1.49c-.22-2-.51-4-.87-6l1.12-.21c.36 2 .66 4 .89 6.07zM44.91 106.6l-1.1-.29c.51-2 1.08-4 1.73-5.88l1.08.36c-.62 1.91-1.21 3.86-1.71 5.81zM212 108.06c-.46-2-1-3.92-1.61-5.83l1.09-.35c.61 2 1.16 3.94 1.63 5.92zM48.16 96.53l-1.07-.43c.75-1.89 1.57-3.78 2.45-5.63l1 .49c-.83 1.82-1.64 3.69-2.38 5.57zm160.74 1.41a93.83 93.83 0 0 0-2.31-5.59l1-.48c.85 1.85 1.63 3.76 2.35 5.67zm-156.26-11-1-.55c1-1.78 2-3.56 3.12-5.29l1 .62a68.571 68.571 0 0 0-3.12 5.19zm152 1.36c-.93-1.78-1.93-3.55-3-5.26l1-.59c1.07 1.73 2.09 3.53 3 5.33zM58.28 77.93l-.93-.66c1.19-1.66 2.45-3.3 3.75-4.86l.87.73a85.81 85.81 0 0 0-3.69 4.79zm140.86 1.28a89.853 89.853 0 0 0-3.61-4.86l.9-.71c1.27 1.58 2.5 3.24 3.65 4.92zM65 69.72l-.84-.78c1.38-1.5 2.83-3 4.32-4.37l.78.84c-1.5 1.38-2.93 2.82-4.26 4.31zm127.6 1.15c-1.33-1.5-2.74-3-4.18-4.38l.8-.82c1.46 1.43 2.88 2.92 4.23 4.45zM100 46.69l-.38-1.08c1.92-.67 3.9-1.28 5.86-1.81l.3 1.11c-1.91.53-3.86 1.09-5.78 1.78zm57.89.52c-1.89-.7-3.83-1.33-5.76-1.88l.32-1.1c2 .56 3.92 1.2 5.83 1.91zm-47.7-3.37-.19-1.11c2-.43 4-.79 6-1.08l.16 1.13c-1.97.3-3.97.65-5.94 1.06zm37.55.34c-2-.45-4-.83-6-1.15l.26-1.13c2 .32 4 .71 6 1.17zm-27.08-1.9-.1-1.14c2-.17 4.1-.28 6.13-.32v1.15c-1.96.03-4 .14-6 .31zm16.64.15c-2-.21-4-.35-6.05-.42v-1.14c2 .07 4.09.22 6.13.43z" style="fill:#0e4e91"/><circle cx="128.9" cy="127.59" r="67.05" style="fill:#abe7ff"/><path class="cls-3" d="M178.63 92.57a2 2 0 1 1-2 2 2 2 0 0 1 2-2z"/><circle class="cls-3" cx="172.75" cy="94.58" r="2.01"/><path class="cls-4" d="M174.76 94.58a2 2 0 1 0-2 2 2 2 0 0 0 2-2zm-38.69-3.94h47.39V98h-47.41v-7.36zm42.56 5.94a2 2 0 1 0-2-2 2 2 0 0 0 2 2z"/><path class="cls-3" d="m172.13 75.69 11.33 14.75-47.39.2 11.73-14.95h24.33z"/><path class="cls-4" d="M172.13 75.69h-24.4V60.1h24.44v15.59h-.04z"/><path class="cls-5" d="M147.8 75.69h-.07V60.1h24.44v15.59H147.8z"/><path class="cls-5" d="m148.08 75.34-.28.35-11.73 14.95"/><path class="cls-5" d="m171.69 75.13.44.56 11.33 14.75-47.39.2m0 0h47.39v7.34h-47.41v-7.34h.02z"/><circle class="cls-5" cx="172.75" cy="94.58" r="2.01"/><path class="cls-5" d="M176.62 94.58a2 2 0 1 1 2 2 2 2 0 0 1-2-2zm1.86.23 1.6-1.58m-7.36-.61.05 2.23M152 102.06a98.46 98.46 0 0 0-.1 9.41m7.8-7.96q.2 6.7.05 13.42m7.78-14.93q-.12 4.77-.1 9.53"/><circle class="cls-3" cx="105" cy="159.43" r="1.78"/><path class="cls-3" d="M106.78 159.43a1.78 1.78 0 1 0-1.78 1.78 1.78 1.78 0 0 0 1.78-1.78zm-1.78-3.57a3.57 3.57 0 1 1-3.56 3.57 3.57 3.57 0 0 1 3.56-3.57z"/><circle class="cls-3" cx="105" cy="146.15" r="1.78"/><path class="cls-3" d="M105 142.59a3.57 3.57 0 1 1-3.56 3.56 3.57 3.57 0 0 1 3.56-3.56zm0 5.34a1.78 1.78 0 1 0-1.78-1.78 1.78 1.78 0 0 0 1.78 1.78z"/><path class="cls-4" d="M114.29 139.57v27a1.76 1.76 0 0 1-1.76 1.77H61.37a1.77 1.77 0 0 1-1.77-1.77v-27a1.76 1.76 0 0 1 1.77-1.76h51.16a1.76 1.76 0 0 1 1.76 1.76zm-5.72 6.58a3.57 3.57 0 1 0-3.57 3.57 3.57 3.57 0 0 0 3.57-3.57zm0 13.28A3.57 3.57 0 1 0 105 163a3.57 3.57 0 0 0 3.57-3.57zm-14.57.38V145a1.21 1.21 0 0 0-1.2-1.21H66.17A1.21 1.21 0 0 0 65 145v14.83a1.2 1.2 0 0 0 1.2 1.2h26.58a1.2 1.2 0 0 0 1.22-1.22z"/><path class="cls-3" d="M94 145v14.83a1.2 1.2 0 0 1-1.2 1.2H66.17a1.2 1.2 0 0 1-1.2-1.2V145a1.21 1.21 0 0 1 1.2-1.21h26.61A1.21 1.21 0 0 1 94 145z"/><path class="cls-5" d="M59.6 166.54v-27a1.76 1.76 0 0 1 1.77-1.76h51.16a1.76 1.76 0 0 1 1.76 1.76v27a1.76 1.76 0 0 1-1.76 1.77H61.37a1.77 1.77 0 0 1-1.77-1.77z"/><path class="cls-5" d="M65 159.81V145a1.21 1.21 0 0 1 1.2-1.21h26.58A1.21 1.21 0 0 1 94 145v14.83a1.2 1.2 0 0 1-1.2 1.2H66.17a1.2 1.2 0 0 1-1.17-1.22z"/><path class="cls-5" d="M74.86 148.5a1.64 1.64 0 0 0-1.63.84 1.66 1.66 0 0 0 .22 1.83 14.21 14.21 0 0 0 1.5 1 2.16 2.16 0 0 1-1.31 3.83m5.86-7.61a2.79 2.79 0 0 0-1.56.77 1.29 1.29 0 0 0-.15 1.63c.33.42.95.5 1.42.78a2 2 0 0 1 .71 2.4 2.75 2.75 0 0 1-2 1.61m5.73-7.16a3.87 3.87 0 0 0-1.21.82 1.29 1.29 0 0 0-.26 1.37c.26.54.95.7 1.43 1.07a2 2 0 0 1 .53 2.42 2.4 2.4 0 0 1-2.14 1.3"/><circle class="cls-5" cx="105" cy="146.15" r="3.56"/><circle class="cls-5" cx="105" cy="146.15" r="1.78"/><circle class="cls-5" cx="105" cy="159.43" r="3.56"/><circle class="cls-5" cx="105" cy="159.43" r="1.78"/><path class="cls-4" d="M113.57 77a2 2 0 0 1 .87 3.25 2 2 0 0 1-1.39.57h-3a1.95 1.95 0 0 1-.66-3.78 2.08 2.08 0 0 1 .66-.11h3a2.18 2.18 0 0 1 .52.07z"/><path class="cls-4" d="M110 76.91a2.08 2.08 0 0 0-.66.11v-.92a8.8 8.8 0 0 0-8.79-8.79h-.33a8.79 8.79 0 0 0-8.78 8.79v37.94a4.83 4.83 0 0 0-1.21-.14h-1.81a5.4 5.4 0 0 0-1.15.12V76.15a13.17 13.17 0 0 1 26.33 0V77a2.18 2.18 0 0 0-.52-.07z"/><path class="cls-5" d="M87.24 113.9V76.15a13.17 13.17 0 0 1 26.33 0v1.17"/><path class="cls-5" d="M91.42 113.9V76.06a8.79 8.79 0 0 1 8.78-8.79h.33a8.8 8.8 0 0 1 8.79 8.79v.9"/><path class="cls-5" d="M113.57 77a2 2 0 0 1 .87 3.25 2 2 0 0 1-1.39.57h-3a1.95 1.95 0 0 1-.66-3.78 2.08 2.08 0 0 1 .66-.11h3a2.18 2.18 0 0 1 .52.07z"/><path class="cls-4" d="M87.49 111h3.89a4.39 4.39 0 0 1 4.39 4.39H83.1a4.39 4.39 0 0 1 4.39-4.39z"/><path class="cls-5" d="M87.49 111h3.89a4.39 4.39 0 0 1 4.39 4.39H83.1a4.39 4.39 0 0 1 4.39-4.39zm-20.97 4.4h46.12"/><path class="cls-4" d="M77.42 102.49a2.27 2.27 0 0 1 2.27 2.27v10.45h-4.54v-10.45a2.27 2.27 0 0 1 2.27-2.27z"/><path class="cls-5" d="M77.42 102.49a2.27 2.27 0 0 1 2.27 2.27v10.45h-4.54v-10.45a2.27 2.27 0 0 1 2.27-2.27zm-2.27 2.69h-3.4"/><path class="cls-4" d="M99.56 102.49h4.55v10.45a2.27 2.27 0 0 1-2.27 2.27 2.27 2.27 0 0 1-2.27-2.27v-10.45h-.01z" transform="rotate(-180 101.835 108.855)"/><path class="cls-5" d="M99.56 102.49h4.55v10.45a2.27 2.27 0 0 1-2.27 2.27 2.27 2.27 0 0 1-2.27-2.27v-10.45h-.01z" transform="rotate(-180 101.835 108.855)"/><path class="cls-5" d="M104.11 105.18h3.78"/><path d="M211.3 150.07a1.15 1.15 0 0 1-.11 1.87l-49.36 30.49a1.14 1.14 0 0 1-1.44-.19l-34.81-37.37A1.15 1.15 0 0 1 126 143l48.13-21.83a1.18 1.18 0 0 1 1.2.15zm-17.22 6.54a1.72 1.72 0 0 0 .19-2.77l-27.45-23.17a1.7 1.7 0 0 0-1.83-.24l-30.22 14.06a1.73 1.73 0 0 0-.53 2.74l12.33 13.12 14.5 15.43a1.72 1.72 0 0 0 2.17.27l17.4-11z" style="fill:#caf5fe"/><path class="cls-4" d="M194.27 153.84a1.72 1.72 0 0 1-.19 2.77l-13.44 8.47-13.95-12.94a3.3 3.3 0 0 0-3.79-.49l-16.33 8.7-12.33-13.12a1.73 1.73 0 0 1 .53-2.74L165 130.43a1.7 1.7 0 0 1 1.83.24zm-14.51-3.76c.74-.16 1.07-1.47.74-2.9s-1.2-2.45-1.94-2.29-1.07 1.48-.74 2.91 1.18 2.46 1.94 2.28z"/><path class="cls-4" d="m180.64 165.08-17.4 11a1.72 1.72 0 0 1-2.17-.27l-14.5-15.43 16.33-8.7a3.3 3.3 0 0 1 3.79.49zm-11.26 3c0-1.49-1.66-2.69-3.7-2.69s-3.7 1.2-3.7 2.69 1.66 2.68 3.7 2.68 3.7-1.18 3.7-2.66z"/><path class="cls-3" d="M180.5 147.18c.33 1.43 0 2.74-.74 2.9s-1.61-.85-1.94-2.28 0-2.73.74-2.91 1.6.86 1.94 2.29zm-14.82 18.23c2 0 3.7 1.2 3.7 2.69s-1.66 2.68-3.7 2.68-3.7-1.2-3.7-2.68 1.66-2.69 3.7-2.69z"/><path class="cls-7" d="m126 143 48.13-21.83a1.18 1.18 0 0 1 1.2.15l36 28.71a1.15 1.15 0 0 1-.11 1.87l-49.36 30.49a1.14 1.14 0 0 1-1.44-.19l-34.81-37.37A1.15 1.15 0 0 1 126 143z"/><path class="cls-7" d="m146.57 160.35-12.33-13.12a1.73 1.73 0 0 1 .53-2.74L165 130.43a1.7 1.7 0 0 1 1.83.24l27.45 23.17a1.72 1.72 0 0 1-.19 2.77l-13.44 8.47-17.4 11a1.72 1.72 0 0 1-2.17-.27z"/><path class="cls-7" d="M169.38 168.1c0 1.48-1.66 2.68-3.7 2.68s-3.7-1.2-3.7-2.68 1.66-2.69 3.7-2.69 3.7 1.2 3.7 2.69zm10.38-18.02c-.74.18-1.61-.85-1.94-2.28s0-2.73.74-2.91 1.6.86 1.94 2.29 0 2.74-.74 2.9zm-33.19 10.27 16.33-8.7a3.3 3.3 0 0 1 3.79.49l13.95 12.94m-15.83-13.82.7-15.85m10.45-8.07 8.84 7.19m2.2 1.84 17.55 13.86a.45.45 0 0 1-.06.73l-4.1 2.33"/></svg>