<svg id="Layer_1" data-name="Layer 1" xmlns="http://www.w3.org/2000/svg" viewBox="0 0 256 256"><defs><style>.cls-1{fill:#0e4e91;}.cls-2{fill:#abe7ff;}.cls-3{fill:#2db5ff;}.cls-4{fill:#fff;}.cls-5,.cls-7{fill:none;}.cls-5{stroke:#0e4e91;stroke-miterlimit:10;}.cls-6{fill:#caf5fe;}.cls-7{stroke:#2f3a5a;stroke-linecap:round;stroke-linejoin:round;}</style></defs><path class="cls-1" d="M124.33,215.09l0-1.14c2,.09,4.05.12,6.05.06l0,1.15C128.44,215.2,126.37,215.18,124.33,215.09Zm-4.59-.33c-2-.2-4.08-.47-6.08-.81l.19-1.13c2,.33,4,.6,6,.79Zm15.32.16-.09-1.14c2-.16,4-.39,6-.68l.17,1.13C139.14,214.53,137.09,214.76,135.06,214.92Zm10.63-1.48-.23-1.13c2-.4,3.95-.87,5.88-1.42l.31,1.11C149.69,212.55,147.69,213,145.69,213.44Zm10.36-2.79-.37-1.08c1.89-.64,3.8-1.35,5.66-2.13l.44,1.05C159.9,209.28,158,210,156.05,210.65Zm9.93-4-.5-1c1.81-.87,3.62-1.82,5.36-2.82l.57,1C169.64,204.77,167.81,205.72,166,206.61Zm-86.28-6.2c-1.69-1.14-3.36-2.35-5-3.6l.7-.9c1.59,1.23,3.24,2.43,4.91,3.55Zm95.64,1-.61-1c1.69-1.08,3.36-2.24,5-3.44l.69.91C178.75,199.1,177.06,200.27,175.34,201.37ZM71.18,193.89c-1.54-1.34-3.05-2.74-4.49-4.19l.8-.81c1.43,1.43,2.92,2.81,4.44,4.13ZM184,195l-.74-.88c1.55-1.28,3.07-2.64,4.52-4l.79.82C187.1,192.36,185.55,193.74,184,195ZM63.51,186.37c-1.35-1.5-2.69-3.09-3.94-4.69l.91-.71c1.24,1.59,2.55,3.15,3.89,4.63Zm128.3,1.31-.83-.78c1.39-1.47,2.72-3,4-4.56l.89.73C194.57,184.64,193.21,186.2,191.81,187.68ZM56.83,178c-1.17-1.67-2.29-3.39-3.34-5.14l1-.59c1,1.72,2.14,3.43,3.29,5.07Zm141.84,1.45-.93-.68c1.19-1.62,2.33-3.31,3.41-5l1,.61C201,176.07,199.87,177.77,198.67,179.42ZM51.23,168.83c-1-1.8-1.86-3.66-2.69-5.51l1.05-.47c.81,1.84,1.71,3.66,2.65,5.44Zm153.24,1.55-1-.56c1-1.76,1.91-3.57,2.76-5.4l1,.49C206.4,166.76,205.46,168.6,204.47,170.38ZM41.08,127.57c0-1.81.08-3.66.2-5.46l0-.67,1.14.08,0,.67c-.12,1.78-.19,3.6-.2,5.39ZM42.93,117l-1.13-.14c.25-2,.59-4.06,1-6.06l1.13.23C43.51,113,43.18,115,42.93,117Zm170.85,1.49c-.22-2-.51-4-.87-6l1.12-.21c.36,2,.66,4,.89,6.07ZM44.91,106.6l-1.1-.29c.51-2,1.08-4,1.73-5.88l1.08.36C46,102.7,45.41,104.65,44.91,106.6ZM212,108.06c-.46-2-1-3.92-1.61-5.83l1.09-.35c.61,2,1.16,3.94,1.63,5.92ZM48.16,96.53l-1.07-.43c.75-1.89,1.57-3.78,2.45-5.63l1,.49C49.71,92.78,48.9,94.65,48.16,96.53ZM208.9,97.94c-.71-1.88-1.48-3.76-2.31-5.59l1-.48c.85,1.85,1.63,3.76,2.35,5.67Zm-156.26-11-1-.55c1-1.78,2-3.56,3.12-5.29l1,.62C54.64,83.4,53.6,85.15,52.64,86.91Zm152,1.36c-.93-1.78-1.93-3.55-3-5.26l1-.59c1.07,1.73,2.09,3.53,3,5.33ZM58.28,77.93l-.93-.66c1.19-1.66,2.45-3.3,3.75-4.86l.87.73C60.69,74.68,59.45,76.3,58.28,77.93Zm140.86,1.28c-1.15-1.65-2.35-3.29-3.61-4.86l.9-.71c1.27,1.58,2.5,3.24,3.65,4.92ZM65,69.72l-.84-.78c1.38-1.5,2.83-3,4.32-4.37l.78.84C67.76,66.79,66.33,68.23,65,69.72ZM192.6,70.87c-1.33-1.5-2.74-3-4.18-4.38l.8-.82c1.46,1.43,2.88,2.92,4.23,4.45ZM100,46.69l-.38-1.08c1.92-.67,3.9-1.28,5.86-1.81l.3,1.11C103.87,45.44,101.92,46,100,46.69Zm57.89.52c-1.89-.7-3.83-1.33-5.76-1.88l.32-1.1c2,.56,3.92,1.2,5.83,1.91Zm-47.7-3.37L110,42.73c2-.43,4-.79,6-1.08l.16,1.13C114.19,43.08,112.19,43.43,110.22,43.84Zm37.55.34c-2-.45-4-.83-6-1.15L142,41.9c2,.32,4,.71,6,1.17Zm-27.08-1.9-.1-1.14c2-.17,4.1-.28,6.13-.32l0,1.15C124.73,42,122.69,42.11,120.69,42.28Zm16.64.15c-2-.21-4-.35-6.05-.42l0-1.14c2,.07,4.09.22,6.13.43Z"/><circle class="cls-2" cx="128.9" cy="127.59" r="67.05"/><path class="cls-3" d="M178.63,92.57a2,2,0,1,1-2,2A2,2,0,0,1,178.63,92.57Z"/><circle class="cls-3" cx="172.75" cy="94.58" r="2.01"/><path class="cls-4" d="M174.76,94.58a2,2,0,1,0-2,2A2,2,0,0,0,174.76,94.58Zm-38.69-3.94h47.39V98H136.05V90.64Zm42.56,5.94a2,2,0,1,0-2-2A2,2,0,0,0,178.63,96.58Z"/><polygon class="cls-3" points="172.13 75.69 183.46 90.44 136.07 90.64 147.8 75.69 172.13 75.69"/><polygon class="cls-4" points="172.13 75.69 147.8 75.69 147.73 75.69 147.73 60.1 172.17 60.1 172.17 75.69 172.13 75.69"/><polygon class="cls-5" points="147.8 75.69 147.73 75.69 147.73 60.1 172.17 60.1 172.17 75.69 172.13 75.69 147.8 75.69"/><polyline class="cls-5" points="148.08 75.34 147.8 75.69 136.07 90.64"/><polyline class="cls-5" points="171.69 75.13 172.13 75.69 183.46 90.44 136.07 90.64"/><polygon class="cls-5" points="136.07 90.64 183.46 90.64 183.46 97.98 136.05 97.98 136.05 90.64 136.07 90.64"/><circle class="cls-5" cx="172.75" cy="94.58" r="2.01"/><path class="cls-5" d="M176.62,94.58a2,2,0,1,1,2,2A2,2,0,0,1,176.62,94.58Z"/><line class="cls-5" x1="178.48" y1="94.81" x2="180.08" y2="93.23"/><line class="cls-5" x1="172.72" y1="92.62" x2="172.77" y2="94.85"/><path class="cls-5" d="M152,102.06c-.18,3.13-.22,6.28-.1,9.41"/><path class="cls-5" d="M159.7,103.51q.2,6.7.05,13.42"/><path class="cls-5" d="M167.53,102q-.12,4.77-.1,9.53"/><circle class="cls-3" cx="105" cy="159.43" r="1.78"/><path class="cls-3" d="M106.78,159.43a1.78,1.78,0,1,0-1.78,1.78A1.78,1.78,0,0,0,106.78,159.43ZM105,155.86a3.57,3.57,0,1,1-3.56,3.57A3.57,3.57,0,0,1,105,155.86Z"/><circle class="cls-3" cx="105" cy="146.15" r="1.78"/><path class="cls-3" d="M105,142.59a3.57,3.57,0,1,1-3.56,3.56A3.57,3.57,0,0,1,105,142.59Zm0,5.34a1.78,1.78,0,1,0-1.78-1.78A1.78,1.78,0,0,0,105,147.93Z"/><path class="cls-4" d="M114.29,139.57v27a1.76,1.76,0,0,1-1.76,1.77H61.37a1.77,1.77,0,0,1-1.77-1.77v-27a1.76,1.76,0,0,1,1.77-1.76h51.16A1.76,1.76,0,0,1,114.29,139.57Zm-5.72,6.58a3.57,3.57,0,1,0-3.57,3.57A3.57,3.57,0,0,0,108.57,146.15Zm0,13.28A3.57,3.57,0,1,0,105,163,3.57,3.57,0,0,0,108.57,159.43ZM94,159.81V145a1.21,1.21,0,0,0-1.2-1.21H66.17A1.21,1.21,0,0,0,65,145v14.83a1.2,1.2,0,0,0,1.2,1.2H92.78A1.2,1.2,0,0,0,94,159.81Z"/><path class="cls-3" d="M94,145v14.83a1.2,1.2,0,0,1-1.2,1.2H66.17a1.2,1.2,0,0,1-1.2-1.2V145a1.21,1.21,0,0,1,1.2-1.21H92.78A1.21,1.21,0,0,1,94,145Z"/><path class="cls-5" d="M59.6,166.54v-27a1.76,1.76,0,0,1,1.77-1.76h51.16a1.76,1.76,0,0,1,1.76,1.76v27a1.76,1.76,0,0,1-1.76,1.77H61.37A1.77,1.77,0,0,1,59.6,166.54Z"/><path class="cls-5" d="M65,159.81V145a1.21,1.21,0,0,1,1.2-1.21H92.78A1.21,1.21,0,0,1,94,145v14.83a1.2,1.2,0,0,1-1.2,1.2H66.17A1.2,1.2,0,0,1,65,159.81Z"/><path class="cls-5" d="M74.86,148.5a1.64,1.64,0,0,0-1.63.84,1.66,1.66,0,0,0,.22,1.83,14.21,14.21,0,0,0,1.5,1A2.16,2.16,0,0,1,73.64,156"/><path class="cls-5" d="M79.5,148.39a2.79,2.79,0,0,0-1.56.77,1.29,1.29,0,0,0-.15,1.63c.33.42.95.5,1.42.78a2,2,0,0,1,.71,2.4,2.75,2.75,0,0,1-2,1.61"/><path class="cls-5" d="M83.65,148.42a3.87,3.87,0,0,0-1.21.82,1.29,1.29,0,0,0-.26,1.37c.26.54.95.7,1.43,1.07a2,2,0,0,1,.53,2.42A2.4,2.4,0,0,1,82,155.4"/><circle class="cls-5" cx="105" cy="146.15" r="3.56"/><circle class="cls-5" cx="105" cy="146.15" r="1.78"/><circle class="cls-5" cx="105" cy="159.43" r="3.56"/><circle class="cls-5" cx="105" cy="159.43" r="1.78"/><path class="cls-4" d="M113.57,77a2,2,0,0,1,.87,3.25,2,2,0,0,1-1.39.57h-3a1.95,1.95,0,0,1-.66-3.78,2.08,2.08,0,0,1,.66-.11h3A2.18,2.18,0,0,1,113.57,77Z"/><path class="cls-4" d="M110,76.91a2.08,2.08,0,0,0-.66.11V77l0-.42v-.48a8.8,8.8,0,0,0-8.79-8.79h-.33a8.79,8.79,0,0,0-8.78,8.79V113.9l0,.14a4.83,4.83,0,0,0-1.21-.14H88.42a5.4,5.4,0,0,0-1.15.12l0-.12V76.15a13.17,13.17,0,0,1,26.33,0V77a2.18,2.18,0,0,0-.52-.07Z"/><path class="cls-5" d="M87.24,113.9V76.15a13.17,13.17,0,0,1,26.33,0v1.17"/><path class="cls-5" d="M91.42,113.9V76.06a8.79,8.79,0,0,1,8.78-8.79h.33a8.8,8.8,0,0,1,8.79,8.79v.48l0,.42"/><path class="cls-5" d="M113.57,77a2,2,0,0,1,.87,3.25,2,2,0,0,1-1.39.57h-3a1.95,1.95,0,0,1-.66-3.78,2.08,2.08,0,0,1,.66-.11h3A2.18,2.18,0,0,1,113.57,77Z"/><path class="cls-4" d="M87.49,111h3.89a4.39,4.39,0,0,1,4.39,4.39v0a0,0,0,0,1,0,0H83.1a0,0,0,0,1,0,0v0A4.39,4.39,0,0,1,87.49,111Z"/><path class="cls-5" d="M87.49,111h3.89a4.39,4.39,0,0,1,4.39,4.39v0a0,0,0,0,1,0,0H83.1a0,0,0,0,1,0,0v0A4.39,4.39,0,0,1,87.49,111Z"/><line class="cls-5" x1="66.52" y1="115.4" x2="112.64" y2="115.4"/><path class="cls-4" d="M77.42,102.49h0a2.27,2.27,0,0,1,2.27,2.27v10.45a0,0,0,0,1,0,0H75.15a0,0,0,0,1,0,0V104.76A2.27,2.27,0,0,1,77.42,102.49Z"/><path class="cls-5" d="M77.42,102.49h0a2.27,2.27,0,0,1,2.27,2.27v10.45a0,0,0,0,1,0,0H75.15a0,0,0,0,1,0,0V104.76A2.27,2.27,0,0,1,77.42,102.49Z"/><line class="cls-5" x1="75.15" y1="105.18" x2="71.75" y2="105.18"/><path class="cls-4" d="M99.56,102.49h4.55a0,0,0,0,1,0,0v10.45a2.27,2.27,0,0,1-2.27,2.27h0a2.27,2.27,0,0,1-2.27-2.27V102.49A0,0,0,0,1,99.56,102.49Z" transform="translate(203.67 217.71) rotate(-180)"/><path class="cls-5" d="M99.56,102.49h4.55a0,0,0,0,1,0,0v10.45a2.27,2.27,0,0,1-2.27,2.27h0a2.27,2.27,0,0,1-2.27-2.27V102.49A0,0,0,0,1,99.56,102.49Z" transform="translate(203.67 217.71) rotate(-180)"/><line class="cls-5" x1="104.11" y1="105.18" x2="107.89" y2="105.18"/><path class="cls-6" d="M211.3,150.07a1.15,1.15,0,0,1-.11,1.87l-49.36,30.49a1.14,1.14,0,0,1-1.44-.19l-34.81-37.37A1.15,1.15,0,0,1,126,143l48.13-21.83a1.18,1.18,0,0,1,1.2.15Zm-17.22,6.54a1.72,1.72,0,0,0,.19-2.77l-27.45-23.17a1.7,1.7,0,0,0-1.83-.24l-30.22,14.06a1.73,1.73,0,0,0-.53,2.74l12.33,13.12,14.5,15.43a1.72,1.72,0,0,0,2.17.27l17.4-11Z"/><path class="cls-4" d="M194.27,153.84a1.72,1.72,0,0,1-.19,2.77l-13.44,8.47-13.95-12.94a3.3,3.3,0,0,0-3.79-.49l-16.33,8.7-12.33-13.12a1.73,1.73,0,0,1,.53-2.74L165,130.43a1.7,1.7,0,0,1,1.83.24Zm-14.51-3.76c.74-.16,1.07-1.47.74-2.9s-1.2-2.45-1.94-2.29-1.07,1.48-.74,2.91S179,150.26,179.76,150.08Z"/><path class="cls-4" d="M180.64,165.08l-17.4,11a1.72,1.72,0,0,1-2.17-.27l-14.5-15.43,16.33-8.7a3.3,3.3,0,0,1,3.79.49Zm-11.26,3c0-1.49-1.66-2.69-3.7-2.69s-3.7,1.2-3.7,2.69,1.66,2.68,3.7,2.68S169.38,169.58,169.38,168.1Z"/><path class="cls-3" d="M180.5,147.18c.33,1.43,0,2.74-.74,2.9s-1.61-.85-1.94-2.28,0-2.73.74-2.91S180.16,145.75,180.5,147.18Z"/><path class="cls-3" d="M165.68,165.41c2,0,3.7,1.2,3.7,2.69s-1.66,2.68-3.7,2.68-3.7-1.2-3.7-2.68S163.64,165.41,165.68,165.41Z"/><path class="cls-7" d="M126,143l48.13-21.83a1.18,1.18,0,0,1,1.2.15l36,28.71a1.15,1.15,0,0,1-.11,1.87l-49.36,30.49a1.14,1.14,0,0,1-1.44-.19l-34.81-37.37A1.15,1.15,0,0,1,126,143Z"/><path class="cls-7" d="M146.57,160.35l-12.33-13.12a1.73,1.73,0,0,1,.53-2.74L165,130.43a1.7,1.7,0,0,1,1.83.24l27.45,23.17a1.72,1.72,0,0,1-.19,2.77l-13.44,8.47-17.4,11a1.72,1.72,0,0,1-2.17-.27Z"/><path class="cls-7" d="M169.38,168.1c0,1.48-1.66,2.68-3.7,2.68s-3.7-1.2-3.7-2.68,1.66-2.69,3.7-2.69S169.38,166.61,169.38,168.1Z"/><path class="cls-7" d="M179.76,150.08c-.74.18-1.61-.85-1.94-2.28s0-2.73.74-2.91,1.6.86,1.94,2.29S180.5,149.92,179.76,150.08Z"/><path class="cls-7" d="M146.57,160.35l16.33-8.7a3.3,3.3,0,0,1,3.79.49l13.95,12.94"/><line class="cls-7" x1="164.81" y1="151.26" x2="165.51" y2="135.41"/><line class="cls-7" x1="175.96" y1="127.34" x2="184.8" y2="134.53"/><path class="cls-7" d="M187,136.37l17.55,13.86a.45.45,0,0,1-.06.73l-4.1,2.33"/></svg>