<svg id="Layer_1" data-name="Layer 1" xmlns="http://www.w3.org/2000/svg" viewBox="0 0 256 256"><defs><style>.cls-1{fill:#0e4e91;}.cls-2{fill:#abe7ff;}.cls-3{fill:#caf5fe;}.cls-4{fill:#fff;}.cls-5{fill:#12dbb4;}.cls-6{fill:none;stroke:#2f3a5a;stroke-miterlimit:10;}.cls-7{fill:#2db5ff;}</style></defs><path class="cls-1" d="M141.75,212.74l-.17-1.11c2-.29,3.93-.64,5.85-1.07l.24,1.1C145.73,212.08,143.73,212.44,141.75,212.74Zm-4.49.54c-2,.19-4,.31-6,.35l0-1.13c2-.05,4-.16,5.93-.35Zm14.8-2.71-.3-1.08c1.91-.53,3.82-1.13,5.67-1.78l.38,1.06C155.93,209.44,154,210,152.06,210.57Zm10-3.41-.42-1c1.82-.76,3.65-1.59,5.41-2.47l.5,1C165.73,205.55,163.89,206.39,162,207.16Zm9.48-4.62-.56-1c1.71-1,3.41-2,5.06-3.11l.63.94C175,200.49,173.24,201.56,171.51,202.54Zm8.82-5.76-.67-.9c1.58-1.17,3.15-2.42,4.64-3.71l.74.85C183.52,194.33,181.93,195.59,180.33,196.78ZM96,206.92c-1.84-.79-3.68-1.64-5.47-2.55l.51-1c1.76.9,3.58,1.74,5.4,2.51ZM188.38,190l-.77-.81c1.43-1.37,2.83-2.8,4.16-4.25l.83.75C191.25,187.15,189.83,188.6,188.38,190ZM86.53,202.22c-1.73-1-3.45-2.08-5.11-3.2l.63-.93c1.64,1.11,3.33,2.16,5,3.15Zm109-20-.88-.71c1.26-1.53,2.46-3.12,3.61-4.74l.92.65C198,179.1,196.8,180.72,195.54,182.26ZM77.74,196.4c-1.59-1.2-3.17-2.48-4.68-3.79l.74-.85c1.5,1.29,3,2.56,4.62,3.74Zm124-22.69-1-.6c1.06-1.68,2.07-3.4,3-5.14l1,.53C203.8,170.26,202.78,172,201.71,173.71Zm-132,15.84c-1.44-1.39-2.84-2.85-4.18-4.34l.84-.75c1.32,1.47,2.71,2.91,4.13,4.27Zm137.06-25.09-1-.48c.84-1.78,1.63-3.63,2.35-5.47l1,.41C208.44,160.79,207.63,162.65,206.78,164.46ZM62.61,181.77c-1.25-1.55-2.47-3.18-3.61-4.81l.92-.65c1.12,1.62,2.33,3.22,3.57,4.75Zm148.07-27.11-1.06-.35c.62-1.88,1.17-3.8,1.65-5.72l1.09.27C211.88,150.81,211.31,152.76,210.68,154.66ZM45.13,143.88c-.33-1.75-.61-3.54-.83-5.3l-.07-.66,1.11-.13.07.65c.22,1.74.5,3.51.82,5.24Zm-.19-10.54-1.12.08c-.13-2-.19-4-.18-6h1.13C44.75,129.38,44.81,131.37,44.94,133.34Zm165-30.46c-.59-1.89-1.24-3.78-2-5.61l1-.41c.72,1.85,1.39,3.77,2,5.69ZM44.91,122.94l-1.12-.07c.12-2,.31-4,.57-6l1.11.15C45.21,119,45,121,44.91,122.94ZM206.29,93.16c-.81-1.8-1.69-3.59-2.64-5.33l1-.53c1,1.76,1.85,3.58,2.67,5.4ZM46.16,112.62l-1.11-.21c.36-2,.8-3.94,1.31-5.88l1.09.28C47,108.72,46.52,110.68,46.16,112.62ZM201.43,84c-1-1.68-2.13-3.34-3.27-5l.91-.66c1.16,1.63,2.27,3.32,3.32,5ZM48.69,102.51l-1.08-.34c.6-1.9,1.29-3.82,2-5.68l1,.41C50,98.75,49.28,100.63,48.69,102.51ZM195.48,75.46c-1.24-1.55-2.53-3.07-3.87-4.52l.83-.76c1.36,1.48,2.67,3,3.92,4.58ZM52.44,92.8l-1-.47c.84-1.81,1.75-3.63,2.71-5.38l1,.54C54.16,89.22,53.26,91,52.44,92.8ZM188.52,67.73c-1.41-1.38-2.88-2.73-4.38-4l.73-.86c1.52,1.3,3,2.67,4.44,4.07ZM57.36,83.63l-1-.59c1.05-1.71,2.18-3.39,3.35-5l.91.66C59.51,80.29,58.4,81.94,57.36,83.63Zm123.3-22.72c-1.56-1.19-3.19-2.35-4.85-3.44l.62-.94c1.67,1.1,3.32,2.28,4.91,3.5Zm-93.79-6-.56-1c1.73-1,3.51-2,5.31-2.84l.49,1C90.34,53,88.58,53.89,86.87,54.88Zm55.92-10.31c-1.94-.32-3.93-.56-5.89-.74l.1-1.12c2,.18,4,.43,6,.75ZM96.17,50.23l-.44-1c1.84-.78,3.73-1.51,5.62-2.17l.37,1.06C99.85,48.75,98,49.46,96.17,50.23Zm36.27-6.68c-2-.07-4-.07-6,0l0-1.13c2-.07,4-.06,6,0ZM106,46.77l-.31-1.08c1.92-.55,3.89-1,5.85-1.46l.23,1.1C109.82,45.74,107.87,46.22,106,46.77Zm16.07-3c-2,.17-4,.41-5.91.72L116,43.42c2-.31,4-.55,6-.73Z"/><circle class="cls-2" cx="129.82" cy="127.5" r="65.86"/><polygon class="cls-3" points="91.46 141.16 96.39 145.49 83.93 159.7 78.99 155.38 91.46 141.16"/><rect class="cls-3" x="84.81" y="152.92" width="18.92" height="6.56" transform="translate(-85.33 124.11) rotate(-48.76)"/><polygon class="cls-3" points="104.62 152.69 109.56 157.02 97.08 171.24 92.15 166.91 104.62 152.69"/><polygon class="cls-3" points="111.2 158.47 116.14 162.79 103.67 177.01 98.73 172.68 111.2 158.47"/><polygon class="cls-3" points="117.78 164.23 122.71 168.56 110.25 182.77 105.31 178.45 117.78 164.23"/><path class="cls-4" d="M129.83,173.71a1.1,1.1,0,0,1,1.65,1.44l-.54.62L118.47,190l-.55.62a1.1,1.1,0,0,1-1.55.1A1.13,1.13,0,0,1,116,190a1.16,1.16,0,0,1,.28-.8l.55-.62,12.46-14.21Z"/><path class="cls-4" d="M124.36,170l-12.47,14.22-.55.62a1.09,1.09,0,0,1-1.54.1l-.1-1.55.54-.62,12.47-14.21.54-.62,1.55-.1a1.09,1.09,0,0,1,.1,1.54Z"/><polygon class="cls-3" points="124.36 170 129.29 174.33 116.83 188.54 111.89 184.22 124.36 170"/><path class="cls-4" d="M116.68,162.17a1.09,1.09,0,1,1,1.64,1.44l-.54.62-12.47,14.22-.55.62a1.09,1.09,0,0,1-1.54.1,1.06,1.06,0,0,1-.37-.74,1.09,1.09,0,0,1,.27-.8l.54-.62,12.48-14.22Z"/><path class="cls-4" d="M111.2,158.47,98.73,172.68l-.54.62a1.1,1.1,0,0,1-1.92-.64,1.13,1.13,0,0,1,.27-.8l.54-.62L109.56,157l.54-.62a1.09,1.09,0,1,1,1.64,1.44Z"/><path class="cls-4" d="M90.5,165.47,103,151.25l.55-.62a1.09,1.09,0,1,1,1.64,1.44l-.54.63L92.15,166.91l-.54.62a1.09,1.09,0,0,1-1.55.1,1.1,1.1,0,0,1-.37-.74,1.13,1.13,0,0,1,.27-.8Z"/><path class="cls-4" d="M83.93,159.7l12.46-14.21.55-.62a1.09,1.09,0,0,1,1.65,1.43l-.55.63L85.57,161.15l-.54.61a1.07,1.07,0,0,1-1.54.1,1.05,1.05,0,0,1-.38-.74,1.11,1.11,0,0,1,.28-.8Z"/><path class="cls-4" d="M77.35,153.93l12.46-14.21.55-.62A1.09,1.09,0,1,1,92,140.53l-.55.63L79,155.38l-.54.62a1.1,1.1,0,0,1-1.92-.65,1.07,1.07,0,0,1,.28-.8Z"/><path class="cls-4" d="M88.45,135.42a2.33,2.33,0,0,1,3.29-.22l50,43.84a2.34,2.34,0,0,1,.78,1.61,2.27,2.27,0,0,1-.57,1.68,2.34,2.34,0,0,1-3.29.22l-7.73-6.78.54-.62a1.1,1.1,0,0,0-1.65-1.44l-.54.62L124.36,170l.54-.62a1.09,1.09,0,0,0-.1-1.54.92.92,0,0,0-.38-.22,1,1,0,0,0-.41-.05,1.18,1.18,0,0,0-.37.09,1,1,0,0,0-.39.28l-.54.62-4.93-4.33.54-.62a1.09,1.09,0,1,0-1.64-1.44l-.54.62-4.94-4.32.54-.63a1.09,1.09,0,1,0-1.64-1.44l-.54.62-4.94-4.32.54-.63a1.09,1.09,0,1,0-1.64-1.44l-.55.62L98,146.93l.55-.63a1.09,1.09,0,0,0-1.65-1.43l-.55.62-4.93-4.33.55-.63a1.09,1.09,0,1,0-1.65-1.43l-.55.62-1.14-1a2.31,2.31,0,0,1-.79-1.6A2.27,2.27,0,0,1,88.45,135.42Z"/><path class="cls-4" d="M72.91,153.14a2.33,2.33,0,0,1,1.6-.78,2.27,2.27,0,0,1,1.68.57l1.16,1-.54.62a1.07,1.07,0,0,0-.28.8,1.1,1.1,0,0,0,1.92.65l.54-.62,4.94,4.32-.54.62a1.11,1.11,0,0,0-.28.8,1.05,1.05,0,0,0,.38.74,1.07,1.07,0,0,0,1.54-.1l.54-.61,4.93,4.32-.54.62a1.13,1.13,0,0,0-.27.8,1.1,1.1,0,0,0,.37.74,1.09,1.09,0,0,0,1.55-.1l.54-.62,4.93,4.33-.54.62a1.13,1.13,0,0,0-.27.8,1.1,1.1,0,0,0,1.92.64l.54-.62,4.93,4.33-.54.62a1.09,1.09,0,0,0-.27.8,1.06,1.06,0,0,0,.37.74,1.09,1.09,0,0,0,1.54-.1l.55-.62,4.93,4.32-.54.62a1.09,1.09,0,1,0,1.64,1.45l.55-.62,4.94,4.32-.55.62a1.16,1.16,0,0,0-.28.8,1.13,1.13,0,0,0,.37.75,1.1,1.1,0,0,0,1.55-.1l.55-.62,7.73,6.78a2.34,2.34,0,0,1,.21,3.29,2.29,2.29,0,0,1-1.6.79,2.34,2.34,0,0,1-1.69-.57l-50-43.84A2.34,2.34,0,0,1,72.91,153.14Z"/><path class="cls-5" d="M124.8,167.84l-1.55.1a1,1,0,0,1,.39-.28,1.25,1.25,0,0,1,.37-.09,1.15,1.15,0,0,1,.41.05A1.22,1.22,0,0,1,124.8,167.84Z"/><path class="cls-5" d="M109.7,183.39l.1,1.55A1.09,1.09,0,0,1,109.7,183.39Z"/><line class="cls-6" x1="78.99" y1="155.38" x2="83.93" y2="159.7"/><line class="cls-6" x1="92.15" y1="166.91" x2="97.08" y2="171.24"/><line class="cls-6" x1="105.31" y1="178.45" x2="110.24" y2="182.77"/><path class="cls-6" d="M118.47,190l7.73,6.78a2.34,2.34,0,0,1,.21,3.29,2.29,2.29,0,0,1-1.6.79,2.34,2.34,0,0,1-1.69-.57l-50-43.84a2.33,2.33,0,0,1,1.39-4.08,2.27,2.27,0,0,1,1.68.57l1.16,1"/><line class="cls-6" x1="111.89" y1="184.22" x2="116.83" y2="188.54"/><line class="cls-6" x1="98.73" y1="172.68" x2="103.66" y2="177.01"/><line class="cls-6" x1="85.57" y1="161.15" x2="90.5" y2="165.47"/><line class="cls-6" x1="117.78" y1="164.23" x2="122.71" y2="168.56"/><line class="cls-6" x1="104.62" y1="152.7" x2="109.56" y2="157.02"/><line class="cls-6" x1="91.46" y1="141.16" x2="96.39" y2="145.49"/><path class="cls-6" d="M89.81,139.72l-1.14-1a2.31,2.31,0,0,1-.79-1.6,2.27,2.27,0,0,1,.57-1.68,2.33,2.33,0,0,1,3.29-.22l50,43.84a2.34,2.34,0,0,1,.78,1.61,2.27,2.27,0,0,1-.57,1.68,2.34,2.34,0,0,1-3.29.22l-7.73-6.78"/><line class="cls-6" x1="98.04" y1="146.93" x2="102.97" y2="151.25"/><line class="cls-6" x1="111.2" y1="158.47" x2="116.14" y2="162.79"/><line class="cls-6" x1="124.36" y1="170" x2="129.29" y2="174.33"/><path class="cls-6" d="M89.81,139.72l.55-.62A1.09,1.09,0,1,1,92,140.53l-.55.63L79,155.38l-.54.62a1.1,1.1,0,0,1-1.92-.65,1.07,1.07,0,0,1,.28-.8l.54-.62Z"/><path class="cls-6" d="M96.39,145.49l.55-.62a1.09,1.09,0,0,1,1.65,1.43l-.55.63L85.57,161.15l-.54.61a1.07,1.07,0,0,1-1.54.1,1.05,1.05,0,0,1-.38-.74,1.11,1.11,0,0,1,.28-.8l.54-.62Z"/><path class="cls-6" d="M103,151.25l.55-.62a1.09,1.09,0,1,1,1.64,1.44l-.54.63L92.15,166.91l-.54.62a1.09,1.09,0,0,1-1.55.1,1.1,1.1,0,0,1-.37-.74,1.13,1.13,0,0,1,.27-.8l.54-.62Z"/><path class="cls-6" d="M109.56,157l.54-.62a1.09,1.09,0,1,1,1.64,1.44l-.54.63L98.73,172.68l-.54.62a1.1,1.1,0,0,1-1.92-.64,1.13,1.13,0,0,1,.27-.8l.54-.62Z"/><path class="cls-6" d="M116.14,162.79l.54-.62a1.09,1.09,0,1,1,1.64,1.44l-.54.62-12.47,14.22-.55.62a1.09,1.09,0,0,1-1.54.1,1.06,1.06,0,0,1-.37-.74,1.09,1.09,0,0,1,.27-.8l.54-.62Z"/><path class="cls-6" d="M123.64,167.66a1.18,1.18,0,0,1,.37-.09,1,1,0,0,1,.41.05.92.92,0,0,1,.38.22,1.09,1.09,0,0,1,.1,1.54l-.54.62-12.47,14.22-.55.62a1.09,1.09,0,0,1-1.54.1"/><polyline class="cls-6" points="109.7 183.39 110.25 182.77 122.71 168.56 123.25 167.94"/><path class="cls-6" d="M129.29,174.33l.54-.62a1.1,1.1,0,0,1,1.65,1.44l-.54.62L118.47,190l-.55.62a1.1,1.1,0,0,1-1.55.1A1.13,1.13,0,0,1,116,190a1.16,1.16,0,0,1,.28-.8l.55-.62Z"/><polygon class="cls-4" points="159.17 172.91 159.17 182.44 153.92 182.44 153.92 104 159.17 104 159.17 148.21 159.17 151.69 159.17 162.3 159.17 172.91"/><polygon class="cls-4" points="187.99 104 187.99 182.44 182.74 182.44 182.74 172.91 182.74 162.3 182.74 151.69 182.74 148.21 182.74 104 187.99 104"/><polygon class="cls-4" points="182.74 104 182.74 148.21 178.46 148.21 178.46 140.53 178.46 128.97 178.46 117.4 178.46 105.83 178.46 94.27 178.46 82.7 178.46 78.37 182.74 78.37 182.74 104"/><polygon class="cls-4" points="163.45 140.53 163.45 148.21 159.17 148.21 159.17 104 159.17 78.37 163.45 78.37 163.45 82.7 163.45 94.27 163.45 105.83 163.45 117.4 163.45 128.97 163.45 140.53"/><polyline class="cls-6" points="159.17 104 159.17 78.37 163.45 78.37 163.45 82.7 163.45 94.27 163.45 105.83 163.45 117.4 163.45 128.97 163.45 140.53 163.45 148.21 159.17 148.21"/><polyline class="cls-6" points="182.74 148.21 178.46 148.21 178.46 140.53 178.46 128.97 178.46 117.4 178.46 105.83 178.46 94.27 178.46 82.7 178.46 78.37 182.74 78.37 182.74 104"/><line class="cls-6" x1="163.45" y1="82.7" x2="178.46" y2="82.7"/><line class="cls-6" x1="163.45" y1="94.27" x2="178.46" y2="94.27"/><line class="cls-6" x1="163.45" y1="105.83" x2="178.46" y2="105.83"/><line class="cls-6" x1="163.45" y1="117.4" x2="178.46" y2="117.4"/><line class="cls-6" x1="163.45" y1="128.96" x2="178.46" y2="128.96"/><line class="cls-6" x1="163.45" y1="140.53" x2="178.46" y2="140.53"/><polygon class="cls-6" points="159.17 172.91 159.17 182.44 153.92 182.44 153.92 104 159.17 104 159.17 148.21 159.17 151.69 159.17 162.3 159.17 172.91"/><polygon class="cls-6" points="182.74 104 187.99 104 187.99 182.44 182.74 182.44 182.74 172.91 182.74 162.3 182.74 151.69 182.74 148.21 182.74 104"/><line class="cls-6" x1="159.17" y1="151.69" x2="182.74" y2="151.69"/><line class="cls-6" x1="159.17" y1="162.3" x2="182.74" y2="162.3"/><line class="cls-6" x1="159.17" y1="172.91" x2="182.74" y2="172.91"/><polygon class="cls-4" points="123.12 70.92 134.25 127.66 128.75 127.66 119.12 78.54 119.12 78.53 120.62 70.92 123.12 70.92"/><polygon class="cls-7" points="124.72 65.32 124.72 70.92 123.12 70.92 120.62 70.92 117.63 70.92 115.13 70.92 94.07 70.92 88.57 70.92 86.28 70.92 86.28 65.32 124.72 65.32"/><polygon class="cls-4" points="120.62 70.92 119.12 78.53 119.12 78.54 109.49 127.66 104 127.66 105.73 118.85 106.7 113.88 108.81 103.13 109.79 98.16 111.9 87.41 112.87 82.44 115.13 70.92 117.63 70.92 120.62 70.92"/><polygon class="cls-3" points="115.13 70.92 112.87 82.44 91.81 82.44 94.07 70.92 115.13 70.92"/><polygon class="cls-4" points="112.87 82.44 111.9 87.41 90.84 87.41 91.81 82.44 112.87 82.44"/><polygon class="cls-3" points="111.9 87.41 109.79 98.16 88.73 98.16 90.84 87.41 111.9 87.41"/><polygon class="cls-4" points="109.79 98.16 108.81 103.13 87.75 103.13 88.73 98.16 109.79 98.16"/><polygon class="cls-3" points="108.81 103.13 106.7 113.88 85.64 113.88 87.75 103.13 108.81 103.13"/><polygon class="cls-4" points="106.7 113.88 105.73 118.85 84.67 118.85 85.64 113.88 106.7 113.88"/><polygon class="cls-4" points="94.07 70.92 91.81 82.44 90.84 87.41 88.73 98.16 87.75 103.13 85.64 113.88 84.67 118.85 82.94 127.66 77.45 127.66 88.57 70.92 94.07 70.92"/><line class="cls-6" x1="115.13" y1="70.92" x2="94.07" y2="70.92"/><polyline class="cls-6" points="88.57 70.92 86.28 70.92 86.28 65.32 124.72 65.32 124.72 70.92 123.12 70.92"/><polygon class="cls-6" points="84.67 118.85 82.94 127.66 77.45 127.66 88.57 70.92 94.07 70.92 91.81 82.44 90.84 87.41 88.73 98.16 87.75 103.13 85.64 113.88 84.67 118.85"/><line class="cls-6" x1="120.62" y1="70.92" x2="119.12" y2="78.53"/><polyline class="cls-6" points="119.12 78.54 109.49 127.66 104 127.66 105.73 118.85 106.7 113.88 108.81 103.13 109.79 98.16 111.9 87.41 112.87 82.44 115.13 70.92 117.63 70.92"/><polyline class="cls-6" points="117.63 70.92 120.62 70.92 123.12 70.92 134.25 127.66 128.75 127.66 119.12 78.54 119.12 78.53"/><line class="cls-6" x1="111.9" y1="87.41" x2="90.84" y2="87.41"/><line class="cls-6" x1="112.87" y1="82.44" x2="91.81" y2="82.44"/><line class="cls-6" x1="108.81" y1="103.13" x2="87.75" y2="103.13"/><line class="cls-6" x1="109.79" y1="98.16" x2="88.73" y2="98.16"/><line class="cls-6" x1="105.73" y1="118.85" x2="84.67" y2="118.85"/><line class="cls-6" x1="106.7" y1="113.88" x2="85.64" y2="113.88"/></svg>