<svg id="Layer_1" data-name="Layer 1" xmlns="http://www.w3.org/2000/svg" viewBox="0 0 275.23 275.23"><defs><style>.cls-1,.cls-10{fill:#0e4e91;}.cls-1,.cls-16,.cls-9{stroke:#0e4e91;}.cls-1,.cls-16{stroke-miterlimit:10;}.cls-1{stroke-width:0.75px;}.cls-2{fill:#abe7ff;}.cls-11,.cls-13,.cls-17,.cls-3,.cls-5{fill:#2db5ff;}.cls-4{opacity:0.38;}.cls-5,.cls-8{opacity:0.41;}.cls-14,.cls-15,.cls-6,.cls-8{fill:#fff;}.cls-7{fill:#caf5fe;}.cls-16,.cls-9{fill:none;}.cls-9{stroke-linecap:round;stroke-linejoin:round;}.cls-11,.cls-14{opacity:0.1;}.cls-12{opacity:0.34;}.cls-13,.cls-15{opacity:0.52;}.cls-17{opacity:0.12;}</style></defs><title>lighting</title><path class="cls-1" d="M41.24,202c-1.31-2.06-2.61-4.13-3.92-6.2l.41-.27,3.93,6.13Z"/><path class="cls-1" d="M26.84,170.18q1.17,3.51,2.35,7l-.46.16-2.36-7Z"/><path class="cls-1" d="M23.79,157q.71,3.44,1.43,6.89l-.46.1-1.44-6.85Z"/><path class="cls-1" d="M31.56,183.22c1,2.18,2.05,4.35,3.07,6.53l-.44.21-3.07-6.52Z"/><path class="cls-1" d="M204.84,43.9l5.94,4.57-.29.39-6-4.55Z"/><path class="cls-1" d="M225.22,62.65c1.51,1.91,3,3.81,4.55,5.72l-.38.3L224.83,63Z"/><path class="cls-1" d="M167.61,26.14l7,2.13-.13.46-7-2.11Z"/><path class="cls-1" d="M187.32,34l-6.69-2.94.19-.44,6.69,2.92Z"/><path class="cls-1" d="M199.24,40.71,193.07,37l.25-.41,6.18,3.66Z"/><path class="cls-1" d="M215.61,52.78l4.83,5.42.49-.47-5.19-5.07Z"/><path class="cls-1" d="M47.14,66.14,42.75,72l-.4-.29c1.46-2,2.92-3.93,4.37-5.9Z"/><path class="cls-1" d="M27.68,102.43l-1.95,6.88-.43-.12,1.93-6.93Z"/><path class="cls-1" d="M32.7,89.63l-2.79,6.51L29.48,96c.92-2.18,1.83-4.37,2.75-6.56Z"/><path class="cls-1" d="M39.13,77.54,35.64,83.7l-.42-.23L38.7,77.3Z"/><path class="cls-1" d="M50.81,61l4.48-4.73.35.33-4.47,4.75Z"/><path class="cls-1" d="M22.68,122.56l1.14-6.73.42.07-1.08,6.79Z"/><path class="cls-1" d="M219.28,219.15l-5.39,5-.34-.35,5.36-5.09Z"/><path class="cls-1" d="M223.25,214.16l4.69-5.59.39.33q-2.34,2.78-4.66,5.57Z"/><path class="cls-1" d="M208.87,228.42,203,232.76l-.3-.4,5.86-4.34Z"/><path class="cls-1" d="M231.79,203.35l3.9-6,.42.27-3.9,6Z"/><path class="cls-1" d="M197.57,236.32,191.13,240l-.24-.42,6.43-3.67Z"/><path class="cls-1" d="M172.52,247.77l-7,2-.13-.44,7-2Z"/><path class="cls-1" d="M247.51,172.49q-1.15,3.33-2.32,6.66l-.44-.15c.76-2.22,1.53-4.44,2.29-6.67Z"/><path class="cls-1" d="M248.9,165.79l1.47-6.73.44.08c-.47,2.23-.93,4.45-1.4,6.68Z"/><path class="cls-1" d="M178.48,245.17l6.66-2.8.19.45-6.66,2.79Z"/><path class="cls-1" d="M124.47,252.06l6.68.52V253l-6.72-.48Z"/><path class="cls-1" d="M242.6,185.35c-1.06,2.15-2.11,4.29-3.16,6.44l-.44-.22,3.16-6.49Z"/><path class="cls-1" d="M110.84,249.72l6.73,1.36-.08.42-6.74-1.3Z"/><path class="cls-1" d="M251.45,152.3l.64-6.69.47,0-.66,6.68Z"/><path class="cls-1" d="M159.08,251.16l-6.73,1.12-.08-.47,6.74-1.09Z"/><path class="cls-1" d="M145.22,253h-6.81l0-.08,6.8-.45Z"/><circle class="cls-2" cx="133.33" cy="135.41" r="92.9"/><path class="cls-3" d="M106.51,53.35a12.37,12.37,0,0,1,4.55,9.19"/><path class="cls-3" d="M164.67,53.35a12.4,12.4,0,0,1,4.56,9.19"/><g class="cls-4"><polygon class="cls-3" points="234.13 80.87 243.22 98.24 199.12 98.24 199.12 97.7 208.35 80.87 234.13 80.87"/><path class="cls-5" d="M243.22,98.24h-44.1v-.55l1.36-2.47h29.84a4.12,4.12,0,0,0,3.65-6l-4.36-8.33h4.52Z"/><polyline class="cls-3" points="243.22 98.24 234.13 80.87 229.61 80.87 208.35 80.87 208.03 81.42 200.48 95.22 199.12 97.69"/><line class="cls-3" x1="194.78" y1="97.96" x2="187.92" y2="91.16"/><line class="cls-3" x1="230.62" y1="86.53" x2="234.51" y2="93.26"/></g><polygon class="cls-6" points="241.22 95.24 245.16 95.24 248.14 95.24 248.14 104.19 230.19 104.19 208.28 104.19 190.06 104.19 190.06 95.24 197.12 95.24 241.22 95.24"/><polygon class="cls-7" points="232.13 77.87 241.22 95.24 197.12 95.24 197.12 94.7 206.35 77.87 232.13 77.87"/><path class="cls-8" d="M241.22,95.24h-44.1v-.55l1.36-2.48h29.84a4.1,4.1,0,0,0,3.64-6l-4.35-8.34h4.52Z"/><path class="cls-3" d="M208.28,104.19h21.91a11,11,0,0,1-21.91,0Z"/><polygon class="cls-9" points="245.16 95.24 248.14 95.24 248.14 104.19 230.19 104.19 208.28 104.19 190.06 104.19 190.06 95.24 197.12 95.24 241.22 95.24 245.16 95.24"/><polyline class="cls-9" points="241.22 95.24 232.13 77.86 227.61 77.86 206.34 77.86 206.03 78.42 198.48 92.21 197.12 94.69"/><line class="cls-9" x1="245.16" y1="95.24" x2="251.7" y2="87.94"/><line class="cls-9" x1="192.78" y1="94.96" x2="185.92" y2="88.16"/><path class="cls-9" d="M230.19,104.19a11,11,0,0,1-21.91,0"/><line class="cls-9" x1="228.62" y1="83.53" x2="232.51" y2="90.26"/><path class="cls-10" d="M218.83,125.74a.56.56,0,0,1-.56-.55v-3.61a.56.56,0,0,1,1.12,0v3.61A.56.56,0,0,1,218.83,125.74Z"/><path class="cls-10" d="M213.51,124.58a.54.54,0,0,1-.21,0,.54.54,0,0,1-.3-.72l1.38-3.27a.55.55,0,0,1,.73-.3.57.57,0,0,1,.3.73L214,124.24A.55.55,0,0,1,213.51,124.58Z"/><path class="cls-10" d="M209.08,121.43a.52.52,0,0,1-.4-.17.55.55,0,0,1,0-.78l2.51-2.42a.56.56,0,1,1,.77.8l-2.51,2.42A.54.54,0,0,1,209.08,121.43Z"/><path class="cls-10" d="M224.43,124.66a.56.56,0,0,1-.51-.34L222.44,121a.56.56,0,1,1,1-.45l1.48,3.36a.56.56,0,0,1-.28.73A.64.64,0,0,1,224.43,124.66Z"/><path class="cls-10" d="M229.12,121.35a.57.57,0,0,1-.37-.14L226,118.72a.55.55,0,0,1,.74-.82l2.75,2.48a.56.56,0,0,1-.37,1Z"/><path class="cls-6" d="M158.5,46.56c6.25,3.47,10.69,12.2,10.69,20.6-3.08.36-6.18.61-9.32.75q-7.06.33-14.3,0c-3.09-.15-6.2-.4-9.33-.73,0-8.28,4.33-16.88,10.44-20.44a11.42,11.42,0,0,1,11.82-.16Z"/><path class="cls-3" d="M159.87,67.91a6.44,6.44,0,0,1,.44,2.37,7.6,7.6,0,0,1-15.17,0,6.72,6.72,0,0,1,.43-2.39Q152.82,68.24,159.87,67.91Z"/><path class="cls-7" d="M152.53,37.29c3.28,0,5.94,4.15,6,9.27a11.42,11.42,0,0,0-11.82.16l-.09-.12C146.59,41.47,149.26,37.29,152.53,37.29Z"/><rect class="cls-3" x="109.01" y="22.31" width="29.05" height="6.97"/><path class="cls-6" d="M100.9,46.56c6.26,3.47,10.7,12.2,10.7,20.6-3.09.36-6.18.61-9.31.75-4.72.22-9.48.21-14.31,0-3.1-.15-6.21-.4-9.32-.73,0-8.28,4.32-16.88,10.42-20.44a11.42,11.42,0,0,1,11.82-.16Z"/><path class="cls-6" d="M158.5,46.56c6.25,3.47,10.69,12.2,10.69,20.6-3.08.36-6.18.61-9.32.75q-7.06.33-14.3,0c-3.09-.15-6.2-.4-9.33-.73,0-8.28,4.33-16.88,10.44-20.44a11.42,11.42,0,0,1,11.82-.16Z"/><path class="cls-11" d="M111.6,67.17c-3.09.34-6.18.6-9.32.74q-7.07.33-14.31,0c-3.09-.15-6.19-.41-9.32-.72,0-.51,0-1,0-1.56,1.78.15,3.55.28,5.31.37,4.83.22,9.59.23,14.31,0q4.68-.21,9.32-.75c0-7.82-3.85-15.94-9.45-19.81a12.25,12.25,0,0,1,2.71,1.13C107.16,50,111.6,58.76,111.6,67.17Z"/><path class="cls-11" d="M169.2,67.17c-3.09.34-6.18.6-9.32.74q-7.06.33-14.31,0c-3.09-.15-6.2-.41-9.32-.72,0-.51,0-1,0-1.56,1.79.15,3.55.28,5.32.37,4.83.22,9.58.23,14.31,0q4.68-.21,9.32-.75c0-7.82-3.86-15.94-9.45-19.81a12.45,12.45,0,0,1,2.71,1.13C164.75,50,169.2,58.76,169.2,67.17Z"/><path class="cls-3" d="M102.29,67.91a6.86,6.86,0,0,1,.41,2.37,7.59,7.59,0,0,1-15.16,0A6.72,6.72,0,0,1,88,67.89C92.81,68.12,97.57,68.13,102.29,67.91Z"/><path class="cls-7" d="M95,37.29c3.27,0,5.94,4.15,6,9.27a11.42,11.42,0,0,0-11.82.16L89,46.6C89,41.47,91.67,37.29,95,37.29Z"/><path class="cls-9" d="M102.29,67.91c3.13-.14,6.22-.39,9.31-.75,0-8.4-4.44-17.13-10.7-20.6a11.42,11.42,0,0,0-11.82.16C83,50.28,78.66,58.88,78.66,67.16c3.11.33,6.22.58,9.32.73C92.81,68.12,97.57,68.13,102.29,67.91Z"/><path class="cls-9" d="M102.29,67.91a6.86,6.86,0,0,1,.41,2.37,7.59,7.59,0,0,1-15.16,0A6.72,6.72,0,0,1,88,67.89"/><path class="cls-9" d="M89,46.6c0-5.13,2.66-9.31,5.94-9.31s5.94,4.15,6,9.27v0"/><line class="cls-9" x1="94.95" y1="37.29" x2="94.95" y2="29.66"/><path class="cls-10" d="M152.66,86.46a.45.45,0,0,1-.46-.43V83.25a.46.46,0,0,1,.91,0V86A.44.44,0,0,1,152.66,86.46Z"/><path class="cls-10" d="M148.34,85.56a.57.57,0,0,1-.18,0,.42.42,0,0,1-.24-.56L149,82.45a.46.46,0,0,1,.59-.23.42.42,0,0,1,.24.56l-1.12,2.52A.44.44,0,0,1,148.34,85.56Z"/><path class="cls-10" d="M144.74,83.14a.46.46,0,0,1-.33-.13.42.42,0,0,1,0-.61l2-1.86a.48.48,0,0,1,.64,0,.42.42,0,0,1,0,.61l-2,1.86A.47.47,0,0,1,144.74,83.14Z"/><path class="cls-10" d="M157.2,85.62a.45.45,0,0,1-.41-.25l-1.2-2.59a.41.41,0,0,1,.23-.56.45.45,0,0,1,.59.22L157.62,85a.42.42,0,0,1-.23.57A.58.58,0,0,1,157.2,85.62Z"/><path class="cls-10" d="M161,83.08a.48.48,0,0,1-.3-.11l-2.23-1.92a.4.4,0,0,1,0-.6.45.45,0,0,1,.63,0l2.23,1.91a.42.42,0,0,1,0,.61A.48.48,0,0,1,161,83.08Z"/><path class="cls-10" d="M94.9,86.58a.45.45,0,0,1-.45-.43V83.37a.46.46,0,0,1,.91,0v2.78A.45.45,0,0,1,94.9,86.58Z"/><path class="cls-10" d="M90.59,85.68a.57.57,0,0,1-.18,0,.43.43,0,0,1-.24-.57l1.12-2.51a.46.46,0,0,1,.59-.23.42.42,0,0,1,.24.56L91,85.42A.45.45,0,0,1,90.59,85.68Z"/><path class="cls-10" d="M87,83.26a.47.47,0,0,1-.33-.14.41.41,0,0,1,0-.6l2-1.86a.48.48,0,0,1,.64,0,.42.42,0,0,1,0,.61l-2,1.86A.47.47,0,0,1,87,83.26Z"/><path class="cls-10" d="M99.45,85.74a.46.46,0,0,1-.41-.26l-1.2-2.58a.42.42,0,0,1,.23-.57.46.46,0,0,1,.59.22l1.21,2.59a.42.42,0,0,1-.23.56A.43.43,0,0,1,99.45,85.74Z"/><path class="cls-10" d="M103.26,83.19a.43.43,0,0,1-.3-.11l-2.23-1.91a.41.41,0,0,1,0-.61.47.47,0,0,1,.63,0l2.23,1.92a.41.41,0,0,1,0,.6A.45.45,0,0,1,103.26,83.19Z"/><path class="cls-9" d="M159.87,67.91c3.14-.14,6.24-.39,9.32-.75,0-8.4-4.44-17.13-10.69-20.6a11.42,11.42,0,0,0-11.82.16c-6.11,3.56-10.44,12.16-10.44,20.44,3.13.33,6.24.58,9.33.73Q152.82,68.24,159.87,67.91Z"/><path class="cls-9" d="M159.87,67.91a6.44,6.44,0,0,1,.44,2.37,7.6,7.6,0,0,1-15.17,0,6.72,6.72,0,0,1,.43-2.39"/><path class="cls-9" d="M146.59,46.6c0-5.13,2.67-9.31,5.94-9.31s5.94,4.15,6,9.27v0"/><line class="cls-9" x1="152.53" y1="37.29" x2="152.53" y2="29.66"/><polyline class="cls-9" points="79.17 29.28 109.01 29.28 138.07 29.28 169.08 29.28"/><polyline class="cls-9" points="109.01 29.28 109.01 22.31 138.07 22.31 138.07 29.28"/><path class="cls-9" d="M100.77,52.45a12.37,12.37,0,0,1,4.55,9.19"/><path class="cls-9" d="M158.93,52.45a12.4,12.4,0,0,1,4.56,9.19"/><g class="cls-12"><path class="cls-13" d="M58.34,138.09a8.29,8.29,0,0,1-.3.81,22,22,0,0,0-1.35-2.66A19.89,19.89,0,0,1,58.34,138.09Z"/><path class="cls-3" d="M58.79,109.23l-.34-.12"/></g><polygon class="cls-3" points="72.96 232.01 72.96 237.84 43.43 237.84 43.43 232.01 67.21 232.01 72.96 232.01"/><path class="cls-3" d="M59.36,121.45c3.7,9.37-.19,19-.31,19.32C51.88,124.08,32,128.49,32,128.49s3.85-10.41,14.41-12.81l4.5-8.81s2.2-1,5.82.21c.26.08.53.19.81.3a0,0,0,0,0,0,0c4.61,2,5.49,5,5.49,5l-1.3,2.66L59,120.59C59.14,120.87,59.25,121.16,59.36,121.45Z"/><path class="cls-14" d="M61.71,115.07,59,120.58c.12.3.24.59.34.87,3.71,9.38-.19,19-.29,19.32a21.41,21.41,0,0,0-2.83-4.83c.86-2.54,3.12-10.6,0-18.51a8.65,8.65,0,0,0-.34-.87l2.7-5.52,1.18-2.41A7.85,7.85,0,0,1,63,112.41Z"/><path class="cls-15" d="M56.23,135.94c-.16.48-.28.76-.29.81a23,23,0,0,0-1.36-2.67A19.88,19.88,0,0,1,56.23,135.94Z"/><path class="cls-6" d="M59.05,140.77C37.34,143.08,32,128.49,32,128.49S51.88,124.08,59.05,140.77Z"/><polygon class="cls-9" points="72.96 237.84 43.43 237.84 43.43 232.01 67.21 232.01 72.96 232.01 72.96 237.84"/><polyline class="cls-9" points="67.21 232.01 69.11 125.87 64.76 120.53 64.27 119.92"/><path class="cls-9" d="M56.68,107.08l-.33-.13"/><path class="cls-9" d="M59.35,108.3a19.18,19.18,0,0,0-1.83-.9,0,0,0,0,1,0,0c-.28-.11-.55-.22-.81-.3-3.62-1.23-5.82-.21-5.82-.21l-4.5,8.81C35.8,118.08,32,128.49,32,128.49s19.93-4.41,27.1,12.28c.12-.31,4-10,.31-19.32-.11-.29-.22-.58-.35-.86l2.7-5.52,1.3-2.66s-.88-3-5.49-5"/><path class="cls-9" d="M32,128.49s5.39,14.59,27.1,12.28"/><path class="cls-9" d="M57.45,111.81a36.43,36.43,0,0,1,4.26,3.26c1.9,1.73,3.62,3.85,3.05,5.46-.73,2-3.77,1.42-5.4.92-.62-.19-1-.36-1-.36"/><path class="cls-6" d="M164.48,108.91v27.86a104.76,104.76,0,0,1-19.9,1.84,103.16,103.16,0,0,1-18.89-1.84V108.91A186.24,186.24,0,0,1,164.48,108.91Z"/><path class="cls-11" d="M164.47,108.91v27.87a104.51,104.51,0,0,1-19.89,1.84,104.13,104.13,0,0,1-18.89-1.84v-2.64a102.82,102.82,0,0,0,14.74,1.13,100.63,100.63,0,0,0,11.36-.58,9.57,9.57,0,0,0,8.53-9.52V108.54C161.7,108.64,163.09,108.77,164.47,108.91Z"/><rect class="cls-3" x="135.91" y="229.33" width="17.2" height="5.87"/><polygon class="cls-7" points="146.95 173.44 146.95 229.13 142.2 229.13 142.2 173.44 144.58 173.44 146.95 173.44"/><path class="cls-9" d="M164.48,108.91v27.86a104.76,104.76,0,0,1-19.9,1.84,103.16,103.16,0,0,1-18.89-1.84V108.91A186.24,186.24,0,0,1,164.48,108.91Z"/><polygon class="cls-9" points="146.95 229.13 142.2 229.13 142.2 173.44 144.58 173.44 146.95 173.44 146.95 229.13"/><rect class="cls-9" x="135.91" y="229.33" width="17.2" height="5.87"/><line class="cls-9" x1="144.58" y1="138.61" x2="144.58" y2="173.44"/><path class="cls-6" d="M111.83,106.47l10,36.13a86.42,86.42,0,0,1-20.48,2.49c-2,0-4.08-.06-6.13-.2-1.78-.12-3.57-.28-5.37-.52a95.15,95.15,0,0,1-10-1.77l10-36.13Z"/><path class="cls-11" d="M121.82,142.61a86.22,86.22,0,0,1-20.48,2.48c-2,0-4.06-.07-6.12-.2-1.78-.12-3.57-.28-5.36-.52a100.26,100.26,0,0,1-10-1.76l.41-1.52c1.7.29,3.38.56,5.07.76s3.59.4,5.37.52c2.05.13,4.08.19,6.13.19a87.46,87.46,0,0,0,12.19-.88,7.52,7.52,0,0,0,6.11-9.47L108,106.48h3.81Z"/><path class="cls-3" d="M115.44,234.94v2.65H87v-2.65a3.27,3.27,0,0,1,3.26-3.27h3v.05h15.84v-.05h3A3.26,3.26,0,0,1,115.44,234.94Z"/><path class="cls-3" d="M109.18,228.73v2.94H93.34v-2.94a2.41,2.41,0,0,1,2.4-2.4h11.05A2.4,2.4,0,0,1,109.18,228.73Z"/><path class="cls-3" d="M104.44,223.54v2.79H97.86v-2.79a3.29,3.29,0,0,1,5.62-2.33A3.25,3.25,0,0,1,104.44,223.54Z"/><path class="cls-3" d="M96.7,167.59v5.78a1.37,1.37,0,1,1-2.73,0v-5.78a1.37,1.37,0,0,1,2.73,0Z"/><path class="cls-3" d="M89.85,175.17h.06a1.36,1.36,0,0,1,1.35,1.37v5.77a1.36,1.36,0,1,1-2.72,0v-5.77A1.37,1.37,0,0,1,89.85,175.17Z"/><path class="cls-9" d="M95.22,144.89c-1.78-.12-3.57-.28-5.37-.52a95.15,95.15,0,0,1-10-1.77l10-36.13h22l10,36.13a86.42,86.42,0,0,1-20.48,2.49C99.31,145.09,97.27,145,95.22,144.89Z"/><line class="cls-9" x1="101.35" y1="145.09" x2="101.35" y2="219.99"/><path class="cls-9" d="M109.18,231.67h3a3.26,3.26,0,0,1,3.27,3.27v2.65H87v-2.65a3.27,3.27,0,0,1,3.26-3.27h18.89Z"/><path class="cls-9" d="M104.44,226.33h2.35a2.4,2.4,0,0,1,2.39,2.4v3H93.34v-3a2.41,2.41,0,0,1,2.4-2.4h2.12"/><path class="cls-9" d="M104.44,226.33H97.86v-2.79a3.29,3.29,0,0,1,5.62-2.33,3.25,3.25,0,0,1,1,2.33Z"/><polyline class="cls-9" points="89.85 144.37 89.85 175.16 89.85 175.31"/><line class="cls-9" x1="95.22" y1="144.89" x2="95.22" y2="166.17"/><path class="cls-9" d="M89.85,175.17h.06a1.36,1.36,0,0,1,1.35,1.37v5.77a1.36,1.36,0,1,1-2.72,0v-5.77A1.37,1.37,0,0,1,89.85,175.17Z"/><path class="cls-9" d="M96.7,167.59v5.78a1.37,1.37,0,1,1-2.73,0v-5.78a1.37,1.37,0,0,1,2.73,0Z"/><line class="cls-9" x1="160.15" y1="119.1" x2="160.15" y2="132.07"/><line class="cls-9" x1="110.11" y1="119.47" x2="113.07" y2="132.09"/><line class="cls-16" x1="127.33" y1="111.68" x2="134.69" y2="111.68"/><line class="cls-16" x1="127.33" y1="114.36" x2="134.69" y2="114.36"/><line class="cls-16" x1="127.33" y1="117.05" x2="134.69" y2="117.05"/><path class="cls-7" d="M234.81,173.66c.07,2.75-5.33,7.27-5.33,7.27h-.31l-2.86-13.69h3.17S234.74,170.63,234.81,173.66Z"/><polygon class="cls-7" points="226.31 167.25 229.17 180.93 225.48 180.93 222.63 167.25 226.31 167.25"/><polygon class="cls-7" points="222.63 167.25 225.48 180.93 221.8 180.93 218.95 167.25 222.63 167.25"/><polygon class="cls-7" points="218.95 167.25 221.8 180.93 217.05 180.93 217.05 167.25 218.95 167.25"/><path class="cls-6" d="M217.05,180.93V182a2.19,2.19,0,0,1-2.18,2.18h-6.25a2.09,2.09,0,0,0-1.74.92,20.15,20.15,0,1,1,0-22,2.07,2.07,0,0,0,1.75.94h6.24a2.19,2.19,0,0,1,2.19,2.2v14.71Z"/><path class="cls-17" d="M217.05,166.22V182a2.17,2.17,0,0,1-.94,1.79v-12.9a2.19,2.19,0,0,0-2.19-2.18h-6.23a2.1,2.1,0,0,1-1.75-.94,20.14,20.14,0,0,0-36,4.81,20.16,20.16,0,0,1,37-9.49,2.12,2.12,0,0,0,1.76.94h6.24A2.19,2.19,0,0,1,217.05,166.22Z"/><path class="cls-9" d="M217.05,180.93V182a2.19,2.19,0,0,1-2.18,2.18h-6.25a2.09,2.09,0,0,0-1.74.92,20.15,20.15,0,1,1,0-22,2.07,2.07,0,0,0,1.75.94h6.24a2.19,2.19,0,0,1,2.19,2.2v14.71Z"/><path class="cls-9" d="M217.05,180.93h12.43s5.4-4.52,5.33-7.27c-.07-3-5.33-6.42-5.33-6.42H217.05"/><polyline class="cls-9" points="218.94 167.16 218.95 167.25 221.8 180.93"/><polyline class="cls-9" points="222.61 167.16 222.63 167.25 225.48 180.93"/><polyline class="cls-9" points="226.29 167.16 226.31 167.25 229.17 180.93"/><line class="cls-9" x1="234.81" y1="173.66" x2="246.96" y2="173.66"/><path class="cls-9" d="M188.18,190.48a13.8,13.8,0,0,1-3.55-1"/><path class="cls-9" d="M197.63,188.7a14.35,14.35,0,0,1-6,1.89"/></svg>