<svg id="Layer_1" data-name="Layer 1" xmlns="http://www.w3.org/2000/svg" viewBox="0 0 256 256"><defs><style>.cls-1{fill:#0e4e91;}.cls-2{fill:#abe7ff;}.cls-3{fill:#fff;}.cls-4{fill:#2db5ff;}.cls-5{fill:none;stroke:#0e4e91;stroke-linecap:round;stroke-linejoin:round;}.cls-6{fill:#caf5fe;}</style></defs><path class="cls-1" d="M131.65,225.79l0-1.28c2.26-.07,4.55-.21,6.78-.43l.13,1.28C136.25,225.58,133.94,225.73,131.65,225.79Zm-5.16,0c-2.29-.06-4.6-.19-6.87-.41l.12-1.27c2.24.21,4.52.34,6.78.39Zm17.15-1.09-.19-1.27c2.23-.34,4.48-.77,6.67-1.26l.29,1.25C148.18,223.94,145.91,224.37,143.64,224.72Zm11.77-2.55-.35-1.23c2.17-.61,4.35-1.31,6.47-2.07l.44,1.2C159.82,220.85,157.61,221.55,155.41,222.17Zm11.37-4-.5-1.19c2.07-.87,4.14-1.83,6.15-2.85l.58,1.14C171,216.34,168.87,217.31,166.78,218.2Zm10.77-5.35-.64-1.11c2-1.13,3.89-2.33,5.76-3.59l.72,1.06C181.49,210.49,179.53,211.71,177.55,212.85Zm-97.06.23c-2-1.13-3.95-2.35-5.86-3.62l.71-1.07c1.88,1.26,3.83,2.46,5.79,3.57Zm107.1-6.86-.77-1c1.8-1.36,3.58-2.8,5.28-4.28l.84,1C191.22,203.39,189.42,204.84,187.59,206.22Zm-117.18.26c-1.83-1.36-3.64-2.81-5.37-4.3l.83-1c1.72,1.48,3.5,2.91,5.31,4.25Zm126.34-8.08-.89-.92c1.62-1.56,3.21-3.21,4.72-4.89l.95.86C200,195.15,198.39,196.82,196.75,198.4Zm-135.54.31c-1.64-1.58-3.26-3.23-4.8-4.93l1-.86c1.52,1.67,3.12,3.31,4.74,4.86Zm143.67-9.18-1-.81c1.42-1.76,2.79-3.58,4.09-5.43L209,184C207.72,185.9,206.32,187.75,204.88,189.53ZM53,189.87c-1.45-1.77-2.85-3.61-4.17-5.48l1.05-.74c1.3,1.84,2.69,3.66,4.11,5.41Zm158.84-10.15-1.09-.68c1.19-1.92,2.33-3.9,3.39-5.89l1.13.6C214.24,175.77,213.09,177.78,211.88,179.72ZM46,180.1c-1.22-1.93-2.38-3.93-3.46-5.94l1.13-.61c1.06,2,2.21,4,3.41,5.87Zm171.6-11-1.16-.55c1-2,1.84-4.15,2.64-6.26l1.2.45C219.48,164.9,218.58,167,217.61,169.12ZM31.23,134.77c-.13-2-.21-4.09-.22-6.13v-.75h1.29v.74c0,2,.09,4.05.23,6.05Zm1.2-12-1.29-.07c.13-2.28.33-4.59.61-6.86L33,116C32.75,118.27,32.55,120.54,32.43,122.8Zm191.3-12.52c-.41-2.22-.9-4.45-1.47-6.63l1.24-.32c.57,2.21,1.08,4.47,1.5,6.72ZM33.78,111l-1.26-.22c.4-2.26.88-4.52,1.44-6.73l1.25.31C34.66,106.54,34.18,108.77,33.78,111ZM220.85,98.76c-.69-2.15-1.45-4.3-2.29-6.4l1.2-.47c.84,2.12,1.62,4.31,2.31,6.48Zm-184.27.69-1.22-.38c.67-2.18,1.44-4.37,2.27-6.51l1.19.46C38,95.13,37.25,97.29,36.58,99.45Zm180-11.76c-.94-2-2-4.09-3.05-6.06l1.12-.62c1.1,2,2.14,4.07,3.1,6.14ZM40.8,88.32l-1.17-.53c.94-2.08,2-4.16,3.06-6.18l1.13.61C42.74,84.22,41.73,86.27,40.8,88.32ZM210.94,77.23c-1.19-1.91-2.46-3.81-3.78-5.64l1-.75c1.34,1.85,2.63,3.78,3.83,5.72ZM46.36,77.8l-1.1-.67c1.19-1.95,2.47-3.88,3.79-5.75l1.05.75C48.79,74,47.53,75.88,46.36,77.8ZM204.08,67.54c-1.42-1.76-2.91-3.48-4.44-5.14l.94-.87c1.55,1.68,3.07,3.43,4.5,5.21Zm-150.92.51-1-.8c1.42-1.78,2.92-3.55,4.46-5.24l1,.87C56.05,64.55,54.56,66.29,53.16,68.05Zm142.91-9.29c-1.61-1.57-3.3-3.11-5-4.56l.83-1c1.75,1.47,3.46,3,5.1,4.62ZM90.49,39.39,90,38.21c2.09-.91,4.25-1.75,6.4-2.51l.43,1.21C94.68,37.66,92.56,38.49,90.49,39.39Zm64.81-4.24c-2.17-.61-4.39-1.16-6.59-1.62l.26-1.26c2.24.47,4.48,1,6.68,1.65Zm-53.64.2-.36-1.23c2.19-.64,4.43-1.21,6.67-1.7l.27,1.26C106,34.16,103.82,34.72,101.66,35.35Zm42-2.74c-2.22-.34-4.49-.61-6.74-.8l.11-1.27c2.28.19,4.57.46,6.83.81Zm-30.45.12-.2-1.27c2.25-.36,4.55-.65,6.83-.86l.11,1.28C117.73,32.08,115.47,32.37,113.24,32.73Zm18.62-1.21c-2.26-.07-4.54-.06-6.79,0l0-1.28c2.28-.09,4.59-.1,6.88,0Z"/><circle class="cls-2" cx="132.07" cy="128.54" r="80.25"/><path class="cls-3" d="M115,91.19,97.14,89.62V62.48l18.27-1.41A24.2,24.2,0,0,0,115,91.19Z"/><path class="cls-3" d="M151.16,66.13A19.68,19.68,0,0,1,154,76c0,.13,0,.26,0,.38A19.69,19.69,0,0,1,151.53,86a20,20,0,0,1-7.11,7.39,19.68,19.68,0,0,1-9.87,2.83h-.38a19.72,19.72,0,0,1-9.58-2.46,20.06,20.06,0,0,1-7.4-7.12,19.71,19.71,0,0,1-2.83-9.87,2.23,2.23,0,0,1,0-.37,19.67,19.67,0,0,1,2.48-9.59,20,20,0,0,1,7.11-7.39,19.68,19.68,0,0,1,9.86-2.83h.38A19.79,19.79,0,0,1,143.76,59,20.06,20.06,0,0,1,151.16,66.13Z"/><path class="cls-3" d="M139.49,103.83H129.31v-3.74a24.31,24.31,0,0,0,10.18-.1Z"/><path class="cls-4" d="M129.31,100.09a24.21,24.21,0,1,1,10.18-.1,24.31,24.31,0,0,1-10.18.1ZM154,76a19.68,19.68,0,0,0-2.83-9.86,20.06,20.06,0,0,0-7.4-7.12,19.79,19.79,0,0,0-9.59-2.46h-.38a19.68,19.68,0,0,0-9.86,2.83,20,20,0,0,0-7.11,7.39,19.67,19.67,0,0,0-2.48,9.59,2.23,2.23,0,0,0,0,.37,19.71,19.71,0,0,0,2.83,9.87,20.06,20.06,0,0,0,7.4,7.12,19.72,19.72,0,0,0,9.58,2.46h.38a19.68,19.68,0,0,0,9.87-2.83A20,20,0,0,0,151.53,86,19.69,19.69,0,0,0,154,76.37C154,76.25,154,76.12,154,76Z"/><path class="cls-3" d="M171.93,89.56l-18.74,1.79a24.17,24.17,0,0,0-.26-30.28l19,1.6Z"/><path class="cls-5" d="M139.49,100a24.31,24.31,0,0,1-10.18.1,24.21,24.21,0,1,1,10.18-.1Z"/><polyline class="cls-5" points="152.93 61.07 171.93 62.67 171.93 89.56 153.19 91.35 152.93 91.38"/><polyline class="cls-5" points="115.41 61.07 97.14 62.48 97.14 89.62 115.03 91.19"/><path class="cls-5" d="M134.55,96.18h-.38a19.72,19.72,0,0,1-9.58-2.46,20.06,20.06,0,0,1-7.4-7.12,19.71,19.71,0,0,1-2.83-9.87,2.23,2.23,0,0,1,0-.37,19.67,19.67,0,0,1,2.48-9.59,20,20,0,0,1,7.11-7.39,19.68,19.68,0,0,1,9.86-2.83h.38A19.79,19.79,0,0,1,143.76,59a20.06,20.06,0,0,1,7.4,7.12A19.68,19.68,0,0,1,154,76c0,.13,0,.26,0,.38A19.69,19.69,0,0,1,151.53,86a20,20,0,0,1-7.11,7.39A19.68,19.68,0,0,1,134.55,96.18Z"/><polyline class="cls-5" points="154 76 153.99 76 151.33 76"/><line class="cls-5" x1="151.53" y1="85.96" x2="149.22" y2="84.62"/><line class="cls-5" x1="144.42" y1="93.35" x2="143.08" y2="91.03"/><polyline class="cls-5" points="134.55 96.19 134.55 96.18 134.55 93.52"/><line class="cls-5" x1="124.59" y1="93.73" x2="125.92" y2="91.41"/><line class="cls-5" x1="117.19" y1="86.61" x2="119.5" y2="85.27"/><polyline class="cls-5" points="114.34 76.74 114.36 76.74 117.02 76.74"/><line class="cls-5" x1="116.82" y1="66.78" x2="119.12" y2="68.11"/><line class="cls-5" x1="123.93" y1="59.39" x2="125.26" y2="61.71"/><polyline class="cls-5" points="133.79 56.55 133.79 56.56 133.79 59.22"/><line class="cls-5" x1="143.76" y1="59.01" x2="142.42" y2="61.33"/><line class="cls-5" x1="151.16" y1="66.13" x2="148.84" y2="67.47"/><polyline class="cls-5" points="146.24 76 134.55 76 134.55 82.99"/><polyline class="cls-5" points="139.49 99.99 139.49 103.83 129.31 103.83 129.31 100.09 129.31 99.99"/><polygon class="cls-3" points="147.04 189.05 145.6 205.21 118.62 205.21 116.85 189.05 147.04 189.05"/><polygon class="cls-3" points="156.65 163.49 156.65 173.02 153.47 173.02 153.19 173.02 153.19 163.49 156.65 163.49"/><path class="cls-4" d="M153.19,173v16H111.42V147.28h41.77V173Zm-4.73,11.32V152H116.14v32.34h32.32Z"/><polygon class="cls-3" points="148.46 168.39 148.46 184.34 132.3 184.34 116.14 184.34 116.14 177.69 116.14 168.39 116.14 152 132.3 152 148.46 152 148.46 168.39"/><polygon class="cls-3" points="145.6 131.67 147.04 147.28 117.37 147.28 118.81 131.67 145.6 131.67"/><polygon class="cls-5" points="153.19 173.02 153.19 189.05 147.04 189.05 116.85 189.05 111.42 189.05 111.42 147.28 117.37 147.28 147.04 147.28 153.19 147.28 153.19 163.49 153.19 173.02"/><polygon class="cls-5" points="132.3 184.34 116.14 184.34 116.14 177.69 116.14 168.39 116.14 152 132.3 152 148.46 152 148.46 168.39 148.46 184.34 132.3 184.34"/><polyline class="cls-5" points="132.3 160.06 132.3 168.17 136.77 168.17"/><line class="cls-5" x1="132.3" y1="152" x2="132.3" y2="154.87"/><line class="cls-5" x1="141.48" y1="152.39" x2="140.05" y2="154.87"/><line class="cls-5" x1="148.09" y1="159.34" x2="145.6" y2="160.77"/><line class="cls-5" x1="148.46" y1="168.39" x2="145.6" y2="168.39"/><line class="cls-5" x1="148.09" y1="177.69" x2="145.6" y2="176.26"/><line class="cls-5" x1="141.38" y1="184.15" x2="139.94" y2="181.66"/><line class="cls-5" x1="132.3" y1="184.34" x2="132.3" y2="181.47"/><line class="cls-5" x1="123.07" y1="184.15" x2="124.51" y2="181.66"/><line class="cls-5" x1="116.14" y1="177.69" x2="118.62" y2="176.26"/><line class="cls-5" x1="116.14" y1="168.39" x2="119" y2="168.39"/><line class="cls-5" x1="116.32" y1="159.11" x2="118.81" y2="160.53"/><line class="cls-5" x1="122.78" y1="152.2" x2="124.21" y2="154.69"/><polyline class="cls-5" points="153.19 163.49 156.65 163.49 156.65 173.02 153.47 173.02"/><polyline class="cls-5" points="117.37 147.28 118.81 131.67 145.6 131.67 147.04 147.28"/><polyline class="cls-5" points="116.85 189.05 118.62 205.21 145.6 205.21 147.04 189.05"/><path class="cls-3" d="M88.44,148l-6.2,15.19H55.59L50.41,148.6a6,6,0,0,0,3.13.89H84.47A5.89,5.89,0,0,0,88.44,148Z"/><polyline class="cls-5" points="50.41 148.59 50.41 148.6 55.59 163.15 82.24 163.15 88.44 147.96 88.44 147.96"/><path class="cls-3" d="M88.44,110.89l-6.2-15.18H55.59l-5.18,14.55a5.87,5.87,0,0,1,3.13-.9H84.47A5.89,5.89,0,0,1,88.44,110.89Z"/><polyline class="cls-5" points="50.41 110.27 50.41 110.26 55.59 95.71 82.24 95.71 88.44 110.89 88.44 110.9"/><path class="cls-6" d="M90.81,113.71v30.93a5.89,5.89,0,0,1-2,4.39h0a5.89,5.89,0,0,1-4,1.53H54a5.85,5.85,0,0,1-3.13-.9h0a5.89,5.89,0,0,1-2.79-5V113.71a5.89,5.89,0,0,1,2.63-4.92,5.81,5.81,0,0,1,3.29-1H84.89a5.88,5.88,0,0,1,3.91,1.47h0A5.85,5.85,0,0,1,90.81,113.71ZM71,126.65a.89.89,0,1,0-.89.89A.89.89,0,0,0,71,126.65Zm0,6.12a.89.89,0,1,0-.89.9A.89.89,0,0,0,71,132.77Zm-11.7.52c1.52,0,1.92-2.37,1.92-5.42s-.49-5.52-1.92-5.52-1.92,2.47-1.92,5.52S57.86,133.29,59.34,133.29Z"/><path class="cls-5" d="M88.8,109.27a5.85,5.85,0,0,1,2,4.44v30.93a5.89,5.89,0,0,1-2,4.39"/><path class="cls-5" d="M88.86,149a5.89,5.89,0,0,1-4,1.53H54a5.85,5.85,0,0,1-3.13-.9"/><path class="cls-5" d="M50.83,149.66a5.89,5.89,0,0,1-2.79-5V113.71a5.89,5.89,0,0,1,2.63-4.92,5.81,5.81,0,0,1,3.29-1H84.89a5.88,5.88,0,0,1,3.91,1.47"/><path class="cls-3" d="M69.47,132.19a.9.9,0,1,1-.89.9A.9.9,0,0,1,69.47,132.19Z"/><circle class="cls-3" cx="69.47" cy="126.97" r="0.89"/><path class="cls-6" d="M60.59,128.18c0,3-.41,5.43-1.93,5.43s-1.92-2.38-1.92-5.43.59-5.52,1.92-5.52S60.59,125.13,60.59,128.18Z"/><line class="cls-5" x1="64.68" y1="122.91" x2="64.68" y2="133.61"/><line class="cls-5" x1="73.94" y1="122.91" x2="73.94" y2="133.61"/><path class="cls-5" d="M79.09,127.43v-.05a3,3,0,1,1,0,6"/><polyline class="cls-5" points="81.64 122.91 79.09 122.91 79.09 127.38"/><path class="cls-5" d="M60.59,128.18c0,3-.41,5.43-1.93,5.43s-1.92-2.38-1.92-5.43.59-5.52,1.92-5.52S60.59,125.13,60.59,128.18Z"/><circle class="cls-5" cx="69.47" cy="126.97" r="0.89"/><path class="cls-5" d="M70.36,133.09a.89.89,0,1,1-.89-.9A.89.89,0,0,1,70.36,133.09Z"/><path class="cls-3" d="M195.69,152.22a.87.87,0,1,1-.87.87A.86.86,0,0,1,195.69,152.22Z"/><path class="cls-3" d="M183.86,140.39a.87.87,0,1,1-.87.87A.87.87,0,0,1,183.86,140.39Z"/><path class="cls-3" d="M195.69,128.56a.87.87,0,1,1-.87.87A.87.87,0,0,1,195.69,128.56Z"/><path class="cls-3" d="M196.21,141.5a.83.83,0,0,1-.24.59.8.8,0,0,1-.59.25.84.84,0,1,1,.83-.84Z"/><path class="cls-3" d="M207.52,140.39a.87.87,0,1,1-.87.87A.87.87,0,0,1,207.52,140.39Z"/><rect class="cls-3" x="214.22" y="137.19" width="1.52" height="4.32"/><rect class="cls-3" x="215.74" y="137.19" width="1.98" height="4.32"/><polygon class="cls-3" points="208.62 170.43 206.65 177.6 184.73 177.6 182.9 170.43 208.62 170.43"/><polygon class="cls-3" points="210.58 163.29 208.62 170.43 182.9 170.43 181.08 163.29 210.58 163.29"/><polygon class="cls-3" points="211.48 160.04 210.59 163.29 210.58 163.29 181.08 163.29 181 162.96 180.25 160.04 211.48 160.04"/><polygon class="cls-3" points="206.34 104.5 208.44 112.53 208.39 112.54 182.99 112.54 182.65 112.45 184.73 104.5 206.34 104.5"/><polygon class="cls-3" points="210.3 119.57 211.19 122.97 179.89 122.97 180.78 119.57 210.3 119.57"/><polygon class="cls-3" points="210.3 119.57 180.78 119.57 182.65 112.45 182.99 112.54 208.39 112.54 208.44 112.53 210.3 119.57"/><path class="cls-6" d="M195.38,140.67a.84.84,0,0,0,0,1.67.8.8,0,0,0,.59-.25.83.83,0,0,0-.59-1.42Zm18.84.83v15.8a2.74,2.74,0,0,1-2.74,2.74H179.89a2.74,2.74,0,0,1-2.74-2.74V125.71a2.74,2.74,0,0,1,2.74-2.74h31.59a2.74,2.74,0,0,1,2.74,2.74V141.5Zm-5.83-.24a.87.87,0,1,0-.87.87A.87.87,0,0,0,208.39,141.26Zm-11.83-11.83a.87.87,0,1,0-.87.87A.87.87,0,0,0,196.56,129.43Zm0,23.66a.87.87,0,1,0-.87.87A.86.86,0,0,0,196.56,153.09Zm-11.83-11.83a.87.87,0,1,0-.87.87A.87.87,0,0,0,184.73,141.26Z"/><path class="cls-5" d="M211.48,160H179.89a2.74,2.74,0,0,1-2.74-2.74V125.71a2.74,2.74,0,0,1,2.74-2.74h31.59a2.74,2.74,0,0,1,2.74,2.74V157.3A2.74,2.74,0,0,1,211.48,160Z"/><path class="cls-5" d="M196.56,129.43a.87.87,0,1,1-.87-.87A.87.87,0,0,1,196.56,129.43Z"/><path class="cls-5" d="M196.56,153.09a.87.87,0,1,1-.87-.87A.87.87,0,0,1,196.56,153.09Z"/><path class="cls-5" d="M207.52,142.13a.87.87,0,1,1,.87-.87A.86.86,0,0,1,207.52,142.13Z"/><path class="cls-5" d="M183.86,142.13a.87.87,0,1,1,.87-.87A.87.87,0,0,1,183.86,142.13Z"/><line class="cls-5" x1="198.86" y1="144.97" x2="195.97" y2="142.09"/><line class="cls-5" x1="195.38" y1="140.67" x2="195.38" y2="133.71"/><path class="cls-5" d="M195.38,140.67a.83.83,0,0,1,.59,1.42.8.8,0,0,1-.59.25.84.84,0,0,1,0-1.67Z"/><polyline class="cls-5" points="179.89 122.97 180.78 119.57 182.65 112.45 184.73 104.5 206.34 104.5 208.44 112.53 210.3 119.57 211.19 122.97"/><line class="cls-5" x1="182.99" y1="112.54" x2="208.39" y2="112.54"/><line class="cls-5" x1="180.78" y1="119.57" x2="210.3" y2="119.57"/><line class="cls-5" x1="210.59" y1="163.29" x2="211.48" y2="160.04"/><polyline class="cls-5" points="180.25 160.04 181 162.96 181.08 163.29 182.9 170.43 184.73 177.6 206.65 177.6 208.62 170.43 210.58 163.29"/><polyline class="cls-5" points="181.08 163.29 210.58 163.29 210.59 163.29"/><line class="cls-5" x1="182.9" y1="170.43" x2="208.62" y2="170.43"/><polyline class="cls-5" points="214.22 137.19 215.74 137.19 217.73 137.19 217.73 141.5 215.74 141.5 214.22 141.5"/><line class="cls-5" x1="215.74" y1="137.19" x2="215.74" y2="141.5"/></svg>