<svg id="Layer_1" data-name="Layer 1" xmlns="http://www.w3.org/2000/svg" viewBox="0 0 256 256"><defs><style>.cls-1{fill:#0e4e91;}.cls-2{fill:#abe7ff;}.cls-3{fill:#fff;}.cls-4{fill:#caf5fe;}.cls-5{fill:none;stroke:#0e4e91;stroke-linecap:round;stroke-linejoin:round;}.cls-6{fill:#2db5ff;}</style></defs><path class="cls-1" d="M131.75,228.4l0-1.32c2.32-.07,4.66-.21,7-.44l.13,1.31C136.47,228.18,134.1,228.33,131.75,228.4Zm-5.3,0c-2.35,0-4.72-.19-7-.41l.12-1.31c2.3.21,4.64.35,7,.4Zm17.61-1.12-.2-1.3c2.29-.35,4.6-.78,6.85-1.29L151,226C148.72,226.5,146.38,226.94,144.06,227.29Zm12.08-2.61-.35-1.27c2.22-.62,4.46-1.34,6.64-2.12l.44,1.24C160.66,223.32,158.4,224.05,156.14,224.68Zm11.67-4.08-.51-1.22c2.12-.89,4.25-1.88,6.32-2.92l.59,1.17C172.12,218.69,170,219.69,167.81,220.6Zm11.06-5.49-.66-1.14c2-1.15,4-2.39,5.92-3.69l.73,1.1C182.92,212.68,180.9,213.94,178.87,215.11Zm-99.64.23c-2-1.16-4.06-2.41-6-3.71l.73-1.09c1.93,1.28,3.93,2.51,5.94,3.66Zm110-7-.79-1.05c1.85-1.39,3.67-2.87,5.42-4.38l.86,1C192.9,205.39,191.06,206.89,189.18,208.3Zm-120.3.27c-1.88-1.4-3.74-2.88-5.52-4.42l.86-1c1.76,1.52,3.59,3,5.44,4.37Zm129.7-8.29-.92-.95c1.67-1.6,3.3-3.29,4.85-5l1,.88C201.92,196.94,200.26,198.65,198.58,200.28Zm-139.15.31c-1.68-1.61-3.34-3.32-4.93-5.06l1-.89c1.56,1.72,3.2,3.4,4.86,5Zm147.5-9.42-1-.83c1.46-1.81,2.87-3.68,4.2-5.58l1.08.76C209.84,187.44,208.41,189.34,206.93,191.17ZM51,191.52c-1.48-1.82-2.92-3.71-4.27-5.63l1.07-.76c1.34,1.89,2.76,3.76,4.22,5.55Zm163.07-10.43L213,180.4c1.23-2,2.4-4,3.49-6.05l1.16.62C216.54,177,215.35,179.1,214.11,181.09Zm-170.28.4c-1.26-2-2.45-4-3.56-6.1l1.16-.63c1.1,2,2.27,4.07,3.51,6ZM220,170.21l-1.19-.55c1-2.11,1.88-4.27,2.71-6.44l1.23.47C221.91,165.89,221,168.08,220,170.21ZM28.66,135c-.15-2.09-.22-4.2-.24-6.29v-.77h1.32v.76c0,2.06.09,4.15.23,6.21Zm1.22-12.29-1.32-.07c.13-2.35.34-4.71.63-7l1.3.16C30.21,118,30,120.34,29.88,122.66Zm196.41-12.85c-.43-2.28-.94-4.57-1.52-6.8l1.28-.34c.58,2.27,1.1,4.59,1.53,6.9Zm-195,.73-1.3-.23c.42-2.31.91-4.64,1.49-6.91l1.28.32C32.17,106,31.68,108.26,31.27,110.54ZM223.32,98c-.7-2.2-1.49-4.41-2.34-6.57l1.22-.48c.87,2.18,1.67,4.42,2.38,6.65Zm-189.17.71-1.26-.39c.69-2.24,1.48-4.49,2.33-6.69l1.23.48C35.61,94.26,34.83,96.48,34.15,98.69ZM218.92,86.62c-1-2.11-2-4.2-3.14-6.23l1.16-.63c1.13,2,2.2,4.17,3.18,6.3Zm-180.44.64-1.2-.54c1-2.14,2-4.27,3.14-6.34l1.15.62C40.47,83.05,39.43,85.15,38.48,87.26ZM213.15,75.88c-1.22-2-2.52-3.92-3.88-5.79l1.07-.77c1.37,1.9,2.69,3.87,3.93,5.87Zm-169,.58-1.12-.68c1.22-2,2.53-4,3.89-5.9l1.07.76C46.68,72.53,45.39,74.49,44.18,76.46ZM206.1,65.93c-1.45-1.8-3-3.58-4.56-5.28l1-.89c1.6,1.72,3.15,3.52,4.62,5.34Zm-154.93.53-1-.82c1.46-1.84,3-3.65,4.58-5.38l1,.89C54.13,62.86,52.61,64.64,51.17,66.46Zm146.72-9.55c-1.66-1.61-3.4-3.18-5.17-4.68l.85-1c1.79,1.52,3.56,3.12,5.24,4.75ZM89.49,37,89,35.82c2.15-.93,4.36-1.8,6.57-2.58L96,34.49C93.79,35.25,91.61,36.11,89.49,37ZM156,32.68c-2.23-.63-4.51-1.2-6.77-1.67l.27-1.29c2.29.48,4.6,1.05,6.86,1.69ZM101,32.89l-.37-1.27c2.25-.66,4.56-1.24,6.85-1.74l.28,1.29C105.45,31.66,103.17,32.24,101,32.89Zm43.16-2.82c-2.28-.35-4.61-.63-6.92-.82l.11-1.31c2.34.19,4.7.47,7,.83Zm-31.26.12-.21-1.3c2.31-.37,4.67-.67,7-.88l.12,1.31C117.46,29.53,115.13,29.82,112.85,30.19ZM132,29c-2.32-.07-4.66-.06-7,0l0-1.32c2.34-.09,4.71-.09,7.07,0Z"/><circle class="cls-2" cx="129.54" cy="127.5" r="77.24"/><path class="cls-3" d="M186.32,79.94c-.16,1.77-.28,4.43-.24,5.61a32.9,32.9,0,0,1-.76,5.65,92.41,92.41,0,0,0-16.85-.56,17.46,17.46,0,0,0-.61-3.86h0a41.42,41.42,0,0,0,.29-4.71c2.5.93,4.93.88,5.8-1.37a7.36,7.36,0,0,0,.26-.86,9.82,9.82,0,0,0,2.76,0c1.45,4.67,6.19,1.78,9.32,0h0l0,.15Z"/><path class="cls-3" d="M185.32,91.2a39.83,39.83,0,0,1-2.33,8c-1.72,3.7-4.21,7.18-8,6.94-4.53-.29-5.45-7.07-6-9.41a25.4,25.4,0,0,1-.55-6.08A92.41,92.41,0,0,1,185.32,91.2Z"/><path class="cls-4" d="M179,57.69l-.14,10a12.45,12.45,0,0,0-6.16-.28l.27-10Z"/><path class="cls-3" d="M176.83,79.29c0,.18.09.34.14.5a9.82,9.82,0,0,1-2.76,0,16.28,16.28,0,0,0,.38-2.57,8.65,8.65,0,0,0,1.76,0C176.5,77.86,176.66,78.55,176.83,79.29Z"/><path class="cls-3" d="M175.8,74.64c.13.75.32,1.6.55,2.59a8.65,8.65,0,0,1-1.76,0,20.06,20.06,0,0,0,0-2.57A9.58,9.58,0,0,0,175.8,74.64Z"/><path class="cls-3" d="M177.13,70.35a2.05,2.05,0,0,0-1.5,1.84,6.12,6.12,0,0,1-1.42,0,2.78,2.78,0,0,0-.63-1.18c-1-.87-3.29-.7-4.67-1.8a9.09,9.09,0,0,1,3.74-1.75,12.45,12.45,0,0,1,6.16.28,13.53,13.53,0,0,1,2.15.85A10.92,10.92,0,0,1,177.13,70.35Z"/><path class="cls-3" d="M175.8,74.63h0a9.58,9.58,0,0,1-1.19.06h0a10.39,10.39,0,0,0-.4-2.52,6.12,6.12,0,0,0,1.42,0A8.48,8.48,0,0,0,175.8,74.63Z"/><path class="cls-3" d="M175.93,51.52c6.87.12,7.52,9.84,8.24,15.73.5,4.12,1.43,9,2.13,12.54h0c-3.13,1.78-7.87,4.67-9.32,0-.05-.16-.1-.32-.14-.5-.17-.74-.33-1.43-.48-2.06-.23-1-.42-1.84-.55-2.59h0a8.48,8.48,0,0,1-.17-2.44,2.05,2.05,0,0,1,1.5-1.84A10.92,10.92,0,0,0,181,68.57c.94-.9,1.47-2.36,1.2-5.08-.55-5.57-2.92-10.94-6.44-11-3.81-.08-5.16,4.21-5.59,5.59-.29.92-1.86,7.17-1.86,9.7h-.56C167.8,63.13,169.22,51.39,175.93,51.52Z"/><path class="cls-3" d="M172.65,67.44a9.09,9.09,0,0,0-3.74,1.75,2.38,2.38,0,0,1-.47-.48,1.68,1.68,0,0,1-.17-.95c0-2.53,1.57-8.78,1.86-9.7.43-1.38,1.78-5.67,5.59-5.59,3.52.08,5.89,5.45,6.44,11,.27,2.72-.26,4.18-1.2,5.08a13.53,13.53,0,0,0-2.15-.85l.14-10-6-.22Z"/><path class="cls-4" d="M175,106.13c3.79.24,6.28-3.24,8-6.94a39.83,39.83,0,0,0,2.33-8,32.9,32.9,0,0,0,.76-5.65c0-1.18.08-3.84.24-5.61h0c.29,1.45.54,2.66.71,3.48.65,3.26-1.1,11.54-3.83,17.2s-6.77,6.72-8.75,6.39-3.82-1.49-5-5.58-2.34-8.13-1.92-11.91c.13-1.06.23-2,.31-2.74a17.46,17.46,0,0,1,.61,3.86,25.4,25.4,0,0,0,.55,6.08C169.54,99.06,170.46,105.84,175,106.13Z"/><path class="cls-3" d="M174.59,77.27a16.28,16.28,0,0,1-.38,2.57,7.36,7.36,0,0,1-.26.86c-.87,2.25-3.3,2.3-5.8,1.37,0-.2,0-.41,0-.64,0-2.72-.47-9-.44-13.38,0-.09,0-.19,0-.3h.56a1.68,1.68,0,0,0,.17.95,2.38,2.38,0,0,0,.47.48c1.38,1.1,3.72.93,4.67,1.8a2.78,2.78,0,0,1,.63,1.18,10.39,10.39,0,0,1,.4,2.52h0A20.06,20.06,0,0,1,174.59,77.27Z"/><path class="cls-3" d="M160.61,68.05c0,4.4-.4,10.66-.44,13.38,0,.23,0,.44,0,.64-2.5.93-4.93.88-5.8-1.37a7.36,7.36,0,0,1-.26-.86,16.28,16.28,0,0,1-.38-2.57,20.06,20.06,0,0,1,0-2.57h0a10.39,10.39,0,0,1,.4-2.52,2.78,2.78,0,0,1,.63-1.18c1-.87,3.29-.7,4.67-1.8a2.38,2.38,0,0,0,.47-.48,1.68,1.68,0,0,0,.17-.95h.56C160.61,67.86,160.61,68,160.61,68.05Z"/><path class="cls-3" d="M160,67.76a1.68,1.68,0,0,1-.17.95,2.38,2.38,0,0,1-.47.48,9.09,9.09,0,0,0-3.74-1.75l-.27-10-6,.22.14,10a13.53,13.53,0,0,0-2.15.85c-.94-.9-1.47-2.36-1.2-5.08.55-5.57,2.92-10.94,6.44-11,3.81-.08,5.16,4.21,5.59,5.59C158.47,59,160,65.23,160,67.76Z"/><path class="cls-3" d="M159.84,90.64a25.4,25.4,0,0,1-.55,6.08c-.52,2.34-1.44,9.12-6,9.41-3.79.24-6.28-3.24-8-6.94a40.5,40.5,0,0,1-2.33-8A92.41,92.41,0,0,1,159.84,90.64Z"/><path class="cls-4" d="M155.39,57.47l.27,10a12.46,12.46,0,0,0-6.16.28l-.14-10Z"/><path class="cls-3" d="M154.73,71a2.78,2.78,0,0,0-.63,1.18,6.12,6.12,0,0,1-1.42,0,2.05,2.05,0,0,0-1.5-1.84,10.92,10.92,0,0,1-3.83-1.78,13.53,13.53,0,0,1,2.15-.85,12.46,12.46,0,0,1,6.16-.28,9.09,9.09,0,0,1,3.74,1.75C158,70.29,155.68,70.12,154.73,71Z"/><path class="cls-3" d="M154.1,72.17a10.39,10.39,0,0,0-.4,2.52h0a9.49,9.49,0,0,1-1.19-.06h0a8.48,8.48,0,0,0,.17-2.44A6.12,6.12,0,0,0,154.1,72.17Z"/><path class="cls-3" d="M153.72,77.27a16.28,16.28,0,0,0,.38,2.57,9.82,9.82,0,0,1-2.76,0c0-.16.1-.32.14-.5.17-.74.33-1.43.48-2.06A8.65,8.65,0,0,0,153.72,77.27Z"/><path class="cls-3" d="M153.7,74.7a20.06,20.06,0,0,0,0,2.57,8.65,8.65,0,0,1-1.76,0c.23-1,.42-1.84.55-2.59A9.49,9.49,0,0,0,153.7,74.7Z"/><path class="cls-3" d="M152.38,51.52c6.72-.13,8.14,11.61,8.22,16.23H160c0-2.53-1.57-8.78-1.86-9.7-.43-1.38-1.78-5.67-5.59-5.59-3.52.08-5.89,5.45-6.44,11-.27,2.72.26,4.18,1.2,5.08a10.92,10.92,0,0,0,3.83,1.78,2.05,2.05,0,0,1,1.5,1.84,8.48,8.48,0,0,1-.17,2.44h0c-.13.75-.32,1.6-.55,2.59-.15.63-.31,1.32-.48,2.06,0,.18-.09.34-.14.5-1.45,4.67-6.19,1.78-9.32,0,.7-3.53,1.62-8.42,2.12-12.54C144.86,61.36,145.51,51.64,152.38,51.52Z"/><path class="cls-4" d="M160.76,89.52c.43,3.78-.74,7.81-1.91,11.91s-3.17,5.28-5,5.58-6-.74-8.75-6.39-4.47-13.94-3.82-17.2c.16-.82.41-2,.71-3.48.16,1.77.28,4.43.24,5.61A32.9,32.9,0,0,0,143,91.2a40.5,40.5,0,0,0,2.33,8c1.72,3.7,4.21,7.18,8,6.94,4.53-.29,5.45-7.07,6-9.41a25.4,25.4,0,0,0,.55-6.08,17.38,17.38,0,0,1,.61-3.86C160.53,87.56,160.64,88.45,160.76,89.52Z"/><path class="cls-3" d="M142,79.93a.89.89,0,0,1,0-.14c3.13,1.78,7.87,4.67,9.32,0a9.82,9.82,0,0,0,2.76,0,7.36,7.36,0,0,0,.26.86c.87,2.25,3.3,2.3,5.8,1.37a41.42,41.42,0,0,0,.29,4.71,17.38,17.38,0,0,0-.61,3.86A92.41,92.41,0,0,0,143,91.2a32.9,32.9,0,0,1-.76-5.65c0-1.18-.08-3.84-.24-5.61Z"/><path class="cls-5" d="M167.86,86.78a41.42,41.42,0,0,0,.29-4.71c0-.2,0-.41,0-.64,0-2.72-.47-9-.44-13.38,0-.09,0-.19,0-.3.09-4.62,1.51-16.36,8.22-16.23,6.87.12,7.52,9.84,8.24,15.73.5,4.12,1.43,9,2.13,12.54l0,.15c.29,1.45.54,2.66.71,3.48.65,3.26-1.1,11.54-3.83,17.2s-6.77,6.72-8.75,6.39-3.82-1.49-5-5.58-2.34-8.13-1.92-11.91c.13-1.06.23-2,.31-2.74"/><path class="cls-5" d="M174.61,74.69a10.39,10.39,0,0,0-.4-2.52,2.78,2.78,0,0,0-.63-1.18c-1-.87-3.29-.7-4.67-1.8a2.38,2.38,0,0,1-.47-.48,1.68,1.68,0,0,1-.17-.95c0-2.53,1.57-8.78,1.86-9.7.43-1.38,1.78-5.67,5.59-5.59,3.52.08,5.89,5.45,6.44,11,.27,2.72-.26,4.18-1.2,5.08a10.92,10.92,0,0,1-3.83,1.78,2.05,2.05,0,0,0-1.5,1.84,8.48,8.48,0,0,0,.17,2.44h0c.13.75.32,1.6.55,2.59.15.63.31,1.32.48,2.06,0,.18.09.34.14.5,1.45,4.67,6.19,1.78,9.32,0"/><path class="cls-5" d="M168.15,82.07c2.5.93,4.93.88,5.8-1.37a7.36,7.36,0,0,0,.26-.86,16.28,16.28,0,0,0,.38-2.57,20.06,20.06,0,0,0,0-2.57"/><path class="cls-5" d="M179,79.29a10.27,10.27,0,0,1-2,.5,9.82,9.82,0,0,1-2.76,0,10.89,10.89,0,0,1-2.46-.55"/><path class="cls-5" d="M185.32,91.2a92.41,92.41,0,0,0-16.85-.56"/><path class="cls-5" d="M179,76.58a10.65,10.65,0,0,1-2.6.65,9,9,0,0,1-4.6-.65"/><path class="cls-5" d="M178.66,73.88a10.56,10.56,0,0,1-2.86.76,9.58,9.58,0,0,1-1.19.06h0a8.92,8.92,0,0,1-2.86-.53"/><path class="cls-5" d="M178.66,71.45a10.62,10.62,0,0,1-3,.74,6.12,6.12,0,0,1-1.42,0,5.47,5.47,0,0,1-2.1-.72"/><path class="cls-5" d="M181,68.57a13.53,13.53,0,0,0-2.15-.85,12.45,12.45,0,0,0-6.16-.28,9.09,9.09,0,0,0-3.74,1.75"/><path class="cls-5" d="M167.86,86.78h0a17.46,17.46,0,0,1,.61,3.86,25.4,25.4,0,0,0,.55,6.08c.52,2.34,1.44,9.12,6,9.41,3.79.24,6.28-3.24,8-6.94a39.83,39.83,0,0,0,2.33-8,32.9,32.9,0,0,0,.76-5.65c0-1.18.08-3.84.24-5.61h0"/><polyline class="cls-5" points="178.81 67.72 178.95 57.69 172.92 57.47 172.65 67.44"/><path class="cls-5" d="M142,79.93a.89.89,0,0,1,0-.14c.7-3.53,1.62-8.42,2.12-12.54.72-5.89,1.37-15.61,8.24-15.73,6.72-.13,8.14,11.61,8.22,16.23,0,.11,0,.21,0,.3,0,4.4-.4,10.66-.44,13.38,0,.23,0,.44,0,.64a41.42,41.42,0,0,0,.29,4.71c.08.78.19,1.67.31,2.74.43,3.78-.74,7.81-1.91,11.91s-3.17,5.28-5,5.58-6-.74-8.75-6.39-4.47-13.94-3.82-17.2c.16-.82.41-2,.71-3.48"/><path class="cls-5" d="M142,79.79c3.13,1.78,7.87,4.67,9.32,0,0-.16.1-.32.14-.5.17-.74.33-1.43.48-2.06.23-1,.42-1.84.55-2.59h0a8.48,8.48,0,0,0,.17-2.44,2.05,2.05,0,0,0-1.5-1.84,10.92,10.92,0,0,1-3.83-1.78c-.94-.9-1.47-2.36-1.2-5.08.55-5.57,2.92-10.94,6.44-11,3.81-.08,5.16,4.21,5.59,5.59.29.92,1.86,7.17,1.86,9.7a1.68,1.68,0,0,1-.17.95,2.38,2.38,0,0,1-.47.48c-1.38,1.1-3.72.93-4.67,1.8a2.78,2.78,0,0,0-.63,1.18,10.39,10.39,0,0,0-.4,2.52h0a20.06,20.06,0,0,0,0,2.57,16.28,16.28,0,0,0,.38,2.57,7.36,7.36,0,0,0,.26.86c.87,2.25,3.3,2.3,5.8,1.37"/><path class="cls-5" d="M156.57,79.29a11,11,0,0,1-2.47.55,9.82,9.82,0,0,1-2.76,0,10,10,0,0,1-2-.5"/><path class="cls-5" d="M159.84,90.64A92.41,92.41,0,0,0,143,91.2"/><path class="cls-5" d="M156.57,76.58a8.74,8.74,0,0,1-2.85.69,8.65,8.65,0,0,1-1.76,0,10.58,10.58,0,0,1-2.59-.65"/><path class="cls-5" d="M156.57,74.16a9.33,9.33,0,0,1-2.87.54,9.49,9.49,0,0,1-1.19-.06,10.59,10.59,0,0,1-2.85-.76"/><path class="cls-5" d="M156.2,71.45a5.47,5.47,0,0,1-2.1.72,6.12,6.12,0,0,1-1.42,0,10.48,10.48,0,0,1-3-.74"/><path class="cls-5" d="M159.4,69.19a9.09,9.09,0,0,0-3.74-1.75,12.46,12.46,0,0,0-6.16.28,13.53,13.53,0,0,0-2.15.85"/><path class="cls-5" d="M142,79.93h0c.16,1.77.28,4.43.24,5.61A32.9,32.9,0,0,0,143,91.2a40.5,40.5,0,0,0,2.33,8c1.72,3.7,4.21,7.18,8,6.94,4.53-.29,5.45-7.07,6-9.41a25.4,25.4,0,0,0,.55-6.08,17.38,17.38,0,0,1,.61-3.86"/><polyline class="cls-5" points="155.66 67.44 155.39 57.47 149.36 57.69 149.5 67.72"/><path class="cls-3" d="M213.61,130.66a48.45,48.45,0,0,1,.86,14.84c0,.4-.06.76-.09,1.07v.1a.72.72,0,0,1-.22.12l-.54.11-.34,0h-.07c-.19,0-.41,0-.64.05l-.69,0h-.81l-1.93,0c-2.25,0-5,.08-8.14.31l-1,.09c-1.25.1-2.56.25-3.89.43l-1,.15c-1.27.19-2.37.38-3.34.55l-.71.13c-1.73.33-3,.62-4,.88s-2,.55-2.76.81-1.68.54-2.78.79c-.43.09-.92.2-1.48.29l-.77.13-1.06.13-1.16.1c-.86.05-1.8.08-2.8.08h-.76l-.79,0-.82,0a75.11,75.11,0,0,1-7.74-.75l-1-.15a.57.57,0,0,1-.18,0c-.6-.1-1.23-.21-1.87-.34-4.57-.91-9.86-2.5-13.53-5.24a1.15,1.15,0,0,1,0-1.34c1-1.81,5.25-3.81,8.41-3.46,4,.45,12.46.24,17.12-1.31a17.05,17.05,0,0,0,10.82-11.72,25.18,25.18,0,0,0,.77-8.67,7.27,7.27,0,0,1,.14-2.78c.21-.42,1-.64,2.13-.56,2,.14,4.43,1.24,5,3a2.64,2.64,0,0,0-.72,1.22c-.46,1.31-3,11.46-3.59,15.73,0,.24-.07.47-.09.69-.39,2.68-.12,4.41.85,5.46a5.13,5.13,0,0,0,3.92,1.27l.8,0c2.6-.15,4.41-1.15,5.5-3.12a3.06,3.06,0,0,0,.26-.51,13.77,13.77,0,0,0,1.18-5.74,132.46,132.46,0,0,1,1-14.6,8,8,0,0,0,1.76-2.36c1.35-2.22,1.38-2.22,2.77-2.24h.48c2.76-.08,6.11.14,6.58.53a15.51,15.51,0,0,1,.05,3A50,50,0,0,0,213.61,130.66Z"/><path class="cls-4" d="M214.44,146.71c.16,2.34.26,5.53,0,6.28-.22.13-1.58.57-9.75.63-4.53,0-8.54-.08-9.46-.15a4.15,4.15,0,0,1-.05-1.51c.08-.92.15-2-.69-2.38-1.13-.57-4.77.46-12.26,2.65l-1.32.39c-3.65,1.13-6.29,1.41-17.92-.43-8.41-1.32-13.57-3.11-15.34-5.33a3.47,3.47,0,0,1-.42-1.53c3.48,2.56,8.6,4.27,13.84,5.31.62.13,1.24.24,1.87.34a.57.57,0,0,0,.18,0,72.6,72.6,0,0,0,8.71.9l.82,0,.79,0h.76c1,0,1.94,0,2.8-.08.41,0,.8-.06,1.16-.1l1.06-.13.77-.13c.56-.09,1.05-.19,1.48-.29,1.21-.27,2.07-.54,3-.84.74-.23,1.51-.48,2.53-.76s2.29-.55,4-.88l.71-.13c1-.17,2.07-.36,3.34-.55l1-.15c1.34-.18,2.65-.32,3.89-.43l1-.09c3.11-.23,5.88-.27,8.13-.31.65,0,1.32,0,1.94,0h.81l.69,0c.23,0,.44,0,.64-.05h.07l.34,0,.54-.11Z"/><path class="cls-3" d="M201.16,118c-.7,3.6-1,10-1.2,15.79a14.3,14.3,0,0,1-1.08,5.44,3.06,3.06,0,0,1-.26.51,6.18,6.18,0,0,1-5.29,3l-.75,0a5,5,0,0,1-4-1.46c-.94-1.07-1.26-2.73-1-5.15a.69.69,0,0,1,0-.13c.72-4.71,3.61-15.44,4-16.61s.59-1.23,2.51-1.34l.71,0c1.35-.09,3-.18,4.4-.18A8.77,8.77,0,0,1,201.16,118Z"/><path class="cls-5" d="M213.29,146.93l.34,0"/><path class="cls-5" d="M212.58,147c.23,0,.45,0,.64-.05"/><path class="cls-5" d="M211.36,147h.53"/><path class="cls-5" d="M201,147.4c3.11-.23,5.88-.27,8.13-.31.65,0,1.32,0,1.94,0"/><path class="cls-5" d="M196.1,147.92c1.34-.18,2.65-.32,3.89-.43"/><path class="cls-5" d="M191,148.75l.71-.13"/><path class="cls-5" d="M180,151.52c.56-.09,1.05-.2,1.48-.29,1.1-.25,1.9-.52,2.78-.79s1.62-.51,2.76-.81"/><path class="cls-5" d="M177,151.88c.41,0,.8-.06,1.16-.1"/><path class="cls-5" d="M172.64,151.93l.79,0"/><path class="cls-5" d="M163.11,151l1,.15a75.11,75.11,0,0,0,7.74.75"/><path class="cls-5" d="M198.62,139.78a6.18,6.18,0,0,1-5.29,3l-.75,0a5,5,0,0,1-4-1.46c-.94-1.07-1.26-2.73-1-5.15,0-.22.06-.45.09-.69.61-4.27,3.13-14.42,3.59-15.73a2.64,2.64,0,0,1,.72-1.22c-.61-1.76-3-2.86-5-3-1.09-.08-1.92.14-2.13.56a7.27,7.27,0,0,0-.14,2.78,25.18,25.18,0,0,1-.77,8.67,17.05,17.05,0,0,1-10.82,11.72c-4.66,1.55-13.08,1.76-17.12,1.31-3.16-.35-7.42,1.65-8.41,3.46a1.15,1.15,0,0,0,0,1.34c3.67,2.74,9,4.33,13.53,5.24.64.13,1.27.24,1.87.34"/><path class="cls-5" d="M214.17,146.79a.72.72,0,0,0,.22-.12v-.1c0-.31.05-.67.09-1.07a48.45,48.45,0,0,0-.86-14.84,50,50,0,0,1-.87-12.84,15.51,15.51,0,0,0-.05-3c-.47-.39-3.82-.61-6.58-.53h-.48c-1.39,0-1.42,0-2.77,2.24a8,8,0,0,1-1.76,2.36,132.46,132.46,0,0,0-1,14.6,13.77,13.77,0,0,1-1.18,5.74"/><path class="cls-5" d="M211.08,147.05l-1.93,0c-2.25,0-5,.08-8.14.31l-1,.09c-1.25.1-2.56.25-3.89.43l-1,.15c-1.27.19-2.37.38-3.34.55l-.71.13c-1.73.33-3,.62-4,.88s-1.79.53-2.53.76c-.94.3-1.8.57-3,.84-.43.1-.92.2-1.48.29l-.77.13-1.06.13-1.16.1c-.86.05-1.8.08-2.8.08h-.76l-.79,0-.82,0a72.6,72.6,0,0,1-8.71-.9.57.57,0,0,1-.18,0c-.63-.1-1.25-.21-1.87-.34-5.24-1-10.36-2.75-13.84-5.31a3.47,3.47,0,0,0,.42,1.53c1.77,2.22,6.93,4,15.34,5.33,11.63,1.84,14.27,1.56,17.92.43l1.32-.39c7.49-2.19,11.13-3.22,12.26-2.65.84.43.77,1.46.69,2.38a4.15,4.15,0,0,0,.05,1.51c.92.07,4.93.19,9.46.15,8.17-.06,9.53-.5,9.75-.63.27-.75.17-3.94,0-6.28l-.27.08-.54.11-.34,0h-.07c-.2,0-.41,0-.64.05l-.69,0h-.81Z"/><path class="cls-5" d="M198.88,139.27a14.3,14.3,0,0,0,1.08-5.44c.2-5.8.5-12.19,1.2-15.79a8.77,8.77,0,0,0-1.93-.13c-1.37,0-3,.09-4.4.18l-.71,0c-1.92.11-2.11.28-2.51,1.34s-3.32,11.9-4,16.61a.69.69,0,0,0,0,.13c-.39,2.68-.12,4.41.85,5.46a5.13,5.13,0,0,0,3.92,1.27l.8,0c2.6-.15,4.41-1.15,5.5-3.12A3.06,3.06,0,0,0,198.88,139.27Z"/><path class="cls-3" d="M114.69,148.69A66.72,66.72,0,0,1,104.22,151c-14,1.41-20.52.19-25.25-.7-1.33-.26-2.49-.47-3.61-.59a18,18,0,0,0-7.67.61c-.52.14-1,.28-1.53.38-2.27.45-5.51.34-11.88,0-5-.16-7.41-.68-8.61-1.12a5,5,0,0,1-.92-.37,8.74,8.74,0,0,0,.71,2c1.44,2.5,16.94,2.67,19.94,2.44a.76.76,0,0,0,.67-.4c.49-.62,1.12-1.18,3.48-1.2h0a56.43,56.43,0,0,1,6.48.75c5.4.8,12.78,1.89,19,1.43,9.67-.7,25.08-5.48,27.58-8a4.67,4.67,0,0,0,.57-1.47,30.68,30.68,0,0,1-8,3.73Z"/><path class="cls-3" d="M44.55,145.28a15.31,15.31,0,0,0,0,3.62c.05.09.26.37,1.13.69a33.78,33.78,0,0,0,8.57,1.08c6.44.35,9.73.46,12.09,0,.54-.11,1-.24,1.58-.39a17.24,17.24,0,0,1,7.36-.58c1.09.11,2.23.32,3.54.57a67.82,67.82,0,0,0,13.88,1.35c3.23,0,7-.18,11.64-.64a69.65,69.65,0,0,0,10.36-2.28l.54-.17a29.65,29.65,0,0,0,7.62-3.63l.41-.27a6.38,6.38,0,0,0-.57-2.24c-1,1.82-6.11,3.66-15.09,5.48a67.75,67.75,0,0,1-13.28,1.43H93.16a123.4,123.4,0,0,1-13.82-1c-5.51-.6-11.75-.66-17.25-.71-3.93,0-7.32-.07-9.5-.31-.72-.08-1.38-.13-2-.18C48,146.88,46.12,146.72,44.55,145.28Z"/><path class="cls-3" d="M90.26,134a1.17,1.17,0,0,0,2.34,0,1.2,1.2,0,0,0-.81-1.12,1.08,1.08,0,0,0-.36,0A1.17,1.17,0,0,0,90.26,134Z"/><path class="cls-3" d="M86.52,131a1.18,1.18,0,1,0,.5.12A1.06,1.06,0,0,0,86.52,131Z"/><path class="cls-3" d="M81.82,129.27a1.17,1.17,0,0,0,0,2.34A1.17,1.17,0,0,0,83,130.44a1.14,1.14,0,0,0-.56-1A1.09,1.09,0,0,0,81.82,129.27Z"/><path class="cls-6" d="M81.82,129.27a1.17,1.17,0,0,0,0,2.34A1.17,1.17,0,0,0,83,130.44a1.14,1.14,0,0,0-.56-1A1.09,1.09,0,0,0,81.82,129.27Zm9.61,3.53A1.17,1.17,0,1,0,92.6,134a1.2,1.2,0,0,0-.81-1.12A1.08,1.08,0,0,0,91.43,132.8Zm3.32,7c-2,3.34-4,4.73-7.27,4.73a16,16,0,0,1-2.2-.17c-8-1.25-12.84-4-17.16-6.4a38.28,38.28,0,0,0-7.31-3.47c-6-1.87-13.1-3.4-14.89-3.78l.15-2.32s13.33,5.67,26.17,4c3.94-.53,3.52-5.43,6.59-5.43,1.63,0,17.41,6.18,17.41,6.18A10.75,10.75,0,0,1,94.75,139.78ZM86.52,131a1.18,1.18,0,1,0,.5.12A1.06,1.06,0,0,0,86.52,131Z"/><path class="cls-6" d="M94,149.29a120.93,120.93,0,0,1-13.52-1c-3.07-.33-6.37-.5-9.63-.59a21.1,21.1,0,0,1-6.65-5.48,43,43,0,0,0-5.62-5.43,22.24,22.24,0,0,0-13-4.48,110.29,110.29,0,0,0-1,12.95c1.57,1.44,3.44,1.6,6,1.82.64.05,1.3.1,2,.18,2.18.24,5.57.27,9.5.31,5.5,0,11.74.11,17.25.71a123.4,123.4,0,0,0,13.82,1H94Z"/><path class="cls-3" d="M60.5,134.5c-6-1.87-13.11-3.4-14.9-3.77,0,.07,0,.15-.05.24-.09.46-.2.93-.33,1.39a22.25,22.25,0,0,1,13,4.48,43.67,43.67,0,0,1,5.62,5.43,20.87,20.87,0,0,0,6.65,5.48c3.26.09,6.55.26,9.62.59a120.93,120.93,0,0,0,13.53,1H94a69.62,69.62,0,0,0,12.82-1.46c11-2.22,14.37-4.1,15.55-5.47v0s.05-.08.07-.13a5,5,0,0,0-.48-3.57c-.63-1.43-1.4-2.63-2.11-2.92h-.18a.48.48,0,0,0-.25.11c-.37.52-.94,1-4.46,1.49a9.59,9.59,0,0,1-1.25.07c-4.56,0-12-2.42-16.86-4l-.93-.3a10.83,10.83,0,0,1-1.5,6.69c-2,3.34-4,4.73-7.27,4.73a16.27,16.27,0,0,1-2.2-.17c-7.94-1.24-12.84-4-17.15-6.4A38.28,38.28,0,0,0,60.5,134.5Z"/><path class="cls-5" d="M122.69,142.38c-1,1.82-6.11,3.66-15.09,5.48a67.75,67.75,0,0,1-13.28,1.43H94a120.93,120.93,0,0,1-13.52-1c-3.07-.33-6.37-.5-9.63-.59a21.1,21.1,0,0,1-6.65-5.48,43,43,0,0,0-5.62-5.43,22.24,22.24,0,0,0-13-4.48c.12-.47.24-.94.33-1.4,0-.08,0-.16.05-.24,1.79.38,8.9,1.91,14.89,3.78a38.28,38.28,0,0,1,7.31,3.47c4.32,2.41,9.21,5.15,17.16,6.4a16,16,0,0,0,2.2.17c3.25,0,5.29-1.39,7.27-4.73a10.75,10.75,0,0,0,1.49-6.7l.94.31c4.89,1.61,12.3,4,16.85,4a9.75,9.75,0,0,0,1.26-.07c3.52-.45,4-1.28,4.63-1.55s1.74,1.45,2.37,2.88a4.89,4.89,0,0,1,.47,3.57A.83.83,0,0,1,122.69,142.38Z"/><path class="cls-5" d="M114.69,148.69A66.72,66.72,0,0,1,104.22,151c-14,1.41-20.52.19-25.25-.7-1.33-.26-2.49-.47-3.61-.59a18,18,0,0,0-7.67.61c-.52.14-1,.28-1.53.38-2.27.45-5.51.34-11.88,0-5-.16-7.41-.68-8.61-1.12-.87-.32-1.08-.6-1.13-.69a15.31,15.31,0,0,1,0-3.62c1.57,1.44,3.44,1.6,6,1.82.64.05,1.3.1,2,.18,2.18.24,5.57.27,9.5.31,5.5,0,11.74.11,17.25.71a123.4,123.4,0,0,0,13.82,1h1.16a69.71,69.71,0,0,0,12.82-1.46c11-2.22,14.37-4.1,15.55-5.47v0a6.38,6.38,0,0,1,.57,2.24l-.41.27a29.65,29.65,0,0,1-7.62,3.63"/><path class="cls-5" d="M45.67,149.59a33.78,33.78,0,0,0,8.57,1.08c6.44.35,9.73.46,12.09,0,.54-.11,1-.24,1.58-.39a17.24,17.24,0,0,1,7.36-.58c1.09.11,2.23.32,3.54.57a67.82,67.82,0,0,0,13.88,1.35c3.23,0,7-.18,11.64-.64a69.65,69.65,0,0,0,10.36-2.28l.54-.17a30.68,30.68,0,0,0,8-3.73,4.67,4.67,0,0,1-.57,1.47c-2.5,2.49-17.91,7.27-27.58,8-6.19.46-13.57-.63-19-1.43a56.43,56.43,0,0,0-6.48-.75h0c-2.36,0-3,.58-3.48,1.2a.76.76,0,0,1-.67.4c-3,.23-18.5.06-19.94-2.44a8.74,8.74,0,0,1-.71-2A5,5,0,0,0,45.67,149.59Z"/><path class="cls-5" d="M45.54,132.33a110.29,110.29,0,0,0-1,12.95"/><path class="cls-5" d="M96.24,133.08s-15.78-6.18-17.41-6.18c-3.07,0-2.65,4.9-6.59,5.43-12.84,1.71-26.17-4-26.17-4l-.15,2.32"/><path class="cls-5" d="M90.26,134a1.17,1.17,0,0,0,2.34,0,1.2,1.2,0,0,0-.81-1.12,1.08,1.08,0,0,0-.36,0A1.17,1.17,0,0,0,90.26,134Z"/><path class="cls-5" d="M85.35,132.12a1.17,1.17,0,1,0,2.33,0,1.16,1.16,0,0,0-.66-1.05,1.06,1.06,0,0,0-.5-.12A1.17,1.17,0,0,0,85.35,132.12Z"/><path class="cls-5" d="M80.65,130.44a1.17,1.17,0,1,0,2.34,0,1.14,1.14,0,0,0-.56-1,1.09,1.09,0,0,0-.61-.18A1.18,1.18,0,0,0,80.65,130.44Z"/><path class="cls-5" d="M91.28,133.6a4.39,4.39,0,0,1,.51-.75,3.81,3.81,0,0,1,1.16-1"/><path class="cls-5" d="M86.52,131.81a4.35,4.35,0,0,1,1.67-1.72"/><path class="cls-5" d="M82,130.13a4.12,4.12,0,0,1,.46-.68,4,4,0,0,1,1.21-1"/><path class="cls-3" d="M142.13,190.22c-3.13.78-12.66,5.55-17,6.69s-20.61,2.87-32.1-2.86h-.59a11.47,11.47,0,0,0,2.37,7.69c13.32,6.82,41.13.11,44-1.61s7-2.47,11.4-3.47,8.47-2.77,9.67-4.59.14-7.63,0-8.35c-.82,1.06-4.11,4.58-7.75,5.26s-6.56.47-9.52,1.12Z"/><path class="cls-3" d="M132.09,170.63c-1.81.3-5.91,4.62-10.67,7.31s-12.7,7.17-17.47,8.56c-4,1.16-9.27,2.58-10.61,5.61a3.79,3.79,0,0,0-.3,1.94c11.49,5.73,27.78,4,32.1,2.86s13.86-5.91,17-6.69l.52-.12a13.59,13.59,0,0,0-3.88-3.33,10.19,10.19,0,0,0-3.72-1.3h0a8.8,8.8,0,0,0-1.47-.09c-1.32-.18-1.75-1.64-1.36-2.11s4.48-2.43,5.33-5.83a2.41,2.41,0,0,0,0-1.07,5.74,5.74,0,0,0-.87-2A9.46,9.46,0,0,0,132.09,170.63Z"/><path class="cls-4" d="M132.21,183.27c-.39.47,0,1.93,1.36,2.11a8.8,8.8,0,0,1,1.47.09h0a26,26,0,0,1,5.84-4.31c3.17-1.68,9.05-3.12,9.92-3.84s6.28-2.65,5.57-4.57c-.6-1.66-5.33-.75-9,.61a81.14,81.14,0,0,1-9.79,3h0a2.41,2.41,0,0,1,0,1.07C136.69,180.84,132.6,182.81,132.21,183.27Z"/><path class="cls-3" d="M158.83,174.77c-1.74,2.81-6.06,6-11.87,7.57s-7,2.59-8.19,4.43a13.59,13.59,0,0,1,3.88,3.33c3-.65,6-.47,9.52-1.12s6.93-4.2,7.75-5.26l.06-.08c.57-1.31.69-3-.13-5.57C159.45,176.8,159.1,175.76,158.83,174.77Z"/><path class="cls-6" d="M147,182.34c5.81-1.59,10.13-4.76,11.87-7.57a17.79,17.79,0,0,1-.58-3.15c-.23-2.3-2.87-3.52-7.57-1.49a93.2,93.2,0,0,1-13.75,4.09l-.26.17a5.74,5.74,0,0,1,.87,2h0a81.14,81.14,0,0,0,9.79-3c3.71-1.36,8.44-2.27,9-.61.71,1.92-4.7,3.86-5.57,4.57s-6.75,2.16-9.92,3.84a26,26,0,0,0-5.84,4.31,10.19,10.19,0,0,1,3.72,1.3C140,184.93,141.12,184,147,182.34Z"/><path class="cls-5" d="M160,183.64c.57-1.31.69-3-.13-5.57-.4-1.27-.75-2.31-1-3.3a17.79,17.79,0,0,1-.58-3.15c-.23-2.3-2.87-3.52-7.57-1.49a93.2,93.2,0,0,1-13.75,4.09"/><path class="cls-5" d="M135,185.47a8.8,8.8,0,0,0-1.47-.09c-1.32-.18-1.75-1.64-1.36-2.11s4.48-2.43,5.33-5.83a2.41,2.41,0,0,0,0-1.07,5.74,5.74,0,0,0-.87-2,9.46,9.46,0,0,0-4.58-3.76"/><path class="cls-5" d="M142.75,190.22l-.1-.12a13.59,13.59,0,0,0-3.88-3.33,10.19,10.19,0,0,0-3.72-1.3"/><path class="cls-5" d="M132.09,170.63c-1.81.3-5.91,4.62-10.67,7.31s-12.7,7.17-17.47,8.56c-4,1.16-9.27,2.58-10.61,5.61a3.79,3.79,0,0,0-.3,1.94"/><path class="cls-5" d="M160,183.64l-.06.08c-.82,1.06-4.11,4.58-7.75,5.26s-6.56.47-9.52,1.12l-.52.12c-3.13.78-12.66,5.55-17,6.69s-20.61,2.87-32.1-2.86"/><path class="cls-5" d="M159.9,183.64a.24.24,0,0,0,0,.08c.12.72,1.1,6.65,0,8.35s-5.29,3.59-9.67,4.59-8.52,1.76-11.4,3.47-30.69,8.43-44,1.61a11.47,11.47,0,0,1-2.37-7.69"/><path class="cls-5" d="M137.55,176.37a81.14,81.14,0,0,0,9.79-3c3.71-1.36,8.44-2.27,9-.61.71,1.92-4.7,3.86-5.57,4.57s-6.75,2.16-9.92,3.84a26,26,0,0,0-5.84,4.31h0"/><path class="cls-5" d="M93.34,192.11c1.13.69,15.48,4.64,21.27,3.81s10.13-.38,22.8-6.82"/><path class="cls-5" d="M138.77,186.77c1.24-1.84,2.35-2.82,8.19-4.43s10.13-4.76,11.87-7.57l0-.05"/><path class="cls-4" d="M118.32,91.94a7.22,7.22,0,0,1,.17,4.16c-6.86,4.42-19.11,5.58-30.73,4.1-8.58.31-16.58-.12-23.56-1.86,0,0-.38-3.63.7-5.91v0l2.68,1.16s2.71-2.44,4.55-2.34c1.23.07,8.4,2.36,13.42,3.85a34.28,34.28,0,0,0,4.91,1.26c1.34-.09,6.55-1.77,8.12-1.77s12.73,1.65,14.55,1.1S115.89,92.64,118.32,91.94Z"/><path class="cls-3" d="M104,86.27c.27.13.54.24.81.35,5.63,2.23,8.91,1.67,10.89,2.34a4.43,4.43,0,0,1,2.67,3c-2.43.7-3.38,3.17-5.19,3.71s-13-1.1-14.55-1.1-6.78,1.68-8.12,1.77a34.28,34.28,0,0,1-4.91-1.26h0l.79-1.29-7.18-5.84s6.41-2.61,7.79-4.29c1.72-2.07,2.69-6.27,2.69-6.27s1.34,1,3.32,2.35c.79.55,1.69,1.15,2.63,1.77s1.77,1.14,2.68,1.7,1.87,1.13,2.79,1.63S103.05,85.87,104,86.27Z"/><path class="cls-6" d="M85,69.8v0c-2.54.27-6.1,1.92-9,3.45a6.07,6.07,0,0,1,1-3c.91-1.11,5.7-3.18,6.2-3.15S84.66,68.8,85,69.8Z"/><path class="cls-6" d="M71.55,75.89c.31.32.63.66,1,1l-6.09,5.44a11.43,11.43,0,0,0,.14-4.46,18.92,18.92,0,0,0-.89-3.4l1-2.08A14.32,14.32,0,0,1,71.55,75.89Z"/><path class="cls-3" d="M89.64,77.36s-1,4.2-2.69,6.27c-1.38,1.68-7.79,4.29-7.79,4.29l7.18,5.84-.79,1.29h0c-5-1.49-12.19-3.78-13.42-3.85-1.84-.1-4.55,2.34-4.55,2.34L64.9,92.39a29,29,0,0,1,.4-5.56c.27-1.18.78-2.78,1.11-4.47l6.09-5.44c-.32-.37-.64-.71-1-1,.65-.41,2.36-1.47,4.45-2.6,2.85-1.53,6.41-3.18,9-3.45a5,5,0,0,1,1.61.06C87.76,70.31,89.64,77.36,89.64,77.36Z"/><path class="cls-5" d="M71.26,76.08l.29-.19c.65-.41,2.36-1.47,4.45-2.6,2.85-1.53,6.41-3.18,9-3.45a5,5,0,0,1,1.61.06c1.2.41,3.08,7.46,3.08,7.46s1.34,1,3.32,2.35c.79.55,1.69,1.15,2.63,1.77s1.77,1.14,2.68,1.7,1.87,1.13,2.79,1.63,2,1.06,2.89,1.46c.27.13.54.24.81.35,5.63,2.23,8.91,1.67,10.89,2.34a4.43,4.43,0,0,1,2.67,3,7.22,7.22,0,0,1,.17,4.16c-6.86,4.42-19.11,5.58-30.73,4.1-8.58.31-16.58-.12-23.56-1.86,0,0-.38-3.63.7-5.91v0a29,29,0,0,1,.4-5.56c.27-1.18.78-2.78,1.11-4.47a11.43,11.43,0,0,0,.14-4.46,18.92,18.92,0,0,0-.89-3.4l1-2.08a14.32,14.32,0,0,1,4.85,3.47c.31.32.63.66,1,1l-6.09,5.44"/><path class="cls-5" d="M64.62,92.27l.28.12,2.68,1.16s2.71-2.44,4.55-2.34c1.23.07,8.4,2.36,13.42,3.85a34.28,34.28,0,0,0,4.91,1.26c1.34-.09,6.55-1.77,8.12-1.77s12.73,1.65,14.55,1.1,2.76-3,5.19-3.71"/><path class="cls-5" d="M85.55,95.05l.79-1.29-7.18-5.84s6.41-2.61,7.79-4.29c1.72-2.07,2.69-6.27,2.69-6.27"/><polyline class="cls-5" points="91.05 81.33 92.96 79.71 93.46 79.29"/><polyline class="cls-5" points="93.9 82.97 95.59 81.48 96.22 80.93"/><polyline class="cls-5" points="96.59 84.61 98.27 83.18 99.01 82.56"/><polyline class="cls-5" points="99.36 86.27 101.06 84.81 101.8 84.18"/><polyline class="cls-5" points="102.11 87.94 103.95 86.27 104.59 85.69"/><path class="cls-5" d="M76,73.29a6.07,6.07,0,0,1,1-3c.91-1.11,5.7-3.18,6.2-3.15S84.66,68.8,85,69.8"/></svg>