<svg id="Layer_1" data-name="Layer 1" xmlns="http://www.w3.org/2000/svg" viewBox="0 0 256 256"><defs><style>.cls-1{fill:#0e4e91;}.cls-2{fill:#abe7ff;}.cls-3{fill:#2db5ff;}.cls-4{fill:#fff;}.cls-5{fill:#caf5fe;}.cls-6{fill:none;stroke:#0e4e91;stroke-miterlimit:10;}</style></defs><path class="cls-1" d="M133,216.72l-.16-1.13c2-.29,4-.65,5.95-1.09l.25,1.12C137,216.05,135,216.42,133,216.72Zm-4.57.55c-2,.19-4.09.31-6.12.36l0-1.15c2,0,4-.16,6-.35Zm15.08-2.76-.31-1.1c1.94-.54,3.88-1.14,5.77-1.81l.39,1.08C147.4,213.36,145.43,214,143.47,214.51ZM153.62,211l-.44-1.06c1.86-.77,3.72-1.61,5.51-2.51l.51,1C157.38,209.41,155.5,210.26,153.62,211Zm9.64-4.7-.57-1c1.74-1,3.48-2.06,5.16-3.17l.63.95C166.79,204.25,165,205.34,163.26,206.34Zm9-5.86-.68-.92c1.61-1.2,3.2-2.47,4.73-3.78l.74.87C175.48,198,173.87,199.26,172.24,200.48ZM86.36,210.79c-1.87-.79-3.74-1.67-5.56-2.59l.51-1c1.8.91,3.64,1.76,5.49,2.55Zm94.08-17.23-.79-.82c1.46-1.39,2.88-2.85,4.23-4.33l.85.76C183.36,190.68,181.91,192.15,180.44,193.56ZM76.75,206c-1.76-1-3.52-2.11-5.2-3.26l.63-.94c1.67,1.12,3.4,2.2,5.14,3.21Zm111-20.32-.89-.72c1.28-1.56,2.51-3.17,3.67-4.82l.94.66C190.27,182.48,189,184.12,187.72,185.69ZM67.8,200.09c-1.62-1.22-3.23-2.53-4.77-3.86l.76-.87c1.52,1.32,3.1,2.61,4.7,3.81ZM194,177l-1-.61c1.07-1.71,2.1-3.46,3-5.23l1,.54C196.14,173.48,195.09,175.26,194,177ZM59.64,193.11c-1.47-1.41-2.89-2.9-4.26-4.42l.86-.76c1.34,1.5,2.76,3,4.2,4.35Zm139.53-25.54-1-.49c.86-1.81,1.66-3.69,2.39-5.57l1.07.42C200.86,163.83,200,165.73,199.17,167.57ZM52.4,185.2c-1.28-1.58-2.51-3.24-3.68-4.9l.94-.66c1.14,1.65,2.37,3.27,3.63,4.83Zm150.74-27.61-1.08-.35c.63-1.91,1.19-3.87,1.68-5.83l1.11.28C204.36,153.67,203.78,155.66,203.14,157.59Zm-168.54-11c-.33-1.78-.62-3.6-.84-5.4l-.08-.67,1.13-.13.08.66c.22,1.78.5,3.57.83,5.33Zm-.19-10.72-1.14.07c-.14-2-.19-4.09-.18-6.14h1.15C34.21,131.86,34.27,133.89,34.41,135.9Zm168-31c-.6-1.92-1.27-3.85-2-5.72l1.06-.41c.74,1.89,1.42,3.84,2,5.79Zm-168,20.42-1.14-.07c.12-2,.31-4.08.58-6.1l1.13.15C34.69,121.27,34.49,123.29,34.38,125.3ZM198.67,95c-.82-1.82-1.72-3.65-2.68-5.42l1-.54c1,1.79,1.89,3.64,2.72,5.5Zm-163,19.82-1.13-.21c.37-2,.81-4,1.33-6l1.11.29C36.46,110.83,36,112.82,35.65,114.8ZM193.72,85.63c-1.05-1.71-2.16-3.41-3.33-5l.93-.67c1.18,1.65,2.31,3.38,3.38,5.11ZM38.22,104.51l-1.09-.35c.61-1.93,1.31-3.89,2.07-5.79l1.06.42Q39.14,101.63,38.22,104.51ZM187.66,77c-1.25-1.57-2.57-3.12-3.93-4.59l.84-.77c1.38,1.49,2.72,3.07,4,4.66ZM42.05,94.62l-1-.48c.85-1.85,1.78-3.7,2.75-5.48l1,.55C43.8,91,42.88,92.79,42.05,94.62ZM180.58,69.1c-1.44-1.4-2.93-2.78-4.46-4.08l.74-.88c1.55,1.32,3.08,2.71,4.53,4.14ZM47.06,85.28l-1-.6c1.06-1.73,2.21-3.45,3.4-5.11l.93.67C49.24,81.88,48.11,83.57,47.06,85.28ZM172.58,62.16c-1.59-1.22-3.25-2.4-4.94-3.51l.63-1q2.56,1.7,5,3.56ZM77.1,56l-.58-1c1.76-1,3.58-2,5.41-2.88l.5,1C80.63,54.05,78.84,55,77.1,56ZM134,45.52c-2-.33-4-.58-6-.75l.1-1.15c2,.19,4.08.44,6.08.77ZM86.56,51.28l-.45-1.05c1.88-.79,3.8-1.53,5.73-2.2l.37,1.08C90.31,49.77,88.41,50.5,86.56,51.28Zm36.93-6.8c-2-.07-4-.07-6.06,0l0-1.15c2-.07,4.1-.06,6.14,0ZM96.55,47.76l-.32-1.11c2-.55,4-1,6-1.47l.24,1.12C100.46,46.71,98.48,47.2,96.55,47.76Zm16.36-3c-2,.18-4,.43-6,.74l-.17-1.13c2-.31,4-.56,6.09-.74Z"/><circle class="cls-2" cx="120.82" cy="129.95" r="67.05"/><path class="cls-3" d="M157.89,82.64a3.48,3.48,0,0,1-1,2.51,3.54,3.54,0,0,1-2.52,1l-29.8.06V83.87l0-19.08,29.77-.08a3.67,3.67,0,0,1,3.59,3.56Zm-6-2.4V77.83l-21.47,0v2.41Zm-21.48-7.12,21.47-.07v-2.4l-21.47,0Z"/><rect class="cls-4" x="130.45" y="77.85" width="21.47" height="2.41"/><rect class="cls-4" x="130.43" y="70.68" width="21.47" height="2.41" transform="matrix(1, 0, 0, 1, -0.21, 0.41)"/><polygon class="cls-5" points="124.49 67.15 124.51 83.87 117.34 83.89 117.32 77.92 117.29 67.16 124.49 67.15"/><polygon class="cls-4" points="117.32 77.92 96.56 77.98 94.25 80.28 83.93 78.25 83.92 73 94.26 70.96 96.55 73.2 117.31 73.15 117.32 77.92"/><polygon class="cls-6" points="83.93 78.25 83.92 73 94.26 70.96 96.55 73.2 117.31 73.15 117.32 77.92 96.56 77.98 94.25 80.28 83.93 78.25"/><polygon class="cls-6" points="124.51 83.87 117.34 83.89 117.32 77.92 117.29 67.16 124.49 67.15 124.51 83.87"/><path class="cls-6" d="M124.52,86.23V83.87l0-19.08,29.77-.08a3.67,3.67,0,0,1,3.59,3.56l0,14.37a3.48,3.48,0,0,1-1,2.51,3.54,3.54,0,0,1-2.52,1Z"/><rect class="cls-6" x="130.43" y="70.68" width="21.47" height="2.41" transform="matrix(1, 0, 0, 1, -0.21, 0.41)"/><rect class="cls-6" x="130.45" y="77.85" width="21.47" height="2.41" transform="translate(-0.21 0.38) rotate(-0.15)"/><path class="cls-5" d="M127.38,189.64v16.09h-3.45A17.32,17.32,0,0,1,106.87,191l-.18-1.26v-.06Z"/><polygon class="cls-4" points="127.38 180.44 127.38 189.64 106.69 189.64 106.68 189.64 97.5 189.64 97.5 180.44 127.38 180.44"/><path class="cls-3" d="M127.38,178v2.34H97.5V178a3.42,3.42,0,0,1,1.37-2.75l4.91-2.84c.23-.13,5.21-2.93,5.21-8.35a36.8,36.8,0,0,0-1.16-8.94,20.92,20.92,0,0,1-1.14-5.72,5.75,5.75,0,0,1,11.49,0,20.52,20.52,0,0,1-1.11,5.65,36.82,36.82,0,0,0-1.18,9c0,5.45,5.08,8.27,5.14,8.3l4.86,2.81A3.49,3.49,0,0,1,127.38,178Z"/><path class="cls-5" d="M106.69,189.7v16h-1.15a8.08,8.08,0,0,1-8-7.91v-8.18h9.18Z"/><polyline class="cls-6" points="97.5 189.64 97.5 180.44 127.38 180.44 127.38 189.64"/><path class="cls-6" d="M127.38,180.35H97.5V178a3.42,3.42,0,0,1,1.37-2.75l4.91-2.84c.23-.13,5.21-2.93,5.21-8.35a36.8,36.8,0,0,0-1.16-8.94,20.92,20.92,0,0,1-1.14-5.72,5.75,5.75,0,0,1,11.49,0,20.52,20.52,0,0,1-1.11,5.65,36.82,36.82,0,0,0-1.18,9c0,5.45,5.08,8.27,5.14,8.3l4.86,2.81a3.49,3.49,0,0,1,1.49,2.83Z"/><path class="cls-6" d="M106.69,189.64v16.09h-1.15a8.08,8.08,0,0,1-8-7.91v-8.18h9.18"/><path class="cls-6" d="M127.38,189.64v16.09h-3.45A17.32,17.32,0,0,1,106.87,191l-.18-1.26v-.06h20.7Z"/><path class="cls-4" d="M193.87,122.88v11a3.25,3.25,0,0,1-3.23,3.29H163.19a1.09,1.09,0,0,0-1.09,1.1v5.48h-2.2v-5.48a3.29,3.29,0,0,1,3.29-3.29h27.45a1.1,1.1,0,0,0,1.09-1.1v-11a1.09,1.09,0,0,0-1.09-1.1h-3.33v-2.19h3.33A3.24,3.24,0,0,1,193.87,122.88Z"/><path class="cls-4" d="M187.31,121.78v6.58a2.19,2.19,0,0,1-2.19,2.19H136.88a2.19,2.19,0,0,1-2.19-2.19V113a2.19,2.19,0,0,1,2.19-2.19h48.24a2.19,2.19,0,0,1,2.19,2.19v8.77Z"/><rect class="cls-4" x="156.62" y="165.63" width="8.77" height="4.39"/><path class="cls-3" d="M165.39,145.9v19.73h-8.77V145.9a2.19,2.19,0,0,1,2.19-2.19h4.38A2.2,2.2,0,0,1,165.39,145.9Z"/><path class="cls-6" d="M165.39,165.63V145.9a2.2,2.2,0,0,0-2.2-2.19H162.1v-5.48a1.09,1.09,0,0,1,1.09-1.1h27.45a3.25,3.25,0,0,0,3.23-3.29v-11a3.24,3.24,0,0,0-3.23-3.29h-3.33V113a2.19,2.19,0,0,0-2.19-2.19H136.88a2.19,2.19,0,0,0-2.19,2.19v15.35a2.19,2.19,0,0,0,2.19,2.19h48.24a2.19,2.19,0,0,0,2.19-2.19v-6.58h3.33a1.09,1.09,0,0,1,1.09,1.1v11a1.1,1.1,0,0,1-1.09,1.1H163.19a3.29,3.29,0,0,0-3.29,3.29v5.48h-1.09a2.19,2.19,0,0,0-2.19,2.19v19.73"/><rect class="cls-6" x="156.62" y="165.63" width="8.77" height="4.39"/><line class="cls-6" x1="159.9" y1="143.71" x2="162.1" y2="143.71"/><line class="cls-6" x1="187.31" y1="119.59" x2="187.31" y2="121.78"/><path class="cls-3" d="M63.53,142.86c.85,9.49.37,12.31.09,14a10,10,0,0,0-.19,1.77,4.48,4.48,0,0,0,.91,2.72,1.48,1.48,0,0,0,1.07.46h7.34a1.49,1.49,0,0,0,1.07-.46,4.5,4.5,0,0,0,.92-2.72,11.16,11.16,0,0,0-.2-1.77c-.28-1.68-.75-4.51.09-14,.55-6.08.22-8.88-1.59-13.6l-.27-.71H65.39l-.27.71C63.32,134,63,136.77,63.53,142.86Z"/><path class="cls-4" d="M58,110.8c4.81,0,7.8,3,7.8,7.76v10h6.65v-10c0-3.74,1.91-7.76,6.1-7.76a5.41,5.41,0,0,1,4.08,1.84L83,113h7.24V101.92l-7.19,0-.34.37a5.63,5.63,0,0,1-8.2,0l-.33-.37H66.9c-3.24,0-8.12,1.75-11.87,4.25a19.92,19.92,0,0,0-4.88,4.45l-3.36,4.49,4.81-2.87A12.1,12.1,0,0,1,58,110.8Z"/><path class="cls-6" d="M65.79,128.54v-10c0-4.79-3-7.76-7.8-7.76a12.1,12.1,0,0,0-6.39,1.45l-4.81,2.87,3.36-4.49A19.92,19.92,0,0,1,55,106.18c3.75-2.5,8.63-4.25,11.87-4.25h7.23l.33.37a5.63,5.63,0,0,0,8.2,0l.34-.37,7.19,0V113H83l-.33-.37a5.41,5.41,0,0,0-4.08-1.84c-4.19,0-6.1,4-6.1,7.76v10Z"/><path class="cls-6" d="M64.34,161.35a4.48,4.48,0,0,1-.91-2.72,10,10,0,0,1,.19-1.77c.28-1.69.76-4.51-.09-14-.54-6.09-.21-8.88,1.59-13.6l.27-.71h7.38l.27.71c1.81,4.72,2.14,7.52,1.59,13.6-.84,9.49-.37,12.32-.09,14a11.16,11.16,0,0,1,.2,1.77,4.5,4.5,0,0,1-.92,2.72,1.49,1.49,0,0,1-1.07.46H65.41A1.48,1.48,0,0,1,64.34,161.35Z"/></svg>