<svg id="Layer_1" data-name="Layer 1" xmlns="http://www.w3.org/2000/svg" viewBox="0 0 256 256"><defs><style>.cls-1{fill:#0e4e91;}.cls-2{fill:#abe7ff;}.cls-3{fill:#fff;}.cls-4{fill:#caf5fe;}.cls-5{fill:#2db5ff;}.cls-6{fill:none;stroke:#0e4e91;stroke-linecap:round;stroke-linejoin:round;}</style></defs><path class="cls-1" d="M96.52,218.52l.41-1.19c2.09.72,4.23,1.37,6.36,1.94l-.32,1.21C100.8,219.91,98.64,219.25,96.52,218.52Zm-4.73-1.77c-2.08-.84-4.15-1.76-6.15-2.73l.55-1.13c2,1,4,1.87,6.07,2.69Zm16.08,4.91.26-1.23c2.16.46,4.36.84,6.55,1.15l-.17,1.24C112.29,222.52,110.06,222.12,107.87,221.66Zm11.65,1.72.11-1.25c2.2.19,4.43.3,6.64.33l0,1.25C124,223.69,121.75,223.57,119.52,223.38Zm11.78.27-.05-1.25c2.19-.09,4.42-.25,6.62-.49l.14,1.25C135.78,223.4,133.52,223.57,131.3,223.65ZM143,222.47l-.2-1.24c2.18-.36,4.37-.8,6.51-1.31l.29,1.22C147.43,221.66,145.21,222.1,143,222.47Zm-89-33.2c-1.43-1.72-2.82-3.51-4.12-5.33l1-.73c1.29,1.79,2.66,3.56,4.07,5.26Zm100.43,30.58-.35-1.2c2.12-.62,4.24-1.33,6.31-2.1l.44,1.18C158.78,218.5,156.63,219.22,154.48,219.85ZM47.08,179.76c-1.21-1.88-2.36-3.83-3.44-5.79l1.1-.6c1.06,1.94,2.2,3.86,3.39,5.72Zm118.48,36.08-.5-1.15c2-.87,4-1.83,6-2.85l.58,1.11C169.65,214,167.61,215,165.56,215.84ZM41.34,169.47c-1-2-1.87-4.08-2.7-6.17l1.17-.46c.82,2.06,1.71,4.11,2.67,6.09Zm134.72,41-.64-1.08c1.91-1.12,3.8-2.32,5.61-3.56l.71,1C179.91,208.16,178,209.38,176.06,210.51ZM36.89,158.57c-.71-2.12-1.36-4.29-1.93-6.45l1.21-.32c.56,2.13,1.2,4.28,1.9,6.37Zm149,45.37-.76-1c1.75-1.34,3.48-2.76,5.13-4.23l.83.94C189.37,201.14,187.62,202.58,185.84,203.94Zm-152-56.74c-.45-2.19-.83-4.42-1.12-6.63l1.24-.17c.29,2.18.66,4.39,1.11,6.55Zm160.93,49-.88-.9c1.57-1.55,3.11-3.17,4.57-4.83l.94.83C197.9,193,196.34,194.63,194.75,196.2ZM35.89,100.6c.57-1.91,1.21-3.82,1.9-5.69l.26-.69,1.18.44-.25.68c-.68,1.84-1.31,3.73-1.87,5.61ZM41.1,90.05,40,89.55c.9-2,1.88-4.09,2.91-6.07l1.11.58C43,86,42,88,41.1,90.05Zm179.5,54.39c.39-2.18.7-4.39.93-6.58l1.25.13c-.24,2.22-.55,4.46-.94,6.67ZM46.41,79.71l-1.08-.64c1.14-1.92,2.37-3.83,3.64-5.67l1,.72C48.74,75.93,47.53,77.81,46.41,79.71Zm175.51,53.18c.11-2.2.15-4.44.11-6.64l1.26,0c0,2.24,0,4.5-.11,6.73ZM53,70.1l-1-.77c1.37-1.76,2.82-3.51,4.32-5.18l.94.84C55.73,66.64,54.3,68.36,53,70.1Zm168.86,51.17c-.16-2.2-.4-4.42-.71-6.6l1.24-.18c.32,2.21.56,4.46.72,6.69ZM60.64,61.36l-.89-.89c1.58-1.58,3.23-3.13,4.92-4.6l.82,1C63.83,58.27,62.19,59.8,60.64,61.36Zm159.62,48.4c-.43-2.16-.94-4.34-1.52-6.47L220,103c.59,2.16,1.1,4.36,1.54,6.55ZM69.35,53.64l-.77-1c1.76-1.38,3.59-2.71,5.45-4l.7,1C72.89,51,71.08,52.28,69.35,53.64Zm148,44.89c-.69-2.09-1.46-4.19-2.3-6.24l1.16-.48c.85,2.07,1.63,4.2,2.33,6.32ZM78.93,47.05,78.29,46c1.92-1.15,3.9-2.25,5.89-3.26l.57,1.12C82.78,44.84,80.82,45.92,78.93,47.05ZM213,87.73c-.94-2-2-4-3-5.91l1.1-.61c1.1,2,2.13,4,3.08,6ZM123,33.65l-.06-1.25c2.23-.11,4.49-.14,6.72-.09l0,1.25C127.41,33.51,125.18,33.54,123,33.65Zm60.81,18.43c-1.77-1.31-3.62-2.58-5.48-3.76l.67-1.06c1.89,1.2,3.76,2.48,5.55,3.81ZM134.6,33.8l.09-1.25c2.23.17,4.48.42,6.69.74l-.18,1.24C139,34.21,136.79,34,134.6,33.8Zm39.43,12c-1.92-1.08-3.9-2.11-5.9-3l.54-1.13c2,1,4,2,6,3.1ZM146.11,35.38l.25-1.23c2.19.44,4.39,1,6.55,1.56l-.33,1.21C150.45,36.34,148.27,35.82,146.11,35.38Zm17.46,5.31c-2-.84-4.14-1.62-6.23-2.32l.4-1.19c2.12.7,4.24,1.49,6.31,2.35Z"/><circle class="cls-2" cx="128.26" cy="124.93" r="74.89"/><polygon class="cls-3" points="188.96 151.12 191.69 151.12 196.88 148.64 195.18 151.8 196.88 152.39 195.95 153.59 196.03 156.14 191.77 153.59 188.96 153.54 188.96 151.12"/><ellipse class="cls-4" cx="140.73" cy="153.59" rx="15.34" ry="8.01" transform="translate(-55.73 222.87) rotate(-66.93)"/><ellipse class="cls-3" cx="140.73" cy="153.59" rx="12.82" ry="6.7" transform="translate(-55.73 222.87) rotate(-66.93)"/><rect class="cls-4" x="188.96" y="151.12" width="2.38" height="2.47"/><path class="cls-4" d="M142.43,145.49c-.47,1.11-1.34,1.8-2,1.54s-.72-1.36-.25-2.47,1.34-1.79,2-1.54S142.9,144.39,142.43,145.49Z"/><path class="cls-4" d="M146.41,152.83c-.47,1.1-1.34,1.79-1.95,1.53s-.72-1.36-.25-2.47,1.34-1.79,1.95-1.53S146.87,151.71,146.41,152.83Z"/><path class="cls-4" d="M137.7,162c-.47,1.1-1.34,1.79-1.95,1.53s-.72-1.36-.25-2.47,1.34-1.79,1.95-1.53S138.17,160.93,137.7,162Z"/><path class="cls-4" d="M141.67,160.09c-.29.68-.82,1.09-1.19.93s-.44-.84-.15-1.51.82-1.09,1.19-.93S142,159.41,141.67,160.09Z"/><path class="cls-4" d="M136.56,153.45c-.33.77-.93,1.25-1.35,1.06s-.49-.94-.17-1.71.93-1.24,1.35-1.06S136.89,152.69,136.56,153.45Z"/><path class="cls-4" d="M141.48,153.45c-.32.77-.92,1.25-1.35,1.06s-.49-.94-.16-1.71.92-1.24,1.35-1.06S141.81,152.69,141.48,153.45Z"/><path class="cls-5" d="M174.52,139.11H145.33v0a4.28,4.28,0,0,1,1.42.34c4.07,1.74,4.68,9.46,1.36,17.25-2.66,6.23-7,10.63-10.75,11.25h37.17A14.44,14.44,0,0,0,189,153.54h0A14.44,14.44,0,0,0,174.52,139.11Z"/><ellipse class="cls-6" cx="140.73" cy="153.59" rx="15.34" ry="8.01" transform="translate(-55.73 222.87) rotate(-66.93)"/><path class="cls-6" d="M174.52,139.11H145.33v0a4.28,4.28,0,0,1,1.42.34c4.07,1.74,4.68,9.46,1.36,17.25-2.66,6.23-7,10.63-10.75,11.25h37.17A14.44,14.44,0,0,0,189,153.54h0A14.44,14.44,0,0,0,174.52,139.11Z"/><polygon class="cls-6" points="188.96 151.12 191.69 151.12 196.88 148.64 195.18 151.8 196.88 152.39 195.95 153.59 196.03 156.14 191.77 153.59 188.96 153.54 188.96 151.12"/><path class="cls-3" d="M103,190.65a66.63,66.63,0,0,1-24.09-18c-2-2.39-1.74-6.5.67-9.18s6-2.91,8.06-.52a56.65,56.65,0,0,0,46.14,20.2c3.14-.12,5.41,2.69,5.08,6.27s-3.15,6.6-6.29,6.72A66.49,66.49,0,0,1,103,190.65Z"/><path class="cls-6" d="M103,190.65a66.63,66.63,0,0,1-24.09-18c-2-2.39-1.74-6.5.67-9.18s6-2.91,8.06-.52a56.65,56.65,0,0,0,46.14,20.2c3.14-.12,5.41,2.69,5.08,6.27s-3.15,6.6-6.29,6.72A66.49,66.49,0,0,1,103,190.65Z"/><path class="cls-3" d="M138.86,188.58l-.22-2.15,3.36-4.71.39.57a8.7,8.7,0,0,1,.68,8h0Z"/><path class="cls-6" d="M138.86,188.58l-.22-2.15,3.36-4.71.39.57a8.7,8.7,0,0,1,.68,8h0Z"/><path class="cls-3" d="M80.16,162.89l1.73-1.29,1.18-5.67-.69.1a8.7,8.7,0,0,0-6.32,4.91h0Z"/><path class="cls-6" d="M80.16,162.89l1.73-1.29,1.18-5.67-.69.1a8.7,8.7,0,0,0-6.32,4.91h0Z"/><path class="cls-3" d="M126.53,85.41a11.8,11.8,0,0,0,1.91-7.72h0c.7.06,1.4.09,2.09.09a27.64,27.64,0,0,0,5.1-.49C134.12,82.41,130.83,84.71,126.53,85.41Z"/><path class="cls-3" d="M135,55.14a26.84,26.84,0,0,0-4.43-.37,33.87,33.87,0,0,0-12.81,2.78h0l6.78-6.66s2.93.81,4-.58,1-3.62,2.34-4.05,5.26,4.11,4.12,8.87Z"/><path class="cls-3" d="M141.2,56.82a46.38,46.38,0,0,1,14.9,9.44s-8.79,8.84-20.48,11a27.45,27.45,0,0,1-5.09.49q-1,0-2.1-.09c-10-.74-19.31-6.61-23.19-9.56h-3.58A24.35,24.35,0,0,1,96.84,72c-3.22,2-8.39,1.26-8.39,1.26,1-2.67,5-6.07,5-6.07-1.37-1.15-4.77-7.53-4.77-7.53a9.12,9.12,0,0,1,5-.46c2.92.5,7.88,5.5,7.88,5.5h3.86a56,56,0,0,1,12.34-7.17,33.87,33.87,0,0,1,12.81-2.79,25.88,25.88,0,0,1,4.43.38A32,32,0,0,1,141.2,56.82Zm6,7a1.81,1.81,0,1,0-1.81,1.81A1.8,1.8,0,0,0,147.18,63.78Z"/><path class="cls-6" d="M117.72,57.55a56.26,56.26,0,0,0-12.34,7.17h-3.86s-5-5-7.88-5.5a9,9,0,0,0-5,.46s3.41,6.37,4.76,7.53c0,0-4,3.41-5,6.07,0,0,5.17.8,8.38-1.26a23.57,23.57,0,0,0,4.82-3.92h3.59c3.88,3,13.15,8.82,23.19,9.56.69.06,1.39.09,2.09.09a27.45,27.45,0,0,0,5.09-.49c11.69-2.18,20.49-11,20.49-11a46.52,46.52,0,0,0-14.9-9.44A33.25,33.25,0,0,0,135,55.12a28,28,0,0,0-4.43-.37A34.28,34.28,0,0,0,117.72,57.55Z"/><path class="cls-6" d="M128.44,77.69a11.81,11.81,0,0,1-1.91,7.72c4.3-.7,7.59-3,9.09-8.13"/><path class="cls-6" d="M117.72,57.55l6.78-6.66s2.92.81,4-.58,1-3.62,2.34-4.05,5.26,4.11,4.12,8.87"/><path class="cls-6" d="M141.2,56.81h0a20.13,20.13,0,0,0-1,12.55"/><path class="cls-6" d="M147.18,63.78A1.81,1.81,0,1,1,145.37,62,1.81,1.81,0,0,1,147.18,63.78Z"/><path class="cls-3" d="M203.48,87.09c.17,2.72.05,6.45-1.51,8.84a4.57,4.57,0,0,1-1.48,1.51v.61l-.74-.42-.08,0-.06,0a8.26,8.26,0,0,0-2.44-.92l-.51-.11.09-.51c.09-.49.16-1,.2-1.45a28.49,28.49,0,0,0,0-6.54,13.23,13.23,0,0,0-.58-2.6c0-.12-.08-.24-.12-.37a9.45,9.45,0,0,0-.65-1.47l-.27-.47.48-.26a10.26,10.26,0,0,1,1.54-.71,6.59,6.59,0,0,1,2.19-.42,3.67,3.67,0,0,1,1.62.35C202.53,82.75,203.32,84.44,203.48,87.09Z"/><path class="cls-3" d="M194.47,114.65l-2.7-.66-1-.25a1.46,1.46,0,0,1-1.1-1.41v-3.06l.15-.16,0,0a8.27,8.27,0,0,0,.56-.64c.43-.5.83-1,1.21-1.57l1.66-2.4c.31-.45.6-.9.86-1.37.16-.24.3-.5.44-.75,0-.09.1-.18.13-.27a10.9,10.9,0,0,0,.53-1.09c.17-.36.31-.71.44-1.07.07-.17.13-.33.18-.49s.2-.55.28-.83a1.8,1.8,0,0,0,0-.19,13.73,13.73,0,0,0,.37-1.36l.12-.52.51.11a8.26,8.26,0,0,1,2.44.92l.06,0,.08,0a6.46,6.46,0,0,1,3.12,5.31,8.23,8.23,0,0,1-2.24,6.21,17.6,17.6,0,0,0-3.15,4.92,1.44,1.44,0,0,1-1.35.93,1.87,1.87,0,0,1-.34,0Z"/><path class="cls-3" d="M196.93,88a28.49,28.49,0,0,1,0,6.54,20.12,20.12,0,0,1-.78,3.84,1.8,1.8,0,0,1,0,.19c-.09.28-.18.56-.28.83a4.84,4.84,0,0,1-.18.49c-.13.36-.27.71-.44,1.07s-.34.74-.53,1.09c0,.09-.09.18-.13.27-.14.25-.28.51-.44.75-.26.47-.55.92-.86,1.37l-1.66,2.4c-.38.53-.78,1.07-1.21,1.57-.18.22-.36.43-.56.64l0,0a22.59,22.59,0,0,1-1.8,1.73,17.16,17.16,0,0,1-2.37,1.71,8.19,8.19,0,0,1-8.47,0,14.56,14.56,0,0,1-1.65-1.13,17.73,17.73,0,0,1-2.34-2.16,19.1,19.1,0,0,1-2.19-2.91l-2.18-3.56c-.13-.21-.26-.42-.38-.63a17.93,17.93,0,0,1-1.55-3.56c-.1-.31-.19-.63-.28-.94s-.16-.62-.24-.94-.11-.5-.17-.76c-.14-.71-.25-1.41-.34-2.12,0-.26-.06-.51-.07-.77a2.83,2.83,0,0,1,0-.29c0-.22,0-.44-.05-.67a24.43,24.43,0,0,1,.18-4.1c.06-.43.12-.84.21-1.24s.19-.81.31-1.19c.06-.19.11-.37.18-.55s.13-.35.2-.52.14-.33.22-.49.17-.32.25-.46,0,0,0,0A6.94,6.94,0,0,1,169.7,81,8.15,8.15,0,0,1,174,79.88a17.56,17.56,0,0,1,5.64,1.1,5,5,0,0,0,3.59,0,17.44,17.44,0,0,1,5.63-1.1A8.15,8.15,0,0,1,193.1,81a7,7,0,0,1,2.48,2.62,9.45,9.45,0,0,1,.65,1.47c0,.13.09.25.12.37A13.23,13.23,0,0,1,196.93,88Z"/><path class="cls-5" d="M194.47,114.65l-1,3.25v0a1.24,1.24,0,0,0,.36,1.23,1.37,1.37,0,1,1-2.21,1.49.55.55,0,0,0-.7-.34l-.18.11a1.37,1.37,0,0,1-1.82-2,1.53,1.53,0,0,1,.72-.33,1.28,1.28,0,0,0,1.06-.92l1.07-3.09v0Z"/><path class="cls-5" d="M174.32,119.14a1.37,1.37,0,0,1-1.09,1.61,1.39,1.39,0,0,1-1.17-.33.55.55,0,0,0-.77,0,.77.77,0,0,0-.1.18,1.37,1.37,0,1,1-2.21-1.48,1.26,1.26,0,0,0,.36-1.24v0l-1-3.25L171,114V114l1.07,3.08a1.28,1.28,0,0,0,1,.92A1.41,1.41,0,0,1,174.32,119.14Z"/><path class="cls-3" d="M168.33,114.65,167,115a2,2,0,0,1-.34,0,1.43,1.43,0,0,1-1.35-.93,17.6,17.6,0,0,0-3.15-4.92,8.23,8.23,0,0,1-2.24-6.21A6.44,6.44,0,0,1,163,97.69l.23-.14h0a8.7,8.7,0,0,1,2.5-.94l.51-.1.06.22.06.29.18.65c.09.31.18.63.28.94a17.93,17.93,0,0,0,1.55,3.56,6.88,6.88,0,0,0,.37.63l2.19,3.56a19.1,19.1,0,0,0,2.19,2.91v3.07a1.46,1.46,0,0,1-1.11,1.41l-1,.25Z"/><path class="cls-3" d="M167.5,83.08l-.24.44s0,0,0,0-.17.31-.25.46-.15.32-.22.49-.13.34-.2.52-.12.36-.18.55c-.12.38-.22.78-.31,1.19s-.15.81-.21,1.24a24.43,24.43,0,0,0-.18,4.1c0,.23,0,.45.05.67a2.83,2.83,0,0,0,0,.29c0,.26.05.51.07.77.09.71.2,1.41.34,2.12l.11.54-.51.1a8.7,8.7,0,0,0-2.5.94h0l-.23.14,0,0-.25-.11A4.35,4.35,0,0,1,160.94,96c-1.62-2.38-1.76-6.17-1.59-9s1-4.33,2.34-5a3.72,3.72,0,0,1,1.63-.35,8.49,8.49,0,0,1,3.71,1.1Z"/><path class="cls-6" d="M171,114l1.07,3.08a1.28,1.28,0,0,0,1,.92,1.41,1.41,0,0,1,1.16,1.1,1.37,1.37,0,0,1-1.09,1.61,1.39,1.39,0,0,1-1.17-.33.55.55,0,0,0-.77,0,.77.77,0,0,0-.1.18,1.37,1.37,0,1,1-2.21-1.48,1.26,1.26,0,0,0,.36-1.24v0l-1-3.25v0"/><path class="cls-6" d="M194.48,114.61v0l-1,3.25v0a1.24,1.24,0,0,0,.36,1.23,1.37,1.37,0,1,1-2.21,1.49.55.55,0,0,0-.7-.34l-.18.11a1.37,1.37,0,0,1-1.82-2,1.53,1.53,0,0,1,.72-.33,1.28,1.28,0,0,0,1.06-.92l1.07-3.09"/><path class="cls-6" d="M163.27,97.54h0"/><line class="cls-6" x1="166.17" y1="95.96" x2="166.28" y2="96.5"/><path class="cls-6" d="M165.76,93.07c0,.26.05.51.07.77"/><path class="cls-6" d="M165.69,92.11c0,.23,0,.45.05.67"/><path class="cls-6" d="M166.08,86.77c-.09.4-.15.81-.21,1.24"/><path class="cls-6" d="M166.57,85c-.07.18-.12.36-.18.55"/><path class="cls-6" d="M167.24,83.56c-.08.14-.17.3-.25.46s-.14.32-.22.49"/><path class="cls-6" d="M163,97.69l0,0-.25-.11A4.35,4.35,0,0,1,160.94,96c-1.62-2.38-1.76-6.17-1.59-9s1-4.33,2.34-5a3.72,3.72,0,0,1,1.63-.35,8.49,8.49,0,0,1,3.71,1.1l.47.27-.24.44"/><path class="cls-6" d="M173.16,109.26v3.07a1.46,1.46,0,0,1-1.11,1.41l-1,.25-2.7.66L167,115a2,2,0,0,1-.34,0,1.43,1.43,0,0,1-1.35-.93,17.6,17.6,0,0,0-3.15-4.92,8.23,8.23,0,0,1-2.24-6.21A6.44,6.44,0,0,1,163,97.69l.23-.14h0a8.7,8.7,0,0,1,2.5-.94l.51-.1.06.22.06.29.18.65"/><path class="cls-6" d="M168.41,102.16a6.88,6.88,0,0,0,.37.63l2.19,3.56"/><path class="cls-6" d="M190.39,108.42a8.27,8.27,0,0,1-.56.64"/><path class="cls-6" d="M194.56,102.33c-.14.25-.28.51-.44.75"/><path class="cls-6" d="M195.22,101c-.16.36-.34.74-.53,1.09"/><path class="cls-6" d="M196.12,98.58c-.09.28-.18.56-.28.83s-.11.32-.18.49"/><path class="cls-6" d="M197,94.55a20.12,20.12,0,0,1-.78,3.84"/><path class="cls-6" d="M196.23,85c0,.13.09.25.12.37"/><path class="cls-6" d="M189.79,109.11a22.59,22.59,0,0,1-1.8,1.73,17.16,17.16,0,0,1-2.37,1.71,8.19,8.19,0,0,1-8.47,0,14.56,14.56,0,0,1-1.65-1.13,17.73,17.73,0,0,1-2.34-2.16,19.1,19.1,0,0,1-2.19-2.91l-2.18-3.56c-.13-.21-.26-.42-.38-.63a17.93,17.93,0,0,1-1.55-3.56c-.1-.31-.19-.63-.28-.94s-.16-.62-.24-.94-.11-.5-.17-.76c-.14-.71-.25-1.41-.34-2.12,0-.26-.06-.51-.07-.77a2.83,2.83,0,0,1,0-.29c0-.22,0-.44-.05-.67a24.43,24.43,0,0,1,.18-4.1c.06-.43.12-.84.21-1.24s.19-.81.31-1.19c.06-.19.11-.37.18-.55s.13-.35.2-.52.14-.33.22-.49.16-.31.25-.46,0,0,0,0A6.94,6.94,0,0,1,169.7,81,8.15,8.15,0,0,1,174,79.88a17.56,17.56,0,0,1,5.64,1.1,5,5,0,0,0,3.59,0,17.44,17.44,0,0,1,5.63-1.1A8.15,8.15,0,0,1,193.1,81a7,7,0,0,1,2.48,2.62"/><path class="cls-6" d="M199.75,97.63a6.46,6.46,0,0,1,3.12,5.31,8.23,8.23,0,0,1-2.24,6.21,17.6,17.6,0,0,0-3.15,4.92,1.44,1.44,0,0,1-1.35.93,1.87,1.87,0,0,1-.34,0l-1.32-.32-2.7-.66-1-.25a1.46,1.46,0,0,1-1.1-1.41v-3.06l.15-.16,0,0c.2-.21.38-.42.56-.64.43-.5.83-1,1.21-1.57l1.66-2.4c.31-.45.6-.9.86-1.37.16-.24.3-.5.44-.75,0-.09.1-.18.13-.27a10.9,10.9,0,0,0,.53-1.09c.17-.36.31-.71.44-1.07a4.84,4.84,0,0,0,.18-.49c.1-.27.2-.55.28-.83a1.8,1.8,0,0,0,0-.19,13.73,13.73,0,0,0,.37-1.36l.12-.52"/><path class="cls-6" d="M199.75,97.63l-.08,0-.06,0a8.26,8.26,0,0,0-2.44-.92l-.51-.11.09-.51c.09-.49.16-1,.2-1.45a28.49,28.49,0,0,0,0-6.54,13.23,13.23,0,0,0-.58-2.6c0-.12-.08-.24-.12-.37a9.45,9.45,0,0,0-.65-1.47l-.27-.47.48-.26a10.26,10.26,0,0,1,1.54-.71,6.59,6.59,0,0,1,2.19-.42,3.67,3.67,0,0,1,1.62.35c1.39.69,2.18,2.38,2.34,5s.05,6.45-1.51,8.84a4.57,4.57,0,0,1-1.48,1.51v.61Z"/><polyline class="cls-6" points="168.62 96.92 169 96.82 169.14 96.78"/><path class="cls-6" d="M169.14,96.78h0a21.65,21.65,0,0,1-.58-8.4,11.7,11.7,0,0,1,.55-2.41l0-.09"/><path class="cls-6" d="M169.14,96.78a.56.56,0,0,1,0,.42"/><path class="cls-6" d="M170.25,84a4.4,4.4,0,0,1,.86-.7l.08-.07"/><path class="cls-5" d="M52.29,120.47c-3,1.9-.29,4.81-.29,4.81s-2.49,3.19.66,5.37c2.91,1.65,5.75-1,5.75-1h3.22v-7.93H58.41S55.34,118.67,52.29,120.47Z"/><path class="cls-3" d="M61.63,129.69v1.15a8.58,8.58,0,0,1,4.63.67c3.52,1.26,10.23,11.05,31.78,11.72-8.69-.44-15.63-10.66-15.63-23.2,0-11.25,5.58-20.64,13-22.77a36.11,36.11,0,0,0-18.5,10.16c-10.07,10.34-8.57,12-11,12.8a13.69,13.69,0,0,1-4.3,1v8.51Z"/><path class="cls-3" d="M98.62,96.8c9,0,16.22,10.4,16.22,23.23s-7.26,23.22-16.22,23.22l-.58,0c-8.69-.44-15.63-10.66-15.63-23.2,0-11.25,5.58-20.64,13-22.77A24.1,24.1,0,0,1,98.62,96.8Zm-.28,42.07c6.38,0,11.55-8.44,11.55-18.84s-5.17-18.85-11.55-18.85S86.79,109.62,86.79,120,92,138.87,98.34,138.87Z"/><path class="cls-3" d="M109.89,120c0,10.4-5.17,18.84-11.55,18.84S86.79,130.43,86.79,120,92,101.18,98.34,101.18,109.89,109.62,109.89,120ZM99,123.61c1.36,0,2.47-1.52,2.47-3.39s-1.11-3.39-2.47-3.39-2.48,1.52-2.48,3.39S97.62,123.61,99,123.61Z"/><path class="cls-4" d="M99,116.83c-1.37,0-2.48,1.52-2.48,3.39s1.11,3.39,2.48,3.39,2.47-1.52,2.47-3.39S100.35,116.83,99,116.83Z"/><path class="cls-6" d="M95.41,97.26c-7.42,2.13-13,11.52-13,22.77,0,12.54,6.94,22.76,15.63,23.2l.58,0c9,0,16.22-10.4,16.22-23.22S107.58,96.8,98.62,96.8A11.53,11.53,0,0,0,95.41,97.26Z"/><ellipse class="cls-6" cx="98.34" cy="120.03" rx="11.55" ry="18.85"/><path class="cls-6" d="M96.51,120.22c0,1.87,1.11,3.39,2.48,3.39s2.47-1.52,2.47-3.39-1.11-3.39-2.47-3.39S96.51,118.35,96.51,120.22Z"/><path class="cls-6" d="M98.62,96.8a24.1,24.1,0,0,0-3.21.46,36.11,36.11,0,0,0-18.5,10.16c-10.07,10.34-8.57,12-11,12.8a13.69,13.69,0,0,1-4.3,1v9.66a8.58,8.58,0,0,1,4.63.67c3.52,1.26,10.23,11.05,31.78,11.72l.58,0"/><path class="cls-6" d="M61.63,121.76H58.41s-3.07-3.09-6.12-1.29-.29,4.81-.29,4.81-2.49,3.19.66,5.37c2.91,1.65,5.75-1,5.75-1h3.22"/><path class="cls-6" d="M80.91,134.24q.5,1.11,1.08,2.19"/><path class="cls-6" d="M78.23,120.69a33.23,33.23,0,0,0,1.64,10.89"/></svg>