<svg id="Layer_1" data-name="Layer 1" xmlns="http://www.w3.org/2000/svg" viewBox="0 0 256 256"><defs><style>.cls-1{fill:#0e4e91;}.cls-2{fill:#abe7ff;}.cls-3{fill:#fff;}.cls-4,.cls-8{fill:#2db5ff;}.cls-5,.cls-7{fill:none;}.cls-5,.cls-7,.cls-8{stroke:#0e4e91;}.cls-5,.cls-8{stroke-miterlimit:10;}.cls-6{fill:#caf5fe;}.cls-7{stroke-linecap:round;stroke-linejoin:round;}</style></defs><path class="cls-1" d="M124.33,215.09l0-1.14c2,.09,4.05.12,6.05.06l0,1.15C128.44,215.2,126.37,215.18,124.33,215.09Zm-4.59-.33c-2-.2-4.08-.47-6.08-.81l.19-1.13c2,.33,4,.6,6,.79Zm15.32.16-.09-1.14c2-.16,4-.39,6-.68l.17,1.13C139.14,214.53,137.09,214.76,135.06,214.92Zm10.63-1.48-.23-1.13c2-.4,3.95-.87,5.88-1.42l.31,1.11C149.69,212.55,147.69,213,145.69,213.44Zm10.36-2.79-.37-1.08c1.89-.64,3.8-1.35,5.66-2.13l.44,1.05C159.9,209.28,158,210,156.05,210.65Zm9.93-4-.5-1c1.81-.87,3.62-1.82,5.36-2.82l.57,1C169.64,204.77,167.81,205.72,166,206.61Zm-86.28-6.2c-1.69-1.14-3.36-2.35-5-3.6l.7-.9c1.59,1.23,3.24,2.43,4.91,3.55Zm95.64,1-.61-1c1.69-1.08,3.36-2.24,5-3.44l.69.91C178.75,199.1,177.06,200.27,175.34,201.37ZM71.18,193.89c-1.54-1.34-3.05-2.74-4.49-4.19l.8-.81c1.43,1.43,2.92,2.81,4.44,4.13ZM184,195l-.74-.88c1.55-1.28,3.07-2.64,4.52-4l.79.82C187.1,192.36,185.55,193.74,184,195ZM63.51,186.37c-1.35-1.5-2.69-3.09-3.94-4.69l.91-.71c1.24,1.59,2.55,3.15,3.89,4.63Zm128.3,1.31-.83-.78c1.39-1.47,2.72-3,4-4.56l.89.73C194.57,184.64,193.21,186.2,191.81,187.68ZM56.83,178c-1.17-1.67-2.29-3.39-3.34-5.14l1-.59c1,1.72,2.14,3.43,3.29,5.07Zm141.84,1.45-.93-.68c1.19-1.62,2.33-3.31,3.41-5l1,.61C201,176.07,199.87,177.77,198.67,179.42ZM51.23,168.83c-1-1.8-1.86-3.66-2.69-5.51l1.05-.47c.81,1.84,1.71,3.66,2.65,5.44Zm153.24,1.55-1-.56c1-1.76,1.91-3.57,2.76-5.4l1,.49C206.4,166.76,205.46,168.6,204.47,170.38ZM41.08,127.57c0-1.81.08-3.66.2-5.46l0-.67,1.14.08,0,.67c-.12,1.78-.19,3.6-.2,5.39ZM42.93,117l-1.13-.14c.25-2,.59-4.06,1-6.06l1.13.23C43.51,113,43.18,115,42.93,117Zm170.85,1.49c-.22-2-.51-4-.87-6l1.12-.21c.36,2,.66,4,.89,6.07ZM44.91,106.6l-1.1-.29c.51-2,1.08-4,1.73-5.88l1.08.36C46,102.7,45.41,104.65,44.91,106.6ZM212,108.06c-.46-2-1-3.92-1.61-5.83l1.09-.35c.61,2,1.16,3.94,1.63,5.92ZM48.16,96.53l-1.07-.43c.75-1.89,1.57-3.78,2.45-5.63l1,.49C49.71,92.78,48.9,94.65,48.16,96.53ZM208.9,97.94c-.71-1.88-1.48-3.76-2.31-5.59l1-.48c.85,1.85,1.63,3.76,2.35,5.67Zm-156.26-11-1-.55c1-1.78,2-3.56,3.12-5.29l1,.62C54.64,83.4,53.6,85.15,52.64,86.91Zm152,1.36c-.93-1.78-1.93-3.55-3-5.26l1-.59c1.07,1.73,2.09,3.53,3,5.33ZM58.28,77.93l-.93-.66c1.19-1.66,2.45-3.3,3.75-4.86l.87.73C60.69,74.68,59.45,76.3,58.28,77.93Zm140.86,1.28c-1.15-1.65-2.35-3.29-3.61-4.86l.9-.71c1.27,1.58,2.5,3.24,3.65,4.92ZM65,69.72l-.84-.78c1.38-1.5,2.83-3,4.32-4.37l.78.84C67.76,66.79,66.33,68.23,65,69.72ZM192.6,70.87c-1.33-1.5-2.74-3-4.18-4.38l.8-.82c1.46,1.43,2.88,2.92,4.23,4.45ZM100,46.69l-.38-1.08c1.92-.67,3.9-1.28,5.86-1.81l.3,1.11C103.87,45.44,101.92,46,100,46.69Zm57.89.52c-1.89-.7-3.83-1.33-5.76-1.88l.32-1.1c2,.56,3.92,1.2,5.83,1.91Zm-47.7-3.37L110,42.73c2-.43,4-.79,6-1.08l.16,1.13C114.19,43.08,112.19,43.43,110.22,43.84Zm37.55.34c-2-.45-4-.83-6-1.15L142,41.9c2,.32,4,.71,6,1.17Zm-27.08-1.9-.1-1.14c2-.17,4.1-.28,6.13-.32l0,1.15C124.73,42,122.69,42.11,120.69,42.28Zm16.64.15c-2-.21-4-.35-6.05-.42l0-1.14c2,.07,4.09.22,6.13.43Z"/><circle class="cls-2" cx="128.9" cy="127.59" r="67.05"/><path class="cls-3" d="M88.23,110.73c.24,7.8.26,16.33.15,25.33h-.15V120.37H61.05c0-3.7.11-7.28.21-10.71,0,0,1.53,1.38,5.44,1.35s6.1-3.74,11.44-3.93C81.89,107,85.94,107.06,88.23,110.73Z"/><path class="cls-3" d="M88.23,136.06h.15q-.09,6.93-.26,14.19l-4,5.88H79.64l-2-3.21-1.74,3.21H73.59l-1.75-3.21-2,3.21H65.34l-4-5.88q-.18-7.26-.26-14.19Z"/><path class="cls-4" d="M88.23,120.37v15.69H61.09c0-3.33-.07-6.59-.07-9.78q0-3,0-5.91Z"/><path class="cls-3" d="M88.12,107.38c0,1.1.08,2.22.11,3.35-2.29-3.67-6.34-3.77-10.09-3.65-5.34.19-7.53,3.89-11.44,3.93s-5.44-1.35-5.44-1.35q0-1.16.09-2.28a2.42,2.42,0,0,1,.68-1.69,47.16,47.16,0,0,1,7.3-6.08h10.8a46.24,46.24,0,0,1,7.3,6.08A2.43,2.43,0,0,1,88.12,107.38Z"/><polygon class="cls-3" points="80.31 91.25 80.31 99.61 80.13 99.61 69.33 99.61 69.33 91.25 80.31 91.25"/><path class="cls-4" d="M80.31,89.55v1.7h-11v-1.7a2.81,2.81,0,0,1,2.81-2.81H77.5A2.81,2.81,0,0,1,80.31,89.55Z"/><path class="cls-5" d="M80.31,91.25v8.36h-11V89.55a2.81,2.81,0,0,1,2.81-2.81H77.5a2.81,2.81,0,0,1,2.81,2.81Z"/><path class="cls-5" d="M69.33,99.61a47.16,47.16,0,0,0-7.3,6.08,2.42,2.42,0,0,0-.68,1.69q0,1.13-.09,2.28c-.1,3.43-.17,7-.21,10.71q0,2.91,0,5.91c0,3.19,0,6.45.07,9.78q.07,6.93.26,14.19l4,5.88h4.49l2-3.21,1.75,3.21h1.14"/><path class="cls-5" d="M80.13,99.61a46.24,46.24,0,0,1,7.3,6.08,2.43,2.43,0,0,1,.69,1.69c0,1.1.08,2.22.11,3.35.24,7.8.26,16.33.15,25.33q-.09,6.93-.26,14.19l-4,5.88H79.64l-2-3.21-1.74,3.21H74.73"/><path class="cls-5" d="M61.26,109.66S62.79,111,66.7,111s6.1-3.74,11.44-3.93c3.75-.12,7.8,0,10.09,3.65"/><polygon class="cls-5" points="88.23 136.06 61.09 136.06 61.02 136.06 61.02 126.28 61.02 120.37 61.05 120.37 88.23 120.37 88.23 136.06"/><line class="cls-5" x1="69.33" y1="91.25" x2="80.31" y2="91.25"/><path class="cls-3" d="M195.32,92.16,195,103c-3.14-.49-2.89-2.64-7.27-2.55-3.8.09-4.83,3.8-8.37,4.83L182,92.16Z"/><path class="cls-3" d="M177.11,105.54a4,4,0,0,0,.49,0,6.86,6.86,0,0,0,1.77-.26c3.54-1,4.57-4.74,8.37-4.83,4.38-.09,4.13,2.06,7.27,2.55l-1.23,43.87H167.92l-2.08-46.41a8.29,8.29,0,0,1,1.55.11C169.27,100.84,172.32,105.35,177.11,105.54ZM191.23,118a3.14,3.14,0,1,0-3.14,3.15A3.14,3.14,0,0,0,191.23,118Zm-.95,17.73a2.18,2.18,0,1,0-2.18,2.18A2.19,2.19,0,0,0,190.28,135.72Zm-2.18-27.41a2.18,2.18,0,1,0-2.18,2.18A2.18,2.18,0,0,0,188.1,108.31Zm-4.36,20.12a2.18,2.18,0,1,0-2.18,2.18A2.18,2.18,0,0,0,183.74,128.43Zm-6,8.25a3.15,3.15,0,1,0-3.14,3.15A3.14,3.14,0,0,0,177.78,136.68Zm-1-24a2.18,2.18,0,1,0-2.18,2.18A2.18,2.18,0,0,0,176.82,112.67Zm-2.18,13.58a2.18,2.18,0,1,0-2.18,2.18A2.19,2.19,0,0,0,174.64,126.25Z"/><path class="cls-4" d="M193.78,146.88l-.12,4.47c-4.9,4.48-23.58,4.61-25.54,0l-.2-4.47Z"/><path class="cls-6" d="M188.09,114.85A3.15,3.15,0,1,1,185,118,3.14,3.14,0,0,1,188.09,114.85Z"/><circle class="cls-6" cx="188.1" cy="135.72" r="2.18"/><circle class="cls-6" cx="185.92" cy="108.31" r="2.18"/><polygon class="cls-3" points="185.92 73.05 182.04 92.16 179.8 92.16 183.74 72.61 185.92 73.05"/><circle class="cls-6" cx="181.56" cy="128.43" r="2.18"/><path class="cls-3" d="M182,92.16l-2.67,13.13a6.86,6.86,0,0,1-1.77.26,4,4,0,0,1-.49,0l2.69-13.38Z"/><path class="cls-3" d="M179.8,92.16l-2.69,13.38c-4.79-.19-7.84-4.7-9.72-5a8.29,8.29,0,0,0-1.55-.11l-.37-8.31Z"/><path class="cls-6" d="M174.64,133.54a3.15,3.15,0,1,1-3.15,3.14A3.14,3.14,0,0,1,174.64,133.54Z"/><path class="cls-6" d="M174.64,110.49a2.18,2.18,0,1,1-2.18,2.18A2.18,2.18,0,0,1,174.64,110.49Z"/><circle class="cls-6" cx="172.46" cy="126.25" r="2.18"/><path class="cls-5" d="M165.84,100.47l-.37-8.31h29.85L195,103l-1.23,43.87-.12,4.47c-4.9,4.48-23.58,4.61-25.54,0l-.2-4.47Z"/><path class="cls-5" d="M195,103c-3.14-.49-2.89-2.64-7.27-2.55-3.8.09-4.83,3.8-8.37,4.83a6.86,6.86,0,0,1-1.77.26,4,4,0,0,1-.49,0c-4.79-.19-7.84-4.7-9.72-5a8.29,8.29,0,0,0-1.55-.11"/><path class="cls-5" d="M176.82,112.67a2.18,2.18,0,1,1-2.18-2.18A2.19,2.19,0,0,1,176.82,112.67Z"/><circle class="cls-5" cx="181.56" cy="128.43" r="2.18"/><circle class="cls-5" cx="188.1" cy="135.72" r="2.18"/><circle class="cls-5" cx="172.46" cy="126.25" r="2.18"/><path class="cls-5" d="M191.23,118a3.14,3.14,0,1,1-3.14-3.14A3.14,3.14,0,0,1,191.23,118Z"/><path class="cls-5" d="M177.78,136.68a3.15,3.15,0,1,1-3.14-3.14A3.14,3.14,0,0,1,177.78,136.68Z"/><circle class="cls-5" cx="185.92" cy="108.31" r="2.18"/><polyline class="cls-5" points="179.37 105.29 182.04 92.16 185.92 73.05 183.74 72.61 179.8 92.16 177.11 105.54 177.11 105.55"/><line class="cls-5" x1="167.92" y1="146.88" x2="193.78" y2="146.88"/><path class="cls-3" d="M110.83,96.47V86a63.4,63.4,0,0,0,28.35,0V96.47s-1,1.66-2.45,1.66H113.28C111.82,98.13,110.83,96.47,110.83,96.47Z"/><path class="cls-4" d="M110.83,86V68a80.36,80.36,0,0,0,28.35,0V86A63.4,63.4,0,0,1,110.83,86Z"/><path class="cls-3" d="M113.81,52.62c0,1,5,1.87,11.15,1.87s11.16-.84,11.16-1.87h.09l3,5.34V68a80.36,80.36,0,0,1-28.35,0V58Z"/><path class="cls-4" d="M124.35,102.08c-10.4.33-11.07-4-11.07-4h23.45s-.67,4.28-11.08,4Z"/><path class="cls-3" d="M113.81,52.62c0-.95,4.26-1.74,9.77-1.85,0,0,3.13-.09,5.37.11,4.19.27,7.17.95,7.17,1.74,0,1-5,1.87-11.16,1.87S113.81,53.65,113.81,52.62Z"/><path class="cls-5" d="M113.81,52.62c0-.95,4.26-1.74,9.77-1.85,0,0,3.13-.09,5.37.11,4.19.27,7.17.95,7.17,1.74,0,1-5,1.87-11.16,1.87S113.81,53.65,113.81,52.62Z"/><path class="cls-5" d="M136.21,52.62l3,5.34V96.47s-1,1.66-2.45,1.66c0,0-.67,4.28-11.08,4h-1.3c-10.4.33-11.07-4-11.07-4-1.46,0-2.45-1.66-2.45-1.66V58l3-5.34"/><path class="cls-5" d="M110.83,86a63.4,63.4,0,0,0,28.35,0"/><path class="cls-5" d="M110.83,68a80.36,80.36,0,0,0,28.35,0"/><line class="cls-5" x1="113.28" y1="98.13" x2="136.73" y2="98.13"/><path class="cls-1" d="M126.61,53.18h-.15l-4.87-.42c-.09,0-.33,0-.35-.19s.17-.2.22-.22l2.54-.78a2.06,2.06,0,0,1,.85-.05l3.61.79c.15,0,.22.09.23.19s-.18.2-.24.22l-1.32.4A1.68,1.68,0,0,1,126.61,53.18Zm-4.86-.67,4.73.42a2.13,2.13,0,0,0,.58,0l1.19-.37-3.45-.75a1.76,1.76,0,0,0-.72,0Z"/><path class="cls-1" d="M125.53,52.59a.88.88,0,0,1-.24,0l-1.93-.17c-.1,0-.12,0,0-.07l1-.31a.81.81,0,0,1,.31,0l1.42.31c.07,0,.07,0,0,.06Z"/><path class="cls-6" d="M125.27,151.33s1.23,6.52-5.65,6.8a2.26,2.26,0,0,0-.15-.41C119.57,156.5,120.26,152.92,125.27,151.33Z"/><path class="cls-4" d="M120.28,160.78a7.64,7.64,0,0,1,1.44-.14,8.12,8.12,0,1,1-1.44.14Z"/><path class="cls-3" d="M121.72,160.64a7.64,7.64,0,0,0-1.44.14,8,8,0,1,0,1.44-.14Zm-2.1-2.51c6.88-.28,5.65-6.8,5.65-6.8-5,1.59-5.7,5.17-5.8,6.39a3.33,3.33,0,0,0,0,.42Zm17.58-15.65.15,51.41H109.4a3.21,3.21,0,0,1-3.21-3.21v-48.2Z"/><path class="cls-3" d="M147.29,142.48v48.2a3.21,3.21,0,0,1-3.21,3.21h-6.73l-.15-51.41Z"/><polygon class="cls-3" points="140.6 129.72 147.29 142.48 137.2 142.48 140.6 129.72"/><path class="cls-4" d="M140.6,125.53v4.19H112.24v-4.19a1.41,1.41,0,0,1,1.42-1.41h25.52A1.42,1.42,0,0,1,140.6,125.53Z"/><polygon class="cls-3" points="140.6 129.72 137.2 142.48 106.19 142.48 112.24 129.72 140.6 129.72"/><path class="cls-7" d="M140.6,129.72H112.24v-4.19a1.41,1.41,0,0,1,1.42-1.41h25.52a1.42,1.42,0,0,1,1.42,1.41Z"/><path class="cls-7" d="M106.19,142.48v48.2a3.21,3.21,0,0,0,3.21,3.21h27.95l-.15-51.41h10.09l-6.69-12.76-3.4,12.76h-31l6-12.76"/><path class="cls-7" d="M137.35,193.89h6.73a3.21,3.21,0,0,0,3.21-3.21v-48.2"/><path class="cls-7" d="M129.78,168.7a8.06,8.06,0,1,1-9.5-7.92,7.64,7.64,0,0,1,1.44-.14A8.06,8.06,0,0,1,129.78,168.7Z"/><path class="cls-7" d="M116.78,153.63a11.79,11.79,0,0,1,2.69,4.09,2.26,2.26,0,0,1,.15.41,12.39,12.39,0,0,1,.66,2.65,18.37,18.37,0,0,1,.19,3.37"/><path class="cls-7" d="M119.62,158.13h-.16a3.33,3.33,0,0,1,0-.42c.1-1.22.79-4.8,5.8-6.39C125.27,151.33,126.5,157.85,119.62,158.13Z"/><line class="cls-8" x1="106.19" y1="189.34" x2="147.29" y2="189.34"/></svg>