<svg xmlns="http://www.w3.org/2000/svg" id="Layer_1" data-name="Layer 1" viewBox="31.01 30.17 193.99 195.62"><defs><style>.cls-3{fill:#fff}.cls-4{fill:#2db5ff}.cls-5{fill:none;stroke:#0e4e91;stroke-linecap:round;stroke-linejoin:round}.cls-6{fill:#caf5fe}</style></defs><path d="M131.65 225.79v-1.28c2.26-.07 4.55-.21 6.78-.43l.13 1.28c-2.31.22-4.62.37-6.91.43zm-5.16 0c-2.29-.06-4.6-.19-6.87-.41l.12-1.27c2.24.21 4.52.34 6.78.39zm17.15-1.09-.19-1.27c2.23-.34 4.48-.77 6.67-1.26l.29 1.25c-2.23.52-4.5.95-6.77 1.3zm11.77-2.55-.35-1.23a97.32 97.32 0 0 0 6.47-2.07l.44 1.2c-2.15.8-4.36 1.5-6.56 2.12zm11.37-4-.5-1.19c2.07-.87 4.14-1.83 6.15-2.85l.58 1.14c-2.01 1.09-4.14 2.06-6.23 2.95zm10.77-5.35-.64-1.11c2-1.13 3.89-2.33 5.76-3.59l.72 1.06a78.26 78.26 0 0 1-5.84 3.69zm-97.06.23c-2-1.13-3.95-2.35-5.86-3.62l.71-1.07c1.88 1.26 3.83 2.46 5.79 3.57zm107.1-6.86-.77-1c1.8-1.36 3.58-2.8 5.28-4.28l.84 1c-1.72 1.5-3.52 2.95-5.35 4.33zm-117.18.26a96.235 96.235 0 0 1-5.37-4.3l.83-1c1.72 1.48 3.5 2.91 5.31 4.25zm126.34-8.08-.89-.92a94.79 94.79 0 0 0 4.72-4.89l.95.86a81.002 81.002 0 0 1-4.78 5zm-135.54.31a101.61 101.61 0 0 1-4.8-4.93l1-.86c1.52 1.67 3.12 3.31 4.74 4.86zm143.67-9.18-1-.81c1.42-1.76 2.79-3.58 4.09-5.43l1.03.76c-1.28 1.9-2.68 3.75-4.12 5.53zM53 189.87a96.406 96.406 0 0 1-4.17-5.48l1.05-.74c1.3 1.84 2.69 3.66 4.11 5.41zm158.84-10.15-1.09-.68c1.19-1.92 2.33-3.9 3.39-5.89l1.13.6a80.183 80.183 0 0 1-3.39 5.97zM46 180.1a97.722 97.722 0 0 1-3.46-5.94l1.13-.61c1.06 2 2.21 4 3.41 5.87zm171.6-11-1.16-.55c1-2 1.84-4.15 2.64-6.26l1.2.45c-.8 2.16-1.7 4.26-2.67 6.38zM31.23 134.77c-.13-2-.21-4.09-.22-6.13v-.75h1.29v.74c0 2 .09 4.05.23 6.05zm1.2-12-1.29-.07c.13-2.28.33-4.59.61-6.86L33 116c-.25 2.27-.45 4.54-.57 6.8zm191.3-12.52c-.41-2.22-.9-4.45-1.47-6.63l1.24-.32c.57 2.21 1.08 4.47 1.5 6.72zM33.78 111l-1.26-.22c.4-2.26.88-4.52 1.44-6.73l1.25.31c-.55 2.18-1.03 4.41-1.43 6.64zm187.07-12.24a97.46 97.46 0 0 0-2.29-6.4l1.2-.47c.84 2.12 1.62 4.31 2.31 6.48zm-184.27.69-1.22-.38c.67-2.18 1.44-4.37 2.27-6.51l1.19.46a97.78 97.78 0 0 0-2.24 6.43zm180-11.76c-.94-2-2-4.09-3.05-6.06l1.12-.62c1.1 2 2.14 4.07 3.1 6.14zm-175.78.63-1.17-.53c.94-2.08 2-4.16 3.06-6.18l1.13.61c-1.08 2-2.09 4.05-3.02 6.1zm170.14-11.09a100.77 100.77 0 0 0-3.78-5.64l1-.75c1.34 1.85 2.63 3.78 3.83 5.72zm-164.58.57-1.1-.67c1.19-1.95 2.47-3.88 3.79-5.75l1.05.75c-1.31 1.87-2.57 3.75-3.74 5.67zm157.72-10.26c-1.42-1.76-2.91-3.48-4.44-5.14l.94-.87c1.55 1.68 3.07 3.43 4.5 5.21zm-150.92.51-1-.8c1.42-1.78 2.92-3.55 4.46-5.24l1 .87a82.91 82.91 0 0 0-4.46 5.17zm142.91-9.29c-1.61-1.57-3.3-3.11-5-4.56l.83-1c1.75 1.47 3.46 3 5.1 4.62zM90.49 39.39 90 38.21c2.09-.91 4.25-1.75 6.4-2.51l.43 1.21c-2.15.75-4.27 1.58-6.34 2.48zm64.81-4.24c-2.17-.61-4.39-1.16-6.59-1.62l.26-1.26c2.24.47 4.48 1 6.68 1.65zm-53.64.2-.36-1.23c2.19-.64 4.43-1.21 6.67-1.7l.27 1.26a93.09 93.09 0 0 0-6.58 1.67zm42-2.74c-2.22-.34-4.49-.61-6.74-.8l.11-1.27c2.28.19 4.57.46 6.83.81zm-30.45.12-.2-1.27c2.25-.36 4.55-.65 6.83-.86l.11 1.28c-2.22.2-4.48.49-6.71.85zm18.62-1.21c-2.26-.07-4.54-.06-6.79 0v-1.28c2.28-.09 4.59-.1 6.88 0z" style="fill:#0e4e91"/><circle cx="128.37" cy="124.83" r="76.55" style="fill:#abe7ff"/><path class="cls-3" d="M81.63 98.72a.86.86 0 0 1 .88.83.85.85 0 0 1-.83.88.84.84 0 0 1-.88-.82.86.86 0 0 1 .83-.89z"/><path class="cls-4" d="M82.51 99.55a.86.86 0 1 0-1.71.06.84.84 0 0 0 .88.82.85.85 0 0 0 .83-.88zm-3.25 7c-.16-5.37.87-9.76 2.31-9.81s2.73 4.28 2.9 9.65a112.24 112.24 0 0 1-.75 14.53 1.74 1.74 0 0 0-1.44-.68 1.77 1.77 0 0 0-1.39.76 110.15 110.15 0 0 1-1.63-14.47z"/><path class="cls-3" d="M82.35 122.35a.48.48 0 0 1 .5.47.49.49 0 0 1-1 0 .48.48 0 0 1 .5-.47z"/><path class="cls-3" d="M84.09 121.92v1.75a1.72 1.72 0 0 1-.47 1.26 1.63 1.63 0 0 1-.44.3.27.27 0 0 1-.11 0 1.62 1.62 0 0 1-.54.1 1.69 1.69 0 0 1-.71-.13 1.5 1.5 0 0 1-.44-.26s-.08 0-.1-.09a1.79 1.79 0 0 1-.54-1.21v-1.75a1.73 1.73 0 0 1 .31-1 1.77 1.77 0 0 1 1.39-.76 1.74 1.74 0 0 1 1.44.68 1.71 1.71 0 0 1 .21 1.11zm-2.21.93a.49.49 0 0 0 1 0 .48.48 0 0 0-.5-.47.48.48 0 0 0-.5.47zm1.21 2.48c.1.55.22 1.26.35 2.11a137.3 137.3 0 0 1 1.46 16.93c.08 2.74 0 6.29-.13 9-.1 1.64-.21 2.81-.35 3.64a6 6 0 0 1-.53 2 2.22 2.22 0 0 1-.45.06h-.08a2.32 2.32 0 0 1-.46 0 7.47 7.47 0 0 1-.68-2.2c-.17-.8-.34-1.91-.53-3.41-.32-2.75-.59-6.29-.67-9v-1.19a134.35 134.35 0 0 1 .46-15.79c.08-.86.16-1.57.23-2.13a1.53 1.53 0 0 0 .71.13 1.68 1.68 0 0 0 .59-.12.27.27 0 0 0 .08-.03z"/><path class="cls-3" d="M76.36 144.6c-.25-10.51 3.22-17.15 4.77-19.58s.06.06.1.09a1.5 1.5 0 0 0 .44.26 1.69 1.69 0 0 0 .71.13 1.62 1.62 0 0 0 .54-.1 1.68 1.68 0 0 1-.59.12 1.53 1.53 0 0 1-.71-.13c-.07.56-.15 1.27-.23 2.13a134.35 134.35 0 0 0-.39 15.77v1.19c.08 2.74.35 6.28.67 9 .19 1.5.36 2.61.53 3.41a7.47 7.47 0 0 0 .68 2.2c-2.17-.31-3.69-3-4.59-5.22a28.4 28.4 0 0 1-1.95-9zm8.06 12.46c.14-.83.25-2 .35-3.64.16-2.76.21-6.31.13-9a137.3 137.3 0 0 0-1.46-16.93c-.13-.85-.25-1.56-.35-2.11a1.63 1.63 0 0 0 .44-.3c1.72 2.36 5.62 8.87 5.95 19.53v.12a28.58 28.58 0 0 1-1.41 9.07c-.8 2.34-1.93 4.31-4.26 5.4a6 6 0 0 0 .61-2.14z"/><path class="cls-5" d="M83 125.38a1.68 1.68 0 0 1-.59.12 1.53 1.53 0 0 1-.71-.13c-.07.56-.15 1.27-.23 2.13a134.35 134.35 0 0 0-.47 15.79v1.19c.08 2.74.35 6.28.67 9 .19 1.5.36 2.61.53 3.41a7.47 7.47 0 0 0 .68 2.2h0m1.01-.04a6 6 0 0 0 .53-2c.14-.83.25-2 .35-3.64.16-2.76.21-6.31.13-9a137.3 137.3 0 0 0-1.46-16.93c-.13-.85-.25-1.56-.35-2.11"/><path class="cls-5" d="M81.23 125.11a.28.28 0 0 1-.1-.09c-1.55 2.43-5 9.07-4.77 19.58v.31a28.4 28.4 0 0 0 1.95 9c.9 2.26 2.42 4.91 4.59 5.22a2.32 2.32 0 0 0 .46 0h.08a2.22 2.22 0 0 0 .45-.06c2.33-1.09 3.46-3.06 4.26-5.4a28.58 28.58 0 0 0 1.41-9.07v-.12c-.33-10.66-4.23-17.17-5.95-19.53h0l-.09.09m.2-4.14a112.24 112.24 0 0 0 .75-14.53c-.17-5.37-1.46-9.69-2.9-9.65s-2.47 4.44-2.31 9.81A110.15 110.15 0 0 0 80.89 121"/><path class="cls-5" d="M82.51 99.55a.85.85 0 0 1-.83.88.84.84 0 0 1-.88-.82.86.86 0 1 1 1.71-.06zm1.21 21.35a1.74 1.74 0 0 0-1.44-.68 1.77 1.77 0 0 0-1.39.76 1.73 1.73 0 0 0-.31 1v1.75a1.79 1.79 0 0 0 .54 1.21h0s.06.06.1.09a1.5 1.5 0 0 0 .44.26 1.69 1.69 0 0 0 .71.13 1.62 1.62 0 0 0 .54-.1.27.27 0 0 0 .11 0h0a1.63 1.63 0 0 0 .44-.3h0a1.72 1.72 0 0 0 .47-1.26v-1.75a1.71 1.71 0 0 0-.21-1.11z"/><path class="cls-5" d="M82.35 122.35a.48.48 0 0 1 .5.47.49.49 0 0 1-1 0 .48.48 0 0 1 .5-.47z"/><path class="cls-3" d="M58.21 105.49c-.14-5.76 2.39-10.49 5.65-10.57s5.83 4.25 6.12 9.75v.54c.13 5.75-2.39 10.48-5.65 10.56-3 .07-5.65-4-6.09-9.18 0-.37-.02-.73-.03-1.1z"/><path class="cls-6" d="M56.42 105.53c-.18-7.51 3.11-13.69 7.36-13.79s7.65 5.62 8 12.87l-1.79.06c-.29-5.5-3-9.82-6.12-9.75s-5.79 4.81-5.65 10.57v1.1l-1.78.18c.01-.41-.01-.77-.02-1.24z"/><path class="cls-6" d="M58.26 106.59c.44 5.23 3.05 9.25 6.09 9.18 3.26-.08 5.78-4.81 5.65-10.56v-.54l1.79-.06v.56c.17 6.9-2.61 12.68-6.36 13.64l.17 7.19a1.72 1.72 0 0 0-1.32-.55 1.76 1.76 0 0 0-1.05.39l-.17-7c-3.4-1-6.13-5.88-6.58-12z"/><path class="cls-3" d="M64.85 128.05a.51.51 0 0 1-.47.5.48.48 0 0 1-.5-.47.46.46 0 0 1 .47-.5.49.49 0 0 1 .5.47z"/><path class="cls-3" d="m62.63 129-.05-1.75a1.76 1.76 0 0 1 1.7-1.81 1.72 1.72 0 0 1 1.32.55 1.75 1.75 0 0 1 .49 1.15v1.76a1.72 1.72 0 0 1-.31 1 1.75 1.75 0 0 1-3.2-.94zm1.25-.89a.48.48 0 0 0 .5.47.51.51 0 0 0 .47-.5.49.49 0 0 0-.5-.47.46.46 0 0 0-.47.47zm1.21 24.05a.84.84 0 0 1-.88-.82.87.87 0 0 1 .83-.89.86.86 0 0 1 .88.84.84.84 0 0 1-.83.87z"/><path class="cls-4" d="M65.15 154.17c-1.43.05-2.73-4.28-2.89-9.64A110.19 110.19 0 0 1 63 130a1.74 1.74 0 0 0 2.83-.09 112 112 0 0 1 1.63 14.46c.17 5.37-.87 9.76-2.31 9.8zm-.94-2.83a.86.86 0 0 0 1.71-.05.86.86 0 0 0-.88-.84.87.87 0 0 0-.83.89z"/><path class="cls-5" d="m65.6 126-.17-7.15c3.75-1 6.53-6.74 6.36-13.64v-.56c-.34-7.25-3.85-13-8-12.87s-7.55 6.22-7.37 13.75c0 .42 0 .83.06 1.24.45 6.12 3.18 11 6.58 12l.17 7M63 130a110.19 110.19 0 0 0-.74 14.53c.16 5.36 1.46 9.69 2.89 9.64s2.48-4.43 2.31-9.8a112 112 0 0 0-1.63-14.46"/><path class="cls-5" d="M65.92 151.29a.86.86 0 0 1-1.71.05.87.87 0 0 1 .83-.89.86.86 0 0 1 .88.84zM63 130a1.74 1.74 0 0 0 2.83-.09 1.72 1.72 0 0 0 .31-1v-1.76a1.75 1.75 0 0 0-.54-1.15 1.72 1.72 0 0 0-1.32-.55 1.76 1.76 0 0 0-1.7 1.81l.05 1.75a1.77 1.77 0 0 0 .37.99z"/><path class="cls-5" d="M64.38 128.55a.51.51 0 0 0 .47-.5.49.49 0 0 0-.5-.47.46.46 0 0 0-.47.5.48.48 0 0 0 .5.47zm-6.12-21.96c.44 5.23 3.05 9.25 6.09 9.18 3.26-.08 5.78-4.81 5.65-10.56v-.54c-.29-5.5-3-9.82-6.12-9.75s-5.79 4.81-5.65 10.57c-.01.37.01.73.03 1.1z"/><path class="cls-4" d="M157.9 168.74a2 2 0 0 1 2 1.95 2 2 0 0 1-2 2h-11.35a2 2 0 0 1-2-2 2 2 0 0 1 2-1.95zm50.21 0a2 2 0 0 1 2 1.95 2 2 0 0 1-2 2h-11.34a2 2 0 0 1-2-2 2 2 0 0 1 2-1.95z"/><path class="cls-5" d="M157.9 168.74a2 2 0 0 1 2 1.95h0a2 2 0 0 1-2 2h-11.35a2 2 0 0 1-2-2h0a2 2 0 0 1 2-1.95zm50.21 0a2 2 0 0 1 2 1.95h0a2 2 0 0 1-2 2h-11.34a2 2 0 0 1-2-2h0a2 2 0 0 1 2-1.95z"/><rect class="cls-3" x="152.91" y="165.71" width="48.86" height="9.96" rx="2.69"/><rect class="cls-5" x="152.91" y="165.71" width="48.86" height="9.96" rx="2.69"/><path class="cls-4" d="M186.15 70.75v6.5a5.15 5.15 0 0 0-1.4-.2h-12.12a5 5 0 0 0-1.39.2v-6.5a1.66 1.66 0 0 1 1.65-1.66h11.61a1.66 1.66 0 0 1 1.65 1.66z"/><path class="cls-3" d="M198.33 87.3v1.12a5 5 0 0 1-4.27 4.92h-30.74a5 5 0 0 1-4.27-4.92V87.3a5 5 0 0 1 2.37-4.25l8.58-5.27a5.16 5.16 0 0 1 1.2-.53 5 5 0 0 1 1.39-.2h12.12a5.15 5.15 0 0 1 1.4.2 4.7 4.7 0 0 1 1.19.53l8.7 5.27a5 5 0 0 1 2.33 4.25zm0 29.76v29.44a5 5 0 0 1-5 5H164a5 5 0 0 1-5-5v-29.44a5 5 0 0 1 4.27-4.92h30.74a5 5 0 0 1 4.32 4.92z"/><rect class="cls-3" x="160.29" y="99.61" width="36.8" height="6.27" rx="1.66"/><path class="cls-3" d="M195.43 105.88a1.65 1.65 0 0 1 1.66 1.66v2.94a1.65 1.65 0 0 1-1.66 1.66h-1.37a5.34 5.34 0 0 0-.69 0H164a5.36 5.36 0 0 0-.7 0H162a1.66 1.66 0 0 1-1.66-1.66v-2.94a1.66 1.66 0 0 1 1.66-1.66zM162 93.34h1.37a5.36 5.36 0 0 0 .7 0h29.35a5.34 5.34 0 0 0 .69 0h1.37a1.66 1.66 0 0 1 1.61 1.66v3a1.66 1.66 0 0 1-1.66 1.66H162a1.66 1.66 0 0 1-1.71-1.66v-3a1.66 1.66 0 0 1 1.71-1.66z"/><path class="cls-5" d="M186.15 77.25v-6.5a1.66 1.66 0 0 0-1.65-1.66h-11.61a1.66 1.66 0 0 0-1.65 1.66v6.5"/><path class="cls-5" d="M163.32 93.34a5 5 0 0 1-4.27-4.92V87.3a5 5 0 0 1 2.37-4.25l8.58-5.27a5.16 5.16 0 0 1 1.2-.53 5 5 0 0 1 1.39-.2h12.12a5.15 5.15 0 0 1 1.4.2 4.7 4.7 0 0 1 1.19.53l8.7 5.27a5 5 0 0 1 2.37 4.25v1.12a5 5 0 0 1-4.27 4.92 5.34 5.34 0 0 1-.69 0H164a5.36 5.36 0 0 1-.68 0zm30.74 18.8a5 5 0 0 1 4.27 4.92v29.44a5 5 0 0 1-5 5H164a5 5 0 0 1-5-5v-29.44a5 5 0 0 1 4.27-4.92 5.36 5.36 0 0 1 .7 0h29.35a5.34 5.34 0 0 1 .74 0z"/><path class="cls-5" d="M162 99.61a1.66 1.66 0 0 1-1.71-1.61v-3a1.66 1.66 0 0 1 1.71-1.66h33.48a1.66 1.66 0 0 1 1.61 1.66v3a1.66 1.66 0 0 1-1.66 1.66"/><path class="cls-5" d="M162 105.88a1.66 1.66 0 0 1-1.66-1.67v-2.94a1.66 1.66 0 0 1 1.66-1.66h33.48a1.66 1.66 0 0 1 1.66 1.66v2.94a1.66 1.66 0 0 1-1.66 1.67"/><path class="cls-5" d="M195.43 105.88a1.65 1.65 0 0 1 1.66 1.66v2.94a1.65 1.65 0 0 1-1.66 1.66H162a1.66 1.66 0 0 1-1.66-1.66v-2.94a1.66 1.66 0 0 1 1.66-1.66z"/><path class="cls-4" d="M188.75 138.9a1.24 1.24 0 0 1-1-1.23v-11.78a1.24 1.24 0 1 1 2.48 0v10.55h2.89a1.24 1.24 0 0 1 0 2.48c-1.37 0-4.28-.01-4.37-.02zm-6.49.02a1.23 1.23 0 0 1-1.24-1.24v-11.79a1.24 1.24 0 1 1 2.48 0v11.79a1.23 1.23 0 0 1-1.24 1.24zm-12.07 0a7.14 7.14 0 1 1 7.14-7.14 7.15 7.15 0 0 1-7.14 7.14zm0-11.79a4.66 4.66 0 1 0 4.66 4.65 4.66 4.66 0 0 0-4.66-4.65z"/><circle class="cls-4" cx="123.64" cy="47.95" r=".91"/><path class="cls-3" d="m125.26 44.63 6.49 5.37c-2.71-.24-5.65-.37-8.73-.37s-6.27.14-9.08.4l6.29-5.34a3.91 3.91 0 0 1 5.03-.06zm-.71 3.37a.91.91 0 1 0-.91.91.91.91 0 0 0 .91-.91zm17.61 10.55c3.23-.94 5.16-2.12 5.16-3.41l2.58 9.38.17.62a4.91 4.91 0 0 1 .06.66c0 1.68-1.16 3.26-3.21 4.64-4.57 3.09-13.56 5.19-23.91 5.19S103.5 73.5 99 70.36c-2-1.36-3.07-2.9-3.07-4.54a3.26 3.26 0 0 1 .07-.7l.16-.57 2.59-9.4c0 1.29 1.93 2.47 5.15 3.41 4.45 1.3 11.37 2.13 19.14 2.13s14.68-.84 19.12-2.14z"/><path class="cls-3" d="M147.32 55.14c0 1.29-1.93 2.47-5.16 3.41L131.75 50c9.11.78 15.57 2.79 15.57 5.14z"/><circle class="cls-4" cx="133.66" cy="55.95" r=".91"/><circle class="cls-4" cx="129.71" cy="55.95" r=".91"/><path class="cls-4" d="M127 50.08a.91.91 0 1 1-1 .92.91.91 0 0 1 1-.92z"/><path class="cls-3" d="M127.86 51a.91.91 0 1 0-.91.91.91.91 0 0 0 .91-.91zM123 49.61c3.08 0 6 .13 8.73.37l10.41 8.57c-4.44 1.3-11.36 2.13-19.14 2.13s-14.69-.83-19.14-2.13L113.94 50c2.81-.25 5.87-.39 9.06-.39zM134.57 56a.91.91 0 1 0-.91.91.91.91 0 0 0 .91-.91zm-3.95 0a.91.91 0 1 0-.91.91.91.91 0 0 0 .91-.91zm-11.54.61a.91.91 0 1 0-.91.91.91.91 0 0 0 .91-.96zm-.64-3.48a.91.91 0 0 0-1.82 0 .91.91 0 0 0 1.82 0zM114.75 56a.91.91 0 1 0-.91.91.91.91 0 0 0 .91-.91z"/><circle class="cls-4" cx="118.17" cy="56.56" r=".91"/><circle class="cls-4" cx="117.53" cy="53.08" r=".91"/><path class="cls-4" d="M113.84 55a.91.91 0 1 1-.91.91.91.91 0 0 1 .91-.91z"/><path class="cls-3" d="m113.94 50-10.06 8.54c-3.22-.94-5.15-2.12-5.15-3.41 0-2.31 6.27-4.3 15.21-5.13zm-15.62 56.93A67.22 67.22 0 0 1 96.07 91C96 82.6 99 70.36 99 70.36c4.52 3.14 13.59 5.29 24 5.29s19.34-2.1 23.91-5.19c0 0 2.41 13.17 2.7 19.44s-2 16.73-2 16.73a5.19 5.19 0 0 1 2.5 4.57c0 3.22-20.7 2.48-26.36 2.66s-28.17-.14-28.32-2.89 2.89-4.04 2.89-4.04z"/><path class="cls-5" d="M131.75 50c9.11.8 15.57 2.81 15.57 5.16 0 1.29-1.93 2.47-5.16 3.41-4.44 1.3-11.36 2.13-19.14 2.13s-14.69-.83-19.14-2.13c-3.22-.94-5.15-2.12-5.15-3.41 0-2.32 6.29-4.31 15.21-5.13m36.13 15.12a3.35 3.35 0 0 0-.17-.62m.18.63a4.91 4.91 0 0 1 .06.66c0 1.68-1.16 3.26-3.21 4.64-4.57 3.09-13.56 5.19-23.91 5.19S103.5 73.5 99 70.36c-2-1.36-3.07-2.9-3.07-4.54a3.26 3.26 0 0 1 .07-.7 4 4 0 0 1 .16-.57"/><path class="cls-5" d="M146.93 70.46s2.41 13.17 2.7 19.44-2 16.73-2 16.73a5.19 5.19 0 0 1 2.5 4.57c0 3.22-20.7 2.48-26.36 2.66s-28.17-.14-28.32-2.89 2.86-4 2.86-4A67.22 67.22 0 0 1 96.07 91C96 82.6 99 70.36 99 70.36m-3.02-5.24.16-.57v-.01l2.59-9.4m51.35 10.02-.01-.01-.17-.62v-.01l-2.59-9.38m-43.43 3.41L113.94 50l6.29-5.34a3.91 3.91 0 0 1 5 0l6.52 5.34 10.41 8.57"/><circle class="cls-5" cx="117.53" cy="53.08" r=".91"/><path class="cls-5" d="M127.86 51a.91.91 0 1 1-.91-.91.91.91 0 0 1 .91.91z"/><circle class="cls-5" cx="129.71" cy="55.95" r=".91"/><circle class="cls-5" cx="133.66" cy="55.95" r=".91"/><circle class="cls-5" cx="123.64" cy="47.95" r=".91"/><circle class="cls-5" cx="118.17" cy="56.56" r=".91"/><path class="cls-5" d="M114.75 56a.91.91 0 1 1-.91-.91.91.91 0 0 1 .91.91z"/><path class="cls-4" d="M115.3 96.88q-3.81-5 1.8-8.38 2.9 5.22-1.8 8.38zm5.21-4.64q-3.11-4.08 1.47-6.84 2.33 4.26-1.47 6.84zm4.25-4.09q-2.49-3.27 1.18-5.49 1.86 3.42-1.18 5.49z"/><path class="cls-4" d="M116.35 98q4.77 4.09 8.47-1.31-5.05-3.11-8.47 1.31zm4.93-4.89q3.89 3.33 6.91-1.08-4.12-2.57-6.91 1.08zm4.33-4.01q3.12 2.69 5.54-.86c-2.15-1.37-4.05-1.09-5.54.86zm2.58-3.21c0-2.4 1.33-3.62 3.88-3.68q.1 3.79-3.88 3.68zm-16.87 16.16a.46.46 0 0 1-.31-.8l3.22-2.91a.46.46 0 0 1 .62.69l-3.22 2.9a.47.47 0 0 1-.31.12z"/><path class="cls-6" d="M135.54 181.79a4.47 4.47 0 0 1 0 1.59 4.37 4.37 0 0 1-.54 1.39l-4.31 7.07a4.25 4.25 0 0 1-3.65 2h-16.59a4.26 4.26 0 0 1-3.63-2l-.72-1.17-3.63-5.92a4.17 4.17 0 0 1-.55-1.39 4.52 4.52 0 0 1 0-1.6l5.48-30.41h22.68zm-3.16 1a.86.86 0 0 0 0-.39l-2.5-13.92h-22.32l-2.5 13.91a.9.9 0 0 0 0 .4.85.85 0 0 0 .14.34l.17.29 4.17 6.8a1.08 1.08 0 0 0 .91.51H127a1.09 1.09 0 0 0 .92-.51l4.14-6.8.17-.28a1.33 1.33 0 0 0 .15-.39z"/><path class="cls-4" d="M133 148.49a2.89 2.89 0 0 1-2.91 2.85h-22.71a2.89 2.89 0 0 1-2.91-2.85c0-4.22 6.38-7.63 14.25-7.63s14.28 3.41 14.28 7.63zm-6.25-2.19a.8.8 0 1 0-.8.8.8.8 0 0 0 .77-.8zm-2.13-3.2a.8.8 0 1 0-.8.8.8.8 0 0 0 .77-.8zm-2.67 3.2a.8.8 0 1 0-.8.8.8.8 0 0 0 .77-.8zm-2.13-3.2a.8.8 0 1 0-.8.8.8.8 0 0 0 .77-.8zm-2.67 3.2a.8.8 0 1 0-.8.8.8.8 0 0 0 .77-.8zm-2.15-3.2a.81.81 0 1 0-.81.8.8.8 0 0 0 .81-.8zm-2.67 3.2a.8.8 0 1 0-.8.8.8.8 0 0 0 .79-.8z"/><path class="cls-3" d="M132.38 182.36a.86.86 0 0 1 0 .39 1.33 1.33 0 0 1-.13.35l-.17.28-4.14 6.8a1.09 1.09 0 0 1-.92.51h-16.57a1.08 1.08 0 0 1-.91-.51l-4.17-6.8-.17-.29a.85.85 0 0 1-.14-.34.9.9 0 0 1 0-.4l2.5-13.91h22.32zm-7.79-4a.8.8 0 1 0-1.6 0 .8.8 0 0 0 1.6 0zm-1.6 8a.8.8 0 1 0-.8.8.8.8 0 0 0 .81-.84zm-1.6-12.81a.8.8 0 1 0-.8.8.8.8 0 0 0 .8-.84zm-1.6 6.4a.8.8 0 1 0-1.6 0 .8.8 0 0 0 1.6 0zm-1.6 6.41a.8.8 0 0 0-.81-.8.8.8 0 0 0 0 1.6.8.8 0 0 0 .81-.84zm-1.6-14.41a.8.8 0 0 0-.81-.8.8.8 0 0 0 0 1.6.8.8 0 0 0 .81-.84zm0 4.8a.8.8 0 0 0-.81-.8.8.8 0 0 0 0 1.6.8.8 0 0 0 .81-.84zm9.33-31.25a.8.8 0 1 1-.8.8.8.8 0 0 1 .8-.8zm-2.13-3.2a.8.8 0 1 1-.8.8.8.8 0 0 1 .8-.8z"/><path class="cls-4" d="M123.79 177.51a.8.8 0 1 1 0 1.6.8.8 0 1 1 0-1.6zm-1.6 8.01a.8.8 0 1 1-.8.8.8.8 0 0 1 .8-.8z"/><path class="cls-3" d="M121.12 145.5a.8.8 0 1 1-.8.8.8.8 0 0 1 .8-.8z"/><path class="cls-4" d="M120.59 172.71a.8.8 0 1 1-.8.8.8.8 0 0 1 .8-.8z"/><path class="cls-3" d="M119 142.3a.8.8 0 1 1-.8.8.8.8 0 0 1 .8-.8z"/><path class="cls-4" d="M119 179.11a.8.8 0 0 1 0 1.6.8.8 0 1 1 0-1.6zm-1.62 6.41a.8.8 0 1 1 0 1.6.8.8 0 0 1 0-1.6z"/><path class="cls-3" d="M116.32 145.5a.8.8 0 1 1-.8.8.8.8 0 0 1 .8-.8z"/><path class="cls-4" d="M115.78 171.11a.8.8 0 1 1 0 1.6.8.8 0 0 1 0-1.6zm0 4.8a.8.8 0 1 1 0 1.6.8.8 0 0 1 0-1.6z"/><path class="cls-3" d="M114.18 142.3a.8.8 0 1 1-.8.8.8.8 0 0 1 .8-.8zm-2.66 3.2a.8.8 0 1 1-.8.8.8.8 0 0 1 .8-.8z"/><path class="cls-5" d="m130.06 151.37 5.48 30.42a4.47 4.47 0 0 1 0 1.59 4.37 4.37 0 0 1-.54 1.39l-4.31 7.07a4.25 4.25 0 0 1-3.65 2h-16.59a4.26 4.26 0 0 1-3.63-2l-.72-1.17-3.63-5.92a4.17 4.17 0 0 1-.55-1.39 4.52 4.52 0 0 1 0-1.6l5.48-30.41"/><path class="cls-5" d="M130.06 151.37a2.89 2.89 0 0 0 2.91-2.85v0c0-4.22-6.38-7.63-14.25-7.63s-14.25 3.41-14.25 7.63v0a2.89 2.89 0 0 0 2.91 2.85z"/></svg>