<svg id="Layer_1" data-name="Layer 1" xmlns="http://www.w3.org/2000/svg" viewBox="0 0 256 256"><defs><style>.cls-1{fill:#0e4e91;}.cls-2{fill:#abe7ff;}.cls-3{fill:#fff;}.cls-4{fill:#2db5ff;}.cls-5{fill:none;stroke:#0e4e91;stroke-linecap:round;stroke-linejoin:round;}.cls-6{fill:#caf5fe;}</style></defs><path class="cls-1" d="M131.65,225.79l0-1.28c2.26-.07,4.55-.21,6.78-.43l.13,1.28C136.25,225.58,133.94,225.73,131.65,225.79Zm-5.16,0c-2.29-.06-4.6-.19-6.87-.41l.12-1.27c2.24.21,4.52.34,6.78.39Zm17.15-1.09-.19-1.27c2.23-.34,4.48-.77,6.67-1.26l.29,1.25C148.18,223.94,145.91,224.37,143.64,224.72Zm11.77-2.55-.35-1.23c2.17-.61,4.35-1.31,6.47-2.07l.44,1.2C159.82,220.85,157.61,221.55,155.41,222.17Zm11.37-4-.5-1.19c2.07-.87,4.14-1.83,6.15-2.85l.58,1.14C171,216.34,168.87,217.31,166.78,218.2Zm10.77-5.35-.64-1.11c2-1.13,3.89-2.33,5.76-3.59l.72,1.06C181.49,210.49,179.53,211.71,177.55,212.85Zm-97.06.23c-2-1.13-3.95-2.35-5.86-3.62l.71-1.07c1.88,1.26,3.83,2.46,5.79,3.57Zm107.1-6.86-.77-1c1.8-1.36,3.58-2.8,5.28-4.28l.84,1C191.22,203.39,189.42,204.84,187.59,206.22Zm-117.18.26c-1.83-1.36-3.64-2.81-5.37-4.3l.83-1c1.72,1.48,3.5,2.91,5.31,4.25Zm126.34-8.08-.89-.92c1.62-1.56,3.21-3.21,4.72-4.89l.95.86C200,195.15,198.39,196.82,196.75,198.4Zm-135.54.31c-1.64-1.58-3.26-3.23-4.8-4.93l1-.86c1.52,1.67,3.12,3.31,4.74,4.86Zm143.67-9.18-1-.81c1.42-1.76,2.79-3.58,4.09-5.43L209,184C207.72,185.9,206.32,187.75,204.88,189.53ZM53,189.87c-1.45-1.77-2.85-3.61-4.17-5.48l1.05-.74c1.3,1.84,2.69,3.66,4.11,5.41Zm158.84-10.15-1.09-.68c1.19-1.92,2.33-3.9,3.39-5.89l1.13.6C214.24,175.77,213.09,177.78,211.88,179.72ZM46,180.1c-1.22-1.93-2.38-3.93-3.46-5.94l1.13-.61c1.06,2,2.21,4,3.41,5.87Zm171.6-11-1.16-.55c1-2,1.84-4.15,2.64-6.26l1.2.45C219.48,164.9,218.58,167,217.61,169.12ZM31.23,134.77c-.13-2-.21-4.09-.22-6.13v-.75h1.29v.74c0,2,.09,4.05.23,6.05Zm1.2-12-1.29-.07c.13-2.28.33-4.59.61-6.86L33,116C32.75,118.27,32.55,120.54,32.43,122.8Zm191.3-12.52c-.41-2.22-.9-4.45-1.47-6.63l1.24-.32c.57,2.21,1.08,4.47,1.5,6.72ZM33.78,111l-1.26-.22c.4-2.26.88-4.52,1.44-6.73l1.25.31C34.66,106.54,34.18,108.77,33.78,111ZM220.85,98.76c-.69-2.15-1.45-4.3-2.29-6.4l1.2-.47c.84,2.12,1.62,4.31,2.31,6.48Zm-184.27.69-1.22-.38c.67-2.18,1.44-4.37,2.27-6.51l1.19.46C38,95.13,37.25,97.29,36.58,99.45Zm180-11.76c-.94-2-2-4.09-3.05-6.06l1.12-.62c1.1,2,2.14,4.07,3.1,6.14ZM40.8,88.32l-1.17-.53c.94-2.08,2-4.16,3.06-6.18l1.13.61C42.74,84.22,41.73,86.27,40.8,88.32ZM210.94,77.23c-1.19-1.91-2.46-3.81-3.78-5.64l1-.75c1.34,1.85,2.63,3.78,3.83,5.72ZM46.36,77.8l-1.1-.67c1.19-1.95,2.47-3.88,3.79-5.75l1.05.75C48.79,74,47.53,75.88,46.36,77.8ZM204.08,67.54c-1.42-1.76-2.91-3.48-4.44-5.14l.94-.87c1.55,1.68,3.07,3.43,4.5,5.21Zm-150.92.51-1-.8c1.42-1.78,2.92-3.55,4.46-5.24l1,.87C56.05,64.55,54.56,66.29,53.16,68.05Zm142.91-9.29c-1.61-1.57-3.3-3.11-5-4.56l.83-1c1.75,1.47,3.46,3,5.1,4.62ZM90.49,39.39,90,38.21c2.09-.91,4.25-1.75,6.4-2.51l.43,1.21C94.68,37.66,92.56,38.49,90.49,39.39Zm64.81-4.24c-2.17-.61-4.39-1.16-6.59-1.62l.26-1.26c2.24.47,4.48,1,6.68,1.65Zm-53.64.2-.36-1.23c2.19-.64,4.43-1.21,6.67-1.7l.27,1.26C106,34.16,103.82,34.72,101.66,35.35Zm42-2.74c-2.22-.34-4.49-.61-6.74-.8l.11-1.27c2.28.19,4.57.46,6.83.81Zm-30.45.12-.2-1.27c2.25-.36,4.55-.65,6.83-.86l.11,1.28C117.73,32.08,115.47,32.37,113.24,32.73Zm18.62-1.21c-2.26-.07-4.54-.06-6.79,0l0-1.28c2.28-.09,4.59-.1,6.88,0Z"/><circle class="cls-2" cx="128.37" cy="124.83" r="76.55"/><path class="cls-3" d="M81.63,98.72a.86.86,0,0,1,.88.83.85.85,0,0,1-.83.88.84.84,0,0,1-.88-.82A.86.86,0,0,1,81.63,98.72Z"/><path class="cls-4" d="M82.51,99.55a.86.86,0,1,0-1.71.06.84.84,0,0,0,.88.82A.85.85,0,0,0,82.51,99.55Zm-3.25,7c-.16-5.37.87-9.76,2.31-9.81s2.73,4.28,2.9,9.65a112.24,112.24,0,0,1-.75,14.53,1.74,1.74,0,0,0-1.44-.68,1.77,1.77,0,0,0-1.39.76A110.15,110.15,0,0,1,79.26,106.53Z"/><path class="cls-3" d="M82.35,122.35a.48.48,0,0,1,.5.47.49.49,0,0,1-1,0A.48.48,0,0,1,82.35,122.35Z"/><path class="cls-3" d="M84.09,121.92l0,1.75a1.72,1.72,0,0,1-.47,1.26l0,0,0,0a1.63,1.63,0,0,1-.44.3l0,0a.27.27,0,0,1-.11,0,1.62,1.62,0,0,1-.54.1,1.69,1.69,0,0,1-.71-.13,1.5,1.5,0,0,1-.44-.26s-.08,0-.1-.09h0a1.79,1.79,0,0,1-.54-1.21l0-1.75a1.73,1.73,0,0,1,.31-1,1.77,1.77,0,0,1,1.39-.76,1.74,1.74,0,0,1,1.44.68A1.71,1.71,0,0,1,84.09,121.92Zm-2.21.93a.49.49,0,0,0,1,0,.48.48,0,0,0-.5-.47A.48.48,0,0,0,81.88,122.85Z"/><path class="cls-3" d="M83.09,125.33c.1.55.22,1.26.35,2.11a137.3,137.3,0,0,1,1.46,16.93c.08,2.74,0,6.29-.13,9-.1,1.64-.21,2.81-.35,3.64a6,6,0,0,1-.53,2v0a2.22,2.22,0,0,1-.45.06h-.08a2.32,2.32,0,0,1-.46,0,7.47,7.47,0,0,1-.68-2.2c-.17-.8-.34-1.91-.53-3.41-.32-2.75-.59-6.29-.67-9,0-.4,0-.8,0-1.19a134.35,134.35,0,0,1,.46-15.79c.08-.86.16-1.57.23-2.13a1.53,1.53,0,0,0,.71.13,1.68,1.68,0,0,0,.59-.12A.27.27,0,0,0,83.09,125.33Z"/><path class="cls-3" d="M76.36,144.6c-.25-10.51,3.22-17.15,4.77-19.58l0,0h0s.06.06.1.09a1.5,1.5,0,0,0,.44.26,1.69,1.69,0,0,0,.71.13,1.62,1.62,0,0,0,.54-.1,1.68,1.68,0,0,1-.59.12,1.53,1.53,0,0,1-.71-.13c-.07.56-.15,1.27-.23,2.13A134.35,134.35,0,0,0,81,143.29c0,.39,0,.79,0,1.19.08,2.74.35,6.28.67,9,.19,1.5.36,2.61.53,3.41a7.47,7.47,0,0,0,.68,2.2c-2.17-.31-3.69-3-4.59-5.22a28.4,28.4,0,0,1-1.95-9Z"/><path class="cls-3" d="M84.42,157.06c.14-.83.25-2,.35-3.64.16-2.76.21-6.31.13-9a137.3,137.3,0,0,0-1.46-16.93c-.13-.85-.25-1.56-.35-2.11l0,0a1.63,1.63,0,0,0,.44-.3l0,0c1.72,2.36,5.62,8.87,5.95,19.53v.12a28.58,28.58,0,0,1-1.41,9.07c-.8,2.34-1.93,4.31-4.26,5.4v0A6,6,0,0,0,84.42,157.06Z"/><path class="cls-5" d="M83,125.38a1.68,1.68,0,0,1-.59.12,1.53,1.53,0,0,1-.71-.13c-.07.56-.15,1.27-.23,2.13A134.35,134.35,0,0,0,81,143.29c0,.39,0,.79,0,1.19.08,2.74.35,6.28.67,9,.19,1.5.36,2.61.53,3.41a7.47,7.47,0,0,0,.68,2.2h0"/><path class="cls-5" d="M83.89,159.05a6,6,0,0,0,.53-2c.14-.83.25-2,.35-3.64.16-2.76.21-6.31.13-9a137.3,137.3,0,0,0-1.46-16.93c-.13-.85-.25-1.56-.35-2.11"/><path class="cls-5" d="M81.23,125.11a.28.28,0,0,1-.1-.09c-1.55,2.43-5,9.07-4.77,19.58v.31a28.4,28.4,0,0,0,1.95,9c.9,2.26,2.42,4.91,4.59,5.22a2.32,2.32,0,0,0,.46,0h.08a2.22,2.22,0,0,0,.45-.06c2.33-1.09,3.46-3.06,4.26-5.4a28.58,28.58,0,0,0,1.41-9.07v-.12c-.33-10.66-4.23-17.17-5.95-19.53a0,0,0,0,0,0,0l-.09.09"/><path class="cls-5" d="M83.72,120.9a112.24,112.24,0,0,0,.75-14.53c-.17-5.37-1.46-9.69-2.9-9.65s-2.47,4.44-2.31,9.81A110.15,110.15,0,0,0,80.89,121"/><path class="cls-5" d="M82.51,99.55a.85.85,0,0,1-.83.88.84.84,0,0,1-.88-.82.86.86,0,1,1,1.71-.06Z"/><path class="cls-5" d="M83.72,120.9a1.74,1.74,0,0,0-1.44-.68,1.77,1.77,0,0,0-1.39.76,1.73,1.73,0,0,0-.31,1l0,1.75a1.79,1.79,0,0,0,.54,1.21h0s.06.06.1.09a1.5,1.5,0,0,0,.44.26,1.69,1.69,0,0,0,.71.13,1.62,1.62,0,0,0,.54-.1.27.27,0,0,0,.11,0l0,0a1.63,1.63,0,0,0,.44-.3l0,0,0,0a1.72,1.72,0,0,0,.47-1.26l0-1.75A1.71,1.71,0,0,0,83.72,120.9Z"/><path class="cls-5" d="M82.35,122.35a.48.48,0,0,1,.5.47.49.49,0,0,1-1,0A.48.48,0,0,1,82.35,122.35Z"/><path class="cls-3" d="M58.21,105.49C58.07,99.73,60.6,95,63.86,94.92s5.83,4.25,6.12,9.75c0,.18,0,.36,0,.54.13,5.75-2.39,10.48-5.65,10.56-3,.07-5.65-4-6.09-9.18C58.24,106.22,58.22,105.86,58.21,105.49Z"/><path class="cls-6" d="M56.42,105.53c-.18-7.51,3.11-13.69,7.36-13.79s7.65,5.62,8,12.87l-1.79.06c-.29-5.5-3-9.82-6.12-9.75s-5.79,4.81-5.65,10.57c0,.37,0,.73,0,1.1l-1.78.18C56.45,106.36,56.43,106,56.42,105.53Z"/><path class="cls-6" d="M58.26,106.59c.44,5.23,3.05,9.25,6.09,9.18,3.26-.08,5.78-4.81,5.65-10.56,0-.18,0-.36,0-.54l1.79-.06c0,.18,0,.37,0,.56.17,6.9-2.61,12.68-6.36,13.64L65.6,126a1.72,1.72,0,0,0-1.32-.55,1.76,1.76,0,0,0-1.05.39l-.17-7c-3.4-1-6.13-5.88-6.58-12Z"/><path class="cls-3" d="M64.85,128.05a.51.51,0,0,1-.47.5.48.48,0,0,1-.5-.47.46.46,0,0,1,.47-.5A.49.49,0,0,1,64.85,128.05Z"/><path class="cls-3" d="M62.63,129l-.05-1.75a1.76,1.76,0,0,1,1.7-1.81,1.72,1.72,0,0,1,1.32.55,1.75,1.75,0,0,1,.49,1.15l0,1.76a1.72,1.72,0,0,1-.31,1,1.75,1.75,0,0,1-3.2-.94Zm1.25-.89a.48.48,0,0,0,.5.47.51.51,0,0,0,.47-.5.49.49,0,0,0-.5-.47A.46.46,0,0,0,63.88,128.08Z"/><path class="cls-3" d="M65.09,152.16a.84.84,0,0,1-.88-.82.87.87,0,0,1,.83-.89.86.86,0,0,1,.88.84A.84.84,0,0,1,65.09,152.16Z"/><path class="cls-4" d="M65.15,154.17c-1.43.05-2.73-4.28-2.89-9.64A110.19,110.19,0,0,1,63,130a1.74,1.74,0,0,0,2.83-.09,112,112,0,0,1,1.63,14.46C67.63,149.74,66.59,154.13,65.15,154.17Zm-.94-2.83a.86.86,0,0,0,1.71-.05.86.86,0,0,0-.88-.84A.87.87,0,0,0,64.21,151.34Z"/><path class="cls-5" d="M65.6,126l-.17-7.15c3.75-1,6.53-6.74,6.36-13.64,0-.19,0-.38,0-.56-.34-7.25-3.85-13-8-12.87S56.24,98,56.42,105.53c0,.42,0,.83.06,1.24.45,6.12,3.18,11,6.58,12l.17,7"/><path class="cls-5" d="M63,130a110.19,110.19,0,0,0-.74,14.53c.16,5.36,1.46,9.69,2.89,9.64s2.48-4.43,2.31-9.8a112,112,0,0,0-1.63-14.46"/><path class="cls-5" d="M65.92,151.29a.86.86,0,0,1-1.71.05.87.87,0,0,1,.83-.89A.86.86,0,0,1,65.92,151.29Z"/><path class="cls-5" d="M63,130a1.74,1.74,0,0,0,2.83-.09,1.72,1.72,0,0,0,.31-1l0-1.76A1.75,1.75,0,0,0,65.6,126a1.72,1.72,0,0,0-1.32-.55,1.76,1.76,0,0,0-1.7,1.81l.05,1.75A1.77,1.77,0,0,0,63,130Z"/><path class="cls-5" d="M64.38,128.55a.51.51,0,0,0,.47-.5.49.49,0,0,0-.5-.47.46.46,0,0,0-.47.5A.48.48,0,0,0,64.38,128.55Z"/><path class="cls-5" d="M58.26,106.59c.44,5.23,3.05,9.25,6.09,9.18,3.26-.08,5.78-4.81,5.65-10.56,0-.18,0-.36,0-.54-.29-5.5-3-9.82-6.12-9.75s-5.79,4.81-5.65,10.57C58.22,105.86,58.24,106.22,58.26,106.59Z"/><path class="cls-4" d="M157.9,168.74a2,2,0,0,1,2,1.95h0a2,2,0,0,1-2,2H146.55a2,2,0,0,1-2-2h0a2,2,0,0,1,2-1.95Z"/><path class="cls-4" d="M208.11,168.74a2,2,0,0,1,2,1.95h0a2,2,0,0,1-2,2H196.77a2,2,0,0,1-2-2h0a2,2,0,0,1,2-1.95Z"/><path class="cls-5" d="M157.9,168.74a2,2,0,0,1,2,1.95h0a2,2,0,0,1-2,2H146.55a2,2,0,0,1-2-2h0a2,2,0,0,1,2-1.95Z"/><path class="cls-5" d="M208.11,168.74a2,2,0,0,1,2,1.95h0a2,2,0,0,1-2,2H196.77a2,2,0,0,1-2-2h0a2,2,0,0,1,2-1.95Z"/><rect class="cls-3" x="152.91" y="165.71" width="48.86" height="9.96" rx="2.69"/><rect class="cls-5" x="152.91" y="165.71" width="48.86" height="9.96" rx="2.69"/><path class="cls-4" d="M186.15,70.75v6.5a5.15,5.15,0,0,0-1.4-.2H172.63a5,5,0,0,0-1.39.2v-6.5a1.66,1.66,0,0,1,1.65-1.66H184.5A1.66,1.66,0,0,1,186.15,70.75Z"/><path class="cls-3" d="M198.33,87.3v1.12a5,5,0,0,1-4.27,4.92H163.32a5,5,0,0,1-4.27-4.92V87.3a5,5,0,0,1,2.37-4.25L170,77.78a5.16,5.16,0,0,1,1.2-.53,5,5,0,0,1,1.39-.2h12.12a5.15,5.15,0,0,1,1.4.2,4.7,4.7,0,0,1,1.19.53L196,83.05A5,5,0,0,1,198.33,87.3Z"/><path class="cls-3" d="M198.33,117.06V146.5a5,5,0,0,1-5,5H164a5,5,0,0,1-5-5V117.06a5,5,0,0,1,4.27-4.92h30.74A5,5,0,0,1,198.33,117.06Z"/><rect class="cls-3" x="160.29" y="99.61" width="36.8" height="6.27" rx="1.66"/><path class="cls-3" d="M195.43,105.88a1.65,1.65,0,0,1,1.66,1.66v2.94a1.65,1.65,0,0,1-1.66,1.66h-1.37a5.34,5.34,0,0,0-.69,0H164a5.36,5.36,0,0,0-.7,0H162a1.66,1.66,0,0,1-1.66-1.66v-2.94a1.66,1.66,0,0,1,1.66-1.66Z"/><path class="cls-3" d="M162,93.34h1.37a5.36,5.36,0,0,0,.7,0h29.35a5.34,5.34,0,0,0,.69,0h1.37A1.66,1.66,0,0,1,197.09,95v3a1.66,1.66,0,0,1-1.66,1.66H162A1.66,1.66,0,0,1,160.29,98V95A1.66,1.66,0,0,1,162,93.34Z"/><path class="cls-5" d="M186.15,77.25v-6.5a1.66,1.66,0,0,0-1.65-1.66H172.89a1.66,1.66,0,0,0-1.65,1.66v6.5"/><path class="cls-5" d="M163.32,93.34a5,5,0,0,1-4.27-4.92V87.3a5,5,0,0,1,2.37-4.25L170,77.78a5.16,5.16,0,0,1,1.2-.53,5,5,0,0,1,1.39-.2h12.12a5.15,5.15,0,0,1,1.4.2,4.7,4.7,0,0,1,1.19.53L196,83.05a5,5,0,0,1,2.37,4.25v1.12a5,5,0,0,1-4.27,4.92,5.34,5.34,0,0,1-.69,0H164A5.36,5.36,0,0,1,163.32,93.34Z"/><path class="cls-5" d="M194.06,112.14a5,5,0,0,1,4.27,4.92V146.5a5,5,0,0,1-5,5H164a5,5,0,0,1-5-5V117.06a5,5,0,0,1,4.27-4.92,5.36,5.36,0,0,1,.7,0h29.35A5.34,5.34,0,0,1,194.06,112.14Z"/><path class="cls-5" d="M162,99.61A1.66,1.66,0,0,1,160.29,98V95A1.66,1.66,0,0,1,162,93.34h33.48A1.66,1.66,0,0,1,197.09,95v3a1.66,1.66,0,0,1-1.66,1.66"/><path class="cls-5" d="M162,105.88a1.66,1.66,0,0,1-1.66-1.67v-2.94A1.66,1.66,0,0,1,162,99.61h33.48a1.66,1.66,0,0,1,1.66,1.66v2.94a1.66,1.66,0,0,1-1.66,1.67"/><path class="cls-5" d="M195.43,105.88a1.65,1.65,0,0,1,1.66,1.66v2.94a1.65,1.65,0,0,1-1.66,1.66H162a1.66,1.66,0,0,1-1.66-1.66v-2.94a1.66,1.66,0,0,1,1.66-1.66Z"/><path class="cls-4" d="M188.75,138.9a1.24,1.24,0,0,1-1-1.23V125.89a1.24,1.24,0,1,1,2.48,0v10.55h2.89a1.24,1.24,0,0,1,0,2.48C191.75,138.92,188.84,138.91,188.75,138.9Z"/><path class="cls-4" d="M182.26,138.92a1.23,1.23,0,0,1-1.24-1.24V125.89a1.24,1.24,0,1,1,2.48,0v11.79a1.23,1.23,0,0,1-1.24,1.24Z"/><path class="cls-4" d="M170.19,138.92a7.14,7.14,0,1,1,7.14-7.14A7.15,7.15,0,0,1,170.19,138.92Zm0-11.79a4.66,4.66,0,1,0,4.66,4.65A4.66,4.66,0,0,0,170.19,127.13Z"/><circle class="cls-4" cx="123.64" cy="47.95" r="0.91"/><path class="cls-3" d="M125.26,44.63,131.75,50c-2.71-.24-5.65-.37-8.73-.37s-6.27.14-9.08.4l6.29-5.34A3.91,3.91,0,0,1,125.26,44.63ZM124.55,48a.91.91,0,1,0-.91.91A.91.91,0,0,0,124.55,48Z"/><path class="cls-3" d="M142.16,58.55c3.23-.94,5.16-2.12,5.16-3.41l2.58,9.38h0l.17.62h0a4.91,4.91,0,0,1,.06.66c0,1.68-1.16,3.26-3.21,4.64-4.57,3.09-13.56,5.19-23.91,5.19S103.5,73.5,99,70.36c-2-1.36-3.07-2.9-3.07-4.54a3.26,3.26,0,0,1,.07-.7l.16-.57h0l2.59-9.4c0,1.29,1.93,2.47,5.15,3.41,4.45,1.3,11.37,2.13,19.14,2.13S137.72,59.85,142.16,58.55Z"/><path class="cls-3" d="M147.32,55.14c0,1.29-1.93,2.47-5.16,3.41L131.75,50C140.86,50.78,147.32,52.79,147.32,55.14Z"/><circle class="cls-4" cx="133.66" cy="55.95" r="0.91"/><circle class="cls-4" cx="129.71" cy="55.95" r="0.91"/><path class="cls-4" d="M127,50.08A.91.91,0,1,1,126,51,.91.91,0,0,1,127,50.08Z"/><path class="cls-3" d="M127.86,51a.91.91,0,1,0-.91.91A.91.91,0,0,0,127.86,51ZM123,49.61c3.08,0,6,.13,8.73.37l10.41,8.57c-4.44,1.3-11.36,2.13-19.14,2.13s-14.69-.83-19.14-2.13L113.94,50C116.75,49.75,119.81,49.61,123,49.61ZM134.57,56a.91.91,0,1,0-.91.91A.91.91,0,0,0,134.57,56Zm-3.95,0a.91.91,0,1,0-.91.91A.91.91,0,0,0,130.62,56Zm-11.54.61a.91.91,0,1,0-.91.91A.91.91,0,0,0,119.08,56.56Zm-.64-3.48a.91.91,0,0,0-1.82,0,.91.91,0,0,0,1.82,0ZM114.75,56a.91.91,0,1,0-.91.91A.91.91,0,0,0,114.75,56Z"/><circle class="cls-4" cx="118.17" cy="56.56" r="0.91"/><circle class="cls-4" cx="117.53" cy="53.08" r="0.91"/><path class="cls-4" d="M113.84,55a.91.91,0,1,1-.91.91A.91.91,0,0,1,113.84,55Z"/><path class="cls-3" d="M113.94,50l-10.06,8.54c-3.22-.94-5.15-2.12-5.15-3.41C98.73,52.82,105,50.83,113.94,50Z"/><path class="cls-3" d="M98.32,106.93A67.22,67.22,0,0,1,96.07,91C96,82.6,99,70.36,99,70.36c4.52,3.14,13.59,5.29,24,5.29s19.34-2.1,23.91-5.19c0,0,2.41,13.17,2.7,19.44s-2,16.73-2,16.73a5.19,5.19,0,0,1,2.5,4.57c0,3.22-20.7,2.48-26.36,2.66s-28.17-.14-28.32-2.89S98.32,106.93,98.32,106.93Z"/><path class="cls-5" d="M131.75,50c9.11.8,15.57,2.81,15.57,5.16,0,1.29-1.93,2.47-5.16,3.41-4.44,1.3-11.36,2.13-19.14,2.13s-14.69-.83-19.14-2.13c-3.22-.94-5.15-2.12-5.15-3.41,0-2.32,6.29-4.31,15.21-5.13"/><path class="cls-5" d="M150.07,65.15a3.35,3.35,0,0,0-.17-.62"/><path class="cls-5" d="M150.08,65.16a4.91,4.91,0,0,1,.06.66c0,1.68-1.16,3.26-3.21,4.64-4.57,3.09-13.56,5.19-23.91,5.19S103.5,73.5,99,70.36c-2-1.36-3.07-2.9-3.07-4.54a3.26,3.26,0,0,1,.07-.7,4,4,0,0,1,.16-.57"/><path class="cls-5" d="M146.93,70.46s2.41,13.17,2.7,19.44-2,16.73-2,16.73a5.19,5.19,0,0,1,2.5,4.57c0,3.22-20.7,2.48-26.36,2.66s-28.17-.14-28.32-2.89,2.86-4,2.86-4A67.22,67.22,0,0,1,96.07,91C96,82.6,99,70.36,99,70.36"/><polyline class="cls-5" points="95.98 65.12 96.14 64.55 96.14 64.54 98.73 55.14"/><polyline class="cls-5" points="150.08 65.16 150.07 65.15 149.9 64.53 149.9 64.52 147.31 55.14"/><path class="cls-5" d="M103.88,58.55,113.94,50l6.29-5.34a3.91,3.91,0,0,1,5,0L131.75,50l10.41,8.57"/><circle class="cls-5" cx="117.53" cy="53.08" r="0.91"/><path class="cls-5" d="M127.86,51a.91.91,0,1,1-.91-.91A.91.91,0,0,1,127.86,51Z"/><circle class="cls-5" cx="129.71" cy="55.95" r="0.91"/><circle class="cls-5" cx="133.66" cy="55.95" r="0.91"/><circle class="cls-5" cx="123.64" cy="47.95" r="0.91"/><circle class="cls-5" cx="118.17" cy="56.56" r="0.91"/><path class="cls-5" d="M114.75,56a.91.91,0,1,1-.91-.91A.91.91,0,0,1,114.75,56Z"/><path class="cls-4" d="M115.3,96.88q-3.81-5,1.8-8.38Q120,93.72,115.3,96.88Z"/><path class="cls-4" d="M120.51,92.24q-3.11-4.08,1.47-6.84Q124.31,89.66,120.51,92.24Z"/><path class="cls-4" d="M124.76,88.15q-2.49-3.27,1.18-5.49Q127.8,86.08,124.76,88.15Z"/><path class="cls-4" d="M116.35,98q4.77,4.09,8.47-1.31Q119.77,93.58,116.35,98Z"/><path class="cls-4" d="M121.28,93.11q3.89,3.33,6.91-1.08Q124.07,89.46,121.28,93.11Z"/><path class="cls-4" d="M125.61,89.1q3.12,2.69,5.54-.86C129,86.87,127.1,87.15,125.61,89.1Z"/><path class="cls-4" d="M128.19,85.89c0-2.4,1.33-3.62,3.88-3.68Q132.17,86,128.19,85.89Z"/><path class="cls-4" d="M111.32,102.05a.46.46,0,0,1-.31-.8l3.22-2.91a.46.46,0,0,1,.62.69l-3.22,2.9A.47.47,0,0,1,111.32,102.05Z"/><path class="cls-6" d="M135.54,181.79a4.47,4.47,0,0,1,0,1.59,4.37,4.37,0,0,1-.54,1.39l-4.31,7.07a4.25,4.25,0,0,1-3.65,2H110.45a4.26,4.26,0,0,1-3.63-2l-.72-1.17-3.63-5.92a4.17,4.17,0,0,1-.55-1.39,4.52,4.52,0,0,1,0-1.6l5.48-30.41h22.68Zm-3.16,1a.86.86,0,0,0,0-.39l-2.5-13.92H107.56l-2.5,13.91a.9.9,0,0,0,0,.4.85.85,0,0,0,.14.34l.17.29,4.17,6.8a1.08,1.08,0,0,0,.91.51H127a1.09,1.09,0,0,0,.92-.51l4.14-6.8.17-.28A1.33,1.33,0,0,0,132.38,182.75Z"/><path class="cls-4" d="M133,148.49v0a2.89,2.89,0,0,1-2.91,2.85H107.38a2.89,2.89,0,0,1-2.91-2.85v0c0-4.22,6.38-7.63,14.25-7.63S133,144.27,133,148.49Zm-6.25-2.19a.8.8,0,1,0-.8.8A.8.8,0,0,0,126.72,146.3Zm-2.13-3.2a.8.8,0,1,0-.8.8A.8.8,0,0,0,124.59,143.1Zm-2.67,3.2a.8.8,0,1,0-.8.8A.8.8,0,0,0,121.92,146.3Zm-2.13-3.2a.8.8,0,1,0-.8.8A.8.8,0,0,0,119.79,143.1Zm-2.67,3.2a.8.8,0,1,0-.8.8A.8.8,0,0,0,117.12,146.3ZM115,143.1a.81.81,0,1,0-.81.8A.8.8,0,0,0,115,143.1Zm-2.67,3.2a.8.8,0,1,0-.8.8A.8.8,0,0,0,112.32,146.3Z"/><path class="cls-3" d="M132.38,182.36a.86.86,0,0,1,0,.39,1.33,1.33,0,0,1-.13.35l-.17.28-4.14,6.8a1.09,1.09,0,0,1-.92.51H110.45a1.08,1.08,0,0,1-.91-.51l-4.17-6.8-.17-.29a.85.85,0,0,1-.14-.34.9.9,0,0,1,0-.4l2.5-13.91h22.32Zm-7.79-4a.8.8,0,1,0-1.6,0,.8.8,0,0,0,1.6,0Zm-1.6,8a.8.8,0,1,0-.8.8A.8.8,0,0,0,123,186.32Zm-1.6-12.81a.8.8,0,1,0-.8.8A.8.8,0,0,0,121.39,173.51Zm-1.6,6.4a.8.8,0,1,0-1.6,0,.8.8,0,0,0,1.6,0Zm-1.6,6.41a.8.8,0,0,0-.81-.8.8.8,0,0,0,0,1.6A.8.8,0,0,0,118.19,186.32Zm-1.6-14.41a.8.8,0,0,0-.81-.8.8.8,0,0,0,0,1.6A.8.8,0,0,0,116.59,171.91Zm0,4.8a.8.8,0,0,0-.81-.8.8.8,0,0,0,0,1.6A.8.8,0,0,0,116.59,176.71Z"/><path class="cls-3" d="M125.92,145.5a.8.8,0,1,1-.8.8A.8.8,0,0,1,125.92,145.5Z"/><path class="cls-3" d="M123.79,142.3a.8.8,0,1,1-.8.8A.8.8,0,0,1,123.79,142.3Z"/><path class="cls-4" d="M123.79,177.51a.8.8,0,1,1,0,1.6.8.8,0,1,1,0-1.6Z"/><path class="cls-4" d="M122.19,185.52a.8.8,0,1,1-.8.8A.8.8,0,0,1,122.19,185.52Z"/><path class="cls-3" d="M121.12,145.5a.8.8,0,1,1-.8.8A.8.8,0,0,1,121.12,145.5Z"/><path class="cls-4" d="M120.59,172.71a.8.8,0,1,1-.8.8A.8.8,0,0,1,120.59,172.71Z"/><path class="cls-3" d="M119,142.3a.8.8,0,1,1-.8.8A.8.8,0,0,1,119,142.3Z"/><path class="cls-4" d="M119,179.11a.8.8,0,0,1,0,1.6.8.8,0,1,1,0-1.6Z"/><path class="cls-4" d="M117.38,185.52a.8.8,0,1,1,0,1.6.8.8,0,0,1,0-1.6Z"/><path class="cls-3" d="M116.32,145.5a.8.8,0,1,1-.8.8A.8.8,0,0,1,116.32,145.5Z"/><path class="cls-4" d="M115.78,171.11a.8.8,0,1,1,0,1.6.8.8,0,0,1,0-1.6Z"/><path class="cls-4" d="M115.78,175.91a.8.8,0,1,1,0,1.6.8.8,0,0,1,0-1.6Z"/><path class="cls-3" d="M114.18,142.3a.8.8,0,1,1-.8.8A.8.8,0,0,1,114.18,142.3Z"/><path class="cls-3" d="M111.52,145.5a.8.8,0,1,1-.8.8A.8.8,0,0,1,111.52,145.5Z"/><path class="cls-5" d="M130.06,151.37l5.48,30.42a4.47,4.47,0,0,1,0,1.59,4.37,4.37,0,0,1-.54,1.39l-4.31,7.07a4.25,4.25,0,0,1-3.65,2H110.45a4.26,4.26,0,0,1-3.63-2l-.72-1.17-3.63-5.92a4.17,4.17,0,0,1-.55-1.39,4.52,4.52,0,0,1,0-1.6l5.48-30.41"/><path class="cls-5" d="M130.06,151.37a2.89,2.89,0,0,0,2.91-2.85v0c0-4.22-6.38-7.63-14.25-7.63s-14.25,3.41-14.25,7.63v0a2.89,2.89,0,0,0,2.91,2.85Z"/></svg>