<svg id="Layer_1" data-name="Layer 1" xmlns="http://www.w3.org/2000/svg" viewBox="0 0 256 256"><defs><style>.cls-1{fill:#0e4e91;}.cls-2{fill:#abe7ff;}.cls-3{fill:#caf5fe;}.cls-4{fill:#2db5ff;}.cls-5{fill:#fff;}.cls-6{fill:none;stroke:#0e4e91;stroke-miterlimit:10;}</style></defs><path class="cls-1" d="M173.87,200.41l-.6-.95c1.69-1.07,3.36-2.2,5-3.37l.67.92C177.28,198.19,175.58,199.33,173.87,200.41ZM170,202.73c-1.76,1-3.58,1.93-5.4,2.78l-.48-1c1.79-.85,3.58-1.76,5.33-2.74Zm12.55-8.51-.72-.88c1.55-1.26,3.06-2.59,4.51-4l.78.83C185.61,191.6,184.07,192.94,182.5,194.22Zm7.81-7.21-.82-.78c1.37-1.44,2.72-2.95,4-4.48l.87.73C193.06,184,191.71,185.56,190.31,187Zm6.86-8.11-.91-.67c1.17-1.59,2.32-3.25,3.4-4.93l1,.61C199.53,175.61,198.36,177.29,197.17,178.9ZM203,170l-1-.56c1-1.73,1.92-3.52,2.77-5.32l1,.49C204.9,166.44,204,168.25,203,170Zm-73.67,43.65c-2,0-4.06,0-6.08-.12l.07-1.13c2,.11,4,.15,6,.13Zm78.33-53.2-1-.43c.77-1.84,1.47-3.73,2.1-5.61l1.08.35C209.11,156.68,208.39,158.6,207.62,160.46Zm-88.94,52.71c-2-.22-4-.51-6-.87l.2-1.11c2,.35,4,.64,5.94.85Zm92.39-62.74-1.09-.3c.53-1.92,1-3.88,1.4-5.84l1.11.23C212.09,146.5,211.61,148.49,211.07,150.43Zm-102.87,61c-2-.46-3.93-1-5.86-1.6l.34-1.08c1.91.58,3.86,1.12,5.78,1.56ZM213.29,140l-1.12-.17c.3-2,.52-4,.68-6L214,134C213.82,136,213.58,138,213.29,140ZM98,208.33c-1.89-.7-3.78-1.47-5.62-2.3l.47-1c1.82.82,3.69,1.58,5.55,2.27ZM214.2,129.44l-1.14,0c.05-2,0-4-.06-6l1.13,0C214.23,125.38,214.25,127.42,214.2,129.44ZM88.31,204.05c-1.8-.92-3.58-1.93-5.3-3l.59-1c1.7,1,3.45,2,5.22,2.93Zm125.5-85.24-1.12.11c-.2-2-.47-4-.81-5.94l1.12-.2C213.34,114.78,213.61,116.8,213.81,118.81Zm-157,57.41c-1-1.48-2-3-2.91-4.55l-.34-.58,1-.57.34.57c.9,1.52,1.88,3,2.88,4.5Zm-4.46-9.63-1,.52c-.93-1.79-1.81-3.63-2.61-5.49l1-.45C50.51,163,51.38,164.82,52.3,166.59ZM192.1,71.35c-1.31-1.5-2.69-3-4.09-4.38l.79-.8c1.42,1.42,2.82,2.92,4.15,4.44ZM48.05,157l-1.06.4c-.71-1.9-1.35-3.83-1.92-5.77l1.08-.31C46.71,153.22,47.35,155.14,48.05,157Zm136.7-93.11c-1.48-1.33-3-2.62-4.61-3.84l.7-.89c1.59,1.23,3.16,2.55,4.66,3.89ZM45,147l-1.11.26q-.69-3-1.19-6l1.12-.19C44.15,143.06,44.54,145,45,147ZM176.53,57.4c-1.64-1.13-3.33-2.22-5-3.24l.58-1c1.73,1,3.44,2.14,5.1,3.28ZM43.22,136.63l-1.13.12c-.22-2-.37-4-.44-6.07l1.13,0C42.85,132.64,43,134.65,43.22,136.63ZM167.57,52c-1.77-.93-3.58-1.8-5.4-2.6l.46-1c1.84.8,3.69,1.69,5.47,2.63ZM42.73,126.15l-1.13,0c0-2,.14-4.06.31-6.07l1.12.1C42.86,122.14,42.76,124.16,42.73,126.15ZM158,47.67c-1.86-.69-3.76-1.34-5.67-1.91l.33-1.09c1.93.57,3.86,1.23,5.75,1.94Zm-114.47,68-1.12-.15c.27-2,.63-4,1-6l1.11.24C44.16,111.73,43.81,113.71,43.54,115.68ZM148,44.58c-1.93-.46-3.9-.87-5.87-1.2l.19-1.12c2,.34,4,.75,5.95,1.23ZM59.06,77.17l-.92-.67c1.19-1.62,2.44-3.23,3.74-4.77l.87.73C61.47,74,60.23,75.57,59.06,77.17Zm47.37-32.26c-1.93.5-3.86,1.09-5.74,1.72l-.36-1.07c1.91-.65,3.86-1.24,5.81-1.74ZM65.74,69.1l-.83-.77c1.38-1.47,2.83-2.91,4.31-4.28l.76.82C68.53,66.24,67.1,67.65,65.74,69.1ZM96.46,48.19c-1.84.73-3.69,1.55-5.48,2.41l-.49-1c1.81-.88,3.68-1.69,5.55-2.45ZM73.37,61.92l-.72-.87c1.55-1.29,3.16-2.54,4.8-3.72l.66.92C76.5,59.41,74.9,60.65,73.37,61.92ZM87,52.65c-1.75,1-3.49,2-5.16,3.07l-.61-.95c1.69-1.08,3.45-2.13,5.22-3.11Z"/><circle class="cls-2" cx="128.2" cy="126.67" r="66.38"/><path class="cls-3" d="M159.35,138.58h-19.6s.12-5.72.25-11.47a12.75,12.75,0,0,1,11.93-12.44c6.08-.38,12.25-.79,12.25-.79v12.35l-2.51,1a3.89,3.89,0,0,0-2.52,3.71C159.23,134,159.35,138.58,159.35,138.58Z"/><polygon class="cls-4" points="169.47 129.42 169.47 130.69 164.18 130.69 164.18 126.23 164.18 113.89 164.18 110.98 169.47 110.98 169.47 112.61 169.47 129.42"/><polygon class="cls-5" points="197.78 91.48 197.78 97.05 181.74 97.05 181.74 96.96 181.74 91.48 197.78 91.48"/><path class="cls-5" d="M197.78,112.1v12.19a5.12,5.12,0,0,1-5.11,5.13h-23.2V112.61h12.39v-4.94h15.92Z"/><polygon class="cls-4" points="199.56 87.92 199.56 91.48 197.78 91.48 181.74 91.48 179.7 91.48 179.7 87.92 199.56 87.92"/><polygon class="cls-4" points="199.56 97.05 199.56 107.67 197.78 107.67 181.86 107.67 179.7 107.67 179.7 97.05 181.74 97.05 197.78 97.05 199.56 97.05"/><line class="cls-6" x1="181.74" y1="91.48" x2="181.74" y2="96.96"/><line class="cls-6" x1="197.78" y1="97.05" x2="197.78" y2="91.48"/><polyline class="cls-6" points="181.86 107.81 181.86 112.61 169.47 112.61"/><path class="cls-6" d="M169.73,129.42h22.94a5.12,5.12,0,0,0,5.11-5.13V107.67"/><polygon class="cls-6" points="181.86 107.67 179.7 107.67 179.7 97.05 181.74 97.05 197.78 97.05 199.56 97.05 199.56 107.67 197.78 107.67 181.86 107.67"/><polygon class="cls-6" points="181.74 91.48 179.7 91.48 179.7 87.92 199.56 87.92 199.56 91.48 197.78 91.48 181.74 91.48"/><polygon class="cls-6" points="164.18 113.89 164.18 110.98 169.47 110.98 169.47 112.61 169.47 129.42 169.47 130.69 164.18 130.69 164.18 126.23 164.18 113.89"/><path class="cls-6" d="M139.75,138.58s.12-5.72.25-11.47a12.75,12.75,0,0,1,11.93-12.44c6.08-.38,12.25-.79,12.25-.79"/><path class="cls-6" d="M159.35,138.58s-.12-4.6-.2-7.69a3.89,3.89,0,0,1,2.52-3.71l2.51-1"/><path class="cls-6" d="M149.13,136a15.78,15.78,0,0,1,5.4-11.67"/><path class="cls-6" d="M153.55,121.53a20,20,0,0,1,7.14-3.56"/><path class="cls-6" d="M154.49,134.56a19.38,19.38,0,0,1,.82-4,12.63,12.63,0,0,1,5.7-6.34"/><polyline class="cls-6" points="135.68 138.58 139.75 138.58 159.35 138.58 201.34 138.58"/><path class="cls-5" d="M106.4,151.66a21.55,21.55,0,1,1-21.54,21.55A21.55,21.55,0,0,1,106.4,151.66Zm18.71,21.55a18.7,18.7,0,1,0-18.71,18.7A18.71,18.71,0,0,0,125.11,173.21Z"/><path class="cls-5" d="M106.4,154.51a18.7,18.7,0,1,1-18.69,18.7A18.71,18.71,0,0,1,106.4,154.51Zm8.53,18.85a2.3,2.3,0,1,0-2.31,2.31A2.3,2.3,0,0,0,114.93,173.36ZM111.7,168a2.31,2.31,0,1,0-2.3,2.31A2.3,2.3,0,0,0,111.7,168Zm0,10.6a2.31,2.31,0,1,0-2.3,2.3A2.31,2.31,0,0,0,111.7,178.58Zm-3.41-5.37a1.89,1.89,0,1,0-1.89,1.88A1.89,1.89,0,0,0,108.29,173.21ZM105.72,168a2.31,2.31,0,1,0-2.3,2.31A2.3,2.3,0,0,0,105.72,168Zm0,10.6a2.31,2.31,0,1,0-2.3,2.3A2.31,2.31,0,0,0,105.72,178.58Zm-3.23-5.22a2.3,2.3,0,1,0-2.31,2.31A2.3,2.3,0,0,0,102.49,173.36Z"/><path class="cls-4" d="M112.62,171.06a2.31,2.31,0,1,1-2.29,2.3A2.3,2.3,0,0,1,112.62,171.06Z"/><circle class="cls-4" cx="109.4" cy="167.98" r="2.3"/><circle class="cls-4" cx="109.4" cy="178.58" r="2.3"/><path class="cls-4" d="M106.4,171.32a1.89,1.89,0,1,1-1.88,1.89A1.89,1.89,0,0,1,106.4,171.32Z"/><circle class="cls-4" cx="103.42" cy="167.98" r="2.3"/><circle class="cls-4" cx="103.42" cy="178.58" r="2.3"/><path class="cls-4" d="M100.18,171.06a2.31,2.31,0,1,1-2.29,2.3A2.3,2.3,0,0,1,100.18,171.06Z"/><path class="cls-6" d="M128,173.21a21.55,21.55,0,1,1-21.56-21.55A21.55,21.55,0,0,1,128,173.21Z"/><path class="cls-6" d="M125.11,173.21a18.7,18.7,0,1,1-18.71-18.7A18.71,18.71,0,0,1,125.11,173.21Z"/><path class="cls-6" d="M108.29,173.21a1.89,1.89,0,1,1-1.89-1.89A1.88,1.88,0,0,1,108.29,173.21Z"/><path class="cls-5" d="M177,159.67v34.65H142.3V159.67Zm-2.28,32.61V162.06H144.46v30.22Z"/><path class="cls-5" d="M174.67,162.06v30.22H144.46V162.06Zm-2.78,11.49v0a.91.91,0,0,0-.91-.91h-8.63a.92.92,0,0,0-.92.91v0a.92.92,0,0,0,.92.91H171A.91.91,0,0,0,171.89,173.55Zm0-3.61v0A.91.91,0,0,0,171,169h-8.63a.91.91,0,0,0-.92.91v0a.92.92,0,0,0,.92.91H171A.91.91,0,0,0,171.89,169.94Zm0-3.61v0a.91.91,0,0,0-.91-.91h-8.63a.92.92,0,0,0-.92.91v0a.92.92,0,0,0,.92.91H171A.91.91,0,0,0,171.89,166.33Zm-.7,22.33V180a.91.91,0,0,0-.91-.91h0a.91.91,0,0,0-.91.91v8.64a.91.91,0,0,0,.91.9h0A.91.91,0,0,0,171.19,188.66Zm-3.61,0V180a.91.91,0,0,0-.91-.91h0a.91.91,0,0,0-.91.91v8.64a.91.91,0,0,0,.91.9h0A.91.91,0,0,0,167.58,188.66Zm-3.61,0V180a.91.91,0,0,0-.91-.91h0a.91.91,0,0,0-.91.91v8.64a.91.91,0,0,0,.91.9h0A.91.91,0,0,0,164,188.66Zm-6.25-.7v0a.91.91,0,0,0-.91-.91h-8.63a.91.91,0,0,0-.91.91v0a.91.91,0,0,0,.91.91h8.63A.91.91,0,0,0,157.72,188Zm0-3.61v0a.91.91,0,0,0-.91-.91h-8.63a.91.91,0,0,0-.91.91v0a.91.91,0,0,0,.91.91h8.63A.91.91,0,0,0,157.72,184.35Zm0-3.61v0a.91.91,0,0,0-.91-.91h-8.63a.91.91,0,0,0-.91.91v0a.91.91,0,0,0,.91.91h8.63A.91.91,0,0,0,157.72,180.74Zm-.69-6.5v-8.63a.91.91,0,0,0-.9-.91h0a.91.91,0,0,0-.91.91v8.63a.91.91,0,0,0,.91.91h0A.9.9,0,0,0,157,174.24Zm-3.61,0v-8.63a.9.9,0,0,0-.9-.91h0a.91.91,0,0,0-.91.91v8.63a.91.91,0,0,0,.91.91h0A.9.9,0,0,0,153.42,174.24Zm-3.6,0v-8.63a.91.91,0,0,0-.91-.91h0a.91.91,0,0,0-.91.91v8.63a.91.91,0,0,0,.91.91h0A.91.91,0,0,0,149.82,174.24Z"/><rect class="cls-4" x="161.43" y="172.61" width="10.46" height="1.85" rx="0.91"/><rect class="cls-4" x="161.43" y="169" width="10.46" height="1.84" rx="0.91"/><rect class="cls-4" x="161.43" y="165.39" width="10.46" height="1.84" rx="0.91"/><path class="cls-4" d="M171.19,180v8.64a.91.91,0,0,1-.91.9h0a.91.91,0,0,1-.91-.9V180a.91.91,0,0,1,.91-.91h0A.91.91,0,0,1,171.19,180Z"/><path class="cls-4" d="M167.58,180v8.64a.91.91,0,0,1-.91.9h0a.91.91,0,0,1-.91-.9V180a.91.91,0,0,1,.91-.91h0A.91.91,0,0,1,167.58,180Z"/><rect class="cls-4" x="162.12" y="179.11" width="1.85" height="10.45" rx="0.91"/><rect class="cls-4" x="147.27" y="187.02" width="10.45" height="1.84" rx="0.9"/><rect class="cls-4" x="147.27" y="183.41" width="10.45" height="1.85" rx="0.9"/><rect class="cls-4" x="147.27" y="179.8" width="10.45" height="1.85" rx="0.9"/><path class="cls-4" d="M157,165.61v8.63a.9.9,0,0,1-.9.91h0a.91.91,0,0,1-.91-.91v-8.63a.91.91,0,0,1,.91-.91h0A.91.91,0,0,1,157,165.61Z"/><path class="cls-4" d="M153.42,165.61v8.63a.9.9,0,0,1-.9.91h0a.91.91,0,0,1-.91-.91v-8.63a.91.91,0,0,1,.91-.91h0A.9.9,0,0,1,153.42,165.61Z"/><rect class="cls-4" x="147.97" y="164.7" width="1.85" height="10.45" rx="0.91"/><rect class="cls-6" x="142.3" y="159.67" width="34.65" height="34.65"/><rect class="cls-6" x="144.46" y="162.06" width="30.21" height="30.22"/><path class="cls-3" d="M97,103.67a13.32,13.32,0,0,0,3.47.27h.17c3,0,6-.63,7.69-1.75h0c3.4-1.68,4.12-3.93,4.12-3.93a4.06,4.06,0,0,1,1.82,3.09c0,1.51-1.17,2.88-3.12,3.94a21.65,21.65,0,0,1-10.11,2.18A21.73,21.73,0,0,1,91,105.27c-1.94-1.06-3.11-2.43-3.11-3.94,0-1.3.88-2.51,2.39-3.5A8.7,8.7,0,0,0,97,103.67Z"/><path class="cls-5" d="M91,105.27a21.73,21.73,0,0,0,10.12,2.18,21.65,21.65,0,0,0,10.11-2.18v23a10.13,10.13,0,0,1-10.12,10.13H69.89V138c1.44-1.18,2.49-5.37,2.49-10.35,0-5.66-1.36-10.31-3.1-10.66v0H91Z"/><path class="cls-5" d="M101.07,95.22c4.86,0,9.11,1.21,11.41,3,0,0-.72,2.25-4.12,3.93h0A19.65,19.65,0,0,1,97,103.67a8.7,8.7,0,0,1-6.78-5.84C92.62,96.25,96.59,95.22,101.07,95.22Z"/><path class="cls-5" d="M100.65,103.93a19.33,19.33,0,0,0,7.69-1.75C106.65,103.3,103.62,103.9,100.65,103.93Z"/><path class="cls-5" d="M100.65,103.93h-.17a13.32,13.32,0,0,1-3.47-.27A19.38,19.38,0,0,0,100.65,103.93Z"/><path class="cls-3" d="M69.28,117c1.74.35,3.1,5,3.1,10.66,0,5-1,9.17-2.49,10.35a1.28,1.28,0,0,1-.82.34c-1.84,0-3.32-4.78-3.32-10.69S67.23,117,69.07,117A.76.76,0,0,1,69.28,117Z"/><polyline class="cls-6" points="90.95 105.28 90.95 116.97 69.29 116.97"/><path class="cls-6" d="M111.18,105.27v23a10.13,10.13,0,0,1-10.12,10.13H69.74"/><path class="cls-6" d="M69.28,117c1.74.35,3.1,5,3.1,10.66,0,5-1,9.17-2.49,10.35a1.28,1.28,0,0,1-.82.34c-1.84,0-3.32-4.78-3.32-10.69S67.23,117,69.07,117A.76.76,0,0,1,69.28,117Z"/><path class="cls-6" d="M97.67,128.21A25.61,25.61,0,0,0,91,117"/><path class="cls-6" d="M91,105.27c-1.94-1.06-3.11-2.43-3.11-3.94,0-1.3.88-2.51,2.39-3.5,2.39-1.58,6.36-2.61,10.84-2.61,4.86,0,9.11,1.21,11.41,3a4.06,4.06,0,0,1,1.82,3.09c0,1.51-1.17,2.88-3.12,3.94a21.65,21.65,0,0,1-10.11,2.18A21.73,21.73,0,0,1,91,105.27Z"/><path class="cls-6" d="M108.36,102.17a4.22,4.22,0,0,0,.64-.51"/><path class="cls-6" d="M92.71,101.66c.66,1,2.29,1.67,4.3,2a19.38,19.38,0,0,0,3.64.26c3,0,6-.63,7.69-1.75"/><path class="cls-3" d="M109.48,70.34c1.46,0,2.64,3.8,2.64,8.48s-1.18,8.47-2.64,8.47-2.65-3.8-2.65-8.47S108,70.34,109.48,70.34Z"/><path class="cls-3" d="M141.49,56.65c-4.15,5.25-17,5.39-20.82.05,1.22-2.13,5.43-3.7,10.42-3.7S140.22,54.54,141.49,56.65Z"/><path class="cls-5" d="M141.88,58c0,1.32-1.11,2.52-2.93,3.41A18.29,18.29,0,0,1,131.09,63a17.42,17.42,0,0,1-8.43-1.88c-1.48-.84-2.36-1.93-2.36-3.1a2.53,2.53,0,0,1,.37-1.29c3.81,5.34,16.67,5.2,20.82-.05A2.6,2.6,0,0,1,141.88,58Z"/><path class="cls-5" d="M139,70.34l8.13.52h2.71l2.6-.52c2.84,3.42,3.25,14.55,0,17h-43c1.46,0,2.64-3.8,2.64-8.47s-1.18-8.48-2.64-8.48h13.18V61.1h0A17.42,17.42,0,0,0,131.09,63,18.29,18.29,0,0,0,139,61.4l.07.14Z"/><path class="cls-6" d="M141.49,56.65a2.6,2.6,0,0,1,.39,1.34c0,1.32-1.11,2.52-2.93,3.41A18.29,18.29,0,0,1,131.09,63a17.42,17.42,0,0,1-8.43-1.88c-1.48-.84-2.36-1.93-2.36-3.1a2.53,2.53,0,0,1,.37-1.29c1.22-2.13,5.43-3.7,10.42-3.7S140.22,54.54,141.49,56.65Z"/><path class="cls-6" d="M141.34,56.82l.15-.17"/><path class="cls-6" d="M123.27,58.92c4.29,2.38,11.35,2.28,15.7-.19"/><path class="cls-6" d="M122.66,61.1v9.33a20.86,20.86,0,0,1,5.48,9.16"/><path class="cls-6" d="M109.05,70.34h.43l2.08.44a1.21,1.21,0,0,0,.83-.12l.24-.13a1.11,1.11,0,0,1,.74-.1l.9.43c.63,0,.92-.46,1.11-.52h7.28"/><path class="cls-6" d="M139,61.54v8.8h6.41l1.18.69a1.16,1.16,0,0,0,1.3-.09h0a1.06,1.06,0,0,1,1.41.08h0a.67.67,0,0,0,.9.06l1-.79,1.24,0c2.84,3.42,3.25,14.55,0,17h-1.25l-.57-.26a2.18,2.18,0,0,0-1.82,0h0a1.31,1.31,0,0,1-1.06,0l-.18-.08a2.14,2.14,0,0,0-1.77,0l-.54.27H119.61l-2.15-.14a1.64,1.64,0,0,1-.32-.05l-.75-.17a1.88,1.88,0,0,0-.85,0l-.88.21a1.37,1.37,0,0,1-.85,0l-.74-.23a2.6,2.6,0,0,0-1.19-.07l-2.4.44"/><path class="cls-6" d="M139,70.34c-2.66,3.09-4.61,6.17-5.15,9.25"/><path class="cls-6" d="M109.48,70.34c1.46,0,2.64,3.8,2.64,8.48s-1.18,8.47-2.64,8.47-2.65-3.8-2.65-8.47S108,70.34,109.48,70.34Z"/></svg>