<svg xmlns="http://www.w3.org/2000/svg" id="Layer_1" data-name="Layer 1" viewBox="32.12 30.2 191.76 195.6"><defs><style>.cls-3{fill:#2db5ff}.cls-4{fill:#fff}.cls-5{fill:#caf5fe}.cls-6{fill:none;stroke:#0e4e91;stroke-linecap:round;stroke-linejoin:round}</style></defs><path d="m142.39 225-.17-1.28c2.25-.28 4.5-.65 6.71-1.09l.25 1.26c-2.24.47-4.52.85-6.79 1.11zm-5.14.52c-2.28.17-4.6.26-6.87.28v-1.29c2.25 0 4.53-.1 6.79-.27zm17-2.77-.32-1.25c2.19-.56 4.38-1.2 6.52-1.91l.4 1.22c-2.2.75-4.42 1.4-6.63 1.97zm11.46-3.69-.47-1.2c2.1-.82 4.19-1.73 6.23-2.7l.55 1.16a95.125 95.125 0 0 1-6.34 2.77zm10.88-5.06-.61-1.13c2-1.07 3.94-2.23 5.85-3.45l.69 1.09a91.047 91.047 0 0 1-5.93 3.49zm10.2-6.38-.75-1c1.84-1.32 3.65-2.71 5.38-4.15l.82 1c-1.76 1.42-3.59 2.83-5.45 4.16zm-96.56 9.78c-2.09-.93-4.17-1.95-6.19-3l.6-1.13c2 1.06 4 2.06 6.11 3zm105.9-17.4-.87-.94c1.66-1.53 3.29-3.14 4.83-4.77l.94.88a76.856 76.856 0 0 1-4.9 4.83zM79.54 211.84c-2-1.18-3.89-2.44-5.77-3.75l.74-1.05c1.85 1.29 3.76 2.54 5.69 3.7zm124.93-20.48-1-.83c1.46-1.72 2.88-3.51 4.22-5.33l1 .76a62.93 62.93 0 0 1-4.22 5.4zM70.42 204l-.79 1c-1.8-1.41-3.57-2.9-5.27-4.43M60.62 197c-1.61-1.62-3.19-3.32-4.68-5l1-.84c1.47 1.7 3 3.38 4.62 5zm-8-9c-1.4-1.8-2.76-3.68-4-5.57l1.07-.72c1.25 1.87 2.59 3.72 4 5.5zM33.5 144.33c-.34-2-.62-4.05-.83-6.07l-.08-.75 1.28-.13.07.74c.21 2 .49 4 .82 6zm0-12-1.28.06c-.1-2.28-.13-4.6-.07-6.88h1.28c-.05 2.25-.03 4.54.07 6.79zM222.65 101a95.33 95.33 0 0 0-2.12-6.45l1.2-.44c.79 2.13 1.51 4.33 2.15 6.54zm-189 19.41-1.28-.1c.18-2.28.44-4.58.78-6.84l1.26.19c-.29 2.24-.55 4.51-.72 6.76zm185-30.59c-.89-2.07-1.87-4.14-2.9-6.14l1.14-.59c1.05 2 2 4.12 2.94 6.22zM35.34 108.66l-1.26-.26c.46-2.24 1-4.49 1.62-6.7l1.24.34c-.61 2.18-1.15 4.41-1.6 6.62zm177.94-29.43a95.242 95.242 0 0 0-3.63-5.73l1.06-.72a94.53 94.53 0 0 1 3.68 5.8zM38.44 97.17l-1.21-.41c.72-2.17 1.54-4.33 2.43-6.45l1.18.49c-.84 2.09-1.68 4.2-2.4 6.37zm168.22-27.79a98.265 98.265 0 0 0-4.31-5.24l1-.85c1.51 1.71 3 3.5 4.37 5.31zM42.94 86.15l-1.16-.55c1-2.06 2.07-4.11 3.21-6.1l1.11.64c-1.1 1.96-2.19 3.98-3.16 6.01zm155.94-25.74a99.073 99.073 0 0 0-4.93-4.68l.85-1c1.72 1.52 3.4 3.11 5 4.74zM48.75 75.78l-1.08-.69c1.24-1.92 2.56-3.83 3.93-5.66l1 .77c-1.33 1.8-2.6 3.69-3.85 5.58zM147.15 33c-2.22-.41-4.48-.73-6.72-1l.13-1.28c2.28.25 4.57.58 6.82 1zm-11.8-1.39c-2.25-.12-4.53-.17-6.79-.13V30.2c2.29 0 4.6 0 6.88.13zm-30.29 3.11-.33-1.24c2.21-.58 4.46-1.1 6.71-1.53l.24 1.26c-2.22.42-4.44.93-6.62 1.5zm18.41-3c-2.26.15-4.53.39-6.76.7l-.18-1.28c2.26-.31 4.56-.54 6.85-.7z" style="fill:#0e4e91"/><circle cx="129.18" cy="124.88" r="76.55" style="fill:#abe7ff"/><path class="cls-3" d="m101.62 178 .82 16.46H82.2L83 178a9.31 9.31 0 0 1 18.59 0z"/><path class="cls-4" d="M140.47 192v7.59a1.26 1.26 0 0 1-1.27 1.26h-21.5a1.26 1.26 0 0 1-1.27-1.26V192z"/><path class="cls-5" d="M116.43 160.34h24.04v31.64h-24.04z"/><path class="cls-4" d="M140.47 152.75v7.59h-24v-7.59a3.8 3.8 0 0 1 3.79-3.8h16.46a3.79 3.79 0 0 1 3.75 3.8z"/><path class="cls-4" d="M121.49 145.16h13.91v3.8h-13.91z"/><path class="cls-3" d="m130.35 128.7 1.26 10.12h-6.32l1.27-10.12h3.79zm6.33 10.12v6.34h-16.46v-6.34h16.46zm-41.83-11.38 1.27 10.12h-7.59l1.27-10.12h5.05zm6.4 10.12v7.6H83.53v-7.6h17.72z"/><path class="cls-4" d="M108.69 195.22a5.36 5.36 0 0 1-.88 3.21 5.27 5.27 0 0 1-4.4 2.4H81.24a5.27 5.27 0 0 1-4.41-2.4 5.44 5.44 0 0 1-.89-3.21l1-19.77a24.81 24.81 0 0 1 2-8.86L84 155a25 25 0 0 0 2-9.83h12.65a24.79 24.79 0 0 0 2 9.83l5 11.6a24.91 24.91 0 0 1 2 8.86zm-6.25-.72-.82-16.5A9.31 9.31 0 0 0 83 178l-.8 16.5z"/><path class="cls-6" d="M98.65 145.16a24.79 24.79 0 0 0 2 9.83l5 11.6a24.91 24.91 0 0 1 2 8.86l1 19.77a5.36 5.36 0 0 1-.88 3.21 5.27 5.27 0 0 1-4.4 2.4H81.24a5.27 5.27 0 0 1-4.41-2.4 5.44 5.44 0 0 1-.89-3.21l1-19.77a24.81 24.81 0 0 1 2-8.86L84 155a25 25 0 0 0 2-9.83m0-.01h-2.47v-7.6h17.72v7.6H86zm2.53-7.6 1.27-10.12h5.05l1.27 10.12m25.37 7.6h-1.27v-6.34h16.46v6.34h-1.27m-10.12-6.34 1.27-10.12h3.79l1.26 10.12"/><path class="cls-6" d="M102.44 194.5H82.2L83 178a9.31 9.31 0 0 1 18.59 0zm32.97-45.5h1.27a3.79 3.79 0 0 1 3.79 3.8v7.59m-24.04-.05v-7.59a3.8 3.8 0 0 1 3.79-3.8h1.27M140.47 192v7.59a1.26 1.26 0 0 1-1.27 1.26h-21.5a1.26 1.26 0 0 1-1.27-1.26V192"/><path class="cls-6" d="M121.49 145.16h13.91v3.8h-13.91zm-5.06 15.18h24.04v31.64h-24.04z"/><path class="cls-4" d="M91.94 179.66h.21c2.85 0 5.16 2 5.16 4.41a.37.37 0 0 1-.2.44 1.36 1.36 0 0 1-.51.17c-.89.15-2.31-.66-3-.58s-.5 1.05-1.58 1.08-.48-.7-2.09-1c-1.74.74-2.43.67-2.71.39A.82.82 0 0 1 87 184c-.1-2.35 2.22-4.24 4.94-4.34z"/><path class="cls-5" d="M97.11 184.51v.43a5 5 0 0 1-10 0v-.37c.28.28 1 .35 2.71-.39 1.61.3 1 1 2.09 1s.86-1 1.58-1.08 2.14.73 3 .58a1.36 1.36 0 0 0 .51-.17z"/><path class="cls-6" d="M97.11 184.51v.43a5 5 0 0 1-10 0v-.37"/><path class="cls-6" d="M97.11 184.51a.37.37 0 0 0 .2-.44c0-2.43-2.31-4.41-5.16-4.41h-.21c-2.72.1-5 2-5 4.33a.82.82 0 0 0 .2.58c.28.28 1 .35 2.71-.39 1.61.3 1 1 2.09 1s.86-1 1.58-1.08 2.14.73 3 .58a1.36 1.36 0 0 0 .59-.17z"/><path class="cls-6" d="M91.93 180v-.34c.06-.78.33-2.72 1.56-3.09"/><text transform="translate(119.93 177.85)" style="font-size:7.3px;font-family:Linotte-Heavy;font-weight:800;fill:#2db5ff">ma<tspan x="10.31" y="0" style="letter-spacing:-.01em">y</tspan><tspan x="14.11" y="0">o</tspan></text><path class="cls-4" d="M112.5 67.37V100c-6.45 12.31-38.43 11.14-46.77 0V67.37c0 5.77 10.46 10.45 23.4 10.45s23.37-4.68 23.37-10.45z"/><path class="cls-3" d="M89.13 56.88c12.9 0 23.37 4.69 23.37 10.49S102 77.82 89.13 77.82s-23.4-4.68-23.4-10.45 10.46-10.49 23.4-10.49zM89 73.24c10.24 0 17-3 17-5.77-.39-3.63-6.77-5.74-17-5.74s-17 3.46-17 5.74c.26 2.64 6.79 5.77 17 5.77z"/><path class="cls-4" d="M106.05 67.47c0 2.79-6.77 5.77-17 5.77s-16.78-3.13-17-5.77c0-2.28 6.75-5.74 17-5.74s16.61 2.11 17 5.74z"/><path class="cls-6" d="M112.5 67.37c0 5.77-10.47 10.45-23.37 10.45s-23.4-4.68-23.4-10.45 10.46-10.49 23.4-10.49 23.37 4.69 23.37 10.49z"/><path class="cls-6" d="M106.05 67.47c0 2.79-6.77 5.77-17 5.77s-16.78-3.13-17-5.77c0-2.28 6.75-5.74 17-5.74s16.61 2.11 17 5.74z"/><path class="cls-6" d="M65.73 67.37V100c8.34 11.14 40.32 12.31 46.77 0V67.37"/><path class="cls-5" d="M96.6 89.37a17.22 17.22 0 0 1 5.45 3.46 16.24 16.24 0 0 1-7.51 4 11.28 11.28 0 0 1-1.86.18h-.77a17.46 17.46 0 0 1-8.47-3.49h-1.31A8.68 8.68 0 0 1 80.36 95a5.3 5.3 0 0 1-3.07.45 7.52 7.52 0 0 1 1.83-2.22 17.17 17.17 0 0 1-1.76-2.76 3.38 3.38 0 0 1 1.83-.17c1.07.19 2.88 2 2.88 2h1.42A20.32 20.32 0 0 1 88 89.65a12.2 12.2 0 0 1 4.68-1 10.52 10.52 0 0 1 1.62.13 12.71 12.71 0 0 1 2.3.59zm2.18 2.55a.66.66 0 0 0-1.32 0 .66.66 0 0 0 1.32 0z"/><path class="cls-5" d="M92.8 85.51c.51-.16 1.92 1.51 1.5 3.25a10.52 10.52 0 0 0-1.62-.13 12.2 12.2 0 0 0-4.68 1l2.49-2.44s1.06.3 1.45-.2.35-1.33.86-1.48zm1.74 11.36a3.85 3.85 0 0 1-3.32 3 4.24 4.24 0 0 0 .69-2.87h.77a11.28 11.28 0 0 0 1.86-.13z"/><path class="cls-6" d="M88 89.65a20.32 20.32 0 0 0-4.51 2.62h-1.42s-1.81-1.83-2.88-2a3.38 3.38 0 0 0-1.83.17 17.17 17.17 0 0 0 1.76 2.76 7.52 7.52 0 0 0-1.83 2.22 5.3 5.3 0 0 0 3.07-.42 8.68 8.68 0 0 0 1.77-1.45h1.31A17.46 17.46 0 0 0 91.91 97h.77a11.28 11.28 0 0 0 1.86-.18 16.24 16.24 0 0 0 7.51-4 17.22 17.22 0 0 0-5.45-3.46 12.71 12.71 0 0 0-2.3-.61 10.52 10.52 0 0 0-1.62-.13A12.2 12.2 0 0 0 88 89.65z"/><path class="cls-6" d="M91.91 97a4.24 4.24 0 0 1-.69 2.83 3.85 3.85 0 0 0 3.32-3M88 89.64l2.49-2.44s1.06.3 1.45-.2.35-1.34.86-1.49 1.92 1.51 1.5 3.25m2.3.61a7.39 7.39 0 0 0-.38 4.6"/><circle class="cls-6" cx="98.12" cy="91.92" r=".66"/><path class="cls-4" d="M177.16 49.76v49.16c-5.37 10.25-32 9.28-39 0V49.76c0 4.81 8.72 8.71 19.49 8.71s19.51-3.9 19.51-8.71z"/><path class="cls-3" d="M157.69 41c10.75 0 19.47 3.9 19.47 8.73s-8.72 8.71-19.47 8.71-19.49-3.9-19.49-8.71S146.92 41 157.69 41zm-.07 13.62c8.53 0 14.17-2.48 14.17-4.8-.33-3-5.64-4.78-14.17-4.78s-14.16 2.96-14.16 4.81c.18 2.2 5.62 4.8 14.16 4.8z"/><path class="cls-5" d="M171.79 49.85c0 2.32-5.64 4.8-14.17 4.8s-14-2.6-14.16-4.8c0-1.9 5.62-4.78 14.16-4.78s13.84 1.75 14.17 4.78z"/><path class="cls-6" d="M177.16 49.76c0 4.81-8.72 8.71-19.47 8.71s-19.49-3.9-19.49-8.71S146.92 41 157.69 41s19.47 3.93 19.47 8.76z"/><path class="cls-6" d="M171.79 49.85c0 2.32-5.64 4.8-14.17 4.8s-14-2.6-14.16-4.8c0-1.9 5.62-4.78 14.16-4.78s13.84 1.75 14.17 4.78z"/><path class="cls-6" d="M138.2 49.76v49.16c7 9.28 33.59 10.25 39 0V49.76"/><path class="cls-4" d="M159.51 74.31h.85a.43.43 0 0 1 0 .85h-.84a.43.43 0 1 1 0-.85zm-.09 3.39h.85a.44.44 0 0 1 .41.44.43.43 0 0 1-.44.41h-.85a.43.43 0 1 1 0-.85zm-1.94-6.84a.42.42 0 0 1-.41-.43.43.43 0 0 1 .43-.42h.85a.42.42 0 0 1 0 .84zm-.16 5.94a.43.43 0 0 1 0-.85h.85a.43.43 0 0 1 0 .85zm.94-3.37h-.85A.43.43 0 0 1 157 73a.43.43 0 0 1 .44-.41h.84a.43.43 0 0 1 .42.44.44.44 0 0 1-.44.4zm-.16 5.93a.43.43 0 0 1 .41.44.42.42 0 0 1-.43.41h-.85a.43.43 0 0 1-.41-.44.42.42 0 0 1 .43-.41zM155.25 75a.42.42 0 1 1 0-.84h.85a.42.42 0 0 1 .41.43.43.43 0 0 1-.43.42zm.75 3.46h-.84a.44.44 0 0 1-.42-.44.43.43 0 0 1 .44-.41h.85a.43.43 0 0 1 .41.44.43.43 0 0 1-.44.41z"/><path class="cls-5" d="M158.7 73a.43.43 0 0 0-.42-.44h-.84a.43.43 0 0 0-.44.44.43.43 0 0 0 .41.44h.85a.44.44 0 0 0 .44-.44zm.37 1.7a.43.43 0 0 0 .42.44h.84a.43.43 0 0 0 0-.85h-.85a.43.43 0 0 0-.41.43zm-3.82.32h.85a.43.43 0 0 0 .43-.42.42.42 0 0 0-.41-.43h-.85a.42.42 0 1 0 0 .84zm-.09 3.4h.84a.43.43 0 0 0 .44-.41.43.43 0 0 0-.41-.44h-.85a.43.43 0 0 0-.44.41.44.44 0 0 0 .42.46zm4.26-.74a.43.43 0 1 0 0 .85h.85a.43.43 0 0 0 .44-.41.44.44 0 0 0-.41-.44zm-.91 2.1a.43.43 0 0 0-.41-.44h-.85a.42.42 0 0 0-.43.41.43.43 0 0 0 .41.44h.85a.42.42 0 0 0 .43-.39zm-1.19-3h.85a.43.43 0 0 0 0-.85h-.85a.43.43 0 0 0 0 .85zm.67-9.86c1.95.06 3.5 4.59 4.1 8.42a21.78 21.78 0 0 1 .25 3.58c-2.38 1.2-4.6 4-4.91 8.39-.07-3.73-1.55-6.93-3.43-8.22a6.86 6.86 0 0 0-1-.56 20 20 0 0 1 .47-3.56c.83-3.72 2.6-8.08 4.53-8.03zm.77 3.53a.41.41 0 0 0-.41-.43h-.85a.43.43 0 0 0-.43.42.42.42 0 0 0 .41.43h.85a.41.41 0 0 0 .43-.4z"/><path class="cls-3" d="M165.09 78.27c-1 .15-2.32 2.28-2.64 7.35a9.56 9.56 0 0 1-1.15 4.09 5.83 5.83 0 0 1-2.3 2.35v1.74a.86.86 0 0 1-.87.83h-1.7a.83.83 0 0 1-.82-.87v-1.75c-1.59-.95-3.05-3.2-3.12-6.88-.09-4.89-1.3-7-2.24-7.21a7.19 7.19 0 0 1 3.75 1.19c1.88 1.29 3.36 4.49 3.43 8.22.31-4.38 2.53-7.19 4.91-8.39a5.86 5.86 0 0 1 2.75-.67z"/><path class="cls-6" d="M153 78.54a20 20 0 0 1 .47-3.56c.81-3.73 2.58-8.09 4.5-8s3.5 4.59 4.1 8.42a21.78 21.78 0 0 1 .25 3.58"/><path class="cls-6" d="M162.34 78.94c-2.38 1.2-4.6 4-4.91 8.39-.07-3.73-1.55-6.93-3.43-8.22a7.19 7.19 0 0 0-3.74-1.24c.94.2 2.15 2.32 2.24 7.21.07 3.68 1.53 5.93 3.12 6.88v1.75a.83.83 0 0 0 .82.87h1.7a.86.86 0 0 0 .87-.83v-1.74a5.83 5.83 0 0 0 2.29-2.35 9.56 9.56 0 0 0 1.15-4.09c.32-5.07 1.67-7.2 2.64-7.35a5.86 5.86 0 0 0-2.75.72z"/><path class="cls-4" d="M214 130.81v30.1a10 10 0 0 1-9.86 10.09h-26.58a10 10 0 0 1-9.82-10.11v-30.1a10.07 10.07 0 0 1 7.37-9.79 9.46 9.46 0 0 1 2.45-.31h26.58a9.51 9.51 0 0 1 2.29.27 10.06 10.06 0 0 1 7.57 9.85zm-5.42-17.18v1.85a2.92 2.92 0 0 1-2.11 2.83 2.5 2.5 0 0 1-.72.1h-30.93a2.89 2.89 0 0 1-2.85-2.93v-1.85a2.89 2.89 0 0 1 2.85-2.93h30.93a2.88 2.88 0 0 1 2.83 2.93z"/><path class="cls-6" d="M206.47 118.31a2.5 2.5 0 0 1-.72.1h-30.93a2.89 2.89 0 0 1-2.85-2.93v-1.85a2.89 2.89 0 0 1 2.85-2.93h30.93a2.88 2.88 0 0 1 2.83 2.93v1.85a2.92 2.92 0 0 1-2.11 2.83zm-.04 2.69a10.06 10.06 0 0 1 7.53 9.83v30.1a10 10 0 0 1-9.82 10.07h-26.58a10 10 0 0 1-9.82-10.11v-30.1a10.07 10.07 0 0 1 7.37-9.79 9.46 9.46 0 0 1 2.45-.31h26.58a9.51 9.51 0 0 1 2.29.31zm-31.41-.29v-2.3m31.47 2.3v-2.3m-30.72-5.75v3.78m4.29-3.78v3.78m4.29-3.78v3.78m4.29-3.78v3.78m4.28-3.78v3.78m4.29-3.78v3.78m4.28-3.78v3.78m4.28-3.78v3.78"/><path class="cls-5" d="M186.27 135.35c1.46 4.67.7 18.3.63 20.41s-.61 9-4.08 9.78a2.06 2.06 0 0 1-2-.5h.18c3.47-.74 4-7.69 4.08-9.79s.82-15.74-.64-20.4a7.64 7.64 0 0 0-2.3-3.9 1.27 1.27 0 0 1 .28-.06s2.35-.18 3.81 4.49z"/><path class="cls-3" d="M182.45 130.86s-2.53.33-2.83 4.13c-.28 3.54.83 18.29-.08 23.88a9.54 9.54 0 0 0 .15 3.91c.42 1.58 1.3 3.16 3.13 2.77 3.47-.75 4-7.69 4.08-9.79s.83-15.74-.63-20.41-3.82-4.49-3.82-4.49z"/><path class="cls-6" d="M182.45 130.86s-2.53.33-2.83 4.13c-.28 3.54.83 18.29-.08 23.88a9.54 9.54 0 0 0 .15 3.91c.42 1.58 1.3 3.16 3.13 2.77 3.47-.75 4-7.69 4.08-9.79s.83-15.74-.63-20.41-3.82-4.49-3.82-4.49z"/><path class="cls-5" d="M181.32 131.64a18.35 18.35 0 0 0-.59 3.06l.13 1.46.2 2.1.31 3.38.29 3.24a4.1 4.1 0 0 1 0 1.05c0 .26-.12.5-.17.75-.22 1.16.33 2.35.18 3.52a8.7 8.7 0 0 0-.13.87 5.66 5.66 0 0 0 .12.81 13.2 13.2 0 0 1 .24 2.67 38.42 38.42 0 0 1-.65 6.15l-.57 3.63 1-2.46a.49.49 0 0 0 0-.39 1.19 1.19 0 0 0-.2-.19c-.18-.18-.14-.51-.09-.77.22-1.13.39-2.28.5-3.43 0-.27 0-.53.08-.8 0-.49.09-1 .12-1.47.07-1.14.07-2.28.07-3.42v-5.15c0-.84-.11-1.92-.19-2.88-.32-4-1.29-8.76-.66-11.72z"/><path class="cls-5" d="m182.11 133.91.48 2.11a24 24 0 0 1 .52 2.81c.13 1.29.06 2.61.22 3.9.12 1 .37 1.92.51 2.9a27.79 27.79 0 0 1 .19 3.29v2.39a25.87 25.87 0 0 0-.13 4.48 5.34 5.34 0 0 1 .05.69 3.11 3.11 0 0 1-.1.61l-1.42 6.09a5.24 5.24 0 0 1-.26.88 1.88 1.88 0 0 1-.8.89 1.39 1.39 0 0 0 1.23-1.08 12.16 12.16 0 0 0 .33-2 20.28 20.28 0 0 1 .74-2.88 9.36 9.36 0 0 0 .48-4 2.28 2.28 0 0 1 0-.44 1.61 1.61 0 0 1 .06-.44 16.24 16.24 0 0 0 .15-3.12v-4.17a30.67 30.67 0 0 0-.62-5.07c.53-2-.53-4-.64-6.06a6.67 6.67 0 0 0-.19-1.8c-.09-.27-.24-.51-.35-.77s-.19-1.63-.49-1.33.09 1.79.17 2.16zm-2.9 1.44c1.45 4.67.7 18.3.63 20.41s-.61 9-4.08 9.78a2 2 0 0 1-2-.5h.17c3.47-.74 4-7.69 4.08-9.79s.83-15.74-.63-20.4a7.57 7.57 0 0 0-2.31-3.9l.28-.06s2.36-.18 3.82 4.49z"/><path class="cls-3" d="M175.39 130.86s-2.53.33-2.83 4.13c-.28 3.54.83 18.29-.08 23.88a9.21 9.21 0 0 0 .15 3.91c.42 1.58 1.29 3.16 3.13 2.77 3.47-.75 4-7.69 4.08-9.79s.82-15.74-.63-20.41-3.82-4.49-3.82-4.49z"/><path class="cls-6" d="M175.39 130.86s-2.53.33-2.83 4.13c-.28 3.54.83 18.29-.08 23.88a9.21 9.21 0 0 0 .15 3.91c.42 1.58 1.29 3.16 3.13 2.77 3.47-.75 4-7.69 4.08-9.79s.82-15.74-.63-20.41-3.82-4.49-3.82-4.49z"/><path class="cls-5" d="M174.26 131.64a18.35 18.35 0 0 0-.59 3.06l.13 1.46.19 2.1.31 3.38.3 3.24a4.1 4.1 0 0 1 0 1.05c0 .26-.12.5-.17.75-.22 1.16.33 2.35.17 3.52a8.66 8.66 0 0 0-.12.87 3.78 3.78 0 0 0 .12.81 13.2 13.2 0 0 1 .24 2.67 39.6 39.6 0 0 1-.65 6.15l-.58 3.63 1-2.46a.49.49 0 0 0 0-.39.86.86 0 0 0-.19-.19.85.85 0 0 1-.09-.77c.22-1.13.38-2.28.5-3.43 0-.27 0-.53.08-.8 0-.49.08-1 .11-1.47.08-1.14.08-2.28.08-3.42v-5.15c0-.84-.1-1.92-.18-2.88-.32-4-1.3-8.76-.67-11.72z"/><path class="cls-5" d="m175.05 133.91.48 2.11a24 24 0 0 1 .51 2.81c.14 1.29.07 2.61.23 3.9.12 1 .37 1.92.51 2.9a25.81 25.81 0 0 1 .18 3.29v2.39a26.9 26.9 0 0 0-.13 4.48 4 4 0 0 1 .06.69 4.09 4.09 0 0 1-.1.61l-1.42 6.09a5.24 5.24 0 0 1-.26.88 1.85 1.85 0 0 1-.81.89 1.4 1.4 0 0 0 1.24-1.08 11.2 11.2 0 0 0 .32-2 21.72 21.72 0 0 1 .74-2.88 9.22 9.22 0 0 0 .49-4 2.28 2.28 0 0 1-.05-.44 2.12 2.12 0 0 1 .05-.44 15.48 15.48 0 0 0 .16-3.12v-4.17a31.78 31.78 0 0 0-.62-5.07c.53-2-.53-4-.65-6.06a6.67 6.67 0 0 0-.18-1.8c-.09-.27-.24-.51-.35-.77s-.19-1.63-.5-1.33.09 1.79.18 2.16zm19.23 1.45c1.46 4.67.71 18.3.64 20.4s-.62 9.05-4.09 9.79a2.06 2.06 0 0 1-2-.5h.17c3.47-.74 4-7.68 4.08-9.79s.82-15.73-.63-20.4a7.67 7.67 0 0 0-2.31-3.89 1.28 1.28 0 0 1 .28-.07s2.36-.18 3.81 4.5z"/><path class="cls-3" d="M190.47 130.86s-2.54.33-2.84 4.13c-.28 3.54.84 18.29-.07 23.88a9.37 9.37 0 0 0 .14 3.91c.42 1.58 1.3 3.16 3.13 2.77 3.47-.74 4-7.69 4.08-9.79s.83-15.73-.63-20.4-3.81-4.5-3.81-4.5z"/><path class="cls-6" d="M190.47 130.86s-2.54.33-2.84 4.13c-.28 3.54.84 18.29-.07 23.88a9.37 9.37 0 0 0 .14 3.91c.42 1.58 1.3 3.16 3.13 2.77 3.47-.74 4-7.69 4.08-9.79s.83-15.73-.63-20.4-3.81-4.5-3.81-4.5z"/><path class="cls-5" d="M189.33 131.65a18 18 0 0 0-.59 3l.14 1.47.19 2.09.31 3.38.29 3.24a4.18 4.18 0 0 1 0 1.06c0 .25-.12.49-.17.75-.22 1.15.33 2.35.18 3.51a6.5 6.5 0 0 0-.12.87 3.6 3.6 0 0 0 .12.81 13.36 13.36 0 0 1 .24 2.68 40.86 40.86 0 0 1-.65 6.14l-.58 3.63 1-2.46a.47.47 0 0 0 0-.38.89.89 0 0 0-.2-.19c-.18-.18-.14-.51-.09-.78.22-1.13.39-2.27.5-3.43 0-.26.06-.53.08-.8 0-.49.09-1 .12-1.47.07-1.14.07-2.27.08-3.41v-5.16c0-.85-.11-1.92-.19-2.88-.32-4-1.29-8.76-.66-11.72z"/><path class="cls-5" d="m190.12 133.91.48 2.12a24 24 0 0 1 .52 2.81c.13 1.29.06 2.6.22 3.89.12 1 .37 1.93.51 2.9a25.87 25.87 0 0 1 .19 3.3v2.38a27 27 0 0 0-.13 4.49 3.82 3.82 0 0 1 0 .68 3.11 3.11 0 0 1-.1.61l-1.42 6.09a6 6 0 0 1-.25.88 2 2 0 0 1-.81.89 1.38 1.38 0 0 0 1.23-1.08 12.22 12.22 0 0 0 .33-2 20.41 20.41 0 0 1 .74-2.89 9.33 9.33 0 0 0 .48-4 3.12 3.12 0 0 1-.05-.44 3 3 0 0 1 .06-.43 16.28 16.28 0 0 0 .16-3.12v-4.18a29.64 29.64 0 0 0-.62-5.07c.53-2-.53-4-.64-6.06a6.64 6.64 0 0 0-.19-1.79c-.09-.27-.24-.52-.35-.78s-.19-1.62-.49-1.32.09 1.78.17 2.15zm13.88 1.45c1.46-4.68 3.81-4.5 3.81-4.5a1.28 1.28 0 0 1 .28.07 7.6 7.6 0 0 0-2.3 3.89c-1.46 4.67-.71 18.3-.64 20.4s.61 9.05 4.08 9.79h.18a2.08 2.08 0 0 1-2 .5c-3.47-.74-4-7.69-4.08-9.79s-.83-15.73.63-20.4z"/><path class="cls-3" d="M207.76 130.86s-2.36-.17-3.81 4.5-.71 18.3-.63 20.4.61 9.05 4.08 9.79c1.83.39 2.71-1.19 3.13-2.77a9.54 9.54 0 0 0 .15-3.91c-.91-5.59.2-20.34-.08-23.88-.3-3.8-2.84-4.13-2.84-4.13z"/><path class="cls-6" d="M207.76 130.86s-2.36-.17-3.81 4.5-.71 18.3-.63 20.4.61 9.05 4.08 9.79c1.83.39 2.71-1.19 3.13-2.77a9.54 9.54 0 0 0 .15-3.91c-.91-5.59.2-20.34-.08-23.88-.3-3.8-2.84-4.13-2.84-4.13z"/><path class="cls-5" d="M208.91 131.65c.63 3-.34 7.7-.66 11.72-.08 1-.15 1.92-.19 2.88s0 1.69 0 2.53v2.63c0 1.14 0 2.27.08 3.41 0 .49.08 1 .12 1.47 0 .27 0 .54.08.8.11 1.16.28 2.3.5 3.43.05.27.09.6-.09.78a.89.89 0 0 0-.2.19.47.47 0 0 0 0 .38l1 2.46-.55-3.63a38.42 38.42 0 0 1-.65-6.14 12 12 0 0 1 .24-2.68 4.27 4.27 0 0 0 .11-.81 6.5 6.5 0 0 0-.12-.87c-.15-1.16.4-2.36.18-3.51-.05-.26-.13-.5-.17-.75a4.18 4.18 0 0 1 0-1.06l.29-3.24.31-3.38.19-2.09.14-1.47a18 18 0 0 0-.59-3z"/><path class="cls-5" d="M208.11 133.91c.08-.37.49-1.84.17-2.15s-.4 1.1-.49 1.32-.26.51-.35.78a6.64 6.64 0 0 0-.19 1.79c-.11 2-1.17 4.09-.64 6.06a29.64 29.64 0 0 0-.62 5.07v4.18a17.13 17.13 0 0 0 .16 3.12 2 2 0 0 1 .06.43 2.12 2.12 0 0 1 0 .44 9.33 9.33 0 0 0 .48 4 20.41 20.41 0 0 1 .74 2.89 12.22 12.22 0 0 0 .33 2 1.38 1.38 0 0 0 1.23 1.08 2 2 0 0 1-.81-.89 6 6 0 0 1-.25-.88l-1.42-6.09a3.11 3.11 0 0 1-.1-.61 5.06 5.06 0 0 1 .05-.68 27 27 0 0 0-.13-4.49v-2.38a27.84 27.84 0 0 1 .19-3.3c.14-1 .39-1.92.51-2.9.16-1.29.09-2.6.22-3.89a24 24 0 0 1 .52-2.81l.48-2.12zm-12.05 1.45c1.46-4.68 3.82-4.5 3.82-4.5a1.64 1.64 0 0 1 .28.07 7.53 7.53 0 0 0-2.31 3.89c-1.46 4.67-.7 18.3-.63 20.4s.61 9.05 4.08 9.79h.17a2.08 2.08 0 0 1-2 .5c-3.47-.74-4-7.69-4.08-9.79s-.82-15.73.63-20.4z"/><path class="cls-3" d="M199.88 130.86s-2.36-.17-3.82 4.5-.7 18.3-.63 20.4.61 9.05 4.08 9.79c1.83.39 2.71-1.19 3.13-2.77a9.37 9.37 0 0 0 .15-3.91c-.91-5.59.2-20.34-.08-23.88-.3-3.8-2.83-4.13-2.83-4.13z"/><path class="cls-6" d="M199.88 130.86s-2.36-.17-3.82 4.5-.7 18.3-.63 20.4.61 9.05 4.08 9.79c1.83.39 2.71-1.19 3.13-2.77a9.37 9.37 0 0 0 .15-3.91c-.91-5.59.2-20.34-.08-23.88-.3-3.8-2.83-4.13-2.83-4.13z"/><path class="cls-5" d="M201 131.65c.63 3-.35 7.7-.67 11.72-.08 1-.15 1.92-.18 2.88s0 1.69 0 2.53v2.63c0 1.14 0 2.27.08 3.41 0 .49.07 1 .11 1.47 0 .27.05.54.08.8.11 1.16.28 2.3.5 3.43 0 .27.09.6-.09.78a.69.69 0 0 0-.19.19.46.46 0 0 0 0 .38l1 2.46-.58-3.63a39.6 39.6 0 0 1-.65-6.14 13.36 13.36 0 0 1 .24-2.68 3.6 3.6 0 0 0 .12-.81q0-.44-.12-.87c-.16-1.16.39-2.36.17-3.51-.05-.26-.13-.5-.17-.75a4.18 4.18 0 0 1 0-1.06l.3-3.24.31-3.38.19-2.09.13-1.47a18 18 0 0 0-.59-3z"/><path class="cls-5" d="M200.22 133.91c.08-.37.49-1.84.18-2.15s-.41 1.1-.5 1.32-.26.51-.35.78a6.64 6.64 0 0 0-.18 1.79c-.12 2-1.18 4.09-.65 6.06a30.67 30.67 0 0 0-.62 5.07v4.18a15.51 15.51 0 0 0 .16 3.12 2 2 0 0 1 .05.43 2.12 2.12 0 0 1-.05.44 9.18 9.18 0 0 0 .49 4 23.54 23.54 0 0 1 .74 2.89 11.23 11.23 0 0 0 .32 2A1.39 1.39 0 0 0 201 165a1.85 1.85 0 0 1-.81-.89 5 5 0 0 1-.26-.88l-1.42-6.09a3.11 3.11 0 0 1-.1-.61 3.82 3.82 0 0 1 .06-.68 27 27 0 0 0-.13-4.49v-2.38a27.84 27.84 0 0 1 .19-3.3c.14-1 .39-1.92.51-2.9.16-1.29.09-2.6.23-3.89a24 24 0 0 1 .51-2.81l.48-2.12z"/></svg>