<svg id="Layer_1" data-name="Layer 1" xmlns="http://www.w3.org/2000/svg" viewBox="0 0 256 256"><defs><style>.cls-1{fill:#0e4e91;}.cls-2{fill:#abe7ff;}.cls-3,.cls-7{fill:#2db5ff;}.cls-4{fill:#fff;}.cls-5{fill:#caf5fe;}.cls-6{fill:none;stroke:#0e4e91;stroke-linecap:round;stroke-linejoin:round;}.cls-7{font-size:7.3px;font-family:Linotte-Heavy;font-weight:800;}.cls-8{letter-spacing:-0.01em;}</style></defs><path class="cls-1" d="M142.39,225l-.17-1.28c2.25-.28,4.5-.65,6.71-1.09l.25,1.26C146.94,224.36,144.66,224.74,142.39,225Zm-5.14.52c-2.28.17-4.6.26-6.87.28v-1.29c2.25,0,4.53-.1,6.79-.27Zm17-2.77-.32-1.25c2.19-.56,4.38-1.2,6.52-1.91l.4,1.22C158.65,221.56,156.43,222.21,154.22,222.78Zm11.46-3.69-.47-1.2c2.1-.82,4.19-1.73,6.23-2.7l.55,1.16C169.93,217.33,167.8,218.25,165.68,219.09ZM176.59,214l-.61-1.13c2-1.07,3.94-2.23,5.85-3.45l.69,1.09C180.59,211.75,178.59,212.92,176.59,214Zm10.2-6.38-.75-1c1.84-1.32,3.65-2.71,5.38-4.15l.82,1C190.48,204.89,188.65,206.3,186.79,207.63Zm-96.56,9.78c-2.09-.93-4.17-1.95-6.19-3l.6-1.13c2,1.06,4,2.06,6.11,3ZM196.13,200l-.87-.94c1.66-1.53,3.29-3.14,4.83-4.77l.94.88C199.46,196.86,197.81,198.49,196.13,200ZM79.54,211.84c-2-1.18-3.89-2.44-5.77-3.75l.74-1.05c1.85,1.29,3.76,2.54,5.69,3.7Zm124.93-20.48-1-.83c1.46-1.72,2.88-3.51,4.22-5.33l1,.76C207.39,187.81,206,189.62,204.47,191.36ZM70.42,204l-.79,1c-1.8-1.41-3.57-2.9-5.27-4.43M60.62,197c-1.61-1.62-3.19-3.32-4.68-5l1-.84c1.47,1.7,3,3.38,4.62,5Zm-8-9c-1.4-1.8-2.76-3.68-4-5.57l1.07-.72c1.25,1.87,2.59,3.72,4,5.5ZM33.5,144.33c-.34-2-.62-4.05-.83-6.07l-.08-.75,1.28-.13.07.74c.21,2,.49,4,.82,6Zm0-12-1.28.06c-.1-2.28-.13-4.6-.07-6.88l1.28,0C33.38,127.76,33.4,130.05,33.5,132.3ZM222.65,101c-.63-2.17-1.34-4.34-2.12-6.45l1.2-.44c.79,2.13,1.51,4.33,2.15,6.54Zm-189,19.41-1.28-.1c.18-2.28.44-4.58.78-6.84l1.26.19C34.12,115.9,33.86,118.17,33.69,120.42Zm185-30.59c-.89-2.07-1.87-4.14-2.9-6.14l1.14-.59c1.05,2,2,4.12,2.94,6.22ZM35.34,108.66l-1.26-.26c.46-2.24,1-4.49,1.62-6.7l1.24.34C36.33,104.22,35.79,106.45,35.34,108.66ZM213.28,79.23c-1.13-1.94-2.36-3.87-3.63-5.73l1.06-.72c1.29,1.88,2.53,3.83,3.68,5.8ZM38.44,97.17l-1.21-.41c.72-2.17,1.54-4.33,2.43-6.45l1.18.49C40,92.89,39.16,95,38.44,97.17ZM206.66,69.38c-1.37-1.79-2.82-3.55-4.31-5.24l1-.85c1.51,1.71,3,3.5,4.37,5.31ZM42.94,86.15l-1.16-.55c1-2.06,2.07-4.11,3.21-6.1l1.11.64C45,82.1,43.91,84.12,42.94,86.15ZM198.88,60.41c-1.58-1.61-3.24-3.18-4.93-4.68l.85-1c1.72,1.52,3.4,3.11,5,4.74ZM48.75,75.78l-1.08-.69c1.24-1.92,2.56-3.83,3.93-5.66l1,.77C51.27,72,50,73.89,48.75,75.78ZM147.15,33c-2.22-.41-4.48-.73-6.72-1l.13-1.28c2.28.25,4.57.58,6.82,1Zm-11.8-1.39c-2.25-.12-4.53-.17-6.79-.13l0-1.28c2.29,0,4.6,0,6.88.13Zm-30.29,3.11-.33-1.24c2.21-.58,4.46-1.1,6.71-1.53l.24,1.26C109.46,33.63,107.24,34.14,105.06,34.71Zm18.41-3c-2.26.15-4.53.39-6.76.7l-.18-1.28c2.26-.31,4.56-.54,6.85-.7Z"/><circle class="cls-2" cx="129.18" cy="124.88" r="76.55"/><path class="cls-3" d="M101.62,178l.82,16.46H82.2L83,178a9.31,9.31,0,0,1,18.59,0Z"/><path class="cls-4" d="M140.47,192v7.59a1.26,1.26,0,0,1-1.27,1.26H117.7a1.26,1.26,0,0,1-1.27-1.26V192Z"/><rect class="cls-5" x="116.43" y="160.34" width="24.04" height="31.64"/><path class="cls-4" d="M140.47,152.75v7.59h-24v-7.59a3.8,3.8,0,0,1,3.79-3.8h16.46A3.79,3.79,0,0,1,140.47,152.75Z"/><rect class="cls-4" x="121.49" y="145.16" width="13.91" height="3.8"/><polygon class="cls-3" points="130.35 128.7 131.61 138.82 125.29 138.82 126.56 128.7 130.35 128.7"/><polygon class="cls-3" points="136.68 138.82 136.68 145.16 135.41 145.16 121.49 145.16 120.22 145.16 120.22 138.82 125.29 138.82 131.61 138.82 136.68 138.82"/><polygon class="cls-3" points="94.85 127.44 96.12 137.56 88.53 137.56 89.8 127.44 94.85 127.44"/><polygon class="cls-3" points="101.25 137.56 101.25 145.16 98.65 145.16 86 145.16 83.53 145.16 83.53 137.56 88.53 137.56 96.12 137.56 101.25 137.56"/><path class="cls-4" d="M108.69,195.22a5.36,5.36,0,0,1-.88,3.21,5.27,5.27,0,0,1-4.4,2.4H81.24a5.27,5.27,0,0,1-4.41-2.4,5.44,5.44,0,0,1-.89-3.21l1-19.77a24.81,24.81,0,0,1,2-8.86L84,155a25,25,0,0,0,2-9.83H98.65a24.79,24.79,0,0,0,2,9.83l5,11.6a24.91,24.91,0,0,1,2,8.86Zm-6.25-.72L101.62,178A9.31,9.31,0,0,0,83,178L82.2,194.5Z"/><path class="cls-6" d="M98.65,145.16a24.79,24.79,0,0,0,2,9.83l5,11.6a24.91,24.91,0,0,1,2,8.86l1,19.77a5.36,5.36,0,0,1-.88,3.21,5.27,5.27,0,0,1-4.4,2.4H81.24a5.27,5.27,0,0,1-4.41-2.4,5.44,5.44,0,0,1-.89-3.21l1-19.77a24.81,24.81,0,0,1,2-8.86L84,155a25,25,0,0,0,2-9.83"/><polygon class="cls-6" points="86 145.16 83.53 145.16 83.53 137.56 88.53 137.56 96.12 137.56 101.25 137.56 101.25 145.16 98.65 145.16 86 145.16"/><polyline class="cls-6" points="88.53 137.56 89.8 127.44 94.85 127.44 96.12 137.56"/><polyline class="cls-6" points="121.49 145.16 120.22 145.16 120.22 138.82 125.29 138.82 131.61 138.82 136.68 138.82 136.68 145.16 135.41 145.16"/><polyline class="cls-6" points="125.29 138.82 126.56 128.7 130.35 128.7 131.61 138.82"/><path class="cls-6" d="M102.44,194.5H82.2L83,178a9.31,9.31,0,0,1,18.59,0Z"/><path class="cls-6" d="M135.41,149h1.27a3.79,3.79,0,0,1,3.79,3.8v7.59"/><path class="cls-6" d="M116.43,160.34v-7.59a3.8,3.8,0,0,1,3.79-3.8h1.27"/><path class="cls-6" d="M140.47,192v7.59a1.26,1.26,0,0,1-1.27,1.26H117.7a1.26,1.26,0,0,1-1.27-1.26V192"/><rect class="cls-6" x="121.49" y="145.16" width="13.91" height="3.8"/><rect class="cls-6" x="116.43" y="160.34" width="24.04" height="31.64"/><path class="cls-4" d="M91.94,179.66h.21c2.85,0,5.16,2,5.16,4.41a.37.37,0,0,1-.2.44,1.36,1.36,0,0,1-.51.17c-.89.15-2.31-.66-3-.58s-.5,1.05-1.58,1.08-.48-.7-2.09-1c-1.74.74-2.43.67-2.71.39A.82.82,0,0,1,87,184C86.9,181.65,89.22,179.76,91.94,179.66Z"/><path class="cls-5" d="M97.11,184.51c0,.14,0,.28,0,.43a5,5,0,0,1-10,0c0-.12,0-.25,0-.37.28.28,1,.35,2.71-.39,1.61.3,1,1,2.09,1s.86-1,1.58-1.08,2.14.73,3,.58a1.36,1.36,0,0,0,.51-.17Z"/><path class="cls-6" d="M97.11,184.51c0,.14,0,.28,0,.43a5,5,0,0,1-10,0c0-.12,0-.25,0-.37"/><path class="cls-6" d="M97.11,184.51a.37.37,0,0,0,.2-.44c0-2.43-2.31-4.41-5.16-4.41h-.21c-2.72.1-5,2-5,4.33a.82.82,0,0,0,.2.58c.28.28,1,.35,2.71-.39,1.61.3,1,1,2.09,1s.86-1,1.58-1.08,2.14.73,3,.58A1.36,1.36,0,0,0,97.11,184.51Z"/><path class="cls-6" d="M91.93,180s0-.13,0-.34c.06-.78.33-2.72,1.56-3.09"/><text class="cls-7" transform="translate(119.93 177.85)">ma<tspan class="cls-8" x="10.31" y="0">y</tspan><tspan x="14.11" y="0">o</tspan></text><path class="cls-4" d="M112.5,67.37V100c-6.45,12.31-38.43,11.14-46.77,0V67.37c0,5.77,10.46,10.45,23.4,10.45S112.5,73.14,112.5,67.37Z"/><path class="cls-3" d="M89.13,56.88c12.9,0,23.37,4.69,23.37,10.49S102,77.82,89.13,77.82s-23.4-4.68-23.4-10.45S76.19,56.88,89.13,56.88ZM89,73.24c10.24,0,17-3,17-5.77-.39-3.63-6.77-5.74-17-5.74s-17,3.46-17,5.74C72.26,70.11,78.79,73.24,89,73.24Z"/><path class="cls-4" d="M106.05,67.47c0,2.79-6.77,5.77-17,5.77s-16.78-3.13-17-5.77c0-2.28,6.75-5.74,17-5.74S105.66,63.84,106.05,67.47Z"/><path class="cls-6" d="M112.5,67.37c0,5.77-10.47,10.45-23.37,10.45s-23.4-4.68-23.4-10.45,10.46-10.49,23.4-10.49S112.5,61.57,112.5,67.37Z"/><path class="cls-6" d="M106.05,67.47c0,2.79-6.77,5.77-17,5.77s-16.78-3.13-17-5.77c0-2.28,6.75-5.74,17-5.74S105.66,63.84,106.05,67.47Z"/><path class="cls-6" d="M65.73,67.37V100c8.34,11.14,40.32,12.31,46.77,0V67.37"/><path class="cls-5" d="M96.6,89.37a17.22,17.22,0,0,1,5.45,3.46,16.24,16.24,0,0,1-7.51,4,11.28,11.28,0,0,1-1.86.18c-.25,0-.5,0-.77,0a17.46,17.46,0,0,1-8.47-3.49l-1.31,0A8.68,8.68,0,0,1,80.36,95a5.3,5.3,0,0,1-3.07.45,7.52,7.52,0,0,1,1.83-2.22,17.17,17.17,0,0,1-1.76-2.76,3.38,3.38,0,0,1,1.83-.17c1.07.19,2.88,2,2.88,2h1.42A20.32,20.32,0,0,1,88,89.65a12.2,12.2,0,0,1,4.68-1,10.52,10.52,0,0,1,1.62.13A12.71,12.71,0,0,1,96.6,89.37Zm2.18,2.55a.66.66,0,0,0-1.32,0,.66.66,0,0,0,1.32,0Z"/><path class="cls-5" d="M92.8,85.51c.51-.16,1.92,1.51,1.5,3.25a10.52,10.52,0,0,0-1.62-.13,12.2,12.2,0,0,0-4.68,1h0l2.49-2.44s1.06.3,1.45-.2S92.29,85.66,92.8,85.51Z"/><path class="cls-5" d="M94.54,96.87a3.85,3.85,0,0,1-3.32,3A4.24,4.24,0,0,0,91.91,97c.27,0,.52,0,.77,0A11.28,11.28,0,0,0,94.54,96.87Z"/><path class="cls-6" d="M88,89.65a20.32,20.32,0,0,0-4.51,2.62H82.07s-1.81-1.83-2.88-2a3.38,3.38,0,0,0-1.83.17,17.17,17.17,0,0,0,1.76,2.76,7.52,7.52,0,0,0-1.83,2.22A5.3,5.3,0,0,0,80.36,95a8.68,8.68,0,0,0,1.77-1.45l1.31,0A17.46,17.46,0,0,0,91.91,97c.27,0,.52,0,.77,0a11.28,11.28,0,0,0,1.86-.18,16.24,16.24,0,0,0,7.51-4,17.22,17.22,0,0,0-5.45-3.46,12.71,12.71,0,0,0-2.3-.61,10.52,10.52,0,0,0-1.62-.13A12.2,12.2,0,0,0,88,89.65Z"/><path class="cls-6" d="M91.91,97a4.24,4.24,0,0,1-.69,2.83,3.85,3.85,0,0,0,3.32-3"/><path class="cls-6" d="M88,89.64l2.49-2.44s1.06.3,1.45-.2.35-1.34.86-1.49,1.92,1.51,1.5,3.25"/><path class="cls-6" d="M96.6,89.37a7.39,7.39,0,0,0-.38,4.6"/><circle class="cls-6" cx="98.12" cy="91.92" r="0.66"/><path class="cls-4" d="M177.16,49.76V98.92c-5.37,10.25-32,9.28-39,0V49.76c0,4.81,8.72,8.71,19.49,8.71S177.16,54.57,177.16,49.76Z"/><path class="cls-3" d="M157.69,41c10.75,0,19.47,3.9,19.47,8.73s-8.72,8.71-19.47,8.71-19.49-3.9-19.49-8.71S146.92,41,157.69,41Zm-.07,13.62c8.53,0,14.17-2.48,14.17-4.8-.33-3-5.64-4.78-14.17-4.78S143.46,48,143.46,49.85C143.64,52.05,149.08,54.65,157.62,54.65Z"/><path class="cls-5" d="M171.79,49.85c0,2.32-5.64,4.8-14.17,4.8s-14-2.6-14.16-4.8c0-1.9,5.62-4.78,14.16-4.78S171.46,46.82,171.79,49.85Z"/><path class="cls-6" d="M177.16,49.76c0,4.81-8.72,8.71-19.47,8.71s-19.49-3.9-19.49-8.71S146.92,41,157.69,41,177.16,44.93,177.16,49.76Z"/><path class="cls-6" d="M171.79,49.85c0,2.32-5.64,4.8-14.17,4.8s-14-2.6-14.16-4.8c0-1.9,5.62-4.78,14.16-4.78S171.46,46.82,171.79,49.85Z"/><path class="cls-6" d="M138.2,49.76V98.92c7,9.28,33.59,10.25,39,0V49.76"/><path class="cls-4" d="M159.51,74.31l.85,0a.43.43,0,0,1,0,.85l-.84,0a.43.43,0,1,1,0-.85Z"/><path class="cls-4" d="M159.42,77.7l.85,0a.44.44,0,0,1,.41.44.43.43,0,0,1-.44.41l-.85,0a.43.43,0,1,1,0-.85Z"/><path class="cls-4" d="M157.48,70.86a.42.42,0,0,1-.41-.43.43.43,0,0,1,.43-.42l.85,0a.42.42,0,0,1,0,.84Z"/><path class="cls-4" d="M157.32,76.8a.43.43,0,0,1,0-.85l.85,0a.43.43,0,0,1,0,.85Z"/><path class="cls-4" d="M158.26,73.43l-.85,0A.43.43,0,0,1,157,73a.43.43,0,0,1,.44-.41l.84,0a.43.43,0,0,1,.42.44A.44.44,0,0,1,158.26,73.43Z"/><path class="cls-4" d="M158.1,79.36a.43.43,0,0,1,.41.44.42.42,0,0,1-.43.41l-.85,0a.43.43,0,0,1-.41-.44.42.42,0,0,1,.43-.41Z"/><path class="cls-4" d="M155.25,75a.42.42,0,1,1,0-.84l.85,0a.42.42,0,0,1,.41.43.43.43,0,0,1-.43.42Z"/><path class="cls-4" d="M156,78.46l-.84,0a.44.44,0,0,1-.42-.44.43.43,0,0,1,.44-.41l.85,0a.43.43,0,0,1,.41.44A.43.43,0,0,1,156,78.46Z"/><path class="cls-5" d="M158.7,73a.43.43,0,0,0-.42-.44l-.84,0A.43.43,0,0,0,157,73a.43.43,0,0,0,.41.44l.85,0A.44.44,0,0,0,158.7,73Zm.37,1.7a.43.43,0,0,0,.42.44l.84,0a.43.43,0,0,0,0-.85l-.85,0A.43.43,0,0,0,159.07,74.72Zm-3.82.32.85,0a.43.43,0,0,0,.43-.42.42.42,0,0,0-.41-.43l-.85,0a.42.42,0,1,0,0,.84Zm-.09,3.4.84,0a.43.43,0,0,0,.44-.41.43.43,0,0,0-.41-.44l-.85,0a.43.43,0,0,0-.44.41A.44.44,0,0,0,155.16,78.44Zm4.26-.74a.43.43,0,1,0,0,.85l.85,0a.43.43,0,0,0,.44-.41.44.44,0,0,0-.41-.44Zm-.91,2.1a.43.43,0,0,0-.41-.44l-.85,0a.42.42,0,0,0-.43.41.43.43,0,0,0,.41.44l.85,0A.42.42,0,0,0,158.51,79.8Zm-1.19-3,.85,0a.43.43,0,0,0,0-.85l-.85,0a.43.43,0,0,0,0,.85Zm.67-9.86c1.95.06,3.5,4.59,4.1,8.42a21.78,21.78,0,0,1,.25,3.58c-2.38,1.2-4.6,4-4.91,8.39-.07-3.73-1.55-6.93-3.43-8.22a6.86,6.86,0,0,0-1-.56h0a20,20,0,0,1,.47-3.56C154.3,71.25,156.07,66.89,158,66.94Zm.77,3.53a.41.41,0,0,0-.41-.43l-.85,0a.43.43,0,0,0-.43.42.42.42,0,0,0,.41.43l.85,0A.41.41,0,0,0,158.76,70.47Z"/><path class="cls-3" d="M165.09,78.27c-1,.15-2.32,2.28-2.64,7.35a9.56,9.56,0,0,1-1.15,4.09A5.83,5.83,0,0,1,159,92.06l0,1.74a.86.86,0,0,1-.87.83l-1.7,0a.83.83,0,0,1-.82-.87l0-1.75c-1.59-.95-3.05-3.2-3.12-6.88-.09-4.89-1.3-7-2.24-7.21A7.19,7.19,0,0,1,154,79.11c1.88,1.29,3.36,4.49,3.43,8.22.31-4.38,2.53-7.19,4.91-8.39A5.86,5.86,0,0,1,165.09,78.27Z"/><path class="cls-6" d="M153,78.54a20,20,0,0,1,.47-3.56c.81-3.73,2.58-8.09,4.5-8s3.5,4.59,4.1,8.42a21.78,21.78,0,0,1,.25,3.58"/><path class="cls-6" d="M162.34,78.94c-2.38,1.2-4.6,4-4.91,8.39-.07-3.73-1.55-6.93-3.43-8.22a7.19,7.19,0,0,0-3.74-1.24c.94.2,2.15,2.32,2.24,7.21.07,3.68,1.53,5.93,3.12,6.88l0,1.75a.83.83,0,0,0,.82.87l1.7,0a.86.86,0,0,0,.87-.83l0-1.74a5.83,5.83,0,0,0,2.29-2.35,9.56,9.56,0,0,0,1.15-4.09c.32-5.07,1.67-7.2,2.64-7.35A5.86,5.86,0,0,0,162.34,78.94Z"/><path class="cls-4" d="M214,130.81v30.1A10,10,0,0,1,204.14,171H177.56a10,10,0,0,1-9.82-10.11v-30.1a10.07,10.07,0,0,1,7.37-9.79,9.46,9.46,0,0,1,2.45-.31h26.58a9.51,9.51,0,0,1,2.29.27A10.06,10.06,0,0,1,214,130.81Z"/><path class="cls-4" d="M208.58,113.63v1.85a2.92,2.92,0,0,1-2.11,2.83,2.5,2.5,0,0,1-.72.1H174.82a2.89,2.89,0,0,1-2.85-2.93v-1.85a2.89,2.89,0,0,1,2.85-2.93h30.93A2.88,2.88,0,0,1,208.58,113.63Z"/><path class="cls-6" d="M206.47,118.31a2.5,2.5,0,0,1-.72.1H174.82a2.89,2.89,0,0,1-2.85-2.93v-1.85a2.89,2.89,0,0,1,2.85-2.93h30.93a2.88,2.88,0,0,1,2.83,2.93v1.85A2.92,2.92,0,0,1,206.47,118.31Z"/><path class="cls-6" d="M206.43,121a10.06,10.06,0,0,1,7.53,9.83v30.1A10,10,0,0,1,204.14,171H177.56a10,10,0,0,1-9.82-10.11v-30.1a10.07,10.07,0,0,1,7.37-9.79,9.46,9.46,0,0,1,2.45-.31h26.58A9.51,9.51,0,0,1,206.43,121Z"/><line class="cls-6" x1="175.02" y1="120.71" x2="175.02" y2="118.41"/><line class="cls-6" x1="206.49" y1="120.71" x2="206.49" y2="118.41"/><line class="cls-6" x1="175.77" y1="112.66" x2="175.77" y2="116.44"/><line class="cls-6" x1="180.06" y1="112.66" x2="180.06" y2="116.44"/><line class="cls-6" x1="184.35" y1="112.66" x2="184.35" y2="116.44"/><line class="cls-6" x1="188.64" y1="112.66" x2="188.64" y2="116.44"/><line class="cls-6" x1="192.92" y1="112.66" x2="192.92" y2="116.44"/><line class="cls-6" x1="197.21" y1="112.66" x2="197.21" y2="116.44"/><line class="cls-6" x1="201.49" y1="112.66" x2="201.49" y2="116.44"/><line class="cls-6" x1="205.77" y1="112.66" x2="205.77" y2="116.44"/><path class="cls-5" d="M186.27,135.35c1.46,4.67.7,18.3.63,20.41s-.61,9-4.08,9.78a2.06,2.06,0,0,1-2-.5l.18,0c3.47-.74,4-7.69,4.08-9.79s.82-15.74-.64-20.4a7.64,7.64,0,0,0-2.3-3.9,1.27,1.27,0,0,1,.28-.06s2.35-.18,3.81,4.49Z"/><path class="cls-3" d="M182.45,130.86s-2.53.33-2.83,4.13c-.28,3.54.83,18.29-.08,23.88a9.54,9.54,0,0,0,.15,3.91c.42,1.58,1.3,3.16,3.13,2.77,3.47-.75,4-7.69,4.08-9.79s.83-15.74-.63-20.41-3.82-4.49-3.82-4.49Z"/><path class="cls-6" d="M182.45,130.86s-2.53.33-2.83,4.13c-.28,3.54.83,18.29-.08,23.88a9.54,9.54,0,0,0,.15,3.91c.42,1.58,1.3,3.16,3.13,2.77,3.47-.75,4-7.69,4.08-9.79s.83-15.74-.63-20.41-3.82-4.49-3.82-4.49Z"/><path class="cls-5" d="M181.32,131.64a18.35,18.35,0,0,0-.59,3.06l.13,1.46.2,2.1.31,3.38.29,3.24a4.1,4.1,0,0,1,0,1.05c0,.26-.12.5-.17.75-.22,1.16.33,2.35.18,3.52a8.7,8.7,0,0,0-.13.87,5.66,5.66,0,0,0,.12.81,13.2,13.2,0,0,1,.24,2.67,38.42,38.42,0,0,1-.65,6.15l-.57,3.63,1-2.46a.49.49,0,0,0,0-.39,1.19,1.19,0,0,0-.2-.19c-.18-.18-.14-.51-.09-.77.22-1.13.39-2.28.5-3.43,0-.27,0-.53.08-.8,0-.49.09-1,.12-1.47.07-1.14.07-2.28.07-3.42v-2.62c0-.84,0-1.69,0-2.53s-.11-1.92-.19-2.88c-.32-4-1.29-8.76-.66-11.72Z"/><path class="cls-5" d="M182.11,133.91l.48,2.11a24,24,0,0,1,.52,2.81c.13,1.29.06,2.61.22,3.9.12,1,.37,1.92.51,2.9a27.79,27.79,0,0,1,.19,3.29c0,.8,0,1.59,0,2.39a25.87,25.87,0,0,0-.13,4.48,5.34,5.34,0,0,1,.05.69,3.11,3.11,0,0,1-.1.61l-1.42,6.09a5.24,5.24,0,0,1-.26.88,1.88,1.88,0,0,1-.8.89,1.39,1.39,0,0,0,1.23-1.08,12.16,12.16,0,0,0,.33-2,20.28,20.28,0,0,1,.74-2.88,9.36,9.36,0,0,0,.48-4,2.28,2.28,0,0,1,0-.44,1.61,1.61,0,0,1,.06-.44,16.24,16.24,0,0,0,.15-3.12l0-2.63c0-.52,0-1,0-1.54a30.67,30.67,0,0,0-.62-5.07c.53-2-.53-4-.64-6.06a6.67,6.67,0,0,0-.19-1.8c-.09-.27-.24-.51-.35-.77s-.19-1.63-.49-1.33.09,1.79.17,2.16Z"/><path class="cls-5" d="M179.21,135.35c1.45,4.67.7,18.3.63,20.41s-.61,9-4.08,9.78a2,2,0,0,1-2-.5l.17,0c3.47-.74,4-7.69,4.08-9.79s.83-15.74-.63-20.4a7.57,7.57,0,0,0-2.31-3.9l.28-.06s2.36-.18,3.82,4.49Z"/><path class="cls-3" d="M175.39,130.86s-2.53.33-2.83,4.13c-.28,3.54.83,18.29-.08,23.88a9.21,9.21,0,0,0,.15,3.91c.42,1.58,1.29,3.16,3.13,2.77,3.47-.75,4-7.69,4.08-9.79s.82-15.74-.63-20.41-3.82-4.49-3.82-4.49Z"/><path class="cls-6" d="M175.39,130.86s-2.53.33-2.83,4.13c-.28,3.54.83,18.29-.08,23.88a9.21,9.21,0,0,0,.15,3.91c.42,1.58,1.29,3.16,3.13,2.77,3.47-.75,4-7.69,4.08-9.79s.82-15.74-.63-20.41-3.82-4.49-3.82-4.49Z"/><path class="cls-5" d="M174.26,131.64a18.35,18.35,0,0,0-.59,3.06l.13,1.46.19,2.1.31,3.38.3,3.24a4.1,4.1,0,0,1,0,1.05c0,.26-.12.5-.17.75-.22,1.16.33,2.35.17,3.52a8.66,8.66,0,0,0-.12.87,3.78,3.78,0,0,0,.12.81,13.2,13.2,0,0,1,.24,2.67,39.6,39.6,0,0,1-.65,6.15l-.58,3.63,1-2.46a.49.49,0,0,0,0-.39.86.86,0,0,0-.19-.19.85.85,0,0,1-.09-.77c.22-1.13.38-2.28.5-3.43,0-.27,0-.53.08-.8,0-.49.08-1,.11-1.47.08-1.14.08-2.28.08-3.42v-2.62c0-.84,0-1.69,0-2.53s-.1-1.92-.18-2.88c-.32-4-1.3-8.76-.67-11.72Z"/><path class="cls-5" d="M175.05,133.91l.48,2.11a24,24,0,0,1,.51,2.81c.14,1.29.07,2.61.23,3.9.12,1,.37,1.92.51,2.9a25.81,25.81,0,0,1,.18,3.29c0,.8,0,1.59,0,2.39a26.9,26.9,0,0,0-.13,4.48,4,4,0,0,1,.06.69,4.09,4.09,0,0,1-.1.61l-1.42,6.09a5.24,5.24,0,0,1-.26.88,1.85,1.85,0,0,1-.81.89,1.4,1.4,0,0,0,1.24-1.08,11.2,11.2,0,0,0,.32-2,21.72,21.72,0,0,1,.74-2.88,9.22,9.22,0,0,0,.49-4,2.28,2.28,0,0,1-.05-.44,2.12,2.12,0,0,1,.05-.44,15.48,15.48,0,0,0,.16-3.12l0-2.63c0-.52,0-1,0-1.54a31.78,31.78,0,0,0-.62-5.07c.53-2-.53-4-.65-6.06a6.67,6.67,0,0,0-.18-1.8c-.09-.27-.24-.51-.35-.77s-.19-1.63-.5-1.33.09,1.79.18,2.16Z"/><path class="cls-5" d="M194.28,135.36c1.46,4.67.71,18.3.64,20.4s-.62,9.05-4.09,9.79a2.06,2.06,0,0,1-2-.5l.17,0c3.47-.74,4-7.68,4.08-9.79s.82-15.73-.63-20.4a7.67,7.67,0,0,0-2.31-3.89,1.28,1.28,0,0,1,.28-.07s2.36-.18,3.81,4.5Z"/><path class="cls-3" d="M190.47,130.86s-2.54.33-2.84,4.13c-.28,3.54.84,18.29-.07,23.88a9.37,9.37,0,0,0,.14,3.91c.42,1.58,1.3,3.16,3.13,2.77,3.47-.74,4-7.69,4.08-9.79s.83-15.73-.63-20.4-3.81-4.5-3.81-4.5Z"/><path class="cls-6" d="M190.47,130.86s-2.54.33-2.84,4.13c-.28,3.54.84,18.29-.07,23.88a9.37,9.37,0,0,0,.14,3.91c.42,1.58,1.3,3.16,3.13,2.77,3.47-.74,4-7.69,4.08-9.79s.83-15.73-.63-20.4-3.81-4.5-3.81-4.5Z"/><path class="cls-5" d="M189.33,131.65a18,18,0,0,0-.59,3l.14,1.47.19,2.09.31,3.38.29,3.24a4.18,4.18,0,0,1,0,1.06c0,.25-.12.49-.17.75-.22,1.15.33,2.35.18,3.51a6.5,6.5,0,0,0-.12.87,3.6,3.6,0,0,0,.12.81,13.36,13.36,0,0,1,.24,2.68,40.86,40.86,0,0,1-.65,6.14l-.58,3.63,1-2.46a.47.47,0,0,0,0-.38.89.89,0,0,0-.2-.19c-.18-.18-.14-.51-.09-.78.22-1.13.39-2.27.5-3.43,0-.26.06-.53.08-.8,0-.49.09-1,.12-1.47.07-1.14.07-2.27.08-3.41v-2.63c0-.84,0-1.68,0-2.53s-.11-1.92-.19-2.88c-.32-4-1.29-8.76-.66-11.72Z"/><path class="cls-5" d="M190.12,133.91l.48,2.12a24,24,0,0,1,.52,2.81c.13,1.29.06,2.6.22,3.89.12,1,.37,1.93.51,2.9a25.87,25.87,0,0,1,.19,3.3c0,.79,0,1.59,0,2.38a27,27,0,0,0-.13,4.49,3.82,3.82,0,0,1,0,.68,3.11,3.11,0,0,1-.1.61l-1.42,6.09a6,6,0,0,1-.25.88,2,2,0,0,1-.81.89,1.38,1.38,0,0,0,1.23-1.08,12.22,12.22,0,0,0,.33-2,20.41,20.41,0,0,1,.74-2.89,9.33,9.33,0,0,0,.48-4,3.12,3.12,0,0,1-.05-.44,3,3,0,0,1,.06-.43,16.28,16.28,0,0,0,.16-3.12l0-2.64c0-.51,0-1,0-1.54a29.64,29.64,0,0,0-.62-5.07c.53-2-.53-4-.64-6.06a6.64,6.64,0,0,0-.19-1.79c-.09-.27-.24-.52-.35-.78s-.19-1.62-.49-1.32.09,1.78.17,2.15Z"/><path class="cls-5" d="M204,135.36c1.46-4.68,3.81-4.5,3.81-4.5a1.28,1.28,0,0,1,.28.07,7.6,7.6,0,0,0-2.3,3.89c-1.46,4.67-.71,18.3-.64,20.4s.61,9.05,4.08,9.79l.18,0a2.08,2.08,0,0,1-2,.5c-3.47-.74-4-7.69-4.08-9.79s-.83-15.73.63-20.4Z"/><path class="cls-3" d="M207.76,130.86s-2.36-.17-3.81,4.5-.71,18.3-.63,20.4.61,9.05,4.08,9.79c1.83.39,2.71-1.19,3.13-2.77a9.54,9.54,0,0,0,.15-3.91c-.91-5.59.2-20.34-.08-23.88-.3-3.8-2.84-4.13-2.84-4.13Z"/><path class="cls-6" d="M207.76,130.86s-2.36-.17-3.81,4.5-.71,18.3-.63,20.4.61,9.05,4.08,9.79c1.83.39,2.71-1.19,3.13-2.77a9.54,9.54,0,0,0,.15-3.91c-.91-5.59.2-20.34-.08-23.88-.3-3.8-2.84-4.13-2.84-4.13Z"/><path class="cls-5" d="M208.91,131.65c.63,3-.34,7.7-.66,11.72-.08,1-.15,1.92-.19,2.88s0,1.69,0,2.53v2.63c0,1.14,0,2.27.08,3.41,0,.49.08,1,.12,1.47,0,.27,0,.54.08.8.11,1.16.28,2.3.5,3.43.05.27.09.6-.09.78a.89.89,0,0,0-.2.19.47.47,0,0,0,0,.38l1,2.46L209,160.7a38.42,38.42,0,0,1-.65-6.14,12,12,0,0,1,.24-2.68,4.27,4.27,0,0,0,.11-.81,6.5,6.5,0,0,0-.12-.87c-.15-1.16.4-2.36.18-3.51-.05-.26-.13-.5-.17-.75a4.18,4.18,0,0,1,0-1.06l.29-3.24.31-3.38.19-2.09.14-1.47a18,18,0,0,0-.59-3Z"/><path class="cls-5" d="M208.11,133.91c.08-.37.49-1.84.17-2.15s-.4,1.1-.49,1.32-.26.51-.35.78a6.64,6.64,0,0,0-.19,1.79c-.11,2-1.17,4.09-.64,6.06a29.64,29.64,0,0,0-.62,5.07c0,.52,0,1,0,1.54l0,2.64a17.13,17.13,0,0,0,.16,3.12,2,2,0,0,1,.06.43,2.12,2.12,0,0,1,0,.44,9.33,9.33,0,0,0,.48,4,20.41,20.41,0,0,1,.74,2.89,12.22,12.22,0,0,0,.33,2,1.38,1.38,0,0,0,1.23,1.08,2,2,0,0,1-.81-.89,6,6,0,0,1-.25-.88l-1.42-6.09a3.11,3.11,0,0,1-.1-.61,5.06,5.06,0,0,1,.05-.68,27,27,0,0,0-.13-4.49c0-.79,0-1.59,0-2.38a27.84,27.84,0,0,1,.19-3.3c.14-1,.39-1.92.51-2.9.16-1.29.09-2.6.22-3.89a24,24,0,0,1,.52-2.81l.48-2.12Z"/><path class="cls-5" d="M196.06,135.36c1.46-4.68,3.82-4.5,3.82-4.5a1.64,1.64,0,0,1,.28.07,7.53,7.53,0,0,0-2.31,3.89c-1.46,4.67-.7,18.3-.63,20.4s.61,9.05,4.08,9.79l.17,0a2.08,2.08,0,0,1-2,.5c-3.47-.74-4-7.69-4.08-9.79s-.82-15.73.63-20.4Z"/><path class="cls-3" d="M199.88,130.86s-2.36-.17-3.82,4.5-.7,18.3-.63,20.4.61,9.05,4.08,9.79c1.83.39,2.71-1.19,3.13-2.77a9.37,9.37,0,0,0,.15-3.91c-.91-5.59.2-20.34-.08-23.88-.3-3.8-2.83-4.13-2.83-4.13Z"/><path class="cls-6" d="M199.88,130.86s-2.36-.17-3.82,4.5-.7,18.3-.63,20.4.61,9.05,4.08,9.79c1.83.39,2.71-1.19,3.13-2.77a9.37,9.37,0,0,0,.15-3.91c-.91-5.59.2-20.34-.08-23.88-.3-3.8-2.83-4.13-2.83-4.13Z"/><path class="cls-5" d="M201,131.65c.63,3-.35,7.7-.67,11.72-.08,1-.15,1.92-.18,2.88s0,1.69,0,2.53v2.63c0,1.14,0,2.27.08,3.41,0,.49.07,1,.11,1.47,0,.27.05.54.08.8.11,1.16.28,2.3.5,3.43,0,.27.09.6-.09.78a.69.69,0,0,0-.19.19.46.46,0,0,0,0,.38l1,2.46-.58-3.63a39.6,39.6,0,0,1-.65-6.14,13.36,13.36,0,0,1,.24-2.68,3.6,3.6,0,0,0,.12-.81q0-.44-.12-.87c-.16-1.16.39-2.36.17-3.51-.05-.26-.13-.5-.17-.75a4.18,4.18,0,0,1,0-1.06l.3-3.24.31-3.38.19-2.09.13-1.47a18,18,0,0,0-.59-3Z"/><path class="cls-5" d="M200.22,133.91c.08-.37.49-1.84.18-2.15s-.41,1.1-.5,1.32-.26.51-.35.78a6.64,6.64,0,0,0-.18,1.79c-.12,2-1.18,4.09-.65,6.06a30.67,30.67,0,0,0-.62,5.07c0,.52,0,1,0,1.54l0,2.64a15.51,15.51,0,0,0,.16,3.12,2,2,0,0,1,.05.43,2.12,2.12,0,0,1-.05.44,9.18,9.18,0,0,0,.49,4,23.54,23.54,0,0,1,.74,2.89,11.23,11.23,0,0,0,.32,2A1.39,1.39,0,0,0,201,165a1.85,1.85,0,0,1-.81-.89,5,5,0,0,1-.26-.88l-1.42-6.09a3.11,3.11,0,0,1-.1-.61,3.82,3.82,0,0,1,.06-.68,27,27,0,0,0-.13-4.49c0-.79,0-1.59,0-2.38a27.84,27.84,0,0,1,.19-3.3c.14-1,.39-1.92.51-2.9.16-1.29.09-2.6.23-3.89a24,24,0,0,1,.51-2.81l.48-2.12Z"/></svg>