<svg id="Layer_1" data-name="Layer 1" xmlns="http://www.w3.org/2000/svg" viewBox="0 0 256 256"><defs><style>.cls-1{fill:#0e4e91;}.cls-2{fill:#abe7ff;}.cls-3{fill:#fff;}.cls-4{fill:#2db5ff;}.cls-5{fill:none;stroke:#0e4e91;stroke-miterlimit:10;}</style></defs><path class="cls-1" d="M131.25,215.16l0-1.14c2-.06,4.05-.19,6-.39l.11,1.14C135.36,215,133.3,215.1,131.25,215.16Zm-4.6,0c-2,0-4.1-.17-6.12-.36l.1-1.14c2,.18,4,.3,6.05.35Zm15.29-1-.17-1.13c2-.31,4-.68,5.94-1.12l.26,1.11C146,213.51,144,213.89,141.94,214.19Zm10.49-2.26-.31-1.1c1.93-.55,3.88-1.17,5.76-1.85l.39,1.07C156.36,210.75,154.39,211.38,152.43,211.93Zm10.13-3.54-.45-1c1.84-.78,3.69-1.64,5.49-2.55l.52,1C166.3,206.73,164.42,207.6,162.56,208.39Zm9.6-4.77-.57-1c1.74-1,3.47-2.08,5.14-3.2l.64.94C175.67,201.51,173.92,202.6,172.16,203.62Zm-86.49.2c-1.78-1-3.53-2.1-5.23-3.23l.63-.94c1.68,1.11,3.41,2.18,5.16,3.18Zm95.44-6.11-.68-.91c1.61-1.21,3.19-2.49,4.71-3.81l.75.86C184.35,195.18,182.74,196.48,181.11,197.71Zm-104.43.23c-1.63-1.21-3.25-2.5-4.79-3.84l.75-.86c1.52,1.31,3.11,2.58,4.72,3.78Zm112.59-7.19-.8-.83c1.44-1.39,2.86-2.86,4.21-4.36l.85.77C192.17,187.85,190.73,189.33,189.27,190.75ZM68.48,191c-1.46-1.41-2.91-2.89-4.28-4.4l.85-.77c1.36,1.49,2.78,3,4.23,4.33Zm128.05-8.18-.89-.72c1.27-1.57,2.49-3.19,3.65-4.84l.94.65C199.05,179.6,197.81,181.25,196.53,182.84Zm-135.34.29c-1.29-1.57-2.53-3.21-3.71-4.88l.94-.66c1.16,1.64,2.4,3.26,3.67,4.82Zm141.56-9-1-.61c1.06-1.7,2.08-3.47,3-5.25l1,.53C204.86,170.57,203.83,172.36,202.75,174.09Zm-147.82.34c-1.09-1.72-2.12-3.51-3.08-5.3l1-.54c.95,1.77,2,3.52,3,5.22Zm152.93-9.79-1-.48c.85-1.82,1.64-3.7,2.35-5.59l1.07.41C209.53,160.89,208.72,162.79,207.86,164.64ZM41.76,134c-.12-1.81-.19-3.65-.2-5.45v-.68H42.7v.67c0,1.79.08,3.6.2,5.39Zm1.06-10.67-1.14-.06c.11-2,.29-4.09.55-6.11l1.14.14C43.1,119.33,42.93,121.35,42.82,123.36Zm170.5-11.15c-.37-2-.81-4-1.32-5.91l1.11-.29c.51,2,.95,4,1.33,6ZM44,112.84l-1.12-.2c.36-2,.79-4,1.29-6l1.1.28C44.81,108.87,44.38,110.86,44,112.84Zm166.72-10.9c-.61-1.91-1.29-3.83-2-5.7l1.07-.42c.75,1.89,1.44,3.84,2.06,5.78Zm-164.23.61-1.09-.34c.6-1.95,1.28-3.89,2-5.8l1.07.42C47.79,98.7,47.12,100.63,46.52,102.55ZM206.93,92.07c-.85-1.82-1.76-3.64-2.72-5.4l1-.55c1,1.78,1.9,3.62,2.76,5.47Zm-156.65.56-1-.47c.83-1.85,1.75-3.71,2.73-5.51l1,.55C52,89,51.11,90.8,50.28,92.63Zm151.64-9.88c-1.06-1.71-2.19-3.4-3.37-5l.93-.67c1.19,1.65,2.34,3.37,3.41,5.1Zm-146.68.51-1-.59c1.06-1.74,2.2-3.47,3.37-5.13l.93.67C57.4,79.84,56.28,81.54,55.24,83.26Zm140.57-9.14c-1.27-1.57-2.59-3.11-4-4.58l.84-.78c1.39,1.49,2.74,3,4,4.64Zm-134.5.45-.9-.71c1.26-1.59,2.61-3.16,4-4.67l.84.77C63.88,71.45,62.55,73,61.31,74.57Zm127.36-8.28c-1.44-1.4-2.95-2.77-4.49-4.06l.74-.88c1.56,1.31,3.08,2.7,4.55,4.12ZM94.57,49,94.11,48c1.87-.81,3.79-1.56,5.71-2.24l.38,1.08C98.3,47.49,96.41,48.22,94.57,49Zm57.76-3.77c-1.93-.55-3.91-1-5.87-1.45l.23-1.12c2,.42,4,.91,6,1.47Zm-47.81.18-.33-1.1c2-.57,4-1.08,6-1.52l.24,1.12C108.42,44.36,106.45,44.86,104.52,45.43ZM142,43c-2-.31-4-.55-6-.71l.1-1.14c2,.16,4.07.41,6.09.72Zm-27.14.1L114.66,42c2-.32,4.06-.59,6.09-.77l.1,1.14C118.85,42.51,116.83,42.77,114.85,43.09ZM131.45,42c-2-.06-4.06,0-6.06,0l0-1.14c2-.08,4.1-.09,6.14,0Z"/><circle class="cls-2" cx="129.34" cy="127.56" r="67.05"/><path class="cls-3" d="M110.57,91.6v4.46a1.12,1.12,0,0,1-1.48,1.06l-1.24-.41-3.69-1.23a1.85,1.85,0,0,0-1.31.06l-4,1.8a1.45,1.45,0,0,1-1.19,0l-6-2.65a1.44,1.44,0,0,0-1.38.11l-3,2a2.09,2.09,0,0,1-2.5-.2l-2.46-2.2a1.33,1.33,0,0,0-1.64-.12l-1.51,1-1.46,1a1.46,1.46,0,0,1-2.25-1.23V89l3.71.27,16.32,1.22,12.36.91Z"/><path class="cls-4" d="M107.85,96.71v19.05H79.17V95.21l1.51-1a1.33,1.33,0,0,1,1.64.12l2.46,2.2a2.09,2.09,0,0,0,2.5.2l3-2a1.44,1.44,0,0,1,1.38-.11l6,2.65a1.45,1.45,0,0,0,1.19,0l4-1.8a1.85,1.85,0,0,1,1.31-.06Z"/><polygon class="cls-3" points="107.85 69.17 107.85 91.4 95.49 90.49 95.65 88.4 95.65 81.3 95.65 78.59 95.65 71.49 95.65 69.17 107.85 69.17"/><polygon class="cls-3" points="95.65 81.3 95.65 88.4 95.49 90.49 79.17 89.27 79.17 69.17 95.65 69.17 95.65 71.49 95.65 78.59 95.65 81.3"/><polyline class="cls-5" points="79.17 89.27 79.17 69.17 95.65 69.17 107.85 69.17 107.85 91.4"/><polyline class="cls-5" points="107.85 96.71 107.85 115.76 79.17 115.76 79.17 95.21"/><polyline class="cls-5" points="81.06 71.49 86.43 71.49 86.43 78.59"/><polyline class="cls-5" points="90.28 71.49 95.65 71.49 95.65 78.59"/><polyline class="cls-5" points="99.5 71.49 104.87 71.49 104.87 78.59"/><polyline class="cls-5" points="81.06 81.3 86.43 81.3 86.43 88.4"/><polyline class="cls-5" points="90.28 81.3 95.65 81.3 95.65 88.4"/><polyline class="cls-5" points="99.5 81.3 104.87 81.3 104.87 88.4"/><path class="cls-5" d="M107.85,91.4l2.72.2v4.46a1.12,1.12,0,0,1-1.48,1.06l-1.24-.41-3.69-1.23a1.85,1.85,0,0,0-1.31.06l-4,1.8a1.45,1.45,0,0,1-1.19,0l-6-2.65a1.44,1.44,0,0,0-1.38.11l-3,2a2.09,2.09,0,0,1-2.5-.2l-2.46-2.2a1.33,1.33,0,0,0-1.64-.12l-1.51,1-1.46,1a1.46,1.46,0,0,1-2.25-1.23V89l3.71.27,16.32,1.22Z"/><line class="cls-5" x1="96.89" y1="112.25" x2="100.77" y2="112.25"/><polyline class="cls-5" points="82.28 102.09 82.28 112.25 94.45 112.25"/><path class="cls-3" d="M197.17,148.24a23.12,23.12,0,0,1-1,6.91H196a1.24,1.24,0,0,1-1.24-1.24v-1.84a2.34,2.34,0,0,0-4.67,0v4.57a2.85,2.85,0,1,1-5.69,0v-1.89a2.17,2.17,0,0,0-2.17-2.17,9.19,9.19,0,1,0-17.28-4.34,9,9,0,0,0,1.31,4.71v1.64a2.82,2.82,0,0,1-2.83,2.83,2.84,2.84,0,0,1-2.84-2.83v-5.35a2.56,2.56,0,0,0-5.12,0v.8a3.57,3.57,0,0,1-3.58,3.57h-.22a23.7,23.7,0,0,1-.63-5.37,23.09,23.09,0,1,1,46.18,0ZM194.72,145a1.41,1.41,0,0,0-1.29-.06,1.45,1.45,0,0,0-.74,1.06,1.35,1.35,0,0,0,2-1Zm-5.64-8.08a1.48,1.48,0,0,0,1.32.1,1.43,1.43,0,0,0-2-1.25A1.48,1.48,0,0,0,189.08,136.87Zm-1.56,5.67a1.38,1.38,0,0,0,.07-1.27,1.42,1.42,0,0,0-1.05-.73,1.37,1.37,0,0,0-.06,1.27A1.36,1.36,0,0,0,187.52,142.54ZM183.26,137a1.49,1.49,0,0,0-1.32-.19,1.53,1.53,0,0,0-.9,1,1.48,1.48,0,0,0,1.32.18A1.44,1.44,0,0,0,183.26,137Zm-1.74-4.87a1.15,1.15,0,0,0,.15-1.16,1.2,1.2,0,0,0-1.11.39,1.22,1.22,0,0,0-.13,1.15A1.18,1.18,0,0,0,181.52,132.1Zm-6.2,3.62a1.49,1.49,0,0,0-.1-1.29,1.41,1.41,0,0,0-1.14-.62,1.43,1.43,0,0,0,.1,1.29A1.45,1.45,0,0,0,175.32,135.72Zm-1.24-6.14a1.84,1.84,0,0,0-1.5-.13,1.79,1.79,0,0,0-1.1,1,1.86,1.86,0,0,0,2.6-.91Zm-6.64,8.2a1.68,1.68,0,0,0,.22-1.39,1.6,1.6,0,0,0-1.45,2.07A1.63,1.63,0,0,0,167.44,137.78Zm-2.62-5.33a1.61,1.61,0,0,0,1.39,0,1.57,1.57,0,0,0-2.21-1.17A1.63,1.63,0,0,0,164.82,132.45Zm-3.14,7.48a1.9,1.9,0,0,0-.42-1.48,1.87,1.87,0,0,0-1.37-.69,2,2,0,0,0,.42,1.48A1.91,1.91,0,0,0,161.68,139.93Zm-4.74,3.45a1.37,1.37,0,0,0-2.11.91,1.38,1.38,0,0,0,2.11-.91Z"/><path class="cls-4" d="M196,155.15h.17a23.1,23.1,0,0,1-44.5-1.54h.22a3.57,3.57,0,0,0,3.58-3.57v-.8a2.56,2.56,0,0,1,5.12,0v5.35a2.84,2.84,0,0,0,2.84,2.83,2.82,2.82,0,0,0,2.83-2.83V153a9.18,9.18,0,0,0,16-.37,2.17,2.17,0,0,1,2.17,2.17v1.89a2.84,2.84,0,0,0,2.84,2.85,2.83,2.83,0,0,0,2.85-2.85v-4.57a2.34,2.34,0,0,1,4.67,0v1.84A1.24,1.24,0,0,0,196,155.15Z"/><path class="cls-1" d="M193.43,144.89a1.41,1.41,0,0,1,1.29.06,1.35,1.35,0,0,1-2,1A1.45,1.45,0,0,1,193.43,144.89Z"/><path class="cls-1" d="M190.4,137a1.44,1.44,0,0,1-2-1.25,1.43,1.43,0,0,1,2,1.25Z"/><path class="cls-1" d="M187.59,141.27a1.38,1.38,0,0,1-.07,1.27,1.36,1.36,0,0,1-1-.73,1.37,1.37,0,0,1,.06-1.27A1.42,1.42,0,0,1,187.59,141.27Z"/><path class="cls-1" d="M181.94,136.78a1.49,1.49,0,0,1,1.32.19,1.44,1.44,0,0,1-.9,1,1.48,1.48,0,0,1-1.32-.18A1.53,1.53,0,0,1,181.94,136.78Z"/><path class="cls-3" d="M166.21,153a9,9,0,0,1-1.31-4.71,9.2,9.2,0,1,1,1.31,4.71Z"/><path class="cls-1" d="M181.67,130.94a1.15,1.15,0,0,1-.15,1.16,1.18,1.18,0,0,1-1.09.38,1.22,1.22,0,0,1,.13-1.15A1.2,1.2,0,0,1,181.67,130.94Z"/><path class="cls-1" d="M175.22,134.43a1.49,1.49,0,0,1,.1,1.29,1.45,1.45,0,0,1-1.14-.62,1.43,1.43,0,0,1-.1-1.29A1.41,1.41,0,0,1,175.22,134.43Z"/><path class="cls-1" d="M172.58,129.45a1.84,1.84,0,0,1,1.5.13,1.86,1.86,0,0,1-2.6.91A1.79,1.79,0,0,1,172.58,129.45Z"/><path class="cls-1" d="M167.66,136.39a1.68,1.68,0,0,1-.22,1.39,1.63,1.63,0,0,1-1.23.68,1.6,1.6,0,0,1,1.45-2.07Z"/><path class="cls-1" d="M166.21,132.48a1.61,1.61,0,0,1-1.39,0,1.63,1.63,0,0,1-.82-1.14,1.57,1.57,0,0,1,2.21,1.17Z"/><path class="cls-1" d="M161.26,138.45a1.9,1.9,0,0,1,.42,1.48,1.91,1.91,0,0,1-1.37-.69,2,2,0,0,1-.42-1.48A1.87,1.87,0,0,1,161.26,138.45Z"/><path class="cls-1" d="M155.64,143.26a1.44,1.44,0,0,1,1.3.12,1.38,1.38,0,0,1-2.11.91A1.44,1.44,0,0,1,155.64,143.26Z"/><path class="cls-5" d="M166.21,153a9,9,0,0,1-1.31-4.71,9.2,9.2,0,1,1,1.31,4.71Z"/><path class="cls-5" d="M151.62,153.61a23.7,23.7,0,0,1-.63-5.37,23.08,23.08,0,1,1,.63,5.37Z"/><path class="cls-5" d="M151.62,153.61h.22a3.57,3.57,0,0,0,3.58-3.57v-.8a2.56,2.56,0,0,1,5.12,0v5.35a2.84,2.84,0,0,0,2.84,2.83,2.82,2.82,0,0,0,2.83-2.83v-2"/><path class="cls-5" d="M182.18,152.58a2.17,2.17,0,0,1,2.17,2.17v1.89a2.84,2.84,0,0,0,2.84,2.85,2.83,2.83,0,0,0,2.85-2.85v-4.57a2.34,2.34,0,0,1,4.67,0v1.84a1.24,1.24,0,0,0,1.24,1.24h.33"/><path class="cls-3" d="M122.8,180h-44a49.23,49.23,0,0,1,1.31-10H95.3l.17-.06c1,2.78,3.15,4.7,5.67,4.7s4.64-1.89,5.65-4.64h14.44A62.36,62.36,0,0,1,122.8,180Z"/><path class="cls-4" d="M121.23,170.07H106.79a9.73,9.73,0,0,0,.6-3.43,10,10,0,0,0-.42-2.88h12.37A56.11,56.11,0,0,1,121.23,170.07Z"/><path class="cls-3" d="M119.34,163.76H107c-.9-3-3.18-5.18-5.83-5.18s-4.94,2.15-5.84,5.18H81.93c2.66-7.15,7.26-13.92,14.8-15.77a17.41,17.41,0,0,1,4-.49,16.46,16.46,0,0,1,5.77,1.11C113.06,151.09,117,157.44,119.34,163.76Z"/><path class="cls-4" d="M112,132.88a1.48,1.48,0,0,1,.65,1.89L106.77,148l-.22.62a16.46,16.46,0,0,0-5.77-1.11,17.41,17.41,0,0,0-4,.49L90.09,130.8a.67.67,0,0,1,1-.81c2.1,1.33,5.51,3.37,6.41,3.17s4.37-2.47,6.06-3.62a2,2,0,0,1,2-.11Z"/><path class="cls-3" d="M106.79,170.07c-1,2.75-3.16,4.64-5.65,4.64s-4.68-1.92-5.67-4.7a9.89,9.89,0,0,1-.58-3.37,10.33,10.33,0,0,1,.41-2.88c.9-3,3.18-5.18,5.84-5.18s4.93,2.15,5.83,5.18a10,10,0,0,1,.42,2.88A9.73,9.73,0,0,1,106.79,170.07Z"/><path class="cls-4" d="M95.47,170l-.17.06H80.06a50.36,50.36,0,0,1,1.87-6.31H95.3a10.33,10.33,0,0,0-.41,2.88A9.89,9.89,0,0,0,95.47,170Z"/><path class="cls-5" d="M80.06,170.07a49.23,49.23,0,0,0-1.31,10H122.8a62.36,62.36,0,0,0-1.57-10,56.11,56.11,0,0,0-1.89-6.31c-2.36-6.32-6.28-12.67-12.79-15.15a16.46,16.46,0,0,0-5.77-1.11,17.41,17.41,0,0,0-4,.49c-7.54,1.85-12.14,8.62-14.8,15.77A50.36,50.36,0,0,0,80.06,170.07Z"/><path class="cls-5" d="M107,163.76a10,10,0,0,1,.42,2.88,9.73,9.73,0,0,1-.6,3.43c-1,2.75-3.16,4.64-5.65,4.64s-4.68-1.92-5.67-4.7a9.89,9.89,0,0,1-.58-3.37,10.33,10.33,0,0,1,.41-2.88c.9-3,3.18-5.18,5.84-5.18S106.07,160.73,107,163.76Z"/><polyline class="cls-5" points="81.92 163.76 81.93 163.76 95.31 163.76"/><line class="cls-5" x1="106.97" y1="163.76" x2="119.34" y2="163.76"/><line class="cls-5" x1="80.06" y1="170.07" x2="95.3" y2="170.07"/><polyline class="cls-5" points="106.77 170.07 106.79 170.07 121.23 170.07"/><path class="cls-5" d="M96.73,148,90.09,130.8a.67.67,0,0,1,1-.81c2.1,1.33,5.51,3.37,6.41,3.17s4.37-2.47,6.06-3.62a2,2,0,0,1,2-.11l6.37,3.45a1.48,1.48,0,0,1,.65,1.89L106.77,148"/><line class="cls-5" x1="102.22" y1="147.5" x2="102.95" y2="143.97"/><line class="cls-5" x1="103.57" y1="141.19" x2="104.82" y2="132.73"/><path class="cls-4" d="M168.43,109.26c.22,1,1,2.62,0,2.92a1.36,1.36,0,0,1-1.55-.79c-.11-.25-.17-.52-.28-.76a.85.85,0,0,0-.57-.52c-.42-.08-.76.31-1,.65s-.62.73-1,.62-.55-.6-.57-1a1.7,1.7,0,0,0-.31-1.18.9.9,0,0,0-.76-.21.94.94,0,0,0-.66.33,7.8,7.8,0,0,1-1.29,1.34,2.54,2.54,0,0,1-1.75.54,1.52,1.52,0,0,1-1.33-1.12c-.1-.45.07-.92,0-1.37a1.37,1.37,0,0,0-1.06-1.07,1.49,1.49,0,0,0-1.43.55c-.18.23-.29.5-.47.73a2.37,2.37,0,0,1-1.49.72,1.47,1.47,0,0,1-.95-.09c-.46-.28-.51-.91-.52-1.44a.93.93,0,0,0-.26-.76.65.65,0,0,0-.8.11,3.37,3.37,0,0,0-.53.71,2.79,2.79,0,0,1-1,.91,1.24,1.24,0,0,1-1.07.12,1.18,1.18,0,0,1-.52-.56c-.39-.79-.33-1.76-.81-2.5a2,2,0,0,0-2.45-.67,8.14,8.14,0,0,0-1.24.9,1.47,1.47,0,0,1-1.45.26c-.89-.45-.47-1.75-1-2.46a1,1,0,0,0-.93-.41,1.69,1.69,0,0,0-.81.67,3.59,3.59,0,0,1-.87.68,1,1,0,0,1-.68.15c-.46-.1-.61-.7-.57-1.17a2.37,2.37,0,0,0-.07-1.4.39.39,0,0,0-.23-.19.61.61,0,0,0-.19,0,2.82,2.82,0,0,0-.89.38c-.54.36-1.13.94-1.73.68a1.27,1.27,0,0,1-.54-1.31,7.6,7.6,0,0,1,1.59-3.48,34.82,34.82,0,0,0,11.18,4.88,95,95,0,0,0,14.16,2.18,26.43,26.43,0,0,1,5.08.85,9.34,9.34,0,0,1,3.57,1.94C168.34,108.84,168.38,109.05,168.43,109.26Z"/><path class="cls-4" d="M150.91,63.05c.15.56,0,1.17.12,1.75s.73,1.14,1.25.86c.32-.18.43-.59.69-.85a1.16,1.16,0,0,1,1.33-.15,2,2,0,0,1,.87,1.1,6.9,6.9,0,0,0,.44,1.28,1.12,1.12,0,0,0,.73.55l-.25,1.17A72.86,72.86,0,0,0,146,67.27h0c-.12-.84-.64-1.6-.76-2.43a3.86,3.86,0,0,1,.05-2,1.31,1.31,0,0,1,1.59-.81c.47.22.67.76.94,1.2s.83.85,1.27.58.45-1.37,1.07-1.44C150.55,62.35,150.82,62.7,150.91,63.05Z"/><path class="cls-4" d="M166.78,72a71.21,71.21,0,0,0-10.69-3.25l.25-1.17a.74.74,0,0,0,.39,0A5.27,5.27,0,0,1,158,66a1.47,1.47,0,0,1,1.59-.39c.74.43.43,1.59.88,2.31a1.61,1.61,0,0,0,2.26.25c.41-.29.71-.72,1.12-1a1.17,1.17,0,0,1,1.4-.11c.77.66-.22,2.22.58,2.83.54.41,1.29-.06,1.77-.55s1.09-1.06,1.72-.8.69.93.75,1.53.26,1.3.84,1.45c-.12.28-.2.28.09.34a.92.92,0,0,0,.81-.32,3.79,3.79,0,0,0,.49-.76,2.46,2.46,0,0,1,.79-.93,1.22,1.22,0,0,1,1.18-.11,1.56,1.56,0,0,1,.64,1.43,1.84,1.84,0,0,0,.22,1.21c.41.49,1.23.25,1.73-.17s.91-1,1.54-1.12a.54.54,0,0,1,.52.13.56.56,0,0,1,.11.32c.11,1.24-1.12,2.06-1.24,3.3l0,.27C174,75.11,170.34,73.4,166.78,72Z"/><path class="cls-4" d="M166.78,72c3.56,1.39,7.2,3.1,11,3.08-.49,4.41-2.36,8.54-3.93,12.71-.12.34-.24.67-.37,1-2.9-4.35-19.67-6.52-26-7.28s-7.72-3.3-7.72-3.3a21.24,21.24,0,0,1,6.25-11,72.86,72.86,0,0,1,10.06,1.49A71.21,71.21,0,0,1,166.78,72Z"/><path class="cls-4" d="M170.31,98.77h0q-.75,2.72-1.44,5.43a12.63,12.63,0,0,0-.57,4.42,9.34,9.34,0,0,0-3.57-1.94,26.43,26.43,0,0,0-5.08-.85,95,95,0,0,1-14.16-2.18,34.82,34.82,0,0,1-11.18-4.88,15.43,15.43,0,0,0,1.5-2.44,36.67,36.67,0,0,0,2-6.65S138.92,91,145,92s9.51.84,15.18,2.45A46.88,46.88,0,0,1,170.31,98.77Z"/><path class="cls-3" d="M160.12,89.6s0,0,0,0a.08.08,0,0,0,0,0A.29.29,0,0,0,160.12,89.6Zm13.34-.8c-1.19,3.28-2.22,6.61-3.14,10h0a46.88,46.88,0,0,0-10.16-4.3C154.48,92.86,151,93,145,92s-7.14-2.34-7.14-2.34c.48-2.08,1-4.15,1.24-6.27.19-1.42.29-2.86.53-4.27.05-.31.11-.61.18-.92,0,0,1.44,2.53,7.72,3.3S170.56,84.45,173.46,88.8Z"/><path class="cls-5" d="M156.34,67.59a.74.74,0,0,0,.39,0A5.27,5.27,0,0,1,158,66a1.47,1.47,0,0,1,1.59-.39c.74.43.43,1.59.88,2.31a1.61,1.61,0,0,0,2.26.25c.41-.29.71-.72,1.12-1a1.17,1.17,0,0,1,1.4-.11c.77.66-.22,2.22.58,2.83.54.41,1.29-.06,1.77-.55s1.09-1.06,1.72-.8.69.93.75,1.53.26,1.3.84,1.45c-.12.28-.2.28.09.34a.92.92,0,0,0,.81-.32,3.79,3.79,0,0,0,.49-.76,2.46,2.46,0,0,1,.79-.93,1.22,1.22,0,0,1,1.18-.11,1.56,1.56,0,0,1,.64,1.43,1.84,1.84,0,0,0,.22,1.21c.41.49,1.23.25,1.73-.17s.91-1,1.54-1.12a.54.54,0,0,1,.52.13.56.56,0,0,1,.11.32c.11,1.24-1.12,2.06-1.24,3.3l0,.27c-.49,4.41-2.36,8.54-3.93,12.71-.12.34-.24.67-.37,1-1.19,3.28-2.22,6.61-3.14,10q-.75,2.72-1.44,5.43a12.63,12.63,0,0,0-.57,4.42c0,.22.07.43.12.64.22,1,1,2.62,0,2.92a1.36,1.36,0,0,1-1.55-.79c-.11-.25-.17-.52-.28-.76a.85.85,0,0,0-.57-.52c-.42-.08-.76.31-1,.65s-.62.73-1,.62-.55-.6-.57-1a1.7,1.7,0,0,0-.31-1.18.9.9,0,0,0-.76-.21.94.94,0,0,0-.66.33,7.8,7.8,0,0,1-1.29,1.34,2.54,2.54,0,0,1-1.75.54,1.52,1.52,0,0,1-1.33-1.12c-.1-.45.07-.92,0-1.37a1.37,1.37,0,0,0-1.06-1.07,1.49,1.49,0,0,0-1.43.55c-.18.23-.29.5-.47.73a2.37,2.37,0,0,1-1.49.72,1.47,1.47,0,0,1-.95-.09c-.46-.28-.51-.91-.52-1.44a.93.93,0,0,0-.26-.76.65.65,0,0,0-.8.11,3.37,3.37,0,0,0-.53.71,2.79,2.79,0,0,1-1,.91,1.24,1.24,0,0,1-1.07.12,1.18,1.18,0,0,1-.52-.56c-.39-.79-.33-1.76-.81-2.5a2,2,0,0,0-2.45-.67,8.14,8.14,0,0,0-1.24.9,1.47,1.47,0,0,1-1.45.26c-.89-.45-.47-1.75-1-2.46a1,1,0,0,0-.93-.41,1.69,1.69,0,0,0-.81.67,3.59,3.59,0,0,1-.87.68,1,1,0,0,1-.68.15c-.46-.1-.61-.7-.57-1.17a2.37,2.37,0,0,0-.07-1.4.39.39,0,0,0-.23-.19.61.61,0,0,0-.19,0,2.82,2.82,0,0,0-.89.38c-.54.36-1.13.94-1.73.68a1.27,1.27,0,0,1-.54-1.31,7.6,7.6,0,0,1,1.59-3.48,15.43,15.43,0,0,0,1.5-2.44,36.67,36.67,0,0,0,2-6.65c.48-2.08,1-4.15,1.24-6.27.19-1.42.29-2.86.53-4.27.05-.31.11-.61.18-.92a21.24,21.24,0,0,1,6.25-11h0c-.12-.84-.64-1.6-.76-2.43a3.86,3.86,0,0,1,.05-2,1.31,1.31,0,0,1,1.59-.81c.47.22.67.76.94,1.2s.83.85,1.27.58.45-1.37,1.07-1.44c.35,0,.62.31.71.66.15.56,0,1.17.12,1.75s.73,1.14,1.25.86c.32-.18.43-.59.69-.85a1.16,1.16,0,0,1,1.33-.15,2,2,0,0,1,.87,1.1,6.9,6.9,0,0,0,.44,1.28A1.12,1.12,0,0,0,156.34,67.59Z"/><path class="cls-5" d="M177.76,75.09c-3.78,0-7.42-1.69-11-3.08a71.21,71.21,0,0,0-10.69-3.25A72.86,72.86,0,0,0,146,67.27H146"/><path class="cls-5" d="M134.32,98.77a34.82,34.82,0,0,0,11.18,4.88,95,95,0,0,0,14.16,2.18,26.43,26.43,0,0,1,5.08.85,9.34,9.34,0,0,1,3.57,1.94,5.39,5.39,0,0,1,.74.77"/><path class="cls-5" d="M139.78,78.22s1.44,2.53,7.72,3.3,23.06,2.93,26,7.28v0"/><path class="cls-5" d="M137.83,89.68S138.92,91,145,92s9.51.84,15.18,2.45a46.88,46.88,0,0,1,10.16,4.3"/><path class="cls-1" d="M146.09,90.87a1.4,1.4,0,0,1-1.28-1,2.18,2.18,0,0,1,.29-1.72.26.26,0,1,1,.44.26,1.68,1.68,0,0,0-.25,1.32.9.9,0,0,0,.91.64,1.18,1.18,0,0,0,.7-.59,1.94,1.94,0,0,0,.31-.94,3.45,3.45,0,0,0-.7-1.85l-.16-.26a2.64,2.64,0,0,1-.43-2.56,2.32,2.32,0,0,1,.66-.76,1.69,1.69,0,0,1,1.19-.4,1.05,1.05,0,0,1,.7.42.78.78,0,0,1,.14.62.25.25,0,0,1-.49-.09.36.36,0,0,0-.07-.24.47.47,0,0,0-.34-.2,1.24,1.24,0,0,0-.82.29,1.72,1.72,0,0,0-.51.59,2.19,2.19,0,0,0,.4,2.07l.16.25a3.83,3.83,0,0,1,.78,2.14,2.47,2.47,0,0,1-.39,1.19,1.59,1.59,0,0,1-1,.81A.75.75,0,0,1,146.09,90.87Z"/><path class="cls-1" d="M151.32,91.27h0a.25.25,0,0,1-.25-.23c-.14-1.63-.28-3.26-.43-4.88,0-.17,0-.35,0-.52-.13.44-.24.87-.36,1.31a24.36,24.36,0,0,1-1.18,3.66.24.24,0,0,1-.33.13.25.25,0,0,1-.13-.33,25.41,25.41,0,0,0,1.15-3.59c.23-.86.46-1.74.76-2.59a.26.26,0,0,1,.27-.17.26.26,0,0,1,.22.23c0,.28.05.6.07.92s.05.6.07.87l.24,2.66a14.89,14.89,0,0,1,1.28-4.14.25.25,0,0,1,.34-.12.26.26,0,0,1,.11.34A18.25,18.25,0,0,0,151.58,91,.27.27,0,0,1,151.32,91.27Z"/><path class="cls-1" d="M155.55,92h0a.25.25,0,0,1-.24-.26l.09-2.68v-.24c0-.86.06-1.71.08-2.56a38,38,0,0,0-2.2,4.54.26.26,0,0,1-.33.14.27.27,0,0,1-.14-.34,40.49,40.49,0,0,1,2.74-5.47.26.26,0,0,1,.29-.11.25.25,0,0,1,.18.25c0,1.18-.07,2.37-.11,3.56v.25c0,.89,0,1.78-.08,2.67A.26.26,0,0,1,155.55,92Z"/><path class="cls-1" d="M155.71,89.12a.23.23,0,0,1-.11,0l0,0a2.2,2.2,0,0,0-.88-.18h-.08a1,1,0,0,1-.63-.16.25.25,0,0,1-.05-.35.24.24,0,0,1,.35,0,.66.66,0,0,0,.34,0h.08a2.93,2.93,0,0,1,1,.21l.09,0a.25.25,0,0,1,.12.34A.24.24,0,0,1,155.71,89.12Z"/><path class="cls-1" d="M158,92.57a1.29,1.29,0,0,1-.85-.31,2,2,0,0,1-.6-1.27,5,5,0,0,1,.1-1.32,7.74,7.74,0,0,1,1.6-4,1.75,1.75,0,0,1,.58-.44.88.88,0,0,1,.85.11.26.26,0,0,1-.33.39.34.34,0,0,0-.33,0,1.2,1.2,0,0,0-.4.31,7.34,7.34,0,0,0-1.47,3.72,4.35,4.35,0,0,0-.09,1.17,1.43,1.43,0,0,0,.43.95.81.81,0,0,0,.64.17.42.42,0,0,0,.3-.2.26.26,0,1,1,.45.24.9.9,0,0,1-.66.46Z"/><path class="cls-1" d="M159.28,92.92h-.06a.25.25,0,0,1-.18-.31c.23-1,.51-2,.82-3a.35.35,0,0,1,0-.06c.33-1,.69-2.08,1.09-3.13a.24.24,0,0,1,.32-.14.25.25,0,0,1,.15.32c-.4,1-.75,2.07-1.06,3.07,0,0,0,0,0,.09-.31,1-.58,2-.81,3A.26.26,0,0,1,159.28,92.92Z"/><path class="cls-1" d="M162,93.42a.23.23,0,0,1-.22-.13l-.07-.12c-.39-.7-.78-1.39-1.16-2.09l-.11-.19a6.75,6.75,0,0,1-.55-1.11l0,0a.27.27,0,0,1,.1-.3l.89-.72a11,11,0,0,0,2-1.89.25.25,0,0,1,.41.3,11.07,11.07,0,0,1-2.07,2l-.76.61a6.53,6.53,0,0,0,.47.91l.11.2c.39.7.77,1.4,1.16,2.09l.07.13a.25.25,0,0,1-.1.34A.27.27,0,0,1,162,93.42Z"/><path class="cls-1" d="M164,94.39a1.24,1.24,0,0,1-.27,0,1.28,1.28,0,0,1-.83-1.13,3.22,3.22,0,0,1,.21-1.25.26.26,0,0,1,.32-.17.24.24,0,0,1,.16.31,2.9,2.9,0,0,0-.19,1.06.79.79,0,0,0,.47.69.71.71,0,0,0,.68-.25,1.6,1.6,0,0,0,.36-.82,2.9,2.9,0,0,0-.05-1.42,3.89,3.89,0,0,0-.19-.42c-.06-.13-.12-.26-.17-.39a3.22,3.22,0,0,1,.11-2.63,1.75,1.75,0,0,1,.64-.76,1.09,1.09,0,0,1,1.06-.08.9.9,0,0,1,.45.57.92.92,0,0,1-.09.73.25.25,0,0,1-.43-.27.39.39,0,0,0,0-.32.4.4,0,0,0-.19-.26.57.57,0,0,0-.56.06,1.21,1.21,0,0,0-.45.55,2.75,2.75,0,0,0-.1,2.23c0,.12.1.23.16.35s.15.31.21.48a3.32,3.32,0,0,1,.07,1.67A2.21,2.21,0,0,1,165,94,1.27,1.27,0,0,1,164,94.39Z"/></svg>