<svg id="Layer_1" data-name="Layer 1" xmlns="http://www.w3.org/2000/svg" viewBox="0 0 256 256"><defs><style>.cls-1{fill:#0e4e91;}.cls-2{fill:#abe7ff;}.cls-3{fill:#fff;}.cls-4{fill:#caf5fe;}.cls-5{fill:#2db5ff;}.cls-6{fill:none;stroke:#0e4e91;stroke-linecap:round;stroke-linejoin:round;}</style></defs><path class="cls-1" d="M118.77,215.09l0-1.14c2,.09,4.06.12,6.06.06l0,1.15C122.88,215.2,120.81,215.18,118.77,215.09Zm-4.59-.33c-2-.2-4.08-.47-6.08-.81l.19-1.13c2,.33,4,.6,6,.79Zm15.32.16-.09-1.14c2-.16,4-.39,6-.68l.18,1.13C133.59,214.53,131.54,214.76,129.5,214.92Zm10.63-1.48-.23-1.13c2-.4,4-.87,5.89-1.42l.3,1.11C144.13,212.55,142.13,213,140.13,213.44Zm10.36-2.79-.37-1.08c1.9-.64,3.81-1.35,5.67-2.13l.44,1.05C154.35,209.28,152.41,210,150.49,210.65Zm9.93-4-.5-1c1.82-.87,3.62-1.82,5.37-2.82l.56,1C164.08,204.77,162.25,205.72,160.42,206.61Zm-86.27-6.2c-1.69-1.14-3.36-2.35-5-3.6l.7-.9c1.58,1.23,3.24,2.43,4.9,3.55Zm95.63,1-.61-1c1.7-1.08,3.37-2.24,5-3.44l.69.91C173.2,199.1,171.5,200.27,169.78,201.37ZM65.62,193.89c-1.54-1.34-3.05-2.74-4.49-4.19l.81-.81c1.42,1.43,2.91,2.81,4.43,4.13ZM178.43,195l-.73-.88c1.54-1.28,3.06-2.64,4.52-4l.79.82C181.54,192.36,180,193.74,178.43,195ZM58,186.37c-1.36-1.5-2.69-3.09-4-4.69l.91-.71c1.24,1.59,2.55,3.15,3.89,4.63Zm128.3,1.31-.83-.78c1.38-1.47,2.72-3,4-4.56l.89.73C189,184.64,187.65,186.2,186.26,187.68ZM51.27,178c-1.17-1.67-2.29-3.39-3.34-5.14l1-.59c1,1.72,2.15,3.43,3.3,5.07Zm141.84,1.45-.92-.68c1.18-1.62,2.33-3.31,3.4-5l1,.61C195.48,176.07,194.32,177.77,193.11,179.42ZM45.67,168.83c-1-1.8-1.85-3.66-2.68-5.51l1-.47c.82,1.84,1.71,3.66,2.65,5.44Zm153.24,1.55-1-.56c1-1.76,1.91-3.57,2.76-5.4l1,.49C200.85,166.76,199.9,168.6,198.91,170.38ZM35.53,127.57c0-1.81.07-3.66.2-5.46l.05-.67,1.14.08-.05.67c-.13,1.78-.19,3.6-.2,5.39ZM37.37,117l-1.13-.14c.26-2,.59-4.06,1-6.06l1.12.23C38,113,37.63,115,37.37,117Zm2-10.4-1.11-.29c.51-2,1.09-4,1.73-5.88l1.08.36C40.43,102.7,39.85,104.65,39.36,106.6Zm167.06,1.46c-.46-2-1-3.92-1.6-5.83l1.09-.35c.61,2,1.15,3.94,1.62,5.92ZM42.6,96.53l-1.07-.43c.75-1.89,1.57-3.78,2.45-5.63L45,91C44.16,92.78,43.34,94.65,42.6,96.53Zm160.74,1.41c-.7-1.88-1.48-3.76-2.31-5.59l1-.48c.84,1.85,1.63,3.76,2.35,5.67Zm-156.25-11-1-.55c1-1.78,2-3.56,3.13-5.29l1,.62C49.08,83.4,48,85.15,47.09,86.91Zm152,1.36c-.93-1.78-1.94-3.55-3-5.26l1-.59c1.06,1.73,2.08,3.53,3,5.33ZM52.72,77.93l-.93-.66c1.19-1.66,2.46-3.3,3.75-4.86l.88.73C55.13,74.68,53.89,76.3,52.72,77.93Zm140.86,1.28c-1.14-1.65-2.35-3.29-3.6-4.86l.89-.71c1.27,1.58,2.51,3.24,3.66,4.92ZM187,70.87c-1.33-1.5-2.73-3-4.18-4.38l.8-.82c1.46,1.43,2.88,2.92,4.24,4.45ZM94.47,46.69l-.37-1.08C96,44.94,98,44.33,100,43.8l.3,1.11C98.31,45.44,96.37,46,94.47,46.69Zm57.89.52c-1.88-.7-3.82-1.33-5.75-1.88l.32-1.1c2,.56,3.92,1.2,5.83,1.91Zm-47.7-3.37-.24-1.11c2-.43,4-.79,6-1.08l.16,1.13C108.63,43.08,106.63,43.43,104.66,43.84Zm37.55.34c-2-.45-4-.83-6-1.15l.18-1.13c2,.32,4,.71,6,1.17Zm-27.07-1.9-.1-1.14c2-.17,4.09-.28,6.12-.32l0,1.15C119.18,42,117.14,42.11,115.14,42.28Zm16.63.15c-2-.21-4-.35-6-.42l0-1.14c2,.07,4.09.22,6.12.43Z"/><circle class="cls-2" cx="123.34" cy="127.59" r="67.05"/><path class="cls-3" d="M73.1,82.34a21.43,21.43,0,0,0-.88,3.42,22.54,22.54,0,0,0-.33,3.79,24.17,24.17,0,0,0,.21,3.09,22.11,22.11,0,0,0,.77,3.4,21,21,0,0,0,1.6,3.84,21.61,21.61,0,0,0,6,7,20.75,20.75,0,0,0,25.14,0,21.24,21.24,0,0,0,3.58-3.45A22.06,22.06,0,0,0,113,96.28a22.92,22.92,0,0,0,.8-3.46,22,22,0,0,0,.24-3.27,20.77,20.77,0,0,0-.33-3.81,21.45,21.45,0,0,0-5.14-10.66,21.15,21.15,0,0,0-3.78-3.35,20.74,20.74,0,0,0-23.41-.16A21.46,21.46,0,0,0,73.1,82.34Zm45.67-13.92V110a4.72,4.72,0,0,1-4.72,4.72H72.51A4.72,4.72,0,0,1,67.79,110V68.42a4.72,4.72,0,0,1,4.72-4.72h41.54A4.72,4.72,0,0,1,118.77,68.42Zm-2.76-1a1,1,0,0,0-2,0,1,1,0,1,0,2,0Zm0,43.35a1,1,0,1,0-1,1A1,1,0,0,0,116,110.78ZM72.62,67.43a1,1,0,1,0-1,1A1,1,0,0,0,72.62,67.43Zm0,43.35a1,1,0,1,0-1,1A1,1,0,0,0,72.62,110.78Z"/><path class="cls-4" d="M72.22,85.76a21.43,21.43,0,0,1,.88-3.42,21.46,21.46,0,0,1,8.28-10.77,20.74,20.74,0,0,1,23.41.16,21.15,21.15,0,0,1,3.78,3.35,21.44,21.44,0,0,1,5.14,10.66,20.77,20.77,0,0,1,.33,3.81,22,22,0,0,1-.24,3.27,22.92,22.92,0,0,1-.8,3.46,22.06,22.06,0,0,1-3.86,7.08,21.24,21.24,0,0,1-3.58,3.45,20.75,20.75,0,0,1-25.14,0,21.61,21.61,0,0,1-6-7A21,21,0,0,1,72.87,96a22.11,22.11,0,0,1-.77-3.4,24.17,24.17,0,0,1-.21-3.09A22.54,22.54,0,0,1,72.22,85.76ZM97.7,99.89c1.65,1.8,8-3.69,6.27-6.7a12.66,12.66,0,0,0-6.09-2.62l-.24,0a4.63,4.63,0,0,0,.21-1.34,4.27,4.27,0,0,0-.23-1.39l.26-.09A12.56,12.56,0,0,0,104,85.09c1.71-3-4.62-8.49-6.27-6.69s-2.88,6.43-2.88,6.43l0,.1a4.45,4.45,0,0,0-1.42-.23,4.29,4.29,0,0,0-1.57.29l-.06-.16s-1.16-4.55-2.88-6.43-8,3.69-6.27,6.69a12.56,12.56,0,0,0,6.08,2.63l.4.14a4.52,4.52,0,0,0-.2,1.34,4.63,4.63,0,0,0,.2,1.34l-.39,0a12.66,12.66,0,0,0-6.09,2.62c-1.71,3,4.62,8.5,6.28,6.7s2.88-6.43,2.88-6.43l0-.06a4.41,4.41,0,0,0,1.59.3,4.19,4.19,0,0,0,1.46-.25h0S96,98,97.7,99.89Z"/><path class="cls-5" d="M104,93.19c1.7,3-4.62,8.5-6.27,6.7s-2.89-6.43-2.89-6.43h0a4.49,4.49,0,0,0,2.83-2.91l.24,0A12.66,12.66,0,0,1,104,93.19Z"/><path class="cls-5" d="M97.69,78.4c1.65-1.8,8,3.69,6.27,6.69a12.56,12.56,0,0,1-6.08,2.63l-.26.09a4.47,4.47,0,0,0-2.85-2.88l0-.1S96,80.28,97.69,78.4Z"/><path class="cls-5" d="M97.85,89.2a4.63,4.63,0,0,1-.21,1.34,4.49,4.49,0,0,1-2.83,2.91,4.19,4.19,0,0,1-1.46.25,4.41,4.41,0,0,1-1.59-.3,4.5,4.5,0,0,1-2.71-2.86,4.63,4.63,0,0,1-.2-1.34A4.46,4.46,0,0,1,91.78,85a4.29,4.29,0,0,1,1.57-.29,4.48,4.48,0,0,1,4.27,3.11A4.27,4.27,0,0,1,97.85,89.2Zm-2.1,0a2.49,2.49,0,1,0-2.48,2.47A2.48,2.48,0,0,0,95.75,89.15Z"/><path class="cls-3" d="M93.27,86.66a2.48,2.48,0,1,1-2.49,2.49A2.48,2.48,0,0,1,93.27,86.66Z"/><path class="cls-5" d="M91.72,84.83l.06.16a4.5,4.5,0,0,0-2.73,2.87l-.4-.14a12.56,12.56,0,0,1-6.08-2.63c-1.71-3,4.62-8.49,6.27-6.69S91.72,84.83,91.72,84.83Z"/><path class="cls-5" d="M91.76,93.4l0,.06S90.57,98,88.85,99.89s-8-3.69-6.28-6.7a12.66,12.66,0,0,1,6.09-2.62l.39,0A4.5,4.5,0,0,0,91.76,93.4Z"/><path class="cls-6" d="M113.71,85.74a20.77,20.77,0,0,1,.33,3.81,22,22,0,0,1-.24,3.27,22.92,22.92,0,0,1-.8,3.46,22.06,22.06,0,0,1-3.86,7.08,21.24,21.24,0,0,1-3.58,3.45,20.75,20.75,0,0,1-25.14,0,21.61,21.61,0,0,1-6-7A21,21,0,0,1,72.87,96a22.11,22.11,0,0,1-.77-3.4,24.17,24.17,0,0,1-.21-3.09,22.54,22.54,0,0,1,.33-3.79,21.43,21.43,0,0,1,.88-3.42,21.46,21.46,0,0,1,8.28-10.77,20.74,20.74,0,0,1,23.41.16,21.15,21.15,0,0,1,3.78,3.35,21.44,21.44,0,0,1,5.14,10.66Z"/><path class="cls-6" d="M94.81,84.83S96,80.28,97.69,78.4s8,3.69,6.27,6.69a12.56,12.56,0,0,1-6.08,2.63"/><path class="cls-6" d="M91.72,84.83s-1.16-4.55-2.88-6.43-8,3.69-6.27,6.69a12.56,12.56,0,0,0,6.08,2.63"/><path class="cls-6" d="M94.81,93.46S96,98,97.7,99.89s8-3.69,6.27-6.7a12.66,12.66,0,0,0-6.09-2.62"/><path class="cls-6" d="M91.73,93.46S90.57,98,88.85,99.89s-8-3.69-6.28-6.7a12.66,12.66,0,0,1,6.09-2.62"/><path class="cls-6" d="M90.78,89.15a2.49,2.49,0,1,1,2.49,2.47A2.49,2.49,0,0,1,90.78,89.15Z"/><line class="cls-6" x1="93.23" y1="68.06" x2="93.23" y2="79.4"/><line class="cls-6" x1="93.42" y1="98.99" x2="93.28" y2="110.83"/><line class="cls-6" x1="102.94" y1="89.06" x2="113.98" y2="88.97"/><line class="cls-6" x1="83.65" y1="88.97" x2="72.01" y2="89.06"/><line class="cls-6" x1="74.81" y1="78.8" x2="81.5" y2="78.8"/><polyline class="cls-6" points="72.97 82.34 73.1 82.34 79.36 82.34"/><line class="cls-6" x1="79.3" y1="85.76" x2="72.22" y2="85.76"/><path class="cls-6" d="M89.57,74.9c-4-.07-7.91-.13-11.88-.18"/><line class="cls-6" x1="89.85" y1="71.57" x2="81.38" y2="71.57"/><line class="cls-6" x1="104.79" y1="71.73" x2="96.6" y2="71.73"/><line class="cls-6" x1="108.57" y1="75.08" x2="96.26" y2="75.08"/><line class="cls-6" x1="111.11" y1="78.58" x2="104.72" y2="78.58"/><line class="cls-6" x1="112.86" y1="82.41" x2="107.19" y2="82.41"/><line class="cls-6" x1="113.71" y1="85.74" x2="107.25" y2="85.74"/><line class="cls-6" x1="113.8" y1="92.82" x2="106.92" y2="92.82"/><line class="cls-6" x1="113" y1="96.28" x2="107" y2="96.28"/><line class="cls-6" x1="111.54" y1="99.73" x2="104.87" y2="99.73"/><line class="cls-6" x1="109.14" y1="103.36" x2="96.33" y2="103.36"/><line class="cls-6" x1="105.56" y1="106.81" x2="96.36" y2="106.81"/><line class="cls-6" x1="90" y1="103.36" x2="76.8" y2="103.36"/><line class="cls-6" x1="90.2" y1="106.85" x2="80.42" y2="106.85"/><path class="cls-6" d="M82,99.84c-2.49,0-5,0-7.49,0"/><line class="cls-6" x1="79.92" y1="96.04" x2="72.87" y2="96.04"/><line class="cls-6" x1="79.66" y1="92.64" x2="72.1" y2="92.64"/><path class="cls-6" d="M116,67.43a1,1,0,1,1-1-1A1,1,0,0,1,116,67.43Z"/><path class="cls-6" d="M116,110.78a1,1,0,1,1-2,0,1,1,0,0,1,2,0Z"/><circle class="cls-6" cx="71.61" cy="67.43" r="1.01"/><circle class="cls-6" cx="71.61" cy="110.78" r="1.01"/><rect class="cls-6" x="67.79" y="63.7" width="50.98" height="50.99" rx="4.72"/><path class="cls-6" d="M97.62,87.81a4.27,4.27,0,0,1,.23,1.39,4.63,4.63,0,0,1-.21,1.34,4.49,4.49,0,0,1-2.83,2.91,4.19,4.19,0,0,1-1.46.25,4.41,4.41,0,0,1-1.59-.3,4.5,4.5,0,0,1-2.71-2.86,4.63,4.63,0,0,1-.2-1.34A4.46,4.46,0,0,1,91.78,85a4.29,4.29,0,0,1,1.57-.29,4.48,4.48,0,0,1,4.27,3.11Z"/><path class="cls-3" d="M119.76,160.68a24.17,24.17,0,0,1,0,7h0L70.49,168h0a25.65,25.65,0,0,1-.31-3.94,26,26,0,0,1,.19-3.07l49.39-.33Z"/><path class="cls-3" d="M119.76,160.68h0L70.36,161a24.37,24.37,0,0,1,2-7l45.4-.31h0A24.28,24.28,0,0,1,119.76,160.68Z"/><path class="cls-3" d="M119.72,167.68h0a24.16,24.16,0,0,1-1.75,6.24h0l-45.64.31A24.49,24.49,0,0,1,70.49,168Z"/><path class="cls-3" d="M118,173.92h0a24.75,24.75,0,0,1-4.57,7L77,181.21h0a24.65,24.65,0,0,1-4.66-7Z"/><path class="cls-3" d="M117.72,153.68h0l-45.4.31a24.51,24.51,0,0,1,4.7-7l35.91-.25h0A24.78,24.78,0,0,1,117.72,153.68Z"/><path class="cls-5" d="M95.08,134.75a29.33,29.33,0,1,1-29.32,29.33A29.33,29.33,0,0,1,95.08,134.75ZM120,164.08a23.77,23.77,0,0,0-.24-3.4,24.28,24.28,0,0,0-2-7,24.78,24.78,0,0,0-4.79-7h0A24.89,24.89,0,0,0,77,147,24.89,24.89,0,0,0,70.36,161a26,26,0,0,0-.19,3.07,25.65,25.65,0,0,0,.31,3.94h0A24.83,24.83,0,0,0,77,181.21h0a24.94,24.94,0,0,0,41-7.29,24.16,24.16,0,0,0,1.75-6.24A23.74,23.74,0,0,0,120,164.08Z"/><path class="cls-3" d="M113.41,181a24.91,24.91,0,0,1-36.41.26Z"/><path class="cls-3" d="M95.08,139.17a24.79,24.79,0,0,1,17.84,7.53L77,147A24.76,24.76,0,0,1,95.08,139.17Z"/><path class="cls-6" d="M70.48,168a25.65,25.65,0,0,1-.31-3.94,26,26,0,0,1,.19-3.07A24.89,24.89,0,0,1,77,147a24.89,24.89,0,0,1,35.91-.25"/><path class="cls-6" d="M77,181.21A24.83,24.83,0,0,1,70.49,168"/><path class="cls-6" d="M112.93,146.7a24.78,24.78,0,0,1,4.79,7,24.28,24.28,0,0,1,2,7,24.17,24.17,0,0,1,0,7,24.16,24.16,0,0,1-1.75,6.24,24.92,24.92,0,0,1-41,7.29"/><circle class="cls-6" cx="95.08" cy="164.08" r="29.32"/><polyline class="cls-6" points="77.01 146.94 112.92 146.7 112.93 146.7"/><line class="cls-6" x1="117.71" y1="153.68" x2="72.31" y2="153.99"/><line class="cls-6" x1="119.75" y1="160.68" x2="70.36" y2="161.01"/><polyline class="cls-6" points="119.72 167.68 70.49 168.02 70.48 168.02"/><line class="cls-6" x1="117.97" y1="173.92" x2="72.33" y2="174.23"/><polyline class="cls-6" points="76.98 181.21 77 181.21 113.41 180.96"/><circle class="cls-3" cx="167.14" cy="124.2" r="4.61"/><path class="cls-5" d="M171.75,124.2a4.61,4.61,0,1,0-4.61,4.61A4.61,4.61,0,0,0,171.75,124.2Zm2.85-1.38a7.87,7.87,0,0,1,.13,1.38A7.53,7.53,0,0,1,172,130a7.22,7.22,0,0,1-3.23,1.59,7.43,7.43,0,0,1-1.64.19,4.53,4.53,0,0,1-.82-.06,7.52,7.52,0,0,1-4.95-2.6,7.39,7.39,0,0,1-1.67-3.48,6.76,6.76,0,0,1-.15-1.44,5.7,5.7,0,0,1,.08-1,7.34,7.34,0,0,1,1.47-3.55v0a7.32,7.32,0,0,1,1.38-1.4,7.41,7.41,0,0,1,3.45-1.5,7,7,0,0,1,1.21-.1,6,6,0,0,1,1.29.12,7.62,7.62,0,0,1,6.17,6.09Z"/><path class="cls-5" d="M187.58,104.94c1.33,1.36.65,5.7-1.42,10a23.17,23.17,0,0,1-5.66,7.61c-1.73.08-3.59.15-5.54.17l-.36.08a7.42,7.42,0,0,0-1.44-3.22h0a10.28,10.28,0,0,0,1.85-4.73c2.41-2.46,4.48-4.67,6.26-6.37C183.85,106,185.87,104.61,187.58,104.94Z"/><path class="cls-5" d="M188.19,122.26c3.58-.05,6.06.29,7.09,1.71.05,1.89-3.42,4.61-7.91,6.34a21.67,21.67,0,0,1-10.67,1.54h0A10.51,10.51,0,0,1,172,130a7.53,7.53,0,0,0,2.72-5.8,7.87,7.87,0,0,0-.13-1.38l.36-.08c1.95,0,3.81-.09,5.54-.17C183.43,122.43,186,122.27,188.19,122.26Z"/><path class="cls-5" d="M172,130a10.51,10.51,0,0,0,4.68,1.85h0c2.45,2.39,4.65,4.45,6.36,6.23,2.46,2.58,3.9,4.6,3.56,6.32-1.33,1.32-5.6.67-9.9-1.37a22.86,22.86,0,0,1-7.72-5.71c-.08-1.73-.16-3.59-.18-5.54l0-.19A7.22,7.22,0,0,0,172,130Z"/><path class="cls-5" d="M168.82,131.78c0,1.95.1,3.81.18,5.54.14,3,.31,5.68.32,7.9,0,3.48-.32,5.87-1.72,6.88-1.85.05-4.47-3.25-6.22-7.57a22,22,0,0,1-1.65-11,10.2,10.2,0,0,1,1.64-4.4,7.52,7.52,0,0,0,4.95,2.6,4.53,4.53,0,0,0,.82.06,7.43,7.43,0,0,0,1.64-.19Z"/><path class="cls-5" d="M159.7,125.64a7.39,7.39,0,0,0,1.67,3.48,10.2,10.2,0,0,0-1.64,4.4c-2.51,2.56-4.64,4.84-6.48,6.58-2.47,2.34-4.42,3.67-6.08,3.35-1.28-1.3-.7-5.39,1.19-9.55h0a23.19,23.19,0,0,1,5.9-8.07C156,125.74,157.78,125.68,159.7,125.64Z"/><path class="cls-5" d="M146.87,118.27A22.07,22.07,0,0,1,158,116.55a10.39,10.39,0,0,1,4.44,1.66,7.32,7.32,0,0,0-1.38,1.4v0a7.34,7.34,0,0,0-1.47,3.55,5.7,5.7,0,0,0-.08,1,6.76,6.76,0,0,0,.15,1.44c-1.92,0-3.74.1-5.44.18-3.14.14-5.9.32-8.16.32-3.34,0-5.65-.35-6.64-1.72C139.42,122.6,142.63,120,146.87,118.27Z"/><path class="cls-5" d="M165.93,116.71a7.41,7.41,0,0,0-3.45,1.5,10.39,10.39,0,0,0-4.44-1.66c-2.56-2.52-4.86-4.66-6.59-6.5-2.32-2.46-3.65-4.4-3.33-6.06,1.31-1.29,5.45-.7,9.66,1.25a23.22,23.22,0,0,1,8,5.84c.07,1.73.15,3.57.17,5.53Z"/><path class="cls-5" d="M173.43,104A21.81,21.81,0,0,1,175,114.86a10.28,10.28,0,0,1-1.85,4.73h0a7.45,7.45,0,0,0-4.73-2.87,6,6,0,0,0-1.29-.12,7,7,0,0,0-1.21.1v-.1c0-2-.1-3.8-.17-5.53-.15-3-.32-5.72-.33-8,0-3.46.34-5.84,1.72-6.85C169,96.24,171.68,99.61,173.43,104Z"/><path class="cls-4" d="M186.16,115a20.92,20.92,0,0,1,2,7.3c-2.18,0-4.76.17-7.69.31A23.17,23.17,0,0,0,186.16,115Z"/><path class="cls-4" d="M176.7,131.85a21.67,21.67,0,0,0,10.67-1.54,20.81,20.81,0,0,1-4.31,7.77C181.35,136.3,179.15,134.24,176.7,131.85Z"/><path class="cls-4" d="M176.72,143a20.63,20.63,0,0,1-7.4,2.19c0-2.22-.18-4.87-.32-7.9A22.86,22.86,0,0,0,176.72,143Z"/><path class="cls-4" d="M159.73,133.52a22,22,0,0,0,1.65,11,20.63,20.63,0,0,1-8.13-4.43C155.09,138.36,157.22,136.08,159.73,133.52Z"/><path class="cls-4" d="M154.26,125.82a23.19,23.19,0,0,0-5.9,8.07,21,21,0,0,1-2.26-7.75C148.36,126.14,151.12,126,154.26,125.82Z"/><path class="cls-4" d="M151.45,110.05c1.73,1.84,4,4,6.59,6.5a22.07,22.07,0,0,0-11.17,1.72A20.7,20.7,0,0,1,151.45,110.05Z"/><path class="cls-4" d="M165.42,103.13c0,2.23.18,4.91.33,8a23.22,23.22,0,0,0-8-5.84A20.73,20.73,0,0,1,165.42,103.13Z"/><path class="cls-4" d="M181.28,108.49c-1.78,1.7-3.85,3.91-6.26,6.37A21.81,21.81,0,0,0,173.43,104,20.86,20.86,0,0,1,181.28,108.49Z"/><path class="cls-3" d="M167.14,91.94A32.25,32.25,0,1,1,134.9,124.2,32.25,32.25,0,0,1,167.14,91.94Zm20.23,38.37c4.49-1.73,8-4.45,7.91-6.34-1-1.42-3.51-1.76-7.09-1.71a20.92,20.92,0,0,0-2-7.3c2.07-4.32,2.75-8.66,1.42-10-1.71-.33-3.73,1.09-6.3,3.55a20.86,20.86,0,0,0-7.85-4.48c-1.75-4.4-4.41-7.77-6.29-7.73-1.38,1-1.74,3.39-1.72,6.85a20.73,20.73,0,0,0-7.64,2.11c-4.21-1.95-8.35-2.54-9.66-1.25-.32,1.66,1,3.6,3.33,6.06a20.7,20.7,0,0,0-4.58,8.22c-4.24,1.74-7.45,4.33-7.41,6.15,1,1.37,3.3,1.72,6.64,1.72a21,21,0,0,0,2.26,7.75h0c-1.89,4.16-2.47,8.25-1.19,9.55,1.66.32,3.61-1,6.08-3.35a20.63,20.63,0,0,0,8.13,4.43c1.75,4.32,4.37,7.62,6.22,7.57,1.4-1,1.74-3.4,1.72-6.88a20.63,20.63,0,0,0,7.4-2.19c4.3,2,8.57,2.69,9.9,1.37.34-1.72-1.1-3.74-3.56-6.32A20.81,20.81,0,0,0,187.37,130.31Z"/><path class="cls-6" d="M167.14,91.94a32.25,32.25,0,1,0,32.25,32.26A32.25,32.25,0,0,0,167.14,91.94Z"/><path class="cls-6" d="M157.78,105.24a20.73,20.73,0,0,1,7.64-2.11"/><path class="cls-6" d="M173.43,104a20.86,20.86,0,0,1,7.85,4.48"/><path class="cls-6" d="M146.87,118.27a20.7,20.7,0,0,1,4.58-8.22"/><path class="cls-6" d="M146.1,126.14a21,21,0,0,0,2.26,7.75"/><path class="cls-6" d="M176.72,143a20.63,20.63,0,0,1-7.4,2.19"/><path class="cls-6" d="M183.06,138.08a20.81,20.81,0,0,0,4.31-7.77"/><path class="cls-6" d="M161.38,144.53a20.63,20.63,0,0,1-8.13-4.43"/><path class="cls-6" d="M186.16,115a20.92,20.92,0,0,1,2,7.3"/><circle class="cls-6" cx="167.14" cy="124.2" r="4.61"/><path class="cls-6" d="M161.1,119.61a7.32,7.32,0,0,1,1.38-1.4,7.41,7.41,0,0,1,3.45-1.5,7,7,0,0,1,1.21-.1,6,6,0,0,1,1.29.12,7.62,7.62,0,0,1,6.17,6.09,7.87,7.87,0,0,1,.13,1.38A7.53,7.53,0,0,1,172,130a7.22,7.22,0,0,1-3.23,1.59,7.43,7.43,0,0,1-1.64.19,4.53,4.53,0,0,1-.82-.06,7.52,7.52,0,0,1-4.95-2.6,7.39,7.39,0,0,1-1.67-3.48,6.76,6.76,0,0,1-.15-1.44,5.7,5.7,0,0,1,.08-1,7.34,7.34,0,0,1,1.47-3.55"/><path class="cls-6" d="M173.17,119.59a10.28,10.28,0,0,0,1.85-4.73A21.81,21.81,0,0,0,173.43,104c-1.75-4.4-4.41-7.77-6.29-7.73-1.38,1-1.74,3.39-1.72,6.85,0,2.23.18,4.91.33,8,.07,1.73.15,3.57.17,5.53"/><path class="cls-6" d="M180.5,122.57a23.17,23.17,0,0,0,5.66-7.61c2.07-4.32,2.75-8.66,1.42-10-1.71-.33-3.73,1.09-6.3,3.55-1.78,1.7-3.85,3.91-6.26,6.37"/><path class="cls-6" d="M176.7,131.85a21.67,21.67,0,0,0,10.67-1.54c4.49-1.73,8-4.45,7.91-6.34-1-1.42-3.51-1.76-7.09-1.71-2.18,0-4.76.17-7.69.31-1.73.08-3.59.15-5.54.17"/><path class="cls-6" d="M172,130h0a10.51,10.51,0,0,0,4.68,1.85"/><path class="cls-6" d="M169,137.32a22.86,22.86,0,0,0,7.72,5.71c4.3,2,8.57,2.69,9.9,1.37.34-1.72-1.1-3.74-3.56-6.32-1.71-1.78-3.91-3.84-6.36-6.23h0"/><path class="cls-6" d="M161.37,129.12a10.2,10.2,0,0,0-1.64,4.4,22,22,0,0,0,1.65,11c1.75,4.32,4.37,7.62,6.22,7.57,1.4-1,1.74-3.4,1.72-6.88,0-2.22-.18-4.87-.32-7.9-.08-1.73-.16-3.59-.18-5.54"/><path class="cls-6" d="M154.26,125.82a23.19,23.19,0,0,0-5.9,8.07h0c-1.89,4.16-2.47,8.25-1.19,9.55,1.66.32,3.61-1,6.08-3.35,1.84-1.74,4-4,6.48-6.58"/><path class="cls-6" d="M162.48,118.21a10.39,10.39,0,0,0-4.44-1.66,22.07,22.07,0,0,0-11.17,1.72c-4.24,1.74-7.45,4.33-7.41,6.15,1,1.37,3.3,1.72,6.64,1.72,2.26,0,5-.18,8.16-.32,1.7-.08,3.52-.14,5.44-.18h.09"/><path class="cls-6" d="M161.13,119.65l0,0v0"/><path class="cls-6" d="M158,116.55c-2.56-2.52-4.86-4.66-6.59-6.5-2.32-2.46-3.65-4.4-3.33-6.06,1.31-1.29,5.45-.7,9.66,1.25a23.22,23.22,0,0,1,8,5.84"/><circle class="cls-6" cx="167.14" cy="124.19" r="21.03"/></svg>