<svg xmlns="http://www.w3.org/2000/svg" id="Layer_1" data-name="Layer 1" viewBox="69.99 68.26 227.33 230.8"><defs><style>.cls-2{fill:#0e4e91}.cls-3{fill:#fff}.cls-4{fill:none;stroke:#0e4e91;stroke-linecap:round;stroke-linejoin:round}.cls-5{fill:#2db5ff}.cls-6{fill:#caf5fe}</style></defs><circle cx="173.24" cy="188.1" r="91.48" style="fill:#abe7ff"/><path class="cls-2" d="M183.63 192.08a.53.53 0 0 1 .54.51v3.34a.54.54 0 0 1-1.08 0v-3.34a.53.53 0 0 1 .54-.51zm5.18 1.07a.78.78 0 0 1 .21 0 .51.51 0 0 1 .29.68l-1.35 3a.55.55 0 0 1-.71.27.51.51 0 0 1-.29-.67l1.35-3a.55.55 0 0 1 .5-.28zm4.32 2.91a.54.54 0 0 1 .39.16.48.48 0 0 1 0 .72l-2.44 2.24a.57.57 0 0 1-.77 0 .49.49 0 0 1 0-.72l2.44-2.24a.59.59 0 0 1 .38-.16zm-14.96-2.98a.53.53 0 0 1 .49.31l1.45 3.1a.51.51 0 0 1-.28.68.55.55 0 0 1-.71-.26l-1.45-3.11a.5.5 0 0 1 .28-.67.59.59 0 0 1 .22-.05zm-4.57 3.06a.53.53 0 0 1 .36.13l2.68 2.3a.49.49 0 0 1 0 .72.56.56 0 0 1-.76 0l-2.68-2.3a.49.49 0 0 1 0-.72.52.52 0 0 1 .4-.13z"/><path class="cls-3" d="M183.1 216a32.63 32.63 0 1 1-32.62 32.63A32.63 32.63 0 0 1 183.1 216zm23.64 32.63a23.64 23.64 0 1 0-23.64 23.64 23.63 23.63 0 0 0 23.64-23.66z"/><circle class="cls-4" cx="183.1" cy="248.61" r="32.62"/><circle class="cls-4" cx="183.1" cy="248.61" r="23.64"/><circle class="cls-5" cx="183.1" cy="211.63" r="8.52"/><circle class="cls-4" cx="183.1" cy="211.63" r="8.52"/><path class="cls-4" d="M268.71 126.09c1 8.95-5 22.2-24.35 24.6-19.3-2.4-25.31-15.65-24.35-24.6"/><circle class="cls-5" cx="244.38" cy="150.82" r="3.74"/><circle class="cls-4" cx="244.38" cy="150.82" r="3.74"/><path class="cls-6" d="M244.43 164.52c4.72 3.59 12.13 10.7 12.31 20.09 0 9.56-7.89 11-12.57 11-8.2 0-12.37-3.52-12.37-10.48 0-9.64 7.75-16.96 12.63-20.61z"/><path class="cls-3" d="M264.88 184.55c0 13.11-9.82 19.19-20.71 19.19s-20.51-5.52-20.51-18.63c0-19.25 20.79-30.34 20.79-30.34s20.15 10.88 20.43 29.78zm-8.14.06c-.18-9.39-7.59-16.5-12.31-20.09-4.88 3.65-12.63 11-12.63 20.59 0 7 4.17 10.48 12.37 10.48 4.68 0 12.53-1.42 12.57-10.98z"/><path class="cls-4" d="M264.88 184.55c0 13.11-9.82 19.19-20.71 19.19s-20.51-5.52-20.51-18.63c0-19.25 20.79-30.34 20.79-30.34s20.15 10.88 20.43 29.78z"/><path class="cls-4" d="M244.17 195.59c-8.2 0-12.37-3.52-12.37-10.48 0-9.62 7.75-16.94 12.63-20.59 4.72 3.59 12.13 10.7 12.31 20.09-.04 9.56-7.89 10.98-12.57 10.98z"/><path class="cls-2" d="M82.4 232.05a.32.32 0 0 1-.33-.31v-2.05a.33.33 0 0 1 .66 0v2.05a.32.32 0 0 1-.33.31zm-3.18-.66h-.13a.32.32 0 0 1-.18-.42l.83-1.85a.33.33 0 0 1 .43-.17.31.31 0 0 1 .18.41l-.83 1.86a.32.32 0 0 1-.3.17zm-2.66-1.78a.37.37 0 0 1-.24-.1.31.31 0 0 1 0-.45l1.5-1.37a.34.34 0 0 1 .47 0 .3.3 0 0 1 0 .45l-1.5 1.37a.33.33 0 0 1-.23.1zm9.19 1.83a.34.34 0 0 1-.3-.19l-.89-1.91a.3.3 0 0 1 .17-.41.33.33 0 0 1 .44.16l.89 1.9a.32.32 0 0 1-.17.42.32.32 0 0 1-.14.03zm2.81-1.88a.35.35 0 0 1-.22-.08l-1.65-1.41a.32.32 0 0 1 0-.45.34.34 0 0 1 .47 0l1.62 1.38a.31.31 0 0 1 0 .45.39.39 0 0 1-.22.11zm28.95 2.08a.32.32 0 0 1-.33-.32v-2a.34.34 0 0 1 .67 0v2a.33.33 0 0 1-.34.32zm-3.18-.64a.34.34 0 0 1-.31-.44l.83-1.86a.35.35 0 0 1 .44-.17.31.31 0 0 1 .17.42l-.82 1.86a.34.34 0 0 1-.31.19zm-2.65-1.81a.34.34 0 0 1-.24-.09.31.31 0 0 1 0-.45l1.51-1.37a.34.34 0 0 1 .47 0 .31.31 0 0 1 0 .44l-1.5 1.37a.35.35 0 0 1-.24.1zm9.19 1.81a.34.34 0 0 1-.31-.19l-.88-1.9a.31.31 0 0 1 .17-.42.33.33 0 0 1 .43.16l.89 1.91a.31.31 0 0 1-.17.42zm2.81-1.85a.35.35 0 0 1-.23-.09l-1.64-1.41a.3.3 0 0 1 0-.44.35.35 0 0 1 .47 0l1.65 1.42a.29.29 0 0 1 0 .44.32.32 0 0 1-.25.08z"/><path class="cls-3" d="M117.12 173.3s12.81 10.32 12.7 21.53c0 9.84-5.69 14.12-12.7 14.12h-.07a.92.92 0 0 0-.15-.14l-.18.13c-6.83-.16-12.3-4.46-12.3-14.11.38-12.61 12.7-21.53 12.7-21.53zm-33.93 0S96 183.62 95.88 194.83c0 9.84-5.68 14.12-12.69 14.12h-.08a1.21 1.21 0 0 0-.16-.14l-.18.13c-6.83-.17-12.28-4.47-12.28-14.11.37-12.61 12.7-21.53 12.7-21.53z"/><circle class="cls-5" cx="82.87" cy="167.6" r="5.7"/><circle class="cls-5" cx="82.87" cy="157.56" r="4.22"/><circle class="cls-5" cx="116.8" cy="157.56" r="4.22"/><circle class="cls-5" cx="116.8" cy="167.6" r="5.7"/><path class="cls-5" d="M117.05 209c.9.77 5.42 4.86 5.39 9.26s-2.49 6.16-5.54 6.16-5.56-1.87-5.56-6.16c.15-4.91 4.44-8.54 5.38-9.27zm-33.94 0c.91.77 5.43 4.86 5.39 9.26s-2.5 6.11-5.5 6.11-5.54-1.87-5.54-6.16c.14-4.91 4.42-8.54 5.36-9.27z"/><circle class="cls-4" cx="82.87" cy="157.56" r="4.22"/><circle class="cls-4" cx="82.87" cy="167.6" r="5.7"/><path class="cls-4" d="M82.77 208.94c-6.83-.17-12.28-4.47-12.28-14.11.37-12.61 12.7-21.53 12.7-21.53S96 183.62 95.88 194.83c0 9.84-5.68 14.12-12.69 14.12h-.42z"/><path class="cls-4" d="M83.11 209c.91.77 5.43 4.86 5.39 9.26s-2.5 6.11-5.5 6.11-5.54-1.87-5.54-6.16c.14-4.91 4.42-8.54 5.36-9.27l.18-.13a1.21 1.21 0 0 1 .11.19zm-.39-6.22c4.33-.13 6.63-2.45 6.77-7.12m-6.62-42.32v-6.46a5.48 5.48 0 0 0-1-3.09l-3.11-4.5a5.14 5.14 0 0 1-.91-2.95c0-2.56.71-7.07 5.17-7.07 7-.16 6.61 9.07 6.61 9.07v3c0 2.17 1.3 3.9 3.46 3.9"/><circle class="cls-4" cx="116.8" cy="157.56" r="4.22"/><circle class="cls-4" cx="116.8" cy="167.6" r="5.7"/><path class="cls-4" d="M116.72 208.94c-6.83-.16-12.3-4.46-12.3-14.11.38-12.61 12.7-21.53 12.7-21.53s12.81 10.32 12.7 21.53c0 9.84-5.69 14.12-12.7 14.12h-.4z"/><path class="cls-4" d="M117.05 209c.9.77 5.42 4.86 5.39 9.26s-2.49 6.16-5.54 6.16-5.56-1.87-5.56-6.16c.15-4.91 4.44-8.54 5.38-9.27l.18-.13a.92.92 0 0 1 .15.14zm-.39-6.22c4.32-.13 6.62-2.45 6.78-7.12m-6.64-42.32v-6.46a5.48 5.48 0 0 0-1-3.09l-3.1-4.5a5.15 5.15 0 0 1-.92-2.95c0-2.56.71-7.07 5.17-7.07 7-.16 6.61 9.07 6.61 9.07v3c0 2.17 1.3 3.9 3.47 3.9"/><path class="cls-2" d="m216 299.06-.52-1.58c2.75-.9 5.49-1.92 8.17-3l.64 1.53c-2.69 1.1-5.47 2.13-8.29 3.05zm-82.29-3c-2.71-1.12-5.42-2.36-8.05-3.69l.75-1.48a116 116 0 0 0 7.94 3.64zm96.62-2.76-.72-1.5c2.61-1.25 5.2-2.63 7.7-4.08l.84 1.44a122.58 122.58 0 0 1-7.79 4.11zm-110.52-4.09c-2.54-1.47-5.06-3.05-7.49-4.71l.94-1.38c2.39 1.64 4.88 3.2 7.39 4.65zm124-3.53-.91-1.39c2.42-1.59 4.81-3.29 7.11-5.06l1 1.32c-2.31 1.76-4.73 3.45-7.19 5.1zM107 280.57c-2.32-1.78-4.62-3.68-6.82-5.64l1.11-1.25c2.17 1.94 4.43 3.82 6.72 5.57zm149.21-4.24-1.09-1.26c2.2-1.89 4.35-3.88 6.4-5.93l1.17 1.17c-2.1 2.08-4.29 4.11-6.51 6.02zm-160.85-6c-2.08-2.08-4.11-4.26-6-6.48l1.26-1.09a116 116 0 0 0 5.94 6.39zm171.89-4.88-1.25-1.07c1.93-2.16 3.8-4.42 5.57-6.72l1.32 1c-1.8 2.34-3.7 4.64-5.67 6.83zm-182.14-6.71c-1.79-2.33-3.52-4.75-5.13-7.21l1.39-.91c1.59 2.42 3.29 4.81 5.06 7.11zm191.66-5.44-1.37-.94c1.63-2.39 3.2-4.87 4.65-7.38l1.44.83c-1.49 2.54-3.06 5.07-4.72 7.49zM76.5 245.89a116.39 116.39 0 0 1-4.15-7.81l1.5-.72c1.26 2.61 2.63 5.2 4.08 7.7zM284.66 240l-1.49-.74c1.31-2.6 2.54-5.27 3.65-7.94l1.53.64a127.83 127.83 0 0 1-3.69 8.04zm6.06-14.26-1.56-.55c.95-2.73 1.82-5.54 2.56-8.33l1.61.42a123.7 123.7 0 0 1-2.61 8.42zm4.14-14.91-1.63-.34c.59-2.83 1.08-5.72 1.45-8.6l1.65.21c-.33 2.9-.87 5.82-1.47 8.69zm2.14-15.37-1.66-.12c.21-2.89.32-5.83.32-8.72v-.3h1.66v.29c.01 2.95-.1 5.92-.32 8.85zm-1.54-15.68c-.17-2.89-.44-5.81-.83-8.69l1.65-.22c.39 2.92.67 5.88.84 8.81zm-1.87-15.15c-.54-2.84-1.2-5.7-2-8.5l1.6-.43c.77 2.83 1.43 5.73 2 8.62zm-37-65.18c-2.16-1.92-4.42-3.79-6.72-5.56l1-1.32c2.33 1.79 4.63 3.69 6.82 5.64zM107.8 94.12l-1-1.31c2.33-1.8 4.76-3.52 7.21-5.14l.91 1.39c-2.44 1.59-4.83 3.3-7.12 5.06zm136.73-4.06c-2.4-1.63-4.89-3.19-7.4-4.64L238 84c2.55 1.47 5.07 3 7.5 4.71zm-124.07-4.44-.83-1.44c2.54-1.47 5.16-2.87 7.81-4.15l.72 1.5c-2.6 1.26-5.16 2.64-7.7 4.09zm110.9-3.31c-2.59-1.3-5.26-2.52-7.94-3.63l.64-1.53c2.71 1.12 5.42 2.36 8.05 3.68zm-97.24-3.46-.64-1.54c2.71-1.13 5.5-2.17 8.28-3.09l.52 1.58c-2.74.91-5.49 1.93-8.16 3.05zm83.17-2.49c-2.73-1-5.54-1.81-8.34-2.55l.43-1.61c2.84.75 5.68 1.62 8.46 2.59zm-68.74-2.44-.43-1.6c2.84-.77 5.74-1.43 8.63-2l.3 1.63c-2.84.56-5.7 1.22-8.5 1.97zm54-1.61c-2.83-.58-5.73-1.07-8.61-1.44l.22-1.64c2.91.37 5.85.86 8.72 1.45zm-39.06-1.38-.22-1.65c2.91-.38 5.87-.66 8.8-.83l.1 1.66c-2.86.17-5.79.44-8.65.82zm23.94-.71c-2.8-.2-5.66-.3-8.49-.3h-.23v-1.66h.29c2.88 0 5.78.1 8.62.31z"/><path class="cls-3" d="M197.92 111.73a5.34 5.34 0 1 1 0 10.68 4.28 4.28 0 0 1-.81-.07 3.23 3.23 0 0 0-.33-.06 5.34 5.34 0 0 1 .07-10.44 5.49 5.49 0 0 1 1.07-.11zm-4.17 17.93a5.34 5.34 0 1 1-6.88 8.09 3.92 3.92 0 0 0-.93-1.37 5.34 5.34 0 0 1 7.81-6.72zM179 140.16a5.89 5.89 0 0 1 .09 1 5.34 5.34 0 1 1-10.67 0v-.63a4 4 0 0 0 .18-.85 5.34 5.34 0 0 1 10.37.45zm-16.87-6.07a5.34 5.34 0 1 1-8.44-4.35 5.34 5.34 0 0 1 8.44 4.35zm-11.42-22.25a5.34 5.34 0 0 1-.1 10.48 5.15 5.15 0 0 1-1 .09 5.34 5.34 0 1 1 0-10.68 5.39 5.39 0 0 1 1.1.11zm10.78-14.37a5.44 5.44 0 0 1 .64 2.54 5.35 5.35 0 0 1-8.2 4.52l-.12-.09a5.34 5.34 0 1 1 7.1-7.83 3.49 3.49 0 0 0 .58.84s-.01.02 0 .02zM179.2 93a1.09 1.09 0 0 1 0 .18 4.13 4.13 0 0 0-.36 1.75 5.33 5.33 0 0 1-10.2-.85 4.83 4.83 0 0 1-.11-1.08 5.34 5.34 0 1 1 10.68 0zm16.9 7a5.35 5.35 0 0 1-2.35 4.43 5.28 5.28 0 0 1-3 .91 5.34 5.34 0 0 1-5.34-5.34 5.36 5.36 0 0 1 5.34-5.34 5.35 5.35 0 0 1 5.35 5.34z"/><path class="cls-6" d="M200.24 107.33a4.06 4.06 0 0 1-3.4 4.47h-.17a4 4 0 0 1-4.49-3.57 4 4 0 0 1 1.63-3.72 3.87 3.87 0 0 1 1.94-.77 4.06 4.06 0 0 1 4.49 3.59zm0 18.51a4.07 4.07 0 0 1-3.57 4.5 4.12 4.12 0 0 1-2.88-.77 4.07 4.07 0 0 1 2-7.3 3.86 3.86 0 0 1 1 0 1.91 1.91 0 0 0 .33.06 4.07 4.07 0 0 1 3.12 3.51zm-13.09 13a4.06 4.06 0 0 1-8 1.3c0-.13-.05-.25-.07-.38a4.06 4.06 0 0 1 6.86-3.38 5.43 5.43 0 0 0 .93 1.37 4 4 0 0 1 .28 1.09zm-18.53.06a4.38 4.38 0 0 1 0 .81 6.11 6.11 0 0 0-.18.85 4 4 0 1 1 .17-1.66zm-13.14-13.06a4.06 4.06 0 0 1-1.81 3.87 4.22 4.22 0 0 1-1.76.63 4.06 4.06 0 0 1-1.3-8 2.32 2.32 0 0 1 .38-.06 4.05 4.05 0 0 1 4.49 3.56zm.07-18.51a4.06 4.06 0 0 1-3.57 4.49 4 4 0 0 1-1.25 0 4.06 4.06 0 1 1 3.08-7.34l.12.09a4 4 0 0 1 1.62 2.76zm13.01-13a4 4 0 0 1-7.07 3.14 7 7 0 0 0-.58-.84 4.06 4.06 0 1 1 7.61-2.63c.02.14.03.24.04.33zm18.37 0a4.1 4.1 0 0 1-3.57 4.5 4.07 4.07 0 0 1-4.5-3.58v-.37a4.93 4.93 0 0 0 .36-1.75 4.06 4.06 0 0 1 7.74 1.2z"/><path class="cls-5" d="M173.76 150.26c1.68-1.25 4.56-.72 4.56 1.92s-4.38 5.86-4.38 5.86-4.83-3.1-4.83-5.77 2.88-3.31 4.6-2z"/><path class="cls-4" d="M168.63 94a4.83 4.83 0 0 1-.11-1.08 5.34 5.34 0 1 1 10.68 0 1.09 1.09 0 0 1 0 .18 4.93 4.93 0 0 1-.36 1.75 5.33 5.33 0 0 1-10.2-.85zm-7.72 2.62a7 7 0 0 1 .58.84m-7.68 6.98a5.34 5.34 0 1 1 7.1-7.83m.58.86a5.44 5.44 0 0 1 .64 2.54 5.35 5.35 0 0 1-8.2 4.52m-3.22 7.31a5.34 5.34 0 0 1-.1 10.48 5.15 5.15 0 0 1-1 .09 5.34 5.34 0 1 1 0-10.68 5.39 5.39 0 0 1 1.1.11zm2.98 17.9a5.34 5.34 0 0 1 8.44 4.35 5.34 5.34 0 1 1-8.44-4.35zM179 140.16a5.89 5.89 0 0 1 .09 1 5.34 5.34 0 1 1-10.67 0v-.63a6.11 6.11 0 0 1 .18-.85 5.34 5.34 0 0 1 10.37.45zM186.34 97a5.28 5.28 0 0 0-.92 3 5.34 5.34 0 0 0 5.34 5.34 5.28 5.28 0 0 0 3-.91 5.34 5.34 0 1 0-7.42-7.43zm10.77 25.34a4.28 4.28 0 0 0 .81.07 5.34 5.34 0 1 0 0-10.68 5.49 5.49 0 0 0-1.08.11 5.34 5.34 0 0 0-.07 10.44 1.91 1.91 0 0 0 .33.06m-3.35 7.32a5.28 5.28 0 0 0-3-.91 5.33 5.33 0 0 0-4.82 7.63 5.43 5.43 0 0 0 .93 1.37 5.34 5.34 0 1 0 6.88-8.09z"/><path class="cls-4" d="M168.52 94v.29a4 4 0 0 1-7.07 3.14s0 0 0 0a3.49 3.49 0 0 1-.58-.84h0a4.06 4.06 0 1 1 7.65-2.59zm10.67-.87a4.06 4.06 0 1 1-.33 2.12v-.37a4.13 4.13 0 0 1 .33-1.75zm-25.26 11.4a3.81 3.81 0 1 1-.12-.09zm-3.32 17.8a2.32 2.32 0 0 1 .38-.06 4.07 4.07 0 0 1 2.68 7.44 4.22 4.22 0 0 1-1.76.63 4.06 4.06 0 0 1-1.3-8zm10.62 14.75a4.06 4.06 0 0 1 7.39 1.82 4.38 4.38 0 0 1 0 .81 4.06 4.06 0 1 1-7.4-2.63zm25.64.67a4 4 0 0 1 .28 1.09 4.06 4.06 0 0 1-8 1.3c0-.13-.05-.25-.07-.38a4.06 4.06 0 0 1 6.86-3.38 3.92 3.92 0 0 1 .93 1.37zm10.24-15.41a4.06 4.06 0 0 1-.44 8 4.12 4.12 0 0 1-2.88-.77 4.07 4.07 0 0 1 2-7.3 3.86 3.86 0 0 1 1 0 3.23 3.23 0 0 1 .33.06zm-3.3-17.81a3.87 3.87 0 0 1 1.94-.77 4.06 4.06 0 0 1 1.09 8h-.17a4 4 0 0 1-4.49-3.57 4 4 0 0 1 1.63-3.66zm-15.49 47.65c0 2.67-4.38 5.86-4.38 5.86s-4.83-3.1-4.83-5.77 2.88-3.31 4.6-2h0c1.73-1.27 4.61-.73 4.61 1.91zm-4.56-5.65v3.76"/></svg>