<svg xmlns="http://www.w3.org/2000/svg" id="Layer_1" data-name="Layer 1" viewBox="62.24 69.35 242.81 228.59"><defs><style>.cls-3{fill:#2db5ff}.cls-4{fill:#fff}.cls-5{fill:#caf5fe}.cls-6{fill:none;stroke:#0e4e91;stroke-linecap:round;stroke-linejoin:round}.cls-7{fill:#e1dec4}</style></defs><circle cx="177.04" cy="185.41" r="96.2" style="fill:#abe7ff"/><path d="m232.56 297.45-.74-1.61c2.81-1.27 5.6-2.67 8.3-4.16l.86 1.56c-2.75 1.5-5.58 2.92-8.42 4.21zM129.71 297c-2.84-1.32-5.66-2.76-8.4-4.3l.87-1.54c2.69 1.51 5.48 2.93 8.28 4.23zm117.36-7.35-.94-1.5c2.61-1.64 5.19-3.4 7.67-5.23l1.06 1.43c-2.52 1.86-5.14 3.65-7.79 5.31zm-131.82-.58c-2.64-1.69-5.25-3.5-7.75-5.38l1.06-1.42c2.47 1.86 5 3.64 7.64 5.3zM260.42 280l-1.13-1.36c2.37-2 4.7-4.06 6.92-6.21l1.23 1.28c-2.25 2.18-4.61 4.29-7.02 6.29zM102 279.29c-2.39-2-4.73-4.15-7-6.35l1.25-1.27c2.2 2.17 4.51 4.28 6.86 6.27zm170.41-10.64-1.3-1.2c2.09-2.28 4.12-4.65 6-7.07l1.39 1.1c-1.94 2.45-4 4.86-6.12 7.17zm-182.27-.82c-2.1-2.32-4.14-4.74-6.06-7.22l1.4-1.08c1.89 2.43 3.9 4.83 6 7.11zm192.62-12-1.45-1c1.77-2.52 3.46-5.14 5.05-7.8l1.52.9c-1.63 2.66-3.36 5.33-5.15 7.88zm-202.85-.9a98.258 98.258 0 0 1-5-8l1.54-.89c1.55 2.67 3.22 5.31 5 7.85zm211.38-13.23-1.58-.82c1.42-2.73 2.75-5.56 4-8.41l1.63.69c-1.26 2.89-2.61 5.76-4.05 8.54zm-219.83-.95a124.82 124.82 0 0 1-3.94-8.55l1.64-.68c1.18 2.85 2.49 5.68 3.88 8.43zm226.42-14.18-1.67-.6c1-2.9 2-5.88 2.79-8.86l1.71.47c-.82 3.02-1.78 6.05-2.83 8.99zM65 225.59c-1-3-2-6-2.76-9l1.72-.45c.79 3 1.7 6 2.71 8.88zm237.37-14.88-1.74-.37c.64-3 1.17-6.09 1.58-9.15l1.76.23c-.41 3.11-.97 6.24-1.59 9.29zm2.33-16.32-1.77-.14c.23-3.07.35-6.19.35-9.28v-.28h1.77v.31c.01 3.1-.11 6.27-.34 9.39zm-1.63-16.66c-.18-3.08-.48-6.19-.9-9.25l1.76-.24c.42 3.1.73 6.26.91 9.38zm-20.6-60.84c-1.73-2.55-3.57-5.07-5.5-7.49l1.39-1.1c1.95 2.46 3.83 5 5.57 7.6zm-201.27-.67-1.46-1c1.77-2.58 3.67-5.13 5.63-7.57l1.38 1.11c-1.92 2.41-3.75 4.92-5.54 7.46zm191.3-12.15a119.81 119.81 0 0 0-6.44-6.7l1.23-1.28c2.25 2.18 4.45 4.46 6.53 6.8zm-181.22-.61L90 102.27c2.1-2.32 4.31-4.6 6.58-6.75l1.22 1.28c-2.27 2.13-4.45 4.37-6.52 6.66zM260.9 92.68c-2.34-2-4.78-4-7.27-5.79l1.05-1.43c2.52 1.85 5 3.83 7.38 5.87zM103 92.14l-1.15-1.35c2.4-2 4.89-4 7.42-5.82l1 1.44c-2.5 1.81-4.96 3.73-7.27 5.73zm145-9.22c-2.59-1.68-5.27-3.29-8-4.77l.85-1.56c2.75 1.51 5.47 3.14 8.1 4.84zm-132-.44-1-1.49c2.64-1.69 5.37-3.3 8.12-4.78l.84 1.56c-2.66 1.46-5.35 3.05-7.96 4.71zM233.71 75c-2.8-1.33-5.67-2.56-8.55-3.66l.63-1.66c2.92 1.12 5.84 2.37 8.68 3.72zm-103.48-.33-.75-1.67c2.83-1.32 5.75-2.55 8.68-3.65l.62 1.66c-2.88 1.12-5.78 2.34-8.55 3.64z" style="fill:#0e4e91"/><path class="cls-3" d="M113.43 186.71a10.44 10.44 0 0 0 4.92 1.14h.93v.08a25.87 25.87 0 0 1-1.36 6.19c-.53 1.55-1.59 2.7-3.51 2.5-2.29-.23-3-1.7-3.06-3.45 0 0-.55-.48 1.33-6.86.25.12.49.26.75.4z"/><path class="cls-4" d="M79.87 152.16c.63-.86 3.41-4.29 4.53-4.29h.19c4.65 1 14.67 17.74 17.2 22.94l.38.77c2.69 5.51 5.72 11.72 10.51 14.66-1.88 6.38-1.33 6.86-1.33 6.86 0 1.75.77 3.22 3.06 3.45 1.92.2 3-1 3.51-2.5a25.87 25.87 0 0 0 1.36-6.19v-.08a17.36 17.36 0 0 0 5.9-1.52l.41-.2 8.76 4.31c6 2.71 7.86 4.13 7.65 5.79s-2.84 2.81-11.17 4.31c-7.65 1.23-12.91 1.94-17.17 1.94-9.4 0-14-3.57-17.41-13.64a23.6 23.6 0 0 0-9.59-12.49c-.73-.53-1.45-1-2.17-1.48a25.13 25.13 0 0 1-5.84-4.72 11.19 11.19 0 0 1-2.12-3.92c-.95-3.04-1.13-7.96 3.34-14z"/><path class="cls-5" d="M86.66 176.31a13.43 13.43 0 0 0-1 3.94v20.13H80.7v-20.33c0-3.1-2.19-9.81-2.22-9.88l.17-.06a25.13 25.13 0 0 0 5.84 4.72c.72.47 1.44.95 2.17 1.48z"/><path class="cls-6" d="m78.65 170.11-.17.06c0 .07 2.22 6.78 2.22 9.88v20.33h4.94v-20.13a13.43 13.43 0 0 1 1-3.94"/><path class="cls-6" d="M78.65 170.11a11.19 11.19 0 0 1-2.12-3.92c-1-3.07-1.13-8 3.34-14 .63-.86 3.41-4.29 4.53-4.29h.19c4.65 1 14.67 17.74 17.2 22.94l.38.77c2.69 5.51 5.72 11.72 10.51 14.66.25.16.49.3.75.44a10.44 10.44 0 0 0 4.92 1.14h.93a17.36 17.36 0 0 0 5.9-1.52l.41-.2 8.76 4.31c6 2.71 7.86 4.13 7.65 5.79s-2.84 2.81-11.17 4.31c-7.65 1.23-12.91 1.94-17.17 1.94-9.4 0-14-3.57-17.41-13.64a23.6 23.6 0 0 0-9.59-12.49c-.73-.53-1.45-1-2.17-1.48a25.13 25.13 0 0 1-5.84-4.76z"/><path class="cls-6" d="M112.68 186.24v0c-1.88 6.38-1.33 6.86-1.33 6.86 0 1.75.77 3.22 3.06 3.45 1.92.2 3-1 3.51-2.5a25.87 25.87 0 0 0 1.36-6.19"/><path class="cls-4" d="m195.48 289.93-.08 1c-2.39-.36-6.29-4.73-7.58-6.91s-1.66-4.77-1.73-9.65.06-19.53 0-26.21v-2.48H188c0 4.37.26 8.8.62 12.52 1.06 10.45 2.89 31.73 6.86 31.73zM170 253.53l1.89.27c-.1.64-.21 1.42-.35 2.46-.94 6.62-2.73 21.15-3.45 26s-1.37 7.28-3 9.34-5.9 5.73-8.34 5.84v-1c3.94.53 8.57-20.32 11-30.59.83-3.63 1.61-7.99 2.25-12.32z"/><path class="cls-4" d="M173.64 219c2.26 8.29 2 14.42.22 24.25-1.53 8.29-1.49 7.15-2 10.56l-1.89-.27c1.16-8.06 1.76-16 1.23-19-.83-4.58-6.58-5.49-6.58-5.49-2.14-.25-6.76.22-9.07 4.5s-3.56 11.72-4 17.45-.05 18.72.52 27.32.46 17 4.44 18.1a.7.7 0 0 0 .14 0v1h-.3c-2.37-.22-7.16-4.33-8.12-8.42a36.17 36.17 0 0 1-.85-10.49c.1-3.83.91-22.82.91-22.82a142.54 142.54 0 0 1 .6-16.05 76.1 76.1 0 0 1 4.61-16.88c2-5.48 6.72-12.51 12.63-12.17.1 0 5.24.1 7.51 8.41zm34.66-1.71a77.32 77.32 0 0 1 2.34 17.33 143.34 143.34 0 0 1-1.53 16s-1.7 18.93-2.12 22.74a35.61 35.61 0 0 1-2.22 10.29c-1.49 3.93-6.79 7.37-9.15 7.27h-.22l.08-1h.15c4.08-.56 5.08-8.91 6.78-17.35s3.75-21.28 4.12-27 .12-13.27-1.61-17.83-6.24-5.61-8.39-5.64c0 0-5.82.13-7.25 4.56-.92 2.88-1.38 10.85-1.29 19h-1.91c-.05-3.44-.14-2.31-.58-10.74-.5-10 .09-16.08 3.43-24s8.46-7.35 8.46-7.35c5.9.43 9.61 8.03 10.91 13.72z"/><path class="cls-4" d="M204.82 227.76c1.41 3.69 1.82 9.39 1.74 14.4v-1.14.76c0-4.49-.52-9.24-1.74-12.46-2-5.34-7.66-5.57-8.3-5.58-.05 0-5.75.18-7.13 4.49-.66 2.06-1.1 6.9-1.24 12.57v-.6c.13-6.08.56-11.36 1.26-13.53 1.38-4.3 7.08-4.49 7.14-4.49.61.01 6.24.25 8.27 5.58z"/><path class="cls-7" d="M206.57 241v1.5-.74c0-.24-.01-.48 0-.76z"/><path class="cls-4" d="M206.55 242.52a.08.08 0 0 1 0 .07c0 1-.06 2-.12 3-.37 5.74-2.44 18.59-4.12 27-.22 1.09-.44 2.19-.63 3.26-1.39 7.26-2.59 13.53-6.06 14h-.15c-3.24 0-5.09-15.36-6.18-26 0-.08 0-.62.07-1.52.47 4.6 1.08 10 1.89 14.67 1.06 6.1 2.43 10.91 4.24 10.94h.15c3.47-.47 4.68-6.75 6.06-14 .2-1.07.42-2.17.64-3.27 1.68-8.39 3.75-21.25 4.11-27 0-.59.07-1.21.09-1.85.01.18.01.45.01.7z"/><path class="cls-3" d="M206.54 241.78c0 .64 0 1.26-.09 1.85-.36 5.74-2.43 18.6-4.11 27-.22 1.1-.44 2.2-.64 3.27-1.38 7.25-2.59 13.53-6.06 14h-.15c-1.81 0-3.18-4.84-4.24-10.94-.81-4.67-1.42-10.07-1.89-14.67.06-1.56.16-4.22.21-7.54a40 40 0 0 0-1.43-10.35v-3.43a1 1 0 0 1 0-.17c.14-5.67.58-10.51 1.24-12.57 1.38-4.31 7.08-4.49 7.13-4.49.64 0 6.27.24 8.3 5.58 1.19 3.22 1.69 7.97 1.73 12.46z"/><path class="cls-7" d="M189.36 262.29c0 .9-.07 1.44-.07 1.52-.13-1.27-.24-2.48-.36-3.58-.07-.74-.14-1.43-.2-2.09-.41-4.11-.63-9.08-.64-13.89a1.31 1.31 0 0 1 0 .15c.06 4.15.26 8.3.61 11.82l.21 2.1c.17 1.21.31 2.55.45 3.97zm-1.23-22.09v.6a1 1 0 0 0 0 .17v.85z"/><path class="cls-7" d="M188.1 241.82v-.85 3.43a1.31 1.31 0 0 0 0-.15v-2.3z"/><path class="cls-4" d="M171.1 234.56c.42 2.24.14 7.54-.54 13.57 0 .27-.06.55-.1.84a.64.64 0 0 0 0 .09c.63-5.78.88-10.79.48-13-.81-4.45-6.43-5.38-6.48-5.39-.63-.07-6.24-.59-9 4.43-1.65 3.06-2.77 7.77-3.39 12.25 0-.23 0-.47.07-.71.61-4.73 1.74-9.83 3.5-13.09 2.72-5 8.33-4.5 9-4.42.03.04 5.66.97 6.46 5.43z"/><path class="cls-3" d="M170.92 236.1c.4 2.17.15 7.18-.48 13-.14 1.06-.28 2.14-.44 3.22a39.9 39.9 0 0 0-2.78 10.07c-.4 3.32-.66 6-.8 7.54-2.45 10.23-6.2 24.53-9.33 24.53h-.24c-3.38-.92-3.74-7.3-4.15-14.69-.07-1.08-.13-2.2-.2-3.31-.57-8.55-.91-21.55-.52-27.3 0-.56.09-1.13.14-1.72.62-4.48 1.74-9.19 3.39-12.25 2.72-5 8.33-4.5 9-4.43-.02-.04 5.6.89 6.41 5.34z"/><path class="cls-7" d="M170.56 248.13c0 .27-.06.55-.1.84.04-.29.07-.57.1-.84zm-.1.87v.3-.19a.64.64 0 0 1 0-.11zm-.02.08v.19c0 .07 0 .38-.06.58l-.3 2.33a1.34 1.34 0 0 0-.06.12c.14-1.08.28-2.16.42-3.22z"/><path class="cls-7" d="M170 252.3a1.34 1.34 0 0 1 .06-.12c-.64 4.75-1.5 9.64-2.45 13.65-.16.65-.32 1.33-.49 2.05-.25 1.09-.52 2.26-.82 3.51 0 0 0-.54.12-1.47.34-1.41.65-2.73.93-3.93l.48-2.06c.81-3.45 1.57-7.54 2.17-11.63z"/><path class="cls-4" d="M166.42 269.92c-.08.93-.12 1.46-.12 1.47-2.48 10.39-6.36 25.33-9.56 24.95h-.14c-3.39-.93-3.74-7.31-4.16-14.7-.06-1.07-.12-2.19-.2-3.31-.56-8.54-.91-21.55-.51-27.3.05-.87.14-1.79.24-2.73l.12-.89c-.05.59-.1 1.16-.14 1.72-.39 5.75 0 18.75.52 27.3.07 1.11.13 2.23.2 3.31.41 7.39.77 13.77 4.15 14.69h.27c3.13.02 6.91-14.28 9.33-24.51z"/><path class="cls-7" d="M152.16 246.68c-.07.54-.13 1.07-.19 1.6.03-.53.11-1.07.19-1.6zm-.16 1.6c.06-.53.12-1.06.19-1.6 0 .24 0 .48-.07.71z"/><path class="cls-6" d="M156.75 297.42h-.3c-2.37-.22-7.16-4.33-8.12-8.42a36.17 36.17 0 0 1-.85-10.49c.1-3.83.91-22.82.91-22.82a142.54 142.54 0 0 1 .6-16.05 76.1 76.1 0 0 1 4.61-16.88c2-5.48 6.72-12.51 12.63-12.17 0 0 5.14.1 7.41 8.4s2 14.42.22 24.25c-1.53 8.29-1.49 7.15-2 10.56-.1.64-.21 1.42-.35 2.46-.94 6.62-2.73 21.15-3.45 26s-1.37 7.28-3 9.34-5.87 5.71-8.31 5.82z"/><path class="cls-6" d="M156.71 296.45a.7.7 0 0 1-.14 0c-4-1.08-3.86-9.5-4.44-18.1s-.9-21.58-.52-27.32 1.64-13.17 4-17.45 6.93-4.75 9.07-4.5c0 0 5.75.91 6.58 5.49.53 3-.07 10.93-1.23 19-.63 4.33-1.41 8.69-2.28 12.33-2.47 10.23-7.1 31.1-11.04 30.55z"/><path class="cls-6" d="M170.12 252s0 .07-.06.17a1.34 1.34 0 0 0-.06.12 39.9 39.9 0 0 0-2.78 10.07c-.4 3.32-.66 6-.8 7.54 0 0 0 0 0 0-.08.93-.12 1.46-.12 1.47m29.1 19.53h.22c2.36.1 7.66-3.34 9.15-7.27a35.61 35.61 0 0 0 2.23-10.27c.42-3.81 2.12-22.74 2.12-22.74a143.34 143.34 0 0 0 1.53-16 77.32 77.32 0 0 0-2.34-17.33c-1.28-5.69-5-13.28-10.91-13.73 0 0-5.11-.58-8.46 7.35s-3.93 14-3.43 24c.44 8.43.53 7.3.58 10.74v2.48c0 6.68-.1 21.33 0 26.21s.39 7.4 1.73 9.65 5.18 6.55 7.58 6.91z"/><path class="cls-6" d="M195.48 289.93h.15c4.08-.56 5.08-8.91 6.78-17.35s3.75-21.28 4.12-27 .12-13.27-1.61-17.83-6.24-5.61-8.39-5.64c0 0-5.82.13-7.25 4.56-.92 2.88-1.38 10.85-1.29 19 0 4.37.26 8.8.62 12.52 1.07 10.46 2.9 31.74 6.87 31.74z"/><path class="cls-6" d="M188.06 244.1a1.21 1.21 0 0 1 0 .14h0a1.31 1.31 0 0 1 0 .15 40 40 0 0 1 1.43 10.35c0 3.32-.15 6-.21 7.54 0 .9-.07 1.44-.07 1.52h0"/><path class="cls-3" d="M202.19 134.59c1.4-.13 4.71-.39 6.74-.41.92 0 1.57 0 1.64.18.26.49-.15 9.62-.6 11.15 0 .14-.09.23-.12.22-.51.09-8.53-.56-8.53-.56a3.52 3.52 0 0 0 .29-1.55c.01-.8.57-8.83.58-9.03z"/><path class="cls-4" d="M187.18 152.16c1 .33 11.12 3.46 20.29.42-1.56 2.69-3 5.44-4.84 8a16.32 16.32 0 0 1-3.4 3.73 5.72 5.72 0 0 1-3.55 1.15 5.53 5.53 0 0 1-5-3.41c-.87-2.05-2.28-5.98-3.5-9.89zm21.18-27.78c-.13-1.17-1.44-12-1.49-14.52s-1.7-14.87-2.05-17.37-2.53-12.23-5.5-12.47h-.14v-.62c3.17.09 9.35 4.1 10 7.81a139.37 139.37 0 0 1 1.37 16.68c-.06 2.69.89 15.37.93 18.17s1.13 8.5.52 13.87a62.56 62.56 0 0 1-1.39 9.79l-.67-.2c.45-1.53.86-10.66.6-11.15-.07-.13-.72-.18-1.64-.18 0 0 0-1 .65-5s-1.11-4.82-1.17-4.84z"/><path class="cls-3" d="M195.12 145.35c-.38 0-1 .31-1.17-.89a4.42 4.42 0 0 1 0-.87c0-2.18.58-9 .58-9.28 0 0 .13-.11.34-.14a32 32 0 0 1 5.12-.29 7 7 0 0 1 2.25.71c0 .2-.57 8.23-.58 9a3.52 3.52 0 0 1-.29 1.55.61.61 0 0 1-.35.3 56.54 56.54 0 0 1-5.9-.09z"/><path class="cls-4" d="M204.67 124.94a10.93 10.93 0 0 1 3.7-.46.67.67 0 0 0 0-.1c.06 0 1.78.77 1.17 4.84s-.65 5-.65 5c-2 0-5.34.28-6.74.41a7 7 0 0 0-2.25-.71 32 32 0 0 0-5.12.29c-2.26-.46-7.07-1.44-8.45-1.6s0-1.29.34-4.22a8.85 8.85 0 0 1 1.29-4.18v-.08c2.46-.5 6.71 1 8.13 1.28a28.17 28.17 0 0 0 8.58-.47z"/><path class="cls-5" d="M199.23 80.11c-2.43 0-4.17 6.33-4.85 9.35.88-3.24 2.58-8 4.84-7.95h.09c2.1.15 3.87 4.71 4.9 8.4-.87-3.81-2.69-9.62-4.89-9.8zm7.64 29.75c0 2.49 1.36 13.35 1.49 14.52a.67.67 0 0 1 0 .1 10.93 10.93 0 0 0-3.7.46 28.17 28.17 0 0 1-8.54.39c-1.42-.28-5.67-1.78-8.13-1.28h-.07s1.64-12 1.89-14.55 3.94-17.64 4.27-19.23 2.2-10.2 5.09-10.28h.14c3 .24 5.15 10 5.5 12.47s2 14.77 2.06 17.4z"/><path class="cls-3" d="M186.38 132.56c1.38.16 6.19 1.14 8.45 1.6-.21 0-.34.1-.34.14 0 .33-.54 7.1-.58 9.28a4.42 4.42 0 0 0 0 .87l-.06.31s-7.77-.06-8.54-.61c-.09-.07-.15-.27-.19-.6-.29-2.39.73-10.84.85-11a2.22 2.22 0 0 1 .41.01z"/><path class="cls-4" d="M185.14 143.56c0 .33.1.53.19.6.77.55 8.54.61 8.54.61l.06-.31c.15 1.2.79.88 1.17.89a56.54 56.54 0 0 0 5.85.12.61.61 0 0 0 .35-.3s8 .65 8.53.56c0 0 .08-.08.12-.22l.67.2a20.71 20.71 0 0 1-2.31 5.4c-.3.47-.58 1-.86 1.47-9.17 3-19.31-.09-20.29-.42a70 70 0 0 1-2.26-8.57zm-.36-1.1c-.32-4.09.86-12.75 1.42-16.24a78 78 0 0 0 1.31-11.13c0-2.8 1.81-20.32 1.75-22.3s-.22-4.69 1.84-7.44 4.6-5.59 7.6-5.94a1.87 1.87 0 0 1 .48 0V80c-2.89.08-4.76 8.71-5.09 10.28s-4 16.67-4.27 19.23-1.89 14.55-1.89 14.55h.07v.08a8.85 8.85 0 0 0-1.29 4.18c-.32 2.93-.35 4.21-.34 4.22a2.22 2.22 0 0 0-.39 0c-.12.18-1.14 8.63-.85 11h-.22c-.05-.37-.1-.74-.13-1.08z"/><path class="cls-3" d="M166.25 135.2s-.13-.1-.34-.16c2.28-.34 7.13-1 8.53-1.13a1.16 1.16 0 0 1 .38 0c.12.18.7 9.26.21 11.27a.71.71 0 0 1-.19.36c-.81.51-8.56.14-8.56.14l-.05-.33a4.6 4.6 0 0 0 .08-.84c.08-2.19-.08-8.97-.06-9.31z"/><path class="cls-4" d="M169.09 91.28c-.26-1.61-1.68-10.62-4.66-10.54v-.63a2.64 2.64 0 0 1 .65 0c3 .51 5.36 3.48 7.25 6.34s1.6 5.54 1.43 7.53.69 19.59.5 22.37a78.43 78.43 0 0 0 .7 11.2c.37 3.51 1.06 12.21.51 16.28a13 13 0 0 1-.25 1.33h-.2c.49-2-.09-11.09-.21-11.27a1.16 1.16 0 0 0-.38 0s.05-1.29-.11-4.24a8.48 8.48 0 0 0-1.07-4.24v-.08h.07s-1-12.06-1.08-14.64-2.92-17.81-3.15-19.41zm-.58 71.81a5.56 5.56 0 0 1-5.2 3.12 5.74 5.74 0 0 1-3.47-1.33 16.43 16.43 0 0 1-3.18-3.92 91.53 91.53 0 0 1-4.39-8.23c9 3.57 19.38 1 20.29.7-1.45 3.84-3.07 7.68-4.05 9.66z"/><path class="cls-3" d="M166.25 135.2c0 .34.14 7.12.06 9.32a4.6 4.6 0 0 1-.08.84c-.22 1.2-.84.84-1.24.84 0 0-5.32 0-5.84-.21a.64.64 0 0 1-.33-.32 3.29 3.29 0 0 1-.21-1.57c0-.79-.07-8.83-.07-9a6.75 6.75 0 0 1 2.29-.56 32.3 32.3 0 0 1 5.09.55c.2.01.33.06.33.11z"/><path class="cls-5" d="M168.85 90.43c-.53-3.06-1.9-9.52-4.33-9.59h-.08c-2.22.06-4.36 5.76-5.45 9.52 1.24-3.63 3.27-8.08 5.37-8.12a.14.14 0 0 1 .09 0c2.26.07 3.69 4.91 4.4 8.19zm-4.42-9.69c3-.08 4.4 8.93 4.66 10.54s3.07 16.86 3.19 19.43 1.08 14.64 1.08 14.64h-.07c-2.43-.65-6.76.62-8.2.81a27.28 27.28 0 0 1-8.5-.84 10.92 10.92 0 0 0-3.67-.69.64.64 0 0 0 0-.09c.2-1.14 2.1-11.94 2.28-14.41.19-2.63 2.54-14.75 3-17.22s3.25-12.1 6.23-12.17z"/><path class="cls-4" d="M165.09 126.14c1.44-.19 5.77-1.46 8.2-.81v.08a8.48 8.48 0 0 1 1.07 4.24c.16 2.95.11 4.22.11 4.24-1.4.08-6.25.79-8.53 1.13a32.3 32.3 0 0 0-5.09-.55 6.75 6.75 0 0 0-2.29.56c-1.39-.2-4.69-.66-6.69-.77 0 0 0-1-.38-5s1.36-4.75 1.43-4.78h.08a.64.64 0 0 1 0 .09 10.92 10.92 0 0 1 3.67.69 27.28 27.28 0 0 0 8.42.88z"/><path class="cls-3" d="M150.17 134.36c.09-.13.74-.15 1.67-.08 2 .11 5.3.57 6.69.77 0 .22.11 8.26.07 9a3.29 3.29 0 0 0 .21 1.57s-8 .2-8.54.09c0 0-.09-.1-.13-.25a64.27 64.27 0 0 1 .03-11.1z"/><path class="cls-4" d="M159.15 146c.52.21 5.84.21 5.84.21.4 0 1 .36 1.24-.84l.05.33s7.75.37 8.56-.14a.71.71 0 0 0 .19-.36h.2a76.51 76.51 0 0 1-2.66 8.22c-.91.25-11.25 2.87-20.29-.7-.26-.51-.52-1-.8-1.53a20.67 20.67 0 0 1-2-5.53l.67-.16c0 .15.09.24.13.25.49.11 8.54-.09 8.54-.09a.64.64 0 0 0 .33.34z"/><path class="cls-4" d="M148.63 135.83c-.31-5.39 1.1-11 1.3-13.81s1.85-15.39 1.93-18.1a140.55 140.55 0 0 1 2.29-16.57c.88-3.6 7-7.2 10.29-7.24v.63c-3 .07-5.69 9.67-6.18 12.15s-2.83 14.59-3 17.22c-.18 2.47-2.08 13.27-2.28 14.41h-.06c-.07 0-1.82.69-1.43 4.78s.37 5 .38 5c-.93-.07-1.58-.05-1.67.08a64.27 64.27 0 0 0 0 11.15l-.67.16a62.65 62.65 0 0 1-.9-9.86z"/><path class="cls-6" d="M172.57 153.43a76.51 76.51 0 0 0 2.66-8.22 13 13 0 0 0 .25-1.33c.55-4.07-.14-12.77-.51-16.28a78.43 78.43 0 0 1-.7-11.2c.19-2.78-.67-20.37-.5-22.37s.46-4.66-1.43-7.53-4.29-5.83-7.25-6.34a2.64 2.64 0 0 0-.65 0c-3.24 0-9.41 3.64-10.29 7.24a140.55 140.55 0 0 0-2.29 16.57c-.08 2.71-1.74 15.31-1.93 18.1s-1.61 8.42-1.3 13.81a62.65 62.65 0 0 0 .85 9.84 20.67 20.67 0 0 0 2 5.53c.28.51.54 1 .8 1.53a91.53 91.53 0 0 0 4.39 8.23 16.43 16.43 0 0 0 3.18 3.92 5.74 5.74 0 0 0 3.47 1.33 5.56 5.56 0 0 0 5.2-3.12c1-2 2.6-5.82 4.05-9.66"/><path class="cls-6" d="M158.53 135.05c-1.39-.2-4.69-.66-6.69-.77-.93-.07-1.58-.05-1.67.08a64.27 64.27 0 0 0 0 11.15c0 .15.09.24.13.25.49.11 8.54-.09 8.54-.09m7.07-10.67c2.28-.34 7.13-1 8.53-1.13a1.16 1.16 0 0 1 .38 0c.12.18.7 9.26.21 11.27a.71.71 0 0 1-.19.36c-.81.51-8.56.14-8.56.14l-.05-.33"/><path class="cls-6" d="M174.44 133.89s.05-1.29-.11-4.24a8.48 8.48 0 0 0-1.07-4.24m-21.42 8.87s0-1-.38-5 1.36-4.75 1.43-4.78h0m19.74 28.92h-.07c-.91.25-11.25 2.87-20.29-.7a.21.21 0 0 1-.11 0m14.07-7.36c-.22 1.2-.84.84-1.24.84 0 0-5.32 0-5.84-.21a.64.64 0 0 1-.33-.32 3.29 3.29 0 0 1-.21-1.57c0-.79-.07-8.83-.07-9h0a6.75 6.75 0 0 1 2.29-.56 32.3 32.3 0 0 1 5.09.55c.21.06.34.11.34.16 0 .34.14 7.12.06 9.32a4.6 4.6 0 0 1-.09.79zm7.06-20.03h.07s-1-12.06-1.08-14.64-3-17.83-3.19-19.43-1.68-10.62-4.66-10.54-5.69 9.67-6.18 12.15-2.83 14.59-3 17.22c-.18 2.47-2.08 13.27-2.28 14.41a.64.64 0 0 1 0 .09 10.92 10.92 0 0 1 3.67.69 27.28 27.28 0 0 0 8.5.84c1.39-.12 5.72-1.44 8.15-.79zm34.18 27.25c-1.56 2.69-3 5.44-4.84 8a16.32 16.32 0 0 1-3.4 3.73 5.72 5.72 0 0 1-3.55 1.15 5.53 5.53 0 0 1-5-3.41c-.87-2-2.28-6-3.5-9.86a70 70 0 0 1-2.26-8.57c-.06-.42-.11-.79-.14-1.13-.32-4.09.86-12.75 1.42-16.24a78 78 0 0 0 1.31-11.13c0-2.8 1.81-20.32 1.75-22.3s-.22-4.69 1.84-7.44 4.6-5.59 7.6-5.94a1.87 1.87 0 0 1 .48 0c3.17.09 9.35 4.1 10 7.81a139.37 139.37 0 0 1 1.37 16.68c-.06 2.69.89 15.37.93 18.17s1.13 8.5.52 13.87a62.56 62.56 0 0 1-1.39 9.79 20.71 20.71 0 0 1-2.31 5.4c-.3.42-.55.92-.83 1.42z"/><path class="cls-6" d="M201.32 145.17s8 .65 8.53.56c0 0 .08-.08.12-.22.45-1.53.86-10.66.6-11.15-.07-.13-.72-.18-1.64-.18-2 0-5.34.28-6.74.41m-8.26 9.87-.06.31s-7.77-.06-8.54-.61c-.09-.07-.15-.27-.19-.6-.29-2.39.73-10.84.85-11a2.22 2.22 0 0 1 .39 0c1.38.16 6.19 1.14 8.45 1.6m-8.45-1.63s0-1.29.34-4.22a8.85 8.85 0 0 1 1.29-4.18"/><path class="cls-6" d="M208.93 134.18s0-1 .65-5-1.11-4.82-1.17-4.84h0m-21.32 27.79a.4.4 0 0 0 .09 0c1 .33 11.12 3.46 20.29.42h.1M194 144.46c.15 1.2.79.88 1.17.89a56.54 56.54 0 0 0 5.85.12.61.61 0 0 0 .35-.3 3.52 3.52 0 0 0 .29-1.55c0-.8.57-8.83.58-9a7 7 0 0 0-2.25-.71 32 32 0 0 0-5.12.29c-.21 0-.34.1-.34.14 0 .33-.54 7.1-.58 9.28a4.42 4.42 0 0 0 .05.84zm-6-20.41h-.07s1.64-12 1.89-14.55 3.94-17.64 4.27-19.23 2.2-10.2 5.09-10.28h.14c3 .24 5.15 10 5.5 12.47s2 14.74 2.05 17.37 1.36 13.35 1.49 14.52a.67.67 0 0 1 0 .1 10.93 10.93 0 0 0-3.7.46 28.17 28.17 0 0 1-8.54.39c-1.41-.25-5.66-1.75-8.12-1.25z"/><path class="cls-4" d="M281.39 146.77a16.2 16.2 0 0 1 4.28 13c-1.82 2.37-4.43 3.54-6.93 4.62a20.63 20.63 0 0 0-6.82 4.63c-3.43 1.62-8.37 7.05-10.76 16.34-.12.45-.23.89-.34 1.31-5.26 12.26-36.58 3.08-36.58 3.08-.08-.42-.15-.83-.21-1.24-.62-4.17 2.85-5.54 5.74-6a65 65 0 0 0 9-3.06c-.23 2.14 1 5.11 8.61 5.11s18.86-19.83 21.75-24.41 9.3-16.41 9.31-16.42c.67.27 1.45 1.36 2.95 3.04z"/><path class="cls-5" d="M285.67 159.78a23.92 23.92 0 0 1-1 4.54c-2.6 8.24-3.31 35.51-3.31 35.51l-6-.11s1.12-26.24.1-30a1.54 1.54 0 0 0-1.64-1.18 4.84 4.84 0 0 0-1.93.5 20.63 20.63 0 0 1 6.82-4.63c2.53-1.09 5.14-2.26 6.96-4.63z"/><path class="cls-3" d="m278.25 143.65.19.06s-6.41 11.84-9.31 16.42-14.13 24.41-21.75 24.41-8.84-3-8.61-5.11c17.4 6.56 33.11-28.07 36.31-32.66l.54-.75c.17-.24.32-.46.47-.66l.61-.77.18-.2a1 1 0 0 1 .17-.18.89.89 0 0 1 .15-.17l.16-.13a1.24 1.24 0 0 1 .43-.24.8.8 0 0 1 .46-.02z"/><path class="cls-5" d="M260.81 186.69c-3.4 13-4.74 14.51-10.65 16.08-6.1 1.63-23.71-4.67-23.71-4.67s-.37-1.1-.83-2.7a55.89 55.89 0 0 1-1.39-5.63s31.32 9.23 36.58-3.08z"/><path class="cls-6" d="M238.77 179.43a65 65 0 0 1-9 3.06c-2.89.5-6.36 1.87-5.74 6 .06.41.13.82.21 1.24m52.46-45.14-.61.77m2.35-1.65a.38.38 0 0 0-.19-.06m-17.44 43.04c-5.26 12.26-36.58 3.08-36.58 3.08a55.89 55.89 0 0 0 1.39 5.63c.46 1.6.83 2.7.83 2.7s17.61 6.3 23.71 4.67c5.91-1.57 7.25-3.05 10.65-16.08zm17.63-42.98c.67.3 1.45 1.38 2.95 3.06a16.2 16.2 0 0 1 4.28 13h0c-1.82 2.37-4.43 3.54-6.93 4.62a20.63 20.63 0 0 0-6.82 4.63"/><path class="cls-6" d="M260.81 186.69c.11-.42.22-.86.34-1.31 2.39-9.29 7.33-14.72 10.76-16.34h0a4.84 4.84 0 0 1 1.93-.5 1.54 1.54 0 0 1 1.64 1.18c1 3.77-.1 30-.1 30l6 .11s.71-27.27 3.31-35.51a23.92 23.92 0 0 0 1-4.54m-46.92 19.65c-.23 2.14 1 5.11 8.61 5.11s18.86-19.83 21.75-24.41 9.3-16.41 9.31-16.42l-.19-.06a.8.8 0 0 0-.46 0 1.24 1.24 0 0 0-.43.24l-.16.13a.89.89 0 0 0-.15.17 1 1 0 0 0-.17.18l-.18.2c-.18.22-.39.47-.61.77s-.3.42-.47.66l-.54.75c-3.2 4.61-18.91 39.25-36.31 32.68z"/></svg>