<svg xmlns="http://www.w3.org/2000/svg" id="Layer_1" data-name="Layer 1" viewBox="30.96 30.23 194.08 195.56"><defs><style>.cls-3{fill:#fff}.cls-5{fill:none;stroke:#0e4e91;stroke-linecap:round;stroke-linejoin:round}.cls-6{fill:#caf5fe}</style></defs><path d="M131 225.79v-1.28c2.26 0 4.54-.18 6.78-.39l.11 1.28c-2.32.21-4.64.34-6.89.39zm-5.17 0c-2.29-.07-4.6-.22-6.86-.44l.12-1.28c2.24.22 4.52.37 6.78.44zm17.16-1-.18-1.26c2.23-.33 4.48-.74 6.68-1.22l.27 1.25c-2.26.49-4.53.9-6.76 1.23zm11.78-2.46-.33-1.24c2.17-.6 4.35-1.28 6.48-2l.42 1.21c-2.18.7-4.34 1.42-6.6 2.03zm11.39-3.91-.49-1.18c2.08-.86 4.15-1.81 6.18-2.82l.57 1.15a103.25 103.25 0 0 1-6.29 2.85zm10.81-5.27-.63-1.12c2-1.11 3.9-2.3 5.78-3.55l.71 1.07c-1.93 1.26-3.9 2.45-5.89 3.6zm-97-.4c-2-1.14-3.94-2.37-5.84-3.65l.72-1.07c1.87 1.27 3.81 2.48 5.76 3.61zM187 206.58l-.76-1c1.81-1.34 3.59-2.77 5.3-4.23l.84 1c-1.71 1.42-3.52 2.87-5.38 4.23zm-117.16-.49a95.66 95.66 0 0 1-5.35-4.34l.85-1c1.7 1.48 3.47 2.92 5.27 4.28zm126.37-7.26-.89-.93c1.63-1.55 3.23-3.19 4.75-4.86l.95.87a92.55 92.55 0 0 1-4.79 4.92zm-135.52-.57a87.11 87.11 0 0 1-4.77-5l1-.86c1.51 1.69 3.09 3.33 4.71 4.9zM204.42 190l-1-.81c1.43-1.75 2.82-3.56 4.12-5.4l1 .74c-1.26 1.86-2.67 3.7-4.12 5.47zm-151.82-.63a95.029 95.029 0 0 1-4.13-5.5l1.05-.74c1.29 1.85 2.66 3.68 4.08 5.43zm158.87-9.13-1.08-.69c1.21-1.9 2.36-3.88 3.43-5.86l1.13.6a95.275 95.275 0 0 1-3.48 5.95zm-165.84-.68c-1.2-1.94-2.36-3.95-3.42-6l1.13-.6c1.06 2 2.19 4 3.38 5.89zm171.65-9.88-1.16-.55c1-2 1.86-4.14 2.68-6.25l1.19.47c-.82 2.13-1.74 4.26-2.71 6.33zM31.15 134.14c-.12-2-.19-4.09-.19-6.13v-.75h1.29v.74c0 2 .07 4 .19 6.05zm1.27-12-1.28-.08c.13-2.28.35-4.59.65-6.85l1.27.16c-.29 2.28-.51 4.55-.64 6.81zm191.36-11.24c-.4-2.23-.88-4.46-1.44-6.64l1.25-.32c.56 2.21 1 4.48 1.45 6.73zm-189.93-.52-1.26-.23c.41-2.25.91-4.51 1.49-6.72l1.24.32c-.57 2.18-1.06 4.41-1.47 6.63zM221 99.35a99.31 99.31 0 0 0-2.24-6.41l1.2-.46a99.7 99.7 0 0 1 2.27 6.49zm-184.27-.49-1.23-.39c.69-2.18 1.47-4.36 2.31-6.49l1.2.47c-.84 2.1-1.6 4.26-2.28 6.41zm180-10.6c-.93-2.05-1.95-4.1-3-6.08l1.13-.61c1.09 2 2.11 4.08 3.06 6.16zM41 87.76l-1.16-.54c.95-2.07 2-4.14 3.09-6.15l1.13.61C43 83.67 42 85.71 41 87.76zm170.19-10a102.74 102.74 0 0 0-3.74-5.67l1-.74c1.33 1.86 2.6 3.79 3.79 5.74zm-164.55-.48-1.09-.68c1.2-1.94 2.49-3.86 3.82-5.72l1.05.75c-1.33 1.83-2.6 3.73-3.78 5.65zM204.4 68c-1.4-1.76-2.89-3.5-4.41-5.16l.94-.87c1.55 1.69 3 3.45 4.47 5.24zm-150.9-.43-1-.8c1.44-1.77 2.95-3.53 4.5-5.21l.94.87c-1.53 1.66-3.02 3.39-4.44 5.14zm143-8.37c-1.6-1.58-3.29-3.12-5-4.59l.84-1c1.74 1.49 3.45 3.06 5.07 4.65zM91 39.15 90.51 38c2.1-.89 4.25-1.72 6.41-2.46l.42 1.21c-2.13.7-4.26 1.52-6.34 2.4zm64.83-3.81c-2.17-.63-4.38-1.19-6.59-1.67l.27-1.26c2.24.49 4.48 1.06 6.68 1.7zm-53.64-.15-.34-1.19c2.19-.63 4.44-1.18 6.68-1.66l.26 1.26c-2.21.4-4.43.97-6.59 1.59zm42.05-2.47c-2.23-.35-4.49-.64-6.74-.84l.11-1.28c2.28.21 4.58.5 6.83.86zm-30.45-.08-.2-1.26c2.26-.36 4.56-.63 6.84-.82l.1 1.28c-2.23.16-4.53.46-6.73.8zm18.63-1.08c-2.26-.09-4.55-.09-6.8 0v-1.28c2.28-.07 4.59-.07 6.88 0z" style="fill:#0e4e91"/><circle cx="128.51" cy="125.28" r="78.24" style="fill:#abe7ff"/><path class="cls-3" d="M163.54 69.63c3.62.72 4.51 1.36 3.38 2.49s-3.46 3.14-6.52 6S150.26 82 142.93 80s-19-3.53-24.54-1.37c-6 2.34-10.07 1.53-15.62.24s-5.39-5.95-5.07-7.81 1.12-2.57 3.3-2.73 12.32-2.75 14.37-2.78l-.32 2c4.67 4.18 32.83 4.29 34.45-.73l-.17-1.37a143.65 143.65 0 0 0 14.21 4.18z"/><path d="m149.34 65.43.17 1.37c-1.62 5-29.78 4.91-34.45.73l.32-2v-.28a1.25 1.25 0 0 1 0-.19v-.48c0-.18 0-.29.06-.44s0 0 0-.05c1.89 2.06 10 3.08 18.1 2.92 7.2-.14 14.57-.8 15.34-4.12.07.51.14 1 .2 1.42a2.61 2.61 0 0 0 0 .31v.79z" style="fill:#2db5ff"/><path class="cls-3" d="M148.29 58.23c.17.92.46 2.92.7 4.67-.77 3.32-8.14 4-15.34 4.12-8.08.16-16.21-.86-18.1-2.92.44-3 1.69-9.73 4-12.58 2.82-3.54 8.61-4.71 12.88-4.75 3.22 0 9.42 1.13 12.56 4.19 1.95 1.93 2.84 4.74 3.3 7.27z"/><path class="cls-5" d="M149.23 64.63a2.61 2.61 0 0 1 0-.31m.06.78v-.38m-33.92.83h0c-2.05 0-12.2 2.62-14.37 2.78s-3 .89-3.3 2.73-.48 6.53 5.07 7.81 9.66 2.1 15.62-.24c5.52-2.16 17.22-.64 24.54 1.37s14.41.88 17.47-1.93 5.39-4.83 6.52-6 .24-1.77-3.38-2.49a143.65 143.65 0 0 1-14.2-4.2m-33.94-.04v.2m.03-.47a1.25 1.25 0 0 0 0 .19m.11-1.11c0 .15 0 .31-.06.44M149 62.9c-.24-1.75-.53-3.75-.7-4.67-.46-2.53-1.35-5.34-3.34-7.27-3.14-3.06-9.34-4.23-12.56-4.19-4.27 0-10.06 1.21-12.88 4.75-2.27 2.85-3.52 9.53-4 12.58"/><path class="cls-5" d="M115.55 64.1v.05l-.06.44v.48a1.25 1.25 0 0 0 0 .19v.28h0v0l-.32 2c4.67 4.18 32.83 4.29 34.45-.73l-.17-1.37h0v-.79a2.61 2.61 0 0 1 0-.31c-.06-.43-.13-.91-.2-1.42-.77 3.32-8.14 4-15.34 4.12-8.34.14-16.47-.88-18.36-2.94z"/><path class="cls-6" d="M153.91 111.15c4.4 0 8.27 3.23 8.27 6.66s-3.56 5.89-8 5.89-7.8-3.38-7.8-6.81 3.15-5.74 7.53-5.74zm37.29 5.97c0 3.43-3.41 6.81-7.8 6.81s-8-2.48-8-5.89 3.87-6.65 8.27-6.65 7.53 2.32 7.53 5.73z"/><path class="cls-3" d="M152.77 107.7c6.63 0 12.47 4.87 12.47 10v.12c-.09 5.1-5.41 8.76-12 8.76s-11.76-5.1-11.76-10.27a8 8 0 0 1 4.81-7.27 14.84 14.84 0 0 1 6.48-1.34zm-6.34 9.19c0 3.43 3.41 6.81 7.8 6.81s8-2.48 8-5.89-3.87-6.66-8.27-6.66-7.53 2.33-7.53 5.74zm36.97 7.04c4.39 0 7.8-3.38 7.8-6.81s-3.1-5.73-7.48-5.73-8.27 3.22-8.27 6.65 3.55 5.89 7.95 5.89zm-11-6.09c.08-5.1 5.89-9.91 12.47-9.91a15.16 15.16 0 0 1 5.81 1.07.14.14 0 0 0 .09 0c.83.44 1.44.78 1.8 1l.13.08a7.74 7.74 0 0 1 3.45 6.46c0 5.16-5.14 10.26-11.76 10.26s-12-3.72-12-8.88z"/><path class="cls-5" d="M146.3 109.06a14.84 14.84 0 0 1 6.47-1.36c6.63 0 12.47 4.87 12.47 10v.12c-.09 5.1-5.41 8.76-12 8.76s-11.76-5.1-11.76-10.27a8 8 0 0 1 4.82-7.25zm46.26.94a11.13 11.13 0 0 0-1.8-1m-.09 0a15.16 15.16 0 0 0-5.81-1.07c-6.58 0-12.39 4.81-12.47 9.91v.16c0 5.16 5.38 8.88 12 8.88s11.76-5.1 11.76-10.26a7.74 7.74 0 0 0-3.45-6.46"/><path class="cls-5" d="M153.91 111.15c4.4 0 8.27 3.23 8.27 6.66s-3.56 5.89-8 5.89-7.8-3.38-7.8-6.81 3.15-5.74 7.53-5.74zm29.81.24c-4.4 0-8.27 3.22-8.27 6.65s3.56 5.89 8 5.89 7.8-3.38 7.8-6.81-3.15-5.73-7.53-5.73zm-18.48 6.45a3.66 3.66 0 0 1 3.46-2.3 4.2 4.2 0 0 1 3.69 2.3m-27.21-8.3 1.08-.57 22.09-11.8 7-3.77s6.13-.78 5.76 4.84"/><path class="cls-5" d="M155.56 98.24s-.06-6.33 6-4.61c1.12.55 3.64 1.88 6.8 3.54 7.22 3.79 17.75 9.39 22.32 11.83a.14.14 0 0 0 .09 0c.83.44 1.44.78 1.8 1l.13.08.22.12"/><path class="cls-3" d="M164.47 164.11a4.84 4.84 0 0 1 1.71-2.55 2 2 0 0 1 2.73.2 3 3 0 0 1 .06 2.76c-1.55 4.82-4 9.73-3 14.7.53 2.62 2 5.19 1.92 7.28a5 5 0 0 1-2.49 2.75 10.13 10.13 0 0 1-3.64 1 22.87 22.87 0 0 1-8.28-.53 5.28 5.28 0 0 1-1.86-.77h-.06a37.52 37.52 0 0 0 1.37-7.66c-.51-4.08-2.34-7.86-3.83-11.7s-2.63-8-1.71-12c.11-.51.45-1.14 1-1 .33.06.51.4.64.7a25.13 25.13 0 0 1 1.21 3.48h.08a65.58 65.58 0 0 1-.19-7.55 3.58 3.58 0 0 1 .32-1.65 1.3 1.3 0 0 1 1.39-.71 1.65 1.65 0 0 1 .77.59 9.31 9.31 0 0 1 1.65 4.39 53.74 53.74 0 0 1 .86-6.59 5.22 5.22 0 0 1 1-2.56.92.92 0 0 1 1.7.13 11 11 0 0 1 .8 4.1c.27 2.22 1 4.42 1.4 6.62a15.53 15.53 0 0 1 1.33-6.49 3.16 3.16 0 0 1 .68-1.13 1.16 1.16 0 0 1 1.22-.25 1.51 1.51 0 0 1 .69 1 12.39 12.39 0 0 1 .35 3c.07 1.78.13 3.57.2 5.35a45.45 45.45 0 0 1-.02 5.09z"/><path class="cls-5" d="M151.51 189.11c0-.06 0-.12.05-.19a37.52 37.52 0 0 0 1.37-7.66c-.51-4.08-2.34-7.86-3.83-11.7s-2.63-8-1.71-12c.11-.51.45-1.14 1-1 .33.06.51.4.64.7a25.13 25.13 0 0 1 1.21 3.48 23.81 23.81 0 0 1 .73 4.1m-.69-4.19a65.58 65.58 0 0 1-.19-7.55 3.58 3.58 0 0 1 .32-1.65 1.3 1.3 0 0 1 1.39-.71 1.65 1.65 0 0 1 .77.59 9.31 9.31 0 0 1 1.65 4.39c.08.45.15.91.23 1.37a43.69 43.69 0 0 0 1.44 5.95"/><path class="cls-5" d="M154.21 155.79v-.07a53.74 53.74 0 0 1 .86-6.59 5.22 5.22 0 0 1 1-2.56.92.92 0 0 1 1.7.13 11 11 0 0 1 .8 4.1c.27 2.22 1 4.42 1.4 6.62a10.17 10.17 0 0 1 0 3.81m4.5 2.88a18.17 18.17 0 0 1-.46 2.94"/><path class="cls-5" d="M160 157.42a15.53 15.53 0 0 1 1.33-6.49 3.16 3.16 0 0 1 .68-1.13 1.16 1.16 0 0 1 1.22-.25 1.51 1.51 0 0 1 .69 1 12.39 12.39 0 0 1 .35 3c.07 1.78.13 3.57.2 5.35a45.45 45.45 0 0 1 0 5.22"/><path class="cls-5" d="M164.47 164.11h0a4.84 4.84 0 0 1 1.71-2.55 2 2 0 0 1 2.73.2 3 3 0 0 1 .06 2.76c-1.55 4.82-4 9.73-3 14.7.53 2.62 2 5.19 1.92 7.28a5 5 0 0 1-2.49 2.75 10.13 10.13 0 0 1-3.64 1 22.87 22.87 0 0 1-8.28-.53 5.28 5.28 0 0 1-1.86-.77h-.06"/><path class="cls-3" d="M180.2 160.56a4.86 4.86 0 0 0-1.63-2.6 2.06 2.06 0 0 0-2.74.12 3.06 3.06 0 0 0-.14 2.76c1.41 4.87 3.72 9.85 2.56 14.78-.61 2.61-2.17 5.13-2.14 7.22a5 5 0 0 0 2.4 2.83 10.53 10.53 0 0 0 3.61 1.11 22.94 22.94 0 0 0 8.3-.28 5.16 5.16 0 0 0 1.88-.71h.06a38 38 0 0 1-1.14-7.69c.63-4.07 2.58-7.79 4.18-11.59s2.87-7.94 2.08-12c-.1-.51-.42-1.15-.94-1.06-.32.06-.52.39-.65.69a22.92 22.92 0 0 0-1.32 3.43h-.08a67.78 67.78 0 0 0 .42-7.54 3.68 3.68 0 0 0-.27-1.65 1.31 1.31 0 0 0-1.37-.76 1.6 1.6 0 0 0-.79.57 9.21 9.21 0 0 0-1.78 4.33 54.22 54.22 0 0 0-.67-6.61 5 5 0 0 0-.94-2.58 1.12 1.12 0 0 0-1.21-.46 1.14 1.14 0 0 0-.49.53 11 11 0 0 0-.92 4.08c-.33 2.21-1.18 4.39-1.6 6.57a15.65 15.65 0 0 0-1.14-6.53 3.06 3.06 0 0 0-.64-1.14 1.17 1.17 0 0 0-1.22-.3 1.58 1.58 0 0 0-.71 1 12.33 12.33 0 0 0-.45 3c-.12 1.78-.23 3.56-.35 5.34a45.34 45.34 0 0 0-.16 5.14z"/><path class="cls-5" d="M192.41 185.94a1.05 1.05 0 0 1 0-.19 38 38 0 0 1-1.14-7.69c.63-4.07 2.58-7.79 4.18-11.59s2.87-7.94 2.08-12c-.1-.51-.42-1.15-.94-1.06-.32.06-.52.39-.65.69a22.92 22.92 0 0 0-1.32 3.43 24.88 24.88 0 0 0-.86 4.08m.73-4.08a67.78 67.78 0 0 0 .42-7.54 3.68 3.68 0 0 0-.27-1.65 1.31 1.31 0 0 0-1.37-.76 1.6 1.6 0 0 0-.79.57 9.21 9.21 0 0 0-1.78 4.33c-.1.46-.18.91-.27 1.37a42.91 42.91 0 0 1-1.62 5.9"/><path class="cls-5" d="M190.7 152.55v-.07a54.22 54.22 0 0 0-.67-6.61 5 5 0 0 0-.94-2.58 1.12 1.12 0 0 0-1.21-.46 1.14 1.14 0 0 0-.49.53 11 11 0 0 0-.92 4.08c-.33 2.21-1.18 4.39-1.6 6.57a10.38 10.38 0 0 0-.11 3.81m-4.56 2.75a18.3 18.3 0 0 0 .37 3"/><path class="cls-5" d="M184.87 154a15.65 15.65 0 0 0-1.14-6.53 3.06 3.06 0 0 0-.64-1.14 1.17 1.17 0 0 0-1.22-.3 1.58 1.58 0 0 0-.71 1 12.33 12.33 0 0 0-.45 3c-.12 1.78-.23 3.56-.35 5.34a45.34 45.34 0 0 0-.16 5.21"/><path class="cls-5" d="M180.2 160.57h0a4.86 4.86 0 0 0-1.63-2.6 2.06 2.06 0 0 0-2.74.12 3.06 3.06 0 0 0-.14 2.76c1.41 4.87 3.72 9.85 2.56 14.78-.61 2.61-2.17 5.13-2.14 7.22a5 5 0 0 0 2.4 2.83 10.53 10.53 0 0 0 3.61 1.11 22.94 22.94 0 0 0 8.3-.28 5.16 5.16 0 0 0 1.88-.71h.06"/><path class="cls-3" d="M71 109.81a1 1 0 1 1-1-1 1 1 0 0 1 1 1zm3 .42a1 1 0 1 1-1 1 1 1 0 0 1 1-1zm3.9.85a1 1 0 1 1-1 1 1 1 0 0 1 1-1z"/><path class="cls-3" d="M70 110.8a1 1 0 1 0-1-1 1 1 0 0 0 1 1zm4 1.41a1 1 0 1 0-1-1 1 1 0 0 0 1 1zm3-.14a1 1 0 1 0 1-1 1 1 0 0 0-1.1 1zm5.28-3.19q0 4 .06 7.9a101.84 101.84 0 0 1-13.9-3.11c-2.43-.74-4.91-1.63-6.71-3.42a5.2 5.2 0 0 1-1.29-1.94 7.57 7.57 0 0 1-.29-2.17c-.09-2.59.16-5.29.08-7.87a13 13 0 0 0 3.07 4.42 18.25 18.25 0 0 0 6.06 3.8c4 1.59 8.46 2 12.79 2.39zm2.41 5.59a.81.81 0 0 1-.22 0 1.42 1.42 0 0 1-1.21-.48.93.93 0 0 1 .23-1.14 1.76 1.76 0 0 1 .38-.25c.33-.1.51.13.79.16a14.12 14.12 0 0 0 2.51-.12c.42 0 .93 0 1.15.31a.8.8 0 0 1-.23 1 1.91 1.91 0 0 1-1 .37 10.79 10.79 0 0 1-2.4.15z"/><path class="cls-3" d="M82.24 116.78q-.1-3.94-.06-7.9v-.35a.54.54 0 0 1 .55-.52c3.35.09 6.61.09 9.86 0a.93.93 0 0 1 .8.24.54.54 0 0 1 0 .63.64.64 0 0 1-.19.21 1.84 1.84 0 0 1-.93.27c-2.36.24-4.73.48-7.19.53a.45.45 0 0 0-.44.45v2.42c-.28 0-.46-.26-.79-.16a1.76 1.76 0 0 0-.38.25.93.93 0 0 0-.23 1.14 1.42 1.42 0 0 0 1.21.48.81.81 0 0 0 .22 0v2.37c0 .13.07.29.16.29l6.73-.06a1.1 1.1 0 0 1 .9.27.72.72 0 0 1-.16 1 .26.26 0 0 1-.11.1 2.19 2.19 0 0 1-1.19.25l-8.57.2a1.12 1.12 0 0 1-.22-.72z"/><path class="cls-3" d="M87.17 112.64a14.12 14.12 0 0 1-2.51.12v-2.42a.45.45 0 0 1 .44-.45c2.46 0 4.83-.29 7.19-.53a1.84 1.84 0 0 0 .93-.27.64.64 0 0 0 .19-.21l.09.07a13.76 13.76 0 0 0 2 0h.06a1.11 1.11 0 0 0-.06.57 3.05 3.05 0 0 0 .26.79 9.52 9.52 0 0 1 .15 4.72 17.8 17.8 0 0 1-.61 2.81.79.79 0 0 1 0 .09h-.13a13.6 13.6 0 0 0-2.76.39.72.72 0 0 0 .16-1 1.1 1.1 0 0 0-.9-.27l-6.73.06c-.09 0-.14-.16-.16-.29v-2.37a10.79 10.79 0 0 0 2.4-.18 1.91 1.91 0 0 0 1-.37.8.8 0 0 0 .23-1c-.31-.3-.82-.31-1.24-.26z"/><path class="cls-3" d="M95.26 118a.79.79 0 0 0 0-.09 17.8 17.8 0 0 0 .61-2.81 9.52 9.52 0 0 0-.15-4.72 3.05 3.05 0 0 1-.26-.79 1.11 1.11 0 0 1 .06-.57 1.28 1.28 0 0 1 .44-.64c.27-.17.52-.07.92-.23a1.26 1.26 0 0 1 1.3.11.86.86 0 0 1 .2.36 2.49 2.49 0 0 1 .09.6 55.09 55.09 0 0 1-.09 7.38 2.92 2.92 0 0 1-.16.89 1.45 1.45 0 0 1-.32.55 2.06 2.06 0 0 1-.76.57 2.74 2.74 0 0 1-1.57.17.51.51 0 0 1-.27-.09c-.15-.19-.11-.48-.04-.69z"/><path class="cls-3" d="M118.17 101.17a16.11 16.11 0 0 1 .1 2.6c0 1.44-.12 2.87-.27 4.31a5.42 5.42 0 0 1-.69 2.47 5.17 5.17 0 0 1-1.68 1.43A42 42 0 0 1 98 118a1.45 1.45 0 0 0 .32-.55 2.92 2.92 0 0 0 .16-.89 55.09 55.09 0 0 0 .09-7.38 2.49 2.49 0 0 0-.09-.6 28.16 28.16 0 0 0 16.64-5.15 27.32 27.32 0 0 0 2.75-2.2z"/><path class="cls-6" d="M117.85 99.87a7.48 7.48 0 0 1 .32 1.3l-.36.06a27.32 27.32 0 0 1-2.75 2.2 6.88 6.88 0 0 0-1.13-1.22 12 12 0 0 0-4-1.95 78.6 78.6 0 0 0-19-4.15 49.57 49.57 0 0 0-19.22 2c-1.16.37-2.3.8-3.41 1.28a14.68 14.68 0 0 0-5.14 3.26 13 13 0 0 1-3.07-4.42 1 1 0 0 1 0-.24A26.69 26.69 0 0 1 72 91.92a46.35 46.35 0 0 1 9.25-.92c4.52-.11 9-.06 13.57.18 6.1.33 12.34 1 17.82 3.71 2.21 1.11 4.36 2.65 5.21 4.98z"/><path class="cls-5" d="M84.69 114.47v2.37c0 .13.07.29.16.29l6.73-.06a1.1 1.1 0 0 1 .9.27.72.72 0 0 1-.16 1 .26.26 0 0 1-.11.1 2.19 2.19 0 0 1-1.19.25l-8.57.2a1.12 1.12 0 0 1-.22-.72v-1.35q-.1-3.94-.06-7.9v-.35a.54.54 0 0 1 .55-.52c3.35.09 6.61.09 9.86 0a.93.93 0 0 1 .8.24.54.54 0 0 1 0 .63.64.64 0 0 1-.19.21 1.84 1.84 0 0 1-.93.27c-2.36.24-4.73.48-7.19.53a.45.45 0 0 0-.44.45v2.42m13.79-4.22a.86.86 0 0 0-.2-.36 1.26 1.26 0 0 0-1.3-.11c-.4.16-.65.06-.92.23a1.28 1.28 0 0 0-.44.64 1.11 1.11 0 0 0-.06.57 3.05 3.05 0 0 0 .26.79 9.52 9.52 0 0 1 .15 4.72 17.8 17.8 0 0 1-.61 2.81.79.79 0 0 1 0 .09c-.07.25-.11.54.08.69a.51.51 0 0 0 .27.09 2.74 2.74 0 0 0 1.57-.17 2.06 2.06 0 0 0 .76-.57 1.45 1.45 0 0 0 .32-.55 2.92 2.92 0 0 0 .16-.89 55.09 55.09 0 0 0 .09-7.38 2.49 2.49 0 0 0-.13-.6z"/><path class="cls-5" d="M60.1 98.07h0A26.69 26.69 0 0 1 72 91.92a46.35 46.35 0 0 1 9.25-.92c4.52-.11 9-.06 13.57.18 6.1.33 12.34 1 17.82 3.71 2.21 1.1 4.39 2.67 5.21 5a7.48 7.48 0 0 1 .32 1.3 16.11 16.11 0 0 1 .1 2.6c0 1.44-.12 2.87-.27 4.31a5.42 5.42 0 0 1-.69 2.47 5.17 5.17 0 0 1-1.68 1.43A42 42 0 0 1 98 118"/><path class="cls-5" d="M82.24 116.78a101.84 101.84 0 0 1-13.9-3.11c-2.43-.74-4.91-1.63-6.71-3.42a5.2 5.2 0 0 1-1.29-1.94 7.57 7.57 0 0 1-.29-2.17c-.09-2.59.16-5.29.08-7.87a1 1 0 0 1 0-.24m38.29 10.55a28.16 28.16 0 0 0 16.64-5.15 27.32 27.32 0 0 0 2.75-2.2"/><path class="cls-5" d="M60.13 98.27a13 13 0 0 0 3.07 4.42 18.25 18.25 0 0 0 6.06 3.8c4 1.59 8.46 2 12.79 2.39"/><path class="cls-5" d="M63.2 102.69a14.68 14.68 0 0 1 5.14-3.26c1.11-.48 2.25-.91 3.41-1.28a49.57 49.57 0 0 1 19.22-2 78.6 78.6 0 0 1 19 4.15 12 12 0 0 1 4 1.95 6.88 6.88 0 0 1 1.13 1.22M95.5 109a13.76 13.76 0 0 1-2 0m1.63 8.92a13.6 13.6 0 0 0-2.76.39m-7.71-5.55a14.12 14.12 0 0 0 2.51-.12c.42 0 .93 0 1.15.31a.8.8 0 0 1-.23 1 1.91 1.91 0 0 1-1 .37 10.79 10.79 0 0 1-2.4.18.81.81 0 0 1-.22 0 1.42 1.42 0 0 1-1.21-.48.93.93 0 0 1 .23-1.14 1.76 1.76 0 0 1 .38-.25c.33-.13.51.1.79.13zM69 109.81a1 1 0 1 1 1 1 1 1 0 0 1-1-1zm4 1.41a1 1 0 1 1 1 1 1 1 0 0 1-1-1zm3.9.85a1 1 0 1 1 1 1 1 1 0 0 1-1-1z"/><path class="cls-3" d="m122.7 197.77-.3.2a.45.45 0 0 0-.12.06.13.13 0 0 0-.07.06 11.7 11.7 0 0 1-2.46 1.14.66.66 0 0 0-.2.06 13.72 13.72 0 0 1-2.78.57h-.53a.62.62 0 0 0-.44-.11.57.57 0 0 0-.3.15 25.22 25.22 0 0 1-2.87-.07.62.62 0 0 0-.44-.1.6.6 0 0 0-.19.06c-1.24-.1-2.55-.25-4-.39a.58.58 0 0 0-.62-.2.55.55 0 0 0-.24.12h-.39a22.68 22.68 0 0 0-5.81 1.32 40.52 40.52 0 0 1-1.21-10.82c.17-13.36 5.63-27 6.44-40.68.09-1.62.12-3.23.06-4.86a14.07 14.07 0 0 0-.69-4.26 7.29 7.29 0 0 1 1 .42 19.13 19.13 0 0 1 7.4 9.09 34.94 34.94 0 0 1 2.25 13.37c0 4.54-.46 9.09-.62 13.63a37.13 37.13 0 0 0 .53 8.81 27 27 0 0 0 6.6 12.43z"/><path class="cls-6" d="M106.24 144.28c.06 1.63 0 3.24-.06 4.86a10 10 0 0 1-3 .41c-3.21 0-6.39-.6-9.58-.84a23.4 23.4 0 0 0-6.26.24 51.61 51.61 0 0 1 2.91-10.36 44.24 44.24 0 0 1 13.33.88 15 15 0 0 1 2 .54 14.07 14.07 0 0 1 .66 4.27z"/><path class="cls-3" d="M95.52 186.34a3.54 3.54 0 0 1-.39.89 4.57 4.57 0 0 1-2.68 1.94 8.14 8.14 0 0 1-4.32-.16c-1.39-.38-2.73-1-4.11-1.44a16.76 16.76 0 0 0-7.74-.82 62.62 62.62 0 0 1 .29-28.56c1.85-7.55 5.44-15.12 11.9-19.42.59-.07 1.17-.14 1.76-.17a51.41 51.41 0 0 0-3.44 23.56 50.14 50.14 0 0 0 8.73 24.18z"/><path class="cls-5" d="M88.47 138.77c-6.46 4.3-10 11.87-11.9 19.42a62.62 62.62 0 0 0-.29 28.56 2.14 2.14 0 0 0 .06.27M101 200.66v.05c0 .16.08.33.13.5m5.05-52.06c-.81 13.68-6.27 27.32-6.44 40.68a40.52 40.52 0 0 0 1.26 10.82m4.55-60.65a14.07 14.07 0 0 1 .69 4.26c.06 1.63 0 3.24-.06 4.86m16.52 48.65a27 27 0 0 1-6.52-12.4 37.13 37.13 0 0 1-.53-8.81c.16-4.54.63-9.09.62-13.63a34.94 34.94 0 0 0-2.27-13.37 19.13 19.13 0 0 0-7.4-9.09"/><path class="cls-5" d="M88.47 138.77c.59-.07 1.17-.14 1.76-.17a44.24 44.24 0 0 1 13.33.88 15 15 0 0 1 2 .54 7.29 7.29 0 0 1 1 .42h0"/><path class="cls-5" d="M90.23 138.6a51.41 51.41 0 0 0-3.44 23.56 50.14 50.14 0 0 0 8.73 24.18 3.54 3.54 0 0 1-.39.89 4.57 4.57 0 0 1-2.68 1.94 8.14 8.14 0 0 1-4.32-.16c-1.39-.38-2.73-1-4.11-1.44a16.76 16.76 0 0 0-7.74-.82m43.24 12.54a13.72 13.72 0 0 1-2.78.57h-1.27a25.22 25.22 0 0 1-2.87-.07h-.63c-1.24-.1-2.55-.25-4-.39l-.86-.08h-.39a22.68 22.68 0 0 0-5.81 1.32h0m18.82-1.41-.2.06m3.17-1.52-.3.2-.19.12a11.7 11.7 0 0 1-2.46 1.14"/><path class="cls-5" d="M106.18 149.14h0a10 10 0 0 1-3 .41c-3.21 0-6.39-.6-9.58-.84a23.4 23.4 0 0 0-6.26.24m-7.45 38.39a.61.61 0 1 1-.6-.61.6.6 0 0 1 .6.61zm1.98.6a.61.61 0 0 1 1.21 0 .61.61 0 1 1-1.21 0zm3.66 1.06a.61.61 0 1 1 .6.6.6.6 0 0 1-.6-.6zm4.58 1.24a.6.6 0 0 1 .6-.6.61.61 0 1 1 0 1.21.6.6 0 0 1-.6-.61zm3.77-.24a.6.6 0 1 1 .38-.13.6.6 0 0 1-.38.13zm2.12-1.84a.5.5 0 0 1-.27.07.61.61 0 0 1-.61-.61.6.6 0 0 1 .61-.6.61.61 0 0 1 .47 1 .45.45 0 0 1-.2.14zm-18.86-.47a.61.61 0 1 1-.61-.6.61.61 0 0 1 .61.6z"/><path class="cls-5" d="M75.46 194.84c0-.14-.23-2.23.3-2.76s.77-3.78.77-3.78a5.71 5.71 0 0 1 .61 3.27m23.86 9.14a.51.51 0 0 1 .22-.05.61.61 0 1 1-.61.6.58.58 0 0 1 .39-.55z"/><path class="cls-5" d="M100.11 208.41c0-.14-.23-2.23.3-2.76s.78-3.78.78-3.78a5.74 5.74 0 0 1 .6 3.27 4 4 0 0 0 .07 2.76m2.62-7.59a.6.6 0 1 1-.73-.44.6.6 0 0 1 .73.44z"/><path class="cls-5" d="M104.7 207.64c-.08-.12-.8-2.1-.43-2.75s-.21-3.84-.21-3.84a5.68 5.68 0 0 1 1.42 3 3.94 3.94 0 0 0 .78 2.64m1.74-7.25a.51.51 0 0 1 .12.23.61.61 0 0 1-1.12.33.6.6 0 0 1 .19-.62.55.55 0 0 1 .24-.12.58.58 0 0 1 .57.18zm.34 7.56c-.08-.12-.8-2.09-.42-2.75s-.22-3.84-.22-3.84a5.6 5.6 0 0 1 1.42 3 4 4 0 0 0 .78 2.65m2.7-6.19a.65.65 0 0 1 .25.41.62.62 0 0 1-.52.69.61.61 0 1 1-.17-1.2.62.62 0 0 1 .44.1z"/><path class="cls-5" d="M112.22 207.59c-.06-.13-.55-2.17-.1-2.78s.21-3.84.21-3.84a5.62 5.62 0 0 1 1.08 3.14 4.08 4.08 0 0 0 .47 2.72m2.33-6.93a.63.63 0 0 1 .25.41.6.6 0 0 1-.51.68.6.6 0 0 1-.48-1.05.57.57 0 0 1 .3-.15.62.62 0 0 1 .44.11zm-.37 7.72c-.07-.13-.56-2.18-.11-2.78S116 201 116 201a5.71 5.71 0 0 1 1.08 3.15 3.9 3.9 0 0 0 .47 2.71m2.2-7.63a.59.59 0 0 1 .67.5.62.62 0 0 1-.51.69.61.61 0 0 1-.39-1.13h0a.66.66 0 0 1 .2-.06zm.04 7.82c-.06-.14-.55-2.18-.1-2.78s.22-3.85.22-3.85a5.64 5.64 0 0 1 1.07 3.14 4.06 4.06 0 0 0 .47 2.72m.95-8.28a.61.61 0 0 1 .72.24.61.61 0 1 1-.91-.12.13.13 0 0 1 .07-.06.45.45 0 0 1 .12-.06z"/><path class="cls-5" d="M122.93 199h0a5.66 5.66 0 0 1 2.27 2.43 4 4 0 0 0 1.54 2.29m-1.21 1.42c-.11-.09-1.39-1.76-1.23-2.49s-1.28-3.44-1.37-3.6m-44.25-4.7c-.63-1.23 0-3.46.31-4.11a8 8 0 0 0 .3-2.3m2.33 6.41a4.44 4.44 0 0 1-.47-2.37 6.36 6.36 0 0 1 1.33-3.43s1 3.13.44 5m3.21-3.91a2.12 2.12 0 0 0-.6 1.81c.19 1.07-.89 2-1 2.53a5.93 5.93 0 0 0 0 1.73m1.8-6.07a11.43 11.43 0 0 1 .92 3.39v2.68m5.07 1.15s-.36-.46-.75-1-.24-1.91-.25-2.8a6 6 0 0 0-.61-2.05 3.86 3.86 0 0 1-.25 1.93c-.41 1-1.38 2.41-1 3.44m4.42-6.38s-.3.3.47 1.32a3.8 3.8 0 0 1 .78 2.6 2.9 2.9 0 0 0 .61 1.62m-1.48-5.68h0a27 27 0 0 0 2.89 4.37M96 188.16h0a4.39 4.39 0 0 0 1.47 2.54 4.73 4.73 0 0 0 1.25.69M96.2 188h0c.07.11 1 1.46 1.85 1.64l.85.18"/></svg>