<svg id="Layer_1" data-name="Layer 1" xmlns="http://www.w3.org/2000/svg" viewBox="0 0 256 256"><defs><style>.cls-1{fill:#0e4e91;}.cls-2{fill:#abe7ff;}.cls-3{fill:#fff;}.cls-4{fill:#2db5ff;}.cls-5{fill:none;stroke:#0e4e91;stroke-linecap:round;stroke-linejoin:round;}.cls-6{fill:#caf5fe;}</style></defs><path class="cls-1" d="M131,225.79l0-1.28c2.26,0,4.54-.18,6.78-.39l.11,1.28C135.57,225.61,133.25,225.74,131,225.79Zm-5.17,0c-2.29-.07-4.6-.22-6.86-.44l.12-1.28c2.24.22,4.52.37,6.78.44Zm17.16-1-.18-1.26c2.23-.33,4.48-.74,6.68-1.22l.27,1.25C147.5,224.05,145.23,224.46,143,224.79Zm11.78-2.46-.33-1.24c2.17-.6,4.35-1.28,6.48-2l.42,1.21C159.16,221,157,221.72,154.74,222.33Zm11.39-3.91-.49-1.18c2.08-.86,4.15-1.81,6.18-2.82l.57,1.15C170.34,216.6,168.23,217.55,166.13,218.42Zm10.81-5.27-.63-1.12c2-1.11,3.9-2.3,5.78-3.55l.71,1.07C180.9,210.81,178.93,212,176.94,213.15Zm-97-.4c-2-1.14-3.94-2.37-5.84-3.65l.72-1.07c1.87,1.27,3.81,2.48,5.76,3.61ZM187,206.58l-.76-1c1.81-1.34,3.59-2.77,5.3-4.23l.84,1C190.67,203.77,188.86,205.22,187,206.58Zm-117.16-.49c-1.82-1.37-3.62-2.83-5.35-4.34l.85-1c1.7,1.48,3.47,2.92,5.27,4.28Zm126.37-7.26-.89-.93c1.63-1.55,3.23-3.19,4.75-4.86l.95.87C199.5,195.6,197.88,197.25,196.23,198.83Zm-135.52-.57c-1.63-1.59-3.24-3.25-4.77-5l1-.86c1.51,1.69,3.09,3.33,4.71,4.9ZM204.42,190l-1-.81c1.43-1.75,2.82-3.56,4.12-5.4l1,.74C207.28,186.39,205.87,188.23,204.42,190ZM52.6,189.37c-1.44-1.78-2.83-3.63-4.13-5.5l1.05-.74c1.29,1.85,2.66,3.68,4.08,5.43Zm158.87-9.13-1.08-.69c1.21-1.9,2.36-3.88,3.43-5.86l1.13.6C213.86,176.31,212.7,178.31,211.47,180.24Zm-165.84-.68c-1.2-1.94-2.36-3.95-3.42-6l1.13-.6c1.06,2,2.19,4,3.38,5.89Zm171.65-9.88-1.16-.55c1-2,1.86-4.14,2.68-6.25l1.19.47C219.17,165.48,218.25,167.61,217.28,169.68ZM31.15,134.14c-.12-2-.19-4.09-.19-6.13v-.75h1.29V128c0,2,.07,4,.19,6.05Zm1.27-12-1.28-.08c.13-2.28.35-4.59.65-6.85l1.27.16C32.77,117.65,32.55,119.92,32.42,122.18ZM223.78,110.9c-.4-2.23-.88-4.46-1.44-6.64l1.25-.32c.56,2.21,1,4.48,1.45,6.73Zm-189.93-.52-1.26-.23c.41-2.25.91-4.51,1.49-6.72l1.24.32C34.75,105.93,34.26,108.16,33.85,110.38ZM221,99.35c-.67-2.15-1.42-4.3-2.24-6.41l1.2-.46c.83,2.13,1.59,4.31,2.27,6.49ZM36.73,98.86l-1.23-.39c.69-2.18,1.47-4.36,2.31-6.49l1.2.47C38.17,94.55,37.41,96.71,36.73,98.86Zm180-10.6c-.93-2.05-1.95-4.1-3-6.08l1.13-.61c1.09,2,2.11,4.08,3.06,6.16ZM41,87.76l-1.16-.54c.95-2.07,2-4.14,3.09-6.15l1.13.61C43,83.67,42,85.71,41,87.76Zm170.19-10c-1.18-1.93-2.44-3.83-3.74-5.67l1-.74c1.33,1.86,2.6,3.79,3.79,5.74ZM46.64,77.28l-1.09-.68c1.2-1.94,2.49-3.86,3.82-5.72l1.05.75C49.09,73.46,47.82,75.36,46.64,77.28ZM204.4,68c-1.4-1.76-2.89-3.5-4.41-5.16l.94-.87c1.55,1.69,3,3.45,4.47,5.24ZM53.5,67.57l-1-.8C53.94,65,55.45,63.24,57,61.56l.94.87C56.41,64.09,54.92,65.82,53.5,67.57Zm143-8.37c-1.6-1.58-3.29-3.12-5-4.59l.84-1c1.74,1.49,3.45,3.06,5.07,4.65ZM91,39.15,90.51,38c2.1-.89,4.25-1.72,6.41-2.46l.42,1.21C95.21,37.45,93.08,38.27,91,39.15Zm64.83-3.81c-2.17-.63-4.38-1.19-6.59-1.67l.27-1.26c2.24.49,4.48,1.06,6.68,1.7Zm-53.64-.15L101.85,34c2.19-.63,4.44-1.18,6.68-1.66l.26,1.26C106.58,34,104.36,34.57,102.2,35.19Zm42.05-2.47c-2.23-.35-4.49-.64-6.74-.84l.11-1.28c2.28.21,4.58.5,6.83.86Zm-30.45-.08-.2-1.26c2.26-.36,4.56-.63,6.84-.82l.1,1.28C118.3,32,116,32.3,113.8,32.64Zm18.63-1.08c-2.26-.09-4.55-.09-6.8,0l0-1.28c2.28-.07,4.59-.07,6.88,0Z"/><circle class="cls-2" cx="128.51" cy="125.28" r="78.24"/><path class="cls-3" d="M163.54,69.63c3.62.72,4.51,1.36,3.38,2.49s-3.46,3.14-6.52,6S150.26,82,142.93,80s-19-3.53-24.54-1.37c-6,2.34-10.07,1.53-15.62.24s-5.39-5.95-5.07-7.81,1.12-2.57,3.3-2.73,12.32-2.75,14.37-2.78h0v0l-.32,2c4.67,4.18,32.83,4.29,34.45-.73l-.17-1.37A143.65,143.65,0,0,0,163.54,69.63Z"/><path class="cls-4" d="M149.34,65.43l.17,1.37c-1.62,5-29.78,4.91-34.45.73l.32-2v0h0c0-.05,0-.11,0-.2v-.08a1.25,1.25,0,0,1,0-.19c0-.14,0-.3,0-.48s0-.29.06-.44,0,0,0-.05c1.89,2.06,10,3.08,18.1,2.92,7.2-.14,14.57-.8,15.34-4.12.07.51.14,1,.2,1.42a2.61,2.61,0,0,0,0,.31s0,.06,0,.09,0,.26,0,.38,0,.22,0,.32h0Z"/><path class="cls-3" d="M148.29,58.23c.17.92.46,2.92.7,4.67-.77,3.32-8.14,4-15.34,4.12-8.08.16-16.21-.86-18.1-2.92.44-3,1.69-9.73,4-12.58,2.82-3.54,8.61-4.71,12.88-4.75,3.22,0,9.42,1.13,12.56,4.19C146.94,52.89,147.83,55.7,148.29,58.23Z"/><path class="cls-5" d="M149.23,64.63a2.61,2.61,0,0,1,0-.31"/><path class="cls-5" d="M149.29,65.1c0-.12,0-.25,0-.38"/><path class="cls-5" d="M115.37,65.55h0c-2.05,0-12.2,2.62-14.37,2.78s-3,.89-3.3,2.73-.48,6.53,5.07,7.81,9.66,2.1,15.62-.24c5.52-2.16,17.22-.64,24.54,1.37s14.41.88,17.47-1.93,5.39-4.83,6.52-6,.24-1.77-3.38-2.49a143.65,143.65,0,0,1-14.2-4.2"/><path class="cls-5" d="M115.4,65.34c0,.09,0,.15,0,.2"/><path class="cls-5" d="M115.43,65.07a1.25,1.25,0,0,0,0,.19"/><path class="cls-5" d="M115.54,64.15c0,.15,0,.31-.06.44"/><path class="cls-5" d="M149,62.9c-.24-1.75-.53-3.75-.7-4.67-.46-2.53-1.35-5.34-3.34-7.27-3.14-3.06-9.34-4.23-12.56-4.19-4.27,0-10.06,1.21-12.88,4.75-2.27,2.85-3.52,9.53-4,12.58"/><path class="cls-5" d="M115.55,64.1s0,0,0,.05l-.06.44c0,.18,0,.34,0,.48a1.25,1.25,0,0,0,0,.19v.08c0,.08,0,.15,0,.2h0v0l-.32,2c4.67,4.18,32.83,4.29,34.45-.73l-.17-1.37h0c0-.1,0-.21,0-.32s0-.25,0-.38,0-.06,0-.09a2.61,2.61,0,0,1,0-.31c-.06-.43-.13-.91-.2-1.42-.77,3.32-8.14,4-15.34,4.12C125.57,67.18,117.44,66.16,115.55,64.1Z"/><path class="cls-6" d="M153.91,111.15c4.4,0,8.27,3.23,8.27,6.66s-3.56,5.89-8,5.89-7.8-3.38-7.8-6.81S149.53,111.15,153.91,111.15Z"/><path class="cls-6" d="M191.2,117.12c0,3.43-3.41,6.81-7.8,6.81s-8-2.48-8-5.89,3.87-6.65,8.27-6.65S191.2,113.71,191.2,117.12Z"/><path class="cls-3" d="M152.77,107.7c6.63,0,12.47,4.87,12.47,10v.12c-.09,5.1-5.41,8.76-12,8.76s-11.76-5.1-11.76-10.27a8,8,0,0,1,4.81-7.27A14.84,14.84,0,0,1,152.77,107.7Zm-6.34,9.19c0,3.43,3.41,6.81,7.8,6.81s8-2.48,8-5.89-3.87-6.66-8.27-6.66S146.43,113.48,146.43,116.89Z"/><path class="cls-3" d="M183.4,123.93c4.39,0,7.8-3.38,7.8-6.81s-3.1-5.73-7.48-5.73-8.27,3.22-8.27,6.65S179,123.93,183.4,123.93Zm-11-6.09c.08-5.1,5.89-9.91,12.47-9.91a15.16,15.16,0,0,1,5.81,1.07.14.14,0,0,0,.09,0c.83.44,1.44.78,1.8,1l.13.08a7.74,7.74,0,0,1,3.45,6.46c0,5.16-5.14,10.26-11.76,10.26s-12-3.72-12-8.88Z"/><path class="cls-5" d="M146.3,109.06a14.84,14.84,0,0,1,6.47-1.36c6.63,0,12.47,4.87,12.47,10v.12c-.09,5.1-5.41,8.76-12,8.76s-11.76-5.1-11.76-10.27A8,8,0,0,1,146.3,109.06Z"/><path class="cls-5" d="M192.56,110a11.13,11.13,0,0,0-1.8-1"/><path class="cls-5" d="M190.67,109a15.16,15.16,0,0,0-5.81-1.07c-6.58,0-12.39,4.81-12.47,9.91V118c0,5.16,5.38,8.88,12,8.88s11.76-5.1,11.76-10.26a7.74,7.74,0,0,0-3.45-6.46"/><path class="cls-5" d="M153.91,111.15c4.4,0,8.27,3.23,8.27,6.66s-3.56,5.89-8,5.89-7.8-3.38-7.8-6.81S149.53,111.15,153.91,111.15Z"/><path class="cls-5" d="M183.72,111.39c-4.4,0-8.27,3.22-8.27,6.65s3.56,5.89,8,5.89,7.8-3.38,7.8-6.81S188.1,111.39,183.72,111.39Z"/><path class="cls-5" d="M165.24,117.84a3.66,3.66,0,0,1,3.46-2.3,4.2,4.2,0,0,1,3.69,2.3"/><path class="cls-5" d="M145.18,109.54l1.08-.57,22.09-11.8,7-3.77s6.13-.78,5.76,4.84"/><path class="cls-5" d="M155.56,98.24s-.06-6.33,6-4.61c1.12.55,3.64,1.88,6.8,3.54,7.22,3.79,17.75,9.39,22.32,11.83a.14.14,0,0,0,.09,0c.83.44,1.44.78,1.8,1l.13.08.22.12"/><path class="cls-3" d="M164.47,164.11a4.84,4.84,0,0,1,1.71-2.55,2,2,0,0,1,2.73.2,3,3,0,0,1,.06,2.76c-1.55,4.82-4,9.73-3,14.7.53,2.62,2,5.19,1.92,7.28a5,5,0,0,1-2.49,2.75,10.13,10.13,0,0,1-3.64,1,22.87,22.87,0,0,1-8.28-.53,5.28,5.28,0,0,1-1.86-.77l-.06,0a37.52,37.52,0,0,0,1.37-7.66c-.51-4.08-2.34-7.86-3.83-11.7s-2.63-8-1.71-12c.11-.51.45-1.14,1-1,.33.06.51.4.64.7a25.13,25.13,0,0,1,1.21,3.48l.08,0a65.58,65.58,0,0,1-.19-7.55,3.58,3.58,0,0,1,.32-1.65,1.3,1.3,0,0,1,1.39-.71,1.65,1.65,0,0,1,.77.59,9.31,9.31,0,0,1,1.65,4.39,53.74,53.74,0,0,1,.86-6.59,5.22,5.22,0,0,1,1-2.56.92.92,0,0,1,1.7.13,11,11,0,0,1,.8,4.1c.27,2.22,1,4.42,1.4,6.62a15.53,15.53,0,0,1,1.33-6.49,3.16,3.16,0,0,1,.68-1.13,1.16,1.16,0,0,1,1.22-.25,1.51,1.51,0,0,1,.69,1,12.39,12.39,0,0,1,.35,3c.07,1.78.13,3.57.2,5.35A45.45,45.45,0,0,1,164.47,164.11Z"/><path class="cls-5" d="M151.51,189.11c0-.06,0-.12.05-.19a37.52,37.52,0,0,0,1.37-7.66c-.51-4.08-2.34-7.86-3.83-11.7s-2.63-8-1.71-12c.11-.51.45-1.14,1-1,.33.06.51.4.64.7a25.13,25.13,0,0,1,1.21,3.48,23.81,23.81,0,0,1,.73,4.1"/><path class="cls-5" d="M150.28,160.65a65.58,65.58,0,0,1-.19-7.55,3.58,3.58,0,0,1,.32-1.65,1.3,1.3,0,0,1,1.39-.71,1.65,1.65,0,0,1,.77.59,9.31,9.31,0,0,1,1.65,4.39c.08.45.15.91.23,1.37a43.69,43.69,0,0,0,1.44,5.95"/><path class="cls-5" d="M154.21,155.79s0,0,0-.07a53.74,53.74,0,0,1,.86-6.59,5.22,5.22,0,0,1,1-2.56.92.92,0,0,1,1.7.13,11,11,0,0,1,.8,4.1c.27,2.22,1,4.42,1.4,6.62a10.17,10.17,0,0,1,0,3.81"/><path class="cls-5" d="M164.47,164.11a18.17,18.17,0,0,1-.46,2.94"/><path class="cls-5" d="M160,157.42a15.53,15.53,0,0,1,1.33-6.49,3.16,3.16,0,0,1,.68-1.13,1.16,1.16,0,0,1,1.22-.25,1.51,1.51,0,0,1,.69,1,12.39,12.39,0,0,1,.35,3c.07,1.78.13,3.57.2,5.35a45.45,45.45,0,0,1,0,5.22"/><path class="cls-5" d="M164.47,164.11h0a4.84,4.84,0,0,1,1.71-2.55,2,2,0,0,1,2.73.2,3,3,0,0,1,.06,2.76c-1.55,4.82-4,9.73-3,14.7.53,2.62,2,5.19,1.92,7.28a5,5,0,0,1-2.49,2.75,10.13,10.13,0,0,1-3.64,1,22.87,22.87,0,0,1-8.28-.53,5.28,5.28,0,0,1-1.86-.77l-.06,0"/><path class="cls-3" d="M180.2,160.56a4.86,4.86,0,0,0-1.63-2.6,2.06,2.06,0,0,0-2.74.12,3.06,3.06,0,0,0-.14,2.76c1.41,4.87,3.72,9.85,2.56,14.78-.61,2.61-2.17,5.13-2.14,7.22a5,5,0,0,0,2.4,2.83,10.53,10.53,0,0,0,3.61,1.11,22.94,22.94,0,0,0,8.3-.28,5.16,5.16,0,0,0,1.88-.71l.06,0a38,38,0,0,1-1.14-7.69c.63-4.07,2.58-7.79,4.18-11.59s2.87-7.94,2.08-12c-.1-.51-.42-1.15-.94-1.06-.32.06-.52.39-.65.69a22.92,22.92,0,0,0-1.32,3.43l-.08,0a67.78,67.78,0,0,0,.42-7.54,3.68,3.68,0,0,0-.27-1.65,1.31,1.31,0,0,0-1.37-.76,1.6,1.6,0,0,0-.79.57,9.21,9.21,0,0,0-1.78,4.33,54.22,54.22,0,0,0-.67-6.61,5,5,0,0,0-.94-2.58,1.12,1.12,0,0,0-1.21-.46,1.14,1.14,0,0,0-.49.53,11,11,0,0,0-.92,4.08c-.33,2.21-1.18,4.39-1.6,6.57a15.65,15.65,0,0,0-1.14-6.53,3.06,3.06,0,0,0-.64-1.14,1.17,1.17,0,0,0-1.22-.3,1.58,1.58,0,0,0-.71,1,12.33,12.33,0,0,0-.45,3c-.12,1.78-.23,3.56-.35,5.34A45.34,45.34,0,0,0,180.2,160.56Z"/><path class="cls-5" d="M192.41,185.94a1.05,1.05,0,0,1,0-.19,38,38,0,0,1-1.14-7.69c.63-4.07,2.58-7.79,4.18-11.59s2.87-7.94,2.08-12c-.1-.51-.42-1.15-.94-1.06-.32.06-.52.39-.65.69a22.92,22.92,0,0,0-1.32,3.43,24.88,24.88,0,0,0-.86,4.08"/><path class="cls-5" d="M194.49,157.53a67.78,67.78,0,0,0,.42-7.54,3.68,3.68,0,0,0-.27-1.65,1.31,1.31,0,0,0-1.37-.76,1.6,1.6,0,0,0-.79.57,9.21,9.21,0,0,0-1.78,4.33c-.1.46-.18.91-.27,1.37a42.91,42.91,0,0,1-1.62,5.9"/><path class="cls-5" d="M190.7,152.55s0,0,0-.07a54.22,54.22,0,0,0-.67-6.61,5,5,0,0,0-.94-2.58,1.12,1.12,0,0,0-1.21-.46,1.14,1.14,0,0,0-.49.53,11,11,0,0,0-.92,4.08c-.33,2.21-1.18,4.39-1.6,6.57a10.38,10.38,0,0,0-.11,3.81"/><path class="cls-5" d="M180.2,160.57a18.3,18.3,0,0,0,.37,3"/><path class="cls-5" d="M184.87,154a15.65,15.65,0,0,0-1.14-6.53,3.06,3.06,0,0,0-.64-1.14,1.17,1.17,0,0,0-1.22-.3,1.58,1.58,0,0,0-.71,1,12.33,12.33,0,0,0-.45,3c-.12,1.78-.23,3.56-.35,5.34a45.34,45.34,0,0,0-.16,5.21"/><path class="cls-5" d="M180.2,160.57h0a4.86,4.86,0,0,0-1.63-2.6,2.06,2.06,0,0,0-2.74.12,3.06,3.06,0,0,0-.14,2.76c1.41,4.87,3.72,9.85,2.56,14.78-.61,2.61-2.17,5.13-2.14,7.22a5,5,0,0,0,2.4,2.83,10.53,10.53,0,0,0,3.61,1.11,22.94,22.94,0,0,0,8.3-.28,5.16,5.16,0,0,0,1.88-.71l.06,0"/><path class="cls-3" d="M71,109.81a1,1,0,1,1-1-1A1,1,0,0,1,71,109.81Z"/><path class="cls-3" d="M74,110.23a1,1,0,1,1-1,1A1,1,0,0,1,74,110.23Z"/><path class="cls-3" d="M77.9,111.08a1,1,0,1,1-1,1A1,1,0,0,1,77.9,111.08Z"/><path class="cls-3" d="M70,110.8a1,1,0,1,0-1-1A1,1,0,0,0,70,110.8Zm4,1.41a1,1,0,1,0-1-1A1,1,0,0,0,74,112.21Zm3-.14a1,1,0,1,0,1-1A1,1,0,0,0,76.9,112.07Zm5.28-3.19q0,4,.06,7.9a101.84,101.84,0,0,1-13.9-3.11c-2.43-.74-4.91-1.63-6.71-3.42a5.2,5.2,0,0,1-1.29-1.94,7.57,7.57,0,0,1-.29-2.17c-.09-2.59.16-5.29.08-7.87a13,13,0,0,0,3.07,4.42,18.25,18.25,0,0,0,6.06,3.8c4,1.59,8.46,2,12.79,2.39Z"/><path class="cls-3" d="M84.69,114.47a.81.81,0,0,1-.22,0,1.42,1.42,0,0,1-1.21-.48.93.93,0,0,1,.23-1.14,1.76,1.76,0,0,1,.38-.25c.33-.1.51.13.79.16a14.12,14.12,0,0,0,2.51-.12c.42,0,.93,0,1.15.31a.8.8,0,0,1-.23,1,1.91,1.91,0,0,1-1,.37A10.79,10.79,0,0,1,84.69,114.47Z"/><path class="cls-3" d="M82.24,116.78q-.1-3.94-.06-7.9v-.35a.54.54,0,0,1,.55-.52c3.35.09,6.61.09,9.86,0a.93.93,0,0,1,.8.24.54.54,0,0,1,0,.63.64.64,0,0,1-.19.21,1.84,1.84,0,0,1-.93.27c-2.36.24-4.73.48-7.19.53a.45.45,0,0,0-.44.45c0,.81,0,1.62,0,2.42-.28,0-.46-.26-.79-.16a1.76,1.76,0,0,0-.38.25.93.93,0,0,0-.23,1.14,1.42,1.42,0,0,0,1.21.48.81.81,0,0,0,.22,0c0,.79,0,1.58,0,2.37,0,.13.07.29.16.29l6.73-.06a1.1,1.1,0,0,1,.9.27.72.72,0,0,1-.16,1,.26.26,0,0,1-.11.1,2.19,2.19,0,0,1-1.19.25l-8.57.2a1.12,1.12,0,0,1-.22-.72Z"/><path class="cls-3" d="M87.17,112.64a14.12,14.12,0,0,1-2.51.12c0-.8,0-1.61,0-2.42a.45.45,0,0,1,.44-.45c2.46,0,4.83-.29,7.19-.53a1.84,1.84,0,0,0,.93-.27.64.64,0,0,0,.19-.21l.09.07a13.76,13.76,0,0,0,2,0l.06,0a1.11,1.11,0,0,0-.06.57,3.05,3.05,0,0,0,.26.79,9.52,9.52,0,0,1,.15,4.72,17.8,17.8,0,0,1-.61,2.81.79.79,0,0,1,0,.09l-.13,0a13.6,13.6,0,0,0-2.76.39h0a.72.72,0,0,0,.16-1,1.1,1.1,0,0,0-.9-.27l-6.73.06c-.09,0-.14-.16-.16-.29,0-.79,0-1.58,0-2.37a10.79,10.79,0,0,0,2.4-.18,1.91,1.91,0,0,0,1-.37.8.8,0,0,0,.23-1C88.1,112.6,87.59,112.59,87.17,112.64Z"/><path class="cls-3" d="M95.26,118a.79.79,0,0,0,0-.09,17.8,17.8,0,0,0,.61-2.81,9.52,9.52,0,0,0-.15-4.72,3.05,3.05,0,0,1-.26-.79,1.11,1.11,0,0,1,.06-.57,1.28,1.28,0,0,1,.44-.64c.27-.17.52-.07.92-.23a1.26,1.26,0,0,1,1.3.11.86.86,0,0,1,.2.36,2.49,2.49,0,0,1,.09.6,55.09,55.09,0,0,1-.09,7.38,2.92,2.92,0,0,1-.16.89,1.45,1.45,0,0,1-.32.55,2.06,2.06,0,0,1-.76.57,2.74,2.74,0,0,1-1.57.17.51.51,0,0,1-.27-.09C95.15,118.5,95.19,118.21,95.26,118Z"/><path class="cls-3" d="M118.17,101.17a16.11,16.11,0,0,1,.1,2.6c0,1.44-.12,2.87-.27,4.31a5.42,5.42,0,0,1-.69,2.47,5.17,5.17,0,0,1-1.68,1.43A42,42,0,0,1,98,118h0a1.45,1.45,0,0,0,.32-.55,2.92,2.92,0,0,0,.16-.89,55.09,55.09,0,0,0,.09-7.38,2.49,2.49,0,0,0-.09-.6,28.16,28.16,0,0,0,16.64-5.15,27.32,27.32,0,0,0,2.75-2.2Z"/><path class="cls-6" d="M117.85,99.87a7.48,7.48,0,0,1,.32,1.3l-.36.06a27.32,27.32,0,0,1-2.75,2.2,6.88,6.88,0,0,0-1.13-1.22,12,12,0,0,0-4-1.95,78.6,78.6,0,0,0-19-4.15,49.57,49.57,0,0,0-19.22,2c-1.16.37-2.3.8-3.41,1.28a14.68,14.68,0,0,0-5.14,3.26,13,13,0,0,1-3.07-4.42,1,1,0,0,1,0-.24A26.69,26.69,0,0,1,72,91.92,46.35,46.35,0,0,1,81.25,91c4.52-.11,9-.06,13.57.18,6.1.33,12.34,1,17.82,3.71C114.85,96,117,97.54,117.85,99.87Z"/><path class="cls-5" d="M84.69,114.47c0,.79,0,1.58,0,2.37,0,.13.07.29.16.29l6.73-.06a1.1,1.1,0,0,1,.9.27.72.72,0,0,1-.16,1,.26.26,0,0,1-.11.1,2.19,2.19,0,0,1-1.19.25l-8.57.2a1.12,1.12,0,0,1-.22-.72l0-1.35q-.1-3.94-.06-7.9v-.35a.54.54,0,0,1,.55-.52c3.35.09,6.61.09,9.86,0a.93.93,0,0,1,.8.24.54.54,0,0,1,0,.63.64.64,0,0,1-.19.21,1.84,1.84,0,0,1-.93.27c-2.36.24-4.73.48-7.19.53a.45.45,0,0,0-.44.45c0,.81,0,1.62,0,2.42"/><path class="cls-5" d="M98.42,108.58a.86.86,0,0,0-.2-.36,1.26,1.26,0,0,0-1.3-.11c-.4.16-.65.06-.92.23a1.28,1.28,0,0,0-.44.64,1.11,1.11,0,0,0-.06.57,3.05,3.05,0,0,0,.26.79,9.52,9.52,0,0,1,.15,4.72,17.8,17.8,0,0,1-.61,2.81.79.79,0,0,1,0,.09c-.07.25-.11.54.08.69a.51.51,0,0,0,.27.09,2.74,2.74,0,0,0,1.57-.17,2.06,2.06,0,0,0,.76-.57,1.45,1.45,0,0,0,.32-.55,2.92,2.92,0,0,0,.16-.89,55.09,55.09,0,0,0,.09-7.38A2.49,2.49,0,0,0,98.42,108.58Z"/><path class="cls-5" d="M60.1,98.07l0,0A26.69,26.69,0,0,1,72,91.92,46.35,46.35,0,0,1,81.25,91c4.52-.11,9-.06,13.57.18,6.1.33,12.34,1,17.82,3.71,2.21,1.1,4.39,2.67,5.21,5a7.48,7.48,0,0,1,.32,1.3,16.11,16.11,0,0,1,.1,2.6c0,1.44-.12,2.87-.27,4.31a5.42,5.42,0,0,1-.69,2.47,5.17,5.17,0,0,1-1.68,1.43A42,42,0,0,1,98,118"/><path class="cls-5" d="M82.24,116.78a101.84,101.84,0,0,1-13.9-3.11c-2.43-.74-4.91-1.63-6.71-3.42a5.2,5.2,0,0,1-1.29-1.94,7.57,7.57,0,0,1-.29-2.17c-.09-2.59.16-5.29.08-7.87a1,1,0,0,1,0-.24"/><path class="cls-5" d="M98.42,108.58a28.16,28.16,0,0,0,16.64-5.15,27.32,27.32,0,0,0,2.75-2.2"/><path class="cls-5" d="M60.13,98.27a13,13,0,0,0,3.07,4.42,18.25,18.25,0,0,0,6.06,3.8c4,1.59,8.46,2,12.79,2.39"/><path class="cls-5" d="M63.2,102.69a14.68,14.68,0,0,1,5.14-3.26c1.11-.48,2.25-.91,3.41-1.28a49.57,49.57,0,0,1,19.22-2,78.6,78.6,0,0,1,19,4.15,12,12,0,0,1,4,1.95,6.88,6.88,0,0,1,1.13,1.22"/><path class="cls-5" d="M95.5,109a13.76,13.76,0,0,1-2,0"/><path class="cls-5" d="M95.13,117.92a13.6,13.6,0,0,0-2.76.39"/><path class="cls-5" d="M84.66,112.76a14.12,14.12,0,0,0,2.51-.12c.42,0,.93,0,1.15.31a.8.8,0,0,1-.23,1,1.91,1.91,0,0,1-1,.37,10.79,10.79,0,0,1-2.4.18.81.81,0,0,1-.22,0,1.42,1.42,0,0,1-1.21-.48.93.93,0,0,1,.23-1.14,1.76,1.76,0,0,1,.38-.25C84.2,112.5,84.38,112.73,84.66,112.76Z"/><path class="cls-5" d="M69,109.81a1,1,0,1,1,1,1A1,1,0,0,1,69,109.81Z"/><path class="cls-5" d="M73,111.22a1,1,0,1,1,1,1A1,1,0,0,1,73,111.22Z"/><path class="cls-5" d="M76.9,112.07a1,1,0,1,1,1,1A1,1,0,0,1,76.9,112.07Z"/><path class="cls-3" d="M122.7,197.77l-.3.2a.45.45,0,0,0-.12.06.13.13,0,0,0-.07.06,11.7,11.7,0,0,1-2.46,1.14h0a.66.66,0,0,0-.2.06h0a13.72,13.72,0,0,1-2.78.57l-.53,0a.62.62,0,0,0-.44-.11.57.57,0,0,0-.3.15,25.22,25.22,0,0,1-2.87-.07.62.62,0,0,0-.44-.1.6.6,0,0,0-.19.06c-1.24-.1-2.55-.25-4-.39a.58.58,0,0,0-.62-.2.55.55,0,0,0-.24.12l-.39,0a22.68,22.68,0,0,0-5.81,1.32,40.52,40.52,0,0,1-1.21-10.82c.17-13.36,5.63-27,6.44-40.68h0c.09-1.62.12-3.23.06-4.86a14.07,14.07,0,0,0-.69-4.26,7.29,7.29,0,0,1,1,.42l0,0a19.13,19.13,0,0,1,7.4,9.09,34.94,34.94,0,0,1,2.25,13.37c0,4.54-.46,9.09-.62,13.63a37.13,37.13,0,0,0,.53,8.81A27,27,0,0,0,122.7,197.77Z"/><path class="cls-6" d="M106.24,144.28c.06,1.63,0,3.24-.06,4.86h0a10,10,0,0,1-3,.41c-3.21,0-6.39-.6-9.58-.84a23.4,23.4,0,0,0-6.26.24,51.61,51.61,0,0,1,2.91-10.36,44.24,44.24,0,0,1,13.33.88,15,15,0,0,1,2,.54A14.07,14.07,0,0,1,106.24,144.28Z"/><path class="cls-3" d="M95.52,186.34a3.54,3.54,0,0,1-.39.89,4.57,4.57,0,0,1-2.68,1.94,8.14,8.14,0,0,1-4.32-.16c-1.39-.38-2.73-1-4.11-1.44a16.76,16.76,0,0,0-7.74-.82,62.62,62.62,0,0,1,.29-28.56c1.85-7.55,5.44-15.12,11.9-19.42.59-.07,1.17-.14,1.76-.17a51.41,51.41,0,0,0-3.44,23.56A50.14,50.14,0,0,0,95.52,186.34Z"/><path class="cls-5" d="M88.47,138.77c-6.46,4.3-10,11.87-11.9,19.42a62.62,62.62,0,0,0-.29,28.56,2.14,2.14,0,0,0,.06.27"/><path class="cls-5" d="M101,200.66l0,.05c0,.16.08.33.13.5"/><path class="cls-5" d="M106.18,149.15c-.81,13.68-6.27,27.32-6.44,40.68A40.52,40.52,0,0,0,101,200.65"/><path class="cls-5" d="M105.55,140a14.07,14.07,0,0,1,.69,4.26c.06,1.63,0,3.24-.06,4.86"/><path class="cls-5" d="M122.7,197.77a27,27,0,0,1-6.52-12.4,37.13,37.13,0,0,1-.53-8.81c.16-4.54.63-9.09.62-13.63A34.94,34.94,0,0,0,114,149.56a19.13,19.13,0,0,0-7.4-9.09"/><path class="cls-5" d="M88.47,138.77c.59-.07,1.17-.14,1.76-.17a44.24,44.24,0,0,1,13.33.88,15,15,0,0,1,2,.54,7.29,7.29,0,0,1,1,.42l0,0"/><path class="cls-5" d="M90.23,138.6a51.41,51.41,0,0,0-3.44,23.56,50.14,50.14,0,0,0,8.73,24.18,3.54,3.54,0,0,1-.39.89,4.57,4.57,0,0,1-2.68,1.94,8.14,8.14,0,0,1-4.32-.16c-1.39-.38-2.73-1-4.11-1.44a16.76,16.76,0,0,0-7.74-.82"/><path class="cls-5" d="M119.52,199.29a13.72,13.72,0,0,1-2.78.57l-.53,0c-.25,0-.49,0-.74,0a25.22,25.22,0,0,1-2.87-.07l-.63,0c-1.24-.1-2.55-.25-4-.39l-.86-.08-.39,0a22.68,22.68,0,0,0-5.81,1.32h0"/><path class="cls-5" d="M119.73,199.23l-.2.06"/><path class="cls-5" d="M122.7,197.77l-.3.2-.19.12a11.7,11.7,0,0,1-2.46,1.14"/><path class="cls-5" d="M106.18,149.14h0a10,10,0,0,1-3,.41c-3.21,0-6.39-.6-9.58-.84a23.4,23.4,0,0,0-6.26.24"/><path class="cls-5" d="M79.89,187.34a.61.61,0,1,1-.6-.61A.6.6,0,0,1,79.89,187.34Z"/><path class="cls-5" d="M81.87,187.94a.61.61,0,0,1,1.21,0,.61.61,0,1,1-1.21,0Z"/><path class="cls-5" d="M85.53,189a.61.61,0,1,1,.6.6A.6.6,0,0,1,85.53,189Z"/><path class="cls-5" d="M90.11,190.24a.6.6,0,0,1,.6-.6.61.61,0,1,1,0,1.21A.6.6,0,0,1,90.11,190.24Z"/><path class="cls-5" d="M93.88,190a.6.6,0,1,1,.38-.13A.6.6,0,0,1,93.88,190Z"/><path class="cls-5" d="M96,188.16a.5.5,0,0,1-.27.07.61.61,0,0,1-.61-.61.6.6,0,0,1,.61-.6.61.61,0,0,1,.47,1A.45.45,0,0,1,96,188.16Z"/><path class="cls-5" d="M77.14,187.69a.61.61,0,1,1-.61-.6A.61.61,0,0,1,77.14,187.69Z"/><path class="cls-5" d="M75.46,194.84c0-.14-.23-2.23.3-2.76s.77-3.78.77-3.78a5.71,5.71,0,0,1,.61,3.27"/><path class="cls-5" d="M101,200.71a.51.51,0,0,1,.22-.05.61.61,0,1,1-.61.6A.58.58,0,0,1,101,200.71Z"/><path class="cls-5" d="M100.11,208.41c0-.14-.23-2.23.3-2.76s.78-3.78.78-3.78a5.74,5.74,0,0,1,.6,3.27,4,4,0,0,0,.07,2.76"/><path class="cls-5" d="M104.48,200.31a.6.6,0,1,1-.73-.44A.6.6,0,0,1,104.48,200.31Z"/><path class="cls-5" d="M104.7,207.64c-.08-.12-.8-2.1-.43-2.75s-.21-3.84-.21-3.84a5.68,5.68,0,0,1,1.42,3,3.94,3.94,0,0,0,.78,2.64"/><path class="cls-5" d="M108,199.44a.51.51,0,0,1,.12.23A.61.61,0,0,1,107,200a.6.6,0,0,1,.19-.62.55.55,0,0,1,.24-.12A.58.58,0,0,1,108,199.44Z"/><path class="cls-5" d="M108.34,207c-.08-.12-.8-2.09-.42-2.75s-.22-3.84-.22-3.84a5.6,5.6,0,0,1,1.42,3,4,4,0,0,0,.78,2.65"/><path class="cls-5" d="M112.6,199.87a.65.65,0,0,1,.25.41.62.62,0,0,1-.52.69.61.61,0,1,1-.17-1.2A.62.62,0,0,1,112.6,199.87Z"/><path class="cls-5" d="M112.22,207.59c-.06-.13-.55-2.17-.1-2.78s.21-3.84.21-3.84a5.62,5.62,0,0,1,1.08,3.14,4.08,4.08,0,0,0,.47,2.72"/><path class="cls-5" d="M116.21,199.9a.63.63,0,0,1,.25.41.6.6,0,0,1-.51.68.6.6,0,0,1-.48-1.05.57.57,0,0,1,.3-.15A.62.62,0,0,1,116.21,199.9Z"/><path class="cls-5" d="M115.84,207.62c-.07-.13-.56-2.18-.11-2.78S116,201,116,201a5.71,5.71,0,0,1,1.08,3.15,3.9,3.9,0,0,0,.47,2.71"/><path class="cls-5" d="M119.75,199.23a.59.59,0,0,1,.67.5.62.62,0,0,1-.51.69.61.61,0,0,1-.39-1.13h0a.66.66,0,0,1,.2-.06Z"/><path class="cls-5" d="M119.79,207.05c-.06-.14-.55-2.18-.1-2.78s.22-3.85.22-3.85a5.64,5.64,0,0,1,1.07,3.14,4.06,4.06,0,0,0,.47,2.72"/><path class="cls-5" d="M122.4,198a.61.61,0,0,1,.72.24.61.61,0,1,1-.91-.12.13.13,0,0,1,.07-.06A.45.45,0,0,1,122.4,198Z"/><path class="cls-5" d="M122.93,199h0a5.66,5.66,0,0,1,2.27,2.43,4,4,0,0,0,1.54,2.29"/><path class="cls-5" d="M125.53,205.14c-.11-.09-1.39-1.76-1.23-2.49s-1.28-3.44-1.37-3.6"/><path class="cls-5" d="M78.68,194.35c-.63-1.23,0-3.46.31-4.11a8,8,0,0,0,.3-2.3"/><path class="cls-5" d="M81.62,194.35a4.44,4.44,0,0,1-.47-2.37,6.36,6.36,0,0,1,1.33-3.43s1,3.13.44,5"/><path class="cls-5" d="M86.13,189.64a2.12,2.12,0,0,0-.6,1.81c.19,1.07-.89,2-1,2.53a5.93,5.93,0,0,0,0,1.73"/><path class="cls-5" d="M86.33,189.64a11.43,11.43,0,0,1,.92,3.39c0,1.19,0,2.68,0,2.68"/><path class="cls-5" d="M92.32,196.86s-.36-.46-.75-1-.24-1.91-.25-2.8a6,6,0,0,0-.61-2.05,3.86,3.86,0,0,1-.25,1.93c-.41,1-1.38,2.41-1,3.44"/><path class="cls-5" d="M93.88,190s-.3.3.47,1.32a3.8,3.8,0,0,1,.78,2.6,2.9,2.9,0,0,0,.61,1.62"/><path class="cls-5" d="M94.26,189.86h0a27,27,0,0,0,2.89,4.37"/><path class="cls-5" d="M96,188.16h0a4.39,4.39,0,0,0,1.47,2.54,4.73,4.73,0,0,0,1.25.69"/><path class="cls-5" d="M96.2,188h0c.07.11,1,1.46,1.85,1.64l.85.18"/></svg>