<svg id="Layer_1" data-name="Layer 1" xmlns="http://www.w3.org/2000/svg" viewBox="0 0 256 256"><defs><style>.cls-1{fill:#0e4e91;}.cls-2{fill:#abe7ff;}.cls-3{fill:#fff;}.cls-4{fill:#caf5fe;}.cls-5,.cls-7{fill:none;stroke:#0e4e91;}.cls-5{stroke-miterlimit:10;}.cls-6{fill:#2db5ff;}.cls-7{stroke-linecap:round;stroke-linejoin:round;}</style></defs><path class="cls-1" d="M75.64,198.38l.61-1c1.69,1.08,3.42,2.12,5.17,3.07l-.55,1C79.11,200.52,77.35,199.47,75.64,198.38Zm-3.78-2.57c-1.65-1.18-3.27-2.43-4.82-3.72l.73-.87c1.53,1.26,3.13,2.5,4.76,3.66Zm13.08,7.76.49-1c1.81.86,3.66,1.67,5.51,2.41L90.52,206C88.64,205.27,86.77,204.44,84.94,203.57Zm9.87,4,.36-1.08c1.89.63,3.83,1.21,5.76,1.71l-.28,1.1C98.69,208.81,96.73,208.22,94.81,207.58Zm10.28,2.76.23-1.11c1.94.39,3.93.72,5.92,1l-.15,1.13C109.09,211.08,107.07,210.74,105.09,210.34Zm10.54,1.46.09-1.13c2,.16,4,.24,6,.25v1.13C119.69,212,117.65,212,115.63,211.8Zm-71-48.22c-.89-1.82-1.72-3.69-2.48-5.57l1-.42c.75,1.85,1.58,3.7,2.45,5.49ZM126.28,212l0-1.13c2-.09,4-.25,6-.48l.14,1.12C130.35,211.7,128.3,211.87,126.28,212ZM40.52,153.74c-.65-1.92-1.25-3.88-1.77-5.83l1.09-.3c.52,1.94,1.11,3.87,1.76,5.75Zm96.34,57.08-.19-1.13c2-.33,3.94-.74,5.89-1.21l.27,1.1C140.86,210.07,138.85,210.48,136.86,210.82ZM37.68,143.47c-.42-2-.78-4-1-6l1.12-.15c.29,2,.63,4,1,5.91Zm109.56,64.92-.32-1.08c1.92-.58,3.82-1.23,5.69-1.93l.4,1.06C151.12,207.15,149.18,207.81,147.24,208.39ZM36.11,132.93c-.17-2-.28-4.06-.31-6.08h1.14c0,2,.14,4,.31,6ZM157.24,204.7l-.46-1c1.82-.8,3.65-1.68,5.42-2.61l.53,1C160.94,203,159.09,203.89,157.24,204.7ZM35.85,122.29c.07-2,.22-4.06.43-6.07l1.13.12c-.21,2-.35,4-.43,6Zm130.86,77.53-.58-1c1.72-1,3.42-2.11,5.06-3.26l.65.93C170.18,197.67,168.45,198.78,166.71,199.82ZM47.65,81.8c.91-1.55,1.88-3.1,2.89-4.59l.37-.55.94.64-.38.55c-1,1.47-1.95,3-2.85,4.53Zm6.84-8.16-.9-.68c1.22-1.61,2.52-3.19,3.86-4.71l.86.75C57,70.49,55.7,72.06,54.49,73.64Zm146,86.24c.8-1.83,1.56-3.71,2.23-5.59l1.06.39c-.68,1.89-1.44,3.79-2.25,5.65ZM61.37,65.69l-.81-.79C62,63.45,63.46,62,65,60.7l.75.85C64.23,62.87,62.76,64.26,61.37,65.69ZM204.16,150c.57-1.91,1.08-3.86,1.52-5.81l1.1.25c-.44,2-1,4-1.54,5.89Zm-135-91.37-.7-.89c1.58-1.26,3.22-2.48,4.9-3.62l.65.94C72.36,56.21,70.73,57.41,69.16,58.65Zm137.38,81.14c.33-2,.6-4,.79-5.95l1.13.11c-.19,2-.46,4-.8,6ZM77.8,52.63l-.6-1c1.72-1,3.52-2.06,5.32-3l.52,1C81.26,50.59,79.5,51.58,77.8,52.63Zm129.85,76.72c.09-2,.1-4,0-6l1.13,0c.06,2,0,4.07-.05,6.09ZM87.1,47.71l-.46-1c1.84-.83,3.74-1.61,5.63-2.31l.39,1.07C90.79,46.12,88.92,46.89,87.1,47.71Zm120.37,71.14c-.16-2-.38-4-.68-6l1.12-.16c.31,2,.54,4,.7,6ZM96.94,44,96.6,42.9c1.93-.6,3.91-1.14,5.88-1.61l.26,1.11C100.79,42.86,98.84,43.38,96.94,44ZM206,108.44c-.4-2-.87-3.92-1.41-5.84l1.09-.31c.55,1.95,1,3.94,1.43,5.92Zm-67.5-66.8.21-1.12c2,.38,4,.84,5.94,1.36l-.3,1.1C142.42,42.47,140.46,42,138.5,41.64ZM188,70.86c-1.27-1.53-2.62-3-4-4.47l.82-.79c1.4,1.47,2.77,3,4.05,4.54Zm-39.3-26.6.35-1.08c1.92.62,3.84,1.33,5.72,2.08l-.42,1.05C152.46,45.57,150.57,44.88,148.67,44.26Zm32.08,19c-1.45-1.36-3-2.69-4.53-3.95l.72-.88c1.57,1.28,3.11,2.62,4.59,4Zm-22.3-15.1.48-1c1.82.86,3.65,1.79,5.42,2.77l-.55,1C162.05,49.89,160.25,49,158.45,48.12Zm14.21,8.41c-1.62-1.18-3.29-2.31-5-3.37l.6-1c1.7,1.07,3.4,2.22,5,3.41Z"/><circle class="cls-2" cx="123.08" cy="125.49" r="66.55"/><path class="cls-3" d="M101.28,101.56c2.34.27,3.89,2.57,3,3.25s-2.64.29-7.32.81a40,40,0,0,0-12.64,5.43,41.15,41.15,0,0,1-5.27.66c-5.58.45-13.29.47-13.47-1.87-.25-3.37,3.34-8.11,6.18-8.42,2.62-.29,3.74,1,3.61,4.68a21.92,21.92,0,0,0,3.76-.27,48.58,48.58,0,0,0,5.19-1.16C89.08,103.38,94.43,101,101.28,101.56Z"/><path class="cls-4" d="M74.59,133.12A1.87,1.87,0,1,1,72.73,135,1.87,1.87,0,0,1,74.59,133.12Z"/><path class="cls-4" d="M73.61,89.88a1.87,1.87,0,1,1-1.87,1.86A1.87,1.87,0,0,1,73.61,89.88Z"/><path class="cls-4" d="M73.61,121a2.35,2.35,0,0,1-1.87,2.07v4.08a1.38,1.38,0,0,1-.4,1,1.41,1.41,0,0,1-1,.4,1.39,1.39,0,0,1-1-.41,1.35,1.35,0,0,1-.41-1c0-1.66,0-4.24,0-4.24l0,0A2.17,2.17,0,0,1,67.6,121c0-1.24,1.35-2.25,3-2.25S73.61,119.8,73.61,121Z"/><path class="cls-3" d="M69,122.91l0,0s0,2.58,0,4.24a1.35,1.35,0,0,0,.41,1,1.39,1.39,0,0,0,1,.41,1.41,1.41,0,0,0,1-.4,1.38,1.38,0,0,0,.4-1v-4.08A2.35,2.35,0,0,0,73.61,121c0-1.24-1.34-2.25-3-2.25s-3,1-3,2.25A2.17,2.17,0,0,0,69,122.91ZM79.13,136.5a4.14,4.14,0,0,1-1.77,3.44L75,141.6a7.88,7.88,0,0,1-8.95.1l-2.63-1.77a4.2,4.2,0,0,1-1.85-3.47V91.06a4.17,4.17,0,0,1,1.65-3.32l2.42-1.85a8.54,8.54,0,0,1,10.39,0l1.44,1.12a4.17,4.17,0,0,1,1.62,3.29c0,4.62,0,15.48,0,15.48a21.92,21.92,0,0,1-3.76.27c.13-3.72-1-5-3.61-4.68-2.84.31-6.43,5-6.18,8.42.18,2.34,7.89,2.32,13.47,1.87V112S79.11,130.13,79.13,136.5ZM76.46,135a1.87,1.87,0,1,0-1.87,1.87A1.87,1.87,0,0,0,76.46,135Zm-1-43.25a1.87,1.87,0,1,0-1.87,1.87A1.87,1.87,0,0,0,75.48,91.74Zm-7,43.25a1.87,1.87,0,1,0-1.87,1.87A1.87,1.87,0,0,0,68.52,135Zm-.44-43.25a1.87,1.87,0,1,0-1.87,1.87A1.87,1.87,0,0,0,68.08,91.74Z"/><path class="cls-4" d="M66.65,133.12A1.87,1.87,0,1,1,64.79,135,1.87,1.87,0,0,1,66.65,133.12Z"/><path class="cls-4" d="M66.21,89.88a1.87,1.87,0,1,1-1.86,1.86A1.87,1.87,0,0,1,66.21,89.88Z"/><path class="cls-5" d="M79.11,105.83s0-10.86,0-15.48a4.17,4.17,0,0,0-1.62-3.29L76,85.94a8.54,8.54,0,0,0-10.39,0l-2.42,1.85a4.17,4.17,0,0,0-1.65,3.32v45.4a4.2,4.2,0,0,0,1.85,3.47L66,141.7a7.88,7.88,0,0,0,8.95-.1l2.37-1.66a4.14,4.14,0,0,0,1.77-3.44C79.11,130.13,79,112,79,112"/><path class="cls-5" d="M66.21,89.88a1.87,1.87,0,1,1-1.86,1.86A1.87,1.87,0,0,1,66.21,89.88Z"/><path class="cls-5" d="M66.65,133.12A1.87,1.87,0,1,1,64.79,135,1.87,1.87,0,0,1,66.65,133.12Z"/><path class="cls-5" d="M73.61,89.88a1.87,1.87,0,1,1-1.87,1.86A1.87,1.87,0,0,1,73.61,89.88Z"/><path class="cls-5" d="M74.59,133.12A1.87,1.87,0,1,1,72.73,135,1.87,1.87,0,0,1,74.59,133.12Z"/><path class="cls-5" d="M69,122.91A2.17,2.17,0,0,1,67.6,121c0-1.24,1.35-2.25,3-2.25s3,1,3,2.25a2.35,2.35,0,0,1-1.87,2.07"/><path class="cls-5" d="M69,122.93s0,2.58,0,4.24a1.35,1.35,0,0,0,.41,1,1.39,1.39,0,0,0,1,.41,1.41,1.41,0,0,0,1-.4,1.38,1.38,0,0,0,.4-1v-4.08"/><path class="cls-5" d="M79,111.71c-5.58.45-13.29.47-13.47-1.87-.25-3.37,3.34-8.11,6.18-8.42,2.62-.29,3.74,1,3.61,4.68a21.92,21.92,0,0,0,3.76-.27,48.58,48.58,0,0,0,5.19-1.16c4.78-1.29,10.13-3.72,17-3.11,2.34.27,3.89,2.57,3,3.25s-2.64.29-7.32.81a40,40,0,0,0-12.64,5.43A41.15,41.15,0,0,1,79,111.71Z"/><polygon class="cls-3" points="129.37 167.67 129.37 189.27 121.24 189.27 106.69 189.27 100.06 189.27 100.06 167.67 102.53 167.67 102.53 168.75 102.53 178.47 127.06 178.47 127.06 168.44 127.06 167.67 129.37 167.67"/><polygon class="cls-6" points="127.06 168.44 127.06 178.47 102.53 178.47 102.53 168.75 104.54 168.75 104.54 176 109.14 176 113.89 176 119.46 176 124.75 176 124.89 168.44 127.06 168.44"/><polygon class="cls-3" points="124.75 130.88 124.89 168.44 124.75 176 119.46 176 119.49 130.88 124.75 130.88"/><rect class="cls-3" x="106.69" y="189.27" width="14.55" height="5.29"/><rect class="cls-3" x="113.9" y="130.88" width="5.58" height="45.11"/><rect class="cls-3" x="109.16" y="130.88" width="4.74" height="45.11"/><polygon class="cls-3" points="109.17 130.88 109.14 176 104.54 176 104.54 168.75 104.38 130.88 109.17 130.88"/><polyline class="cls-7" points="121.24 189.27 129.37 189.27 129.37 167.67"/><polyline class="cls-7" points="100.06 167.67 100.06 189.27 106.69 189.27"/><rect class="cls-7" x="106.69" y="189.27" width="14.55" height="5.29"/><polyline class="cls-7" points="102.53 167.67 102.53 168.75 102.53 178.47 127.06 178.47 127.06 168.44 127.06 167.67"/><line class="cls-7" x1="102.53" y1="167.67" x2="100.06" y2="167.67"/><line class="cls-7" x1="129.37" y1="167.67" x2="127.06" y2="167.67"/><polyline class="cls-7" points="102.53 168.75 104.54 168.75 104.38 130.88"/><polyline class="cls-7" points="127.06 168.44 124.89 168.44 124.75 176 119.46 176 113.89 176 109.14 176 104.54 176 104.54 168.75"/><polyline class="cls-7" points="104.38 130.88 109.17 130.88 113.92 130.88 119.49 130.88 124.75 130.88"/><line class="cls-7" x1="124.89" y1="168.44" x2="124.74" y2="130.88"/><line class="cls-7" x1="96.26" y1="194.57" x2="133.07" y2="194.67"/><line class="cls-7" x1="109.17" y1="130.88" x2="109.14" y2="176"/><line class="cls-7" x1="113.92" y1="130.88" x2="113.89" y2="176"/><line class="cls-7" x1="119.49" y1="130.88" x2="119.46" y2="176"/><path class="cls-3" d="M160.25,81.13V97.51h-4.61v-.27c0,.09-.09-15.21-.1-16.07Z"/><path class="cls-3" d="M141.16,81.28l-13,.1-1.85,0V67.18h34V81.13l-4.71,0Z"/><path class="cls-4" d="M160.05,61.24v5.94H126.29V61.24Z"/><path class="cls-3" d="M155.64,97.24v.27H141.26v-.27c0,.09-.08-14.34-.1-16l14.38-.11C155.55,82,155.65,97.33,155.64,97.24Z"/><path class="cls-3" d="M141.26,97.24v.27h-13v-.14c0,.1-.09-14.51-.1-16l13-.1C141.18,82.9,141.27,97.33,141.26,97.24Z"/><path class="cls-3" d="M128.24,97.37v.14H114.66V81.4h1.61v1.46a1.26,1.26,0,0,0,1.26,1.27H125a1.26,1.26,0,0,0,.89-.37,1.27,1.27,0,0,0,.38-.9V81.4l1.85,0C128.15,82.86,128.25,97.47,128.24,97.37Z"/><path class="cls-6" d="M128.42,55.7a7.16,7.16,0,0,1-2.13,5.09V54.45a1.1,1.1,0,0,0-.34-.79,1.08,1.08,0,0,0-.79-.34H117.4a1.1,1.1,0,0,0-.8.34,1.13,1.13,0,0,0-.33.79v6.34a7.14,7.14,0,1,1,12.15-5.09Z"/><path class="cls-4" d="M126.29,81.4v1.46a1.27,1.27,0,0,1-.38.9,1.26,1.26,0,0,1-.89.37h-7.49a1.26,1.26,0,0,1-1.26-1.27V54.45a1.13,1.13,0,0,1,.33-.79,1.1,1.1,0,0,1,.8-.34h7.76a1.08,1.08,0,0,1,.79.34,1.1,1.1,0,0,1,.34.79v27Zm-.7-5a.78.78,0,0,0-1.56,0,.78.78,0,0,0,1.56,0Zm-3.16,6.16a.78.78,0,0,0-.78-.77.78.78,0,0,0,0,1.55A.78.78,0,0,0,122.43,82.55Zm-.38-27.62a.78.78,0,1,0-.77.77A.78.78,0,0,0,122.05,54.93Zm-3.13,21.46a.78.78,0,0,0-1.55,0,.78.78,0,1,0,1.55,0Z"/><circle class="cls-3" cx="124.81" cy="76.39" r="0.78"/><circle class="cls-3" cx="121.65" cy="82.55" r="0.78"/><circle class="cls-3" cx="121.28" cy="54.93" r="0.78"/><circle class="cls-3" cx="118.15" cy="76.39" r="0.78"/><path class="cls-3" d="M116.27,67.18V81.4h-1.61V67.18Z"/><path class="cls-4" d="M116.27,61.24v5.94H105.1V61.24Z"/><path class="cls-5" d="M126.29,60.79V54.45a1.1,1.1,0,0,0-.34-.79,1.08,1.08,0,0,0-.79-.34H117.4a1.1,1.1,0,0,0-.8.34,1.13,1.13,0,0,0-.33.79V82.86a1.26,1.26,0,0,0,1.26,1.27H125a1.26,1.26,0,0,0,.89-.37,1.27,1.27,0,0,0,.38-.9V60.79Z"/><path class="cls-5" d="M116.27,60.79a7.14,7.14,0,1,1,10,0"/><circle class="cls-5" cx="118.15" cy="76.39" r="0.78"/><circle class="cls-5" cx="121.65" cy="82.55" r="0.78"/><circle class="cls-5" cx="124.81" cy="76.39" r="0.78"/><circle class="cls-5" cx="121.28" cy="54.93" r="0.78"/><polyline class="cls-5" points="126.29 61.24 160.05 61.24 160.05 67.17"/><polyline class="cls-5" points="114.66 67.17 105.1 67.17 105.1 61.24 116.27 61.24"/><polyline class="cls-5" points="116.27 67.17 114.66 67.17 114.66 81.4 114.66 97.5 128.24 97.5 141.26 97.5 155.64 97.5 160.25 97.5 160.25 81.13 160.25 67.17 160.05 67.17 126.29 67.17"/><polyline class="cls-5" points="126.29 81.4 128.14 81.38 141.16 81.28 155.54 81.17 160.25 81.13"/><line class="cls-5" x1="114.66" y1="81.4" x2="116.27" y2="81.4"/><path class="cls-5" d="M141.16,81.13v.15c0,1.62.11,16,.1,16"/><path class="cls-5" d="M155.54,81.13v0c0,.86.11,16.16.1,16.07"/><path class="cls-5" d="M128.14,81.26v.12c0,1.48.11,16.09.1,16"/><path class="cls-3" d="M170.06,110a19.84,19.84,0,1,1-14.42,6.2A19.85,19.85,0,0,1,170.06,110Zm16.21,16.32a10.33,10.33,0,1,0-10.33,10.34A10.33,10.33,0,0,0,186.27,126.36Z"/><path class="cls-6" d="M175.94,116a10.34,10.34,0,1,1-10.33,10.33A10.33,10.33,0,0,1,175.94,116Zm2.74,12.7a5,5,0,1,0-3.31.08l-.85,5.76h5Z"/><path class="cls-3" d="M181.88,124.1a5,5,0,0,1-3.2,4.63l.85,5.84h-5l.85-5.76a5,5,0,1,1,6.51-4.71Z"/><path class="cls-3" d="M161.35,147.72h-3.14a15.85,15.85,0,0,1-2.57-31.48,19.85,19.85,0,0,0,5.71,31.48Z"/><path class="cls-5" d="M186.13,124.63a10.33,10.33,0,1,1-8.42-8.45A10.34,10.34,0,0,1,186.13,124.63Z"/><path class="cls-5" d="M155.64,116.24a19.85,19.85,0,1,1-5.43,13.65A19.85,19.85,0,0,1,155.64,116.24Z"/><path class="cls-1" d="M180.71,142.59a16.24,16.24,0,0,1-5.59,3.07,16.52,16.52,0,0,1-6.41.65,16.78,16.78,0,0,1-15.11-18.1,16.62,16.62,0,0,1,1.79-6.19,16.41,16.41,0,0,1,4-5,17,17,0,0,0-5,11.2,16.86,16.86,0,0,0,.82,6.11,16.17,16.17,0,0,0,3,5.35,16.36,16.36,0,0,0,10.6,5.82A16.91,16.91,0,0,0,180.71,142.59Z"/><path class="cls-5" d="M178.68,128.73l.71,4.86a.85.85,0,0,1-.85,1h-3a.86.86,0,0,1-.85-1l.71-4.78a5,5,0,1,1,3.31-.08Z"/><path class="cls-5" d="M155.64,116.24a15.84,15.84,0,0,0-13.27,15.7c0,8.8,7.51,15.78,16.31,15.78h2.67"/></svg>