<svg id="Layer_1" data-name="Layer 1" xmlns="http://www.w3.org/2000/svg" viewBox="0 0 256 256"><defs><style>.cls-1{fill:#0e4e91;}.cls-2{fill:#abe7ff;}.cls-3{fill:#fff;}.cls-4{fill:#2db5ff;}.cls-5,.cls-6{fill:none;}.cls-5{stroke:#2f3a5a;stroke-miterlimit:10;}</style></defs><path class="cls-1" d="M206.48,165.36l-1-.48c.86-1.82,1.67-3.68,2.4-5.54l1.06.42C208.18,161.65,207.36,163.53,206.48,165.36Zm4-9.92-1.09-.36c.63-1.9,1.21-3.85,1.7-5.79l1.1.28C211.71,151.54,211.13,153.51,210.49,155.44Zm2.74-10.34-1.12-.22c.39-1.95.72-4,1-5.95l1.13.14C214,141.08,213.62,143.12,213.23,145.1Zm1.43-10.59-1.13-.09c.15-2,.23-4,.23-6h1.14C214.89,130.43,214.81,132.48,214.66,134.51ZM166.43,206c-1.82.9-3.7,1.74-5.58,2.51l-.43-1.05c1.85-.76,3.71-1.6,5.51-2.48Zm48.37-82.2-1.14.06c-.1-2-.27-4-.51-6l1.14-.14C214.52,119.73,214.7,121.78,214.8,123.81Zm-58.25,86.33c-1.91.66-3.88,1.27-5.84,1.8l-.3-1.1c1.94-.52,3.87-1.12,5.77-1.78Zm57.06-96.95-1.12.19c-.35-2-.76-4-1.25-5.91l1.11-.27C212.85,109.17,213.27,111.19,213.61,113.19ZM146.25,213c-2,.42-4,.79-6,1.07l-.16-1.13c2-.29,4-.64,5.94-1.06Zm64.9-110.26-1.09.33c-.59-1.93-1.24-3.85-2-5.72l1.07-.41C209.89,98.87,210.55,100.82,211.15,102.77ZM135.67,214.63c-2,.18-4.08.29-6.11.33l0-1.14c2,0,4-.15,6-.33Zm71.74-121.9-1,.47c-.81-1.83-1.7-3.66-2.64-5.44l1-.53C205.69,89,206.59,90.88,207.41,92.73ZM125,214.93c-2-.07-4.09-.21-6.1-.42l.11-1.13c2,.21,4,.34,6,.41Zm77.49-131.7-1,.58c-1-1.72-2.14-3.42-3.3-5.06l.93-.66C200.31,79.75,201.43,81.48,202.47,83.23ZM162.25,49.39c-1.84-.81-3.73-1.56-5.62-2.22l.38-1.08c1.91.68,3.82,1.44,5.69,2.25ZM68,189.46l-.79.82c-1.46-1.43-2.88-2.91-4.23-4.42l.85-.76C65.2,186.59,66.6,188.06,68,189.46Zm84.29-143.7c-1.91-.57-3.88-1.08-5.84-1.51l.25-1.11c2,.44,4,1,5.92,1.53ZM61,181.65l-.9.71c-1.27-1.58-2.5-3.23-3.65-4.91l.94-.65C58.48,178.45,59.7,180.08,61,181.65ZM142.05,43.4c-2-.33-4-.59-6-.78l.11-1.14c2,.19,4,.46,6.06.79ZM54.87,173l-1,.59c-1.06-1.72-2.08-3.52-3-5.33l1-.53C52.82,169.53,53.82,171.29,54.87,173ZM131.56,42.31c-2-.08-4-.09-6,0l0-1.14c2-.06,4.09,0,6.11,0ZM49.9,163.66l-1,.47c-.84-1.84-1.63-3.75-2.34-5.65l1.07-.39C48.29,160,49.07,161.84,49.9,163.66ZM121,42.53c-2,.16-4,.39-6,.7l-.17-1.13c2-.31,4.05-.55,6.07-.72ZM46.13,153.79l-1.09.34c-.61-1.93-1.16-3.92-1.63-5.9l1.11-.26C45,149.93,45.52,151.88,46.13,153.79ZM110.55,44c-2,.41-3.92.89-5.86,1.44l-.31-1.1c2-.55,4-1,6-1.45Zm-66.9,68-1.13-.21c.38-2,.83-4,1.35-6l1.1.29C44.47,108.1,44,110.08,43.65,112ZM72.86,62.26c-1.54,1.28-3,2.64-4.48,4l-.8-.82c1.47-1.41,3-2.79,4.55-4.09ZM46.25,101.82l-1.09-.35c.63-1.93,1.33-3.86,2.08-5.75l1,.42C47.56,98,46.86,99.91,46.25,101.82Zm19-32.29c-1.36,1.46-2.69,3-4,4.57l-.89-.72c1.28-1.59,2.62-3.14,4-4.63ZM50.1,92l-1-.48c.85-1.84,1.78-3.68,2.76-5.46l1,.55C51.87,88.36,50.94,90.17,50.1,92Zm8.4-14.31c-1.18,1.63-2.31,3.32-3.37,5l-1-.6c1.07-1.72,2.22-3.43,3.41-5.08Z"/><circle class="cls-2" cx="127.93" cy="127.29" r="66.86"/><path class="cls-3" d="M119.31,133.37a1.91,1.91,0,0,1,0,2.71l-25.2,25.19-1.53,1.54a1.91,1.91,0,0,1-2.71,0l-2.32-2.32L63.13,136.08a1.93,1.93,0,0,1,0-2.71l26.74-26.73a1.9,1.9,0,0,1,2.71,0Zm-4,2.51a1.64,1.64,0,0,0,0-2.32l-22.9-22.9a1.64,1.64,0,0,0-2.32,0l-22.9,22.9a1.64,1.64,0,0,0,0,2.32l22.9,22.9a1.64,1.64,0,0,0,2.32,0Z"/><path class="cls-4" d="M115.28,133.56a1.64,1.64,0,0,1,0,2.32l-22.9,22.9a1.64,1.64,0,0,1-2.32,0l-22.9-22.9a1.64,1.64,0,0,1,0-2.32l22.9-22.9a1.64,1.64,0,0,1,2.32,0Z"/><path class="cls-3" d="M94.11,161.27V189H87.55V160.49l2.32,2.32a1.91,1.91,0,0,0,2.71,0Z"/><polyline class="cls-5" points="94.11 161.27 94.11 189.02 87.55 189.02 87.55 160.49"/><path class="cls-5" d="M87.55,160.49,63.13,136.08a1.93,1.93,0,0,1,0-2.71l26.74-26.73a1.9,1.9,0,0,1,2.71,0l26.73,26.73a1.91,1.91,0,0,1,0,2.71l-25.2,25.19-1.53,1.54a1.91,1.91,0,0,1-2.71,0Z"/><path class="cls-5" d="M115.28,133.56a1.64,1.64,0,0,1,0,2.32l-22.9,22.9a1.64,1.64,0,0,1-2.32,0l-22.9-22.9a1.64,1.64,0,0,1,0-2.32l22.9-22.9a1.64,1.64,0,0,1,2.32,0Z"/><path class="cls-3" d="M82.55,133.71l-1.33-5.22h.72l.62,2.64c.15.65.29,1.3.38,1.81h0c.09-.52.25-1.14.43-1.82l.69-2.63h.71l.64,2.65c.14.62.28,1.24.36,1.79h0c.1-.57.25-1.15.41-1.81l.7-2.63h.69l-1.49,5.22h-.7L84.76,131a16.42,16.42,0,0,1-.34-1.7h0A16.07,16.07,0,0,1,84,131l-.75,2.72Z"/><path class="cls-3" d="M92.72,131.05a2.44,2.44,0,0,1-2.42,2.75A2.4,2.4,0,0,1,88,131.15a2.48,2.48,0,0,1,2.42-2.75A2.38,2.38,0,0,1,92.72,131.05Zm-4,.08c0,1.12.6,2.12,1.67,2.12s1.67-1,1.67-2.17S91.47,129,90.34,129,88.67,130,88.67,131.13Z"/><path class="cls-3" d="M93.6,128.56a7,7,0,0,1,1.3-.11,2.11,2.11,0,0,1,1.51.43,1.29,1.29,0,0,1,.41,1,1.36,1.36,0,0,1-1,1.33v0a1.28,1.28,0,0,1,.76,1.05,7.78,7.78,0,0,0,.41,1.43h-.7a6.27,6.27,0,0,1-.35-1.24c-.16-.73-.44-1-1-1h-.63v2.26H93.6Zm.68,2.38H95c.72,0,1.17-.4,1.17-1s-.48-1-1.2-1a2.77,2.77,0,0,0-.66.06Z"/><path class="cls-3" d="M97.77,128.49h.68V131h0l.41-.56,1.6-2h.84l-1.89,2.22,2,3h-.8l-1.73-2.56-.49.57v2h-.68Z"/><path class="cls-3" d="M83.66,140.89a2.36,2.36,0,0,0,1.21.34c.69,0,1.1-.36,1.1-.89s-.28-.77-1-1-1.38-.74-1.38-1.48a1.51,1.51,0,0,1,1.69-1.42,2.31,2.31,0,0,1,1.16.26l-.19.55a2,2,0,0,0-1-.25c-.72,0-1,.43-1,.78s.32.73,1,1c.89.34,1.34.77,1.34,1.54s-.6,1.5-1.83,1.5a2.78,2.78,0,0,1-1.34-.33Z"/><path class="cls-3" d="M88.42,140.07l-.54,1.64h-.7L89,136.49h.81l1.79,5.22h-.72l-.56-1.64Zm1.72-.53-.51-1.5c-.12-.34-.2-.65-.28-1h0c-.08.31-.16.63-.26.95l-.52,1.51Z"/><path class="cls-3" d="M92.33,136.49h2.81v.56H93v1.74h2v.56H93v2.36h-.67Z"/><path class="cls-3" d="M98.81,139.26h-2v1.89H99v.56H96.1v-5.22h2.83v.56H96.78v1.65h2Z"/><path class="cls-6" d="M66.11,122.69c0-.08,0-.16,0-.24a1.89,1.89,0,0,1-.05.23Z"/><path class="cls-6" d="M66.45,120.87c0,.19-.07.38-.1.57C66.38,121.25,66.42,121.06,66.45,120.87Z"/><path class="cls-4" d="M123.16,84.48a3.36,3.36,0,0,1-2.32,5.75H77.28a3.36,3.36,0,0,1,0-6.72H94.57a7.23,7.23,0,0,0,.85.68,6.51,6.51,0,0,0,8.13-.68h17.29A3.36,3.36,0,0,1,123.16,84.48Z"/><path class="cls-4" d="M120.59,77.13v6.38h-17a8.22,8.22,0,0,0,.89-1.05,6.51,6.51,0,0,0-1.71-9V59.35h0A17.81,17.81,0,0,1,120.59,77.13Z"/><path class="cls-3" d="M102.73,73.46a6.51,6.51,0,0,1,1.71,9,8.22,8.22,0,0,1-.89,1.05,6.51,6.51,0,0,1-8.13.68,7.23,7.23,0,0,1-.85-.68,6.51,6.51,0,0,1-.89-8.34,6.74,6.74,0,0,1,1.7-1.71,6.48,6.48,0,0,1,7.31,0Zm-3.67,9.36a4,4,0,1,0-4-4A4,4,0,0,0,99.06,82.82Z"/><path class="cls-4" d="M102.73,59.35V73.46l0,0a6.48,6.48,0,0,0-7.31,0l0-14.11v-.11a3.68,3.68,0,0,1,3.69-3.64,3.74,3.74,0,0,1,2.61,1.07,3.65,3.65,0,0,1,1.07,2.57Z"/><path class="cls-4" d="M103.09,78.79a4,4,0,1,1-4-4A4,4,0,0,1,103.09,78.79Z"/><path class="cls-4" d="M95.36,59.35l0,14.11a6.74,6.74,0,0,0-1.7,1.71,6.51,6.51,0,0,0,.89,8.34h-17V77.13A17.8,17.8,0,0,1,95.35,59.35Zm-3,3.46a.64.64,0,0,0,.48-.75.63.63,0,0,0-.75-.48l-.87.21a.63.63,0,0,0-.44.77.61.61,0,0,0,.6.46.5.5,0,0,0,.17,0ZM89,63.93a.63.63,0,0,0,.31-.84.64.64,0,0,0-.85-.29A15.89,15.89,0,0,0,79.9,73.33a.63.63,0,1,0,1.22.31A14.67,14.67,0,0,1,89,63.93Z"/><path class="cls-3" d="M92.83,62.06a.64.64,0,0,1-.48.75l-.81.19a.5.5,0,0,1-.17,0,.61.61,0,0,1-.6-.46.63.63,0,0,1,.44-.77l.87-.21A.63.63,0,0,1,92.83,62.06Z"/><path class="cls-3" d="M89.33,63.09a.63.63,0,0,1-.31.84,14.67,14.67,0,0,0-7.9,9.71.63.63,0,1,1-1.22-.31A15.89,15.89,0,0,1,88.48,62.8.64.64,0,0,1,89.33,63.09Z"/><path class="cls-5" d="M77.53,83.51h-.25a3.36,3.36,0,0,0,0,6.72h43.56a3.36,3.36,0,0,0,0-6.72h-.25"/><path class="cls-5" d="M95.36,59.35h0A17.8,17.8,0,0,0,77.53,77.13v6.38h17"/><path class="cls-5" d="M103.55,83.51h17V77.13a17.81,17.81,0,0,0-17.83-17.78h0"/><path class="cls-5" d="M102.73,73.46V59.24a3.65,3.65,0,0,0-1.07-2.57,3.74,3.74,0,0,0-2.61-1.07,3.68,3.68,0,0,0-3.69,3.64v.11l0,14.11"/><path class="cls-5" d="M95.38,73.46a6.48,6.48,0,0,1,7.31,0l0,0a6.51,6.51,0,0,1,1.71,9,8.22,8.22,0,0,1-.89,1.05,6.51,6.51,0,0,1-8.13.68,7.23,7.23,0,0,1-.85-.68,6.51,6.51,0,0,1-.89-8.34A6.74,6.74,0,0,1,95.38,73.46Z"/><path class="cls-5" d="M99.06,82.82a4,4,0,1,0-4-4A4,4,0,0,0,99.06,82.82Z"/><g id="Jacket-Construction"><path class="cls-4" d="M195.57,173.49V183.9a4.16,4.16,0,0,1-4.16,4.16H172.68a6.25,6.25,0,0,1-6.25-6.25v-8.32Z"/><polygon class="cls-3" points="195.57 165.16 195.57 173.49 166.43 173.49 166.43 161 195.57 161 195.57 165.16"/><path class="cls-4" d="M195.57,156.83V161H166.43v-8.33l10.41-25a4.17,4.17,0,0,1,4.16,4.17v10.41a10.41,10.41,0,0,0,10.42,10.4A4.16,4.16,0,0,1,195.57,156.83Z"/><polygon class="cls-3" points="176.84 127.69 166.43 152.67 156.03 127.69 176.84 127.69"/><path class="cls-3" d="M172.68,188.06H160.19a6.24,6.24,0,0,0,6.24-6.25A6.25,6.25,0,0,0,172.68,188.06Z"/><path class="cls-4" d="M166.43,173.49v8.32a6.24,6.24,0,0,1-6.24,6.25H141.45a4.16,4.16,0,0,1-4.16-4.16V173.49Z"/><polygon class="cls-3" points="166.43 161 166.43 173.49 137.29 173.49 137.29 166.2 137.29 161 166.43 161"/><path class="cls-4" d="M166.43,152.67V161H137.29v-4.17a4.17,4.17,0,0,1,4.16-4.16,10.4,10.4,0,0,0,10.41-10.4V131.86a4.17,4.17,0,0,1,4.17-4.17Z"/><path class="cls-5" d="M172.68,188.06h18.73a4.16,4.16,0,0,0,4.16-4.16V173.49"/><line class="cls-5" x1="166.43" y1="181.81" x2="166.43" y2="173.49"/><path class="cls-5" d="M137.29,173.49V183.9a4.16,4.16,0,0,0,4.16,4.16h18.74"/><path class="cls-5" d="M195.57,161v-4.17a4.16,4.16,0,0,0-4.15-4.16A10.41,10.41,0,0,1,181,142.27V131.86a4.17,4.17,0,0,0-4.16-4.17"/><line class="cls-5" x1="166.43" y1="161" x2="166.43" y2="152.67"/><path class="cls-5" d="M156,127.69a4.17,4.17,0,0,0-4.17,4.17v10.41a10.4,10.4,0,0,1-10.41,10.4,4.17,4.17,0,0,0-4.16,4.16V161"/><polygon class="cls-5" points="176.84 127.69 156.03 127.69 166.43 152.67 176.84 127.69"/><path class="cls-5" d="M166.43,181.81a6.24,6.24,0,0,1-6.24,6.25h12.49A6.25,6.25,0,0,1,166.43,181.81Z"/><polyline class="cls-5" points="166.43 161 137.29 161 137.29 166.2 137.29 173.49 166.43 173.49"/><polygon class="cls-5" points="166.43 173.49 195.57 173.49 195.57 165.16 195.57 161 166.43 161 166.43 173.49"/></g><path class="cls-4" d="M158.91,91l-2,.55a.26.26,0,0,1-.32-.19l-.4-1.45a.37.37,0,0,1,.26-.46l1.89-.56a.31.31,0,0,1,.39.22l.41,1.5A.33.33,0,0,1,158.91,91Z"/><path class="cls-4" d="M161.69,110.55a.32.32,0,0,1-.23.39l-2,.55a.26.26,0,0,1-.32-.18l-.4-1.46a.38.38,0,0,1,.26-.46l1.88-.56a.31.31,0,0,1,.4.23Z"/><path class="cls-3" d="M157.31,76.75a1.06,1.06,0,0,1,.19,2.12,1.06,1.06,0,1,1-.19-2.12Z"/><path class="cls-3" d="M158.89,97.81a1.06,1.06,0,1,1,1.16,1A1.07,1.07,0,0,1,158.89,97.81Z"/><path class="cls-3" d="M158.46,77.71a1.06,1.06,0,0,0-2.12.19,1.06,1.06,0,1,0,2.12-.19ZM154,77.35l4.76-3.15a.4.4,0,0,1,.42,0l.12.08a6.68,6.68,0,0,1,3.29,4.43.14.14,0,0,1,0,.06.37.37,0,0,1-.13.38l-4.4,3.78a8.56,8.56,0,0,0-1.53-3.14,9.14,9.14,0,0,0-2.62-2.31Z"/><path class="cls-4" d="M138.8,117.33l-1.41-1.68-1.12-1.35a.75.75,0,0,1,.13-1.1L138,112l0,0h0a3.65,3.65,0,0,0,1.07,2.24c1.09,1.23,1.3,1.64,2.33,1.92l-1.57,1.2A.76.76,0,0,1,138.8,117.33Z"/><path class="cls-4" d="M139.94,110.59a3.56,3.56,0,0,0,1.07,2.25c1.09,1.23,1.3,1.64,2.34,1.93l-1.93,1.48c-1-.28-1.24-.69-2.33-1.92a3.65,3.65,0,0,1-1.07-2.24h0l0,0Z"/><path class="cls-4" d="M139,96.24l-1.7,1.31a.78.78,0,0,1-1.05-.12l-1.41-1.68-1.12-1.35a.76.76,0,0,1,.13-1.1l1.68-1.24a3.81,3.81,0,0,0,1.07,2.18c1.09,1.23,1.3,1.64,2.34,1.92Z"/><path class="cls-4" d="M140.8,94.86,139,96.24l-.06-.08c-1-.28-1.25-.69-2.34-1.92a3.81,3.81,0,0,1-1.07-2.18l1.86-1.37a3.57,3.57,0,0,0,1.07,2.25C139.55,94.17,139.76,94.58,140.8,94.86Z"/><path class="cls-4" d="M141,112.84a3.56,3.56,0,0,1-1.07-2.25l10.92-8a4.07,4.07,0,0,0,1.95-3.38,12,12,0,0,1,2.8,2.6,11.13,11.13,0,0,1,2.07,4s-1.5-.66-3.79.88l-10.54,8.08C142.31,114.48,142.1,114.07,141,112.84Z"/><path class="cls-4" d="M160.61,102.81a4.35,4.35,0,0,1,.09.46l-3,2.54a11.13,11.13,0,0,0-2.07-4,12,12,0,0,0-2.8-2.6l3.09-2.09a4.86,4.86,0,0,1,.54.29,9,9,0,0,1,4.17,5.44Z"/><path class="cls-4" d="M158.15,83.37l-3,2.54a11.06,11.06,0,0,0-2.07-4,11.74,11.74,0,0,0-2.8-2.6l3.09-2.09a5.45,5.45,0,0,1,.55.29,9.14,9.14,0,0,1,2.62,2.31,8.56,8.56,0,0,1,1.53,3.14A3.44,3.44,0,0,1,158.15,83.37Z"/><path class="cls-3" d="M159.85,96.65a1.06,1.06,0,1,0,1.16,1A1.07,1.07,0,0,0,159.85,96.65Zm-3.34.6,4.77-3.15a.42.42,0,0,1,.42,0l.12.07a6.81,6.81,0,0,1,3.3,4.45s0,0,0,.05A.39.39,0,0,1,165,99l-4.39,3.77a9,9,0,0,0-4.17-5.44Z"/><path class="cls-4" d="M138.46,92.94a3.57,3.57,0,0,1-1.07-2.25l10.92-8a4.07,4.07,0,0,0,1.95-3.38,11.74,11.74,0,0,1,2.8,2.6,11.06,11.06,0,0,1,2.07,4s-1.5-.66-3.78.87L140.8,94.86C139.76,94.58,139.55,94.17,138.46,92.94Z"/><path class="cls-3" d="M193,74.61c1.05,1.5.38,2.62.07,2.84s-1,.68-1,.68L165.23,98.57l-.11,0a6.81,6.81,0,0,0-3.3-4.45l0-.05,27.8-19.91.95-.76A2.33,2.33,0,0,1,193,74.61Z"/><path class="cls-3" d="M190.4,54.71c1,1.5.38,2.62.07,2.84l-1,.68L162.68,78.66l-.12,0a6.68,6.68,0,0,0-3.29-4.43l0-.06L187.1,54.29l1-.76A2.33,2.33,0,0,1,190.4,54.71Z"/><path class="cls-5" d="M165.23,98.57l26.82-20.44s.65-.47,1-.68,1-1.34-.07-2.84a2.33,2.33,0,0,0-2.35-1.18l-.95.76L161.85,94.1"/><line class="cls-5" x1="160.61" y1="102.81" x2="160.6" y2="102.81"/><path class="cls-5" d="M156.51,97.25l4.77-3.15a.42.42,0,0,1,.42,0l.12.07a6.81,6.81,0,0,1,3.3,4.45s0,0,0,.05A.39.39,0,0,1,165,99l-4.39,3.77"/><path class="cls-5" d="M139.94,110.59l10.92-8a4.07,4.07,0,0,0,1.95-3.38l3.09-2.09a4.86,4.86,0,0,1,.54.29,9,9,0,0,1,4.17,5.44h0a4.35,4.35,0,0,1,.09.46l-3,2.54s-1.5-.66-3.79.88l-10.54,8.08-1.93,1.48-1.57,1.2a.76.76,0,0,1-1-.12l-1.41-1.68-1.12-1.35a.75.75,0,0,1,.13-1.1L138,112Z"/><path class="cls-5" d="M139.94,110.59a3.56,3.56,0,0,0,1.07,2.25c1.09,1.23,1.3,1.64,2.34,1.93"/><path class="cls-5" d="M138,112.08h0a3.65,3.65,0,0,0,1.07,2.24c1.09,1.23,1.3,1.64,2.33,1.92h0"/><path class="cls-5" d="M152.81,99.16a12,12,0,0,1,2.8,2.6,11.13,11.13,0,0,1,2.07,4"/><path class="cls-5" d="M137.39,115.65l-.15,0c-.44.07-1.71.38-1.25,1.67.56,1.55,6,4.64,9.67,3.84l.39-.1c3.5-1,6.17-4.46,7-6s3.88-4.17,5.64-4.62"/><path class="cls-5" d="M158.74,109.85l.4,1.46a.26.26,0,0,0,.32.18l2-.55a.32.32,0,0,0,.23-.39l-.41-1.49a.31.31,0,0,0-.4-.23l-1.88.56A.38.38,0,0,0,158.74,109.85Z"/><path class="cls-5" d="M137.24,115.67s4.45,6.44,8.81,5.41l.09,0"/><path class="cls-5" d="M161,97.61a1.06,1.06,0,1,1-1.16-1A1.07,1.07,0,0,1,161,97.61Z"/><path class="cls-5" d="M162.68,78.66l26.83-20.43,1-.68c.31-.22,1-1.34-.07-2.84a2.33,2.33,0,0,0-2.35-1.18l-1,.76L159.31,74.2"/><path class="cls-5" d="M154,77.35l4.76-3.15a.4.4,0,0,1,.42,0l.12.08a6.68,6.68,0,0,1,3.29,4.43.14.14,0,0,1,0,.06.37.37,0,0,1-.13.38l-4.4,3.78"/><path class="cls-5" d="M137.39,90.69l10.92-8a4.07,4.07,0,0,0,1.95-3.38l3.09-2.09a5.45,5.45,0,0,1,.55.29,9.14,9.14,0,0,1,2.62,2.31,8.56,8.56,0,0,1,1.53,3.14,3.44,3.44,0,0,1,.1.46l-3,2.54s-1.5-.66-3.78.87L140.8,94.86,139,96.24l-1.7,1.31a.78.78,0,0,1-1.05-.12l-1.41-1.68-1.12-1.35a.76.76,0,0,1,.13-1.1l1.68-1.24Z"/><path class="cls-5" d="M137.39,90.69a3.57,3.57,0,0,0,1.07,2.25c1.09,1.23,1.3,1.64,2.34,1.92"/><path class="cls-5" d="M135.53,92v.07a3.81,3.81,0,0,0,1.07,2.18c1.09,1.23,1.3,1.64,2.34,1.92"/><path class="cls-5" d="M150.26,79.26a11.74,11.74,0,0,1,2.8,2.6,11.06,11.06,0,0,1,2.07,4"/><path class="cls-5" d="M134.84,95.75l-.14,0c-.44.06-1.73.37-1.26,1.67.56,1.55,6,4.64,9.67,3.84l.38-.1c3.51-1,6.19-4.46,7-6s3.88-4.18,5.64-4.62"/><path class="cls-5" d="M156.19,90l.4,1.45a.26.26,0,0,0,.32.19l2-.55a.33.33,0,0,0,.23-.39l-.41-1.5a.31.31,0,0,0-.39-.22l-1.89.56A.37.37,0,0,0,156.19,90Z"/><path class="cls-5" d="M134.7,95.76h0c.23.31,4.55,6.39,8.79,5.41l.1,0"/><path class="cls-5" d="M158.46,77.71a1.06,1.06,0,1,1-1.15-1A1.07,1.07,0,0,1,158.46,77.71Z"/></svg>