<svg xmlns="http://www.w3.org/2000/svg" id="Layer_1" data-name="Layer 1" viewBox="31.01 30.17 193.99 195.62"><defs><style>.cls-3{fill:#2db5ff}.cls-4{fill:#caf5fe}.cls-5{fill:#fff}.cls-6{fill:none;stroke:#0e4e91;stroke-linecap:round;stroke-linejoin:round}</style></defs><path d="M131.65 225.79v-1.28c2.26-.07 4.55-.21 6.78-.43l.13 1.28c-2.31.22-4.62.37-6.91.43zm-5.16 0c-2.29-.06-4.6-.19-6.87-.41l.12-1.27c2.24.21 4.52.34 6.78.39zm17.15-1.09-.19-1.27c2.23-.34 4.48-.77 6.67-1.26l.29 1.25c-2.23.52-4.5.95-6.77 1.3zm11.77-2.55-.35-1.23a97.32 97.32 0 0 0 6.47-2.07l.44 1.2c-2.15.8-4.36 1.5-6.56 2.12zm11.37-4-.5-1.19c2.07-.87 4.14-1.83 6.15-2.85l.58 1.14c-2.01 1.09-4.14 2.06-6.23 2.95zm10.77-5.35-.64-1.11c2-1.13 3.89-2.33 5.76-3.59l.72 1.06a78.26 78.26 0 0 1-5.84 3.69zm-97.06.23c-2-1.13-3.95-2.35-5.86-3.62l.71-1.07c1.88 1.26 3.83 2.46 5.79 3.57zm107.1-6.86-.77-1c1.8-1.36 3.58-2.8 5.28-4.28l.84 1c-1.72 1.5-3.52 2.95-5.35 4.33zm-117.18.26a96.235 96.235 0 0 1-5.37-4.3l.83-1c1.72 1.48 3.5 2.91 5.31 4.25zm126.34-8.08-.89-.92a94.79 94.79 0 0 0 4.72-4.89l.95.86a81.002 81.002 0 0 1-4.78 5zm-135.54.31a101.61 101.61 0 0 1-4.8-4.93l1-.86c1.52 1.67 3.12 3.31 4.74 4.86zm143.67-9.18-1-.81c1.42-1.76 2.79-3.58 4.09-5.43l1.03.76c-1.28 1.9-2.68 3.75-4.12 5.53zM53 189.87a96.406 96.406 0 0 1-4.17-5.48l1.05-.74c1.3 1.84 2.69 3.66 4.11 5.41zm158.84-10.15-1.09-.68c1.19-1.92 2.33-3.9 3.39-5.89l1.13.6a80.183 80.183 0 0 1-3.39 5.97zM46 180.1a97.722 97.722 0 0 1-3.46-5.94l1.13-.61c1.06 2 2.21 4 3.41 5.87zm171.6-11-1.16-.55c1-2 1.84-4.15 2.64-6.26l1.2.45c-.8 2.16-1.7 4.26-2.67 6.38zM31.23 134.77c-.13-2-.21-4.09-.22-6.13v-.75h1.29v.74c0 2 .09 4.05.23 6.05zm1.2-12-1.29-.07c.13-2.28.33-4.59.61-6.86L33 116c-.25 2.27-.45 4.54-.57 6.8zm191.3-12.52c-.41-2.22-.9-4.45-1.47-6.63l1.24-.32c.57 2.21 1.08 4.47 1.5 6.72zM33.78 111l-1.26-.22c.4-2.26.88-4.52 1.44-6.73l1.25.31c-.55 2.18-1.03 4.41-1.43 6.64zm187.07-12.24a97.46 97.46 0 0 0-2.29-6.4l1.2-.47c.84 2.12 1.62 4.31 2.31 6.48zm-184.27.69-1.22-.38c.67-2.18 1.44-4.37 2.27-6.51l1.19.46a97.78 97.78 0 0 0-2.24 6.43zm180-11.76c-.94-2-2-4.09-3.05-6.06l1.12-.62c1.1 2 2.14 4.07 3.1 6.14zm-175.78.63-1.17-.53c.94-2.08 2-4.16 3.06-6.18l1.13.61c-1.08 2-2.09 4.05-3.02 6.1zm170.14-11.09a100.77 100.77 0 0 0-3.78-5.64l1-.75c1.34 1.85 2.63 3.78 3.83 5.72zm-164.58.57-1.1-.67c1.19-1.95 2.47-3.88 3.79-5.75l1.05.75c-1.31 1.87-2.57 3.75-3.74 5.67zm157.72-10.26c-1.42-1.76-2.91-3.48-4.44-5.14l.94-.87c1.55 1.68 3.07 3.43 4.5 5.21zm-150.92.51-1-.8c1.42-1.78 2.92-3.55 4.46-5.24l1 .87a82.91 82.91 0 0 0-4.46 5.17zm142.91-9.29c-1.61-1.57-3.3-3.11-5-4.56l.83-1c1.75 1.47 3.46 3 5.1 4.62zM90.49 39.39 90 38.21c2.09-.91 4.25-1.75 6.4-2.51l.43 1.21c-2.15.75-4.27 1.58-6.34 2.48zm64.81-4.24c-2.17-.61-4.39-1.16-6.59-1.62l.26-1.26c2.24.47 4.48 1 6.68 1.65zm-53.64.2-.36-1.23c2.19-.64 4.43-1.21 6.67-1.7l.27 1.26a93.09 93.09 0 0 0-6.58 1.67zm42-2.74c-2.22-.34-4.49-.61-6.74-.8l.11-1.27c2.28.19 4.57.46 6.83.81zm-30.45.12-.2-1.27c2.25-.36 4.55-.65 6.83-.86l.11 1.28c-2.22.2-4.48.49-6.71.85zm18.62-1.21c-2.26-.07-4.54-.06-6.79 0v-1.28c2.28-.09 4.59-.1 6.88 0z" style="fill:#0e4e91"/><circle cx="132.07" cy="128.54" r="80.25" style="fill:#abe7ff"/><path class="cls-3" d="M208.36 151.2c.1 3.05-.08 6.75-1.48 7-28.43 5.68-46.76.72-47.23-.48-.33-.81-1.18-4.9-1.71-7.56a6 6 0 0 0 2.67 1.29c5.78 1.2 4.33-2.65 7.47-1.45s1.93 3.86 5.3 3.38 3.14-3.61 5.55-1.45 6.5 1.93 8.19.48 1.92-.48 5.78.49 4.1.24 6.51-1.45 1.93 1.93 6.75.48c.78-.2 1.52-.46 2.2-.73z"/><path class="cls-4" d="M204.88 147.18h.07a10.14 10.14 0 0 1 5-2 2.84 2.84 0 0 1 2.48 1.09c1.42 1.82-.55 3.63-4.06 5-.68.27-1.42.53-2.2.76-4.82 1.45-4.34-2.16-6.75-.48s-2.65 2.41-6.51 1.45-4.1-1.93-5.78-.49-5.78 1.69-8.19-.48-2.18 1-5.55 1.45-2.17-2.17-5.3-3.38-1.69 2.65-7.47 1.45a6 6 0 0 1-2.67-1.29c-3.22-2.63-3.54-7.79-1.05-5.55a3.46 3.46 0 0 1 .35.33c4.09 4.33 7 1.92 10.84 1s2.17 4.09 4.58 3.86 1.68-4.1 5.54-2.18 3.86 1 8.92-.72 3.61 4.58 7.47 1.21 7.87.55 10.28-1.03z"/><path class="cls-5" d="M178.68 132.2s-8.19 1.69-7.71 4.82 7.71-4.82 7.71-4.82zm-21.79 12.44c1.81-3.79 8-13.36 24.92-15.09 16.49-1.69 25.11 10.17 28.13 15.54a10.14 10.14 0 0 0-5 2h-.07c-2.41 1.58-6.47-2.42-10.29.93s-2.41-2.9-7.47-1.21-5.06 2.65-8.92.72-3.13 1.93-5.54 2.18-.73-4.82-4.58-3.86-6.75 3.37-10.84-1a3.46 3.46 0 0 0-.35-.33zm37.22-7.86c2.65-1.44-7.23-4.58-7.23-4.58s4.57 6.02 7.23 4.58zm-11.33 3.61c4.34 1.21 0-8.19 0-8.19s-4.34 6.99 0 8.19z"/><path class="cls-3" d="M186.88 132.2s9.88 3.14 7.23 4.58-7.23-4.58-7.23-4.58zm-4.1 0s4.34 9.4 0 8.19 0-8.19 0-8.19zM171 137c-.48-3.13 7.71-4.82 7.71-4.82s-7.26 7.98-7.71 4.82z"/><path class="cls-6" d="M204.88 147.18v.01m3.48 4.01c.1 3.05-.08 6.75-1.48 7-28.43 5.68-46.76.72-47.23-.48-.33-.81-1.18-4.9-1.71-7.56m-1.05-5.52c1.81-3.79 8-13.36 24.92-15.09 16.49-1.69 25.11 10.17 28.13 15.54"/><path class="cls-6" d="M204.88 147.18c-2.41 1.58-6.47-2.42-10.29.93s-2.41-2.9-7.47-1.21-5.06 2.65-8.92.72-3.13 1.93-5.54 2.18-.73-4.82-4.58-3.86-6.75 3.37-10.84-1a3.46 3.46 0 0 0-.35-.33h0c-2.49-2.24-2.17 2.92 1.05 5.55a6 6 0 0 0 2.67 1.29c5.78 1.2 4.33-2.65 7.47-1.45s1.93 3.86 5.3 3.38 3.14-3.61 5.55-1.45 6.5 1.93 8.19.48 1.92-.48 5.78.49 4.1.24 6.51-1.45 1.93 1.93 6.75.48c.78-.23 1.52-.49 2.2-.76 3.51-1.39 5.48-3.2 4.06-5a2.84 2.84 0 0 0-2.48-1.09 10.14 10.14 0 0 0-5 2z"/><path class="cls-5" d="M186.75 83c9.21.32 20.42 11 14.92 16.27-5.85 5.62-38.69 6.52-47.24 3.37s-9-7.2-5-12.82c3.05-4.22 8.76-5.91 11.41-6.49-.75 2.31 1.94 7.16 3.89 7.16 2.23 0 1-7.16-1.61-8.21 2.59-1.83 6.86-1.39 8.94-1-2 2.09 2 8.15 4.14 8.35s.89-7.15-1.56-8.73c3-.89 7.11.66 9.11 1.59-1.9 1.32.73 6.46 3 6.46s1.66-4.13 0-5.95z"/><path class="cls-3" d="M186.75 83c1.66 1.81 2.21 5.92.07 5.92s-4.92-5.14-3-6.46c.76.35 1.22.61 1.22.61a11 11 0 0 1 1.71-.07z"/><path class="cls-3" d="M186.75 83a11 11 0 0 0-1.73.07s-.46-.26-1.22-.61a2.22 2.22 0 0 1 1.45-.29 2.38 2.38 0 0 1 1.5.83zm-12.06-2.12c2.45 1.58 3.72 8.92 1.56 8.73s-6.17-6.26-4.14-8.35c.75.13 1.22.25 1.22.25a5 5 0 0 1 1.35-.63z"/><path class="cls-3" d="M173.55 80.6a1.64 1.64 0 0 1 1.13.28 5 5 0 0 0-1.35.63s-.47-.12-1.22-.25a2.43 2.43 0 0 1 1.44-.66zm-10.38 1.69c2.59 1 3.84 8.21 1.61 8.21-1.95 0-4.64-4.85-3.89-7.16.87-.19 1.42-.26 1.42-.26a5.34 5.34 0 0 1 .86-.79z"/><path class="cls-3" d="M160.89 83.34a1.62 1.62 0 0 1 1.42-1.16 1.67 1.67 0 0 1 .86.11 5.34 5.34 0 0 0-.86.79s-.55.07-1.42.26z"/><path class="cls-6" d="M172.11 81.26c-2.08-.36-6.35-.8-8.94 1m20.63.21c-2-.93-6.07-2.48-9.11-1.59m-13.8 2.46c-2.65.58-8.36 2.27-11.41 6.49-4 5.62-3.6 9.67 5 12.82s41.39 2.25 47.24-3.37c5.5-5.29-5.71-16-14.92-16.27"/><path class="cls-5" d="M113.78 122.33c11 5 11.13 19.31 8.41 21.8s-20.22.91-20.67.23 1.13-4.32-2-12.49-17.26-10.68-17.26-10.68c3.13-2.5 26.98-.91 31.52 1.14z"/><path class="cls-4" d="M101.52 144.36c-3.18 2.5-30.67 2-33.17-.22s-2.27-9.77 1.82-15.46 12-7.49 12-7.49 14.08 2.5 17.26 10.68 1.63 11.81 2.09 12.49zm-21.83-5.6c2 1.54 7.8 1.28 9 .77s-.25-2.06-4-2.31-1.51-3.85 2.52-1.8 7 2.83 5.78 4.62c-.86 1.24-7.08 1.74-12 1.52a20.71 20.71 0 0 1-5.33-.75c-3.52-1.28-1.76-8.46 3.27-10.51s11.56-4.1 4.78-5.9c-7.58-2-12.32 7.95-13.08 12.82s.26 6.15 7.55 6.41l2.73.11c6.78.3 14.48.73 17.13-.62 3-1.54-4.78-11.54-12.83-11.8s-7.53 5.9-5.52 7.44z"/><path class="cls-3" d="M83.72 124.4c6.78 1.8.25 3.85-4.78 5.9s-6.79 9.23-3.27 10.51a20.71 20.71 0 0 0 5.33.75l-.08 2.18-2.73-.11c-7.29-.26-8.3-1.54-7.55-6.41s5.5-14.82 13.08-12.82z"/><path class="cls-3" d="M81 141.56c4.94.22 11.16-.28 12-1.52 1.25-1.79-1.76-2.57-5.78-4.62s-6.22 1.58-2.5 1.8 5.28 1.8 4 2.31-7 .77-9-.77-2.51-7.69 5.53-7.44 15.84 10.26 12.83 11.8c-2.65 1.35-10.35.92-17.13.62z"/><path class="cls-6" d="M82.21 121.19s-7.95 1.82-12 7.49-4.31 13.18-1.82 15.46 30 2.72 33.17.22"/><path class="cls-6" d="M82.21 121.19s14.08 2.5 17.26 10.68 1.59 11.81 2 12.49 17.94 2.27 20.67-.23 2.62-16.84-8.41-21.8c-4.49-2.05-28.34-3.64-31.52-1.14z"/><path class="cls-5" d="M130.92 168.75c.23-1.37-3.65-2-3.65-.22 0 .91 3.43 1.59 3.65.22zm-6.17-3.19c0 1.39 3.43 2.05 3.43.46s-3.43-1.83-3.43-.46zm0 3.88c-.22-1.14-3.89-.3-3.65.68.46 1.88 3.9.46 3.65-.68zm-3.87-7.54c3.19-.22 18.94.69 22.59 5.26s.69 8.67.69 10.72 1.59 13.47 0 16c-1.36 2.13-17 8-24.19 9.5a1.78 1.78 0 0 0 .45-.37c2.06-2.51-.45-16 1.37-18.49s7.08-13.23-14.38-15.29a40.18 40.18 0 0 0-9.54 0c7.23-2.56 20.69-7.16 23.01-7.33zm-.68.7c-1.38.45.82 3.41 2.28 1.59.91-1.14-.92-2.06-2.28-1.59zm1.36 2.73c-1.82.19-.68 2.52.69 2.74s1.6-2.97-.69-2.74zm-3.65 1.6c.23-1.37-3.24-1.58-3.42-.68-.23 1.13 3.19 2.05 3.42.68z"/><path class="cls-5" d="M107.41 172.18c19.4 1.6 13 9.82 11 13.24s0 13.23-2.06 15.29-17.11.68-18.71-1.6-2-11-1.37-14.38-.68-2.51-1.83-6.39 1.71-7.09 12.97-6.16z"/><path class="cls-4" d="M107.41 169.21c21.46 2.06 16.21 12.79 14.38 15.29s.69 16-1.37 18.49a1.78 1.78 0 0 1-.45.37c-3.59 2.15-21.87 2.1-25.34-2.88-3.65-5.25-1.14-16.89-1.14-16.89-3.56-8.83-2.67-13.29 4.37-14.39a40.18 40.18 0 0 1 9.55.01zm11 16.21c2-3.42 8.44-11.64-11-13.24-11.26-.93-14.15 2.28-13 6.16s2.51 3 1.83 6.39-.23 12.1 1.37 14.38 16.66 3.66 18.71 1.6-.01-11.87 2.05-15.29z"/><path class="cls-3" d="M127.27 168.53c0-1.75 3.88-1.15 3.65.22s-3.65.69-3.65-.22zm.91-2.53c0 1.59-3.43.93-3.43-.46s3.43-1.12 3.43.46zm-3.43 3.44c.24 1.14-3.19 2.51-3.65.68-.24-.98 3.43-1.82 3.65-.68zm-3.19-4.11c2.29-.23 2.06 3 .69 2.74s-2.51-2.55-.69-2.74zm-1.36-2.73c1.36-.47 3.19.45 2.28 1.59-1.48 1.81-3.66-1.14-2.28-1.59zm-5.71 3.65c.18-.9 3.65-.69 3.42.68s-3.65.45-3.42-.68z"/><path class="cls-6" d="M120 203.36c7.24-1.49 22.83-7.37 24.19-9.5 1.59-2.51 0-13.92 0-16s3-6.16-.69-10.72-19.4-5.48-22.59-5.26c-2.32.17-15.78 4.77-23 7.29"/><path class="cls-6" d="M120 203.36a1.78 1.78 0 0 0 .45-.37c2.06-2.51-.45-16 1.37-18.49s7.08-13.23-14.38-15.29a40.18 40.18 0 0 0-9.54 0h0c-7 1.1-7.93 5.56-4.37 14.39 0 0-2.51 11.64 1.14 16.89 3.43 4.97 21.71 5.02 25.33 2.87z"/><path class="cls-6" d="M107.41 172.18c-11.26-.93-14.15 2.28-13 6.16s2.51 3 1.83 6.39-.23 12.1 1.37 14.38 16.66 3.66 18.71 1.6 0-11.87 2.06-15.29 8.43-11.64-10.97-13.24z"/><path class="cls-4" d="M118.67 81.91a1.14 1.14 0 0 1 .87 1.36l-1.87 8.3a1.14 1.14 0 0 1-1.36.86 1 1 0 0 1-.26-.09 1.15 1.15 0 0 1-.61-1.27l1.87-8.3a1.13 1.13 0 0 1 1.36-.86zM97.32 91a1.14 1.14 0 0 1-.84 1.38 1.24 1.24 0 0 1-.27 0 1.15 1.15 0 0 1-1.11-.87l-2-8.26a1.14 1.14 0 1 1 2.22-.54zm5.01-9.22a1.14 1.14 0 0 1 1.14 1.14v8.5a1.16 1.16 0 0 1-1.15 1.15 1.26 1.26 0 0 1-.27 0 1.14 1.14 0 0 1-.87-1.11v-8.5a1.14 1.14 0 0 1 1.15-1.18zm8.22 9.76a1.14 1.14 0 0 1-1.29 1 1.07 1.07 0 0 1-.27-.07 1.13 1.13 0 0 1-.7-1.22l1.19-8.42a1.14 1.14 0 1 1 2.26.32z"/><path class="cls-5" d="M114.86 69.77a2.22 2.22 0 1 1-2.21 2.23 2.22 2.22 0 0 1 2.21-2.23z"/><circle class="cls-5" cx="118.7" cy="65.09" r="1.63"/><path class="cls-5" d="M108.62 58a2 2 0 1 1-2.05 2 2 2 0 0 1 2.05-2z"/><circle class="cls-5" cx="95.26" cy="71.21" r="2.57"/><path class="cls-5" d="M98.4 58.78a2 2 0 1 1-2 2 2 2 0 0 1 2-2zm6.84 7.22a2 2 0 1 1-2 2 2 2 0 0 1 2-2zm1.34 12.49a5.35 5.35 0 0 0 4.58-2.58 5.37 5.37 0 0 0 9.18 0 5.35 5.35 0 0 0 4.58 2.58 5.52 5.52 0 0 0 1.09-.11 5.11 5.11 0 0 0 1.54-.58L121 97.51H91.78l-6.61-20a5.36 5.36 0 0 0 7.64-1.62 5.37 5.37 0 0 0 9.18 0 5.35 5.35 0 0 0 4.59 2.6zm13 4.78a1.14 1.14 0 0 0-2.23-.5l-1.87 8.3a1.15 1.15 0 0 0 .61 1.27 1 1 0 0 0 .26.09 1.14 1.14 0 0 0 1.36-.86zm-7.8-.15a1.14 1.14 0 1 0-2.26-.32l-1.19 8.42a1.13 1.13 0 0 0 .7 1.22 1.07 1.07 0 0 0 .27.07 1.14 1.14 0 0 0 1.29-1zm-8.27-.2a1.15 1.15 0 0 0-2.29 0v8.5a1.14 1.14 0 0 0 .87 1.11 1.26 1.26 0 0 0 .27 0 1.16 1.16 0 0 0 1.15-1.15zm-7 9.49a1.14 1.14 0 0 0 .81-1.41l-2-8.26a1.14 1.14 0 1 0-2.22.54l2 8.26a1.15 1.15 0 0 0 1.11.87 1.24 1.24 0 0 0 .27 0z"/><path class="cls-5" d="M88.23 78.49a5.37 5.37 0 0 1-1.79-10.43 20.46 20.46 0 0 1 39.91-.06 5.36 5.36 0 0 1 1.2 9.85 5.11 5.11 0 0 1-1.54.58 5.52 5.52 0 0 1-1.09.11 5.35 5.35 0 0 1-4.58-2.58 5.37 5.37 0 0 1-9.18 0 5.36 5.36 0 0 1-9.17 0 5.37 5.37 0 0 1-9.18 0 5.35 5.35 0 0 1-4.58 2.53z"/><circle class="cls-3" cx="118.7" cy="65.09" r="1.63"/><path class="cls-3" d="M117.07 72a2.21 2.21 0 1 0-2.21 2.21 2.22 2.22 0 0 0 2.21-2.21zm-6.41-11.93a2 2 0 1 0-2 2 2 2 0 0 0 2-2zm-3.38 7.99a2 2 0 1 0-2 2 2 2 0 0 0 2-2zm-6.84-7.24a2 2 0 1 0-2 2 2 2 0 0 0 2-2z"/><circle class="cls-3" cx="95.26" cy="71.21" r="2.57"/><path class="cls-6" d="m127.55 77.8-6.53 19.71H91.78l-6.61-19.98"/><path class="cls-6" d="M86.44 68.06a5.37 5.37 0 0 0 .33 10.23m39.23.09a5.11 5.11 0 0 0 1.54-.58 5.36 5.36 0 0 0-1.2-9.85"/><path class="cls-6" d="M86.44 68.06a20.46 20.46 0 0 1 39.91-.06M86.77 78.29a5.37 5.37 0 0 0 6-2.38 5.37 5.37 0 0 0 9.18 0 5.36 5.36 0 0 0 9.17 0 5.37 5.37 0 0 0 9.18 0 5.35 5.35 0 0 0 4.58 2.58 5.52 5.52 0 0 0 1.09-.11"/><circle class="cls-6" cx="95.26" cy="71.21" r="2.57"/><path class="cls-6" d="M117.07 72a2.21 2.21 0 1 1-2.21-2.22 2.21 2.21 0 0 1 2.21 2.22z"/><circle class="cls-6" cx="118.7" cy="65.09" r="1.63"/><path class="cls-6" d="M107.28 68.06a2 2 0 1 1-2-2 2 2 0 0 1 2 2zm-6.84-7.24a2 2 0 1 1-2-2 2.05 2.05 0 0 1 2 2zm10.22-.75a2 2 0 1 1-2-2 2 2 0 0 1 2 2z"/></svg>