<svg xmlns="http://www.w3.org/2000/svg" id="Layer_1" data-name="Layer 1" viewBox="40.19 41.18 173.96 172.82"><defs><style>.cls-1{fill:#0e4e91}.cls-3{fill:#2db5ff}.cls-4{fill:#fff}.cls-5{fill:none;stroke:#0e4e91;stroke-miterlimit:10}</style></defs><path class="cls-1" d="m73.23 59.71.71.9a82.99 82.99 0 0 0-4.64 3.89l-.77-.85c1.47-1.35 3.09-2.65 4.7-3.94zm3.7-2.71c1.67-1.18 3.4-2.3 5.14-3.34l.59 1c-1.72 1-3.42 2.14-5.07 3.3zM65.2 66.83l.81.81c-1.42 1.42-2.8 2.91-4.12 4.43l-.89-.75c1.35-1.54 2.76-3.05 4.2-4.49zm-7.1 8 .9.71a81.31 81.31 0 0 0-3.53 4.91l-.95-.64c1.12-1.65 2.33-3.33 3.58-4.94zm-6.05 8.87 1 .58c-1 1.72-2 3.5-2.91 5.3l-1-.51c.86-1.78 1.86-3.59 2.91-5.33zm-4.89 9.53 1 .46c-.81 1.84-1.56 3.74-2.23 5.63L44.89 99c.69-1.95 1.45-3.86 2.27-5.73zm69.49-51.49c2-.24 4.08-.4 6.12-.5l.06 1.13c-2 .1-4 .27-6 .5zm-73.19 61.6 1.09.33c-.58 1.93-1.09 3.9-1.53 5.86l-1.12-.25c.45-1.98.97-3.98 1.56-5.94zm83.91-62.16c2 0 4.1.09 6.13.24l-.08 1.15c-2-.16-4-.24-6-.25zM41 113.79l1.13.19c-.34 2-.61 4-.8 6l-1.14-.11c.22-2.03.5-4.08.81-6.08zm97.05-71.91c2 .26 4.06.6 6 1l-.14 1.12c-2-.4-4-.73-6-1zm10.54 2c2 .5 3.95 1.08 5.89 1.72l-.37 1.09c-1.9-.63-3.86-1.2-5.8-1.7zm10.21 3.29c1.9.74 3.79 1.56 5.63 2.43l-.49 1c-1.82-.86-3.68-1.66-5.55-2.4zm34.6 24.72c1.18 1.39 2.32 2.83 3.4 4.27l.4.55-.91.67-.4-.53a80.69 80.69 0 0 0-3.36-4.22zm5.48 9.22 1-.62C201 82.19 202 84 203 85.73l-1 .56c-.95-1.76-2-3.5-3.12-5.18zM68.28 191.27c1.47 1.38 3 2.72 4.56 4l-.71.89c-1.58-1.28-3.13-2.64-4.63-4zm135.87-101 1-.5c.9 1.83 1.75 3.7 2.52 5.59l-1.06.43c-.73-1.79-1.56-3.69-2.46-5.49zM76.44 198c1.62 1.18 3.31 2.32 5 3.38l-.6 1a83.853 83.853 0 0 1-5.09-3.43zm131.81-97.95 1.09-.38c.67 1.93 1.28 3.89 1.81 5.87l-1.11.3c-.52-1.93-1.13-3.84-1.79-5.78zM85.37 203.68c1.76 1 3.57 1.89 5.4 2.74l-.48 1c-1.85-.85-3.68-1.79-5.47-2.77zm125.74-93.41 1.12-.24c.43 2 .79 4 1.08 6l-1.14.16c-.28-1.95-.63-3.96-1.06-5.92zM94.93 208.21c1.87.75 3.79 1.44 5.7 2l-.36 1.09a84.38 84.38 0 0 1-5.77-2.08zm117.76-87.45 1.13-.1c.18 2 .29 4.09.33 6.12H213c0-1.99-.13-4.02-.31-6.02zM105 211.54c1.94.51 3.92 1 5.9 1.34l-.22 1.12c-2-.37-4-.83-6-1.35zm96.38-39.89 1 .58c-1 1.76-2.12 3.5-3.27 5.19l-.94-.65c1.09-1.66 2.18-3.38 3.19-5.12zM157.1 209c1.88-.7 3.76-1.49 5.59-2.32l.47 1c-1.86.85-3.76 1.64-5.66 2.35zm38.38-28.52.91.69a88.25 88.25 0 0 1-3.88 4.75l-.86-.75c1.35-1.55 2.61-3.12 3.83-4.72zm-28.71 24.2c1.78-.93 3.55-1.94 5.26-3l.6 1a69.825 69.825 0 0 1-5.33 3zm21.78-16.19.82.8a88.692 88.692 0 0 1-4.44 4.23l-.76-.85c1.5-1.37 2.98-2.77 4.38-4.21zm-12.72 10.72c1.66-1.15 3.29-2.36 4.86-3.62l.71.89a84.903 84.903 0 0 1-4.92 3.67z"/><circle cx="126.76" cy="129.08" r="67.05" style="fill:#abe7ff"/><path class="cls-3" d="M99.18 75.94a1.32 1.32 0 0 1 .44-.08 1.23 1.23 0 1 1-1.22 1.23 1.25 1.25 0 0 1 .78-1.15zm-.88-1.31-2.89.61-1.84 3.39 2.68 12.68 12.64-3.22-2.72-12-2.85-2.5z"/><path class="cls-4" d="m130.79 63.29-5.39.71-7 9.57.26 1.93c6.42-1.26 9.55.21 10.68 2.34.89 1.67 1.45 5 4.83 4.57 2.19-.26 1.08-3.49 6.18-3.51s6.23 3.2 6.23 3.2L145 69.88l-8.86-7.31z"/><path class="cls-3" d="m118.7 75.52 3.45 25.71s20-.54 26.64-3.43l-2.12-15.68s-1.13-3.23-6.23-3.2-4 3.25-6.18 3.51c-3.38.41-3.94-2.9-4.83-4.57-1.13-2.13-4.26-3.6-10.68-2.34z"/><path class="cls-5" d="M146.67 82.12 145 69.88l-8.86-7.31-5.36.72-5.38.71-7 9.57.26 1.93 3.45 25.71s20-.54 26.64-3.43z"/><path class="cls-5" d="m133.1 65.97-1.8.27-1.79.26m-20.36-16.01a17.35 17.35 0 0 0-3.75-.39c-7 0-10.31 6.93-10.32 12.47a23.51 23.51 0 0 0 3.22 12.06 14.26 14.26 0 0 0 .88 1.31.93.93 0 0 0 .1.13"/><path class="cls-5" d="M109.15 50.49a9.5 9.5 0 0 0-4.39 7.62c.06 2.67 1 6.24 5.41 6.11s6.49-2.64 6.24-6.61c-.2-3.17-2.69-6.09-7.26-7.12zm22.15 15.75a20.87 20.87 0 0 0-.51-2.95c-1.15-4.8-4.71-13.82-15.33-14.28a10.86 10.86 0 0 0-6.31 1.48M98.4 77.09a1.22 1.22 0 1 0 1.22-1.23 1.32 1.32 0 0 0-.44.08 1.25 1.25 0 0 0-.78 1.15z"/><path class="cls-5" d="m106.17 76.07-2.85-2.5-5.02 1.06-2.89.61-1.84 3.39 2.68 12.68 12.64-3.22-2.72-12.02zm40.5 6.05s-1.13-3.23-6.23-3.2-4 3.25-6.18 3.51c-3.38.41-3.94-2.9-4.83-4.57-1.13-2.13-4.26-3.6-10.68-2.34"/><path class="cls-1" d="M142.35 86.07a1.19 1.19 0 0 0-.69-.07 1.16 1.16 0 0 0-.61.33 1.16 1.16 0 0 0 .7.08 1.06 1.06 0 0 0 .6-.34zM137.2 85a1.45 1.45 0 0 0-.79-.2 1.49 1.49 0 0 0-.8.2 1.5 1.5 0 0 0 .8.21 1.47 1.47 0 0 0 .79-.21zm-.61 3.68a1.17 1.17 0 0 0-1.31 0 1.13 1.13 0 0 0 1.31 0zm2.81 1.43a1.12 1.12 0 0 0-.68-.2 1.14 1.14 0 0 0-.68.2 1.15 1.15 0 0 0 .68.21 1.13 1.13 0 0 0 .68-.21zm-7.75-2.04a1.4 1.4 0 0 0-.77-.21 1.42 1.42 0 0 0-.77.21 1.41 1.41 0 0 0 .77.2 1.39 1.39 0 0 0 .77-.2zm-7.06-.68a1.62 1.62 0 0 0-.84-.2 1.59 1.59 0 0 0-.83.2 1.6 1.6 0 0 0 .83.21 1.64 1.64 0 0 0 .84-.21zm-.84-3.79a1.17 1.17 0 0 0-.67-.21 1.2 1.2 0 0 0-.68.21 1.2 1.2 0 0 0 .68.21 1.17 1.17 0 0 0 .67-.21zm21.69 5.46a1.37 1.37 0 0 0-1.46 0 1.37 1.37 0 0 0 1.46 0zm1.06 4.38a1.61 1.61 0 0 0-1.59 0 1.61 1.61 0 0 0 1.59 0zm-3.86.19a.92.92 0 0 0-.6-.21.94.94 0 0 0-.61.21.93.93 0 0 0 .61.2.9.9 0 0 0 .6-.2zm-2.2 2.79a1.17 1.17 0 0 0-1.31 0 1.13 1.13 0 0 0 1.31 0zM146 97a1.09 1.09 0 0 0-1.26 0 1 1 0 0 0 .63.21A1.06 1.06 0 0 0 146 97zm-12-.36a1.09 1.09 0 0 0-.64-.21 1.11 1.11 0 0 0-.64.21 1.11 1.11 0 0 0 .64.21 1.09 1.09 0 0 0 .64-.21zm3.74 1.62a1.12 1.12 0 0 0-.67-.21 1.07 1.07 0 0 0-.66.21 1.06 1.06 0 0 0 .66.2 1.18 1.18 0 0 0 .67-.2zm-1.15-5.16a1.13 1.13 0 0 0-1.31 0 1.17 1.17 0 0 0 1.31 0zm-6.04-.26a.85.85 0 0 0-1.12 0 .85.85 0 0 0 1.12 0zm-3.07-2.37a.8.8 0 0 0-.56-.21.84.84 0 0 0-.56.21.82.82 0 0 0 .56.2.79.79 0 0 0 .56-.2zm-3.21 2.37a1 1 0 0 0-.6-.21 1 1 0 0 0-.59.21 1 1 0 0 0 .59.21 1 1 0 0 0 .6-.21zm2.09 3.4a1 1 0 0 0-.62-.2 1 1 0 0 0-.63.2 1 1 0 0 0 .63.21 1 1 0 0 0 .62-.21zm3.29 2.55a.94.94 0 0 0-.61-.21 1 1 0 0 0-.61.21 1 1 0 0 0 .61.2 1 1 0 0 0 .61-.2z"/><path class="cls-4" d="M77.85 143.44c1.11-3 9.39-23.92 28.27-23.86-10.41 4.15-19.59 13.33-28.2 24.84-.03-.32-.05-.65-.07-.98z"/><path class="cls-4" d="M106.12 119.58s-.6 23.12-28.16 25.3v-.46c8.57-11.51 17.75-20.69 28.16-24.84zm-18-9.26c.68 6.88-2 11.65-9.11 13.61a33.7 33.7 0 0 1 9.11-13.61z"/><path class="cls-4" d="M88.12 110.32A33.7 33.7 0 0 0 79 123.93c.09-6.3 2.92-10.93 9.12-13.61z"/><path class="cls-3" d="M78 144.88a71.52 71.52 0 0 0 2.26 12.82h-2.57a66.73 66.73 0 0 1-1.39-23.1 45.27 45.27 0 0 1 2.7-10.67 81.29 81.29 0 0 0-1.16 19.51c0 .33 0 .66.07 1 .02.14.03.29.09.44z"/><path class="cls-4" d="M76.29 134.59q-14.18 1.32-18.37-12.07a61 61 0 0 1 10 5.13c3.49 2.51 8.08 6.68 8.37 6.94z"/><path class="cls-4" d="M76.29 134.59c-.29-.26-4.88-4.43-8.41-6.93a61 61 0 0 0-10-5.13c8.47-.26 14.28 4.34 18.41 12.06z"/><path class="cls-5" d="M77.72 143.81s0-.13.13-.37c1.11-3 9.39-23.92 28.27-23.86 0 0-.6 23.12-28.16 25.3h-.24"/><path class="cls-5" d="M79 123.93a81.29 81.29 0 0 0-1.16 19.51c0 .33 0 .66.07 1v.46a71.52 71.52 0 0 0 2.26 12.82h-2.48a66.73 66.73 0 0 1-1.39-23.1 45.27 45.27 0 0 1 2.7-10.69zm0 0c.08-6.3 2.91-11 9.11-13.61.69 6.88-1.99 11.68-9.11 13.61z"/><path class="cls-5" d="M88.12 110.32A33.7 33.7 0 0 0 79 123.93m-1.08 20.49c8.61-11.51 17.79-20.69 28.2-24.84M76.3 134.6c-4.13-7.72-9.94-12.32-18.37-12.06q4.19 13.4 18.37 12.07"/><path class="cls-5" d="M76.3 134.6c-.29-.26-4.88-4.43-8.41-6.93a61 61 0 0 0-10-5.13"/><path class="cls-4" d="m205.61 154-3.13 2c-5.22 3.06-7.63 6.51-11.39 7.87s-10 3-21.87 3c-27 1-27.92-4.35-27.92-4.35-3.49-15.07 2-29 2.72-31.78.67-2.51-.58-3.72-.85-3.94.47.29 4.5 2.62 10.66 1 7.4-.33 8.74 4.68 19 4.35s14.92-2.92 18-4.74c3.83 1 7.51-1.92 7.51-1.92.19 6.57 1.6 8.92 3.47 13.36s3.8 15.15 3.8 15.15zm-15.32-1.55c6.44-2.05 3.3-11.56 1.79-15.26a1.72 1.72 0 0 0-2.1-1c-11.31 3.47-23.54 3.94-36.56 1.78a1.74 1.74 0 0 0-2 1.19 24.35 24.35 0 0 0-1.18 8.24c.14 3.51-1.14 6.34 4.25 6.68s27.77.98 35.8-1.59z"/><path class="cls-4" d="m199.32 110.49.42 11.84a13.23 13.23 0 0 1-1.31 3.14s-3.68 3-7.51 1.92c-3.12 1.82-7.73 4.42-18 4.74s-11.65-4.68-19-4.35c-6.16 1.64-10.19-.69-10.66-1a45.88 45.88 0 0 0 .09-9.32c-.46-4.81 1-6.61 1.13-6.78a11.59 11.59 0 0 0-.32 2.76c0 3.83 5.5 6.51 9.59 6.9s10.28 1.14 13.33.89 5 .51 12.2.83 6.58-1 10.79-2 9.25-4.21 9.25-9.57z"/><path class="cls-4" d="M197.23 110.48c.33 4.23-8.73 8.27-14.87 8.79s-6.51.14-10.17 0-6.58.39-13.36-.71c-5.54-.2-13.1-.91-13.23-5.81s6.61-6.38 8.48-6.54c5-.41 10.82.74 13.82.55s4-1.05 7.75-1.44a51.27 51.27 0 0 1 11.35 0c3.58.46 9.9.92 10.23 5.16z"/><path class="cls-4" d="M199.32 110.49c0 5.36-5.17 8.55-9.39 9.57s-3.57 2.3-10.79 2-9.13-1.09-12.2-.83-9.25-.51-13.33-.89-9.59-3.07-9.59-6.9a11.59 11.59 0 0 1 .32-2.76c.75-3.11 3.08-6.1 9.07-6.69 7.79-.77 10 1.23 12.81 1 3.88-.28 9.11-1.61 11.48-1.85s6.47.59 9.51.66 12.11 1.34 12.11 6.69zm-17 8.78c6.14-.52 15.2-4.56 14.87-8.79s-6.65-4.7-10.23-5.16a51.27 51.27 0 0 0-11.35 0c-3.71.39-4.76 1.24-7.75 1.44s-8.77-1-13.82-.55c-1.87.16-8.61 1.66-8.48 6.54s7.69 5.61 13.23 5.81c6.78 1.1 9.72.58 13.36.71s4.09.53 10.21 0z"/><path d="M192.08 137.23c1.51 3.7 4.65 13.21-1.79 15.26-8 2.57-30.36 2-35.77 1.62s-4.11-3.17-4.25-6.68a24.35 24.35 0 0 1 1.18-8.24 1.74 1.74 0 0 1 2-1.19c13 2.16 25.25 1.69 36.56-1.78a1.72 1.72 0 0 1 2.07 1.01z" style="fill:#caf5fe"/><path class="cls-5" d="M154.08 106.21c5-.41 10.82.74 13.82.55s4-1.05 7.75-1.44a51.27 51.27 0 0 1 11.35 0c3.58.46 9.9.92 10.23 5.16s-8.73 8.27-14.87 8.79-6.51.14-10.17 0-6.58.39-13.36-.71c-5.54-.2-13.1-.91-13.23-5.81s6.61-6.38 8.48-6.54z"/><path class="cls-5" d="M144.34 110.66c.75-3.11 3.08-6.1 9.07-6.69 7.79-.77 10 1.23 12.81 1 3.88-.28 9.11-1.61 11.48-1.85s6.47.59 9.51.66 12.11 1.32 12.11 6.67-5.17 8.55-9.39 9.57-3.57 2.3-10.79 2-9.13-1.09-12.2-.83-9.25-.51-13.33-.89-9.59-3.07-9.59-6.9a11.59 11.59 0 0 1 .32-2.76"/><path class="cls-5" d="M143.17 126.8c.27.22 1.52 1.43.85 3.94-.74 2.79-6.21 16.71-2.72 31.78 0 0 .92 5.4 27.92 4.35 11.91 0 18.1-1.66 21.87-3s6.17-4.81 11.39-7.87l.31-.19a4.87 4.87 0 0 0 2.2-5.08c-.69-3.54-1.88-9-3.09-11.88-1.87-4.44-3.28-6.79-3.47-13.36a13.23 13.23 0 0 0 1.31-3.14l-.42-11.84m-54.98.15c-.14.17-1.59 2-1.13 6.78a45.88 45.88 0 0 1-.09 9.32"/><path class="cls-5" d="M143.12 126.76c.47.29 4.5 2.62 10.66 1 7.4-.33 8.74 4.68 19 4.35s14.92-2.92 18-4.74c3.83 1 7.51-1.92 7.51-1.92M153.42 138c13 2.16 25.25 1.69 36.56-1.78a1.72 1.72 0 0 1 2.1 1c1.51 3.7 4.65 13.21-1.79 15.26-8 2.57-30.36 2-35.77 1.62s-4.11-3.17-4.25-6.68a24.35 24.35 0 0 1 1.18-8.24 1.74 1.74 0 0 1 1.97-1.18z"/><path class="cls-3" d="M160.56 115.12c2 .7 2 2.48 1.7 2.7s-1.22-.16-1.93-1-1.31-1.36-2.23-1.24c0-.03.49-1.15 2.46-.46z"/><path class="cls-3" d="M159.91 116.91c.72.86 1.31 1.35 2.23 1.24 0 0-.48 1.12-2.45.43s-2-2.47-1.72-2.69 1.22.11 1.94 1.02z"/><path class="cls-1" d="M162 118.13a3 3 0 0 1-1.9-1.18c-.7-.84-1.2-1.25-2-1.16l-.44.06.18-.4c0-.06.6-1.33 2.77-.56a2.8 2.8 0 0 1 2 2.19 1.05 1.05 0 0 1-.23 1 .65.65 0 0 1-.38.05zm-3.35-2.82a3.13 3.13 0 0 1 1.84 1.33c.71.86 1.48 1.06 1.6 1a1.21 1.21 0 0 0 0-.72 2.4 2.4 0 0 0-1.62-1.54 2.17 2.17 0 0 0-1.79-.07z"/><path class="cls-1" d="M160.85 119.05a3.87 3.87 0 0 1-1.25-.23 2.78 2.78 0 0 1-2-2.19 1.05 1.05 0 0 1 .22-.95c.47-.34 1.52.15 2.28 1.07s1.21 1.25 2 1.15l.44-.06-.18.4a1.56 1.56 0 0 1-1.51.81zm-2.65-3a.13.13 0 0 0-.08 0 1.12 1.12 0 0 0 0 .72 2.37 2.37 0 0 0 1.62 1.53 2.16 2.16 0 0 0 1.79 0 3.15 3.15 0 0 1-1.84-1.32 2.52 2.52 0 0 0-1.49-.91z"/><path class="cls-3" d="M175.44 117.68s.06 1.23-2 1.49-2.91-1.32-2.73-1.66 1.16-.4 2.19.06 1.76.63 2.54.11z"/><path class="cls-3" d="M172.68 115.68c2.07-.25 2.9 1.32 2.72 1.66s-1.17.4-2.19-.06-1.77-.64-2.55-.13c0 0-.06-1.22 2.02-1.47z"/><path class="cls-1" d="M174.62 117.86a3.7 3.7 0 0 1-1.51-.35c-1-.44-1.64-.59-2.31-.15l-.37.24v-.43c0-.06 0-1.46 2.24-1.74a2.79 2.79 0 0 1 2.76 1.08 1.05 1.05 0 0 1 .21.95 1.08 1.08 0 0 1-1.02.4zm-3-1.27a4.22 4.22 0 0 1 1.66.46c1 .46 1.8.31 1.87.18a1.07 1.07 0 0 0-.34-.63 2.4 2.4 0 0 0-2.13-.67 2.18 2.18 0 0 0-1.63.75 1.84 1.84 0 0 1 .6-.09z"/><path class="cls-1" d="M173 119.44a2.72 2.72 0 0 1-2.29-1.09 1.05 1.05 0 0 1-.21-.95c.27-.52 1.42-.54 2.51-.06s1.64.59 2.31.14l.37-.25v.44c0 .06.05 1.46-2.23 1.74a2.69 2.69 0 0 1-.46.03zm-1.49-2c-.33 0-.54.08-.57.14a1.07 1.07 0 0 0 .35.63 2.37 2.37 0 0 0 2.13.66 2.18 2.18 0 0 0 1.62-.76 3.07 3.07 0 0 1-2.23-.37 3.43 3.43 0 0 0-1.32-.25z"/><path class="cls-3" d="M169.56 115.41c.34.13 1.12.83.62 2.55-.56 2-2.18 2.15-2.55 1.86-.14-.1-.19-.35 0-.79s.51-.44.66-.74.12-.62.3-1 .55-.63.74-1 .02-.77.23-.88zM169 115c.14.1.19.35 0 .79s-.51.44-.66.74-.12.62-.3 1-.55.63-.74 1 0 .82-.25.93c-.34-.13-1.13-.84-.63-2.55.58-2.03 2.21-2.16 2.58-1.91z"/><path class="cls-1" d="M167.09 119.72h-.1c-.41-.15-1.34-1-.79-2.85a2.77 2.77 0 0 1 1.73-2 1.39 1.39 0 0 1 1.22.06c.18.14.35.44.11 1.08a1.18 1.18 0 0 1-.48.57.74.74 0 0 0-.2.19 1.89 1.89 0 0 0-.11.38 2.61 2.61 0 0 1-.18.59 2.35 2.35 0 0 1-.42.56 2.47 2.47 0 0 0-.33.43 1.12 1.12 0 0 0-.08.42c0 .23 0 .48-.27.61zm1.46-4.55a1.39 1.39 0 0 0-.46.08 2.31 2.31 0 0 0-1.41 1.72c-.35 1.21 0 1.85.28 2.11V119a1.45 1.45 0 0 1 .14-.61 3.07 3.07 0 0 1 .4-.53 2.22 2.22 0 0 0 .34-.45 1.68 1.68 0 0 0 .16-.41 2.07 2.07 0 0 1 .16-.5.9.9 0 0 1 .35-.37.7.7 0 0 0 .3-.35c.13-.34.09-.48.06-.51a.58.58 0 0 0-.32-.1z"/><path class="cls-1" d="M168.08 120.19a1 1 0 0 1-.6-.17c-.18-.14-.35-.44-.11-1.08a1.27 1.27 0 0 1 .48-.58c.1-.07.16-.11.19-.18a1.49 1.49 0 0 0 .12-.39 2.23 2.23 0 0 1 .18-.58 2.61 2.61 0 0 1 .41-.56 1.77 1.77 0 0 0 .33-.43 1 1 0 0 0 .09-.43c0-.22 0-.48.27-.6h.2c.41.15 1.34 1 .78 2.86a2.77 2.77 0 0 1-1.72 2 2 2 0 0 1-.62.14zm-.3-.57a1 1 0 0 0 .76 0 2.3 2.3 0 0 0 1.4-1.72c.36-1.21 0-1.85-.27-2.11a1.49 1.49 0 0 1-.14.62 3.07 3.07 0 0 1-.4.53 1.9 1.9 0 0 0-.34.45 1.59 1.59 0 0 0-.14.47 2.07 2.07 0 0 1-.16.5.9.9 0 0 1-.35.37.66.66 0 0 0-.3.35c-.13.38-.09.52-.06.54z"/><path class="cls-3" d="M158.24 115.61c0 2.09-1.46 2.7-1.9 2.53-.16-.06-.28-.28-.25-.75s.36-.57.41-.9-.06-.63 0-1 .35-.76.42-1.16-.2-.78 0-1c.33.05 1.29.49 1.32 2.28zm-2-2.45c.16.07.29.28.26.76s-.36.57-.42.9.07.62 0 1-.34.77-.41 1.16.2.79 0 1c-.36 0-1.32-.46-1.35-2.25-.03-2.13 1.48-2.73 1.92-2.57z"/><path class="cls-1" d="M155.8 118.2h-.11c-.43 0-1.56-.51-1.59-2.5a2.75 2.75 0 0 1 1.05-2.47 1.41 1.41 0 0 1 1.18-.3c.17.07.46.29.42 1a1.14 1.14 0 0 1-.29.69.57.57 0 0 0-.13.24 1.78 1.78 0 0 0 0 .4 2.07 2.07 0 0 1 0 .61 2.16 2.16 0 0 1-.23.66 2.48 2.48 0 0 0-.19.51 1.1 1.1 0 0 0 .05.43.68.68 0 0 1-.08.66zm.28-4.81a1.16 1.16 0 0 0-.64.25 2.25 2.25 0 0 0-.84 2c0 1.27.53 1.78.88 1.94a1.6 1.6 0 0 1-.05-.63 2.38 2.38 0 0 1 .23-.63 2.55 2.55 0 0 0 .19-.52 2 2 0 0 0 0-.49 1.88 1.88 0 0 1 0-.53.87.87 0 0 1 .23-.46.71.71 0 0 0 .18-.42c0-.37-.06-.49-.1-.5z"/><path class="cls-1" d="M156.51 118.42a1.09 1.09 0 0 1-.26 0c-.21-.09-.46-.32-.41-1a1.14 1.14 0 0 1 .28-.68.48.48 0 0 0 .13-.24 1.87 1.87 0 0 0 0-.41 2.06 2.06 0 0 1 0-.61 2.78 2.78 0 0 1 .23-.65 2.48 2.48 0 0 0 .19-.51 1.07 1.07 0 0 0 0-.43.65.65 0 0 1 .08-.66l.08-.08h.11c.43 0 1.55.52 1.59 2.49a2.81 2.81 0 0 1-1.05 2.48 1.77 1.77 0 0 1-.97.3zm-.08-.51a1 1 0 0 0 .71-.24 2.29 2.29 0 0 0 .85-2c0-1.26-.53-1.78-.89-2v.06a1.42 1.42 0 0 1 0 .63 2.77 2.77 0 0 1-.22.63 1.74 1.74 0 0 0-.19.52 1.61 1.61 0 0 0 0 .49 2.35 2.35 0 0 1 0 .53 1.1 1.1 0 0 1-.23.46.62.62 0 0 0-.18.41c.03.38.12.5.15.51z"/><path class="cls-3" d="M166.23 114.89c.48.13.92 1.65-.18 2.8-1.43 1.56-2.61 1.13-2.83.83-.35-.45 1.37-1.5 2-2a5 5 0 0 0 1.01-1.63zm-.31-.39c.35.46-1.37 1.5-2 2a4.7 4.7 0 0 0-1 1.61c-.49-.12-.93-1.65.17-2.8 1.43-1.54 2.61-1.11 2.83-.81z"/><path class="cls-1" d="M163 118.41h-.14a1 1 0 0 1-.61-.78 2.55 2.55 0 0 1 .67-2.44 3 3 0 0 1 2.31-1.2 1.21 1.21 0 0 1 .9.39.46.46 0 0 1 .09.36c-.06.44-.68.93-1.55 1.57-.22.16-.43.31-.57.43a3.28 3.28 0 0 0-.82 1.27 1.07 1.07 0 0 1-.18.33zm2.14-4a2.58 2.58 0 0 0-1.85 1 2.05 2.05 0 0 0-.56 2 .92.92 0 0 0 .11.26 3.77 3.77 0 0 1 .93-1.4c.16-.13.37-.28.6-.45.4-.3 1.34-1 1.36-1.24a.9.9 0 0 0-.53-.18zm.59.17z"/><path class="cls-1" d="M164 119.06h-.1a1.22 1.22 0 0 1-.9-.39.46.46 0 0 1-.09-.36c.06-.44.68-.93 1.55-1.57.23-.16.43-.31.57-.43a3.28 3.28 0 0 0 .82-1.27 1.07 1.07 0 0 1 .18-.33l.1-.1h.14a1 1 0 0 1 .61.77 2.55 2.55 0 0 1-.67 2.44 3 3 0 0 1-2.21 1.24zm-.6-.68a.9.9 0 0 0 .53.18 2.51 2.51 0 0 0 1.91-1 2 2 0 0 0 .56-2 .88.88 0 0 0-.11-.27 3.67 3.67 0 0 1-.93 1.39c-.16.14-.37.29-.6.46-.38.3-1.32.99-1.34 1.24zm0 0z"/><path class="cls-3" d="M153 113.73c1.85 1 1.71 2.27 1.47 2.55-.36.44-1.78-1-2.43-1.46a5.11 5.11 0 0 0-1.81-.61c-.01-.5 1.36-1.28 2.77-.48zm-.67 2.33a4.9 4.9 0 0 0 1.81.61c0 .5-1.39 1.28-2.77.48-1.85-1-1.71-2.27-1.47-2.55.36-.44 1.78.98 2.43 1.46z"/><path class="cls-1" d="M154.25 116.62c-.44 0-1-.48-1.83-1.15-.21-.18-.41-.34-.56-.45a3.47 3.47 0 0 0-1.42-.5 1.09 1.09 0 0 1-.37-.09l-.12-.08v-.14a1 1 0 0 1 .62-.78 2.57 2.57 0 0 1 2.53.08 3 3 0 0 1 1.7 2 1.26 1.26 0 0 1-.16 1 .49.49 0 0 1-.34.17zm-3.68-2.62a3.76 3.76 0 0 1 1.58.57c.17.12.37.29.59.48.38.32 1.24 1.08 1.52 1a.9.9 0 0 0 .05-.56 2.52 2.52 0 0 0-1.46-1.61 2 2 0 0 0-2-.08.92.92 0 0 0-.28.2z"/><path class="cls-1" d="M152.61 117.74a2.69 2.69 0 0 1-1.36-.37 3 3 0 0 1-1.71-2 1.22 1.22 0 0 1 .17-1 .45.45 0 0 1 .33-.17c.43 0 1.06.45 1.89 1.14.21.18.4.34.55.45a3.27 3.27 0 0 0 1.43.5 1.09 1.09 0 0 1 .36.09l.12.08v.14a1 1 0 0 1-.61.78 2.44 2.44 0 0 1-1.17.36zm-2.52-3a.78.78 0 0 0-.05.56c.06.34.34 1 1.45 1.61a2.07 2.07 0 0 0 2 .09 1 1 0 0 0 .24-.18 3.67 3.67 0 0 1-1.58-.57c-.16-.12-.36-.29-.58-.48-.35-.3-1.22-1.06-1.48-1.01z"/><path class="cls-3" d="M177.9 115.34c1.35 1.62.75 2.74.43 2.91-.5.28-1.3-1.57-1.73-2.26a4.83 4.83 0 0 0-1.45-1.22c.19-.47 1.76-.68 2.75.57zm-1.45 1.93a4.76 4.76 0 0 0 1.45 1.23c-.19.46-1.76.68-2.75-.57-1.35-1.63-.75-2.74-.43-2.92.5-.27 1.28 1.58 1.73 2.26z"/><path class="cls-1" d="M178.22 118.53h-.15c-.43-.13-.82-.81-1.33-1.76-.13-.25-.25-.47-.35-.62a3.38 3.38 0 0 0-1.14-1 1.22 1.22 0 0 1-.3-.22l-.09-.12.06-.13a1.06 1.06 0 0 1 .85-.5 2.56 2.56 0 0 1 2.32 1 2.94 2.94 0 0 1 .87 2.44 1.28 1.28 0 0 1-.51.85.46.46 0 0 1-.23.06zm-2.66-3.79a3.77 3.77 0 0 1 1.25 1.11c.11.18.23.41.37.66.24.44.79 1.47 1 1.52a.81.81 0 0 0 .26-.5 2.53 2.53 0 0 0-.76-2 2.06 2.06 0 0 0-1.87-.83.88.88 0 0 0-.25.04z"/><path class="cls-1" d="M177 119.11a2.6 2.6 0 0 1-2-1 3 3 0 0 1-.86-2.44 1.31 1.31 0 0 1 .51-.85.5.5 0 0 1 .38 0c.43.12.82.81 1.33 1.76.13.24.25.46.35.62a3.38 3.38 0 0 0 1.14 1 1 1 0 0 1 .3.22l.09.11-.06.14a1 1 0 0 1-.85.49 1.37 1.37 0 0 1-.33-.05zm-2.15-3.88a.85.85 0 0 0-.26.51 2.53 2.53 0 0 0 .76 2 2.08 2.08 0 0 0 1.87.83 1.26 1.26 0 0 0 .28-.07 3.71 3.71 0 0 1-1.25-1.12c-.11-.17-.23-.4-.37-.66-.25-.41-.8-1.44-1.04-1.49z"/><path class="cls-3" d="M191.38 112.77c1.35 1.63.76 2.74.43 2.92-.5.28-1.29-1.57-1.72-2.26a4.92 4.92 0 0 0-1.46-1.23c.2-.46 1.77-.68 2.75.57zm-1.45 1.94a4.75 4.75 0 0 0 1.46 1.23c-.2.46-1.77.68-2.76-.58-1.34-1.62-.75-2.73-.42-2.91.5-.28 1.29 1.55 1.72 2.26z"/><path class="cls-1" d="M191.7 116h-.14c-.43-.13-.83-.81-1.34-1.76-.13-.25-.24-.47-.34-.63a3.33 3.33 0 0 0-1.14-1 1 1 0 0 1-.31-.23l-.08-.11.05-.13a1 1 0 0 1 .86-.5 2.57 2.57 0 0 1 2.32 1 3 3 0 0 1 .86 2.44 1.21 1.21 0 0 1-.51.85.46.46 0 0 1-.23.07zm-2.7-3.82a3.66 3.66 0 0 1 1.26 1.11c.1.17.23.41.36.66.24.44.79 1.47 1 1.52a.81.81 0 0 0 .25-.5 2.51 2.51 0 0 0-.76-2 2.07 2.07 0 0 0-1.87-.83 1.36 1.36 0 0 0-.24.04z"/><path class="cls-1" d="M190.48 116.55a2.61 2.61 0 0 1-2-1 3 3 0 0 1-.86-2.44 1.21 1.21 0 0 1 .51-.85.47.47 0 0 1 .37 0c.43.13.83.81 1.34 1.76.13.25.24.47.34.62a3.25 3.25 0 0 0 1.14 1 .91.91 0 0 1 .3.22l.09.12v.13a1 1 0 0 1-.86.5zm-2.16-3.88a.81.81 0 0 0-.25.5 2.48 2.48 0 0 0 .76 2 2.07 2.07 0 0 0 1.87.84 1.36 1.36 0 0 0 .3-.01 3.77 3.77 0 0 1-1.26-1.11c-.1-.18-.23-.41-.36-.66-.26-.48-.81-1.51-1.06-1.56z"/><path class="cls-3" d="M176.56 114.71c-2-.48-2.27-2.25-2-2.5s1.23 0 2 .82 1.43 1.21 2.34 1c.1-.03-.31 1.17-2.34.68z"/><path class="cls-3" d="M177 112.87c-.81-.78-1.44-1.21-2.35-1 0 0 .36-1.16 2.39-.69s2.28 2.24 2 2.5-1.22-.03-2.04-.81z"/><path class="cls-1" d="M177.48 115.08a4.27 4.27 0 0 1-1-.13 2.78 2.78 0 0 1-2.21-2 1 1 0 0 1 .13-1c.43-.38 1.52 0 2.37.83s1.34 1.12 2.12.94l.42-.1-.13.42a1.64 1.64 0 0 1-1.7 1.04zm-2.6-2.72a.19.19 0 0 0-.13 0 1.16 1.16 0 0 0 .1.71 2.39 2.39 0 0 0 1.77 1.37 2.15 2.15 0 0 0 1.78-.14 3.15 3.15 0 0 1-2-1.13 2.67 2.67 0 0 0-1.52-.81z"/><path class="cls-1" d="M178.75 114a3.11 3.11 0 0 1-1.91-1c-.78-.77-1.33-1.12-2.12-.93l-.42.1.13-.42c0-.06.46-1.38 2.69-.86a2.78 2.78 0 0 1 2.22 2 1 1 0 0 1-.12 1 .72.72 0 0 1-.47.11zm-3.53-2.45a3.08 3.08 0 0 1 2 1.12c.8.78 1.59.9 1.7.8a1.12 1.12 0 0 0-.11-.71 2.36 2.36 0 0 0-1.77-1.35 2.18 2.18 0 0 0-1.82.16z"/><path class="cls-3" d="M180.51 118.69c-2-.49-2.26-2.25-2-2.51s1.24 0 2 .82 1.44 1.22 2.35 1c.06 0-.31 1.17-2.35.69z"/><path class="cls-3" d="M181 116.84c-.8-.78-1.44-1.21-2.35-1 0 0 .36-1.17 2.4-.69s2.27 2.24 2 2.5-1.28-.02-2.05-.81z"/><path class="cls-1" d="M181.43 119.06a4.12 4.12 0 0 1-1-.13 2.79 2.79 0 0 1-2.22-2c-.08-.34-.1-.77.13-1 .44-.38 1.52 0 2.37.83s1.33 1.13 2.12.94l.43-.1-.14.42a1.63 1.63 0 0 1-1.69 1.04zm-2.6-2.72a.19.19 0 0 0-.13 0 1.16 1.16 0 0 0 .1.71 2.39 2.39 0 0 0 1.77 1.36 2.19 2.19 0 0 0 1.79-.13 3.19 3.19 0 0 1-2-1.13 2.56 2.56 0 0 0-1.53-.81z"/><path class="cls-1" d="M182.7 118a3.09 3.09 0 0 1-1.9-1c-.79-.76-1.34-1.11-2.12-.93l-.43.1.13-.42s.45-1.38 2.69-.86a2.79 2.79 0 0 1 2.23 2c.08.33.1.76-.13 1a.65.65 0 0 1-.47.11zm-3.52-2.46a3.19 3.19 0 0 1 2 1.13c.8.78 1.58.9 1.69.8a1.12 1.12 0 0 0-.11-.71 2.37 2.37 0 0 0-1.76-1.36 2.2 2.2 0 0 0-1.82.14z"/><path class="cls-3" d="M161.49 113.72s-.19-1.2 1.84-1.68 3 1 2.9 1.36-1.12.52-2.19.17-1.83-.44-2.55.15z"/><path class="cls-3" d="M164.45 115.43c-2 .46-3-1-2.88-1.37s1.11-.52 2.18-.17 1.83.45 2.55-.14c0 0 .19 1.25-1.85 1.68z"/><path class="cls-1" d="M163.69 115.77a2.67 2.67 0 0 1-2-.88 1 1 0 0 1-.32-.93c.22-.53 1.36-.68 2.5-.31s1.69.42 2.31-.09l.34-.28.07.43c0 .06.19 1.45-2 2a3.59 3.59 0 0 1-.9.06zM162.6 114c-.47 0-.77.12-.8.2a1.08 1.08 0 0 0 .41.59 2.34 2.34 0 0 0 2.18.44 2.17 2.17 0 0 0 1.54-.91 3.17 3.17 0 0 1-2.26-.14 3.27 3.27 0 0 0-1.07-.18z"/><path class="cls-1" d="m161.31 114.2-.06-.44c0-.06-.21-1.44 2-2a2.78 2.78 0 0 1 2.86.77 1 1 0 0 1 .32.92c-.22.54-1.36.68-2.49.32s-1.69-.41-2.32.11zm1.35-1.15a4.82 4.82 0 0 1 1.46.29c1.07.34 1.82.1 1.88 0a1.21 1.21 0 0 0-.42-.59 2.4 2.4 0 0 0-2.19-.43 2.18 2.18 0 0 0-1.53.92 2 2 0 0 1 .8-.19z"/><path class="cls-3" d="M167.58 115.37c-.35-.09-1.21-.71-.89-2.47.35-2.07 1.94-2.36 2.35-2.12.14.09.22.33.1.79s-.46.49-.58.8-.06.63-.19 1-.49.68-.64 1 .05.87-.15 1zm.59.31c-.14-.09-.22-.32-.1-.79s.46-.49.58-.8.06-.62.19-1 .49-.68.64-1 0-.81.15-1c.35.09 1.21.71.89 2.47-.35 2.07-1.94 2.37-2.35 2.12z"/><path class="cls-1" d="M168.51 116a1 1 0 0 1-.47-.11c-.19-.12-.39-.41-.21-1.07a1.17 1.17 0 0 1 .41-.62.56.56 0 0 0 .18-.21 2 2 0 0 0 .07-.39 2.06 2.06 0 0 1 .12-.6 2.36 2.36 0 0 1 .35-.6 2.1 2.1 0 0 0 .28-.46 1 1 0 0 0 0-.43c0-.23 0-.49.21-.63l.09-.07h.11c.42.11 1.43.81 1.08 2.76a2.78 2.78 0 0 1-1.51 2.22 1.79 1.79 0 0 1-.71.21zm-.21-.54a1 1 0 0 0 .76-.1 2.29 2.29 0 0 0 1.22-1.85c.22-1.24-.19-1.84-.5-2.07a1.42 1.42 0 0 1-.07.63 3 3 0 0 1-.34.57 1.92 1.92 0 0 0-.29.48 2.05 2.05 0 0 0-.1.48 1.65 1.65 0 0 1-.1.52.93.93 0 0 1-.31.4.7.7 0 0 0-.26.38c-.09.39-.04.55-.01.57z"/><path class="cls-1" d="M167.63 115.64h-.11c-.42-.1-1.43-.8-1.08-2.76a2.78 2.78 0 0 1 1.51-2.22 1.43 1.43 0 0 1 1.22-.06c.19.12.39.4.21 1.06a1.13 1.13 0 0 1-.41.62.56.56 0 0 0-.18.21 2.26 2.26 0 0 0-.07.39 2.61 2.61 0 0 1-.12.61 2.49 2.49 0 0 1-.35.59 2.67 2.67 0 0 0-.29.46 1.57 1.57 0 0 0 0 .44.65.65 0 0 1-.2.63zm1.08-4.68a1.38 1.38 0 0 0-.56.13 2.29 2.29 0 0 0-1.21 1.85c-.23 1.24.17 1.84.49 2.08a.13.13 0 0 0 0-.06 1.61 1.61 0 0 1 .08-.63 2.53 2.53 0 0 1 .34-.57 1.76 1.76 0 0 0 .29-.48 1.57 1.57 0 0 0 .09-.48 2.11 2.11 0 0 1 .11-.52 1 1 0 0 1 .31-.4.7.7 0 0 0 .26-.38c.09-.36 0-.49 0-.51a.41.41 0 0 0-.2.01z"/><path class="cls-3" d="M167.82 115c-.36-.09-1.21-.72-.9-2.48.35-2.06 2-2.36 2.35-2.11.15.09.23.32.11.78s-.47.49-.58.81-.06.62-.2 1-.49.68-.63 1 .03.83-.15 1zm.59.28c-.15-.09-.23-.33-.11-.79s.47-.49.58-.8.06-.63.2-1 .49-.68.63-1.06 0-.81.15-.94c.36.09 1.21.71.9 2.47-.35 2.07-1.95 2.36-2.35 2.12z"/><path class="cls-1" d="M168.74 115.6a.83.83 0 0 1-.46-.11c-.2-.12-.39-.4-.22-1.06a1.14 1.14 0 0 1 .42-.62.71.71 0 0 0 .17-.21 1.59 1.59 0 0 0 .07-.39 2.61 2.61 0 0 1 .12-.61 2.45 2.45 0 0 1 .36-.6 2 2 0 0 0 .28-.46 1.19 1.19 0 0 0 0-.43.66.66 0 0 1 .21-.63l.09-.06h.11c.41.1 1.42.8 1.07 2.75a2.74 2.74 0 0 1-1.5 2.22 1.87 1.87 0 0 1-.72.21zm-.2-.53a1.05 1.05 0 0 0 .75-.1 2.29 2.29 0 0 0 1.22-1.85c.22-1.24-.18-1.85-.49-2.08v.06a1.63 1.63 0 0 1-.08.63 2.53 2.53 0 0 1-.34.57 2.22 2.22 0 0 0-.29.47 2.11 2.11 0 0 0-.09.49 2.42 2.42 0 0 1-.1.51 1.05 1.05 0 0 1-.31.41.75.75 0 0 0-.27.37c-.08.34-.04.45 0 .52z"/><path class="cls-1" d="M167.87 115.23h-.11c-.42-.11-1.43-.81-1.08-2.76a2.76 2.76 0 0 1 1.5-2.22 1.4 1.4 0 0 1 1.22-.07c.2.12.39.4.22 1.07a1.23 1.23 0 0 1-.41.62.53.53 0 0 0-.18.2 1.59 1.59 0 0 0-.07.4 1.92 1.92 0 0 1-.48 1.2 2.58 2.58 0 0 0-.28.46 1.21 1.21 0 0 0 0 .43c0 .23 0 .48-.2.63zm1.07-4.68a1.38 1.38 0 0 0-.55.14 2.27 2.27 0 0 0-1.22 1.85c-.22 1.24.18 1.84.49 2.07a1.61 1.61 0 0 1 .08-.63 2.33 2.33 0 0 1 .34-.57 2.27 2.27 0 0 0 .29-.48 2 2 0 0 0 .09-.48 2.51 2.51 0 0 1 .1-.52 1.05 1.05 0 0 1 .31-.41.71.71 0 0 0 .27-.37c.08-.33 0-.49 0-.51a.4.4 0 0 0-.2-.09z"/><path class="cls-3" d="M178.82 114c-.28-2.08 1.16-2.84 1.62-2.72.16 0 .31.24.33.72s-.3.61-.32.94.13.61.11 1-.27.8-.3 1.2.29.76.14.94c-.4.02-1.4-.32-1.58-2.08zm2.24 2.21c-.17 0-.32-.25-.33-.72s.29-.61.31-.94-.13-.62-.11-1 .27-.8.3-1.2-.28-.76-.13-1c.36 0 1.36.32 1.58 2.1.32 2.12-1.17 2.87-1.62 2.76z"/><path class="cls-1" d="M181.16 116.47H181c-.18 0-.49-.24-.51-1a1.12 1.12 0 0 1 .21-.72.54.54 0 0 0 .1-.25 1.94 1.94 0 0 0 0-.4 2.18 2.18 0 0 1-.07-.61 2.71 2.71 0 0 1 .17-.68 2.2 2.2 0 0 0 .13-.52 1.1 1.1 0 0 0-.09-.42.69.69 0 0 1 0-.67l.07-.08h.11c.44 0 1.6.35 1.84 2.32a2.75 2.75 0 0 1-.78 2.57 1.62 1.62 0 0 1-1.02.46zm0-.51a1 1 0 0 0 .69-.31 2.29 2.29 0 0 0 .62-2.13c-.15-1.25-.72-1.71-1.08-1.84a.14.14 0 0 0 0 .06 1.64 1.64 0 0 1 .11.62 2.73 2.73 0 0 1-.16.64 2.12 2.12 0 0 0-.14.55 1.54 1.54 0 0 0 .06.48 2.27 2.27 0 0 1 0 .53 1 1 0 0 1-.18.48.67.67 0 0 0-.13.43c.05.38.14.53.17.53z"/><path class="cls-1" d="M180.38 116.33c-.46 0-1.58-.4-1.81-2.31a2.76 2.76 0 0 1 .79-2.57 1.4 1.4 0 0 1 1.14-.42c.18 0 .49.23.52 1a1.22 1.22 0 0 1-.21.71.58.58 0 0 0-.11.25 1.53 1.53 0 0 0 .05.41 2.64 2.64 0 0 1 .06.6 2.59 2.59 0 0 1-.16.68 2.89 2.89 0 0 0-.14.52 1.11 1.11 0 0 0 .09.43.63.63 0 0 1 0 .66l-.07.09h-.14zm0-4.82a1.12 1.12 0 0 0-.64.31 2.25 2.25 0 0 0-.62 2.13c.15 1.25.71 1.71 1.08 1.84a.17.17 0 0 1 0-.05 1.49 1.49 0 0 1-.11-.62 2.29 2.29 0 0 1 .16-.65 2.62 2.62 0 0 0 .13-.54 1.94 1.94 0 0 0-.05-.49 2.15 2.15 0 0 1-.06-.53 1.1 1.1 0 0 1 .18-.48.67.67 0 0 0 .14-.43c0-.37-.11-.48-.15-.49z"/><path class="cls-3" d="M184.05 116.19c-.27-2.08 1.17-2.84 1.62-2.72.17 0 .32.24.33.72s-.29.6-.31.94.13.61.1 1-.26.79-.29 1.19.28.77.13 1c-.36-.02-1.36-.32-1.58-2.13zm2.24 2.22c-.16 0-.31-.25-.33-.73s.3-.6.32-.93-.13-.62-.11-1 .26-.79.29-1.19-.28-.76-.13-1c.36 0 1.36.32 1.58 2.1.28 2.11-1.16 2.86-1.62 2.75z"/><path class="cls-1" d="M186.4 118.67h-.17c-.22-.06-.49-.27-.52-1a1.25 1.25 0 0 1 .21-.71.73.73 0 0 0 .11-.25 2 2 0 0 0-.05-.4 2.74 2.74 0 0 1-.06-.61 2.59 2.59 0 0 1 .16-.68 2.2 2.2 0 0 0 .13-.52 1.3 1.3 0 0 0-.08-.42.65.65 0 0 1 0-.67l.07-.08h.11c.4 0 1.6.34 1.84 2.32a2.78 2.78 0 0 1-.79 2.57 1.62 1.62 0 0 1-.96.45zm0-.51a1 1 0 0 0 .68-.31 2.27 2.27 0 0 0 .62-2.13c-.15-1.25-.71-1.71-1.08-1.84v.06a1.46 1.46 0 0 1 .11.62 2.31 2.31 0 0 1-.16.64 2.55 2.55 0 0 0-.13.55 1.91 1.91 0 0 0 .05.48 1.84 1.84 0 0 1 .05.53.94.94 0 0 1-.17.48.67.67 0 0 0-.14.43c-.01.38.09.49.13.49z"/><path class="cls-1" d="M185.61 118.53c-.45 0-1.57-.4-1.81-2.31a2.76 2.76 0 0 1 .79-2.57 1.35 1.35 0 0 1 1.14-.42c.23 0 .5.27.52 1a1.09 1.09 0 0 1-.21.71.54.54 0 0 0-.1.25 1.87 1.87 0 0 0 0 .4 2 2 0 0 1 .06.61 2.12 2.12 0 0 1-.16.67 2.4 2.4 0 0 0-.13.53 1.14 1.14 0 0 0 .09.43.67.67 0 0 1 0 .66l-.07.09h-.15zm0-4.82a1.17 1.17 0 0 0-.65.31 2.3 2.3 0 0 0-.62 2.13c.15 1.25.71 1.71 1.08 1.84a1.67 1.67 0 0 1-.11-.62 2.89 2.89 0 0 1 .16-.66 1.64 1.64 0 0 0 .13-.53 1.94 1.94 0 0 0 0-.49 2.17 2.17 0 0 1-.05-.53 1 1 0 0 1 .18-.48.67.67 0 0 0 .13-.43c0-.37-.11-.48-.14-.49z"/><path class="cls-3" d="M171 115.54c-.5-.08-1.09-1.55-.12-2.81 1.25-1.7 2.48-1.39 2.73-1.12.39.42-1.21 1.64-1.77 2.22a4.68 4.68 0 0 0-.84 1.71zm.29.35c-.39-.41 1.21-1.63 1.77-2.22a4.68 4.68 0 0 0 .84-1.71c.5.08 1.09 1.55.12 2.81-1.25 1.7-2.48 1.4-2.73 1.12z"/><path class="cls-1" d="M172 116.36a1.15 1.15 0 0 1-.85-.3.44.44 0 0 1-.13-.35c0-.44.58-1 1.38-1.72.2-.18.39-.35.52-.49a3.19 3.19 0 0 0 .68-1.34 1.08 1.08 0 0 1 .15-.35l.09-.11h.14a1 1 0 0 1 .69.7 2.56 2.56 0 0 1-.42 2.5 3 3 0 0 1-2.16 1.43zm-.48-.63a.78.78 0 0 0 .54.12 2.45 2.45 0 0 0 1.79-1.23 2.07 2.07 0 0 0 .36-2 1.92 1.92 0 0 0-.14-.26 3.83 3.83 0 0 1-.78 1.49c-.14.15-.34.33-.55.52-.41.33-1.27 1.11-1.26 1.36zm0 0z"/><path class="cls-1" d="M171.05 115.81h-.14a1 1 0 0 1-.69-.71 2.58 2.58 0 0 1 .41-2.5 3 3 0 0 1 2.17-1.43 1.24 1.24 0 0 1 .94.29.47.47 0 0 1 .13.35c0 .45-.59 1-1.38 1.73a6.56 6.56 0 0 0-.52.49 3.35 3.35 0 0 0-.69 1.34 1.09 1.09 0 0 1-.14.35zm1.85-4.16h-.07a2.51 2.51 0 0 0-1.8 1.23 2.1 2.1 0 0 0-.35 2 1.72 1.72 0 0 0 .14.25 4 4 0 0 1 .78-1.49c.14-.14.34-.32.55-.51.37-.34 1.23-1.13 1.22-1.38a.84.84 0 0 0-.47-.1z"/><path class="cls-3" d="M184.25 115.3c-1.95-.81-1.94-2.07-1.73-2.38.31-.48 1.87.79 2.57 1.2a4.83 4.83 0 0 0 1.86.41c.05.47-1.24 1.47-2.7.77zm.39-2.38a4.88 4.88 0 0 0-1.86-.42c0-.5 1.25-1.42 2.7-.77 2 .82 1.94 2.08 1.73 2.39-.31.47-1.87-.8-2.57-1.2z"/><path class="cls-1" d="M185.27 115.78a2.82 2.82 0 0 1-1.12-.25 3 3 0 0 1-1.9-1.76 1.26 1.26 0 0 1 .06-1 .49.49 0 0 1 .31-.21c.45-.08 1.11.34 2 .94.23.16.44.3.6.39a3.38 3.38 0 0 0 1.47.35 1.09 1.09 0 0 1 .37 0l.13.07v.14a1 1 0 0 1-.53.84 2.45 2.45 0 0 1-1.39.49zm-2.55-2.72a.85.85 0 0 0 0 .56c.1.33.44 1 1.62 1.45a2.06 2.06 0 0 0 2-.13 1.58 1.58 0 0 0 .22-.19 3.78 3.78 0 0 1-1.63-.41c-.17-.1-.39-.25-.63-.41-.37-.28-1.3-.93-1.58-.87z"/><path class="cls-1" d="M187 114.47a4.49 4.49 0 0 1-1.88-1c-.23-.15-.43-.29-.6-.39a3.19 3.19 0 0 0-1.47-.34 1.09 1.09 0 0 1-.37-.06l-.13-.06v-.15a1 1 0 0 1 .53-.83 2.57 2.57 0 0 1 2.52-.19 3 3 0 0 1 1.9 1.77 1.22 1.22 0 0 1-.06 1 .47.47 0 0 1-.31.2zm-3.86-2.18a3.75 3.75 0 0 1 1.63.41c.18.1.39.25.63.41.42.28 1.38.94 1.62.86a.78.78 0 0 0 0-.56c-.1-.33-.44-1-1.62-1.45a2.09 2.09 0 0 0-2 .13 1.11 1.11 0 0 0-.27.2z"/><path class="cls-3" d="M158.17 114.78c-1.51-1.48-1-2.65-.73-2.86.47-.33 1.45 1.43 1.95 2.07a5.17 5.17 0 0 0 1.57 1.07c-.14.48-1.68.86-2.79-.28zm1.24-2.08a4.79 4.79 0 0 0-1.57-1.07c.14-.48 1.68-.86 2.79.28 1.51 1.48 1 2.65.73 2.86-.47.32-1.45-1.43-1.95-2.07z"/><path class="cls-1" d="M159.88 115.77A2.62 2.62 0 0 1 158 115a2.94 2.94 0 0 1-1.11-2.34 1.22 1.22 0 0 1 .42-.89.45.45 0 0 1 .36-.08c.44.08.91.72 1.52 1.61a6.07 6.07 0 0 0 .41.58 3.29 3.29 0 0 0 1.23.86 1.28 1.28 0 0 1 .33.2l.09.1v.14a1 1 0 0 1-.79.58 2.2 2.2 0 0 1-.58.01zm-2.3-3.64a.8.8 0 0 0-.2.52 2.51 2.51 0 0 0 1 1.95 2 2 0 0 0 1.94.63 1.3 1.3 0 0 0 .27-.1 3.9 3.9 0 0 1-1.36-1 8.77 8.77 0 0 1-.44-.62c-.31-.39-.96-1.36-1.21-1.38z"/><path class="cls-1" d="M161.23 115.06h-.09c-.44-.08-.91-.72-1.51-1.61-.16-.23-.3-.44-.41-.58A3.32 3.32 0 0 0 158 112a.89.89 0 0 1-.32-.19l-.1-.1v-.14a1 1 0 0 1 .79-.58 2.55 2.55 0 0 1 2.42.76 2.92 2.92 0 0 1 1.11 2.34 1.18 1.18 0 0 1-.42.89.44.44 0 0 1-.25.08zm-3-3.5a3.81 3.81 0 0 1 1.36 1c.13.16.28.38.44.61.28.42.94 1.38 1.19 1.41a.86.86 0 0 0 .2-.53 2.55 2.55 0 0 0-1-1.94 2.07 2.07 0 0 0-2-.63 1.18 1.18 0 0 0-.18.08z"/><path class="cls-3" d="M147.24 150.3c1.23.45 4 3 2.25 9.13-2 7.22-7.8 7.67-9.14 6.66-.49-.38-.68-1.25-.08-2.85s1.83-1.57 2.36-2.64.44-2.2 1.07-3.48 2-2.25 2.65-3.51.15-2.91.89-3.31zm-.89 21.88c4.83 5.82 2.7 9.79 1.53 10.43-1.78 1-4.62-5.62-6.16-8.08-1.91-2.86-4.86-3.92-5.2-4.4.7-1.65 6.31-2.43 9.83 2.05zm-1.1-23.18c.49.38.69 1.25.08 2.84s-1.82 1.57-2.36 2.64-.44 2.21-1.07 3.49-2 2.24-2.65 3.51-.14 2.91-.9 3.31c-1.21-.45-4-3-2.25-9.12 2.02-7.27 7.82-7.73 9.15-6.67zm-4.09 30.09c1.91 2.86 4.85 3.93 5.2 4.4-.7 1.66-6.31 2.43-9.84-2.05-4.82-5.81-2.69-9.79-1.52-10.43 1.78-1.01 4.62 5.63 6.16 8.08zm-6.59 8.17s.23 4.37-7.19 5.3-10.43-4.7-9.78-5.91 4.16-1.43 7.83.19 6.35 2.27 9.14.42z"/><path class="cls-3" d="M124.68 180.09c7.41-.9 10.4 4.74 9.75 5.95s-4.17 1.42-7.83-.22-6.34-2.3-9.13-.46c0 0-.21-4.36 7.21-5.27zm2.43-36.55c7 2.48 7.23 8.86 6.11 9.66s-4.37-.58-6.94-3.68-4.65-4.87-8-4.46c.03 0 1.78-4 8.83-1.52z"/><path class="cls-3" d="M124.79 149.92c2.58 3.09 4.68 4.86 8 4.43 0 0-1.74 4-8.79 1.56s-7.26-8.83-6.15-9.64 4.38.56 6.94 3.65zm6.45 12.86c1.74.45 3.3 5.9-.64 10-5.09 5.59-9.33 4-10.12 3-1.23-1.63 4.93-5.37 7.14-7.24 2.56-2.29 3.21-5.35 3.62-5.76zm-1.08-1.39c1.23 1.63-4.93 5.36-7.14 7.23-2.56 2.29-3.2 5.36-3.62 5.77-1.74-.46-3.3-5.91.64-10 5.09-5.61 9.33-4.07 10.12-3zm-17.24-9.11c6.63 3.62 6.12 8.11 5.28 9.13-1.3 1.57-6.38-3.52-8.72-5.24-2.83-1.95-6-1.86-6.46-2.16.04-1.8 4.98-4.59 9.9-1.73zm-2.27 8.34c2.83 1.95 6 1.86 6.46 2.16 0 1.8-5 4.6-9.9 1.74-6.63-3.63-6.13-8.12-5.28-9.14 1.3-1.57 6.38 3.53 8.72 5.24zm3.69 15.38c.2 7.51-5.2 9.65-6.78 9.07-.58-.22-1-1-.91-2.69s1.28-2.05 1.47-3.23-.22-2.23 0-3.63 1.24-2.74 1.5-4.15-.72-2.82-.12-3.42c1.3.05 4.73 1.64 4.84 8.05zm-7.14-8.76c.58.22 1 1 .91 2.69s-1.28 2-1.47 3.23.22 2.23 0 3.63-1.24 2.75-1.5 4.15.72 2.82.12 3.42c-1.3-.06-4.73-1.66-4.84-8.05-.2-7.51 5.2-9.65 6.78-9.07z"/><path class="cls-5" d="M118.31 145.06s1.75-4 8.8-1.52 7.23 8.86 6.11 9.66-4.37-.58-6.94-3.68-4.65-4.87-7.97-4.46z"/><path class="cls-5" d="M132.79 154.35s-1.74 4-8.79 1.56-7.26-8.83-6.15-9.64 4.38.56 6.94 3.65 4.68 4.86 8 4.43zm-15.32 31.01s-.21-4.37 7.21-5.27 10.4 4.74 9.75 5.95-4.17 1.42-7.83-.22-6.34-2.3-9.13-.46z"/><path class="cls-5" d="M134.57 187.26s.23 4.37-7.19 5.3-10.43-4.7-9.78-5.91 4.16-1.43 7.83.19 6.35 2.27 9.14.42zM145.25 149c-1.33-1-7.13-.56-9.15 6.67-1.78 6.14 1 8.67 2.25 9.12.76-.4.24-2.05.9-3.31s2-2.24 2.65-3.51.54-2.42 1.07-3.49 1.76-1 2.36-2.64.41-2.5-.08-2.84zm-4.9 17.09c1.34 1 7.13.56 9.14-6.66 1.79-6.15-1-8.68-2.25-9.13-.74.4-.23 2-.89 3.31s-2 2.23-2.65 3.51-.54 2.42-1.07 3.48-1.75 1.05-2.36 2.64-.41 2.47.08 2.85zm-33.15 1.15c-1.58-.58-7 1.56-6.78 9.07.11 6.39 3.54 8 4.84 8.05.6-.6-.38-2-.12-3.42s1.28-2.74 1.5-4.15-.2-2.46 0-3.63 1.37-1.52 1.47-3.23-.33-2.47-.91-2.69zm.36 17.81c1.58.58 7-1.56 6.78-9.07-.11-6.39-3.54-8-4.84-8-.6.6.38 2 .12 3.42s-1.27 2.74-1.5 4.15.2 2.46 0 3.63-1.37 1.53-1.47 3.23.35 2.42.91 2.64zm22.6-23.66c-.79-1.07-5-2.61-10.12 3-3.94 4.12-2.38 9.57-.64 10 .42-.41 1.06-3.48 3.62-5.77 2.21-1.87 8.37-5.62 7.14-7.23zm-9.68 14.39c.79 1.06 5 2.61 10.12-3 3.94-4.12 2.38-9.57.64-10-.41.41-1.06 3.47-3.62 5.76-2.21 1.87-8.37 5.61-7.14 7.24zm-2.28-14.37c.84-1 1.35-5.51-5.28-9.13-4.93-2.86-9.86-.07-9.9 1.73.5.3 3.63.21 6.46 2.16 2.34 1.72 7.42 6.83 8.72 5.24zm-16.27-6.03c-.85 1-1.35 5.51 5.28 9.14 4.93 2.86 9.86.06 9.9-1.74-.5-.3-3.63-.21-6.46-2.16-2.34-1.71-7.42-6.81-8.72-5.24zm45.95 27.23c1.17-.64 3.3-4.61-1.53-10.43-3.52-4.48-9.13-3.7-9.83-2.05.34.48 3.29 1.54 5.2 4.4 1.54 2.47 4.38 9.07 6.16 8.08zM135 171c-1.17.64-3.3 4.62 1.52 10.43 3.53 4.48 9.14 3.71 9.84 2.05-.35-.47-3.29-1.54-5.2-4.4-1.54-2.44-4.38-9.08-6.16-8.08z"/></svg>