<svg xmlns="http://www.w3.org/2000/svg" id="Layer_1" data-name="Layer 1" viewBox="41.21 40.54 173.53 174.92"><defs><style>.construction-material-3{fill:#fff}.construction-material-5{fill:var(--chakra-colors-primary-400)}.construction-material-6{fill:none;stroke:var(--chakra-colors-primary-800);stroke-linecap:round;stroke-linejoin:round}</style></defs><path d="m201.77 82.11-1 .6a86.983 86.983 0 0 0-3.36-5.06l.93-.67c1.2 1.66 2.35 3.38 3.43 5.13zm2.31 4c1 1.8 1.92 3.65 2.76 5.5l-1 .48a85.82 85.82 0 0 0-2.73-5.42zm-8.51-12.8-.9.72a71.944 71.944 0 0 0-4-4.6l.84-.78c1.43 1.49 2.78 3.06 4.06 4.65zm-7.23-8-.81.82a86.88 86.88 0 0 0-4.49-4.08l.74-.87c1.56 1.33 3.09 2.72 4.56 4.15zm-8.16-7-.69.91a75.32 75.32 0 0 0-5-3.49l.62-1a91.52 91.52 0 0 1 5.07 3.58zm-9-6-.57 1c-1.75-1-3.55-2-5.36-2.86l.5-1c1.88.91 3.7 1.89 5.47 2.91zm43.56 75c0 2-.05 4.12-.18 6.16l-1.14-.07c.13-2 .19-4.06.18-6.08zm-53.15-79.77-.44 1.05c-1.87-.79-3.77-1.52-5.67-2.18l.36-1.08c1.94.67 3.87 1.41 5.75 2.21zm52.6 90.62c-.24 2-.55 4.07-.94 6.08l-1.12-.21c.37-2 .68-4 .92-6zM151.45 44l-.31 1.11c-1.94-.56-3.92-1.05-5.9-1.47l.24-1.12c2 .36 4.01.87 5.97 1.48zm60.83 104.81c-.48 2-1 4-1.67 5.92l-1.09-.35c.61-1.93 1.17-3.9 1.64-5.85zm-71.34-107.2-.18 1.13c-2-.32-4-.56-6-.74l.1-1.15c2 .15 4.06.44 6.08.76zM209.09 159c-.72 1.91-1.52 3.82-2.38 5.67l-1-.48c.84-1.83 1.63-3.72 2.34-5.6zM130.21 40.59v1.15c-2-.07-4.06-.06-6.08 0v-1.15c1.97-.07 4.04-.07 6.08 0zm74.46 128.26c-.95 1.81-2 3.6-3.06 5.34l-1-.61c1.07-1.71 2.08-3.48 3-5.26zm-85.22-128 .1 1.14c-2 .17-4 .43-6 .76l-.18-1.13c1.98-.3 4.04-.55 6.08-.73zm56.73 159.67c-1.51 1-3.08 2-4.64 2.91l-.59.34-.57-1 .58-.34c1.55-.9 3.09-1.87 4.58-2.88zm-9.81 4.48.52 1c-1.82.93-3.69 1.8-5.58 2.59l-.45-1.06c1.87-.76 3.71-1.63 5.51-2.53zM71.15 62.45c-1.54 1.32-3 2.7-4.47 4.11l-.81-.81c1.45-1.43 3-2.83 4.54-4.17zm85.47 146.76.39 1.08c-1.92.7-3.89 1.33-5.86 1.89l-.31-1.1c1.94-.55 3.89-1.18 5.78-1.87zM63.52 69.84c-1.36 1.48-2.68 3-3.93 4.62l-.9-.71a84.63 84.63 0 0 1 4-4.69zm82.92 142.37.25 1.12c-2 .46-4 .85-6.05 1.15l-.18-1.13c2-.35 4.01-.69 5.98-1.14zM56.87 78.11a85.069 85.069 0 0 0-3.33 5.07l-1-.59c1-1.75 2.19-3.47 3.36-5.15zm79.06 135.81.12 1.14c-2 .21-4.11.34-6.16.4v-1.15c2-.06 4.04-.19 6.04-.39zM51.28 87.13c-1 1.78-1.86 3.61-2.68 5.45l-1-.47c.83-1.87 1.75-3.73 2.71-5.52zm74 127.19v1.14c-2-.05-4.12-.17-6.15-.36l.12-1.15c2 .2 4.04.32 6.06.37zM46.84 96.78c-.72 1.88-1.4 3.8-2 5.73l-1.1-.34c.6-2 1.28-3.91 2-5.81zm67.87 116.62-.17 1.14c-2-.3-4.05-.68-6.05-1.12l.24-1.12c1.98.44 3.99.81 5.98 1.1zM43.62 106.9a84.69 84.69 0 0 0-1.27 5.94l-1.14-.2c.36-2 .8-4 1.3-6zm32.21 90.43-.69.92a88.652 88.652 0 0 1-4.8-3.84l.74-.87c1.54 1.31 3.13 2.59 4.75 3.79zM43.57 149c.49 1.95 1.07 3.91 1.69 5.83l-1.09.35c-.64-1.94-1.21-3.93-1.71-5.91zm24.14 41.45-.79.83a93.997 93.997 0 0 1-4.3-4.4l.85-.77a83.44 83.44 0 0 0 4.24 4.37zm-20.91-31.3c.72 1.88 1.54 3.76 2.4 5.58l-1 .49c-.88-1.85-1.69-3.75-2.43-5.65zm13.7 23.53-.89.73a97.117 97.117 0 0 1-3.72-4.9l.94-.67a91.76 91.76 0 0 0 3.67 4.84zm-9.26-13.88c1 1.78 2 3.54 3.06 5.25l-1 .61a93.415 93.415 0 0 1-3.1-5.32z" style="fill:var(--chakra-colors-primary-800)"/><circle cx="126.62" cy="127.71" r="67.27" style="fill:var(--chakra-colors-primary-50)"/><path class="construction-material-3" d="M173 171.26a3.8 3.8 0 0 0-.94 1.54l-2.83-2.57 2.6-2.76 2.85 2.75a3.84 3.84 0 0 0-1.6 1z"/><path d="M172.08 172.8a3.8 3.8 0 0 1 .94-1.54l.08-.08a3.86 3.86 0 0 1 5.39-.06l3.32 3.17a3.85 3.85 0 0 1 .13 5.45 3.8 3.8 0 0 1-2.79 1.19 3.86 3.86 0 0 1-2.6-1l-3.4-3.1a3.83 3.83 0 0 1-1.07-4.03z" style="fill:var(--chakra-colors-primary-50)"/><path class="construction-material-5" d="M173.77 160.88a3.22 3.22 0 0 1 .07 4.48l-2 2.11-2.6 2.76-1.72 1.84a3.22 3.22 0 0 1-4.56.14l-.67-.63-5.51-5.18 5.51-5.33 5.94-5.77z"/><path class="construction-material-3" d="M187.71 142.2v42.7H162.3v-13.32l.67.63a3.22 3.22 0 0 0 4.56-.14l1.72-1.84 2.83 2.57a3.83 3.83 0 0 0 1.07 4l3.4 3.1a3.86 3.86 0 0 0 2.6 1 3.8 3.8 0 0 0 2.79-1.19 3.85 3.85 0 0 0-.13-5.45l-3.32-3.17a3.83 3.83 0 0 0-3.79-.9l-2.85-2.75 2-2.11a3.22 3.22 0 0 0-.07-4.48l-5.53-5.58-5.94 5.77V142.2zm-25.41 29.38v13.32h-25.41v-42.71h25.41v18.87l-5.51 5.34 5.51 5.18z"/><path class="construction-material-6" d="M162.3 184.9h-25.41v-42.71h25.41m0 18.87v-18.87h25.41v42.71H162.3v-13.32"/><path class="construction-material-6" d="m162.3 171.58-5.51-5.18 5.51-5.33 5.94-5.77 5.53 5.58a3.22 3.22 0 0 1 .07 4.48l-2 2.11-2.6 2.76-1.72 1.84a3.22 3.22 0 0 1-4.56.14zm9.78 1.22-2.83-2.57"/><path class="construction-material-6" d="m171.85 167.47 2.85 2.75.01.01"/><path class="construction-material-6" d="M172.08 172.8a3.8 3.8 0 0 1 .94-1.54l.08-.08a3.86 3.86 0 0 1 5.39-.06l3.32 3.17a3.85 3.85 0 0 1 .13 5.45 3.8 3.8 0 0 1-2.79 1.19 3.86 3.86 0 0 1-2.6-1l-3.4-3.1a3.83 3.83 0 0 1-1.07-4.03z"/><path class="construction-material-3" d="M97.1 91.62a35.16 35.16 0 0 0 7.3-5.24c.43-.39.86-.79 1.32-1.16a52.21 52.21 0 0 1 8.43-5.6l.09-.05c10-5.28 17.14-4.4 17.14-4.4v41.7H79.86V95.75A34.93 34.93 0 0 0 97 91.67zm30.2-7.75a1.3 1.3 0 1 0-1.3 1.29 1.3 1.3 0 0 0 1.3-1.29zm0 13.55a1.3 1.3 0 1 0-1.3 1.3 1.3 1.3 0 0 0 1.3-1.3zm0 13.54a1.3 1.3 0 1 0-1.3 1.3 1.3 1.3 0 0 0 1.3-1.26zm-13.8 0a1.29 1.29 0 1 0-1.29 1.3 1.29 1.29 0 0 0 1.29-1.26zm-13.82 0a1.29 1.29 0 1 0-1.29 1.3 1.29 1.29 0 0 0 1.29-1.26zm-13.16 0a1.3 1.3 0 1 0-1.29 1.3 1.29 1.29 0 0 0 1.29-1.26z"/><path class="construction-material-5" d="M131.38 64.66v10.51s-7.15-.88-17.14 4.4V64.66z"/><path class="construction-material-3" d="M126 82.57a1.3 1.3 0 1 1-1.29 1.3 1.3 1.3 0 0 1 1.29-1.3zm0 13.56a1.3 1.3 0 1 1-1.29 1.29 1.3 1.3 0 0 1 1.29-1.29zm0 13.54a1.3 1.3 0 1 1-1.29 1.29 1.3 1.3 0 0 1 1.29-1.29z"/><path class="construction-material-5" d="M114.15 64.66v15a52.21 52.21 0 0 0-8.43 5.6c-.46.37-.89.77-1.32 1.16a35.16 35.16 0 0 1-7.3 5.24v-27z"/><path class="construction-material-3" d="M112.21 109.67a1.3 1.3 0 1 1-1.29 1.29 1.29 1.29 0 0 1 1.29-1.29zm-13.82 0A1.3 1.3 0 1 1 97.1 111a1.29 1.29 0 0 1 1.29-1.33z"/><path class="construction-material-5" d="M97 91.67a34.93 34.93 0 0 1-17.15 4.08V64.66H97z"/><path class="construction-material-3" d="M85.23 109.67a1.3 1.3 0 1 1-1.3 1.29 1.29 1.29 0 0 1 1.3-1.29z"/><path class="construction-material-6" d="M97.01 64.66H79.86v52.21h17.15m.08-25.25h0V64.66m17.15 0v14.91m-17.23 12.1V64.66h17.14m0 52.21H97.01m17.14 0h17.23V64.66h-17.23v14.95"/><path class="construction-material-6" d="M79.86 95.75A34.93 34.93 0 0 0 97 91.67h.09a35.16 35.16 0 0 0 7.3-5.24c.43-.39.86-.79 1.32-1.16a52.21 52.21 0 0 1 8.43-5.6l.09-.05c10-5.28 17.14-4.4 17.14-4.4M86.52 111a1.3 1.3 0 1 1-1.29-1.29 1.3 1.3 0 0 1 1.29 1.29zm13.16 0a1.29 1.29 0 1 1-1.29-1.29 1.3 1.3 0 0 1 1.29 1.29zm13.82 0a1.29 1.29 0 1 1-1.29-1.29 1.29 1.29 0 0 1 1.29 1.29zm13.8 0a1.3 1.3 0 1 1-1.3-1.29 1.3 1.3 0 0 1 1.3 1.29zm0-13.58a1.3 1.3 0 1 1-1.3-1.29 1.3 1.3 0 0 1 1.3 1.29zm0-13.55a1.3 1.3 0 1 1-1.3-1.3 1.3 1.3 0 0 1 1.3 1.3z"/><path class="construction-material-3" d="m199.88 111.88-5 5a2.71 2.71 0 0 1 0-3.82l.4-.4.76-.77a2.73 2.73 0 0 1 3.84 0z"/><path class="construction-material-5" d="M193.36 101a2.22 2.22 0 0 1 0 3.13l-3.36 3.29-3.31 3.31a2.21 2.21 0 0 1-3.12 0l-.69-.68-6-6-1.05-1.05 9.75-9.76z"/><path class="construction-material-3" d="m181.39 89 4.19 4.18-9.75 9.82-22.59-22.6 9.76-9.8 3.79 3.78-.45.45a4 4 0 0 0 0 5.58l9.05 9a4 4 0 0 0 5.58 0z"/><path class="construction-material-5" d="m176.94 104.07 6 6c-1.16 1.59-7.26 11.5-10 15.93a2 2 0 0 1-3.08.37l-.74-.74c-.87-.88-2.63-2.09.5-7.35a51 51 0 0 1 4.1-8.88c1.72-3.06 3.22-5.33 3.22-5.33zm-10.17-29.69L181.39 89l-.44.44a4 4 0 0 1-5.58 0l-9.05-9a4 4 0 0 1 0-5.58z"/><path class="construction-material-5" d="m164.32 108.08 12.62-4s-1.5 2.27-3.22 5.31c-3.05.65-11.42 1.62-11.42.73s2.02-2.04 2.02-2.04zM163 70.6l-9.75 9.76-2-2a2.2 2.2 0 0 1 0-3.13l1.89-1.88 3.07-3.07 1.67-1.67a2.2 2.2 0 0 1 3.13 0z"/><path class="construction-material-6" d="m175.83 103 1.11 1.11 6 6 .69.68a2.21 2.21 0 0 0 3.12 0l3.31-3.31 3.32-3.31a2.22 2.22 0 0 0 0-3.13l-7.78-7.78-4.21-4.26m-14.62-14.62L163 70.6l-2-1.95a2.2 2.2 0 0 0-3.13 0l-1.67 1.67-3.07 3.07-1.89 1.88a2.2 2.2 0 0 0 0 3.13l2 2 22.58 22.6"/><path class="construction-material-6" d="m166.77 74.38-.45.45a4 4 0 0 0 0 5.58l9.05 9a4 4 0 0 0 5.58 0l.44-.44m4.19 4.23-9.75 9.76h-.01m-22.59-22.6 9.75-9.76m-6.76-.29L140.41 56.7l-1.03 1.03 13.78 15.66m36.88 34.03 5.24 5.23m-.4 4.22 5-5a2.73 2.73 0 0 0-3.84 0l-.76.77-.4.4a2.71 2.71 0 0 0 0 3.83zm-11.96-6.82c-1.16 1.59-7.26 11.5-10 15.93a2 2 0 0 1-3.08.37l-.74-.74c-.87-.88-2.63-2.09.5-7.35a51 51 0 0 1 4.1-8.88c1.72-3 3.22-5.31 3.22-5.31l-12.62 4s-2 1-2 2 8.37-.08 11.42-.73m-5.82-20.63 2.49 2.49m1.42 1.43.61.59m1.23 1.25 3.85 3.84"/><path class="construction-material-5" d="M120.35 145.93v6.38l-25.42 24.77v-5.34l25.42-25.81z"/><path class="construction-material-3" d="m120.35 145.93-25.42 25.81h-8.74l6.14-6.05 20-19.76z"/><path class="construction-material-3" d="M111.69 128.3c7.86 6.72 3 15.33 3 15.33l-2.34 2.3-20 19.76a31.78 31.78 0 0 0 .68-3.27 9.29 9.29 0 0 0 .06-1.3 13.36 13.36 0 0 0-13.36-13.36 13.05 13.05 0 0 0-8.37 3l24.39-24.06a13.69 13.69 0 0 1 15.94 1.6z"/><path class="construction-material-5" d="m71.37 160.94 6.45-.42c-1.25 2.71.93 5.94 5.3 5.62s6.82-7.43 1.69-11.31-11.75 0-13 3.55a11.75 11.75 0 0 0-.44 2.56zm14.82 10.8h8.74v5.34s-9.66.32-16.11 0c-12.35-3.6-13-13.5-12.38-17.5a14.21 14.21 0 0 1 3.22-7.15l1.64-1.61a13.05 13.05 0 0 1 8.37-3 13.36 13.36 0 0 1 13.36 13.36 9.29 9.29 0 0 1-.06 1.3 31.78 31.78 0 0 1-.68 3.27z"/><path class="construction-material-3" d="M84.81 154.83c5.13 3.88 2.68 11-1.69 11.31s-6.55-2.91-5.3-5.62l-6.45.42a11.75 11.75 0 0 1 .49-2.56c1.2-3.55 7.81-7.38 12.95-3.55z"/><path class="construction-material-6" d="M71.34 150.78a13.05 13.05 0 0 1 8.37-3 13.36 13.36 0 0 1 13.36 13.36 9.29 9.29 0 0 1-.06 1.3 31.78 31.78 0 0 1-.68 3.27m-22.66-13.3a13.84 13.84 0 0 1 1.64-1.61m.06 10.14h-.06"/><path class="construction-material-6" d="M71.37 160.94a11.75 11.75 0 0 1 .49-2.56c1.2-3.55 7.81-7.43 13-3.55s2.68 11-1.69 11.31-6.55-2.91-5.3-5.62z"/><path class="construction-material-6" d="M69.66 152.43a14.21 14.21 0 0 0-3.22 7.15c-.58 4 0 13.9 12.38 17.5 6.45.32 16.11 0 16.11 0v-5.34H80.22c-3.69 0-9.36-4.3-8.85-10.8"/><path class="construction-material-6" d="m86.19 171.74 6.14-6.05 20-19.76 2.34-2.3s4.87-8.61-3-15.33a13.69 13.69 0 0 0-15.94-1.6l-24.39 24.08h0l-1.64 1.61v0"/><path class="construction-material-6" d="M112.34 145.93h8.01v6.38l-25.42 24.77m0-5.34 25.42-25.81m46.41-71.55 14.63 14.63"/></svg>