<svg xmlns="http://www.w3.org/2000/svg" id="Layer_1" data-name="Layer 1" viewBox="57.1 42.53 168.4 174.36"><defs><style>.cooling-heating-3{fill:#fff}.cooling-heating-4{fill:var(--chakra-colors-primary-400)}.cooling-heating-5{fill:var(--chakra-colors-primary-50)}.cooling-heating-6{fill:none;stroke:var(--chakra-colors-primary-800);stroke-miterlimit:10}</style></defs><path d="m120.22 215 .23-1.12c2 .42 4 .78 6 1l-.16 1.14c-2.04-.25-4.07-.61-6.07-1.02zm-4.48-1.08c-2-.52-3.95-1.13-5.86-1.79l.37-1.08c1.9.65 3.84 1.24 5.79 1.76zm15.09 2.66.1-1.14c2 .17 4 .28 6 .31v1.14c-2.01-.03-4.06-.14-6.1-.32zm10.73.28v-1.15c2-.07 4-.22 6-.44l.12 1.14c-2.02.21-4.08.36-6.12.44zm10.68-1.06-.19-1.13c2-.32 4-.71 5.93-1.17l.27 1.11c-1.98.45-4.01.86-6.01 1.18zm10.45-2.37-.32-1.1c1.93-.56 3.87-1.2 5.75-1.89l.4 1.07c-1.91.7-3.88 1.34-5.83 1.91zm-84.1-20.2c-1.48-1.4-2.93-2.87-4.32-4.37l.84-.77c1.37 1.48 2.8 2.93 4.26 4.31zm94.2 16.57-.45-1c1.85-.79 3.69-1.67 5.47-2.59l.53 1c-1.81.89-3.68 1.79-5.55 2.58zM71.24 185.39c-1.3-1.57-2.56-3.2-3.74-4.86l.92-.67c1.18 1.64 2.42 3.25 3.7 4.8zM182.35 205l-.58-1c1.74-1 3.45-2.11 5.12-3.25l.65.95c-1.68 1.12-3.43 2.22-5.19 3.3zM64.91 176.73a87.088 87.088 0 0 1-3.12-5.28l1-.55c1 1.77 2 3.53 3.09 5.21zM191.27 199l-.69-.91c1.61-1.22 3.17-2.51 4.69-3.84l.75.86c-1.53 1.31-3.13 2.62-4.75 3.89zM59.69 167.35a90.19 90.19 0 0 1-2.46-5.62l1.07-.42c.74 1.87 1.56 3.73 2.43 5.54zm139.7 24.59-.81-.82a86.66 86.66 0 0 0 4.18-4.39l.86.76a98.5 98.5 0 0 1-4.23 4.45zm7.19-8-.89-.71c1.26-1.57 2.47-3.21 3.6-4.87l1 .64a124.4 124.4 0 0 1-3.71 5zm17.67-49.67c.11-2 .15-4 .11-6h1.14c0 2 0 4.09-.11 6.13zM59.59 95l-1.05-.46c.83-1.87 1.72-3.73 2.67-5.53l1 .53c-.93 1.77-1.81 3.6-2.62 5.46zm164.58 28.72c-.14-2-.35-4-.63-6l1.13-.16c.29 2 .5 4.08.64 6.1zM64.43 85.58l-1-.59c1-1.75 2.16-3.48 3.33-5.16l1 .66a76.65 76.65 0 0 0-3.33 5.09zm158.35 27.64c-.38-2-.84-4-1.36-5.89l1.1-.3c.53 2 1 4 1.39 6zM70.43 76.83l-.9-.71c1.24-1.6 2.57-3.19 3.94-4.71l.86.77c-1.33 1.5-2.67 3.06-3.9 4.65zM220.12 103a85.31 85.31 0 0 0-2.09-5.67l1.06-.43c.77 1.88 1.48 3.82 2.11 5.75zM77.45 68.89l-.8-.81c1.44-1.44 2.95-2.85 4.49-4.18l.74.86c-1.52 1.31-3.01 2.7-4.43 4.13zm138.76 24.26a87.88 87.88 0 0 0-2.76-5.38l1-.56c1 1.77 1.94 3.61 2.8 5.45zM85.4 61.87l-.7-.9a76.61 76.61 0 0 1 5-3.6l.63 1c-1.7 1.08-3.33 2.26-4.93 3.5zm125.72 22a84.53 84.53 0 0 0-3.4-5l.92-.68c1.21 1.65 2.36 3.36 3.45 5.08zm-87.37-39-.2-1.13c2-.35 4-.63 6.07-.83l.12 1.14c-2 .23-4.02.49-5.99.84zm57 10c-1.74-1-3.55-1.92-5.37-2.79l.5-1c1.84.88 3.67 1.83 5.44 2.83zm-46.51-11.1v-1.14c2-.1 4.1-.12 6.13-.07v1.14c-2.06-.07-4.1-.05-6.11.04zm37 6.47c-1.85-.77-3.77-1.48-5.68-2.11l.37-1.09c1.93.64 3.86 1.36 5.75 2.14zm-26.4-6.3.09-1.14c2 .15 4.08.38 6.1.68l-.17 1.13c-1.98-.32-4-.55-6.01-.7zm16.39 2.86c-2-.53-3.93-1-5.9-1.4l.23-1.12c2 .4 4 .88 6 1.43z" style="fill:var(--chakra-colors-primary-800)"/><circle cx="139.02" cy="129.41" r="67.05" style="fill:var(--chakra-colors-primary-100)"/><path class="cooling-heating-3" d="M143.61 163.34a15.93 15.93 0 0 0 2.06 3.7 16.29 16.29 0 0 0 27.73-2.68 15.67 15.67 0 0 0 1.33-4.14 16.15 16.15 0 0 0 .26-2.88c0-.47 0-.93-.06-1.39a16.24 16.24 0 0 0-3-8.06 16.27 16.27 0 0 0-2.88-3.1l2.51-.86s-.78-3.34-1.47-6.26a5.6 5.6 0 0 0-5.44-4.31h-12a5.6 5.6 0 0 0-5.49 4.54l-1 5.41 1.6 2c-.33.31-.65.62-.95.95a15.86 15.86 0 0 0-3.07 4.73 16 16 0 0 0-1.27 5.41v1a15.65 15.65 0 0 0 .15 2.18 15.35 15.35 0 0 0 .99 3.76zm1.39 17.27a3.55 3.55 0 0 0-2 3 2.41 2.41 0 0 1-2.47 2.1c-2.55-.1-6.12-.24-6.12-.27s2.24-44.5 2.49-47.12 2.16-4.61 5.84-5l1.29-.22a9.4 9.4 0 0 1 7.1-3.23h15.37a9.4 9.4 0 0 1 7.6 3.86l.93-.41c3.67.37 5.58 2.36 5.83 5s2.47 47.08 2.5 47.12-3.56.17-6.12.27a2.42 2.42 0 0 1-2.48-2.1 3.53 3.53 0 0 0-2-3zm33-7a3.68 3.68 0 1 0-3.68 3.57 3.62 3.62 0 0 0 3.73-3.58zm-34.88 3.57a3.57 3.57 0 1 0-3.69-3.55 3.63 3.63 0 0 0 3.74 3.54z"/><path class="cooling-heating-4" d="M174.37 170a3.57 3.57 0 1 1-3.68 3.56 3.62 3.62 0 0 1 3.68-3.56z"/><path class="cooling-heating-5" d="M174.93 156c0 .46.06.92.06 1.39a16.15 16.15 0 0 1-.26 2.88c-4 .91-11.3-.69-16.56-3.35-9.52-4.68-14.41-1.5-15.68-.48a16 16 0 0 1 1.27-5.41c1-.46 5.73-2.41 15.13 2.09 9.75 4.09 15.01 3.41 16.04 2.88z"/><path class="cooling-heating-5" d="M174.08 152a15.69 15.69 0 0 1 .85 4c-1 .58-6.29 1.26-16-2.88-9.4-4.5-14.12-2.55-15.13-2.09a15.86 15.86 0 0 1 3.07-4.73c1-.31 8.5.39 14.43 3.38a26 26 0 0 0 12.78 2.32zm.65 8.22a15.67 15.67 0 0 1-1.33 4.14c-4.21 1-10.66-1.33-14.79-3.46-8-4.1-14.66-1.92-16-1.38a15.65 15.65 0 0 1-.15-2.18v-1c1.27-1 6.16-4.2 15.68.48 5.29 2.71 12.63 4.31 16.59 3.4z"/><path class="cooling-heating-5" d="M174.08 152a26 26 0 0 1-12.82-2.36c-5.93-3-13.45-3.69-14.43-3.38.3-.33.62-.64.95-.95a16.15 16.15 0 0 1 4.94-3.07c1.05.76 11.56 4.71 13.4 5s5.83.64 5.83.64a15.82 15.82 0 0 1 2.13 4.12zm-15.47 8.9c4.13 2.13 10.58 4.42 14.79 3.46a16.35 16.35 0 0 1-2.91 4.2 35 35 0 0 1-13.27-4 18.16 18.16 0 0 0-13.61-1.24 15.35 15.35 0 0 1-1-3.82c1.39-.5 8.01-2.7 16 1.4z"/><path class="cooling-heating-3" d="m171.58 143.93-2.51.86a16.31 16.31 0 0 0-21.29.51l-1.6-2 1-5.41a5.6 5.6 0 0 1 5.49-4.54h12a5.6 5.6 0 0 1 5.44 4.31c.69 2.93 1.47 6.27 1.47 6.27z"/><path class="cooling-heating-5" d="M169.07 144.79a16.27 16.27 0 0 1 2.88 3.1s-4-.32-5.83-.64-12.35-4.26-13.4-5a16.27 16.27 0 0 1 16.35 2.56zm1.42 23.77a16.15 16.15 0 0 1-4.51 3.33c-2.68-.9-7.89-2.91-9.83-3.75a18 18 0 0 0-10.48-1.1 15.93 15.93 0 0 1-2.06-3.7 18.16 18.16 0 0 1 13.61 1.24 35 35 0 0 0 13.27 3.98z"/><path class="cooling-heating-5" d="M156.15 168.14c1.94.84 7.15 2.85 9.83 3.75a16.26 16.26 0 0 1-20.31-4.89 18 18 0 0 1 10.48 1.14z"/><path class="cooling-heating-4" d="M146.83 173.59a3.68 3.68 0 1 1-3.69-3.55 3.63 3.63 0 0 1 3.69 3.55z"/><path class="cooling-heating-6" d="M142.76 133.37c-3.68.37-5.58 2.36-5.84 5s-2.46 47.08-2.49 47.12 3.57.17 6.12.27a2.41 2.41 0 0 0 2.47-2.1 3.55 3.55 0 0 1 2-3M175 133.37c3.67.37 5.58 2.36 5.83 5s2.47 47.08 2.5 47.12-3.56.17-6.12.27a2.42 2.42 0 0 1-2.48-2.1 3.53 3.53 0 0 0-2-3"/><path class="cooling-heating-6" d="M140.6 143.93s.64-3.15 1.32-6.46a9.42 9.42 0 0 1 9.23-7.55h15.35a9.43 9.43 0 0 1 9.23 7.55l1.31 6.46"/><path class="cooling-heating-6" d="m146.18 143.31 1-5.41a5.6 5.6 0 0 1 5.49-4.54h12a5.6 5.6 0 0 1 5.44 4.31c.69 2.92 1.47 6.26 1.47 6.26M143.14 170a3.57 3.57 0 1 1-3.66 3.58 3.61 3.61 0 0 1 3.66-3.58zm31.23 0a3.57 3.57 0 1 1-3.68 3.56 3.62 3.62 0 0 1 3.68-3.56zm-35.9 13.93a3.57 3.57 0 0 1 3.57-3.32h33.4a3.38 3.38 0 0 1 3.38 3.2"/><path class="cooling-heating-6" d="M152.72 142.23a16.2 16.2 0 0 1 19.28 5.66 16.24 16.24 0 0 1 3 8.06c0 .46.06.92.06 1.39a16.15 16.15 0 0 1-.26 2.88 15.67 15.67 0 0 1-1.33 4.14 16.35 16.35 0 0 1-2.91 4.2 16.26 16.26 0 0 1-24.89-1.56 15.93 15.93 0 0 1-2.06-3.7 15.35 15.35 0 0 1-1-3.82 15.65 15.65 0 0 1-.15-2.18v-1a16 16 0 0 1 1.27-5.41 15.86 15.86 0 0 1 3.07-4.73c.3-.33.62-.64.95-.95a16.15 16.15 0 0 1 4.97-2.98z"/><path class="cooling-heating-6" d="M146.83 146.25c1-.31 8.5.39 14.43 3.38a26 26 0 0 0 12.82 2.37m-21.36-9.77c1.05.76 11.56 4.71 13.4 5s5.83.64 5.83.64M143.76 151c1-.46 5.73-2.41 15.13 2.09 9.75 4.14 15 3.46 16 2.88m-32.4.42c1.27-1 6.16-4.2 15.68.48 5.26 2.66 12.6 4.26 16.56 3.35m-32.24-.65h.12c1.34-.54 8-2.72 16 1.38 4.13 2.13 10.58 4.42 14.79 3.46m-29.8-1.07a18.16 18.16 0 0 1 13.61 1.24 35 35 0 0 0 13.27 4M145.67 167a18 18 0 0 1 10.48 1.1c1.94.84 7.15 2.85 9.83 3.75l.14.05"/><path class="cooling-heating-3" d="M174.6 99.27a3.81 3.81 0 0 0 .17-1.13V73.52a3.7 3.7 0 0 0-2.44-3.14 3.52 3.52 0 0 0-1.26-.22H137.9a3.79 3.79 0 0 0-.67.06 3.73 3.73 0 0 0-3 3.4 2.17 2.17 0 0 0 0 .26v24.26a3.57 3.57 0 0 0 .21 1.23 3.73 3.73 0 0 0 2.91 2.45 3.08 3.08 0 0 0 .61.05h33.15a3.64 3.64 0 0 0 1.32-.24 3.76 3.76 0 0 0 2.17-2.36zm12.33-31.21v36.5a3.74 3.74 0 0 1-3.73 3.73h-48.62a3.72 3.72 0 0 1-3.72-3.73v-36.5a3.72 3.72 0 0 1 3.72-3.72h48.62a3.74 3.74 0 0 1 3.73 3.72zm-3.25 6a2.62 2.62 0 1 0-2.62 2.94 2.77 2.77 0 0 0 2.62-2.93z"/><path class="cooling-heating-4" d="M181.06 71.17a2.91 2.91 0 1 1-2.6 2.9 2.77 2.77 0 0 1 2.6-2.9zm1.35 37.15v3.44a2.14 2.14 0 0 1-2.14 2.14h-1.7a2.14 2.14 0 0 1-2.14-2.14v-3.44z"/><path class="cooling-heating-5" d="M174.77 95.34v2.8a3.81 3.81 0 0 1-.17 1.13h-2.23v-3.93h2.41z"/><path class="cooling-heating-4" d="M174.77 90.55v4.79h-2.41v-4.79h2.42z"/><path class="cooling-heating-5" d="M174.77 86v4.54h-2.42V86h2.43zm0-4.73V86h-2.43v-4.73h2.44z"/><path class="cooling-heating-4" d="M174.77 76.47v4.8h-2.44v-4.79h2.44z"/><path class="cooling-heating-5" d="M174.77 73.88v2.59h-2.44v-3h2.43c0 .17.01.29.01.41z"/><path class="cooling-heating-5" d="M174.75 73.52h-2.43v-3.14a3.7 3.7 0 0 1 2.43 3.14zm-2.38 25.76h2.23a3.76 3.76 0 0 1-2.23 2.36zm0 0v2.35a3.64 3.64 0 0 1-1.32.24h-2.73v-2.58zm-.01-3.94v3.94h-4.06v-6.12h1.7a2.39 2.39 0 0 0 2.36 2.19z"/><path class="cooling-heating-4" d="M170 93.15a1.27 1.27 0 0 1 0-.2 2.4 2.4 0 0 1 .7-1.7 2.43 2.43 0 0 1 1.66-.7v4.79a2.39 2.39 0 0 1-2.36-2.19z"/><path class="cooling-heating-5" d="M172.34 86v4.53a2.43 2.43 0 0 0-1.66.7A2.4 2.4 0 0 0 170 93a1.27 1.27 0 0 0 0 .2h-1.69v-7.13zm-.01-4.73V86h-4.05v-7.15H170a2.36 2.36 0 0 0 .7 1.69 2.44 2.44 0 0 0 1.63.73z"/><path class="cooling-heating-4" d="M170 78.87a2.39 2.39 0 0 1 .7-1.69 2.42 2.42 0 0 1 1.64-.7v4.79a2.44 2.44 0 0 1-1.64-.71 2.36 2.36 0 0 1-.7-1.69z"/><path class="cooling-heating-5" d="M172.32 73.53v3a2.42 2.42 0 0 0-1.64.7 2.39 2.39 0 0 0-.7 1.69h-1.72v-5.38zm-.01-3.15v3.15h-4v-3.37h2.79a3.52 3.52 0 0 1 1.21.22zm-4 28.91v2.58h-5.8V99.3zm0-6.13v6.13l-5.8.01-.01-6.13h2.19v1.39h1.66v-1.39l1.96-.01z"/><path class="cooling-heating-5" d="m168.29 86.03.02 7.13-1.96.01v-1.63h-1.66v1.63h-2.19l-.01-7.12 5.8-.02zm-.01-7.15.01 7.15-5.8.02-.02-7.16h2.22v1.39h1.66v-1.39l1.93-.01z"/><path class="cooling-heating-5" d="m168.27 73.54.01 5.34-1.93.01v-1.62h-1.66v1.62h-2.22v-5.34l5.8-.01zm-.01-3.38v3.38h-5.8v-3.38z"/><path class="cooling-heating-4" d="M166.35 93.17v1.39h-1.66v-3.02h1.66v1.63zm0-14.28v1.39h-1.66v-3.01h1.66v1.62z"/><path class="cooling-heating-5" d="M162.51 99.3v2.57h-5.15v-2.55z"/><path class="cooling-heating-5" d="m162.5 93.17.01 6.13-5.15.02-.01-6.13h1.82v1.37h1.66v-1.38l1.67-.01z"/><path class="cooling-heating-5" d="m162.49 86.05.01 7.12-1.67.01v-1.64h-1.66v1.65h-1.82l-.01-7.13 5.15-.01zm-.02-7.16.02 7.16-5.15.01-.02-7.15 1.85-.01v1.38h1.66V78.9l1.64-.01z"/><path class="cooling-heating-5" d="M162.47 73.55v5.34l-1.64.01v-1.63h-1.66v1.63l-1.85.01-.01-5.34 5.16-.02zm-.01-3.39v3.39h-5.16v-3.39z"/><path class="cooling-heating-4" d="M160.83 93.18v1.38h-1.66v-3.02h1.66v1.64zm0-14.28v1.38h-1.66v-3.01h1.66v1.63z"/><path class="cooling-heating-5" d="M157.36 99.32v2.55h-5.16v-2.54z"/><path class="cooling-heating-5" d="m157.35 93.19.01 6.13-5.15.01-.01-6.13h1.44v1.36h1.66V93.2l2.05-.01z"/><path class="cooling-heating-5" d="m157.34 86.06.01 7.13-2.05.01v-1.66h-1.66v1.66h-1.44l-.02-7.13 5.16-.01z"/><path class="cooling-heating-5" d="m157.32 78.91.02 7.15-5.16.01-.02-7.15h1.48v1.36h1.66v-1.36l2.02-.01z"/><path class="cooling-heating-5" d="m157.31 73.57.01 5.34-2.02.01v-1.65h-1.66v1.65h-1.48l-.01-5.34 5.16-.01zm-.01-3.41v3.41h-5.16v-3.41z"/><path class="cooling-heating-4" d="M155.3 93.2v1.36h-1.66v-3.02h1.66v1.66zm0-14.28v1.36h-1.66v-3.01h1.66v1.65z"/><path class="cooling-heating-5" d="M152.21 99.33v2.54h-5.8v-2.53zm-.01-6.13.01 6.13-5.8.01-.01-6.11 2.04-.01v1.34h1.65v-1.35l2.11-.01z"/><path class="cooling-heating-5" d="m152.18 86.07.02 7.13-2.11.01v-1.67h-1.65v1.68l-2.04.01-.02-7.15 5.8-.01z"/><path class="cooling-heating-5" d="m152.16 78.92.02 7.15-5.8.01-.02-7.13 2.08-.01v1.34h1.65v-1.35l2.07-.01z"/><path class="cooling-heating-5" d="m152.15 73.58.01 5.34-2.07.01v-1.66h-1.65v1.67l-2.08.01-.01-5.36 5.8-.01zm-.01-3.42v3.42h-5.8v-3.42z"/><path class="cooling-heating-4" d="M150.09 93.21v1.35h-1.65v-3.02h1.65v1.67zm0-14.28v1.35h-1.65v-3.01h1.65v1.66z"/><path class="cooling-heating-5" d="M146.41 99.34v2.53h-5.16v-2.51zm-.01-6.11.01 6.11-5.17.02v-6.12h1.67v1.32h1.66v-1.32l1.83-.01z"/><path class="cooling-heating-5" d="m146.38 86.08.02 7.15-1.83.01v-1.7h-1.66v1.7h-1.67l-.02-7.14 5.16-.02zm-.02-7.13.02 7.13-5.16.02-.01-7.14h1.7v1.32h1.66v-1.32l1.79-.01z"/><path class="cooling-heating-5" d="m146.35 73.59.01 5.36-1.79.01v-1.69h-1.66v1.69h-1.7l-.01-5.35 5.15-.02zm-.01-3.43v3.43h-5.15v-3.43z"/><path class="cooling-heating-4" d="M144.57 93.24v1.32h-1.66v-3.02h1.66v1.7zm0-14.28v1.32h-1.66v-3.01h1.66v1.69zm-3.32 29.36v3.44a2.14 2.14 0 0 1-2.14 2.14h-1.7a2.14 2.14 0 0 1-2.14-2.14v-3.44z"/><path class="cooling-heating-5" d="M141.24 99.36v2.51h-3.34a3.08 3.08 0 0 1-.61-.05v-2.46zm0-6.12v6.12h-4v-4.13a2.31 2.31 0 0 0 1-.59 2.41 2.41 0 0 0 .68-1.39zm-.02-7.14v7.14h-2.31v-.3a2.4 2.4 0 0 0-.7-1.7 2.31 2.31 0 0 0-1-.59v-4.54zm-.01-7.1v7.1h-4v-4.93a2.36 2.36 0 0 0 1-.61A2.33 2.33 0 0 0 139 79zm-.01-5.39V79H139v-.1a2.39 2.39 0 0 0-.7-1.69 2.42 2.42 0 0 0-1-.61v-2.98zm-.01-3.45v3.45h-4v-3.4a3.79 3.79 0 0 1 .67-.06z"/><path class="cooling-heating-4" d="M139 79a2.33 2.33 0 0 1-.7 1.59 2.36 2.36 0 0 1-1 .61v-4.6a2.42 2.42 0 0 1 1 .61 2.39 2.39 0 0 1 .7 1.69zm-.07 14.25a2.41 2.41 0 0 1-.68 1.39 2.31 2.31 0 0 1-1 .59v-4.57a2.31 2.31 0 0 1 1 .59A2.4 2.4 0 0 1 139 93c0 .05-.06.15-.07.25z"/><path class="cooling-heating-5" d="M137.29 99.36v2.46a3.73 3.73 0 0 1-2.91-2.45zm-.01-4.13v4.13h-2.91a3.57 3.57 0 0 1-.21-1.23v-2.8h2.38a2.58 2.58 0 0 0 .74-.1z"/><path class="cooling-heating-4" d="M137.27 90.66v4.57a2.58 2.58 0 0 1-.73.11h-2.37v-4.79h2.37a2.51 2.51 0 0 1 .73.11z"/><path class="cooling-heating-5" d="M137.26 86.11v4.55a2.51 2.51 0 0 0-.72-.11h-2.37v4.79-9.22zm-.01-4.94v4.94h-3.09v-4.84h2.38a2.32 2.32 0 0 0 .71-.1z"/><path class="cooling-heating-4" d="M137.25 76.57v4.6a2.32 2.32 0 0 1-.7.1h-2.37v-4.8h2.37a2.75 2.75 0 0 1 .7.1z"/><path class="cooling-heating-5" d="M137.24 73.62v2.95a2.75 2.75 0 0 0-.7-.1h-2.37v4.8-7.39a2.17 2.17 0 0 1 0-.26h3.06zm-.01-3.4v3.4h-3.06a3.73 3.73 0 0 1 3.06-3.4z"/><path class="cooling-heating-4" d="M127.72 100.65v-.85a1.71 1.71 0 0 1 1.7-1.71h1.43v5.1h-1.43a1.7 1.7 0 0 1-1.7-1.7zm-1.2-25.71v1.23h-4.79v-1.23h4.79z"/><path class="cooling-heating-4" d="M124.13 79.84h-.07a1.66 1.66 0 0 1-1.19-.49 1.68 1.68 0 0 1-.49-1.19v-2h3.41v2a1.69 1.69 0 0 1-1.66 1.68z"/><path class="cooling-heating-6" d="M153.64 93.2v1.36h1.66V93.2m9.39-.03v1.39h1.66v-1.39"/><path class="cooling-heating-6" d="M185.83 65.43a3.71 3.71 0 0 0-2.63-1.09h-48.62a3.72 3.72 0 0 0-3.72 3.72v36.5a3.72 3.72 0 0 0 3.72 3.73h48.62a3.74 3.74 0 0 0 3.73-3.73v-36.5a3.73 3.73 0 0 0-1.1-2.63z"/><path class="cooling-heating-6" d="M137.25 81.17a2.36 2.36 0 0 0 1-.61A2.33 2.33 0 0 0 139 79v-.1a2.39 2.39 0 0 0-.7-1.69 2.42 2.42 0 0 0-1-.61m37.47 13.95v-9.28"/><path class="cooling-heating-6" d="M174.77 76.47v-2.95a3.7 3.7 0 0 0-2.44-3.14 3.52 3.52 0 0 0-1.26-.22H137.9a3.79 3.79 0 0 0-.67.06 3.73 3.73 0 0 0-3 3.4 2.17 2.17 0 0 0 0 .26v24.26a3.57 3.57 0 0 0 .21 1.23 3.73 3.73 0 0 0 2.91 2.45 3.08 3.08 0 0 0 .61.05h33.15a3.64 3.64 0 0 0 1.32-.24 3.76 3.76 0 0 0 2.23-2.36 3.81 3.81 0 0 0 .17-1.13v-2.8"/><path class="cooling-heating-6" d="M137.25 76.57a2.75 2.75 0 0 0-.7-.1h-2.37v4.8h2.37a2.32 2.32 0 0 0 .7-.1m32.75-2.3a2.39 2.39 0 0 1 .7-1.69 2.42 2.42 0 0 1 1.64-.7h2.44v4.8h-2.44a2.44 2.44 0 0 1-1.64-.71 2.36 2.36 0 0 1-.7-1.7zm-31.07 14.38v-.3a2.4 2.4 0 0 0-.7-1.7 2.31 2.31 0 0 0-1-.59 2.51 2.51 0 0 0-.72-.11h-2.37v4.79h2.37a2.58 2.58 0 0 0 .73-.11 2.31 2.31 0 0 0 1-.59 2.41 2.41 0 0 0 .69-1.39zm31.07-.1a1.27 1.27 0 0 1 0-.2 2.4 2.4 0 0 1 .7-1.7 2.43 2.43 0 0 1 1.66-.7h2.42v4.79h-2.41a2.39 2.39 0 0 1-2.37-2.19zm-32.71 8.72v-2.51l-.01-4.13m-.01-4.57-.01-4.55-.01-4.94m0-4.6-.01-2.96-.01-3.39v-.06m3.96 0 .01 3.45.01 5.35.01 7.14.02 7.14v6.12l.01 2.51m5.09-31.71.01 3.43.01 5.36.02 7.13.02 7.15.01 6.11v2.53m5.73-31.71.01 3.42.01 5.34.02 7.15.02 7.13.01 6.13v2.54m5.1-31.71v3.41l.01 5.34.02 7.15.01 7.13.01 6.13.01 2.55m5.09-31.71.01 3.39v5.34l.02 7.16.01 7.12.01 6.13.01 2.57m5.74-31.71.01 3.38.01 5.34.01 7.15.02 7.13v6.13l.01 2.58"/><path class="cooling-heating-6" d="M172.34 81.27v4.75l.01 4.53m.01 4.79.01 3.94v2.59m-.04-25.39-.01-2.95-.01-3.15v-.22"/><path class="cooling-heating-6" d="m134.35 73.62 2.89-.01h3.96l5.15-.02 5.8-.01 5.16-.01 5.16-.02 5.8-.01 4.05-.01 2.43-.01h.29m-41.06 12.59h3.28l3.96-.01 5.16-.02 5.8-.01 5.16-.01 5.15-.01 5.8-.02 4.05-.01 2.34-.01m-40.33 13.36h.03l2.91-.01h3.95l5.17-.02 5.8-.01 5.15-.01 5.15-.02 5.8-.01 4.06-.01 2.23-.01h.44m-10.35-6.1h-2.19l-1.67.01m-7.19.02h-1.44l-2.11.01m-11.3.04h.14l2.31-.01h1.67m1.66 0 1.83-.01 2.04-.01m6.86-.02 2.05-.01h1.82m7.18-.02 1.96-.01 1.69-.01h.16m-25.59-14.19 1.79-.01 2.08-.01m6.86-.02 2.02-.01 1.85-.01m10.85-.03h-.03l-1.71.01-1.93.01m-1.66 0h-2.22l-1.64.01m-7.19.02h-1.48l-2.07.01m-7.18.03h-1.7l-2.26.01h-.31m4.27-.01v-1.69h1.66v3.01h-1.66v-1.32zm0 14.28v-1.7h1.66v3.02h-1.66v-1.32zm5.53-14.3v-1.67h1.65v3.01h-1.65v-1.34z"/><path class="cooling-heating-6" d="M148.44 93.22v-1.68h1.65v3.02h-1.65v-1.34zm5.2-14.3v-1.65h1.66v3.01h-1.66v-1.36zm1.66 14.28v-1.66h-1.66v1.66m5.53-14.3v-1.63h1.66v3.01h-1.66V78.9zm0 14.29v-1.65h1.66v3.02h-1.66v-1.37zm5.52-14.3v-1.62h1.66v3.01h-1.66v-1.39zm1.66 14.28v-1.63h-1.66v1.63m16.37-22a2.91 2.91 0 1 1-2.6 2.9 2.77 2.77 0 0 1 2.6-2.9zm0 0v2.25m-39.81 34.9h-6v3.44a2.14 2.14 0 0 0 2.14 2.14h1.7a2.14 2.14 0 0 0 2.14-2.14zm41.16 0h-6v3.44a2.14 2.14 0 0 0 2.14 2.14h1.7a2.14 2.14 0 0 0 2.14-2.14zm-51.56-10.23h-1.43a1.71 1.71 0 0 0-1.7 1.71v1.69a1.7 1.7 0 0 0 1.7 1.7h1.43z"/><path class="cooling-heating-6" d="M124.13 79.23v.61c0 2.86.06 15 .09 19.28a1.53 1.53 0 0 0 1.53 1.53h2.71"/><path class="cooling-heating-6" d="M122.38 76.17v2a1.68 1.68 0 0 0 .49 1.19 1.66 1.66 0 0 0 1.19.49h.07a1.69 1.69 0 0 0 1.66-1.68v-2"/><path class="cooling-heating-6" d="M122.38 76.17h-.65v-1.23h4.79v1.23h-4.14zm.92-2.96v1.73m1.75-1.73v1.73"/><path class="cooling-heating-3" d="M78.44 146.06a16.1 16.1 0 0 0 4 .5 16.45 16.45 0 0 0 16.12-13.21 17.07 17.07 0 0 0 .31-3.22 16.42 16.42 0 0 0-12.42-15.94 16.22 16.22 0 0 0-4-.5 16.44 16.44 0 0 0-15.9 12.25 16 16 0 0 0-.55 4.19 16.43 16.43 0 0 0 12.44 15.93zm37.67-3.29v6a5.83 5.83 0 0 1-5.83 5.83H63.43a5.83 5.83 0 0 1-5.83-5.83V111.3a5.84 5.84 0 0 1 5.83-5.84h46.85a5.84 5.84 0 0 1 5.83 5.84v31.47z"/><path class="cooling-heating-5" d="M98.9 130.12a17.07 17.07 0 0 1-.31 3.22 7.44 7.44 0 0 1-12.15-.73h-.08a4.62 4.62 0 0 0-2-6.65 7.45 7.45 0 0 0 2.1-11.75 16.42 16.42 0 0 1 12.44 15.91z"/><path class="cooling-heating-5" d="M86.48 114.18a7.45 7.45 0 0 1-2.1 11.75 4.52 4.52 0 0 0-1.91-.42 4.64 4.64 0 0 0-4 2.31 7.45 7.45 0 0 0-11.89-1.89 16.44 16.44 0 0 1 15.9-12.25 16.22 16.22 0 0 1 4 .5zm-4.02 20.54a4.59 4.59 0 0 0 3.89-2.14h.08a7.44 7.44 0 0 0 12.15.73 16.45 16.45 0 0 1-16.12 13.21 16.1 16.1 0 0 1-4-.5 7.37 7.37 0 0 1-2.34-5.42 7.58 7.58 0 0 1 4-6.59 4.56 4.56 0 0 0 2.34.71z"/><path class="cooling-heating-4" d="M87.06 130.12a4.59 4.59 0 0 1-4.6 4.6 4.56 4.56 0 0 1-2.4-.67 4.61 4.61 0 0 1 2.41-8.54 4.52 4.52 0 0 1 1.91.42 4.61 4.61 0 0 1 2.68 4.19z"/><path class="cooling-heating-5" d="M77.85 130.12a4.61 4.61 0 0 0 2.2 3.93 7.58 7.58 0 0 0-4 6.59 7.37 7.37 0 0 0 2.34 5.42A16.43 16.43 0 0 1 66 130.12a16 16 0 0 1 .55-4.19 7.45 7.45 0 0 1 11.89 1.89 4.59 4.59 0 0 0-.59 2.3z"/><path class="cooling-heating-6" d="M116.11 118.33v-7a5.84 5.84 0 0 0-5.83-5.84H63.43a5.84 5.84 0 0 0-5.83 5.84v37.49a5.83 5.83 0 0 0 5.83 5.83h46.85a5.83 5.83 0 0 0 5.83-5.83v-30.49z"/><path class="cooling-heating-6" d="M98.58 133.35a16.45 16.45 0 0 1-16.12 13.21 16.1 16.1 0 0 1-4-.5A16.43 16.43 0 0 1 66 130.12a16 16 0 0 1 .55-4.19 16.44 16.44 0 0 1 15.9-12.25 16.22 16.22 0 0 1 4 .5 16.42 16.42 0 0 1 12.45 15.94 17.07 17.07 0 0 1-.31 3.22"/><path class="cooling-heating-6" d="M80.05 134.05a4.61 4.61 0 0 1 2.41-8.54 4.52 4.52 0 0 1 1.91.42m.01 0a4.6 4.6 0 0 1-1.92 8.79 4.56 4.56 0 0 1-2.4-.67m6.41-19.88a7.45 7.45 0 0 1-2.1 11.75m21.77-7.7 9.97.11m-9.97 8.22 9.97.11m-9.97 7.67 9.97.11m-9.97 8.22 9.97.11"/><path class="cooling-heating-6" d="M66.57 125.93a7.45 7.45 0 0 1 11.89 1.89m-.01 18.25a7.37 7.37 0 0 1-2.34-5.42 7.58 7.58 0 0 1 4-6.59m18.48-.72a7.44 7.44 0 0 1-12.15-.73"/></svg>