<svg xmlns="http://www.w3.org/2000/svg" id="Layer_1" data-name="Layer 1" viewBox="34.45 33.65 194.21 195.84"><defs><style>.education-toy-3{fill:var(--chakra-colors-primary-400)}.education-toy-4{fill:var(--chakra-colors-primary-50)}.education-toy-5{fill:#fff}.education-toy-6{fill:none;stroke:var(--chakra-colors-primary-800);stroke-linecap:round;stroke-linejoin:round}</style></defs><path d="M135.21 229.49v-1.29c2.26-.06 4.54-.21 6.78-.43l.13 1.28c-2.3.22-4.62.37-6.91.44zm-5.17 0c-2.29-.05-4.6-.19-6.87-.4l.12-1.28c2.24.21 4.52.34 6.78.4zm17.18-1.09-.2-1.27c2.24-.34 4.49-.76 6.69-1.26l.28 1.25c-2.23.52-4.51.95-6.77 1.29zm11.78-2.53-.35-1.24c2.17-.61 4.35-1.31 6.48-2.08l.43 1.21a94.46 94.46 0 0 1-6.56 2.11zm11.38-4-.5-1.18c2.07-.87 4.14-1.83 6.16-2.86l.58 1.15c-2.04 1.02-4.15 2.02-6.24 2.9zm10.78-5.35-.64-1.11c2-1.13 3.9-2.34 5.77-3.6l.72 1.07a98.39 98.39 0 0 1-5.85 3.65zm-97.16.24c-2-1.13-4-2.35-5.87-3.62l.71-1.07c1.88 1.25 3.83 2.46 5.79 3.57zm107.21-6.87-.77-1c1.81-1.36 3.59-2.8 5.29-4.28l.84 1c-1.72 1.45-3.57 2.9-5.36 4.28zm-117.31.27c-1.83-1.37-3.64-2.82-5.38-4.31l.84-1c1.72 1.48 3.5 2.91 5.31 4.26zm126.48-8.09-.89-.93a94.79 94.79 0 0 0 4.72-4.89l1 .86c-1.57 1.7-3.21 3.37-4.83 4.96zm-135.68.3a93.317 93.317 0 0 1-4.81-4.93l1-.87c1.52 1.68 3.12 3.32 4.74 4.87zm143.83-9.19-1-.81c1.42-1.76 2.8-3.58 4.09-5.43l1 .73a68.816 68.816 0 0 1-4.09 5.51zm-152 .34c-1.44-1.77-2.85-3.61-4.17-5.48l1-.74c1.3 1.84 2.69 3.66 4.12 5.41zm159-10.16-1.09-.68c1.19-1.92 2.34-3.9 3.39-5.9l1.14.6a95.469 95.469 0 0 1-3.44 5.98zm-166.06.38a83.658 83.658 0 0 1-3.46-6l1.13-.6c1.07 2 2.22 4 3.42 5.87zm171.8-11-1.17-.54c1-2.05 1.85-4.16 2.65-6.28l1.2.46c-.81 2.15-1.72 4.29-2.68 6.37zM34.68 138.36c-.14-2-.21-4.09-.23-6.13v-.76h1.29v.75c0 2 .09 4.05.23 6.05zm1.2-12-1.29-.07c.12-2.29.33-4.6.61-6.87l1.27.16c-.27 2.26-.47 4.54-.59 6.8zm191.52-12.51c-.42-2.22-.91-4.46-1.48-6.64l1.24-.32c.58 2.21 1.08 4.47 1.5 6.73zm-190.17.71-1.23-.23c.4-2.25.89-4.52 1.45-6.73l1.24.31c-.58 2.19-1.06 4.42-1.46 6.65zm187.28-12.25c-.69-2.15-1.46-4.3-2.29-6.4l1.19-.48c.85 2.13 1.63 4.32 2.32 6.49zM40 103l-1.23-.38c.68-2.18 1.44-4.37 2.27-6.52l1.2.47c-.78 2.11-1.54 4.28-2.24 6.43zm180.21-11.77c-.94-2-2-4.09-3.05-6.07l1.12-.62c1.1 2 2.15 4.08 3.1 6.15zm-176 .63-1.17-.53c.94-2.08 2-4.16 3.06-6.18l1.13.61c-1.03 1.99-2.04 4.05-2.97 6.1zm170.33-11.1a97.463 97.463 0 0 0-3.78-5.65l1-.75c1.34 1.86 2.63 3.78 3.83 5.73zm-164.77.57-1.09-.67c1.19-2 2.46-3.89 3.79-5.75l1 .74c-1.21 1.84-2.47 3.76-3.65 5.68zm157.9-10.27a98.9 98.9 0 0 0-4.45-5.15l.94-.87c1.56 1.68 3.08 3.43 4.51 5.21zm-151.08.51-1-.8c1.42-1.79 2.93-3.55 4.47-5.24l.95.86c-1.49 1.67-3.01 3.41-4.37 5.18zm143.07-9.3a99.55 99.55 0 0 0-5.05-4.57l.83-1c1.76 1.48 3.47 3 5.11 4.62zM94 42.87l-.51-1.17c2.1-.91 4.26-1.76 6.41-2.51l.43 1.21c-2.13.75-4.26 1.6-6.33 2.47zm64.89-4.23c-2.17-.62-4.39-1.17-6.61-1.63l.27-1.26c2.24.47 4.49 1 6.69 1.65zm-53.71.2-.36-1.24c2.19-.64 4.44-1.21 6.68-1.7l.27 1.26a93.51 93.51 0 0 0-6.59 1.68zm42.09-2.75c-2.23-.34-4.5-.61-6.76-.8l.11-1.28c2.28.19 4.59.47 6.84.81zm-30.49.12-.2-1.27c2.25-.37 4.55-.66 6.83-.86l.12 1.28c-2.25.2-4.53.49-6.75.85zM135.42 35c-2.26-.07-4.55-.06-6.8 0l-.05-1.29c2.28-.08 4.6-.09 6.89 0z" style="fill:var(--chakra-colors-primary-800)"/><circle cx="135.63" cy="132.12" r="80.34" style="fill:var(--chakra-colors-primary-100)"/><path class="education-toy-3" d="m136.63 82.16 6.67 11.56h-13.34l6.67-11.56z"/><path class="education-toy-4" d="m141.84 66.96-2.65 2.5.56 3.59-3.2-1.74-3.25 1.63.68-3.57-2.56-2.59 3.61-.46 1.66-3.23 1.56 3.28 3.59.59zm-20.51 17.91c3.92 0 7.1 1.7 7.1 3.82s-3.18 3.83-7.1 3.83-7.1-1.72-7.1-3.83 3.18-3.82 7.1-3.82z"/><circle class="education-toy-5" cx="120.74" cy="68.69" r="5.5"/><path class="education-toy-5" d="m111.86 87.47-3.19-5.54h-6.4l-3.18 5.54 3.18 5.53h6.4zm9.47-2.6c-3.92 0-7.1 1.7-7.1 3.82s3.18 3.83 7.1 3.83 7.1-1.72 7.1-3.83-3.18-3.82-7.1-3.82zm25.34-25.15V96.9a1.92 1.92 0 0 1-1.92 1.93h-48a1.92 1.92 0 0 1-1.93-1.93V59.72a1.93 1.93 0 0 1 1.93-1.93h48a1.93 1.93 0 0 1 1.92 1.93zm-3.37 34-6.67-11.56L130 93.72zm-4.11-24.26 2.65-2.5-3.59-.59-1.56-3.28-1.69 3.23-3.61.46 2.61 2.59-.68 3.57 3.25-1.63 3.19 1.74zm-13-.77a5.5 5.5 0 1 0-5.5 5.49 5.5 5.5 0 0 0 5.55-5.49zm-15.31 5.9V62.78H99.12v11.81z"/><path class="education-toy-5" d="m108.67 81.93 3.19 5.54-3.19 5.53h-6.4l-3.18-5.53 3.18-5.54h6.4z"/><path class="education-toy-4" d="M99.12 62.78h11.81v11.81H99.12z"/><path class="education-toy-6" d="M144.75 98.83h-48a1.92 1.92 0 0 1-1.93-1.93V59.72a1.93 1.93 0 0 1 1.93-1.93h48a1.93 1.93 0 0 1 1.92 1.93V96.9a1.92 1.92 0 0 1-1.92 1.93z"/><path class="education-toy-6" d="M99.12 62.78h11.81v11.81H99.12z"/><circle class="education-toy-6" cx="120.74" cy="68.69" r="5.5"/><path class="education-toy-6" d="m138.25 66.37 3.59.59-2.65 2.5.56 3.59-3.2-1.74-3.25 1.63.68-3.57-2.56-2.59 3.61-.46 1.66-3.23 1.56 3.28zm-29.58 15.56h-6.4l-3.18 5.54 3.18 5.53h6.4l3.19-5.53-3.19-5.54zm19.76 6.76c0 2.11-3.18 3.83-7.1 3.83s-7.1-1.72-7.1-3.83 3.18-3.82 7.1-3.82 7.1 1.7 7.1 3.82zm8.2-6.53-6.67 11.56h13.34l-6.67-11.56z"/><path class="education-toy-5" d="M75.44 157.6v8.33H55.57v-23.25h6.66S60 137 65.57 137s3.43 5.68 3.43 5.68h6.44v8.39a4 4 0 0 0-1.14-.21h-.2c-1.13 0-2.58.53-2.58 3.55s1.36 3.49 2.48 3.47h.21a4 4 0 0 0 1.23-.28z"/><path class="education-toy-4" d="M84.54 148.29a7.16 7.16 0 0 0 1 .07c5.61 0 3.42-5.68 3.42-5.68h6.66v8.43a4.85 4.85 0 0 1 .87-.24 1.15 1.15 0 0 1 .26 0h.44c1.09 0 2.35.72 2.35 3.54s-1.22 3.44-2.29 3.47h-.41a4 4 0 0 1-1.22-.33v8.4h-20v-8.4l-.15.07v-.07a4.22 4.22 0 0 1-1.23.33H74c-1.12 0-2.48-.53-2.48-3.47s1.45-3.58 2.58-3.55h.2a4.3 4.3 0 0 1 1.14.27v-.06l.15.06v-8.43h6.56c-.13.36-1.7 4.74 2.07 5.51z"/><path class="education-toy-5" d="M75.61 119.42h6.71s-2.27-5.68 3.34-5.68 3.43 5.68 3.43 5.68h6.65v7.76s-4.89-2.62-4.89 3.88 4.89 4 4.89 4v7.64h-6.8s2.19 5.68-3.42 5.68a7.16 7.16 0 0 1-1-.07l-.32-.08c-3.73-.9-1.9-5.51-1.9-5.51h-6.65v-7.62c.57.28 4.83 2.07 4.83-4s-4.26-4.19-4.83-3.91v-7.72z"/><path class="education-toy-4" d="M115.56 134.47v8.23h-6.62c.11-.32 2-5.67-3.45-5.67s-3.47 5.34-3.35 5.67h-6.4V135s-4.89 2.52-4.89-4 4.89-3.88 4.89-3.88v-7.72h19.82v8s3.93-1.28 3.93 3.57-3.93 3.5-3.93 3.5zm-39.91-7.33c.57-.28 4.83-2.16 4.83 3.91s-4.26 4.29-4.83 4h-.06v7.64H69s2.18-5.69-3.43-5.69-3.34 5.68-3.34 5.68h-6.74v-8.22s-3.92 1.38-3.92-3.48 3.92-3.59 3.92-3.59v-8h20.1v7.75z"/><path class="education-toy-3" d="M95.74 142.7h6.4c-.12-.33-2.08-5.67 3.35-5.67s3.56 5.35 3.45 5.67h6.64v8.43s-3.92-1.7-3.92 3.27 3.92 3.13 3.92 3.13v8.4h-20v-8.37a4.47 4.47 0 0 0 1.22.3h.41c1.07 0 2.29-.7 2.29-3.47s-1.26-3.49-2.35-3.54h-.44a1.15 1.15 0 0 0-.26 0 3.27 3.27 0 0 0-.87.22v-8.37h.14z"/><path class="education-toy-6" d="M75.59 165.93v-8.4l-.15.07a4 4 0 0 1-1.23.26H74m-18.43-15.18v23.25h19.87m-1.14-15.07a4 4 0 0 1 1.14.21l.15.06v-8.43m19.95-.02h-6.6s2.19 5.68-3.42 5.68a7.16 7.16 0 0 1-1-.07m11.95 2.6a4.85 4.85 0 0 0-.87.24v-8.45m1.34 8.17h-.21m.5 7.02c1.07 0 2.29-.7 2.29-3.47s-1.26-3.49-2.35-3.54m-.34 7h.29m-1.52 8.07v-8.4a4 4 0 0 0 1.22.33"/><path class="education-toy-6" d="M75.44 142.68v8.45a4.3 4.3 0 0 0-1.14-.27h-.2c-1.13 0-2.58.53-2.58 3.55s1.36 3.49 2.48 3.47h.21a4.22 4.22 0 0 0 1.23-.33v8.4h20.1m-11.32-17.74c-3.77-.77-2.2-5.15-2.07-5.51h0-6.5m0-7.64v7.62H69s2.18-5.68-3.43-5.68-3.34 5.68-3.34 5.68h-6.74v-8.22s-3.92 1.38-3.92-3.48 3.92-3.59 3.92-3.59v-8h20.16v7.72m19.89 15.59h-.13v-.02m.33-23.23h19.82v8s3.93-1.28 3.93 3.57-3.93 3.48-3.93 3.48v8.23h-6.65 0c.11-.32 2-5.67-3.45-5.67s-3.47 5.34-3.35 5.67v0h-6.4"/><path class="education-toy-6" d="M84.73 148.32h-.19l-.32-.08c-3.73-.9-1.9-5.51-1.9-5.51h-6.73V135h.06c.57.28 4.83 2.07 4.83-4s-4.26-4.19-4.83-3.91h-.06v-7.75h6.73s-2.27-5.68 3.34-5.68 3.43 5.68 3.43 5.68h6.65v7.76s-4.89-2.62-4.89 3.88 4.89 4 4.89 4v7.66h-.2"/><path class="education-toy-6" d="M102.13 142.68h-6.59v.02m13.39-.02h6.62v8.45s-3.92-1.7-3.92 3.27 3.92 3.13 3.92 3.13v8.4h-20v-8.4h0a4.47 4.47 0 0 0 1.22.3h.41m-.01-6.97h-.44a1.15 1.15 0 0 0-.26 0 3.27 3.27 0 0 0-.87.22h0"/><path class="education-toy-3" d="M207.36 118.15a4.7 4.7 0 0 1 3.64 1.25 6.9 6.9 0 0 1 1.6 4.92c0 4.23-1.74 6.32-4.75 6.32-1.63 0-2-.53-2-2.12v-8.83c0-.65.05-1 .25-1.23a2 2 0 0 1 1.26-.31z"/><path class="education-toy-5" d="M205.76 128.52c0 1.59.41 2.12 2 2.12 3 0 4.75-2.09 4.75-6.32a6.9 6.9 0 0 0-1.6-4.92 4.7 4.7 0 0 0-3.59-1.25 2 2 0 0 0-1.35.31c-.2.2-.25.58-.25 1.23zm-3.09-8.32c0-1.87-.25-2-1.9-2.19v-.82h6.85c2.86 0 4.95.6 6.38 1.94a6.33 6.33 0 0 1 2 4.86 7 7 0 0 1-2.8 5.83 10.19 10.19 0 0 1-6.31 1.87h-6.14v-.82c1.69-.14 1.9-.34 1.9-2.19z"/><path class="education-toy-3" d="M200.77 118c1.65.14 1.9.32 1.9 2.19v8.48c0 1.85-.21 2-1.9 2.19v.82h6.14a10.19 10.19 0 0 0 6.31-1.87A7 7 0 0 0 216 124a6.33 6.33 0 0 0-2-4.86c-1.43-1.34-3.52-1.94-6.38-1.94h-6.85zm-2.8 16.8v-20.24h20.25v20.25z"/><path class="education-toy-5" d="M184.34 118.7a2.41 2.41 0 0 1 2.49 2.68c0 1.65-.78 2.56-2.89 2.56h-.87v-4.23c0-.47 0-.67.22-.83a2.15 2.15 0 0 1 1.05-.18z"/><path class="education-toy-3" d="M183.29 118.88c-.25.16-.22.36-.22.83v4.23h.87c2.11 0 2.89-.91 2.89-2.56a2.41 2.41 0 0 0-2.49-2.68 2.15 2.15 0 0 0-1.05.18zm7.48 9a4 4 0 0 1-2.15 3.39 8.89 8.89 0 0 1-4.24.93h-6.25v-.82c1.73-.18 1.91-.29 1.91-2.16v-8.51c0-1.87-.3-2.07-1.89-2.18v-.83h6.79a6.66 6.66 0 0 1 3.66.78A2.87 2.87 0 0 1 190 121c0 1.85-1.75 3-3.2 3.25 2.32.42 3.97 1.53 3.97 3.65zm-5.77 3.38c1.22 0 2.43-1.09 2.43-3.16s-1.1-3.19-3.59-3.19h-.78v4.28c.01 1.61.74 2.1 1.94 2.07z"/><path class="education-toy-5" d="M187.44 128.1c0 2.07-1.21 3.14-2.43 3.16s-1.94-.46-1.94-2.07v-4.28h.78c2.49 0 3.59 1.03 3.59 3.19z"/><path class="education-toy-5" d="M195.25 134.81H175v-20.25h20.24zM180 120.73v8.51c0 1.87-.18 2-1.91 2.16v.82h6.25a8.89 8.89 0 0 0 4.24-.93 4 4 0 0 0 2.15-3.39c0-2.12-1.65-3.23-4-3.67 1.45-.29 3.2-1.4 3.2-3.25a2.87 2.87 0 0 0-1.37-2.48 6.66 6.66 0 0 0-3.66-.78h-6.79v.83c1.63.11 1.89.31 1.89 2.18zm-19.77-26.42h20.25v20.25h-20.25zm2.81 9.14c0 3.55 2.47 7.41 8.48 7.41a19.4 19.4 0 0 0 4.1-.58 30.21 30.21 0 0 0 1.25-3.59l-.85-.34c-1.2 2.46-2.45 3.44-4.32 3.44-3.07 0-5.16-2.76-5.16-6.86 0-3.5 1.63-6.2 4.87-6.2a5.72 5.72 0 0 1 1.94.31c1.18.48 1.85 1.3 2.32 3l.89-.15c-.16-1-.31-2.65-.43-3.69a23 23 0 0 0-4.21-.54c-5.36.04-8.92 3.17-8.92 7.79z"/><path class="education-toy-3" d="M171.7 109.79c1.87 0 3.12-1 4.32-3.44l.85.34a30.21 30.21 0 0 1-1.25 3.59 19.4 19.4 0 0 1-4.1.58c-6 0-8.48-3.86-8.48-7.41 0-4.62 3.52-7.75 8.88-7.75a23 23 0 0 1 4.21.54c.12 1 .27 2.7.43 3.69l-.89.15c-.47-1.74-1.14-2.56-2.32-3a5.72 5.72 0 0 0-1.94-.31c-3.24 0-4.87 2.7-4.87 6.2 0 4.03 2.09 6.82 5.16 6.82z"/><path class="education-toy-4" d="m154.08 121.56 1.72 4.73h-3.56c.56-1.62 1.2-3.13 1.84-4.73z"/><path class="education-toy-3" d="M154.08 121.56c-.64 1.6-1.28 3.11-1.84 4.73h3.56zM160 129c.83 2.07 1 2.23 2.49 2.41v.82H156v-.82c1.41-.2 1.41-.45 1.1-1.41-.23-.67-.58-1.67-.92-2.56h-4.36c-.24.69-.55 1.54-.78 2.23-.46 1.4.07 1.58 1.84 1.74v.82h-5.51v-.82c1.4-.18 1.76-.38 2.52-2.25l4.64-11.54 1.07-.2c1.47 3.87 2.98 7.85 4.4 11.58z"/><path class="education-toy-4" d="M156.22 127.43c.34.89.69 1.89.92 2.56.31 1 .31 1.21-1.1 1.41v.82h6.48v-.82c-1.46-.18-1.66-.34-2.49-2.41-1.45-3.72-3-7.7-4.39-11.58l-1.07.2-4.64 11.54c-.76 1.87-1.12 2.07-2.52 2.25v.82h5.51v-.82c-1.77-.16-2.3-.34-1.84-1.74.23-.69.54-1.54.78-2.23zm-11.31 7.38v-20.25h20.24v20.25z"/><path class="education-toy-6" d="M160.23 114.56h-15.32v20.25h20.24v-20.25m9.86 0v20.25h20.24v-20.25h-14.77m0 0V94.31h-20.25v20.25h20.25zm17.49 0h20.25v20.24h-20.25z"/><path class="education-toy-5" d="M167.53 181.91v1.9h-4.63v-1.9a.26.26 0 0 1 .26-.26h4.11a.26.26 0 0 1 .26.26zm-12.32 1.9h14.56a.4.4 0 0 1 .4.4v10.24a.39.39 0 0 1-.4.4H144.7a.39.39 0 0 1-.39-.4v-10.24a.4.4 0 0 1 .39-.4h10.51zm4.63-1.88v1.88h-4.63v-1.88a.28.28 0 0 1 .28-.28h4.07a.28.28 0 0 1 .28.28zm-7.7-.14v2h-4.62v-2a.14.14 0 0 1 .14-.14H152a.14.14 0 0 1 .14.14z"/><path class="education-toy-6" d="M159.84 183.81h3.06m-10.76 0h3.07m12.32 0h2.24a.4.4 0 0 1 .4.4v10.24a.39.39 0 0 1-.4.4H144.7a.39.39 0 0 1-.39-.4v-10.24a.4.4 0 0 1 .39-.4h2.82m4.62 0h-4.62v-2a.14.14 0 0 1 .14-.14H152a.14.14 0 0 1 .14.14zm7.7 0h-4.63v-1.88a.28.28 0 0 1 .28-.28h4.07a.28.28 0 0 1 .28.28zm7.69 0h-4.63v-1.9a.26.26 0 0 1 .26-.26h4.11a.26.26 0 0 1 .26.26z"/><path class="education-toy-5" d="M141.67 181.91v1.9H137v-1.9a.26.26 0 0 1 .26-.26h4.11a.26.26 0 0 1 .3.26zm-12.32 1.9h14.56a.41.41 0 0 1 .4.4v10.24a.4.4 0 0 1-.4.4h-25.08a.39.39 0 0 1-.38-.4v-10.24a.4.4 0 0 1 .38-.4h10.52zm4.65-1.88v1.88h-4.63v-1.88a.28.28 0 0 1 .28-.28h4.07a.28.28 0 0 1 .28.28zm-7.72-.14v2h-4.63v-2a.15.15 0 0 1 .14-.14h4.35a.14.14 0 0 1 .14.14z"/><path class="education-toy-6" d="M133.98 183.81h3.06m-10.76 0h3.07m12.32 0h2.24a.41.41 0 0 1 .4.4v10.24a.4.4 0 0 1-.4.4h-25.08a.39.39 0 0 1-.38-.4v-10.24a.4.4 0 0 1 .38-.4h2.82m4.63 0h-4.63v-2a.15.15 0 0 1 .14-.14h4.35a.14.14 0 0 1 .14.14zm7.72 0h-4.63v-1.88a.28.28 0 0 1 .28-.28h4.07a.28.28 0 0 1 .28.28zm7.67 0H137v-1.9a.26.26 0 0 1 .26-.26h4.11a.26.26 0 0 1 .26.26z"/><path class="education-toy-4" d="M193.4 181.91v1.9h-4.63v-1.9a.26.26 0 0 1 .26-.26h4.11a.26.26 0 0 1 .26.26zm-12.33 1.9h14.56a.4.4 0 0 1 .4.4v10.24a.39.39 0 0 1-.4.4h-25.07a.39.39 0 0 1-.39-.4v-10.24a.4.4 0 0 1 .39-.4h10.51z"/><path class="education-toy-5" d="M185.7 181.93v1.88h-4.63v-1.88a.28.28 0 0 1 .28-.28h4.07a.28.28 0 0 1 .28.28zm-7.7-.14v2h-4.63v-2a.14.14 0 0 1 .14-.14h4.35a.15.15 0 0 1 .14.14z"/><path class="education-toy-6" d="M185.7 183.81h3.07m-10.76 0h3.06m12.33 0h2.23a.4.4 0 0 1 .4.4v10.24a.39.39 0 0 1-.4.4h-25.07a.39.39 0 0 1-.39-.4v-10.24a.4.4 0 0 1 .39-.4h2.82m4.62 0h-4.63v-2a.14.14 0 0 1 .14-.14h4.35a.15.15 0 0 1 .14.14zm7.7 0h-4.63v-1.88a.28.28 0 0 1 .28-.28h4.07a.28.28 0 0 1 .28.28zm7.7 0h-4.63v-1.9a.26.26 0 0 1 .26-.26h4.11a.26.26 0 0 1 .26.26z"/><path class="education-toy-5" d="M158.59 170.82v1.9H154v-1.9a.26.26 0 0 1 .26-.26h4.11a.26.26 0 0 1 .22.26z"/><path class="education-toy-4" d="M146.27 172.72h14.56a.4.4 0 0 1 .4.4v10.24a.39.39 0 0 1-.4.4h-25.08a.39.39 0 0 1-.38-.4v-10.24a.4.4 0 0 1 .38-.4h10.52zm4.63-1.88v1.88h-4.63v-1.88a.28.28 0 0 1 .28-.28h4.07a.28.28 0 0 1 .28.28zm-7.7-.14v2h-4.63v-2a.15.15 0 0 1 .14-.14h4.35a.14.14 0 0 1 .14.14z"/><path class="education-toy-6" d="M150.9 172.72h3.06m-10.76 0h3.07m12.32 0h2.24a.4.4 0 0 1 .4.4v10.24a.39.39 0 0 1-.4.4h-25.08a.39.39 0 0 1-.38-.4v-10.24a.4.4 0 0 1 .38-.4h2.82m4.63 0h-4.63v-2a.15.15 0 0 1 .14-.14h4.35a.14.14 0 0 1 .14.14zm7.7 0h-4.63v-1.88a.28.28 0 0 1 .28-.28h4.07a.28.28 0 0 1 .28.28zm7.69 0H154v-1.9a.26.26 0 0 1 .26-.26h4.11a.26.26 0 0 1 .26.26z"/><path class="education-toy-5" d="M184.45 170.82v1.9h-4.62v-1.9a.26.26 0 0 1 .26-.26h4.11a.26.26 0 0 1 .25.26zm-12.32 1.9h14.56a.4.4 0 0 1 .4.4v10.24a.39.39 0 0 1-.4.4h-25.07a.39.39 0 0 1-.39-.4v-10.24a.4.4 0 0 1 .39-.4h10.51zm4.63-1.88v1.88h-4.63v-1.88a.28.28 0 0 1 .28-.28h4.07a.28.28 0 0 1 .28.28zm-7.69-.14v2h-4.63v-2a.14.14 0 0 1 .14-.14h4.35a.15.15 0 0 1 .14.14z"/><path class="education-toy-6" d="M176.76 172.72h3.07m-10.76 0h3.06m12.32 0h2.24a.4.4 0 0 1 .4.4v10.24a.39.39 0 0 1-.4.4h-25.07a.39.39 0 0 1-.39-.4v-10.24a.4.4 0 0 1 .39-.4h2.82m4.63 0h-4.63v-2a.14.14 0 0 1 .14-.14h4.35a.15.15 0 0 1 .14.14zm7.69 0h-4.63v-1.88a.28.28 0 0 1 .28-.28h4.07a.28.28 0 0 1 .28.28zm7.69 0h-4.62v-1.9a.26.26 0 0 1 .26-.26h4.11a.26.26 0 0 1 .25.26z"/><path class="education-toy-5" d="M175.51 159.53v1.9h-4.63v-1.9a.26.26 0 0 1 .26-.26h4.11a.26.26 0 0 1 .26.26zm-12.32 1.9h14.56a.4.4 0 0 1 .4.4v10.24a.39.39 0 0 1-.4.4h-25.07a.39.39 0 0 1-.39-.4v-10.24a.4.4 0 0 1 .39-.4h10.51zm4.63-1.88v1.88h-4.63v-1.88a.28.28 0 0 1 .28-.28h4.07a.28.28 0 0 1 .28.28zm-7.7-.14v2h-4.62v-2a.14.14 0 0 1 .14-.14H160a.14.14 0 0 1 .12.14z"/><path class="education-toy-6" d="M167.82 161.43h3.06m-10.76 0h3.07m12.32 0h2.24a.4.4 0 0 1 .4.4v10.24a.39.39 0 0 1-.4.4h-25.07a.39.39 0 0 1-.39-.4v-10.24a.4.4 0 0 1 .39-.4h2.82m4.62 0h-4.62v-2a.14.14 0 0 1 .14-.14H160a.14.14 0 0 1 .14.14zm7.7 0h-4.63v-1.88a.28.28 0 0 1 .28-.28h4.07a.28.28 0 0 1 .28.28zm7.69 0h-4.63v-1.9a.26.26 0 0 1 .26-.26h4.11a.26.26 0 0 1 .26.26z"/></svg>