<svg xmlns="http://www.w3.org/2000/svg" id="Layer_1" data-name="Layer 1" viewBox="31.01 30.17 193.99 195.62"><defs><style>.cls-3{fill:#fff}.cls-4{fill:#2db5ff}.cls-5,.cls-8{fill:none;stroke:#0e4e91;stroke-linecap:round;stroke-linejoin:round}.cls-8{fill-rule:evenodd}</style></defs><path d="M131.65 225.79v-1.28c2.26-.07 4.55-.21 6.78-.43l.13 1.28c-2.31.22-4.62.37-6.91.43zm-5.16 0c-2.29-.06-4.6-.19-6.87-.41l.12-1.27c2.24.21 4.52.34 6.78.39zm17.15-1.09-.19-1.27c2.23-.34 4.48-.77 6.67-1.26l.29 1.25c-2.23.52-4.5.95-6.77 1.3zm11.77-2.55-.35-1.23a97.32 97.32 0 0 0 6.47-2.07l.44 1.2c-2.15.8-4.36 1.5-6.56 2.12zm11.37-4-.5-1.19c2.07-.87 4.14-1.83 6.15-2.85l.58 1.14c-2.01 1.09-4.14 2.06-6.23 2.95zm10.77-5.35-.64-1.11c2-1.13 3.89-2.33 5.76-3.59l.72 1.06a78.26 78.26 0 0 1-5.84 3.69zm-97.06.23c-2-1.13-3.95-2.35-5.86-3.62l.71-1.07c1.88 1.26 3.83 2.46 5.79 3.57zm107.1-6.86-.77-1c1.8-1.36 3.58-2.8 5.28-4.28l.84 1c-1.72 1.5-3.52 2.95-5.35 4.33zm-117.18.26a96.235 96.235 0 0 1-5.37-4.3l.83-1c1.72 1.48 3.5 2.91 5.31 4.25zm126.34-8.08-.89-.92a94.79 94.79 0 0 0 4.72-4.89l.95.86a81.002 81.002 0 0 1-4.78 5zm-135.54.31a101.61 101.61 0 0 1-4.8-4.93l1-.86c1.52 1.67 3.12 3.31 4.74 4.86zm143.67-9.18-1-.81c1.42-1.76 2.79-3.58 4.09-5.43l1.03.76c-1.28 1.9-2.68 3.75-4.12 5.53zM53 189.87a96.406 96.406 0 0 1-4.17-5.48l1.05-.74c1.3 1.84 2.69 3.66 4.11 5.41zm158.84-10.15-1.09-.68c1.19-1.92 2.33-3.9 3.39-5.89l1.13.6a80.183 80.183 0 0 1-3.39 5.97zM46 180.1a97.722 97.722 0 0 1-3.46-5.94l1.13-.61c1.06 2 2.21 4 3.41 5.87zm171.6-11-1.16-.55c1-2 1.84-4.15 2.64-6.26l1.2.45c-.8 2.16-1.7 4.26-2.67 6.38zM31.23 134.77c-.13-2-.21-4.09-.22-6.13v-.75h1.29v.74c0 2 .09 4.05.23 6.05zm1.2-12-1.29-.07c.13-2.28.33-4.59.61-6.86L33 116c-.25 2.27-.45 4.54-.57 6.8zm191.3-12.52c-.41-2.22-.9-4.45-1.47-6.63l1.24-.32c.57 2.21 1.08 4.47 1.5 6.72zM33.78 111l-1.26-.22c.4-2.26.88-4.52 1.44-6.73l1.25.31c-.55 2.18-1.03 4.41-1.43 6.64zm187.07-12.24a97.46 97.46 0 0 0-2.29-6.4l1.2-.47c.84 2.12 1.62 4.31 2.31 6.48zm-184.27.69-1.22-.38c.67-2.18 1.44-4.37 2.27-6.51l1.19.46a97.78 97.78 0 0 0-2.24 6.43zm180-11.76c-.94-2-2-4.09-3.05-6.06l1.12-.62c1.1 2 2.14 4.07 3.1 6.14zm-175.78.63-1.17-.53c.94-2.08 2-4.16 3.06-6.18l1.13.61c-1.08 2-2.09 4.05-3.02 6.1zm170.14-11.09a100.77 100.77 0 0 0-3.78-5.64l1-.75c1.34 1.85 2.63 3.78 3.83 5.72zm-164.58.57-1.1-.67c1.19-1.95 2.47-3.88 3.79-5.75l1.05.75c-1.31 1.87-2.57 3.75-3.74 5.67zm157.72-10.26c-1.42-1.76-2.91-3.48-4.44-5.14l.94-.87c1.55 1.68 3.07 3.43 4.5 5.21zm-150.92.51-1-.8c1.42-1.78 2.92-3.55 4.46-5.24l1 .87a82.91 82.91 0 0 0-4.46 5.17zm142.91-9.29c-1.61-1.57-3.3-3.11-5-4.56l.83-1c1.75 1.47 3.46 3 5.1 4.62zM90.49 39.39 90 38.21c2.09-.91 4.25-1.75 6.4-2.51l.43 1.21c-2.15.75-4.27 1.58-6.34 2.48zm64.81-4.24c-2.17-.61-4.39-1.16-6.59-1.62l.26-1.26c2.24.47 4.48 1 6.68 1.65zm-53.64.2-.36-1.23c2.19-.64 4.43-1.21 6.67-1.7l.27 1.26a93.09 93.09 0 0 0-6.58 1.67zm42-2.74c-2.22-.34-4.49-.61-6.74-.8l.11-1.27c2.28.19 4.57.46 6.83.81zm-30.45.12-.2-1.27c2.25-.36 4.55-.65 6.83-.86l.11 1.28c-2.22.2-4.48.49-6.71.85zm18.62-1.21c-2.26-.07-4.54-.06-6.79 0v-1.28c2.28-.09 4.59-.1 6.88 0z" style="fill:#0e4e91"/><circle cx="128.37" cy="124.83" r="76.55" style="fill:#abe7ff"/><path class="cls-3" d="M144.76 55.79c8.11 2.05 13.67 13.49 10.73 25.14s-12.83 19.2-20.94 17.15c-5.36-1.35-10.07-6.1-11.8-12.54a21.78 21.78 0 0 1 0-11A28.43 28.43 0 0 1 133.06 59c3.81-2.79 8.04-4.13 11.7-3.21zm4.34 25.46a10.8 10.8 0 1 0-10.8 10.8 10.79 10.79 0 0 0 10.8-10.8z"/><path class="cls-4" d="M138.3 70.45a10.8 10.8 0 1 1-10.8 10.8 10.79 10.79 0 0 1 10.8-10.8z"/><path class="cls-3" d="M117.18 43.26c6.93 0 13.74 6.66 15.88 15.78a28.43 28.43 0 0 0-10.29 15.5 21.78 21.78 0 0 0 0 11 11.67 11.67 0 0 1-5.11 1.22c-8.37 0-17.19-7.93-17.19-20s8.34-23.5 16.71-23.5z"/><path class="cls-5" d="M133.06 59a28.43 28.43 0 0 0-10.29 15.5 21.78 21.78 0 0 0 0 11 11.67 11.67 0 0 1-5.11 1.22c-8.37 0-17.19-7.93-17.19-20s8.36-23.55 16.73-23.55c6.91.09 13.72 6.75 15.86 15.83z"/><path class="cls-5" d="M133.06 59c3.81-2.83 8-4.17 11.7-3.25 8.11 2.05 13.67 13.49 10.73 25.14s-12.83 19.2-20.94 17.15c-5.36-1.35-10.07-6.1-11.8-12.54"/><path class="cls-5" d="M149.1 81.25a10.8 10.8 0 1 1-10.8-10.8 10.8 10.8 0 0 1 10.8 10.8z"/><path class="cls-3" d="M106.34 133.7v4.23a3.49 3.49 0 0 1-3.49 3.5H92.19a3.5 3.5 0 0 1-3.51-3.5v-4.55q4 5.28 8.63.32c2.94 3.03 5.94 3.39 9.03 0z"/><path class="cls-3" d="M106.34 107.22v26.48c-3.09 3.39-6.09 3-9 0q-4.65 5-8.63-.32v-26.16zm-26.42-4.28a12 12 0 0 1 1.49 5.86v5a50 50 0 0 1-25.28 0v-4.22a10.22 10.22 0 0 1 1.36-5c2.81-4.94 4.93-9.91 5.44-16h11.78c.4 4.42 2.53 9.49 5.21 14.36z"/><path d="m81.37 113.85-.12 13.74a67.74 67.74 0 0 1-25.27 0l.11-13.69a50 50 0 0 0 25.28-.05z" style="fill:#caf5fe"/><path class="cls-3" d="m81.25 127.59-.07 9a3.44 3.44 0 0 1-1.67 2.94c-5.12 3-15.71 2-21.44-.21a3.45 3.45 0 0 1-2.16-3.24l.07-8.53a67.74 67.74 0 0 0 25.27.04zM73.46 83a1.34 1.34 0 0 1 1.33 1.49l-.43 4.12H63.52l-.34-4.16A1.35 1.35 0 0 1 64.52 83z"/><path class="cls-5" d="M56.09 113.88v-4.22a10.22 10.22 0 0 1 1.36-5c2.81-4.94 4.93-9.91 5.44-16h11.82c.4 4.39 2.53 9.43 5.21 14.3a12 12 0 0 1 1.49 5.86v5l-.12 13.74-.07 9a3.44 3.44 0 0 1-1.67 2.94c-5.12 3-15.71 2-21.44-.21a3.45 3.45 0 0 1-2.16-3.24l.07-8.53zm7.43-25.24-.34-4.16A1.35 1.35 0 0 1 64.52 83h8.94a1.34 1.34 0 0 1 1.33 1.49l-.43 4.12"/><path class="cls-5" d="M55.91 113.84h.18a50 50 0 0 0 25.28 0h0m-25.46 13.72H56a67.74 67.74 0 0 0 25.27 0 .76.76 0 0 0 .16 0m24.91 6.14v4.23a3.49 3.49 0 0 1-3.49 3.5H92.19a3.5 3.5 0 0 1-3.51-3.5v-30.71h17.66z"/><path class="cls-5" d="M88.68 133.38q4 5.28 8.63.32c2.94 3 5.94 3.39 9 0"/><path class="cls-3" d="M141.29 172.92v26.76H111.2V198a3.35 3.35 0 0 0-6.69 0v1.68H84.44v-26.76h56.85zM134.61 188a5 5 0 1 0-5 5 5 5 0 0 0 5-5zm-16.73-6.69a5 5 0 1 0-5 5 5 5 0 0 0 5-5.03zm-16.71 5a5 5 0 1 0-5 5 5 5 0 0 0 5-5.01z"/><path class="cls-3" d="m125.43 154 15.86 18.94H85.82l23.68-11.34.79 1.28a3.37 3.37 0 0 0 6-2.89l-.51-1.43z"/><circle class="cls-4" cx="129.59" cy="187.97" r="5.02"/><circle class="cls-4" cx="112.87" cy="181.28" r="5.02"/><path class="cls-4" d="M96.15 181.28a5 5 0 1 1-5 5 5 5 0 0 1 5-5z"/><path class="cls-5" d="M141.29 172.92 125.43 154l-9.6 4.58.51 1.43a3.37 3.37 0 0 1-6 2.89l-.79-1.28-23.73 11.3"/><path class="cls-5" d="M85.82 172.92h-1.38v26.76h20.07V198a3.35 3.35 0 0 1 6.69 0v1.68h30.09v-26.76z"/><path class="cls-5" d="M96.15 191.31a5 5 0 1 1 5-5 5 5 0 0 1-5 5z"/><circle class="cls-5" cx="112.87" cy="181.28" r="5.02"/><circle class="cls-5" cx="129.59" cy="187.97" r="5.02"/><path d="M191.1 109.58h-24.78v-4.73a2.36 2.36 0 0 1 2.36-2.36h20.06a2.36 2.36 0 0 1 2.36 2.36v4.73z" style="fill-rule:evenodd;fill:#2db5ff"/><path class="cls-8" d="M191.1 109.58h-24.78v-4.73a2.36 2.36 0 0 1 2.36-2.36h20.06a2.36 2.36 0 0 1 2.36 2.36v4.73z"/><path d="M166.32 109.58h24.78l8 10c1.88 2.36 3.27 4.33 3.27 8.54h-24.8c0-4.21-1.38-6.18-3.26-8.54zm11.25 18.59h24.79v25.4h-24.79zm0 25.4h24.79v3.62a3.38 3.38 0 0 1-3.27 3.47h-21.52z" style="fill-rule:evenodd;fill:#fff"/><path class="cls-8" d="M166.32 109.58h24.78l8 10c1.88 2.36 3.27 4.33 3.27 8.54h-24.8c0-4.21-1.38-6.18-3.26-8.54zm11.25 18.59h24.79v25.4h-24.79zm0 25.4h24.79v3.62a3.38 3.38 0 0 1-3.27 3.47h-21.52z"/><path d="M177.57 153.57v7.09h-19.24a3.38 3.38 0 0 1-3.27-3.47v-3.62zm-22.51-25.4h22.51v25.4h-22.51zm22.51 0h-22.51c0-4.21 1.39-6.18 3.27-8.54l8-10 8 10c1.88 2.36 3.26 4.33 3.26 8.54z" style="fill-rule:evenodd;fill:#caf5fe"/><path class="cls-8" d="M177.57 153.57v7.09h-19.24a3.38 3.38 0 0 1-3.27-3.47v-3.62zm-22.51-25.4h22.51v25.4h-22.51zm22.51 0h-22.51c0-4.21 1.39-6.18 3.27-8.54l8-10 8 10c1.88 2.36 3.26 4.33 3.26 8.54z"/><path class="cls-4" d="M184.94 143.49a.65.65 0 0 1-.61-.44l-.64-2.19-.39 2.16a.55.55 0 0 1-1.08-.19l.73-4a.64.64 0 0 1 1.24-.09l.75 2.53.72-2.52a.64.64 0 0 1 .65-.44.63.63 0 0 1 .59.51l.77 4.05a.54.54 0 0 1-1.07.2l-.42-2.17-.62 2.19a.64.64 0 0 1-.6.45zm8.28 0a2.2 2.2 0 0 1-.52 0 .54.54 0 0 1-.46-.53v-4.15a.55.55 0 0 1 .55-.54.54.54 0 0 1 .54.54v3.61h.91a.55.55 0 1 1 0 1.09zm6.61-.94-1.83-1.77 1.67-1.54a.53.53 0 0 0 0-.76.54.54 0 0 0-.77 0l-1.32 1.21v-.86a.55.55 0 0 0-.55-.54.54.54 0 0 0-.54.54v4.15a.55.55 0 0 0 .54.55.55.55 0 0 0 .55-.55v-1l1.45 1.4a.59.59 0 0 0 .38.16.56.56 0 0 0 .4-.17.55.55 0 0 0 .02-.82zm-9.83.94a.55.55 0 0 1-.55-.55v-4.15a.55.55 0 0 1 .55-.54.54.54 0 0 1 .54.54v4.15a.55.55 0 0 1-.54.55z"/><path class="cls-4" d="M184.94 143.49a.65.65 0 0 1-.61-.44l-.64-2.19-.39 2.16a.55.55 0 0 1-1.08-.19l.73-4a.64.64 0 0 1 1.24-.09l.75 2.53.72-2.52a.64.64 0 0 1 .65-.44.63.63 0 0 1 .59.51l.77 4.05a.54.54 0 0 1-1.07.2l-.42-2.17-.62 2.19a.64.64 0 0 1-.6.45zm8.28 0a2.2 2.2 0 0 1-.52 0 .54.54 0 0 1-.46-.53v-4.15a.55.55 0 0 1 .55-.54.54.54 0 0 1 .54.54v3.61h.91a.55.55 0 1 1 0 1.09zm6.61-.94-1.83-1.77 1.67-1.54a.53.53 0 0 0 0-.76.54.54 0 0 0-.77 0l-1.32 1.21v-.86a.55.55 0 0 0-.55-.54.54.54 0 0 0-.54.54v4.15a.55.55 0 0 0 .54.55.55.55 0 0 0 .55-.55v-1l1.45 1.4a.59.59 0 0 0 .38.16.56.56 0 0 0 .4-.17.55.55 0 0 0 .02-.82zm-9.83.94a.55.55 0 0 1-.55-.55v-4.15a.55.55 0 0 1 .55-.54.54.54 0 0 1 .54.54v4.15a.55.55 0 0 1-.54.55z"/></svg>