<svg xmlns="http://www.w3.org/2000/svg" id="Layer_1" data-name="Layer 1" viewBox="46.1 39.92 168.72 171.26"><defs><style>.cls-3{fill:#2db5ff}.cls-4{fill:#fff}.cls-5{fill:#caf5fe}.cls-6,.cls-7{fill:none;stroke-linecap:round;stroke-linejoin:round}.cls-6{stroke:#0e4e91}.cls-7{stroke:#2f3a5a}</style></defs><path d="m144.21 210.29-.17-1.11c2-.29 3.93-.65 5.85-1.07l.24 1.1c-1.94.42-3.94.79-5.92 1.08zm-4.49.53c-2 .2-4 .31-6 .36v-1.13c2-.05 4-.16 5.93-.35zm14.8-2.7-.3-1.08c1.91-.53 3.82-1.13 5.67-1.78l.38 1.05a71.02 71.02 0 0 1-5.75 1.81zm10-3.41-.43-1.05c1.82-.75 3.65-1.58 5.41-2.46l.5 1c-1.81.9-3.65 1.74-5.5 2.51zm9.47-4.62-.56-1c1.71-1 3.42-2 5.06-3.11l.63.93c-1.69 1.09-3.42 2.19-5.12 3.18zm8.82-5.76-.67-.9c1.59-1.18 3.15-2.43 4.64-3.71l.74.85c-1.52 1.3-3.13 2.57-4.73 3.76zm-84.38 10.13c-1.84-.78-3.68-1.64-5.47-2.54l.51-1c1.76.89 3.58 1.74 5.39 2.51zm92.41-16.92-.77-.81c1.44-1.37 2.83-2.8 4.16-4.26l.83.75a90.462 90.462 0 0 1-4.22 4.32zM89 199.76c-1.73-1-3.45-2.07-5.11-3.19l.62-.93c1.64 1.1 3.34 2.16 5 3.15zm109-19.95-.87-.71a83.17 83.17 0 0 0 3.6-4.74l.92.65a85.363 85.363 0 0 1-3.65 4.8zM80.19 194c-1.59-1.2-3.17-2.48-4.67-3.8l.74-.85c1.49 1.3 3 2.57 4.62 3.74zm124-22.69-.94-.6a88.21 88.21 0 0 0 3-5.14l1 .53c-.99 1.71-2.01 3.46-3.08 5.16zm-132 15.84c-1.44-1.4-2.84-2.85-4.18-4.34l.84-.75c1.32 1.46 2.71 2.9 4.13 4.27zM209.24 162l-1-.48c.84-1.78 1.63-3.63 2.35-5.47l1.05.4c-.74 1.88-1.55 3.75-2.4 5.55zM65.07 179.32a88.853 88.853 0 0 1-3.62-4.81l.92-.65c1.13 1.62 2.33 3.21 3.57 4.75zm148.07-27.11-1.06-.36a79.39 79.39 0 0 0 1.65-5.71l1.09.27c-.48 1.94-1.05 3.89-1.68 5.8zM47.58 141.42c-.32-1.74-.6-3.53-.82-5.29l-.08-.66 1.11-.13.08.65c.22 1.74.49 3.5.82 5.23zm-.19-10.53-1.12.07c-.13-2-.18-4-.17-6h1.13c-.03 1.96.03 3.96.16 5.93zm165.05-30.47c-.59-1.89-1.24-3.78-2-5.61l1-.41c.73 1.86 1.39 3.78 2 5.69zM47.36 120.49l-1.11-.07c.12-2 .3-4 .56-6l1.11.15a89.15 89.15 0 0 0-.56 5.92zM208.75 90.7c-.8-1.79-1.69-3.59-2.63-5.32l1-.54c1 1.76 1.86 3.58 2.68 5.4zM48.61 110.17 47.5 110c.37-2 .81-3.95 1.31-5.89l1.09.28c-.49 1.87-.9 3.83-1.29 5.78zm155.28-28.65c-1-1.68-2.13-3.35-3.27-5l.91-.65c1.16 1.62 2.27 3.31 3.32 5zM51.14 100.06l-1.07-.34c.6-1.9 1.29-3.82 2-5.69l1 .42c-.66 1.84-1.33 3.73-1.93 5.61zM197.94 73a75.925 75.925 0 0 0-3.87-4.51l.84-.76c1.35 1.47 2.67 3 3.91 4.58zM54.9 90.35l-1-.47c.84-1.82 1.75-3.64 2.71-5.39l1 .55c-.99 1.72-1.89 3.51-2.71 5.31zM191 65.28a82.667 82.667 0 0 0-4.38-4l.73-.86c1.52 1.29 3 2.66 4.44 4.06zM59.82 81.17l-1-.59c1.05-1.7 2.17-3.39 3.34-5l.91.66c-1.07 1.59-2.22 3.25-3.25 4.93zm123.3-22.71a80.03 80.03 0 0 0-4.85-3.45l.62-.94q2.52 1.66 4.91 3.5zm-93.79-6-.56-1c1.73-1 3.51-2 5.31-2.84l.49 1c-1.77.88-3.57 1.81-5.24 2.8zm55.92-10.31a83.1 83.1 0 0 0-5.89-.74l.1-1.12c2 .18 4 .43 6 .75zm-46.62 5.62-.44-1a86.78 86.78 0 0 1 5.62-2.16l.37 1.06c-1.87.62-3.73 1.33-5.55 2.1zm36.27-6.68c-2-.07-4-.07-6 0v-1.12c2-.07 4-.07 6 0zm-26.46 3.22-.31-1.08c1.92-.55 3.89-1 5.85-1.45l.23 1.1c-1.93.41-3.88.89-5.77 1.43zm16.07-3c-2 .17-4 .42-5.91.72l-.18-1.1c2-.31 4-.56 6-.73z" style="fill:#0e4e91"/><circle cx="132.28" cy="125.05" r="65.87" style="fill:#abe7ff"/><path class="cls-3" d="M116.41 137.64V152a1.65 1.65 0 0 1-1.65 1.65h-.83a1.65 1.65 0 0 1-1.65-1.65v-23.69a1.65 1.65 0 0 1 1.65-1.65h.83a1.65 1.65 0 0 1 1.65 1.65v9.33zm-1.11 13.42v-5.19h-1.91v5.19a.58.58 0 0 0 .58.58h.76a.58.58 0 0 0 .57-.58z"/><path class="cls-4" d="M115.3 145.87v5.19a.58.58 0 0 1-.57.58H114a.58.58 0 0 1-.58-.58v-5.19zm-3.71-23.29h2.76v1.13h-2.76z"/><path class="cls-4" d="M111.59 123.71v1.21a1.53 1.53 0 1 1-3 0v-3.3a1.52 1.52 0 0 1 2.6-1.08 1.5 1.5 0 0 1 .45 1.08v2.09zm-10.04 36.37v4.32a2 2 0 0 1-2 2H65.43a2 2 0 0 1-2-2V137h38.09zm-5.38-14.53a1 1 0 0 0-1-1h-3.39a1 1 0 0 0 0 1.91h3.44a1 1 0 0 0 .95-.91zm0 4a1 1 0 0 0-1-1h-3.39a1 1 0 0 0 0 1.91h3.44a1 1 0 0 0 .95-.88zm0 4a1 1 0 0 0-1-1h-3.39a1 1 0 0 0 0 1.91h3.44a1 1 0 0 0 .95-.85zm-.26 6.47a2.42 2.42 0 1 0-2.41 2.41 2.41 2.41 0 0 0 2.41-2.35zm-9.48-16.55a1 1 0 0 0-1-.95H70.75a1 1 0 0 0 0 1.91h14.72a1 1 0 0 0 .96-.9zm0 4a1 1 0 0 0-1-1H70.75a1 1 0 0 0 0 1.91h14.72a1 1 0 0 0 .96-.81zm0 4a1 1 0 0 0-1-.95H70.75a1 1 0 0 0 0 1.9h14.72a1 1 0 0 0 .96-.82zm0 4a1 1 0 0 0-1-1H70.75a1 1 0 0 0 0 1.91h14.72a1 1 0 0 0 .96-.75zm0 4a1 1 0 0 0-1-.95H70.75a1 1 0 0 0 0 1.9h14.72a1 1 0 0 0 .96-.76z"/><path class="cls-3" d="M101.55 127.09V137H63.46v-9.44a2.06 2.06 0 0 1 2.07-2.07h9.3v.06h15.44v-.06H100a1.59 1.59 0 0 1 1.55 1.6zm-5.92 4.2a2.64 2.64 0 1 0-2.63 2.63 2.64 2.64 0 0 0 2.63-2.63zm-10.51 0a2.64 2.64 0 1 0-2.63 2.63 2.64 2.64 0 0 0 2.63-2.63zm-10.5 0a2.64 2.64 0 1 0-2.62 2.63 2.64 2.64 0 0 0 2.62-2.63zm24.22 35.08v1.55a1.53 1.53 0 0 1-1.52 1.53h-5a1.54 1.54 0 0 1-1.53-1.53v-1.55z"/><path class="cls-5" d="M95.22 144.6a1 1 0 0 1 0 1.91h-3.44a1 1 0 0 1 0-1.91zm0 4.03a1 1 0 0 1 0 1.91h-3.44a1 1 0 0 1 0-1.91zm0 4.03a1 1 0 0 1 0 1.91h-3.44a1 1 0 0 1 0-1.91z"/><path class="cls-3" d="M93.5 157.66a2.42 2.42 0 1 1-2.42 2.42 2.41 2.41 0 0 1 2.42-2.42z"/><path class="cls-4" d="M93 128.65a2.64 2.64 0 1 1-2.64 2.64 2.64 2.64 0 0 1 2.64-2.64zm-2.73-4.93v1.78H74.83v-1.78a1.52 1.52 0 0 1 1.52-1.52h12.4a1.52 1.52 0 0 1 1.52 1.52z"/><path class="cls-5" d="M85.47 142.58a1 1 0 1 1 0 1.91H70.75a1 1 0 0 1 0-1.91zm0 4.03a1 1 0 1 1 0 1.91H70.75a1 1 0 0 1 0-1.91zm0 4.04a1 1 0 1 1 0 1.9H70.75a.95.95 0 0 1 0-1.9zm0 4.02a1 1 0 1 1 0 1.91H70.75a1 1 0 0 1 0-1.91zm0 4.04a1 1 0 1 1 0 1.9H70.75a.95.95 0 0 1 0-1.9z"/><circle class="cls-4" cx="82.49" cy="131.29" r="2.64"/><path class="cls-3" d="M74.27 166.37v1.55a1.54 1.54 0 0 1-1.53 1.53h-5a1.53 1.53 0 0 1-1.52-1.53v-1.55z"/><path class="cls-4" d="M72 128.65a2.64 2.64 0 1 1-2.64 2.64 2.64 2.64 0 0 1 2.64-2.64z"/><path class="cls-6" d="M74.83 125.5v.06h15.44v-1.84a1.52 1.52 0 0 0-1.52-1.52h-12.4a1.52 1.52 0 0 0-1.52 1.52zm-8.57 40.87v1.55a1.53 1.53 0 0 0 1.52 1.53h5a1.54 1.54 0 0 0 1.53-1.53v-1.55m16.52 0v1.55a1.54 1.54 0 0 0 1.53 1.53h5a1.53 1.53 0 0 0 1.52-1.53v-1.55M93 128.65a2.64 2.64 0 1 1-2.64 2.64 2.64 2.64 0 0 1 2.64-2.64z"/><circle class="cls-6" cx="82.49" cy="131.29" r="2.64"/><path class="cls-6" d="M72 128.65a2.64 2.64 0 1 1-2.64 2.64 2.64 2.64 0 0 1 2.64-2.64zm21.5 29.01a2.42 2.42 0 1 1-2.42 2.42 2.41 2.41 0 0 1 2.42-2.42zm20.85-4.05h.41a1.65 1.65 0 0 0 1.65-1.65v-23.65a1.65 1.65 0 0 0-1.65-1.65h-.83a1.65 1.65 0 0 0-1.65 1.65V152a1.65 1.65 0 0 0 1.65 1.65zm-2.76-29.9v1.21a1.53 1.53 0 1 1-3 0v-3.3a1.52 1.52 0 0 1 2.6-1.08 1.5 1.5 0 0 1 .45 1.08v1"/><path class="cls-6" d="M115.3 145.87v5.19a.58.58 0 0 1-.57.58H114a.58.58 0 0 1-.58-.58v-5.19zm-44.55-1.38h14.72a1 1 0 1 0 0-1.91H70.75a1 1 0 0 0 0 1.91zm0 4.03h14.72a1 1 0 1 0 0-1.91H70.75a1 1 0 0 0 0 1.91zm0 4.03h14.72a1 1 0 1 0 0-1.9H70.75a1 1 0 0 0 0 1.9zm0 4.03h14.72a1 1 0 1 0 0-1.91H70.75a1 1 0 0 0 0 1.91zm0 4.03h14.72a1 1 0 1 0 0-1.9H70.75a1 1 0 0 0 0 1.9zm21.03-6.04h3.44a1 1 0 0 0 0-1.91h-3.44a1 1 0 0 0 0 1.91zm3.44-5.94h-3.44a1 1 0 0 0 0 1.91h3.44a1 1 0 0 0 0-1.91zm0-4.03h-3.44a1 1 0 0 0 0 1.91h3.44a1 1 0 0 0 0-1.91zM63.46 137v-9.44a2.06 2.06 0 0 1 2.07-2.07H100a1.59 1.59 0 0 1 1.59 1.59V137"/><path class="cls-6" d="M101.55 160.08v4.32a2 2 0 0 1-2 2H65.43a2 2 0 0 1-2-2V137h38.09zm0 0h6.33a6.47 6.47 0 0 0 6.47-6.47m0-31.03v-7.27l7.93-4.7m-7.93 16.05v-2.95m-2.76-1.13h2.76v1.13h-2.76z"/><path class="cls-3" d="M124.47 63.79v.07l-2.52.71a7 7 0 0 0-1-2.73 2.83 2.83 0 0 1 3.52 1.95z"/><path class="cls-4" d="M122 64.57a7 7 0 0 1-.62 3.9l-1-1-1.64 1.64-1-1a3.77 3.77 0 1 0-5.32-5.33L97 78.24 94.71 76l2-2L98 75.22l2-2-1.26-1.26 2.29-2.29 1.26 1.27 2-2-1.26-1.26 2.29-2.29 1.26 1.27 2-2-1.26-1.26 2.42-2.4 1.26 1.22 2-2-1-1a6.91 6.91 0 0 1 3.18-.68 7 7 0 0 1 4.74 2 7.26 7.26 0 0 1 1 1.29 7 7 0 0 1 1.08 2.74z"/><path class="cls-3" d="M121.62 68.76a2.82 2.82 0 0 1 0 4h-.05l-2-2-1.27-1.27.41-.4 1.64-1.64 1 1z"/><path class="cls-4" d="m119.58 70.8-2.29 2.29-1.27-1.27-2.04 2.05 1.26 1.26-2.29 2.29-1.26-1.26-2.04 2.05 1.26 1.26-2.29 2.29-1.26-1.27-2.05 2.05 1.26 1.26-2.02 2.02-2.26-2.26 15.43-15.42 1 .99-.41.4 1.27 1.27z"/><path class="cls-3" d="m118.71 56.52-.66 2.67a7.11 7.11 0 0 0-2.81-.67 2.84 2.84 0 0 1 3.41-2z"/><path class="cls-5" d="M117.72 62.81a3.77 3.77 0 0 1 0 5.33l-15.43 15.42L97 78.24l15.4-15.43a3.76 3.76 0 0 1 5.32 0zm-2.34 3.77A1.43 1.43 0 1 0 114 68a1.42 1.42 0 0 0 1.38-1.42z"/><path class="cls-3" d="M117.29 73.09a2.84 2.84 0 0 1 0 4h-.05l-2-2-1.24-1.22 2-2.05z"/><circle class="cls-3" cx="113.96" cy="66.58" r="1.42"/><path class="cls-3" d="M113 77.42a2.84 2.84 0 0 1 0 4l-2-2-1.26-1.26 2-2zm0-17.24-2 2-1.26-1.18a2.82 2.82 0 0 1 0-4v-.05l2.28 2.29zm-4.38 21.58a2.81 2.81 0 0 1 0 4h-.05l-2-2-1.26-1.26 2-2.05zm.09-17.25-2 2-1.26-1.27a2.82 2.82 0 0 1 0-4l2 2zm-4.16 21.31L90.63 99.75l-2.51-2.51-5.35-5.36-2.68-2.67-1.09-1.1a2.69 2.69 0 0 1 0-3.82l1.49-1.5 3.18-3.17 3-3 1.43 7.28a1.87 1.87 0 0 0 3.66-.73L90 74.54A5.22 5.22 0 0 1 94.71 76L97 78.24l5.32 5.32zm-7.28 3.28a.72.72 0 0 0-1-1l-5.11 5.11a.72.72 0 0 0 1 1zm-4.09-.49a.71.71 0 0 0 0-1 .72.72 0 0 0-1 0l-3.3 3.3a.72.72 0 0 0 .51 1.23.75.75 0 0 0 .51-.21zm11.19-19.77-2 2-1.26-1.27a2.82 2.82 0 0 1 0-4l2 2zM100 73.17l-2 2L96.74 74a2.82 2.82 0 0 1 0-4l2 2z"/><path class="cls-4" d="M97.27 88.08a.71.71 0 0 1 0 1l-5.1 5.11a.72.72 0 0 1-1-1l5.11-5.11a.71.71 0 0 1 .99 0zm-4.09-.48a.71.71 0 0 1 0 1l-3.3 3.31a.75.75 0 0 1-.51.21.72.72 0 0 1-.51-1.23l3.3-3.3a.72.72 0 0 1 1.02.01zm-1.44-4.42a1.87 1.87 0 0 1-3.66.73l-1.43-7.28-1.22-6.2a1.77 1.77 0 0 0-2.07-1.38 1.82 1.82 0 0 0-1.12.74 1.77 1.77 0 0 0-.24 1.32l1.68 8.51-3.18 3.17-2.15-11a5.48 5.48 0 1 1 10.75-2.12l1 4.82zm-1.11 16.57-2.85 2.84a5.21 5.21 0 0 1-7.36 0l-1.89-1.89a5.16 5.16 0 0 1-1.27-5.28c0-.07 0-.13.07-.19l2.76-6 2.68 2.67-2.16 4.71A1.66 1.66 0 0 0 81 98.2l1.88 1.88a1.67 1.67 0 0 0 2.36 0l2.84-2.84z"/><path class="cls-6" d="m82.77 91.88-2.16 4.71A1.66 1.66 0 0 0 81 98.2l1.88 1.88a1.67 1.67 0 0 0 2.36 0l2.84-2.84"/><path class="cls-6" d="m80.09 89.21-2.76 6c0 .06 0 .12-.07.19a5.16 5.16 0 0 0 1.27 5.28l1.89 1.89a5.21 5.21 0 0 0 7.36 0l2.85-2.84m27.42-40.54.66-2.67h-.06a2.84 2.84 0 0 0-3.41 2m6.76 6.05 2.52-.71v-.07a2.83 2.83 0 0 0-3.52-1.95M98.78 71.91l-2-2h0a2.82 2.82 0 0 0 0 4L98 75.22l2-2zm4.33-4.33-2-2h0a2.82 2.82 0 0 0 0 4l1.26 1.27 2-2zm4.34-4.33-2-2h0a2.82 2.82 0 0 0 0 4l1.26 1.27 2-2zm4.61-4.05-2.28-2.29v.05a2.82 2.82 0 0 0 0 4l1.22 1.26 2-2-1-1m7.58 11.58 2 2h.05a2.82 2.82 0 0 0 0-4l-.28-.29-1-1-1.64 1.64-.41.4zm-4.34 4.33 2 2h.05a2.84 2.84 0 0 0 0-4L116 71.82l-2 2.05zm-4.33 4.34 2 2h0a2.84 2.84 0 0 0 0-4l-1.27-1.26-2 2zm-4.34 4.33 2 2h.05a2.81 2.81 0 0 0 0-4l-1.26-1.27-2 2.05zm3.17-22.84-2.29 2.29m-6.38 6.37-2.29 2.29"/><path class="cls-6" d="M112.06 59.2h0a6.91 6.91 0 0 1 3.18-.68 7 7 0 0 1 4.74 2 7.26 7.26 0 0 1 1 1.29 6.94 6.94 0 0 1 .35 6.63m-6.09 6.69-2.28 2.29m-6.39 6.38-2.02 2.02m-7.81-11.86-2.03 2.02m16.2 3.49-2.29 2.29m10.96-10.96-2.29 2.29m-14.18-5.51 2.29-2.29M83.66 79.62l2.99-2.99M90 74.54A5.22 5.22 0 0 1 94.71 76L97 78.24h0l5.32 5.32 2.26 2.26-13.95 13.93-2.51-2.51-5.35-5.36-2.68-2.67-1.09-1.1a2.69 2.69 0 0 1 0-3.82l1.49-1.5"/><path class="cls-6" d="m80.48 82.79-2.15-11a5.48 5.48 0 1 1 10.75-2.12l1 4.82 1.7 8.64a1.87 1.87 0 0 1-3.66.73l-1.43-7.28-1.22-6.2A1.77 1.77 0 0 0 83.4 69a1.82 1.82 0 0 0-1.12.74 1.77 1.77 0 0 0-.28 1.37l1.68 8.51z"/><circle class="cls-6" cx="113.96" cy="66.58" r="1.42"/><path class="cls-4" d="M146 84h2.49a.58.58 0 0 1 .58.58v1.78a.58.58 0 0 1-.58.58h-3.6l-1.3-.39a.37.37 0 0 0-.31 0l-.16.09z"/><path class="cls-5" d="M143.45 84H146l-2.88 2.66-.6.35a.35.35 0 0 1-.19.06h-1.1a.37.37 0 0 1-.18 0l-.86-.45a.4.4 0 0 0-.34 0h-.08l2.56-2.23a.31.31 0 0 0 .21 0l.75-.31a.41.41 0 0 1 .16-.08z"/><path class="cls-3" d="M140 84h1.25a.4.4 0 0 1 .15 0l.81.31h.08l-2.56 2.23-.74.32a.32.32 0 0 1-.16 0h-1.25a.29.29 0 0 1-.16 0l-.86-.36h-.07a.41.41 0 0 0-.22 0l2.62-2.16h.12l.85-.32z"/><path class="cls-5" d="M136.37 84h1.22l1.21.34a.3.3 0 0 0 .13 0l-2.62 2.16-1 .38a.32.32 0 0 1-.14 0h-2.31l2.51-2.59h.16l.69-.29a.4.4 0 0 1 .15 0z"/><path class="cls-3" d="M132.86 84h1.69a.36.36 0 0 1 .2.06l.42.24a.46.46 0 0 0 .2 0l-2.51 2.59a.39.39 0 0 1-.3-.13l-.94-1.08a.4.4 0 0 1 0-.52l.53-.61.41-.47a.43.43 0 0 1 .3-.08z"/><path class="cls-7" d="M136.53 86.51a.41.41 0 0 0-.22 0l-1 .38a.32.32 0 0 1-.14 0h-2.31a.39.39 0 0 1-.3-.13l-.94-1.08a.4.4 0 0 1 0-.52l.53-.61.41-.47a.43.43 0 0 1 .3-.13h1.69a.36.36 0 0 1 .2.06l.42.24a.46.46 0 0 0 .2 0h.16l.69-.29a.4.4 0 0 1 .15 0h1.22l1.21.34a.3.3 0 0 0 .13 0h.12l.85-.32h1.39a.4.4 0 0 1 .15 0l.81.31h.08a.31.31 0 0 0 .21 0l.75-.31a.41.41 0 0 1 .16 0h5a.58.58 0 0 1 .58.58v1.78a.58.58 0 0 1-.58.58h-3.6l-1.3-.39a.37.37 0 0 0-.31 0l-.16.09"/><path class="cls-7" d="m143.12 86.65-.6.35a.35.35 0 0 1-.19.06h-1.1a.37.37 0 0 1-.18 0l-.86-.45a.4.4 0 0 0-.34 0h-.08l-.74.32a.32.32 0 0 1-.16 0h-1.25a.29.29 0 0 1-.16 0m-.93-.42h.07l.86.36-.86-.36zm-1.16-2.17-2.51 2.59m6.07-2.56-2.62 2.16"/><path class="cls-7" d="M142.33 84.35h0l-2.56 2.23-.01.01-.01.01m3.36.06.01-.01h0l2.88-2.66"/><path class="cls-3" d="M191.28 90.38c7.48 10.06 4.79 26.69 4.17 29.92a1.73 1.73 0 0 1-.87 1.2 11.38 11.38 0 0 1-9.53.8l-1.27-.47a1.76 1.76 0 0 1-1.1-2.25 1.68 1.68 0 0 1 .43-.68l1.35-1.35a.86.86 0 0 0 .25-.61v-5.53l-2.7-3.19-.11-.14a.46.46 0 0 1-.11-.3V102l-3.69-2.8h-14.26a.45.45 0 0 0 .46-.46v-20a.43.43 0 0 0-.14-.33.51.51 0 0 0-.34-.13 105.7 105.7 0 0 1 22.09 1.13.51.51 0 0 1 .31.2l.95 1.42c1.34.17 4 .71 4.81 2.31a2.5 2.5 0 0 1-.3 2.49 4.58 4.58 0 0 0-.4 4.55zM179 82.85a.47.47 0 0 0-.46-.46h-10.08a.46.46 0 0 0 0 .92h10.06a.47.47 0 0 0 .48-.46zm0 2.21a.46.46 0 0 0-.46-.46h-10.08a.46.46 0 0 0-.46.46.47.47 0 0 0 .46.46h10.06a.47.47 0 0 0 .48-.46zm0 2.21a.47.47 0 0 0-.46-.46h-10.08a.47.47 0 0 0 0 .93h10.06a.47.47 0 0 0 .48-.47zm0 2.22a.46.46 0 0 0-.46-.46h-10.08a.46.46 0 0 0-.46.46.47.47 0 0 0 .46.46h10.06a.47.47 0 0 0 .48-.46z"/><path class="cls-4" d="M182 108.22h-2.3a.46.46 0 0 1-.46-.46v-5.27h-4.47a.46.46 0 0 1-.46-.46V99.2h3.78l3.69 2.83v5.75a.46.46 0 0 0 .11.3zm-3.48-25.83a.46.46 0 1 1 0 .92h-10.06a.46.46 0 0 1 0-.92zm0 2.21a.46.46 0 0 1 .46.46.47.47 0 0 1-.46.46h-10.06a.47.47 0 0 1-.46-.46.46.46 0 0 1 .46-.46zm0 2.21a.47.47 0 0 1 0 .93h-10.06a.47.47 0 0 1 0-.93zm0 2.19a.46.46 0 0 1 .46.46.47.47 0 0 1-.46.46h-10.06a.47.47 0 0 1-.46-.46.46.46 0 0 1 .46-.46zM164.3 78.74v20a.45.45 0 0 1-.46.46h-3.62a2.43 2.43 0 0 1-2.22-1.36l-2.79-5.72a2.41 2.41 0 0 1-.24-1.05v-9.9a2.35 2.35 0 0 1 .26-1.1 2.4 2.4 0 0 1 .23-.38l.14-.17.16-.15a2.41 2.41 0 0 1 1.42-.63l1.68-.14c1.13-.08 2.24-.16 3.33-.21l1.63-.09a.51.51 0 0 1 .34.13.43.43 0 0 1 .14.31z"/><path class="cls-4" d="m154.97 83.26.02 3.79h-1.21v-3.79h1.19z"/><path class="cls-4" d="M153.78 87.05v3.23a.45.45 0 0 1-.46.46h-6.94a.45.45 0 0 1-.46-.46V80a.46.46 0 0 1 .46-.46h6.94a.46.46 0 0 1 .46.46v7z"/><path class="cls-6" d="M154.98 83.26h-1.2m1.21 3.79h-1.21m20.54 12.15v2.8a.46.46 0 0 0 .46.46h4.47v5.27a.46.46 0 0 0 .46.46H182"/><path class="cls-6" d="M158.86 78.58c1.13-.08 2.24-.16 3.33-.21l1.63-.09a105.7 105.7 0 0 1 22.09 1.13.51.51 0 0 1 .31.2l.95 1.42c1.34.17 4 .71 4.81 2.31a2.5 2.5 0 0 1-.3 2.49 4.58 4.58 0 0 0-.4 4.55c7.48 10.06 4.79 26.69 4.17 29.92a1.73 1.73 0 0 1-.87 1.2 11.38 11.38 0 0 1-9.53.8l-1.27-.47a1.76 1.76 0 0 1-1.1-2.25 1.68 1.68 0 0 1 .43-.68l1.35-1.35a.86.86 0 0 0 .25-.61v-5.53l-2.7-3.19-.11-.14a.46.46 0 0 1-.11-.3V102l-3.69-2.8h-14.26m-8.61-19.15a1.83 1.83 0 0 1 .23-.38l.14-.17.16-.15"/><path class="cls-6" d="M163.84 99.2h-3.62a2.43 2.43 0 0 1-2.22-1.36l-2.79-5.72a2.41 2.41 0 0 1-.24-1.05v-9.9a2.35 2.35 0 0 1 .26-1.1 2.4 2.4 0 0 1 .23-.38l.14-.17.16-.15a2.41 2.41 0 0 1 1.42-.63l1.68-.14c1.13-.08 2.24-.16 3.33-.21l1.63-.09a.51.51 0 0 1 .34.13.43.43 0 0 1 .14.33v20a.45.45 0 0 1-.46.44zm-10.06-12.15v3.23a.45.45 0 0 1-.46.46h-6.94a.45.45 0 0 1-.46-.46V80a.46.46 0 0 1 .46-.46h6.94a.46.46 0 0 1 .46.46v7z"/><path class="cls-3" d="M184.23 163.52h-10.66a10.76 10.76 0 1 0-21.52 0h-10.66a21.42 21.42 0 1 1 42.84 0z"/><path class="cls-4" d="m179.13 169.53 3.18 2.82c-2.2 3.5-7.21 1.8-7.21 1.8l-2.1 2.16 2.33 4.41c-4.79 2.21-6.93-1.45-6.93-1.45l-3.27 1v5.1c-3.78.06-5.79-5.31-5.79-5.31l-2.46-.74-2.88 4.6c-3.48-2-2-7.77-2-7.77l-2.15-2-4.85 3.33c-1.73-3.14.42-6.58 1.45-7.95zm-1.13-1 1.13 1h-32.67a7.12 7.12 0 0 1 .5-.61 20.25 20.25 0 0 1-.35-5.4h5.44a10.76 10.76 0 1 1 21.52 0h5a33.59 33.59 0 0 1-.57 5.01zm-12.36-5a3.51 3.51 0 1 0-3.5 3.51 3.5 3.5 0 0 0 3.5-3.52z"/><path class="cls-3" d="M162.14 160a3.51 3.51 0 1 1-3.51 3.5 3.5 3.5 0 0 1 3.51-3.5z"/><path class="cls-4" d="m148.19 136.18 7 7.31a21.42 21.42 0 0 0-9.36 6.95l-5.83-6.71a5.59 5.59 0 0 1 8.23-7.55z"/><path class="cls-6" d="M165.64 163.52a3.51 3.51 0 1 1-3.5-3.5 3.51 3.51 0 0 1 3.5 3.5z"/><path class="cls-6" d="M178.56 163.52h5.67a21.42 21.42 0 0 0-42.84 0h10.66a10.76 10.76 0 1 1 21.52 0zm-31.95 0a20.25 20.25 0 0 0 .35 5.4 7.12 7.12 0 0 0-.5.61c-1 1.37-3.18 4.81-1.45 7.95l4.82-3.32 2.15 2s-1.5 5.72 2 7.77l2.87-4.59 2.46.74s2 5.37 5.79 5.31v-5.1l3.27-1s2.14 3.66 6.93 1.45l-2.3-4.43 2.15-2.16s5 1.7 7.21-1.8l-3.18-2.82-1.13-1a33.59 33.59 0 0 0 .56-5m-44.17 6h55.55"/><path class="cls-6" d="m145.85 150.44-5.85-6.71a5.59 5.59 0 0 1 8.23-7.55l7 7.31"/></svg>