<svg xmlns="http://www.w3.org/2000/svg" id="Layer_1" data-name="Layer 1" viewBox="53.16 45.24 174.35 174.07"><defs><style>.cls-3{fill:#fff}.cls-4{fill:#2db5ff}.cls-5,.cls-7{fill:none;stroke:#0e4e91}.cls-5{stroke-linecap:round;stroke-linejoin:round}.cls-6{fill:#caf5fe}.cls-7{stroke-miterlimit:10}</style></defs><path d="m53.42 125.75 1.13.09c-.15 2-.24 4-.25 6h-1.14c.02-1.99.1-4.05.26-6.09zm.47-4.58c.26-2 .6-4.06 1-6l1.12.23c-.39 2-.72 4-1 6zm-.64 15.31h1.15c.09 2 .26 4 .49 6l-1.14.13c-.24-2.04-.4-4.09-.5-6.13zm1.15 10.67 1.13-.19c.34 2 .76 4 1.24 5.92l-1.12.27a86.25 86.25 0 0 1-1.25-6zm2.46 10.44 1.09-.33c.59 1.91 1.24 3.84 2 5.72l-1.07.41a72.42 72.42 0 0 1-2.02-5.8zm3.74 10 1-.46c.81 1.84 1.7 3.67 2.64 5.45l-1 .53c-.92-1.75-1.82-3.61-2.64-5.47zm8.88-86c1.19-1.66 2.45-3.29 3.76-4.86l.87.73a85.98 85.98 0 0 0-3.7 4.79zm-4 95.56 1-.59c1 1.73 2.14 3.44 3.29 5.08l-.93.66a95.711 95.711 0 0 1-3.31-5.13zM76.27 73.29c1.38-1.5 2.83-3 4.32-4.36l.78.83c-1.47 1.38-2.9 2.82-4.26 4.3zM71.6 186l.9-.71a86.2 86.2 0 0 0 3.9 4.64l-.85.77c-1.38-1.5-2.7-3.09-3.95-4.7zM84 65.86c1.54-1.31 3.17-2.59 4.81-3.79l.68.92a92.09 92.09 0 0 0-4.75 3.75zm-5.3 128.2.81-.81q2.14 2.15 4.43 4.14l-.75.86a98.48 98.48 0 0 1-4.49-4.19zM92.62 59.44a90.28 90.28 0 0 1 5.25-3.17l.55 1c-1.75 1-3.49 2-5.17 3.14zm-5.87 141.73.71-.91c1.58 1.24 3.23 2.44 4.9 3.56l-.64 1c-1.72-1.18-3.36-2.4-4.97-3.65zm15.19-147c1.82-.9 3.71-1.74 5.59-2.51l.43 1.06c-1.86.75-3.71 1.59-5.51 2.47zm-6.33 153.07.58-1c1.73 1 3.51 2 5.31 2.92l-.51 1c-1.83-.87-3.63-1.87-5.38-2.92zm47.88-162c1.81.06 3.65.19 5.45.37l.67.07-.12 1.13-.66-.07c-1.78-.18-3.59-.3-5.39-.36zM154 47.45l.18-1.13c2 .32 4 .72 6 1.19l-.26 1.12c-1.92-.48-3.92-.86-5.92-1.18zm-6.81 170.73c2-.16 4-.39 6-.69l.18 1.13c-2 .3-4.06.53-6.1.69zm17.14-168.42.32-1.09c2 .56 3.92 1.2 5.83 1.91l-.4 1.07c-1.88-.65-3.82-1.33-5.75-1.89zm-6.67 166.94c2-.4 4-.88 5.88-1.43l.31 1.1c-2 .55-4 1-6 1.45zM174.3 53.32l.45-1.06c1.88.81 3.74 1.68 5.55 2.63l-.52 1c-1.78-.89-3.63-1.78-5.48-2.57zm-6.43 160.61c1.9-.64 3.8-1.36 5.66-2.13l.44 1c-1.87.79-3.8 1.51-5.73 2.17zm15.9-155.83.58-1c1.75 1 3.5 2.14 5.19 3.29l-.65 1a67.18 67.18 0 0 0-5.12-3.29zm-6.1 151.83c1.81-.87 3.61-1.82 5.35-2.82l.56 1c-1.76 1-3.59 2-5.42 2.85zM192.57 64l.69-.9c1.62 1.23 3.22 2.55 4.74 3.89l-.76.85a91.62 91.62 0 0 0-4.67-3.84zm-5.67 140.76c1.68-1.09 3.36-2.24 5-3.45l.68.92c-1.63 1.22-3.32 2.4-5 3.5zM200.57 71l.8-.82a88.68 88.68 0 0 1 4.23 4.45l-.85.76a62.459 62.459 0 0 0-4.18-4.39zm-5.14 127.53c1.54-1.29 3.06-2.64 4.51-4l.8.82c-1.47 1.42-3 2.79-4.58 4.1zm27.06-91.77 1.09-.35c.61 1.95 1.16 3.93 1.63 5.91l-1.12.27c-.47-2-1-3.96-1.6-5.87zm-2.32 57.84c.75-1.86 1.44-3.78 2.06-5.69l1.09.35c-.63 1.95-1.33 3.88-2.09 5.77zM225 117l1.12-.21c.36 2 .66 4 .89 6.08l-1.14.12c-.21-1.99-.5-3.99-.87-5.99zm-1.51 37.52c.51-1.94 1-3.93 1.33-5.91l1.13.22c-.38 2-.84 4-1.36 6zm2.74-27 1.15-.07c.11 2 .15 4.1.12 6.14h-1.14c.05-2.04.01-4.08-.11-6.08zm-.67 16.62c.27-2 .48-4 .61-6l1.14.08c-.13 2-.34 4.08-.62 6.1z" style="fill:#0e4e91"/><circle cx="140.73" cy="133.05" r="67.05" style="fill:#abe7ff"/><path class="cls-3" d="M109.32 121.38c.59.83.72 1.74.26 2.24a1 1 0 0 1-.7.32 2.93 2.93 0 0 1-2.19-.91c-1-1-1.38-2.22-.8-2.84a1.14 1.14 0 0 1 .39-.25 2.64 2.64 0 0 1 2.51.84 4.85 4.85 0 0 1 .53.6zm-4.78-6.44.09.07a2 2 0 0 1 .6 2.72 2 2 0 0 1-2.74-.29 2.16 2.16 0 0 1-.75-2.53l.22-.27a2 2 0 0 1 2.58.3zm-8.24-4.8a4.36 4.36 0 0 1 .7.48 2.62 2.62 0 0 1 1.1 2.38 1 1 0 0 1-.2.4c-.55.65-1.86.43-2.91-.47a3 3 0 0 1-1.15-2.07 1 1 0 0 1 .25-.73c.43-.48 1.33-.47 2.21.01zm-10.44 23.37a11.9 11.9 0 0 0 2.86 2 14.49 14.49 0 0 0 4.21 1.4c.46-.49 1.3-1.28 2.34-2.21.71 1.93.65 3.69-.35 4.81-.07.06-.12.13-.19.18-2.06 1.95-6.72.82-10.59-2.62s-5.51-7.89-3.88-10.18l.2-.25c1.1-1.23 3.11-1.43 5.37-.73-1.26 2.14-2.26 3.77-2.63 4.22a13.94 13.94 0 0 0 2.66 3.38z"/><path class="cls-3" d="M93.09 131c-.76.72-1.43 1.37-2 1.89l-.85.92-1.57 1.69a14.49 14.49 0 0 0 4.21 1.4c.46-.49 1.3-1.28 2.34-2.21z"/><path class="cls-3" d="M95.27 134.72c4.33-3.88 12.31-10.49 13.61-10.77a2.93 2.93 0 0 1-2.19-.91c-1-1-1.38-2.22-.8-2.84a1.14 1.14 0 0 1 .39-.25c-1.46.48-8.87 7-13.19 11.11zm-9.44-8.78c-1.26 2.14-2.26 3.77-2.63 4.22a13.94 13.94 0 0 0 2.66 3.35c.69-.92 2.1-3.09 3.73-5.69zm3.76 1.88c3.59-5.72 8.23-13.53 8.52-14.79a1 1 0 0 1-.2.4c-.55.65-1.86.43-2.91-.47a3 3 0 0 1-1.15-2.07c-.12 1.09-4.86 9.68-8 15z"/><path class="cls-4" d="m93 130.93 12.21-13.17a2 2 0 0 1-2.74-.29 2.16 2.16 0 0 1-.75-2.53l-11.44 13.39z"/><path class="cls-4" d="m90.28 128.33-4.42 5.18a11.9 11.9 0 0 0 2.86 2l1.57-1.69.85-.92 1.85-2z"/><path class="cls-3" d="M94.73 139.72 81.11 154.9c-7.63-3.05-12.17-7.5-14.25-13.07l13.4-14.91c-1.63 2.29 0 6.75 3.88 10.18s8.53 4.57 10.59 2.62z"/><path class="cls-5" d="m90.28 128.33-.69-.51m3.5 3.18-.1-.11m-7.16-4.95c-2.26-.7-4.27-.5-5.37.73l-.2.25c-1.63 2.29 0 6.75 3.88 10.18s8.53 4.57 10.59 2.62c.07-.05.12-.12.19-.18 1-1.12 1.06-2.88.35-4.81m-28.41 7.09 13.4-14.91.03-.04"/><path class="cls-5" d="m81.11 154.9 13.62-15.18.2-.22m-1.09-28.62a1 1 0 0 1 .25-.73c.43-.5 1.33-.49 2.21 0a4.36 4.36 0 0 1 .7.48 2.62 2.62 0 0 1 1.1 2.37 1 1 0 0 1-.2.4c-.55.65-1.86.43-2.91-.47a3 3 0 0 1-1.15-2.07m0 .02h0c-.12 1.09-4.86 9.68-8 15-1.26 2.14-2.26 3.77-2.63 4.22"/><path class="cls-5" d="M98.12 113v.08c-.29 1.26-4.93 9.07-8.52 14.79-1.63 2.6-3 4.77-3.73 5.69m23.45-12.18a4.85 4.85 0 0 0-.53-.6 2.64 2.64 0 0 0-2.51-.84 1.14 1.14 0 0 0-.39.25c-.58.62-.22 1.89.8 2.84a2.93 2.93 0 0 0 2.19.91 1 1 0 0 0 .7-.32c.42-.5.33-1.41-.26-2.24zm-.44 2.62c-1.3.28-9.28 6.89-13.61 10.77h0c-1 .93-1.88 1.72-2.34 2.21l-.11.11"/><path class="cls-5" d="M106.35 119.91h-.07c-1.46.48-8.87 7-13.19 11.11-.76.72-1.43 1.37-2 1.89m10.64-17.98.22-.27m-16.1 18.86.01-.01 4.42-5.18 11.43-13.39"/><path class="cls-5" d="m88.71 135.55.01-.01 1.57-1.69.85-.92 1.85-2 12.21-13.17m-.66-2.82.09.07a2 2 0 0 1 .6 2.72h0a2 2 0 0 1-2.74-.29 2.16 2.16 0 0 1-.75-2.53h0a.57.57 0 0 1 .12-.18.28.28 0 0 1 .1-.09s0 0 0 0a2 2 0 0 1 2.58.3zm-8.98-3.22a13.34 13.34 0 0 0 .74-1.58 14.67 14.67 0 0 0 .82-2.82"/><path class="cls-5" d="M103.65 116.05c.29-.38.58-.75.89-1.11a23.64 23.64 0 0 1 3.74-3.4m-.02 10.46c.34-.23.7-.44 1.06-.65a18.36 18.36 0 0 1 4.36-1.88m-31.37 8.98c.28.6.57 1.17.89 1.71a13.94 13.94 0 0 0 2.66 3.35 11.9 11.9 0 0 0 2.86 2 14.49 14.49 0 0 0 4.21 1.4l.75.11m-26.82 4.8v.01"/><path class="cls-3" d="M151.12 71v22.14h-39.25V71zm-4.76 4.48a2.09 2.09 0 1 0-2.08 2.08 2.09 2.09 0 0 0 2.08-2.1zm-8.55 0a2.09 2.09 0 1 0-2.08 2.08 2.09 2.09 0 0 0 2.08-2.1zm-8.55 0a2.09 2.09 0 1 0-2.08 2.08 2.09 2.09 0 0 0 2.08-2.1zm-9.49 0a2.09 2.09 0 1 0-2.08 2.08 2.09 2.09 0 0 0 2.08-2.1z"/><path class="cls-6" d="M144.28 73.36a2.09 2.09 0 1 1-2.1 2.1 2.09 2.09 0 0 1 2.1-2.1zm-8.55 0a2.09 2.09 0 1 1-2.09 2.1 2.09 2.09 0 0 1 2.09-2.1zm-8.55 0a2.09 2.09 0 1 1-2.09 2.1 2.09 2.09 0 0 1 2.09-2.1zm-9.49 0a2.09 2.09 0 1 1-2.1 2.1 2.09 2.09 0 0 1 2.1-2.1z"/><path class="cls-4" d="M154.8 69.3v25.92a1.69 1.69 0 0 1-1.69 1.7H110a1.69 1.69 0 0 1-1.7-1.7V69.3a1.69 1.69 0 0 1 1.7-1.7h43.07a1.69 1.69 0 0 1 1.69 1.7zm-3.68 23.84V71h-39.25v22.14z"/><path class="cls-3" d="M148.94 63.9v3.7h-6.86v-3.7a.85.85 0 0 1 .92-.9h5.12a.91.91 0 0 1 .61.25.87.87 0 0 1 .21.65zm-27.83-.12v3.82h-6.86v-3.82A.76.76 0 0 1 115 63h5.36a.75.75 0 0 1 .75.78zm17.5-.75v4.57h-14.72v-4.57h14.72z"/><path class="cls-7" d="M123.89 67.6h-2.78m20.97 0h-3.47m-24.36 0H110a1.69 1.69 0 0 0-1.7 1.7v25.92a1.69 1.69 0 0 0 1.7 1.7h43.07a1.69 1.69 0 0 0 1.69-1.7V69.3a1.69 1.69 0 0 0-1.69-1.7h-4.17"/><path class="cls-7" d="M111.87 70.98h39.25v22.16h-39.25zm9.24-3.38v-3.82a.75.75 0 0 0-.75-.75H115a.76.76 0 0 0-.75.75v3.82zm27.83 0v-3.7a.87.87 0 0 0-.26-.62.91.91 0 0 0-.61-.25H143a.85.85 0 0 0-.87.87v3.7z"/><path class="cls-7" d="M117.69 73.36a2.09 2.09 0 1 1-2.1 2.1 2.09 2.09 0 0 1 2.1-2.1zm9.49 0a2.09 2.09 0 1 1-2.09 2.1 2.09 2.09 0 0 1 2.09-2.1zm8.55 0a2.09 2.09 0 1 1-2.09 2.1 2.09 2.09 0 0 1 2.09-2.1zm8.55 0a2.09 2.09 0 1 1-2.1 2.1 2.09 2.09 0 0 1 2.1-2.1zm-20.39-5.76v-4.57h14.72v4.57h-14.72zm21.62-4.6v-5.79a1.63 1.63 0 0 1 1.63-1.63h6.77m-18.59 2.38v5.07m-4.06-5.07v5.07m-4.08-5.07v5.07m-17.99-7.45h6.54a2 2 0 0 1 2 2l.15 5.45M114.25 83h5.52m-5.52 2.99h5.52m-2.76 0v4.47m9.69-4.47v4.47m9.5-4.47v4.47m9.7-4.47v4.47M123.75 83h5.51m-5.51 2.99h5.51m4.38-2.99h5.52m4.18 0h5.51m-15.21 2.99h5.52m4.18 0h5.51"/><path class="cls-6" d="M207.2 152.26v3a1.13 1.13 0 0 1-.34.82 1.18 1.18 0 0 1-.82.35h-5.16a1.16 1.16 0 0 1-.82-.35 1.13 1.13 0 0 1-.34-.82v-3z"/><path class="cls-4" d="M215.09 138.17v12.58a1.51 1.51 0 0 1-1.51 1.51H193a1.5 1.5 0 0 1-1.51-1.51v-12.58a1.51 1.51 0 0 1 1.51-1.51h20.63a1.52 1.52 0 0 1 1.46 1.51z"/><path class="cls-3" d="M211.66 126.85v9.81h-4.46v-9.81a2.23 2.23 0 0 1 2.22-2.22 2.23 2.23 0 0 1 2.24 2.22zm-11.66 0v9.81h-4.46v-9.81a2.22 2.22 0 0 1 2.22-2.22 2.23 2.23 0 0 1 2.24 2.22zm-12.07-12.95V141a2.42 2.42 0 0 1-2.4 2.41h-26.31a2.42 2.42 0 0 1-2.41-2.41v-27.1a2.42 2.42 0 0 1 2.41-2.42h26.31a2.4 2.4 0 0 1 1.69.71 2.37 2.37 0 0 1 .71 1.71zm-4.13 13a11.71 11.71 0 1 0-11.71 11.78 11.75 11.75 0 0 0 11.71-11.82z"/><path class="cls-6" d="M172.09 115.07a11.79 11.79 0 1 1-11.7 11.79 11.75 11.75 0 0 1 11.7-11.79zm8.12 11.79a2.23 2.23 0 1 0-2.23 2.23 2.23 2.23 0 0 0 2.23-2.23zm-11.63 0a2.23 2.23 0 1 0-2.22 2.23 2.23 2.23 0 0 0 2.22-2.23z"/><path class="cls-6" d="M166.36 124.63a2.23 2.23 0 1 1-2.24 2.23 2.23 2.23 0 0 1 2.24-2.23zm11.64 0a2.23 2.23 0 1 1-2.23 2.23 2.23 2.23 0 0 1 2.23-2.23z"/><path class="cls-7" d="M187.93 113.9a2.37 2.37 0 0 0-.71-1.71 2.4 2.4 0 0 0-1.69-.71h-26.31a2.42 2.42 0 0 0-2.41 2.42V141a2.42 2.42 0 0 0 2.41 2.41h26.31a2.42 2.42 0 0 0 2.4-2.41z"/><path class="cls-7" d="M172.09 115.07a11.79 11.79 0 1 1-11.7 11.79 11.75 11.75 0 0 1 11.7-11.79z"/><path class="cls-7" d="M166.36 124.63a2.23 2.23 0 1 1-2.24 2.23 2.23 2.23 0 0 1 2.24-2.23zm11.64 0a2.23 2.23 0 1 1-2.23 2.23 2.23 2.23 0 0 1 2.23-2.23zm17.58 12.03H193a1.51 1.51 0 0 0-1.51 1.51v12.58a1.5 1.5 0 0 0 1.51 1.51h6.77m7.43-15.6H200m7.2 15.6h6.38a1.51 1.51 0 0 0 1.51-1.51v-12.58a1.52 1.52 0 0 0-1.51-1.51h-1.92m-11.66 0v-9.81a2.23 2.23 0 0 0-2.22-2.22 2.22 2.22 0 0 0-2.22 2.22v9.81zm11.66 0v-9.81a2.23 2.23 0 0 0-2.22-2.22 2.23 2.23 0 0 0-2.22 2.22v9.81z"/><path class="cls-7" d="M207.2 152.26h-7.48v3a1.13 1.13 0 0 0 .34.82 1.16 1.16 0 0 0 .82.35H206a1.18 1.18 0 0 0 .82-.35 1.13 1.13 0 0 0 .34-.82z"/><path class="cls-7" d="M201.55 156.41s-.12 4.3-.21 7.68a4.13 4.13 0 0 1-4.13 4H187"/><path class="cls-7" d="M205.7 156.41s-.13 4.27-.26 8.35a7.55 7.55 0 0 1-7.47 7.32l-11 .09"/><path class="cls-3" d="M131.15 144.35v23.82h-4.52v-23.59a3.1 3.1 0 0 0 2.18.74 2.75 2.75 0 0 0 2.34-.97zm0 33.55v28.19c-2.17 1-3.47.69-4.52 0V177.9z"/><path class="cls-4" d="M148.94 144.18a32 32 0 0 1-8.83 21.42v2.57h-4.67v-4.5l.68-.69a26.89 26.89 0 0 0 8.13-18.45 3 3 0 0 0 2.22.79 2.53 2.53 0 0 0 2.43-1.14zm-8.83 33.72v28.19c-1.32 1-2.93.73-4.67 0V177.9zm-17.94 0v28.19a4.62 4.62 0 0 1-4.67 0V177.9zM111 145.32a2.63 2.63 0 0 0 2.39-1 26.93 26.93 0 0 0 8.1 18.68l.68.69v4.5h-4.67v-2.59a32 32 0 0 1-8.82-21.13 2.94 2.94 0 0 0 2.32.85z"/><path class="cls-3" d="M148.9 144.18a2.53 2.53 0 0 1-2.43 1.14 3 3 0 0 1-2.22-.79v-.55z"/><path class="cls-3" d="M146.47 142.51c1.36 0 2.47.63 2.47 1.4a.84.84 0 0 1 0 .27l-4.62-.2v.55a1 1 0 0 1-.25-.62c-.07-.77 1.03-1.4 2.4-1.4zm-6.36 25.66h5.46v9.74h-5.46zm-4.67 0h4.67v9.74h-4.67zm-4.29 0h4.28v9.74h-4.28zm-4.52 0h4.52v9.74h-4.52zm0-24.17h4.52v.37a2.75 2.75 0 0 1-2.34 1 3.1 3.1 0 0 1-2.18-.74z"/><path class="cls-3" d="M128.81 142.51c1.36 0 2.47.63 2.47 1.4a.9.9 0 0 1-.13.44V144h-4.52v.6a1 1 0 0 1-.3-.67c0-.79 1.11-1.42 2.48-1.42zm-6.64 25.66h4.46v9.74h-4.46zm-4.67 0h4.67v9.74h-4.67z"/><path class="cls-3" d="M112.03 168.17h5.48v9.74h-5.48zm1.32-23.9a2.63 2.63 0 0 1-2.39 1 2.94 2.94 0 0 1-2.28-.85v-.28l4.66-.2a2.83 2.83 0 0 0 .01.33z"/><path class="cls-3" d="M111 142.51c1.36 0 2.47.63 2.47 1.4a.9.9 0 0 1-.08.36 2.83 2.83 0 0 1 0-.29l-4.66.2v.28a.89.89 0 0 1-.2-.55c-.05-.77 1.06-1.4 2.47-1.4z"/><path class="cls-7" d="M113.35 144.27a26.93 26.93 0 0 0 8.14 18.73l.68.69v4.5m-4.67-.02v-2.57a32 32 0 0 1-8.82-21.13m13.49 33.43v28.19a4.62 4.62 0 0 1-4.67 0V177.9m26.75-33.37a26.89 26.89 0 0 1-8.13 18.47l-.68.69v4.5m4.67-.02v-2.57a32 32 0 0 0 8.83-21.42m-13.5 33.72v28.19c1.74.73 3.35 1 4.67 0V177.9m-8.96-33.55v23.82m-4.52 0v-23.59m4.52 33.32v28.19c-2.17 1-3.47.69-4.52 0V177.9"/><path class="cls-7" d="M140.11 168.17h5.46v9.73h-33.54v-9.73h28.08zm-31.43-23.71a.89.89 0 0 1-.2-.55c0-.77 1.11-1.4 2.48-1.4s2.47.63 2.47 1.4a.9.9 0 0 1-.08.36 2.63 2.63 0 0 1-2.39 1 2.94 2.94 0 0 1-2.28-.85zm17.95.12a1 1 0 0 1-.3-.67c0-.77 1.11-1.4 2.48-1.4s2.47.63 2.47 1.4a.9.9 0 0 1-.13.44 2.75 2.75 0 0 1-2.34 1 3.1 3.1 0 0 1-2.18-.77zm17.62-.05a1 1 0 0 1-.25-.62c0-.77 1.1-1.4 2.47-1.4s2.47.63 2.47 1.4a.84.84 0 0 1 0 .27 2.53 2.53 0 0 1-2.43 1.14 3 3 0 0 1-2.26-.79z"/></svg>