<svg xmlns="http://www.w3.org/2000/svg" id="Layer_1" data-name="Layer 1" viewBox="30.16 30.94 195.68 194.09"><defs><style>.frozen-food-1{fill:var(--chakra-colors-primary-800)}.frozen-food-3{fill:#fff}.frozen-food-4{fill:none;stroke:var(--chakra-colors-primary-800);stroke-linecap:round;stroke-linejoin:round}.frozen-food-5{fill:var(--chakra-colors-primary-400)}.frozen-food-7{fill:var(--chakra-colors-primary-50)}</style></defs><path class="frozen-food-1" d="m164.63 219.2-.48-1.19c2.1-.85 4.19-1.77 6.21-2.76l.56 1.16c-2.05.99-4.16 1.93-6.29 2.79zm-4.83 1.8c-2.17.74-4.38 1.42-6.59 2l-.33-1.24c2.18-.58 4.36-1.25 6.5-2zm15.7-7-.62-1.13c2-1.09 3.93-2.27 5.82-3.5l.7 1.08c-1.91 1.27-3.9 2.47-5.9 3.55zm10.15-6.48-.75-1c1.82-1.32 3.62-2.73 5.34-4.19l.83 1c-1.75 1.45-3.57 2.88-5.42 4.22zm9.28-7.68-.88-.93c1.64-1.54 3.25-3.16 4.78-4.82l.94.87a83.138 83.138 0 0 1-4.84 4.91zm8.24-8.75-1-.82c1.44-1.74 2.84-3.54 4.15-5.37l1 .75c-1.27 1.88-2.69 3.71-4.15 5.47zm-90.93 33.94c-2.25-.37-4.52-.83-6.75-1.36l.3-1.25c2.2.52 4.44 1 6.66 1.34zm98-43.65-1.08-.69c1.22-1.91 2.39-3.87 3.47-5.84l1.13.61a76.972 76.972 0 0 1-3.48 5.95zm-109.78 41c-2.19-.65-4.39-1.38-6.54-2.17l.45-1.21c2.12.79 4.29 1.51 6.45 2.15zm115.69-51.48-1.15-.56c1-2 1.89-4.12 2.73-6.22l1.19.48c-.85 2.12-1.78 4.24-2.77 6.3zm-127 47.38c-2.09-.9-4.18-1.9-6.22-2.95l.59-1.14c2 1 4.08 2 6.14 2.91zm131.55-58.53-1.22-.41c.73-2.15 1.38-4.34 2-6.51l1.24.32c-.63 2.21-1.29 4.43-2.02 6.6zM78.43 212.83c-2-1.15-3.92-2.39-5.8-3.69l.72-1c1.86 1.27 3.79 2.5 5.73 3.64zm145.42-64.71-1.26-.26c.45-2.21.84-4.46 1.13-6.7l1.28.17c-.31 2.26-.69 4.55-1.15 6.79zm-155.4 58c-1.82-1.39-3.6-2.86-5.31-4.37l.85-1c1.69 1.5 3.45 2.95 5.24 4.32zm157.09-69.94-1.28-.1c.18-2.25.28-4.53.3-6.79h1.28c-.01 2.3-.12 4.61-.3 6.89zm-186.7 32.56c-.83-1.85-1.62-3.76-2.34-5.66l-.27-.71 1.21-.44.26.7c.71 1.87 1.49 3.76 2.31 5.59zm-3-11.64-1.23.39c-.68-2.19-1.29-4.42-1.81-6.64l1.25-.3c.48 2.2 1.08 4.45 1.75 6.55zm175-78.21c-1.16-1.94-2.4-3.86-3.69-5.7l1-.74c1.31 1.87 2.56 3.82 3.74 5.78zM33 145.56l-1.26.23c-.41-2.25-.74-4.54-1-6.81l1.28-.14c.22 2.24.55 4.5.98 6.72zm171.12-76.47a93.911 93.911 0 0 0-4.36-5.21l1-.85c1.53 1.7 3 3.47 4.43 5.27zM31.58 133.76l-1.28.07c-.12-2.27-.17-4.59-.13-6.89h1.28c-.03 2.29.01 4.58.13 6.82zM196.26 60.2c-1.6-1.59-3.27-3.15-5-4.62l.84-1c1.72 1.49 3.42 3.07 5 4.68zM31.67 121.86l-1.28-.08c.16-2.28.4-4.59.72-6.86l1.27.18c-.32 2.24-.55 4.52-.71 6.76zm155.69-69.51c-1.78-1.39-3.64-2.73-5.51-4l.72-1.07c1.9 1.28 3.77 2.63 5.57 4zM33.23 110.07l-1.23-.24c.44-2.25 1-4.5 1.55-6.71l1.24.33c-.61 2.18-1.13 4.41-1.56 6.62zm144.32-64.43a85.952 85.952 0 0 0-6-3.27l.58-1.15c2 1 4.07 2.15 6 3.32zM36.22 98.57l-1.22-.4c.71-2.17 1.51-4.35 2.37-6.47l1.19.48c-.85 2.1-1.64 4.24-2.34 6.39zM167 40.19c-2.05-.91-4.17-1.76-6.3-2.53l.43-1.21c2.16.78 4.31 1.64 6.39 2.56zM61.26 58.72l-.89-.93c1.65-1.58 3.38-3.12 5.13-4.58l.82 1a93.65 93.65 0 0 0-5.06 4.51zm59.3-26.5c-2.25.18-4.52.44-6.75.77l-.19-1.27c2.26-.34 4.56-.6 6.84-.78zM70.33 51.05l-.77-1c1.83-1.36 3.74-2.67 5.67-3.91l.69 1.08a79.933 79.933 0 0 0-5.59 3.83zm38.46-17.17c-2.2.45-4.42 1-6.6 1.59l-.34-1.24c2.2-.61 4.45-1.15 6.69-1.61zM80.28 44.57l-.63-1.12c2-1.13 4-2.2 6.1-3.18l.55 1.16c-2.03.97-4.06 2.02-6.02 3.14zm17-7.6c-2.14.72-4.28 1.52-6.36 2.38l-.49-1.18c2.1-.88 4.27-1.69 6.44-2.42z"/><circle cx="127.59" cy="125.58" r="76.55" style="fill:var(--chakra-colors-primary-100)"/><path class="frozen-food-3" d="m179.92 57.67 2.41 9.61h-58.19l2.41-9.61h53.37zm-1.44 9.61-4.04 35.49h-42.37l-4.04-35.49h50.45z"/><path class="frozen-food-4" d="M128.03 67.28h-3.89l2.41-9.61h53.37l2.41 9.61h-3.85m0 0-4.04 35.49h-42.37l-4.04-35.49h50.45z"/><path class="frozen-food-5" d="M157 92.59v2.19h-7.35v-2.14a13.13 13.13 0 0 0 7.35 0z"/><path class="frozen-food-3" d="M162.12 81.61h4.21a13.39 13.39 0 0 1-9.32 11 13.13 13.13 0 0 1-7.35 0 13.38 13.38 0 0 1-9.48-11h21.94zm-7.41-.72a2.84 2.84 0 0 1-.1.72h-11.35a2.46 2.46 0 0 1-.1-.72c0-2.18 2.59-4 5.78-4a8.35 8.35 0 0 1 1.13.08c2.64.41 4.64 2.03 4.64 3.92z"/><path class="frozen-food-3" d="M162.14 81.2a2.75 2.75 0 0 1 0 .41h-7.51a2.84 2.84 0 0 0 .1-.72c0-1.91-2-3.51-4.64-3.87a7.72 7.72 0 0 1 5-1.76c3.91 0 7.05 2.65 7.05 5.94z"/><path class="frozen-food-4" d="M149.66 92.64a13.13 13.13 0 0 0 7.35 0 13.39 13.39 0 0 0 9.32-11m-26.15-.03a13.38 13.38 0 0 0 9.48 11m16.67-11h-26.15"/><path class="frozen-food-4" d="M149.66 92.64h0v2.14h7.35v-2.19m-13.75-10.98a2.46 2.46 0 0 1-.1-.72c0-2.18 2.59-4 5.78-4a8.35 8.35 0 0 1 1.13.08c2.64.36 4.64 2 4.64 3.87a2.84 2.84 0 0 1-.1.72"/><path class="frozen-food-4" d="M150.07 77a7.72 7.72 0 0 1 5-1.76c3.9 0 7.06 2.65 7.06 5.94a2.75 2.75 0 0 1 0 .41"/><path d="M144.73 81.8c0-1.86 1.88-3.36 4.2-3.36s4.21 1.5 4.21 3.36m-.2-3.75a4.91 4.91 0 0 1 2.36-.58c2.31 0 4.74 1.36 4.34 4.15a.13.13 0 0 1 0 .06" style="stroke:var(--chakra-colors-primary-400);stroke-miterlimit:10;fill:none"/><path class="frozen-food-7" d="m107.87 69.95-1.94 8.16H61.88l-1.94-8.16h47.93zm-1.94 53.44 1.47 8.74H60.41l1.47-8.74h44.05z"/><path class="frozen-food-3" d="M105.93 78.11c2.81 13.87 2.36 29.16 0 45.28H61.88c-2.59-16-2.59-31.26 0-45.28z"/><path class="frozen-food-4" d="m61.88 123.39-1.47 8.74h47l-1.47-8.74c2.36-16.12 2.81-31.41 0-45.28l1.93-8.11H59.94l1.94 8.16c-2.59 13.97-2.59 29.2 0 45.23zm0-45.28h44.05m-44.05 45.28h44.05"/><path class="frozen-food-3" d="M85.62 108.94a4.76 4.76 0 0 0 .76-3.12h.85a11.69 11.69 0 0 0 2.06-.19 4.26 4.26 0 0 1-3.67 3.31zM89 96.73a10.54 10.54 0 0 0-1.79-.16 13.69 13.69 0 0 0-5.17 1.13L84.8 95s1.18.33 1.61-.23.39-1.46 1-1.64 2.06 1.67 1.59 3.59z"/><path class="frozen-food-3" d="M91.54 97.4a18.92 18.92 0 0 1 6 3.81 17.79 17.79 0 0 1-8.27 4.45 11.49 11.49 0 0 1-2 .19h-.85A19.18 19.18 0 0 1 77 102h-1.42a9.7 9.7 0 0 1-1.94 1.58 5.79 5.79 0 0 1-3.39.51 8.24 8.24 0 0 1 2-2.45 19.76 19.76 0 0 1-1.92-3 3.75 3.75 0 0 1 2-.19c1.18.21 3.18 2.22 3.18 2.22h1.55a23.23 23.23 0 0 1 5-2.89 13.68 13.68 0 0 1 5.17-1.12 10.55 10.55 0 0 1 1.79.15 13.62 13.62 0 0 1 2.52.59zm2.46 2.81a.74.74 0 0 0-.74-.73.73.73 0 0 0 0 1.46.74.74 0 0 0 .74-.73z"/><path class="frozen-food-4" d="M82.06 97.7a22.41 22.41 0 0 0-5 2.89h-1.53s-2-2-3.18-2.22a3.66 3.66 0 0 0-2 .19 20 20 0 0 0 1.93 3 8.29 8.29 0 0 0-2 2.44 5.72 5.72 0 0 0 3.38-.5 9.61 9.61 0 0 0 2-1.58H77a19.26 19.26 0 0 0 9.36 3.86h.84a11.6 11.6 0 0 0 2.06-.19 17.89 17.89 0 0 0 8.26-4.45 18.78 18.78 0 0 0-6-3.81 12.61 12.61 0 0 0-2.52-.61 10.34 10.34 0 0 0-1.78-.15 13.7 13.7 0 0 0-5.16 1.13z"/><path class="frozen-food-4" d="M86.38 105.82a4.76 4.76 0 0 1-.76 3.12 4.24 4.24 0 0 0 3.66-3.28m-7.22-7.96L84.8 95s1.18.33 1.61-.23.38-1.46.94-1.64 2.12 1.67 1.65 3.59m2.54.68h0a8.15 8.15 0 0 0-.41 5.07m2.87-2.26a.74.74 0 0 1-.74.73.73.73 0 0 1 0-1.46.74.74 0 0 1 .74.73z"/><path class="frozen-food-3" d="M105 157.75c4 1.71 6.22 4.05 6.22 6.45 0 5-9.34 9.06-20.8 9.06a37.87 37.87 0 0 1-14.58-2.62c-4-1.71-6.21-4.06-6.21-6.45 0-5 9.33-9.06 20.79-9.06a37.68 37.68 0 0 1 14.58 2.62zm-1.46 20.34-1.5 6.17H79.77l-1.51-6.17h25.28z"/><path class="frozen-food-3" d="m122.88 178.09-.03 12.26H58.87v-12.26h19.39l1.51 6.17h22.27l1.5-6.17h19.34zm-8.32-27.8 8.32 27.8h-64l8.31-27.8zm-2.89 13.91c0-2.4-2.27-4.74-6.22-6.45a37.64 37.64 0 0 0-14.58-2.62c-11.46 0-20.79 4.06-20.79 9.06 0 2.39 2.26 4.74 6.22 6.45a37.78 37.78 0 0 0 14.57 2.62c11.47 0 20.8-4.07 20.8-9.06z"/><path class="frozen-food-4" d="M103.54 178.09H78.26m-19.38 0 8.31-27.8h47.37l8.32 27.8m0 0-.03 12.26H58.87v-12.26h19.39l1.51 6.17h22.27l1.5-6.17h19.34z"/><path class="frozen-food-7" d="M109.55 160.78c4.45 4.57-.4 9.84-10.83 11.77s-22.52-.2-27-4.77.39-9.84 10.83-11.77 22.54.2 27 4.77zm-1.85 3.81c0-.53.38-1.11.17-1.66s-1-1-1.53-1.55a10.51 10.51 0 0 0-2.37-1.92 21.23 21.23 0 0 0-5.43-1.79h-.18a37 37 0 0 0-4.77-.7 41.41 41.41 0 0 0-4.72 0 36.42 36.42 0 0 0-4.91.45 25.27 25.27 0 0 0-3.32.91 18.42 18.42 0 0 0-3.78 1.54c-.65.39-.84.93-1.31 1.37-.63.6-1.46 1.11-1.72 1.76-.17.42.14.94.15 1.38a3.15 3.15 0 0 0 .43 2.16 6.68 6.68 0 0 0 .74.61c.23.24.3.51.58.72a14.74 14.74 0 0 0 3.46 1.78 22.52 22.52 0 0 0 4.81 1.69c1.12.21 2.37.18 3.58.28a43.44 43.44 0 0 0 5.27.36 17.88 17.88 0 0 0 3.23-.57l1.24-.27a30 30 0 0 0 4.43-.92 14.09 14.09 0 0 0 3.17-1.85 10.05 10.05 0 0 0 2.65-2c.37-.57.08-1.2.13-1.78z"/><path class="frozen-food-7" d="M101.72 160.91c2.36.5 3.36 1.74 2.24 2.77s-4 1.47-6.34 1a5.15 5.15 0 0 1-2.15-.91 1.12 1.12 0 0 1-.08-1.87 5 5 0 0 1 2.35-1 10.46 10.46 0 0 1 3.98.01zM98 167.5c1 1 0 2.16-2.17 2.65a1.77 1.77 0 0 1-.33.08c-2.42.44-5.2 0-6.23-1.11s.09-2.28 2.5-2.72a9.63 9.63 0 0 1 2.2-.15A6.29 6.29 0 0 1 98 167.5zm-5.67-7.88c1 1.07-.09 2.28-2.5 2.73s-5.2 0-6.23-1.11.09-2.27 2.5-2.72 5.2.05 6.23 1.1zM84 163.8c2 .44 3.11 1.49 2.43 2.47-.52.76-2 1.29-3.66 1.42l-.09-1.07 1.17-1.62z"/><path class="frozen-food-7" d="m84 163.8-.15 1.2-1.13 1.63.09 1.07a10.83 10.83 0 0 1-2.27-.05c-2.5-.33-3.92-1.5-3.15-2.59s3.41-1.71 5.92-1.38a7.34 7.34 0 0 1 .69.12z"/><path class="frozen-food-4" d="M109.55 160.78c4.45 4.57-.4 9.84-10.83 11.77s-22.52-.2-27-4.77.39-9.84 10.83-11.77 22.54.2 27 4.77z"/><path class="frozen-food-1" d="M88 162.65c-1.88 0-3.69-.49-4.48-1.31a1.18 1.18 0 0 1-.38-1.23c.25-.78 1.35-1.43 3-1.73 2.45-.44 5.29.07 6.35 1.14a1.17 1.17 0 0 1 .37 1.24c-.25.78-1.35 1.42-3 1.71a9.71 9.71 0 0 1-1.86.18zm0-4.15a10 10 0 0 0-1.82.16c-1.48.28-2.53.86-2.74 1.53a.91.91 0 0 0 .31.95c1 1 3.74 1.51 6.1 1.07 1.48-.27 2.52-.86 2.74-1.52a.94.94 0 0 0-.31-1A6.54 6.54 0 0 0 88 158.5z"/><path class="frozen-food-1" d="M86.78 161.45a.13.13 0 0 1-.13-.11.13.13 0 0 1 .11-.16l3.59-.66a.13.13 0 0 1 .16.11.14.14 0 0 1-.11.16l-3.59.66zm6.87 9.08c-1.9 0-3.71-.5-4.51-1.31a1.17 1.17 0 0 1-.37-1.24c.25-.78 1.35-1.42 3-1.72a10.42 10.42 0 0 1 2.23-.15 6.35 6.35 0 0 1 4.13 1.3 1.18 1.18 0 0 1 .37 1.21c-.21.72-1.19 1.35-2.62 1.67l-.34.07a10.33 10.33 0 0 1-1.89.17zm-.11-4.15a9.48 9.48 0 0 0-1.77.16c-1.47.27-2.52.85-2.74 1.52a1 1 0 0 0 .31 1c1 1 3.74 1.49 6.1 1.06l.32-.07c1.34-.3 2.24-.86 2.42-1.48a.93.93 0 0 0-.3-.94 6.15 6.15 0 0 0-3.94-1.22h-.4z"/><path class="frozen-food-1" d="M92.43 169.32a.13.13 0 0 1-.14-.11.13.13 0 0 1 .11-.16l3.58-.66a.14.14 0 0 1 0 .27l-3.58.66zm7.23-4.32a10 10 0 0 1-2.06-.21 5.34 5.34 0 0 1-2.22-.93 1.52 1.52 0 0 1-.6-1.07 1.38 1.38 0 0 1 .51-1 5 5 0 0 1 2.42-1 10.77 10.77 0 0 1 4 0c1.52.32 2.56 1 2.77 1.72a1.25 1.25 0 0 1-.47 1.28 7 7 0 0 1-4.35 1.21zm-1.9-4a5 5 0 0 0-2.28 1 1.12 1.12 0 0 0-.42.81 1.21 1.21 0 0 0 .5.85 4.91 4.91 0 0 0 2.09.88c2.33.49 5.11.06 6.21-1a1 1 0 0 0 .39-1c-.18-.65-1.16-1.24-2.56-1.53a10.39 10.39 0 0 0-3.93 0z"/><path class="frozen-food-1" d="m102.1 162.75-3.54-.75a.14.14 0 0 1-.11-.17.13.13 0 0 1 .16-.1l3.52.74a.14.14 0 0 1 .11.16.14.14 0 0 1-.14.12zm-20.19 5.12a10.7 10.7 0 0 1-1.39-.09c-1.73-.23-3-.87-3.38-1.68a1.11 1.11 0 0 1 .13-1.13c.79-1.13 3.51-1.78 6.06-1.44a6.63 6.63 0 0 1 .74.13c1.4.31 2.4.91 2.67 1.6a1.14 1.14 0 0 1-.15 1.09c-.53.77-2 1.34-3.77 1.48-.3.02-.61.04-.91.04zm0-4.15c-2 0-3.83.55-4.43 1.41a.85.85 0 0 0-.11.86c.32.7 1.56 1.3 3.17 1.51a9.84 9.84 0 0 0 2.24.05c1.68-.13 3.08-.67 3.56-1.36a.83.83 0 0 0 .12-.82c-.24-.62-1.16-1.15-2.47-1.43-.21-.05-.46-.1-.72-.14a10.34 10.34 0 0 0-1.34-.08z"/><path class="frozen-food-1" d="M82.72 166.76a.11.11 0 0 1-.08 0 .13.13 0 0 1 0-.19l1.13-1.63a.13.13 0 0 1 .19 0 .15.15 0 0 1 0 .2l-1.14 1.63a.13.13 0 0 1-.1-.01zM95.87 160a.14.14 0 0 1-.14-.12.15.15 0 0 1 .12-.16l2.1-.39a.14.14 0 0 1 .16.11.13.13 0 0 1-.11.16l-2.1.4zM79 162.12s-.09 0-.11-.05a.13.13 0 0 1 0-.19L80 161a.14.14 0 1 1 .18.22l-1.09.88a.11.11 0 0 1-.09.02zm8.91 2.26a.13.13 0 0 1-.14-.11.14.14 0 0 1 .11-.16l2.29-.44a.14.14 0 0 1 .16.11.14.14 0 0 1-.11.17l-2.29.43zm6.46.8h-.2l-2-.37a.14.14 0 0 1-.11-.16.14.14 0 0 1 .16-.11l2.17.41a.14.14 0 0 1 .11.17.14.14 0 0 1-.13.06zM87.22 171h-.07a.14.14 0 0 1-.05-.19l.48-.88a.13.13 0 0 1 .19-.05.13.13 0 0 1 0 .19l-.48.87a.13.13 0 0 1-.07.06zm13.66-1.92a.14.14 0 0 1-.09-.17l.29-1a.15.15 0 0 1 .17-.1.15.15 0 0 1 .1.18l-.29 1a.15.15 0 0 1-.18.09z"/><path class="frozen-food-7" d="m195.89 118.16-2.02 8.5h-45.9l-2.02-8.5h49.94zm-2.02 55.68 1.53 9.11h-48.96l1.53-9.11h45.9z"/><path class="frozen-food-3" d="M193.87 126.66c2.93 14.45 2.46 30.39 0 47.18H148c-2.7-16.7-2.7-32.57 0-47.18z"/><path class="frozen-food-4" d="m148 173.84-1.56 9.16h49l-1.53-9.11c2.46-16.79 2.93-32.73 0-47.18l2-8.51H146l2 8.51c-2.73 14.56-2.73 30.43 0 47.13zm-.03-47.18h45.9m-45.9 47.18h45.9"/><path class="frozen-food-3" d="M173.54 145.07c1.75-.35 3-1.47 3-2.79a2.63 2.63 0 0 0-1.34-2.13 2.13 2.13 0 0 0 .37-3.77 2.17 2.17 0 0 1 4 1.38 2.17 2.17 0 0 1-.48 4.22 2.66 2.66 0 0 1 .67 2.46c-.42 1.39-2.22 2.11-4.22 1.77l-1.29 3.44a3.65 3.65 0 0 0-.49-.06z"/><path class="frozen-food-5" d="M172.47 149.53c.45 0 .9 0 1.35.07a3.65 3.65 0 0 1 .49.06c3.93.49 7.64 2.47 7.58 6.62-.08 4.79-5.43 6.58-7.42 8a5.55 5.55 0 0 0-2 3.08 6.21 6.21 0 0 0-2.94-4.31c-1.6-1.07-5.6-3.61-5.48-7.11.11-3.16 3.52-5.88 7.25-6.33h.28a8.82 8.82 0 0 1 .89-.08z"/><path class="frozen-food-3" d="M173.82 149.6c-.45 0-.9-.07-1.35-.07a8.82 8.82 0 0 0-.89 0v-4.41c-2-.24-3.48-1.44-3.48-2.87a2.61 2.61 0 0 1 1.33-2.13 2.13 2.13 0 0 1-1.33-2 2.16 2.16 0 0 1 .62-1.51 2.09 2.09 0 0 1 1.46-.63 2.14 2.14 0 0 1 4.22 0 2.14 2.14 0 0 1 .81 4.13 2.63 2.63 0 0 1 1.34 2.13c0 1.32-1.29 2.44-3 2.79z"/><path class="frozen-food-3" d="M168.1 142.28c0 1.43 1.5 2.63 3.48 2.87v4.41h-.28l-1.61-3.17c-1.95.53-3.82 0-4.38-1.34a2.63 2.63 0 0 1 .42-2.51 2.19 2.19 0 0 1-2-1.34 2.17 2.17 0 0 1 1.12-2.81 2.18 2.18 0 0 1 3.89-1.75 2.16 2.16 0 0 0-.62 1.51 2.13 2.13 0 0 0 1.33 2 2.61 2.61 0 0 0-1.35 2.13z"/><path class="frozen-food-4" d="M171.58 149.56a8.82 8.82 0 0 1 .89 0c.45 0 .9 0 1.35.07a3.65 3.65 0 0 1 .49.06c3.93.49 7.64 2.47 7.58 6.62-.08 4.79-5.43 6.58-7.42 8a5.55 5.55 0 0 0-2 3.08 6.21 6.21 0 0 0-2.94-4.31c-1.6-1.07-5.6-3.61-5.48-7.11.11-3.16 3.52-5.88 7.25-6.33zm-2.86-12.9a2.18 2.18 0 0 0-3.89 1.75 2.17 2.17 0 0 0-1.12 2.81 2.19 2.19 0 0 0 2 1.34 2.63 2.63 0 0 0-.42 2.51c.56 1.35 2.43 1.87 4.38 1.34l1.61 3.17"/><path class="frozen-food-4" d="m174.31 149.65 1.29-3.44c2 .34 3.8-.38 4.22-1.77a2.66 2.66 0 0 0-.67-2.46 2.17 2.17 0 0 0 .48-4.22 2.17 2.17 0 0 0-4-1.38.08.08 0 0 0 0 0"/><path class="frozen-food-4" d="M173.54 145.07c1.75-.35 3-1.47 3-2.79a2.63 2.63 0 0 0-1.34-2.13 2.15 2.15 0 0 0-.81-4.13h0a2.14 2.14 0 0 0-4.22 0 2.09 2.09 0 0 0-1.46.63 2.16 2.16 0 0 0-.62 1.51 2.13 2.13 0 0 0 1.33 2 2.61 2.61 0 0 0-1.33 2.13c0 1.43 1.5 2.63 3.48 2.87m.01 4.4v-4.41m2.24 4.45-.28-4.53"/></svg>