<svg xmlns="http://www.w3.org/2000/svg" id="Layer_1" data-name="Layer 1" viewBox="41.08 40.82 173.84 174.36"><defs><style>.garden-3{fill:var(--chakra-colors-primary-400)}.garden-4{fill:#fff}.garden-5{fill:none;stroke:var(--chakra-colors-primary-800);stroke-miterlimit:10}.garden-6{fill:var(--chakra-colors-primary-50)}</style></defs><path d="M124.33 215.09v-1.14c2 .09 4.05.12 6.05.06v1.15c-1.94.04-4.01.02-6.05-.07zm-4.59-.33c-2-.2-4.08-.47-6.08-.81l.19-1.13c2 .33 4 .6 6 .79zm15.32.16-.09-1.14c2-.16 4-.39 6-.68l.17 1.13c-2 .3-4.05.53-6.08.69zm10.63-1.48-.23-1.13c2-.4 3.95-.87 5.88-1.42l.31 1.11c-1.96.55-3.96 1-5.96 1.44zm10.36-2.79-.37-1.08c1.89-.64 3.8-1.35 5.66-2.13l.44 1.05c-1.88.79-3.78 1.51-5.73 2.16zm9.93-4-.5-1c1.81-.87 3.62-1.82 5.36-2.82l.57 1c-1.77.94-3.6 1.89-5.41 2.78zm-86.28-6.2c-1.69-1.14-3.36-2.35-5-3.6l.7-.9c1.59 1.23 3.24 2.43 4.91 3.55zm95.64 1-.61-1c1.69-1.08 3.36-2.24 5-3.44l.69.91c-1.67 1.18-3.36 2.35-5.08 3.45zm-104.16-7.56a84.604 84.604 0 0 1-4.49-4.19l.8-.81a86.44 86.44 0 0 0 4.44 4.13zM184 195l-.74-.88c1.55-1.28 3.07-2.64 4.52-4l.79.82c-1.47 1.42-3.02 2.8-4.57 4.06zm-120.49-8.63c-1.35-1.5-2.69-3.09-3.94-4.69l.91-.71c1.24 1.59 2.55 3.15 3.89 4.63zm128.3 1.31-.83-.78c1.39-1.47 2.72-3 4-4.56l.89.73c-1.3 1.57-2.66 3.13-4.06 4.61zM56.83 178a86.879 86.879 0 0 1-3.34-5.14l1-.59c1 1.72 2.14 3.43 3.29 5.07zm141.84 1.45-.93-.68c1.19-1.62 2.33-3.31 3.41-5l1 .61c-1.15 1.69-2.28 3.39-3.48 5.04zM51.23 168.83c-1-1.8-1.86-3.66-2.69-5.51l1.05-.47c.81 1.84 1.71 3.66 2.65 5.44zm153.24 1.55-1-.56c1-1.76 1.91-3.57 2.76-5.4l1 .49c-.83 1.85-1.77 3.69-2.76 5.47zM41.08 127.57c0-1.81.08-3.66.2-5.46v-.67l1.14.08v.67c-.12 1.78-.19 3.6-.2 5.39zM42.93 117l-1.13-.14c.25-2 .59-4.06 1-6.06l1.13.23c-.42 1.97-.75 3.97-1 5.97zm170.85 1.49c-.22-2-.51-4-.87-6l1.12-.21c.36 2 .66 4 .89 6.07zM44.91 106.6l-1.1-.29c.51-2 1.08-4 1.73-5.88l1.08.36c-.62 1.91-1.21 3.86-1.71 5.81zM212 108.06c-.46-2-1-3.92-1.61-5.83l1.09-.35c.61 2 1.16 3.94 1.63 5.92zM48.16 96.53l-1.07-.43c.75-1.89 1.57-3.78 2.45-5.63l1 .49c-.83 1.82-1.64 3.69-2.38 5.57zm160.74 1.41a93.83 93.83 0 0 0-2.31-5.59l1-.48c.85 1.85 1.63 3.76 2.35 5.67zm-156.26-11-1-.55c1-1.78 2-3.56 3.12-5.29l1 .62a68.571 68.571 0 0 0-3.12 5.19zm152 1.36c-.93-1.78-1.93-3.55-3-5.26l1-.59c1.07 1.73 2.09 3.53 3 5.33zM58.28 77.93l-.93-.66c1.19-1.66 2.45-3.3 3.75-4.86l.87.73a85.81 85.81 0 0 0-3.69 4.79zm140.86 1.28a89.853 89.853 0 0 0-3.61-4.86l.9-.71c1.27 1.58 2.5 3.24 3.65 4.92zM65 69.72l-.84-.78c1.38-1.5 2.83-3 4.32-4.37l.78.84c-1.5 1.38-2.93 2.82-4.26 4.31zm127.6 1.15c-1.33-1.5-2.74-3-4.18-4.38l.8-.82c1.46 1.43 2.88 2.92 4.23 4.45zM100 46.69l-.38-1.08c1.92-.67 3.9-1.28 5.86-1.81l.3 1.11c-1.91.53-3.86 1.09-5.78 1.78zm57.89.52c-1.89-.7-3.83-1.33-5.76-1.88l.32-1.1c2 .56 3.92 1.2 5.83 1.91zm-47.7-3.37-.19-1.11c2-.43 4-.79 6-1.08l.16 1.13c-1.97.3-3.97.65-5.94 1.06zm37.55.34c-2-.45-4-.83-6-1.15l.26-1.13c2 .32 4 .71 6 1.17zm-27.08-1.9-.1-1.14c2-.17 4.1-.28 6.13-.32v1.15c-1.96.03-4 .14-6 .31zm16.64.15c-2-.21-4-.35-6.05-.42v-1.14c2 .07 4.09.22 6.13.43z" style="fill:var(--chakra-colors-primary-800)"/><circle cx="128.9" cy="127.59" r="67.05" style="fill:var(--chakra-colors-primary-100)"/><path class="garden-3" d="M106.05 163.05a9 9 0 0 1 7.17-14.48 9.11 9.11 0 0 1 3.54.73 9 9 0 1 1-10.71 13.75zm12.48-6a5.31 5.31 0 1 0-5.31 5.31 5.3 5.3 0 0 0 5.31-5.31z"/><path class="garden-4" d="M113.22 151.75a5.31 5.31 0 1 1-5.31 5.3 5.3 5.3 0 0 1 5.31-5.3z"/><path class="garden-4" d="m102.18 143.15 8.66-.09a7.41 7.41 0 0 1 6 6l-.11.23a9 9 0 0 0-12.56 8.28 9 9 0 0 0 1.85 5.47l-29.44-.29-.15-.14a9 9 0 0 0-11.13-13.25l-.13-.29-.27-12.68v-.09h15.95l4.94 2.66 8 4.29h.08z"/><path class="garden-3" d="m97.65 138 4.49 1.09v4c-2.81 0-5.62.06-8.43.1l-8-4.29v-3.8l11.94-.1v3z"/><path class="garden-3" d="M95.9 130.56h4.3v4.43h-2.51l-11.86.07h-3.68l-.18-4.62h5.07z"/><path class="garden-3" d="M95.9 128.21v2.35l-8.9-.03v-2.28l8.9-.04zM78 157.58a9 9 0 1 1-9-9 9 9 0 0 1 9 9zm-3.7-.53a5.31 5.31 0 1 0-5.3 5.31 5.3 5.3 0 0 0 5.3-5.31z"/><path class="garden-4" d="M69 151.75a5.31 5.31 0 1 1-5.31 5.3 5.3 5.3 0 0 1 5.31-5.3z"/><path class="garden-5" d="M64.17 136.3h16.99m12.43 6.89h.16c2.81 0 5.62-.08 8.43-.1l9-.1m-34.57 19.77 29.44.29h.3"/><path class="garden-5" d="m80.85 136.24 4.94 2.66 8 4.29h.08l8.35-.07 8.66-.09a7.41 7.41 0 0 1 6 6M97.65 135h2.51v-4.43H81.89l.18 4.62h3.68z"/><path class="garden-5" d="M87 130.63v-2.38l8.9-.04v2.39m-10.11 4.55v3.94m11.86-3.73v3.08m-21.19 24.18a9 9 0 1 1 1.54-5 9 9 0 0 1-1.54 5z"/><path class="garden-5" d="M63.68 157.05a5.31 5.31 0 1 1 5.32 5.31 5.3 5.3 0 0 1-5.32-5.31zm42.37 6a9 9 0 0 1 7.17-14.48 9.11 9.11 0 0 1 3.54.73 9 9 0 1 1-10.71 13.75z"/><path class="garden-5" d="M107.91 157.05a5.31 5.31 0 1 1 5.31 5.31 5.3 5.3 0 0 1-5.31-5.31zM64.9 136.39l.27 12.68M97.69 138l4.49 1.09v4.22m-49.4-38.74 21.07 31.69.05.08m-5.1 3.57h7.45m-7.37 3.62h7.49"/><path class="garden-4" d="m196.86 87.51-5.83 1.53-2.92-2.71 1.11-6.19 7.64 7.37z"/><path class="garden-3" d="m188.11 86.33 2.92 2.71.01.01-16.02 17.63v-8.8l7.79-7.05 5.13-4.66.17.16z"/><path class="garden-4" d="m182.81 90.83-7.79 7.05V85.17l7.79 5.66zM162.53 79.6H175v32.58h-23.7V79.6zm1.71 3.4a1.81 1.81 0 1 0-1.81 1.81 1.81 1.81 0 0 0 1.81-1.81z"/><path class="garden-3" d="M162.52 79.49h-.09v-7.73a2 2 0 0 1 3.95 0v7.73z"/><path class="garden-4" d="M151.32 82.59v23.15a9.72 9.72 0 0 1-1.09.05 11.63 11.63 0 0 1 0-23.25 9.72 9.72 0 0 1 1.09.05z"/><path class="garden-5" d="M175.02 106.68v5.5h-23.7V79.6h23.7v27.08zm-12.59-27.19v-7.73a2 2 0 0 1 3.95 0v7.73h-3.95z"/><path class="garden-5" d="M162.52 79.33v.16l.01.11.05 1.62"/><circle class="garden-5" cx="162.43" cy="83.03" r="1.81"/><path class="garden-5" d="M151.32 105.74a9.72 9.72 0 0 1-1.09.05 11.63 11.63 0 0 1 0-23.25 9.72 9.72 0 0 1 1.09 0m23.3 15.7.4-.36 7.79-7.05 5.13-4.66.17.16 2.92 2.71.01.01-16.02 17.63-.23.25"/><path class="garden-5" d="M188.11 86.36v-.03l1.11-6.19 7.64 7.37-5.83 1.53-.14.04m-16.14-4.1.27.19 7.79 5.66.05.03"/><path class="garden-4" d="M179.74 156.93a1.33 1.33 0 0 1 1.22 1.36l-.55 23.52a1.33 1.33 0 0 1-1.28 1.31h-1.31a1.35 1.35 0 0 1-1.39-1.32l-.24-14.31a1.33 1.33 0 0 0-1.42-1.31h-.32a1.33 1.33 0 0 0-1.25 1.33v14a1.34 1.34 0 0 1-1.36 1.33h-2.08a1.34 1.34 0 0 1-1.31-1.3l-.31-14.16a1.34 1.34 0 0 0-1.34-1.31 1.33 1.33 0 0 0-1.31 1.33v14.19a1.33 1.33 0 0 1-1.35 1.33h-1.91a1.32 1.32 0 0 1-1.32-1.32l-.13-23.45a1.35 1.35 0 0 1 1.2-1.34 11.06 11.06 0 0 0 6-2.19l1.48 8.32h2.59l1.24-8.54h.19a11 11 0 0 0 6.26 2.53z"/><path class="garden-3" d="m173.84 134.65-.28 16.92-5.81.06.05-17.1 6.04.12z"/><path class="garden-6" d="m168.01 154.69-.26-1.47v-1.59l5.81-.06-.02 1.37-.22 1.53-1.24 8.53h-2.59l-1.48-8.31z"/><path class="garden-4" d="M147.58 134.31s15.22 9.37 8.95 26.09a10.63 10.63 0 0 0-6.61 2.49h-.16v-.47l-1.33-7.79h-2.29l-1.72 7.87v.16h-.12c-2.25-2.09-6.65-2.09-6.65-2.09-5.37-18.82 9.93-26.26 9.93-26.26z"/><path class="garden-3" d="m149.8 165.69.25 17.16-5.7.22.05-17.39 5.4.01z"/><path class="garden-6" d="m149.76 162.88.04 2.81-5.4-.01.01-3.02v-.16l1.72-7.87h2.29l1.33 7.78.01.47z"/><path class="garden-5" d="M144.41 162.66v-.16l1.72-7.87h2.29l1.33 7.78.01.47.04 2.81.25 17.16-5.7.22.05-17.39.01-3.02z"/><path class="garden-5" d="M142.17 165.68h2.23l5.4.01h2.18m-2.06-2.8a10.63 10.63 0 0 1 6.61-2.49c6.27-16.72-8.95-26.09-8.95-26.09s-15.3 7.44-9.94 26.26c0 0 4.4 0 6.65 2.09m1.83 18.48 2.1-.02m25.34-29.55.28-16.92-6.04-.12-.05 17.1v1.59l.26 1.47 1.48 8.31h2.59l1.24-8.53.22-1.53.02-1.37z"/><path class="garden-5" d="m165.58 151.65 2.17-.02 5.81-.06 2.47-.01m-7.69 2.82a2.73 2.73 0 0 1-.33.31 11.06 11.06 0 0 1-6 2.19 1.35 1.35 0 0 0-1.2 1.34l.13 23.45a1.32 1.32 0 0 0 1.32 1.32h1.91a1.33 1.33 0 0 0 1.35-1.33v-14.17a1.33 1.33 0 0 1 1.31-1.33 1.34 1.34 0 0 1 1.34 1.31l.31 14.16a1.34 1.34 0 0 0 1.31 1.3h2.08a1.34 1.34 0 0 0 1.36-1.33v-14a1.33 1.33 0 0 1 1.25-1.33h.32a1.33 1.33 0 0 1 1.42 1.31l.24 14.31a1.35 1.35 0 0 0 1.39 1.32h1.31a1.33 1.33 0 0 0 1.28-1.31l.55-23.52a1.33 1.33 0 0 0-1.22-1.36 11 11 0 0 1-6.23-2.43"/><path class="garden-4" d="M121.53 89.73v4.91h-3.39l-.06-4.91h3.45zm-12.87 0 .03 4.91h-6.3l-.06-4.91h6.33zm-15.74 0 .02 4.91h-6.38l-.04-4.91h6.4zm-15.84 0 .03 4.91h-4.92v-4.91h4.89zm-.05-10.99.02 4.9h-4.86v-4.9h4.84zm15.83 0 .02 4.9h-6.44l-.05-4.9h6.47zm15.73 0 .04 4.9h-6.35l-.06-4.9h6.37z"/><path class="garden-4" d="m118.14 94.64.06 7.18-9.48.06-.03-7.24-.03-4.91-.03-6.09-.04-4.9-.01-2.67 4.98-4.13 4.38 3.93.03 2.87.06 4.9.05 6.09.06 4.91zm-15.75 0 .06 7.18-9.48.06-.03-7.24-.02-4.91-.04-6.09-.02-4.9-.02-2.67 4.97-4.13 4.38 3.93.03 2.87.06 4.9.05 6.09.06 4.91zm-15.83 0 .07 7.18-9.49.06-.03-7.24-.03-4.91-.03-6.09-.02-4.9-.01-2.67 4.96-4.13 4.38 3.93.03 2.87.05 4.9.08 6.09.04 4.91z"/><path class="garden-5" d="m86.44 83.64.07 6.09m-9.48-10.99-.01-2.67 4.96-4.13 4.38 3.93.03 2.87m-9.31 10.99-.03-6.09m9.51 11 .07 7.18-9.49.06-.03-7.24m7.39-16.83.07 4.52m-1.55 5.39L83 93.23m1.63 2.21-.05 2.53m-4.2-4.89.01 5.3m-1.3-15.15.01 3.81m23.17-3.4.06 6.09m-9.47-10.99-.02-2.67 4.97-4.13 4.38 3.93.03 2.87m-9.3 10.99-.04-6.09m9.51 11 .06 7.18-9.48.06-.03-7.24m7.39-16.83.06 4.52m-1.55 5.39-.01 5.51m1.62 2.21-.04 2.53m-4.22-4.89.03 5.3m-1.3-15.15.01 3.81m23.09-3.4.06 6.09m-9.49-10.99-.01-2.67 4.98-4.13 4.38 3.93.03 2.87m-9.31 10.99-.03-6.09m9.51 11 .06 7.18-9.48.06-.03-7.24m7.39-16.83.06 4.52m-1.55 5.39-.02 5.51m1.62 2.21-.03 2.53m-4.22-4.89.03 5.3m-1.3-15.15.01 3.81m-33.63-3.4h-4.86v-4.9h4.84l.02 4.9zm15.83 0h-6.44l-.05-4.9h6.47l.02 4.9zm15.75 0h-6.35l-.06-4.9h6.37l.04 4.9zm9.34-4.9h3.56v4.9h-3.5l-.06-4.9zm-40.86 15.9h-4.92v-4.91h4.89l.03 4.91zm15.83 0h-6.38l-.04-4.91h6.4l.02 4.91zm15.75 0h-6.3l-.06-4.91h6.33l.03 4.91zm9.39-4.91h3.45v4.91h-3.39l-.06-4.91z"/></svg>