<svg xmlns="http://www.w3.org/2000/svg" id="Layer_1" data-name="Layer 1" viewBox="43.64 42.37 168.72 171.26"><defs><style>.ladder-3{fill:var(--chakra-colors-primary-50)}.ladder-4{fill:#fff}.ladder-6{fill:none;stroke:var(--chakra-colors-primary-800);stroke-miterlimit:10}</style></defs><path d="m141.75 212.74-.17-1.11c2-.29 3.93-.64 5.85-1.07l.24 1.1c-1.94.42-3.94.78-5.92 1.08zm-4.49.54c-2 .19-4 .31-6 .35v-1.13c2-.05 4-.16 5.93-.35zm14.8-2.71-.3-1.08c1.91-.53 3.82-1.13 5.67-1.78l.38 1.06c-1.88.67-3.81 1.23-5.75 1.8zm10-3.41-.42-1c1.82-.76 3.65-1.59 5.41-2.47l.5 1c-1.82.86-3.66 1.7-5.55 2.47zm9.48-4.62-.56-1c1.71-1 3.41-2 5.06-3.11l.63.94a81.15 81.15 0 0 1-5.16 3.17zm8.82-5.76-.67-.9c1.58-1.17 3.15-2.42 4.64-3.71l.74.85a97.568 97.568 0 0 1-4.74 3.76zM96 206.92c-1.84-.79-3.68-1.64-5.47-2.55l.51-1c1.76.9 3.58 1.74 5.4 2.51zM188.38 190l-.77-.81c1.43-1.37 2.83-2.8 4.16-4.25l.83.75c-1.35 1.46-2.77 2.91-4.22 4.31zM86.53 202.22c-1.73-1-3.45-2.08-5.11-3.2l.63-.93c1.64 1.11 3.33 2.16 5 3.15zm109-20-.88-.71c1.26-1.53 2.46-3.12 3.61-4.74l.92.65c-1.18 1.68-2.38 3.3-3.64 4.84zM77.74 196.4c-1.59-1.2-3.17-2.48-4.68-3.79l.74-.85c1.5 1.29 3 2.56 4.62 3.74zm124-22.69-1-.6c1.06-1.68 2.07-3.4 3-5.14l1 .53c-.94 1.76-1.96 3.5-3.03 5.21zm-132 15.84a85.62 85.62 0 0 1-4.18-4.34l.84-.75a79.32 79.32 0 0 0 4.13 4.27zm137.06-25.09-1-.48c.84-1.78 1.63-3.63 2.35-5.47l1 .41c-.71 1.87-1.52 3.73-2.37 5.54zM62.61 181.77a88.673 88.673 0 0 1-3.61-4.81l.92-.65a78.49 78.49 0 0 0 3.57 4.75zm148.07-27.11-1.06-.35c.62-1.88 1.17-3.8 1.65-5.72l1.09.27a76.96 76.96 0 0 1-1.68 5.8zM45.13 143.88c-.33-1.75-.61-3.54-.83-5.3l-.07-.66 1.11-.13.07.65c.22 1.74.5 3.51.82 5.24zm-.19-10.54-1.12.08c-.13-2-.19-4-.18-6h1.13c-.02 1.96.04 3.95.17 5.92zm165-30.46c-.59-1.89-1.24-3.78-2-5.61l1-.41c.72 1.85 1.39 3.77 2 5.69zM44.91 122.94l-1.12-.07c.12-2 .31-4 .57-6l1.11.15c-.26 1.98-.47 3.98-.56 5.92zm161.38-29.78a77.57 77.57 0 0 0-2.64-5.33l1-.53c1 1.76 1.85 3.58 2.67 5.4zM46.16 112.62l-1.11-.21c.36-2 .8-3.94 1.31-5.88l1.09.28c-.45 1.91-.93 3.87-1.29 5.81zM201.43 84c-1-1.68-2.13-3.34-3.27-5l.91-.66c1.16 1.63 2.27 3.32 3.32 5zM48.69 102.51l-1.08-.34c.6-1.9 1.29-3.82 2-5.68l1 .41c-.61 1.85-1.33 3.73-1.92 5.61zm146.79-27.05a83.732 83.732 0 0 0-3.87-4.52l.83-.76c1.36 1.48 2.67 3 3.92 4.58zM52.44 92.8l-1-.47c.84-1.81 1.75-3.63 2.71-5.38l1 .54c-.99 1.73-1.89 3.51-2.71 5.31zm136.08-25.07a82.667 82.667 0 0 0-4.38-4l.73-.86c1.52 1.3 3 2.67 4.44 4.07zM57.36 83.63l-1-.59a77.75 77.75 0 0 1 3.35-5l.91.66c-1.11 1.59-2.22 3.24-3.26 4.93zm123.3-22.72a84.557 84.557 0 0 0-4.85-3.44l.62-.94a84.1 84.1 0 0 1 4.91 3.5zm-93.79-6-.56-1c1.73-1 3.51-2 5.31-2.84l.49 1c-1.77.93-3.53 1.82-5.24 2.81zm55.92-10.31a83.1 83.1 0 0 0-5.89-.74l.1-1.12c2 .18 4 .43 6 .75zm-46.62 5.63-.44-1c1.84-.78 3.73-1.51 5.62-2.17l.37 1.06a81.03 81.03 0 0 0-5.55 2.11zm36.27-6.68c-2-.07-4-.07-6 0v-1.13c2-.07 4-.06 6 0zM106 46.77l-.31-1.08c1.92-.55 3.89-1 5.85-1.46l.23 1.1c-1.95.41-3.9.89-5.77 1.44zm16.07-3c-2 .17-4 .41-5.91.72l-.16-1.07c2-.31 4-.55 6-.73z" style="fill:var(--chakra-colors-primary-800)"/><circle cx="129.82" cy="127.5" r="65.86" style="fill:var(--chakra-colors-primary-100)"/><path class="ladder-3" d="m91.46 141.16 4.93 4.33-12.46 14.21-4.94-4.32 12.47-14.22z"/><path class="ladder-3" transform="rotate(-48.76 94.262 156.197)" d="M84.81 152.92h18.92v6.56H84.81z"/><path class="ladder-3" d="m104.62 152.69 4.94 4.33-12.48 14.22-4.93-4.33 12.47-14.22zm6.58 5.78 4.94 4.32-12.47 14.22-4.94-4.33 12.47-14.21zm6.58 5.76 4.93 4.33-12.46 14.21-4.94-4.32 12.47-14.22z"/><path class="ladder-4" d="M129.83 173.71a1.1 1.1 0 0 1 1.65 1.44l-.54.62L118.47 190l-.55.62a1.1 1.1 0 0 1-1.55.1 1.13 1.13 0 0 1-.37-.72 1.16 1.16 0 0 1 .28-.8l.55-.62 12.46-14.21zm-5.47-3.71-12.47 14.22-.55.62a1.09 1.09 0 0 1-1.54.1l-.1-1.55.54-.62 12.47-14.21.54-.62 1.55-.1a1.09 1.09 0 0 1 .1 1.54z"/><path class="ladder-3" d="m124.36 170 4.93 4.33-12.46 14.21-4.94-4.32L124.36 170z"/><path class="ladder-4" d="M116.68 162.17a1.09 1.09 0 1 1 1.64 1.44l-.54.62-12.47 14.22-.55.62a1.09 1.09 0 0 1-1.54.1 1.06 1.06 0 0 1-.37-.74 1.09 1.09 0 0 1 .27-.8l.54-.62 12.48-14.22zm-5.48-3.7-12.47 14.21-.54.62a1.1 1.1 0 0 1-1.92-.64 1.13 1.13 0 0 1 .27-.8l.54-.62L109.56 157l.54-.62a1.09 1.09 0 1 1 1.64 1.44zm-20.7 7 12.5-14.22.55-.62a1.09 1.09 0 1 1 1.64 1.44l-.54.63-12.5 14.21-.54.62a1.09 1.09 0 0 1-1.55.1 1.1 1.1 0 0 1-.37-.74 1.13 1.13 0 0 1 .27-.8zm-6.57-5.77 12.46-14.21.55-.62a1.09 1.09 0 0 1 1.65 1.43l-.55.63-12.47 14.22-.54.61a1.07 1.07 0 0 1-1.54.1 1.05 1.05 0 0 1-.38-.74 1.11 1.11 0 0 1 .28-.8zm-6.58-5.77 12.46-14.21.55-.62a1.09 1.09 0 1 1 1.64 1.43l-.55.63L79 155.38l-.54.62a1.1 1.1 0 0 1-1.92-.65 1.07 1.07 0 0 1 .28-.8z"/><path class="ladder-4" d="M88.45 135.42a2.33 2.33 0 0 1 3.29-.22l50 43.84a2.34 2.34 0 0 1 .78 1.61 2.27 2.27 0 0 1-.57 1.68 2.34 2.34 0 0 1-3.29.22l-7.73-6.78.54-.62a1.1 1.1 0 0 0-1.65-1.44l-.54.62-4.92-4.33.54-.62a1.09 1.09 0 0 0-.1-1.54.92.92 0 0 0-.38-.22 1 1 0 0 0-.41-.05 1.18 1.18 0 0 0-.37.09 1 1 0 0 0-.39.28l-.54.62-4.93-4.33.54-.62a1.09 1.09 0 1 0-1.64-1.44l-.54.62-4.94-4.32.54-.63a1.09 1.09 0 1 0-1.64-1.44l-.54.62-4.94-4.32.54-.63a1.09 1.09 0 1 0-1.64-1.44l-.55.62-4.97-4.32.55-.63a1.09 1.09 0 0 0-1.65-1.43l-.55.62-4.93-4.33.55-.63a1.09 1.09 0 1 0-1.65-1.43l-.55.62-1.14-1a2.31 2.31 0 0 1-.79-1.6 2.27 2.27 0 0 1 .61-1.7zm-15.54 17.72a2.33 2.33 0 0 1 1.6-.78 2.27 2.27 0 0 1 1.68.57l1.16 1-.54.62a1.07 1.07 0 0 0-.28.8 1.1 1.1 0 0 0 1.92.65l.54-.62 4.94 4.32-.54.62a1.11 1.11 0 0 0-.28.8 1.05 1.05 0 0 0 .38.74 1.07 1.07 0 0 0 1.54-.1l.54-.61 4.93 4.32-.54.62a1.13 1.13 0 0 0-.27.8 1.1 1.1 0 0 0 .37.74 1.09 1.09 0 0 0 1.55-.1l.54-.62 4.93 4.33-.54.62a1.13 1.13 0 0 0-.27.8 1.1 1.1 0 0 0 1.92.64l.54-.62 4.93 4.33-.54.62a1.09 1.09 0 0 0-.27.8 1.06 1.06 0 0 0 .37.74 1.09 1.09 0 0 0 1.54-.1l.55-.62 4.93 4.32-.54.62a1.09 1.09 0 1 0 1.64 1.45l.55-.62 4.94 4.32-.55.62a1.16 1.16 0 0 0-.28.8 1.13 1.13 0 0 0 .37.75 1.1 1.1 0 0 0 1.55-.1l.55-.62 7.73 6.78a2.34 2.34 0 0 1 .21 3.29 2.29 2.29 0 0 1-1.6.79 2.34 2.34 0 0 1-1.69-.57l-50-43.84a2.34 2.34 0 0 1-.21-3.3z"/><path class="ladder-6" d="m78.99 155.38 4.94 4.32m8.22 7.21 4.93 4.33m8.23 7.21 4.93 4.32m8.23 7.23 7.73 6.78a2.34 2.34 0 0 1 .21 3.29 2.29 2.29 0 0 1-1.6.79 2.34 2.34 0 0 1-1.69-.57l-50-43.84a2.33 2.33 0 0 1 1.39-4.08 2.27 2.27 0 0 1 1.68.57l1.16 1m34.54 30.28 4.94 4.32m-18.1-15.86 4.93 4.33m-18.09-15.86 4.93 4.32m27.28-1.24 4.93 4.33m-18.09-15.86 4.94 4.32m-18.1-15.86 4.93 4.33m-6.58-5.77-1.14-1a2.31 2.31 0 0 1-.79-1.6 2.27 2.27 0 0 1 .57-1.68 2.33 2.33 0 0 1 3.29-.22l50 43.84a2.34 2.34 0 0 1 .78 1.61 2.27 2.27 0 0 1-.57 1.68 2.34 2.34 0 0 1-3.29.22l-7.73-6.78m-32.89-28.86 4.93 4.32m8.23 7.22 4.94 4.32m8.22 7.21 4.93 4.33"/><path class="ladder-6" d="m89.81 139.72.55-.62a1.09 1.09 0 1 1 1.64 1.43l-.55.63L79 155.38l-.54.62a1.1 1.1 0 0 1-1.92-.65 1.07 1.07 0 0 1 .28-.8l.54-.62zm6.58 5.77.55-.62a1.09 1.09 0 0 1 1.65 1.43l-.55.63-12.47 14.22-.54.61a1.07 1.07 0 0 1-1.54.1 1.05 1.05 0 0 1-.38-.74 1.11 1.11 0 0 1 .28-.8l.54-.62zm6.61 5.76.55-.62a1.09 1.09 0 1 1 1.64 1.44l-.54.63-12.5 14.21-.54.62a1.09 1.09 0 0 1-1.55.1 1.1 1.1 0 0 1-.37-.74 1.13 1.13 0 0 1 .27-.8l.54-.62zm6.56 5.75.54-.62a1.09 1.09 0 1 1 1.64 1.44l-.54.63-12.47 14.23-.54.62a1.1 1.1 0 0 1-1.92-.64 1.13 1.13 0 0 1 .27-.8l.54-.62zm6.58 5.79.54-.62a1.09 1.09 0 1 1 1.64 1.44l-.54.62-12.47 14.22-.55.62a1.09 1.09 0 0 1-1.54.1 1.06 1.06 0 0 1-.37-.74 1.09 1.09 0 0 1 .27-.8l.54-.62zm7.5 4.87a1.18 1.18 0 0 1 .37-.09 1 1 0 0 1 .41.05.92.92 0 0 1 .38.22 1.09 1.09 0 0 1 .1 1.54l-.54.62-12.47 14.22-.55.62a1.09 1.09 0 0 1-1.54.1m-.1-1.55.55-.62 12.46-14.21.54-.62m6.04 6.39.54-.62a1.1 1.1 0 0 1 1.65 1.44l-.54.62L118.47 190l-.55.62a1.1 1.1 0 0 1-1.55.1 1.13 1.13 0 0 1-.37-.72 1.16 1.16 0 0 1 .28-.8l.55-.62z"/><path class="ladder-4" d="M159.17 172.91v9.53h-5.25V104h5.25v68.91zM187.99 104v78.44h-5.25V104h5.25zm-5.25 0v44.21h-4.28V78.37h4.28V104zm-19.29 36.53v7.68h-4.28V78.37h4.28v62.16z"/><path class="ladder-6" d="M159.17 104V78.37h4.28v69.84h-4.28m23.57 0h-4.28V78.37h4.28V104m-19.29-21.3h15.01m-15.01 11.57h15.01m-15.01 11.56h15.01m-15.01 11.57h15.01m-15.01 11.56h15.01m-15.01 11.57h15.01m-19.29 32.38v9.53h-5.25V104h5.25v68.91zM182.74 104h5.25v78.44h-5.25V104zm-23.57 47.69h23.57m-23.57 10.61h23.57m-23.57 10.61h23.57"/><path class="ladder-4" d="m123.12 70.92 11.13 56.74h-5.5l-9.63-49.12v-.01l1.5-7.61h2.5z"/><path style="fill:var(--chakra-colors-primary-400)" d="M124.72 65.32v5.6H86.28v-5.6h38.44z"/><path class="ladder-4" d="m120.62 70.92-1.5 7.61v.01l-9.63 49.12H104l1.73-8.81.97-4.97 2.11-10.75.98-4.97 2.11-10.75.97-4.97 2.26-11.52h5.49z"/><path class="ladder-3" d="m115.13 70.92-2.26 11.52H91.81l2.26-11.52h21.06z"/><path class="ladder-4" d="m112.87 82.44-.97 4.97H90.84l.97-4.97h21.06z"/><path class="ladder-3" d="m111.9 87.41-2.11 10.75H88.73l2.11-10.75h21.06z"/><path class="ladder-4" d="m109.79 98.16-.98 4.97H87.75l.98-4.97h21.06z"/><path class="ladder-3" d="m108.81 103.13-2.11 10.75H85.64l2.11-10.75h21.06z"/><path class="ladder-4" d="m106.7 113.88-.97 4.97H84.67l.97-4.97h21.06z"/><path class="ladder-4" d="m94.07 70.92-2.26 11.52-.97 4.97-2.11 10.75-.98 4.97-2.11 10.75-.97 4.97-1.73 8.81h-5.49l11.12-56.74h5.5z"/><path class="ladder-6" d="M115.13 70.92H94.07m-5.5 0h-2.29v-5.6h38.44v5.6h-1.6"/><path class="ladder-6" d="m84.67 118.85-1.73 8.81h-5.49l11.12-56.74h5.5l-2.26 11.52-.97 4.97-2.11 10.75-.98 4.97-2.11 10.75-.97 4.97zm35.95-47.93-1.5 7.61m0 .01-9.63 49.12H104l1.73-8.81.97-4.97 2.11-10.75.98-4.97 2.11-10.75.97-4.97 2.26-11.52h2.5"/><path class="ladder-6" d="M117.63 70.92h5.49l11.13 56.74h-5.5l-9.63-49.12v-.01m-7.22 8.88H90.84m22.03-4.97H91.81m17 20.69H87.75m22.04-4.97H88.73m17 20.69H84.67m22.03-4.97H85.64"/></svg>