<svg xmlns="http://www.w3.org/2000/svg" id="Layer_1" data-name="Layer 1" viewBox="22.31 21.81 230.63 231.56"><defs><style>.lighting-10{fill:var(--chakra-colors-primary-800)}.lighting-9{stroke:var(--chakra-colors-primary-800)}.lighting-11,.lighting-3{fill:var(--chakra-colors-primary-400)}.lighting-6{fill:#fff}.lighting-7{fill:var(--chakra-colors-primary-50)}.lighting-9{fill:none;stroke-linecap:round;stroke-linejoin:round}.lighting-11{opacity:.1}</style></defs><path d="M41.24 202c-1.31-2.06-2.61-4.13-3.92-6.2l.41-.27 3.93 6.13zm-14.4-31.82q1.17 3.51 2.35 7l-.46.16-2.36-7zM23.79 157q.71 3.44 1.43 6.89l-.46.1-1.44-6.85zm7.77 26.22c1 2.18 2.05 4.35 3.07 6.53l-.44.21-3.07-6.52zM204.84 43.9l5.94 4.57-.29.39-6-4.55zm20.38 18.75c1.51 1.91 3 3.81 4.55 5.72l-.38.3-4.56-5.67zm-57.61-36.51 7 2.13-.13.46-7-2.11zM187.32 34l-6.69-2.94.19-.44 6.69 2.92zm11.92 6.71L193.07 37l.25-.41 6.18 3.66zm16.37 12.07 4.83 5.42.49-.47-5.19-5.07zM47.14 66.14 42.75 72l-.4-.29c1.46-2 2.92-3.93 4.37-5.9zm-19.46 36.29-1.95 6.88-.43-.12 1.93-6.93zm5.02-12.8-2.79 6.51-.43-.14c.92-2.18 1.83-4.37 2.75-6.56zm6.43-12.09-3.49 6.16-.42-.23 3.48-6.17zM50.81 61l4.48-4.73.35.33-4.47 4.75zm-28.13 61.56 1.14-6.73.42.07-1.08 6.79zm196.6 96.59-5.39 5-.34-.35 5.36-5.09zm3.97-4.99 4.69-5.59.39.33q-2.34 2.78-4.66 5.57zm-14.38 14.26-5.87 4.34-.3-.4 5.86-4.34zm22.92-25.07 3.9-6 .42.27-3.9 6zm-34.22 32.97-6.44 3.68-.24-.42 6.43-3.67zm-25.05 11.45-7 2-.13-.44 7-2zm74.99-75.28q-1.15 3.33-2.32 6.66l-.44-.15c.76-2.22 1.53-4.44 2.29-6.67zm1.39-6.7 1.47-6.73.44.08c-.47 2.23-.93 4.45-1.4 6.68zm-70.42 79.38 6.66-2.8.19.45-6.66 2.79zm-54.01 6.89 6.68.52v.42l-6.72-.48zm118.13-66.71c-1.06 2.15-2.11 4.29-3.16 6.44l-.44-.22 3.16-6.49zm-131.76 64.37 6.73 1.36-.08.42-6.74-1.3zm140.61-97.42.64-6.69h.47l-.66 6.68zm-92.37 98.86-6.73 1.12-.08-.47 6.74-1.09zM145.22 253h-6.81v-.08l6.8-.45z" style="stroke-width:.75px;stroke-miterlimit:10;stroke:var(--chakra-colors-primary-800);fill:var(--chakra-colors-primary-800)"/><circle cx="133.33" cy="135.41" r="92.9" style="fill:var(--chakra-colors-primary-50)"/><path class="lighting-3" d="M106.51 53.35a12.37 12.37 0 0 1 4.55 9.19m53.61-9.19a12.4 12.4 0 0 1 4.56 9.19"/><g style="opacity:.38"><path class="lighting-3" d="m234.13 80.87 9.09 17.37h-44.1v-.54l9.23-16.83h25.78z"/><path d="M243.22 98.24h-44.1v-.55l1.36-2.47h29.84a4.12 4.12 0 0 0 3.65-6l-4.36-8.33h4.52z" style="opacity:.41;fill:var(--chakra-colors-primary-400)"/><path class="lighting-3" d="m243.22 98.24-9.09-17.37h-25.78l-.32.55-7.55 13.8-1.36 2.47m-4.34.27-6.86-6.8m42.7-4.63 3.89 6.73"/></g><path class="lighting-6" d="M241.22 95.24h6.92v8.95h-58.08v-8.95h51.16z"/><path class="lighting-7" d="m232.13 77.87 9.09 17.37h-44.1v-.54l9.23-16.83h25.78z"/><path d="M241.22 95.24h-44.1v-.55l1.36-2.48h29.84a4.1 4.1 0 0 0 3.64-6l-4.35-8.34h4.52z" style="fill:#fff;opacity:.41"/><path class="lighting-3" d="M208.28 104.19h21.91a11 11 0 0 1-21.91 0z"/><path class="lighting-9" d="M245.16 95.24h2.98v8.95h-58.08v-8.95h55.1zm-3.94 0-9.09-17.38h-25.79l-.31.56-7.55 13.79-1.36 2.48m48.04.55 6.54-7.3m-58.92 7.02-6.86-6.8m44.27 16.03a11 11 0 0 1-21.91 0m20.34-20.66 3.89 6.73"/><path class="lighting-10" d="M218.83 125.74a.56.56 0 0 1-.56-.55v-3.61a.56.56 0 0 1 1.12 0v3.61a.56.56 0 0 1-.56.55zm-5.32-1.16a.54.54 0 0 1-.21 0 .54.54 0 0 1-.3-.72l1.38-3.27a.55.55 0 0 1 .73-.3.57.57 0 0 1 .3.73l-1.41 3.22a.55.55 0 0 1-.49.34zm-4.43-3.15a.52.52 0 0 1-.4-.17.55.55 0 0 1 0-.78l2.51-2.42a.56.56 0 1 1 .77.8l-2.51 2.42a.54.54 0 0 1-.37.15zm15.35 3.23a.56.56 0 0 1-.51-.34l-1.48-3.32a.56.56 0 1 1 1-.45l1.48 3.36a.56.56 0 0 1-.28.73.64.64 0 0 1-.21.02zm4.69-3.31a.57.57 0 0 1-.37-.14l-2.75-2.49a.55.55 0 0 1 .74-.82l2.75 2.48a.56.56 0 0 1-.37 1z"/><path class="lighting-6" d="M158.5 46.56c6.25 3.47 10.69 12.2 10.69 20.6-3.08.36-6.18.61-9.32.75q-7.06.33-14.3 0c-3.09-.15-6.2-.4-9.33-.73 0-8.28 4.33-16.88 10.44-20.44a11.42 11.42 0 0 1 11.82-.16z"/><path class="lighting-3" d="M159.87 67.91a6.44 6.44 0 0 1 .44 2.37 7.6 7.6 0 0 1-15.17 0 6.72 6.72 0 0 1 .43-2.39q7.25.35 14.3.02z"/><path class="lighting-7" d="M152.53 37.29c3.28 0 5.94 4.15 6 9.27a11.42 11.42 0 0 0-11.82.16l-.09-.12c-.03-5.13 2.64-9.31 5.91-9.31z"/><path class="lighting-3" d="M109.01 22.31h29.05v6.97h-29.05z"/><path class="lighting-6" d="M100.9 46.56c6.26 3.47 10.7 12.2 10.7 20.6-3.09.36-6.18.61-9.31.75-4.72.22-9.48.21-14.31 0-3.1-.15-6.21-.4-9.32-.73 0-8.28 4.32-16.88 10.42-20.44a11.42 11.42 0 0 1 11.82-.16zm57.6 0c6.25 3.47 10.69 12.2 10.69 20.6-3.08.36-6.18.61-9.32.75q-7.06.33-14.3 0c-3.09-.15-6.2-.4-9.33-.73 0-8.28 4.33-16.88 10.44-20.44a11.42 11.42 0 0 1 11.82-.16z"/><path class="lighting-11" d="M111.6 67.17c-3.09.34-6.18.6-9.32.74q-7.07.33-14.31 0c-3.09-.15-6.19-.41-9.32-.72v-1.56c1.78.15 3.55.28 5.31.37 4.83.22 9.59.23 14.31 0q4.68-.21 9.32-.75c0-7.82-3.85-15.94-9.45-19.81a12.25 12.25 0 0 1 2.71 1.13c6.31 3.43 10.75 12.19 10.75 20.6zm57.6 0c-3.09.34-6.18.6-9.32.74q-7.06.33-14.31 0c-3.09-.15-6.2-.41-9.32-.72v-1.56c1.79.15 3.55.28 5.32.37 4.83.22 9.58.23 14.31 0q4.68-.21 9.32-.75c0-7.82-3.86-15.94-9.45-19.81a12.45 12.45 0 0 1 2.71 1.13c6.29 3.43 10.74 12.19 10.74 20.6z"/><path class="lighting-3" d="M102.29 67.91a6.86 6.86 0 0 1 .41 2.37 7.59 7.59 0 0 1-15.16 0 6.72 6.72 0 0 1 .46-2.39c4.81.23 9.57.24 14.29.02z"/><path class="lighting-7" d="M95 37.29c3.27 0 5.94 4.15 6 9.27a11.42 11.42 0 0 0-11.82.16L89 46.6c0-5.13 2.67-9.31 6-9.31z"/><path class="lighting-9" d="M102.29 67.91c3.13-.14 6.22-.39 9.31-.75 0-8.4-4.44-17.13-10.7-20.6a11.42 11.42 0 0 0-11.82.16C83 50.28 78.66 58.88 78.66 67.16c3.11.33 6.22.58 9.32.73 4.83.23 9.59.24 14.31.02z"/><path class="lighting-9" d="M102.29 67.91a6.86 6.86 0 0 1 .41 2.37 7.59 7.59 0 0 1-15.16 0 6.72 6.72 0 0 1 .46-2.39m1-21.29c0-5.13 2.66-9.31 5.94-9.31s5.94 4.15 6 9.27v0m-5.99-9.27v-7.63"/><path class="lighting-10" d="M152.66 86.46a.45.45 0 0 1-.46-.43v-2.78a.46.46 0 0 1 .91 0V86a.44.44 0 0 1-.45.46zm-4.32-.9a.57.57 0 0 1-.18 0 .42.42 0 0 1-.24-.56l1.08-2.55a.46.46 0 0 1 .59-.23.42.42 0 0 1 .24.56l-1.12 2.52a.44.44 0 0 1-.37.26zm-3.6-2.42a.46.46 0 0 1-.33-.13.42.42 0 0 1 0-.61l2-1.86a.48.48 0 0 1 .64 0 .42.42 0 0 1 0 .61l-2 1.86a.47.47 0 0 1-.31.13zm12.46 2.48a.45.45 0 0 1-.41-.25l-1.2-2.59a.41.41 0 0 1 .23-.56.45.45 0 0 1 .59.22l1.21 2.56a.42.42 0 0 1-.23.57.58.58 0 0 1-.19.05zm3.8-2.54a.48.48 0 0 1-.3-.11l-2.23-1.92a.4.4 0 0 1 0-.6.45.45 0 0 1 .63 0l2.23 1.91a.42.42 0 0 1 0 .61.48.48 0 0 1-.33.11zm-66.1 3.5a.45.45 0 0 1-.45-.43v-2.78a.46.46 0 0 1 .91 0v2.78a.45.45 0 0 1-.46.43zm-4.31-.9a.57.57 0 0 1-.18 0 .43.43 0 0 1-.24-.57l1.12-2.51a.46.46 0 0 1 .59-.23.42.42 0 0 1 .24.56L91 85.42a.45.45 0 0 1-.41.26zM87 83.26a.47.47 0 0 1-.33-.14.41.41 0 0 1 0-.6l2-1.86a.48.48 0 0 1 .64 0 .42.42 0 0 1 0 .61l-2 1.86a.47.47 0 0 1-.31.13zm12.45 2.48a.46.46 0 0 1-.41-.26l-1.2-2.58a.42.42 0 0 1 .23-.57.46.46 0 0 1 .59.22l1.21 2.59a.42.42 0 0 1-.23.56.43.43 0 0 1-.19.04zm3.81-2.55a.43.43 0 0 1-.3-.11l-2.23-1.91a.41.41 0 0 1 0-.61.47.47 0 0 1 .63 0l2.23 1.92a.41.41 0 0 1 0 .6.45.45 0 0 1-.33.11z"/><path class="lighting-9" d="M159.87 67.91c3.14-.14 6.24-.39 9.32-.75 0-8.4-4.44-17.13-10.69-20.6a11.42 11.42 0 0 0-11.82.16c-6.11 3.56-10.44 12.16-10.44 20.44 3.13.33 6.24.58 9.33.73q7.25.35 14.3.02z"/><path class="lighting-9" d="M159.87 67.91a6.44 6.44 0 0 1 .44 2.37 7.6 7.6 0 0 1-15.17 0 6.72 6.72 0 0 1 .43-2.39m1.02-21.29c0-5.13 2.67-9.31 5.94-9.31s5.94 4.15 6 9.27v0m-6-9.27v-7.63m-73.36-.38h89.91m-60.07 0v-6.97h29.06v6.97m-37.3 23.17a12.37 12.37 0 0 1 4.55 9.19m53.61-9.19a12.4 12.4 0 0 1 4.56 9.19"/><g style="opacity:.34"><path d="M58.34 138.09a8.29 8.29 0 0 1-.3.81 22 22 0 0 0-1.35-2.66 19.89 19.89 0 0 1 1.65 1.85z" style="opacity:.52;fill:var(--chakra-colors-primary-400)"/><path class="lighting-3" d="m58.79 109.23-.34-.12"/></g><path class="lighting-3" d="M72.96 232.01v5.83H43.43v-5.83h29.53zm-13.6-110.56c3.7 9.37-.19 19-.31 19.32C51.88 124.08 32 128.49 32 128.49s3.85-10.41 14.41-12.81l4.5-8.81s2.2-1 5.82.21c.26.08.53.19.81.3 4.61 2 5.49 5 5.49 5l-1.3 2.66-2.73 5.55c.14.28.25.57.36.86z"/><path d="M61.71 115.07 59 120.58c.12.3.24.59.34.87 3.71 9.38-.19 19-.29 19.32a21.41 21.41 0 0 0-2.83-4.83c.86-2.54 3.12-10.6 0-18.51a8.65 8.65 0 0 0-.34-.87l2.7-5.52 1.18-2.41a7.85 7.85 0 0 1 3.24 3.78z" style="opacity:.1;fill:#fff"/><path d="M56.23 135.94c-.16.48-.28.76-.29.81a23 23 0 0 0-1.36-2.67 19.88 19.88 0 0 1 1.65 1.86z" style="opacity:.52;fill:#fff"/><path class="lighting-6" d="M59.05 140.77C37.34 143.08 32 128.49 32 128.49s19.88-4.41 27.05 12.28z"/><path class="lighting-9" d="M72.96 237.84H43.43v-5.83h29.53v5.83zm-5.75-5.83 1.9-106.14-4.35-5.34-.49-.61m-7.59-12.84-.33-.13m3 1.35a19.18 19.18 0 0 0-1.83-.9h0c-.28-.11-.55-.22-.81-.3-3.62-1.23-5.82-.21-5.82-.21l-4.5 8.81C35.8 118.08 32 128.49 32 128.49s19.93-4.41 27.1 12.28c.12-.31 4-10 .31-19.32-.11-.29-.22-.58-.35-.86l2.7-5.52 1.3-2.66s-.88-3-5.49-5"/><path class="lighting-9" d="M32 128.49s5.39 14.59 27.1 12.28m-1.65-28.96a36.43 36.43 0 0 1 4.26 3.26c1.9 1.73 3.62 3.85 3.05 5.46-.73 2-3.77 1.42-5.4.92-.62-.19-1-.36-1-.36"/><path class="lighting-6" d="M164.48 108.91v27.86a104.76 104.76 0 0 1-19.9 1.84 103.16 103.16 0 0 1-18.89-1.84v-27.86a186.24 186.24 0 0 1 38.79 0z"/><path class="lighting-11" d="M164.47 108.91v27.87a104.51 104.51 0 0 1-19.89 1.84 104.13 104.13 0 0 1-18.89-1.84v-2.64a102.82 102.82 0 0 0 14.74 1.13 100.63 100.63 0 0 0 11.36-.58 9.57 9.57 0 0 0 8.53-9.52v-16.63c1.38.1 2.77.23 4.15.37z"/><path class="lighting-3" d="M135.91 229.33h17.2v5.87h-17.2z"/><path class="lighting-7" d="M146.95 173.44v55.69h-4.75v-55.69h4.75z"/><path class="lighting-9" d="M164.48 108.91v27.86a104.76 104.76 0 0 1-19.9 1.84 103.16 103.16 0 0 1-18.89-1.84v-27.86a186.24 186.24 0 0 1 38.79 0zm-17.53 120.22h-4.75v-55.69h4.75v55.69zm-11.04.2h17.2v5.87h-17.2zm8.67-90.72v34.83"/><path class="lighting-6" d="m111.83 106.47 10 36.13a86.42 86.42 0 0 1-20.48 2.49c-2 0-4.08-.06-6.13-.2-1.78-.12-3.57-.28-5.37-.52a95.15 95.15 0 0 1-10-1.77l10-36.13z"/><path class="lighting-11" d="M121.82 142.61a86.22 86.22 0 0 1-20.48 2.48c-2 0-4.06-.07-6.12-.2-1.78-.12-3.57-.28-5.36-.52a100.26 100.26 0 0 1-10-1.76l.41-1.52c1.7.29 3.38.56 5.07.76s3.59.4 5.37.52c2.05.13 4.08.19 6.13.19a87.46 87.46 0 0 0 12.19-.88 7.52 7.52 0 0 0 6.11-9.47L108 106.48h3.81z"/><path class="lighting-3" d="M115.44 234.94v2.65H87v-2.65a3.27 3.27 0 0 1 3.26-3.27h3v.05h15.84v-.05h3a3.26 3.26 0 0 1 3.34 3.27z"/><path class="lighting-3" d="M109.18 228.73v2.94H93.34v-2.94a2.41 2.41 0 0 1 2.4-2.4h11.05a2.4 2.4 0 0 1 2.39 2.4zm-4.74-5.19v2.79h-6.58v-2.79a3.29 3.29 0 0 1 5.62-2.33 3.25 3.25 0 0 1 .96 2.33zm-7.74-55.95v5.78a1.37 1.37 0 1 1-2.73 0v-5.78a1.37 1.37 0 0 1 2.73 0zm-6.85 7.58h.06a1.36 1.36 0 0 1 1.35 1.37v5.77a1.36 1.36 0 1 1-2.72 0v-5.77a1.37 1.37 0 0 1 1.31-1.37z"/><path class="lighting-9" d="M95.22 144.89c-1.78-.12-3.57-.28-5.37-.52a95.15 95.15 0 0 1-10-1.77l10-36.13h22l10 36.13a86.42 86.42 0 0 1-20.48 2.49c-2.06 0-4.1-.09-6.15-.2zm6.13.2v74.9m7.83 11.68h3a3.26 3.26 0 0 1 3.27 3.27v2.65H87v-2.65a3.27 3.27 0 0 1 3.26-3.27h18.89z"/><path class="lighting-9" d="M104.44 226.33h2.35a2.4 2.4 0 0 1 2.39 2.4v3H93.34v-3a2.41 2.41 0 0 1 2.4-2.4h2.12m6.58 0h-6.58v-2.79a3.29 3.29 0 0 1 5.62-2.33 3.25 3.25 0 0 1 1 2.33zm-14.59-81.96v30.94m5.37-30.42v21.28m-5.37 9h.06a1.36 1.36 0 0 1 1.35 1.37v5.77a1.36 1.36 0 1 1-2.72 0v-5.77a1.37 1.37 0 0 1 1.31-1.37zm6.85-7.58v5.78a1.37 1.37 0 1 1-2.73 0v-5.78a1.37 1.37 0 0 1 2.73 0zm63.45-48.49v12.97m-50.04-12.6 2.96 12.62"/><path d="M127.33 111.68h7.36m-7.36 2.68h7.36m-7.36 2.69h7.36" style="fill:none;stroke-miterlimit:10;stroke:var(--chakra-colors-primary-800)"/><path class="lighting-7" d="M234.81 173.66c.07 2.75-5.33 7.27-5.33 7.27h-.31l-2.86-13.69h3.17s5.26 3.39 5.33 6.42z"/><path class="lighting-7" d="m226.31 167.25 2.86 13.68h-3.69l-2.85-13.68h3.68zm-3.68 0 2.85 13.68h-3.68l-2.85-13.68h3.68z"/><path class="lighting-7" d="m218.95 167.25 2.85 13.68h-4.75v-13.68h1.9z"/><path class="lighting-6" d="M217.05 180.93V182a2.19 2.19 0 0 1-2.18 2.18h-6.25a2.09 2.09 0 0 0-1.74.92 20.15 20.15 0 1 1 0-22 2.07 2.07 0 0 0 1.75.94h6.24a2.19 2.19 0 0 1 2.19 2.2v14.71z"/><path d="M217.05 166.22V182a2.17 2.17 0 0 1-.94 1.79v-12.9a2.19 2.19 0 0 0-2.19-2.18h-6.23a2.1 2.1 0 0 1-1.75-.94 20.14 20.14 0 0 0-36 4.81 20.16 20.16 0 0 1 37-9.49 2.12 2.12 0 0 0 1.76.94h6.24a2.19 2.19 0 0 1 2.11 2.19z" style="opacity:.12;fill:var(--chakra-colors-primary-400)"/><path class="lighting-9" d="M217.05 180.93V182a2.19 2.19 0 0 1-2.18 2.18h-6.25a2.09 2.09 0 0 0-1.74.92 20.15 20.15 0 1 1 0-22 2.07 2.07 0 0 0 1.75.94h6.24a2.19 2.19 0 0 1 2.19 2.2v14.71z"/><path class="lighting-9" d="M217.05 180.93h12.43s5.4-4.52 5.33-7.27c-.07-3-5.33-6.42-5.33-6.42h-12.43"/><path class="lighting-9" d="m218.94 167.16.01.09 2.85 13.68m.81-13.77.02.09 2.85 13.68m.81-13.77.02.09 2.86 13.68m5.64-7.27h12.15m-58.78 16.82a13.8 13.8 0 0 1-3.55-1m13-.78a14.35 14.35 0 0 1-6 1.89"/></svg>