<svg xmlns="http://www.w3.org/2000/svg" id="Layer_1" data-name="Layer 1" viewBox="31.01 30.17 193.99 195.62"><defs><style>.man-clothing-3{fill:var(--chakra-colors-primary-50)}.man-clothing-4{fill:#fff}.man-clothing-5{fill:var(--chakra-colors-primary-400)}.man-clothing-6{fill:none;stroke:var(--chakra-colors-primary-800);stroke-linecap:round;stroke-linejoin:round}</style></defs><path d="M131.65 225.79v-1.28c2.26-.07 4.55-.21 6.78-.43l.13 1.28c-2.31.22-4.62.37-6.91.43zm-5.16 0c-2.29-.06-4.6-.19-6.87-.41l.12-1.27c2.24.21 4.52.34 6.78.39zm17.15-1.09-.19-1.27c2.23-.34 4.48-.77 6.67-1.26l.29 1.25c-2.23.52-4.5.95-6.77 1.3zm11.77-2.55-.35-1.23a97.32 97.32 0 0 0 6.47-2.07l.44 1.2c-2.15.8-4.36 1.5-6.56 2.12zm11.37-4-.5-1.19c2.07-.87 4.14-1.83 6.15-2.85l.58 1.14c-2.01 1.09-4.14 2.06-6.23 2.95zm10.77-5.35-.64-1.11c2-1.13 3.89-2.33 5.76-3.59l.72 1.06a78.26 78.26 0 0 1-5.84 3.69zm-97.06.23c-2-1.13-3.95-2.35-5.86-3.62l.71-1.07c1.88 1.26 3.83 2.46 5.79 3.57zm107.1-6.86-.77-1c1.8-1.36 3.58-2.8 5.28-4.28l.84 1c-1.72 1.5-3.52 2.95-5.35 4.33zm-117.18.26a96.235 96.235 0 0 1-5.37-4.3l.83-1c1.72 1.48 3.5 2.91 5.31 4.25zm126.34-8.08-.89-.92a94.79 94.79 0 0 0 4.72-4.89l.95.86a81.002 81.002 0 0 1-4.78 5zm-135.54.31a101.61 101.61 0 0 1-4.8-4.93l1-.86c1.52 1.67 3.12 3.31 4.74 4.86zm143.67-9.18-1-.81c1.42-1.76 2.79-3.58 4.09-5.43l1.03.76c-1.28 1.9-2.68 3.75-4.12 5.53zM53 189.87a96.406 96.406 0 0 1-4.17-5.48l1.05-.74c1.3 1.84 2.69 3.66 4.11 5.41zm158.84-10.15-1.09-.68c1.19-1.92 2.33-3.9 3.39-5.89l1.13.6a80.183 80.183 0 0 1-3.39 5.97zM46 180.1a97.722 97.722 0 0 1-3.46-5.94l1.13-.61c1.06 2 2.21 4 3.41 5.87zm171.6-11-1.16-.55c1-2 1.84-4.15 2.64-6.26l1.2.45c-.8 2.16-1.7 4.26-2.67 6.38zM31.23 134.77c-.13-2-.21-4.09-.22-6.13v-.75h1.29v.74c0 2 .09 4.05.23 6.05zm1.2-12-1.29-.07c.13-2.28.33-4.59.61-6.86L33 116c-.25 2.27-.45 4.54-.57 6.8zm191.3-12.52c-.41-2.22-.9-4.45-1.47-6.63l1.24-.32c.57 2.21 1.08 4.47 1.5 6.72zM33.78 111l-1.26-.22c.4-2.26.88-4.52 1.44-6.73l1.25.31c-.55 2.18-1.03 4.41-1.43 6.64zm187.07-12.24a97.46 97.46 0 0 0-2.29-6.4l1.2-.47c.84 2.12 1.62 4.31 2.31 6.48zm-184.27.69-1.22-.38c.67-2.18 1.44-4.37 2.27-6.51l1.19.46a97.78 97.78 0 0 0-2.24 6.43zm180-11.76c-.94-2-2-4.09-3.05-6.06l1.12-.62c1.1 2 2.14 4.07 3.1 6.14zm-175.78.63-1.17-.53c.94-2.08 2-4.16 3.06-6.18l1.13.61c-1.08 2-2.09 4.05-3.02 6.1zm170.14-11.09a100.77 100.77 0 0 0-3.78-5.64l1-.75c1.34 1.85 2.63 3.78 3.83 5.72zm-164.58.57-1.1-.67c1.19-1.95 2.47-3.88 3.79-5.75l1.05.75c-1.31 1.87-2.57 3.75-3.74 5.67zm157.72-10.26c-1.42-1.76-2.91-3.48-4.44-5.14l.94-.87c1.55 1.68 3.07 3.43 4.5 5.21zm-150.92.51-1-.8c1.42-1.78 2.92-3.55 4.46-5.24l1 .87a82.91 82.91 0 0 0-4.46 5.17zm142.91-9.29c-1.61-1.57-3.3-3.11-5-4.56l.83-1c1.75 1.47 3.46 3 5.1 4.62zM90.49 39.39 90 38.21c2.09-.91 4.25-1.75 6.4-2.51l.43 1.21c-2.15.75-4.27 1.58-6.34 2.48zm64.81-4.24c-2.17-.61-4.39-1.16-6.59-1.62l.26-1.26c2.24.47 4.48 1 6.68 1.65zm-53.64.2-.36-1.23c2.19-.64 4.43-1.21 6.67-1.7l.27 1.26a93.09 93.09 0 0 0-6.58 1.67zm42-2.74c-2.22-.34-4.49-.61-6.74-.8l.11-1.27c2.28.19 4.57.46 6.83.81zm-30.45.12-.2-1.27c2.25-.36 4.55-.65 6.83-.86l.11 1.28c-2.22.2-4.48.49-6.71.85zm18.62-1.21c-2.26-.07-4.54-.06-6.79 0v-1.28c2.28-.09 4.59-.1 6.88 0z" style="fill:var(--chakra-colors-primary-800)"/><circle cx="128.46" cy="127.32" r="80.25" style="fill:var(--chakra-colors-primary-50)"/><path class="man-clothing-3" d="M190.21 93.06h7.32v5h-7.8v-5h.48z"/><path class="man-clothing-4" d="M196.58 80.5v12.57h-6.37V81.22l-3-3.71c.08-4.77.22-9.49 1.24-13.65z"/><path class="man-clothing-4" d="M188.45 63.86c-1 4.16-1.16 8.88-1.24 13.65v11.35c-.05 5 .25 11.56.25 11.56h-12.27v-30.7l.52 1.37 5.59-6.48v-1.94a19.14 19.14 0 0 1 7.15 1.19z"/><path class="man-clothing-3" d="M181.3 62.67v1.94l-5.59 6.48-.52-1.37-2.18-5.86 8.29-4.23v3.04z"/><path class="man-clothing-5" d="m181.3 59.63-8.29 4.23-8.28-4.23h16.57z"/><path class="man-clothing-3" d="M175.19 94.16v6.26h-4.75v-6.26H172a.77.77 0 0 0 1.53 0zm0-4.55v4.55h-1.71a.77.77 0 0 0-1.53 0h-1.51v-4.55H172a.77.77 0 1 0 1.53 0zm0-19.89v19.89h-1.71a.77.77 0 0 0-1.53 0h-1.51V69.72l2.56-5.86zm-1.71 1.37a.77.77 0 1 0-.76.75.76.76 0 0 0 .76-.75zm0 4a.77.77 0 1 0-.76.76.76.76 0 0 0 .76-.79zm0 4.91a.77.77 0 1 0-.76.76.76.76 0 0 0 .76-.76zm0 4.91a.77.77 0 1 0-.76.76.76.76 0 0 0 .76-.79z"/><path class="man-clothing-3" d="m173.01 63.86-2.57 5.86-.6 1.37-5.11-6.42v-5.04l8.28 4.23z"/><path class="man-clothing-5" d="M172.72 70.33a.76.76 0 1 1-.77.76.76.76 0 0 1 .77-.76zm0 3.97a.76.76 0 1 1-.77.76.76.76 0 0 1 .77-.76zm0 4.9a.77.77 0 1 1-.72.8.76.76 0 0 1 .72-.8zm0 4.91a.77.77 0 1 1-.77.77.76.76 0 0 1 .77-.77zm0 4.75a.76.76 0 1 1-.77.75.76.76 0 0 1 .77-.75zm0 4.54a.76.76 0 1 1-.77.76.76.76 0 0 1 .77-.76z"/><path class="man-clothing-4" d="M170.44 94.16v6.26h-11.05s.36-8.63.2-12.67 0-10.45 0-10.45a51.5 51.5 0 0 0-1.32-13.86l6.49-.77v2l5.11 6.41.6-1.37v24.45z"/><path class="man-clothing-4" d="M158.24 63.44a51.5 51.5 0 0 1 1.32 13.86l-3.3 3.88V93.4h-6.11V77.63z"/><path class="man-clothing-3" d="M156.81 93.41v4.65H149v-4.65h7.81z"/><path class="man-clothing-6" d="M164.73 59.63h16.57v4.98l-5.59 6.48-.52-1.37-2.18-5.86-2.57 5.86-.6 1.37-5.11-6.42v-5.04z"/><path class="man-clothing-6" d="m164.73 59.63 8.28 4.23 8.29-4.23m-16.57 3.04-6.49.77-8.09 14.19v15.78m6.11-.01V81.18l3.3-3.88s-.14 6.41 0 10.45-.2 12.67-.2 12.67h28.07s-.3-6.55-.25-11.56V77.51c.08-4.77.22-9.49 1.24-13.65a19.14 19.14 0 0 0-7.15-1.19"/><path class="man-clothing-6" d="M158.24 63.44a51.5 51.5 0 0 1 1.32 13.86m27.65.21 3 3.71v12.19m-1.76-29.55 8.13 16.64v12.91"/><path class="man-clothing-6" d="M196.58 93.06h.95v5h-7.8v-5h6.85zm-40.32.35h.55v4.65H149v-4.65h7.26zm14.18-23.69v30.7m4.75-30.7v30.7m-1.71-29.33a.77.77 0 1 1-.76-.76.76.76 0 0 1 .76.76zm0 3.97a.77.77 0 1 1-.76-.76.76.76 0 0 1 .76.76zm0 4.94a.77.77 0 1 1-.76-.77.76.76 0 0 1 .76.77zm0 4.88a.77.77 0 1 1-.76-.77.76.76 0 0 1 .76.77zm0 4.73a.77.77 0 1 1-.76-.75.76.76 0 0 1 .76.75zm0 4.55a.77.77 0 1 1-.76-.76.76.76 0 0 1 .76.76z"/><path class="man-clothing-4" d="M93.38 145.74v7.46a20.27 20.27 0 0 0-9.46 5.86c-3.56-3.46-5.09-7.92-4.69-13.32zm0-5.01v5.01H57.19v-5.01h36.19z"/><path class="man-clothing-3" d="m93.38 153.2-13 15.07a15.43 15.43 0 0 1 3.51-9.21 20.27 20.27 0 0 1 9.49-5.86z"/><path class="man-clothing-4" d="M83.92 159.06a15.43 15.43 0 0 0-3.51 9.21H70a14.52 14.52 0 0 0-3-9c3.78-2.68 5.21-7.29 4.65-13.52h7.6c-.42 5.39 1.11 9.85 4.67 13.31z"/><path class="man-clothing-4" d="M71.63 145.74c.56 6.23-.87 10.84-4.65 13.52q-3.19-4-9.75-5.74v-7.81z"/><path class="man-clothing-3" d="m70 168.27-12.8-14.72q6.56 1.75 9.75 5.74a14.52 14.52 0 0 1 3.05 8.98z"/><path class="man-clothing-6" d="M93.38 145.74H57.19v-5.01h36.19v5.01zm-36.19 0v7.81l12.8 14.72h10.42l12.97-15.07v-7.46"/><path class="man-clothing-6" d="M57.19 153.55q6.56 1.75 9.75 5.74a14.52 14.52 0 0 1 3 9m10.47-.02a15.43 15.43 0 0 1 3.51-9.21 20.27 20.27 0 0 1 9.46-5.86m-21.75-7.46c.56 6.23-.87 10.84-4.65 13.52m12.25-13.52c-.4 5.4 1.13 9.86 4.69 13.32"/><path class="man-clothing-4" d="M193.31 146.39c0 5.36-1.24 33.46-1.54 40.26h-10.38c-.34-5.31-1.49-23.45-2.07-31.13-.67-8.82-1.55-22.57-3.45-23.18v-7.55a3.28 3.28 0 0 0 2.89-.16v-11.2h3.08c.14 2.51.62 5.33 2 6.5 1.87 1.58 5.33 1.4 7.33 1.13.95 9.3 2.14 21.67 2.14 25.33z"/><path class="man-clothing-3" d="M181.39 186.65h10.38c0 .95-.06 1.49-.06 1.49h-10.23s-.03-.54-.09-1.49z"/><path class="man-clothing-4" d="M190.39 113.43c.2 2 .48 4.64.79 7.63-2 .27-5.46.45-7.33-1.13-1.38-1.17-1.86-4-2-6.5z"/><path class="man-clothing-3" d="M190.39 113.43h-8.54c-.07-1.32 0-2.54 0-3.4H190z"/><path class="man-clothing-3" d="M181.85 113.43h-3.08V110h3.06c-.03.89-.05 2.11.02 3.43z"/><path class="man-clothing-4" d="M178.77 113.43v11.2a3.28 3.28 0 0 1-2.89.16v-11.36zm0-3.43v3.4h-2.89V110zm-.72 1.81a.79.79 0 1 0-.78.79.79.79 0 0 0 .78-.76z"/><path class="man-clothing-4" d="M175.88 124.79v7.55a.26.26 0 0 0-.15 0c-1.81.08-4.44 45.48-4.93 54.33h-10.6c-.49-5.7-2.17-26.51-1.48-39.63.44-8.32 1.37-18.52 2.13-26.1h1.86c1.87 0 4-.32 5.3-1.27a3 3 0 0 0 .68-.69c.77-1.14 1-3.44 1.09-5.56h6.11z"/><path class="man-clothing-3" d="M175.88 110v3.4h-6.11c0-1.3 0-2.53-.05-3.4zm-15.69 76.65h10.6l-.09 1.49h-10.38s-.05-.54-.13-1.49z"/><path class="man-clothing-3" d="M169.72 110c0 .87.08 2.1.05 3.4h-8.15c.23-2.14.37-3.4.37-3.4z"/><path class="man-clothing-4" d="M161.62 113.43h8.15c-.06 2.12-.32 4.42-1.09 5.56a3 3 0 0 1-.68.69v-2.48h-5.3v3.8h-1.86c.3-3.08.57-5.67.78-7.57z"/><path class="man-clothing-3" d="M168 117.2v2.48c-1.27.95-3.43 1.23-5.3 1.27v-3.75z"/><path class="man-clothing-6" d="M161.62 113.43c.23-2.14.37-3.4.37-3.4h28l.37 3.4c.2 2 .48 4.64.79 7.63.94 9.3 2.13 21.67 2.13 25.33 0 5.36-1.24 33.46-1.54 40.26 0 .95-.06 1.49-.06 1.49h-10.2s0-.54-.09-1.49c-.34-5.31-1.49-23.45-2.07-31.13-.67-8.82-1.55-22.57-3.45-23.18a.26.26 0 0 0-.15 0c-1.81.08-4.44 45.48-4.93 54.33l-.09 1.49h-10.38s0-.54-.13-1.49c-.49-5.7-2.17-26.51-1.48-39.63.44-8.32 1.37-18.52 2.13-26.1.3-3.02.57-5.61.78-7.51zm0 0h28.77"/><path class="man-clothing-6" d="M169.72 110c0 .87.08 2.1.05 3.4-.06 2.12-.32 4.42-1.09 5.56a3 3 0 0 1-.68.69c-1.27.95-3.43 1.23-5.3 1.27h-1.86M181.83 110c0 .86-.05 2.08 0 3.4.14 2.51.62 5.33 2 6.5 1.87 1.58 5.33 1.4 7.33 1.13m-15.28 11.29v-22.29m2.89-.03v14.6a3.28 3.28 0 0 1-2.89.16m2.17-12.92a.79.79 0 1 1-1.57 0 .79.79 0 1 1 1.57 0z"/><path class="man-clothing-6" d="M162.7 120.95v-3.75h5.3v2.48m-7.81 66.97h10.6m10.6 0h10.38"/><path class="man-clothing-4" d="M142.31 186.64V199h-34.59v-8.71h33.1v-3.67zm-1.49 10.89v-4.23h-31.6v4.23z"/><path class="man-clothing-4" d="M142.31 179.99v6.66h-33.09v3.66h-1.5v-6.65h33.1v-3.67h1.49z"/><path class="man-clothing-4" d="M142.31 173.35v6.64h-33.09v3.67h-1.5v-6.65h33.1v-3.66h1.49z"/><path class="man-clothing-4" d="M142.31 166.7v6.65h-33.09v3.66h-1.5v-6.65h33.1v-3.66h1.49z"/><path class="man-clothing-4" d="M117.52 146.07s-.66 6.31 0 10.23c1.47 8.34 13.46 8.34 14.94 0 .67-3.8.08-9.81 0-10.21h5.93c-1 5.86-2.11 13.72 3.85 19.88v.75h-33.02v3.66h-1.5V166c5.37-5.85 4.81-14 3.85-19.88zm10 17.63h11.19a17.84 17.84 0 0 1-1.63-3.65h-4.47a8.62 8.62 0 0 1-5.08 3.65zm9.18-16.13h-2.56c.06.77.11 1.75.14 2.84h2.06c.11-.99.24-1.94.37-2.84zm-2.85 9.49h2.56a23.6 23.6 0 0 1-.23-3.66h-1.92a25.61 25.61 0 0 1-.31 3.16c-.03.16-.05.34-.09.5zm-22.68 6.64h11.33a8.6 8.6 0 0 1-5.08-3.65h-4.7a18.58 18.58 0 0 1-1.54 3.65zm2.21-6.64h2.79c0-.16-.07-.34-.1-.5a25.8 25.8 0 0 1-.31-3.16h-2.08a28.08 28.08 0 0 1-.29 3.66zm2.5-9.49h-2.58c.13.91.23 1.86.3 2.84h2.15c.03-1.08.09-2.07.14-2.84z"/><path class="man-clothing-3" d="M109.22 193.3h31.6v4.23h-31.6zm0-6.66h31.6v3.66h-31.6zm0-6.65h31.6v3.66h-31.6zm0-6.64h31.6V177h-31.6zm0-6.65h31.6v3.65h-31.6zm29.5-3h-11.19a8.62 8.62 0 0 0 5.09-3.65h4.47a17.84 17.84 0 0 0 1.63 3.65zm-4.57-16.13h2.56c-.13.9-.26 1.85-.36 2.84h-2.06c-.03-1.09-.08-2.07-.14-2.84zm2.27 9.49h-2.56c0-.16.06-.34.1-.5a25.61 25.61 0 0 0 .31-3.16h1.92a23.6 23.6 0 0 0 .23 3.66z"/><path class="man-clothing-4" d="M132.53 146.09c0 .4.63 6.41 0 10.21-1.48 8.34-13.47 8.34-14.94 0-.69-3.92 0-10.23 0-10.23 3.77 6.86 10.73 6.56 15 0z"/><path class="man-clothing-3" d="M122.5 163.7h-11.32a18.58 18.58 0 0 0 1.54-3.65h4.7a8.6 8.6 0 0 0 5.08 3.65zm-6.32-6.64h-2.79a28.08 28.08 0 0 0 .3-3.66h2.08a25.8 25.8 0 0 0 .31 3.16c.03.16.06.34.1.5zm-2.88-9.49h2.59c0 .77-.11 1.76-.14 2.84h-2.15c-.07-.98-.17-1.93-.3-2.84z"/><path class="man-clothing-6" d="M117.51 146.08h0c3.77 6.86 10.73 6.56 15 0"/><path class="man-clothing-6" d="M142.31 166.7v-.7c-6-6.16-4.8-14-3.85-19.88h-5.93v0c0 .4.63 6.41 0 10.21-1.48 8.34-13.47 8.34-14.94 0-.69-3.92 0-10.23 0-10.23h-6c1 5.86 1.52 14-3.85 19.88V199h34.59v-32.3z"/><path class="man-clothing-3" d="M106 62.76c-1.65 1.59-5.33 2.69-9.6 2.69-4 0-7.54-1-9.31-2.43a35.9 35.9 0 0 1 18.91-.26zm26.45 53.04-8.74 3.66-1.71-5 9.06-3.27z"/><path class="man-clothing-4" d="M91.22 68.24a27.81 27.81 0 0 0 2.85.19c.23 0 2-3 2.28-3 .49 0 2.06 3 2.55 3a27.57 27.57 0 0 0 3.32-.34c3.75-.64 6.4-2 7.54-3.75 0 0 8.55 3.1 9.18 6 .51 2.28 8.78 29.76 12.12 40.85l-9.06 3.28-7.34-21.38-1 28.27H80.49l-1.37-29.44-8.5 22.9-8.33-3.82 10.89-40.33s3-6.26 9.67-6.28c1.15 1.89 4.08 3.34 8.37 3.85z"/><path class="man-clothing-4" d="M102.22 68.14a27.57 27.57 0 0 1-3.32.34c-.49 0-2.06-3-2.55-3 4.27 0 8-1.1 9.6-2.69a2.64 2.64 0 0 0 .93-1.88c0-2.45-4.42-4.44-10-4.57 7.49.13 13.47 2.81 13.47 6.1a3.64 3.64 0 0 1-.62 2c-1.11 1.68-3.73 3.06-7.51 3.7z"/><path class="man-clothing-4" d="M106.88 60.88a2.64 2.64 0 0 1-.93 1.88A35.9 35.9 0 0 0 87 63a2.85 2.85 0 0 1-1.22-2.14c0-2.45 4.42-4.45 10-4.57h1.1c5.58.15 10 2.14 10 4.59z"/><path class="man-clothing-4" d="M91.22 68.24c-4.29-.51-7.2-2-8.37-3.85a3.66 3.66 0 0 1-.59-2c0-3.3 6-6 13.55-6.1-5.57.12-10 2.12-10 4.57A2.85 2.85 0 0 0 87 63c1.77 1.45 5.27 2.43 9.31 2.43-.24 0-2 3-2.28 3a27.81 27.81 0 0 1-2.81-.19z"/><path class="man-clothing-3" d="m70.61 114.81-1.72 4.65-8.04-3.09 1.44-5.33 8.32 3.77z"/><path class="man-clothing-6" d="M96.91 56.31c7.49.13 13.47 2.81 13.47 6.1a3.64 3.64 0 0 1-.62 2c-1.14 1.73-3.79 3.11-7.54 3.75a27.57 27.57 0 0 1-3.32.34c-.49 0-2.06-3-2.55-3-.24 0-2 3-2.28 3a27.81 27.81 0 0 1-2.85-.19c-4.29-.51-7.2-2-8.37-3.85a3.66 3.66 0 0 1-.59-2c0-3.3 6-6 13.55-6.1"/><path class="man-clothing-6" d="M96.91 56.31c5.55.13 10 2.12 10 4.57a2.64 2.64 0 0 1-.93 1.88c-1.65 1.59-5.33 2.69-9.6 2.69-4 0-7.54-1-9.31-2.43a2.85 2.85 0 0 1-1.22-2.14c0-2.45 4.42-4.45 10-4.57h1.1zm-14.06 8.08h0c-6.71 0-9.67 6.28-9.67 6.28L62.29 111l-1.44 5.33 8 3.09 1.72-4.64 8.5-22.9"/><path class="man-clothing-6" d="m78.74 83.86.38 8.06 1.37 29.44h33.21l.96-28.27.31-9.23"/><path class="man-clothing-6" d="m114.66 93.09 7.34 21.38 1.71 5 8.74-3.66-1.39-4.6c-3.34-11.09-11.61-38.57-12.12-40.85-.63-2.86-9.18-6-9.18-6M122 114.47l9.06-3.27m-68.77-.16 8.32 3.78m20.61-48.06v14.08m11-14.08v14.08M87 63a35.9 35.9 0 0 1 19-.24m-23.15 49.11c.57-.4 5.31-10.68 5.31-10.68H106l4.43 10"/></svg>