<svg xmlns="http://www.w3.org/2000/svg" id="Layer_1" data-name="Layer 1" viewBox="31.01 30.17 193.99 195.62"><defs><style>.cls-3{fill:#fff}.cls-4{fill:#2db5ff}.cls-5{fill:none;stroke:#0e4e91;stroke-linecap:round;stroke-linejoin:round}.cls-6{fill:#caf5fe}</style></defs><path d="M131.65 225.79v-1.28c2.26-.07 4.55-.21 6.78-.43l.13 1.28c-2.31.22-4.62.37-6.91.43zm-5.16 0c-2.29-.06-4.6-.19-6.87-.41l.12-1.27c2.24.21 4.52.34 6.78.39zm17.15-1.09-.19-1.27c2.23-.34 4.48-.77 6.67-1.26l.29 1.25c-2.23.52-4.5.95-6.77 1.3zm11.77-2.55-.35-1.23a97.32 97.32 0 0 0 6.47-2.07l.44 1.2c-2.15.8-4.36 1.5-6.56 2.12zm11.37-4-.5-1.19c2.07-.87 4.14-1.83 6.15-2.85l.58 1.14c-2.01 1.09-4.14 2.06-6.23 2.95zm10.77-5.35-.64-1.11c2-1.13 3.89-2.33 5.76-3.59l.72 1.06a78.26 78.26 0 0 1-5.84 3.69zm-97.06.23c-2-1.13-3.95-2.35-5.86-3.62l.71-1.07c1.88 1.26 3.83 2.46 5.79 3.57zm107.1-6.86-.77-1c1.8-1.36 3.58-2.8 5.28-4.28l.84 1c-1.72 1.5-3.52 2.95-5.35 4.33zm-117.18.26a96.235 96.235 0 0 1-5.37-4.3l.83-1c1.72 1.48 3.5 2.91 5.31 4.25zm126.34-8.08-.89-.92a94.79 94.79 0 0 0 4.72-4.89l.95.86a81.002 81.002 0 0 1-4.78 5zm-135.54.31a101.61 101.61 0 0 1-4.8-4.93l1-.86c1.52 1.67 3.12 3.31 4.74 4.86zm143.67-9.18-1-.81c1.42-1.76 2.79-3.58 4.09-5.43l1.03.76c-1.28 1.9-2.68 3.75-4.12 5.53zM53 189.87a96.406 96.406 0 0 1-4.17-5.48l1.05-.74c1.3 1.84 2.69 3.66 4.11 5.41zm158.84-10.15-1.09-.68c1.19-1.92 2.33-3.9 3.39-5.89l1.13.6a80.183 80.183 0 0 1-3.39 5.97zM46 180.1a97.722 97.722 0 0 1-3.46-5.94l1.13-.61c1.06 2 2.21 4 3.41 5.87zm171.6-11-1.16-.55c1-2 1.84-4.15 2.64-6.26l1.2.45c-.8 2.16-1.7 4.26-2.67 6.38zM31.23 134.77c-.13-2-.21-4.09-.22-6.13v-.75h1.29v.74c0 2 .09 4.05.23 6.05zm1.2-12-1.29-.07c.13-2.28.33-4.59.61-6.86L33 116c-.25 2.27-.45 4.54-.57 6.8zm191.3-12.52c-.41-2.22-.9-4.45-1.47-6.63l1.24-.32c.57 2.21 1.08 4.47 1.5 6.72zM33.78 111l-1.26-.22c.4-2.26.88-4.52 1.44-6.73l1.25.31c-.55 2.18-1.03 4.41-1.43 6.64zm187.07-12.24a97.46 97.46 0 0 0-2.29-6.4l1.2-.47c.84 2.12 1.62 4.31 2.31 6.48zm-184.27.69-1.22-.38c.67-2.18 1.44-4.37 2.27-6.51l1.19.46a97.78 97.78 0 0 0-2.24 6.43zm180-11.76c-.94-2-2-4.09-3.05-6.06l1.12-.62c1.1 2 2.14 4.07 3.1 6.14zm-175.78.63-1.17-.53c.94-2.08 2-4.16 3.06-6.18l1.13.61c-1.08 2-2.09 4.05-3.02 6.1zm170.14-11.09a100.77 100.77 0 0 0-3.78-5.64l1-.75c1.34 1.85 2.63 3.78 3.83 5.72zm-164.58.57-1.1-.67c1.19-1.95 2.47-3.88 3.79-5.75l1.05.75c-1.31 1.87-2.57 3.75-3.74 5.67zm157.72-10.26c-1.42-1.76-2.91-3.48-4.44-5.14l.94-.87c1.55 1.68 3.07 3.43 4.5 5.21zm-150.92.51-1-.8c1.42-1.78 2.92-3.55 4.46-5.24l1 .87a82.91 82.91 0 0 0-4.46 5.17zm142.91-9.29c-1.61-1.57-3.3-3.11-5-4.56l.83-1c1.75 1.47 3.46 3 5.1 4.62zM90.49 39.39 90 38.21c2.09-.91 4.25-1.75 6.4-2.51l.43 1.21c-2.15.75-4.27 1.58-6.34 2.48zm64.81-4.24c-2.17-.61-4.39-1.16-6.59-1.62l.26-1.26c2.24.47 4.48 1 6.68 1.65zm-53.64.2-.36-1.23c2.19-.64 4.43-1.21 6.67-1.7l.27 1.26a93.09 93.09 0 0 0-6.58 1.67zm42-2.74c-2.22-.34-4.49-.61-6.74-.8l.11-1.27c2.28.19 4.57.46 6.83.81zm-30.45.12-.2-1.27c2.25-.36 4.55-.65 6.83-.86l.11 1.28c-2.22.2-4.48.49-6.71.85zm18.62-1.21c-2.26-.07-4.54-.06-6.79 0v-1.28c2.28-.09 4.59-.1 6.88 0z" style="fill:#0e4e91"/><circle cx="132.07" cy="128.54" r="80.25" style="fill:#abe7ff"/><path class="cls-3" d="m115 91.19-17.86-1.57V62.48l18.27-1.41a24.2 24.2 0 0 0-.41 30.12z"/><path class="cls-3" d="M151.16 66.13A19.68 19.68 0 0 1 154 76v.38a19.69 19.69 0 0 1-2.47 9.62 20 20 0 0 1-7.11 7.39 19.68 19.68 0 0 1-9.87 2.83h-.38a19.72 19.72 0 0 1-9.58-2.46 20.06 20.06 0 0 1-7.4-7.12 19.71 19.71 0 0 1-2.83-9.87 2.23 2.23 0 0 1 0-.37 19.67 19.67 0 0 1 2.48-9.59 20 20 0 0 1 7.11-7.39 19.68 19.68 0 0 1 9.86-2.83h.38a19.79 19.79 0 0 1 9.57 2.41 20.06 20.06 0 0 1 7.4 7.13zm-11.67 37.7h-10.18v-3.74a24.31 24.31 0 0 0 10.18-.1z"/><path class="cls-4" d="M129.31 100.09a24.21 24.21 0 1 1 10.18-.1 24.31 24.31 0 0 1-10.18.1zM154 76a19.68 19.68 0 0 0-2.83-9.86 20.06 20.06 0 0 0-7.4-7.12 19.79 19.79 0 0 0-9.59-2.46h-.38a19.68 19.68 0 0 0-9.86 2.83 20 20 0 0 0-7.11 7.39 19.67 19.67 0 0 0-2.48 9.59 2.23 2.23 0 0 0 0 .37 19.71 19.71 0 0 0 2.83 9.87 20.06 20.06 0 0 0 7.4 7.12 19.72 19.72 0 0 0 9.58 2.46h.38a19.68 19.68 0 0 0 9.87-2.83 20 20 0 0 0 7.12-7.36 19.69 19.69 0 0 0 2.47-9.63V76z"/><path class="cls-3" d="m171.93 89.56-18.74 1.79a24.17 24.17 0 0 0-.26-30.28l19 1.6z"/><path class="cls-5" d="M139.49 100a24.31 24.31 0 0 1-10.18.1 24.21 24.21 0 1 1 10.18-.1z"/><path class="cls-5" d="m152.93 61.07 19 1.6v26.89l-18.74 1.79-.26.03m-37.52-30.31-18.27 1.41v27.14l17.89 1.57"/><path class="cls-5" d="M134.55 96.18h-.38a19.72 19.72 0 0 1-9.58-2.46 20.06 20.06 0 0 1-7.4-7.12 19.71 19.71 0 0 1-2.83-9.87 2.23 2.23 0 0 1 0-.37 19.67 19.67 0 0 1 2.48-9.59 20 20 0 0 1 7.11-7.39 19.68 19.68 0 0 1 9.86-2.83h.38a19.79 19.79 0 0 1 9.57 2.45 20.06 20.06 0 0 1 7.4 7.12A19.68 19.68 0 0 1 154 76v.38a19.69 19.69 0 0 1-2.47 9.62 20 20 0 0 1-7.11 7.39 19.68 19.68 0 0 1-9.87 2.79zM154 76h-2.67m.2 9.96-2.31-1.34m-4.8 8.73-1.34-2.32m-8.53 5.16v-2.67m-9.96.21 1.33-2.32m-8.73-4.8 2.31-1.34m-5.16-8.53h2.68m-.2-9.96 2.3 1.33m4.81-8.72 1.33 2.32m8.53-5.16v2.67m9.97-.21-1.34 2.32m8.74 4.8-2.32 1.34"/><path class="cls-5" d="M146.24 76h-11.69v6.99m4.94 17v3.84h-10.18v-3.84"/><path class="cls-3" d="m147.04 189.05-1.44 16.16h-26.98l-1.77-16.16h30.19zm9.61-25.56v9.53h-3.46v-9.53h3.46z"/><path class="cls-4" d="M153.19 173v16h-41.77v-41.72h41.77V173zm-4.73 11.32V152h-32.32v32.34h32.32z"/><path class="cls-3" d="M148.46 168.39v15.95h-32.32V152h32.32v16.39zm-2.86-36.72 1.44 15.61h-29.67l1.44-15.61h26.79z"/><path class="cls-5" d="M153.19 173.02v16.03h-41.77v-41.77h41.77v25.74z"/><path class="cls-5" d="M132.3 184.34h-16.16V152h32.32v32.34H132.3z"/><path class="cls-5" d="M132.3 160.06v8.11h4.47M132.3 152v2.87m9.18-2.48-1.43 2.48m8.04 4.47-2.49 1.43m2.86 7.62h-2.86m2.49 9.3-2.49-1.43m-4.22 7.89-1.44-2.49m-7.64 2.68v-2.87m-9.23 2.68 1.44-2.49m-8.37-3.97 2.48-1.43m-2.48-7.87H119m-2.68-9.28 2.49 1.42m3.97-8.33 1.43 2.49m28.98 8.8h3.46v9.53h-3.18m-36.1-25.74 1.44-15.61h26.79l1.44 15.61m-30.19 41.77 1.77 16.16h26.98l1.44-16.16"/><path class="cls-3" d="m88.44 148-6.2 15.19H55.59l-5.18-14.59a6 6 0 0 0 3.13.89h30.93a5.89 5.89 0 0 0 3.97-1.49z"/><path class="cls-5" d="M50.41 148.59v.01l5.18 14.55h26.65l6.2-15.19h0"/><path class="cls-3" d="m88.44 110.89-6.2-15.18H55.59l-5.18 14.55a5.87 5.87 0 0 1 3.13-.9h30.93a5.89 5.89 0 0 1 3.97 1.53z"/><path class="cls-5" d="M50.41 110.27v-.01l5.18-14.55h26.65l6.2 15.18v.01"/><path class="cls-6" d="M90.81 113.71v30.93a5.89 5.89 0 0 1-2 4.39 5.89 5.89 0 0 1-4 1.53H54a5.85 5.85 0 0 1-3.13-.9 5.89 5.89 0 0 1-2.79-5v-30.95a5.89 5.89 0 0 1 2.63-4.92 5.81 5.81 0 0 1 3.29-1h30.89a5.88 5.88 0 0 1 3.91 1.47 5.85 5.85 0 0 1 2.01 4.45zM71 126.65a.89.89 0 1 0-.89.89.89.89 0 0 0 .89-.89zm0 6.12a.89.89 0 1 0-.89.9.89.89 0 0 0 .89-.9zm-11.7.52c1.52 0 1.92-2.37 1.92-5.42s-.49-5.52-1.92-5.52-1.92 2.47-1.92 5.52.48 5.42 1.96 5.42z"/><path class="cls-5" d="M88.8 109.27a5.85 5.85 0 0 1 2 4.44v30.93a5.89 5.89 0 0 1-2 4.39"/><path class="cls-5" d="M88.86 149a5.89 5.89 0 0 1-4 1.53H54a5.85 5.85 0 0 1-3.13-.9m-.04.03a5.89 5.89 0 0 1-2.79-5v-30.95a5.89 5.89 0 0 1 2.63-4.92 5.81 5.81 0 0 1 3.29-1h30.93a5.88 5.88 0 0 1 3.91 1.47"/><path class="cls-3" d="M69.47 132.19a.9.9 0 1 1-.89.9.9.9 0 0 1 .89-.9z"/><circle class="cls-3" cx="69.47" cy="126.97" r=".89"/><path class="cls-6" d="M60.59 128.18c0 3-.41 5.43-1.93 5.43s-1.92-2.38-1.92-5.43.59-5.52 1.92-5.52 1.93 2.47 1.93 5.52z"/><path class="cls-5" d="M64.68 122.91v10.7m9.26-10.7v10.7m5.15-6.18v-.05a3 3 0 1 1 0 6m2.55-10.47h-2.55v4.47m-18.5.8c0 3-.41 5.43-1.93 5.43s-1.92-2.38-1.92-5.43.59-5.52 1.92-5.52 1.93 2.47 1.93 5.52z"/><circle class="cls-5" cx="69.47" cy="126.97" r=".89"/><path class="cls-5" d="M70.36 133.09a.89.89 0 1 1-.89-.9.89.89 0 0 1 .89.9z"/><path class="cls-3" d="M195.69 152.22a.87.87 0 1 1-.87.87.86.86 0 0 1 .87-.87zm-11.83-11.83a.87.87 0 1 1-.87.87.87.87 0 0 1 .87-.87zm11.83-11.83a.87.87 0 1 1-.87.87.87.87 0 0 1 .87-.87zm.52 12.94a.83.83 0 0 1-.24.59.8.8 0 0 1-.59.25.84.84 0 1 1 .83-.84zm11.31-1.11a.87.87 0 1 1-.87.87.87.87 0 0 1 .87-.87zm6.7-3.2h1.52v4.32h-1.52zm1.52 0h1.98v4.32h-1.98zm-7.12 33.24-1.97 7.17h-21.92l-1.83-7.17h25.72zm1.96-7.14-1.96 7.14H182.9l-1.82-7.14h29.5zm.9-3.25-.89 3.25h-29.51l-.08-.33-.75-2.92h31.23zm-5.14-55.54 2.1 8.03-.05.01h-25.4l-.34-.09 2.08-7.95h21.61zm3.96 15.07.89 3.4h-31.3l.89-3.4h29.52z"/><path class="cls-3" d="M210.3 119.57h-29.52l1.87-7.12.34.09h25.4l.05-.01 1.86 7.04z"/><path class="cls-6" d="M195.38 140.67a.84.84 0 0 0 0 1.67.8.8 0 0 0 .59-.25.83.83 0 0 0-.59-1.42zm18.84.83v15.8a2.74 2.74 0 0 1-2.74 2.74h-31.59a2.74 2.74 0 0 1-2.74-2.74v-31.59a2.74 2.74 0 0 1 2.74-2.74h31.59a2.74 2.74 0 0 1 2.74 2.74v15.79zm-5.83-.24a.87.87 0 1 0-.87.87.87.87 0 0 0 .87-.87zm-11.83-11.83a.87.87 0 1 0-.87.87.87.87 0 0 0 .87-.87zm0 23.66a.87.87 0 1 0-.87.87.86.86 0 0 0 .87-.87zm-11.83-11.83a.87.87 0 1 0-.87.87.87.87 0 0 0 .87-.87z"/><path class="cls-5" d="M211.48 160h-31.59a2.74 2.74 0 0 1-2.74-2.74v-31.55a2.74 2.74 0 0 1 2.74-2.74h31.59a2.74 2.74 0 0 1 2.74 2.74v31.59a2.74 2.74 0 0 1-2.74 2.7z"/><path class="cls-5" d="M196.56 129.43a.87.87 0 1 1-.87-.87.87.87 0 0 1 .87.87zm0 23.66a.87.87 0 1 1-.87-.87.87.87 0 0 1 .87.87zm10.96-10.96a.87.87 0 1 1 .87-.87.86.86 0 0 1-.87.87zm-23.66 0a.87.87 0 1 1 .87-.87.87.87 0 0 1-.87.87zm15 2.84-2.89-2.88m-.59-1.42v-6.96m0 6.96a.83.83 0 0 1 .59 1.42.8.8 0 0 1-.59.25.84.84 0 0 1 0-1.67zm-15.49-17.7.89-3.4 1.87-7.12 2.08-7.95h21.61l2.1 8.03 1.86 7.04.89 3.4m-28.2-10.43h25.4m-27.61 7.03h29.52m.29 43.72.89-3.25m-31.23 0 .75 2.92.08.33 1.82 7.14 1.83 7.17h21.92l1.97-7.17 1.96-7.14m-29.5 0h29.51m-27.69 7.14h25.72m5.6-33.24h3.51v4.31h-3.51m1.52-4.31v4.31"/></svg>