<svg xmlns="http://www.w3.org/2000/svg" id="Layer_1" data-name="Layer 1" viewBox="35.77 30.94 194.19 195.74"><defs><style>.man-accessories-3{fill:#fff}.man-accessories-4{fill:var(--chakra-colors-primary-400)}.man-accessories-5{fill:none;stroke:var(--chakra-colors-primary-800);stroke-miterlimit:10}</style></defs><path d="M136.52 226.68v-1.28c2.27-.07 4.55-.21 6.79-.43l.13 1.28c-2.31.22-4.63.37-6.92.43zm-5.17 0c-2.29-.05-4.6-.18-6.87-.4l.12-1.27c2.24.2 4.52.34 6.78.39zm17.18-1.08-.2-1.27c2.24-.35 4.49-.77 6.68-1.26l.29 1.25c-2.23.51-4.51.94-6.77 1.29zm11.78-2.55-.35-1.24a97.32 97.32 0 0 0 6.47-2.07l.44 1.21c-2.16.78-4.36 1.49-6.56 2.11zm11.37-4-.5-1.19c2.08-.87 4.15-1.83 6.17-2.85l.58 1.14a86.256 86.256 0 0 1-6.25 2.93zm10.79-5.35-.64-1.12c1.95-1.12 3.89-2.33 5.76-3.59l.72 1.06c-1.9 1.31-3.86 2.54-5.84 3.68zm-97.16.3c-2-1.13-4-2.35-5.87-3.62l.72-1.06c1.84 1.2 3.84 2.4 5.84 3.52zm107.21-6.86-.77-1c1.8-1.36 3.58-2.8 5.28-4.27l.84 1c-1.72 1.38-3.52 2.84-5.35 4.22zm-117.3.26a89.005 89.005 0 0 1-5.38-4.31l.84-1c1.71 1.47 3.5 2.91 5.3 4.25zm126.46-8.08-.89-.93c1.63-1.56 3.22-3.21 4.73-4.89l.95.86c-1.53 1.64-3.14 3.32-4.79 4.91zM66 199.57c-1.65-1.58-3.26-3.24-4.81-4.94l.95-.86c1.53 1.68 3.12 3.32 4.75 4.87zm143.82-9.19-1-.81c1.43-1.76 2.8-3.59 4.1-5.43l1 .73c-1.25 1.87-2.65 3.73-4.09 5.51zm-152 .34a100.1 100.1 0 0 1-4.17-5.48l1.05-.74c1.3 1.84 2.68 3.66 4.11 5.41zm159-10.16-1.09-.68c1.2-1.92 2.34-3.9 3.4-5.9l1.13.6c-1.06 2.03-2.26 4.04-3.43 5.98zm-166 .38a89.434 89.434 0 0 1-3.49-5.94l1.13-.6c1.06 2 2.21 4 3.42 5.87zm171.78-11-1.16-.55c1-2.05 1.84-4.16 2.64-6.27l1.2.46c-.84 2.15-1.74 4.29-2.71 6.42zM36 135.56c-.14-2-.22-4.09-.23-6.13v-.75h1.28v.74c0 2 .08 4.05.22 6.05zm1.19-12-1.28-.07c.12-2.29.32-4.59.61-6.86l1.27.15c-.28 2.22-.48 4.54-.6 6.8zm191.51-12.51c-.41-2.22-.91-4.46-1.48-6.63l1.25-.33c.57 2.21 1.07 4.47 1.49 6.73zm-190.15.71-1.26-.22c.4-2.26.88-4.52 1.44-6.74l1.25.31c-.55 2.19-.98 4.43-1.43 6.65zm187.26-12.24c-.68-2.15-1.45-4.31-2.29-6.41l1.2-.47c.84 2.13 1.62 4.31 2.31 6.49zm-184.46.68-1.22-.38c.67-2.18 1.44-4.37 2.27-6.51l1.2.46c-.82 2.12-1.6 4.28-2.25 6.43zm180.17-11.77c-1-2-2-4.09-3.06-6.06l1.13-.62c1.1 2 2.14 4.07 3.09 6.15zm-175.94.63-1.17-.52c.94-2.09 2-4.17 3.06-6.19l1.12.61C47.52 85 46.5 87 45.58 89.06zM215.89 78a97.463 97.463 0 0 0-3.78-5.65l1-.75c1.34 1.85 2.63 3.78 3.83 5.72zm-164.75.57-1.14-.7c1.19-2 2.47-3.89 3.8-5.76l1 .75c-1.23 1.84-2.49 3.75-3.66 5.68zM209 68.27a98.709 98.709 0 0 0-4.44-5.15l.94-.87c1.55 1.68 3.07 3.43 4.5 5.21zm-151 .51L57 68c1.42-1.79 2.92-3.56 4.47-5.25l.94.87A61.062 61.062 0 0 0 58 68.78zm143-9.31c-1.61-1.57-3.31-3.1-5-4.56l.83-1c1.75 1.47 3.47 3 5.11 4.62zM95.32 40.08l-.51-1.18c2.09-.9 4.25-1.75 6.4-2.5l.43 1.21c-2.13.74-4.25 1.58-6.32 2.47zm64.87-4.24c-2.17-.61-4.39-1.16-6.6-1.62l.27-1.26c2.24.47 4.49 1 6.69 1.65zm-53.7.2-.36-1.23c2.2-.64 4.44-1.21 6.68-1.7l.27 1.26c-2.2.48-4.42 1.04-6.59 1.63zm42.09-2.74c-2.23-.34-4.5-.61-6.76-.8l.11-1.28c2.28.19 4.58.46 6.84.81zm-30.49.12-.2-1.27c2.25-.37 4.55-.66 6.83-.86l.12 1.28c-2.25.2-4.52.49-6.75.85zm18.64-1.21c-2.26-.07-4.55-.06-6.8 0l-.05-1.21c2.28-.08 4.6-.09 6.89 0z" style="fill:var(--chakra-colors-primary-800)"/><circle cx="134.37" cy="128.3" r="75.32" style="fill:var(--chakra-colors-primary-50)"/><path class="man-accessories-3" d="M160 115.16c7.73 2.36 12.71 6.08 12.71 10.26 0 7.17-14.68 13-32.79 13s-32.79-5.8-32.79-13c0-4.1 4.8-7.75 12.28-10.14-.41 1.39-.83 2.78-1.22 4.07-.63 2.09-1.18 3.93-1.53 5.08a1.4 1.4 0 0 0 .89 1.73c13.63 4.69 28.54 4.57 44.41.9a1.39 1.39 0 0 0 1-1.77c-.34-1.11-.86-2.79-1.46-4.86-.42-1.57-.93-3.35-1.5-5.27z"/><path class="man-accessories-4" d="M163 125.29a1.39 1.39 0 0 1-1 1.77c-15.87 3.67-30.78 3.79-44.41-.9a1.4 1.4 0 0 1-.89-1.73c.35-1.15.9-3 1.53-5.08 2.11 1.74 7.64 4.41 21.67 4.52 14.59.11 19.83-2.09 21.67-3.44.58 2.07 1.1 3.75 1.43 4.86z"/><path class="man-accessories-3" d="M139.34 107.33c4.58-6.75 17-5.6 19.37 3.11.44 1.63.89 3.21 1.31 4.72.55 1.92 1.06 3.7 1.53 5.27-1.84 1.35-7.08 3.55-21.67 3.44-14-.11-19.56-2.78-21.67-4.52.39-1.29.81-2.68 1.22-4.07.73-2.46 1.47-4.91 2-6.83 1.85-6 14.08-8.32 17.91-1.12z"/><path class="man-accessories-5" d="M160 115.16c7.73 2.36 12.71 6.08 12.71 10.26 0 7.17-14.68 13-32.79 13s-32.79-5.8-32.79-13c0-4.1 4.8-7.75 12.28-10.14"/><path class="man-accessories-5" d="M161.55 120.43c.6 2.07 1.12 3.75 1.46 4.86a1.39 1.39 0 0 1-1 1.77c-15.87 3.67-30.78 3.79-44.41-.9a1.4 1.4 0 0 1-.89-1.73c.35-1.15.9-3 1.53-5.08.39-1.29.81-2.68 1.22-4.07.73-2.46 1.47-4.91 2-6.83 1.8-6 14-8.32 17.86-1.12 4.58-6.75 17-5.6 19.37 3.11.44 1.63.89 3.21 1.31 4.72.57 1.92 1.08 3.7 1.55 5.27z"/><path class="man-accessories-5" d="M118.21 119.35c2.11 1.74 7.64 4.41 21.67 4.52 14.59.11 19.83-2.09 21.67-3.44m-29.29-13.05s4.09 1.94 7.08 0"/><path class="man-accessories-3" d="M203.56 97.11c.19 0 .38.12.57.19-.33 3.19-1.08 5.93-3 7.26h-11.6l-.07-.47.31-2a5.45 5.45 0 0 1 5.08-4.56z"/><path class="man-accessories-3" d="m203.56 97.11-8.71.46a5.45 5.45 0 0 0-5.08 4.56l-.31 2-.32-2a5.45 5.45 0 0 0-5.08-4.56L173.69 97a50.28 50.28 0 0 1 29.87.11zm-11.29 16.18 3.05 32.61-5.79 5.34-6.31-5.68 2.63-32.27h6.42z"/><path class="man-accessories-3" d="M189.53 104.56h5.32a18 18 0 0 1-2.58 8.73h-6.41a18.43 18.43 0 0 1-3-8.73h6.69zm-.07-.47-.08.47h-11.92c-2.55-1.5-3.77-7.54-3.77-7.54l10.37.55a5.45 5.45 0 0 1 5.08 4.56z"/><path class="man-accessories-5" d="M194.85 104.56h6.24c2-1.33 2.71-4.07 3-7.26-.19-.07-.38-.14-.57-.19a50.28 50.28 0 0 0-29.83-.11s1.22 6 3.77 7.54h17.39z"/><path class="man-accessories-5" d="m173.69 97 10.37.55a5.45 5.45 0 0 1 5.08 4.56l.32 2 .07.47"/><path class="man-accessories-5" d="m189.38 104.56.08-.47.31-2a5.45 5.45 0 0 1 5.08-4.56l8.71-.46m-20.72 7.49a18.43 18.43 0 0 0 3 8.73h6.41a18 18 0 0 0 2.58-8.73m-8.98 8.73-2.63 32.27 6.31 5.68 5.79-5.34-3.05-32.61"/><path class="man-accessories-3" d="M147.38 53.77s3.82.87 1.7 7.51c0 0-1.72 3.52-7.72 5.09a6.18 6.18 0 0 0-1.66-.23H119s-5.09-1.12-7.58-4.21c3-3.76 7.92-4 7.92-4l21.17-.47s6.23-1.18 6.87-3.69zm-9.16 8.43a1.31 1.31 0 1 0-1.31 1.31 1.31 1.31 0 0 0 1.31-1.31zm-4.86 0a1.31 1.31 0 1 0-1.31 1.31 1.3 1.3 0 0 0 1.31-1.31zm-4.86 0a1.31 1.31 0 1 0-1.31 1.31 1.31 1.31 0 0 0 1.31-1.31zm-4.85 0a1.31 1.31 0 1 0-1.31 1.31 1.31 1.31 0 0 0 1.31-1.31zm23.73 8.38v9.25c-2.4 2.67-6 3.5-10.19 3.57l-.08-.05a1.77 1.77 0 0 0 .08-.56v-7.66a1.58 1.58 0 0 0 0-.37s7.95-.06 10.19-4.18z"/><path class="man-accessories-3" d="M141.36 66.37a11 11 0 0 1 6 4.21c-2.24 4.12-10.22 4.18-10.22 4.18a1.9 1.9 0 0 0-1.86-1.52h-13.09a1.89 1.89 0 0 0-1.89 1.89 16.39 16.39 0 0 1-8.87-4.13v-9c2.49 3 7.57 4.14 7.57 4.14h20.7a6.18 6.18 0 0 1 1.66.23z"/><path class="man-accessories-4" d="M137.19 75.13v7.66a1.77 1.77 0 0 1-.08.56 1.9 1.9 0 0 1-1.81 1.33h-6.55a5.72 5.72 0 0 0 5.69-5.2 1.06 1.06 0 0 0 .3-.75 1.09 1.09 0 0 0-.37-.82 5.71 5.71 0 0 0-5.62-4.67h6.55a1.9 1.9 0 0 1 1.86 1.52 1.58 1.58 0 0 1 .03.37zm-.28-14.23a1.31 1.31 0 1 1-1.31 1.3 1.31 1.31 0 0 1 1.31-1.3z"/><path class="man-accessories-4" d="M134.47 79a4.41 4.41 0 0 1 0 .52 1.08 1.08 0 0 1-.8.35H124a1.1 1.1 0 0 1-.92-.49 2.36 2.36 0 0 1 0-.38 4.53 4.53 0 0 1 .09-.91 1.06 1.06 0 0 1 .85-.42h9.67a1.07 1.07 0 0 1 .73.28 6 6 0 0 1 .05 1.05z"/><path class="man-accessories-3" d="M134.37 77.91a1.07 1.07 0 0 0-.73-.28H124a1.06 1.06 0 0 0-.85.42 5.71 5.71 0 0 1 11.25-.14zm-.73 1.92a1.08 1.08 0 0 0 .8-.35 5.71 5.71 0 0 1-11.39-.14 1.1 1.1 0 0 0 .92.49z"/><path class="man-accessories-4" d="M132.05 60.9a1.31 1.31 0 1 1-1.31 1.3 1.3 1.3 0 0 1 1.31-1.3zm-9.86 12.34h6.56a5.69 5.69 0 0 0-5.63 4.81 1 1 0 0 0-.25.68 1.07 1.07 0 0 0 .18.61 5.71 5.71 0 0 0 5.7 5.34h-6.56a1.89 1.89 0 0 1-1.89-1.89v-7.66a1.89 1.89 0 0 1 1.89-1.89zm5-12.34a1.31 1.31 0 1 1-1.31 1.3 1.31 1.31 0 0 1 1.31-1.3zm-4.85 0a1.31 1.31 0 1 1-1.34 1.3 1.31 1.31 0 0 1 1.34-1.3z"/><path class="man-accessories-5" d="M137.11 83.35a1.9 1.9 0 0 1-1.81 1.33h-13.11a1.89 1.89 0 0 1-1.89-1.89v-7.66a1.89 1.89 0 0 1 1.89-1.89h13.11a1.9 1.9 0 0 1 1.86 1.52 1.58 1.58 0 0 1 0 .37v7.66a1.77 1.77 0 0 1-.05.56z"/><path class="man-accessories-5" d="M134.37 77.91a6 6 0 0 1 .1 1 4.41 4.41 0 0 1 0 .52 5.71 5.71 0 0 1-11.39-.14 2.36 2.36 0 0 1 0-.38 4.53 4.53 0 0 1 .09-.91 5.71 5.71 0 0 1 11.25-.14z"/><path class="man-accessories-5" d="M134.44 79.48a1.08 1.08 0 0 1-.8.35H124a1.1 1.1 0 0 1-.92-.49 1.07 1.07 0 0 1-.18-.61 1 1 0 0 1 .25-.68 1.06 1.06 0 0 1 .85-.42h9.67a1.07 1.07 0 0 1 .73.28 1.09 1.09 0 0 1 .37.82 1.06 1.06 0 0 1-.33.75zm6.92-13.11c6-1.57 7.72-5.09 7.72-5.09 2.12-6.64-1.7-7.51-1.7-7.51-.64 2.51-6.86 3.66-6.86 3.66l-21.17.47s-5 .27-7.92 4c2.49 3.1 7.57 4.24 7.57 4.24h20.7a6.18 6.18 0 0 1 1.66.23 11 11 0 0 1 6 4.21c-2.24 4.12-10.22 4.18-10.22 4.18m-25.71-12.83v9a16.39 16.39 0 0 0 8.87 4.18"/><path class="man-accessories-5" d="M137.19 83.4c4.16-.07 7.79-.9 10.19-3.57v-9.25m-23.73-8.38a1.31 1.31 0 1 1-1.31-1.3 1.31 1.31 0 0 1 1.31 1.3zm4.85 0a1.31 1.31 0 1 1-1.31-1.3 1.31 1.31 0 0 1 1.31 1.3zm4.86 0a1.31 1.31 0 1 1-1.31-1.3 1.3 1.3 0 0 1 1.31 1.3zm4.86 0a1.31 1.31 0 1 1-1.31-1.3 1.31 1.31 0 0 1 1.31 1.3z"/><path class="man-accessories-3" d="M91.35 97a10.51 10.51 0 1 1-10.51 10.51v-6A4.5 4.5 0 0 1 85.33 97h6z"/><path class="man-accessories-3" d="M72.15 97h13.18a4.5 4.5 0 0 0-4.49 4.49v1a3.7 3.7 0 0 0-4.2 0v-1A4.5 4.5 0 0 0 72.15 97z"/><path class="man-accessories-3" d="M76.64 102.45v5A10.51 10.51 0 1 1 66.13 97h6a4.5 4.5 0 0 1 4.49 4.49z"/><path class="man-accessories-5" d="M72.15 97a4.5 4.5 0 0 1 4.49 4.49v6A10.51 10.51 0 1 1 66.13 97h4.07m17.61 0h3.54a10.51 10.51 0 1 1-10.51 10.51v-6A4.5 4.5 0 0 1 85.33 97m2.48-.03H70.2"/><path class="man-accessories-5" d="M76.64 102.45a3.7 3.7 0 0 1 4.2 0M66.57 104l-3.64 3.48m6.36-.77-3.65 3.48m26.86-5.8-3.64 3.47m6.35-.76-3.64 3.47m8.34-8.77h2.6m-46.6-1.44h2.15"/><path class="man-accessories-4" d="M184.1 171.37v4.09a1.71 1.71 0 0 1-1.71 1.7h-8.85a3.75 3.75 0 0 1-3.69-3.09 3.68 3.68 0 0 1-.06-.66 3.74 3.74 0 0 1 3.75-3.74h8.85a1.69 1.69 0 0 1 1.71 1.7zm-9.85 2a.85.85 0 0 0-.85-.85.82.82 0 0 0-.6.25.84.84 0 0 0-.25.6.86.86 0 0 0 .25.6.82.82 0 0 0 .6.25.85.85 0 0 0 .85-.85z"/><path class="man-accessories-3" d="M180.69 177.16V184a4.09 4.09 0 0 1-4.09 4.09h-30.31a4.09 4.09 0 0 1-4.09-4.09v-21.15a4.09 4.09 0 0 1 4.09-4.09h30.31a3.31 3.31 0 0 1 .55 0 4.09 4.09 0 0 1 3.54 4v6.82h-7.15a3.74 3.74 0 0 0-3.75 3.74 3.68 3.68 0 0 0 .06.66 3.75 3.75 0 0 0 3.69 3.09z"/><path class="man-accessories-3" d="M174 172.81a.85.85 0 0 1-.6 1.45.82.82 0 0 1-.6-.25.86.86 0 0 1-.25-.6.84.84 0 0 1 .25-.6.82.82 0 0 1 .6-.25.86.86 0 0 1 .6.25z"/><path class="man-accessories-5" d="M180.69 177.16V184a4.09 4.09 0 0 1-4.09 4.09h-30.31a4.09 4.09 0 0 1-4.09-4.09v-21.15a4.09 4.09 0 0 1 4.09-4.09h30.31a3.31 3.31 0 0 1 .55 0"/><path class="man-accessories-5" d="M180.69 165.84v-3a4.09 4.09 0 0 0-3.54-4m3.54 10.83v-3.83m0 3.83h1.7a1.69 1.69 0 0 1 1.71 1.7v4.09a1.71 1.71 0 0 1-1.71 1.7h-8.85a3.75 3.75 0 0 1-3.69-3.09 3.68 3.68 0 0 1-.06-.66 3.74 3.74 0 0 1 3.75-3.74h7.15z"/><path class="man-accessories-5" d="M173.4 172.56a.82.82 0 0 0-.6.25.84.84 0 0 0-.25.6.86.86 0 0 0 .25.6.82.82 0 0 0 .6.25.85.85 0 0 0 0-1.7z"/><path class="man-accessories-3" d="m94.78 183.34 1.22 2.91a1 1 0 0 1-.76 1.33l-17.41 2.68h-.15a1 1 0 0 1-.7-.3 1 1 0 0 1-.27-.72l.13-3.14.29-7a19.44 19.44 0 0 1-2.26-6.53l-2.47-15.75a1.94 1.94 0 0 1 .43-1.59 2.15 2.15 0 0 1 1.63-.73 2 2 0 0 1 2.09 1.68l-.8-5.19a2 2 0 0 1 .44-1.59 2.15 2.15 0 0 1 1.63-.73 2 2 0 0 1 2.07 1.7v.11l-.34-2.21a1.94 1.94 0 0 1 .43-1.59 2.16 2.16 0 0 1 1.64-.73 1.94 1.94 0 0 1 2 1.7l.59 3.1a1.93 1.93 0 0 1 .43-1.6 2.16 2.16 0 0 1 1.63-.72 2 2 0 0 1 2 1.7l2.48 16.16a.9.9 0 0 0 .94.76.89.89 0 0 0 .83-.52l2.13-4.7a1.94 1.94 0 0 1 1.79-1.18 2.24 2.24 0 0 1 1.84 1 2 2 0 0 1 .11 1.89l-.27.52c-.18.32-1.62 3.57-1.62 3.57L92.22 177z"/><path class="man-accessories-5" d="m86.67 184.59-9.86 1.52.29-7a19.44 19.44 0 0 1-2.26-6.53l-2.44-15.76a1.94 1.94 0 0 1 .43-1.59 2.15 2.15 0 0 1 1.63-.73 2 2 0 0 1 2.09 1.68"/><path class="man-accessories-5" d="m94.78 183.34 1.22 2.91a1 1 0 0 1-.76 1.33l-17.41 2.68h-.15a1 1 0 0 1-.7-.3 1 1 0 0 1-.27-.72l.13-3.14"/><path class="man-accessories-5" d="m86.36 164.65-2.13-13.88a1.93 1.93 0 0 1 .43-1.6 2.16 2.16 0 0 1 1.63-.72 2 2 0 0 1 2 1.7l2.48 16.16a.9.9 0 0 0 .94.76.89.89 0 0 0 .83-.52l2.13-4.7a1.94 1.94 0 0 1 1.79-1.18 2.24 2.24 0 0 1 1.84 1 2 2 0 0 1 .11 1.89l-.27.52c-.18.32-1.62 3.57-1.62 3.57l-4.3 9.35 2.56 6.35-3.39.52"/><path class="man-accessories-5" d="m82.21 165.29-2.28-14.79-.34-2.21a1.94 1.94 0 0 1 .43-1.59 2.16 2.16 0 0 1 1.64-.73 1.94 1.94 0 0 1 2 1.7l.59 3.1M78.05 166l-1.49-9.69-.8-5.19a2 2 0 0 1 .44-1.59 2.15 2.15 0 0 1 1.63-.73 2 2 0 0 1 2.07 1.7v.11"/><path class="man-accessories-3" d="m98.29 188.78-1.43 2.75a1 1 0 0 0 0 .84 1 1 0 0 0 .65.54l16.89 4.29a.8.8 0 0 0 .15 0 1 1 0 0 0 1.06-.91l.17-3.11.37-6.91a19.1 19.1 0 0 0 2.85-6.22l3.88-15.27a2 2 0 0 0-.27-1.62 2.17 2.17 0 0 0-1.55-.87 2 2 0 0 0-2.21 1.46l1.28-5a1.93 1.93 0 0 0-.28-1.61 2.11 2.11 0 0 0-1.54-.87 2 2 0 0 0-2.2 1.48v.1l.55-2.14a1.93 1.93 0 0 0-.28-1.61 2.11 2.11 0 0 0-1.54-.87 1.93 1.93 0 0 0-2.12 1.48l-.87 3a1.89 1.89 0 0 0-.27-1.61 2.11 2.11 0 0 0-1.54-.87 1.93 1.93 0 0 0-2.12 1.48l-4 15.69a.9.9 0 0 1-1 .66.87.87 0 0 1-.76-.59l-1.66-4.84a1.92 1.92 0 0 0-1.65-1.33 2.2 2.2 0 0 0-1.9.8 1.94 1.94 0 0 0-.29 1.85c.06.18.14.36.22.54.14.33 1.25 3.67 1.25 3.67l3.34 9.6z"/><path class="man-accessories-5" d="m106.16 190.78 9.58 2.43.37-6.91a19.1 19.1 0 0 0 2.85-6.22l3.88-15.27a2 2 0 0 0-.27-1.62 2.17 2.17 0 0 0-1.55-.87 2 2 0 0 0-2.21 1.46"/><path class="man-accessories-5" d="m98.29 188.78-1.43 2.75a1 1 0 0 0 0 .84 1 1 0 0 0 .65.54l16.89 4.29a.8.8 0 0 0 .15 0 1 1 0 0 0 1.06-.91l.17-3.11m-7.42-22.02 3.42-13.47a1.89 1.89 0 0 0-.27-1.61 2.11 2.11 0 0 0-1.54-.87 1.93 1.93 0 0 0-2.12 1.48l-4 15.69a.9.9 0 0 1-1 .66.87.87 0 0 1-.76-.59l-1.66-4.84a1.92 1.92 0 0 0-1.65-1.33 2.2 2.2 0 0 0-1.9.8 1.94 1.94 0 0 0-.29 1.85c.06.18.14.36.22.54.14.33 1.25 3.67 1.25 3.67l3.34 9.6-3.13 6 3.29.83"/><path class="man-accessories-5" d="m112.39 172.18 3.61-14.37.55-2.14a1.93 1.93 0 0 0-.28-1.61 2.11 2.11 0 0 0-1.54-.87 1.93 1.93 0 0 0-2.12 1.48l-.87 3m4.68 15.56 2.39-9.4 1.28-5a1.93 1.93 0 0 0-.28-1.61 2.11 2.11 0 0 0-1.54-.87 2 2 0 0 0-2.2 1.48v.1"/></svg>