<svg xmlns="http://www.w3.org/2000/svg" id="Layer_1" data-name="Layer 1" viewBox="33.09 43.28 171.76 174.35"><defs><style>.manual-tool-3{fill:var(--chakra-colors-primary-400)}.manual-tool-4{fill:#fff}.manual-tool-5{fill:var(--chakra-colors-primary-50)}.manual-tool-6{fill:none;stroke:var(--chakra-colors-primary-800);stroke-miterlimit:10}</style></defs><path d="m133 216.72-.16-1.13c2-.29 4-.65 5.95-1.09l.25 1.12c-2.04.43-4.04.8-6.04 1.1zm-4.57.55c-2 .19-4.09.31-6.12.36v-1.15c2 0 4-.16 6-.35zm15.08-2.76-.31-1.1c1.94-.54 3.88-1.14 5.77-1.81l.39 1.08c-1.96.68-3.93 1.32-5.89 1.83zm10.11-3.51-.44-1.06c1.86-.77 3.72-1.61 5.51-2.51l.51 1c-1.82.98-3.7 1.83-5.58 2.57zm9.64-4.7-.57-1c1.74-1 3.48-2.06 5.16-3.17l.63.95c-1.69 1.17-3.48 2.26-5.22 3.26zm9-5.86-.68-.92c1.61-1.2 3.2-2.47 4.73-3.78l.74.87c-1.57 1.39-3.18 2.65-4.81 3.87zm-85.9 10.35c-1.87-.79-3.74-1.67-5.56-2.59l.51-1c1.8.91 3.64 1.76 5.49 2.55zm94.08-17.23-.79-.82c1.46-1.39 2.88-2.85 4.23-4.33l.85.76a88.836 88.836 0 0 1-4.29 4.39zM76.75 206c-1.76-1-3.52-2.11-5.2-3.26l.63-.94c1.67 1.12 3.4 2.2 5.14 3.21zm111-20.32-.89-.72c1.28-1.56 2.51-3.17 3.67-4.82l.94.66c-1.2 1.68-2.47 3.32-3.75 4.89zM67.8 200.09a92.424 92.424 0 0 1-4.77-3.86l.76-.87c1.52 1.32 3.1 2.61 4.7 3.81zM194 177l-1-.61c1.07-1.71 2.1-3.46 3-5.23l1 .54c-.86 1.78-1.91 3.56-3 5.3zM59.64 193.11c-1.47-1.41-2.89-2.9-4.26-4.42l.86-.76c1.34 1.5 2.76 3 4.2 4.35zm139.53-25.54-1-.49c.86-1.81 1.66-3.69 2.39-5.57l1.07.42c-.77 1.9-1.63 3.8-2.46 5.64zM52.4 185.2a92.067 92.067 0 0 1-3.68-4.9l.94-.66c1.14 1.65 2.37 3.27 3.63 4.83zm150.74-27.61-1.08-.35c.63-1.91 1.19-3.87 1.68-5.83l1.11.28c-.49 1.98-1.07 3.97-1.71 5.9zm-168.54-11c-.33-1.78-.62-3.6-.84-5.4l-.08-.67 1.13-.13.08.66c.22 1.78.5 3.57.83 5.33zm-.19-10.72-1.14.07c-.14-2-.19-4.09-.18-6.14h1.15c-.03 2.06.03 4.09.17 6.1zm168-31c-.6-1.92-1.27-3.85-2-5.72l1.06-.41c.74 1.89 1.42 3.84 2 5.79zm-168 20.42-1.14-.07c.12-2 .31-4.08.58-6.1l1.13.15c-.29 2-.49 4.02-.6 6.03zM198.67 95c-.82-1.82-1.72-3.65-2.68-5.42l1-.54c1 1.79 1.89 3.64 2.72 5.5zm-163 19.82-1.13-.21c.37-2 .81-4 1.33-6l1.11.29c-.52 1.93-.98 3.92-1.33 5.9zm158.05-29.19c-1.05-1.71-2.16-3.41-3.33-5l.93-.67c1.18 1.65 2.31 3.38 3.38 5.11zm-155.5 18.88-1.09-.35c.61-1.93 1.31-3.89 2.07-5.79l1.06.42q-1.12 2.84-2.04 5.72zM187.66 77a81.935 81.935 0 0 0-3.93-4.59l.84-.77a89.18 89.18 0 0 1 4 4.66zM42.05 94.62l-1-.48c.85-1.85 1.78-3.7 2.75-5.48l1 .55c-1 1.79-1.92 3.58-2.75 5.41zM180.58 69.1c-1.44-1.4-2.93-2.78-4.46-4.08l.74-.88c1.55 1.32 3.08 2.71 4.53 4.14zM47.06 85.28l-1-.6c1.06-1.73 2.21-3.45 3.4-5.11l.93.67a99.706 99.706 0 0 0-3.33 5.04zm125.52-23.12c-1.59-1.22-3.25-2.4-4.94-3.51l.63-1q2.56 1.7 5 3.56zM77.1 56l-.58-1c1.76-1 3.58-2 5.41-2.88l.5 1c-1.8.93-3.59 1.88-5.33 2.88zM134 45.52c-2-.33-4-.58-6-.75l.1-1.15c2 .19 4.08.44 6.08.77zm-47.44 5.76-.45-1.05c1.88-.79 3.8-1.53 5.73-2.2l.37 1.08c-1.9.66-3.8 1.39-5.65 2.17zm36.93-6.8c-2-.07-4-.07-6.06 0v-1.15c2-.07 4.1-.06 6.14 0zm-26.94 3.28-.32-1.11c2-.55 4-1 6-1.47l.24 1.12c-2.01.41-3.99.9-5.92 1.46zm16.36-3c-2 .18-4 .43-6 .74l-.17-1.13c2-.31 4-.56 6.09-.74z" style="fill:var(--chakra-colors-primary-800)"/><circle cx="120.82" cy="129.95" r="67.05" style="fill:var(--chakra-colors-primary-50)"/><path class="manual-tool-3" d="M157.89 82.64a3.48 3.48 0 0 1-1 2.51 3.54 3.54 0 0 1-2.52 1l-29.8.06V64.79l29.77-.08a3.67 3.67 0 0 1 3.59 3.56zm-6-2.4v-2.41h-21.47v2.41zm-21.48-7.12 21.47-.07v-2.4h-21.47z"/><path class="manual-tool-4" d="M130.45 77.85h21.47v2.41h-21.47z"/><path class="manual-tool-4" transform="translate(-.21 .41)" d="M130.43 70.68h21.47v2.41h-21.47z"/><path class="manual-tool-5" d="m124.49 67.15.02 16.72-7.17.02-.02-5.97-.03-10.76 7.2-.01z"/><path class="manual-tool-4" d="m117.32 77.92-20.76.06-2.31 2.3-10.32-2.03-.01-5.25 10.34-2.04 2.29 2.24 20.76-.05.01 4.77z"/><path class="manual-tool-6" d="M83.93 78.25 83.92 73l10.34-2.04 2.29 2.24 20.76-.05.01 4.77-20.76.06-2.31 2.3-10.32-2.03z"/><path class="manual-tool-6" d="m124.51 83.87-7.17.02-.02-5.97-.03-10.76 7.2-.01.02 16.72zm.01 2.36V64.79l29.77-.08a3.67 3.67 0 0 1 3.59 3.56v14.37a3.48 3.48 0 0 1-1 2.51 3.54 3.54 0 0 1-2.52 1z"/><path class="manual-tool-6" transform="translate(-.21 .41)" d="M130.43 70.68h21.47v2.41h-21.47z"/><path class="manual-tool-6" transform="rotate(-.15 145.044 80.404)" d="M130.45 77.85h21.47v2.41h-21.47z"/><path class="manual-tool-5" d="M127.38 189.64v16.09h-3.45A17.32 17.32 0 0 1 106.87 191l-.18-1.26v-.06z"/><path class="manual-tool-4" d="M127.38 180.44v9.2H97.5v-9.2h29.88z"/><path class="manual-tool-3" d="M127.38 178v2.34H97.5V178a3.42 3.42 0 0 1 1.37-2.75l4.91-2.84c.23-.13 5.21-2.93 5.21-8.35a36.8 36.8 0 0 0-1.16-8.94 20.92 20.92 0 0 1-1.14-5.72 5.75 5.75 0 0 1 11.49 0 20.52 20.52 0 0 1-1.11 5.65 36.82 36.82 0 0 0-1.18 9c0 5.45 5.08 8.27 5.14 8.3l4.86 2.81a3.49 3.49 0 0 1 1.49 2.84z"/><path class="manual-tool-5" d="M106.69 189.7v16h-1.15a8.08 8.08 0 0 1-8-7.91v-8.18h9.18z"/><path class="manual-tool-6" d="M97.5 189.64v-9.2h29.88v9.2m0-9.29H97.5V178a3.42 3.42 0 0 1 1.37-2.75l4.91-2.84c.23-.13 5.21-2.93 5.21-8.35a36.8 36.8 0 0 0-1.16-8.94 20.92 20.92 0 0 1-1.14-5.72 5.75 5.75 0 0 1 11.49 0 20.52 20.52 0 0 1-1.11 5.65 36.82 36.82 0 0 0-1.18 9c0 5.45 5.08 8.27 5.14 8.3l4.86 2.81a3.49 3.49 0 0 1 1.49 2.83zm-20.69 9.29v16.09h-1.15a8.08 8.08 0 0 1-8-7.91v-8.18h9.18"/><path class="manual-tool-6" d="M127.38 189.64v16.09h-3.45A17.32 17.32 0 0 1 106.87 191l-.18-1.26v-.06h20.7z"/><path class="manual-tool-4" d="M193.87 122.88v11a3.25 3.25 0 0 1-3.23 3.29h-27.45a1.09 1.09 0 0 0-1.09 1.1v5.48h-2.2v-5.48a3.29 3.29 0 0 1 3.29-3.29h27.45a1.1 1.1 0 0 0 1.09-1.1v-11a1.09 1.09 0 0 0-1.09-1.1h-3.33v-2.19h3.33a3.24 3.24 0 0 1 3.23 3.29z"/><path class="manual-tool-4" d="M187.31 121.78v6.58a2.19 2.19 0 0 1-2.19 2.19h-48.24a2.19 2.19 0 0 1-2.19-2.19V113a2.19 2.19 0 0 1 2.19-2.19h48.24a2.19 2.19 0 0 1 2.19 2.19v8.77zm-30.69 43.85h8.77v4.39h-8.77z"/><path class="manual-tool-3" d="M165.39 145.9v19.73h-8.77V145.9a2.19 2.19 0 0 1 2.19-2.19h4.38a2.2 2.2 0 0 1 2.2 2.19z"/><path class="manual-tool-6" d="M165.39 165.63V145.9a2.2 2.2 0 0 0-2.2-2.19h-1.09v-5.48a1.09 1.09 0 0 1 1.09-1.1h27.45a3.25 3.25 0 0 0 3.23-3.29v-11a3.24 3.24 0 0 0-3.23-3.29h-3.33V113a2.19 2.19 0 0 0-2.19-2.19h-48.24a2.19 2.19 0 0 0-2.19 2.19v15.35a2.19 2.19 0 0 0 2.19 2.19h48.24a2.19 2.19 0 0 0 2.19-2.19v-6.58h3.33a1.09 1.09 0 0 1 1.09 1.1v11a1.1 1.1 0 0 1-1.09 1.1h-27.45a3.29 3.29 0 0 0-3.29 3.29v5.48h-1.09a2.19 2.19 0 0 0-2.19 2.19v19.73"/><path class="manual-tool-6" d="M156.62 165.63h8.77v4.39h-8.77zm3.28-21.92h2.2m25.21-24.12v2.19"/><path class="manual-tool-3" d="M63.53 142.86c.85 9.49.37 12.31.09 14a10 10 0 0 0-.19 1.77 4.48 4.48 0 0 0 .91 2.72 1.48 1.48 0 0 0 1.07.46h7.34a1.49 1.49 0 0 0 1.07-.46 4.5 4.5 0 0 0 .92-2.72 11.16 11.16 0 0 0-.2-1.77c-.28-1.68-.75-4.51.09-14 .55-6.08.22-8.88-1.59-13.6l-.27-.71h-7.38l-.27.71c-1.8 4.74-2.12 7.51-1.59 13.6z"/><path class="manual-tool-4" d="M58 110.8c4.81 0 7.8 3 7.8 7.76v10h6.65v-10c0-3.74 1.91-7.76 6.1-7.76a5.41 5.41 0 0 1 4.08 1.84l.37.36h7.24v-11.08h-7.19l-.34.37a5.63 5.63 0 0 1-8.2 0l-.33-.37H66.9c-3.24 0-8.12 1.75-11.87 4.25a19.92 19.92 0 0 0-4.88 4.45l-3.36 4.49 4.81-2.87a12.1 12.1 0 0 1 6.4-1.44z"/><path class="manual-tool-6" d="M65.79 128.54v-10c0-4.79-3-7.76-7.8-7.76a12.1 12.1 0 0 0-6.39 1.45l-4.81 2.87 3.36-4.49a19.92 19.92 0 0 1 4.85-4.43c3.75-2.5 8.63-4.25 11.87-4.25h7.23l.33.37a5.63 5.63 0 0 0 8.2 0l.34-.37h7.19V113H83l-.33-.37a5.41 5.41 0 0 0-4.08-1.84c-4.19 0-6.1 4-6.1 7.76v10z"/><path class="manual-tool-6" d="M64.34 161.35a4.48 4.48 0 0 1-.91-2.72 10 10 0 0 1 .19-1.77c.28-1.69.76-4.51-.09-14-.54-6.09-.21-8.88 1.59-13.6l.27-.71h7.38l.27.71c1.81 4.72 2.14 7.52 1.59 13.6-.84 9.49-.37 12.32-.09 14a11.16 11.16 0 0 1 .2 1.77 4.5 4.5 0 0 1-.92 2.72 1.49 1.49 0 0 1-1.07.46h-7.34a1.48 1.48 0 0 1-1.07-.46z"/></svg>