<svg xmlns="http://www.w3.org/2000/svg" id="Layer_1" data-name="Layer 1" viewBox="32.77 32.29 190.52 191.42"><defs><style>.meat-fish-3{fill:#fff}.meat-fish-4{fill:var(--chakra-colors-primary-50)}.meat-fish-5{fill:var(--chakra-colors-primary-400)}.meat-fish-6{fill:none;stroke:var(--chakra-colors-primary-800);stroke-linecap:round;stroke-linejoin:round}</style></defs><path d="m96.52 218.52.41-1.19c2.09.72 4.23 1.37 6.36 1.94l-.32 1.21a90.4 90.4 0 0 1-6.45-1.96zm-4.73-1.77a99.79 99.79 0 0 1-6.15-2.73l.55-1.13c2 1 4 1.87 6.07 2.69zm16.08 4.91.26-1.23c2.16.46 4.36.84 6.55 1.15l-.17 1.24c-2.22-.3-4.45-.7-6.64-1.16zm11.65 1.72.11-1.25c2.2.19 4.43.3 6.64.33v1.25a88.67 88.67 0 0 1-6.75-.33zm11.78.27-.05-1.25c2.19-.09 4.42-.25 6.62-.49l.14 1.25c-2.23.24-4.49.41-6.71.49zm11.7-1.18-.2-1.24c2.18-.36 4.37-.8 6.51-1.31l.29 1.22c-2.17.52-4.39.96-6.6 1.33zm-89-33.2a92.267 92.267 0 0 1-4.12-5.33l1-.73c1.29 1.79 2.66 3.56 4.07 5.26zm100.43 30.58-.35-1.2c2.12-.62 4.24-1.33 6.31-2.1l.44 1.18c-2.05.77-4.2 1.49-6.35 2.12zM47.08 179.76a99.09 99.09 0 0 1-3.44-5.79l1.1-.6c1.06 1.94 2.2 3.86 3.39 5.72zm118.48 36.08-.5-1.15c2-.87 4-1.83 6-2.85l.58 1.11c-1.99 1.05-4.03 2.05-6.08 2.89zM41.34 169.47c-1-2-1.87-4.08-2.7-6.17l1.17-.46c.82 2.06 1.71 4.11 2.67 6.09zm134.72 41-.64-1.08c1.91-1.12 3.8-2.32 5.61-3.56l.71 1a67.108 67.108 0 0 1-5.68 3.68zm-139.17-51.9c-.71-2.12-1.36-4.29-1.93-6.45l1.21-.32c.56 2.13 1.2 4.28 1.9 6.37zm149 45.37-.76-1c1.75-1.34 3.48-2.76 5.13-4.23l.83.94a110.55 110.55 0 0 1-5.25 4.29zm-152-56.74a93.58 93.58 0 0 1-1.12-6.63l1.24-.17c.29 2.18.66 4.39 1.11 6.55zm160.93 49-.88-.9c1.57-1.55 3.11-3.17 4.57-4.83l.94.83c-1.55 1.7-3.11 3.33-4.7 4.9zM35.89 100.6c.57-1.91 1.21-3.82 1.9-5.69l.26-.69 1.18.44-.25.68c-.68 1.84-1.31 3.73-1.87 5.61zm5.21-10.55-1.1-.5c.9-2 1.88-4.09 2.91-6.07l1.11.58C43 86 42 88 41.1 90.05zm179.5 54.39c.39-2.18.7-4.39.93-6.58l1.25.13c-.24 2.22-.55 4.46-.94 6.67zM46.41 79.71l-1.08-.64c1.14-1.92 2.37-3.83 3.64-5.67l1 .72c-1.23 1.81-2.44 3.69-3.56 5.59zm175.51 53.18c.11-2.2.15-4.44.11-6.64h1.26c0 2.24 0 4.5-.11 6.73zM53 70.1l-1-.77c1.37-1.76 2.82-3.51 4.32-5.18l.94.84A63.008 63.008 0 0 0 53 70.1zm168.86 51.17c-.16-2.2-.4-4.42-.71-6.6l1.24-.18c.32 2.21.56 4.46.72 6.69zM60.64 61.36l-.89-.89c1.58-1.58 3.23-3.13 4.92-4.6l.82 1c-1.66 1.4-3.3 2.93-4.85 4.49zm159.62 48.4c-.43-2.16-.94-4.34-1.52-6.47L220 103c.59 2.16 1.1 4.36 1.54 6.55zM69.35 53.64l-.77-1c1.76-1.38 3.59-2.71 5.45-4l.7 1c-1.84 1.36-3.65 2.64-5.38 4zm148 44.89c-.69-2.09-1.46-4.19-2.3-6.24l1.16-.48c.85 2.07 1.63 4.2 2.33 6.32zM78.93 47.05 78.29 46c1.92-1.15 3.9-2.25 5.89-3.26l.57 1.12c-1.97.98-3.93 2.06-5.82 3.19zM213 87.73c-.94-2-2-4-3-5.91l1.1-.61c1.1 2 2.13 4 3.08 6zm-90-54.08-.06-1.25c2.23-.11 4.49-.14 6.72-.09v1.25c-2.25-.05-4.48-.02-6.66.09zm60.81 18.43a93.145 93.145 0 0 0-5.48-3.76l.67-1.06a92.27 92.27 0 0 1 5.55 3.81zM134.6 33.8l.09-1.25c2.23.17 4.48.42 6.69.74l-.18 1.24c-2.2-.32-4.41-.53-6.6-.73zm39.43 12c-1.92-1.08-3.9-2.11-5.9-3l.54-1.13c2 1 4 2 6 3.1zm-27.92-10.42.25-1.23c2.19.44 4.39 1 6.55 1.56l-.33 1.21c-2.13-.58-4.31-1.1-6.47-1.54zm17.46 5.31c-2-.84-4.14-1.62-6.23-2.32l.4-1.19c2.12.7 4.24 1.49 6.31 2.35z" style="fill:var(--chakra-colors-primary-800)"/><circle cx="128.26" cy="124.93" r="74.89" style="fill:var(--chakra-colors-primary-100)"/><path class="meat-fish-3" d="M188.96 151.12h2.73l5.19-2.48-1.7 3.16 1.7.59-.93 1.2.08 2.55-4.26-2.55-2.81-.05v-2.42z"/><ellipse class="meat-fish-4" cx="140.73" cy="153.59" rx="15.34" ry="8.01" transform="rotate(-66.93 140.719 153.59)"/><ellipse class="meat-fish-3" cx="140.73" cy="153.59" rx="12.82" ry="6.7" transform="rotate(-66.93 140.719 153.59)"/><path class="meat-fish-4" d="M188.96 151.12h2.38v2.47h-2.38zm-46.53-5.63c-.47 1.11-1.34 1.8-2 1.54s-.72-1.36-.25-2.47 1.34-1.79 2-1.54.72 1.37.25 2.47zm3.98 7.34c-.47 1.1-1.34 1.79-1.95 1.53s-.72-1.36-.25-2.47 1.34-1.79 1.95-1.53.71 1.35.25 2.47zM137.7 162c-.47 1.1-1.34 1.79-1.95 1.53s-.72-1.36-.25-2.47 1.34-1.79 1.95-1.53.72 1.4.25 2.47zm3.97-1.91c-.29.68-.82 1.09-1.19.93s-.44-.84-.15-1.51.82-1.09 1.19-.93.48.83.15 1.51zm-5.11-6.64c-.33.77-.93 1.25-1.35 1.06s-.49-.94-.17-1.71.93-1.24 1.35-1.06.5.95.17 1.71zm4.92 0c-.32.77-.92 1.25-1.35 1.06s-.49-.94-.16-1.71.92-1.24 1.35-1.06.49.95.16 1.71z"/><path class="meat-fish-5" d="M174.52 139.11h-29.19a4.28 4.28 0 0 1 1.42.34c4.07 1.74 4.68 9.46 1.36 17.25-2.66 6.23-7 10.63-10.75 11.25h37.17A14.44 14.44 0 0 0 189 153.54a14.44 14.44 0 0 0-14.48-14.43z"/><ellipse class="meat-fish-6" cx="140.73" cy="153.59" rx="15.34" ry="8.01" transform="rotate(-66.93 140.719 153.59)"/><path class="meat-fish-6" d="M174.52 139.11h-29.19v0a4.28 4.28 0 0 1 1.42.34c4.07 1.74 4.68 9.46 1.36 17.25-2.66 6.23-7 10.63-10.75 11.25h37.17A14.44 14.44 0 0 0 189 153.54h0a14.44 14.44 0 0 0-14.48-14.43z"/><path class="meat-fish-6" d="M188.96 151.12h2.73l5.19-2.48-1.7 3.16 1.7.59-.93 1.2.08 2.55-4.26-2.55-2.81-.05v-2.42z"/><path class="meat-fish-3" d="M103 190.65a66.63 66.63 0 0 1-24.09-18c-2-2.39-1.74-6.5.67-9.18s6-2.91 8.06-.52a56.65 56.65 0 0 0 46.14 20.2c3.14-.12 5.41 2.69 5.08 6.27s-3.15 6.6-6.29 6.72a66.49 66.49 0 0 1-29.57-5.49z"/><path class="meat-fish-6" d="M103 190.65a66.63 66.63 0 0 1-24.09-18c-2-2.39-1.74-6.5.67-9.18s6-2.91 8.06-.52a56.65 56.65 0 0 0 46.14 20.2c3.14-.12 5.41 2.69 5.08 6.27s-3.15 6.6-6.29 6.72a66.49 66.49 0 0 1-29.57-5.49z"/><path class="meat-fish-3" d="m138.86 188.58-.22-2.15 3.36-4.71.39.57a8.7 8.7 0 0 1 .68 8z"/><path class="meat-fish-6" d="m138.86 188.58-.22-2.15 3.36-4.71.39.57a8.7 8.7 0 0 1 .68 8h0z"/><path class="meat-fish-3" d="m80.16 162.89 1.73-1.29 1.18-5.67-.69.1a8.7 8.7 0 0 0-6.32 4.91z"/><path class="meat-fish-6" d="m80.16 162.89 1.73-1.29 1.18-5.67-.69.1a8.7 8.7 0 0 0-6.32 4.91h0z"/><path class="meat-fish-3" d="M126.53 85.41a11.8 11.8 0 0 0 1.91-7.72c.7.06 1.4.09 2.09.09a27.64 27.64 0 0 0 5.1-.49c-1.51 5.12-4.8 7.42-9.1 8.12zM135 55.14a26.84 26.84 0 0 0-4.43-.37 33.87 33.87 0 0 0-12.81 2.78l6.78-6.66s2.93.81 4-.58 1-3.62 2.34-4.05 5.26 4.11 4.12 8.87z"/><path class="meat-fish-3" d="M141.2 56.82a46.38 46.38 0 0 1 14.9 9.44s-8.79 8.84-20.48 11a27.45 27.45 0 0 1-5.09.49q-1 0-2.1-.09c-10-.74-19.31-6.61-23.19-9.56h-3.58a24.35 24.35 0 0 1-4.82 3.9c-3.22 2-8.39 1.26-8.39 1.26 1-2.67 5-6.07 5-6.07-1.37-1.15-4.77-7.53-4.77-7.53a9.12 9.12 0 0 1 5-.46c2.92.5 7.88 5.5 7.88 5.5h3.86a56 56 0 0 1 12.34-7.17 33.87 33.87 0 0 1 12.81-2.79 25.88 25.88 0 0 1 4.43.38 32 32 0 0 1 6.2 1.7zm6 7a1.81 1.81 0 1 0-1.81 1.81 1.8 1.8 0 0 0 1.79-1.85z"/><path class="meat-fish-6" d="M117.72 57.55a56.26 56.26 0 0 0-12.34 7.17h-3.86s-5-5-7.88-5.5a9 9 0 0 0-5 .46s3.41 6.37 4.76 7.53c0 0-4 3.41-5 6.07 0 0 5.17.8 8.38-1.26a23.57 23.57 0 0 0 4.82-3.92h3.59c3.88 3 13.15 8.82 23.19 9.56.69.06 1.39.09 2.09.09a27.45 27.45 0 0 0 5.09-.49c11.69-2.18 20.49-11 20.49-11a46.52 46.52 0 0 0-14.9-9.44 33.25 33.25 0 0 0-6.15-1.7 28 28 0 0 0-4.43-.37 34.28 34.28 0 0 0-12.85 2.8z"/><path class="meat-fish-6" d="M128.44 77.69a11.81 11.81 0 0 1-1.91 7.72c4.3-.7 7.59-3 9.09-8.13m-17.9-19.73 6.78-6.66s2.92.81 4-.58 1-3.62 2.34-4.05 5.26 4.11 4.12 8.87m6.24 1.68h0a20.13 20.13 0 0 0-1 12.55m6.98-5.58a1.81 1.81 0 1 1-1.81-1.78 1.81 1.81 0 0 1 1.81 1.78z"/><path class="meat-fish-3" d="M203.48 87.09c.17 2.72.05 6.45-1.51 8.84a4.57 4.57 0 0 1-1.48 1.51v.61l-.74-.42h-.14a8.26 8.26 0 0 0-2.44-.92l-.51-.11.09-.51c.09-.49.16-1 .2-1.45a28.49 28.49 0 0 0 0-6.54 13.23 13.23 0 0 0-.58-2.6c0-.12-.08-.24-.12-.37a9.45 9.45 0 0 0-.65-1.47l-.27-.47.48-.26a10.26 10.26 0 0 1 1.54-.71 6.59 6.59 0 0 1 2.19-.42 3.67 3.67 0 0 1 1.62.35c1.37.6 2.16 2.29 2.32 4.94z"/><path class="meat-fish-3" d="m194.47 114.65-2.7-.66-1-.25a1.46 1.46 0 0 1-1.1-1.41v-3.06l.15-.16a8.27 8.27 0 0 0 .56-.64c.43-.5.83-1 1.21-1.57l1.66-2.4c.31-.45.6-.9.86-1.37.16-.24.3-.5.44-.75 0-.09.1-.18.13-.27a10.9 10.9 0 0 0 .53-1.09c.17-.36.31-.71.44-1.07.07-.17.13-.33.18-.49s.2-.55.28-.83a1.8 1.8 0 0 0 0-.19 13.73 13.73 0 0 0 .37-1.36l.12-.52.51.11a8.26 8.26 0 0 1 2.44.92h.14a6.46 6.46 0 0 1 3.12 5.31 8.23 8.23 0 0 1-2.24 6.21 17.6 17.6 0 0 0-3.15 4.92 1.44 1.44 0 0 1-1.35.93 1.87 1.87 0 0 1-.34 0z"/><path class="meat-fish-3" d="M196.93 88a28.49 28.49 0 0 1 0 6.54 20.12 20.12 0 0 1-.78 3.84 1.8 1.8 0 0 1 0 .19c-.09.28-.18.56-.28.83a4.84 4.84 0 0 1-.18.49c-.13.36-.27.71-.44 1.07s-.34.74-.53 1.09c0 .09-.09.18-.13.27-.14.25-.28.51-.44.75-.26.47-.55.92-.86 1.37l-1.66 2.4c-.38.53-.78 1.07-1.21 1.57-.18.22-.36.43-.56.64a22.59 22.59 0 0 1-1.8 1.73 17.16 17.16 0 0 1-2.37 1.71 8.19 8.19 0 0 1-8.47 0 14.56 14.56 0 0 1-1.65-1.13 17.73 17.73 0 0 1-2.34-2.16 19.1 19.1 0 0 1-2.19-2.91l-2.18-3.56c-.13-.21-.26-.42-.38-.63a17.93 17.93 0 0 1-1.55-3.56c-.1-.31-.19-.63-.28-.94s-.16-.62-.24-.94-.11-.5-.17-.76c-.14-.71-.25-1.41-.34-2.12 0-.26-.06-.51-.07-.77a2.83 2.83 0 0 1 0-.29c0-.22 0-.44-.05-.67a24.43 24.43 0 0 1 .18-4.1c.06-.43.12-.84.21-1.24s.19-.81.31-1.19c.06-.19.11-.37.18-.55s.13-.35.2-.52.14-.33.22-.49.17-.32.25-.46a6.94 6.94 0 0 1 2.37-2.5 8.15 8.15 0 0 1 4.3-1.12 17.56 17.56 0 0 1 5.64 1.1 5 5 0 0 0 3.59 0 17.44 17.44 0 0 1 5.63-1.1A8.15 8.15 0 0 1 193.1 81a7 7 0 0 1 2.48 2.62 9.45 9.45 0 0 1 .65 1.47c0 .13.09.25.12.37a13.23 13.23 0 0 1 .58 2.54z"/><path class="meat-fish-5" d="m194.47 114.65-1 3.25a1.24 1.24 0 0 0 .36 1.23 1.37 1.37 0 1 1-2.21 1.49.55.55 0 0 0-.7-.34l-.18.11a1.37 1.37 0 0 1-1.82-2 1.53 1.53 0 0 1 .72-.33 1.28 1.28 0 0 0 1.06-.92l1.07-3.09zm-20.15 4.49a1.37 1.37 0 0 1-1.09 1.61 1.39 1.39 0 0 1-1.17-.33.55.55 0 0 0-.77 0 .77.77 0 0 0-.1.18 1.37 1.37 0 1 1-2.21-1.48 1.26 1.26 0 0 0 .36-1.24l-1-3.25L171 114l1.07 3.08a1.28 1.28 0 0 0 1 .92 1.41 1.41 0 0 1 1.25 1.14z"/><path class="meat-fish-3" d="M168.33 114.65 167 115a2 2 0 0 1-.34 0 1.43 1.43 0 0 1-1.35-.93 17.6 17.6 0 0 0-3.15-4.92 8.23 8.23 0 0 1-2.24-6.21 6.44 6.44 0 0 1 3.08-5.25l.23-.14a8.7 8.7 0 0 1 2.5-.94l.51-.1.06.22.06.29.18.65c.09.31.18.63.28.94a17.93 17.93 0 0 0 1.55 3.56 6.88 6.88 0 0 0 .37.63l2.19 3.56a19.1 19.1 0 0 0 2.19 2.91v3.07a1.46 1.46 0 0 1-1.11 1.41l-1 .25z"/><path class="meat-fish-3" d="m167.5 83.08-.24.44s-.17.31-.25.46-.15.32-.22.49-.13.34-.2.52-.12.36-.18.55c-.12.38-.22.78-.31 1.19s-.15.81-.21 1.24a24.43 24.43 0 0 0-.18 4.1c0 .23 0 .45.05.67a2.83 2.83 0 0 0 0 .29c0 .26.05.51.07.77.09.71.2 1.41.34 2.12l.11.54-.51.1a8.7 8.7 0 0 0-2.5.94l-.23.14-.25-.11a4.35 4.35 0 0 1-1.85-1.53c-1.62-2.38-1.76-6.17-1.59-9s1-4.33 2.34-5a3.72 3.72 0 0 1 1.63-.35 8.49 8.49 0 0 1 3.71 1.1z"/><path class="meat-fish-6" d="m171 114 1.07 3.08a1.28 1.28 0 0 0 1 .92 1.41 1.41 0 0 1 1.16 1.1 1.37 1.37 0 0 1-1.09 1.61 1.39 1.39 0 0 1-1.17-.33.55.55 0 0 0-.77 0 .77.77 0 0 0-.1.18 1.37 1.37 0 1 1-2.21-1.48 1.26 1.26 0 0 0 .36-1.24v0l-1-3.25v0m26.23.02v0l-1 3.25v0a1.24 1.24 0 0 0 .36 1.23 1.37 1.37 0 1 1-2.21 1.49.55.55 0 0 0-.7-.34l-.18.11a1.37 1.37 0 0 1-1.82-2 1.53 1.53 0 0 1 .72-.33 1.28 1.28 0 0 0 1.06-.92l1.07-3.09m-28.51-16.47h0m2.9-1.58.11.54m-.52-3.43c0 .26.05.51.07.77m-.14-1.73c0 .23 0 .45.05.67m.34-6.01c-.09.4-.15.81-.21 1.24m.7-3.01c-.07.18-.12.36-.18.55m.85-1.99c-.08.14-.17.3-.25.46s-.14.32-.22.49"/><path class="meat-fish-6" d="M163 97.69h0l-.25-.11a4.35 4.35 0 0 1-1.81-1.58c-1.62-2.38-1.76-6.17-1.59-9s1-4.33 2.34-5a3.72 3.72 0 0 1 1.63-.35 8.49 8.49 0 0 1 3.71 1.1l.47.27-.24.44"/><path class="meat-fish-6" d="M173.16 109.26v3.07a1.46 1.46 0 0 1-1.11 1.41l-1 .25-2.7.66-1.35.35a2 2 0 0 1-.34 0 1.43 1.43 0 0 1-1.35-.93 17.6 17.6 0 0 0-3.15-4.92 8.23 8.23 0 0 1-2.24-6.21 6.44 6.44 0 0 1 3.08-5.25l.23-.14h0a8.7 8.7 0 0 1 2.5-.94l.51-.1.06.22.06.29.18.65"/><path class="meat-fish-6" d="M168.41 102.16a6.88 6.88 0 0 0 .37.63l2.19 3.56m19.42 2.07a8.27 8.27 0 0 1-.56.64m4.73-6.73c-.14.25-.28.51-.44.75m1.1-2.08c-.16.36-.34.74-.53 1.09m1.43-3.51c-.09.28-.18.56-.28.83s-.11.32-.18.49m1.34-5.35a20.12 20.12 0 0 1-.78 3.84m.01-13.39c0 .13.09.25.12.37"/><path class="meat-fish-6" d="M189.79 109.11a22.59 22.59 0 0 1-1.8 1.73 17.16 17.16 0 0 1-2.37 1.71 8.19 8.19 0 0 1-8.47 0 14.56 14.56 0 0 1-1.65-1.13 17.73 17.73 0 0 1-2.34-2.16 19.1 19.1 0 0 1-2.19-2.91l-2.18-3.56c-.13-.21-.26-.42-.38-.63a17.93 17.93 0 0 1-1.55-3.56c-.1-.31-.19-.63-.28-.94s-.16-.62-.24-.94-.11-.5-.17-.76c-.14-.71-.25-1.41-.34-2.12 0-.26-.06-.51-.07-.77a2.83 2.83 0 0 1 0-.29c0-.22 0-.44-.05-.67a24.43 24.43 0 0 1 .18-4.1c.06-.43.12-.84.21-1.24s.19-.81.31-1.19c.06-.19.11-.37.18-.55s.13-.35.2-.52.14-.33.22-.49.16-.31.25-.46 0 0 0 0A6.94 6.94 0 0 1 169.7 81a8.15 8.15 0 0 1 4.3-1.12 17.56 17.56 0 0 1 5.64 1.1 5 5 0 0 0 3.59 0 17.44 17.44 0 0 1 5.63-1.1A8.15 8.15 0 0 1 193.1 81a7 7 0 0 1 2.48 2.62"/><path class="meat-fish-6" d="M199.75 97.63a6.46 6.46 0 0 1 3.12 5.31 8.23 8.23 0 0 1-2.24 6.21 17.6 17.6 0 0 0-3.15 4.92 1.44 1.44 0 0 1-1.35.93 1.87 1.87 0 0 1-.34 0l-1.32-.32-2.7-.66-1-.25a1.46 1.46 0 0 1-1.1-1.41v-3.06l.15-.16h0c.2-.21.38-.42.56-.64.43-.5.83-1 1.21-1.57l1.66-2.4c.31-.45.6-.9.86-1.37.16-.24.3-.5.44-.75 0-.09.1-.18.13-.27a10.9 10.9 0 0 0 .53-1.09c.17-.36.31-.71.44-1.07a4.84 4.84 0 0 0 .18-.49c.1-.27.2-.55.28-.83a1.8 1.8 0 0 0 0-.19 13.73 13.73 0 0 0 .37-1.36l.12-.52"/><path class="meat-fish-6" d="M199.75 97.63h-.14a8.26 8.26 0 0 0-2.44-.92l-.51-.11.09-.51c.09-.49.16-1 .2-1.45a28.49 28.49 0 0 0 0-6.54 13.23 13.23 0 0 0-.58-2.6c0-.12-.08-.24-.12-.37a9.45 9.45 0 0 0-.65-1.47l-.27-.47.48-.26a10.26 10.26 0 0 1 1.54-.71 6.59 6.59 0 0 1 2.19-.42 3.67 3.67 0 0 1 1.62.35c1.39.69 2.18 2.38 2.34 5s.05 6.45-1.51 8.84a4.57 4.57 0 0 1-1.48 1.51v.61zm-31.13-.71.38-.1.14-.04m0 0h0a21.65 21.65 0 0 1-.58-8.4 11.7 11.7 0 0 1 .55-2.41v-.09m.03 10.9a.56.56 0 0 1 0 .42m1.11-13.2a4.4 4.4 0 0 1 .86-.7l.08-.07"/><path class="meat-fish-5" d="M52.29 120.47c-3 1.9-.29 4.81-.29 4.81s-2.49 3.19.66 5.37c2.91 1.65 5.75-1 5.75-1h3.22v-7.93h-3.22s-3.07-3.05-6.12-1.25z"/><path class="meat-fish-3" d="M61.63 129.69v1.15a8.58 8.58 0 0 1 4.63.67c3.52 1.26 10.23 11.05 31.78 11.72-8.69-.44-15.63-10.66-15.63-23.2 0-11.25 5.58-20.64 13-22.77a36.11 36.11 0 0 0-18.5 10.16c-10.07 10.34-8.57 12-11 12.8a13.69 13.69 0 0 1-4.3 1v8.51z"/><path class="meat-fish-3" d="M98.62 96.8c9 0 16.22 10.4 16.22 23.23s-7.26 23.22-16.22 23.22h-.58c-8.69-.44-15.63-10.66-15.63-23.2 0-11.25 5.58-20.64 13-22.77a24.1 24.1 0 0 1 3.21-.48zm-.28 42.07c6.38 0 11.55-8.44 11.55-18.84s-5.17-18.85-11.55-18.85-11.55 8.44-11.55 18.82 5.21 18.87 11.55 18.87z"/><path class="meat-fish-3" d="M109.89 120c0 10.4-5.17 18.84-11.55 18.84S86.79 130.43 86.79 120s5.21-18.82 11.55-18.82 11.55 8.44 11.55 18.82zM99 123.61c1.36 0 2.47-1.52 2.47-3.39s-1.11-3.39-2.47-3.39-2.48 1.52-2.48 3.39 1.1 3.39 2.48 3.39z"/><path class="meat-fish-4" d="M99 116.83c-1.37 0-2.48 1.52-2.48 3.39s1.11 3.39 2.48 3.39 2.47-1.52 2.47-3.39-1.12-3.39-2.47-3.39z"/><path class="meat-fish-6" d="M95.41 97.26c-7.42 2.13-13 11.52-13 22.77 0 12.54 6.94 22.76 15.63 23.2h.58c9 0 16.22-10.4 16.22-23.22S107.58 96.8 98.62 96.8a11.53 11.53 0 0 0-3.21.46z"/><ellipse class="meat-fish-6" cx="98.34" cy="120.03" rx="11.55" ry="18.85"/><path class="meat-fish-6" d="M96.51 120.22c0 1.87 1.11 3.39 2.48 3.39s2.47-1.52 2.47-3.39-1.11-3.39-2.47-3.39-2.48 1.52-2.48 3.39z"/><path class="meat-fish-6" d="M98.62 96.8a24.1 24.1 0 0 0-3.21.46 36.11 36.11 0 0 0-18.5 10.16c-10.07 10.34-8.57 12-11 12.8a13.69 13.69 0 0 1-4.3 1v9.66a8.58 8.58 0 0 1 4.63.67c3.52 1.26 10.23 11.05 31.78 11.72h.58"/><path class="meat-fish-6" d="M61.63 121.76h-3.22s-3.07-3.09-6.12-1.29-.29 4.81-.29 4.81-2.49 3.19.66 5.37c2.91 1.65 5.75-1 5.75-1h3.22m19.28 4.59q.5 1.11 1.08 2.19m-3.76-15.74a33.23 33.23 0 0 0 1.64 10.89"/></svg>