<svg xmlns="http://www.w3.org/2000/svg" id="Layer_1" data-name="Layer 1" viewBox="40.66 39.31 174.72 177.38"><defs><style>.metal-item-3{fill:#fff}.metal-item-4{fill:var(--chakra-colors-primary-400)}.metal-item-5{fill:none;stroke:var(--chakra-colors-primary-800);stroke-linecap:round;stroke-linejoin:round}</style></defs><path d="m142.24 215.77-.17-1.14c2-.31 4.07-.67 6.06-1.11l.25 1.13c-2.02.44-4.08.82-6.14 1.12zm-4.65.56c-2.07.2-4.17.32-6.23.36v-1.16c2-.05 4.11-.17 6.15-.36zm15.34-2.8-.32-1.13c2-.54 3.95-1.16 5.88-1.84l.39 1.1c-1.95.69-3.95 1.34-5.95 1.87zm10.32-3.53-.44-1.08c1.89-.78 3.78-1.64 5.6-2.55l.52 1a74.83 74.83 0 0 1-5.68 2.63zm9.82-4.78-.58-1c1.77-1 3.53-2.09 5.24-3.22l.65 1c-1.73 1.09-3.52 2.19-5.31 3.21zm9.13-6-.69-.94c1.64-1.22 3.26-2.51 4.81-3.84l.76.88a86.449 86.449 0 0 1-4.88 3.93zm-87.37 10.52a91.1 91.1 0 0 1-5.67-2.64l.53-1c1.82.93 3.7 1.8 5.59 2.6zm95.71-17.53-.8-.84c1.49-1.42 2.93-2.9 4.31-4.41l.86.78c-1.4 1.53-2.86 3.03-4.37 4.47zM85.05 204.87c-1.8-1-3.58-2.14-5.3-3.31l.65-1a87.85 87.85 0 0 0 5.23 3.26zM198 184.2l-.9-.73q1.95-2.39 3.74-4.91l1 .67c-1.3 1.7-2.57 3.37-3.84 4.97zM76 198.85a86.683 86.683 0 0 1-4.85-3.93l.77-.88c1.55 1.34 3.16 2.65 4.78 3.87zm128.41-23.5-1-.62q1.65-2.61 3.11-5.33l1 .55c-1 1.83-2.06 3.64-3.17 5.4zm-136.77 16.4c-1.49-1.44-3-2.95-4.33-4.49l.87-.78c1.36 1.52 2.8 3 4.27 4.43zm142-26-1.06-.49c.87-1.85 1.69-3.76 2.44-5.67l1.08.42a93.92 93.92 0 0 1-2.5 5.75zM60.27 183.7c-1.3-1.61-2.56-3.29-3.75-5l1-.67c1.17 1.68 2.41 3.33 3.7 4.92zm153.37-28.09-1.1-.36c.64-1.94 1.22-3.93 1.71-5.92l1.13.28c-.5 2.01-1.09 4.03-1.74 6zM42.16 144.45c-.34-1.82-.63-3.67-.85-5.49l-.08-.68 1.15-.14.08.67c.22 1.81.51 3.64.84 5.43zM42 133.54l-1.16.07a92.66 92.66 0 0 1-.18-6.24h1.17c-.06 2.06 0 4.12.17 6.17zm171-31.56c-.6-2-1.28-3.92-2-5.82l1.08-.42a93.25 93.25 0 0 1 2.06 5.89zM42 122.76l-1.16-.07c.13-2.07.32-4.16.59-6.21l1.15.15c-.33 2.02-.53 4.09-.65 6.13zm167.1-30.85a83.27 83.27 0 0 0-2.74-5.52l1-.55c1 1.83 1.92 3.71 2.77 5.6zM43.23 112.07l-1.15-.21c.38-2 .83-4.09 1.35-6.1l1.13.29c-.51 1.95-.96 4.01-1.33 6.02zM204.06 82.4a93.034 93.034 0 0 0-3.39-5.14l.94-.67c1.21 1.68 2.36 3.43 3.45 5.2zM45.85 101.6l-1.11-.35c.62-2 1.33-4 2.1-5.89l1.08.43c-.76 1.91-1.46 3.86-2.07 5.81zm152-28c-1.27-1.6-2.62-3.17-4-4.67l.86-.79c1.4 1.53 2.77 3.13 4.05 4.75zM49.7 91.6l-1.06-.49c.87-1.88 1.81-3.76 2.8-5.57l1 .56c-.92 1.73-1.85 3.58-2.7 5.44zm141-26c-1.46-1.42-3-2.82-4.54-4.15l.76-.89c1.57 1.34 3.12 2.76 4.6 4.21zM54.83 82l-1-.61c1.08-1.77 2.25-3.51 3.46-5.2l.95.68c-1.18 1.71-2.34 3.43-3.41 5.13zm127.71-23.49c-1.61-1.24-3.3-2.44-5-3.57l.64-1a86.75 86.75 0 0 1 5.09 3.62zM85.4 52.26l-.58-1c1.79-1 3.64-2 5.5-2.94l.51 1c-1.83.95-3.66 1.92-5.43 2.94zm57.92-10.68c-2-.33-4.07-.58-6.1-.76l.1-1.17c2.07.19 4.15.45 6.19.78zM95 47.45l-.46-1.07c1.91-.81 3.87-1.56 5.83-2.24l.38 1.09c-1.9.68-3.84 1.42-5.75 2.22zm37.57-6.93c-2-.07-4.11-.07-6.16 0v-1.16c2.07-.07 4.17-.07 6.24 0zm-27.41 3.34-.32-1.12c2-.57 4-1.08 6.06-1.51l.24 1.14c-1.97.43-3.99.93-5.95 1.49zm16.64-3.07c-2 .18-4.1.43-6.12.75l-.18-1.14c2-.33 4.13-.58 6.2-.76z" style="fill:var(--chakra-colors-primary-800)"/><circle cx="129.89" cy="127.49" r="68.22" style="fill:var(--chakra-colors-primary-50)"/><path class="metal-item-3" d="m106.22 118.76.02.03 1.69 10.59-9.66-4.7 7.95-5.92z"/><path class="metal-item-3" d="m101.94 113.02 4.28 5.74-7.95 5.92-2.16-2.91 5.83-8.75z"/><path class="metal-item-3" d="m98.72 108.69 3.22 4.33-5.83 8.75-3.23-4.33 5.84-8.75z"/><path class="metal-item-3" d="m95.49 104.35 3.23 4.34-5.84 8.75-3.22-4.33 5.83-8.76z"/><path class="metal-item-3" d="m92.26 100.02 3.23 4.33-5.83 8.76-3.23-4.33 5.83-8.76z"/><path class="metal-item-3" d="m89.04 95.69 3.22 4.33-5.83 8.76-3.23-4.34 5.84-8.75zm-5.51-7.4 2.28 3.07-5.83 8.75-4.4-5.9 7.95-5.92z"/><path class="metal-item-3" d="m85.81 91.36 3.23 4.33-5.84 8.75-3.22-4.33 5.83-8.75zM84.8 79.55l-1.29 8.71.02.03-7.95 5.92-8.91-1.15L84.8 79.55z"/><path class="metal-item-4" transform="rotate(-36.67 73.766 83.655)" d="M62.46 80.35h22.61v6.6H62.46z"/><path class="metal-item-5" transform="rotate(-36.67 73.766 83.655)" d="M62.46 80.35h22.61v6.6H62.46z"/><path class="metal-item-5" d="m66.67 93.06 8.91 1.15 4.4 5.9 3.22 4.33 3.23 4.34 3.23 4.33 3.22 4.33 3.23 4.33 2.16 2.91 9.66 4.7-1.69-10.59-.02-.03-4.28-5.74-3.22-4.33-3.23-4.34-3.23-4.33-3.22-4.33-3.23-4.33-2.28-3.07-.02-.03 1.29-8.71m-9.22 14.66 7.95-5.92"/><path class="metal-item-5" d="m86.85 89.8-1.04 1.56-5.83 8.75-.96 1.44m14.28-3.09-1.04 1.56-5.83 8.76-.96 1.44m11.06-7.42-1.04 1.55-5.83 8.76-.97 1.44m11.06-7.42-1.03 1.56-5.84 8.75-.96 1.44m11.06-7.42-1.04 1.56-5.83 8.75-.96 1.45m-5.08-29.09-1.03 1.56-5.84 8.75-.96 1.44m16.03 18.8 7.94-5.92"/><path class="metal-item-3" d="m97.72 145.21.02.03 1.69 10.59-9.66-4.7 7.95-5.92zm-4.28-5.74 4.28 5.74-7.95 5.92-2.16-2.91 5.83-8.75z"/><path class="metal-item-3" d="m90.22 135.14 3.22 4.33-5.83 8.75-3.23-4.33 5.84-8.75z"/><path class="metal-item-3" d="m86.99 130.8 3.23 4.34-5.84 8.75-3.22-4.33 5.83-8.76z"/><path class="metal-item-3" d="m83.76 126.47 3.23 4.33-5.83 8.76-3.23-4.34 5.83-8.75z"/><path class="metal-item-3" d="m80.54 122.14 3.22 4.33-5.83 8.75-3.23-4.33 5.84-8.75zm-5.51-7.4 2.28 3.07-5.83 8.75-4.4-5.9 7.95-5.92z"/><path class="metal-item-3" d="m77.31 117.81 3.23 4.33-5.84 8.75-3.22-4.33 5.83-8.75zm-1-11.81-1.3 8.71.02.03-7.95 5.92-8.91-1.16L76.31 106z"/><path class="metal-item-4" transform="rotate(-36.67 65.268 110.108)" d="M53.96 106.8h22.61v6.6H53.96z"/><path class="metal-item-5" transform="rotate(-36.67 65.268 110.108)" d="M53.96 106.8h22.61v6.6H53.96z"/><path class="metal-item-5" d="m58.17 119.5 8.91 1.16 4.4 5.9 3.22 4.33 3.23 4.33 3.23 4.34 3.22 4.33 3.23 4.33 2.16 2.91 9.66 4.7-1.69-10.59-.02-.03-4.28-5.74-3.22-4.33-3.23-4.34-3.23-4.33-3.22-4.33-3.23-4.33-2.28-3.07-.02-.03 1.3-8.71m-9.23 14.66 7.95-5.92"/><path class="metal-item-5" d="m78.35 116.25-1.04 1.56-5.83 8.75-.96 1.44m14.28-3.09-1.04 1.56-5.83 8.75-.96 1.45m11.06-7.42-1.04 1.55-5.83 8.76-.96 1.44m11.05-7.42-1.03 1.56-5.84 8.75-.96 1.44m11.06-7.42-1.04 1.56-5.83 8.75-.96 1.44m-5.07-29.08-1.04 1.56-5.84 8.75-.96 1.44m16.03 18.8 7.95-5.92"/><path class="metal-item-3" d="M142.19 171.53a2.06 2.06 0 0 1-.48 2l-9.82 10.36a2 2 0 0 1-2 .59l-14-3.29a2 2 0 0 1-1.49-1.4l-4.18-13.65a2 2 0 0 1 .47-2l9.82-10.36a2 2 0 0 1 2-.58l14 3.29a2 2 0 0 1 1.49 1.39zm-7.94-.93a8.22 8.22 0 1 0-9.88 6.12 8.22 8.22 0 0 0 9.88-6.12z"/><path d="M128.13 160.72a8.22 8.22 0 1 1-9.88 6.12 8.22 8.22 0 0 1 9.88-6.12z" style="fill:var(--chakra-colors-primary-50)"/><path class="metal-item-5" d="M142.19 171.53 138 157.88a2 2 0 0 0-1.49-1.39l-14-3.29a2 2 0 0 0-2 .58l-9.82 10.36a2 2 0 0 0-.47 2l4.18 13.65a2 2 0 0 0 1.49 1.4l14 3.29a2 2 0 0 0 2-.59l9.82-10.36a2.06 2.06 0 0 0 .48-2z"/><path class="metal-item-5" d="M128.13 160.72a8.22 8.22 0 1 0 6.12 9.88 8.22 8.22 0 0 0-6.12-9.88z"/><path class="metal-item-4" d="m171.21 185.85.44-1.87a1 1 0 0 1-.36 1.87zm1.65-6.45h-.14l.44-1.88a1 1 0 0 1 .63.87 1 1 0 0 1-.93 1.01zm1.52-6.47h-.14l.44-1.89a1 1 0 0 1 .63.87 1 1 0 0 1-.93 1.02zm1.38-6.45.44-1.87a1 1 0 0 1 .6.88 1 1 0 0 1-1 1zm1.65-6.48h-.13l.44-1.88a1 1 0 0 1 .62.86 1 1 0 0 1-.93 1.02zm1.28-6 .44-1.87a1 1 0 0 1 .62.87 1 1 0 0 1-.95 1zm-14.85-1.6h.62l-.46 2h-.11a1 1 0 0 1 0-1.94zm-1.37 5.89h.6l-.46 2h-.11a1 1 0 0 1-.24 0 1 1 0 0 1 .21-1.93zm-1.72 8.37a1 1 0 0 1-.73-1.16 1 1 0 0 1 .93-.76h.61l-.46 2h-.1a.85.85 0 0 1-.25-.08zm-1.32 4.55h.57l-.46 2h-.11a.88.88 0 0 1-.24 0 1 1 0 0 1-.73-1.16 1 1 0 0 1 .97-.84zm-1.52 6.47h.61l-.46 2H158a.93.93 0 0 1-.24 0 1 1 0 0 1-.73-1.17 1 1 0 0 1 .88-.83z"/><path class="metal-item-4" d="m171.65 184-.44 1.87-14.07.23h-.24l-.18-.06a.85.85 0 0 1 0-.5l.32-1.34h.11l14.16-.22a1 1 0 0 1 .34.02zm1.51-6.48-.44 1.88-14.66.22.46-2 14.26-.22a.92.92 0 0 1 .38.12zm1.52-6.47-.44 1.89-14.66.21.46-2 14.26-.15a.78.78 0 0 1 .38.05zm1.52-6.44-.44 1.87-14.66.21.46-2 14.26-.2a.84.84 0 0 1 .38.12zm1.52-6.47-.44 1.88-14.67.22.46-2 14.27-.22a.72.72 0 0 1 .38.12zm1.41-6.04-.44 1.87-14.69.37.46-2 14.29-.37a1 1 0 0 1 .38.13z"/><path class="metal-item-3" d="m157.14 186.08 14.07-.23-.68 2.89a.91.91 0 0 1-.3.47l-3 2.27a.82.82 0 0 1-.71.16l-7.62-1.79a.85.85 0 0 1-.57-.46l-1.59-3.39.18.06zm15.58-6.68-1.07 4.6a1 1 0 0 0-.38-.07l-14.16.22H157l1.06-4.53zm1.52-6.46-1.08 4.58a.92.92 0 0 0-.38-.07l-14.26.22 1.06-4.52zm1.52-6.46-1.08 4.57a.78.78 0 0 0-.38-.06l-14.3.21 1.06-4.51zm1.52-6.48-1.08 4.59a.84.84 0 0 0-.38-.08l-14.26.2 1.05-4.49zm1.41-6-1 4.17a.72.72 0 0 0-.38-.07l-14.27.22.93-3.95zm1.18-5-.74 3.13a1 1 0 0 0-.38-.08l-14.29.37 1.56-6.67z"/><path class="metal-item-4" d="m193.11 141.29-2.21 9.41a.85.85 0 0 1-1 .63l-.48-.12-.35-.08-7.89-1.85-1.3-.31-13.88-3.25-10-2.35a.86.86 0 0 1-.63-1l2.21-9.4a4.11 4.11 0 0 1 4.94-3.06l10.68 2.51a.84.84 0 0 1 .63 1l-.64 2.72 4.52 1.06.64-2.72a.83.83 0 0 1 1-.63l10.69 2.51a4.11 4.11 0 0 1 3.07 4.93z"/><path class="metal-item-5" d="m189.41 151.21-.35-.08-7.89-1.85-1.3-.31-13.87-3.25-10-2.35a.86.86 0 0 1-.63-1l2.21-9.4a4.11 4.11 0 0 1 4.94-3.06l10.68 2.51a.84.84 0 0 1 .63 1l-.64 2.72 4.52 1.06.64-2.72a.83.83 0 0 1 1-.63l10.69 2.51a4.11 4.11 0 0 1 3.06 4.93l-2.21 9.41a.85.85 0 0 1-1 .63l-.48-.12"/><path class="metal-item-5" d="m166 145.72-1.56 6.67-.46 2-.93 3.95-.46 2-1.05 4.49-.46 2-1.08 4.37-.46 2-1.06 4.52-.46 2-1.02 4.43-.32 1.34a.85.85 0 0 0 0 .5s0 0 0 0l1.63 3.35a.85.85 0 0 0 .57.46l7.62 1.79a.82.82 0 0 0 .71-.16l3-2.27a.91.91 0 0 0 .3-.47l.68-2.89.44-1.87 1.07-4.58.44-1.88 1.08-4.58.44-1.89 1.08-4.57.44-1.87 1.08-4.59.44-1.88 1-4.17.44-1.87.74-3.13"/><path class="metal-item-5" d="M164 154.34h-.11a1 1 0 0 1 0-1.94h.62l14.29-.37a1 1 0 0 1 .38.08 1 1 0 0 1 .62.87 1 1 0 0 1-.95 1h-.11zm-1.39 5.9h-.11a1 1 0 0 1-.24 0 1 1 0 0 1 .21-1.93h.6l14.27-.22a.72.72 0 0 1 .38.07 1 1 0 0 1 .62.86 1 1 0 0 1-.93 1h-.13zm-1.51 6.45h-.1a.85.85 0 0 1-.23 0 1 1 0 0 1-.73-1.16 1 1 0 0 1 .93-.76h.61l14.26-.2a.84.84 0 0 1 .38.08 1 1 0 0 1 .6.88 1 1 0 0 1-1 1h-.08zm-1.52 6.46h-.11a.88.88 0 0 1-.24 0 1 1 0 0 1-.73-1.16 1 1 0 0 1 .93-.76h.57l14.3-.23a.78.78 0 0 1 .38.06 1 1 0 0 1 .63.87 1 1 0 0 1-.93 1h-.14zm-1.52 6.47H158a.93.93 0 0 1-.24 0 1 1 0 0 1-.73-1.17 1 1 0 0 1 .93-.75h.61l14.26-.22a.92.92 0 0 1 .38.07 1 1 0 0 1 .63.87 1 1 0 0 1-.93 1h-.14zm13.15 6.23-14.07.23h-.24l-.18-.06a1 1 0 0 1-.54-1.11 1 1 0 0 1 .82-.73h.11l14.16-.22a1 1 0 0 1 .38.07 1 1 0 0 1-.36 1.87z"/><path class="metal-item-4" d="M159.79 60.38a2.84 2.84 0 0 1 0 5.68h-12.54a2.84 2.84 0 0 1-2.84-2.84 2.87 2.87 0 0 1 .83-2 2.79 2.79 0 0 1 2-.83z"/><path class="metal-item-3" d="M156.64 66.06v43.56l-3.12 8.34-3.12-8.34V66.06h6.24z"/><path class="metal-item-4" d="M136.34 60.38a2.84 2.84 0 0 1 2.84 2.84 2.81 2.81 0 0 1-.83 2 2.87 2.87 0 0 1-2 .83H123.8a2.84 2.84 0 0 1-2-4.85 2.79 2.79 0 0 1 2-.83z"/><path class="metal-item-3" d="M133.2 66.06v43.56l-3.13 8.34-3.12-8.34V66.06h6.25z"/><path class="metal-item-5" d="M127 66.06h-3.2a2.84 2.84 0 0 1-2-4.85 2.79 2.79 0 0 1 2-.83h12.54a2.84 2.84 0 0 1 2.84 2.84 2.81 2.81 0 0 1-.83 2 2.87 2.87 0 0 1-2 .83h-3.15m0 .01v43.56l-3.13 8.34-3.12-8.34V66.06h6.25zm17.2 0h-3.15a2.84 2.84 0 0 1-2.84-2.84 2.87 2.87 0 0 1 .83-2 2.79 2.79 0 0 1 2-.83h12.54a2.84 2.84 0 0 1 0 5.68h-3.15"/><path class="metal-item-5" d="M156.64 66.06v43.56l-3.12 8.34-3.12-8.34V66.06h6.24z"/></svg>