<svg xmlns="http://www.w3.org/2000/svg" id="Layer_1" data-name="Layer 1" viewBox="40.71 40.44 174.59 175.11"><defs><style>.non-alcoholic-drink-1{fill:var(--chakra-colors-primary-800)}.non-alcoholic-drink-3{fill:#fff}.non-alcoholic-drink-4{fill:var(--chakra-colors-primary-400)}.non-alcoholic-drink-5,.non-alcoholic-drink-7{fill:none;stroke:var(--chakra-colors-primary-800)}.non-alcoholic-drink-5{stroke-miterlimit:10}.non-alcoholic-drink-6{fill:var(--chakra-colors-primary-50)}.non-alcoholic-drink-7{stroke-linecap:round;stroke-linejoin:round}</style></defs><path class="non-alcoholic-drink-1" d="M124.33 215.09v-1.14c2 .09 4.05.12 6.05.06v1.15c-1.94.04-4.01.02-6.05-.07zm-4.59-.33c-2-.2-4.08-.47-6.08-.81l.19-1.13c2 .33 4 .6 6 .79zm15.32.16-.09-1.14c2-.16 4-.39 6-.68l.17 1.13c-2 .3-4.05.53-6.08.69zm10.63-1.48-.23-1.13c2-.4 3.95-.87 5.88-1.42l.31 1.11c-1.96.55-3.96 1-5.96 1.44zm10.36-2.79-.37-1.08c1.89-.64 3.8-1.35 5.66-2.13l.44 1.05c-1.88.79-3.78 1.51-5.73 2.16zm9.93-4-.5-1c1.81-.87 3.62-1.82 5.36-2.82l.57 1c-1.77.94-3.6 1.89-5.41 2.78zm-86.28-6.2c-1.69-1.14-3.36-2.35-5-3.6l.7-.9c1.59 1.23 3.24 2.43 4.91 3.55zm95.64 1-.61-1c1.69-1.08 3.36-2.24 5-3.44l.69.91c-1.67 1.18-3.36 2.35-5.08 3.45zm-104.16-7.56a84.604 84.604 0 0 1-4.49-4.19l.8-.81a86.44 86.44 0 0 0 4.44 4.13zM184 195l-.74-.88c1.55-1.28 3.07-2.64 4.52-4l.79.82c-1.47 1.42-3.02 2.8-4.57 4.06zm-120.49-8.63c-1.35-1.5-2.69-3.09-3.94-4.69l.91-.71c1.24 1.59 2.55 3.15 3.89 4.63zm128.3 1.31-.83-.78c1.39-1.47 2.72-3 4-4.56l.89.73c-1.3 1.57-2.66 3.13-4.06 4.61zM56.83 178a86.879 86.879 0 0 1-3.34-5.14l1-.59c1 1.72 2.14 3.43 3.29 5.07zm141.84 1.45-.93-.68c1.19-1.62 2.33-3.31 3.41-5l1 .61c-1.15 1.69-2.28 3.39-3.48 5.04zM51.23 168.83c-1-1.8-1.86-3.66-2.69-5.51l1.05-.47c.81 1.84 1.71 3.66 2.65 5.44zm153.24 1.55-1-.56c1-1.76 1.91-3.57 2.76-5.4l1 .49c-.83 1.85-1.77 3.69-2.76 5.47zM41.08 127.57c0-1.81.08-3.66.2-5.46v-.67l1.14.08v.67c-.12 1.78-.19 3.6-.2 5.39zM42.93 117l-1.13-.14c.25-2 .59-4.06 1-6.06l1.13.23c-.42 1.97-.75 3.97-1 5.97zm170.85 1.49c-.22-2-.51-4-.87-6l1.12-.21c.36 2 .66 4 .89 6.07zM44.91 106.6l-1.1-.29c.51-2 1.08-4 1.73-5.88l1.08.36c-.62 1.91-1.21 3.86-1.71 5.81zM212 108.06c-.46-2-1-3.92-1.61-5.83l1.09-.35c.61 2 1.16 3.94 1.63 5.92zM48.16 96.53l-1.07-.43c.75-1.89 1.57-3.78 2.45-5.63l1 .49c-.83 1.82-1.64 3.69-2.38 5.57zm160.74 1.41a93.83 93.83 0 0 0-2.31-5.59l1-.48c.85 1.85 1.63 3.76 2.35 5.67zm-156.26-11-1-.55c1-1.78 2-3.56 3.12-5.29l1 .62a68.571 68.571 0 0 0-3.12 5.19zm152 1.36c-.93-1.78-1.93-3.55-3-5.26l1-.59c1.07 1.73 2.09 3.53 3 5.33zM58.28 77.93l-.93-.66c1.19-1.66 2.45-3.3 3.75-4.86l.87.73a85.81 85.81 0 0 0-3.69 4.79zm140.86 1.28a89.853 89.853 0 0 0-3.61-4.86l.9-.71c1.27 1.58 2.5 3.24 3.65 4.92zM65 69.72l-.84-.78c1.38-1.5 2.83-3 4.32-4.37l.78.84c-1.5 1.38-2.93 2.82-4.26 4.31zm127.6 1.15c-1.33-1.5-2.74-3-4.18-4.38l.8-.82c1.46 1.43 2.88 2.92 4.23 4.45zM100 46.69l-.38-1.08c1.92-.67 3.9-1.28 5.86-1.81l.3 1.11c-1.91.53-3.86 1.09-5.78 1.78zm57.89.52c-1.89-.7-3.83-1.33-5.76-1.88l.32-1.1c2 .56 3.92 1.2 5.83 1.91zm-47.7-3.37-.19-1.11c2-.43 4-.79 6-1.08l.16 1.13c-1.97.3-3.97.65-5.94 1.06zm37.55.34c-2-.45-4-.83-6-1.15l.26-1.13c2 .32 4 .71 6 1.17zm-27.08-1.9-.1-1.14c2-.17 4.1-.28 6.13-.32v1.15c-1.96.03-4 .14-6 .31zm16.64.15c-2-.21-4-.35-6.05-.42v-1.14c2 .07 4.09.22 6.13.43z"/><circle cx="128.9" cy="127.59" r="67.05" style="fill:var(--chakra-colors-primary-100)"/><path class="non-alcoholic-drink-3" d="M88.23 110.73c.24 7.8.26 16.33.15 25.33h-.15v-15.69H61.05c0-3.7.11-7.28.21-10.71 0 0 1.53 1.38 5.44 1.35s6.1-3.74 11.44-3.93c3.75-.08 7.8-.02 10.09 3.65zm0 25.33h.15q-.09 6.93-.26 14.19l-4 5.88h-4.48l-2-3.21-1.74 3.21h-2.31l-1.75-3.21-2 3.21h-4.5l-4-5.88q-.18-7.26-.26-14.19z"/><path class="non-alcoholic-drink-4" d="M88.23 120.37v15.69H61.09c0-3.33-.07-6.59-.07-9.78v-5.91z"/><path class="non-alcoholic-drink-3" d="M88.12 107.38c0 1.1.08 2.22.11 3.35-2.29-3.67-6.34-3.77-10.09-3.65-5.34.19-7.53 3.89-11.44 3.93s-5.44-1.35-5.44-1.35q0-1.16.09-2.28a2.42 2.42 0 0 1 .68-1.69 47.16 47.16 0 0 1 7.3-6.08h10.8a46.24 46.24 0 0 1 7.3 6.08 2.43 2.43 0 0 1 .69 1.69zm-7.81-16.13v8.36H69.33v-8.36h10.98z"/><path class="non-alcoholic-drink-4" d="M80.31 89.55v1.7h-11v-1.7a2.81 2.81 0 0 1 2.81-2.81h5.38a2.81 2.81 0 0 1 2.81 2.81z"/><path class="non-alcoholic-drink-5" d="M80.31 91.25v8.36h-11V89.55a2.81 2.81 0 0 1 2.81-2.81h5.38a2.81 2.81 0 0 1 2.81 2.81zm-10.98 8.36a47.16 47.16 0 0 0-7.3 6.08 2.42 2.42 0 0 0-.68 1.69q0 1.13-.09 2.28c-.1 3.43-.17 7-.21 10.71v5.91c0 3.19 0 6.45.07 9.78q.07 6.93.26 14.19l4 5.88h4.49l2-3.21 1.75 3.21h1.14"/><path class="non-alcoholic-drink-5" d="M80.13 99.61a46.24 46.24 0 0 1 7.3 6.08 2.43 2.43 0 0 1 .69 1.69c0 1.1.08 2.22.11 3.35.24 7.8.26 16.33.15 25.33q-.09 6.93-.26 14.19l-4 5.88h-4.48l-2-3.21-1.74 3.21h-1.17"/><path class="non-alcoholic-drink-5" d="M61.26 109.66S62.79 111 66.7 111s6.1-3.74 11.44-3.93c3.75-.12 7.8 0 10.09 3.65m0 25.34H61.02v-15.69h27.21v15.69zm-18.9-44.81h10.98"/><path class="non-alcoholic-drink-3" d="M195.32 92.16 195 103c-3.14-.49-2.89-2.64-7.27-2.55-3.8.09-4.83 3.8-8.37 4.83L182 92.16z"/><path class="non-alcoholic-drink-3" d="M177.11 105.54a4 4 0 0 0 .49 0 6.86 6.86 0 0 0 1.77-.26c3.54-1 4.57-4.74 8.37-4.83 4.38-.09 4.13 2.06 7.27 2.55l-1.23 43.87h-25.86l-2.08-46.41a8.29 8.29 0 0 1 1.55.11c1.88.27 4.93 4.78 9.72 4.97zM191.23 118a3.14 3.14 0 1 0-3.14 3.15 3.14 3.14 0 0 0 3.14-3.15zm-.95 17.73a2.18 2.18 0 1 0-2.18 2.18 2.19 2.19 0 0 0 2.18-2.19zm-2.18-27.41a2.18 2.18 0 1 0-2.18 2.18 2.18 2.18 0 0 0 2.18-2.19zm-4.36 20.12a2.18 2.18 0 1 0-2.18 2.18 2.18 2.18 0 0 0 2.18-2.19zm-6 8.25a3.15 3.15 0 1 0-3.14 3.15 3.14 3.14 0 0 0 3.18-3.16zm-1-24a2.18 2.18 0 1 0-2.18 2.18 2.18 2.18 0 0 0 2.26-2.2zm-2.18 13.58a2.18 2.18 0 1 0-2.18 2.18 2.19 2.19 0 0 0 2.26-2.2z"/><path class="non-alcoholic-drink-4" d="m193.78 146.88-.12 4.47c-4.9 4.48-23.58 4.61-25.54 0l-.2-4.47z"/><path class="non-alcoholic-drink-6" d="M188.09 114.85A3.15 3.15 0 1 1 185 118a3.14 3.14 0 0 1 3.09-3.15z"/><circle class="non-alcoholic-drink-6" cx="188.1" cy="135.72" r="2.18"/><circle class="non-alcoholic-drink-6" cx="185.92" cy="108.31" r="2.18"/><path class="non-alcoholic-drink-3" d="m185.92 73.05-3.88 19.11h-2.24l3.94-19.55 2.18.44z"/><circle class="non-alcoholic-drink-6" cx="181.56" cy="128.43" r="2.18"/><path class="non-alcoholic-drink-3" d="m182 92.16-2.67 13.13a6.86 6.86 0 0 1-1.77.26 4 4 0 0 1-.49 0l2.69-13.38z"/><path class="non-alcoholic-drink-3" d="m179.8 92.16-2.69 13.38c-4.79-.19-7.84-4.7-9.72-5a8.29 8.29 0 0 0-1.55-.11l-.37-8.31z"/><path class="non-alcoholic-drink-6" d="M174.64 133.54a3.15 3.15 0 1 1-3.15 3.14 3.14 3.14 0 0 1 3.15-3.14zm0-23.05a2.18 2.18 0 1 1-2.18 2.18 2.18 2.18 0 0 1 2.18-2.18z"/><circle class="non-alcoholic-drink-6" cx="172.46" cy="126.25" r="2.18"/><path class="non-alcoholic-drink-5" d="m165.84 100.47-.37-8.31h29.85L195 103l-1.23 43.87-.12 4.47c-4.9 4.48-23.58 4.61-25.54 0l-.2-4.47z"/><path class="non-alcoholic-drink-5" d="M195 103c-3.14-.49-2.89-2.64-7.27-2.55-3.8.09-4.83 3.8-8.37 4.83a6.86 6.86 0 0 1-1.77.26 4 4 0 0 1-.49 0c-4.79-.19-7.84-4.7-9.72-5a8.29 8.29 0 0 0-1.55-.11m10.99 12.24a2.18 2.18 0 1 1-2.18-2.18 2.19 2.19 0 0 1 2.18 2.18z"/><circle class="non-alcoholic-drink-5" cx="181.56" cy="128.43" r="2.18"/><circle class="non-alcoholic-drink-5" cx="188.1" cy="135.72" r="2.18"/><circle class="non-alcoholic-drink-5" cx="172.46" cy="126.25" r="2.18"/><path class="non-alcoholic-drink-5" d="M191.23 118a3.14 3.14 0 1 1-3.14-3.14 3.14 3.14 0 0 1 3.14 3.14zm-13.45 18.68a3.15 3.15 0 1 1-3.14-3.14 3.14 3.14 0 0 1 3.14 3.14z"/><circle class="non-alcoholic-drink-5" cx="185.92" cy="108.31" r="2.18"/><path class="non-alcoholic-drink-5" d="m179.37 105.29 2.67-13.13 3.88-19.11-2.18-.44-3.94 19.55-2.69 13.38v.01m-9.19 41.33h25.86"/><path class="non-alcoholic-drink-3" d="M110.83 96.47V86a63.4 63.4 0 0 0 28.35 0v10.47s-1 1.66-2.45 1.66h-23.45c-1.46 0-2.45-1.66-2.45-1.66z"/><path class="non-alcoholic-drink-4" d="M110.83 86V68a80.36 80.36 0 0 0 28.35 0v18a63.4 63.4 0 0 1-28.35 0z"/><path class="non-alcoholic-drink-3" d="M113.81 52.62c0 1 5 1.87 11.15 1.87s11.16-.84 11.16-1.87h.09l3 5.34V68a80.36 80.36 0 0 1-28.35 0V58z"/><path class="non-alcoholic-drink-4" d="M124.35 102.08c-10.4.33-11.07-4-11.07-4h23.45s-.67 4.28-11.08 4z"/><path class="non-alcoholic-drink-3" d="M113.81 52.62c0-.95 4.26-1.74 9.77-1.85 0 0 3.13-.09 5.37.11 4.19.27 7.17.95 7.17 1.74 0 1-5 1.87-11.16 1.87s-11.15-.84-11.15-1.87z"/><path class="non-alcoholic-drink-5" d="M113.81 52.62c0-.95 4.26-1.74 9.77-1.85 0 0 3.13-.09 5.37.11 4.19.27 7.17.95 7.17 1.74 0 1-5 1.87-11.16 1.87s-11.15-.84-11.15-1.87z"/><path class="non-alcoholic-drink-5" d="m136.21 52.62 3 5.34v38.51s-1 1.66-2.45 1.66c0 0-.67 4.28-11.08 4h-1.3c-10.4.33-11.07-4-11.07-4-1.46 0-2.45-1.66-2.45-1.66V58l3-5.34"/><path class="non-alcoholic-drink-5" d="M110.83 86a63.4 63.4 0 0 0 28.35 0m-28.35-18a80.36 80.36 0 0 0 28.35 0m-25.9 30.13h23.45"/><path class="non-alcoholic-drink-1" d="M126.61 53.18h-.15l-4.87-.42c-.09 0-.33 0-.35-.19s.17-.2.22-.22l2.54-.78a2.06 2.06 0 0 1 .85-.05l3.61.79c.15 0 .22.09.23.19s-.18.2-.24.22l-1.32.4a1.68 1.68 0 0 1-.52.06zm-4.86-.67 4.73.42a2.13 2.13 0 0 0 .58 0l1.19-.37-3.45-.75a1.76 1.76 0 0 0-.72 0z"/><path class="non-alcoholic-drink-1" d="M125.53 52.59a.88.88 0 0 1-.24 0l-1.93-.17c-.1 0-.12 0 0-.07l1-.31a.81.81 0 0 1 .31 0l1.42.31c.07 0 .07 0 0 .06z"/><path class="non-alcoholic-drink-6" d="M125.27 151.33s1.23 6.52-5.65 6.8a2.26 2.26 0 0 0-.15-.41c.1-1.22.79-4.8 5.8-6.39z"/><path class="non-alcoholic-drink-4" d="M120.28 160.78a7.64 7.64 0 0 1 1.44-.14 8.12 8.12 0 1 1-1.44.14z"/><path class="non-alcoholic-drink-3" d="M121.72 160.64a7.64 7.64 0 0 0-1.44.14 8 8 0 1 0 1.44-.14zm-2.1-2.51c6.88-.28 5.65-6.8 5.65-6.8-5 1.59-5.7 5.17-5.8 6.39a3.33 3.33 0 0 0 0 .42zm17.58-15.65.15 51.41H109.4a3.21 3.21 0 0 1-3.21-3.21v-48.2z"/><path class="non-alcoholic-drink-3" d="M147.29 142.48v48.2a3.21 3.21 0 0 1-3.21 3.21h-6.73l-.15-51.41zm-6.69-12.76 6.69 12.76H137.2l3.4-12.76z"/><path class="non-alcoholic-drink-4" d="M140.6 125.53v4.19h-28.36v-4.19a1.41 1.41 0 0 1 1.42-1.41h25.52a1.42 1.42 0 0 1 1.42 1.41z"/><path class="non-alcoholic-drink-3" d="m140.6 129.72-3.4 12.76h-31.01l6.05-12.76h28.36z"/><path class="non-alcoholic-drink-7" d="M140.6 129.72h-28.36v-4.19a1.41 1.41 0 0 1 1.42-1.41h25.52a1.42 1.42 0 0 1 1.42 1.41zm-34.41 12.76v48.2a3.21 3.21 0 0 0 3.21 3.21h27.95l-.15-51.41h10.09l-6.69-12.76-3.4 12.76h-31l6-12.76"/><path class="non-alcoholic-drink-7" d="M137.35 193.89h6.73a3.21 3.21 0 0 0 3.21-3.21v-48.2m-17.51 26.22a8.06 8.06 0 1 1-9.5-7.92 7.64 7.64 0 0 1 1.44-.14 8.06 8.06 0 0 1 8.06 8.06z"/><path class="non-alcoholic-drink-7" d="M116.78 153.63a11.79 11.79 0 0 1 2.69 4.09 2.26 2.26 0 0 1 .15.41 12.39 12.39 0 0 1 .66 2.65 18.37 18.37 0 0 1 .19 3.37"/><path class="non-alcoholic-drink-7" d="M119.62 158.13h-.16a3.33 3.33 0 0 1 0-.42c.1-1.22.79-4.8 5.8-6.39.01.01 1.24 6.53-5.64 6.81z"/><path style="stroke-miterlimit:10;stroke:var(--chakra-colors-primary-800);fill:var(--chakra-colors-primary-400)" d="M106.19 189.34h41.1"/></svg>