<svg xmlns="http://www.w3.org/2000/svg" id="Layer_1" data-name="Layer 1" viewBox="39.47 40.19 175.42 175.64"><defs><style>.cls-1{fill:#0e4e91}.cls-3{fill:#fff}.cls-4{fill:#2db5ff}.cls-5,.cls-6,.cls-7{fill:none}.cls-5{stroke:#0e4e91;stroke-miterlimit:10}.cls-6,.cls-7{stroke:#2f3a5a;stroke-linecap:round;stroke-linejoin:round}.cls-7{stroke-width:.5px}.cls-8{fill:#2f3a5a}</style></defs><path class="cls-1" d="m150.1 43.18-.28 1.11c-2-.49-4-.92-5.94-1.27l.2-1.13c2 .36 4.03.79 6.02 1.29zm4.44 1.24c2 .59 3.92 1.27 5.81 2l-.41 1.08c-1.88-.72-3.8-1.39-5.73-2zm-15-3.21-.13 1.14c-2-.24-4-.42-6-.52l.06-1.15c1.96.1 4.01.32 6.04.53zm-10.73-.65v1.15c-2 0-4.05.07-6.06.22l-.08-1.15c1.99-.15 4.06-.22 6.11-.22zM191 66.48c1.43 1.45 2.83 3 4.17 4.53l-.87.74c-1.31-1.53-2.7-3-4.11-4.47zm7.08 8.11c1.25 1.62 2.45 3.3 3.58 5l-.95.64a86.829 86.829 0 0 0-3.54-4.94zM87.47 51l.53 1c-1.78 1-3.54 2-5.25 3.07l-.61-1C83.88 53 85.67 52 87.47 51zm116.69 32.5c1 1.75 2 3.57 2.94 5.4l-1 .51c-.91-1.81-1.88-3.6-2.91-5.33zM78.32 56.69l.66.94a91.685 91.685 0 0 0-4.83 3.68l-.73-.89c1.58-1.29 3.23-2.54 4.9-3.73zm130.74 36.39c.81 1.87 1.57 3.8 2.26 5.72l-1.09.38c-.67-1.89-1.43-3.8-2.23-5.64zM69.94 63.46l.77.84a87.12 87.12 0 0 0-4.34 4.26l-.83-.79c1.4-1.49 2.89-2.94 4.4-4.31zm142.8 39.72c.59 2 1.1 4 1.55 5.95l-1.12.26c-.44-2-.95-3.94-1.52-5.87zm-150.3-32 .87.74a75.128 75.128 0 0 0-3.78 4.76L58.6 76c1.22-1.64 2.51-3.26 3.84-4.81zm152.07 74.56c-.37 1.78-.8 3.58-1.28 5.33l-.19.65-1.1-.31.18-.65c.48-1.72.9-3.5 1.27-5.26zm-3.92 10 1.09.37c-.65 1.93-1.39 3.86-2.18 5.75l-1.07-.44c.8-1.83 1.57-3.74 2.16-5.65zM43 120.34c-.19 2-.3 4-.34 6.06h-1.14c0-2 .16-4.11.34-6.15zm163.6 45.26 1 .5c-.89 1.84-1.85 3.67-2.87 5.44l-1-.57c1.01-1.75 1.97-3.55 2.84-5.37zM42.66 130.94c.07 2 .21 4.05.42 6.06l-1.13.12c-.22-2-.36-4.1-.43-6.14zm158.72 43.92 1 .62a80.064 80.064 0 0 1-3.53 5.05l-.92-.69c1.18-1.61 2.36-3.29 3.45-4.98zM43.68 141.5c.32 2 .71 4 1.16 6l-1.11.26c-.47-2-.86-4-1.19-6zm151.38 41.91.88.74c-1.3 1.56-2.7 3.11-4.12 4.58l-.83-.8q2.13-2.19 4.07-4.52zM46 151.86c.56 1.94 1.19 3.88 1.89 5.76l-1.08.4c-.7-1.92-1.35-3.89-1.91-5.85zm141.75 39.26.78.84c-1.5 1.39-3.06 2.75-4.65 4l-.71-.9c1.55-1.23 3.1-2.56 4.57-3.94zm-138.2-29.26c.8 1.84 1.66 3.69 2.58 5.49l-1 .52c-.93-1.81-1.81-3.69-2.61-5.56zm130 36 .67.93a89.41 89.41 0 0 1-5.11 3.44l-.6-1a81.44 81.44 0 0 0 5.02-3.37zM54.32 171.35c1 1.73 2.09 3.46 3.23 5.14l-.95.64a87.51 87.51 0 0 1-3.27-5.21zm86.17 42.17.16 1.14c-2 .27-4.08.48-6.12.61l-.07-1.14c2.01-.13 4.04-.34 6.03-.61zm-56.79-12c1.71 1.05 3.5 2.05 5.28 3l-.53 1c-1.82-.94-3.62-2-5.35-3zm46.21 12.78v1.15c-2.05 0-4.11 0-6.15-.15l.06-1.14c2.04.1 4.08.15 6.09.13zm-36.83-7.8c1.83.84 3.72 1.61 5.61 2.32l-.4 1.07c-1.92-.71-3.83-1.5-5.69-2.34zm26.23 7.26-.13 1.14c-2-.23-4.08-.53-6.09-.91l.21-1.12c1.98.35 4 .65 6.01.88zM103 210.29c1.93.61 3.89 1.15 5.85 1.62l-.26 1.11c-2-.47-4-1-5.93-1.64z"/><circle cx="128.2" cy="128.27" r="67.24" style="fill:#abe7ff"/><path class="cls-3" d="M165 133.2a2.44 2.44 0 1 0 0 4.88h.11v-4.87zm-20.26 44.96v6.72a2.6 2.6 0 0 0 2.61 2.6h24a2.6 2.6 0 0 0 2.6-2.6v-6.72zm0-29.97v8.11h29.25v-8.11h-29.25zm.29 0h28.96l-8.87-7.77H153.9l-8.87 7.77z"/><path class="cls-4" d="M144.74 156.3h29.25v21.86h-29.25zm9.12-24.06v8.18h11.26v-2.34H165a2.44 2.44 0 1 1 0-4.88h.11v-1a1 1 0 0 0-1-1h-9.26a1 1 0 0 0-.99 1.04z"/><path class="cls-5" d="M165.12 140.42v-8.18a1 1 0 0 0-1-1h-9.26a1 1 0 0 0-1 1v8.18m20.13 7.77-8.87-7.77H153.9l-8.87 7.77m28.96 8.11h-29.25m29.25 21.86h-29.25"/><path class="cls-3" d="M150.14 162.92h19.26a.42.42 0 1 0 0-.84h-19.26a.42.42 0 0 0 0 .84zm0 4.32h19.26a.42.42 0 1 0 0-.84h-19.26a.42.42 0 1 0 0 .84zm0 4.32h19.26a.42.42 0 0 0 0-.84h-19.26a.42.42 0 1 0 0 .84z"/><path class="cls-5" d="M165.12 138.08H165a2.44 2.44 0 1 1 0-4.88h.11m-20.37 44.96v6.72a2.6 2.6 0 0 0 2.61 2.6h24a2.6 2.6 0 0 0 2.6-2.6v-36.69h-29.21v30zm26.71-44.97-4.14.67m10.19-1.65-4.06.66m10.08-1.63-4.24.68m4.75 3.91h-4.4m-1.82 0h-4.37m-1.8 0h-3.98m15.86 4.87-4.24-.74m-1.78-.25-4.06-.67m-1.99-.36-3.79-.6"/><path class="cls-3" d="M154.77 86.65c.86.23 1.81.42 2.85.59v10.37a2 2 0 0 0 4.08 0v-.85a1.87 1.87 0 0 1 1.87-1.87 1.83 1.83 0 0 1 1.31.55 1.87 1.87 0 0 1 .55 1.32v7.14a2.2 2.2 0 0 0 4.4 0V93.23a1.87 1.87 0 0 1 3.17-1.32 1.85 1.85 0 0 1 .55 1.32v1.08a4.62 4.62 0 0 0 4.62 4.62v10.87c-4.52 6.24-24.63 5-27.75 0v-26c.02 1.14 1.69 2.14 4.35 2.85z"/><path class="cls-4" d="M154.77 81v5.64c-2.66-.71-4.33-1.71-4.33-2.82s1.67-2.1 4.33-2.82zm23.42 2.83c0 2.15-6.21 3.89-13.87 3.89a45.34 45.34 0 0 1-6.7-.48c-1-.17-2-.36-2.85-.59V81a38.83 38.83 0 0 1 9.55-1 38.43 38.43 0 0 1 9.67 1.1c2.59.66 4.2 1.64 4.2 2.73z"/><path class="cls-4" d="M164.32 87.72c7.66 0 13.87-1.74 13.87-3.89v15.1a4.62 4.62 0 0 1-4.62-4.62v-1.08a1.88 1.88 0 0 0-1.87-1.87 1.87 1.87 0 0 0-1.87 1.87v10.67a2.2 2.2 0 0 1-4.4 0v-7.14a1.87 1.87 0 0 0-.55-1.32 1.83 1.83 0 0 0-1.31-.55 1.87 1.87 0 0 0-1.87 1.87v.85a2 2 0 0 1-4.08 0V87.24a45.34 45.34 0 0 0 6.7.48z"/><path class="cls-6" d="M178.19 83.83c0 2.15-6.21 3.89-13.87 3.89a45.34 45.34 0 0 1-6.7-.48c-1-.17-2-.36-2.85-.59-2.66-.71-4.33-1.71-4.33-2.82s1.67-2.11 4.33-2.82a38.83 38.83 0 0 1 9.55-1.01 38.43 38.43 0 0 1 9.67 1.1c2.59.66 4.2 1.64 4.2 2.73z"/><path class="cls-6" d="M150.44 83.83v26c3.12 5 23.23 6.24 27.75 0v-26"/><path class="cls-6" d="M154.77 90.85V76.42a9.62 9.62 0 1 1 19.23 0V81"/><path class="cls-6" d="M157.62 87.24v10.37a2 2 0 0 0 4.08 0v-.85a1.87 1.87 0 0 1 1.87-1.87 1.83 1.83 0 0 1 1.31.55 1.87 1.87 0 0 1 .55 1.32v7.14a2.2 2.2 0 0 0 4.4 0V93.23a1.87 1.87 0 0 1 3.17-1.32 1.85 1.85 0 0 1 .55 1.32v1.08a4.62 4.62 0 0 0 4.62 4.62"/><path class="cls-7" d="m102.08 47.84-1.78-1.07 1.13-1.77 11.37 6.71 7.52 4.43-1.35 1.91-7.29-4.41-5.65-3.41-2.1-1.27-1.85-1.12z"/><path class="cls-4" d="m117.35 57.26-11.89 20.4-5.71-3.47 11.88-20.47 5.72 3.54z"/><path class="cls-3" d="M101.39 95.46V93h7.17v.3H113v3s-1.11-.11-1.79 1.37.75 4.16 2.49 8.87 3.62 14.89 3.62 14.89h-9.57a38.93 38.93 0 0 0-.21-14.23 48.85 48.85 0 0 0-1.46-5.34l-.07-.19a8.88 8.88 0 0 0-4.65-5.47z"/><path class="cls-4" d="M116.13 92.5v4.64h-3.1V92.5h3.1zm-.91 31.64h.36a.48.48 0 0 1 .47.49V126a.47.47 0 0 1-.47.48h-2a.47.47 0 0 1-.48-.48v-1.36a.48.48 0 0 1 .48-.49h1.65zm-3.41-34.95v-.41a.58.58 0 0 1 .57-.58H114a.58.58 0 0 1 .58.58v2.38a.58.58 0 0 1-.58.58h-1.62a.58.58 0 0 1-.57-.58zm0-4.38v-.41a.58.58 0 0 1 .57-.58H114a.58.58 0 0 1 .58.58v2.38a.57.57 0 0 1-.58.57h-1.62a.57.57 0 0 1-.57-.57v-2zm-.18-31.09L99.75 74.19l-5.77-3.5.04-.06 11.99-20.37 5.62 3.46zm-1.21 70.42h.34a.49.49 0 0 1 .49.49V126a.48.48 0 0 1-.49.48h-2a.47.47 0 0 1-.48-.48v-1.36a.48.48 0 0 1 .48-.49h1.66z"/><path class="cls-3" d="M108.56 91.44v1.55h-7.17V88.2h7.17v3.24z"/><path class="cls-3" d="m87.49 86.23 3.69-5.63 2.51 1.4-2.51 4.23h1.57L94.91 83s6.41-3.29 8.55-3.76a24.72 24.72 0 0 1 5.1-.36v2.92h-1.45v-1h-2.68a14 14 0 0 0-3.34.92s1 1.87 2.51 1.87h5v4.61H94.25v1.4h-.06l-7.29 1.51v-4.84z"/><path class="cls-4" d="M107.57 107.18a13.44 13.44 0 0 0-5.71-2.06.79.79 0 0 1-.75-.78.77.77 0 0 1 .5-.72l4.51-1.78a48.85 48.85 0 0 1 1.45 5.34zm-3.64-58.22 2.08 1.3-11.99 20.37-.04.06-3.69-2.24 11.79-20.61 1.85 1.12z"/><path class="cls-3" d="m99.75 74.19 5.71 3.47h-7.47l-5.21-3.15-2.49-6.06 3.69 2.24 5.77 3.5z"/><path class="cls-4" d="M98.9 93.91h2.49v1.55H98.9zm2.49-.92v.92H98.9v-2.8h2.49v1.88zm-2.49-3.48h2.49v1.6H98.9zm0-1.31h2.49v1.31H98.9z"/><path class="cls-3" d="M98.9 95.46v6a2.28 2.28 0 0 1-2.34 2.29h-.21c-1.57 0-2.65.34-1.77-.8a4.9 4.9 0 0 0 1.82-5.84v-8.94h2.5v7.26zm-.91-17.8-.48.89-2.2.52-1.62 2.97-2.52-1.44 1.61-2.94-.44-2.22.44-.93 5.21 3.15zm-3.8 11.96v2.17l-7.29 1.5v-2.18l7.29-1.49z"/><path class="cls-4" d="M86.9 93.29v.4h-5.26v-3.03h5.26v2.63zm-5.26-5.59h5.26v2.96h-5.26zm5.26-1.43v1.43h-5.26v-2.48h5.26v1.05z"/><path class="cls-3" d="M81.64 90.66v1.36h-.98v-5.6h.98v4.24z"/><path class="cls-3" d="M79.29 88.15h1.38V90h-1.38z"/><path class="cls-7" d="m90.29 68.45 3.69 2.24 5.77 3.5 5.71 3.47 11.89-20.4-5.72-3.54-5.62-3.46-2.08-1.3-1.85-1.14v.02L90.29 68.45zm0 0 2.49 6.06 5.21 3.15h7.47"/><path class="cls-7" d="m92.78 74.51-.44.93.44 2.22-1.61 2.94 2.52 1.44 1.62-2.97 2.2-.52.48-.89m-6.82 2.94-3.68 5.63-.03.04"/><path class="cls-7" d="m93.69 82-2.51 4.23h1.57L94.91 83s6.41-3.29 8.55-3.76a24.72 24.72 0 0 1 5.1-.36v2.92h-1.45v-1h-2.68a14 14 0 0 0-3.34.92s1 1.87 2.51 1.87h5v4.61H94.25v1.4h-.06l-7.29 1.51v-4.84h.59"/><path class="cls-7" d="m86.9 93.29 7.29-1.5v-2.42m-7.29 1.74v1.71m14.49-4.62v8a8.88 8.88 0 0 1 4.65 5.47l.07.19a48.85 48.85 0 0 1 1.46 5.34 38.93 38.93 0 0 1 .21 14.23h9.57s-1.88-10.17-3.62-14.89-3.18-7.39-2.49-8.87 1.76-1.39 1.76-1.39v-3h-4.47V88.2m-7.14 4.79h7.17"/><path class="cls-7" d="M113.03 93.29v-.79h3.1v4.64h-3.1v-.86m-1.22-10.01v.51a.57.57 0 0 0 .57.57H114a.57.57 0 0 0 .58-.57V84.4a.58.58 0 0 0-.58-.58h-1.62a.58.58 0 0 0-.57.58v1.87zm-2.94-2.45h1.24a.42.42 0 0 1 .42.41v2.41a.42.42 0 0 1-.42.42h-1.55m1.97-2.25h1.48m-.2 3.97v2.38a.58.58 0 0 0 .57.58H114a.58.58 0 0 0 .58-.58v-2.38a.58.58 0 0 0-.58-.58h-1.62a.58.58 0 0 0-.57.58zm-2.94-.58h1.24a.41.41 0 0 1 .42.41V91a.42.42 0 0 1-.42.41h-1.55m1.97-2.22h1.48m-1.48-2.92h1.48M96.4 88.2v8.94a4.9 4.9 0 0 1-1.82 5.86c-.88 1.14.2.76 1.77.8h.21a2.28 2.28 0 0 0 2.34-2.29V88.2m2.49 5.71H98.9m0 1.55h2.75m-2.75-5.95h2.49m-2.49 1.6h2.49m-14.49-5.2v-.69h-5.26v8.47h5.26v-.86M80.66 90v2.02h.98m0-5.6h-.98v1.73m-1.37 0h1.38V90h-1.38zm2.35-.45h5.26m-5.26 2.96h5.26m22.1 33.48h-.22a.48.48 0 0 0-.48.49V126a.47.47 0 0 0 .48.48h2a.48.48 0 0 0 .49-.48v-1.36a.49.49 0 0 0-.49-.49H109zm2.25-2.47v1a.35.35 0 0 1-.34.34h-2a.35.35 0 0 1-.34-.34v-1.31m1.85 1.7v1.25m-1.44-1.25v1.08m4.8 0h-.21a.48.48 0 0 0-.48.49V126a.47.47 0 0 0 .48.48h2a.47.47 0 0 0 .47-.48v-1.36a.48.48 0 0 0-.47-.49h-1.8zm2.27-2.47v1a.34.34 0 0 1-.34.34h-2a.35.35 0 0 1-.35-.34v-1.31m1.86 1.7v1.25m-1.44-1.25v1.08m-7.67-22.3-4.51 1.78a.77.77 0 0 0-.5.72.79.79 0 0 0 .75.78 13.44 13.44 0 0 1 5.71 2.06"/><path class="cls-1" d="M41 75.41 75 87.7 40.79 76.08a.36.36 0 0 1-.23-.45.37.37 0 0 1 .44-.23zm34.09 16.65-34.18 14.49L74.8 91.41a.37.37 0 0 1 .48.18.36.36 0 0 1-.18.47z"/><path class="cls-1" d="M40.82 100.61 75 92l-34 9.31a.36.36 0 1 1-.19-.69zm-.33-4.48 34.46-5-34.35 5.71a.37.37 0 0 1-.42-.3.36.36 0 0 1 .3-.41zm-.38-4.03L75 90.66l-34.8 2.16a.36.36 0 1 1 0-.72zm.45-4.31L75 89.46l-34.42-.95a.36.36 0 0 1 0-.72zM41 84l34 4.8-34.14-4.09a.35.35 0 0 1-.31-.4A.35.35 0 0 1 41 84zm0-3.75 34 7.9L40.83 81a.37.37 0 0 1-.28-.43.36.36 0 0 1 .43-.27z"/><path class="cls-7" d="m106.06 50.18-.03.05-.02.03-11.99 20.37m17.66-16.99-.05.08-11.88 20.47"/><path class="cls-8" d="M97.53 166.82c-.08 0-.22.07-.32.28v1.07c0 .34 0 .36.43.4v.2h-1.49v-.2c.3 0 .33-.06.33-.4v-1.23c0-.28 0-.31-.28-.37v-.17a5.39 5.39 0 0 0 1-.22v.61c.25-.38.45-.59.68-.59a.34.34 0 0 1 .37.34.57.57 0 0 1-.25.46.16.16 0 0 1-.17 0c-.13-.09-.2-.18-.3-.18z"/><path class="cls-4" d="M88.72 146.33c4.27 0 7.73 2 7.73 4.38s-3.46 4.38-7.73 4.38-7.74-2-7.74-4.38 3.46-4.38 7.74-4.38z"/><path class="cls-8" d="M94.77 166.43c-.22 0-.41.26-.45.71H95c.08 0 .12 0 .12-.11.01-.31-.12-.6-.35-.6zm-1.18 1.18a1.47 1.47 0 0 1 .42-1 1.27 1.27 0 0 1 .88-.39.92.92 0 0 1 .93.91c0 .1 0 .2-.08.21s-.9.07-1.44.09c0 .6.35.9.76.9a.93.93 0 0 0 .64-.25l.1.15a1.3 1.3 0 0 1-1 .62 1.14 1.14 0 0 1-1.21-1.24z"/><path class="cls-3" d="M93.47 132.16V137a.52.52 0 0 1-.52.52h-9.17a.52.52 0 0 1-.53-.52v-4.84a.53.53 0 0 1 .53-.52H93a.52.52 0 0 1 .47.52z"/><path class="cls-8" d="m93.3 160 .67-.45h.07v.88h.56a.23.23 0 0 1 0 .28H94v1.38c0 .43.18.49.28.49a.66.66 0 0 0 .27-.06l.06.2-.42.21a.77.77 0 0 1-.19.07.62.62 0 0 1-.69-.71v-1.57h-.36v-.07l.16-.21h.23z"/><path class="cls-3" d="M84.59 137.52h7.8v1.24h-7.8zm7.62 30.61c0 .39 0 .41-.25.44v.2h-.31v-.2c-.23 0-.25 0-.25-.4v-1.36a.69.69 0 0 1 .42-.17c.19 0 .39.13.39.53zm-.86-7.31c.2 0 .39.13.39.53v1c0 .39 0 .41-.26.44v.2h-.3v-.2c-.23 0-.25-.05-.25-.39V161l.1-.07a.57.57 0 0 1 .32-.11z"/><path class="cls-8" d="M92 168.57c.24 0 .25 0 .25-.44v-1c0-.4-.2-.53-.39-.53a.69.69 0 0 0-.42.17v1.36c0 .35 0 .37.25.4v.2h-1.35v-.2c.3 0 .33 0 .33-.42V167c0-.34 0-.35-.29-.41v-.17a7 7 0 0 0 1-.22v.4l.36-.24a.76.76 0 0 1 .44-.14c.45 0 .74.33.74.9v1.06c0 .36 0 .37.3.41v.2H92zm-.26-7.22c0-.4-.19-.53-.39-.53a.57.57 0 0 0-.32.1l-.1-.16.35-.23a.73.73 0 0 1 .44-.15c.46 0 .75.33.75.91v1.06c0 .35 0 .36.3.4v.2h-1.29v-.2c.24 0 .26-.05.26-.44z"/><path class="cls-8" d="M90.2 162.33v-1.17c0-.34 0-.35-.3-.4v-.18a5.35 5.35 0 0 0 1-.22v.41l.1.16-.1.07v1.37c0 .34 0 .36.25.39v.2h-1.28v-.2c.3-.06.33-.06.33-.43z"/><path class="cls-3" d="M90.2 161.16v1.17c0 .37 0 .37-.33.42v.2h-.26v-.2c-.33 0-.34-.07-.34-.46v-1.53h.63c.25.05.3.06.3.4z"/><path class="cls-8" d="M89.27 162.29c0 .39 0 .42.34.46v.2H88.2v-.2c.31 0 .34-.06.34-.46v-1.09c0-.38 0-.41-.3-.44v-.18a5.36 5.36 0 0 0 1-.21v1.92zm-.41-3.06a.4.4 0 0 1 .41.4.4.4 0 0 1-.41.4.42.42 0 0 1-.41-.4.41.41 0 0 1 .41-.4z"/><path class="cls-3" d="M88.61 166.64c.2 0 .4.13.4.53v1c0 .39 0 .41-.26.44v.2h-.3v-.2c-.24 0-.25 0-.25-.4v-1.36l.1-.08a.64.64 0 0 1 .31-.13z"/><path class="cls-8" d="M89 167.17c0-.4-.2-.53-.4-.53a.64.64 0 0 0-.31.09l-.1-.15.35-.24a.78.78 0 0 1 .44-.14c.46 0 .74.33.74.9v1.06c0 .36 0 .37.31.41v.2h-1.28v-.2c.24 0 .26 0 .26-.44z"/><path class="cls-8" d="M88.2 166.81v1.36c0 .35 0 .37.25.4v.2h-1.31v-.2c.3 0 .33 0 .33-.42V167c0-.34 0-.35-.3-.41v-.17a7.4 7.4 0 0 0 1-.22v.4l.1.15z"/><path class="cls-3" d="M86.88 168.77v-.2c-.33 0-.35-.08-.35-.46v-1.54h.64c.25.06.3.07.3.41v1.17c0 .37 0 .37-.33.42v.2z"/><path class="cls-8" d="M85.81 167c0-.38 0-.41-.3-.44v-.18a7.05 7.05 0 0 0 1-.21v1.92c0 .38 0 .42.35.46v.2h-1.39v-.2c.3 0 .34-.06.34-.46zm.32-1.95a.4.4 0 0 1 .41.4.4.4 0 0 1-.41.4.42.42 0 0 1-.41-.4.41.41 0 0 1 .41-.4zm.77-3.93c0-.3-.11-.46-.35-.46a.27.27 0 0 0-.23.12 1 1 0 0 0-.13.37.22.22 0 0 1-.24.19.34.34 0 0 1-.33-.3c0-.1.06-.17.19-.26a2.92 2.92 0 0 1 .9-.4 1 1 0 0 1 .58.16.77.77 0 0 1 .31.69v1c0 .27.09.33.18.33a.39.39 0 0 0 .18 0l.06.19-.6.32a.59.59 0 0 1-.36-.11.68.68 0 0 1-.14-.22 1.84 1.84 0 0 1-.6.33.73.73 0 0 1-.76-.72c0-.3.13-.44.43-.55a5.55 5.55 0 0 0 .91-.37zm0 1.37v-.89l-.32.17a.41.41 0 0 0-.27.38.38.38 0 0 0 .34.43.34.34 0 0 0 .25-.09z"/><path class="cls-3" d="M83.74 166.62c.22 0 .41.15.41.58v1c0 .3 0 .34-.27.38v.2h-.26v-.2c-.26 0-.29-.08-.29-.38v-1.41a.46.46 0 0 1 .1-.07.55.55 0 0 1 .31-.1z"/><path class="cls-8" d="M84.15 167.2c0-.43-.19-.58-.41-.58a.55.55 0 0 0-.31.09l-.1-.15a1.18 1.18 0 0 1 .76-.36c.49 0 .79.32.79.94v1c0 .36 0 .37.31.41v.2h-1.31v-.2c.25 0 .27-.08.27-.38z"/><path class="cls-8" d="M82.28 168.57c.28 0 .33 0 .33-.41v-2.6c0-.26 0-.32-.35-.37V165a6.13 6.13 0 0 0 1.07-.19v1.74l.1.15a.46.46 0 0 0-.1.07v1.41c0 .3 0 .34.29.38v.2h-1.34zm1.21-8.82v1.45a.81.81 0 0 0 .3.05c.26 0 .68-.15.68-.89s-.34-.84-.71-.84a.41.41 0 0 0-.22 0 .23.23 0 0 0-.05.23zm-.78 2.45v-2.15c0-.48-.06-.53-.48-.56v-.2h1.6a1.86 1.86 0 0 1 1 .23.94.94 0 0 1 .44.84 1.19 1.19 0 0 1-1.27 1.17h-.17l-.33-.09v.77c0 .47 0 .49.53.54v.25h-1.8v-.21c.42-.11.48-.12.48-.59z"/><path class="cls-3" d="M88.86 160a.4.4 0 0 0 .41-.4.4.4 0 0 0-.41-.4.41.41 0 0 0-.41.4.42.42 0 0 0 .41.4zm-2.73 5.82a.4.4 0 0 0 .41-.4.4.4 0 0 0-.41-.4.41.41 0 0 0-.41.4.42.42 0 0 0 .41.43zM84 161.53a1.19 1.19 0 0 0 1.29-1.17.94.94 0 0 0-.44-.84 1.86 1.86 0 0 0-1-.23h-1.6v.2c.42 0 .48.08.48.56v2.15c0 .47-.06.48-.48.54v.26H84v-.21c-.49-.05-.53-.07-.53-.54v-.77l.33.09zm5.28-.77v-.39a5.36 5.36 0 0 1-1 .21v.18c.27 0 .3.06.3.44v1.09c0 .4 0 .42-.34.46v.2h4.57v-.2c-.27 0-.3-.05-.3-.4v-1.06c0-.58-.29-.91-.75-.91a.73.73 0 0 0-.44.15l-.35.23v-.41a5.35 5.35 0 0 1-1 .22v.18zm-4.39 6.38c0-.62-.3-.94-.79-.94a1.18 1.18 0 0 0-.76.36v-1.74a6.13 6.13 0 0 1-1.07.19v.18c.31.05.35.11.35.37v2.6c0 .36 0 .38-.33.41v.2h2.91v-.2c-.27 0-.31 0-.31-.41zm9.13-.55a1.47 1.47 0 0 0-.42 1 1.14 1.14 0 0 0 1.18 1.22 1.3 1.3 0 0 0 1-.62l-.1-.15a.93.93 0 0 1-.64.25c-.41 0-.74-.3-.76-.9.54 0 1.34-.06 1.44-.09s.08-.11.08-.21a.92.92 0 0 0-.93-.91 1.27 1.27 0 0 0-.87.41zm-7.46-5.93c.24 0 .35.16.35.46v.25a5.55 5.55 0 0 1-.91.37c-.3.11-.43.25-.43.55a.73.73 0 0 0 .76.72 1.84 1.84 0 0 0 .6-.33.68.68 0 0 0 .14.22.59.59 0 0 0 .36.11l.6-.32-.03-.19a.39.39 0 0 1-.18 0c-.09 0-.18-.06-.18-.33v-1a.77.77 0 0 0-.31-.69 1 1 0 0 0-.58-.16 2.92 2.92 0 0 0-.9.4c-.13.09-.19.16-.19.26a.34.34 0 0 0 .33.3.22.22 0 0 0 .24-.19 1 1 0 0 1 .13-.37.27.27 0 0 1 .19-.06zm9.65 5.74v.17c.26.06.28.09.28.37v1.23c0 .34 0 .37-.33.4v.2h1.49v-.2c-.39 0-.43-.06-.43-.4v-1.07c.1-.21.24-.28.32-.28s.17.09.27.17a.16.16 0 0 0 .17 0 .57.57 0 0 0 .29-.48.34.34 0 0 0-.37-.34c-.23 0-.43.21-.68.59v-.61a5.39 5.39 0 0 1-1.02.25zm-9 0v.17h-.64v-.38a7.05 7.05 0 0 1-1 .21v.18c.27 0 .3.06.3.44v1.09c0 .4 0 .42-.34.46v.2H90v-.2c-.27 0-.31 0-.31-.41v-1.06c0-.57-.28-.9-.74-.9a.78.78 0 0 0-.44.14l-.35.24v-.4a7.4 7.4 0 0 1-.99.22zm-5.94 2.15c-.5 0-.56-.07-.56-.54v-2.65H81c.33 0 .38 0 .47.17a1.79 1.79 0 0 1 .25.55h.21c0-.36 0-.86-.06-1.1h-.16a.36.36 0 0 1-.32.15h-2.22c-.17 0-.23 0-.32-.15h-.16c0 .28-.06.71-.09 1.13h.21a2 2 0 0 1 .23-.54c.11-.13.19-.19.51-.19h.35V168c0 .47-.06.51-.53.54v.22h1.86zm11.71-.39v-1.06c0-.57-.29-.9-.74-.9a.76.76 0 0 0-.44.14l-.36.24v-.4a7 7 0 0 1-1 .22v.17c.25.06.29.07.29.41v1.17c0 .37 0 .37-.33.42v.2h2.9v-.2c-.3-.04-.36-.05-.36-.41zm1-8.63-.67.45v.47h-.23l-.16.21v.07h.36v1.57a.62.62 0 0 0 .72.7.77.77 0 0 0 .23-.06l.42-.21-.06-.2a.66.66 0 0 1-.27.06c-.1 0-.28-.06-.28-.49v-1.38h.51a.23.23 0 0 0 0-.28H94v-.88zM105 139.28v47.78a1.32 1.32 0 0 1-1.07 1.31c-5.2 1-25.48 1.06-30.5 0a1.32 1.32 0 0 1-1.06-1.3v-47.79a.51.51 0 0 1 .51-.52h31.61a.51.51 0 0 1 .51.52zm-8.58 11.43c0-2.42-3.46-4.38-7.73-4.38s-7.74 2-7.74 4.38 3.46 4.38 7.74 4.38 7.76-1.96 7.76-4.38z"/><path class="cls-8" d="M81.23 168.77h-1.86v-.22c.47 0 .53-.07.53-.54v-2.65h-.35c-.32 0-.4.06-.51.19a2 2 0 0 0-.23.54h-.21c0-.42.07-.85.09-1.13h.16c.09.14.15.15.32.15h2.26a.36.36 0 0 0 .32-.15h.16c0 .24 0 .74.06 1.1h-.21a1.79 1.79 0 0 0-.25-.55c-.09-.12-.14-.17-.47-.17h-.37V168c0 .47.06.51.56.54z"/><path class="cls-5" d="M92.39 138.76h12.13a.51.51 0 0 1 .51.52v47.78a1.32 1.32 0 0 1-1.07 1.31c-5.2 1-25.48 1.06-30.5 0a1.32 1.32 0 0 1-1.06-1.3v-47.79a.51.51 0 0 1 .51-.52h19.48zm-7.8-1.24h-.81a.52.52 0 0 1-.53-.52v-4.84a.53.53 0 0 1 .53-.52H93a.52.52 0 0 1 .52.52V137a.52.52 0 0 1-.52.52h-8.41zm0 0v1.24m7.8-1.24v1.24"/><path class="cls-5" d="M96.45 150.71c0 2.42-3.46 4.38-7.73 4.38s-7.74-2-7.74-4.38 3.46-4.38 7.74-4.38 7.73 1.96 7.73 4.38zm-13.2 22.24h10.22m-12.48 2.82h14.75"/></svg>