<svg xmlns="http://www.w3.org/2000/svg" id="Layer_1" data-name="Layer 1" viewBox="41.6 42.26 172.63 171.39"><defs><style>.piping-3{fill:var(--chakra-colors-primary-50)}.piping-4{fill:var(--chakra-colors-primary-400)}.piping-5{fill:#fff}.piping-6{fill:none;stroke:var(--chakra-colors-primary-800);stroke-miterlimit:10}</style></defs><path d="m173.87 200.41-.6-.95c1.69-1.07 3.36-2.2 5-3.37l.67.92c-1.66 1.18-3.36 2.32-5.07 3.4zm-3.87 2.32c-1.76 1-3.58 1.93-5.4 2.78l-.48-1c1.79-.85 3.58-1.76 5.33-2.74zm12.55-8.51-.72-.88c1.55-1.26 3.06-2.59 4.51-4l.78.83a82.615 82.615 0 0 1-4.62 4.05zm7.81-7.21-.82-.78a94.64 94.64 0 0 0 4-4.48l.87.73c-1.35 1.52-2.7 3.08-4.1 4.52zm6.86-8.11-.91-.67c1.17-1.59 2.32-3.25 3.4-4.93l1 .61c-1.18 1.7-2.35 3.38-3.54 4.99zM203 170l-1-.56c1-1.73 1.92-3.52 2.77-5.32l1 .49c-.87 1.83-1.77 3.64-2.77 5.39zm-73.67 43.65c-2 0-4.06 0-6.08-.12l.07-1.13c2 .11 4 .15 6 .13zm78.33-53.2-1-.43c.77-1.84 1.47-3.73 2.1-5.61l1.08.35c-.73 1.92-1.45 3.84-2.22 5.7zm-88.94 52.71c-2-.22-4-.51-6-.87l.2-1.11c2 .35 4 .64 5.94.85zm92.39-62.74-1.09-.3c.53-1.92 1-3.88 1.4-5.84l1.11.23c-.44 1.99-.92 3.98-1.46 5.92zm-102.87 61c-2-.46-3.93-1-5.86-1.6l.34-1.08c1.91.58 3.86 1.12 5.78 1.56zM213.29 140l-1.12-.17c.3-2 .52-4 .68-6l1.15.17c-.18 2-.42 4-.71 6zM98 208.33c-1.89-.7-3.78-1.47-5.62-2.3l.47-1c1.82.82 3.69 1.58 5.55 2.27zm116.2-78.89h-1.14c.05-2 0-4-.06-6h1.13c.1 1.94.12 3.98.07 6zM88.31 204.05a72.78 72.78 0 0 1-5.3-3l.59-1c1.7 1 3.45 2 5.22 2.93zm125.5-85.24-1.12.11c-.2-2-.47-4-.81-5.94l1.12-.2c.34 2 .61 4.02.81 6.03zm-157 57.41c-1-1.48-2-3-2.91-4.55l-.34-.58 1-.57.34.57c.9 1.52 1.88 3 2.88 4.5zm-4.46-9.63-1 .52c-.93-1.79-1.81-3.63-2.61-5.49l1-.45a74.3 74.3 0 0 0 2.56 5.42zM192.1 71.35c-1.31-1.5-2.69-3-4.09-4.38l.79-.8c1.42 1.42 2.82 2.92 4.15 4.44zM48.05 157l-1.06.4c-.71-1.9-1.35-3.83-1.92-5.77l1.08-.31c.56 1.9 1.2 3.82 1.9 5.68zm136.7-93.11c-1.48-1.33-3-2.62-4.61-3.84l.7-.89a86.45 86.45 0 0 1 4.66 3.89zM45 147l-1.11.26q-.69-3-1.19-6l1.12-.19c.33 1.99.72 3.93 1.18 5.93zm131.53-89.6c-1.64-1.13-3.33-2.22-5-3.24l.58-1c1.73 1 3.44 2.14 5.1 3.28zM43.22 136.63l-1.13.12c-.22-2-.37-4-.44-6.07h1.13c.07 1.96.22 3.97.44 5.95zM167.57 52c-1.77-.93-3.58-1.8-5.4-2.6l.46-1c1.84.8 3.69 1.69 5.47 2.63zM42.73 126.15H41.6c0-2 .14-4.06.31-6.07l1.12.1a84.3 84.3 0 0 0-.3 5.97zM158 47.67c-1.86-.69-3.76-1.34-5.67-1.91l.33-1.09c1.93.57 3.86 1.23 5.75 1.94zm-114.47 68-1.12-.15c.27-2 .63-4 1-6l1.11.24c-.36 1.97-.71 3.95-.98 5.92zM148 44.58c-1.93-.46-3.9-.87-5.87-1.2l.19-1.12c2 .34 4 .75 5.95 1.23zM59.06 77.17l-.92-.67c1.19-1.62 2.44-3.23 3.74-4.77l.87.73a96.576 96.576 0 0 0-3.69 4.71zm47.37-32.26c-1.93.5-3.86 1.09-5.74 1.72l-.36-1.07c1.91-.65 3.86-1.24 5.81-1.74zM65.74 69.1l-.83-.77c1.38-1.47 2.83-2.91 4.31-4.28l.76.82a99.497 99.497 0 0 0-4.24 4.23zm30.72-20.91a85.89 85.89 0 0 0-5.48 2.41l-.49-1c1.81-.88 3.68-1.69 5.55-2.45zM73.37 61.92l-.72-.87c1.55-1.29 3.16-2.54 4.8-3.72l.66.92c-1.61 1.16-3.21 2.4-4.74 3.67zM87 52.65c-1.75 1-3.49 2-5.16 3.07l-.61-.95c1.69-1.08 3.45-2.13 5.22-3.11z" style="fill:var(--chakra-colors-primary-800)"/><circle cx="128.2" cy="126.67" r="66.38" style="fill:var(--chakra-colors-primary-100)"/><path class="piping-3" d="M159.35 138.58h-19.6s.12-5.72.25-11.47a12.75 12.75 0 0 1 11.93-12.44c6.08-.38 12.25-.79 12.25-.79v12.35l-2.51 1a3.89 3.89 0 0 0-2.52 3.71l.2 7.64z"/><path class="piping-4" d="M169.47 129.42v1.27h-5.29v-19.71h5.29v18.44z"/><path class="piping-5" d="M197.78 91.48v5.57h-16.04v-5.57h16.04zm0 20.62v12.19a5.12 5.12 0 0 1-5.11 5.13h-23.2v-16.81h12.39v-4.94h15.92z"/><path class="piping-4" d="M199.56 87.92v3.56H179.7v-3.56h19.86zm0 9.13v10.62H179.7V97.05h19.86z"/><path class="piping-6" d="M181.74 91.48v5.48m16.04.09v-5.57m-15.92 16.33v4.8h-12.39m.26 16.81h22.94a5.12 5.12 0 0 0 5.11-5.13v-16.62M181.86 107.67h-2.16V97.05h19.86v10.62h-17.7zm-.12-16.19h-2.04v-3.56h19.86v3.56h-17.82zm-17.56 22.41v-2.91h5.29v19.71h-5.29v-16.8zm-24.43 24.69s.12-5.72.25-11.47a12.75 12.75 0 0 1 11.93-12.44c6.08-.38 12.25-.79 12.25-.79"/><path class="piping-6" d="m159.35 138.58-.2-7.69a3.89 3.89 0 0 1 2.52-3.71l2.51-1M149.13 136a15.78 15.78 0 0 1 5.4-11.67m-.98-2.8a20 20 0 0 1 7.14-3.56m-6.2 16.59a19.38 19.38 0 0 1 .82-4 12.63 12.63 0 0 1 5.7-6.34m-25.33 14.36h65.66"/><path class="piping-5" d="M106.4 151.66a21.55 21.55 0 1 1-21.54 21.55 21.55 21.55 0 0 1 21.54-21.55zm18.71 21.55a18.7 18.7 0 1 0-18.71 18.7 18.71 18.71 0 0 0 18.71-18.7z"/><path class="piping-5" d="M106.4 154.51a18.7 18.7 0 1 1-18.69 18.7 18.71 18.71 0 0 1 18.69-18.7zm8.53 18.85a2.3 2.3 0 1 0-2.31 2.31 2.3 2.3 0 0 0 2.31-2.31zM111.7 168a2.31 2.31 0 1 0-2.3 2.31 2.3 2.3 0 0 0 2.3-2.31zm0 10.6a2.31 2.31 0 1 0-2.3 2.3 2.31 2.31 0 0 0 2.3-2.32zm-3.41-5.37a1.89 1.89 0 1 0-1.89 1.88 1.89 1.89 0 0 0 1.89-1.9zm-2.57-5.23a2.31 2.31 0 1 0-2.3 2.31 2.3 2.3 0 0 0 2.3-2.31zm0 10.6a2.31 2.31 0 1 0-2.3 2.3 2.31 2.31 0 0 0 2.3-2.32zm-3.23-5.22a2.3 2.3 0 1 0-2.31 2.31 2.3 2.3 0 0 0 2.31-2.33z"/><path class="piping-4" d="M112.62 171.06a2.31 2.31 0 1 1-2.29 2.3 2.3 2.3 0 0 1 2.29-2.3z"/><circle class="piping-4" cx="109.4" cy="167.98" r="2.3"/><circle class="piping-4" cx="109.4" cy="178.58" r="2.3"/><path class="piping-4" d="M106.4 171.32a1.89 1.89 0 1 1-1.88 1.89 1.89 1.89 0 0 1 1.88-1.89z"/><circle class="piping-4" cx="103.42" cy="167.98" r="2.3"/><circle class="piping-4" cx="103.42" cy="178.58" r="2.3"/><path class="piping-4" d="M100.18 171.06a2.31 2.31 0 1 1-2.29 2.3 2.3 2.3 0 0 1 2.29-2.3z"/><path class="piping-6" d="M128 173.21a21.55 21.55 0 1 1-21.56-21.55A21.55 21.55 0 0 1 128 173.21z"/><path class="piping-6" d="M125.11 173.21a18.7 18.7 0 1 1-18.71-18.7 18.71 18.71 0 0 1 18.71 18.7z"/><path class="piping-6" d="M108.29 173.21a1.89 1.89 0 1 1-1.89-1.89 1.88 1.88 0 0 1 1.89 1.89z"/><path class="piping-5" d="M177 159.67v34.65h-34.7v-34.65zm-2.28 32.61v-30.22h-30.26v30.22z"/><path class="piping-5" d="M174.67 162.06v30.22h-30.21v-30.22zm-2.78 11.49a.91.91 0 0 0-.91-.91h-8.63a.92.92 0 0 0-.92.91.92.92 0 0 0 .92.91H171a.91.91 0 0 0 .89-.91zm0-3.61a.91.91 0 0 0-.89-.94h-8.63a.91.91 0 0 0-.92.91.92.92 0 0 0 .92.91H171a.91.91 0 0 0 .89-.88zm0-3.61a.91.91 0 0 0-.91-.91h-8.63a.92.92 0 0 0-.92.91.92.92 0 0 0 .92.91H171a.91.91 0 0 0 .89-.91zm-.7 22.33V180a.91.91 0 0 0-.91-.91.91.91 0 0 0-.91.91v8.64a.91.91 0 0 0 .91.9.91.91 0 0 0 .91-.88zm-3.61 0V180a.91.91 0 0 0-.91-.91.91.91 0 0 0-.91.91v8.64a.91.91 0 0 0 .91.9.91.91 0 0 0 .91-.88zm-3.61 0V180a.91.91 0 0 0-.91-.91.91.91 0 0 0-.91.91v8.64a.91.91 0 0 0 .91.9.91.91 0 0 0 .94-.88zm-6.25-.7a.91.91 0 0 0-.91-.91h-8.63a.91.91 0 0 0-.91.91.91.91 0 0 0 .91.91h8.63a.91.91 0 0 0 .91-.87zm0-3.61a.91.91 0 0 0-.91-.91h-8.63a.91.91 0 0 0-.91.91.91.91 0 0 0 .91.91h8.63a.91.91 0 0 0 .91-.91zm0-3.61a.91.91 0 0 0-.91-.91h-8.63a.91.91 0 0 0-.91.91.91.91 0 0 0 .91.91h8.63a.91.91 0 0 0 .91-.91zm-.69-6.5v-8.63a.91.91 0 0 0-.9-.91.91.91 0 0 0-.91.91v8.63a.91.91 0 0 0 .91.91.9.9 0 0 0 .87-.91zm-3.61 0v-8.63a.9.9 0 0 0-.9-.91.91.91 0 0 0-.91.91v8.63a.91.91 0 0 0 .91.91.9.9 0 0 0 .9-.91zm-3.6 0v-8.63a.91.91 0 0 0-.91-.91.91.91 0 0 0-.91.91v8.63a.91.91 0 0 0 .91.91.91.91 0 0 0 .91-.91z"/><rect class="piping-4" x="161.43" y="172.61" width="10.46" height="1.85" rx=".91"/><rect class="piping-4" x="161.43" y="169" width="10.46" height="1.84" rx=".91"/><rect class="piping-4" x="161.43" y="165.39" width="10.46" height="1.84" rx=".91"/><path class="piping-4" d="M171.19 180v8.64a.91.91 0 0 1-.91.9.91.91 0 0 1-.91-.9V180a.91.91 0 0 1 .91-.91.91.91 0 0 1 .91.91zm-3.61 0v8.64a.91.91 0 0 1-.91.9.91.91 0 0 1-.91-.9V180a.91.91 0 0 1 .91-.91.91.91 0 0 1 .91.91z"/><rect class="piping-4" x="162.12" y="179.11" width="1.85" height="10.45" rx=".91"/><rect class="piping-4" x="147.27" y="187.02" width="10.45" height="1.84" rx=".9"/><rect class="piping-4" x="147.27" y="183.41" width="10.45" height="1.85" rx=".9"/><rect class="piping-4" x="147.27" y="179.8" width="10.45" height="1.85" rx=".9"/><path class="piping-4" d="M157 165.61v8.63a.9.9 0 0 1-.9.91.91.91 0 0 1-.91-.91v-8.63a.91.91 0 0 1 .91-.91.91.91 0 0 1 .9.91zm-3.58 0v8.63a.9.9 0 0 1-.9.91.91.91 0 0 1-.91-.91v-8.63a.91.91 0 0 1 .91-.91.9.9 0 0 1 .9.91z"/><rect class="piping-4" x="147.97" y="164.7" width="1.85" height="10.45" rx=".91"/><path class="piping-6" d="M142.3 159.67h34.65v34.65H142.3z"/><path class="piping-6" d="M144.46 162.06h30.21v30.22h-30.21z"/><path class="piping-3" d="M97 103.67a13.32 13.32 0 0 0 3.47.27h.17c3 0 6-.63 7.69-1.75 3.4-1.68 4.12-3.93 4.12-3.93a4.06 4.06 0 0 1 1.82 3.09c0 1.51-1.17 2.88-3.12 3.94a21.65 21.65 0 0 1-10.11 2.18 21.73 21.73 0 0 1-10.04-2.2c-1.94-1.06-3.11-2.43-3.11-3.94 0-1.3.88-2.51 2.39-3.5a8.7 8.7 0 0 0 6.72 5.84z"/><path class="piping-5" d="M91 105.27a21.73 21.73 0 0 0 10.12 2.18 21.65 21.65 0 0 0 10.11-2.18v23a10.13 10.13 0 0 1-10.12 10.13H69.89v-.4c1.44-1.18 2.49-5.37 2.49-10.35 0-5.66-1.36-10.31-3.1-10.66H91zm10.07-10.05c4.86 0 9.11 1.21 11.41 3 0 0-.72 2.25-4.12 3.93A19.65 19.65 0 0 1 97 103.67a8.7 8.7 0 0 1-6.78-5.84c2.4-1.58 6.37-2.61 10.85-2.61z"/><path class="piping-5" d="M100.65 103.93a19.33 19.33 0 0 0 7.69-1.75c-1.69 1.12-4.72 1.72-7.69 1.75zm0 0h-.17a13.32 13.32 0 0 1-3.47-.27 19.38 19.38 0 0 0 3.64.27z"/><path class="piping-3" d="M69.28 117c1.74.35 3.1 5 3.1 10.66 0 5-1 9.17-2.49 10.35a1.28 1.28 0 0 1-.82.34c-1.84 0-3.32-4.78-3.32-10.69S67.23 117 69.07 117a.76.76 0 0 1 .21 0z"/><path class="piping-6" d="M90.95 105.28v11.69H69.29m41.89-11.7v23a10.13 10.13 0 0 1-10.12 10.13H69.74m-.46-21.4c1.74.35 3.1 5 3.1 10.66 0 5-1 9.17-2.49 10.35a1.28 1.28 0 0 1-.82.34c-1.84 0-3.32-4.78-3.32-10.69S67.23 117 69.07 117a.76.76 0 0 1 .21 0z"/><path class="piping-6" d="M97.67 128.21A25.61 25.61 0 0 0 91 117m0-11.73c-1.94-1.06-3.11-2.43-3.11-3.94 0-1.3.88-2.51 2.39-3.5 2.39-1.58 6.36-2.61 10.84-2.61 4.86 0 9.11 1.21 11.41 3a4.06 4.06 0 0 1 1.82 3.09c0 1.51-1.17 2.88-3.12 3.94a21.65 21.65 0 0 1-10.11 2.18A21.73 21.73 0 0 1 91 105.27z"/><path class="piping-6" d="M108.36 102.17a4.22 4.22 0 0 0 .64-.51m-16.29 0c.66 1 2.29 1.67 4.3 2a19.38 19.38 0 0 0 3.64.26c3 0 6-.63 7.69-1.75"/><path class="piping-3" d="M109.48 70.34c1.46 0 2.64 3.8 2.64 8.48s-1.18 8.47-2.64 8.47-2.65-3.8-2.65-8.47 1.17-8.48 2.65-8.48zm32.01-13.69c-4.15 5.25-17 5.39-20.82.05 1.22-2.13 5.43-3.7 10.42-3.7s9.13 1.54 10.4 3.65z"/><path class="piping-5" d="M141.88 58c0 1.32-1.11 2.52-2.93 3.41a18.29 18.29 0 0 1-7.86 1.59 17.42 17.42 0 0 1-8.43-1.88c-1.48-.84-2.36-1.93-2.36-3.1a2.53 2.53 0 0 1 .37-1.29c3.81 5.34 16.67 5.2 20.82-.05a2.6 2.6 0 0 1 .39 1.32z"/><path class="piping-5" d="m139 70.34 8.13.52h2.71l2.6-.52c2.84 3.42 3.25 14.55 0 17h-43c1.46 0 2.64-3.8 2.64-8.47s-1.18-8.48-2.64-8.48h13.18V61.1a17.42 17.42 0 0 0 8.47 1.9 18.29 18.29 0 0 0 7.91-1.6l.07.14z"/><path class="piping-6" d="M141.49 56.65a2.6 2.6 0 0 1 .39 1.34c0 1.32-1.11 2.52-2.93 3.41a18.29 18.29 0 0 1-7.86 1.6 17.42 17.42 0 0 1-8.43-1.88c-1.48-.84-2.36-1.93-2.36-3.1a2.53 2.53 0 0 1 .37-1.29c1.22-2.13 5.43-3.7 10.42-3.7s9.13 1.51 10.4 3.62zm-.15.17.15-.17"/><path class="piping-6" d="M123.27 58.92c4.29 2.38 11.35 2.28 15.7-.19m-16.31 2.37v9.33a20.86 20.86 0 0 1 5.48 9.16m-19.09-9.25h.43l2.08.44a1.21 1.21 0 0 0 .83-.12l.24-.13a1.11 1.11 0 0 1 .74-.1l.9.43c.63 0 .92-.46 1.11-.52h7.28"/><path class="piping-6" d="M139 61.54v8.8h6.41l1.18.69a1.16 1.16 0 0 0 1.3-.09 1.06 1.06 0 0 1 1.41.08.67.67 0 0 0 .9.06l1-.79h1.24c2.84 3.42 3.25 14.55 0 17h-1.25l-.57-.26a2.18 2.18 0 0 0-1.82 0 1.31 1.31 0 0 1-1.06 0l-.18-.08a2.14 2.14 0 0 0-1.77 0l-.54.27h-25.64l-2.15-.14a1.64 1.64 0 0 1-.32-.05l-.75-.17a1.88 1.88 0 0 0-.85 0l-.88.21a1.37 1.37 0 0 1-.85 0l-.74-.23a2.6 2.6 0 0 0-1.19-.07l-2.4.44"/><path class="piping-6" d="M139 70.34c-2.66 3.09-4.61 6.17-5.15 9.25m-24.37-9.25c1.46 0 2.64 3.8 2.64 8.48s-1.18 8.47-2.64 8.47-2.65-3.8-2.65-8.47 1.17-8.48 2.65-8.48z"/></svg>