<svg xmlns="http://www.w3.org/2000/svg" id="Layer_1" data-name="Layer 1" viewBox="41.18 40.42 173.63 175.11"><defs><style>.sweets-snack-1{fill:var(--chakra-colors-primary-800)}.sweets-snack-3{fill:#fff}.sweets-snack-4{fill:var(--chakra-colors-primary-400)}.sweets-snack-5{fill:none;stroke:var(--chakra-colors-primary-800);stroke-miterlimit:10}</style></defs><path class="sweets-snack-1" d="M131.25 215.16v-1.14c2-.06 4.05-.19 6-.39l.11 1.14c-2 .23-4.06.33-6.11.39zm-4.6 0c-2 0-4.1-.17-6.12-.36l.1-1.14c2 .18 4 .3 6.05.35zm15.29-1-.17-1.13c2-.31 4-.68 5.94-1.12l.26 1.11c-1.97.49-3.97.87-6.03 1.17zm10.49-2.26-.31-1.1c1.93-.55 3.88-1.17 5.76-1.85l.39 1.07c-1.91.73-3.88 1.36-5.84 1.91zm10.13-3.54-.45-1c1.84-.78 3.69-1.64 5.49-2.55l.52 1c-1.82.92-3.7 1.79-5.56 2.58zm9.6-4.77-.57-1c1.74-1 3.47-2.08 5.14-3.2l.64.94a75.67 75.67 0 0 1-5.21 3.29zm-86.49.2c-1.78-1-3.53-2.1-5.23-3.23l.63-.94c1.68 1.11 3.41 2.18 5.16 3.18zm95.44-6.11-.68-.91c1.61-1.21 3.19-2.49 4.71-3.81l.75.86a80.34 80.34 0 0 1-4.78 3.89zm-104.43.23c-1.63-1.21-3.25-2.5-4.79-3.84l.75-.86c1.52 1.31 3.11 2.58 4.72 3.78zm112.59-7.19-.8-.83c1.44-1.39 2.86-2.86 4.21-4.36l.85.77c-1.36 1.55-2.8 3.03-4.26 4.45zM68.48 191a93.585 93.585 0 0 1-4.28-4.4l.85-.77c1.36 1.49 2.78 3 4.23 4.33zm128.05-8.18-.89-.72c1.27-1.57 2.49-3.19 3.65-4.84l.94.65a90.486 90.486 0 0 1-3.7 4.93zm-135.34.29a84.613 84.613 0 0 1-3.71-4.88l.94-.66c1.16 1.64 2.4 3.26 3.67 4.82zm141.56-9-1-.61c1.06-1.7 2.08-3.47 3-5.25l1 .53c-.89 1.79-1.92 3.58-3 5.31zm-147.82.34a84.906 84.906 0 0 1-3.08-5.3l1-.54c.95 1.77 2 3.52 3 5.22zm152.93-9.79-1-.48c.85-1.82 1.64-3.7 2.35-5.59l1.07.41c-.75 1.89-1.56 3.79-2.42 5.64zM41.76 134c-.12-1.81-.19-3.65-.2-5.45v-.68h1.14v.67c0 1.79.08 3.6.2 5.39zm1.06-10.67-1.14-.06c.11-2 .29-4.09.55-6.11l1.14.14c-.27 2.03-.44 4.05-.55 6.06zm170.5-11.15c-.37-2-.81-4-1.32-5.91l1.11-.29c.51 2 .95 4 1.33 6zM44 112.84l-1.12-.2c.36-2 .79-4 1.29-6l1.1.28c-.46 1.95-.89 3.94-1.27 5.92zm166.72-10.9c-.61-1.91-1.29-3.83-2-5.7l1.07-.42c.75 1.89 1.44 3.84 2.06 5.78zm-164.23.61-1.09-.34c.6-1.95 1.28-3.89 2-5.8l1.07.42c-.68 1.87-1.35 3.8-1.95 5.72zm160.44-10.48c-.85-1.82-1.76-3.64-2.72-5.4l1-.55c1 1.78 1.9 3.62 2.76 5.47zm-156.65.56-1-.47c.83-1.85 1.75-3.71 2.73-5.51l1 .55c-1.01 1.8-1.9 3.6-2.73 5.43zm151.64-9.88c-1.06-1.71-2.19-3.4-3.37-5l.93-.67c1.19 1.65 2.34 3.37 3.41 5.1zm-146.68.51-1-.59c1.06-1.74 2.2-3.47 3.37-5.13l.93.67a91.272 91.272 0 0 0-3.3 5.05zm140.57-9.14c-1.27-1.57-2.59-3.11-4-4.58l.84-.78c1.39 1.49 2.74 3 4 4.64zm-134.5.45-.9-.71c1.26-1.59 2.61-3.16 4-4.67l.84.77c-1.37 1.49-2.7 3.04-3.94 4.61zm127.36-8.28c-1.44-1.4-2.95-2.77-4.49-4.06l.74-.88c1.56 1.31 3.08 2.7 4.55 4.12zM94.57 49l-.46-1c1.87-.81 3.79-1.56 5.71-2.24l.38 1.08c-1.9.65-3.79 1.38-5.63 2.16zm57.76-3.77c-1.93-.55-3.91-1-5.87-1.45l.23-1.12c2 .42 4 .91 6 1.47zm-47.81.18-.33-1.1c2-.57 4-1.08 6-1.52l.24 1.12c-2.01.45-3.98.95-5.91 1.52zM142 43c-2-.31-4-.55-6-.71l.1-1.14c2 .16 4.07.41 6.09.72zm-27.14.1-.2-1.1c2-.32 4.06-.59 6.09-.77l.1 1.14c-2 .14-4.02.4-6 .72zm16.59-1.1c-2-.06-4.06 0-6.06 0v-1.14c2-.08 4.1-.09 6.14 0z"/><circle cx="129.34" cy="127.56" r="67.05" style="fill:var(--chakra-colors-primary-100)"/><path class="sweets-snack-3" d="M110.57 91.6v4.46a1.12 1.12 0 0 1-1.48 1.06l-1.24-.41-3.69-1.23a1.85 1.85 0 0 0-1.31.06l-4 1.8a1.45 1.45 0 0 1-1.19 0l-6-2.65a1.44 1.44 0 0 0-1.38.11l-3 2a2.09 2.09 0 0 1-2.5-.2l-2.46-2.2a1.33 1.33 0 0 0-1.64-.12l-1.51 1-1.46 1a1.46 1.46 0 0 1-2.25-1.23V89l3.71.27 16.32 1.22 12.36.91z"/><path class="sweets-snack-4" d="M107.85 96.71v19.05H79.17V95.21l1.51-1a1.33 1.33 0 0 1 1.64.12l2.46 2.2a2.09 2.09 0 0 0 2.5.2l3-2a1.44 1.44 0 0 1 1.38-.11l6 2.65a1.45 1.45 0 0 0 1.19 0l4-1.8a1.85 1.85 0 0 1 1.31-.06z"/><path class="sweets-snack-3" d="M107.85 69.17V91.4l-12.36-.91.16-2.09V69.17h12.2z"/><path class="sweets-snack-3" d="M95.65 81.3v7.1l-.16 2.09-16.32-1.22v-20.1h16.48V81.3z"/><path class="sweets-snack-5" d="M79.17 89.27v-20.1h28.68V91.4m0 5.31v19.05H79.17V95.21"/><path class="sweets-snack-5" d="M81.06 71.49h5.37v7.1m3.85-7.1h5.37v7.1m3.85-7.1h5.37v7.1M81.06 81.3h5.37v7.1m3.85-7.1h5.37v7.1m3.85-7.1h5.37v7.1m2.98 3 2.72.2v4.46a1.12 1.12 0 0 1-1.48 1.06l-1.24-.41-3.69-1.23a1.85 1.85 0 0 0-1.31.06l-4 1.8a1.45 1.45 0 0 1-1.19 0l-6-2.65a1.44 1.44 0 0 0-1.38.11l-3 2a2.09 2.09 0 0 1-2.5-.2l-2.46-2.2a1.33 1.33 0 0 0-1.64-.12l-1.51 1-1.46 1a1.46 1.46 0 0 1-2.25-1.23V89l3.71.27 16.32 1.22zm-10.96 20.85h3.88m-18.49-10.16v10.16h12.17"/><path class="sweets-snack-3" d="M197.17 148.24a23.12 23.12 0 0 1-1 6.91H196a1.24 1.24 0 0 1-1.24-1.24v-1.84a2.34 2.34 0 0 0-4.67 0v4.57a2.85 2.85 0 1 1-5.69 0v-1.89a2.17 2.17 0 0 0-2.17-2.17 9.19 9.19 0 1 0-17.28-4.34 9 9 0 0 0 1.31 4.71v1.64a2.82 2.82 0 0 1-2.83 2.83 2.84 2.84 0 0 1-2.84-2.83v-5.35a2.56 2.56 0 0 0-5.12 0v.8a3.57 3.57 0 0 1-3.58 3.57h-.22a23.7 23.7 0 0 1-.63-5.37 23.09 23.09 0 1 1 46.18 0zm-2.45-3.24a1.41 1.41 0 0 0-1.29-.06 1.45 1.45 0 0 0-.74 1.06 1.35 1.35 0 0 0 2-1zm-5.64-8.08a1.48 1.48 0 0 0 1.32.1 1.43 1.43 0 0 0-2-1.25 1.48 1.48 0 0 0 .68 1.1zm-1.56 5.67a1.38 1.38 0 0 0 .07-1.27 1.42 1.42 0 0 0-1.05-.73 1.37 1.37 0 0 0-.06 1.27 1.36 1.36 0 0 0 1.04.68zm-4.26-5.59a1.49 1.49 0 0 0-1.32-.19 1.53 1.53 0 0 0-.9 1 1.48 1.48 0 0 0 1.32.18 1.44 1.44 0 0 0 .9-.99zm-1.74-4.87a1.15 1.15 0 0 0 .15-1.16 1.2 1.2 0 0 0-1.11.39 1.22 1.22 0 0 0-.13 1.15 1.18 1.18 0 0 0 1.09-.41zm-6.2 3.62a1.49 1.49 0 0 0-.1-1.29 1.41 1.41 0 0 0-1.14-.62 1.43 1.43 0 0 0 .1 1.29 1.45 1.45 0 0 0 1.14.59zm-1.24-6.14a1.84 1.84 0 0 0-1.5-.13 1.79 1.79 0 0 0-1.1 1 1.86 1.86 0 0 0 2.6-.91zm-6.64 8.2a1.68 1.68 0 0 0 .22-1.39 1.6 1.6 0 0 0-1.45 2.07 1.63 1.63 0 0 0 1.23-.71zm-2.62-5.33a1.61 1.61 0 0 0 1.39 0 1.57 1.57 0 0 0-2.21-1.17 1.63 1.63 0 0 0 .82 1.14zm-3.14 7.48a1.9 1.9 0 0 0-.42-1.48 1.87 1.87 0 0 0-1.37-.69 2 2 0 0 0 .42 1.48 1.91 1.91 0 0 0 1.37.66zm-4.74 3.45a1.37 1.37 0 0 0-2.11.91 1.38 1.38 0 0 0 2.11-.91z"/><path class="sweets-snack-4" d="M196 155.15h.17a23.1 23.1 0 0 1-44.5-1.54h.22a3.57 3.57 0 0 0 3.58-3.57v-.8a2.56 2.56 0 0 1 5.12 0v5.35a2.84 2.84 0 0 0 2.84 2.83 2.82 2.82 0 0 0 2.83-2.83V153a9.18 9.18 0 0 0 16-.37 2.17 2.17 0 0 1 2.17 2.17v1.89a2.84 2.84 0 0 0 2.84 2.85 2.83 2.83 0 0 0 2.85-2.85v-4.57a2.34 2.34 0 0 1 4.67 0v1.84a1.24 1.24 0 0 0 1.21 1.19z"/><path class="sweets-snack-1" d="M193.43 144.89a1.41 1.41 0 0 1 1.29.06 1.35 1.35 0 0 1-2 1 1.45 1.45 0 0 1 .71-1.06zM190.4 137a1.44 1.44 0 0 1-2-1.25 1.43 1.43 0 0 1 2 1.25zm-2.81 4.27a1.38 1.38 0 0 1-.07 1.27 1.36 1.36 0 0 1-1-.73 1.37 1.37 0 0 1 .06-1.27 1.42 1.42 0 0 1 1.01.73zm-5.65-4.49a1.49 1.49 0 0 1 1.32.19 1.44 1.44 0 0 1-.9 1 1.48 1.48 0 0 1-1.32-.18 1.53 1.53 0 0 1 .9-1.01z"/><path class="sweets-snack-3" d="M166.21 153a9 9 0 0 1-1.31-4.71 9.2 9.2 0 1 1 1.31 4.71z"/><path class="sweets-snack-1" d="M181.67 130.94a1.15 1.15 0 0 1-.15 1.16 1.18 1.18 0 0 1-1.09.38 1.22 1.22 0 0 1 .13-1.15 1.2 1.2 0 0 1 1.11-.39zm-6.45 3.49a1.49 1.49 0 0 1 .1 1.29 1.45 1.45 0 0 1-1.14-.62 1.43 1.43 0 0 1-.1-1.29 1.41 1.41 0 0 1 1.14.62zm-2.64-4.98a1.84 1.84 0 0 1 1.5.13 1.86 1.86 0 0 1-2.6.91 1.79 1.79 0 0 1 1.1-1.04zm-4.92 6.94a1.68 1.68 0 0 1-.22 1.39 1.63 1.63 0 0 1-1.23.68 1.6 1.6 0 0 1 1.45-2.07zm-1.45-3.91a1.61 1.61 0 0 1-1.39 0 1.63 1.63 0 0 1-.82-1.14 1.57 1.57 0 0 1 2.21 1.17zm-4.95 5.97a1.9 1.9 0 0 1 .42 1.48 1.91 1.91 0 0 1-1.37-.69 2 2 0 0 1-.42-1.48 1.87 1.87 0 0 1 1.37.69zm-5.62 4.81a1.44 1.44 0 0 1 1.3.12 1.38 1.38 0 0 1-2.11.91 1.44 1.44 0 0 1 .81-1.03z"/><path class="sweets-snack-5" d="M166.21 153a9 9 0 0 1-1.31-4.71 9.2 9.2 0 1 1 1.31 4.71z"/><path class="sweets-snack-5" d="M151.62 153.61a23.7 23.7 0 0 1-.63-5.37 23.08 23.08 0 1 1 .63 5.37z"/><path class="sweets-snack-5" d="M151.62 153.61h.22a3.57 3.57 0 0 0 3.58-3.57v-.8a2.56 2.56 0 0 1 5.12 0v5.35a2.84 2.84 0 0 0 2.84 2.83 2.82 2.82 0 0 0 2.83-2.83v-2m15.97-.01a2.17 2.17 0 0 1 2.17 2.17v1.89a2.84 2.84 0 0 0 2.84 2.85 2.83 2.83 0 0 0 2.85-2.85v-4.57a2.34 2.34 0 0 1 4.67 0v1.84a1.24 1.24 0 0 0 1.24 1.24h.33"/><path class="sweets-snack-3" d="M122.8 180h-44a49.23 49.23 0 0 1 1.31-10H95.3l.17-.06c1 2.78 3.15 4.7 5.67 4.7s4.64-1.89 5.65-4.64h14.44a62.36 62.36 0 0 1 1.57 10z"/><path class="sweets-snack-4" d="M121.23 170.07h-14.44a9.73 9.73 0 0 0 .6-3.43 10 10 0 0 0-.42-2.88h12.37a56.11 56.11 0 0 1 1.89 6.31z"/><path class="sweets-snack-3" d="M119.34 163.76H107c-.9-3-3.18-5.18-5.83-5.18s-4.94 2.15-5.84 5.18h-13.4c2.66-7.15 7.26-13.92 14.8-15.77a17.41 17.41 0 0 1 4-.49 16.46 16.46 0 0 1 5.77 1.11c6.56 2.48 10.5 8.83 12.84 15.15z"/><path class="sweets-snack-4" d="M112 132.88a1.48 1.48 0 0 1 .65 1.89L106.77 148l-.22.62a16.46 16.46 0 0 0-5.77-1.11 17.41 17.41 0 0 0-4 .49l-6.69-17.2a.67.67 0 0 1 1-.81c2.1 1.33 5.51 3.37 6.41 3.17s4.37-2.47 6.06-3.62a2 2 0 0 1 2-.11z"/><path class="sweets-snack-3" d="M106.79 170.07c-1 2.75-3.16 4.64-5.65 4.64s-4.68-1.92-5.67-4.7a9.89 9.89 0 0 1-.58-3.37 10.33 10.33 0 0 1 .41-2.88c.9-3 3.18-5.18 5.84-5.18s4.93 2.15 5.83 5.18a10 10 0 0 1 .42 2.88 9.73 9.73 0 0 1-.6 3.43z"/><path class="sweets-snack-4" d="m95.47 170-.17.06H80.06a50.36 50.36 0 0 1 1.87-6.31H95.3a10.33 10.33 0 0 0-.41 2.88 9.89 9.89 0 0 0 .58 3.37z"/><path class="sweets-snack-5" d="M80.06 170.07a49.23 49.23 0 0 0-1.31 10h44.05a62.36 62.36 0 0 0-1.57-10 56.11 56.11 0 0 0-1.89-6.31c-2.36-6.32-6.28-12.67-12.79-15.15a16.46 16.46 0 0 0-5.77-1.11 17.41 17.41 0 0 0-4 .49c-7.54 1.85-12.14 8.62-14.8 15.77a50.36 50.36 0 0 0-1.92 6.31z"/><path class="sweets-snack-5" d="M107 163.76a10 10 0 0 1 .42 2.88 9.73 9.73 0 0 1-.6 3.43c-1 2.75-3.16 4.64-5.65 4.64s-4.68-1.92-5.67-4.7a9.89 9.89 0 0 1-.58-3.37 10.33 10.33 0 0 1 .41-2.88c.9-3 3.18-5.18 5.84-5.18s4.9 2.15 5.83 5.18zm-25.08 0h13.39m11.66 0h12.37m-39.28 6.31H95.3m11.47 0h14.46M96.73 148l-6.64-17.2a.67.67 0 0 1 1-.81c2.1 1.33 5.51 3.37 6.41 3.17s4.37-2.47 6.06-3.62a2 2 0 0 1 2-.11l6.37 3.45a1.48 1.48 0 0 1 .65 1.89L106.77 148m-4.55-.5.73-3.53m.62-2.78 1.25-8.46"/><path class="sweets-snack-4" d="M168.43 109.26c.22 1 1 2.62 0 2.92a1.36 1.36 0 0 1-1.55-.79c-.11-.25-.17-.52-.28-.76a.85.85 0 0 0-.57-.52c-.42-.08-.76.31-1 .65s-.62.73-1 .62-.55-.6-.57-1a1.7 1.7 0 0 0-.31-1.18.9.9 0 0 0-.76-.21.94.94 0 0 0-.66.33 7.8 7.8 0 0 1-1.29 1.34 2.54 2.54 0 0 1-1.75.54 1.52 1.52 0 0 1-1.33-1.12c-.1-.45.07-.92 0-1.37a1.37 1.37 0 0 0-1.06-1.07 1.49 1.49 0 0 0-1.43.55c-.18.23-.29.5-.47.73a2.37 2.37 0 0 1-1.49.72 1.47 1.47 0 0 1-.95-.09c-.46-.28-.51-.91-.52-1.44a.93.93 0 0 0-.26-.76.65.65 0 0 0-.8.11 3.37 3.37 0 0 0-.53.71 2.79 2.79 0 0 1-1 .91 1.24 1.24 0 0 1-1.07.12 1.18 1.18 0 0 1-.52-.56c-.39-.79-.33-1.76-.81-2.5a2 2 0 0 0-2.45-.67 8.14 8.14 0 0 0-1.24.9 1.47 1.47 0 0 1-1.45.26c-.89-.45-.47-1.75-1-2.46a1 1 0 0 0-.93-.41 1.69 1.69 0 0 0-.81.67 3.59 3.59 0 0 1-.87.68 1 1 0 0 1-.68.15c-.46-.1-.61-.7-.57-1.17a2.37 2.37 0 0 0-.07-1.4.39.39 0 0 0-.23-.19.61.61 0 0 0-.19 0 2.82 2.82 0 0 0-.89.38c-.54.36-1.13.94-1.73.68a1.27 1.27 0 0 1-.54-1.31 7.6 7.6 0 0 1 1.59-3.48 34.82 34.82 0 0 0 11.18 4.88 95 95 0 0 0 14.16 2.18 26.43 26.43 0 0 1 5.08.85 9.34 9.34 0 0 1 3.57 1.94c-.04.22 0 .43.05.64zm-17.52-46.21c.15.56 0 1.17.12 1.75s.73 1.14 1.25.86c.32-.18.43-.59.69-.85a1.16 1.16 0 0 1 1.33-.15 2 2 0 0 1 .87 1.1 6.9 6.9 0 0 0 .44 1.28 1.12 1.12 0 0 0 .73.55l-.25 1.17A72.86 72.86 0 0 0 146 67.27c-.12-.84-.64-1.6-.76-2.43a3.86 3.86 0 0 1 .05-2 1.31 1.31 0 0 1 1.59-.81c.47.22.67.76.94 1.2s.83.85 1.27.58.45-1.37 1.07-1.44c.39-.02.66.33.75.68z"/><path class="sweets-snack-4" d="M166.78 72a71.21 71.21 0 0 0-10.69-3.25l.25-1.17a.74.74 0 0 0 .39 0A5.27 5.27 0 0 1 158 66a1.47 1.47 0 0 1 1.59-.39c.74.43.43 1.59.88 2.31a1.61 1.61 0 0 0 2.26.25c.41-.29.71-.72 1.12-1a1.17 1.17 0 0 1 1.4-.11c.77.66-.22 2.22.58 2.83.54.41 1.29-.06 1.77-.55s1.09-1.06 1.72-.8.69.93.75 1.53.26 1.3.84 1.45c-.12.28-.2.28.09.34a.92.92 0 0 0 .81-.32 3.79 3.79 0 0 0 .49-.76 2.46 2.46 0 0 1 .79-.93 1.22 1.22 0 0 1 1.18-.11 1.56 1.56 0 0 1 .64 1.43 1.84 1.84 0 0 0 .22 1.21c.41.49 1.23.25 1.73-.17s.91-1 1.54-1.12a.54.54 0 0 1 .52.13.56.56 0 0 1 .11.32c.11 1.24-1.12 2.06-1.24 3.3v.27c-3.79 0-7.45-1.71-11.01-3.11z"/><path class="sweets-snack-4" d="M166.78 72c3.56 1.39 7.2 3.1 11 3.08-.49 4.41-2.36 8.54-3.93 12.71-.12.34-.24.67-.37 1-2.9-4.35-19.67-6.52-26-7.28s-7.72-3.3-7.72-3.3a21.24 21.24 0 0 1 6.25-11 72.86 72.86 0 0 1 10.06 1.49 71.21 71.21 0 0 1 10.71 3.3zm3.53 26.77q-.75 2.72-1.44 5.43a12.63 12.63 0 0 0-.57 4.42 9.34 9.34 0 0 0-3.57-1.94 26.43 26.43 0 0 0-5.08-.85 95 95 0 0 1-14.16-2.18 34.82 34.82 0 0 1-11.18-4.88 15.43 15.43 0 0 0 1.5-2.44 36.67 36.67 0 0 0 2-6.65S138.92 91 145 92s9.51.84 15.18 2.45a46.88 46.88 0 0 1 10.13 4.32z"/><path class="sweets-snack-3" d="M160.12 89.6zm13.34-.8a126.09 126.09 0 0 0-3.14 10 46.88 46.88 0 0 0-10.16-4.3C154.48 92.86 151 93 145 92s-7.14-2.34-7.14-2.34c.48-2.08 1-4.15 1.24-6.27.19-1.42.29-2.86.53-4.27.05-.31.11-.61.18-.92 0 0 1.44 2.53 7.72 3.3s23.03 2.95 25.93 7.3z"/><path class="sweets-snack-5" d="M156.34 67.59a.74.74 0 0 0 .39 0A5.27 5.27 0 0 1 158 66a1.47 1.47 0 0 1 1.59-.39c.74.43.43 1.59.88 2.31a1.61 1.61 0 0 0 2.26.25c.41-.29.71-.72 1.12-1a1.17 1.17 0 0 1 1.4-.11c.77.66-.22 2.22.58 2.83.54.41 1.29-.06 1.77-.55s1.09-1.06 1.72-.8.69.93.75 1.53.26 1.3.84 1.45c-.12.28-.2.28.09.34a.92.92 0 0 0 .81-.32 3.79 3.79 0 0 0 .49-.76 2.46 2.46 0 0 1 .79-.93 1.22 1.22 0 0 1 1.18-.11 1.56 1.56 0 0 1 .64 1.43 1.84 1.84 0 0 0 .22 1.21c.41.49 1.23.25 1.73-.17s.91-1 1.54-1.12a.54.54 0 0 1 .52.13.56.56 0 0 1 .11.32c.11 1.24-1.12 2.06-1.24 3.3v.27c-.49 4.41-2.36 8.54-3.93 12.71-.12.34-.24.67-.37 1a126.09 126.09 0 0 0-3.14 10q-.75 2.72-1.44 5.43a12.63 12.63 0 0 0-.57 4.42c0 .22.07.43.12.64.22 1 1 2.62 0 2.92a1.36 1.36 0 0 1-1.55-.79c-.11-.25-.17-.52-.28-.76a.85.85 0 0 0-.57-.52c-.42-.08-.76.31-1 .65s-.62.73-1 .62-.55-.6-.57-1a1.7 1.7 0 0 0-.31-1.18.9.9 0 0 0-.76-.21.94.94 0 0 0-.66.33 7.8 7.8 0 0 1-1.29 1.34 2.54 2.54 0 0 1-1.75.54 1.52 1.52 0 0 1-1.33-1.12c-.1-.45.07-.92 0-1.37a1.37 1.37 0 0 0-1.06-1.07 1.49 1.49 0 0 0-1.43.55c-.18.23-.29.5-.47.73a2.37 2.37 0 0 1-1.49.72 1.47 1.47 0 0 1-.95-.09c-.46-.28-.51-.91-.52-1.44a.93.93 0 0 0-.26-.76.65.65 0 0 0-.8.11 3.37 3.37 0 0 0-.53.71 2.79 2.79 0 0 1-1 .91 1.24 1.24 0 0 1-1.07.12 1.18 1.18 0 0 1-.52-.56c-.39-.79-.33-1.76-.81-2.5a2 2 0 0 0-2.45-.67 8.14 8.14 0 0 0-1.24.9 1.47 1.47 0 0 1-1.45.26c-.89-.45-.47-1.75-1-2.46a1 1 0 0 0-.93-.41 1.69 1.69 0 0 0-.81.67 3.59 3.59 0 0 1-.87.68 1 1 0 0 1-.68.15c-.46-.1-.61-.7-.57-1.17a2.37 2.37 0 0 0-.07-1.4.39.39 0 0 0-.23-.19.61.61 0 0 0-.19 0 2.82 2.82 0 0 0-.89.38c-.54.36-1.13.94-1.73.68a1.27 1.27 0 0 1-.54-1.31 7.6 7.6 0 0 1 1.59-3.48 15.43 15.43 0 0 0 1.5-2.44 36.67 36.67 0 0 0 2-6.65c.48-2.08 1-4.15 1.24-6.27.19-1.42.29-2.86.53-4.27.05-.31.11-.61.18-.92a21.24 21.24 0 0 1 6.25-11c-.12-.84-.64-1.6-.76-2.43a3.86 3.86 0 0 1 .05-2 1.31 1.31 0 0 1 1.59-.81c.47.22.67.76.94 1.2s.83.85 1.27.58.45-1.37 1.07-1.44c.35 0 .62.31.71.66.15.56 0 1.17.12 1.75s.73 1.14 1.25.86c.32-.18.43-.59.69-.85a1.16 1.16 0 0 1 1.33-.15 2 2 0 0 1 .87 1.1 6.9 6.9 0 0 0 .44 1.28 1.12 1.12 0 0 0 .65.57z"/><path class="sweets-snack-5" d="M177.76 75.09c-3.78 0-7.42-1.69-11-3.08a71.21 71.21 0 0 0-10.69-3.25A72.86 72.86 0 0 0 146 67.27m-11.68 31.5a34.82 34.82 0 0 0 11.18 4.88 95 95 0 0 0 14.16 2.18 26.43 26.43 0 0 1 5.08.85 9.34 9.34 0 0 1 3.57 1.94 5.39 5.39 0 0 1 .74.77m-29.27-31.17s1.44 2.53 7.72 3.3 23.06 2.93 26 7.28m-35.67.88S138.92 91 145 92s9.51.84 15.18 2.45a46.88 46.88 0 0 1 10.16 4.3"/><path class="sweets-snack-1" d="M146.09 90.87a1.4 1.4 0 0 1-1.28-1 2.18 2.18 0 0 1 .29-1.72.26.26 0 1 1 .44.26 1.68 1.68 0 0 0-.25 1.32.9.9 0 0 0 .91.64 1.18 1.18 0 0 0 .7-.59 1.94 1.94 0 0 0 .31-.94 3.45 3.45 0 0 0-.7-1.85l-.16-.26a2.64 2.64 0 0 1-.43-2.56 2.32 2.32 0 0 1 .66-.76 1.69 1.69 0 0 1 1.19-.4 1.05 1.05 0 0 1 .7.42.78.78 0 0 1 .14.62.25.25 0 0 1-.49-.09.36.36 0 0 0-.07-.24.47.47 0 0 0-.34-.2 1.24 1.24 0 0 0-.82.29 1.72 1.72 0 0 0-.51.59 2.19 2.19 0 0 0 .4 2.07l.16.25a3.83 3.83 0 0 1 .78 2.14 2.47 2.47 0 0 1-.39 1.19 1.59 1.59 0 0 1-1 .81.75.75 0 0 1-.24.01zm5.23.4a.25.25 0 0 1-.25-.23c-.14-1.63-.28-3.26-.43-4.88v-.52c-.13.44-.24.87-.36 1.31a24.36 24.36 0 0 1-1.18 3.66.24.24 0 0 1-.33.13.25.25 0 0 1-.13-.33 25.41 25.41 0 0 0 1.15-3.59c.23-.86.46-1.74.76-2.59a.26.26 0 0 1 .27-.17.26.26 0 0 1 .22.23c0 .28.05.6.07.92s.05.6.07.87l.24 2.66a14.89 14.89 0 0 1 1.28-4.14.25.25 0 0 1 .34-.12.26.26 0 0 1 .11.34 18.25 18.25 0 0 0-1.57 6.18.27.27 0 0 1-.26.27zm4.23.73a.25.25 0 0 1-.24-.26l.09-2.68v-.24c0-.86.06-1.71.08-2.56a38 38 0 0 0-2.2 4.54.26.26 0 0 1-.33.14.27.27 0 0 1-.14-.34 40.49 40.49 0 0 1 2.74-5.47.26.26 0 0 1 .29-.11.25.25 0 0 1 .18.25c0 1.18-.07 2.37-.11 3.56v.25c0 .89 0 1.78-.08 2.67a.26.26 0 0 1-.28.25z"/><path class="sweets-snack-1" d="M155.71 89.12a.23.23 0 0 1-.11 0 2.2 2.2 0 0 0-.88-.18h-.08a1 1 0 0 1-.63-.16.25.25 0 0 1-.05-.35.24.24 0 0 1 .35 0 .66.66 0 0 0 .34 0h.08a2.93 2.93 0 0 1 1 .21h.09a.25.25 0 0 1 .12.34.24.24 0 0 1-.23.14zm2.29 3.45a1.29 1.29 0 0 1-.85-.31 2 2 0 0 1-.6-1.27 5 5 0 0 1 .1-1.32 7.74 7.74 0 0 1 1.6-4 1.75 1.75 0 0 1 .58-.44.88.88 0 0 1 .85.11.26.26 0 0 1-.33.39.34.34 0 0 0-.33 0 1.2 1.2 0 0 0-.4.31 7.34 7.34 0 0 0-1.47 3.72 4.35 4.35 0 0 0-.09 1.17 1.43 1.43 0 0 0 .43.95.81.81 0 0 0 .64.17.42.42 0 0 0 .3-.2.26.26 0 1 1 .45.24.9.9 0 0 1-.66.46zm1.28.35h-.06a.25.25 0 0 1-.18-.31c.23-1 .51-2 .82-3a.35.35 0 0 1 0-.06c.33-1 .69-2.08 1.09-3.13a.24.24 0 0 1 .32-.14.25.25 0 0 1 .15.32c-.4 1-.75 2.07-1.06 3.07v.09c-.31 1-.58 2-.81 3a.26.26 0 0 1-.27.16z"/><path class="sweets-snack-1" d="M162 93.42a.23.23 0 0 1-.22-.13l-.07-.12c-.39-.7-.78-1.39-1.16-2.09l-.11-.19a6.75 6.75 0 0 1-.55-1.11.27.27 0 0 1 .1-.3l.89-.72a11 11 0 0 0 2-1.89.25.25 0 0 1 .41.3 11.07 11.07 0 0 1-2.07 2l-.76.61a6.53 6.53 0 0 0 .47.91l.11.2c.39.7.77 1.4 1.16 2.09l.07.13a.25.25 0 0 1-.1.34.27.27 0 0 1-.17-.03zm2 .97a1.24 1.24 0 0 1-.27 0 1.28 1.28 0 0 1-.83-1.13 3.22 3.22 0 0 1 .21-1.25.26.26 0 0 1 .32-.17.24.24 0 0 1 .16.31 2.9 2.9 0 0 0-.19 1.06.79.79 0 0 0 .47.69.71.71 0 0 0 .68-.25 1.6 1.6 0 0 0 .36-.82 2.9 2.9 0 0 0-.05-1.42 3.89 3.89 0 0 0-.19-.42c-.06-.13-.12-.26-.17-.39a3.22 3.22 0 0 1 .11-2.63 1.75 1.75 0 0 1 .64-.76 1.09 1.09 0 0 1 1.06-.08.9.9 0 0 1 .45.57.92.92 0 0 1-.09.73.25.25 0 0 1-.43-.27.39.39 0 0 0 0-.32.4.4 0 0 0-.19-.26.57.57 0 0 0-.56.06 1.21 1.21 0 0 0-.45.55 2.75 2.75 0 0 0-.1 2.23c0 .12.1.23.16.35s.15.31.21.48a3.32 3.32 0 0 1 .07 1.67A2.21 2.21 0 0 1 165 94a1.27 1.27 0 0 1-1 .39z"/></svg>