<svg xmlns="http://www.w3.org/2000/svg" id="Layer_1" data-name="Layer 1" viewBox="41.22 41.59 173.56 172.81"><defs><style>.cls-3{fill:#2db5ff}.cls-4{fill:#caf5fe}.cls-5{fill:#fff}.cls-6,.cls-7{fill:none;stroke:#2f3a5a}.cls-6{stroke-linecap:round;stroke-linejoin:round}.cls-7{stroke-miterlimit:10}</style></defs><path d="m170.64 52.8-.56 1c-1.75-1-3.54-1.93-5.34-2.78l.48-1a84.2 84.2 0 0 1 5.42 2.78zm3.93 2.36c1.72 1.09 3.41 2.25 5 3.45l-.67.92a79.903 79.903 0 0 0-5-3.41zm-13.54-7-.43 1c-1.85-.76-3.75-1.46-5.64-2.1l.35-1.08c1.93.65 3.85 1.37 5.69 2.15zm-10.1-3.46-.31 1.1c-1.92-.53-3.9-1-5.86-1.39l.23-1.11c2.01.36 4.01.83 5.94 1.37zm-10.45-2.19-.16 1.13c-2-.28-4-.51-6-.65l.08-1.14c2.03.15 4.08.34 6.08.63zm-10.64-.87v1.14c-2 0-4 0-6 .09l-.06-1.14c1.98-.13 4.04-.16 6.06-.12zm73.83 44.28c1 1.77 1.93 3.6 2.8 5.44l-1 .48c-.85-1.81-1.78-3.61-2.76-5.36zm-84.5-43.84.12 1.13c-2 .2-4 .48-6 .82l-.2-1.12c2.03-.37 4.06-.65 6.08-.86zm89.14 53.47a83.89 83.89 0 0 1 2.11 5.74l-1.08.35c-.63-1.9-1.32-3.8-2.08-5.66zm-99.67-51.76.26 1.12c-2 .44-3.91 1-5.83 1.55l-.33-1.09c1.94-.6 3.93-1.13 5.9-1.58zm103.1 61.85c.53 2 1 4 1.39 5.94l-1.12.22c-.39-2-.85-3.94-1.38-5.86zM98.39 46.8l.38 1.07c-1.89.69-3.76 1.44-5.59 2.25l-.46-1c1.85-.86 3.76-1.62 5.67-2.32zm115.51 69.3c.29 2 .51 4.05.65 6.07l-1.13.08c-.15-2-.37-4-.65-6zm-125.32-65 .52 1c-1.78.9-3.55 1.9-5.27 2.9l-.59-1c1.76-1 3.54-2 5.34-2.94zm126.18 75.68c.05 2 0 4.08-.09 6.1l-1.14-.05c.11-2 .13-4 .1-6zM79.37 56.49l.64.94c-1.66 1.12-3.3 2.31-4.88 3.55l-.7-.89c1.57-1.26 3.26-2.47 4.94-3.6zM205.23 168c-.83 1.6-1.71 3.21-2.63 4.75l-.35.58-1-.59.34-.57c.91-1.53 1.79-3.11 2.6-4.7zm-6.39 8.55.94.64a91.351 91.351 0 0 1-3.6 4.93l-.9-.71c1.25-1.62 2.44-3.25 3.56-4.91zM47.78 98.38a79.75 79.75 0 0 0-1.92 5.71l-1.09-.32a89.38 89.38 0 0 1 1.94-5.79zm144.62 86.47.85.74c-1.34 1.53-2.74 3-4.18 4.45l-.8-.8c1.42-1.41 2.81-2.89 4.13-4.39zm-147.71-76.4a83.54 83.54 0 0 0-1.2 5.91l-1.12-.19c.33-2 .74-4 1.22-6zM185 192.33l.76.86a83.964 83.964 0 0 1-4.71 3.9l-.7-.9c1.58-1.19 3.15-2.53 4.65-3.86zm-142.12-73.5c-.22 2-.38 4-.46 6h-1.14c.08-2 .24-4.06.46-6.08zm133.81 80 .64.94c-1.66 1.15-3.4 2.26-5.15 3.3l-.58-1c1.74-.99 3.4-2.07 5.09-3.22zM42.35 129.34c0 2 .12 4 .29 6l-1.13.09c-.17-2-.27-4.08-.29-6.1zm125.3 75 .52 1c-1.8.93-3.66 1.82-5.51 2.63l-.45-1.05c1.79-.82 3.66-1.69 5.44-2.62zM43.13 139.85c.27 2 .6 4 1 5.93L43 146c-.41-2-.76-4-1-6zM158 208.59l.4 1.06c-1.9.71-3.85 1.36-5.8 1.94l-.32-1.09c1.93-.57 3.86-1.21 5.72-1.91zm-112.82-58.4c.51 1.93 1.1 3.87 1.75 5.77l-1.08.37c-.66-1.93-1.25-3.89-1.76-5.85zm71.35 63.08-.16 1.13c-2-.27-4-.61-6-1l.23-1.12c1.95.38 3.95.72 5.93.99zM65.35 186.8c1.36 1.46 2.8 2.89 4.26 4.25l-.78.84a92.63 92.63 0 0 1-4.32-4.32zm40.85 24.42-.29 1.1c-2-.52-3.93-1.11-5.85-1.76l.36-1.07c1.9.63 3.84 1.22 5.78 1.73zM73 194c1.54 1.28 3.14 2.53 4.77 3.7l-.67.92a87.577 87.577 0 0 1-4.83-3.74zm23.19 13.9-.42 1.1c-1.88-.76-3.77-1.59-5.59-2.47l.5-1c1.8.81 3.66 1.63 5.51 2.37zm-14.7-7.61a82.24 82.24 0 0 0 5.18 3.09l-.55 1c-1.77-1-3.54-2-5.25-3.14z" style="fill:#0e4e91"/><circle cx="127.25" cy="128.45" r="66.74" style="fill:#abe7ff"/><path class="cls-3" d="m134.88 139.24-6.21-6a.94.94 0 0 1 .33-.71l2.57-2.27a1 1 0 0 1 1.26 0l1.45 1.29 1.12 1a1 1 0 0 1 .32.71v4a.9.9 0 0 1-.14.48l-.58 1a.88.88 0 0 0-.12.5z"/><path class="cls-4" d="M134.85 147.45a.87.87 0 0 0 0 .32l-5.17-6.27-.9-2.4a.8.8 0 0 1-.07-.34v-5.52l6.21 6a1.06 1.06 0 0 0 .07.38l.7 1.65a1.16 1.16 0 0 1 .07.37v2.66a1.27 1.27 0 0 1 0 .26z"/><path class="cls-5" d="m129.35 157.8 6.37 6.87v31a1.39 1.39 0 0 1-1.39 1.39h-4.27a1.4 1.4 0 0 1-1.39-1.39v-33.39a.8.8 0 0 1 .05-.26l.93-3.12a.92.92 0 0 0-.09-.74z"/><path class="cls-3" d="m135.65 153.77-.75 1.93a1.05 1.05 0 0 0-.05.19l-5.34-6.12-.77-1.78a1 1 0 0 1-.07-.37v-3a.94.94 0 0 1 .07-.37l.89-2.07a.42.42 0 0 0 .05-.17 1 1 0 0 0 0-.51l5.17 6.27a.66.66 0 0 0 .06.27l.78 2.05a1 1 0 0 1 .06.34v3a.87.87 0 0 1-.1.34z"/><path class="cls-4" d="m129.51 149.77 5.34 6.12a1 1 0 0 0 .05.5l.75 1.81a1.1 1.1 0 0 1 .07.36v6.11l-6.37-6.87-.84-1.43a1 1 0 0 1-.13-.47v-2.62a1 1 0 0 1 .11-.45l1.07-2a1 1 0 0 0 0-.81z"/><path class="cls-6" d="M129.68 142a1 1 0 0 0 0-.51l-.9-2.4a.8.8 0 0 1-.07-.34v-5.52a.94.94 0 0 1 .33-.71l2.57-2.27a1 1 0 0 1 1.26 0l1.45 1.29 1.12 1a1 1 0 0 1 .32.71v4a.9.9 0 0 1-.14.48l-.58 1a.88.88 0 0 0-.12.46 1.06 1.06 0 0 0 .07.38l.7 1.65a1.16 1.16 0 0 1 .07.37v2.66a1.27 1.27 0 0 1 0 .26l-.83 2.89a.87.87 0 0 0 0 .32.66.66 0 0 0 .06.27l.78 2.05a1 1 0 0 1 .06.34v3a.87.87 0 0 1-.07.35l-.75 1.93a1.05 1.05 0 0 0-.05.19 1 1 0 0 0 .05.5l.75 1.81a1.1 1.1 0 0 1 .07.36v37.08a1.39 1.39 0 0 1-1.39 1.39h-4.27a1.4 1.4 0 0 1-1.39-1.39v-33.32a.8.8 0 0 1 .05-.26l.93-3.12a.92.92 0 0 0-.09-.74l-.21-.36"/><path class="cls-6" d="m129.35 157.79-.84-1.43a1 1 0 0 1-.13-.47v-2.62a1 1 0 0 1 .11-.45l1.07-2a1 1 0 0 0 0-.81l-.09-.2-.77-1.78a1 1 0 0 1-.07-.37v-3a.94.94 0 0 1 .07-.37m.98-2.29a.42.42 0 0 1-.05.17l-.89 2.07.88-2.07a1.62 1.62 0 0 0 .06-.17zm5.2-2.76-6.21-6m6.14 14.53-5.17-6.27"/><path class="cls-6" d="M134.85 155.89h0l-5.34-6.12-.02-.03-.01-.02m-.16 8.05.03.02v.01l6.37 6.86"/><path class="cls-3" d="M183 87.21s.09 8.51 0 13.77c-.12 6.49-6.78 10.13-7.59 18.23-.4 4.08 0 36.44 0 36.44h-6s.41-32.36 0-36.44c-.8-8.1-7.48-11.74-7.59-18.23-.09-5.26 0-13.77 0-13.77h1.31l1.34 2.1h5.94l1.8-9.31h.46l1.77 9.31h5.95l1.34-2.1zm-8.35 8.49a2.24 2.24 0 1 0-2.23 2.24 2.23 2.23 0 0 0 2.26-2.24z"/><circle class="cls-5" cx="172.45" cy="95.7" r="2.24"/><path class="cls-6" d="m172.21 80-1.76 9.31h-5.94l-1.34-2.1h-1.31s-.09 8.51 0 13.77c.11 6.49 6.79 10.13 7.59 18.23.41 4.08 0 36.44 0 36.44h3"/><path class="cls-6" d="M172.45 155.65h3s-.4-32.36 0-36.44c.81-8.1 7.47-11.74 7.59-18.23.09-5.26 0-13.77 0-13.77h-1.3l-1.34 2.1h-5.95L172.67 80h-.46"/><circle class="cls-6" cx="172.45" cy="95.7" r="2.24"/><path class="cls-3" d="M153.23 124.32a44.66 44.66 0 0 1 0 4.83l-1.16 1.17-4.64 4.68v-4.54a.35.35 0 0 1 0-.12c.34-1 4.2-4.65 4.76-5a6.63 6.63 0 0 0 1.04-1.02zm-.07 22.49c.09.93.43 4.36-.43 6.22-.19.23-.48.54-.83.9-1.52 1.58-4.17 4.07-4.35 4.57v-4.69a7.18 7.18 0 0 1 1.64-2.59c1.14-1.08 3.97-3.71 3.97-4.41zm-.16-34.4V117a3.88 3.88 0 0 1-1 1.86 44 44 0 0 1-4.4 4.63s-.38-5.21.57-6.16c.14-.15.36-.34.63-.58 1.42-1.24 4.2-3.52 4.2-4.34z"/><path class="cls-5" d="M152.2 154a10.74 10.74 0 0 1 1 3.41v23.41h-5.6s-.07-13.93 0-22.27c.18-.5 2.83-3 4.35-4.57z"/><path class="cls-4" d="M152.22 125.28c-.56.39-4.42 4.06-4.76 5a16.76 16.76 0 0 1 1.24-5l-1.1-1.78a44 44 0 0 0 4.4-4.63 25.8 25.8 0 0 1 1.22 5.22 1.48 1.48 0 0 1 0 .21 6.63 6.63 0 0 1-1 .98z"/><path class="cls-3" d="M148.68 116.66a4.49 4.49 0 0 1-1.29-2.36v-3.87h-1.71v-3.54l4.72-1.76 4.5 1.66v3.7H153v1.92c0 .82-2.75 3.1-4.17 4.37z"/><path class="cls-4" d="M147.67 140.75a11.86 11.86 0 0 1 1-3.9l-1.23-1.85 4.63-4.66s.94 3.55 1.1 4.93c0 .53-2.36 3-3.57 4.12a13.24 13.24 0 0 0-2 2.47c-.01-.39.03-.76.07-1.11zm1.54 10.47a7.18 7.18 0 0 0-1.64 2.59v-1c.11-3.49 1.1-4.17 1.1-4.17l-1.26-1.72 4.63-4.53s1 3.5 1.09 4.41c.03.71-2.8 3.34-3.92 4.42z"/><path class="cls-3" d="m152.07 142.38-4.63 4.53s-.06-2.67.13-5a13.24 13.24 0 0 1 2-2.47c1.21-1.13 3.57-3.59 3.57-4.12.17 1.41 0 5.57 0 5.57a16.3 16.3 0 0 0-1.07 1.49z"/><path class="cls-6" d="M153 112.41c0 .82-2.75 3.1-4.17 4.37-.27.24-.49.43-.63.58-.95 1-.57 6.16-.57 6.16a44 44 0 0 0 4.4-4.63 3.88 3.88 0 0 0 1-1.86v-6.54h1.93v-3.7l-4.5-1.66-4.72 1.76v3.54h1.71v3.87a4.49 4.49 0 0 0 1.29 2.36"/><path class="cls-6" d="M153.23 124.32a6.63 6.63 0 0 1-1 1c-.56.39-4.42 4.06-4.76 5a.35.35 0 0 0 0 .12V135l4.63-4.66 1.16-1.17a44.66 44.66 0 0 0 0-4.83 1.48 1.48 0 0 0 0-.21 25.8 25.8 0 0 0-1.22-5.22m-4.44 4.61 1.1 1.78a16.76 16.76 0 0 0-1.24 5m.11 11.56c-.19 2.38-.13 5-.13 5l1.26 1.72s-1 .68-1.1 4.17v27.96h5.56v-23.35a10.74 10.74 0 0 0-1-3.41M147.44 135l1.26 1.87a11.86 11.86 0 0 0-1 3.9c0 .35-.08.72-.1 1.1"/><path class="cls-6" d="M153.16 146.81c.09.93.43 4.36-.43 6.22-.19.23-.48.54-.83.9-1.52 1.58-4.17 4.07-4.35 4.57m5.61-23.24c.17 1.41 0 5.57 0 5.57a16.3 16.3 0 0 0-1.09 1.55s1 3.5 1.09 4.41m-1.1-16.47s.94 3.55 1.1 4.93"/><path class="cls-6" d="M153.16 135.25h0c0 .53-2.36 3-3.57 4.12a13.24 13.24 0 0 0-2 2.47h0m4.48.54-4.63 4.53m5.72-.12v0c0 .7-2.83 3.33-3.95 4.41a7.18 7.18 0 0 0-1.64 2.59"/><path class="cls-3" d="M126.19 108.58a.4.4 0 0 1-.41.43h-6.25a.67.67 0 0 0-.66.56 25.8 25.8 0 0 1-1.25 4.91.69.69 0 0 0 .22.77 7.77 7.77 0 0 1 2.13 9.62.39.39 0 0 1-.56.16l-5.25-3a.66.66 0 0 0-.85.16 27.52 27.52 0 0 1-3.63 3.69.68.68 0 0 0-.2.77 7.77 7.77 0 0 1-3 9.24.41.41 0 0 1-.58-.14l-3-5.14a.68.68 0 0 0-.82-.29 26.88 26.88 0 0 1-5.08 1.34.66.66 0 0 0-.55.55 7.78 7.78 0 0 1-7.23 6.4.4.4 0 0 1-.43-.41v-5.9a.67.67 0 0 0-.55-.67 25.88 25.88 0 0 1-5.06-1.38.67.67 0 0 0-.76.2 7.77 7.77 0 0 1-9.42 1.94.4.4 0 0 1-.16-.56l3-5.2a.67.67 0 0 0-.14-.84 26.44 26.44 0 0 1-3.7-3.71.66.66 0 0 0-.76-.2 7.79 7.79 0 0 1-9.31-3 .41.41 0 0 1 .14-.58l5.35-3.09a.66.66 0 0 0 .3-.79 25.66 25.66 0 0 1-1.23-4.9.7.7 0 0 0-.58-.57 7.76 7.76 0 0 1-6.73-7.27.4.4 0 0 1 .4-.43H66a.67.67 0 0 0 .65-.55A26.62 26.62 0 0 1 68 96a.7.7 0 0 0-.22-.8 7.76 7.76 0 0 1-2.36-9.78.41.41 0 0 1 .57-.18l5.71 3.3a.66.66 0 0 0 .84-.14A25.56 25.56 0 0 1 76 85a.67.67 0 0 0 .17-.8A7.79 7.79 0 0 1 79 74.39a.42.42 0 0 1 .58.14l3.35 5.81a.67.67 0 0 0 .81.29 26.12 26.12 0 0 1 4.6-1.2.67.67 0 0 0 .55-.61 7.79 7.79 0 0 1 7.33-7.19.42.42 0 0 1 .42.42v6.72a.67.67 0 0 0 .55.66 26.27 26.27 0 0 1 4.61 1.22.69.69 0 0 0 .78-.26 7.78 7.78 0 0 1 9.92-2.54.41.41 0 0 1 .16.57l-3.32 5.76a.65.65 0 0 0 .15.84 27 27 0 0 1 3.78 3.78 7.77 7.77 0 0 1 10.21 2.57.4.4 0 0 1-.14.58l-5.6 3.23a.67.67 0 0 0-.28.82 26.91 26.91 0 0 1 1.33 4.75.69.69 0 0 0 .59.54 7.78 7.78 0 0 1 6.81 7.29zm-10.76-3.39a2.74 2.74 0 1 0-2.74 2.73 2.74 2.74 0 0 0 2.74-2.73zm-9.15-.06A13.58 13.58 0 1 0 92.7 118.7a13.58 13.58 0 0 0 13.58-13.57zm-30.84.06a2.73 2.73 0 1 0-2.72 2.73 2.73 2.73 0 0 0 2.72-2.73z"/><path class="cls-5" d="M112.69 102.46a2.73 2.73 0 1 1-2.73 2.73 2.74 2.74 0 0 1 2.73-2.73zM92.7 91.55a13.58 13.58 0 1 1-13.57 13.58A13.58 13.58 0 0 1 92.7 91.55zm8 13.58a8 8 0 1 0-8 8 8 8 0 0 0 7.99-8z"/><circle class="cls-4" cx="92.7" cy="105.13" r="7.98"/><path class="cls-5" d="M72.72 102.46a2.73 2.73 0 1 1-2.72 2.73 2.73 2.73 0 0 1 2.72-2.73z"/><path class="cls-7" d="M119.33 101.29a.69.69 0 0 1-.59-.54 26.91 26.91 0 0 0-1.33-4.75.67.67 0 0 1 .28-.82l5.6-3.23a.4.4 0 0 0 .14-.58 7.77 7.77 0 0 0-10.21-2.57 27 27 0 0 0-3.78-3.8.65.65 0 0 1-.15-.84l3.32-5.76a.41.41 0 0 0-.16-.57 7.78 7.78 0 0 0-9.92 2.54.69.69 0 0 1-.78.26 26.27 26.27 0 0 0-4.61-1.22.67.67 0 0 1-.55-.66v-6.7a.42.42 0 0 0-.42-.42 7.79 7.79 0 0 0-7.33 7.19.67.67 0 0 1-.55.61 26.12 26.12 0 0 0-4.6 1.2.67.67 0 0 1-.81-.29l-3.35-5.81a.42.42 0 0 0-.58-.14 7.79 7.79 0 0 0-2.78 9.81.67.67 0 0 1-.17.8 25.56 25.56 0 0 0-3.45 3.37.66.66 0 0 1-.84.14L66 85.21a.41.41 0 0 0-.57.18 7.76 7.76 0 0 0 2.36 9.78.7.7 0 0 1 .21.83 26.62 26.62 0 0 0-1.34 4.72.67.67 0 0 1-.65.55h-6.4a.4.4 0 0 0-.4.43 7.76 7.76 0 0 0 6.79 7.24.7.7 0 0 1 .58.57 25.66 25.66 0 0 0 1.23 4.9.66.66 0 0 1-.3.79l-5.35 3.09a.41.41 0 0 0-.14.58 7.79 7.79 0 0 0 9.31 3 .66.66 0 0 1 .76.2 26.44 26.44 0 0 0 3.62 3.71.67.67 0 0 1 .14.84l-3 5.2a.4.4 0 0 0 .16.56 7.77 7.77 0 0 0 9.48-1.94.67.67 0 0 1 .76-.2 25.88 25.88 0 0 0 5.06 1.38.67.67 0 0 1 .55.67v5.9a.4.4 0 0 0 .43.41 7.78 7.78 0 0 0 7.23-6.4.66.66 0 0 1 .55-.55 26.88 26.88 0 0 0 5.07-1.37.68.68 0 0 1 .82.29l3 5.14a.41.41 0 0 0 .58.14 7.77 7.77 0 0 0 3-9.24.68.68 0 0 1 .2-.77 27.52 27.52 0 0 0 3.63-3.69.66.66 0 0 1 .85-.16l5.25 3a.39.39 0 0 0 .56-.16 7.77 7.77 0 0 0-2.13-9.62.69.69 0 0 1-.22-.77 25.8 25.8 0 0 0 1.25-4.91.67.67 0 0 1 .66-.56h6.25a.4.4 0 0 0 .41-.43 7.78 7.78 0 0 0-6.92-7.25z"/><path class="cls-7" d="M92.7 91.55a13.58 13.58 0 1 0 13.58 13.58A13.57 13.57 0 0 0 92.7 91.55z"/><circle class="cls-7" cx="92.7" cy="105.13" r="7.98"/><path class="cls-7" d="M72.72 102.46a2.73 2.73 0 1 1-2.72 2.73 2.73 2.73 0 0 1 2.72-2.73zm39.97 0a2.73 2.73 0 1 1-2.73 2.73 2.74 2.74 0 0 1 2.73-2.73z"/></svg>