<svg xmlns="http://www.w3.org/2000/svg" id="Layer_1" data-name="Layer 1" viewBox="35.53 40.82 172.01 174.36"><defs><style>.ventilation-3{fill:#fff}.ventilation-4{fill:var(--chakra-colors-primary-50)}.ventilation-5{fill:var(--chakra-colors-primary-400)}.ventilation-6{fill:none;stroke:var(--chakra-colors-primary-800);stroke-linecap:round;stroke-linejoin:round}</style></defs><path d="M118.77 215.09v-1.14c2 .09 4.06.12 6.06.06v1.15c-1.95.04-4.02.02-6.06-.07zm-4.59-.33c-2-.2-4.08-.47-6.08-.81l.19-1.13c2 .33 4 .6 6 .79zm15.32.16-.09-1.14c2-.16 4-.39 6-.68l.18 1.13c-2 .3-4.05.53-6.09.69zm10.63-1.48-.23-1.13c2-.4 4-.87 5.89-1.42l.3 1.11c-1.96.55-3.96 1-5.96 1.44zm10.36-2.79-.37-1.08c1.9-.64 3.81-1.35 5.67-2.13l.44 1.05c-1.88.79-3.82 1.51-5.74 2.16zm9.93-4-.5-1c1.82-.87 3.62-1.82 5.37-2.82l.56 1c-1.77.94-3.6 1.89-5.43 2.78zm-86.27-6.2c-1.69-1.14-3.36-2.35-5-3.6l.7-.9c1.58 1.23 3.24 2.43 4.9 3.55zm95.63 1-.61-1a88.65 88.65 0 0 0 5-3.44l.69.91c-1.66 1.18-3.36 2.35-5.08 3.45zm-104.16-7.56a84.604 84.604 0 0 1-4.49-4.19l.81-.81c1.42 1.43 2.91 2.81 4.43 4.13zM178.43 195l-.73-.88c1.54-1.28 3.06-2.64 4.52-4l.79.82c-1.47 1.42-3.01 2.8-4.58 4.06zM58 186.37c-1.36-1.5-2.69-3.09-4-4.69l.91-.71c1.24 1.59 2.55 3.15 3.89 4.63zm128.3 1.31-.83-.78c1.38-1.47 2.72-3 4-4.56l.89.73c-1.36 1.57-2.71 3.13-4.1 4.61zM51.27 178a86.879 86.879 0 0 1-3.34-5.14l1-.59c1 1.72 2.15 3.43 3.3 5.07zm141.84 1.45-.92-.68c1.18-1.62 2.33-3.31 3.4-5l1 .61c-1.11 1.69-2.27 3.39-3.48 5.04zM45.67 168.83c-1-1.8-1.85-3.66-2.68-5.51l1-.47c.82 1.84 1.71 3.66 2.65 5.44zm153.24 1.55-1-.56c1-1.76 1.91-3.57 2.76-5.4l1 .49c-.82 1.85-1.77 3.69-2.76 5.47zM35.53 127.57c0-1.81.07-3.66.2-5.46l.05-.67 1.14.08-.05.67c-.13 1.78-.19 3.6-.2 5.39zM37.37 117l-1.13-.14c.26-2 .59-4.06 1-6.06l1.12.23C38 113 37.63 115 37.37 117zm2-10.4-1.11-.29c.51-2 1.09-4 1.73-5.88l1.08.36c-.64 1.91-1.22 3.86-1.71 5.81zm167.06 1.46c-.46-2-1-3.92-1.6-5.83l1.09-.35c.61 2 1.15 3.94 1.62 5.92zM42.6 96.53l-1.07-.43c.75-1.89 1.57-3.78 2.45-5.63L45 91c-.84 1.78-1.66 3.65-2.4 5.53zm160.74 1.41c-.7-1.88-1.48-3.76-2.31-5.59l1-.48c.84 1.85 1.63 3.76 2.35 5.67zm-156.25-11-1-.55c1-1.78 2-3.56 3.13-5.29l1 .62c-1.14 1.68-2.22 3.43-3.13 5.19zm152 1.36c-.93-1.78-1.94-3.55-3-5.26l1-.59a79.79 79.79 0 0 1 3 5.33zM52.72 77.93l-.93-.66c1.19-1.66 2.46-3.3 3.75-4.86l.88.73a81.445 81.445 0 0 0-3.7 4.79zm140.86 1.28a89.675 89.675 0 0 0-3.6-4.86l.89-.71c1.27 1.58 2.51 3.24 3.66 4.92zM187 70.87c-1.33-1.5-2.73-3-4.18-4.38l.8-.82c1.46 1.43 2.88 2.92 4.24 4.45zM94.47 46.69l-.37-1.08c1.9-.67 3.9-1.28 5.9-1.81l.3 1.11c-1.99.53-3.93 1.09-5.83 1.78zm57.89.52c-1.88-.7-3.82-1.33-5.75-1.88l.32-1.1c2 .56 3.92 1.2 5.83 1.91zm-47.7-3.37-.24-1.11c2-.43 4-.79 6-1.08l.16 1.13c-1.95.3-3.95.65-5.92 1.06zm37.55.34c-2-.45-4-.83-6-1.15l.18-1.13c2 .32 4 .71 6 1.17zm-27.07-1.9-.1-1.14c2-.17 4.09-.28 6.12-.32v1.15c-1.98.03-4.02.14-6.02.31zm16.63.15c-2-.21-4-.35-6-.42v-1.14c2 .07 4.09.22 6.12.43z" style="fill:var(--chakra-colors-primary-800)"/><circle cx="123.34" cy="127.59" r="67.05" style="fill:var(--chakra-colors-primary-50)"/><path class="ventilation-3" d="M73.1 82.34a21.43 21.43 0 0 0-.88 3.42 22.54 22.54 0 0 0-.33 3.79 24.17 24.17 0 0 0 .21 3.09 22.11 22.11 0 0 0 .77 3.4 21 21 0 0 0 1.6 3.84 21.61 21.61 0 0 0 6 7 20.75 20.75 0 0 0 25.14 0 21.24 21.24 0 0 0 3.58-3.45 22.06 22.06 0 0 0 3.81-7.15 22.92 22.92 0 0 0 .8-3.46 22 22 0 0 0 .24-3.27 20.77 20.77 0 0 0-.33-3.81 21.45 21.45 0 0 0-5.14-10.66 21.15 21.15 0 0 0-3.78-3.35 20.74 20.74 0 0 0-23.41-.16 21.46 21.46 0 0 0-8.28 10.77zm45.67-13.92V110a4.72 4.72 0 0 1-4.72 4.72H72.51a4.72 4.72 0 0 1-4.72-4.72V68.42a4.72 4.72 0 0 1 4.72-4.72h41.54a4.72 4.72 0 0 1 4.72 4.72zm-2.76-1a1 1 0 0 0-2 0 1 1 0 1 0 2 0zm0 43.35a1 1 0 1 0-1 1 1 1 0 0 0 .99-.99zM72.62 67.43a1 1 0 1 0-1 1 1 1 0 0 0 1-1zm0 43.35a1 1 0 1 0-1 1 1 1 0 0 0 1-1z"/><path class="ventilation-4" d="M72.22 85.76a21.43 21.43 0 0 1 .88-3.42 21.46 21.46 0 0 1 8.28-10.77 20.74 20.74 0 0 1 23.41.16 21.15 21.15 0 0 1 3.78 3.35 21.44 21.44 0 0 1 5.14 10.66 20.77 20.77 0 0 1 .33 3.81 22 22 0 0 1-.24 3.27 22.92 22.92 0 0 1-.8 3.46 22.06 22.06 0 0 1-3.86 7.08 21.24 21.24 0 0 1-3.58 3.45 20.75 20.75 0 0 1-25.14 0 21.61 21.61 0 0 1-6-7A21 21 0 0 1 72.87 96a22.11 22.11 0 0 1-.77-3.4 24.17 24.17 0 0 1-.21-3.09 22.54 22.54 0 0 1 .33-3.75zM97.7 99.89c1.65 1.8 8-3.69 6.27-6.7a12.66 12.66 0 0 0-6.09-2.62h-.24a4.63 4.63 0 0 0 .21-1.34 4.27 4.27 0 0 0-.23-1.39l.26-.09a12.56 12.56 0 0 0 6.12-2.66c1.71-3-4.62-8.49-6.27-6.69s-2.88 6.43-2.88 6.43v.1a4.45 4.45 0 0 0-1.42-.23 4.29 4.29 0 0 0-1.57.29l-.06-.16s-1.16-4.55-2.88-6.43-8 3.69-6.27 6.69a12.56 12.56 0 0 0 6.08 2.63l.4.14a4.52 4.52 0 0 0-.2 1.34 4.63 4.63 0 0 0 .2 1.34h-.39a12.66 12.66 0 0 0-6.09 2.62c-1.71 3 4.62 8.5 6.28 6.7s2.88-6.43 2.88-6.43v-.06a4.41 4.41 0 0 0 1.59.3 4.19 4.19 0 0 0 1.46-.25S96 98 97.7 99.89z"/><path class="ventilation-5" d="M104 93.19c1.7 3-4.62 8.5-6.27 6.7s-2.89-6.43-2.89-6.43a4.49 4.49 0 0 0 2.83-2.91h.24a12.66 12.66 0 0 1 6.09 2.64zM97.69 78.4c1.65-1.8 8 3.69 6.27 6.69a12.56 12.56 0 0 1-6.08 2.63l-.26.09a4.47 4.47 0 0 0-2.85-2.88v-.1s1.23-4.55 2.92-6.43z"/><path class="ventilation-5" d="M97.85 89.2a4.63 4.63 0 0 1-.21 1.34 4.49 4.49 0 0 1-2.83 2.91 4.19 4.19 0 0 1-1.46.25 4.41 4.41 0 0 1-1.59-.3 4.5 4.5 0 0 1-2.71-2.86 4.63 4.63 0 0 1-.2-1.34 4.46 4.46 0 0 1 2.93-4.2 4.29 4.29 0 0 1 1.57-.29 4.48 4.48 0 0 1 4.27 3.11 4.27 4.27 0 0 1 .23 1.38zm-2.1 0a2.49 2.49 0 1 0-2.48 2.47 2.48 2.48 0 0 0 2.48-2.52z"/><path class="ventilation-3" d="M93.27 86.66a2.48 2.48 0 1 1-2.49 2.49 2.48 2.48 0 0 1 2.49-2.49z"/><path class="ventilation-5" d="m91.72 84.83.06.16a4.5 4.5 0 0 0-2.73 2.87l-.4-.14a12.56 12.56 0 0 1-6.08-2.63c-1.71-3 4.62-8.49 6.27-6.69s2.88 6.43 2.88 6.43zm.04 8.57v.06s-1.19 4.54-2.91 6.43-8-3.69-6.28-6.7a12.66 12.66 0 0 1 6.09-2.62h.39a4.5 4.5 0 0 0 2.71 2.83z"/><path class="ventilation-6" d="M113.71 85.74a20.77 20.77 0 0 1 .33 3.81 22 22 0 0 1-.24 3.27 22.92 22.92 0 0 1-.8 3.46 22.06 22.06 0 0 1-3.86 7.08 21.24 21.24 0 0 1-3.58 3.45 20.75 20.75 0 0 1-25.14 0 21.61 21.61 0 0 1-6-7A21 21 0 0 1 72.87 96a22.11 22.11 0 0 1-.77-3.4 24.17 24.17 0 0 1-.21-3.09 22.54 22.54 0 0 1 .33-3.79 21.43 21.43 0 0 1 .88-3.42 21.46 21.46 0 0 1 8.28-10.77 20.74 20.74 0 0 1 23.41.16 21.15 21.15 0 0 1 3.78 3.35 21.44 21.44 0 0 1 5.14 10.66z"/><path class="ventilation-6" d="M94.81 84.83s1.19-4.55 2.88-6.43 8 3.69 6.27 6.69a12.56 12.56 0 0 1-6.08 2.63m-6.16-2.89s-1.16-4.55-2.88-6.43-8 3.69-6.27 6.69a12.56 12.56 0 0 0 6.08 2.63m6.16 5.74S96 98 97.7 99.89s8-3.69 6.27-6.7a12.66 12.66 0 0 0-6.09-2.62m-6.15 2.89s-1.16 4.54-2.88 6.43-8-3.69-6.28-6.7a12.66 12.66 0 0 1 6.09-2.62m2.12-1.42a2.49 2.49 0 1 1 2.49 2.47 2.49 2.49 0 0 1-2.49-2.47zm2.45-21.09V79.4m.19 19.59-.14 11.84m9.66-21.77 11.04-.09m-30.33 0-11.64.09m2.8-10.26h6.69m-8.53 3.54h6.39m-.06 3.42h-7.08M89.57 74.9c-4-.07-7.91-.13-11.88-.18m12.16-3.15h-8.47m23.41.16H96.6m11.97 3.35H96.26m14.85 3.5h-6.39m8.14 3.83h-5.67m6.52 3.33h-6.46m6.55 7.08h-6.88m6.08 3.46h-6m4.54 3.45h-6.67m4.27 3.63H96.33m9.23 3.45h-9.2M90 103.36H76.8m13.4 3.49h-9.78M82 99.84h-7.49m5.41-3.8h-7.05m6.79-3.4H72.1M116 67.43a1 1 0 1 1-1-1 1 1 0 0 1 1 1zm0 43.35a1 1 0 1 1-2 0 1 1 0 0 1 2 0z"/><circle class="ventilation-6" cx="71.61" cy="67.43" r="1.01"/><circle class="ventilation-6" cx="71.61" cy="110.78" r="1.01"/><rect class="ventilation-6" x="67.79" y="63.7" width="50.98" height="50.99" rx="4.72"/><path class="ventilation-6" d="M97.62 87.81a4.27 4.27 0 0 1 .23 1.39 4.63 4.63 0 0 1-.21 1.34 4.49 4.49 0 0 1-2.83 2.91 4.19 4.19 0 0 1-1.46.25 4.41 4.41 0 0 1-1.59-.3 4.5 4.5 0 0 1-2.71-2.86 4.63 4.63 0 0 1-.2-1.34 4.46 4.46 0 0 1 2.93-4.2 4.29 4.29 0 0 1 1.57-.29 4.48 4.48 0 0 1 4.27 3.11z"/><path class="ventilation-3" d="M119.76 160.68a24.17 24.17 0 0 1 0 7l-49.27.32a25.65 25.65 0 0 1-.31-3.94 26 26 0 0 1 .19-3.07l49.39-.33z"/><path class="ventilation-3" d="m119.76 160.68-49.4.32a24.37 24.37 0 0 1 2-7l45.4-.31a24.28 24.28 0 0 1 2 6.99zm-.04 7a24.16 24.16 0 0 1-1.75 6.24l-45.64.31a24.49 24.49 0 0 1-1.84-6.23z"/><path class="ventilation-3" d="M118 173.92a24.75 24.75 0 0 1-4.57 7l-36.43.29a24.65 24.65 0 0 1-4.66-7zm-.28-20.24-45.4.31a24.51 24.51 0 0 1 4.7-7l35.91-.25a24.78 24.78 0 0 1 4.79 6.94z"/><path class="ventilation-5" d="M95.08 134.75a29.33 29.33 0 1 1-29.32 29.33 29.33 29.33 0 0 1 29.32-29.33zM120 164.08a23.77 23.77 0 0 0-.24-3.4 24.28 24.28 0 0 0-2-7 24.78 24.78 0 0 0-4.79-7A24.89 24.89 0 0 0 77 147a24.89 24.89 0 0 0-6.64 14 26 26 0 0 0-.19 3.07 25.65 25.65 0 0 0 .31 3.94 24.83 24.83 0 0 0 6.52 13.2 24.94 24.94 0 0 0 41-7.29 24.16 24.16 0 0 0 1.75-6.24 23.74 23.74 0 0 0 .25-3.6z"/><path class="ventilation-3" d="M113.41 181a24.91 24.91 0 0 1-36.41.26zm-18.33-41.83a24.79 24.79 0 0 1 17.84 7.53L77 147a24.76 24.76 0 0 1 18.08-7.83z"/><path class="ventilation-6" d="M70.48 168a25.65 25.65 0 0 1-.31-3.94 26 26 0 0 1 .19-3.07A24.89 24.89 0 0 1 77 147a24.89 24.89 0 0 1 35.91-.25M77 181.21A24.83 24.83 0 0 1 70.49 168"/><path class="ventilation-6" d="M112.93 146.7a24.78 24.78 0 0 1 4.79 7 24.28 24.28 0 0 1 2 7 24.17 24.17 0 0 1 0 7 24.16 24.16 0 0 1-1.75 6.24 24.92 24.92 0 0 1-41 7.29"/><circle class="ventilation-6" cx="95.08" cy="164.08" r="29.32"/><path class="ventilation-6" d="m77.01 146.94 35.91-.24h.01m4.78 6.98-45.4.31m47.44 6.69-49.39.33m49.36 6.67-49.23.34h-.01m47.49 5.9-45.64.31m4.65 6.98H77l36.41-.25"/><circle class="ventilation-3" cx="167.14" cy="124.2" r="4.61"/><path class="ventilation-5" d="M171.75 124.2a4.61 4.61 0 1 0-4.61 4.61 4.61 4.61 0 0 0 4.61-4.61zm2.85-1.38a7.87 7.87 0 0 1 .13 1.38A7.53 7.53 0 0 1 172 130a7.22 7.22 0 0 1-3.23 1.59 7.43 7.43 0 0 1-1.64.19 4.53 4.53 0 0 1-.82-.06 7.52 7.52 0 0 1-4.95-2.6 7.39 7.39 0 0 1-1.67-3.48 6.76 6.76 0 0 1-.15-1.44 5.7 5.7 0 0 1 .08-1 7.34 7.34 0 0 1 1.47-3.55 7.32 7.32 0 0 1 1.38-1.4 7.41 7.41 0 0 1 3.45-1.5 7 7 0 0 1 1.21-.1 6 6 0 0 1 1.29.12 7.62 7.62 0 0 1 6.17 6.09z"/><path class="ventilation-5" d="M187.58 104.94c1.33 1.36.65 5.7-1.42 10a23.17 23.17 0 0 1-5.66 7.61c-1.73.08-3.59.15-5.54.17l-.36.08a7.42 7.42 0 0 0-1.44-3.22 10.28 10.28 0 0 0 1.85-4.73c2.41-2.46 4.48-4.67 6.26-6.37 2.58-2.48 4.6-3.87 6.31-3.54z"/><path class="ventilation-5" d="M188.19 122.26c3.58-.05 6.06.29 7.09 1.71.05 1.89-3.42 4.61-7.91 6.34a21.67 21.67 0 0 1-10.67 1.54A10.51 10.51 0 0 1 172 130a7.53 7.53 0 0 0 2.72-5.8 7.87 7.87 0 0 0-.13-1.38l.36-.08c1.95 0 3.81-.09 5.54-.17 2.94-.14 5.51-.3 7.7-.31z"/><path class="ventilation-5" d="M172 130a10.51 10.51 0 0 0 4.68 1.85c2.45 2.39 4.65 4.45 6.36 6.23 2.46 2.58 3.9 4.6 3.56 6.32-1.33 1.32-5.6.67-9.9-1.37a22.86 22.86 0 0 1-7.72-5.71c-.08-1.73-.16-3.59-.18-5.54v-.19A7.22 7.22 0 0 0 172 130z"/><path class="ventilation-5" d="M168.82 131.78c0 1.95.1 3.81.18 5.54.14 3 .31 5.68.32 7.9 0 3.48-.32 5.87-1.72 6.88-1.85.05-4.47-3.25-6.22-7.57a22 22 0 0 1-1.65-11 10.2 10.2 0 0 1 1.64-4.4 7.52 7.52 0 0 0 4.95 2.6 4.53 4.53 0 0 0 .82.06 7.43 7.43 0 0 0 1.64-.19z"/><path class="ventilation-5" d="M159.7 125.64a7.39 7.39 0 0 0 1.67 3.48 10.2 10.2 0 0 0-1.64 4.4c-2.51 2.56-4.64 4.84-6.48 6.58-2.47 2.34-4.42 3.67-6.08 3.35-1.28-1.3-.7-5.39 1.19-9.55a23.19 23.19 0 0 1 5.9-8.07c1.74-.09 3.52-.15 5.44-.19z"/><path class="ventilation-5" d="M146.87 118.27a22.07 22.07 0 0 1 11.13-1.72 10.39 10.39 0 0 1 4.44 1.66 7.32 7.32 0 0 0-1.38 1.4 7.34 7.34 0 0 0-1.47 3.55 5.7 5.7 0 0 0-.08 1 6.76 6.76 0 0 0 .15 1.44c-1.92 0-3.74.1-5.44.18-3.14.14-5.9.32-8.16.32-3.34 0-5.65-.35-6.64-1.72 0-1.78 3.21-4.38 7.45-6.11z"/><path class="ventilation-5" d="M165.93 116.71a7.41 7.41 0 0 0-3.45 1.5 10.39 10.39 0 0 0-4.44-1.66c-2.56-2.52-4.86-4.66-6.59-6.5-2.32-2.46-3.65-4.4-3.33-6.06 1.31-1.29 5.45-.7 9.66 1.25a23.22 23.22 0 0 1 8 5.84c.07 1.73.15 3.57.17 5.53z"/><path class="ventilation-5" d="M173.43 104a21.81 21.81 0 0 1 1.57 10.86 10.28 10.28 0 0 1-1.85 4.73 7.45 7.45 0 0 0-4.73-2.87 6 6 0 0 0-1.29-.12 7 7 0 0 0-1.21.1v-.1c0-2-.1-3.8-.17-5.53-.15-3-.32-5.72-.33-8 0-3.46.34-5.84 1.72-6.85 1.86.02 4.54 3.39 6.29 7.78z"/><path class="ventilation-4" d="M186.16 115a20.92 20.92 0 0 1 2 7.3c-2.18 0-4.76.17-7.69.31a23.17 23.17 0 0 0 5.69-7.61zm-9.46 16.85a21.67 21.67 0 0 0 10.67-1.54 20.81 20.81 0 0 1-4.31 7.77c-1.71-1.78-3.91-3.84-6.36-6.23zm.02 11.15a20.63 20.63 0 0 1-7.4 2.19c0-2.22-.18-4.87-.32-7.9a22.86 22.86 0 0 0 7.72 5.71zm-16.99-9.48a22 22 0 0 0 1.65 11 20.63 20.63 0 0 1-8.13-4.43c1.84-1.73 3.97-4.01 6.48-6.57zm-5.47-7.7a23.19 23.19 0 0 0-5.9 8.07 21 21 0 0 1-2.26-7.75c2.26 0 5.02-.14 8.16-.32zm-2.81-15.77c1.73 1.84 4 4 6.59 6.5a22.07 22.07 0 0 0-11.17 1.72 20.7 20.7 0 0 1 4.58-8.22zm13.97-6.92c0 2.23.18 4.91.33 8a23.22 23.22 0 0 0-8-5.84 20.73 20.73 0 0 1 7.67-2.16zm15.86 5.36c-1.78 1.7-3.85 3.91-6.26 6.37a21.81 21.81 0 0 0-1.59-10.86 20.86 20.86 0 0 1 7.85 4.49z"/><path class="ventilation-3" d="M167.14 91.94a32.25 32.25 0 1 1-32.24 32.26 32.25 32.25 0 0 1 32.24-32.26zm20.23 38.37c4.49-1.73 8-4.45 7.91-6.34-1-1.42-3.51-1.76-7.09-1.71a20.92 20.92 0 0 0-2-7.3c2.07-4.32 2.75-8.66 1.42-10-1.71-.33-3.73 1.09-6.3 3.55a20.86 20.86 0 0 0-7.85-4.48c-1.75-4.4-4.41-7.77-6.29-7.73-1.38 1-1.74 3.39-1.72 6.85a20.73 20.73 0 0 0-7.64 2.11c-4.21-1.95-8.35-2.54-9.66-1.25-.32 1.66 1 3.6 3.33 6.06a20.7 20.7 0 0 0-4.58 8.22c-4.24 1.74-7.45 4.33-7.41 6.15 1 1.37 3.3 1.72 6.64 1.72a21 21 0 0 0 2.26 7.75c-1.89 4.16-2.47 8.25-1.19 9.55 1.66.32 3.61-1 6.08-3.35a20.63 20.63 0 0 0 8.13 4.43c1.75 4.32 4.37 7.62 6.22 7.57 1.4-1 1.74-3.4 1.72-6.88a20.63 20.63 0 0 0 7.4-2.19c4.3 2 8.57 2.69 9.9 1.37.34-1.72-1.1-3.74-3.56-6.32a20.81 20.81 0 0 0 4.28-7.78z"/><path class="ventilation-6" d="M167.14 91.94a32.25 32.25 0 1 0 32.25 32.26 32.25 32.25 0 0 0-32.25-32.26z"/><path class="ventilation-6" d="M157.78 105.24a20.73 20.73 0 0 1 7.64-2.11m8.01.87a20.86 20.86 0 0 1 7.85 4.48m-34.41 9.79a20.7 20.7 0 0 1 4.58-8.22m-5.35 16.09a21 21 0 0 0 2.26 7.75m28.36 9.11a20.63 20.63 0 0 1-7.4 2.19m13.74-7.11a20.81 20.81 0 0 0 4.31-7.77m-25.99 14.22a20.63 20.63 0 0 1-8.13-4.43m32.91-25.1a20.92 20.92 0 0 1 2 7.3"/><circle class="ventilation-6" cx="167.14" cy="124.2" r="4.61"/><path class="ventilation-6" d="M161.1 119.61a7.32 7.32 0 0 1 1.38-1.4 7.41 7.41 0 0 1 3.45-1.5 7 7 0 0 1 1.21-.1 6 6 0 0 1 1.29.12 7.62 7.62 0 0 1 6.17 6.09 7.87 7.87 0 0 1 .13 1.38A7.53 7.53 0 0 1 172 130a7.22 7.22 0 0 1-3.23 1.59 7.43 7.43 0 0 1-1.64.19 4.53 4.53 0 0 1-.82-.06 7.52 7.52 0 0 1-4.95-2.6 7.39 7.39 0 0 1-1.67-3.48 6.76 6.76 0 0 1-.15-1.44 5.7 5.7 0 0 1 .08-1 7.34 7.34 0 0 1 1.47-3.55"/><path class="ventilation-6" d="M173.17 119.59a10.28 10.28 0 0 0 1.85-4.73 21.81 21.81 0 0 0-1.59-10.86c-1.75-4.4-4.41-7.77-6.29-7.73-1.38 1-1.74 3.39-1.72 6.85 0 2.23.18 4.91.33 8 .07 1.73.15 3.57.17 5.53m14.58 5.92a23.17 23.17 0 0 0 5.66-7.61c2.07-4.32 2.75-8.66 1.42-10-1.71-.33-3.73 1.09-6.3 3.55-1.78 1.7-3.85 3.91-6.26 6.37"/><path class="ventilation-6" d="M176.7 131.85a21.67 21.67 0 0 0 10.67-1.54c4.49-1.73 8-4.45 7.91-6.34-1-1.42-3.51-1.76-7.09-1.71-2.18 0-4.76.17-7.69.31-1.73.08-3.59.15-5.54.17M172 130h0a10.51 10.51 0 0 0 4.68 1.85m-7.68 5.47a22.86 22.86 0 0 0 7.72 5.71c4.3 2 8.57 2.69 9.9 1.37.34-1.72-1.1-3.74-3.56-6.32-1.71-1.78-3.91-3.84-6.36-6.23h0"/><path class="ventilation-6" d="M161.37 129.12a10.2 10.2 0 0 0-1.64 4.4 22 22 0 0 0 1.65 11c1.75 4.32 4.37 7.62 6.22 7.57 1.4-1 1.74-3.4 1.72-6.88 0-2.22-.18-4.87-.32-7.9-.08-1.73-.16-3.59-.18-5.54m-14.56-5.95a23.19 23.19 0 0 0-5.9 8.07h0c-1.89 4.16-2.47 8.25-1.19 9.55 1.66.32 3.61-1 6.08-3.35 1.84-1.74 4-4 6.48-6.58"/><path class="ventilation-6" d="M162.48 118.21a10.39 10.39 0 0 0-4.44-1.66 22.07 22.07 0 0 0-11.17 1.72c-4.24 1.74-7.45 4.33-7.41 6.15 1 1.37 3.3 1.72 6.64 1.72 2.26 0 5-.18 8.16-.32 1.7-.08 3.52-.14 5.44-.18h.09m1.34-5.99h0v0"/><path class="ventilation-6" d="M158 116.55c-2.56-2.52-4.86-4.66-6.59-6.5-2.32-2.46-3.65-4.4-3.33-6.06 1.31-1.29 5.45-.7 9.66 1.25a23.22 23.22 0 0 1 8 5.84"/><circle class="ventilation-6" cx="167.14" cy="124.19" r="21.03"/></svg>