<svg xmlns="http://www.w3.org/2000/svg" id="Layer_1" data-name="Layer 1" viewBox="68.8 69.86 229.72 227.59"><defs><style>.cls-1{fill:#0e4e91}.cls-3{fill:#fff}.cls-4{fill:none;stroke:#0e4e91;stroke-linecap:round;stroke-linejoin:round}.cls-5{fill:#2db5ff}.cls-7{fill:#caf5fe}</style></defs><path class="cls-1" d="m121.51 278.74.81-1.26c2.22 1.44 4.52 2.81 6.82 4.08l-.72 1.32c-2.34-1.29-4.66-2.68-6.91-4.14zm-5-3.41c-2.17-1.57-4.31-3.24-6.36-4.95l1-1.15c2 1.69 4.14 3.33 6.28 4.88zm17.26 10.33.66-1.35c2.37 1.15 4.82 2.23 7.27 3.21l-.56 1.4c-2.47-1-4.95-2.09-7.36-3.26zm13 5.36.49-1.43c2.5.86 5.06 1.63 7.61 2.3l-.38 1.45c-2.55-.68-5.14-1.46-7.68-2.34zm13.6 3.7.31-1.47c2.57.53 5.2 1 7.82 1.33l-.2 1.49c-2.61-.35-5.3-.81-7.89-1.35zm13.93 2 .13-1.5c2.63.21 5.3.33 7.93.36v1.5c-2.64-.03-5.36-.15-8.02-.36zm-93.68-64.18a115.44 115.44 0 0 1-3.25-7.38l1.39-.55c1 2.45 2.06 4.9 3.21 7.27zM188.43 297l-.07-1.5c2.64-.11 5.31-.32 7.93-.61l.16 1.49c-2.65.28-5.35.49-8.02.62zM75.27 219.49c-.86-2.53-1.64-5.12-2.32-7.72l1.45-.38c.67 2.56 1.44 5.12 2.29 7.62zm127.17 76-.25-1.48c2.6-.43 5.22-1 7.8-1.58l.34 1.46c-2.6.66-5.26 1.2-7.89 1.63zm-130.88-89.6c-.54-2.61-1-5.28-1.36-7.94l1.49-.2c.36 2.62.81 5.26 1.34 7.84zm144.61 86.47-.42-1.44c2.54-.75 5.07-1.59 7.54-2.52l.53 1.41c-2.5.93-5.08 1.79-7.65 2.55zM69.55 192c-.22-2.67-.35-5.37-.38-8h1.5c0 2.64.16 5.31.37 7.94zm159.88 95.59-.6-1.37c2.42-1.06 4.83-2.21 7.18-3.43l.69 1.33c-2.37 1.19-4.82 2.36-7.27 3.42zM69.25 177.86c.11-2.67.31-5.37.61-8l1.49.16c-.29 2.62-.49 5.29-.6 7.93zM242 281.13l-.76-1.29c2.27-1.35 4.53-2.79 6.7-4.29l.85 1.23c-2.21 1.52-4.49 2.99-6.79 4.35zM85.08 124.35c1.22-2 2.51-4.08 3.85-6l.49-.73 1.24.85-.49.72c-1.32 2-2.6 4-3.79 6zm9.09-10.75-1.17-.91c1.64-2.12 3.36-4.21 5.14-6.21l1.12 1c-1.77 1.97-3.48 4.03-5.09 6.12zm192.75 114.87c1.08-2.42 2.08-4.9 3-7.37l1.41.51c-.91 2.51-1.92 5-3 7.47zM103.31 103.12l-1.07-1.05c1.89-1.91 3.86-3.77 5.86-5.53l1 1.12c-1.99 1.74-3.93 3.58-5.79 5.46zm188.48 112.32c.76-2.52 1.45-5.11 2-7.68l1.46.33c-.59 2.61-1.29 5.23-2.07 7.79zM113.67 93.85l-.92-1.18c2.09-1.66 4.28-3.26 6.5-4.77l.85 1.24c-2.19 1.49-4.36 3.08-6.43 4.71zM295 201.92c.45-2.6.81-5.24 1.08-7.87l1.49.15c-.27 2.66-.64 5.35-1.09 8zm-169.88-116-.77-1.29c2.28-1.38 4.65-2.7 7-3.92l.68 1.33c-2.31 1.21-4.65 2.51-6.91 3.88zm171.4 102.19c.12-2.63.16-5.3.1-7.94h1.5c.06 2.68 0 5.39-.1 8.06zM137.46 79.46l-.61-1.37c2.44-1.09 5-2.11 7.47-3l.51 1.41c-2.48.88-4.96 1.89-7.37 2.96zm158.87 94.76c-.2-2.63-.49-5.29-.87-7.91l1.49-.21c.38 2.64.68 5.34.88 8zM150.49 74.58l-.44-1.44c2.56-.78 5.17-1.48 7.78-2.09l.34 1.47c-2.57.59-5.17 1.29-7.68 2.06zm144 85.86c-.51-2.59-1.13-5.19-1.83-7.74l1.45-.4c.71 2.59 1.33 5.23 1.86 7.84zM205.5 71.71l.29-1.47c2.62.51 5.25 1.13 7.83 1.83l-.39 1.44c-2.55-.69-5.15-1.29-7.73-1.8zm65.29 38.92c-1.68-2-3.45-4-5.28-5.95l1.09-1c1.85 1.93 3.65 4 5.35 6zm-51.85-35.4.47-1.43c2.53.84 5.08 1.78 7.56 2.79L226.4 78c-2.4-1-4.96-1.95-7.46-2.77zm42.35 25.25c-1.92-1.81-3.93-3.58-6-5.25l1-1.16c2.07 1.7 4.1 3.48 6.05 5.32zm-29.44-20.09.64-1.36c2.42 1.14 4.83 2.39 7.16 3.7l-.74 1.27c-2.3-1.26-4.67-2.49-7.06-3.61zm18.75 11.19c-2.13-1.57-4.34-3.08-6.57-4.49l.81-1.26c2.25 1.42 4.49 3 6.65 4.54z"/><circle cx="183.3" cy="184.33" r="88.87" style="fill:#abe7ff"/><path class="cls-3" d="M201.39 237.81h29.77v19.5h-29.77zm-48.77 0h29.77v19.5h-29.77z"/><path class="cls-4" d="M152.62 237.81h29.77v19.5h-29.77zm48.77 0h29.77v19.5h-29.77z"/><path class="cls-5" d="M172.23 247.18a19.75 19.75 0 0 1 39.5 0 19.76 19.76 0 0 1-39.51 0zM192 231.43a15.8 15.8 0 1 0 15.8 15.8 15.8 15.8 0 0 0-15.8-15.8z"/><circle class="cls-3" cx="191.82" cy="247.56" r="15.8"/><path class="cls-4" d="M191.82 227.81a19.73 19.73 0 0 1 19.74 19.69v.06a19.76 19.76 0 0 1-39.51 0v-.06a19.75 19.75 0 0 1 19.77-19.69z"/><circle class="cls-4" cx="191.82" cy="247.56" r="15.8"/><path class="cls-1" d="M189.18 246.82c.23 0 .42.3.42.68 0 .38-.19.68-.42.68h-7.76c-.24 0-.43-.3-.43-.68 0-.38.19-.68.43-.68zm3.39-1.57c0 .23-.31.42-.68.42-.38 0-.69-.19-.69-.42v-7.76c0-.24.31-.43.69-.43.37 0 .68.19.68.43z"/><path class="cls-5" d="M193.64 249.24a.57.57 0 0 1-.25-.74.56.56 0 0 1 .77-.1l9.29 5.81a.55.55 0 0 1 .25.74.55.55 0 0 1-.77.1z"/><path class="cls-1" d="M191.87 244.87a2.64 2.64 0 1 1-2.65 2.63 2.63 2.63 0 0 1 2.65-2.63z"/><path d="M191.87 245.85a1.65 1.65 0 1 1-1.65 1.65 1.65 1.65 0 0 1 1.65-1.65z" style="fill:#fafafa"/><path class="cls-1" d="M178.8 247a.53.53 0 0 1 .53.54.53.53 0 0 1-.53.53h-1.45a.54.54 0 0 1-.54-.53.54.54 0 0 1 .54-.54zm26.04 0a.53.53 0 0 0-.53.54.53.53 0 0 0 .53.53h1.45a.54.54 0 0 0 .54-.53.54.54 0 0 0-.54-.54zm-12.42 13.3a.53.53 0 0 0-.53-.53.54.54 0 0 0-.54.53v1.45a.54.54 0 0 0 .54.54.54.54 0 0 0 .53-.54zm0-26.78a.54.54 0 0 0-.53-.54.54.54 0 0 0-.54.54V235a.54.54 0 0 0 .54.54.54.54 0 0 0 .53-.54z"/><path class="cls-3" d="M175.59 171.59h24.15v25.91h-24.15z"/><path class="cls-4" d="M175.59 171.59h24.15v25.91h-24.15z"/><path class="cls-3" d="M175.59 100.55h24.15v24.33h-24.15z"/><path class="cls-4" d="M175.59 100.55h24.15v24.33h-24.15z"/><path class="cls-3" d="M171.59 129.73h31.9v38.03h-31.9z"/><path class="cls-5" d="M171.72 171.52h35.78v-45.8h-39.66v45.8zm0-41.91h31.9v38h-31.9z"/><path class="cls-4" d="M171.72 129.5h31.9v38.03h-31.9z"/><path class="cls-4" d="M171.72 171.41h35.78v-45.8h-39.66v45.8z"/><path class="cls-1" transform="rotate(-39.15 193.605 153.615)" d="M192.96 142.11h1.25v23.01h-1.25z"/><path class="cls-5" transform="rotate(-50.87 182.71 150.925)" d="M174.52 150.48h16.37v.89h-16.37z"/><path class="cls-1" d="M185.49 145.74a1.6 1.6 0 1 1 1.59 1.6 1.6 1.6 0 0 1-1.59-1.6zm.68 17.07H188v2.91h-1.83zm-13.06-15.78h2.91v1.83h-2.91zm13.06-16.85H188v2.91h-1.83zm13.14 16.85h2.91v1.83h-2.91z"/><path class="cls-3" d="M101.08 166.06h29.76v16.39h-29.76z"/><path class="cls-7" d="M131.38 162.49h-30.85a1.79 1.79 0 0 0-1.78 1.79 1.78 1.78 0 0 0 1.78 1.78h30.85a1.79 1.79 0 0 0 1.79-1.78 1.79 1.79 0 0 0-1.79-1.79z"/><path class="cls-4" d="M101.08 166.06h29.76v16.39h-29.76zm30.3-3.57h-30.85a1.79 1.79 0 0 0-1.78 1.79h0a1.78 1.78 0 0 0 1.78 1.78h30.85a1.79 1.79 0 0 0 1.79-1.78h0a1.79 1.79 0 0 0-1.79-1.79z"/><path class="cls-3" d="M127.18 138.38h-22.45a1 1 0 0 0-.94.87l-1.49 22.95h27.32l-1.5-22.95a.93.93 0 0 0-.94-.87z"/><path class="cls-4" d="M127.18 138.38h-22.45a1 1 0 0 0-.94.87l-1.49 22.95h27.32l-1.5-22.95a.93.93 0 0 0-.94-.87z"/><path class="cls-3" d="M101.08 197.46h29.76v16.39h-29.76z"/><path class="cls-7" d="M100.53 217.42h30.85a1.79 1.79 0 0 0 1.79-1.79 1.79 1.79 0 0 0-1.79-1.78h-30.85a1.78 1.78 0 0 0-1.78 1.78 1.79 1.79 0 0 0 1.78 1.79z"/><path class="cls-3" d="M104.73 241.53h22.45a.93.93 0 0 0 .94-.87l1.5-22.95H102.3l1.49 22.95a1 1 0 0 0 .94.87z"/><path class="cls-4" d="M101.08 197.46h29.76v16.39h-29.76z"/><path class="cls-4" d="M100.53 217.42h30.85a1.79 1.79 0 0 0 1.79-1.79h0a1.79 1.79 0 0 0-1.79-1.78h-30.85a1.78 1.78 0 0 0-1.78 1.78h0a1.79 1.79 0 0 0 1.78 1.79zm4.2 24.11h22.45a.93.93 0 0 0 .94-.87l1.5-22.95H102.3l1.49 22.95a1 1 0 0 0 .94.87z"/><path class="cls-1" d="M136.76 191.69h2.92a1.88 1.88 0 1 0 0-3.75h-2.92z"/><circle class="cls-7" cx="115.96" cy="189.82" r="21" transform="rotate(-76.44 115.969 189.82)"/><circle class="cls-4" cx="115.96" cy="189.82" r="21" transform="rotate(-76.44 115.969 189.82)"/><circle class="cls-3" cx="115.96" cy="189.82" r="16.53" transform="rotate(-18.2 113.801 188.032)"/><circle class="cls-4" cx="115.96" cy="189.82" r="16.53" transform="rotate(-18.2 113.801 188.032)"/><path class="cls-1" d="M117.77 189.82A1.82 1.82 0 1 1 116 188a1.81 1.81 0 0 1 1.77 1.82z"/><path class="cls-1" d="M116 192.41a2.6 2.6 0 1 1 2.59-2.59 2.6 2.6 0 0 1-2.59 2.59zm0-3.63a1 1 0 1 0 1 1 1 1 0 0 0-1-1zm0-8.98a.78.78 0 0 1-.78-.78v-2.93a.78.78 0 0 1 .78-.78.77.77 0 0 1 .77.78V179a.77.77 0 0 1-.77.8zm-5.55 1.48a.79.79 0 0 1-.68-.39l-1.46-2.54a.77.77 0 0 1 .28-1.06.78.78 0 0 1 1.07.28l1.46 2.54a.77.77 0 0 1-.28 1.06.82.82 0 0 1-.39.11zm-4.04 4.03a.67.67 0 0 1-.38-.11l-2.54-1.46a.78.78 0 0 1 .77-1.35l2.54 1.47a.77.77 0 0 1 .29 1.06.79.79 0 0 1-.68.39zm-1.47 5.51H102a.78.78 0 0 1 0-1.56h2.93a.78.78 0 0 1 0 1.56zm-1.06 6.97a.8.8 0 0 1-.68-.38.78.78 0 0 1 .29-1.07l2.54-1.46a.77.77 0 1 1 .77 1.34l-2.54 1.47a.75.75 0 0 1-.38.1zm5.12 5.11a.81.81 0 0 1-.39-.1.78.78 0 0 1-.28-1.07l1.46-2.54a.79.79 0 0 1 1.07-.28.77.77 0 0 1 .28 1.06l-1.46 2.54a.79.79 0 0 1-.68.39zm7 1.87a.78.78 0 0 1-.78-.78v-2.93a.78.78 0 0 1 .78-.78.77.77 0 0 1 .77.78V204a.77.77 0 0 1-.77.77zm6.93-1.87a.76.76 0 0 1-.67-.39l-1.47-2.51a.78.78 0 0 1 .29-1.06.77.77 0 0 1 1.06.28l1.47 2.54a.79.79 0 0 1-.29 1.07.76.76 0 0 1-.39.07zm5.07-5.11a.78.78 0 0 1-.39-.1l-2.54-1.47a.78.78 0 1 1 .78-1.34l2.54 1.46a.78.78 0 0 1-.39 1.45zm1.91-6.97H127a.78.78 0 0 1 0-1.56h2.93a.78.78 0 0 1 0 1.56zm-4.41-5.51a.78.78 0 0 1-.39-1.45l2.54-1.47a.78.78 0 0 1 .78 1.35l-2.54 1.46a.7.7 0 0 1-.39.11zm-4.03-4.03a.77.77 0 0 1-.39-.11.78.78 0 0 1-.29-1.06l1.47-2.54a.77.77 0 0 1 1.06-.28.78.78 0 0 1 .29 1.06l-1.47 2.54a.78.78 0 0 1-.67.39z"/><path class="cls-1" d="M114.45 189.58a.81.81 0 0 1-.42-.12l-5.46-3.46a.77.77 0 0 1-.25-1.07.79.79 0 0 1 1.08-.24l5.46 3.43a.78.78 0 0 1 .25 1.07.79.79 0 0 1-.66.39zm1.55 6.75a.78.78 0 0 1-.78-.78v-3.92a.78.78 0 0 1 .78-.78.77.77 0 0 1 .77.78v3.92a.77.77 0 0 1-.77.78z"/><path class="cls-7" d="M249.26 130.16h12.33v28.82h-12.33z"/><path class="cls-3" transform="rotate(90 255.505 144.755)" d="M242.82 140.39h25.38v8.75h-25.38z"/><path class="cls-4" d="M249.26 130.16h12.33v28.82h-12.33zm2.04 7.34h8.47m-8.47 5.59h8.47m-8.47 5.59h8.47m-8.47 5.6h8.47"/><path class="cls-7" d="M249.26 206.59h12.33v28.82h-12.33z"/><path class="cls-3" transform="rotate(90 255.51 221.19)" d="M242.82 216.82h25.38v8.75h-25.38z"/><path class="cls-4" d="M249.26 206.59h12.33v28.82h-12.33zm2.04 4.54h8.47m-8.47 5.59h8.47m-8.47 5.6h8.47m-8.47 5.59h8.47"/><path style="fill:#caf5fe;stroke:#0e4e91;stroke-linecap:round;stroke-linejoin:round" d="M253.34 156.56h4.22v52.66h-4.22z"/><path class="cls-7" d="M280.19 185v1H277v-1zm0-1.11V185H277c0-.37.06-.74.08-1.11zm0-2.22v1.11h-3.06v-1.11z"/><path class="cls-7" d="M280.19 180.77v.9h-3.09c0-.3 0-.6-.07-.9zm0 3.12h-3.08v-1.11h3.06zM277 185v.13a21.92 21.92 0 1 1 0-4.36V185zm-4.78-2.11a16.83 16.83 0 1 0-16.83 16.83 16.85 16.85 0 0 0 16.85-16.83z"/><path class="cls-3" d="m269.79 181.95-.81 1.23-.45-.42.45-.81h.81z"/><path class="cls-1" d="M269.79 182H269l-.45.81.45.42zm-.39-.42a1.24 1.24 0 1 1-1.23 1.23 1.23 1.23 0 0 1 1.23-1.28z"/><path class="cls-3" d="m267.9 176.03-.8 1.24-.46-.42.46-.82h.8zm-.09 11.25-.81 1.23-.46-.41.46-.82h.81z"/><path class="cls-1" d="m267.1 177.27.8-1.23h-.8l-.46.81zm.41-1.66a1.24 1.24 0 1 1-1.23 1.24 1.24 1.24 0 0 1 1.23-1.24zm.3 11.67H267l-.46.82.46.41zm-.39 2.06a1.24 1.24 0 1 1 1.24-1.24 1.24 1.24 0 0 1-1.24 1.24zm-2.8-12.79-6.16 7-1.46.45-.7-.47a.6.6 0 0 0-.4-.44l-.2-.31.59-1.55z"/><path class="cls-3" d="m263.29 170.28-.81 1.23-.45-.41.45-.82h.81zm-.1 22.71-.81 1.23-.45-.41.45-.82h.81z"/><path class="cls-1" d="m262.48 171.51.81-1.23h-.81l-.45.82zm.42-1.65a1.24 1.24 0 1 1-1.23 1.24 1.24 1.24 0 0 1 1.23-1.24zm.29 23.14h-.81l-.45.82.45.41zm-.39-.42a1.24 1.24 0 1 1-1.23 1.24 1.23 1.23 0 0 1 1.23-1.25zm-4.2-7.45-.44.65-2.16-1.39.15-.13.81-.24 1.64 1.11z"/><path class="cls-3" d="M256.26 183.55a.49.49 0 0 1 0 .12.59.59 0 0 1-.48.58l-.2-.12v-1h.09a.38.38 0 0 1 .18 0l.19.3z"/><path class="cls-3" d="m256.26 183.55-.21-.14-.19-.3a.6.6 0 0 1 .4.44z"/><path class="cls-1" d="m257 184-.81.24-.15.13-.21-.14a.59.59 0 0 0 .48-.58.49.49 0 0 0 0-.12z"/><path class="cls-3" d="m255.95 195.85-.81 1.24-.45-.42.45-.82h.81z"/><path class="cls-1" d="m255.66 182.8.2.31a.38.38 0 0 0-.18 0h-.09V183z"/><path class="cls-3" d="m255.85 168.14-.81 1.23-.45-.42.45-.81h.81z"/><path class="cls-1" d="m255.79 184.25.21.14-.41.36v-.5h.2z"/><path class="cls-3" d="M255.79 184.25h-.2v-.12z"/><path class="cls-1" d="m255.66 182.8-.07.18v-.28l.07.1zm-.07 1.95v2.11h-.24v-1.9l.24-.21z"/><path class="cls-1" d="M255.59 184.25v.5l-.24.21v-.79a.68.68 0 0 0 .24.08z"/><path class="cls-3" d="M255.59 184.13v.12a.68.68 0 0 1-.24-.08V184h.05zm0-1.05v1l-.19-.13h-.05v-.57l.12-.11.08-.22z"/><path class="cls-1" d="M255.59 183v.1zm0-.3v.41a.5.5 0 0 0-.2.08v-.85z"/><path class="cls-1" d="M255.59 170.73v11.97l-.24-.38v-11.59h.24z"/><path class="cls-3" d="m255.55 183.09-.08.22-.12.11v-.25a.5.5 0 0 1 .2-.08z"/><path class="cls-3" d="M255.35 170.73v11.59l-.59-.92-6.69-2.93 5.59 5.18 1.18.24-2 1.8.71.82 1.78-1.55v1.9h.24v-2.11l.41-.36 2.16 1.39.44-.65L257 184l1.5-.46 6.16-7-8.37 4.7-.59 1.55-.07-.1v-12zm-1.12-1.73a1.24 1.24 0 1 0 1.23-1.23 1.23 1.23 0 0 0-1.23 1.23zm1.18-2.88a16.83 16.83 0 1 1-16.83 16.82 16.85 16.85 0 0 1 16.83-16.87zm15.23 16.69a1.24 1.24 0 1 0-1.24 1.19 1.23 1.23 0 0 0 1.24-1.24zm-1.89-5.91a1.24 1.24 0 1 0-1.24 1.24 1.24 1.24 0 0 0 1.24-1.29zm-.09 11.25a1.24 1.24 0 1 0-1.24 1.24 1.25 1.25 0 0 0 1.24-1.29zm-4.52-17a1.24 1.24 0 1 0-1.24 1.24 1.24 1.24 0 0 0 1.24-1.29zm-.1 22.71a1.24 1.24 0 1 0-1.24 1.24 1.23 1.23 0 0 0 1.2-1.29zm-7.24 2.86a1.24 1.24 0 1 0-1.24 1.24 1.25 1.25 0 0 0 1.24-1.29zm-7.88-25.37a1.24 1.24 0 1 0-1.24 1.24 1.24 1.24 0 0 0 1.24-1.29zm-.53 22.64a1.24 1.24 0 1 0-1.24 1.23 1.24 1.24 0 0 0 1.24-1.28zm-4-5.8a1.24 1.24 0 1 0-1.24 1.24 1.23 1.23 0 0 0 1.27-1.29zm-.1-11.42a1.24 1.24 0 1 0-1.23 1.24 1.24 1.24 0 0 0 1.26-1.29zm-1.82 6.17a1.24 1.24 0 1 0-1.23 1.24 1.24 1.24 0 0 0 1.26-1.29z"/><path class="cls-1" d="M255.35 184.17v.83l-1.78 1.55-.71-.82 2-1.8.32.06a.57.57 0 0 0 .17.18z"/><path class="cls-3" d="M255.35 184v.18a.57.57 0 0 1-.19-.22z"/><path class="cls-3" d="M255.35 183.42v.58h-.19a.54.54 0 0 1-.08-.28zm0-.25v.25l-.27.24a.63.63 0 0 1 .27-.49z"/><path class="cls-1" d="M255.35 182.32v.85a.63.63 0 0 0-.27.49l-.24.23-1.18-.24-5.59-5.18 6.69 2.93zm-.19 1.68-.32-.06.24-.23a.54.54 0 0 0 .08.29zm-.02 13.09.81-1.24h-.81l-.45.82zm-.82-.42a1.24 1.24 0 1 1 1.24 1.24 1.25 1.25 0 0 1-1.24-1.24zm.68-28.53-.45.81.45.42.81-1.23zm-.81.81a1.24 1.24 0 1 1 1.23 1.24 1.23 1.23 0 0 1-1.19-1.19z"/><path class="cls-3" d="m248.07 170.49-.81 1.23-.45-.42.45-.81h.81zm-.54 22.63-.8 1.23-.46-.41.46-.82h.8z"/><path class="cls-1" d="m247.26 171.71.81-1.23h-.81l-.45.82zm.42-1.65a1.24 1.24 0 1 1-1.23 1.24 1.24 1.24 0 0 1 1.23-1.24zm-.14 23.06h-.81l-.46.82.46.41zm-.39 2a1.24 1.24 0 1 1 1.24-1.23 1.24 1.24 0 0 1-1.24 1.28z"/><path class="cls-3" d="m243.57 187.33-.81 1.23-.45-.41.45-.82h.81zm-.09-11.42-.82 1.23-.45-.42.45-.81h.82z"/><path class="cls-1" d="M243.18 186.91a1.24 1.24 0 1 1-1.24 1.23 1.23 1.23 0 0 1 1.24-1.23zm-.42 1.65.81-1.23h-.81l-.45.81zm.72-12.65h-.82l-.45.81.45.42zm-.39-.43a1.24 1.24 0 1 1-1.24 1.24 1.24 1.24 0 0 1 1.24-1.24z"/><path class="cls-3" d="m241.65 182.08-.81 1.23-.45-.42.45-.81h.81z"/><path class="cls-1" d="M241.65 182.08h-.81l-.45.81.45.42zm-.38 2a1.24 1.24 0 1 1 1.23-1.24 1.23 1.23 0 0 1-1.23 1.29z"/><path class="cls-4" d="M277.13 182.78v1.11c0 .33 0 .74-.08 1.11v.13a21.92 21.92 0 1 1 0-4.36c0 .3.05.6.07.9s.01.74.01 1.11z"/><path class="cls-4" d="M255.41 199.72a16.83 16.83 0 1 1 16.83-16.83 16.85 16.85 0 0 1-16.83 16.83zM280.19 185v.99h-3.17v-5.22h3.17V185zm-3.17-3.33h3.17m-3.17 1.11h3.17m-3.17 1.11h3.17m-3.17 1.11h3.17"/></svg>