<svg xmlns="http://www.w3.org/2000/svg" id="Layer_1" data-name="Layer 1" viewBox="70.59 67.22 226.12 232.83"><defs><style>.woman-clothing-3{fill:#fff}.woman-clothing-5{fill:none;stroke:var(--chakra-colors-primary-800);stroke-linecap:round;stroke-linejoin:round}.woman-clothing-6{fill:var(--chakra-colors-primary-400)}</style></defs><path d="M120.54 286.53c-2.52-1.46-5-3-7.44-4.68l.93-1.36c2.38 1.62 4.85 3.18 7.33 4.61zM107.75 278c-2.3-1.76-4.58-3.65-6.76-5.6l1.1-1.23c2.15 1.92 4.4 3.78 6.67 5.53zm148.13-4.2-1.08-1.25c2.18-1.88 4.32-3.86 6.35-5.89l1.17 1.16c-2.07 2.05-4.23 4.06-6.44 5.96zM96.2 267.85c-2.06-2.05-4.07-4.22-6-6.43l1.25-1.08c1.88 2.18 3.86 4.32 5.89 6.35zM266.84 263l-1.23-1.1c1.92-2.15 3.78-4.39 5.53-6.67l1.31 1c-1.77 2.33-3.66 4.61-5.61 6.77zm-180.78-6.69c-1.78-2.31-3.5-4.71-5.1-7.15l1.38-.91c1.58 2.41 3.27 4.78 5 7.06zm190.26-5.4L275 250c1.62-2.37 3.18-4.84 4.62-7.33l1.43.83c-1.51 2.5-3.05 5.01-4.73 7.41zm7.83-13.23-1.47-.75c1.29-2.57 2.51-5.22 3.61-7.88l1.53.63c-1.12 2.7-2.35 5.39-3.67 8zm6-14.16-1.55-.55c.95-2.71 1.8-5.5 2.55-8.27l1.59.42c-.74 2.82-1.6 5.64-2.57 8.4zm4.11-14.81-1.62-.33c.59-2.81 1.07-5.69 1.44-8.54l1.64.21c-.36 2.95-.85 5.81-1.44 8.66zm2.13-15.22-1.65-.12c.21-2.86.32-5.78.32-8.65v-.3h1.65v.29c.02 2.92-.09 5.88-.3 8.78zm-1.52-15.56c-.17-2.87-.45-5.77-.82-8.62l1.63-.22c.39 2.89.67 5.83.83 8.74zm-1.86-15c-.54-2.82-1.19-5.66-1.94-8.44l1.59-.43c.76 2.82 1.42 5.7 2 8.57zm-3.81-14.66c-.9-2.73-1.92-5.45-3-8.1l1.52-.64c1.12 2.69 2.16 5.46 3.08 8.22zm-217.09-7.75-1.52-.63c1.11-2.7 2.34-5.39 3.66-8l1.47.75c-1.29 2.56-2.51 5.22-3.61 7.88zm6.7-13.61-1.43-.82c1.46-2.53 3-5 4.67-7.45l1.37.93c-1.62 2.43-3.17 4.85-4.61 7.34zm8.42-12.6-1.31-1c1.78-2.32 3.66-4.59 5.6-6.77l1.23 1.1c-1.91 2.13-3.75 4.36-5.52 6.67zm10-11.41L96 101.74c2.06-2.07 4.23-4.08 6.43-6l1.12 1.26c-2.18 1.88-4.31 3.87-6.34 5.9zm159.06-4.71c-2.15-1.91-4.4-3.77-6.68-5.52l1-1.31c2.32 1.77 4.59 3.66 6.77 5.6zM108.58 92.9l-1-1.31c2.31-1.78 4.71-3.5 7.15-5.1l.9 1.38c-2.39 1.58-4.77 3.27-7.05 5.03zm135.73-4c-2.38-1.62-4.85-3.16-7.34-4.6l.82-1.43c2.53 1.46 5 3 7.45 4.67zm-123.16-4.4-.83-1.5c2.53-1.47 5.14-2.85 7.76-4.12l.72 1.48c-2.59 1.28-5.16 2.64-7.65 4.1zm110.1-3.29c-2.58-1.29-5.23-2.5-7.89-3.6L224 76c2.7 1.12 5.39 2.35 8 3.66zm-96.54-3.44-.63-1.52c2.69-1.12 5.45-2.15 8.22-3.07l.52 1.57c-2.73.86-5.45 1.88-8.11 2.98zm82.57-2.47c-2.72-.94-5.5-1.8-8.28-2.53l.42-1.6c2.82.75 5.65 1.61 8.4 2.57zM149 72.84l-.43-1.59c2.81-.76 5.7-1.42 8.56-2l.31 1.62c-2.79.57-5.63 1.22-8.44 1.97zm53.63-1.6c-2.81-.58-5.68-1.06-8.54-1.42l.21-1.64c2.9.37 5.81.86 8.67 1.44zm-38.78-1.37-.21-1.63c2.89-.38 5.83-.66 8.74-.83l.09 1.65c-2.83.16-5.73.44-8.58.81zm23.78-.7c-2.79-.2-5.63-.3-8.44-.3H179v-1.65h.22c2.85 0 5.73.1 8.55.3z" style="fill:var(--chakra-colors-primary-800)"/><circle cx="179.01" cy="192.15" r="92.58" style="fill:var(--chakra-colors-primary-100)"/><path class="woman-clothing-3" d="m216 281.34.46 8.76c-7.68 2.09-16.34 2.82-25.56 2.75l-.47 5.76a92.67 92.67 0 0 1-28.33-.22l.23-6.23a106.14 106.14 0 0 1-26-1.61l1.15-9.68a79.12 79.12 0 0 1-19.35-7.13 48.25 48.25 0 0 0 14.51-23c3.93-14.51 11.37-38.82 25.61-48.43 0 0 6.77 3.2 18 3.2s18.08-2.34 18.08-2.34 15.52 7.26 23.12 38.59 17 33.17 17 33.17a46.35 46.35 0 0 1-18.45 6.41z"/><path d="m205.65 174.71-11.44 28.42s-6.88 2.34-18.08 2.34-18-3.2-18-3.2l-10.05-27.07c6.52-4.75 9.64-13 7.51-26.68h7.5s1.6 14 14 14 13.53-14.38 13.53-14.38h6.15s-4.77 22.27 8.88 26.57z" style="fill:var(--chakra-colors-primary-50)"/><path class="woman-clothing-5" d="m158.17 202.27-10.09-27.07c6.52-4.75 9.64-13 7.51-26.68h7.5s1.6 14 14 14 13.53-14.38 13.53-14.38h6.15s-4.79 22.26 8.85 26.56l-11.44 28.42s-6.88 2.34-18.08 2.34-17.93-3.19-17.93-3.19z"/><path class="woman-clothing-5" d="M158.17 202.27c-14.24 9.61-21.68 33.92-25.61 48.43a48.25 48.25 0 0 1-14.51 23 79.12 79.12 0 0 0 19.35 7.13l-1.15 9.68a106.14 106.14 0 0 0 26 1.61l-.23 6.23a92.67 92.67 0 0 0 28.33.22l.47-5.76c9.22.07 17.88-.66 25.56-2.75l-.46-8.76a46.35 46.35 0 0 0 18.43-6.45s-9.45-1.84-17-33.17-23.12-38.59-23.12-38.59"/><path class="woman-clothing-5" d="M137.4 280.87s5.77-10.12 7.6-20.49 8.76-26.26 8.76-26.26m8.52 58.04s-.23-20.5 1.61-28.1 3.46-29.26 3.46-29.26m18.65-.45s.22 22.1 2.76 30.63 2.08 27.87 2.08 27.87m8.53-59.19s3.89 17.06 7.6 23.49 9 24.19 9 24.19"/><path class="woman-clothing-3" d="M226.86 173.07c2.6.27 42.31.36 45.55 0s4-.45 4 .63a7.48 7.48 0 0 0 .06.87v.26a.59.59 0 0 0 0 .13v.42a2.5 2.5 0 0 1 .05.29c-13.83 3.8-44.9 1.54-53.2.56v-2.71c.11-1.08.92-.72 3.54-.45zm27.22 25.5c2.17-12.41 18-17.75 23.22-19.94l.06.29c.45 2.16.27 2.25-1.08 3s-8.91 4.68-14 7.65-6.66 8.55-7.29 8.82a3 3 0 0 1-.68.17z"/><path class="woman-clothing-6" d="M254.08 198.57a36.37 36.37 0 0 1-4.18.24h-3c-3.44-5.13-11.65-15.4-23.58-18.27.07-1.2.12-3 .15-4.54v.25c8.3 1 39.37 3.24 53.2-.56.18 1 .42 2.07.67 3.25l-.06-.29c-5.28 2.17-21.03 7.51-23.2 19.92z"/><path class="woman-clothing-3" d="M246.93 198.79h-1.15l-.22-.06h-.13l-.2-.1v-.05a.12.12 0 0 1-.05 0 52.52 52.52 0 0 0-6.66-6.12c-3.6-2.79-11-7.29-13.51-8.19s-1.89-1.17-1.71-2.43c0-.13 0-.31.06-.52a2.32 2.32 0 0 1 0-.24v-.34c11.92 2.65 20.13 12.92 23.57 18.05z"/><path class="woman-clothing-5" d="M276.56 174.83v-.26m.06.68v-.29m.74 3.96c-.25-1.18-.49-2.3-.67-3.25a2.5 2.5 0 0 0-.05-.29m-29.71 23.41c.93.05 2 0 3 0a36.37 36.37 0 0 0 4.18-.24h.27m-7.54.23h.09m-.34-.01h.18m-.99-.11h.5m-.85-.1h.13m-.38-.15v.05m-21.85-17.6a2.32 2.32 0 0 0 0 .24m.17-5.1c0 1.56-.08 3.34-.15 4.54m.17-5.83v1.12"/><path class="woman-clothing-5" d="M276.52 174.57a7.48 7.48 0 0 1-.06-.87c0-1.08-.81-1-4-.63s-43 .27-45.55 0-3.43-.63-3.34.45v2.73c8.3 1 39.37 3.24 53.2-.56h0l-.06-.29v-.42a.59.59 0 0 1 0-.13c-.17-.11-.18-.2-.19-.28zm-53.17 5.95v.34a2.32 2.32 0 0 0 0 .24c0 .21 0 .39-.06.52-.18 1.26-.81 1.53 1.71 2.43s9.91 5.4 13.51 8.19a52.52 52.52 0 0 1 6.66 6.12.12.12 0 0 0 .05 0v.05l.2.1h.13l.22.06h1.15m30.38-19.94.06.29c.45 2.16.27 2.25-1.08 3s-8.91 4.68-14 7.65-6.66 8.55-7.29 8.82a3 3 0 0 1-.68.17h-.27"/><path class="woman-clothing-6" d="M278.11 134.85a46.74 46.74 0 0 1 .26 5.58 21.79 21.79 0 0 1-2.46 9.78c-.7 1.23-.29 1.47-.23 2.69s.23 1.82-.23 1.82a13.74 13.74 0 0 0-3.34.23c-2.17.36-5.51 1.41-9.26.71s-5.85-3.52-7.09-3.75a46.6 46.6 0 0 0-7.55-.06c-2 .17-2.58 1.35-5.39 3s-8.26 1.12-9.66.47a16.73 16.73 0 0 0-5.28-.7c-.87 0-1-2.46-1.11-4.27s-.82-2.46-1.46-4.4a27.33 27.33 0 0 1-1-8.05c0-.52.07-1.15.15-1.83h.11c2.39-3.09 7.2-2.1 7.2-2.1 1.83 1.35 3.23 1.84 7.38 3.8s10.54 7.52 11.31 8.43 2.25.42 3.3-.84 7.94-6.67 11.17-8.92a51.16 51.16 0 0 1 6.65-3.85.55.55 0 0 0 .05-.2c3.02-.62 5.67 1.67 6.48 2.46z"/><path class="woman-clothing-3" d="M277.73 131c0 .76.2 2.06.38 3.85-.81-.79-3.46-3.08-6.48-2.41 0-.12 0-.32.07-.62.06-.76.11-5.62.11-8s.24-5.56.47-8.08 1.11-7.2 2.17-7.44 1.76.06 2.4 3.75.65 10.13.76 12.59.12 4.95.12 6.36zm-46.66-15c.4 5.23.7 18 .7 18s-4.81-1-7.2 2.1h-.11c.38-3.05 1.34-7.13 1.34-7.13s0-5 .17-7.74.37-13.16 2.48-13.06 2.22 2.63 2.62 7.83z"/><path class="woman-clothing-5" d="M231.77 134s-.3-12.77-.7-18-.5-7.74-2.62-7.84-2.31 10.29-2.48 13.06-.17 7.74-.17 7.74-1 4.08-1.34 7.13c-.08.68-.14 1.31-.15 1.83a27.33 27.33 0 0 0 1 8.05c.64 1.94 1.41 2.58 1.46 4.4s.24 4.27 1.11 4.27a16.73 16.73 0 0 1 5.28.7c1.4.65 6.85 1.24 9.66-.47s3.4-2.87 5.39-3a46.6 46.6 0 0 1 7.55.06c1.24.23 3.34 3 7.09 3.75s7.09-.35 9.26-.71a13.74 13.74 0 0 1 3.34-.23c.46 0 .29-.58.23-1.82s-.47-1.46.23-2.69a21.79 21.79 0 0 0 2.46-9.78 46.74 46.74 0 0 0-.26-5.58c-.18-1.79-.38-3.09-.38-3.85 0-1.41 0-3.87-.12-6.33s-.11-8.9-.76-12.59-1.35-4-2.4-3.75-1.93 4.92-2.17 7.44-.47 5.74-.47 8.08-.05 7.21-.11 8c0 .3-.05.5-.07.62a.55.55 0 0 1-.05.2 51.16 51.16 0 0 0-6.65 3.85c-3.23 2.25-10.11 7.66-11.17 8.92s-2.53 1.75-3.3.84-7.16-6.46-11.31-8.43-5.55-2.5-7.38-3.87z"/><path class="woman-clothing-5" d="M231.77 134s-4.81-1-7.2 2.1m47.06-3.66c3-.67 5.67 1.62 6.48 2.41"/><path class="woman-clothing-3" d="M184.89 113.36c4.33.86 5.39 1.63 4 3s-4.14 3.75-7.8 7.12-12.12 4.71-20.88 2.31-22.74-4.23-29.35-1.64c-7.12 2.8-12 1.83-18.66.29s-6.45-7.12-6.07-9.34 1.35-3.07 4-3.27 14.72-3.28 17.18-3.32l-.38 2.34c5.58 5 39.24 5.14 41.18-.86l-.2-1.65a168.31 168.31 0 0 0 16.98 5.02z"/><path class="woman-clothing-6" d="m167.91 108.33.2 1.65c-1.94 6-35.6 5.87-41.18.86l.38-2.34v-.24a.34.34 0 0 1 0-.1 2 2 0 0 1 0-.23c0-.17 0-.36.07-.57s0-.34.07-.53v-.06c2.26 2.46 12 3.69 21.64 3.49 8.61-.17 17.42-1 18.34-4.92.09.61.17 1.19.24 1.7 0 .13 0 .26.05.37s0 .07 0 .11l.06.45c0 .14 0 .27.05.38z"/><path class="woman-clothing-3" d="M166.66 99.73c.2 1.1.55 3.49.83 5.58-.92 4-9.73 4.75-18.34 4.92-9.66.2-19.38-1-21.64-3.49.52-3.65 2-11.62 4.74-15 3.37-4.23 10.29-5.62 15.4-5.67 3.85 0 11.25 1.34 15 5 2.35 2.27 3.45 5.63 4.01 8.66z"/><path class="woman-clothing-5" d="M167.78 107.38c0-.11 0-.24-.05-.37m.12.93-.06-.45m-40.49.99h0c-2.46 0-14.58 3.13-17.18 3.32s-3.57 1.07-4 3.27-.58 7.8 6.07 9.34 11.54 2.51 18.66-.29c6.61-2.59 20.6-.77 29.35 1.64s17.23 1 20.88-2.31 6.45-5.78 7.8-7.12.29-2.12-4-3a168.31 168.31 0 0 1-17-5m-40.55-.1v.24m.03-.57a2 2 0 0 0 0 .23m.14-1.33c0 .19 0 .37-.07.53m40.06-2.02c-.28-2.09-.63-4.48-.83-5.58-.56-3-1.62-6.39-4-8.7-3.76-3.66-11.16-5-15-5-5.11 0-12 1.44-15.4 5.67-2.72 3.42-4.22 11.39-4.74 15"/><path class="woman-clothing-5" d="M127.51 106.74v.06c0 .19 0 .37-.07.53s-.05.4-.07.57a2 2 0 0 0 0 .23.34.34 0 0 0 0 .1v.24h0v0l-.38 2.34c5.58 5 39.24 5.14 41.18-.86l-.2-1.65h0c0-.11 0-.24-.05-.38l-.06-.45v-.11c0-.04 0-.24-.05-.37-.07-.51-.15-1.09-.24-1.7-.92 4-9.73 4.75-18.34 4.92-9.74.22-19.46-1.01-21.72-3.47z"/><path class="woman-clothing-3" d="M112.57 150.53a.78.78 0 0 1 .67-.17c1.42.54 2.29.54 3.6 1.42s-.32 1.64-.87 5.35a23.29 23.29 0 0 0 .44 10.28c1 3.82 2.51 4 2.51 5.24s1.2 15 1.42 21c.2 5.63.89 22.74 1.6 26.7h-.07a29.52 29.52 0 0 1-5.36-1.17c-4-1.1-11-.86-14.22-.55a53.39 53.39 0 0 1-12.19-.06c-5.78-.62-9.84.74-11.93 2a7 7 0 0 1-5.48.86h-.07a4.12 4.12 0 0 1-.15-1.67c.21-2.62 1-10.49 1.64-17.82s1.42-26 1.64-28.09 1.09-1.52 2.62-4.48.65-7.54.55-11.91-1.2-4.59-.44-5.13a10.16 10.16 0 0 1 3.93-1.54h.18c.64 2.45 5.29 11.2 7.48 14.21 2.29 3.17 7.1 8 9.07 7.76s6.45-6.88 7.87-9.5a108.65 108.65 0 0 0 5.56-12.73z"/><path class="woman-clothing-6" d="M112.57 150.53a108.65 108.65 0 0 1-5.57 12.73c-1.42 2.62-5.9 9.28-7.87 9.5s-6.78-4.59-9.07-7.76c-2.19-3-6.84-11.76-7.48-14.21 1.48.25 4.5 7.11 14.58 7.11 9.18 0 13.51-6.18 15.41-7.37zM72.69 221.4a7 7 0 0 0 5.48-.86c2.09-1.23 6.15-2.59 11.93-2a53.39 53.39 0 0 0 12.19.06c3.2-.31 10.22-.55 14.22.55a29.52 29.52 0 0 0 5.36 1.17h.07a4.34 4.34 0 0 0 .15.62c.77 2.19-.77 2.52-4.59 2.3a27.59 27.59 0 0 0-11 2c-3.72 1.3-5.9-.55-8.74.21s-9.29-.43-12.9-2.18-4.81 0-8 0c-2.37 0-3.76-.49-4.22-1.83z"/><path class="woman-clothing-5" d="M82.59 150.79h-.18a10.16 10.16 0 0 0-3.93 1.54c-.76.54.33.76.44 5.13s1 9-.55 11.91-2.4 2.41-2.62 4.48-1 20.77-1.64 28.09-1.43 15.2-1.64 17.82a4.12 4.12 0 0 0 .15 1.67c.46 1.34 1.85 1.83 4.22 1.83 3.17 0 4.37-1.75 8 0s10.06 3 12.9 2.18 5 1.09 8.74-.21a27.59 27.59 0 0 1 11-2c3.82.22 5.36-.11 4.59-2.3a4.34 4.34 0 0 1-.15-.62c-.71-4-1.4-21.07-1.6-26.7-.22-6-1.42-19.79-1.42-21s-1.53-1.42-2.51-5.24a23.29 23.29 0 0 1-.44-10.28c.55-3.71 2.18-4.48.87-5.35s-2.18-.88-3.6-1.42a.78.78 0 0 0-.67.17c-1.9 1.19-6.23 7.37-15.4 7.37-10.06.04-13.08-6.86-14.56-7.07z"/><path class="woman-clothing-5" d="M82.59 150.79c.64 2.45 5.29 11.2 7.48 14.21 2.29 3.17 7.1 8 9.07 7.76s6.45-6.88 7.87-9.5a108.65 108.65 0 0 0 5.56-12.73m-3.79 20.73a40.15 40.15 0 0 0 2.16-15.33M82.2 153c.75 2.92 2.48 12.06 2.4 15.21M72.69 221.4a7 7 0 0 0 5.48-.86c2.09-1.23 6.15-2.59 11.93-2a53.39 53.39 0 0 0 12.19.06c3.2-.31 10.22-.55 14.22.55a29.52 29.52 0 0 0 5.36 1.17"/></svg>