<svg xmlns="http://www.w3.org/2000/svg" id="Layer_1" data-name="Layer 1" viewBox="69.82 68.96 227.67 229.41"><defs><style>.cls-1{fill:#0e4e91}.cls-3{fill:#caf5fe}.cls-4{fill:#fff}.cls-5,.cls-8{fill:none;stroke:#0e4e91;stroke-linecap:round;stroke-linejoin:round}.cls-6{fill:#2db5ff}.cls-8{fill-rule:evenodd}</style></defs><path class="cls-1" d="M187.12 298v-1.5c2.64-.06 5.31-.21 7.93-.45l.14 1.49c-2.69.24-5.39.4-8.07.46zm-6 0c-2.68-.08-5.38-.25-8-.52l.15-1.49c2.62.26 5.28.43 7.92.51zm20.06-1.14-.22-1.48c2.62-.39 5.25-.86 7.82-1.42l.32 1.46c-2.64.58-5.3 1.02-7.95 1.41zm13.75-2.86-.4-1.45c2.54-.7 5.09-1.5 7.58-2.37l.5 1.41c-2.52.84-5.11 1.65-7.68 2.41zm13.31-4.57-.57-1.39c2.42-1 4.85-2.11 7.22-3.28l.67 1.34c-2.4 1.14-4.86 2.26-7.32 3.28zm12.64-6.17-.74-1.3c2.29-1.3 4.56-2.7 6.76-4.16l.83 1.25c-2.23 1.43-4.53 2.85-6.85 4.16zm-113.46-.46c-2.31-1.34-4.61-2.78-6.83-4.27l.84-1.25c2.19 1.48 4.46 2.9 6.74 4.22zm125.24-7.21-.89-1.21c2.12-1.57 4.21-3.24 6.2-4.95l1 1.14c-2.04 1.68-4.16 3.37-6.31 4.97zm-137-.58c-2.13-1.6-4.23-3.31-6.25-5.07l1-1.13c2 1.73 4.06 3.42 6.16 5zm147.75-8.49-1-1.09c1.91-1.81 3.78-3.72 5.56-5.67l1.11 1c-1.83 1.93-3.72 3.87-5.65 5.71zM105 265.8c-1.91-1.85-3.79-3.8-5.58-5.79l1.11-1c1.77 2 3.62 3.89 5.51 5.72zm168-9.65-1.16-.95c1.67-2 3.29-4.17 4.82-6.31l1.22.86c-1.53 2.18-3.18 4.33-4.88 6.4zm-177.5-.74c-1.68-2.08-3.3-4.24-4.83-6.43l1.23-.86c1.51 2.16 3.11 4.3 4.76 6.35zm185.76-10.67-1.27-.81c1.41-2.22 2.76-4.53 4-6.86l1.32.72c-1.26 2.35-2.63 4.69-4.05 6.95zm-193.91-.8c-1.41-2.27-2.75-4.62-4-7l1.33-.7c1.23 2.33 2.56 4.65 3.95 6.89zM288 232.39l-1.36-.64c1.13-2.39 2.19-4.85 3.14-7.31l1.4.54c-.93 2.5-2 5.02-3.18 7.41zM70.42 190.83c-.14-2.37-.22-4.78-.22-7.16v-.88h1.5v.87c0 2.35.07 4.73.22 7.07zm1.48-14-1.49-.09c.16-2.67.41-5.36.76-8l1.48.19c-.34 2.63-.59 5.28-.75 7.92zm223.74-13.19c-.47-2.6-1-5.21-1.68-7.76l1.46-.37c.65 2.58 1.22 5.23 1.7 7.87zm-222.06-.6-1.48-.27c.49-2.63 1.07-5.28 1.74-7.86l1.45.38c-.66 2.57-1.23 5.17-1.71 7.77zm218.77-12.89c-.78-2.52-1.66-5-2.62-7.5l1.4-.54c1 2.49 1.86 5 2.65 7.59zm-215.41-.59-1.43-.45c.81-2.54 1.71-5.1 2.7-7.59l1.4.55c-.98 2.48-1.87 5-2.67 7.51zm210.48-12.39c-1.09-2.4-2.27-4.79-3.52-7.11l1.32-.71c1.27 2.35 2.47 4.77 3.57 7.2zM82 136.61l-1.41-.61c1.11-2.42 2.33-4.85 3.62-7.2l1.32.73c-1.28 2.3-2.48 4.68-3.53 7.08zm199-11.68c-1.37-2.25-2.84-4.48-4.37-6.63l1.22-.87c1.55 2.18 3 4.44 4.43 6.71zm-192.4-.58-1.28-.78c1.41-2.28 2.91-4.53 4.48-6.7l1.22.88c-1.62 2.14-3.1 4.36-4.49 6.6zm184.4-10.8a96.1 96.1 0 0 0-5.15-6l1.1-1c1.81 2 3.57 4 5.23 6.12zM96.56 113l-1.17-.94c1.67-2.08 3.44-4.13 5.26-6.09l1.1 1c-1.75 1.96-3.54 4.03-5.19 6.03zm167.13-9.79a106.3 106.3 0 0 0-5.85-5.37l1-1.14c2 1.74 4 3.57 5.93 5.44zM140.41 79.78l-.59-1.38c2.46-1 5-2 7.5-2.88l.49 1.42c-2.49.85-4.98 1.81-7.4 2.84zm75.79-4.46c-2.53-.74-5.12-1.4-7.69-1.95l.31-1.47c2.62.56 5.24 1.23 7.8 2zm-62.71-.17-.41-1.44c2.57-.74 5.19-1.39 7.81-1.94l.31 1.47c-2.58.54-5.2 1.18-7.71 1.91zm49.16-2.89c-2.59-.42-5.24-.75-7.87-1l.13-1.5c2.66.24 5.35.58 8 1zm-35.59-.09-.23-1.49c2.63-.41 5.32-.73 8-1l.12 1.49c-2.64.27-5.29.59-7.89 1zm21.77-1.27c-2.64-.1-5.31-.11-7.94 0v-1.5c2.66-.09 5.37-.08 8 0z"/><circle cx="186.14" cy="187.89" r="89.01" style="fill:#abe7ff"/><path class="cls-3" d="M248.55 142.88a3.59 3.59 0 0 1-.73 2.17c-1.11-.53-2.06-2.26-2.71-4.79a51.13 51.13 0 0 1 0-21.75c.65-2.53 1.6-4.26 2.71-4.78a3.54 3.54 0 0 1 .73 2.16z"/><path class="cls-4" d="M236.87 118.06c0-1.83-1-3.32-2.21-3.37h-.07c-1.25 0-2.27 1.52-2.27 3.38s1 3.37 2.27 3.37 2.28-1.53 2.28-3.38zm-2.43-5.8h10.48a3.62 3.62 0 0 1 2.9 1.47c-1.11.52-2.06 2.25-2.71 4.78a51.13 51.13 0 0 0 0 21.75c.65 2.53 1.6 4.26 2.71 4.79a3.64 3.64 0 0 1-2.9 1.46h-21v-34.25z"/><path class="cls-4" d="M234.59 121.43c-1.25 0-2.27-1.52-2.27-3.37s1-3.38 2.27-3.38h.07c1.22 0 2.21 1.54 2.21 3.37s-1.02 3.38-2.28 3.38z"/><path class="cls-3" d="M221.27 112.26h2.66v34.24h-2.66z"/><path class="cls-4" d="M209.28 114.68c1.26 0 2.27 1.52 2.27 3.38s-1 3.37-2.27 3.37-2.27-1.52-2.27-3.37.93-3.25 2.12-3.37z"/><path class="cls-4" d="M211.55 118.06c0-1.86-1-3.38-2.27-3.38h-.15c-1.19.12-2.12 1.58-2.12 3.37s1 3.37 2.27 3.37 2.27-1.51 2.27-3.36zm-2.21-5.8h11.93v34.25H199a3.62 3.62 0 0 1-2.9-1.46c1.11-.54 2.05-2.27 2.7-4.79a51.13 51.13 0 0 0 0-21.75c-.65-2.52-1.59-4.25-2.7-4.78a3.6 3.6 0 0 1 2.9-1.47z"/><path class="cls-3" d="M198.76 118.51a51.13 51.13 0 0 1 0 21.75c-.65 2.52-1.59 4.25-2.7 4.79a3.65 3.65 0 0 1-.73-2.17v-27a3.6 3.6 0 0 1 .73-2.16c1.11.54 2.05 2.28 2.7 4.79z"/><path class="cls-5" d="M196.06 145.05a3.65 3.65 0 0 1-.73-2.17v-27a3.67 3.67 0 0 1 3.63-3.63h46a3.62 3.62 0 0 1 2.9 1.47 3.54 3.54 0 0 1 .73 2.16v27a3.59 3.59 0 0 1-.73 2.17 3.64 3.64 0 0 1-2.9 1.46H199a3.62 3.62 0 0 1-2.9-1.46"/><path class="cls-5" d="M234.66 114.69c-.06-.83-.13-1.64-.22-2.43-1.11-9.83-4.61-16.48-7.75-19.58-2-2.48-7.87-2.57-9.86 0-3.14 3.1-6.45 9.75-7.49 19.58q-.14 1.18-.21 2.43m25.46 6.74c1.26 0 2.28-1.52 2.28-3.37s-1-3.32-2.21-3.37h-.07c-1.25 0-2.27 1.52-2.27 3.38s1.02 3.36 2.27 3.36z"/><path class="cls-5" d="M209.28 121.43c1.26 0 2.27-1.52 2.27-3.37s-1-3.38-2.27-3.38h-.15c-1.19.12-2.12 1.58-2.12 3.37s.99 3.38 2.27 3.38zm11.99 25.08v-34.25m2.66 34.25v-34.25m-27.87 1.47h0c1.11.53 2.05 2.26 2.7 4.78a51.13 51.13 0 0 1 0 21.75c-.65 2.52-1.59 4.25-2.7 4.79h0m51.76-31.32c-1.11.52-2.06 2.25-2.71 4.78a51.13 51.13 0 0 0 0 21.75c.65 2.53 1.6 4.26 2.71 4.79"/><path class="cls-4" d="M136.83 217.11a21.5 21.5 0 0 1 0 18.36h-32v-.23h20.31v-18.13h11.65z"/><path class="cls-4" d="M125.18 217.11v18.13h-20.31v-18.13h7.92v3.54a2.28 2.28 0 0 0 4.55 0v-3.54z"/><path class="cls-6" d="M117.34 217.11v3.54a2.28 2.28 0 0 1-4.55 0v-3.54zm-4.55-1.59h4.54v1.59h-4.54z"/><path class="cls-4" d="M104.87 235.24v.23H94.15a17.75 17.75 0 0 1 0-18.36h10.72z"/><path class="cls-5" d="M128.29 217.11h8.54a21.5 21.5 0 0 1 0 18.36H94.15a17.75 17.75 0 0 1 0-18.36h34.14z"/><path class="cls-5" d="M111.94 196a10.41 10.41 0 0 1 2.92-.43h.34a10 10 0 0 1 10 10v29.73h-20.33v-29.79a10 10 0 0 1 7.06-9.54"/><path class="cls-5" d="M108 217.11V203.9a9.92 9.92 0 0 1 4-7.93h0a9.88 9.88 0 0 1 6-2h.35a10 10 0 0 1 10 10v13.21"/><path class="cls-5" d="M117.34 217.11v3.54a2.28 2.28 0 0 1-4.55 0v-5.13h4.55z"/><path class="cls-3" d="M155.54 150.36v3.7a2.58 2.58 0 0 1-2.58 2.59h-7.22v-2.18a4.09 4.09 0 0 1 4.1-4.11z"/><path class="cls-4" d="M155.54 145.82v4.54h-5.7a4.09 4.09 0 0 0-4.1 4.11v2.18h-38.47v-2.18a4.12 4.12 0 0 0-4.11-4.11h-4.59v-4.54A20.49 20.49 0 0 1 113.86 126v3h-1.68v5.12h1.68v5.46h-1.68v5.13h1.68v3.91h4.37v-3.91h1.51v-5.13h-1.51v-5.46h1.51V129h-1.51v-3.67a7.49 7.49 0 0 1 .83 0h16.06V129h-1.68v5.12h1.68v5.46h-1.68v5.13h1.68v3.91h4.37v-3.91H141v-5.13h-1.51v-5.46H141V129h-1.51v-3.2a20.5 20.5 0 0 1 16.05 20.02z"/><path class="cls-6" d="M141 139.59v5.13h-7.56v-5.13H141zm0-10.58v5.12h-7.56v-5.12H141z"/><path class="cls-3" d="M135.12 144.72h4.37v3.91h-4.37zm0-10.59h4.37v5.46h-4.37zm4.37-8.33v3.2h-4.37v-7.43a4.18 4.18 0 0 0-4.17-4.17h-8.55a4.18 4.18 0 0 0-4.17 4.17V129h-4.37v-7.43a8.54 8.54 0 0 1 8.54-8.57h8.6a8.54 8.54 0 0 1 8.54 8.54z"/><path class="cls-6" d="M119.74 139.59v5.13h-7.56v-5.13h7.56zm0-10.58v5.12h-7.56v-5.12h7.56z"/><path class="cls-3" d="M113.86 144.72h4.37v3.91h-4.37zm0-10.59h4.37v5.46h-4.37zm-6.59 20.34v2.18h-6.11a2.59 2.59 0 0 1-2.59-2.59v-3.7h4.59a4.12 4.12 0 0 1 4.11 4.11z"/><path class="cls-5" d="M139.49 125.8a20.5 20.5 0 0 1 16 20v8.24a2.58 2.58 0 0 1-2.58 2.59h-51.8a2.59 2.59 0 0 1-2.59-2.59v-8.24a20.49 20.49 0 0 1 15.34-19.8m4.37-.66a7.49 7.49 0 0 1 .83 0h16.06"/><path class="cls-5" d="M98.57 150.36h4.59a4.12 4.12 0 0 1 4.11 4.11v2.18m38.47 0v-2.18a4.09 4.09 0 0 1 4.1-4.11h5.7m-37.31-5.64v3.91h-4.37v-3.91m0-5.13v-5.46m4.37 0v5.46M113.86 129v-7.43a8.54 8.54 0 0 1 8.54-8.57h8.6a8.54 8.54 0 0 1 8.54 8.54V129"/><path class="cls-5" d="M135.12 129v-7.43a4.18 4.18 0 0 0-4.17-4.17h-8.55a4.18 4.18 0 0 0-4.17 4.17V129m16.89 10.59v-5.46m4.37 0v5.46m0 5.13v3.91h-4.37v-3.91m-16.89-15.71h1.51v5.12h-7.56v-5.12h6.05zm21.26 0H141v5.12h-7.56v-5.12h6.05zm-21.26 10.58h1.51v5.13h-7.56v-5.13h6.05zm21.26 0H141v5.13h-7.56v-5.13h6.05z"/><path class="cls-4" d="M218.91 271.13v7.28h-6.2v-7.2a19 19 0 0 0-4.71-12.52 4.14 4.14 0 0 0 1.61-3.23v-3c.47.35.9.74 1.33 1.12a23.64 23.64 0 0 1 7.97 17.55z"/><path class="cls-3" d="M212.71 271.21v7.2h-42.55v-7.2a19.07 19.07 0 0 1 4.84-12.63 4.91 4.91 0 0 0 3.08 1.22h.25a4.59 4.59 0 0 0 4.78-4.35v-2.63a22.35 22.35 0 0 1 8.37-1.6 22.05 22.05 0 0 1 8.61 1.72v2.51a4.58 4.58 0 0 0 4.77 4.35h.11a4.87 4.87 0 0 0 3.05-1.12 19 19 0 0 1 4.69 12.53z"/><path class="cls-4" d="M204.94 249.49a26.65 26.65 0 0 1 4.66 3v3a4.14 4.14 0 0 1-1.61 3.23 4.87 4.87 0 0 1-3.05 1.12h-.11a4.58 4.58 0 0 1-4.77-4.35V253a22.05 22.05 0 0 0-8.61-1.72 22.35 22.35 0 0 0-8.37 1.6v2.63a4.59 4.59 0 0 1-4.78 4.35h-.25l.16-2.11h.09a2.34 2.34 0 0 0 2.45-2.23v-4.31h-2.54v-1.61a12.2 12.2 0 0 1 1.14-.58A29.63 29.63 0 0 1 204 249a9.94 9.94 0 0 1 .94.49zm0 1.66h-2.55v4.31a2.34 2.34 0 0 0 2.44 2.23h.11a2.49 2.49 0 0 0 1.54-.59 2.13 2.13 0 0 0 .79-1.64v-4.31z"/><path class="cls-6" d="M207.27 251.15v4.31a2.13 2.13 0 0 1-.79 1.64 2.49 2.49 0 0 1-1.54.59h-.11a2.34 2.34 0 0 1-2.44-2.23v-4.31h4.88zm-26.52 0v4.31a2.34 2.34 0 0 1-2.45 2.23h-.09a2.35 2.35 0 0 1-1.67-.72 2 2 0 0 1-.68-1.51v-4.31h4.89z"/><path class="cls-4" d="M178.21 249.6v1.55h-2.35v4.31a2 2 0 0 0 .68 1.51 2.35 2.35 0 0 0 1.67.72l-.16 2.11a4.91 4.91 0 0 1-3.08-1.22 19.07 19.07 0 0 0-4.81 12.63v7.2h-5.7v-7.28a23.73 23.73 0 0 1 9.07-18.46 27 27 0 0 1 4.68-3.07z"/><path class="cls-5" d="M179.35 249a29.63 29.63 0 0 1 24.65 0 9.94 9.94 0 0 1 .92.47 26.65 26.65 0 0 1 4.66 3c.47.35.9.74 1.33 1.12a23.64 23.64 0 0 1 8 17.53v7.28h-54.45v-7.28a23.73 23.73 0 0 1 9.07-18.46 27 27 0 0 1 4.68-3.07"/><path class="cls-5" d="M170.16 278.41v-7.2a19.07 19.07 0 0 1 4.84-12.63m33 .11a19 19 0 0 1 4.72 12.52v7.2m-29.64-25.58a22.35 22.35 0 0 1 8.37-1.6 22.05 22.05 0 0 1 8.61 1.72m4.88-1.8v-15.69c0-6.64-5.91-12-13.21-12h-.28c-7.31 0-13.24 5.4-13.24 12v14.14"/><path class="cls-5" d="M178.21 251.15v-1.55a12.2 12.2 0 0 1 1.14-.58m3.73 3.81v2.63a4.59 4.59 0 0 1-4.78 4.35h-.25a4.91 4.91 0 0 1-3.08-1.22"/><path class="cls-5" d="M178.21 251.15h2.54v4.31a2.34 2.34 0 0 1-2.45 2.23h-.09a2.35 2.35 0 0 1-1.67-.72 2 2 0 0 1-.68-1.51v-4.31zm31.39 1.33v3a4.14 4.14 0 0 1-1.61 3.23 4.87 4.87 0 0 1-3.05 1.12h-.11a4.58 4.58 0 0 1-4.77-4.35V253m4.88-3.98h-.92"/><path class="cls-5" d="M207.27 251.15v4.31a2.13 2.13 0 0 1-.79 1.64 2.49 2.49 0 0 1-1.54.59h-.11a2.34 2.34 0 0 1-2.44-2.23v-4.31h4.88z"/><path class="cls-4" d="M154.46 191.33h62.15v9.92h-62.15z"/><path class="cls-5" d="M154.46 191.33h62.15v9.92h-62.15z"/><path d="M153.65 172.13h63.78v22.66a1.74 1.74 0 0 1-1.73 1.73h-60.33a1.73 1.73 0 0 1-1.72-1.73z" style="fill-rule:evenodd;fill:#fff"/><path class="cls-8" d="M153.65 172.13h63.78v22.66a1.74 1.74 0 0 1-1.73 1.73h-60.33a1.73 1.73 0 0 1-1.72-1.73z"/><path class="cls-1" d="M160.39 194.24h3.13v.78h-3.13zm3.92 0h3.13v.78h-3.13zm3.91 0h3.13v.78h-3.13zm3.91 0h3.13v.78h-3.13zm3.91 0h3.13v.78h-3.13zm3.91.01h3.13v.78h-3.13zm3.91 0h3.13v.78h-3.13zm3.91 0h3.13v.78h-3.13zm3.91 0h3.13v.78h-3.13zm3.91 0h3.13v.78h-3.13zm3.91 0h3.13v.78h-3.13zm3.92 0h3.13v.78h-3.13zm3.91 0h3.13v.78h-3.13zm3.91 0h3.13v.78h-3.13zm-54.76 0h3.13v.78h-3.13zm58.67-17.99h.78v3.13h-.78zm0-4.13h.78v3.34h-.78zm.01 19.77h.78v3.13h-.78zm0-3.91h.78v3.13h-.78zm0-3.91h.78v3.13h-.78zm0-3.91h.78v3.13h-.78zm-60.03-3.91h.78v3.13h-.78zm0-4.13h.78v3.34h-.78zm.01 19.77h.78v3.13h-.78zm0-3.91h.78v3.13h-.78zm0-3.91h.78v3.13h-.78zm0-3.91h.78v3.13h-.78z"/><path style="fill-rule:evenodd;fill:#2db5ff" d="m185.54 177.89 6.1 5.63v18.47h-12.2v-18.46l6.1-5.64z"/><path class="cls-8" d="m185.54 177.89 6.1 5.63v18.47h-12.2v-18.46l6.1-5.64z"/><path class="cls-3" d="M177.95 187.33h15.17v3.37h-15.17z"/><path class="cls-5" d="M177.95 187.33h15.17v3.37h-15.17z"/><path class="cls-4" d="M248.87 209.81a7.72 7.72 0 0 1-1.8-1.47 10.09 10.09 0 0 1-2.27-4.63 6.51 6.51 0 0 1 1-4.26c1.14-2.18 2.65-4.25 3.92-6.43v2a17.32 17.32 0 0 0 3.63 3.39l-4.16 11-.14.36a17 17 0 0 0 4.52 1.94 19.11 19.11 0 0 1-4.72-2zm38.82 0c-3.29 2.05-9.12 3.26-15.4 3.61 6-.38 11.64-1.57 14.76-3.58l-.14-.37-4.07-10.79a17.71 17.71 0 0 0 4-3.64v-2c1.27 2.18 2.77 4.25 3.9 6.43a6.4 6.4 0 0 1 1 4.26 10.09 10.09 0 0 1-2.27 4.63 7.49 7.49 0 0 1-1.78 1.45z"/><path class="cls-4" d="M286.83 193v2a17.71 17.71 0 0 1-4 3.64 27.22 27.22 0 0 1-29.47-.25 17.32 17.32 0 0 1-3.63-3.39v-3.58h37.09z"/><path class="cls-6" d="M268.28 199.89a2.13 2.13 0 0 0 2.14-2.13 1.6 1.6 0 0 0-.09-.58 2.13 2.13 0 0 0-4.1 0 1.85 1.85 0 0 0-.09.58 2.14 2.14 0 0 0 2.14 2.13z"/><path class="cls-5" d="M268.28 199.89a2.13 2.13 0 0 0 2.14-2.13 1.6 1.6 0 0 0-.09-.58 2.13 2.13 0 0 0-4.1 0 1.85 1.85 0 0 0-.09.58 2.14 2.14 0 0 0 2.14 2.13z"/><path class="cls-3" d="M287.05 209.84c-3.12 2-8.71 3.2-14.76 3.58-.93.06-1.87.09-2.81.11h-4.1a55.1 55.1 0 0 1-10.62-1.39c-.39-.1-.78-.2-1.17-.32a17 17 0 0 1-4.52-1.94l.14-.36 4.16-11a27.22 27.22 0 0 0 29.47.25l4.07 10.79z"/><path class="cls-5" d="M253.59 211.78a19.11 19.11 0 0 1-4.72-2h0a7.72 7.72 0 0 1-1.8-1.47 10.09 10.09 0 0 1-2.27-4.63 6.51 6.51 0 0 1 1-4.26c1.14-2.18 2.65-4.25 3.92-6.43m15.66 20.5a55.1 55.1 0 0 1-10.62-1.39m32.07-19.1c1.27 2.18 2.77 4.25 3.9 6.43a6.4 6.4 0 0 1 1 4.26 10.09 10.09 0 0 1-2.27 4.63 7.49 7.49 0 0 1-1.79 1.47c-3.29 2.05-9.12 3.26-15.4 3.61-.93.07-1.86.1-2.81.11m-17.83-22.26a4.43 4.43 0 0 0 .07-.85 37.21 37.21 0 0 0-1.45-7.57c-1.35-5.31-2.85-11.17-.82-14a7.67 7.67 0 0 1 3.8-2.9 7.3 7.3 0 0 1 5 .26 10.6 10.6 0 0 1 3.17 2c3-4.31 7.61-8.1 12.86-8.1 6.39 0 11.14 1.55 14.25 4.81s4.5 8.19 4.24 15c-.15 3.8-2.12 5.65-4.08 7.48a10.81 10.81 0 0 0-3.18 4.13v.06"/><path class="cls-5" d="M264 173.61a9.36 9.36 0 0 0-2.34-5.43c-.3.51-.57 1-.82 1.53a15.73 15.73 0 0 0-1.32 3.83 6.14 6.14 0 0 0 0 2.89 2.15 2.15 0 0 0 2.26 1.5h.22a1.83 1.83 0 0 0 1.59-1.15 6 6 0 0 0 .45-2.52 6.32 6.32 0 0 0-.04-.65zm-10.59 24.7v.12l-4.16 11h0l-.14.36a17 17 0 0 0 4.52 1.94c.39.12.78.22 1.17.32a52 52 0 0 0 10.62 1.39c1.35 0 2.73.06 4.1 0 .94 0 1.88-.05 2.81-.11 6-.38 11.64-1.57 14.76-3.58l-.14-.37-4.07-10.79-.13-.37"/><path class="cls-5" d="M286.83 193v2a17.71 17.71 0 0 1-4 3.64 27.22 27.22 0 0 1-29.47-.25 17.32 17.32 0 0 1-3.63-3.39v-3.58h37.09z"/></svg>