<svg xmlns="http://www.w3.org/2000/svg" id="Layer_1" data-name="Layer 1" viewBox="35.42 40.15 173.76 172.27"><defs><style>.cls-1{fill:#0e4e91}.cls-3{fill:#fff}.cls-4{fill:#caf5fe}.cls-5,.cls-7{fill:none;stroke:#0e4e91}.cls-5{stroke-miterlimit:10}.cls-6{fill:#2db5ff}.cls-7{stroke-linecap:round;stroke-linejoin:round}</style></defs><path class="cls-1" d="m75.64 198.38.61-1c1.69 1.08 3.42 2.12 5.17 3.07l-.55 1c-1.76-.93-3.52-1.98-5.23-3.07zm-3.78-2.57a83.42 83.42 0 0 1-4.82-3.72l.73-.87c1.53 1.26 3.13 2.5 4.76 3.66zm13.08 7.76.49-1c1.81.86 3.66 1.67 5.51 2.41l-.42 1.02c-1.88-.73-3.75-1.56-5.58-2.43zm9.87 4 .36-1.08c1.89.63 3.83 1.21 5.76 1.71l-.28 1.1c-1.96-.49-3.92-1.08-5.84-1.72zm10.28 2.76.23-1.11c1.94.39 3.93.72 5.92 1l-.15 1.13c-2-.27-4.02-.61-6-1.01zm10.54 1.46.09-1.13c2 .16 4 .24 6 .25v1.13c-2.03-.04-4.07-.04-6.09-.24zm-71-48.22c-.89-1.82-1.72-3.69-2.48-5.57l1-.42c.75 1.85 1.58 3.7 2.45 5.49zM126.28 212v-1.13c2-.09 4-.25 6-.48l.14 1.12c-2.07.19-4.12.36-6.14.49zm-85.76-58.26c-.65-1.92-1.25-3.88-1.77-5.83l1.09-.3c.52 1.94 1.11 3.87 1.76 5.75zm96.34 57.08-.19-1.13c2-.33 3.94-.74 5.89-1.21l.27 1.1c-1.97.49-3.98.9-5.97 1.24zm-99.18-67.35c-.42-2-.78-4-1-6l1.12-.15c.29 2 .63 4 1 5.91zm109.56 64.92-.32-1.08c1.92-.58 3.82-1.23 5.69-1.93l.4 1.06c-1.89.71-3.83 1.37-5.77 1.95zM36.11 132.93c-.17-2-.28-4.06-.31-6.08h1.14c0 2 .14 4 .31 6zm121.13 71.77-.46-1c1.82-.8 3.65-1.68 5.42-2.61l.53 1c-1.79.91-3.64 1.8-5.49 2.61zM35.85 122.29c.07-2 .22-4.06.43-6.07l1.13.12c-.21 2-.35 4-.43 6zm130.86 77.53-.58-1c1.72-1 3.42-2.11 5.06-3.26l.65.93a77.481 77.481 0 0 1-5.13 3.33zM47.65 81.8c.91-1.55 1.88-3.1 2.89-4.59l.37-.55.94.64-.38.55c-1 1.47-1.95 3-2.85 4.53zm6.84-8.16-.9-.68c1.22-1.61 2.52-3.19 3.86-4.71l.86.75a89.61 89.61 0 0 0-3.82 4.64zm146 86.24c.8-1.83 1.56-3.71 2.23-5.59l1.06.39a93.51 93.51 0 0 1-2.25 5.65zM61.37 65.69l-.81-.79C62 63.45 63.46 62 65 60.7l.75.85a71.575 71.575 0 0 0-4.38 4.14zM204.16 150c.57-1.91 1.08-3.86 1.52-5.81l1.1.25c-.44 2-1 4-1.54 5.89zm-135-91.37-.7-.89c1.58-1.26 3.22-2.48 4.9-3.62l.65.94c-1.65 1.15-3.28 2.35-4.85 3.59zm137.38 81.14c.33-2 .6-4 .79-5.95l1.13.11c-.19 2-.46 4-.8 6zM77.8 52.63l-.6-1c1.72-1 3.52-2.06 5.32-3l.52 1c-1.78.96-3.54 1.95-5.24 3zm129.85 76.72c.09-2 .1-4 0-6h1.13c.06 2 0 4.07-.05 6.09zM87.1 47.71l-.46-1c1.84-.83 3.74-1.61 5.63-2.31l.39 1.07c-1.87.65-3.74 1.42-5.56 2.24zm120.37 71.14c-.16-2-.38-4-.68-6l1.12-.16c.31 2 .54 4 .7 6zM96.94 44l-.34-1.1c1.93-.6 3.91-1.14 5.88-1.61l.26 1.11c-1.95.46-3.9.98-5.8 1.6zM206 108.44c-.4-2-.87-3.92-1.41-5.84l1.09-.31c.55 1.95 1 3.94 1.43 5.92zm-67.5-66.8.21-1.12c2 .38 4 .84 5.94 1.36l-.3 1.1c-1.93-.51-3.89-.98-5.85-1.34zM188 70.86c-1.27-1.53-2.62-3-4-4.47l.82-.79c1.4 1.47 2.77 3 4.05 4.54zm-39.3-26.6.35-1.08c1.92.62 3.84 1.33 5.72 2.08l-.42 1.05c-1.89-.74-3.78-1.43-5.68-2.05zm32.08 19c-1.45-1.36-3-2.69-4.53-3.95l.72-.88c1.57 1.28 3.11 2.62 4.59 4zm-22.3-15.1.48-1c1.82.86 3.65 1.79 5.42 2.77l-.55 1c-1.78-1.04-3.58-1.93-5.38-2.81zm14.21 8.41a80.924 80.924 0 0 0-5-3.37l.6-1c1.7 1.07 3.4 2.22 5 3.41z"/><circle cx="123.08" cy="125.49" r="66.55" style="fill:#abe7ff"/><path class="cls-3" d="M101.28 101.56c2.34.27 3.89 2.57 3 3.25s-2.64.29-7.32.81a40 40 0 0 0-12.64 5.43 41.15 41.15 0 0 1-5.27.66c-5.58.45-13.29.47-13.47-1.87-.25-3.37 3.34-8.11 6.18-8.42 2.62-.29 3.74 1 3.61 4.68a21.92 21.92 0 0 0 3.76-.27 48.58 48.58 0 0 0 5.19-1.16c4.76-1.29 10.11-3.67 16.96-3.11z"/><path class="cls-4" d="M74.59 133.12a1.87 1.87 0 1 1-1.86 1.88 1.87 1.87 0 0 1 1.86-1.88zm-.98-43.24a1.87 1.87 0 1 1-1.87 1.86 1.87 1.87 0 0 1 1.87-1.86zm0 31.12a2.35 2.35 0 0 1-1.87 2.07v4.08a1.38 1.38 0 0 1-.4 1 1.41 1.41 0 0 1-1 .4 1.39 1.39 0 0 1-1-.41 1.35 1.35 0 0 1-.41-1v-4.24a2.17 2.17 0 0 1-1.33-1.9c0-1.24 1.35-2.25 3-2.25s3.01 1.05 3.01 2.25z"/><path class="cls-3" d="M69 122.91v4.24a1.35 1.35 0 0 0 .41 1 1.39 1.39 0 0 0 1 .41 1.41 1.41 0 0 0 1-.4 1.38 1.38 0 0 0 .4-1v-4.08a2.35 2.35 0 0 0 1.8-2.08c0-1.24-1.34-2.25-3-2.25s-3 1-3 2.25a2.17 2.17 0 0 0 1.39 1.91zm10.13 13.59a4.14 4.14 0 0 1-1.77 3.44L75 141.6a7.88 7.88 0 0 1-8.95.1l-2.63-1.77a4.2 4.2 0 0 1-1.85-3.47v-45.4a4.17 4.17 0 0 1 1.65-3.32l2.42-1.85a8.54 8.54 0 0 1 10.39 0l1.44 1.12a4.17 4.17 0 0 1 1.62 3.29v15.48a21.92 21.92 0 0 1-3.76.27c.13-3.72-1-5-3.61-4.68-2.84.31-6.43 5-6.18 8.42.18 2.34 7.89 2.32 13.47 1.87v.34s.1 18.13.12 24.5zm-2.67-1.5a1.87 1.87 0 1 0-1.87 1.87 1.87 1.87 0 0 0 1.87-1.87zm-1-43.25a1.87 1.87 0 1 0-1.87 1.87 1.87 1.87 0 0 0 1.89-1.88zm-7 43.25a1.87 1.87 0 1 0-1.87 1.87 1.87 1.87 0 0 0 1.93-1.87zm-.44-43.25a1.87 1.87 0 1 0-1.87 1.87 1.87 1.87 0 0 0 1.93-1.88z"/><path class="cls-4" d="M66.65 133.12a1.87 1.87 0 1 1-1.86 1.88 1.87 1.87 0 0 1 1.86-1.88zm-.44-43.24a1.87 1.87 0 1 1-1.86 1.86 1.87 1.87 0 0 1 1.86-1.86z"/><path class="cls-5" d="M79.11 105.83V90.35a4.17 4.17 0 0 0-1.62-3.29L76 85.94a8.54 8.54 0 0 0-10.39 0l-2.42 1.85a4.17 4.17 0 0 0-1.65 3.32v45.4a4.2 4.2 0 0 0 1.85 3.47L66 141.7a7.88 7.88 0 0 0 8.95-.1l2.37-1.66a4.14 4.14 0 0 0 1.77-3.44c.02-6.37-.09-24.5-.09-24.5"/><path class="cls-5" d="M66.21 89.88a1.87 1.87 0 1 1-1.86 1.86 1.87 1.87 0 0 1 1.86-1.86zm.44 43.24a1.87 1.87 0 1 1-1.86 1.88 1.87 1.87 0 0 1 1.86-1.88zm6.96-43.24a1.87 1.87 0 1 1-1.87 1.86 1.87 1.87 0 0 1 1.87-1.86zm.98 43.24a1.87 1.87 0 1 1-1.86 1.88 1.87 1.87 0 0 1 1.86-1.88zM69 122.91a2.17 2.17 0 0 1-1.4-1.91c0-1.24 1.35-2.25 3-2.25s3 1 3 2.25a2.35 2.35 0 0 1-1.87 2.07m-2.73-.14v4.24a1.35 1.35 0 0 0 .41 1 1.39 1.39 0 0 0 1 .41 1.41 1.41 0 0 0 1-.4 1.38 1.38 0 0 0 .4-1v-4.08M79 111.71c-5.58.45-13.29.47-13.47-1.87-.25-3.37 3.34-8.11 6.18-8.42 2.62-.29 3.74 1 3.61 4.68a21.92 21.92 0 0 0 3.76-.27 48.58 48.58 0 0 0 5.19-1.16c4.78-1.29 10.13-3.72 17-3.11 2.34.27 3.89 2.57 3 3.25s-2.64.29-7.32.81a40 40 0 0 0-12.64 5.43 41.15 41.15 0 0 1-5.31.66z"/><path class="cls-3" d="M129.37 167.67v21.6h-29.31v-21.6h2.47v10.8h24.53v-10.8h2.31z"/><path class="cls-6" d="M127.06 168.44v10.03h-24.53v-9.72h2.01V176h20.21l.14-7.56h2.17z"/><path class="cls-3" d="m124.75 130.88.14 37.56-.14 7.56h-5.29l.03-45.12h5.26zm-18.06 58.39h14.55v5.29h-14.55z"/><path class="cls-3" d="M113.9 130.88h5.58v45.11h-5.58zm-4.74 0h4.74v45.11h-4.74z"/><path class="cls-3" d="m109.17 130.88-.03 45.12h-4.6v-7.25l-.16-37.87h4.79z"/><path class="cls-7" d="M121.24 189.27h8.13v-21.6m-29.31 0v21.6h6.63m0 0h14.55v5.29h-14.55z"/><path class="cls-7" d="M102.53 167.67v10.8h24.53v-10.8m-24.53 0h-2.47m29.31 0h-2.31"/><path class="cls-7" d="M102.53 168.75h2.01l-.16-37.87"/><path class="cls-7" d="M127.06 168.44h-2.17l-.14 7.56h-20.21v-7.25m-.16-37.87h20.37m.14 37.56-.15-37.56m-28.48 63.69 36.81.1m-23.9-63.79-.03 45.12m4.78-45.12-.03 45.12m5.6-45.12-.03 45.12"/><path class="cls-3" d="M160.25 81.13v16.38h-4.61v-.27c0 .09-.09-15.21-.1-16.07z"/><path class="cls-3" d="m141.16 81.28-13 .1h-1.85v-14.2h34v13.95h-4.71z"/><path class="cls-4" d="M160.05 61.24v5.94h-33.76v-5.94z"/><path class="cls-3" d="M155.64 97.24v.27h-14.38v-.27c0 .09-.08-14.34-.1-16l14.38-.11c.01.87.11 16.2.1 16.11z"/><path class="cls-3" d="M141.26 97.24v.27h-13v-.14l-.1-16 13-.1c.02 1.63.11 16.06.1 15.97zm-13.02.13v.14h-13.58V81.4h1.61v1.46a1.26 1.26 0 0 0 1.26 1.27H125a1.26 1.26 0 0 0 .89-.37 1.27 1.27 0 0 0 .38-.9V81.4h1.85c.03 1.46.13 16.07.12 15.97z"/><path class="cls-6" d="M128.42 55.7a7.16 7.16 0 0 1-2.13 5.09v-6.34a1.1 1.1 0 0 0-.34-.79 1.08 1.08 0 0 0-.79-.34h-7.76a1.1 1.1 0 0 0-.8.34 1.13 1.13 0 0 0-.33.79v6.34a7.14 7.14 0 1 1 12.15-5.09z"/><path class="cls-4" d="M126.29 81.4v1.46a1.27 1.27 0 0 1-.38.9 1.26 1.26 0 0 1-.89.37h-7.49a1.26 1.26 0 0 1-1.26-1.27V54.45a1.13 1.13 0 0 1 .33-.79 1.1 1.1 0 0 1 .8-.34h7.76a1.08 1.08 0 0 1 .79.34 1.1 1.1 0 0 1 .34.79v27zm-.7-5a.78.78 0 0 0-1.56 0 .78.78 0 0 0 1.56 0zm-3.16 6.16a.78.78 0 0 0-.78-.77.78.78 0 0 0 0 1.55.78.78 0 0 0 .78-.79zm-.38-27.62a.78.78 0 1 0-.77.77.78.78 0 0 0 .77-.78zm-3.13 21.46a.78.78 0 0 0-1.55 0 .78.78 0 1 0 1.55 0z"/><circle class="cls-3" cx="124.81" cy="76.39" r=".78"/><circle class="cls-3" cx="121.65" cy="82.55" r=".78"/><circle class="cls-3" cx="121.28" cy="54.93" r=".78"/><circle class="cls-3" cx="118.15" cy="76.39" r=".78"/><path class="cls-3" d="M116.27 67.18V81.4h-1.61V67.18z"/><path class="cls-4" d="M116.27 61.24v5.94H105.1v-5.94z"/><path class="cls-5" d="M126.29 60.79v-6.34a1.1 1.1 0 0 0-.34-.79 1.08 1.08 0 0 0-.79-.34h-7.76a1.1 1.1 0 0 0-.8.34 1.13 1.13 0 0 0-.33.79v28.41a1.26 1.26 0 0 0 1.26 1.27H125a1.26 1.26 0 0 0 .89-.37 1.27 1.27 0 0 0 .38-.9V60.79z"/><path class="cls-5" d="M116.27 60.79a7.14 7.14 0 1 1 10 0"/><circle class="cls-5" cx="118.15" cy="76.39" r=".78"/><circle class="cls-5" cx="121.65" cy="82.55" r=".78"/><circle class="cls-5" cx="124.81" cy="76.39" r=".78"/><circle class="cls-5" cx="121.28" cy="54.93" r=".78"/><path class="cls-5" d="M126.29 61.24h33.76v5.93m-45.39 0h-9.56v-5.93h11.17m0 5.93h-1.61V97.5h45.59V67.17h-33.96"/><path class="cls-5" d="m126.29 81.4 1.85-.02 13.02-.1 14.38-.11 4.71-.04m-45.59.27h1.61"/><path class="cls-5" d="M141.16 81.13v.15c0 1.62.11 16 .1 16m14.28-16.15c0 .86.11 16.16.1 16.07m-27.5-15.94v.12c0 1.48.11 16.09.1 16"/><path class="cls-3" d="M170.06 110a19.84 19.84 0 1 1-14.42 6.2 19.85 19.85 0 0 1 14.42-6.2zm16.21 16.32a10.33 10.33 0 1 0-10.33 10.34 10.33 10.33 0 0 0 10.33-10.3z"/><path class="cls-6" d="M175.94 116a10.34 10.34 0 1 1-10.33 10.33A10.33 10.33 0 0 1 175.94 116zm2.74 12.7a5 5 0 1 0-3.31.08l-.85 5.76h5z"/><path class="cls-3" d="M181.88 124.1a5 5 0 0 1-3.2 4.63l.85 5.84h-5l.85-5.76a5 5 0 1 1 6.51-4.71zm-20.53 23.62h-3.14a15.85 15.85 0 0 1-2.57-31.48 19.85 19.85 0 0 0 5.71 31.48z"/><path class="cls-5" d="M186.13 124.63a10.33 10.33 0 1 1-8.42-8.45 10.34 10.34 0 0 1 8.42 8.45z"/><path class="cls-5" d="M155.64 116.24a19.85 19.85 0 1 1-5.43 13.65 19.85 19.85 0 0 1 5.43-13.65z"/><path class="cls-1" d="M180.71 142.59a16.24 16.24 0 0 1-5.59 3.07 16.52 16.52 0 0 1-6.41.65 16.78 16.78 0 0 1-15.11-18.1 16.62 16.62 0 0 1 1.79-6.19 16.41 16.41 0 0 1 4-5 17 17 0 0 0-5 11.2 16.86 16.86 0 0 0 .82 6.11 16.17 16.17 0 0 0 3 5.35 16.36 16.36 0 0 0 10.6 5.82 16.91 16.91 0 0 0 11.9-2.91z"/><path class="cls-5" d="m178.68 128.73.71 4.86a.85.85 0 0 1-.85 1h-3a.86.86 0 0 1-.85-1l.71-4.78a5 5 0 1 1 3.31-.08zm-23.04-12.49a15.84 15.84 0 0 0-13.27 15.7c0 8.8 7.51 15.78 16.31 15.78h2.67"/></svg>