<svg xmlns="http://www.w3.org/2000/svg" id="Layer_1" data-name="Layer 1" viewBox="42.52 41.14 172.37 173.82"><defs><style>.work-attire-3{fill:#fff}.work-attire-4{fill:var(--chakra-colors-primary-400)}.work-attire-5{fill:none;stroke:var(--chakra-colors-primary-800);stroke-miterlimit:10}</style></defs><path d="m206.48 165.36-1-.48c.86-1.82 1.67-3.68 2.4-5.54l1.06.42a93.09 93.09 0 0 1-2.46 5.6zm4-9.92-1.09-.36c.63-1.9 1.21-3.85 1.7-5.79l1.1.28c-.48 1.97-1.06 3.94-1.7 5.87zm2.74-10.34-1.12-.22c.39-1.95.72-4 1-5.95l1.13.14c-.23 2.01-.61 4.05-1 6.03zm1.43-10.59-1.13-.09c.15-2 .23-4 .23-6h1.14c0 2.01-.08 4.06-.23 6.09zM166.43 206c-1.82.9-3.7 1.74-5.58 2.51l-.43-1.05c1.85-.76 3.71-1.6 5.51-2.48zm48.37-82.2-1.14.06c-.1-2-.27-4-.51-6l1.14-.14c.23 2.01.41 4.06.51 6.09zm-58.25 86.33a89.61 89.61 0 0 1-5.84 1.8l-.3-1.1c1.94-.52 3.87-1.12 5.77-1.78zm57.06-96.95-1.12.19c-.35-2-.76-4-1.25-5.91l1.11-.27c.5 1.98.92 4 1.26 6zM146.25 213c-2 .42-4 .79-6 1.07l-.16-1.13c2-.29 4-.64 5.94-1.06zm64.9-110.26-1.09.33c-.59-1.93-1.24-3.85-2-5.72l1.07-.41a80.48 80.48 0 0 1 2.02 5.83zm-75.48 111.89c-2 .18-4.08.29-6.11.33v-1.14c2 0 4-.15 6-.33zm71.74-121.9-1 .47c-.81-1.83-1.7-3.66-2.64-5.44l1-.53c.92 1.77 1.82 3.65 2.64 5.5zM125 214.93c-2-.07-4.09-.21-6.1-.42l.11-1.13c2 .21 4 .34 6 .41zm77.49-131.7-1 .58c-1-1.72-2.14-3.42-3.3-5.06l.93-.66a71.81 71.81 0 0 1 3.35 5.14zm-40.24-33.84a77.12 77.12 0 0 0-5.62-2.22l.38-1.08c1.91.68 3.82 1.44 5.69 2.25zM68 189.46l-.79.82a92.591 92.591 0 0 1-4.23-4.42l.85-.76c1.37 1.49 2.77 2.96 4.17 4.36zm84.29-143.7c-1.91-.57-3.88-1.08-5.84-1.51l.25-1.11c2 .44 4 1 5.92 1.53zM61 181.65l-.9.71c-1.27-1.58-2.5-3.23-3.65-4.91l.94-.65a56.39 56.39 0 0 0 3.61 4.85zM142.05 43.4c-2-.33-4-.59-6-.78l.11-1.14c2 .19 4 .46 6.06.79zM54.87 173l-1 .59a75.083 75.083 0 0 1-3-5.33l1-.53c.95 1.8 1.95 3.56 3 5.27zm76.69-130.69c-2-.08-4-.09-6 0v-1.14c2-.06 4.09 0 6.11 0zM49.9 163.66l-1 .47c-.84-1.84-1.63-3.75-2.34-5.65l1.07-.39c.66 1.91 1.44 3.75 2.27 5.57zM121 42.53c-2 .16-4 .39-6 .7l-.17-1.13c2-.31 4.05-.55 6.07-.72zM46.13 153.79l-1.09.34c-.61-1.93-1.16-3.92-1.63-5.9l1.11-.26c.48 1.96 1 3.91 1.61 5.82zM110.55 44c-2 .41-3.92.89-5.86 1.44l-.31-1.1c2-.55 4-1 6-1.45zm-66.9 68-1.13-.21c.38-2 .83-4 1.35-6l1.1.29c-.5 2.02-.97 4-1.32 5.92zm29.21-49.74c-1.54 1.28-3 2.64-4.48 4l-.8-.82c1.47-1.41 3-2.79 4.55-4.09zm-26.61 39.56-1.09-.35c.63-1.93 1.33-3.86 2.08-5.75l1 .42c-.68 1.86-1.38 3.77-1.99 5.68zm19-32.29c-1.36 1.46-2.69 3-4 4.57l-.89-.72a88.5 88.5 0 0 1 4-4.63zM50.1 92l-1-.48c.85-1.84 1.78-3.68 2.76-5.46l1 .55c-.99 1.75-1.92 3.56-2.76 5.39zm8.4-14.31a95.109 95.109 0 0 0-3.37 5l-1-.6c1.07-1.72 2.22-3.43 3.41-5.08z" style="fill:var(--chakra-colors-primary-800)"/><circle cx="127.93" cy="127.29" r="66.86" style="fill:var(--chakra-colors-primary-50)"/><path class="work-attire-3" d="M119.31 133.37a1.91 1.91 0 0 1 0 2.71l-25.2 25.19-1.53 1.54a1.91 1.91 0 0 1-2.71 0l-2.32-2.32-24.42-24.41a1.93 1.93 0 0 1 0-2.71l26.74-26.73a1.9 1.9 0 0 1 2.71 0zm-4 2.51a1.64 1.64 0 0 0 0-2.32l-22.9-22.9a1.64 1.64 0 0 0-2.32 0l-22.9 22.9a1.64 1.64 0 0 0 0 2.32l22.9 22.9a1.64 1.64 0 0 0 2.32 0z"/><path class="work-attire-4" d="M115.28 133.56a1.64 1.64 0 0 1 0 2.32l-22.9 22.9a1.64 1.64 0 0 1-2.32 0l-22.9-22.9a1.64 1.64 0 0 1 0-2.32l22.9-22.9a1.64 1.64 0 0 1 2.32 0z"/><path class="work-attire-3" d="M94.11 161.27V189h-6.56v-28.51l2.32 2.32a1.91 1.91 0 0 0 2.71 0z"/><path class="work-attire-5" d="M94.11 161.27v27.75h-6.56v-28.53"/><path class="work-attire-5" d="m87.55 160.49-24.42-24.41a1.93 1.93 0 0 1 0-2.71l26.74-26.73a1.9 1.9 0 0 1 2.71 0l26.73 26.73a1.91 1.91 0 0 1 0 2.71l-25.2 25.19-1.53 1.54a1.91 1.91 0 0 1-2.71 0z"/><path class="work-attire-5" d="M115.28 133.56a1.64 1.64 0 0 1 0 2.32l-22.9 22.9a1.64 1.64 0 0 1-2.32 0l-22.9-22.9a1.64 1.64 0 0 1 0-2.32l22.9-22.9a1.64 1.64 0 0 1 2.32 0z"/><path class="work-attire-3" d="m82.55 133.71-1.33-5.22h.72l.62 2.64c.15.65.29 1.3.38 1.81.09-.52.25-1.14.43-1.82l.69-2.63h.71l.64 2.65c.14.62.28 1.24.36 1.79.1-.57.25-1.15.41-1.81l.7-2.63h.69l-1.49 5.22h-.7l-.62-2.71a16.42 16.42 0 0 1-.34-1.7A16.07 16.07 0 0 1 84 131l-.75 2.72zm10.17-2.66a2.44 2.44 0 0 1-2.42 2.75 2.4 2.4 0 0 1-2.3-2.65 2.48 2.48 0 0 1 2.42-2.75 2.38 2.38 0 0 1 2.3 2.65zm-4 .08c0 1.12.6 2.12 1.67 2.12s1.67-1 1.67-2.17-.59-2.08-1.72-2.08-1.67 1-1.67 2.13zm4.88-2.57a7 7 0 0 1 1.3-.11 2.11 2.11 0 0 1 1.51.43 1.29 1.29 0 0 1 .41 1 1.36 1.36 0 0 1-1 1.33 1.28 1.28 0 0 1 .76 1.05 7.78 7.78 0 0 0 .41 1.43h-.7a6.27 6.27 0 0 1-.35-1.24c-.16-.73-.44-1-1-1h-.63v2.26h-.71zm.68 2.38H95c.72 0 1.17-.4 1.17-1s-.48-1-1.2-1a2.77 2.77 0 0 0-.66.06zm3.49-2.45h.68V131l.41-.56 1.6-2h.84l-1.89 2.22 2 3h-.8l-1.73-2.56-.49.57v2h-.68zm-14.11 12.4a2.36 2.36 0 0 0 1.21.34c.69 0 1.1-.36 1.1-.89s-.28-.77-1-1-1.38-.74-1.38-1.48a1.51 1.51 0 0 1 1.69-1.42 2.31 2.31 0 0 1 1.16.26l-.19.55a2 2 0 0 0-1-.25c-.72 0-1 .43-1 .78s.32.73 1 1c.89.34 1.34.77 1.34 1.54s-.6 1.5-1.83 1.5a2.78 2.78 0 0 1-1.34-.33zm4.76-.82-.54 1.64h-.7l1.82-5.22h.81l1.79 5.22h-.72l-.56-1.64zm1.72-.53-.51-1.5c-.12-.34-.2-.65-.28-1-.08.31-.16.63-.26.95l-.52 1.51zm2.19-3.05h2.81v.56H93v1.74h2v.56h-2v2.36h-.67zm6.48 2.77h-2v1.89H99v.56h-2.9v-5.22h2.83v.56h-2.15v1.65h2z"/><path d="M66.11 122.69v-.24a1.89 1.89 0 0 1-.05.23zm.34-1.82c0 .19-.07.38-.1.57.03-.19.07-.38.1-.57z" style="fill:none"/><path class="work-attire-4" d="M123.16 84.48a3.36 3.36 0 0 1-2.32 5.75H77.28a3.36 3.36 0 0 1 0-6.72h17.29a7.23 7.23 0 0 0 .85.68 6.51 6.51 0 0 0 8.13-.68h17.29a3.36 3.36 0 0 1 2.32.97zm-2.57-7.35v6.38h-17a8.22 8.22 0 0 0 .89-1.05 6.51 6.51 0 0 0-1.71-9V59.35a17.81 17.81 0 0 1 17.82 17.78z"/><path class="work-attire-3" d="M102.73 73.46a6.51 6.51 0 0 1 1.71 9 8.22 8.22 0 0 1-.89 1.05 6.51 6.51 0 0 1-8.13.68 7.23 7.23 0 0 1-.85-.68 6.51 6.51 0 0 1-.89-8.34 6.74 6.74 0 0 1 1.7-1.71 6.48 6.48 0 0 1 7.31 0zm-3.67 9.36a4 4 0 1 0-4-4 4 4 0 0 0 4 4z"/><path class="work-attire-4" d="M102.73 59.35v14.11a6.48 6.48 0 0 0-7.31 0V59.24a3.68 3.68 0 0 1 3.69-3.64 3.74 3.74 0 0 1 2.61 1.07 3.65 3.65 0 0 1 1.07 2.57zm.36 19.44a4 4 0 1 1-4-4 4 4 0 0 1 4 4z"/><path class="work-attire-4" d="M95.36 59.35v14.11a6.74 6.74 0 0 0-1.7 1.71 6.51 6.51 0 0 0 .89 8.34h-17v-6.38a17.8 17.8 0 0 1 17.8-17.78zm-3 3.46a.64.64 0 0 0 .48-.75.63.63 0 0 0-.75-.48l-.87.21a.63.63 0 0 0-.44.77.61.61 0 0 0 .6.46.5.5 0 0 0 .17 0zM89 63.93a.63.63 0 0 0 .31-.84.64.64 0 0 0-.85-.29 15.89 15.89 0 0 0-8.56 10.53.63.63 0 1 0 1.22.31A14.67 14.67 0 0 1 89 63.93z"/><path class="work-attire-3" d="M92.83 62.06a.64.64 0 0 1-.48.75l-.81.19a.5.5 0 0 1-.17 0 .61.61 0 0 1-.6-.46.63.63 0 0 1 .44-.77l.87-.21a.63.63 0 0 1 .75.5zm-3.5 1.03a.63.63 0 0 1-.31.84 14.67 14.67 0 0 0-7.9 9.71.63.63 0 1 1-1.22-.31 15.89 15.89 0 0 1 8.58-10.53.64.64 0 0 1 .85.29z"/><path class="work-attire-5" d="M77.53 83.51h-.25a3.36 3.36 0 0 0 0 6.72h43.56a3.36 3.36 0 0 0 0-6.72h-.25M95.36 59.35a17.8 17.8 0 0 0-17.83 17.78v6.38h17m9.02 0h17v-6.38a17.81 17.81 0 0 0-17.83-17.78"/><path class="work-attire-5" d="M102.73 73.46V59.24a3.65 3.65 0 0 0-1.07-2.57 3.74 3.74 0 0 0-2.61-1.07 3.68 3.68 0 0 0-3.69 3.64v14.22"/><path class="work-attire-5" d="M95.38 73.46a6.48 6.48 0 0 1 7.31 0 6.51 6.51 0 0 1 1.71 9 8.22 8.22 0 0 1-.89 1.05 6.51 6.51 0 0 1-8.13.68 7.23 7.23 0 0 1-.85-.68 6.51 6.51 0 0 1-.89-8.34 6.74 6.74 0 0 1 1.74-1.71z"/><path class="work-attire-5" d="M99.06 82.82a4 4 0 1 0-4-4 4 4 0 0 0 4 4z"/><g id="Jacket-Construction"><path class="work-attire-4" d="M195.57 173.49v10.41a4.16 4.16 0 0 1-4.16 4.16h-18.73a6.25 6.25 0 0 1-6.25-6.25v-8.32z"/><path class="work-attire-3" d="M195.57 165.16v8.33h-29.14V161h29.14v4.16z"/><path class="work-attire-4" d="M195.57 156.83V161h-29.14v-8.33l10.41-25a4.17 4.17 0 0 1 4.16 4.17v10.41a10.41 10.41 0 0 0 10.42 10.4 4.16 4.16 0 0 1 4.15 4.18z"/><path class="work-attire-3" d="m176.84 127.69-10.41 24.98-10.4-24.98h20.81zm-4.16 60.37h-12.49a6.24 6.24 0 0 0 6.24-6.25 6.25 6.25 0 0 0 6.25 6.25z"/><path class="work-attire-4" d="M166.43 173.49v8.32a6.24 6.24 0 0 1-6.24 6.25h-18.74a4.16 4.16 0 0 1-4.16-4.16v-10.41z"/><path class="work-attire-3" d="M166.43 161v12.49h-29.14V161h29.14z"/><path class="work-attire-4" d="M166.43 152.67V161h-29.14v-4.17a4.17 4.17 0 0 1 4.16-4.16 10.4 10.4 0 0 0 10.41-10.4v-10.41a4.17 4.17 0 0 1 4.17-4.17z"/><path class="work-attire-5" d="M172.68 188.06h18.73a4.16 4.16 0 0 0 4.16-4.16v-10.41m-29.14 8.32v-8.32m-29.14 0v10.41a4.16 4.16 0 0 0 4.16 4.16h18.74M195.57 161v-4.17a4.16 4.16 0 0 0-4.15-4.16 10.41 10.41 0 0 1-10.42-10.4v-10.41a4.17 4.17 0 0 0-4.16-4.17M166.43 161v-8.33M156 127.69a4.17 4.17 0 0 0-4.17 4.17v10.41a10.4 10.4 0 0 1-10.41 10.4 4.17 4.17 0 0 0-4.16 4.16V161m39.58-33.31h-20.81l10.4 24.98 10.41-24.98zm-10.41 54.12a6.24 6.24 0 0 1-6.24 6.25h12.49a6.25 6.25 0 0 1-6.25-6.25zm0-20.81h-29.14v12.49h29.14m0 0h29.14V161h-29.14v12.49z"/></g><path class="work-attire-4" d="m158.91 91-2 .55a.26.26 0 0 1-.32-.19l-.4-1.45a.37.37 0 0 1 .26-.46l1.89-.56a.31.31 0 0 1 .39.22l.41 1.5a.33.33 0 0 1-.23.39zm2.78 19.55a.32.32 0 0 1-.23.39l-2 .55a.26.26 0 0 1-.32-.18l-.4-1.46a.38.38 0 0 1 .26-.46l1.88-.56a.31.31 0 0 1 .4.23z"/><path class="work-attire-3" d="M157.31 76.75a1.06 1.06 0 0 1 .19 2.12 1.06 1.06 0 1 1-.19-2.12zm1.58 21.06a1.06 1.06 0 1 1 1.16 1 1.07 1.07 0 0 1-1.16-1z"/><path class="work-attire-3" d="M158.46 77.71a1.06 1.06 0 0 0-2.12.19 1.06 1.06 0 1 0 2.12-.19zm-4.46-.36 4.76-3.15a.4.4 0 0 1 .42 0l.12.08a6.68 6.68 0 0 1 3.29 4.43.14.14 0 0 1 0 .06.37.37 0 0 1-.13.38l-4.4 3.78a8.56 8.56 0 0 0-1.53-3.14 9.14 9.14 0 0 0-2.62-2.31z"/><path class="work-attire-4" d="m138.8 117.33-1.41-1.68-1.12-1.35a.75.75 0 0 1 .13-1.1l1.6-1.2a3.65 3.65 0 0 0 1.07 2.24c1.09 1.23 1.3 1.64 2.33 1.92l-1.57 1.2a.76.76 0 0 1-1.03-.03z"/><path class="work-attire-4" d="M139.94 110.59a3.56 3.56 0 0 0 1.07 2.25c1.09 1.23 1.3 1.64 2.34 1.93l-1.93 1.48c-1-.28-1.24-.69-2.33-1.92a3.65 3.65 0 0 1-1.07-2.24zM139 96.24l-1.7 1.31a.78.78 0 0 1-1.05-.12l-1.41-1.68-1.12-1.35a.76.76 0 0 1 .13-1.1l1.68-1.24a3.81 3.81 0 0 0 1.07 2.18c1.09 1.23 1.3 1.64 2.34 1.92z"/><path class="work-attire-4" d="m140.8 94.86-1.8 1.38-.06-.08c-1-.28-1.25-.69-2.34-1.92a3.81 3.81 0 0 1-1.07-2.18l1.86-1.37a3.57 3.57 0 0 0 1.07 2.25c1.09 1.23 1.3 1.64 2.34 1.92zm.2 17.98a3.56 3.56 0 0 1-1.07-2.25l10.92-8a4.07 4.07 0 0 0 1.95-3.38 12 12 0 0 1 2.8 2.6 11.13 11.13 0 0 1 2.07 4s-1.5-.66-3.79.88l-10.54 8.08c-1.03-.29-1.24-.7-2.34-1.93z"/><path class="work-attire-4" d="M160.61 102.81a4.35 4.35 0 0 1 .09.46l-3 2.54a11.13 11.13 0 0 0-2.07-4 12 12 0 0 0-2.8-2.6l3.09-2.09a4.86 4.86 0 0 1 .54.29 9 9 0 0 1 4.17 5.44zm-2.46-19.44-3 2.54a11.06 11.06 0 0 0-2.07-4 11.74 11.74 0 0 0-2.8-2.6l3.09-2.09a5.45 5.45 0 0 1 .55.29 9.14 9.14 0 0 1 2.62 2.31 8.56 8.56 0 0 1 1.53 3.14 3.44 3.44 0 0 1 .08.41z"/><path class="work-attire-3" d="M159.85 96.65a1.06 1.06 0 1 0 1.16 1 1.07 1.07 0 0 0-1.16-1zm-3.34.6 4.77-3.15a.42.42 0 0 1 .42 0l.12.07a6.81 6.81 0 0 1 3.3 4.45v.05a.39.39 0 0 1-.12.33l-4.39 3.77a9 9 0 0 0-4.17-5.44z"/><path class="work-attire-4" d="M138.46 92.94a3.57 3.57 0 0 1-1.07-2.25l10.92-8a4.07 4.07 0 0 0 1.95-3.38 11.74 11.74 0 0 1 2.8 2.6 11.06 11.06 0 0 1 2.07 4s-1.5-.66-3.78.87l-10.55 8.08c-1.04-.28-1.25-.69-2.34-1.92z"/><path class="work-attire-3" d="M193 74.61c1.05 1.5.38 2.62.07 2.84s-1 .68-1 .68l-26.84 20.44h-.11a6.81 6.81 0 0 0-3.3-4.45v-.05l27.8-19.91.95-.76a2.33 2.33 0 0 1 2.43 1.21zm-2.6-19.9c1 1.5.38 2.62.07 2.84l-1 .68-26.79 20.43h-.12a6.68 6.68 0 0 0-3.29-4.43v-.06l27.83-19.88 1-.76a2.33 2.33 0 0 1 2.3 1.18z"/><path class="work-attire-5" d="m165.23 98.57 26.82-20.44s.65-.47 1-.68 1-1.34-.07-2.84a2.33 2.33 0 0 0-2.35-1.18l-.95.76-27.83 19.91m-1.24 8.71h-.01"/><path class="work-attire-5" d="m156.51 97.25 4.77-3.15a.42.42 0 0 1 .42 0l.12.07a6.81 6.81 0 0 1 3.3 4.45v.05a.39.39 0 0 1-.12.33l-4.39 3.77"/><path class="work-attire-5" d="m139.94 110.59 10.92-8a4.07 4.07 0 0 0 1.95-3.38l3.09-2.09a4.86 4.86 0 0 1 .54.29 9 9 0 0 1 4.17 5.44 4.35 4.35 0 0 1 .09.46l-3 2.54s-1.5-.66-3.79.88l-10.54 8.08-1.93 1.48-1.57 1.2a.76.76 0 0 1-1-.12l-1.41-1.68-1.12-1.35a.75.75 0 0 1 .13-1.1L138 112z"/><path class="work-attire-5" d="M139.94 110.59a3.56 3.56 0 0 0 1.07 2.25c1.09 1.23 1.3 1.64 2.34 1.93m-5.35-2.69a3.65 3.65 0 0 0 1.07 2.24c1.09 1.23 1.3 1.64 2.33 1.92m11.41-17.08a12 12 0 0 1 2.8 2.6 11.13 11.13 0 0 1 2.07 4"/><path class="work-attire-5" d="M137.39 115.65h-.15c-.44.07-1.71.38-1.25 1.67.56 1.55 6 4.64 9.67 3.84l.39-.1c3.5-1 6.17-4.46 7-6s3.88-4.17 5.64-4.62m.05-.59.4 1.46a.26.26 0 0 0 .32.18l2-.55a.32.32 0 0 0 .23-.39l-.41-1.49a.31.31 0 0 0-.4-.23l-1.88.56a.38.38 0 0 0-.26.46z"/><path class="work-attire-5" d="M137.24 115.67s4.45 6.44 8.81 5.41h.09M161 97.61a1.06 1.06 0 1 1-1.16-1 1.07 1.07 0 0 1 1.16 1zm1.68-18.95 26.83-20.43 1-.68c.31-.22 1-1.34-.07-2.84a2.33 2.33 0 0 0-2.35-1.18l-1 .76-27.78 19.91"/><path class="work-attire-5" d="m154 77.35 4.76-3.15a.4.4 0 0 1 .42 0l.12.08a6.68 6.68 0 0 1 3.29 4.43.14.14 0 0 1 0 .06.37.37 0 0 1-.13.38l-4.4 3.78"/><path class="work-attire-5" d="m137.39 90.69 10.92-8a4.07 4.07 0 0 0 1.95-3.38l3.09-2.09a5.45 5.45 0 0 1 .55.29 9.14 9.14 0 0 1 2.62 2.31 8.56 8.56 0 0 1 1.53 3.14 3.44 3.44 0 0 1 .1.46l-3 2.54s-1.5-.66-3.78.87l-10.57 8.03-1.8 1.38-1.7 1.31a.78.78 0 0 1-1.05-.12l-1.41-1.68-1.12-1.35a.76.76 0 0 1 .13-1.1l1.68-1.24z"/><path class="work-attire-5" d="M137.39 90.69a3.57 3.57 0 0 0 1.07 2.25c1.09 1.23 1.3 1.64 2.34 1.92M135.53 92v.07a3.81 3.81 0 0 0 1.07 2.18c1.09 1.23 1.3 1.64 2.34 1.92m11.32-16.91a11.74 11.74 0 0 1 2.8 2.6 11.06 11.06 0 0 1 2.07 4"/><path class="work-attire-5" d="M134.84 95.75h-.14c-.44.06-1.73.37-1.26 1.67.56 1.55 6 4.64 9.67 3.84l.38-.1c3.51-1 6.19-4.46 7-6s3.88-4.18 5.64-4.62m.06-.54.4 1.45a.26.26 0 0 0 .32.19l2-.55a.33.33 0 0 0 .23-.39l-.41-1.5a.31.31 0 0 0-.39-.22l-1.89.56a.37.37 0 0 0-.26.46z"/><path class="work-attire-5" d="M134.7 95.76c.23.31 4.55 6.39 8.79 5.41h.1m14.87-23.46a1.06 1.06 0 1 1-1.15-1 1.07 1.07 0 0 1 1.15 1z"/></svg>