<svg xmlns="http://www.w3.org/2000/svg" width="128" height="44"><path fill="#f79e1b" d="M12.963 27.184a8.75 8.75 0 0 0-2.023-.962c-.713-.23-1.458-.346-2.206-.343a5.57 5.57 0 0 0-1.379.159c-.382.1-.745.245-1.074.46a2.24 2.24 0 0 0-.694.72 1.82 1.82 0 0 0-.248.945 1.5 1.5 0 0 0 .215.837 1.76 1.76 0 0 0 .619.569 3.97 3.97 0 0 0 .983.385 12.25 12.25 0 0 0 1.314.259l1.04.143c.604.085 1.2.22 1.784.4a5.46 5.46 0 0 1 1.553.762c.452.322.827.742 1.098 1.23.3.553.432 1.173.413 1.8a4.23 4.23 0 0 1-.487 2.06 4.52 4.52 0 0 1-1.313 1.506 6.02 6.02 0 0 1-1.925.929 8.32 8.32 0 0 1-2.32.318c-.532-.003-1.062-.047-1.586-.134a10.88 10.88 0 0 1-1.652-.385 9.69 9.69 0 0 1-1.487-.644 6.59 6.59 0 0 1-1.313-.895l1.313-1.967a4.83 4.83 0 0 0 .933.669 8.05 8.05 0 0 0 2.478.887c.44.083.884.125 1.33.126a5.96 5.96 0 0 0 1.371-.142c.393-.087.77-.237 1.116-.444a2.37 2.37 0 0 0 .751-.711 1.67 1.67 0 0 0 .28-.963 1.48 1.48 0 0 0-.826-1.364 7.69 7.69 0 0 0-2.577-.703l-1.173-.167a9.09 9.09 0 0 1-1.652-.393 4.76 4.76 0 0 1-1.43-.77c-.43-.337-.772-.76-1.016-1.247-.28-.56-.42-1.18-.413-1.808a4.28 4.28 0 0 1 .471-2.033c.3-.6.747-1.103 1.28-1.498.57-.42 1.212-.73 1.892-.92a8.19 8.19 0 0 1 2.313-.318 9.46 9.46 0 0 1 2.98.444 10.23 10.23 0 0 1 2.479 1.205l-1.215 2 .003-.002zm8.217 1.174a4.84 4.84 0 0 1 1.974.4c.587.257 1.1.64 1.537 1.122.44.507.78 1.095 1 1.732a6.58 6.58 0 0 1 .364 2.234v.854H18.4c.055.426.2.838.397 1.213.178.323.417.607.702.837.273.216.584.378.917.477.343.102.7.153 1.057.15a4.44 4.44 0 0 0 1.553-.293 5 5 0 0 0 1.429-.837l1.115 1.632a5.55 5.55 0 0 1-2.007 1.146 7.55 7.55 0 0 1-2.239.327 5.63 5.63 0 0 1-2.13-.394 4.83 4.83 0 0 1-1.652-1.113 5.03 5.03 0 0 1-1.09-1.732c-.267-.722-.4-1.488-.388-2.26a6.35 6.35 0 0 1 .38-2.235 5.11 5.11 0 0 1 1.057-1.74 4.69 4.69 0 0 1 1.652-1.122 5.11 5.11 0 0 1 2.04-.4v.01l-.013-.008zm-.04 2.033a2.92 2.92 0 0 0-1.074.184c-.3.115-.6.295-.826.527a2.81 2.81 0 0 0-.553.837 3.91 3.91 0 0 0-.306 1.038h5.353a3.29 3.29 0 0 0-.826-1.9 2.38 2.38 0 0 0-1.776-.694l.008.008zm11.97-2.033a5.54 5.54 0 0 1 2.164.418c.64.276 1.208.704 1.652 1.247L35.48 31.58a4.35 4.35 0 0 0-1.14-.836 3.12 3.12 0 0 0-1.338-.277 2.99 2.99 0 0 0-1.206.243c-.364.173-.687.42-.95.728a3.2 3.2 0 0 0-.645 1.055c-.3.88-.3 1.84 0 2.72a3.19 3.19 0 0 0 .645 1.063 2.87 2.87 0 0 0 .966.686 2.96 2.96 0 0 0 1.206.243 3.15 3.15 0 0 0 1.404-.326 4.37 4.37 0 0 0 1.14-.78l1.396 1.616a4.56 4.56 0 0 1-1.7 1.246 5.45 5.45 0 0 1-2.156.419 5.7 5.7 0 0 1-2.23-.419 4.99 4.99 0 0 1-2.809-2.92c-.518-1.4-.518-2.96 0-4.368.487-1.318 1.496-2.368 2.784-2.896a5.74 5.74 0 0 1 2.255-.427l.008.01-.001-.001zm15.405 6.293a5.05 5.05 0 0 1-.413 2.142c-.247.562-.613 1.062-1.073 1.465a4.32 4.32 0 0 1-1.53.836 5.95 5.95 0 0 1-3.535 0 4.35 4.35 0 0 1-1.536-.836 4.07 4.07 0 0 1-1.074-1.465c-.286-.676-.424-1.407-.405-2.142v-6.026h2.263v5.858a3.76 3.76 0 0 0 .19 1.281c.115.316.298.602.537.837a2.04 2.04 0 0 0 .826.477c.647.196 1.336.196 1.983 0a2.01 2.01 0 0 0 .826-.477c.24-.235.422-.52.537-.837a3.74 3.74 0 0 0 .198-1.281v-5.858h2.263l-.057 6.026zm8.22-6.293c.313-.002.625.023.934.075a3.95 3.95 0 0 1 .826.226l-.537 2.26a3.18 3.18 0 0 0-.826-.284 4.39 4.39 0 0 0-.884-.101c-.34-.004-.676.06-1 .185a2.11 2.11 0 0 0-.777.543c-.225.26-.396.56-.503.888a3.57 3.57 0 0 0-.182 1.188v5.75H51.5v-10.46h2.23v1.18a3.11 3.11 0 0 1 1.28-1.104c.54-.24 1.127-.36 1.718-.352l.008.01v-.004zm7.56 0a4.83 4.83 0 0 1 1.974.401 4.42 4.42 0 0 1 1.536 1.122c.455.503.808 1.092 1.04 1.732a6.58 6.58 0 0 1 .363 2.234v.854h-7.715a3.65 3.65 0 0 0 .397 1.213c.178.323.417.607.702.837.273.216.584.378.917.477.343.102.7.153 1.057.15a4.44 4.44 0 0 0 1.553-.293 4.99 4.99 0 0 0 1.429-.837l1.124 1.624a5.58 5.58 0 0 1-2.008 1.146c-.726.22-1.48.33-2.238.326a5.62 5.62 0 0 1-2.13-.393 4.81 4.81 0 0 1-1.652-1.113 5.03 5.03 0 0 1-1.091-1.732c-.267-.722-.398-1.5-.388-2.26a6.34 6.34 0 0 1 .38-2.234 5.12 5.12 0 0 1 1.041-1.741 4.68 4.68 0 0 1 1.652-1.121c.65-.268 1.346-.405 2.048-.402l.01.01h-.001zm-.042 2.033a2.92 2.92 0 0 0-1.074.184c-.3.115-.6.295-.826.527a2.81 2.81 0 0 0-.553.837 3.95 3.95 0 0 0-.306 1.038h5.37a3.29 3.29 0 0 0-.826-1.9 2.38 2.38 0 0 0-1.793-.694l.008.008zm14.63-6.904a8.51 8.51 0 0 1 1.941.218 7.48 7.48 0 0 1 1.743.636 6.78 6.78 0 0 1 1.462 1.012c.43.388.8.84 1.1 1.34l-2.032 1.373a4.97 4.97 0 0 0-1.776-1.615c-.763-.406-1.616-.607-2.478-.586a5.51 5.51 0 0 0-2.13.402c-.62.26-1.184.65-1.652 1.138-.485.504-.864 1.1-1.115 1.757a6.51 6.51 0 0 0 0 4.52 5.21 5.21 0 0 0 1.115 1.757c.468.5 1.03.877 1.652 1.138.678.273 1.402.4 2.13.402 1.677.037 3.26-.788 4.204-2.192l1.983 1.472c-.323.48-.706.912-1.14 1.3-.426.4-.898.73-1.404 1.004a7.48 7.48 0 0 1-1.702.62 8.75 8.75 0 0 1-5.088-.385 7.33 7.33 0 0 1-4.13-4.185c-.775-2.035-.775-4.3 0-6.326a7.33 7.33 0 0 1 4.13-4.184c1.014-.408 2.097-.613 3.188-.603l-.001-.003zm13.3 4.837a5.7 5.7 0 0 1 2.214.419 5.4 5.4 0 0 1 1.76 1.154 5.32 5.32 0 0 1 1.165 1.741 5.89 5.89 0 0 1 0 4.368 5.31 5.31 0 0 1-1.165 1.741 5.39 5.39 0 0 1-1.759 1.155c-1.424.56-3.004.56-4.427 0-.657-.263-1.255-.656-1.76-1.155a5.32 5.32 0 0 1-1.189-1.707 5.88 5.88 0 0 1 0-4.368 5.35 5.35 0 0 1 1.156-1.741 5.32 5.32 0 0 1 1.759-1.155 5.74 5.74 0 0 1 2.256-.427l-.01-.025zm0 2.15c-.438-.005-.873.078-1.28.243a3 3 0 0 0-1.024.686c-.292.303-.523.66-.678 1.054a3.86 3.86 0 0 0 0 2.72c.155.393.386.752.678 1.054.3.297.64.53 1.024.687.823.326 1.737.326 2.56 0 .78-.3 1.4-.93 1.718-1.716a3.86 3.86 0 0 0 0-2.72 3.35 3.35 0 0 0-.686-1.054 3.08 3.08 0 0 0-1.032-.686 3.31 3.31 0 0 0-1.272-.243l-.01-.025h.002zm12.333-2.15c1.264-.05 2.474.524 3.246 1.54v-6.527h2.255v15.74h-2.255V37.82c-.36.466-.817.846-1.338 1.113a4.1 4.1 0 0 1-1.908.42 5 5 0 0 1-3.66-1.548 5.3 5.3 0 0 1-1.1-1.766 6.33 6.33 0 0 1 0-4.419 5.27 5.27 0 0 1 1.099-1.74c.96-1.002 2.28-1.562 3.66-1.548v-.01l.001.001zm.272 2.15a3.07 3.07 0 0 0-1.305.268 2.92 2.92 0 0 0-.974.719 3.21 3.21 0 0 0-.612 1.063c-.287.84-.287 1.754 0 2.594a3.21 3.21 0 0 0 .612 1.063 2.95 2.95 0 0 0 .974.72c.825.348 1.753.348 2.578 0 .372-.163.706-.402.982-.703a3.17 3.17 0 0 0 .628-.996 4.02 4.02 0 0 0 0-2.661c-.142-.4-.358-.75-.636-1.055a2.93 2.93 0 0 0-.983-.703c-.397-.183-.827-.28-1.264-.284v-.025zm12.72-2.15c.68-.006 1.35.13 1.974.402a4.41 4.41 0 0 1 1.537 1.121c.44.507.78 1.095 1 1.732a6.61 6.61 0 0 1 .364 2.235v.853h-7.624a3.37 3.37 0 0 0 .396 1.214c.178.322.417.607.702.837.273.216.585.378.917.477.343.102.7.153 1.057.15a4.44 4.44 0 0 0 1.553-.293 5.01 5.01 0 0 0 1.429-.836l1.124 1.623c-.584.52-1.267.9-2.007 1.147a7.52 7.52 0 0 1-2.239.326 5.65 5.65 0 0 1-2.131-.393 4.85 4.85 0 0 1-1.652-1.113 4.99 4.99 0 0 1-1.09-1.733 6.3 6.3 0 0 1-.388-2.259c-.008-.762.12-1.52.38-2.235.234-.646.593-1.238 1.057-1.74a4.71 4.71 0 0 1 1.653-1.122c.634-.25 1.3-.374 2-.368v-.025h-.012zm5.956 10.73v-.503h.206v-.108h-.537v.108h.232v.528l.1-.025h-.001zm1.032 0v-.636h-.165l-.2.435-.2-.435h-.165v.636h.116v-.477l.173.4h.116l.173-.4v.477h.152zm-7.03-8.695a2.9 2.9 0 0 0-1.074.184 2.32 2.32 0 0 0-.826.527c-.233.243-.42.526-.553.837a3.95 3.95 0 0 0-.306 1.038h5.353a3.3 3.3 0 0 0-.826-1.925 2.38 2.38 0 0 0-1.768-.636v-.025z"/><path fill="#eb001b" d="M20.373 17.518h-2.528V4.48l-4.568 11.474h-2.66L6.067 4.606v12.912H3.523V1.678h3.874L11.947 13 16.5 1.678h3.874l.01 15.84zm13.3 0h-2.338V16.22c-.373.484-.847.878-1.388 1.155a4.23 4.23 0 0 1-1.974.427c-1.43.015-2.804-.566-3.8-1.607-.493-.52-.88-1.135-1.14-1.807-.552-1.478-.552-3.1 0-4.586a5.49 5.49 0 0 1 1.139-1.808c.996-1.04 2.37-1.622 3.8-1.607.683-.018 1.36.13 1.974.436.54.28 1.014.678 1.388 1.163V6.68h2.338l.001 10.838zm-5.427-8.895c-.466-.008-.928.086-1.355.276a3.04 3.04 0 0 0-1.008.745c-.28.323-.496.698-.636 1.104-.298.873-.298 1.822 0 2.695a3.33 3.33 0 0 0 .645 1.105 3.02 3.02 0 0 0 1.007.744c.857.363 1.82.363 2.677 0a3.05 3.05 0 0 0 1.016-.728 3.36 3.36 0 0 0 .661-1.096 4.19 4.19 0 0 0 0-2.761 3.4 3.4 0 0 0-.66-1.097 3.08 3.08 0 0 0-1.016-.728 3.2 3.2 0 0 0-1.33-.26l-.001.001zm16.14.77c-.195-.114-.396-.217-.603-.3a6.68 6.68 0 0 0-.826-.301 8.15 8.15 0 0 0-.925-.226 5.5 5.5 0 0 0-.99-.092 2.66 2.66 0 0 0-1.495.36 1.08 1.08 0 0 0-.529.937c-.006.17.044.338.14.477a1.08 1.08 0 0 0 .371.318 2.3 2.3 0 0 0 .562.201l.694.134 1.107.167c.984.103 1.925.46 2.734 1.038.68.5 1.065 1.328 1.032 2.184a3.12 3.12 0 0 1-.33 1.43 3.21 3.21 0 0 1-.95 1.079 4.6 4.6 0 0 1-1.528.728 7.5 7.5 0 0 1-2.065.26c-.275 0-.595-.017-.958-.05a8.06 8.06 0 0 1-1.165-.2 8.48 8.48 0 0 1-1.256-.427 5.78 5.78 0 0 1-1.214-.711l1.082-1.774c.2.156.4.3.628.426a4.55 4.55 0 0 0 .768.352 5.78 5.78 0 0 0 .95.243 6.97 6.97 0 0 0 1.18.092 3.72 3.72 0 0 0 1.818-.36 1.08 1.08 0 0 0 .619-.963c-.006-.315-.175-.605-.446-.76a3.47 3.47 0 0 0-1.404-.435l-1.115-.15c-.985-.08-1.925-.447-2.7-1.054a2.67 2.67 0 0 1-.933-2.126c-.007-.503.1-1 .314-1.456.204-.43.507-.807.884-1.096.417-.313.887-.546 1.387-.687a6.45 6.45 0 0 1 1.842-.242c.803-.005 1.603.096 2.38.3.692.174 1.353.456 1.958.837l-1.008 1.858-.01-.01zm11.086-.57h-4.13v4.72c-.001.32.052.637.156.938.076.233.2.447.364.627a1.36 1.36 0 0 0 .537.36 1.84 1.84 0 0 0 .67.117c.382-.003.76-.076 1.115-.217.363-.137.712-.3 1.04-.52l.925 1.9a7.3 7.3 0 0 1-1.454.762 4.99 4.99 0 0 1-1.825.318c-1.04.06-2.062-.3-2.825-1.03a4.39 4.39 0 0 1-1.025-3.196V8.83h-2.123V6.68h2.123V3.4h2.346v3.28h4.13l-.024 2.143zm7.186-2.436c.704-.01 1.4.13 2.05.4.608.267 1.152.664 1.594 1.164.458.526.8 1.137 1.04 1.8a6.84 6.84 0 0 1 .371 2.318v.88H59.76a3.55 3.55 0 0 0 .413 1.255c.188.323.434.607.727.837.283.223.605.4.95.494a3.78 3.78 0 0 0 1.098.159 4.62 4.62 0 0 0 1.652-.302 5.18 5.18 0 0 0 1.479-.837l1.165 1.674a5.82 5.82 0 0 1-2.082 1.188 7.81 7.81 0 0 1-2.321.344 5.81 5.81 0 0 1-2.255-.37 4.99 4.99 0 0 1-1.735-1.155 5.21 5.21 0 0 1-1.132-1.799 6.52 6.52 0 0 1-.404-2.343c-.01-.8.12-1.575.388-2.318a5.32 5.32 0 0 1 1.099-1.808c.464-.5 1.027-.896 1.652-1.163.7-.3 1.45-.432 2.205-.418v-.01.01zm-.04 2.1c-.38-.007-.76.058-1.115.193a2.4 2.4 0 0 0-.826.552c-.24.242-.436.526-.58.837a4.11 4.11 0 0 0-.338 1.096h5.55a3.37 3.37 0 0 0-.892-1.966c-.48-.475-1.13-.73-1.8-.712h.001zm13.216-2.1a5.8 5.8 0 0 1 .967.076 4.18 4.18 0 0 1 .826.234l-.562 2.343a3.28 3.28 0 0 0-.826-.293c-.302-.064-.6-.098-.917-.1-.35-.003-.698.062-1.024.192-.315.122-.598.317-.826.57a2.68 2.68 0 0 0-.53.92 3.72 3.72 0 0 0-.19 1.23v5.967h-2.338V6.646h2.313v1.222a3.24 3.24 0 0 1 1.305-1.122c.56-.244 1.166-.364 1.776-.35l.025-.01.001.001zm7.988 0c.77-.008 1.534.14 2.247.436a4.51 4.51 0 0 1 1.751 1.297l-1.495 1.615c-.347-.342-.746-.624-1.18-.837a3.28 3.28 0 0 0-1.388-.293 3.08 3.08 0 0 0-1.248.251 2.98 2.98 0 0 0-1.007.711 3.29 3.29 0 0 0-.661 1.097c-.322.9-.322 1.908 0 2.82a3.3 3.3 0 0 0 .661 1.096 2.94 2.94 0 0 0 1.007.71 3.08 3.08 0 0 0 1.248.252 3.28 3.28 0 0 0 1.437-.318 4.64 4.64 0 0 0 1.181-.837l1.438 1.632c-.48.566-1.087 1-1.768 1.297a5.68 5.68 0 0 1-2.239.435 5.94 5.94 0 0 1-2.313-.435c-1.344-.543-2.402-1.633-2.915-3.005a6.56 6.56 0 0 1 0-4.527 5.2 5.2 0 0 1 2.915-3.004 5.91 5.91 0 0 1 2.305-.385l.025-.01-.001.002zm16.413 11.13h-2.338V16.22c-.373.484-.847.878-1.387 1.155-.615.3-1.292.446-1.975.427a5.18 5.18 0 0 1-3.799-1.607c-.494-.52-.882-1.135-1.14-1.807a6.57 6.57 0 0 1 0-4.586 5.51 5.51 0 0 1 1.14-1.808 5.18 5.18 0 0 1 3.799-1.607 4.19 4.19 0 0 1 3.362 1.599V6.68h2.338v10.837zm-5.42-8.895a3.19 3.19 0 0 0-1.354.276 3.02 3.02 0 0 0-1.008.745c-.28.323-.496.698-.636 1.104a4.16 4.16 0 0 0 0 2.695 3.37 3.37 0 0 0 .636 1.105c.28.316.624.57 1.008.744.856.362 1.82.362 2.676 0a3.05 3.05 0 0 0 1.016-.728 3.3 3.3 0 0 0 .661-1.096 4.16 4.16 0 0 0 0-2.76 3.31 3.31 0 0 0-.66-1.097 3.08 3.08 0 0 0-1.016-.728 3.19 3.19 0 0 0-1.313-.259h-.01v-.001zm14.282-2.226a5.8 5.8 0 0 1 .967.075 4.25 4.25 0 0 1 .826.234l-.562 2.344a3.24 3.24 0 0 0-.826-.293 4.5 4.5 0 0 0-.917-.1c-.35-.003-.698.062-1.024.193-.315.122-.598.317-.826.57a2.66 2.66 0 0 0-.529.92 3.72 3.72 0 0 0-.19 1.23v5.967h-2.337V6.656h2.337v1.222a3.24 3.24 0 0 1 1.314-1.13 4.22 4.22 0 0 1 1.776-.351h-.01l.001-.001zm7.666 0a4.16 4.16 0 0 1 1.974.435c.54.28 1.014.678 1.388 1.163v-6.77h2.337v16.293h-2.337V16.22c-.374.484-.847.878-1.388 1.155a4.23 4.23 0 0 1-1.974.427 5.18 5.18 0 0 1-3.8-1.607 5.5 5.5 0 0 1-1.165-1.807 6.57 6.57 0 0 1 0-4.586 5.51 5.51 0 0 1 1.14-1.808c.996-1.04 2.37-1.622 3.8-1.607l.025.01v-.001zm8.425 10.126c.094-.003.186.014.273.05a.7.7 0 0 1 .223.15.72.72 0 0 1 .149.218.69.69 0 0 1 0 .536c-.036.08-.086.155-.15.217a.72.72 0 0 1-.223.151.66.66 0 0 1-.273.058c-.278.004-.53-.16-.644-.418-.073-.17-.073-.365 0-.536a.68.68 0 0 1 .372-.368c.088-.04.184-.06.28-.058h-.007zm0 1.23a.51.51 0 0 0 .207-.042c.062-.028.118-.068.165-.117a.55.55 0 0 0 0-.762.5.5 0 0 0-.165-.117c-.068-.014-.14-.014-.207 0a.55.55 0 0 0-.206 0c-.15.073-.255.213-.288.377a.54.54 0 0 0 .123.46.5.5 0 0 0 .165.117.51.51 0 0 0 .215.075l-.01.01zm0-.837c.068-.004.136.017.2.06a.18.18 0 0 1 .066.15c.003.05-.015.1-.05.134-.04.04-.093.062-.15.067l.207.243h-.166l-.2-.243h-.057v.243h-.133v-.645l.28-.008.003-.001zm-.157.117v.167h.157c.027.008.056.008.083 0 .01-.02.01-.045 0-.066.012-.02.012-.047 0-.067-.027-.008-.056-.008-.083 0l-.157-.034zM117 8.665a3.19 3.19 0 0 0-1.354.276 3.02 3.02 0 0 0-1.008.745c-.28.323-.496.698-.636 1.104-.298.873-.298 1.822 0 2.695a3.37 3.37 0 0 0 .636 1.105c.28.316.624.57 1.008.744.856.362 1.82.362 2.676 0a3.05 3.05 0 0 0 1.016-.728 3.31 3.31 0 0 0 .719-1.163 4.18 4.18 0 0 0 0-2.762 3.34 3.34 0 0 0-.66-1.096 3.08 3.08 0 0 0-1.016-.728 3.19 3.19 0 0 0-1.33-.234l-.05.042H117z"/></svg>