<svg id="Layer_1" data-name="Layer 1" xmlns="http://www.w3.org/2000/svg" viewBox="0 0 256 256"><defs><style>.cls-1{fill:#0e4e91;}.cls-2{fill:#abe7ff;}.cls-3{fill:#2db5ff;}.cls-4{fill:#fff;}.cls-5{fill:none;stroke:#0e4e91;stroke-miterlimit:10;}.cls-6{fill:#caf5fe;}</style></defs><path class="cls-1" d="M124.33,215.09l0-1.14c2,.09,4.05.12,6.05.06l0,1.15C128.44,215.2,126.37,215.18,124.33,215.09Zm-4.59-.33c-2-.2-4.08-.47-6.08-.81l.19-1.13c2,.33,4,.6,6,.79Zm15.32.16-.09-1.14c2-.16,4-.39,6-.68l.17,1.13C139.14,214.53,137.09,214.76,135.06,214.92Zm10.63-1.48-.23-1.13c2-.4,3.95-.87,5.88-1.42l.31,1.11C149.69,212.55,147.69,213,145.69,213.44Zm10.36-2.79-.37-1.08c1.89-.64,3.8-1.35,5.66-2.13l.44,1.05C159.9,209.28,158,210,156.05,210.65Zm9.93-4-.5-1c1.81-.87,3.62-1.82,5.36-2.82l.57,1C169.64,204.77,167.81,205.72,166,206.61Zm-86.28-6.2c-1.69-1.14-3.36-2.35-5-3.6l.7-.9c1.59,1.23,3.24,2.43,4.91,3.55Zm95.64,1-.61-1c1.69-1.08,3.36-2.24,5-3.44l.69.91C178.75,199.1,177.06,200.27,175.34,201.37ZM71.18,193.89c-1.54-1.34-3.05-2.74-4.49-4.19l.8-.81c1.43,1.43,2.92,2.81,4.44,4.13ZM184,195l-.74-.88c1.55-1.28,3.07-2.64,4.52-4l.79.82C187.1,192.36,185.55,193.74,184,195ZM63.51,186.37c-1.35-1.5-2.69-3.09-3.94-4.69l.91-.71c1.24,1.59,2.55,3.15,3.89,4.63Zm128.3,1.31-.83-.78c1.39-1.47,2.72-3,4-4.56l.89.73C194.57,184.64,193.21,186.2,191.81,187.68ZM56.83,178c-1.17-1.67-2.29-3.39-3.34-5.14l1-.59c1,1.72,2.14,3.43,3.29,5.07Zm141.84,1.45-.93-.68c1.19-1.62,2.33-3.31,3.41-5l1,.61C201,176.07,199.87,177.77,198.67,179.42ZM51.23,168.83c-1-1.8-1.86-3.66-2.69-5.51l1.05-.47c.81,1.84,1.71,3.66,2.65,5.44Zm153.24,1.55-1-.56c1-1.76,1.91-3.57,2.76-5.4l1,.49C206.4,166.76,205.46,168.6,204.47,170.38ZM41.08,127.57c0-1.81.08-3.66.2-5.46l0-.67,1.14.08,0,.67c-.12,1.78-.19,3.6-.2,5.39ZM42.93,117l-1.13-.14c.25-2,.59-4.06,1-6.06l1.13.23C43.51,113,43.18,115,42.93,117Zm170.85,1.49c-.22-2-.51-4-.87-6l1.12-.21c.36,2,.66,4,.89,6.07ZM44.91,106.6l-1.1-.29c.51-2,1.08-4,1.73-5.88l1.08.36C46,102.7,45.41,104.65,44.91,106.6ZM212,108.06c-.46-2-1-3.92-1.61-5.83l1.09-.35c.61,2,1.16,3.94,1.63,5.92ZM48.16,96.53l-1.07-.43c.75-1.89,1.57-3.78,2.45-5.63l1,.49C49.71,92.78,48.9,94.65,48.16,96.53ZM208.9,97.94c-.71-1.88-1.48-3.76-2.31-5.59l1-.48c.85,1.85,1.63,3.76,2.35,5.67Zm-156.26-11-1-.55c1-1.78,2-3.56,3.12-5.29l1,.62C54.64,83.4,53.6,85.15,52.64,86.91Zm152,1.36c-.93-1.78-1.93-3.55-3-5.26l1-.59c1.07,1.73,2.09,3.53,3,5.33ZM58.28,77.93l-.93-.66c1.19-1.66,2.45-3.3,3.75-4.86l.87.73C60.69,74.68,59.45,76.3,58.28,77.93Zm140.86,1.28c-1.15-1.65-2.35-3.29-3.61-4.86l.9-.71c1.27,1.58,2.5,3.24,3.65,4.92ZM65,69.72l-.84-.78c1.38-1.5,2.83-3,4.32-4.37l.78.84C67.76,66.79,66.33,68.23,65,69.72ZM192.6,70.87c-1.33-1.5-2.74-3-4.18-4.38l.8-.82c1.46,1.43,2.88,2.92,4.23,4.45ZM100,46.69l-.38-1.08c1.92-.67,3.9-1.28,5.86-1.81l.3,1.11C103.87,45.44,101.92,46,100,46.69Zm57.89.52c-1.89-.7-3.83-1.33-5.76-1.88l.32-1.1c2,.56,3.92,1.2,5.83,1.91Zm-47.7-3.37L110,42.73c2-.43,4-.79,6-1.08l.16,1.13C114.19,43.08,112.19,43.43,110.22,43.84Zm37.55.34c-2-.45-4-.83-6-1.15L142,41.9c2,.32,4,.71,6,1.17Zm-27.08-1.9-.1-1.14c2-.17,4.1-.28,6.13-.32l0,1.15C124.73,42,122.69,42.11,120.69,42.28Zm16.64.15c-2-.21-4-.35-6.05-.42l0-1.14c2,.07,4.09.22,6.13.43Z"/><circle class="cls-2" cx="128.9" cy="127.59" r="67.05"/><path class="cls-3" d="M106.05,163.05a9,9,0,0,1,7.17-14.48,9.11,9.11,0,0,1,3.54.73,9,9,0,1,1-10.71,13.75Zm12.48-6a5.31,5.31,0,1,0-5.31,5.31A5.3,5.3,0,0,0,118.53,157.05Z"/><path class="cls-4" d="M113.22,151.75a5.31,5.31,0,1,1-5.31,5.3A5.3,5.3,0,0,1,113.22,151.75Z"/><path class="cls-4" d="M102.18,143.15l8.66-.09a7.41,7.41,0,0,1,6,6l-.11.23a9,9,0,0,0-12.56,8.28,9,9,0,0,0,1.85,5.47l-29.44-.29-.15-.14A9,9,0,0,0,65.3,149.36l-.13-.29-.27-12.68v-.09l8.95,0,7,0,4.94,2.66,8,4.29.08,0Z"/><path class="cls-3" d="M97.65,138h0l4.49,1.09v4c-2.81,0-5.62.06-8.43.1l-8-4.29v-3.8L97.65,135v3Z"/><path class="cls-3" d="M95.9,130.56l4.3,0s0,4.43,0,4.43l-2.51,0-11.86.07-3.68,0-.18-4.62,5.07,0Z"/><polygon class="cls-3" points="95.9 128.21 95.9 130.56 87 130.53 87 128.25 95.9 128.21"/><path class="cls-3" d="M78,157.58a9,9,0,1,1-9-9A9,9,0,0,1,78,157.58Zm-3.7-.53A5.31,5.31,0,1,0,69,162.36,5.3,5.3,0,0,0,74.3,157.05Z"/><path class="cls-4" d="M69,151.75a5.31,5.31,0,1,1-5.31,5.3A5.3,5.3,0,0,1,69,151.75Z"/><path class="cls-5" d="M64.17,136.3h.73l8.95,0,7,0h.31"/><path class="cls-5" d="M93.59,143.19h.16c2.81,0,5.62-.08,8.43-.1l9-.1"/><path class="cls-5" d="M76.61,162.76l29.44.29h.3"/><path class="cls-5" d="M80.85,136.24l4.94,2.66,8,4.29.08,0,8.35-.07,8.66-.09a7.41,7.41,0,0,1,6,6"/><path class="cls-5" d="M97.65,135l2.51,0s0-4.43,0-4.43l-4.3,0-8.9,0-5.07,0,.18,4.62,3.68,0Z"/><polyline class="cls-5" points="87 130.63 87 130.53 87 128.25 95.9 128.21 95.9 130.56 95.9 130.6"/><polyline class="cls-5" points="85.79 135.15 85.79 138.9 85.79 139.09"/><polyline class="cls-5" points="97.65 135.36 97.65 138 97.65 138.44"/><path class="cls-5" d="M76.46,162.62a9,9,0,1,1,1.54-5A9,9,0,0,1,76.46,162.62Z"/><path class="cls-5" d="M63.68,157.05A5.31,5.31,0,1,1,69,162.36,5.3,5.3,0,0,1,63.68,157.05Z"/><path class="cls-5" d="M106.05,163.05a9,9,0,0,1,7.17-14.48,9.11,9.11,0,0,1,3.54.73,9,9,0,1,1-10.71,13.75Z"/><path class="cls-5" d="M107.91,157.05a5.31,5.31,0,1,1,5.31,5.31A5.3,5.3,0,0,1,107.91,157.05Z"/><line class="cls-5" x1="64.9" y1="136.39" x2="65.17" y2="149.07"/><polyline class="cls-5" points="97.69 138 102.18 139.09 102.18 143.09 102.18 143.15 102.18 143.31"/><polyline class="cls-5" points="52.78 104.57 73.85 136.26 73.9 136.34"/><line class="cls-5" x1="68.8" y1="139.91" x2="76.25" y2="139.91"/><line class="cls-5" x1="68.88" y1="143.53" x2="76.37" y2="143.53"/><polygon class="cls-4" points="196.86 87.51 191.03 89.04 188.11 86.33 189.22 80.14 196.86 87.51"/><polygon class="cls-3" points="188.11 86.33 191.03 89.04 191.04 89.05 175.02 106.68 175.02 97.88 182.81 90.83 187.94 86.17 188.11 86.33"/><polygon class="cls-4" points="182.81 90.83 175.02 97.88 175.02 85.17 182.81 90.83"/><path class="cls-4" d="M162.53,79.6H175v32.58h-23.7V79.6ZM164.24,83a1.81,1.81,0,1,0-1.81,1.81A1.81,1.81,0,0,0,164.24,83Z"/><path class="cls-3" d="M162.52,79.49h-.09V71.76a2,2,0,0,1,3.95,0v7.73Z"/><path class="cls-4" d="M151.32,82.59v23.15a9.72,9.72,0,0,1-1.09.05,11.63,11.63,0,0,1,0-23.25A9.72,9.72,0,0,1,151.32,82.59Z"/><polygon class="cls-5" points="175.02 106.68 175.02 112.18 151.32 112.18 151.32 105.74 151.32 82.59 151.32 79.6 162.53 79.6 175.02 79.6 175.02 85.17 175.02 97.88 175.02 106.68"/><path class="cls-5" d="M162.43,79.49V71.76a2,2,0,0,1,3.95,0v7.73h-3.95Z"/><polyline class="cls-5" points="162.52 79.33 162.52 79.49 162.53 79.6 162.58 81.22"/><circle class="cls-5" cx="162.43" cy="83.03" r="1.81"/><path class="cls-5" d="M151.32,105.74a9.72,9.72,0,0,1-1.09.05,11.63,11.63,0,0,1,0-23.25,9.72,9.72,0,0,1,1.09,0"/><polyline class="cls-5" points="174.62 98.24 175.02 97.88 182.81 90.83 187.94 86.17 188.11 86.33 191.03 89.04 191.04 89.05 175.02 106.68 174.79 106.93"/><polyline class="cls-5" points="188.11 86.36 188.11 86.33 189.22 80.14 196.86 87.51 191.03 89.04 190.89 89.08"/><polyline class="cls-5" points="174.75 84.98 175.02 85.17 182.81 90.83 182.86 90.86"/><path class="cls-4" d="M179.74,156.93a1.33,1.33,0,0,1,1.22,1.36l-.55,23.52a1.33,1.33,0,0,1-1.28,1.31l-1.31,0a1.35,1.35,0,0,1-1.39-1.32l-.24-14.31a1.33,1.33,0,0,0-1.42-1.31l-.32,0a1.33,1.33,0,0,0-1.25,1.33l0,14a1.34,1.34,0,0,1-1.36,1.33l-2.08,0a1.34,1.34,0,0,1-1.31-1.3l-.31-14.16a1.34,1.34,0,0,0-1.34-1.31h0a1.33,1.33,0,0,0-1.31,1.33v14.19a1.33,1.33,0,0,1-1.35,1.33l-1.91,0a1.32,1.32,0,0,1-1.32-1.32l-.13-23.45a1.35,1.35,0,0,1,1.2-1.34,11.06,11.06,0,0,0,6-2.19l1.48,8.32h2.59l1.24-8.54.19,0A11,11,0,0,0,179.74,156.93Z"/><polygon class="cls-3" points="173.84 134.65 173.56 151.57 167.75 151.63 167.8 134.53 173.84 134.65"/><polygon class="cls-6" points="168.01 154.69 167.75 153.22 167.75 151.63 173.56 151.57 173.54 152.94 173.32 154.47 172.08 163 169.49 163 168.01 154.69"/><path class="cls-4" d="M147.58,134.31s15.22,9.37,8.95,26.09a10.63,10.63,0,0,0-6.61,2.49h-.16v-.47l-1.33-7.79h-2.29l-1.72,7.87v.16h-.12c-2.25-2.09-6.65-2.09-6.65-2.09C132.28,141.75,147.58,134.31,147.58,134.31Z"/><polygon class="cls-3" points="149.8 165.69 150.05 182.85 144.35 183.07 144.4 165.68 149.8 165.69"/><polygon class="cls-6" points="149.76 162.88 149.8 165.69 144.4 165.68 144.41 162.66 144.41 162.5 146.13 154.63 148.42 154.63 149.75 162.41 149.76 162.88"/><polygon class="cls-5" points="144.41 162.66 144.41 162.5 146.13 154.63 148.42 154.63 149.75 162.41 149.76 162.88 149.8 165.69 150.05 182.85 144.35 183.07 144.4 165.68 144.41 162.66"/><polyline class="cls-5" points="142.17 165.68 144.4 165.68 149.8 165.69 151.98 165.69"/><path class="cls-5" d="M149.92,162.89a10.63,10.63,0,0,1,6.61-2.49c6.27-16.72-8.95-26.09-8.95-26.09s-15.3,7.44-9.94,26.26c0,0,4.4,0,6.65,2.09"/><line class="cls-5" x1="146.12" y1="181.14" x2="148.22" y2="181.12"/><polygon class="cls-5" points="173.56 151.57 173.84 134.65 167.8 134.53 167.75 151.63 167.75 153.22 168.01 154.69 169.49 163 172.08 163 173.32 154.47 173.54 152.94 173.56 151.57"/><polyline class="cls-5" points="165.58 151.65 167.75 151.63 173.56 151.57 176.03 151.56"/><path class="cls-5" d="M168.34,154.38a2.73,2.73,0,0,1-.33.31,11.06,11.06,0,0,1-6,2.19,1.35,1.35,0,0,0-1.2,1.34l.13,23.45a1.32,1.32,0,0,0,1.32,1.32l1.91,0a1.33,1.33,0,0,0,1.35-1.33V167.49a1.33,1.33,0,0,1,1.31-1.33h0a1.34,1.34,0,0,1,1.34,1.31l.31,14.16a1.34,1.34,0,0,0,1.31,1.3l2.08,0a1.34,1.34,0,0,0,1.36-1.33l0-14a1.33,1.33,0,0,1,1.25-1.33l.32,0a1.33,1.33,0,0,1,1.42,1.31l.24,14.31a1.35,1.35,0,0,0,1.39,1.32l1.31,0a1.33,1.33,0,0,0,1.28-1.31l.55-23.52a1.33,1.33,0,0,0-1.22-1.36,11,11,0,0,1-6.23-2.43"/><polygon class="cls-4" points="121.53 89.73 121.53 94.64 118.14 94.64 118.08 89.73 121.53 89.73"/><polygon class="cls-4" points="108.66 89.73 108.69 94.64 102.39 94.64 102.33 89.73 108.66 89.73"/><polygon class="cls-4" points="92.92 89.73 92.94 94.64 86.56 94.64 86.52 89.73 92.92 89.73"/><polygon class="cls-4" points="77.08 89.73 77.11 94.64 72.19 94.64 72.19 89.73 77.08 89.73"/><polygon class="cls-4" points="77.03 78.74 77.05 83.64 72.19 83.64 72.19 78.74 77.03 78.74"/><polygon class="cls-4" points="92.86 78.74 92.88 83.64 86.44 83.64 86.39 78.74 92.86 78.74"/><polygon class="cls-4" points="108.59 78.74 108.63 83.64 102.28 83.64 102.22 78.74 108.59 78.74"/><polygon class="cls-4" points="118.14 94.64 118.2 101.82 108.72 101.88 108.69 94.64 108.66 89.73 108.63 83.64 108.59 78.74 108.58 76.07 113.56 71.94 117.94 75.87 117.97 78.74 118.03 83.64 118.08 89.73 118.14 94.64"/><polygon class="cls-4" points="102.39 94.64 102.45 101.82 92.97 101.88 92.94 94.64 92.92 89.73 92.88 83.64 92.86 78.74 92.84 76.07 97.81 71.94 102.19 75.87 102.22 78.74 102.28 83.64 102.33 89.73 102.39 94.64"/><polygon class="cls-4" points="86.56 94.64 86.63 101.82 77.14 101.88 77.11 94.64 77.08 89.73 77.05 83.64 77.03 78.74 77.02 76.07 81.98 71.94 86.36 75.87 86.39 78.74 86.44 83.64 86.52 89.73 86.56 94.64"/><line class="cls-5" x1="86.44" y1="83.64" x2="86.51" y2="89.73"/><polyline class="cls-5" points="77.03 78.74 77.02 76.07 81.98 71.94 86.36 75.87 86.39 78.74"/><line class="cls-5" x1="77.08" y1="89.73" x2="77.05" y2="83.64"/><polyline class="cls-5" points="86.56 94.64 86.63 101.82 77.14 101.88 77.11 94.64"/><line class="cls-5" x1="84.5" y1="77.81" x2="84.57" y2="82.33"/><line class="cls-5" x1="83.02" y1="87.72" x2="83" y2="93.23"/><line class="cls-5" x1="84.63" y1="95.44" x2="84.58" y2="97.97"/><line class="cls-5" x1="80.38" y1="93.08" x2="80.39" y2="98.38"/><line class="cls-5" x1="79.09" y1="83.23" x2="79.1" y2="87.04"/><line class="cls-5" x1="102.27" y1="83.64" x2="102.33" y2="89.73"/><polyline class="cls-5" points="92.86 78.74 92.84 76.07 97.81 71.94 102.19 75.87 102.22 78.74"/><line class="cls-5" x1="92.92" y1="89.73" x2="92.88" y2="83.64"/><polyline class="cls-5" points="102.39 94.64 102.45 101.82 92.97 101.88 92.94 94.64"/><line class="cls-5" x1="100.33" y1="77.81" x2="100.39" y2="82.33"/><line class="cls-5" x1="98.84" y1="87.72" x2="98.83" y2="93.23"/><line class="cls-5" x1="100.45" y1="95.44" x2="100.41" y2="97.97"/><line class="cls-5" x1="96.19" y1="93.08" x2="96.22" y2="98.38"/><line class="cls-5" x1="94.92" y1="83.23" x2="94.93" y2="87.04"/><line class="cls-5" x1="118.02" y1="83.64" x2="118.08" y2="89.73"/><polyline class="cls-5" points="108.59 78.74 108.58 76.07 113.56 71.94 117.94 75.87 117.97 78.74"/><line class="cls-5" x1="108.66" y1="89.73" x2="108.63" y2="83.64"/><polyline class="cls-5" points="118.14 94.64 118.2 101.82 108.72 101.88 108.69 94.64"/><line class="cls-5" x1="116.08" y1="77.81" x2="116.14" y2="82.33"/><line class="cls-5" x1="114.59" y1="87.72" x2="114.57" y2="93.23"/><line class="cls-5" x1="116.19" y1="95.44" x2="116.16" y2="97.97"/><line class="cls-5" x1="111.94" y1="93.08" x2="111.97" y2="98.38"/><line class="cls-5" x1="110.67" y1="83.23" x2="110.68" y2="87.04"/><polygon class="cls-5" points="77.05 83.64 72.19 83.64 72.19 78.74 77.03 78.74 77.05 83.64"/><polygon class="cls-5" points="92.88 83.64 86.44 83.64 86.39 78.74 92.86 78.74 92.88 83.64"/><polygon class="cls-5" points="108.63 83.64 102.28 83.64 102.22 78.74 108.59 78.74 108.63 83.64"/><polygon class="cls-5" points="117.97 78.74 121.53 78.74 121.53 83.64 118.03 83.64 117.97 78.74"/><polygon class="cls-5" points="77.11 94.64 72.19 94.64 72.19 89.73 77.08 89.73 77.11 94.64"/><polygon class="cls-5" points="92.94 94.64 86.56 94.64 86.52 89.73 92.92 89.73 92.94 94.64"/><polygon class="cls-5" points="108.69 94.64 102.39 94.64 102.33 89.73 108.66 89.73 108.69 94.64"/><polygon class="cls-5" points="118.08 89.73 121.53 89.73 121.53 94.64 118.14 94.64 118.08 89.73"/></svg>