<svg id="Layer_1" data-name="Layer 1" xmlns="http://www.w3.org/2000/svg" viewBox="0 0 256 256"><defs><style>.cls-1{fill:#0e4e91;}.cls-2{fill:#abe7ff;}.cls-3{fill:#fff;}.cls-4{fill:#2db5ff;}.cls-5{fill:#caf5fe;}.cls-6{fill:none;stroke:#0e4e91;stroke-linecap:round;stroke-linejoin:round;}</style></defs><path class="cls-1" d="M101.58,220.22l.34-1.21c2.13.59,4.31,1.11,6.46,1.55l-.25,1.23C105.94,221.35,103.74,220.82,101.58,220.22Zm-4.83-1.47c-2.12-.71-4.25-1.5-6.31-2.35l.48-1.16c2,.84,4.13,1.62,6.23,2.32Zm16.35,3.92.18-1.24c2.19.33,4.41.58,6.6.75l-.1,1.25C117.57,223.26,115.32,223,113.1,222.67Zm11.74,1,0-1.26c2.2,0,4.44,0,6.64-.07l.06,1.25C129.34,223.72,127.07,223.74,124.84,223.69Zm11.77-.45-.12-1.25c2.19-.22,4.4-.52,6.58-.89l.21,1.24C141.07,222.72,138.82,223,136.61,223.24Zm11.61-1.89-.28-1.22c2.15-.49,4.31-1.06,6.42-1.7l.36,1.2C152.59,220.28,150.4,220.86,148.22,221.35Zm-90.8-27.76c-1.53-1.63-3-3.33-4.44-5.07l1-.79c1.4,1.71,2.87,3.4,4.38,5Zm102.1,24.46-.43-1.18c2.08-.75,4.15-1.58,6.17-2.47l.51,1.15C163.73,216.44,161.63,217.29,159.52,218.05ZM49.89,184.52c-1.32-1.8-2.59-3.68-3.78-5.57l1.06-.67c1.18,1.87,2.43,3.72,3.73,5.5Zm120.44,28.86-.57-1.12c2-1,3.93-2.07,5.82-3.21l.64,1.08C174.31,211.28,172.32,212.37,170.33,213.38ZM43.54,174.6c-1.08-1.95-2.12-4-3.07-6l1.14-.53c.94,2,2,4,3,5.91Zm137,32.82-.7-1c1.84-1.23,3.65-2.54,5.39-3.9l.77,1C184.19,204.85,182.36,206.18,180.5,207.42ZM38.44,164c-.84-2.07-1.62-4.2-2.31-6.32l1.19-.39c.69,2.1,1.45,4.2,2.28,6.24Zm151.42,36.29-.82-1c1.67-1.44,3.31-3,4.87-4.53l.89.89C193.21,197.26,191.55,198.8,189.86,200.27ZM34.69,152.82c-.58-2.16-1.09-4.36-1.52-6.55L34.4,146c.42,2.16.93,4.34,1.5,6.47ZM198.28,192l-.93-.84c1.48-1.64,2.92-3.36,4.27-5.1l1,.77C201.24,188.61,199.78,190.35,198.28,192ZM33.94,106.18c.46-1.94,1-3.89,1.55-5.79l.22-.71,1.2.37-.21.7c-.57,1.88-1.08,3.8-1.53,5.72ZM38.5,95.33l-1.18-.43c.77-2.1,1.63-4.2,2.54-6.23l1.15.51C40.11,91.19,39.26,93.26,38.5,95.33ZM221,138.78c.25-2.2.43-4.43.53-6.62l1.25.06c-.1,2.23-.28,4.48-.54,6.71ZM43.17,84.69l-1.12-.57c1-2,2.13-4,3.29-5.87l1.07.65C45.27,80.78,44.18,82.73,43.17,84.69Zm178.41,42.48c0-2.2-.12-4.44-.29-6.64l1.25-.1c.18,2.23.28,4.49.29,6.73ZM49.12,74.7l-1-.7c1.26-1.84,2.6-3.67,4-5.43l1,.78C51.69,71.08,50.36,72.88,49.12,74.7Zm171.64,40.88c-.29-2.19-.66-4.39-1.11-6.55l1.23-.25c.45,2.19.83,4.42,1.12,6.63ZM56.27,65.52l-.94-.83c1.48-1.67,3-3.32,4.64-4.89l.88.89C59.27,62.24,57.73,63.86,56.27,65.52Zm162.25,38.67c-.56-2.13-1.2-4.27-1.91-6.36l1.19-.4c.72,2.12,1.36,4.29,1.93,6.45Zm-154-46.9-.83-.94c1.67-1.48,3.42-2.92,5.2-4.28l.76,1C67.87,54.4,66.15,55.83,64.49,57.29ZM214.9,93.15c-.82-2.05-1.71-4.1-2.67-6.08l1.13-.54c1,2,1.88,4.09,2.71,6.17Zm-141.23-43-.71-1c1.84-1.26,3.76-2.48,5.69-3.61l.63,1.08C77.37,47.69,75.49,48.89,73.67,50.13ZM210,82.63c-1.06-1.93-2.2-3.85-3.39-5.71l1.06-.68c1.21,1.89,2.37,3.83,3.44,5.79ZM116.83,34.09l-.14-1.25c2.22-.24,4.48-.41,6.71-.5l0,1.25C121.24,33.69,119,33.85,116.83,34.09Zm61.81,14.72c-1.85-1.2-3.77-2.35-5.7-3.42l.61-1.1c2,1.08,3.9,2.25,5.77,3.47ZM128.43,33.54l0-1.26c2.23,0,4.5.15,6.73.34l-.11,1.25C132.86,33.68,130.63,33.57,128.43,33.54Zm40.09,9.55c-2-1-4-1.87-6.08-2.69l.47-1.16c2.08.83,4.15,1.75,6.15,2.73ZM140,34.43l.17-1.24c2.21.31,4.44.7,6.63,1.16l-.26,1.23C144.4,35.11,142.2,34.73,140,34.43Zm17.75,4.24c-2.09-.72-4.23-1.37-6.36-1.93l.32-1.21c2.15.57,4.32,1.23,6.44,2Z"/><circle class="cls-2" cx="127.61" cy="124.89" r="74.89"/><path class="cls-1" d="M150.2,64c.13,4.68-1.29,9-3.13,13.27-1.25,2.87-3.48,7.09-6.95,7.64a11.58,11.58,0,0,1-4.41-.49c-2.51-.63-4.28-1.12-6.86-.27-3.57,1.19-6,1.53-8.6-1.61-5-6-9-15.17-5.51-22.78A9.33,9.33,0,0,1,122,54.11c3.41-.43,6.1,1.56,9.26,2.09a8.53,8.53,0,0,0-5.75-5.93.48.48,0,0,1-.25-.18.49.49,0,0,1-.11-.45,8.48,8.48,0,0,1,1.52-3.36l.06-.05.08-.06,0,0a.4.4,0,0,1,.43.05,14.57,14.57,0,0,1,5,6.68,9.91,9.91,0,0,1,8.52-6.83.44.44,0,0,1,.49.42l.06.12a8.34,8.34,0,0,1-1.43,7.62c-.08.1-.19.18-.27.28a7.73,7.73,0,0,1,4.7.15C148.09,56.09,150.09,60.12,150.2,64Zm-1.55,5.75c1.16-5.07.8-12.66-5.32-14.33-2.24-.61-4.39.16-6.56.91a13.88,13.88,0,0,1-1.42.47,11,11,0,0,1-3.09.56.35.35,0,0,1-.23,0c-3.65-.28-6.58-2.84-10.42-2.13-5.36,1-7.47,7-7.16,11.89s2.72,9.11,5.33,13.07c1.54,2.33,3.37,4.58,6.48,3.81,1.74-.44,3.33-1.39,5.16-1.46,3.81-.16,7.58,3.22,11,0S147.66,74.1,148.65,69.74Zm-9.84-15.89a7.2,7.2,0,0,0,1.55-6.72,8.68,8.68,0,0,0-7.51,9,.25.25,0,0,1,0,.13C135,55.94,137.28,55.41,138.81,53.85Zm-7.39.1a13,13,0,0,0-4.33-6.57,7.57,7.57,0,0,0-.87,2.09A9.57,9.57,0,0,1,131.42,54Z"/><path class="cls-3" d="M143.33,55.41c6.12,1.67,6.48,9.26,5.32,14.33-1,4.36-2.91,9.69-6.23,12.8s-7.19-.2-11-.05c-1.82.08-3.42,1-5.16,1.46-3.1.77-4.93-1.47-6.48-3.81-2.6-4-5-8.24-5.33-13.07s1.81-10.89,7.16-11.88c3.84-.72,6.77,1.85,10.43,2.12a.38.38,0,0,0,.22,0,11.29,11.29,0,0,0,3.09-.56,12.64,12.64,0,0,0,1.43-.48C138.94,55.57,141.09,54.8,143.33,55.41ZM123,59.18c.59-.25.33-1.24-.28-1-3.45,1.42-5.19,5.77-4.62,9.28.12.65,1.1.38,1-.27C118.65,64.31,120.15,60.37,123,59.18Zm-4.22,11.43a.52.52,0,0,0,0-1A.52.52,0,0,0,118.82,70.61Z"/><path class="cls-4" d="M140.36,47.14a7.2,7.2,0,0,1-1.55,6.72c-1.53,1.55-3.86,2.08-6,2.39a.32.32,0,0,0,0-.13A8.68,8.68,0,0,1,140.36,47.14Z"/><path class="cls-3" d="M127.1,47.38A13,13,0,0,1,131.43,54a9.55,9.55,0,0,0-5.2-4.47A7,7,0,0,1,127.1,47.38Z"/><path class="cls-4" d="M122.76,58.19c.61-.25.87.74.28,1-2.89,1.18-4.39,5.13-3.91,8,.11.65-.87.92-1,.27C117.57,64,119.31,59.61,122.76,58.19Z"/><path class="cls-4" d="M118.82,69.58a.52.52,0,0,1,0,1A.52.52,0,0,1,118.82,69.58Z"/><path class="cls-1" d="M100.73,107.53c.34,9-2.34,20.46-9.52,26.6a.75.75,0,0,1-1.24-.72,67.44,67.44,0,0,0,.92-7.14c-2.19,3-5.49,5.22-8.72,7.12a36.33,36.33,0,0,1-14.3,5.16c-4.14.48-9.07-.16-12.42-2.93-2.67-2.21-1.58-5.63-.14-8.26,1.24-2.26,2.84-4.3,4-6.62a35.9,35.9,0,0,0,2.52-8.86c1-5.09,2-10.46,5-14.82,4.07-5.94,12.46-8.77,19-5.49,2.12-3.83,2.48-10.35,1.42-14.47a.74.74,0,0,1,1.43-.39,25.67,25.67,0,0,1,.26,10c4.18.15,6.17,2.7,8,6.42A35.88,35.88,0,0,1,100.73,107.53ZM99.24,111a32.76,32.76,0,0,0-1.87-12.8c-1.58-4.3-3.37-9.75-8.59-10-4.13,8.61,2.86,18.1,3.44,26.75a82,82,0,0,1-.44,16.55C96.64,126.19,99,117.81,99.24,111ZM91.08,123a51.58,51.58,0,0,0-.91-12.2C89,105.15,86,99.3,86.1,93.47c-7.88-5-17,.68-20.16,8.43-2.7,6.7-2.43,14.32-6,20.71-2,3.59-6.89,8.48-2.81,12.37,3.06,2.92,9.18,2.48,12.9,1.73,7.32-1.46,17.83-6.42,21-13.64Z"/><path class="cls-4" d="M97.38,98.18A32.76,32.76,0,0,1,99.25,111c-.27,6.83-2.61,15.21-7.46,20.52A82,82,0,0,0,92.23,115c-.58-8.65-7.57-18.15-3.44-26.75C94,88.43,95.79,93.88,97.38,98.18Z"/><path class="cls-3" d="M90.17,110.84a51.58,51.58,0,0,1,.91,12.2l0,0c-3.16,7.21-13.67,12.18-21,13.64-3.72.75-9.83,1.18-12.9-1.73-4.08-3.89.81-8.78,2.81-12.37,3.53-6.39,3.25-14,6-20.71,3.14-7.75,12.28-13.4,20.16-8.43C86,99.3,89,105.15,90.17,110.84ZM77.36,95.94a.74.74,0,0,0,0-1.48A.74.74,0,0,0,77.36,95.94Zm-2.25,1.21a.74.74,0,0,0-.74-1.28,13.56,13.56,0,0,0-7,11.45c0,1,1.45,1,1.48,0A12.08,12.08,0,0,1,75.11,97.15Z"/><path class="cls-4" d="M77.36,94.46a.74.74,0,0,1,0,1.48A.74.74,0,0,1,77.36,94.46Z"/><path class="cls-4" d="M74.37,95.88a.74.74,0,0,1,.74,1.28,12,12,0,0,0-6.29,10.17c0,1-1.51,1-1.48,0A13.58,13.58,0,0,1,74.37,95.88Z"/><path class="cls-1" d="M186.85,157.25c7.49,4.48,4.66,15.15,1.68,21.84-2.63,5.9-7.17,12.46-13.26,15.2-4.57,2.06-8.3-.66-11.5-3.91-7.25-7.33-18.72-26.13-5.76-33.51a4.67,4.67,0,0,1-.66-.89.62.62,0,0,1,.52-.93c2.47-.11,4.48-1.72,6.78-2.47a20.88,20.88,0,0,1,5.66-.93,23.19,23.19,0,0,0-.8-7.22.61.61,0,0,1,.43-.75c1.89-.35,2.92-.86,3.51,1.15a22.79,22.79,0,0,1,.84,7.12,17.35,17.35,0,0,1,6.26,1,45.8,45.8,0,0,0,7.08,2.59.61.61,0,0,1,.27,1A8.06,8.06,0,0,1,186.85,157.25Zm-2,26.12c4.13-6.51,9.91-20.76.73-25.43l-.08-.06a11.07,11.07,0,0,1-7.78-.52,11,11,0,0,1-.24,5.39.62.62,0,0,1-.89.37c-1.94-1-3.48-2.16-4.19-4a11.15,11.15,0,0,1-5.84,3.8.61.61,0,0,1-.77-.59c.06-1.83-.15-3.54.35-5.11-2.26,1-5.13,1.54-7.13.45a.85.85,0,0,1-.14.11c-8.42,4.58-5.34,14.48-1.8,21.23,2.74,5.2,7.21,12.37,13,14.55S182.26,187.45,184.85,183.37ZM177,155.73c2.84,1.35,6.15,2.12,9,.63a35,35,0,0,1-4.27-1.63,19,19,0,0,0-8-1.57.54.54,0,0,1-.34-.12.51.51,0,0,1-.27-.5,22.24,22.24,0,0,0-.29-5.22,6.61,6.61,0,0,0-.5-2.17c0-.62-.22-.8-.75-.52-.23,0-.45.08-.68.12a23.79,23.79,0,0,1,.67,7.47.73.73,0,0,1-.06.21v0s0,0,0,.07a.58.58,0,0,1-.52.32,20.69,20.69,0,0,0-8.52,2,15.37,15.37,0,0,1-3.38,1.28c2.06,2,6.32.34,8.36-.94.61-.39,1.18.46.74,1-1.3,1.47-1.12,3.48-1.09,5.31a8.4,8.4,0,0,0,5.09-4.22c.29-.61,1.08-.23,1.15.31.22,2.1,1.59,3.21,3.23,4.13a7.5,7.5,0,0,0-.31-5.1A.61.61,0,0,1,177,155.73Z"/><path class="cls-3" d="M185.58,157.94c9.19,4.67,3.41,18.92-.73,25.43-2.6,4.08-8.9,12.39-14.75,10.19s-10.3-9.35-13-14.55c-3.54-6.75-6.62-16.65,1.8-21.23a.85.85,0,0,0,.14-.11c2,1.09,4.87.54,7.13-.45-.5,1.57-.29,3.29-.35,5.11a.61.61,0,0,0,.77.59,11.15,11.15,0,0,0,5.84-3.8c.71,1.85,2.25,3,4.19,4a.62.62,0,0,0,.89-.37,11.26,11.26,0,0,0,.24-5.39,11.12,11.12,0,0,0,7.78.52S185.54,157.92,185.58,157.94Zm.57,7.78a9.72,9.72,0,0,0-.45-2.06.52.52,0,0,0-.59-.43.51.51,0,0,0-.59.43,13.19,13.19,0,0,0-.39,2.26,1.07,1.07,0,0,0,1.15,1.18C185.91,167,186.15,166.28,186.15,165.72ZM182.81,175a10,10,0,0,0-.45-2.07.53.53,0,0,0-.59-.43.5.5,0,0,0-.59.43,13.36,13.36,0,0,0-.39,2.26,1.07,1.07,0,0,0,1.15,1.19C182.57,176.27,182.81,175.57,182.81,175Zm-3.48,7.78a9.14,9.14,0,0,0-.45-2.06.52.52,0,0,0-.59-.43.51.51,0,0,0-.59.43,13.17,13.17,0,0,0-.38,2.26,1.06,1.06,0,0,0,1.15,1.18C179.09,184.05,179.32,183.35,179.33,182.79Zm-1.59-14.38a1.29,1.29,0,0,0,.75-1.45,9.45,9.45,0,0,0-.56-1.93.48.48,0,0,0-.43-.44.61.61,0,0,0-.78.54v0a11.56,11.56,0,0,0-.24,2.19A1.07,1.07,0,0,0,177.74,168.41ZM173.25,176a9.72,9.72,0,0,0-.45-2.06.52.52,0,0,0-.59-.43.5.5,0,0,0-.59.43,13.19,13.19,0,0,0-.39,2.26,1.06,1.06,0,0,0,1.15,1.18C173,177.21,173.24,176.52,173.25,176Zm-.4,13.07a10,10,0,0,0-.45-2.07.53.53,0,0,0-.59-.43.5.5,0,0,0-.59.43,13.36,13.36,0,0,0-.39,2.26A1.07,1.07,0,0,0,172,190.4C172.6,190.28,172.84,189.58,172.85,189Zm-4.16-20.75a9.31,9.31,0,0,0-.39-2.08.51.51,0,0,0-.59-.43.52.52,0,0,0-.59.43,12.29,12.29,0,0,0-.45,2.25,1.06,1.06,0,0,0,1.14,1.19C168.43,169.52,168.67,168.83,168.69,168.27Zm-1.67,14a9.67,9.67,0,0,0-.45-2.07.52.52,0,0,0-.59-.43.5.5,0,0,0-.59.43,13.36,13.36,0,0,0-.39,2.26c0,.64.45,1.31,1.15,1.18S167,182.81,167,182.25ZM162.47,175a10,10,0,0,0-.45-2.07.53.53,0,0,0-.59-.43.5.5,0,0,0-.59.43,13.36,13.36,0,0,0-.39,2.26c0,.64.45,1.31,1.15,1.19S162.46,175.57,162.47,175Zm-2.72-7.4c1.47-.23.79-2.37.67-3.27,0,0,0,0,0,0a.61.61,0,0,0-.79-.54.45.45,0,0,0-.42.44,10.92,10.92,0,0,0-.57,2.16C158.59,167,159,167.73,159.75,167.61Z"/><path class="cls-4" d="M185.7,163.65a9.14,9.14,0,0,1,.45,2.06c0,.56-.24,1.26-.87,1.37a1.07,1.07,0,0,1-1.15-1.18,14.43,14.43,0,0,1,.39-2.26.51.51,0,0,1,.59-.43A.53.53,0,0,1,185.7,163.65Z"/><path class="cls-4" d="M186,156.36c-2.82,1.49-6.14.73-9-.63a.62.62,0,0,0-.84.83,7.62,7.62,0,0,1,.31,5.1c-1.63-.92-3-2-3.23-4.13-.06-.53-.86-.92-1.15-.31a8.4,8.4,0,0,1-5.09,4.22c0-1.83-.21-3.84,1.09-5.31.44-.5-.13-1.35-.74-1-2,1.28-6.29,2.9-8.36.94a14.89,14.89,0,0,0,3.38-1.28,20.72,20.72,0,0,1,8.52-2,.59.59,0,0,0,.52-.32s0,0,0-.07v0a.73.73,0,0,0,.06-.21,24,24,0,0,0-.67-7.47c.23,0,.45-.09.68-.12.53-.27.79-.1.75.52a6.81,6.81,0,0,1,.5,2.17,22.79,22.79,0,0,1,.29,5.22.52.52,0,0,0,.27.5.54.54,0,0,0,.34.12,19.17,19.17,0,0,1,8,1.57A34.23,34.23,0,0,0,186,156.36Z"/><path class="cls-4" d="M182.36,172.94a9.34,9.34,0,0,1,.45,2.07c0,.56-.24,1.26-.87,1.37a1.07,1.07,0,0,1-1.15-1.19,14.85,14.85,0,0,1,.39-2.26.51.51,0,0,1,.59-.43A.54.54,0,0,1,182.36,172.94Z"/><path class="cls-4" d="M178.87,180.73a8.62,8.62,0,0,1,.45,2.06c0,.56-.24,1.26-.87,1.37A1.06,1.06,0,0,1,177.3,183a14.41,14.41,0,0,1,.38-2.26.51.51,0,0,1,.59-.43A.52.52,0,0,1,178.87,180.73Z"/><path class="cls-4" d="M178.49,167c0,.56-.13,1.28-.75,1.45a1.06,1.06,0,0,1-1.25-1.07,11.56,11.56,0,0,1,.24-2.19v0a.61.61,0,0,1,.78-.54.46.46,0,0,1,.43.44A10.2,10.2,0,0,1,178.49,167Z"/><path class="cls-4" d="M172.8,173.89a9.14,9.14,0,0,1,.45,2.06c0,.57-.24,1.26-.87,1.37a1.06,1.06,0,0,1-1.15-1.18,14.64,14.64,0,0,1,.39-2.26.5.5,0,0,1,.59-.43A.54.54,0,0,1,172.8,173.89Z"/><path class="cls-4" d="M172.39,187a9.34,9.34,0,0,1,.45,2.07c0,.56-.24,1.26-.87,1.37a1.07,1.07,0,0,1-1.15-1.19,14.85,14.85,0,0,1,.39-2.26.51.51,0,0,1,.59-.43A.55.55,0,0,1,172.39,187Z"/><path class="cls-4" d="M168.3,166.19a8.77,8.77,0,0,1,.39,2.08c0,.56-.26,1.25-.89,1.35a1.06,1.06,0,0,1-1.14-1.19,14.46,14.46,0,0,1,.45-2.25.62.62,0,0,1,1.19,0Z"/><path class="cls-4" d="M166.56,180.17a9.1,9.1,0,0,1,.45,2.07c0,.56-.24,1.26-.87,1.36s-1.16-.54-1.15-1.18a14.85,14.85,0,0,1,.39-2.26.51.51,0,0,1,.59-.43A.55.55,0,0,1,166.56,180.17Z"/><path class="cls-4" d="M162,172.94a9.34,9.34,0,0,1,.45,2.07c0,.56-.24,1.26-.87,1.37s-1.16-.55-1.15-1.19a14.85,14.85,0,0,1,.39-2.26.51.51,0,0,1,.59-.43A.54.54,0,0,1,162,172.94Z"/><path class="cls-4" d="M160.42,164.34c.11.9.8,3-.67,3.27-.73.11-1.15-.59-1.11-1.23a10.92,10.92,0,0,1,.57-2.16.47.47,0,0,1,.42-.44.61.61,0,0,1,.79.54S160.42,164.34,160.42,164.34Z"/><path class="cls-1" d="M204.12,96.33c1,9.68-2.57,17.23-9.53,23.84a30.16,30.16,0,0,1-15.78,8.26c-10.06,1.72-21.16.92-29.48-5.46s-11.78-16.46-11.08-26.64a.73.73,0,0,1,.07-.24.15.15,0,0,1,0-.06l0-.06a.72.72,0,0,1,.66-.42h64.33A.81.81,0,0,1,204.12,96.33Zm-1.29,3.29c0-1,.26-2.38,0-2.52A4.14,4.14,0,0,0,201,97c.25,8.66-3.06,15.2-9.78,20.62s-13.33,8.49-22.18,7.7a40.14,40.14,0,0,1-10.52-2,35.12,35.12,0,0,1-9.82-6.61c-5.53-5-6.95-12.52-7.31-19.63h-1.68c-.42,8.79,2.4,17.64,9.14,23.53,7,6.08,15.7,7.34,24.62,6.85,10.68-.61,18.72-5.6,25.08-14.16a21.22,21.22,0,0,0,3.8-8.2A24.77,24.77,0,0,0,202.83,99.62Zm-12.67,16.94c6.37-5.13,9.53-11.25,9.33-19.45H142.94c.36,6.93,1.76,14.19,7.29,18.93a39.84,39.84,0,0,0,8,5.46c3,1.47,7.51,2,10.81,2.31a27.7,27.7,0,0,0,11.86-1.24C184.29,121.31,187.39,118.8,190.16,116.56Z"/><path class="cls-3" d="M202.85,97.1c.24.14,0,1.55,0,2.52a23.55,23.55,0,0,1-.46,5.49,21.22,21.22,0,0,1-3.8,8.2c-6.36,8.56-14.4,13.56-25.08,14.16-8.92.5-17.67-.76-24.62-6.85-6.75-5.89-9.56-14.74-9.14-23.53h1.69c.36,7.11,1.79,14.65,7.3,19.63a35.34,35.34,0,0,0,9.82,6.61,40.56,40.56,0,0,0,10.52,2c8.86.78,15.45-2.27,22.19-7.7s10-12,9.77-20.62A4.17,4.17,0,0,1,202.85,97.1Z"/><path class="cls-3" d="M199.49,97.1c.21,8.2-3,14.33-9.33,19.45-2.77,2.24-5.87,4.75-9.24,6a27.67,27.67,0,0,1-11.86,1.25c-3.3-.31-7.82-.85-10.81-2.32a39.84,39.84,0,0,1-8-5.46c-5.53-4.74-6.93-12-7.29-18.93h56.55Zm-6,5.48a.76.76,0,0,0,1.08-1.08s-.06,0-.08-.08c-.7-.69-1.79.4-1.08,1.08A.3.3,0,0,0,193.52,102.58Zm.77,2.45a.77.77,0,0,0-1.48-.42c-1.29,4.63-4.85,7.71-8.7,10.29-.82.54,0,1.87.78,1.32C189.08,113.42,192.9,110,194.29,105Zm-9.78-2c.26-.81-.45-1.54-1.11-1.9a19.22,19.22,0,0,0-2.2-.79h0l-.05,0a.62.62,0,0,0-.85.38.68.68,0,0,0,.11.9,13.7,13.7,0,0,0,2.16,2A1.29,1.29,0,0,0,184.51,103Zm-5.07,5.78a1.62,1.62,0,0,0,.15-2,11.09,11.09,0,0,0-1.66-2l0,0a.61.61,0,0,0-.93-.08.68.68,0,0,0-.36.83,13.86,13.86,0,0,0,.87,2.74A1.34,1.34,0,0,0,179.44,108.77Zm-7,.49a12.6,12.6,0,0,0-.57-2.59.64.64,0,0,0-.73-.54.63.63,0,0,0-.75.54,16.89,16.89,0,0,0-.5,2.81,1.35,1.35,0,0,0,1.45,1.5C172.15,110.84,172.43,110,172.46,109.26Zm-6.19-3.82a.38.38,0,0,0,0-.1.84.84,0,0,0-.58-.73h-.23a.36.36,0,0,0-.15,0l-.15.06-.08,0a.6.6,0,0,1-.13.09l-1.11,1.1a5.72,5.72,0,0,0-.94,1,1.3,1.3,0,0,0,.56,2c.81.25,1.54-.44,1.92-1.09a18,18,0,0,0,.82-2.15l0-.08v0A.29.29,0,0,0,166.27,105.44ZM162.18,102a.75.75,0,0,0,.11-1.16.57.57,0,0,0-.77-.2,19.1,19.1,0,0,0-2.54.69,1.37,1.37,0,0,0-.87,1.93,1.54,1.54,0,0,0,2,.33,10.66,10.66,0,0,0,2-1.55S162.16,102,162.18,102Z"/><path class="cls-4" d="M194.6,101.49a.76.76,0,0,1-1.08,1.08.27.27,0,0,1-.08-.07c-.71-.69.39-1.78,1.08-1.09C194.54,101.45,194.58,101.47,194.6,101.49Z"/><path class="cls-4" d="M192.81,104.61a.77.77,0,0,1,1.48.42c-1.4,5-5.21,8.39-9.41,11.2-.82.55-1.59-.78-.78-1.33C188,112.32,191.52,109.24,192.81,104.61Z"/><path class="cls-4" d="M183.4,101.09c.66.36,1.37,1.09,1.11,1.9a1.29,1.29,0,0,1-2,.58,12.47,12.47,0,0,1-2.16-2,.68.68,0,0,1-.11-.9.62.62,0,0,1,.85-.38l.05,0h0A19.22,19.22,0,0,1,183.4,101.09Z"/><path class="cls-4" d="M179.59,106.75a1.62,1.62,0,0,1-.15,2,1.33,1.33,0,0,1-2-.59,13.43,13.43,0,0,1-.87-2.74.68.68,0,0,1,.36-.83.63.63,0,0,1,.93.08l0,0A11.09,11.09,0,0,1,179.59,106.75Z"/><path class="cls-4" d="M171.89,106.67a12.6,12.6,0,0,1,.57,2.59c0,.7-.31,1.58-1.1,1.72a1.35,1.35,0,0,1-1.45-1.5,15.76,15.76,0,0,1,.5-2.81.62.62,0,0,1,.75-.54A.65.65,0,0,1,171.89,106.67Z"/><path class="cls-4" d="M166.29,105.34a.19.19,0,0,1,0,.1.25.25,0,0,1,0,.12v0a.24.24,0,0,1,0,.09,17,17,0,0,1-.82,2.15c-.39.64-1.11,1.33-1.92,1.08a1.29,1.29,0,0,1-.56-2,6.12,6.12,0,0,1,.94-1c.37-.36.75-.73,1.11-1.1a.57.57,0,0,1,.13-.08l.08,0,.15-.06.15,0h.24A.88.88,0,0,1,166.29,105.34Z"/><path class="cls-4" d="M162.29,100.81a.75.75,0,0,1-.11,1.16l0,0a10.71,10.71,0,0,1-2,1.56,1.57,1.57,0,0,1-2-.33,1.38,1.38,0,0,1,.87-1.94,19.79,19.79,0,0,1,2.54-.68A.6.6,0,0,1,162.29,100.81Z"/><path class="cls-4" d="M79.11,181.73a1.33,1.33,0,0,0,0,.19,2.23,2.23,0,0,0,.66,1l.44.39.32.27.43-2.25.48-2.44-.38.09-.35.08a2.22,2.22,0,0,0-1.39,1l-.11.2a5.71,5.71,0,0,0-.15.44.83.83,0,0,0,0,.22c0,.05,0,.11,0,.16a1.93,1.93,0,0,0,0,.34.68.68,0,0,0,0,.14A.52.52,0,0,0,79.11,181.73Z"/><path class="cls-5" d="M79.09,181.62a.52.52,0,0,0,0,.11A.52.52,0,0,1,79.09,181.62Z"/><path class="cls-4" d="M74.31,166a2.2,2.2,0,0,0,.31,1.12c.17.28.35.55.52.82l1-1.95,1.12-2.11-.72,0h-.29l-.14,0H76l-.09,0-.18.05-.15.06h0l-.22.12-.1.06-.25.2h0l-.12.12h0l0,0a3.15,3.15,0,0,0-.22.29s-.05.08-.07.13l-.06.12a1.8,1.8,0,0,0-.08.21.83.83,0,0,0,0,.15.44.44,0,0,0,0,.1.07.07,0,0,0,0,.05.78.78,0,0,0,0,.16h0A1.62,1.62,0,0,0,74.31,166Z"/><path class="cls-4" d="M74.31,166a1.62,1.62,0,0,1,0-.22A1.62,1.62,0,0,0,74.31,166Z"/><path class="cls-4" d="M79.06,181.14s0-.11,0-.16A.78.78,0,0,0,79.06,181.14Z"/><path class="cls-4" d="M79.08,181a.83.83,0,0,1,0-.22A.83.83,0,0,0,79.08,181Z"/><path class="cls-4" d="M79.11,180.76a1.42,1.42,0,0,1,.07-.22A1.87,1.87,0,0,0,79.11,180.76Z"/><path class="cls-3" d="M79.82,182.94l.44.39Z"/><path class="cls-3" d="M75.14,167.91l.35.51.15.22.17.25c.16.23.33.45.5.68l.24.33a4,4,0,0,1,.26.32c.08.11.17.21.25.31l.26.32c.07.09.15.17.23.26s.19.23.29.35l.59.64c.15.17.31.33.46.48l.4.4.07.06.67.64.69.61c.39.33.78.64,1.17,1l.62.45a28.57,28.57,0,0,0,2.78,1.75l.71.38c.71.37,1.42.7,2.15,1a50.5,50.5,0,0,0,20.45-1.61c16.48-5.15,16.43-21.34,16-26.27,0,.06,0,.12,0,.19s0,.15-.06.24a1.82,1.82,0,0,0-.07.25l-.07.26c0,.12-.07.23-.1.35s-.05.2-.09.3l-.09.3s0,0,0,0l-.09.29a3.18,3.18,0,0,0-.1.33s0,.09,0,.13-.07.22-.12.34-.11.32-.17.49-.08.21-.13.32v0l-.19.49c0,.06,0,.11-.07.17l-.1.23-.09.23-.19.43a20.73,20.73,0,0,1-14.74,19l-.73.22a29.69,29.69,0,0,1-20-1A28,28,0,0,1,76.17,166Z"/><path class="cls-5" d="M79.18,180.54a1.43,1.43,0,0,1,.08-.22A1,1,0,0,0,79.18,180.54Z"/><path class="cls-5" d="M79.26,180.32l.11-.2A2,2,0,0,0,79.26,180.32Z"/><path class="cls-3" d="M80.26,183.33l.32.27Z"/><path class="cls-3" d="M81,181.35l-.43,2.25c.34.28.69.56,1,.82l.52.4a29.56,29.56,0,0,0,10.16,4.9l.81.2c.71.16,1.42.29,2.13.4a4.46,4.46,0,0,0,.51.07c.59.09,1.17.15,1.74.19l.8,0h.07l.88,0c.1,0,.2,0,.3,0,.26,0,.53,0,.79,0h.81l.52,0q.31,0,.63,0h.09l.87-.08.8-.08.72-.09c.72-.09,1.44-.21,2.14-.35l.45-.09.58-.11c1.49-.33,2.91-.71,4.25-1.13,22.26-6.95,21.13-24.21,17.25-30.94a4.53,4.53,0,0,1-.27-.54c2.31,8,.44,21.55-18.71,27.53C102.45,187.22,91.38,188.6,81,181.35Z"/><path class="cls-4" d="M74.84,164.54l0,0h0Z"/><path class="cls-5" d="M81.61,184.42c-.34-.26-.69-.54-1-.82C80.92,183.88,81.27,184.16,81.61,184.42Z"/><path class="cls-5" d="M82.13,184.82l-.52-.4Z"/><path class="cls-4" d="M75.35,164.11l.22-.12A1.55,1.55,0,0,0,75.35,164.11Z"/><path class="cls-3" d="M77.29,163.85,76.17,166a28,28,0,0,0,11.13,8.61,29.69,29.69,0,0,0,20,1l.73-.22a20.73,20.73,0,0,0,14.74-19c-2.68,6-8.36,13.46-20.07,13.54a49.57,49.57,0,0,1-21.07-5.05,10.16,10.16,0,0,0-3.71-.94Z"/><path class="cls-4" d="M75.58,164l.15-.06Z"/><path class="cls-3" d="M88.1,178.81h0l-2-.25a10.46,10.46,0,0,0-4,.19l-.63.16L81,181.35c10.37,7.25,21.44,5.87,29.44,3.37,19.15-6,21-19.55,18.71-27.53h0a11.76,11.76,0,0,1-.35-6.09l-4.22-1.73a4.25,4.25,0,0,0,0,1.07c0,.15,0,.32,0,.51h0c.43,4.93.48,21.12-16,26.27a50.5,50.5,0,0,1-20.45,1.61Z"/><path class="cls-4" d="M75.91,163.88l.09,0h.06Z"/><path class="cls-4" d="M76.14,163.83l.14,0Z"/><path class="cls-4" d="M76.28,163.81h0Z"/><path class="cls-5" d="M93.1,189.92l-.81-.2Z"/><path class="cls-5" d="M95.74,190.39a4.46,4.46,0,0,1-.51-.07Z"/><path class="cls-5" d="M98.28,190.63l-.8,0Z"/><path class="cls-5" d="M99.23,190.67l-.88,0Z"/><path class="cls-5" d="M100.32,190.67c-.26,0-.53,0-.79,0C99.8,190.68,100.06,190.68,100.32,190.67Z"/><path class="cls-5" d="M102.28,190.6q-.32,0-.63,0Q102,190.63,102.28,190.6Z"/><path class="cls-5" d="M103.24,190.52l-.87.08Z"/><path class="cls-4" d="M107.93,189.8l-.58.11Z"/><path class="cls-4" d="M124.68,149a2.23,2.23,0,0,0-.09.39l4.22,1.73c.09-.58.21-1.15.33-1.66.06-.25.11-.5.17-.73l.06-.23c.12-.44.24-.82.33-1.13a1,1,0,0,0-.47-1.12l-1.93-1a1,1,0,0,0-1.32.49l-1.17,2.88A3,3,0,0,0,124.68,149Z"/><path class="cls-6" d="M77.29,163.85l.63,0a10.16,10.16,0,0,1,3.71.94,49.57,49.57,0,0,0,21.07,5.05c11.71-.08,17.39-7.53,20.07-13.54"/><path class="cls-6" d="M76.14,163.83l.14,0h.29"/><path class="cls-6" d="M75.91,163.88l.09,0h.06"/><path class="cls-6" d="M75.58,164l.15-.06"/><path class="cls-6" d="M75.25,164.17l.07,0h0l.22-.12"/><path class="cls-6" d="M75,164.39l0,0"/><path class="cls-6" d="M74.55,165l0-.07,0-.06"/><path class="cls-6" d="M79.29,173l-.4-.4"/><path class="cls-6" d="M80,173.68l-.67-.64"/><path class="cls-6" d="M81.89,175.24c-.4-.3-.78-.62-1.17-1"/><path class="cls-6" d="M88.09,178.81c-.7-.3-1.4-.62-2.09-1-.24-.12-.48-.24-.71-.38a24.81,24.81,0,0,1-2.78-1.75"/><line class="cls-6" x1="88.11" y1="178.82" x2="88.1" y2="178.81"/><path class="cls-6" d="M124.6,150.94c0,.06,0,.12,0,.19s0,.15-.06.24a1.82,1.82,0,0,0-.07.25l-.07.26c0,.12-.07.23-.1.35s-.05.2-.09.3l-.09.3s0,0,0,0l-.09.29a3.18,3.18,0,0,0-.1.33s0,.09,0,.13-.07.22-.12.34-.11.32-.17.49-.08.21-.13.32v0l-.19.49c0,.06,0,.11-.07.17l-.1.23-.09.23-.19.43a20.73,20.73,0,0,1-14.74,19l-.73.22a29.69,29.69,0,0,1-20-1A28,28,0,0,1,76.17,166"/><path class="cls-6" d="M74.84,164.54l0,0h0"/><path class="cls-6" d="M74.49,165.08l0-.1,0,0"/><path class="cls-6" d="M74.35,165.54s0,0,0,0a.64.64,0,0,1,0-.07v0l0-.11"/><path class="cls-6" d="M74.32,165.75a.78.78,0,0,1,0-.16"/><path class="cls-6" d="M74.31,166a1.62,1.62,0,0,1,0-.22"/><path class="cls-6" d="M88.15,178.82c-.73-.3-1.44-.63-2.15-1l-.71-.38a28.57,28.57,0,0,1-2.78-1.75l-.62-.45c-.39-.31-.78-.62-1.17-1l-.69-.61-.67-.64-.07-.06-.4-.4c-.15-.15-.31-.31-.46-.48l-.59-.64c-.1-.12-.2-.23-.29-.35s-.16-.17-.23-.26l-.26-.32c-.08-.1-.17-.2-.25-.31a4,4,0,0,0-.26-.32l-.24-.33c-.17-.23-.34-.45-.5-.68l-.17-.25-.15-.22-.35-.51"/><path class="cls-6" d="M74.31,166a2.2,2.2,0,0,0,.31,1.12c.17.28.35.55.52.82l1-1.95,1.12-2.11-.72,0h-.29l-.14,0h-.08l-.15,0-.18.05-.15.06h0a1.55,1.55,0,0,0-.22.12l-.1.06-.25.2h0l-.12.12,0,0a3.15,3.15,0,0,0-.22.29s-.05.08-.07.13l-.06.12a1.8,1.8,0,0,0-.08.21.83.83,0,0,0,0,.15.44.44,0,0,0,0,.1.07.07,0,0,0,0,.05.78.78,0,0,0,0,.16h0A1.62,1.62,0,0,0,74.31,166Z"/><path class="cls-6" d="M124.81,148.58a3,3,0,0,0-.13.39,2.46,2.46,0,0,0-.09.39,4.25,4.25,0,0,0,0,1.07c0,.15,0,.32,0,.51h0c.43,4.93.48,21.12-16,26.27a50.5,50.5,0,0,1-20.45,1.61h-.06l-2-.25a10.46,10.46,0,0,0-4,.19l-.63.16-.38.09"/><path class="cls-6" d="M129.31,148.7a2,2,0,0,0,.06-.23"/><path class="cls-6" d="M129.16,157.18a11.76,11.76,0,0,1-.35-6.09c.09-.58.21-1.15.33-1.66"/><path class="cls-6" d="M129.43,157.73a4.53,4.53,0,0,1-.27-.54"/><path class="cls-6" d="M106.9,190l.45-.09.58-.11"/><path class="cls-6" d="M104,190.44l.72-.09"/><path class="cls-6" d="M102.37,190.6l.87-.08"/><path class="cls-6" d="M101.13,190.66l.52,0q.31,0,.63,0"/><path class="cls-6" d="M99.53,190.67c.27,0,.53,0,.79,0"/><path class="cls-6" d="M98.35,190.64l.88,0"/><path class="cls-6" d="M97.48,190.58l.8,0"/><path class="cls-6" d="M95.23,190.32l.51.07"/><path class="cls-6" d="M92.29,189.72l.81.2"/><path class="cls-6" d="M80.58,183.6c.34.28.69.56,1,.82l.52.4"/><path class="cls-6" d="M79.06,181.14s0-.11,0-.16a.83.83,0,0,1,0-.22,5.71,5.71,0,0,1,.15-.44l.11-.2"/><path class="cls-6" d="M79.11,181.73a.52.52,0,0,1,0-.11.68.68,0,0,1,0-.14"/><path class="cls-6" d="M81,181.35c10.37,7.25,21.44,5.87,29.44,3.37,19.15-6,21-19.55,18.71-27.53h0l0,0c.09.2.19.4.29.59,3.88,6.73,5,24-17.25,30.94-1.34.42-2.76.8-4.25,1.13l-.58.11a3.26,3.26,0,0,1-.45.09c-.7.14-1.42.26-2.14.35l-.72.09-.8.08-.87.08h-.09q-.32,0-.63,0l-.52,0h-.81c-.26,0-.53,0-.79,0-.1,0-.2,0-.3,0l-.88,0h-.07l-.8,0c-.57,0-1.15-.1-1.74-.19a4.46,4.46,0,0,1-.51-.07c-.71-.11-1.42-.24-2.13-.4l-.81-.2a29.56,29.56,0,0,1-10.16-4.9l-.52-.4c-.34-.26-.69-.54-1-.82l-.32-.27-.44-.39"/><path class="cls-6" d="M128.81,151.09h0c.09-.58.2-1.14.32-1.66.06-.25.11-.5.17-.73l.06-.23c.12-.44.24-.82.33-1.13a1,1,0,0,0-.47-1.12l-1.93-1a1,1,0,0,0-1.32.49l-1.17,2.88a3,3,0,0,0-.13.39,2.23,2.23,0,0,0-.09.39Z"/><path class="cls-6" d="M79.11,181.73a1.33,1.33,0,0,0,0,.19,2.23,2.23,0,0,0,.66,1l.44.39.32.27.43-2.25.48-2.44h0l-.37.1-.35.08a2.22,2.22,0,0,0-1.39,1,2,2,0,0,0-.11.2,1,1,0,0,0-.08.22,1.87,1.87,0,0,0-.07.22.83.83,0,0,0,0,.22.78.78,0,0,0,0,.16,1.93,1.93,0,0,0,0,.34.68.68,0,0,0,0,.14A.52.52,0,0,0,79.11,181.73Z"/></svg>