<svg id="Layer_1" data-name="Layer 1" xmlns="http://www.w3.org/2000/svg" viewBox="0 0 256 256"><defs><style>.cls-1{fill:#0e4e91;}.cls-2{fill:#abe7ff;}.cls-3{fill:#fff;}.cls-4{fill:#2db5ff;}.cls-5{fill:#caf5fe;}.cls-6{fill:none;stroke:#0e4e91;stroke-miterlimit:10;}</style></defs><path class="cls-1" d="M120.22,215l.23-1.12c2,.42,4,.78,6,1l-.16,1.14C124.25,215.77,122.22,215.41,120.22,215Zm-4.48-1.08c-2-.52-3.95-1.13-5.86-1.79l.37-1.08c1.9.65,3.84,1.24,5.79,1.76Zm15.09,2.66.1-1.14c2,.17,4,.28,6,.31v1.14C134.92,216.86,132.87,216.75,130.83,216.57Zm10.73.28,0-1.15c2-.07,4-.22,6-.44l.12,1.14C145.66,216.62,143.6,216.77,141.56,216.85Zm10.68-1.06-.19-1.13c2-.32,4-.71,5.93-1.17l.27,1.11C156.27,215.06,154.24,215.47,152.24,215.79Zm10.45-2.37-.32-1.1c1.93-.56,3.87-1.2,5.75-1.89l.4,1.07C166.61,212.21,164.64,212.85,162.69,213.42Zm-84.1-20.2c-1.48-1.4-2.93-2.87-4.32-4.37l.84-.77c1.37,1.48,2.8,2.93,4.26,4.31Zm94.2,16.57-.45-1c1.85-.79,3.69-1.67,5.47-2.59l.53,1C176.53,208.1,174.66,209,172.79,209.79ZM71.24,185.39c-1.3-1.57-2.56-3.2-3.74-4.86l.92-.67c1.18,1.64,2.42,3.25,3.7,4.8ZM182.35,205l-.58-1c1.74-1,3.45-2.11,5.12-3.25l.65.95C185.86,202.82,184.11,203.92,182.35,205ZM64.91,176.73c-1.09-1.71-2.15-3.49-3.12-5.28l1-.55c1,1.77,2,3.53,3.09,5.21ZM191.27,199l-.69-.91c1.61-1.22,3.17-2.51,4.69-3.84l.75.86C194.49,196.42,192.89,197.73,191.27,199ZM59.69,167.35c-.88-1.84-1.71-3.73-2.46-5.62l1.07-.42c.74,1.87,1.56,3.73,2.43,5.54Zm139.7,24.59-.81-.82c1.44-1.4,2.84-2.89,4.18-4.39l.86.76C202.27,189,200.84,190.51,199.39,191.94Zm7.19-8-.89-.71c1.26-1.57,2.47-3.21,3.6-4.87l1,.64C209.09,180.71,207.85,182.37,206.58,184Zm17.67-49.67c.11-2,.15-4,.11-6l1.14,0c0,2,0,4.09-.11,6.13ZM59.59,95l-1.05-.46c.83-1.87,1.72-3.73,2.67-5.53l1,.53C61.28,91.31,60.4,93.14,59.59,95Zm164.58,28.72c-.14-2-.35-4-.63-6l1.13-.16c.29,2,.5,4.08.64,6.1ZM64.43,85.58l-1-.59c1-1.75,2.16-3.48,3.33-5.16l1,.66C66.58,82.14,65.47,83.85,64.43,85.58Zm158.35,27.64c-.38-2-.84-4-1.36-5.89l1.1-.3c.53,2,1,4,1.39,6ZM70.43,76.83l-.9-.71c1.24-1.6,2.57-3.19,3.94-4.71l.86.77C73,73.68,71.66,75.24,70.43,76.83ZM220.12,103c-.63-1.91-1.33-3.82-2.09-5.67l1.06-.43c.77,1.88,1.48,3.82,2.11,5.75ZM77.45,68.89l-.8-.81c1.44-1.44,2.95-2.85,4.49-4.18l.74.86C80.36,66.07,78.87,67.46,77.45,68.89ZM216.21,93.15c-.86-1.82-1.78-3.63-2.76-5.38l1-.56c1,1.77,1.94,3.61,2.8,5.45ZM85.4,61.87l-.7-.9c1.6-1.25,3.27-2.46,5-3.6l.63,1C88.63,59.45,87,60.63,85.4,61.87Zm125.72,22c-1.07-1.7-2.21-3.38-3.4-5l.92-.68c1.21,1.65,2.36,3.36,3.45,5.08Zm-87.37-39-.2-1.13c2-.35,4-.63,6.07-.83l.12,1.14C127.74,44.28,125.72,44.54,123.75,44.89Zm57,10c-1.74-1-3.55-1.92-5.37-2.79l.5-1c1.84.88,3.67,1.83,5.44,2.83Zm-46.51-11.1,0-1.14c2-.1,4.1-.12,6.13-.07l0,1.14C138.31,43.63,136.27,43.65,134.26,43.74Zm37,6.47c-1.85-.77-3.77-1.48-5.68-2.11l.37-1.09c1.93.64,3.86,1.36,5.75,2.14Zm-26.4-6.3.09-1.14c2,.15,4.08.38,6.1.68l-.17,1.13C148.88,44.29,146.86,44.06,144.85,43.91Zm16.39,2.86c-2-.53-3.93-1-5.9-1.4l.23-1.12c2,.4,4,.88,6,1.43Z"/><circle class="cls-2" cx="139.02" cy="129.41" r="67.05"/><path class="cls-3" d="M143.61,163.34a15.93,15.93,0,0,0,2.06,3.7,16.29,16.29,0,0,0,27.73-2.68,15.67,15.67,0,0,0,1.33-4.14,16.15,16.15,0,0,0,.26-2.88c0-.47,0-.93-.06-1.39a16.24,16.24,0,0,0-3-8.06,16.27,16.27,0,0,0-2.88-3.1l2.51-.86s-.78-3.34-1.47-6.26a5.6,5.6,0,0,0-5.44-4.31h-12a5.6,5.6,0,0,0-5.49,4.54l-1,5.41,1.6,2c-.33.31-.65.62-.95.95a15.86,15.86,0,0,0-3.07,4.73,16,16,0,0,0-1.27,5.41c0,.32,0,.63,0,1a15.65,15.65,0,0,0,.15,2.18A15.35,15.35,0,0,0,143.61,163.34ZM145,180.61a3.55,3.55,0,0,0-2,3,2.41,2.41,0,0,1-2.47,2.1c-2.55-.1-6.12-.24-6.12-.27s2.24-44.5,2.49-47.12,2.16-4.61,5.84-5l1.29-.22a9.4,9.4,0,0,1,7.1-3.23H166.5a9.4,9.4,0,0,1,7.6,3.86l.93-.41c3.67.37,5.58,2.36,5.83,5s2.47,47.08,2.5,47.12-3.56.17-6.12.27a2.42,2.42,0,0,1-2.48-2.1,3.53,3.53,0,0,0-2-3Zm33-7a3.68,3.68,0,1,0-3.68,3.57A3.62,3.62,0,0,0,178.05,173.6Zm-34.88,3.57a3.57,3.57,0,1,0-3.69-3.55A3.63,3.63,0,0,0,143.17,177.17Z"/><path class="cls-4" d="M174.37,170a3.57,3.57,0,1,1-3.68,3.56A3.62,3.62,0,0,1,174.37,170Z"/><path class="cls-5" d="M174.93,156c0,.46.06.92.06,1.39a16.15,16.15,0,0,1-.26,2.88c-4,.91-11.3-.69-16.56-3.35-9.52-4.68-14.41-1.5-15.68-.48a16,16,0,0,1,1.27-5.41c1-.46,5.73-2.41,15.13,2.09C168.64,157.21,173.9,156.53,174.93,156Z"/><path class="cls-5" d="M174.08,152a15.69,15.69,0,0,1,.85,4c-1,.58-6.29,1.26-16-2.88-9.4-4.5-14.12-2.55-15.13-2.09a15.86,15.86,0,0,1,3.07-4.73c1-.31,8.5.39,14.43,3.38A26,26,0,0,0,174.08,152Z"/><path class="cls-5" d="M174.73,160.22a15.67,15.67,0,0,1-1.33,4.14c-4.21,1-10.66-1.33-14.79-3.46-8-4.1-14.66-1.92-16-1.38a15.65,15.65,0,0,1-.15-2.18c0-.32,0-.63,0-1,1.27-1,6.16-4.2,15.68.48C163.43,159.53,170.77,161.13,174.73,160.22Z"/><path class="cls-5" d="M174.08,152a26,26,0,0,1-12.82-2.36c-5.93-3-13.45-3.69-14.43-3.38.3-.33.62-.64.95-.95a16.15,16.15,0,0,1,4.94-3.07c1.05.76,11.56,4.71,13.4,5s5.83.64,5.83.64A15.82,15.82,0,0,1,174.08,152Z"/><path class="cls-5" d="M158.61,160.9c4.13,2.13,10.58,4.42,14.79,3.46a16.35,16.35,0,0,1-2.91,4.2,35,35,0,0,1-13.27-4,18.16,18.16,0,0,0-13.61-1.24,15.35,15.35,0,0,1-1-3.82C144,159,150.62,156.8,158.61,160.9Z"/><path class="cls-3" d="M171.58,143.93l-2.51.86a16.31,16.31,0,0,0-21.29.51l-1.6-2,1-5.41a5.6,5.6,0,0,1,5.49-4.54h12a5.6,5.6,0,0,1,5.44,4.31C170.8,140.59,171.58,143.93,171.58,143.93Z"/><path class="cls-5" d="M169.07,144.79a16.27,16.27,0,0,1,2.88,3.1s-4-.32-5.83-.64-12.35-4.26-13.4-5a16.27,16.27,0,0,1,16.35,2.56Z"/><path class="cls-5" d="M170.49,168.56a16.15,16.15,0,0,1-4.51,3.33c-2.68-.9-7.89-2.91-9.83-3.75a18,18,0,0,0-10.48-1.1,15.93,15.93,0,0,1-2.06-3.7,18.16,18.16,0,0,1,13.61,1.24A35,35,0,0,0,170.49,168.56Z"/><path class="cls-5" d="M156.15,168.14c1.94.84,7.15,2.85,9.83,3.75A16.26,16.26,0,0,1,145.67,167,18,18,0,0,1,156.15,168.14Z"/><path class="cls-4" d="M146.83,173.59a3.68,3.68,0,1,1-3.69-3.55A3.63,3.63,0,0,1,146.83,173.59Z"/><path class="cls-6" d="M142.76,133.37c-3.68.37-5.58,2.36-5.84,5s-2.46,47.08-2.49,47.12,3.57.17,6.12.27a2.41,2.41,0,0,0,2.47-2.1,3.55,3.55,0,0,1,2-3"/><path class="cls-6" d="M175,133.37c3.67.37,5.58,2.36,5.83,5s2.47,47.08,2.5,47.12-3.56.17-6.12.27a2.42,2.42,0,0,1-2.48-2.1,3.53,3.53,0,0,0-2-3"/><path class="cls-6" d="M140.6,143.93s.64-3.15,1.32-6.46a9.42,9.42,0,0,1,9.23-7.55H166.5a9.43,9.43,0,0,1,9.23,7.55l1.31,6.46"/><path class="cls-6" d="M146.18,143.31l1-5.41a5.6,5.6,0,0,1,5.49-4.54h12a5.6,5.6,0,0,1,5.44,4.31c.69,2.92,1.47,6.26,1.47,6.26"/><path class="cls-6" d="M143.14,170a3.57,3.57,0,1,1-3.66,3.58A3.61,3.61,0,0,1,143.14,170Z"/><path class="cls-6" d="M174.37,170a3.57,3.57,0,1,1-3.68,3.56A3.62,3.62,0,0,1,174.37,170Z"/><path class="cls-6" d="M138.47,183.93a3.57,3.57,0,0,1,3.57-3.32h33.4a3.38,3.38,0,0,1,3.38,3.2"/><path class="cls-6" d="M152.72,142.23A16.2,16.2,0,0,1,172,147.89a16.24,16.24,0,0,1,3,8.06c0,.46.06.92.06,1.39a16.15,16.15,0,0,1-.26,2.88,15.67,15.67,0,0,1-1.33,4.14,16.35,16.35,0,0,1-2.91,4.2A16.26,16.26,0,0,1,145.67,167a15.93,15.93,0,0,1-2.06-3.7,15.35,15.35,0,0,1-1-3.82,15.65,15.65,0,0,1-.15-2.18c0-.32,0-.63,0-1a16,16,0,0,1,1.27-5.41,15.86,15.86,0,0,1,3.07-4.73c.3-.33.62-.64.95-.95A16.15,16.15,0,0,1,152.72,142.23Z"/><path class="cls-6" d="M146.83,146.25c1-.31,8.5.39,14.43,3.38A26,26,0,0,0,174.08,152"/><path class="cls-6" d="M152.72,142.23c1.05.76,11.56,4.71,13.4,5s5.83.64,5.83.64"/><path class="cls-6" d="M143.76,151c1-.46,5.73-2.41,15.13,2.09,9.75,4.14,15,3.46,16,2.88l0,0"/><path class="cls-6" d="M142.49,156.39c1.27-1,6.16-4.2,15.68.48,5.26,2.66,12.6,4.26,16.56,3.35"/><path class="cls-6" d="M142.49,159.57l.12,0c1.34-.54,8-2.72,16,1.38,4.13,2.13,10.58,4.42,14.79,3.46"/><path class="cls-6" d="M143.6,163.34h0a18.16,18.16,0,0,1,13.61,1.24,35,35,0,0,0,13.27,4"/><path class="cls-6" d="M145.67,167a18,18,0,0,1,10.48,1.1c1.94.84,7.15,2.85,9.83,3.75l.14.05"/><path class="cls-3" d="M174.6,99.27a3.81,3.81,0,0,0,.17-1.13V73.88c0-.12,0-.24,0-.36a3.7,3.7,0,0,0-2.44-3.14,3.52,3.52,0,0,0-1.26-.22H137.9a3.79,3.79,0,0,0-.67.06,3.73,3.73,0,0,0-3,3.4,2.17,2.17,0,0,0,0,.26V98.14a3.57,3.57,0,0,0,.21,1.23,3.73,3.73,0,0,0,2.91,2.45,3.08,3.08,0,0,0,.61.05h33.15a3.64,3.64,0,0,0,1.32-.24A3.76,3.76,0,0,0,174.6,99.27Zm12.33-31.21v36.5a3.74,3.74,0,0,1-3.73,3.73H134.58a3.72,3.72,0,0,1-3.72-3.73V68.06a3.72,3.72,0,0,1,3.72-3.72H183.2a3.74,3.74,0,0,1,3.73,3.72Zm-3.25,6A2.62,2.62,0,1,0,181.06,77,2.77,2.77,0,0,0,183.68,74.07Z"/><path class="cls-4" d="M181.06,71.17a2.91,2.91,0,1,1-2.6,2.9A2.77,2.77,0,0,1,181.06,71.17Z"/><path class="cls-4" d="M182.41,108.32v3.44a2.14,2.14,0,0,1-2.14,2.14h-1.7a2.14,2.14,0,0,1-2.14-2.14v-3.44Z"/><path class="cls-5" d="M174.77,95.34v2.8a3.81,3.81,0,0,1-.17,1.13h-2.23V95.34h2.41Z"/><path class="cls-4" d="M174.77,90.55v4.79h-2.41V90.55h2.42Z"/><path class="cls-5" d="M174.77,86v4.54h-2.42V86h2.43Z"/><path class="cls-5" d="M174.77,81.27V86h-2.43V81.27h2.44Z"/><path class="cls-4" d="M174.77,76.47v4.8h-2.44V76.48h2.44Z"/><path class="cls-5" d="M174.77,73.88v2.59h-2.44v-3h2.43C174.76,73.64,174.77,73.76,174.77,73.88Z"/><path class="cls-5" d="M174.75,73.52h-2.43V70.38A3.7,3.7,0,0,1,174.75,73.52Z"/><path class="cls-5" d="M172.37,99.28h2.23a3.76,3.76,0,0,1-2.23,2.36Z"/><path class="cls-5" d="M172.37,99.28v2.35a3.64,3.64,0,0,1-1.32.24h-2.73V99.29Z"/><path class="cls-5" d="M172.36,95.34v3.94h-4.06V93.16H170a2.39,2.39,0,0,0,2.36,2.19Z"/><path class="cls-4" d="M170,93.15a1.27,1.27,0,0,1,0-.2,2.4,2.4,0,0,1,.7-1.7,2.43,2.43,0,0,1,1.66-.7v4.79A2.39,2.39,0,0,1,170,93.15Z"/><path class="cls-5" d="M172.34,86v4.53a2.43,2.43,0,0,0-1.66.7A2.4,2.4,0,0,0,170,93a1.27,1.27,0,0,0,0,.2h-1.69l0-7.13Z"/><path class="cls-5" d="M172.33,81.27V86h-4.05l0-7.15H170a2.36,2.36,0,0,0,.7,1.69A2.44,2.44,0,0,0,172.33,81.27Z"/><path class="cls-4" d="M170,78.87a2.39,2.39,0,0,1,.7-1.69,2.42,2.42,0,0,1,1.64-.7v4.79a2.44,2.44,0,0,1-1.64-.71A2.36,2.36,0,0,1,170,78.87Z"/><path class="cls-5" d="M172.32,73.53v3a2.42,2.42,0,0,0-1.64.7,2.39,2.39,0,0,0-.7,1.69h-1.72V73.54Z"/><path class="cls-5" d="M172.31,70.38v3.15h-4V70.16h2.79A3.52,3.52,0,0,1,172.31,70.38Z"/><path class="cls-5" d="M168.31,99.29v2.58h-5.8V99.3Z"/><polygon class="cls-5" points="168.31 93.16 168.31 99.29 162.51 99.3 162.5 93.17 164.69 93.17 164.69 94.56 166.35 94.56 166.35 93.17 168.31 93.16"/><polygon class="cls-5" points="168.29 86.03 168.31 93.16 166.35 93.17 166.35 91.54 164.69 91.54 164.69 93.17 162.5 93.17 162.49 86.05 168.29 86.03"/><polygon class="cls-5" points="168.28 78.88 168.29 86.03 162.49 86.05 162.47 78.89 164.69 78.89 164.69 80.28 166.35 80.28 166.35 78.89 168.28 78.88"/><polygon class="cls-5" points="168.27 73.54 168.28 78.88 166.35 78.89 166.35 77.27 164.69 77.27 164.69 78.89 162.47 78.89 162.47 73.55 168.27 73.54"/><path class="cls-5" d="M168.26,70.16v3.38h-5.8V70.16Z"/><polygon class="cls-4" points="166.35 93.17 166.35 94.56 164.69 94.56 164.69 93.17 164.69 91.54 166.35 91.54 166.35 93.17"/><polygon class="cls-4" points="166.35 78.89 166.35 80.28 164.69 80.28 164.69 78.89 164.69 77.27 166.35 77.27 166.35 78.89"/><path class="cls-5" d="M162.51,99.3v2.57h-5.15V99.32Z"/><polygon class="cls-5" points="162.5 93.17 162.51 99.3 157.36 99.32 157.35 93.19 159.17 93.19 159.17 94.56 160.83 94.56 160.83 93.18 162.5 93.17"/><polygon class="cls-5" points="162.49 86.05 162.5 93.17 160.83 93.18 160.83 91.54 159.17 91.54 159.17 93.19 157.35 93.19 157.34 86.06 162.49 86.05"/><polygon class="cls-5" points="162.47 78.89 162.49 86.05 157.34 86.06 157.32 78.91 159.17 78.9 159.17 80.28 160.83 80.28 160.83 78.9 162.47 78.89"/><polygon class="cls-5" points="162.47 73.55 162.47 78.89 160.83 78.9 160.83 77.27 159.17 77.27 159.17 78.9 157.32 78.91 157.31 73.57 162.47 73.55"/><path class="cls-5" d="M162.46,70.16v3.39l-5.16,0V70.16Z"/><polygon class="cls-4" points="160.83 93.18 160.83 94.56 159.17 94.56 159.17 93.19 159.17 91.54 160.83 91.54 160.83 93.18"/><polygon class="cls-4" points="160.83 78.9 160.83 80.28 159.17 80.28 159.17 78.9 159.17 77.27 160.83 77.27 160.83 78.9"/><path class="cls-5" d="M157.36,99.32v2.55h-5.16V99.33Z"/><polygon class="cls-5" points="157.35 93.19 157.36 99.32 152.21 99.33 152.2 93.2 153.64 93.2 153.64 94.56 155.3 94.56 155.3 93.2 157.35 93.19"/><polygon class="cls-5" points="157.34 86.06 157.35 93.19 155.3 93.2 155.3 91.54 153.64 91.54 153.64 93.2 152.2 93.2 152.18 86.07 157.34 86.06"/><polygon class="cls-5" points="157.32 78.91 157.34 86.06 152.18 86.07 152.16 78.92 153.64 78.92 153.64 80.28 155.3 80.28 155.3 78.92 157.32 78.91"/><polygon class="cls-5" points="157.31 73.57 157.32 78.91 155.3 78.92 155.3 77.27 153.64 77.27 153.64 78.92 152.16 78.92 152.15 73.58 157.31 73.57"/><path class="cls-5" d="M157.3,70.16v3.41h-5.16V70.16Z"/><polygon class="cls-4" points="155.3 93.2 155.3 94.56 153.64 94.56 153.64 93.2 153.64 91.54 155.3 91.54 155.3 93.2"/><polygon class="cls-4" points="155.3 78.92 155.3 80.28 153.64 80.28 153.64 78.92 153.64 77.27 155.3 77.27 155.3 78.92"/><path class="cls-5" d="M152.21,99.33v2.54h-5.8V99.34Z"/><polygon class="cls-5" points="152.2 93.2 152.21 99.33 146.41 99.34 146.4 93.23 148.44 93.22 148.44 94.56 150.09 94.56 150.09 93.21 152.2 93.2"/><polygon class="cls-5" points="152.18 86.07 152.2 93.2 150.09 93.21 150.09 91.54 148.44 91.54 148.44 93.22 146.4 93.23 146.38 86.08 152.18 86.07"/><polygon class="cls-5" points="152.16 78.92 152.18 86.07 146.38 86.08 146.36 78.95 148.44 78.94 148.44 80.28 150.09 80.28 150.09 78.93 152.16 78.92"/><polygon class="cls-5" points="152.15 73.58 152.16 78.92 150.09 78.93 150.09 77.27 148.44 77.27 148.44 78.94 146.36 78.95 146.35 73.59 152.15 73.58"/><path class="cls-5" d="M152.14,70.16v3.42h-5.8V70.16Z"/><polygon class="cls-4" points="150.09 93.21 150.09 94.56 148.44 94.56 148.44 93.22 148.44 91.54 150.09 91.54 150.09 93.21"/><polygon class="cls-4" points="150.09 78.93 150.09 80.28 148.44 80.28 148.44 78.94 148.44 77.27 150.09 77.27 150.09 78.93"/><path class="cls-5" d="M146.41,99.34v2.53h-5.16V99.36Z"/><polygon class="cls-5" points="146.4 93.23 146.41 99.34 141.24 99.36 141.24 93.24 142.91 93.24 142.91 94.56 144.57 94.56 144.57 93.24 146.4 93.23"/><polygon class="cls-5" points="146.38 86.08 146.4 93.23 144.57 93.24 144.57 91.54 142.91 91.54 142.91 93.24 141.24 93.24 141.22 86.1 146.38 86.08"/><polygon class="cls-5" points="146.36 78.95 146.38 86.08 141.22 86.1 141.21 78.96 142.91 78.96 142.91 80.28 144.57 80.28 144.57 78.96 146.36 78.95"/><polygon class="cls-5" points="146.35 73.59 146.36 78.95 144.57 78.96 144.57 77.27 142.91 77.27 142.91 78.96 141.21 78.96 141.2 73.61 146.35 73.59"/><path class="cls-5" d="M146.34,70.16v3.43l-5.15,0V70.16Z"/><polygon class="cls-4" points="144.57 93.24 144.57 94.56 142.91 94.56 142.91 93.24 142.91 91.54 144.57 91.54 144.57 93.24"/><polygon class="cls-4" points="144.57 78.96 144.57 80.28 142.91 80.28 142.91 78.96 142.91 77.27 144.57 77.27 144.57 78.96"/><path class="cls-4" d="M141.25,108.32v3.44a2.14,2.14,0,0,1-2.14,2.14h-1.7a2.14,2.14,0,0,1-2.14-2.14v-3.44Z"/><path class="cls-5" d="M141.24,99.36v2.51H137.9a3.08,3.08,0,0,1-.61-.05V99.36Z"/><path class="cls-5" d="M141.24,93.24v6.12h-4V95.23a2.31,2.31,0,0,0,1-.59,2.41,2.41,0,0,0,.68-1.39Z"/><path class="cls-5" d="M141.22,86.1l0,7.14h-2.31c0-.1,0-.2,0-.3a2.4,2.4,0,0,0-.7-1.7,2.31,2.31,0,0,0-1-.59V86.11Z"/><path class="cls-5" d="M141.21,79V86.1h-4V81.17a2.36,2.36,0,0,0,1-.61A2.33,2.33,0,0,0,139,79Z"/><path class="cls-5" d="M141.2,73.61V79H139v-.1a2.39,2.39,0,0,0-.7-1.69,2.42,2.42,0,0,0-1-.61V73.62Z"/><path class="cls-5" d="M141.19,70.16v3.45h-4v-3.4a3.79,3.79,0,0,1,.67-.06Z"/><path class="cls-4" d="M139,79a2.33,2.33,0,0,1-.7,1.59,2.36,2.36,0,0,1-1,.61v-4.6a2.42,2.42,0,0,1,1,.61,2.39,2.39,0,0,1,.7,1.69Z"/><path class="cls-4" d="M138.93,93.25a2.41,2.41,0,0,1-.68,1.39,2.31,2.31,0,0,1-1,.59V90.66a2.31,2.31,0,0,1,1,.59A2.4,2.4,0,0,1,139,93C139,93.05,138.94,93.15,138.93,93.25Z"/><path class="cls-5" d="M137.29,99.36v2.46a3.73,3.73,0,0,1-2.91-2.45Z"/><path class="cls-5" d="M137.28,95.23v4.13h-2.91a3.57,3.57,0,0,1-.21-1.23v-2.8h2.38A2.58,2.58,0,0,0,137.28,95.23Z"/><path class="cls-4" d="M137.27,90.66v4.57a2.58,2.58,0,0,1-.73.11h-2.37V90.55h2.37A2.51,2.51,0,0,1,137.27,90.66Z"/><path class="cls-5" d="M137.26,86.11v4.55a2.51,2.51,0,0,0-.72-.11h-2.37v4.79h0V86.12Z"/><path class="cls-5" d="M137.25,81.17v4.94h-3.09V81.27h2.38A2.32,2.32,0,0,0,137.25,81.17Z"/><path class="cls-4" d="M137.25,76.57v4.6a2.32,2.32,0,0,1-.7.1h-2.37v-4.8h2.37A2.75,2.75,0,0,1,137.25,76.57Z"/><path class="cls-5" d="M137.24,73.62v2.95a2.75,2.75,0,0,0-.7-.1h-2.37v4.8h0V73.88a2.17,2.17,0,0,1,0-.26h3.06Z"/><path class="cls-5" d="M137.23,70.22v3.4h-3.06A3.73,3.73,0,0,1,137.23,70.22Z"/><path class="cls-4" d="M127.72,100.65V99.8a1.71,1.71,0,0,1,1.7-1.71h1.43v5.1h-1.43a1.7,1.7,0,0,1-1.7-1.7Z"/><polygon class="cls-4" points="126.52 74.94 126.52 76.17 125.78 76.17 122.38 76.17 121.73 76.17 121.73 74.94 123.3 74.94 125.05 74.94 126.52 74.94"/><path class="cls-4" d="M124.13,79.84h-.07a1.66,1.66,0,0,1-1.19-.49,1.68,1.68,0,0,1-.49-1.19v-2h3.41v2a1.69,1.69,0,0,1-1.66,1.68Z"/><polyline class="cls-6" points="153.64 93.2 153.64 94.56 155.3 94.56 155.3 93.2"/><polyline class="cls-6" points="164.69 93.17 164.69 94.56 166.35 94.56 166.35 93.17"/><path class="cls-6" d="M185.83,65.43a3.71,3.71,0,0,0-2.63-1.09H134.58a3.72,3.72,0,0,0-3.72,3.72v36.5a3.72,3.72,0,0,0,3.72,3.73H183.2a3.74,3.74,0,0,0,3.73-3.73V68.06A3.73,3.73,0,0,0,185.83,65.43Z"/><path class="cls-6" d="M137.25,81.17a2.36,2.36,0,0,0,1-.61A2.33,2.33,0,0,0,139,79v-.1a2.39,2.39,0,0,0-.7-1.69,2.42,2.42,0,0,0-1-.61"/><path class="cls-6" d="M174.77,90.55V81.27"/><path class="cls-6" d="M174.77,76.47V73.88c0-.12,0-.24,0-.36a3.7,3.7,0,0,0-2.44-3.14,3.52,3.52,0,0,0-1.26-.22H137.9a3.79,3.79,0,0,0-.67.06,3.73,3.73,0,0,0-3,3.4,2.17,2.17,0,0,0,0,.26V98.14a3.57,3.57,0,0,0,.21,1.23,3.73,3.73,0,0,0,2.91,2.45,3.08,3.08,0,0,0,.61.05h33.15a3.64,3.64,0,0,0,1.32-.24,3.76,3.76,0,0,0,2.23-2.36,3.81,3.81,0,0,0,.17-1.13v-2.8"/><path class="cls-6" d="M137.25,76.57a2.75,2.75,0,0,0-.7-.1h-2.37v4.8h2.37a2.32,2.32,0,0,0,.7-.1"/><path class="cls-6" d="M170,78.87a2.39,2.39,0,0,1,.7-1.69,2.42,2.42,0,0,1,1.64-.7h2.44v4.8h-2.44a2.44,2.44,0,0,1-1.64-.71A2.36,2.36,0,0,1,170,78.87Z"/><path class="cls-6" d="M138.93,93.25c0-.1,0-.2,0-.3a2.4,2.4,0,0,0-.7-1.7,2.31,2.31,0,0,0-1-.59,2.51,2.51,0,0,0-.72-.11h-2.37v4.79h2.37a2.58,2.58,0,0,0,.73-.11,2.31,2.31,0,0,0,1-.59A2.41,2.41,0,0,0,138.93,93.25Z"/><path class="cls-6" d="M170,93.15a1.27,1.27,0,0,1,0-.2,2.4,2.4,0,0,1,.7-1.7,2.43,2.43,0,0,1,1.66-.7h2.42v4.79h-2.41A2.39,2.39,0,0,1,170,93.15Z"/><polyline class="cls-6" points="137.29 101.87 137.29 101.82 137.29 99.36 137.28 95.23"/><polyline class="cls-6" points="137.27 90.66 137.26 86.11 137.25 81.17"/><polyline class="cls-6" points="137.25 76.57 137.24 73.61 137.23 70.22 137.23 70.16"/><polyline class="cls-6" points="141.19 70.16 141.2 73.61 141.21 78.96 141.22 86.1 141.24 93.24 141.24 99.36 141.25 101.87"/><polyline class="cls-6" points="146.34 70.16 146.35 73.59 146.36 78.95 146.38 86.08 146.4 93.23 146.41 99.34 146.41 101.87"/><polyline class="cls-6" points="152.14 70.16 152.15 73.58 152.16 78.92 152.18 86.07 152.2 93.2 152.21 99.33 152.21 101.87"/><polyline class="cls-6" points="157.31 70.16 157.31 73.57 157.32 78.91 157.34 86.06 157.35 93.19 157.36 99.32 157.37 101.87"/><polyline class="cls-6" points="162.46 70.16 162.47 73.55 162.47 78.89 162.49 86.05 162.5 93.17 162.51 99.3 162.52 101.87"/><polyline class="cls-6" points="168.26 70.16 168.27 73.54 168.28 78.88 168.29 86.03 168.31 93.16 168.31 99.29 168.32 101.87"/><polyline class="cls-6" points="172.34 81.27 172.34 86.02 172.35 90.55"/><polyline class="cls-6" points="172.36 95.34 172.37 99.28 172.37 101.63 172.37 101.87"/><polyline class="cls-6" points="172.33 76.48 172.32 73.53 172.31 70.38 172.31 70.16"/><polyline class="cls-6" points="134.35 73.62 137.24 73.61 141.2 73.61 146.35 73.59 152.15 73.58 157.31 73.57 162.47 73.55 168.27 73.54 172.32 73.53 174.75 73.52 175.04 73.52"/><polyline class="cls-6" points="133.98 86.11 134.17 86.11 137.26 86.11 141.22 86.1 146.38 86.08 152.18 86.07 157.34 86.06 162.49 86.05 168.29 86.03 172.34 86.02 174.68 86.01"/><polyline class="cls-6" points="134.35 99.37 134.38 99.37 137.29 99.36 141.24 99.36 146.41 99.34 152.21 99.33 157.36 99.32 162.51 99.3 168.31 99.29 172.37 99.28 174.6 99.27 175.04 99.27"/><polyline class="cls-6" points="164.69 93.17 162.5 93.17 160.83 93.18"/><polyline class="cls-6" points="153.64 93.2 152.2 93.2 150.09 93.21"/><polyline class="cls-6" points="138.79 93.25 138.93 93.25 141.24 93.24 142.91 93.24"/><polyline class="cls-6" points="144.57 93.24 146.4 93.23 148.44 93.22"/><polyline class="cls-6" points="155.3 93.2 157.35 93.19 159.17 93.19"/><polyline class="cls-6" points="166.35 93.17 168.31 93.16 170 93.15 170.16 93.15"/><polyline class="cls-6" points="144.57 78.96 146.36 78.95 148.44 78.94"/><polyline class="cls-6" points="155.3 78.92 157.32 78.91 159.17 78.9"/><polyline class="cls-6" points="170.02 78.87 169.99 78.87 168.28 78.88 166.35 78.89"/><polyline class="cls-6" points="164.69 78.89 162.47 78.89 160.83 78.9"/><polyline class="cls-6" points="153.64 78.92 152.16 78.92 150.09 78.93"/><polyline class="cls-6" points="142.91 78.96 141.21 78.96 138.95 78.97 138.64 78.97"/><polygon class="cls-6" points="142.91 78.96 142.91 77.27 144.57 77.27 144.57 78.96 144.57 80.28 142.91 80.28 142.91 78.96"/><polygon class="cls-6" points="142.91 93.24 142.91 91.54 144.57 91.54 144.57 93.24 144.57 94.56 142.91 94.56 142.91 93.24"/><polygon class="cls-6" points="148.44 78.94 148.44 77.27 150.09 77.27 150.09 78.93 150.09 80.28 148.44 80.28 148.44 78.94"/><polygon class="cls-6" points="148.44 93.22 148.44 91.54 150.09 91.54 150.09 93.21 150.09 94.56 148.44 94.56 148.44 93.22"/><polygon class="cls-6" points="153.64 78.92 153.64 77.27 155.3 77.27 155.3 78.92 155.3 80.28 153.64 80.28 153.64 78.92"/><polyline class="cls-6" points="155.3 93.2 155.3 91.54 153.64 91.54 153.64 93.2"/><polygon class="cls-6" points="159.17 78.9 159.17 77.27 160.83 77.27 160.83 78.9 160.83 80.28 159.17 80.28 159.17 78.9"/><polygon class="cls-6" points="159.17 93.19 159.17 91.54 160.83 91.54 160.83 93.18 160.83 94.56 159.17 94.56 159.17 93.19"/><polygon class="cls-6" points="164.69 78.89 164.69 77.27 166.35 77.27 166.35 78.89 166.35 80.28 164.69 80.28 164.69 78.89"/><polyline class="cls-6" points="166.35 93.17 166.35 91.54 164.69 91.54 164.69 93.17"/><path class="cls-6" d="M181.06,71.17a2.91,2.91,0,1,1-2.6,2.9A2.77,2.77,0,0,1,181.06,71.17Z"/><line class="cls-6" x1="181.06" y1="71.17" x2="181.06" y2="73.42"/><path class="cls-6" d="M141.25,108.32h-6v3.44a2.14,2.14,0,0,0,2.14,2.14h1.7a2.14,2.14,0,0,0,2.14-2.14Z"/><path class="cls-6" d="M182.41,108.32h-6v3.44a2.14,2.14,0,0,0,2.14,2.14h1.7a2.14,2.14,0,0,0,2.14-2.14Z"/><path class="cls-6" d="M130.85,98.09h-1.43a1.71,1.71,0,0,0-1.7,1.71v1.69a1.7,1.7,0,0,0,1.7,1.7h1.43Z"/><path class="cls-6" d="M124.13,79.23v.61c0,2.86.06,15,.09,19.28a1.53,1.53,0,0,0,1.53,1.53h2.71"/><path class="cls-6" d="M122.38,76.17v2a1.68,1.68,0,0,0,.49,1.19,1.66,1.66,0,0,0,1.19.49h.07a1.69,1.69,0,0,0,1.66-1.68v-2"/><polygon class="cls-6" points="122.38 76.17 121.73 76.17 121.73 74.94 123.3 74.94 125.05 74.94 126.52 74.94 126.52 76.17 125.78 76.17 122.38 76.17"/><line class="cls-6" x1="123.3" y1="73.21" x2="123.3" y2="74.94"/><line class="cls-6" x1="125.05" y1="73.21" x2="125.05" y2="74.94"/><path class="cls-3" d="M78.44,146.06a16.1,16.1,0,0,0,4,.5,16.45,16.45,0,0,0,16.12-13.21h0a17.07,17.07,0,0,0,.31-3.22,16.42,16.42,0,0,0-12.42-15.94,16.22,16.22,0,0,0-4-.5,16.44,16.44,0,0,0-15.9,12.25,16,16,0,0,0-.55,4.19A16.43,16.43,0,0,0,78.44,146.06Zm37.67-3.29v6a5.83,5.83,0,0,1-5.83,5.83H63.43a5.83,5.83,0,0,1-5.83-5.83V111.3a5.84,5.84,0,0,1,5.83-5.84h46.85a5.84,5.84,0,0,1,5.83,5.84v31.47Z"/><path class="cls-5" d="M98.9,130.12a17.07,17.07,0,0,1-.31,3.22h0a7.44,7.44,0,0,1-12.15-.73l-.08,0a4.62,4.62,0,0,0-2-6.65,7.45,7.45,0,0,0,2.1-11.75A16.42,16.42,0,0,1,98.9,130.12Z"/><path class="cls-5" d="M86.48,114.18a7.45,7.45,0,0,1-2.1,11.75h0a4.52,4.52,0,0,0-1.91-.42,4.64,4.64,0,0,0-4,2.31,7.45,7.45,0,0,0-11.89-1.89h0a16.44,16.44,0,0,1,15.9-12.25A16.22,16.22,0,0,1,86.48,114.18Z"/><path class="cls-5" d="M82.46,134.72a4.59,4.59,0,0,0,3.89-2.14l.08,0a7.44,7.44,0,0,0,12.15.73,16.45,16.45,0,0,1-16.12,13.21,16.1,16.1,0,0,1-4-.5,7.37,7.37,0,0,1-2.34-5.42,7.58,7.58,0,0,1,4-6.59h0A4.56,4.56,0,0,0,82.46,134.72Z"/><path class="cls-4" d="M87.06,130.12a4.59,4.59,0,0,1-4.6,4.6,4.56,4.56,0,0,1-2.4-.67h0a4.61,4.61,0,0,1,2.41-8.54,4.52,4.52,0,0,1,1.91.42h0A4.61,4.61,0,0,1,87.06,130.12Z"/><path class="cls-5" d="M77.85,130.12a4.61,4.61,0,0,0,2.2,3.93,7.58,7.58,0,0,0-4,6.59,7.37,7.37,0,0,0,2.34,5.42A16.43,16.43,0,0,1,66,130.12a16,16,0,0,1,.55-4.19h0a7.45,7.45,0,0,1,11.89,1.89A4.59,4.59,0,0,0,77.85,130.12Z"/><path class="cls-6" d="M116.11,118.33v-7a5.84,5.84,0,0,0-5.83-5.84H63.43a5.84,5.84,0,0,0-5.83,5.84v37.49a5.83,5.83,0,0,0,5.83,5.83h46.85a5.83,5.83,0,0,0,5.83-5.83V118.33Z"/><path class="cls-6" d="M98.58,133.35a16.45,16.45,0,0,1-16.12,13.21,16.1,16.1,0,0,1-4-.5A16.43,16.43,0,0,1,66,130.12a16,16,0,0,1,.55-4.19,16.44,16.44,0,0,1,15.9-12.25,16.22,16.22,0,0,1,4,.5A16.42,16.42,0,0,1,98.9,130.12a17.07,17.07,0,0,1-.31,3.22"/><path class="cls-6" d="M80.05,134.05a4.61,4.61,0,0,1,2.41-8.54,4.52,4.52,0,0,1,1.91.42"/><path class="cls-6" d="M84.38,125.93a4.6,4.6,0,0,1-1.92,8.79,4.56,4.56,0,0,1-2.4-.67"/><path class="cls-6" d="M86.47,114.17s0,0,0,0a7.45,7.45,0,0,1-2.1,11.75h0"/><line class="cls-6" x1="106.14" y1="118.22" x2="116.11" y2="118.33"/><line class="cls-6" x1="106.14" y1="126.55" x2="116.11" y2="126.66"/><line class="cls-6" x1="106.14" y1="134.33" x2="116.11" y2="134.44"/><line class="cls-6" x1="106.14" y1="142.66" x2="116.11" y2="142.77"/><path class="cls-6" d="M66.57,125.93a7.45,7.45,0,0,1,11.89,1.89"/><path class="cls-6" d="M78.45,146.07h0a7.37,7.37,0,0,1-2.34-5.42,7.58,7.58,0,0,1,4-6.59h0"/><path class="cls-6" d="M98.59,133.34h0a7.44,7.44,0,0,1-12.15-.73"/></svg>