<svg id="Layer_1" data-name="Layer 1" xmlns="http://www.w3.org/2000/svg" viewBox="0 0 256 256"><defs><style>.cls-1{fill:#0e4e91;}.cls-2{fill:#abe7ff;}.cls-3{fill:#fff;}.cls-4{fill:#2db5ff;}.cls-5{fill:none;stroke:#0e4e91;stroke-linecap:round;stroke-linejoin:round;}</style></defs><path class="cls-1" d="M94.76,217.85l.43-1.17c2.07.76,4.2,1.46,6.31,2.07l-.35,1.2C99,219.33,96.86,218.63,94.76,217.85ZM90.06,216C88,215.11,86,214.15,84,213.13l.57-1.11c2,1,4,1.95,6,2.82Zm16,5.24.28-1.22c2.16.5,4.35.93,6.52,1.28l-.19,1.24C110.44,222.18,108.22,221.74,106,221.23Zm11.61,2,.14-1.25c2.19.23,4.42.39,6.62.47l0,1.25C122.13,223.59,119.88,223.43,117.65,223.2Zm11.77.51,0-1.25c2.19,0,4.42-.16,6.63-.36l.11,1.25C133.91,223.55,131.65,223.67,129.42,223.71Zm11.73-.94-.18-1.24c2.18-.31,4.38-.71,6.54-1.17l.26,1.23C145.59,222.06,143.36,222.46,141.15,222.77ZM52.9,187.72c-1.39-1.74-2.74-3.57-4-5.41l1-.71c1.25,1.82,2.58,3.62,4,5.34Zm99.78,32.67-.33-1.21c2.13-.58,4.27-1.24,6.35-2l.41,1.19C157,219.14,154.84,219.81,152.68,220.39ZM46.14,178.07c-1.17-1.9-2.28-3.88-3.32-5.86l1.12-.58c1,2,2.12,3.9,3.27,5.78Zm117.69,38.55-.47-1.16c2-.83,4.08-1.75,6.06-2.72l.56,1.12C168,214.85,165.9,215.78,163.83,216.62Zm-123.22-49c-.92-2-1.79-4.12-2.57-6.23l1.17-.44c.78,2.08,1.63,4.15,2.54,6.15Zm133.84,43.84-.61-1.09c1.93-1.08,3.84-2.24,5.68-3.45l.69,1.05C178.34,209.24,176.41,210.42,174.45,211.51Zm-138-54.84c-.67-2.13-1.28-4.32-1.8-6.49l1.22-.29c.52,2.14,1.11,4.3,1.77,6.4Zm148,48.47-.75-1c1.78-1.31,3.54-2.69,5.23-4.12l.81,1C188,202.42,186.17,203.82,184.37,205.14ZM33.56,145.24c-.41-2.2-.74-4.44-1-6.65l1.25-.14c.25,2.19.57,4.39,1,6.56ZM193.43,197.6l-.86-.92c1.6-1.51,3.18-3.11,4.67-4.73l.93.85C196.65,194.45,195.06,196.06,193.43,197.6ZM36.6,98.7c.62-1.9,1.29-3.8,2-5.65l.27-.69,1.17.47-.27.68c-.72,1.83-1.39,3.7-2,5.57ZM42,88.25l-1.14-.52c.94-2,2-4,3-6l1.1.6C44,84.26,43,86.25,42,88.25Zm178.33,58.13c.43-2.17.79-4.38,1.07-6.56l1.24.16c-.28,2.21-.64,4.45-1.08,6.64ZM47.55,78l-1.06-.66c1.18-1.9,2.44-3.78,3.76-5.59l1,.74C50,74.29,48.72,76.15,47.55,78Zm174.37,56.84c.16-2.2.24-4.43.25-6.64h1.26c0,2.24-.09,4.51-.26,6.73ZM54.29,68.55l-1-.79c1.4-1.73,2.89-3.44,4.42-5.08l.92.85C57.15,65.15,55.68,66.84,54.29,68.55Zm167.76,54.7c-.12-2.2-.31-4.43-.58-6.62l1.25-.15c.27,2.22.47,4.47.58,6.7ZM62.17,60l-.88-.91c1.61-1.55,3.3-3.06,5-4.5l.81,1C65.42,57,63.75,58.45,62.17,60Zm158.57,51.73c-.38-2.17-.85-4.36-1.38-6.5l1.22-.3c.54,2.17,1,4.38,1.4,6.58ZM71,52.44l-.75-1c1.79-1.34,3.65-2.63,5.53-3.85l.68,1.06C74.64,49.85,72.8,51.12,71,52.44Zm147,48c-.65-2.11-1.38-4.22-2.17-6.28l1.17-.45c.8,2.09,1.54,4.23,2.2,6.36ZM80.76,46.06,80.13,45c1.94-1.11,4-2.17,6-3.14L86.64,43C84.65,43.92,82.67,45,80.76,46.06ZM214,89.53c-.9-2-1.88-4-2.92-6l1.11-.59c1.05,2,2.05,4,3,6.05ZM125.07,33.58l0-1.26c2.23-.06,4.49,0,6.72,0l0,1.26C129.51,33.53,127.28,33.52,125.07,33.58Zm60.41,19.69c-1.74-1.34-3.56-2.65-5.4-3.87l.7-1c1.86,1.24,3.7,2.56,5.47,3.92ZM136.68,34l.12-1.25c2.22.22,4.47.51,6.68.88l-.21,1.24C141.09,34.47,138.88,34.18,136.68,34Zm39.18,12.78C174,45.63,172,44.56,170,43.58l.56-1.13c2,1,4,2.09,5.91,3.22Zm-27.7-11,.28-1.23c2.17.49,4.37,1.06,6.51,1.7l-.36,1.2C152.48,36.84,150.31,36.28,148.16,35.8Zm17.35,5.66c-2-.88-4.11-1.7-6.18-2.44l.42-1.18c2.1.75,4.21,1.58,6.26,2.47Z"/><circle class="cls-2" cx="128.44" cy="124.95" r="74.89"/><path class="cls-3" d="M92.29,105.42a9,9,0,0,1,7,8.5c0,4.9-4.36,8.87-9.74,8.87a10.52,10.52,0,0,1-3.36-.54,9.86,9.86,0,0,1-3.58-2.09h0a1.88,1.88,0,0,0-.23-.16,3.52,3.52,0,0,0-3-.06,18.13,18.13,0,0,1-6.41,1.81,20.86,20.86,0,0,1-4.77-.09,33.66,33.66,0,0,1-6.8-1.78,4.13,4.13,0,0,0-2.77,0c-.22.1-.34.17-.34.17a7.34,7.34,0,0,1-3.13,2.14,12.35,12.35,0,0,1-4.13.7,9.31,9.31,0,0,1-9.22-9.18,8.94,8.94,0,0,1,7-8.61,8.38,8.38,0,0,1-.24-2,9,9,0,0,1,9.22-8.86,9.58,9.58,0,0,1,3.87.81,9.82,9.82,0,0,1,17.71-.23,9.94,9.94,0,0,1,3.51-.64,9.48,9.48,0,0,1,9.66,9.29A8.87,8.87,0,0,1,92.29,105.42Z"/><path class="cls-4" d="M82.61,120.16a9.86,9.86,0,0,0,3.58,2.09c-7.65,6.83-10.08,13.88-9.48,21.07-4.07,2.46-8.27,2.33-12.57,0q.78-11.76-9-21.11a7.34,7.34,0,0,0,3.13-2.14s.12-.07.34-.17a45.19,45.19,0,0,1,8.32,9.76.35.35,0,0,0,.65-.16l.6-7.84a20.86,20.86,0,0,0,4.77.09l.71,8.87a.18.18,0,0,0,.33.07A33.43,33.43,0,0,1,82.38,120a1.88,1.88,0,0,1,.23.16Z"/><path class="cls-5" d="M55.12,122.21a12.35,12.35,0,0,1-4.13.7,9.31,9.31,0,0,1-9.22-9.18,8.94,8.94,0,0,1,7-8.61,8.38,8.38,0,0,1-.24-2,9,9,0,0,1,9.22-8.86,9.58,9.58,0,0,1,3.87.81,9.82,9.82,0,0,1,17.71-.23,9.94,9.94,0,0,1,3.51-.64,9.48,9.48,0,0,1,9.66,9.29,8.87,8.87,0,0,1-.21,1.94,9,9,0,0,1,7,8.5c0,4.9-4.36,8.87-9.74,8.87a10.52,10.52,0,0,1-3.36-.54,9.86,9.86,0,0,1-3.58-2.09h0a1.88,1.88,0,0,0-.23-.16,3.52,3.52,0,0,0-3-.06,18.13,18.13,0,0,1-6.41,1.81,20.86,20.86,0,0,1-4.77-.09,33.66,33.66,0,0,1-6.8-1.78,4.13,4.13,0,0,0-2.77,0c-.22.1-.34.17-.34.17A7.34,7.34,0,0,1,55.12,122.21Z"/><path class="cls-5" d="M53,114.71a6.76,6.76,0,0,1-.81-3.21,6.69,6.69,0,0,1,6.69-6.69,6.56,6.56,0,0,1,.9.07"/><path class="cls-5" d="M64.06,101a6.69,6.69,0,0,1,11.38-1.71A6.07,6.07,0,0,1,76,100"/><path class="cls-5" d="M80.5,105.34a6.77,6.77,0,0,1,3.27-.49,6.5,6.5,0,0,1,4.59,9.9"/><path class="cls-5" d="M55.12,122.21q9.81,9.35,9,21.11c4.3,2.33,8.5,2.46,12.57,0-.6-7.19,1.83-14.24,9.48-21.07"/><path class="cls-5" d="M58.59,119.9a45.19,45.19,0,0,1,8.32,9.76.35.35,0,0,0,.65-.16l.6-7.84"/><path class="cls-5" d="M72.93,121.75l.71,8.87a.18.18,0,0,0,.33.07A33.43,33.43,0,0,1,82.38,120"/><path class="cls-3" d="M211,121.39c2.25,1.21,4.93,3.5,4.36,7.19h0a3.89,3.89,0,0,1-.1.56c-1.54,6.59-.89,13-2.44,11.45l-.23-.21c-1.77-1.71-1.8-1.29-2.49-8.43a19.11,19.11,0,0,0-.83-4.17,3.12,3.12,0,0,0-.17-.49,7.53,7.53,0,0,0-4.19-4l.08-.18c3,1.46,7.41,1.66,6.6-.2a2.77,2.77,0,0,0-.26-.48.94.94,0,0,0-.06-.15,5.64,5.64,0,0,1-.22-.66C211,121.54,211,121.47,211,121.39Z"/><path class="cls-3" d="M211.72,113.34c.35.87-.48,4.27-.53,5.38a13.63,13.63,0,0,0-.2,2.67c-.3-.17-.59-.32-.86-.45h0a12.75,12.75,0,0,0-1.92-.73,13.65,13.65,0,0,0-2-.86,5.61,5.61,0,0,1,.94-.15c2.89-.25,3.17-5.85,3.17-5.85S211.22,112.06,211.72,113.34Z"/><path class="cls-3" d="M211.58,122.93c.81,1.86-3.64,1.66-6.6.2a5.32,5.32,0,0,1-2.08-1.64s-1.39-1.74,1.91-2a8.29,8.29,0,0,1,.86,0,2.74,2.74,0,0,1,.5-.14,13.65,13.65,0,0,1,2,.86,12.75,12.75,0,0,1,1.92.73h0a10.6,10.6,0,0,1,.91.7,5.64,5.64,0,0,0,.22.66.94.94,0,0,1,.06.15A2.77,2.77,0,0,1,211.58,122.93Z"/><path class="cls-4" d="M210.09,132c.69,7.14.72,6.72,2.49,8.43-2.51,6.87-5.8,13.54-5.8,13.54-2.06,5.48-11.38,29-32.1,30.62s-24.91-7.36-25-19.52,21.4-18.36,27.84-21c5.27-2.11,8.81-9.45,12.72-16.65h0a22.25,22.25,0,0,1,6.33-2.67c.78-.17,1.5-.35,2.15-.52a7.15,7.15,0,0,0-.07,2c.55,5.7-.19,8.48-1.09,9.8s5.61.88,8.33-2.93a48.13,48.13,0,0,0,3.34-5.32A19.11,19.11,0,0,1,210.09,132Z"/><path class="cls-3" d="M209.09,127.3a3.12,3.12,0,0,1,.17.49,48.13,48.13,0,0,1-3.34,5.32c-2.72,3.81-9.23,4.26-8.33,2.93s1.64-4.1,1.09-9.8a7.15,7.15,0,0,1,.07-2c.2-.07.41-.11.59-.16,2.89-.78,4.5-1.41,4.5-1.12a7.45,7.45,0,0,1,1.06.39A7.53,7.53,0,0,1,209.09,127.3Z"/><path class="cls-3" d="M206.17,119.34a2.74,2.74,0,0,0-.5.14,8.29,8.29,0,0,0-.86,0c-3.3.26-1.91,2-1.91,2a5.32,5.32,0,0,0,2.08,1.64l-.08.18a7.45,7.45,0,0,0-1.06-.39c0-.29-1.61.34-4.5,1.12-.18,0-.39.09-.59.16-.65.17-1.37.35-2.15.52a22.25,22.25,0,0,0-6.33,2.67c.89-1.64,1.79-3.26,2.73-4.81.24-.38.47-.72.72-1h0C198.17,117.47,203.37,118.38,206.17,119.34Z"/><path class="cls-5" d="M190.27,127.4c-3.91,7.2-7.45,14.54-12.72,16.65-6.44,2.62-27.88,9-27.84,21s4.25,21.09,25,19.52,30-25.14,32.1-30.62c0,0,3.29-6.67,5.8-13.54"/><path class="cls-5" d="M193.72,121.53c-.25.33-.48.67-.72,1-.94,1.55-1.84,3.17-2.73,4.81"/><path class="cls-5" d="M210.13,120.94a10.6,10.6,0,0,1,.91.7"/><path class="cls-5" d="M203.84,122.92c0-.29-1.61.34-4.5,1.12"/><path class="cls-5" d="M198.75,124.2c-.65.17-1.37.35-2.15.52a22.25,22.25,0,0,0-6.33,2.67h0c-2.52,1.5-2.6,2,1.44-3.62a14,14,0,0,1,2-2.25h0c4.45-4,9.65-3.14,12.45-2.18a13.65,13.65,0,0,1,2,.86"/><path class="cls-5" d="M208.19,120.2a12.75,12.75,0,0,1,1.92.73h0c.27.13.56.28.86.45,2.25,1.21,4.93,3.5,4.36,7.19h0a3.89,3.89,0,0,1-.1.56c-1.54,6.59-.89,13-2.44,11.45l-.23-.21c-1.77-1.71-1.8-1.29-2.49-8.43a19.11,19.11,0,0,0-.83-4.17"/><path class="cls-5" d="M209.09,127.3a7.53,7.53,0,0,0-4.19-4,7.45,7.45,0,0,0-1.06-.39"/><path class="cls-5" d="M209.09,127.3a3.12,3.12,0,0,1,.17.49,48.13,48.13,0,0,1-3.34,5.32c-2.72,3.81-9.23,4.26-8.33,2.93s1.64-4.1,1.09-9.8a7.15,7.15,0,0,1,.07-2"/><path class="cls-5" d="M198.75,124.2c.2-.07.41-.11.59-.16"/><path class="cls-5" d="M205.67,119.48a8.29,8.29,0,0,0-.86,0c-3.3.26-1.91,2-1.91,2a5.32,5.32,0,0,0,2.08,1.64c3,1.46,7.41,1.66,6.6-.2a2.77,2.77,0,0,0-.26-.48"/><path class="cls-5" d="M205.67,119.48a2.74,2.74,0,0,1,.5-.14,5.61,5.61,0,0,1,.94-.15c2.89-.25,3.17-5.85,3.17-5.85s.94-1.28,1.44,0c.35.87-.48,4.27-.53,5.38a13.63,13.63,0,0,0-.2,2.67c0,.08,0,.15,0,.25a5.64,5.64,0,0,0,.22.66.94.94,0,0,1,.06.15"/><path class="cls-3" d="M188.87,77.44c4,3.7,5.7,11.62,5.7,17.26,0,5.12-3.11,9.06-6.45,12.65-4,4.31-10,5.58-16.6,5.58-6,0-11.85-1.37-15.82-5s-7-9.32-7-15c0-7.59,3.13-14.75,9.73-18.27a5.84,5.84,0,0,1,3.19-.6h0a18.56,18.56,0,0,1,3.43,2.37c2.29,2-4-1-8.33,2.12-3.3,2.34-3.36,6.87-2.49,8s0-5.45,5.33-6.5c0,0,7.19-.66,9.11-.25,1,.22,7.92,2.19,5.64,11.58-.65,2.67,6.4-7.49,1.46-10.86-.74-.5-.18-1.62-.18-1.62s5.31-.53,7.91.85c1.54.81,4,3.36,4.44,5,.39,1.4.18-7.23-9.54-9.13-2.54-.5-3.05-1.14-2.44-1.74Q184.46,73.35,188.87,77.44Z"/><path class="cls-4" d="M178.44,75.52c9.72,1.9,9.93,10.53,9.54,9.13-.44-1.59-2.9-4.14-4.44-5-2.6-1.38-7.91-.85-7.91-.85s-.56,1.12.18,1.62c4.94,3.37-2.11,13.53-1.46,10.86,2.28-9.39-4.63-11.36-5.64-11.58-1.92-.41-9.11.25-9.11.25-5.28,1-4.45,7.59-5.33,6.5s-.81-5.62,2.49-8c4.38-3.11,10.62-.13,8.33-2.12a18.56,18.56,0,0,0-3.43-2.37h0c-7.71-4.12-14.59-.61-9.06-3,6.36-2.74,14.5,3.19,14.5,3.19a3.43,3.43,0,0,0,2,.65c-.15,1.34-.08,2.87,2.17,2.59,1.93-.22,1.11-3,.89-4,.33-.25.68-.54,1.06-.87,5.15-4.6,17.52,1,13.65-.37-2.66-.93-9.49.23-10.83,1.57C175.39,74.38,175.9,75,178.44,75.52Z"/><path class="cls-4" d="M172.12,73.45c.22,1,1,3.8-.89,4-2.25.28-2.32-1.25-2.17-2.59h0c.06-.53.16-1,.16-1.39a22.32,22.32,0,0,0-.77-4.9c.07.15.63.27,1.32.27s1.33-.14,1.33-.3c.39,1.55.69,3.28,1,4.85Z"/><path class="cls-5" d="M161.65,74.05a5.84,5.84,0,0,0-3.19.6c-6.6,3.52-9.73,10.68-9.73,18.27,0,5.66,3,11.28,7,15s9.79,5,15.82,5c6.63,0,12.57-1.27,16.6-5.58,3.34-3.59,6.45-7.53,6.45-12.65,0-5.64-1.72-13.56-5.7-17.26q-4.41-4.09-12.87-3.66"/><path class="cls-5" d="M169.06,74.88a3.43,3.43,0,0,1-2-.65S159,68.3,152.59,71c-5.53,2.4,1.35-1.11,9.06,3h0a18.56,18.56,0,0,1,3.43,2.37c2.29,2-4-1-8.33,2.12-3.3,2.34-3.36,6.87-2.49,8s0-5.45,5.33-6.5c0,0,7.19-.66,9.11-.25,1,.22,7.92,2.19,5.64,11.58-.65,2.67,6.4-7.49,1.46-10.86-.74-.5-.18-1.62-.18-1.62s5.31-.53,7.91.85c1.54.81,4,3.36,4.44,5,.39,1.4.18-7.23-9.54-9.13-2.54-.5-3.05-1.14-2.44-1.74,1.34-1.34,8.17-2.5,10.83-1.57,3.87,1.37-8.5-4.23-13.65.37-.38.33-.73.62-1.06.87"/><path class="cls-5" d="M168.45,68.56h0a3.44,3.44,0,0,0,2.62,0c.39,1.55.69,3.28,1,4.85v0c.22,1,1,3.8-.89,4-2.25.28-2.32-1.25-2.17-2.59h0c.06-.53.16-1,.16-1.39a22.32,22.32,0,0,0-.77-4.9"/><path class="cls-5" d="M171.1,68.56c0,.16-.59.3-1.33.3s-1.25-.12-1.32-.27v0c0-.17.59-.31,1.32-.31S171.1,68.39,171.1,68.56Z"/><path class="cls-3" d="M119.48,99.4s1.27.34.84,2.23.92,1-.15,3.08h0c-2,1.47-1.65,3.34-1.81,4.52s-1.6,2.49-.12,1.69l.11-.06a5,5,0,0,0,.84-.56,3.51,3.51,0,0,0,.72-1.19l2.24-.16a1.63,1.63,0,0,0,2.22-.17c.7-.77,1.24-1.45,1.91-.69,0,0,0,0,0,0a1.11,1.11,0,0,1,.12.16,3,3,0,0,0,1.72,1c-1.51-3.85-3.14-4.93-4.22-5.17a3.59,3.59,0,0,1-.39-.06h0a3.3,3.3,0,0,1-1.55-2.56C122,99.29,120.55,97.7,119.48,99.4Z"/><path class="cls-3" d="M118.23,110.92c-.18,3.77,1.29,8.42,2.25,11.91a27.43,27.43,0,0,0,15.82,17.74c7,3,15.71-.64,16.36-2,1.58-1,1.47-1.69-1.63-1-8.13,1.78-11.67-2.52-16.47-8.6s-3.73-12.61-6.3-19.42l-.13-.31"/><path class="cls-3" d="M123.91,104.08a3.59,3.59,0,0,1-.39-.06h0a3.3,3.3,0,0,1-1.55-2.56c.05-2.17-1.41-3.76-2.48-2.06,0,0,1.27.34.84,2.23s.92,1-.15,3.08h0c-2,1.47-1.65,3.34-1.81,4.52s-1.6,2.49-.12,1.69l.11-.06a5,5,0,0,0,.84-.56,3.51,3.51,0,0,0,.72-1.19l2.24-.16a1.63,1.63,0,0,0,2.22-.17c.7-.77,1.24-1.45,1.91-.69,0,0,0,0,0,0a1.11,1.11,0,0,1,.12.16,3,3,0,0,0,1.72,1"/><path class="cls-3" d="M123.91,104.08c1.08.24,2.71,1.32,4.22,5.17a7.08,7.08,0,0,0,1.19.19c-1.77-1.53-1.63-2.26-2.39-3.15C125.88,105.05,124.9,104.2,123.91,104.08Z"/><path class="cls-4" d="M119.48,99.4s1.27.34.84,2.23.92,1-.15,3.08h0c-2,1.47-1.65,3.34-1.81,4.52s-1.6,2.49-.12,1.69l.11-.06a5,5,0,0,0,.84-.56,3.51,3.51,0,0,0,.72-1.19l2.24-.16a1.63,1.63,0,0,0,2.22-.17c.7-.77,1.24-1.45,1.91-.69,0,0,0,0,0,0a1.11,1.11,0,0,1,.12.16,3,3,0,0,0,1.72,1c-1.51-3.85-3.14-4.93-4.22-5.17a3.59,3.59,0,0,1-.39-.06h0a3.3,3.3,0,0,1-1.55-2.56C122,99.29,120.55,97.7,119.48,99.4Z"/><path class="cls-5" d="M118.23,110.92c-.18,3.77,1.29,8.42,2.25,11.91a27.43,27.43,0,0,0,15.82,17.74c7,3,15.71-.64,16.36-2,1.58-1,1.47-1.69-1.63-1-8.13,1.78-11.67-2.52-16.47-8.6s-3.73-12.61-6.3-19.42l-.13-.31"/><path class="cls-5" d="M123.91,104.08a3.59,3.59,0,0,1-.39-.06h0a3.3,3.3,0,0,1-1.55-2.56c.05-2.17-1.41-3.76-2.48-2.06,0,0,1.27.34.84,2.23s.92,1-.15,3.08h0c-2,1.47-1.65,3.34-1.81,4.52s-1.6,2.49-.12,1.69l.11-.06a5,5,0,0,0,.84-.56,3.51,3.51,0,0,0,.72-1.19l2.24-.16a1.63,1.63,0,0,0,2.22-.17c.7-.77,1.24-1.45,1.91-.69,0,0,0,0,0,0a1.11,1.11,0,0,1,.12.16,3,3,0,0,0,1.72,1"/><path class="cls-5" d="M123.91,104.08c1.08.24,2.71,1.32,4.22,5.17a7.08,7.08,0,0,0,1.19.19c-1.77-1.53-1.63-2.26-2.39-3.15C125.88,105.05,124.9,104.2,123.91,104.08Z"/><path class="cls-3" d="M125.21,167.23c1.73,4.39,4.13,8.74.87,13.07-2.65,3.52-10,7.91-15,9.86-3.2,1.26-6.71,1.25-9.77,1.35-5.28.16-9.5,0-12.63-2.86A18.37,18.37,0,0,1,85.2,183a16.47,16.47,0,0,1,2.18-15c2.65-3.52,7.72-4,12.68-5.91,6.2-2.44,12.16-5.51,17.08-3.78C121,159.64,123.84,163.75,125.21,167.23Z"/><path class="cls-5" d="M125.21,167.23c1.73,4.39,4.13,8.74.87,13.07-2.65,3.52-10,7.91-15,9.86-3.2,1.26-6.71,1.25-9.77,1.35-5.28.16-9.5,0-12.63-2.86A18.37,18.37,0,0,1,85.2,183a16.47,16.47,0,0,1,2.18-15c2.65-3.52,7.72-4,12.68-5.91,6.2-2.44,12.16-5.51,17.08-3.78C121,159.64,123.84,163.75,125.21,167.23Z"/><path class="cls-4" d="M89.81,171.72c.42.89.44,1.77,0,2s-1.06-.39-1.48-1.28-.45-1.77-.05-2S89.38,170.82,89.81,171.72Z"/><path class="cls-4" d="M97.09,175.9c.42.9.44,1.78,0,2s-1.07-.38-1.49-1.27-.44-1.78-.05-2S96.67,175,97.09,175.9Z"/><path class="cls-4" d="M100.23,168.1c.42.89.44,1.77,0,2s-1.07-.39-1.49-1.28-.44-1.77-.05-2S99.81,167.2,100.23,168.1Z"/><path class="cls-4" d="M101.28,182.71c.42.89.44,1.77,0,2s-1.07-.39-1.49-1.28-.44-1.77,0-2S100.86,181.81,101.28,182.71Z"/><path class="cls-4" d="M106.94,176.6c.42.9.44,1.77,0,2s-1.07-.38-1.49-1.28-.44-1.77,0-2S106.52,175.71,106.94,176.6Z"/><path class="cls-4" d="M108,170.06c.43.9.45,1.77.05,2s-1.07-.38-1.49-1.28-.44-1.77,0-2S107.57,169.17,108,170.06Z"/><path class="cls-4" d="M113.4,161.69c.42.89.44,1.77,0,2s-1.07-.39-1.49-1.28-.44-1.77,0-2S113,160.79,113.4,161.69Z"/><path class="cls-4" d="M116.58,170.4c.43.9.45,1.78,0,2s-1.06-.38-1.49-1.27-.44-1.78,0-2S116.16,169.51,116.58,170.4Z"/><path class="cls-4" d="M111,184.55c.58,1.23.76,2.35.4,2.52s-1.11-.69-1.69-1.91-.76-2.35-.4-2.52S110.42,183.33,111,184.55Z"/><path class="cls-4" d="M91.29,181.33c.58,1.22.76,2.35.4,2.51s-1.11-.68-1.69-1.91-.76-2.35-.4-2.51S90.71,180.1,91.29,181.33Z"/><path class="cls-4" d="M120.12,180.27c.57,1.22.75,2.35.4,2.51s-1.11-.68-1.69-1.9-.76-2.35-.41-2.52S119.54,179,120.12,180.27Z"/><path class="cls-4" d="M124,173.41c.58,1.22.76,2.35.4,2.52s-1.11-.69-1.69-1.91-.76-2.35-.4-2.52S123.42,172.19,124,173.41Z"/><path class="cls-3" d="M87.59,51.86c-2.23,1.09,1,1.91.48,3.81s2.72,2.58,4,1.69,2.13-.13,3,.75,3.15-.9,5-.34,3.09,1.42,5.07.87c1.17-.33,5,1.61,7.89,3.25a8.11,8.11,0,0,1,.66-.65L112,59.64a45.7,45.7,0,0,0-5.68-3.7c-2-.81-3.27-3.33-5.5-3.14s-2.24-.85-3.71-1-1.79.56-3.07.81S89.82,50.77,87.59,51.86Z"/><path class="cls-3" d="M98.39,43.42c-1.52-.79-2.2,1.92-1.36,3s.26,2.42,1.68,3.4,2.15.44,3.5,1.66.35,1.66,2.56,2.26c1.26.35,4.62,3.34,7.25,5.85.66.46,1.31.94,1.92,1.38l0,0-1.36-2.2c-2.78-3.19-6.31-7.37-6.86-7.93-.87-.9.94-1.55-.88-2.89s-1.9-.06-3.68-1.6S99.9,44.22,98.39,43.42Z"/><path class="cls-3" d="M106.23,39.67c-.34,1.16-1.06,1.4-1,2.76s1,1.46.68,3.5,1.88,3.36,2.48,5.29a62.32,62.32,0,0,0,4.21,7.58l1.7,1.93.32-.22h0c-1.11-2.23-4.22-8.72-3.67-10.18.66-1.78,0-2.94-.41-4.73s1.44-3.75.7-4.62-1.38-1.75-.46-2.81.53-4.13-1.25-3.76-2.31-2.7-3.47-.73S106.56,38.52,106.23,39.67Z"/><path class="cls-4" d="M113,61.89a10.14,10.14,0,0,0-2.83,7,10.25,10.25,0,0,0,7.41,9.84,16.46,16.46,0,0,1,2.3.38h0a13.15,13.15,0,0,1,5.66,2.63c2.47,2.2,9.51,2.53,9.51,2.53a14.12,14.12,0,0,1-5.82-3.13c-2.7-2.36-.92-5.61-.62-6.1a.14.14,0,0,1,0-.06A10.25,10.25,0,0,0,114.63,60.5h0l-.32.22L114,61l.07.09-.1-.07-.25.22A8.11,8.11,0,0,0,113,61.89Z"/><path class="cls-5" d="M114.31,60.73l-1.7-1.93c-2.78-3.19-6.31-7.37-6.86-7.93-.87-.9.94-1.55-.88-2.89s-1.9-.06-3.68-1.6-1.29-2.16-2.8-3-2.2,1.92-1.36,3,.26,2.42,1.68,3.4,2.15.44,3.5,1.66.35,1.66,2.56,2.26c1.26.35,4.62,3.34,7.25,5.85l1.67,1.6"/><path class="cls-5" d="M113.94,61c-.61-.44-1.26-.92-1.92-1.38a45.7,45.7,0,0,0-5.68-3.7c-2-.81-3.27-3.33-5.5-3.14s-2.24-.85-3.71-1-1.79.56-3.07.81-4.24-1.79-6.47-.7,1,1.91.48,3.81,2.72,2.58,4,1.69,2.13-.13,3,.75,3.15-.9,5-.34,3.09,1.42,5.07.87c1.17-.33,5,1.61,7.89,3.25"/><path class="cls-5" d="M114.63,60.5c-1.11-2.23-4.22-8.72-3.67-10.18.66-1.78,0-2.94-.41-4.73s1.44-3.75.7-4.62-1.38-1.75-.46-2.81.53-4.13-1.25-3.76-2.31-2.7-3.47-.73.49,4.85.16,6-1.06,1.4-1,2.76,1,1.46.68,3.5,1.88,3.36,2.48,5.29a62.32,62.32,0,0,0,4.21,7.58L114,61"/><path class="cls-5" d="M113.94,61l-.25.22a8.11,8.11,0,0,0-.66.65,10.14,10.14,0,0,0-2.83,7,10.25,10.25,0,0,0,7.41,9.84"/><path class="cls-5" d="M119.91,79.16h0a13.15,13.15,0,0,1,5.66,2.63c2.47,2.2,9.51,2.53,9.51,2.53a14.12,14.12,0,0,1-5.82-3.13c-2.7-2.36-.92-5.61-.62-6.1a.14.14,0,0,1,0-.06A10.25,10.25,0,0,0,114.63,60.5h0l-.32.22L114,61"/><path class="cls-5" d="M117.61,78.78a9.3,9.3,0,0,0,2.3.38A16.46,16.46,0,0,0,117.61,78.78Z"/><path class="cls-5" d="M113.94,61l.1.07L114,61Z"/></svg>