<svg id="Layer_1" data-name="Layer 1" xmlns="http://www.w3.org/2000/svg" viewBox="0 0 367.32 367.32"><defs><style>.cls-1{fill:#0e4e91;}.cls-2{fill:#abe7ff;}.cls-3{fill:#caf5fe;}.cls-4,.cls-7{fill:#fff;}.cls-5,.cls-8{fill:none;stroke:#0e4e91;stroke-linecap:round;stroke-linejoin:round;}.cls-6,.cls-9{fill:#2db5ff;}.cls-7,.cls-8,.cls-9{fill-rule:evenodd;}</style></defs><title>-</title><path class="cls-1" d="M187.12,298l0-1.5c2.64-.06,5.31-.21,7.93-.45l.14,1.49C192.5,297.78,189.8,297.94,187.12,298Zm-6,0c-2.68-.08-5.38-.25-8-.52l.15-1.49c2.62.26,5.28.43,7.92.51Zm20.06-1.14-.22-1.48c2.62-.39,5.25-.86,7.82-1.42l.32,1.46C206.46,296,203.8,296.44,201.15,296.83ZM214.93,294l-.4-1.45c2.54-.7,5.09-1.5,7.58-2.37l.5,1.41C220.09,292.43,217.5,293.24,214.93,294Zm13.31-4.57-.57-1.39c2.42-1,4.85-2.11,7.22-3.28l.67,1.34C233.16,287.24,230.7,288.36,228.24,289.38Zm12.64-6.17-.74-1.3c2.29-1.3,4.56-2.7,6.76-4.16l.83,1.25C245.5,280.48,243.2,281.9,240.88,283.21Zm-113.46-.46c-2.31-1.34-4.61-2.78-6.83-4.27l.84-1.25c2.19,1.48,4.46,2.9,6.74,4.22Zm125.24-7.21-.89-1.21c2.12-1.57,4.21-3.24,6.2-4.95l1,1.14C256.93,272.25,254.81,273.94,252.66,275.54Zm-137-.58c-2.13-1.6-4.23-3.31-6.25-5.07l1-1.13c2,1.73,4.06,3.42,6.16,5Zm147.75-8.49-1-1.09c1.91-1.81,3.78-3.72,5.56-5.67l1.11,1C267.25,262.69,265.36,264.63,263.43,266.47ZM105,265.8c-1.91-1.85-3.79-3.8-5.58-5.79l1.11-1c1.77,2,3.62,3.89,5.51,5.72Zm168-9.65-1.16-.95c1.67-2,3.29-4.17,4.82-6.31l1.22.86C276.35,251.93,274.7,254.08,273,256.15ZM95.5,255.41c-1.68-2.08-3.3-4.24-4.83-6.43l1.23-.86c1.51,2.16,3.11,4.3,4.76,6.35Zm185.76-10.67-1.27-.81c1.41-2.22,2.76-4.53,4-6.86l1.32.72C284.05,240.14,282.68,242.48,281.26,244.74Zm-193.91-.8c-1.41-2.27-2.75-4.62-4-7l1.33-.7c1.23,2.33,2.56,4.65,3.95,6.89ZM288,232.39l-1.36-.64c1.13-2.39,2.19-4.85,3.14-7.31l1.4.54C290.25,227.48,289.18,230,288,232.39ZM70.42,190.83c-.14-2.37-.22-4.78-.22-7.16v-.88h1.5v.87c0,2.35.07,4.73.22,7.07Zm1.48-14-1.49-.09c.16-2.67.41-5.36.76-8l1.48.19C72.31,171.56,72.06,174.21,71.9,176.85Zm223.74-13.19c-.47-2.6-1-5.21-1.68-7.76l1.46-.37c.65,2.58,1.22,5.23,1.7,7.87Zm-222.06-.6-1.48-.27c.49-2.63,1.07-5.28,1.74-7.86l1.45.38C74.63,157.86,74.06,160.46,73.58,163.06Zm218.77-12.89c-.78-2.52-1.66-5-2.62-7.5l1.4-.54c1,2.49,1.86,5,2.65,7.59Zm-215.41-.59-1.43-.45c.81-2.54,1.71-5.1,2.7-7.59l1.4.55C78.63,144.55,77.74,147.07,76.94,149.58Zm210.48-12.39c-1.09-2.4-2.27-4.79-3.52-7.11l1.32-.71c1.27,2.35,2.47,4.77,3.57,7.2ZM82,136.61,80.59,136c1.11-2.42,2.33-4.85,3.62-7.2l1.32.73C84.25,131.83,83.05,134.21,82,136.61Zm199-11.68c-1.37-2.25-2.84-4.48-4.37-6.63l1.22-.87c1.55,2.18,3,4.44,4.43,6.71Zm-192.4-.58-1.28-.78c1.41-2.28,2.91-4.53,4.48-6.7l1.22.88C91.4,119.89,89.92,122.11,88.53,124.35ZM273,113.55c-1.64-2.07-3.37-4.1-5.15-6l1.1-1c1.81,2,3.57,4,5.23,6.12ZM96.56,113l-1.17-.94c1.67-2.08,3.44-4.13,5.26-6.09l1.1,1C100,108.93,98.21,111,96.56,113Zm167.13-9.79c-1.87-1.85-3.84-3.66-5.85-5.37l1-1.14c2,1.74,4,3.57,5.93,5.44ZM140.41,79.78l-.59-1.38c2.46-1,5-2,7.5-2.88l.49,1.42C145.32,77.79,142.83,78.75,140.41,79.78Zm75.79-4.46c-2.53-.74-5.12-1.4-7.69-1.95l.31-1.47c2.62.56,5.24,1.23,7.8,2Zm-62.71-.17-.41-1.44c2.57-.74,5.19-1.39,7.81-1.94l.31,1.47C158.62,73.78,156,74.42,153.49,75.15Zm49.16-2.89c-2.59-.42-5.24-.75-7.87-1l.13-1.5c2.66.24,5.35.58,8,1Zm-35.59-.09-.23-1.49c2.63-.41,5.32-.73,8-1l.12,1.49C172.31,71.44,169.66,71.76,167.06,72.17Zm21.77-1.27c-2.64-.1-5.31-.11-7.94,0l0-1.5c2.66-.09,5.37-.08,8,0Z"/><circle class="cls-2" cx="186.14" cy="187.89" r="89.01"/><path class="cls-3" d="M248.55,142.88a3.59,3.59,0,0,1-.73,2.17c-1.11-.53-2.06-2.26-2.71-4.79a51.13,51.13,0,0,1,0-21.75c.65-2.53,1.6-4.26,2.71-4.78a3.54,3.54,0,0,1,.73,2.16Z"/><path class="cls-4" d="M236.87,118.06c0-1.83-1-3.32-2.21-3.37h-.07c-1.25,0-2.27,1.52-2.27,3.38s1,3.37,2.27,3.37S236.87,119.91,236.87,118.06Zm-2.43-5.8h10.48a3.62,3.62,0,0,1,2.9,1.47c-1.11.52-2.06,2.25-2.71,4.78a51.13,51.13,0,0,0,0,21.75c.65,2.53,1.6,4.26,2.71,4.79a3.64,3.64,0,0,1-2.9,1.46h-21V112.26Z"/><path class="cls-4" d="M234.59,121.43c-1.25,0-2.27-1.52-2.27-3.37s1-3.38,2.27-3.38h.07c1.22,0,2.21,1.54,2.21,3.37S235.85,121.43,234.59,121.43Z"/><rect class="cls-3" x="221.27" y="112.26" width="2.66" height="34.24"/><path class="cls-4" d="M209.28,114.68c1.26,0,2.27,1.52,2.27,3.38s-1,3.37-2.27,3.37-2.27-1.52-2.27-3.37.93-3.25,2.12-3.37Z"/><path class="cls-4" d="M211.55,118.06c0-1.86-1-3.38-2.27-3.38h-.15c-1.19.12-2.12,1.58-2.12,3.37s1,3.37,2.27,3.37S211.55,119.91,211.55,118.06Zm-2.21-5.8h11.93v34.25H199a3.62,3.62,0,0,1-2.9-1.46c1.11-.54,2.05-2.27,2.7-4.79a51.13,51.13,0,0,0,0-21.75c-.65-2.52-1.59-4.25-2.7-4.78a3.6,3.6,0,0,1,2.9-1.47Z"/><path class="cls-3" d="M198.76,118.51a51.13,51.13,0,0,1,0,21.75c-.65,2.52-1.59,4.25-2.7,4.79h0a3.65,3.65,0,0,1-.73-2.17v-27a3.6,3.6,0,0,1,.73-2.16C197.17,114.26,198.11,116,198.76,118.51Z"/><path class="cls-5" d="M196.06,145.05a3.65,3.65,0,0,1-.73-2.17v-27a3.67,3.67,0,0,1,3.63-3.63h46a3.62,3.62,0,0,1,2.9,1.47,3.54,3.54,0,0,1,.73,2.16v27a3.59,3.59,0,0,1-.73,2.17,3.64,3.64,0,0,1-2.9,1.46H199a3.62,3.62,0,0,1-2.9-1.46"/><path class="cls-5" d="M234.66,114.69c-.06-.83-.13-1.64-.22-2.43-1.11-9.83-4.61-16.48-7.75-19.58-2-2.48-7.87-2.57-9.86,0-3.14,3.1-6.45,9.75-7.49,19.58q-.14,1.18-.21,2.43"/><path class="cls-5" d="M234.59,121.43c1.26,0,2.28-1.52,2.28-3.37s-1-3.32-2.21-3.37h-.07c-1.25,0-2.27,1.52-2.27,3.38S233.34,121.43,234.59,121.43Z"/><path class="cls-5" d="M209.28,121.43c1.26,0,2.27-1.52,2.27-3.37s-1-3.38-2.27-3.38h-.15c-1.19.12-2.12,1.58-2.12,3.37S208,121.43,209.28,121.43Z"/><line class="cls-5" x1="221.27" y1="146.51" x2="221.27" y2="112.26"/><line class="cls-5" x1="223.93" y1="146.51" x2="223.93" y2="112.26"/><path class="cls-5" d="M196.06,113.73h0c1.11.53,2.05,2.26,2.7,4.78a51.13,51.13,0,0,1,0,21.75c-.65,2.52-1.59,4.25-2.7,4.79h0"/><path class="cls-5" d="M247.82,113.73c-1.11.52-2.06,2.25-2.71,4.78a51.13,51.13,0,0,0,0,21.75c.65,2.53,1.6,4.26,2.71,4.79"/><path class="cls-4" d="M136.83,217.11a21.5,21.5,0,0,1,0,18.36h-32v-.23h20.31V217.11h11.65Z"/><path class="cls-4" d="M125.18,217.11v18.13H104.87V217.11h7.92v3.54a2.28,2.28,0,0,0,4.55,0v-3.54Z"/><path class="cls-6" d="M117.34,217.11v3.54a2.28,2.28,0,0,1-4.55,0v-3.54Z"/><rect class="cls-6" x="112.79" y="215.52" width="4.54" height="1.59"/><path class="cls-4" d="M104.87,235.24v.23H94.15a17.75,17.75,0,0,1,0-18.36h10.72Z"/><path class="cls-5" d="M128.29,217.11h8.54a21.5,21.5,0,0,1,0,18.36H94.15a17.75,17.75,0,0,1,0-18.36h34.14Z"/><path class="cls-5" d="M111.94,196a10.41,10.41,0,0,1,2.92-.43h.34a10,10,0,0,1,10,10v29.73H104.87V205.51a10,10,0,0,1,7.06-9.54"/><path class="cls-5" d="M108,217.11V203.9a9.92,9.92,0,0,1,4-7.93h0a9.88,9.88,0,0,1,6-2h.35a10,10,0,0,1,10,10v13.21"/><path class="cls-5" d="M117.34,217.11v3.54a2.28,2.28,0,0,1-4.55,0v-5.13h4.55Z"/><path class="cls-3" d="M155.54,150.36v3.7a2.58,2.58,0,0,1-2.58,2.59h-7.22v-2.18a4.09,4.09,0,0,1,4.1-4.11Z"/><path class="cls-4" d="M155.54,145.82v4.54h-5.7a4.09,4.09,0,0,0-4.1,4.11v2.18H107.27v-2.18a4.12,4.12,0,0,0-4.11-4.11H98.57v-4.54A20.49,20.49,0,0,1,113.86,126v3h-1.68v5.12h1.68v5.46h-1.68v5.13h1.68v3.91h4.37v-3.91h1.51v-5.13h-1.51v-5.46h1.51V129h-1.51v-3.67a7.49,7.49,0,0,1,.83,0h16.06V129h-1.68v5.12h1.68v5.46h-1.68v5.13h1.68v3.91h4.37v-3.91H141v-5.13h-1.51v-5.46H141V129h-1.51V125.8A20.5,20.5,0,0,1,155.54,145.82Z"/><polygon class="cls-6" points="141 139.59 141 144.72 139.49 144.72 135.12 144.72 133.44 144.72 133.44 139.59 135.12 139.59 139.49 139.59 141 139.59"/><polygon class="cls-6" points="141 129.01 141 134.13 139.49 134.13 135.12 134.13 133.44 134.13 133.44 129.01 135.12 129.01 139.49 129.01 141 129.01"/><rect class="cls-3" x="135.12" y="144.72" width="4.37" height="3.91"/><rect class="cls-3" x="135.12" y="134.13" width="4.37" height="5.46"/><path class="cls-3" d="M139.49,125.8V129h-4.37v-7.43a4.18,4.18,0,0,0-4.17-4.17H122.4a4.18,4.18,0,0,0-4.17,4.17V129h-4.37v-7.43A8.54,8.54,0,0,1,122.4,113H131a8.54,8.54,0,0,1,8.54,8.54Z"/><polygon class="cls-6" points="119.74 139.59 119.74 144.72 118.23 144.72 113.86 144.72 112.18 144.72 112.18 139.59 113.86 139.59 118.23 139.59 119.74 139.59"/><polygon class="cls-6" points="119.74 129.01 119.74 134.13 118.23 134.13 113.86 134.13 112.18 134.13 112.18 129.01 113.86 129.01 118.23 129.01 119.74 129.01"/><rect class="cls-3" x="113.86" y="144.72" width="4.37" height="3.91"/><rect class="cls-3" x="113.86" y="134.13" width="4.37" height="5.46"/><path class="cls-3" d="M107.27,154.47v2.18h-6.11a2.59,2.59,0,0,1-2.59-2.59v-3.7h4.59A4.12,4.12,0,0,1,107.27,154.47Z"/><path class="cls-5" d="M139.49,125.8a20.5,20.5,0,0,1,16,20v8.24a2.58,2.58,0,0,1-2.58,2.59h-51.8a2.59,2.59,0,0,1-2.59-2.59v-8.24A20.49,20.49,0,0,1,113.86,126"/><path class="cls-5" d="M118.23,125.34a7.49,7.49,0,0,1,.83,0h16.06"/><path class="cls-5" d="M98.57,150.36h4.59a4.12,4.12,0,0,1,4.11,4.11v2.18"/><path class="cls-5" d="M145.74,156.65v-2.18a4.09,4.09,0,0,1,4.1-4.11h5.7"/><polyline class="cls-5" points="118.23 144.72 118.23 148.63 113.86 148.63 113.86 144.72"/><line class="cls-5" x1="113.86" y1="139.59" x2="113.86" y2="134.13"/><line class="cls-5" x1="118.23" y1="134.13" x2="118.23" y2="139.59"/><path class="cls-5" d="M113.86,129v-7.43A8.54,8.54,0,0,1,122.4,113H131a8.54,8.54,0,0,1,8.54,8.54V129"/><path class="cls-5" d="M135.12,129v-7.43a4.18,4.18,0,0,0-4.17-4.17H122.4a4.18,4.18,0,0,0-4.17,4.17V129"/><line class="cls-5" x1="135.12" y1="139.59" x2="135.12" y2="134.13"/><line class="cls-5" x1="139.49" y1="134.13" x2="139.49" y2="139.59"/><polyline class="cls-5" points="139.49 144.72 139.49 148.63 135.12 148.63 135.12 144.72"/><polygon class="cls-5" points="118.23 129.01 119.74 129.01 119.74 134.13 118.23 134.13 113.86 134.13 112.18 134.13 112.18 129.01 113.86 129.01 118.23 129.01"/><polygon class="cls-5" points="139.49 129.01 141 129.01 141 134.13 139.49 134.13 135.12 134.13 133.44 134.13 133.44 129.01 135.12 129.01 139.49 129.01"/><polygon class="cls-5" points="118.23 139.59 119.74 139.59 119.74 144.72 118.23 144.72 113.86 144.72 112.18 144.72 112.18 139.59 113.86 139.59 118.23 139.59"/><polygon class="cls-5" points="139.49 139.59 141 139.59 141 144.72 139.49 144.72 135.12 144.72 133.44 144.72 133.44 139.59 135.12 139.59 139.49 139.59"/><path class="cls-4" d="M218.91,271.13v7.28h-6.2v-7.2A19,19,0,0,0,208,258.69a4.14,4.14,0,0,0,1.61-3.23v-3c.47.35.9.74,1.33,1.12A23.64,23.64,0,0,1,218.91,271.13Z"/><path class="cls-3" d="M212.71,271.21v7.2H170.16v-7.2A19.07,19.07,0,0,1,175,258.58a4.91,4.91,0,0,0,3.08,1.22h.25a4.59,4.59,0,0,0,4.78-4.35v-2.63a22.35,22.35,0,0,1,8.37-1.6,22.05,22.05,0,0,1,8.61,1.72v2.51a4.58,4.58,0,0,0,4.77,4.35h.11a4.87,4.87,0,0,0,3.05-1.12A19,19,0,0,1,212.71,271.21Z"/><path class="cls-4" d="M204.94,249.49a26.65,26.65,0,0,1,4.66,3v3a4.14,4.14,0,0,1-1.61,3.23,4.87,4.87,0,0,1-3.05,1.12h-.11a4.58,4.58,0,0,1-4.77-4.35V253a22.05,22.05,0,0,0-8.61-1.72,22.35,22.35,0,0,0-8.37,1.6v2.63a4.59,4.59,0,0,1-4.78,4.35h-.25l.16-2.11h.09a2.34,2.34,0,0,0,2.45-2.23v-4.31h-2.54V249.6a12.2,12.2,0,0,1,1.14-.58A29.63,29.63,0,0,1,204,249,9.94,9.94,0,0,1,204.94,249.49Zm0,1.66h-2.55v4.31a2.34,2.34,0,0,0,2.44,2.23h.11a2.49,2.49,0,0,0,1.54-.59,2.13,2.13,0,0,0,.79-1.64v-4.31Z"/><path class="cls-6" d="M207.27,251.15v4.31a2.13,2.13,0,0,1-.79,1.64,2.49,2.49,0,0,1-1.54.59h-.11a2.34,2.34,0,0,1-2.44-2.23v-4.31h4.88Z"/><path class="cls-6" d="M180.75,251.15v4.31a2.34,2.34,0,0,1-2.45,2.23h-.09a2.35,2.35,0,0,1-1.67-.72,2,2,0,0,1-.68-1.51v-4.31h4.89Z"/><path class="cls-4" d="M178.21,249.6v1.55h-2.35v4.31a2,2,0,0,0,.68,1.51,2.35,2.35,0,0,0,1.67.72l-.16,2.11a4.91,4.91,0,0,1-3.08-1.22,19.07,19.07,0,0,0-4.81,12.63v7.2h-5.7v-7.28a23.73,23.73,0,0,1,9.07-18.46A27,27,0,0,1,178.21,249.6Z"/><path class="cls-5" d="M179.35,249A29.63,29.63,0,0,1,204,249a9.94,9.94,0,0,1,.92.47,26.65,26.65,0,0,1,4.66,3c.47.35.9.74,1.33,1.12a23.64,23.64,0,0,1,8,17.53v7.28H164.46v-7.28a23.73,23.73,0,0,1,9.07-18.46,27,27,0,0,1,4.68-3.07"/><path class="cls-5" d="M170.16,278.41v-7.2A19.07,19.07,0,0,1,175,258.58"/><path class="cls-5" d="M208,258.69a19,19,0,0,1,4.72,12.52v7.2"/><path class="cls-5" d="M183.08,252.83a22.35,22.35,0,0,1,8.37-1.6,22.05,22.05,0,0,1,8.61,1.72"/><path class="cls-5" d="M204.94,251.15V235.46c0-6.64-5.91-12-13.21-12h-.28c-7.31,0-13.24,5.4-13.24,12V249.6"/><path class="cls-5" d="M178.21,251.15V249.6a12.2,12.2,0,0,1,1.14-.58"/><path class="cls-5" d="M183.08,252.83v2.63a4.59,4.59,0,0,1-4.78,4.35h-.25a4.91,4.91,0,0,1-3.08-1.22"/><path class="cls-5" d="M178.21,251.15h2.54v4.31a2.34,2.34,0,0,1-2.45,2.23h-.09a2.35,2.35,0,0,1-1.67-.72,2,2,0,0,1-.68-1.51v-4.31Z"/><path class="cls-5" d="M209.6,252.48v3a4.14,4.14,0,0,1-1.61,3.23,4.87,4.87,0,0,1-3.05,1.12h-.11a4.58,4.58,0,0,1-4.77-4.35V253"/><line class="cls-5" x1="204.94" y1="249.02" x2="204.02" y2="249.02"/><path class="cls-5" d="M207.27,251.15v4.31a2.13,2.13,0,0,1-.79,1.64,2.49,2.49,0,0,1-1.54.59h-.11a2.34,2.34,0,0,1-2.44-2.23v-4.31h4.88Z"/><rect class="cls-4" x="154.46" y="191.33" width="62.15" height="9.92"/><rect class="cls-5" x="154.46" y="191.33" width="62.15" height="9.92"/><path class="cls-7" d="M153.65,172.13h63.78v22.66a1.74,1.74,0,0,1-1.73,1.73H155.37a1.73,1.73,0,0,1-1.72-1.73Z"/><path class="cls-8" d="M153.65,172.13h63.78v22.66a1.74,1.74,0,0,1-1.73,1.73H155.37a1.73,1.73,0,0,1-1.72-1.73Z"/><rect class="cls-1" x="160.39" y="194.24" width="3.13" height="0.78"/><rect class="cls-1" x="164.31" y="194.24" width="3.13" height="0.78"/><rect class="cls-1" x="168.22" y="194.24" width="3.13" height="0.78"/><rect class="cls-1" x="172.13" y="194.24" width="3.13" height="0.78"/><rect class="cls-1" x="176.04" y="194.24" width="3.13" height="0.78"/><rect class="cls-1" x="179.95" y="194.25" width="3.13" height="0.78"/><rect class="cls-1" x="183.86" y="194.25" width="3.13" height="0.78"/><rect class="cls-1" x="187.77" y="194.25" width="3.13" height="0.78"/><rect class="cls-1" x="191.68" y="194.25" width="3.13" height="0.78"/><rect class="cls-1" x="195.59" y="194.25" width="3.13" height="0.78"/><rect class="cls-1" x="199.5" y="194.25" width="3.13" height="0.78"/><rect class="cls-1" x="203.42" y="194.25" width="3.13" height="0.78"/><rect class="cls-1" x="207.33" y="194.25" width="3.13" height="0.78"/><rect class="cls-1" x="211.24" y="194.25" width="3.13" height="0.78"/><rect class="cls-1" x="156.48" y="194.25" width="3.13" height="0.78"/><rect class="cls-1" x="215.15" y="176.26" width="0.78" height="3.13"/><rect class="cls-1" x="215.15" y="172.13" width="0.78" height="3.34"/><rect class="cls-1" x="215.16" y="191.9" width="0.78" height="3.13"/><rect class="cls-1" x="215.16" y="187.99" width="0.78" height="3.13"/><rect class="cls-1" x="215.16" y="184.08" width="0.78" height="3.13"/><rect class="cls-1" x="215.16" y="180.17" width="0.78" height="3.13"/><rect class="cls-1" x="155.13" y="176.26" width="0.78" height="3.13"/><rect class="cls-1" x="155.13" y="172.13" width="0.78" height="3.34"/><rect class="cls-1" x="155.14" y="191.9" width="0.78" height="3.13"/><rect class="cls-1" x="155.14" y="187.99" width="0.78" height="3.13"/><rect class="cls-1" x="155.14" y="184.08" width="0.78" height="3.13"/><rect class="cls-1" x="155.14" y="180.17" width="0.78" height="3.13"/><polygon class="cls-9" points="185.54 177.89 191.64 183.52 191.64 201.99 179.44 201.99 179.44 183.53 185.54 177.89"/><polygon class="cls-8" points="185.54 177.89 191.64 183.52 191.64 201.99 179.44 201.99 179.44 183.53 185.54 177.89"/><rect class="cls-3" x="177.95" y="187.33" width="15.17" height="3.37"/><rect class="cls-5" x="177.95" y="187.33" width="15.17" height="3.37"/><path class="cls-4" d="M248.87,209.81a7.72,7.72,0,0,1-1.8-1.47,10.09,10.09,0,0,1-2.27-4.63,6.51,6.51,0,0,1,1-4.26c1.14-2.18,2.65-4.25,3.92-6.43v2a17.32,17.32,0,0,0,3.63,3.39l-4.16,11h0l-.14.36a17,17,0,0,0,4.52,1.94,19.11,19.11,0,0,1-4.72-2Z"/><path class="cls-4" d="M287.69,209.81c-3.29,2.05-9.12,3.26-15.4,3.61,6-.38,11.64-1.57,14.76-3.58l-.14-.37-4.07-10.79a17.71,17.71,0,0,0,4-3.64v-2c1.27,2.18,2.77,4.25,3.9,6.43a6.4,6.4,0,0,1,1,4.26,10.09,10.09,0,0,1-2.27,4.63A7.49,7.49,0,0,1,287.69,209.81Z"/><path class="cls-4" d="M286.83,193v2a17.71,17.71,0,0,1-4,3.64,27.22,27.22,0,0,1-29.47-.25,17.32,17.32,0,0,1-3.63-3.39v-3.58h37.09Z"/><path class="cls-6" d="M268.28,199.89a2.13,2.13,0,0,0,2.14-2.13,1.6,1.6,0,0,0-.09-.58,2.13,2.13,0,0,0-4.1,0,1.85,1.85,0,0,0-.09.58A2.14,2.14,0,0,0,268.28,199.89Z"/><path class="cls-5" d="M268.28,199.89a2.13,2.13,0,0,0,2.14-2.13,1.6,1.6,0,0,0-.09-.58,2.13,2.13,0,0,0-4.1,0,1.85,1.85,0,0,0-.09.58A2.14,2.14,0,0,0,268.28,199.89Z"/><path class="cls-3" d="M287.05,209.84c-3.12,2-8.71,3.2-14.76,3.58-.93.06-1.87.09-2.81.11-1.37,0-2.75,0-4.1,0a55.1,55.1,0,0,1-10.62-1.39c-.39-.1-.78-.2-1.17-.32a17,17,0,0,1-4.52-1.94l.14-.36h0l4.16-11a27.22,27.22,0,0,0,29.47.25l4.07,10.79Z"/><path class="cls-5" d="M253.59,211.78a19.11,19.11,0,0,1-4.72-2h0a7.72,7.72,0,0,1-1.8-1.47,10.09,10.09,0,0,1-2.27-4.63,6.51,6.51,0,0,1,1-4.26c1.14-2.18,2.65-4.25,3.92-6.43"/><path class="cls-5" d="M265.38,213.49a55.1,55.1,0,0,1-10.62-1.39"/><path class="cls-5" d="M286.83,193c1.27,2.18,2.77,4.25,3.9,6.43a6.4,6.4,0,0,1,1,4.26,10.09,10.09,0,0,1-2.27,4.63,7.49,7.49,0,0,1-1.79,1.47c-3.29,2.05-9.12,3.26-15.4,3.61-.93.07-1.86.1-2.81.11"/><path class="cls-5" d="M251.63,191.25a4.43,4.43,0,0,0,.07-.85,37.21,37.21,0,0,0-1.45-7.57c-1.35-5.31-2.85-11.17-.82-14a7.67,7.67,0,0,1,3.8-2.9,7.3,7.3,0,0,1,5,.26,10.6,10.6,0,0,1,3.17,2c3-4.31,7.61-8.1,12.86-8.1,6.39,0,11.14,1.55,14.25,4.81s4.5,8.19,4.24,15c-.15,3.8-2.12,5.65-4.08,7.48a10.81,10.81,0,0,0-3.18,4.13l0,.06"/><path class="cls-5" d="M264,173.61a9.36,9.36,0,0,0-2.34-5.43c-.3.51-.57,1-.82,1.53a15.73,15.73,0,0,0-1.32,3.83,6.14,6.14,0,0,0,0,2.89,2.15,2.15,0,0,0,2.26,1.5H262a1.83,1.83,0,0,0,1.59-1.15,6,6,0,0,0,.45-2.52A6.32,6.32,0,0,0,264,173.61Z"/><path class="cls-5" d="M253.41,198.31l0,.12-4.16,11h0l-.14.36a17,17,0,0,0,4.52,1.94c.39.12.78.22,1.17.32a52,52,0,0,0,10.62,1.39c1.35,0,2.73.06,4.1,0,.94,0,1.88-.05,2.81-.11,6-.38,11.64-1.57,14.76-3.58l-.14-.37-4.07-10.79-.13-.37"/><path class="cls-5" d="M286.83,193v2a17.71,17.71,0,0,1-4,3.64,27.22,27.22,0,0,1-29.47-.25,17.32,17.32,0,0,1-3.63-3.39v-3.58h37.09Z"/></svg>