<svg id="Layer_1" data-name="Layer 1" xmlns="http://www.w3.org/2000/svg" viewBox="0 0 256 256"><defs><style>.cls-1{fill:#0e4e91;}.cls-2{fill:#abe7ff;}.cls-3{fill:#caf5fe;}.cls-4{fill:#fff;}.cls-5{fill:#2db5ff;}.cls-6{fill:none;stroke:#0e4e91;stroke-linecap:round;stroke-linejoin:round;}</style></defs><path class="cls-1" d="M131.65,225.79l0-1.28c2.26-.07,4.55-.21,6.78-.43l.13,1.28C136.25,225.58,133.94,225.73,131.65,225.79Zm-5.16,0c-2.29-.06-4.6-.19-6.87-.41l.12-1.27c2.24.21,4.52.34,6.78.39Zm17.15-1.09-.19-1.27c2.23-.34,4.48-.77,6.67-1.26l.29,1.25C148.18,223.94,145.91,224.37,143.64,224.72Zm11.77-2.55-.35-1.23c2.17-.61,4.35-1.31,6.47-2.07l.44,1.2C159.82,220.85,157.61,221.55,155.41,222.17Zm11.37-4-.5-1.19c2.07-.87,4.14-1.83,6.15-2.85l.58,1.14C171,216.34,168.87,217.31,166.78,218.2Zm10.77-5.35-.64-1.11c2-1.13,3.89-2.33,5.76-3.59l.72,1.06C181.49,210.49,179.53,211.71,177.55,212.85Zm-97.06.23c-2-1.13-3.95-2.35-5.86-3.62l.71-1.07c1.88,1.26,3.83,2.46,5.79,3.57Zm107.1-6.86-.77-1c1.8-1.36,3.58-2.8,5.28-4.28l.84,1C191.22,203.39,189.42,204.84,187.59,206.22Zm-117.18.26c-1.83-1.36-3.64-2.81-5.37-4.3l.83-1c1.72,1.48,3.5,2.91,5.31,4.25Zm126.34-8.08-.89-.92c1.62-1.56,3.21-3.21,4.72-4.89l.95.86C200,195.15,198.39,196.82,196.75,198.4Zm-135.54.31c-1.64-1.58-3.26-3.23-4.8-4.93l1-.86c1.52,1.67,3.12,3.31,4.74,4.86Zm143.67-9.18-1-.81c1.42-1.76,2.79-3.58,4.09-5.43L209,184C207.72,185.9,206.32,187.75,204.88,189.53ZM53,189.87c-1.45-1.77-2.85-3.61-4.17-5.48l1.05-.74c1.3,1.84,2.69,3.66,4.11,5.41Zm158.84-10.15-1.09-.68c1.19-1.92,2.33-3.9,3.39-5.89l1.13.6C214.24,175.77,213.09,177.78,211.88,179.72ZM46,180.1c-1.22-1.93-2.38-3.93-3.46-5.94l1.13-.61c1.06,2,2.21,4,3.41,5.87Zm171.6-11-1.16-.55c1-2,1.84-4.15,2.64-6.26l1.2.45C219.48,164.9,218.58,167,217.61,169.12ZM31.23,134.77c-.13-2-.21-4.09-.22-6.13v-.75h1.29v.74c0,2,.09,4.05.23,6.05Zm1.2-12-1.29-.07c.13-2.28.33-4.59.61-6.86L33,116C32.75,118.27,32.55,120.54,32.43,122.8Zm191.3-12.52c-.41-2.22-.9-4.45-1.47-6.63l1.24-.32c.57,2.21,1.08,4.47,1.5,6.72ZM33.78,111l-1.26-.22c.4-2.26.88-4.52,1.44-6.73l1.25.31C34.66,106.54,34.18,108.77,33.78,111ZM220.85,98.76c-.69-2.15-1.45-4.3-2.29-6.4l1.2-.47c.84,2.12,1.62,4.31,2.31,6.48Zm-184.27.69-1.22-.38c.67-2.18,1.44-4.37,2.27-6.51l1.19.46C38,95.13,37.25,97.29,36.58,99.45Zm180-11.76c-.94-2-2-4.09-3.05-6.06l1.12-.62c1.1,2,2.14,4.07,3.1,6.14ZM40.8,88.32l-1.17-.53c.94-2.08,2-4.16,3.06-6.18l1.13.61C42.74,84.22,41.73,86.27,40.8,88.32ZM210.94,77.23c-1.19-1.91-2.46-3.81-3.78-5.64l1-.75c1.34,1.85,2.63,3.78,3.83,5.72ZM46.36,77.8l-1.1-.67c1.19-1.95,2.47-3.88,3.79-5.75l1.05.75C48.79,74,47.53,75.88,46.36,77.8ZM204.08,67.54c-1.42-1.76-2.91-3.48-4.44-5.14l.94-.87c1.55,1.68,3.07,3.43,4.5,5.21Zm-150.92.51-1-.8c1.42-1.78,2.92-3.55,4.46-5.24l1,.87C56.05,64.55,54.56,66.29,53.16,68.05Zm142.91-9.29c-1.61-1.57-3.3-3.11-5-4.56l.83-1c1.75,1.47,3.46,3,5.1,4.62ZM90.49,39.39,90,38.21c2.09-.91,4.25-1.75,6.4-2.51l.43,1.21C94.68,37.66,92.56,38.49,90.49,39.39Zm64.81-4.24c-2.17-.61-4.39-1.16-6.59-1.62l.26-1.26c2.24.47,4.48,1,6.68,1.65Zm-53.64.2-.36-1.23c2.19-.64,4.43-1.21,6.67-1.7l.27,1.26C106,34.16,103.82,34.72,101.66,35.35Zm42-2.74c-2.22-.34-4.49-.61-6.74-.8l.11-1.27c2.28.19,4.57.46,6.83.81Zm-30.45.12-.2-1.27c2.25-.36,4.55-.65,6.83-.86l.11,1.28C117.73,32.08,115.47,32.37,113.24,32.73Zm18.62-1.21c-2.26-.07-4.54-.06-6.79,0l0-1.28c2.28-.09,4.59-.1,6.88,0Z"/><circle class="cls-2" cx="128.46" cy="127.32" r="80.25"/><polygon class="cls-3" points="190.21 93.06 196.58 93.06 197.53 93.06 197.53 98.06 189.73 98.06 189.73 93.06 190.21 93.06"/><path class="cls-4" d="M196.58,80.5V93.07h-6.37V81.22l-3-3.71c.08-4.77.22-9.49,1.24-13.65Z"/><path class="cls-4" d="M188.45,63.86c-1,4.16-1.16,8.88-1.24,13.65,0,0,0,6.59,0,11.35-.05,5,.25,11.56.25,11.56H175.19V69.72l.52,1.37,5.59-6.48V62.67A19.14,19.14,0,0,1,188.45,63.86Z"/><polygon class="cls-3" points="181.3 62.67 181.3 64.61 175.71 71.09 175.19 69.72 173.01 63.86 181.3 59.63 181.3 62.67"/><polygon class="cls-5" points="181.3 59.63 173.01 63.86 164.73 59.63 181.3 59.63"/><path class="cls-3" d="M175.19,94.16v6.26h-4.75V94.16H172a.77.77,0,0,0,1.53,0Z"/><path class="cls-3" d="M175.19,89.61v4.55h-1.71a.77.77,0,0,0-1.53,0h-1.51V89.61H172a.77.77,0,1,0,1.53,0Z"/><path class="cls-3" d="M175.19,69.72V89.61h-1.71a.77.77,0,0,0-1.53,0h-1.51V69.72L173,63.86Zm-1.71,1.37a.77.77,0,1,0-.76.75A.76.76,0,0,0,173.48,71.09Zm0,4a.77.77,0,1,0-.76.76A.76.76,0,0,0,173.48,75.06Zm0,4.91a.77.77,0,1,0-.76.76A.76.76,0,0,0,173.48,80Zm0,4.91a.77.77,0,1,0-.76.76A.76.76,0,0,0,173.48,84.88Z"/><polygon class="cls-3" points="173.01 63.86 170.44 69.72 169.84 71.09 164.73 64.67 164.73 62.67 164.73 59.63 173.01 63.86"/><path class="cls-5" d="M172.72,70.33a.76.76,0,1,1-.77.76A.76.76,0,0,1,172.72,70.33Z"/><path class="cls-5" d="M172.72,74.3a.76.76,0,1,1-.77.76A.76.76,0,0,1,172.72,74.3Z"/><path class="cls-5" d="M172.72,79.2A.77.77,0,1,1,172,80,.76.76,0,0,1,172.72,79.2Z"/><path class="cls-5" d="M172.72,84.11a.77.77,0,1,1-.77.77A.76.76,0,0,1,172.72,84.11Z"/><path class="cls-5" d="M172.72,88.86a.76.76,0,1,1-.77.75A.76.76,0,0,1,172.72,88.86Z"/><path class="cls-5" d="M172.72,93.4a.76.76,0,1,1-.77.76A.76.76,0,0,1,172.72,93.4Z"/><path class="cls-4" d="M170.44,94.16v6.26H159.39s.36-8.63.2-12.67,0-10.45,0-10.45a51.5,51.5,0,0,0-1.32-13.86l6.49-.77v2l5.11,6.41.6-1.37V94.16Z"/><path class="cls-4" d="M158.24,63.44a51.5,51.5,0,0,1,1.32,13.86l-3.3,3.88V93.4h-6.11V77.63Z"/><polygon class="cls-3" points="156.81 93.41 156.81 98.06 149 98.06 149 93.41 150.15 93.41 156.26 93.41 156.81 93.41"/><polygon class="cls-6" points="164.73 59.63 181.3 59.63 181.3 62.67 181.3 64.61 175.71 71.09 175.19 69.72 173.01 63.86 170.44 69.72 169.84 71.09 164.73 64.67 164.73 62.67 164.73 59.63"/><polyline class="cls-6" points="164.73 59.63 173.01 63.86 181.3 59.63"/><polyline class="cls-6" points="164.73 62.67 158.24 63.44 150.15 77.63 150.15 93.41"/><path class="cls-6" d="M156.26,93.4V81.18l3.3-3.88s-.14,6.41,0,10.45-.2,12.67-.2,12.67h28.07s-.3-6.55-.25-11.56c0-4.76,0-11.35,0-11.35.08-4.77.22-9.49,1.24-13.65a19.14,19.14,0,0,0-7.15-1.19"/><path class="cls-6" d="M158.24,63.44a51.5,51.5,0,0,1,1.32,13.86"/><polyline class="cls-6" points="187.21 77.51 190.21 81.22 190.21 93.06 190.21 93.41"/><polyline class="cls-6" points="188.45 63.86 196.58 80.5 196.58 93.06 196.58 93.41"/><polygon class="cls-6" points="196.58 93.06 197.53 93.06 197.53 98.06 189.73 98.06 189.73 93.06 190.21 93.06 196.58 93.06"/><polygon class="cls-6" points="156.26 93.41 156.81 93.41 156.81 98.06 149 98.06 149 93.41 150.15 93.41 156.26 93.41"/><polyline class="cls-6" points="170.44 69.72 170.44 89.61 170.44 94.16 170.44 100.42"/><polyline class="cls-6" points="175.19 69.72 175.19 89.61 175.19 94.16 175.19 100.42"/><path class="cls-6" d="M173.48,71.09a.77.77,0,1,1-.76-.76A.76.76,0,0,1,173.48,71.09Z"/><path class="cls-6" d="M173.48,75.06a.77.77,0,1,1-.76-.76A.76.76,0,0,1,173.48,75.06Z"/><path class="cls-6" d="M173.48,80a.77.77,0,1,1-.76-.77A.76.76,0,0,1,173.48,80Z"/><path class="cls-6" d="M173.48,84.88a.77.77,0,1,1-.76-.77A.76.76,0,0,1,173.48,84.88Z"/><path class="cls-6" d="M173.48,89.61a.77.77,0,1,1-.76-.75A.76.76,0,0,1,173.48,89.61Z"/><path class="cls-6" d="M173.48,94.16a.77.77,0,1,1-.76-.76A.76.76,0,0,1,173.48,94.16Z"/><path class="cls-4" d="M93.38,145.74v7.46a20.27,20.27,0,0,0-9.46,5.86c-3.56-3.46-5.09-7.92-4.69-13.32Z"/><polygon class="cls-4" points="93.38 140.73 93.38 145.74 79.23 145.74 71.63 145.74 57.19 145.74 57.19 140.73 93.38 140.73"/><path class="cls-3" d="M93.38,153.2l-13,15.07a15.43,15.43,0,0,1,3.51-9.21A20.27,20.27,0,0,1,93.38,153.2Z"/><path class="cls-4" d="M83.92,159.06a15.43,15.43,0,0,0-3.51,9.21H70a14.52,14.52,0,0,0-3-9l0,0c3.78-2.68,5.21-7.29,4.65-13.52h7.6C78.83,151.14,80.36,155.6,83.92,159.06Z"/><path class="cls-4" d="M71.63,145.74c.56,6.23-.87,10.84-4.65,13.52l0,0q-3.19-4-9.75-5.74v-7.81Z"/><path class="cls-3" d="M70,168.27l-12.8-14.72q6.56,1.75,9.75,5.74A14.52,14.52,0,0,1,70,168.27Z"/><polygon class="cls-6" points="93.38 145.74 79.23 145.74 71.63 145.74 57.19 145.74 57.19 140.73 93.38 140.73 93.38 145.74"/><polyline class="cls-6" points="57.19 145.74 57.19 153.55 69.99 168.27 80.41 168.27 93.38 153.2 93.38 145.74"/><path class="cls-6" d="M57.19,153.55q6.56,1.75,9.75,5.74a14.52,14.52,0,0,1,3,9"/><path class="cls-6" d="M80.41,168.27a15.43,15.43,0,0,1,3.51-9.21,20.27,20.27,0,0,1,9.46-5.86"/><path class="cls-6" d="M71.63,145.74c.56,6.23-.87,10.84-4.65,13.52"/><path class="cls-6" d="M79.23,145.74c-.4,5.4,1.13,9.86,4.69,13.32"/><path class="cls-4" d="M193.31,146.39c0,5.36-1.24,33.46-1.54,40.26H181.39c-.34-5.31-1.49-23.45-2.07-31.13-.67-8.82-1.55-22.57-3.45-23.18v-7.55a3.28,3.28,0,0,0,2.89-.16v-11.2h3.08c.14,2.51.62,5.33,2,6.5,1.87,1.58,5.33,1.4,7.33,1.13C192.12,130.36,193.31,142.73,193.31,146.39Z"/><path class="cls-3" d="M181.39,186.65h10.38c0,.95-.06,1.49-.06,1.49H181.48S181.45,187.6,181.39,186.65Z"/><path class="cls-4" d="M190.39,113.43c.2,2,.48,4.64.79,7.63-2,.27-5.46.45-7.33-1.13-1.38-1.17-1.86-4-2-6.5Z"/><path class="cls-3" d="M190.39,113.43h-8.54c-.07-1.32,0-2.54,0-3.4H190Z"/><path class="cls-3" d="M181.85,113.43h-3.08V110h3.06C181.8,110.89,181.78,112.11,181.85,113.43Z"/><path class="cls-4" d="M178.77,113.43v11.2a3.28,3.28,0,0,1-2.89.16V113.43Z"/><path class="cls-4" d="M178.77,110v3.4h-2.89V110Zm-.72,1.81a.79.79,0,1,0-.78.79A.79.79,0,0,0,178.05,111.84Z"/><path class="cls-4" d="M175.88,124.79v7.55a.26.26,0,0,0-.15,0c-1.81.08-4.44,45.48-4.93,54.33h-10.6c-.49-5.7-2.17-26.51-1.48-39.63.44-8.32,1.37-18.52,2.13-26.1.54,0,1.18,0,1.86,0,1.87,0,4-.32,5.3-1.27a3,3,0,0,0,.68-.69c.77-1.14,1-3.44,1.09-5.56h6.11Z"/><path class="cls-3" d="M175.88,110v3.4h-6.11c0-1.3,0-2.53-.05-3.4Z"/><path class="cls-3" d="M160.19,186.65h10.6c-.06,1-.09,1.49-.09,1.49H160.32S160.27,187.6,160.19,186.65Z"/><path class="cls-3" d="M169.72,110c0,.87.08,2.1.05,3.4h-8.15c.23-2.14.37-3.4.37-3.4Z"/><path class="cls-4" d="M161.62,113.43h8.15c-.06,2.12-.32,4.42-1.09,5.56a3,3,0,0,1-.68.69V117.2h-5.3V121c-.68,0-1.32,0-1.86,0C161.14,117.92,161.41,115.33,161.62,113.43Z"/><path class="cls-3" d="M168,117.2v2.48c-1.27.95-3.43,1.23-5.3,1.27V117.2Z"/><path class="cls-6" d="M161.62,113.43c.23-2.14.37-3.4.37-3.4h28l.37,3.4c.2,2,.48,4.64.79,7.63.94,9.3,2.13,21.67,2.13,25.33,0,5.36-1.24,33.46-1.54,40.26,0,.95-.06,1.49-.06,1.49H181.48s0-.54-.09-1.49c-.34-5.31-1.49-23.45-2.07-31.13-.67-8.82-1.55-22.57-3.45-23.18a.26.26,0,0,0-.15,0c-1.81.08-4.44,45.48-4.93,54.33-.06,1-.09,1.49-.09,1.49H160.32s0-.54-.13-1.49c-.49-5.7-2.17-26.51-1.48-39.63.44-8.32,1.37-18.52,2.13-26.1C161.14,117.92,161.41,115.33,161.62,113.43Z"/><polyline class="cls-6" points="161.62 113.43 169.77 113.43 175.88 113.43 178.77 113.43 181.85 113.43 190.39 113.43"/><path class="cls-6" d="M169.72,110c0,.87.08,2.1.05,3.4-.06,2.12-.32,4.42-1.09,5.56a3,3,0,0,1-.68.69c-1.27.95-3.43,1.23-5.3,1.27-.68,0-1.32,0-1.86,0"/><path class="cls-6" d="M181.83,110c0,.86-.05,2.08,0,3.4.14,2.51.62,5.33,2,6.5,1.87,1.58,5.33,1.4,7.33,1.13"/><polyline class="cls-6" points="175.88 132.32 175.88 124.79 175.88 113.43 175.88 110.03"/><path class="cls-6" d="M178.77,110v14.6a3.28,3.28,0,0,1-2.89.16"/><path class="cls-6" d="M178.05,111.84a.79.79,0,1,1-1.57,0,.79.79,0,1,1,1.57,0Z"/><polyline class="cls-6" points="162.7 120.95 162.7 117.2 168 117.2 168 119.68"/><polyline class="cls-6" points="160.19 186.65 160.19 186.65 170.79 186.65"/><line class="cls-6" x1="181.39" y1="186.65" x2="191.77" y2="186.65"/><path class="cls-4" d="M142.31,186.64V199H107.72v-8.71h33.1v-3.67Zm-1.49,10.89V193.3h-31.6v4.23Z"/><polygon class="cls-4" points="142.31 179.99 142.31 186.65 140.82 186.65 109.22 186.65 109.22 190.31 107.72 190.31 107.72 183.66 109.22 183.66 140.82 183.66 140.82 179.99 142.31 179.99"/><polygon class="cls-4" points="142.31 173.35 142.31 179.99 140.82 179.99 109.22 179.99 109.22 183.66 107.72 183.66 107.72 177.01 109.22 177.01 140.82 177.01 140.82 173.35 142.31 173.35"/><polygon class="cls-4" points="142.31 166.7 142.31 173.35 140.82 173.35 109.22 173.35 109.22 177.01 107.72 177.01 107.72 170.36 109.22 170.36 140.82 170.36 140.82 166.7 142.31 166.7"/><path class="cls-4" d="M117.52,146.07s-.66,6.31,0,10.23c1.47,8.34,13.46,8.34,14.94,0,.67-3.8.08-9.81,0-10.21v0h5.93c-1,5.86-2.11,13.72,3.85,19.88v.75H109.22v3.66h-1.5V166c5.37-5.85,4.81-14,3.85-19.88Zm10,17.63h11.19a17.84,17.84,0,0,1-1.63-3.65h-4.47A8.62,8.62,0,0,1,127.53,163.7Zm9.18-16.13h-2.56c.06.77.11,1.75.14,2.84h2.06C136.45,149.42,136.58,148.47,136.71,147.57Zm-2.85,9.49h2.56a23.6,23.6,0,0,1-.23-3.66h-1.92a25.61,25.61,0,0,1-.31,3.16C133.92,156.72,133.9,156.9,133.86,157.06Zm-22.68,6.64H122.5a8.6,8.6,0,0,1-5.08-3.65h-4.7A18.58,18.58,0,0,1,111.18,163.7Zm2.21-6.64h2.79c0-.16-.07-.34-.1-.5a25.8,25.8,0,0,1-.31-3.16h-2.08A28.08,28.08,0,0,1,113.39,157.06Zm2.5-9.49H113.3c.13.91.23,1.86.3,2.84h2.15C115.78,149.33,115.84,148.34,115.89,147.57Z"/><rect class="cls-3" x="109.22" y="193.3" width="31.6" height="4.23"/><rect class="cls-3" x="109.22" y="186.64" width="31.6" height="3.66"/><rect class="cls-3" x="109.22" y="179.99" width="31.6" height="3.66"/><rect class="cls-3" x="109.22" y="173.35" width="31.6" height="3.65"/><rect class="cls-3" x="109.22" y="166.7" width="31.6" height="3.65"/><path class="cls-3" d="M138.72,163.7H127.53a8.62,8.62,0,0,0,5.09-3.65h4.47A17.84,17.84,0,0,0,138.72,163.7Z"/><path class="cls-3" d="M134.15,147.57h2.56c-.13.9-.26,1.85-.36,2.84h-2.06C134.26,149.32,134.21,148.34,134.15,147.57Z"/><path class="cls-3" d="M136.42,157.06h-2.56c0-.16.06-.34.1-.5a25.61,25.61,0,0,0,.31-3.16h1.92A23.6,23.6,0,0,0,136.42,157.06Z"/><path class="cls-4" d="M132.53,146.09c0,.4.63,6.41,0,10.21-1.48,8.34-13.47,8.34-14.94,0-.69-3.92,0-10.23,0-10.23,3.77,6.86,10.73,6.56,15,0Z"/><path class="cls-3" d="M122.5,163.7H111.18a18.58,18.58,0,0,0,1.54-3.65h4.7A8.6,8.6,0,0,0,122.5,163.7Z"/><path class="cls-3" d="M116.18,157.06h-2.79a28.08,28.08,0,0,0,.3-3.66h2.08a25.8,25.8,0,0,0,.31,3.16C116.11,156.72,116.14,156.9,116.18,157.06Z"/><path class="cls-3" d="M113.3,147.57h2.59c0,.77-.11,1.76-.14,2.84H113.6C113.53,149.43,113.43,148.48,113.3,147.57Z"/><path class="cls-6" d="M117.51,146.08h0c3.77,6.86,10.73,6.56,15,0"/><path class="cls-6" d="M142.31,166.7V166c-6-6.16-4.8-14-3.85-19.88h-5.93v0c0,.4.63,6.41,0,10.21-1.48,8.34-13.47,8.34-14.94,0-.69-3.92,0-10.23,0-10.23h-6c1,5.86,1.52,14-3.85,19.88V199h34.59V166.7Z"/><path class="cls-3" d="M106,62.76h0c-1.65,1.59-5.33,2.69-9.6,2.69-4,0-7.54-1-9.31-2.43h0A35.9,35.9,0,0,1,106,62.76Z"/><path class="cls-3" d="M132.45,115.8l-8.74,3.66-1.71-5,9.06-3.27Z"/><path class="cls-4" d="M91.22,68.24a27.81,27.81,0,0,0,2.85.19c.23,0,2-3,2.28-3,.49,0,2.06,3,2.55,3a27.57,27.57,0,0,0,3.32-.34c3.75-.64,6.4-2,7.54-3.75,0,0,8.55,3.1,9.18,6,.51,2.28,8.78,29.76,12.12,40.85L122,114.47l-7.34-21.38-1,28.27H80.49L79.12,91.92h0l-8.5,22.9L62.29,111,73.18,70.67s3-6.26,9.67-6.28C84,66.28,86.93,67.73,91.22,68.24Z"/><path class="cls-4" d="M102.22,68.14a27.57,27.57,0,0,1-3.32.34c-.49,0-2.06-3-2.55-3,4.27,0,8-1.1,9.6-2.69a2.64,2.64,0,0,0,.93-1.88c0-2.45-4.42-4.44-10-4.57,7.49.13,13.47,2.81,13.47,6.1a3.64,3.64,0,0,1-.62,2C108.62,66.12,106,67.5,102.22,68.14Z"/><path class="cls-4" d="M106.88,60.88a2.64,2.64,0,0,1-.93,1.88h0A35.9,35.9,0,0,0,87,63h0a2.85,2.85,0,0,1-1.22-2.14c0-2.45,4.42-4.45,10-4.57h1.1C102.46,56.44,106.88,58.43,106.88,60.88Z"/><path class="cls-4" d="M91.22,68.24c-4.29-.51-7.2-2-8.37-3.85a3.66,3.66,0,0,1-.59-2c0-3.3,6-6,13.55-6.1-5.57.12-10,2.12-10,4.57A2.85,2.85,0,0,0,87,63c1.77,1.45,5.27,2.43,9.31,2.43-.24,0-2,3-2.28,3A27.81,27.81,0,0,1,91.22,68.24Z"/><polygon class="cls-3" points="70.61 114.81 68.89 119.46 60.85 116.37 62.29 111.04 70.61 114.81"/><path class="cls-6" d="M96.91,56.31c7.49.13,13.47,2.81,13.47,6.1a3.64,3.64,0,0,1-.62,2c-1.14,1.73-3.79,3.11-7.54,3.75a27.57,27.57,0,0,1-3.32.34c-.49,0-2.06-3-2.55-3-.24,0-2,3-2.28,3a27.81,27.81,0,0,1-2.85-.19c-4.29-.51-7.2-2-8.37-3.85a3.66,3.66,0,0,1-.59-2c0-3.3,6-6,13.55-6.1"/><path class="cls-6" d="M96.91,56.31c5.55.13,10,2.12,10,4.57a2.64,2.64,0,0,1-.93,1.88c-1.65,1.59-5.33,2.69-9.6,2.69-4,0-7.54-1-9.31-2.43a2.85,2.85,0,0,1-1.22-2.14c0-2.45,4.42-4.45,10-4.57h1.1Z"/><path class="cls-6" d="M82.85,64.39h0c-6.71,0-9.67,6.28-9.67,6.28L62.29,111l-1.44,5.33,8,3.09,1.72-4.64,8.5-22.9"/><polyline class="cls-6" points="78.74 83.86 79.12 91.92 80.49 121.36 113.7 121.36 114.66 93.09 114.97 83.86"/><path class="cls-6" d="M114.66,93.09,122,114.47l1.71,5,8.74-3.66-1.39-4.6c-3.34-11.09-11.61-38.57-12.12-40.85-.63-2.86-9.18-6-9.18-6"/><line class="cls-6" x1="122" y1="114.47" x2="131.06" y2="111.2"/><line class="cls-6" x1="62.29" y1="111.04" x2="70.61" y2="114.82"/><polyline class="cls-6" points="91.22 66.76 91.22 68.24 91.22 80.84"/><polyline class="cls-6" points="102.22 66.76 102.22 68.14 102.22 80.84"/><path class="cls-6" d="M87,63A35.9,35.9,0,0,1,106,62.76"/><path class="cls-6" d="M82.85,111.87c.57-.4,5.31-10.68,5.31-10.68H106l4.43,10"/></svg>