<svg id="Layer_1" data-name="Layer 1" xmlns="http://www.w3.org/2000/svg" viewBox="0 0 256 256"><defs><style>.cls-1{fill:#0e4e91;}.cls-2{fill:#abe7ff;}.cls-3{fill:#fff;}.cls-4{fill:#2db5ff;}.cls-5,.cls-6,.cls-7{fill:none;}.cls-5{stroke:#0e4e91;stroke-miterlimit:10;}.cls-6,.cls-7{stroke:#2f3a5a;stroke-linecap:round;stroke-linejoin:round;}.cls-7{stroke-width:0.5px;}.cls-8{fill:#2f3a5a;}</style></defs><path class="cls-1" d="M150.1,43.18l-.28,1.11c-2-.49-4-.92-5.94-1.27l.2-1.13C146.08,42.25,148.11,42.68,150.1,43.18Zm4.44,1.24c2,.59,3.92,1.27,5.81,2l-.41,1.08c-1.88-.72-3.8-1.39-5.73-2Zm-15-3.21-.13,1.14c-2-.24-4-.42-6-.52l.06-1.15C135.43,40.78,137.48,41,139.51,41.21Zm-10.73-.65v1.15c-2,0-4.05.07-6.06.22l-.08-1.15C124.66,40.63,126.73,40.56,128.78,40.56ZM191,66.48c1.43,1.45,2.83,3,4.17,4.53l-.87.74c-1.31-1.53-2.7-3-4.11-4.47Zm7.08,8.11c1.25,1.62,2.45,3.3,3.58,5l-.95.64c-1.12-1.69-2.31-3.34-3.54-4.94ZM87.47,51,88,52c-1.78,1-3.54,2-5.25,3.07l-.61-1C83.88,53,85.67,52,87.47,51ZM204.16,83.5c1,1.75,2,3.57,2.94,5.4l-1,.51c-.91-1.81-1.88-3.6-2.91-5.33ZM78.32,56.69l.66.94c-1.65,1.17-3.27,2.41-4.83,3.68l-.73-.89C75,59.13,76.65,57.88,78.32,56.69ZM209.06,93.08c.81,1.87,1.57,3.8,2.26,5.72l-1.09.38c-.67-1.89-1.43-3.8-2.23-5.64ZM69.94,63.46l.77.84c-1.48,1.36-2.95,2.79-4.34,4.26l-.83-.79C66.94,66.28,68.43,64.83,69.94,63.46Zm142.8,39.72c.59,2,1.1,4,1.55,5.95l-1.12.26c-.44-2-.95-3.94-1.52-5.87Zm-150.3-32,.87.74c-1.32,1.53-2.59,3.13-3.78,4.76L58.6,76C59.82,74.36,61.11,72.74,62.44,71.19Zm152.07,74.56c-.37,1.78-.8,3.58-1.28,5.33l-.19.65-1.1-.31.18-.65c.48-1.72.9-3.5,1.27-5.26Zm-3.92,10,1.09.37c-.65,1.93-1.39,3.86-2.18,5.75l-1.07-.44C209.23,159.59,210,157.68,210.59,155.77ZM43,120.34c-.19,2-.3,4-.34,6.06l-1.14,0c0-2,.16-4.11.34-6.15Zm163.6,45.26,1,.5c-.89,1.84-1.85,3.67-2.87,5.44l-1-.57C204.74,169.22,205.7,167.42,206.57,165.6ZM42.66,130.94c.07,2,.21,4.05.42,6.06l-1.13.12c-.22-2-.36-4.1-.43-6.14Zm158.72,43.92,1,.62c-1.11,1.72-2.29,3.42-3.53,5.05l-.92-.69C199.11,178.23,200.29,176.55,201.38,174.86ZM43.68,141.5c.32,2,.71,4,1.16,6l-1.11.26c-.47-2-.86-4-1.19-6Zm151.38,41.91.88.74c-1.3,1.56-2.7,3.11-4.12,4.58l-.83-.8Q193.12,185.74,195.06,183.41ZM46,151.86c.56,1.94,1.19,3.88,1.89,5.76l-1.08.4c-.7-1.92-1.35-3.89-1.91-5.85Zm141.75,39.26.78.84c-1.5,1.39-3.06,2.75-4.65,4l-.71-.9C184.72,193.83,186.27,192.5,187.74,191.12ZM49.55,161.86c.8,1.84,1.66,3.69,2.58,5.49l-1,.52c-.93-1.81-1.81-3.69-2.61-5.56Zm130,36,.67.93c-1.65,1.2-3.37,2.35-5.11,3.44l-.6-1C176.2,200.18,177.9,199.05,179.53,197.86ZM54.32,171.35c1,1.73,2.09,3.46,3.23,5.14l-.95.64c-1.15-1.69-2.24-3.44-3.27-5.21Zm86.17,42.17.16,1.14c-2,.27-4.08.48-6.12.61l-.07-1.14C136.47,214,138.5,213.79,140.49,213.52Zm-56.79-12c1.71,1.05,3.5,2.05,5.28,3l-.53,1c-1.82-.94-3.62-2-5.35-3Zm46.21,12.78,0,1.15c-2.05,0-4.11,0-6.15-.15l.06-1.14C125.86,214.26,127.9,214.31,129.91,214.29Zm-36.83-7.8c1.83.84,3.72,1.61,5.61,2.32l-.4,1.07c-1.92-.71-3.83-1.5-5.69-2.34Zm26.23,7.26-.13,1.14c-2-.23-4.08-.53-6.09-.91l.21-1.12C115.28,213.22,117.3,213.52,119.31,213.75ZM103,210.29c1.93.61,3.89,1.15,5.85,1.62l-.26,1.11c-2-.47-4-1-5.93-1.64Z"/><circle class="cls-2" cx="128.2" cy="128.27" r="67.24"/><path class="cls-3" d="M165,133.2a2.44,2.44,0,1,0,0,4.88h.11v-4.87Z"/><path class="cls-3" d="M144.74,178.16v6.72a2.6,2.6,0,0,0,2.61,2.6h24a2.6,2.6,0,0,0,2.6-2.6v-6.72Z"/><polygon class="cls-3" points="144.74 148.19 144.74 156.3 173.99 156.3 173.99 148.19 145.03 148.19 144.74 148.19"/><polygon class="cls-3" points="145.03 148.19 173.99 148.19 165.12 140.42 153.9 140.42 145.03 148.19"/><rect class="cls-4" x="144.74" y="156.3" width="29.25" height="21.86"/><path class="cls-4" d="M153.86,132.24v8.18h11.26v-2.34H165a2.44,2.44,0,1,1,0-4.88h.11v-1a1,1,0,0,0-1-1h-9.26A1,1,0,0,0,153.86,132.24Z"/><path class="cls-5" d="M165.12,140.42v-8.18a1,1,0,0,0-1-1h-9.26a1,1,0,0,0-1,1v8.18h0"/><polyline class="cls-5" points="173.99 148.19 165.12 140.42 153.9 140.42 145.03 148.19"/><line class="cls-5" x1="173.99" y1="156.3" x2="144.74" y2="156.3"/><line class="cls-5" x1="173.99" y1="178.16" x2="144.74" y2="178.16"/><path class="cls-3" d="M150.14,162.92H169.4a.42.42,0,1,0,0-.84H150.14a.42.42,0,0,0,0,.84Z"/><path class="cls-3" d="M150.14,167.24H169.4a.42.42,0,1,0,0-.84H150.14a.42.42,0,1,0,0,.84Z"/><path class="cls-3" d="M150.14,171.56H169.4a.42.42,0,0,0,0-.84H150.14a.42.42,0,1,0,0,.84Z"/><path class="cls-5" d="M165.12,138.08H165a2.44,2.44,0,1,1,0-4.88h.11"/><path class="cls-5" d="M144.74,178.16v6.72a2.6,2.6,0,0,0,2.61,2.6h24a2.6,2.6,0,0,0,2.6-2.6V148.19H144.74v30Z"/><line class="cls-5" x1="171.45" y1="133.19" x2="167.31" y2="133.86"/><line class="cls-5" x1="177.5" y1="132.21" x2="173.44" y2="132.87"/><line class="cls-5" x1="183.52" y1="131.24" x2="179.28" y2="131.92"/><line class="cls-5" x1="184.03" y1="135.83" x2="179.63" y2="135.83"/><line class="cls-5" x1="177.81" y1="135.83" x2="173.44" y2="135.83"/><line class="cls-5" x1="171.64" y1="135.83" x2="167.66" y2="135.83"/><line class="cls-5" x1="183.52" y1="140.7" x2="179.28" y2="139.96"/><line class="cls-5" x1="177.5" y1="139.71" x2="173.44" y2="139.04"/><line class="cls-5" x1="171.45" y1="138.68" x2="167.66" y2="138.08"/><path class="cls-3" d="M154.77,86.65c.86.23,1.81.42,2.85.59V97.61a2,2,0,0,0,4.08,0v-.85a1.87,1.87,0,0,1,1.87-1.87,1.83,1.83,0,0,1,1.31.55,1.87,1.87,0,0,1,.55,1.32v7.14a2.2,2.2,0,0,0,4.4,0V93.23A1.87,1.87,0,0,1,173,91.91a1.85,1.85,0,0,1,.55,1.32v1.08a4.62,4.62,0,0,0,4.62,4.62V109.8c-4.52,6.24-24.63,5-27.75,0v-26C150.44,84.94,152.11,85.94,154.77,86.65Z"/><path class="cls-4" d="M154.77,81v5.64c-2.66-.71-4.33-1.71-4.33-2.82S152.11,81.72,154.77,81Z"/><path class="cls-4" d="M178.19,83.83c0,2.15-6.21,3.89-13.87,3.89a45.34,45.34,0,0,1-6.7-.48c-1-.17-2-.36-2.85-.59V81A38.83,38.83,0,0,1,164.32,80a38.43,38.43,0,0,1,9.67,1.1C176.58,81.76,178.19,82.74,178.19,83.83Z"/><path class="cls-4" d="M164.32,87.72c7.66,0,13.87-1.74,13.87-3.89v15.1a4.62,4.62,0,0,1-4.62-4.62V93.23a1.88,1.88,0,0,0-1.87-1.87,1.87,1.87,0,0,0-1.87,1.87V103.9a2.2,2.2,0,0,1-4.4,0V96.76a1.87,1.87,0,0,0-.55-1.32,1.83,1.83,0,0,0-1.31-.55,1.87,1.87,0,0,0-1.87,1.87v.85a2,2,0,0,1-4.08,0V87.24A45.34,45.34,0,0,0,164.32,87.72Z"/><path class="cls-6" d="M178.19,83.83c0,2.15-6.21,3.89-13.87,3.89a45.34,45.34,0,0,1-6.7-.48c-1-.17-2-.36-2.85-.59-2.66-.71-4.33-1.71-4.33-2.82s1.67-2.11,4.33-2.82A38.83,38.83,0,0,1,164.32,80a38.43,38.43,0,0,1,9.67,1.1C176.58,81.76,178.19,82.74,178.19,83.83Z"/><path class="cls-6" d="M150.44,83.83v26c3.12,5,23.23,6.24,27.75,0v-26"/><path class="cls-6" d="M154.77,90.85V76.42a9.62,9.62,0,1,1,19.23,0V81"/><path class="cls-6" d="M157.62,87.24V97.61a2,2,0,0,0,4.08,0v-.85a1.87,1.87,0,0,1,1.87-1.87,1.83,1.83,0,0,1,1.31.55,1.87,1.87,0,0,1,.55,1.32v7.14a2.2,2.2,0,0,0,4.4,0V93.23A1.87,1.87,0,0,1,173,91.91a1.85,1.85,0,0,1,.55,1.32v1.08a4.62,4.62,0,0,0,4.62,4.62"/><polygon class="cls-7" points="102.08 47.84 100.3 46.77 101.43 45 112.8 51.71 120.32 56.14 118.97 58.05 111.68 53.64 106.03 50.23 103.93 48.96 102.08 47.84"/><polygon class="cls-4" points="117.35 57.26 105.46 77.66 99.75 74.19 111.63 53.72 117.35 57.26"/><path class="cls-3" d="M101.39,95.46V93h7.17v.3H113v3s-1.11-.11-1.79,1.37.75,4.16,2.49,8.87,3.62,14.89,3.62,14.89h-9.57a38.93,38.93,0,0,0-.21-14.23,48.85,48.85,0,0,0-1.46-5.34l-.07-.19a8.88,8.88,0,0,0-4.65-5.47Z"/><polygon class="cls-4" points="116.13 92.5 116.13 97.14 113.03 97.14 113.03 96.28 113.03 93.29 113.03 92.5 116.13 92.5"/><path class="cls-4" d="M115.22,124.14h.36a.48.48,0,0,1,.47.49V126a.47.47,0,0,1-.47.48h-2a.47.47,0,0,1-.48-.48v-1.36a.48.48,0,0,1,.48-.49h1.65Z"/><path class="cls-4" d="M111.81,89.19v-.41a.58.58,0,0,1,.57-.58H114a.58.58,0,0,1,.58.58v2.38a.58.58,0,0,1-.58.58h-1.62a.58.58,0,0,1-.57-.58Z"/><path class="cls-4" d="M111.81,84.81V84.4a.58.58,0,0,1,.57-.58H114a.58.58,0,0,1,.58.58v2.38a.57.57,0,0,1-.58.57h-1.62a.57.57,0,0,1-.57-.57v-2Z"/><polygon class="cls-4" points="111.63 53.72 99.75 74.19 93.98 70.69 94.02 70.63 106.01 50.26 111.63 53.72"/><path class="cls-4" d="M110.42,124.14h.34a.49.49,0,0,1,.49.49V126a.48.48,0,0,1-.49.48h-2a.47.47,0,0,1-.48-.48v-1.36a.48.48,0,0,1,.48-.49h1.66Z"/><polygon class="cls-3" points="108.56 91.44 108.56 92.99 101.39 92.99 101.39 91.11 101.39 89.51 101.39 88.2 108.56 88.2 108.56 91.44"/><path class="cls-3" d="M87.49,86.23l3.69-5.63L93.69,82l-2.51,4.23h1.57L94.91,83s6.41-3.29,8.55-3.76a24.72,24.72,0,0,1,5.1-.36V81.8h-1.45v-1h-2.68a14,14,0,0,0-3.34.92s1,1.87,2.51,1.87h5V88.2H94.25v1.4l-.06,0L86.9,91.11V86.27Z"/><path class="cls-4" d="M107.57,107.18h0a13.44,13.44,0,0,0-5.71-2.06.79.79,0,0,1-.75-.78.77.77,0,0,1,.5-.72l4.51-1.78A48.85,48.85,0,0,1,107.57,107.18Z"/><polygon class="cls-4" points="103.93 48.96 106.01 50.26 94.02 70.63 93.98 70.69 90.29 68.45 102.08 47.84 103.93 48.96"/><polygon class="cls-3" points="99.75 74.19 105.46 77.66 97.99 77.66 92.78 74.51 90.29 68.45 93.98 70.69 99.75 74.19"/><rect class="cls-4" x="98.9" y="93.91" width="2.49" height="1.55"/><polygon class="cls-4" points="101.39 92.99 101.39 93.91 98.9 93.91 98.9 91.11 101.39 91.11 101.39 92.99"/><rect class="cls-4" x="98.9" y="89.51" width="2.49" height="1.6"/><rect class="cls-4" x="98.9" y="88.2" width="2.49" height="1.31"/><path class="cls-3" d="M98.9,95.46v6a2.28,2.28,0,0,1-2.34,2.29h-.21c-1.57,0-2.65.34-1.77-.8a4.9,4.9,0,0,0,1.82-5.84c0-.63,0-8.94,0-8.94h2.5v7.26Z"/><polygon class="cls-3" points="97.99 77.66 97.51 78.55 95.31 79.07 93.69 82.04 91.17 80.6 92.78 77.66 92.34 75.44 92.78 74.51 97.99 77.66"/><polygon class="cls-3" points="94.19 89.62 94.19 91.79 86.9 93.29 86.9 92.83 86.9 91.11 94.19 89.62"/><polygon class="cls-4" points="86.9 93.29 86.9 93.69 81.64 93.69 81.64 92.02 81.64 90.66 86.9 90.66 86.9 91.11 86.9 92.83 86.9 93.29"/><rect class="cls-4" x="81.64" y="87.7" width="5.26" height="2.96"/><polygon class="cls-4" points="86.9 86.27 86.9 87.7 81.64 87.7 81.64 86.42 81.64 85.22 86.9 85.22 86.9 85.91 86.9 86.27"/><polygon class="cls-3" points="81.64 90.66 81.64 92.02 80.66 92.02 80.66 90 80.66 88.15 80.66 86.42 81.64 86.42 81.64 87.7 81.64 90.66"/><rect class="cls-3" x="79.29" y="88.15" width="1.38" height="1.85"/><polygon class="cls-7" points="90.29 68.45 93.98 70.69 99.75 74.19 105.46 77.66 117.35 57.26 111.63 53.72 106.01 50.26 103.93 48.96 102.08 47.82 102.08 47.84 90.29 68.45"/><polyline class="cls-7" points="90.29 68.45 92.78 74.51 97.99 77.66 105.46 77.66"/><polyline class="cls-7" points="92.78 74.51 92.34 75.44 92.78 77.66 91.17 80.6 93.69 82.04 95.31 79.07 97.51 78.55 97.99 77.66"/><polyline class="cls-7" points="91.17 80.6 87.49 86.23 87.46 86.27"/><path class="cls-7" d="M93.69,82l-2.51,4.23h1.57L94.91,83s6.41-3.29,8.55-3.76a24.72,24.72,0,0,1,5.1-.36V81.8h-1.45v-1h-2.68a14,14,0,0,0-3.34.92s1,1.87,2.51,1.87h5V88.2H94.25v1.4l-.06,0L86.9,91.11V86.27l.59,0"/><polyline class="cls-7" points="86.9 93.29 94.19 91.79 94.19 89.62 94.19 89.37"/><line class="cls-7" x1="86.9" y1="91.11" x2="86.9" y2="92.82"/><path class="cls-7" d="M101.39,88.2v8a8.88,8.88,0,0,1,4.65,5.47l.07.19a48.85,48.85,0,0,1,1.46,5.34,38.93,38.93,0,0,1,.21,14.23h9.57s-1.88-10.17-3.62-14.89-3.18-7.39-2.49-8.87S113,96.28,113,96.28v-3h-4.47V88.2"/><line class="cls-7" x1="101.39" y1="92.99" x2="108.56" y2="92.99"/><polyline class="cls-7" points="113.03 93.29 113.03 92.5 116.13 92.5 116.13 97.14 113.03 97.14 113.03 96.28"/><path class="cls-7" d="M111.81,86.27v.51a.57.57,0,0,0,.57.57H114a.57.57,0,0,0,.58-.57V84.4a.58.58,0,0,0-.58-.58h-1.62a.58.58,0,0,0-.57.58v1.87Z"/><path class="cls-7" d="M108.87,83.82h1.24a.42.42,0,0,1,.42.41v2.41a.42.42,0,0,1-.42.42h-1.55"/><polyline class="cls-7" points="110.53 84.81 111.81 84.81 112.01 84.81"/><path class="cls-7" d="M111.81,88.78v2.38a.58.58,0,0,0,.57.58H114a.58.58,0,0,0,.58-.58V88.78a.58.58,0,0,0-.58-.58h-1.62A.58.58,0,0,0,111.81,88.78Z"/><path class="cls-7" d="M108.87,88.2h1.24a.41.41,0,0,1,.42.41V91a.42.42,0,0,1-.42.41h-1.55"/><polyline class="cls-7" points="110.53 89.19 111.81 89.19 112.01 89.19"/><polyline class="cls-7" points="110.53 86.27 111.81 86.27 112.01 86.27"/><path class="cls-7" d="M96.4,88.2s0,8.31,0,8.94A4.9,4.9,0,0,1,94.58,103c-.88,1.14.2.76,1.77.8h.21a2.28,2.28,0,0,0,2.34-2.29V88.2"/><line class="cls-7" x1="101.39" y1="93.91" x2="98.9" y2="93.91"/><polyline class="cls-7" points="98.9 95.46 101.39 95.46 101.65 95.46"/><line class="cls-7" x1="98.9" y1="89.51" x2="101.39" y2="89.51"/><line class="cls-7" x1="98.9" y1="91.11" x2="101.39" y2="91.11"/><polyline class="cls-7" points="86.9 85.91 86.9 85.22 81.64 85.22 81.64 86.42 81.64 87.7 81.64 90.66 81.64 92.02 81.64 93.69 86.9 93.69 86.9 93.29 86.9 92.83"/><polyline class="cls-7" points="80.66 90 80.66 92.02 81.64 92.02"/><polyline class="cls-7" points="81.64 86.42 80.66 86.42 80.66 88.15"/><rect class="cls-7" x="79.29" y="88.15" width="1.38" height="1.85"/><line class="cls-7" x1="81.64" y1="87.7" x2="86.9" y2="87.7"/><line class="cls-7" x1="81.64" y1="90.66" x2="86.9" y2="90.66"/><path class="cls-7" d="M109,124.14h-.22a.48.48,0,0,0-.48.49V126a.47.47,0,0,0,.48.48h2a.48.48,0,0,0,.49-.48v-1.36a.49.49,0,0,0-.49-.49H109Z"/><path class="cls-7" d="M111.25,121.67v1a.35.35,0,0,1-.34.34h-2a.35.35,0,0,1-.34-.34v-1.31"/><polyline class="cls-7" points="110.42 123.06 110.42 124.14 110.42 124.31"/><line class="cls-7" x1="108.98" y1="123.06" x2="108.98" y2="124.14"/><path class="cls-7" d="M113.78,124.14h-.21a.48.48,0,0,0-.48.49V126a.47.47,0,0,0,.48.48h2a.47.47,0,0,0,.47-.48v-1.36a.48.48,0,0,0-.47-.49h-1.8Z"/><path class="cls-7" d="M116.05,121.67v1a.34.34,0,0,1-.34.34h-2a.35.35,0,0,1-.35-.34v-1.31"/><polyline class="cls-7" points="115.22 123.06 115.22 124.14 115.22 124.31"/><line class="cls-7" x1="113.78" y1="123.06" x2="113.78" y2="124.14"/><path class="cls-7" d="M106.11,101.84l-4.51,1.78a.77.77,0,0,0-.5.72.79.79,0,0,0,.75.78,13.44,13.44,0,0,1,5.71,2.06"/><path class="cls-1" d="M41,75.41,75,87.7,40.79,76.08a.36.36,0,0,1-.23-.45A.37.37,0,0,1,41,75.4Z"/><path class="cls-1" d="M75.09,92.06,40.91,106.55,74.8,91.41a.37.37,0,0,1,.48.18.36.36,0,0,1-.18.47Z"/><path class="cls-1" d="M40.82,100.61,75,92,41,101.31a.36.36,0,1,1-.19-.69Z"/><path class="cls-1" d="M40.49,96.13l34.46-5L40.6,96.84a.37.37,0,0,1-.42-.3.36.36,0,0,1,.3-.41Z"/><path class="cls-1" d="M40.11,92.1,75,90.66l-34.8,2.16a.36.36,0,1,1,0-.72Z"/><path class="cls-1" d="M40.56,87.79,75,89.46l-34.42-.95a.36.36,0,0,1,0-.72Z"/><path class="cls-1" d="M41,84l34,4.8L40.86,84.71a.35.35,0,0,1-.31-.4A.35.35,0,0,1,41,84Z"/><path class="cls-1" d="M41,80.25l34,7.9L40.83,81a.37.37,0,0,1-.28-.43.36.36,0,0,1,.43-.27Z"/><polyline class="cls-7" points="106.06 50.18 106.03 50.23 106.01 50.26 94.02 70.63"/><polyline class="cls-7" points="111.68 53.64 111.63 53.72 99.75 74.19"/><path class="cls-8" d="M97.53,166.82c-.08,0-.22.07-.32.28v1.07c0,.34,0,.36.43.4v.2H96.15v-.2c.3,0,.33-.06.33-.4v-1.23c0-.28,0-.31-.28-.37v-.17a5.39,5.39,0,0,0,1-.22v.61c.25-.38.45-.59.68-.59a.34.34,0,0,1,.37.34A.57.57,0,0,1,98,167a.16.16,0,0,1-.17,0C97.7,166.91,97.63,166.82,97.53,166.82Z"/><path class="cls-4" d="M88.72,146.33c4.27,0,7.73,2,7.73,4.38s-3.46,4.38-7.73,4.38-7.74-2-7.74-4.38S84.44,146.33,88.72,146.33Z"/><path class="cls-8" d="M94.77,166.43c-.22,0-.41.26-.45.71l.68,0c.08,0,.12,0,.12-.11C95.13,166.72,95,166.43,94.77,166.43Zm-1.18,1.18a1.47,1.47,0,0,1,.42-1,1.27,1.27,0,0,1,.88-.39.92.92,0,0,1,.93.91c0,.1,0,.2-.08.21s-.9.07-1.44.09c0,.6.35.9.76.9a.93.93,0,0,0,.64-.25l.1.15a1.3,1.3,0,0,1-1,.62A1.14,1.14,0,0,1,93.59,167.61Z"/><path class="cls-3" d="M93.47,132.16V137a.52.52,0,0,1-.52.52H83.78a.52.52,0,0,1-.53-.52v-4.84a.53.53,0,0,1,.53-.52H93A.52.52,0,0,1,93.47,132.16Z"/><path class="cls-8" d="M93.3,160l.67-.45.07,0c0,.16,0,.45,0,.88h.56a.23.23,0,0,1,0,.28H94v1.38c0,.43.18.49.28.49a.66.66,0,0,0,.27-.06l.06.2-.42.21A.77.77,0,0,1,94,163a.62.62,0,0,1-.69-.71v-1.57h-.36l0-.07.16-.21h.23Z"/><rect class="cls-3" x="84.59" y="137.52" width="7.8" height="1.24"/><path class="cls-3" d="M92.21,168.13c0,.39,0,.41-.25.44v.2h-.31v-.2c-.23,0-.25,0-.25-.4v-1.36a.69.69,0,0,1,.42-.17c.19,0,.39.13.39.53Z"/><path class="cls-3" d="M91.35,160.82c.2,0,.39.13.39.53v1c0,.39,0,.41-.26.44v.2h-.3v-.2c-.23,0-.25-.05-.25-.39V161l.1-.07A.57.57,0,0,1,91.35,160.82Z"/><path class="cls-8" d="M92,168.57c.24,0,.25,0,.25-.44v-1c0-.4-.2-.53-.39-.53a.69.69,0,0,0-.42.17v1.36c0,.35,0,.37.25.4v.2H90.34v-.2c.3,0,.33,0,.33-.42V167c0-.34,0-.35-.29-.41v-.17a7,7,0,0,0,1-.22c0,.08,0,.28,0,.4l.36-.24a.76.76,0,0,1,.44-.14c.45,0,.74.33.74.9v1.06c0,.36,0,.37.3.41v.2H92Z"/><path class="cls-8" d="M91.74,161.35c0-.4-.19-.53-.39-.53a.57.57,0,0,0-.32.1l-.1-.16.35-.23a.73.73,0,0,1,.44-.15c.46,0,.75.33.75.91v1.06c0,.35,0,.36.3.4v.2H91.48v-.2c.24,0,.26-.05.26-.44Z"/><path class="cls-8" d="M90.2,162.33v-1.17c0-.34,0-.35-.3-.4v-.18a5.35,5.35,0,0,0,1-.22c0,.08,0,.28,0,.41h0l.1.16-.1.07v1.37c0,.34,0,.36.25.39v.2H89.87v-.2C90.17,162.7,90.2,162.7,90.2,162.33Z"/><path class="cls-3" d="M90.2,161.16v1.17c0,.37,0,.37-.33.42v.2h-.26v-.2c-.33,0-.34-.07-.34-.46v-1.53h.63C90.15,160.81,90.2,160.82,90.2,161.16Z"/><path class="cls-8" d="M89.27,162.29c0,.39,0,.42.34.46v.2H88.2v-.2c.31,0,.34-.06.34-.46V161.2c0-.38,0-.41-.3-.44v-.18a5.36,5.36,0,0,0,1-.21v1.92Z"/><path class="cls-8" d="M88.86,159.23a.4.4,0,0,1,.41.4.4.4,0,0,1-.41.4.42.42,0,0,1-.41-.4A.41.41,0,0,1,88.86,159.23Z"/><path class="cls-3" d="M88.61,166.64c.2,0,.4.13.4.53v1c0,.39,0,.41-.26.44v.2h-.3v-.2c-.24,0-.25,0-.25-.4v-1.36l.1-.08A.64.64,0,0,1,88.61,166.64Z"/><path class="cls-8" d="M89,167.17c0-.4-.2-.53-.4-.53a.64.64,0,0,0-.31.09l-.1-.15.35-.24a.78.78,0,0,1,.44-.14c.46,0,.74.33.74.9v1.06c0,.36,0,.37.31.41v.2H88.75v-.2c.24,0,.26,0,.26-.44Z"/><path class="cls-8" d="M88.2,166.81v1.36c0,.35,0,.37.25.4v.2H87.14v-.2c.3,0,.33,0,.33-.42V167c0-.34,0-.35-.3-.41v-.17a7.4,7.4,0,0,0,1-.22c0,.08,0,.28,0,.4h0l.1.15Z"/><path class="cls-3" d="M86.88,168.77v-.2c-.33,0-.35-.08-.35-.46v-1.54h.64c.25.06.3.07.3.41v1.17c0,.37,0,.37-.33.42v.2Z"/><path class="cls-8" d="M85.81,167c0-.38,0-.41-.3-.44v-.18a7.05,7.05,0,0,0,1-.21v1.92c0,.38,0,.42.35.46v.2H85.47v-.2c.3,0,.34-.06.34-.46Z"/><path class="cls-8" d="M86.13,165.05a.4.4,0,0,1,.41.4.4.4,0,0,1-.41.4.42.42,0,0,1-.41-.4A.41.41,0,0,1,86.13,165.05Z"/><path class="cls-8" d="M86.9,161.12c0-.3-.11-.46-.35-.46a.27.27,0,0,0-.23.12,1,1,0,0,0-.13.37.22.22,0,0,1-.24.19.34.34,0,0,1-.33-.3c0-.1.06-.17.19-.26a2.92,2.92,0,0,1,.9-.4,1,1,0,0,1,.58.16.77.77,0,0,1,.31.69v1c0,.27.09.33.18.33a.39.39,0,0,0,.18,0l.06.19-.6.32a.59.59,0,0,1-.36-.11.68.68,0,0,1-.14-.22,1.84,1.84,0,0,1-.6.33.73.73,0,0,1-.76-.72c0-.3.13-.44.43-.55a5.55,5.55,0,0,0,.91-.37Zm0,1.37v-.89l-.32.17a.41.41,0,0,0-.27.38.38.38,0,0,0,.34.43A.34.34,0,0,0,86.9,162.49Z"/><path class="cls-3" d="M83.74,166.62c.22,0,.41.15.41.58v1c0,.3,0,.34-.27.38v.2h-.26v-.2c-.26,0-.29-.08-.29-.38v-1.41a.46.46,0,0,1,.1-.07A.55.55,0,0,1,83.74,166.62Z"/><path class="cls-8" d="M84.15,167.2c0-.43-.19-.58-.41-.58a.55.55,0,0,0-.31.09l-.1-.15a1.18,1.18,0,0,1,.76-.36c.49,0,.79.32.79.94v1c0,.36,0,.37.31.41v.2H83.88v-.2c.25,0,.27-.08.27-.38Z"/><path class="cls-8" d="M82.28,168.57c.28,0,.33,0,.33-.41v-2.6c0-.26,0-.32-.35-.37V165a6.13,6.13,0,0,0,1.07-.19v1.74l.1.15a.46.46,0,0,0-.1.07v1.41c0,.3,0,.34.29.38v.2H82.28Z"/><path class="cls-8" d="M83.49,159.75v1.45a.81.81,0,0,0,.3.05c.26,0,.68-.15.68-.89s-.34-.84-.71-.84a.41.41,0,0,0-.22,0A.23.23,0,0,0,83.49,159.75Zm-.78,2.45v-2.15c0-.48-.06-.53-.48-.56v-.2h1.6a1.86,1.86,0,0,1,1,.23.94.94,0,0,1,.44.84A1.19,1.19,0,0,1,84,161.53h-.17l-.33-.09v.77c0,.47,0,.49.53.54V163H82.23v-.21C82.65,162.68,82.71,162.67,82.71,162.2Z"/><path class="cls-3" d="M88.86,160a.4.4,0,0,0,.41-.4.4.4,0,0,0-.41-.4.41.41,0,0,0-.41.4A.42.42,0,0,0,88.86,160Zm-2.73,5.82a.4.4,0,0,0,.41-.4.4.4,0,0,0-.41-.4.41.41,0,0,0-.41.4A.42.42,0,0,0,86.13,165.85ZM84,161.53a1.19,1.19,0,0,0,1.29-1.17.94.94,0,0,0-.44-.84,1.86,1.86,0,0,0-1-.23h-1.6v.2c.42,0,.48.08.48.56v2.15c0,.47-.06.48-.48.54V163H84v-.21c-.49-.05-.53-.07-.53-.54v-.77l.33.09Zm5.28-.77v-.39a5.36,5.36,0,0,1-1,.21v.18c.27,0,.3.06.3.44v1.09c0,.4,0,.42-.34.46v.2h4.57v-.2c-.27,0-.3-.05-.3-.4v-1.06c0-.58-.29-.91-.75-.91a.73.73,0,0,0-.44.15l-.35.23h0c0-.13,0-.33,0-.41a5.35,5.35,0,0,1-1,.22v.18Zm-4.39,6.38c0-.62-.3-.94-.79-.94a1.18,1.18,0,0,0-.76.36v-1.74a6.13,6.13,0,0,1-1.07.19v.18c.31.05.35.11.35.37v2.6c0,.36,0,.38-.33.41v.2h2.91v-.2c-.27,0-.31,0-.31-.41Zm9.13-.55a1.47,1.47,0,0,0-.42,1,1.14,1.14,0,0,0,1.18,1.22,1.3,1.3,0,0,0,1-.62l-.1-.15a.93.93,0,0,1-.64.25c-.41,0-.74-.3-.76-.9.54,0,1.34-.06,1.44-.09s.08-.11.08-.21a.92.92,0,0,0-.93-.91A1.27,1.27,0,0,0,94,166.59Zm-7.46-5.93c.24,0,.35.16.35.46v.25a5.55,5.55,0,0,1-.91.37c-.3.11-.43.25-.43.55a.73.73,0,0,0,.76.72,1.84,1.84,0,0,0,.6-.33.68.68,0,0,0,.14.22.59.59,0,0,0,.36.11l.6-.32L88,162.5a.39.39,0,0,1-.18,0c-.09,0-.18-.06-.18-.33v-1a.77.77,0,0,0-.31-.69,1,1,0,0,0-.58-.16,2.92,2.92,0,0,0-.9.4c-.13.09-.19.16-.19.26a.34.34,0,0,0,.33.3.22.22,0,0,0,.24-.19,1,1,0,0,1,.13-.37A.27.27,0,0,1,86.55,160.66Zm9.65,5.74v.17c.26.06.28.09.28.37v1.23c0,.34,0,.37-.33.4v.2h1.49v-.2c-.39,0-.43-.06-.43-.4V167.1c.1-.21.24-.28.32-.28s.17.09.27.17a.16.16,0,0,0,.17,0,.57.57,0,0,0,.29-.48.34.34,0,0,0-.37-.34c-.23,0-.43.21-.68.59v-.61A5.39,5.39,0,0,1,96.2,166.4Zm-9,0v.17h-.64v-.38a7.05,7.05,0,0,1-1,.21v.18c.27,0,.3.06.3.44v1.09c0,.4,0,.42-.34.46v.2H90v-.2c-.27,0-.31,0-.31-.41V167.1c0-.57-.28-.9-.74-.9a.78.78,0,0,0-.44.14l-.35.24h0c0-.12,0-.32,0-.4A7.4,7.4,0,0,1,87.17,166.4Zm-5.94,2.15c-.5,0-.56-.07-.56-.54v-2.65H81c.33,0,.38,0,.47.17a1.79,1.79,0,0,1,.25.55l.21,0c0-.36,0-.86-.06-1.1h-.16a.36.36,0,0,1-.32.15H79.17c-.17,0-.23,0-.32-.15h-.16c0,.28-.06.71-.09,1.13h.21a2,2,0,0,1,.23-.54c.11-.13.19-.19.51-.19h.35V168c0,.47-.06.51-.53.54v.22h1.86Zm11.71-.39V167.1c0-.57-.29-.9-.74-.9a.76.76,0,0,0-.44.14l-.36.24c0-.12,0-.32,0-.4a7,7,0,0,1-1,.22v.17c.25.06.29.07.29.41v1.17c0,.37,0,.37-.33.42v.2h2.9v-.2C93,168.53,92.94,168.52,92.94,168.16Zm1-8.63-.67.45v.47h-.23l-.16.21,0,.07h.36v1.57A.62.62,0,0,0,94,163a.77.77,0,0,0,.23-.06l.42-.21-.06-.2a.66.66,0,0,1-.27.06c-.1,0-.28-.06-.28-.49v-1.38h.51a.23.23,0,0,0,0-.28H94c0-.43,0-.72,0-.88ZM105,139.28v47.78a1.32,1.32,0,0,1-1.07,1.31c-5.2,1-25.48,1.06-30.5,0a1.32,1.32,0,0,1-1.06-1.3V139.28a.51.51,0,0,1,.51-.52h31.61A.51.51,0,0,1,105,139.28Zm-8.58,11.43c0-2.42-3.46-4.38-7.73-4.38s-7.74,2-7.74,4.38,3.46,4.38,7.74,4.38S96.45,153.13,96.45,150.71Z"/><path class="cls-8" d="M81.23,168.77H79.37v-.22c.47,0,.53-.07.53-.54v-2.65h-.35c-.32,0-.4.06-.51.19a2,2,0,0,0-.23.54H78.6c0-.42.07-.85.09-1.13h.16c.09.14.15.15.32.15h2.26a.36.36,0,0,0,.32-.15h.16c0,.24,0,.74.06,1.1l-.21,0a1.79,1.79,0,0,0-.25-.55c-.09-.12-.14-.17-.47-.17h-.37V168c0,.47.06.51.56.54Z"/><path class="cls-5" d="M92.39,138.76h12.13a.51.51,0,0,1,.51.52v47.78a1.32,1.32,0,0,1-1.07,1.31c-5.2,1-25.48,1.06-30.5,0a1.32,1.32,0,0,1-1.06-1.3V139.28a.51.51,0,0,1,.51-.52H92.39Z"/><path class="cls-5" d="M84.59,137.52h-.81a.52.52,0,0,1-.53-.52v-4.84a.53.53,0,0,1,.53-.52H93a.52.52,0,0,1,.52.52V137a.52.52,0,0,1-.52.52H84.59Z"/><line class="cls-5" x1="84.59" y1="137.52" x2="84.59" y2="138.76"/><line class="cls-5" x1="92.39" y1="137.52" x2="92.39" y2="138.76"/><path class="cls-5" d="M96.45,150.71c0,2.42-3.46,4.38-7.73,4.38s-7.74-2-7.74-4.38,3.46-4.38,7.74-4.38S96.45,148.29,96.45,150.71Z"/><line class="cls-5" x1="83.25" y1="172.95" x2="93.47" y2="172.95"/><line class="cls-5" x1="80.99" y1="175.77" x2="95.74" y2="175.77"/></svg>